<?xml version="1.0" encoding="utf-8"?>
<svg xmlns="http://www.w3.org/2000/svg" xmlns:xlink="http://www.w3.org/1999/xlink" width="200" height="250" viewBox="0 0 800 1000">
<defs>
  <clipPath id="clip420">
    <rect x="0" y="0" width="800" height="1000"/>
  </clipPath>
</defs>
<path clip-path="url(#clip420)" d="
M0 1000 L800 1000 L800 0 L0 0  Z
  " fill="#ffffff" fill-rule="evenodd" fill-opacity="1"/>
<defs>
  <clipPath id="clip421">
    <rect x="200" y="100" width="701" height="701"/>
  </clipPath>
</defs>
<path clip-path="url(#clip420)" d="
M70.9921 927.008 L752.756 927.008 L752.756 62.9921 L70.9921 62.9921  Z
  " fill="#ffffff" fill-rule="evenodd" fill-opacity="1"/>
<defs>
  <clipPath id="clip422">
    <rect x="70" y="62" width="683" height="865"/>
  </clipPath>
</defs>
<polyline clip-path="url(#clip420)" style="stroke:#000000; stroke-width:4; stroke-opacity:1; fill:none" points="
  70.9921,927.008 752.756,927.008 
  "/>
<polyline clip-path="url(#clip420)" style="stroke:#000000; stroke-width:4; stroke-opacity:1; fill:none" points="
  139.169,927.008 139.169,916.64 
  "/>
<polyline clip-path="url(#clip420)" style="stroke:#000000; stroke-width:4; stroke-opacity:1; fill:none" points="
  275.521,927.008 275.521,916.64 
  "/>
<polyline clip-path="url(#clip420)" style="stroke:#000000; stroke-width:4; stroke-opacity:1; fill:none" points="
  411.874,927.008 411.874,916.64 
  "/>
<polyline clip-path="url(#clip420)" style="stroke:#000000; stroke-width:4; stroke-opacity:1; fill:none" points="
  548.227,927.008 548.227,916.64 
  "/>
<polyline clip-path="url(#clip420)" style="stroke:#000000; stroke-width:4; stroke-opacity:1; fill:none" points="
  684.58,927.008 684.58,916.64 
  "/>
<path clip-path="url(#clip420)" d="M 0 0 M109.111 959.651 L138.787 959.651 L138.787 963.586 L109.111 963.586 L109.111 959.651 Z" fill="#000000" fill-rule="evenodd" fill-opacity="1" /><path clip-path="url(#clip420)" d="M 0 0 M152.907 972.545 L169.226 972.545 L169.226 976.48 L147.282 976.48 L147.282 972.545 Q149.944 969.79 154.527 965.16 Q159.134 960.508 160.314 959.165 Q162.56 956.642 163.439 954.906 Q164.342 953.147 164.342 951.457 Q164.342 948.702 162.398 946.966 Q160.476 945.23 157.374 945.23 Q155.175 945.23 152.722 945.994 Q150.291 946.758 147.513 948.309 L147.513 943.587 Q150.337 942.452 152.791 941.874 Q155.245 941.295 157.282 941.295 Q162.652 941.295 165.847 943.98 Q169.041 946.665 169.041 951.156 Q169.041 953.286 168.231 955.207 Q167.444 957.105 165.337 959.698 Q164.759 960.369 161.657 963.586 Q158.555 966.781 152.907 972.545 Z" fill="#000000" fill-rule="evenodd" fill-opacity="1" /><path clip-path="url(#clip420)" d="M 0 0 M245.278 959.651 L274.954 959.651 L274.954 963.586 L245.278 963.586 L245.278 959.651 Z" fill="#000000" fill-rule="evenodd" fill-opacity="1" /><path clip-path="url(#clip420)" d="M 0 0 M285.857 972.545 L293.496 972.545 L293.496 946.179 L285.186 947.846 L285.186 943.587 L293.449 941.92 L298.125 941.92 L298.125 972.545 L305.764 972.545 L305.764 976.48 L285.857 976.48 L285.857 972.545 Z" fill="#000000" fill-rule="evenodd" fill-opacity="1" /><path clip-path="url(#clip420)" d="M 0 0 M411.874 944.999 Q408.263 944.999 406.434 948.563 Q404.629 952.105 404.629 959.235 Q404.629 966.341 406.434 969.906 Q408.263 973.447 411.874 973.447 Q415.508 973.447 417.314 969.906 Q419.142 966.341 419.142 959.235 Q419.142 952.105 417.314 948.563 Q415.508 944.999 411.874 944.999 M411.874 941.295 Q417.684 941.295 420.74 945.901 Q423.818 950.485 423.818 959.235 Q423.818 967.961 420.74 972.568 Q417.684 977.151 411.874 977.151 Q406.064 977.151 402.985 972.568 Q399.93 967.961 399.93 959.235 Q399.93 950.485 402.985 945.901 Q406.064 941.295 411.874 941.295 Z" fill="#000000" fill-rule="evenodd" fill-opacity="1" /><path clip-path="url(#clip420)" d="M 0 0 M538.609 972.545 L546.248 972.545 L546.248 946.179 L537.937 947.846 L537.937 943.587 L546.201 941.92 L550.877 941.92 L550.877 972.545 L558.516 972.545 L558.516 976.48 L538.609 976.48 L538.609 972.545 Z" fill="#000000" fill-rule="evenodd" fill-opacity="1" /><path clip-path="url(#clip420)" d="M 0 0 M679.232 972.545 L695.552 972.545 L695.552 976.48 L673.607 976.48 L673.607 972.545 Q676.269 969.79 680.853 965.16 Q685.459 960.508 686.64 959.165 Q688.885 956.642 689.765 954.906 Q690.667 953.147 690.667 951.457 Q690.667 948.702 688.723 946.966 Q686.802 945.23 683.7 945.23 Q681.501 945.23 679.047 945.994 Q676.617 946.758 673.839 948.309 L673.839 943.587 Q676.663 942.452 679.117 941.874 Q681.57 941.295 683.607 941.295 Q688.978 941.295 692.172 943.98 Q695.367 946.665 695.367 951.156 Q695.367 953.286 694.556 955.207 Q693.769 957.105 691.663 959.698 Q691.084 960.369 687.982 963.586 Q684.88 966.781 679.232 972.545 Z" fill="#000000" fill-rule="evenodd" fill-opacity="1" /><polyline clip-path="url(#clip420)" style="stroke:#000000; stroke-width:4; stroke-opacity:1; fill:none" points="
  70.9921,927.008 70.9921,62.9921 
  "/>
<polyline clip-path="url(#clip420)" style="stroke:#000000; stroke-width:4; stroke-opacity:1; fill:none" points="
  70.9921,840.606 79.1733,840.606 
  "/>
<polyline clip-path="url(#clip420)" style="stroke:#000000; stroke-width:4; stroke-opacity:1; fill:none" points="
  70.9921,667.803 79.1733,667.803 
  "/>
<polyline clip-path="url(#clip420)" style="stroke:#000000; stroke-width:4; stroke-opacity:1; fill:none" points="
  70.9921,495 79.1733,495 
  "/>
<polyline clip-path="url(#clip420)" style="stroke:#000000; stroke-width:4; stroke-opacity:1; fill:none" points="
  70.9921,322.197 79.1733,322.197 
  "/>
<polyline clip-path="url(#clip420)" style="stroke:#000000; stroke-width:4; stroke-opacity:1; fill:none" points="
  70.9921,149.394 79.1733,149.394 
  "/>
<path clip-path="url(#clip420)" d="M 0 0 M-4.12329 841.058 L25.5525 841.058 L25.5525 844.993 L-4.12329 844.993 L-4.12329 841.058 Z" fill="#000000" fill-rule="evenodd" fill-opacity="1" /><path clip-path="url(#clip420)" d="M 0 0 M39.6728 853.951 L55.9921 853.951 L55.9921 857.886 L34.0478 857.886 L34.0478 853.951 Q36.7098 851.197 41.2931 846.567 Q45.8996 841.914 47.0801 840.572 Q49.3255 838.048 50.2051 836.312 Q51.1079 834.553 51.1079 832.863 Q51.1079 830.109 49.1635 828.373 Q47.2422 826.636 44.1403 826.636 Q41.9413 826.636 39.4876 827.4 Q37.057 828.164 34.2793 829.715 L34.2793 824.993 Q37.1033 823.859 39.557 823.28 Q42.0107 822.701 44.0477 822.701 Q49.4181 822.701 52.6125 825.386 Q55.8069 828.072 55.8069 832.562 Q55.8069 834.692 54.9968 836.613 Q54.2097 838.511 52.1033 841.104 Q51.5246 841.775 48.4227 844.993 Q45.3209 848.187 39.6728 853.951 Z" fill="#000000" fill-rule="evenodd" fill-opacity="1" /><path clip-path="url(#clip420)" d="M 0 0 M-4.49366 668.255 L25.1821 668.255 L25.1821 672.19 L-4.49366 672.19 L-4.49366 668.255 Z" fill="#000000" fill-rule="evenodd" fill-opacity="1" /><path clip-path="url(#clip420)" d="M 0 0 M36.0848 681.148 L43.7237 681.148 L43.7237 654.782 L35.4135 656.449 L35.4135 652.19 L43.6774 650.523 L48.3533 650.523 L48.3533 681.148 L55.9921 681.148 L55.9921 685.083 L36.0848 685.083 L36.0848 681.148 Z" fill="#000000" fill-rule="evenodd" fill-opacity="1" /><path clip-path="url(#clip420)" d="M 0 0 M44.0477 480.799 Q40.4367 480.799 38.608 484.363 Q36.8024 487.905 36.8024 495.035 Q36.8024 502.141 38.608 505.706 Q40.4367 509.248 44.0477 509.248 Q47.682 509.248 49.4875 505.706 Q51.3162 502.141 51.3162 495.035 Q51.3162 487.905 49.4875 484.363 Q47.682 480.799 44.0477 480.799 M44.0477 477.095 Q49.8579 477.095 52.9134 481.701 Q55.9921 486.285 55.9921 495.035 Q55.9921 503.762 52.9134 508.368 Q49.8579 512.951 44.0477 512.951 Q38.2376 512.951 35.1589 508.368 Q32.1034 503.762 32.1034 495.035 Q32.1034 486.285 35.1589 481.701 Q38.2376 477.095 44.0477 477.095 Z" fill="#000000" fill-rule="evenodd" fill-opacity="1" /><path clip-path="url(#clip420)" d="M 0 0 M36.0848 335.542 L43.7237 335.542 L43.7237 309.176 L35.4135 310.843 L35.4135 306.584 L43.6774 304.917 L48.3533 304.917 L48.3533 335.542 L55.9921 335.542 L55.9921 339.477 L36.0848 339.477 L36.0848 335.542 Z" fill="#000000" fill-rule="evenodd" fill-opacity="1" /><path clip-path="url(#clip420)" d="M 0 0 M39.6728 162.739 L55.9921 162.739 L55.9921 166.674 L34.0478 166.674 L34.0478 162.739 Q36.7098 159.984 41.2931 155.354 Q45.8996 150.702 47.0801 149.359 Q49.3255 146.836 50.2051 145.1 Q51.1079 143.34 51.1079 141.651 Q51.1079 138.896 49.1635 137.16 Q47.2422 135.424 44.1403 135.424 Q41.9413 135.424 39.4876 136.188 Q37.057 136.952 34.2793 138.503 L34.2793 133.78 Q37.1033 132.646 39.557 132.067 Q42.0107 131.489 44.0477 131.489 Q49.4181 131.489 52.6125 134.174 Q55.8069 136.859 55.8069 141.35 Q55.8069 143.479 54.9968 145.401 Q54.2097 147.299 52.1033 149.891 Q51.5246 150.563 48.4227 153.78 Q45.3209 156.975 39.6728 162.739 Z" fill="#000000" fill-rule="evenodd" fill-opacity="1" /><path clip-path="url(#clip420)" d="M 0 0 M340.532 22.3286 Q337.384 22.3286 335.532 24.4814 Q333.703 26.6341 333.703 30.3841 Q333.703 34.1109 335.532 36.2868 Q337.384 38.4396 340.532 38.4396 Q343.68 38.4396 345.509 36.2868 Q347.36 34.1109 347.36 30.3841 Q347.36 26.6341 345.509 24.4814 Q343.68 22.3286 340.532 22.3286 M349.814 7.67588 L349.814 11.9351 Q348.055 11.1018 346.249 10.662 Q344.467 10.2222 342.708 10.2222 Q338.078 10.2222 335.624 13.3472 Q333.194 16.4721 332.847 22.7915 Q334.212 20.7777 336.273 19.7129 Q338.333 18.6249 340.81 18.6249 Q346.018 18.6249 349.027 21.7962 Q352.06 24.9443 352.06 30.3841 Q352.06 35.7081 348.911 38.9257 Q345.763 42.1433 340.532 42.1433 Q334.536 42.1433 331.365 37.56 Q328.194 32.9535 328.194 24.2267 Q328.194 16.0323 332.083 11.1712 Q335.972 6.287 342.523 6.287 Q344.282 6.287 346.064 6.63422 Q347.87 6.98144 349.814 7.67588 Z" fill="#000000" fill-rule="evenodd" fill-opacity="1" /><path clip-path="url(#clip420)" d="M 0 0 M357.36 26.5878 L369.837 26.5878 L369.837 30.3841 L357.36 30.3841 L357.36 26.5878 Z" fill="#000000" fill-rule="evenodd" fill-opacity="1" /><path clip-path="url(#clip420)" d="M 0 0 M376.226 5.45367 L386.041 5.45367 L386.041 8.76384 L380.485 8.76384 L380.485 44.4118 L386.041 44.4118 L386.041 47.722 L376.226 47.722 L376.226 5.45367 Z" fill="#000000" fill-rule="evenodd" fill-opacity="1" /><path clip-path="url(#clip420)" d="M 0 0 M405.717 9.99069 Q402.106 9.99069 400.277 13.5555 Q398.471 17.0971 398.471 24.2267 Q398.471 31.3332 400.277 34.898 Q402.106 38.4396 405.717 38.4396 Q409.351 38.4396 411.156 34.898 Q412.985 31.3332 412.985 24.2267 Q412.985 17.0971 411.156 13.5555 Q409.351 9.99069 405.717 9.99069 M405.717 6.287 Q411.527 6.287 414.582 10.8935 Q417.661 15.4768 417.661 24.2267 Q417.661 32.9535 414.582 37.56 Q411.527 42.1433 405.717 42.1433 Q399.906 42.1433 396.828 37.56 Q393.772 32.9535 393.772 24.2267 Q393.772 15.4768 396.828 10.8935 Q399.906 6.287 405.717 6.287 Z" fill="#000000" fill-rule="evenodd" fill-opacity="1" /><path clip-path="url(#clip420)" d="M 0 0 M435.879 9.99069 Q432.267 9.99069 430.439 13.5555 Q428.633 17.0971 428.633 24.2267 Q428.633 31.3332 430.439 34.898 Q432.267 38.4396 435.879 38.4396 Q439.513 38.4396 441.318 34.898 Q443.147 31.3332 443.147 24.2267 Q443.147 17.0971 441.318 13.5555 Q439.513 9.99069 435.879 9.99069 M435.879 6.287 Q441.689 6.287 444.744 10.8935 Q447.823 15.4768 447.823 24.2267 Q447.823 32.9535 444.744 37.56 Q441.689 42.1433 435.879 42.1433 Q430.068 42.1433 426.99 37.56 Q423.934 32.9535 423.934 24.2267 Q423.934 15.4768 426.99 10.8935 Q430.068 6.287 435.879 6.287 Z" fill="#000000" fill-rule="evenodd" fill-opacity="1" /><path clip-path="url(#clip420)" d="M 0 0 M456.851 37.5368 L464.489 37.5368 L464.489 11.1712 L456.179 12.8379 L456.179 8.57866 L464.443 6.912 L469.119 6.912 L469.119 37.5368 L476.758 37.5368 L476.758 41.472 L456.851 41.472 L456.851 37.5368 Z" fill="#000000" fill-rule="evenodd" fill-opacity="1" /><path clip-path="url(#clip420)" d="M 0 0 M495.554 5.45367 L495.554 47.722 L485.739 47.722 L485.739 44.4118 L491.272 44.4118 L491.272 8.76384 L485.739 8.76384 L485.739 5.45367 L495.554 5.45367 Z" fill="#000000" fill-rule="evenodd" fill-opacity="1" /><circle clip-path="url(#clip422)" cx="139.169" cy="894.072" r="14" fill="#0000ff" fill-rule="evenodd" fill-opacity="1" stroke="none"/>
<path clip-path="url(#clip420)" d="M 0 0 M143.387 883.344 L155.627 883.344 L155.627 886.296 L139.169 886.296 L139.169 883.344 Q141.165 881.278 144.603 877.806 Q148.057 874.317 148.943 873.31 Q150.627 871.417 151.286 870.115 Q151.964 868.796 151.964 867.529 Q151.964 865.463 150.505 864.16 Q149.064 862.858 146.738 862.858 Q145.089 862.858 143.248 863.431 Q141.425 864.004 139.342 865.167 L139.342 861.626 Q141.46 860.775 143.3 860.341 Q145.141 859.907 146.668 859.907 Q150.696 859.907 153.092 861.921 Q155.488 863.935 155.488 867.303 Q155.488 868.9 154.88 870.341 Q154.29 871.765 152.71 873.709 Q152.276 874.213 149.95 876.626 Q147.623 879.022 143.387 883.344 Z" fill="#000000" fill-rule="evenodd" fill-opacity="1" /><path clip-path="url(#clip420)" d="M 0 0 M172.623 863.431 L163.769 877.268 L172.623 877.268 L172.623 863.431 M171.703 860.376 L176.113 860.376 L176.113 877.268 L179.811 877.268 L179.811 880.185 L176.113 880.185 L176.113 886.296 L172.623 886.296 L172.623 880.185 L160.922 880.185 L160.922 876.799 L171.703 860.376 Z" fill="#000000" fill-rule="evenodd" fill-opacity="1" /><circle clip-path="url(#clip422)" cx="70.9921" cy="844.188" r="14" fill="#0000ff" fill-rule="evenodd" fill-opacity="1" stroke="none"/>
<circle clip-path="url(#clip422)" cx="411.874" cy="594.768" r="14" fill="#0000ff" fill-rule="evenodd" fill-opacity="1" stroke="none"/>
<circle clip-path="url(#clip422)" cx="139.169" cy="395.232" r="14" fill="#0000ff" fill-rule="evenodd" fill-opacity="1" stroke="none"/>
<circle clip-path="url(#clip422)" cx="70.9921" cy="445.116" r="14" fill="#0000ff" fill-rule="evenodd" fill-opacity="1" stroke="none"/>
<circle clip-path="url(#clip422)" cx="207.345" cy="544.884" r="14" fill="#0000ff" fill-rule="evenodd" fill-opacity="1" stroke="none"/>
<circle clip-path="url(#clip422)" cx="139.169" cy="594.768" r="14" fill="#0000ff" fill-rule="evenodd" fill-opacity="1" stroke="none"/>
<circle clip-path="url(#clip422)" cx="275.521" cy="694.536" r="14" fill="#0000ff" fill-rule="evenodd" fill-opacity="1" stroke="none"/>
<circle clip-path="url(#clip422)" cx="207.345" cy="744.42" r="14" fill="#0000ff" fill-rule="evenodd" fill-opacity="1" stroke="none"/>
<circle clip-path="url(#clip422)" cx="343.698" cy="844.188" r="14" fill="#0000ff" fill-rule="evenodd" fill-opacity="1" stroke="none"/>
<circle clip-path="url(#clip422)" cx="275.521" cy="894.072" r="14" fill="#0000ff" fill-rule="evenodd" fill-opacity="1" stroke="none"/>
<circle clip-path="url(#clip422)" cx="343.698" cy="445.116" r="14" fill="#0000ff" fill-rule="evenodd" fill-opacity="1" stroke="none"/>
<circle clip-path="url(#clip422)" cx="207.345" cy="445.116" r="14" fill="#0000ff" fill-rule="evenodd" fill-opacity="1" stroke="none"/>
<circle clip-path="url(#clip422)" cx="343.698" cy="544.884" r="14" fill="#0000ff" fill-rule="evenodd" fill-opacity="1" stroke="none"/>
<circle clip-path="url(#clip422)" cx="275.521" cy="594.768" r="14" fill="#0000ff" fill-rule="evenodd" fill-opacity="1" stroke="none"/>
<circle clip-path="url(#clip422)" cx="411.874" cy="694.536" r="14" fill="#0000ff" fill-rule="evenodd" fill-opacity="1" stroke="none"/>
<circle clip-path="url(#clip422)" cx="343.698" cy="744.42" r="14" fill="#0000ff" fill-rule="evenodd" fill-opacity="1" stroke="none"/>
<circle clip-path="url(#clip422)" cx="70.9921" cy="544.884" r="14" fill="#0000ff" fill-rule="evenodd" fill-opacity="1" stroke="none"/>
<circle clip-path="url(#clip422)" cx="411.874" cy="894.072" r="14" fill="#0000ff" fill-rule="evenodd" fill-opacity="1" stroke="none"/>
<circle clip-path="url(#clip422)" cx="139.169" cy="694.536" r="14" fill="#0000ff" fill-rule="evenodd" fill-opacity="1" stroke="none"/>
<circle clip-path="url(#clip422)" cx="70.9921" cy="744.42" r="14" fill="#0000ff" fill-rule="evenodd" fill-opacity="1" stroke="none"/>
<circle clip-path="url(#clip422)" cx="207.345" cy="844.188" r="14" fill="#0000ff" fill-rule="evenodd" fill-opacity="1" stroke="none"/>
<circle clip-path="url(#clip422)" cx="139.169" cy="295.464" r="14" fill="#0000ff" fill-rule="evenodd" fill-opacity="1" stroke="none"/>
<path clip-path="url(#clip420)" d="M 0 0 M71.4956 833.46 L77.2247 833.46 L77.2247 813.686 L70.9921 814.936 L70.9921 811.742 L77.19 810.492 L80.6969 810.492 L80.6969 833.46 L86.4261 833.46 L86.4261 836.412 L71.4956 836.412 L71.4956 833.46 Z" fill="#000000" fill-rule="evenodd" fill-opacity="1" /><path clip-path="url(#clip420)" d="M 0 0 M416.093 584.041 L428.332 584.041 L428.332 586.992 L411.874 586.992 L411.874 584.041 Q413.871 581.975 417.308 578.502 Q420.763 575.013 421.648 574.006 Q423.332 572.114 423.992 570.811 Q424.669 569.492 424.669 568.225 Q424.669 566.159 423.211 564.857 Q421.77 563.555 419.443 563.555 Q417.794 563.555 415.954 564.127 Q414.131 564.7 412.048 565.864 L412.048 562.322 Q414.166 561.471 416.006 561.037 Q417.846 560.603 419.374 560.603 Q423.402 560.603 425.798 562.617 Q428.193 564.631 428.193 567.999 Q428.193 569.596 427.586 571.037 Q426.995 572.461 425.416 574.405 Q424.982 574.909 422.655 577.322 Q420.329 579.718 416.093 584.041 Z" fill="#000000" fill-rule="evenodd" fill-opacity="1" /><path clip-path="url(#clip420)" d="M 0 0 M150.887 373.48 Q153.405 374.019 154.811 375.72 Q156.234 377.421 156.234 379.921 Q156.234 383.758 153.596 385.859 Q150.957 387.96 146.096 387.96 Q144.464 387.96 142.728 387.63 Q141.009 387.317 139.169 386.675 L139.169 383.289 Q140.627 384.14 142.363 384.574 Q144.099 385.008 145.991 385.008 Q149.29 385.008 151.009 383.706 Q152.745 382.404 152.745 379.921 Q152.745 377.63 151.13 376.345 Q149.533 375.043 146.668 375.043 L143.648 375.043 L143.648 372.161 L146.807 372.161 Q149.394 372.161 150.766 371.137 Q152.137 370.095 152.137 368.151 Q152.137 366.154 150.714 365.095 Q149.307 364.019 146.668 364.019 Q145.227 364.019 143.578 364.331 Q141.929 364.644 139.95 365.303 L139.95 362.178 Q141.946 361.623 143.682 361.345 Q145.436 361.067 146.981 361.067 Q150.974 361.067 153.3 362.89 Q155.627 364.696 155.627 367.786 Q155.627 369.939 154.394 371.432 Q153.161 372.908 150.887 373.48 Z" fill="#000000" fill-rule="evenodd" fill-opacity="1" /><path clip-path="url(#clip420)" d="M 0 0 M82.6935 414.476 L73.8393 428.312 L82.6935 428.312 L82.6935 414.476 M81.7733 411.42 L86.183 411.42 L86.183 428.312 L89.8809 428.312 L89.8809 431.229 L86.183 431.229 L86.183 437.34 L82.6935 437.34 L82.6935 431.229 L70.9921 431.229 L70.9921 427.844 L81.7733 411.42 Z" fill="#000000" fill-rule="evenodd" fill-opacity="1" /><path clip-path="url(#clip420)" d="M 0 0 M208.439 511.188 L222.206 511.188 L222.206 514.139 L211.65 514.139 L211.65 520.493 Q212.414 520.233 213.178 520.112 Q213.942 519.973 214.706 519.973 Q219.046 519.973 221.581 522.351 Q224.116 524.73 224.116 528.792 Q224.116 532.976 221.511 535.302 Q218.907 537.611 214.168 537.611 Q212.536 537.611 210.834 537.334 Q209.15 537.056 207.345 536.5 L207.345 532.976 Q208.907 533.827 210.574 534.243 Q212.241 534.66 214.098 534.66 Q217.102 534.66 218.855 533.08 Q220.609 531.5 220.609 528.792 Q220.609 526.084 218.855 524.504 Q217.102 522.924 214.098 522.924 Q212.692 522.924 211.286 523.237 Q209.897 523.549 208.439 524.209 L208.439 511.188 Z" fill="#000000" fill-rule="evenodd" fill-opacity="1" /><path clip-path="url(#clip420)" d="M 0 0 M148.422 572.634 Q146.061 572.634 144.672 574.249 Q143.3 575.864 143.3 578.676 Q143.3 581.471 144.672 583.103 Q146.061 584.718 148.422 584.718 Q150.783 584.718 152.155 583.103 Q153.543 581.471 153.543 578.676 Q153.543 575.864 152.155 574.249 Q150.783 572.634 148.422 572.634 M155.384 561.645 L155.384 564.839 Q154.064 564.214 152.71 563.884 Q151.373 563.555 150.054 563.555 Q146.582 563.555 144.741 565.898 Q142.918 568.242 142.658 572.982 Q143.682 571.471 145.227 570.673 Q146.773 569.857 148.63 569.857 Q152.536 569.857 154.793 572.235 Q157.068 574.596 157.068 578.676 Q157.068 582.669 154.707 585.082 Q152.346 587.495 148.422 587.495 Q143.925 587.495 141.547 584.058 Q139.169 580.603 139.169 574.058 Q139.169 567.912 142.085 564.266 Q145.002 560.603 149.915 560.603 Q151.234 560.603 152.571 560.864 Q153.925 561.124 155.384 561.645 Z" fill="#000000" fill-rule="evenodd" fill-opacity="1" /><path clip-path="url(#clip420)" d="M 0 0 M275.521 660.84 L292.188 660.84 L292.188 662.333 L282.778 686.76 L279.115 686.76 L287.969 663.791 L275.521 663.791 L275.521 660.84 Z" fill="#000000" fill-rule="evenodd" fill-opacity="1" /><path clip-path="url(#clip420)" d="M 0 0 M216.234 724.335 Q213.734 724.335 212.293 725.672 Q210.869 727.008 210.869 729.352 Q210.869 731.696 212.293 733.033 Q213.734 734.37 216.234 734.37 Q218.734 734.37 220.175 733.033 Q221.616 731.679 221.616 729.352 Q221.616 727.008 220.175 725.672 Q218.751 724.335 216.234 724.335 M212.727 722.842 Q210.47 722.286 209.203 720.741 Q207.953 719.196 207.953 716.974 Q207.953 713.866 210.157 712.061 Q212.38 710.255 216.234 710.255 Q220.105 710.255 222.31 712.061 Q224.515 713.866 224.515 716.974 Q224.515 719.196 223.248 720.741 Q221.998 722.286 219.758 722.842 Q222.293 723.432 223.699 725.151 Q225.123 726.87 225.123 729.352 Q225.123 733.12 222.814 735.133 Q220.522 737.147 216.234 737.147 Q211.946 737.147 209.637 735.133 Q207.345 733.12 207.345 729.352 Q207.345 726.87 208.768 725.151 Q210.192 723.432 212.727 722.842 M211.442 717.304 Q211.442 719.318 212.692 720.446 Q213.959 721.574 216.234 721.574 Q218.491 721.574 219.758 720.446 Q221.043 719.318 221.043 717.304 Q221.043 715.29 219.758 714.161 Q218.491 713.033 216.234 713.033 Q213.959 713.033 212.692 714.161 Q211.442 715.29 211.442 717.304 Z" fill="#000000" fill-rule="evenodd" fill-opacity="1" /><path clip-path="url(#clip420)" d="M 0 0 M345.364 835.874 L345.364 832.679 Q346.684 833.304 348.038 833.634 Q349.392 833.964 350.694 833.964 Q354.166 833.964 355.989 831.638 Q357.83 829.294 358.09 824.537 Q357.083 826.03 355.538 826.829 Q353.993 827.627 352.118 827.627 Q348.229 827.627 345.955 825.283 Q343.698 822.922 343.698 818.842 Q343.698 814.849 346.059 812.436 Q348.42 810.023 352.343 810.023 Q356.84 810.023 359.201 813.478 Q361.579 816.915 361.579 823.478 Q361.579 829.606 358.663 833.269 Q355.764 836.915 350.85 836.915 Q349.531 836.915 348.177 836.655 Q346.823 836.394 345.364 835.874 M352.343 824.884 Q354.705 824.884 356.076 823.27 Q357.465 821.655 357.465 818.842 Q357.465 816.047 356.076 814.433 Q354.705 812.801 352.343 812.801 Q349.982 812.801 348.593 814.433 Q347.222 816.047 347.222 818.842 Q347.222 821.655 348.593 823.27 Q349.982 824.884 352.343 824.884 Z" fill="#000000" fill-rule="evenodd" fill-opacity="1" /><path clip-path="url(#clip420)" d="M 0 0 M276.025 883.344 L281.754 883.344 L281.754 863.57 L275.521 864.82 L275.521 861.626 L281.719 860.376 L285.226 860.376 L285.226 883.344 L290.955 883.344 L290.955 886.296 L276.025 886.296 L276.025 883.344 Z" fill="#000000" fill-rule="evenodd" fill-opacity="1" /><path clip-path="url(#clip420)" d="M 0 0 M305.538 862.685 Q302.83 862.685 301.459 865.358 Q300.104 868.015 300.104 873.362 Q300.104 878.692 301.459 881.365 Q302.83 884.021 305.538 884.021 Q308.264 884.021 309.618 881.365 Q310.99 878.692 310.99 873.362 Q310.99 868.015 309.618 865.358 Q308.264 862.685 305.538 862.685 M305.538 859.907 Q309.896 859.907 312.188 863.362 Q314.497 866.799 314.497 873.362 Q314.497 879.907 312.188 883.362 Q309.896 886.799 305.538 886.799 Q301.181 886.799 298.872 883.362 Q296.58 879.907 296.58 873.362 Q296.58 866.799 298.872 863.362 Q301.181 859.907 305.538 859.907 Z" fill="#000000" fill-rule="evenodd" fill-opacity="1" /><path clip-path="url(#clip420)" d="M 0 0 M344.201 434.389 L349.93 434.389 L349.93 414.614 L343.698 415.864 L343.698 412.67 L349.896 411.42 L353.402 411.42 L353.402 434.389 L359.132 434.389 L359.132 437.34 L344.201 437.34 L344.201 434.389 Z" fill="#000000" fill-rule="evenodd" fill-opacity="1" /><path clip-path="url(#clip420)" d="M 0 0 M369.236 434.389 L381.475 434.389 L381.475 437.34 L365.017 437.34 L365.017 434.389 Q367.013 432.323 370.451 428.85 Q373.906 425.361 374.791 424.354 Q376.475 422.462 377.135 421.16 Q377.812 419.84 377.812 418.573 Q377.812 416.507 376.354 415.205 Q374.913 413.903 372.586 413.903 Q370.937 413.903 369.097 414.476 Q367.274 415.048 365.191 416.212 L365.191 412.67 Q367.309 411.819 369.149 411.385 Q370.989 410.951 372.517 410.951 Q376.545 410.951 378.941 412.965 Q381.336 414.979 381.336 418.347 Q381.336 419.944 380.729 421.385 Q380.138 422.809 378.559 424.753 Q378.125 425.257 375.798 427.67 Q373.472 430.066 369.236 434.389 Z" fill="#000000" fill-rule="evenodd" fill-opacity="1" /><path clip-path="url(#clip420)" d="M 0 0 M207.848 434.389 L213.577 434.389 L213.577 414.614 L207.345 415.864 L207.345 412.67 L213.543 411.42 L217.05 411.42 L217.05 434.389 L222.779 434.389 L222.779 437.34 L207.848 437.34 L207.848 434.389 Z" fill="#000000" fill-rule="evenodd" fill-opacity="1" /><path clip-path="url(#clip420)" d="M 0 0 M239.497 414.476 L230.643 428.312 L239.497 428.312 L239.497 414.476 M238.577 411.42 L242.987 411.42 L242.987 428.312 L246.685 428.312 L246.685 431.229 L242.987 431.229 L242.987 437.34 L239.497 437.34 L239.497 431.229 L227.796 431.229 L227.796 427.844 L238.577 411.42 Z" fill="#000000" fill-rule="evenodd" fill-opacity="1" /><path clip-path="url(#clip420)" d="M 0 0 M344.201 534.157 L349.93 534.157 L349.93 514.382 L343.698 515.632 L343.698 512.438 L349.896 511.188 L353.402 511.188 L353.402 534.157 L359.132 534.157 L359.132 537.108 L344.201 537.108 L344.201 534.157 Z" fill="#000000" fill-rule="evenodd" fill-opacity="1" /><path clip-path="url(#clip420)" d="M 0 0 M366.25 511.188 L380.017 511.188 L380.017 514.139 L369.461 514.139 L369.461 520.493 Q370.225 520.233 370.989 520.112 Q371.753 519.973 372.517 519.973 Q376.857 519.973 379.392 522.351 Q381.927 524.73 381.927 528.792 Q381.927 532.976 379.322 535.302 Q376.718 537.611 371.979 537.611 Q370.347 537.611 368.645 537.334 Q366.961 537.056 365.156 536.5 L365.156 532.976 Q366.718 533.827 368.385 534.243 Q370.052 534.66 371.909 534.66 Q374.913 534.66 376.666 533.08 Q378.42 531.5 378.42 528.792 Q378.42 526.084 376.666 524.504 Q374.913 522.924 371.909 522.924 Q370.503 522.924 369.097 523.237 Q367.708 523.549 366.25 524.209 L366.25 511.188 Z" fill="#000000" fill-rule="evenodd" fill-opacity="1" /><path clip-path="url(#clip420)" d="M 0 0 M276.025 584.041 L281.754 584.041 L281.754 564.266 L275.521 565.516 L275.521 562.322 L281.719 561.072 L285.226 561.072 L285.226 584.041 L290.955 584.041 L290.955 586.992 L276.025 586.992 L276.025 584.041 Z" fill="#000000" fill-rule="evenodd" fill-opacity="1" /><path clip-path="url(#clip420)" d="M 0 0 M305.972 572.634 Q303.611 572.634 302.223 574.249 Q300.851 575.864 300.851 578.676 Q300.851 581.471 302.223 583.103 Q303.611 584.718 305.972 584.718 Q308.334 584.718 309.705 583.103 Q311.094 581.471 311.094 578.676 Q311.094 575.864 309.705 574.249 Q308.334 572.634 305.972 572.634 M312.934 561.645 L312.934 564.839 Q311.615 564.214 310.261 563.884 Q308.924 563.555 307.604 563.555 Q304.132 563.555 302.292 565.898 Q300.469 568.242 300.209 572.982 Q301.233 571.471 302.778 570.673 Q304.323 569.857 306.181 569.857 Q310.087 569.857 312.344 572.235 Q314.618 574.596 314.618 578.676 Q314.618 582.669 312.257 585.082 Q309.896 587.495 305.972 587.495 Q301.476 587.495 299.098 584.058 Q296.719 580.603 296.719 574.058 Q296.719 567.912 299.636 564.266 Q302.552 560.603 307.466 560.603 Q308.785 560.603 310.122 560.864 Q311.476 561.124 312.934 561.645 Z" fill="#000000" fill-rule="evenodd" fill-opacity="1" /><path clip-path="url(#clip420)" d="M 0 0 M412.377 683.809 L418.107 683.809 L418.107 664.034 L411.874 665.284 L411.874 662.09 L418.072 660.84 L421.579 660.84 L421.579 683.809 L427.308 683.809 L427.308 686.76 L412.377 686.76 L412.377 683.809 Z" fill="#000000" fill-rule="evenodd" fill-opacity="1" /><path clip-path="url(#clip420)" d="M 0 0 M433.506 660.84 L450.172 660.84 L450.172 662.333 L440.763 686.76 L437.1 686.76 L445.954 663.791 L433.506 663.791 L433.506 660.84 Z" fill="#000000" fill-rule="evenodd" fill-opacity="1" /><path clip-path="url(#clip420)" d="M 0 0 M344.201 733.692 L349.93 733.692 L349.93 713.918 L343.698 715.168 L343.698 711.974 L349.896 710.724 L353.402 710.724 L353.402 733.692 L359.132 733.692 L359.132 736.644 L344.201 736.644 L344.201 733.692 Z" fill="#000000" fill-rule="evenodd" fill-opacity="1" /><path clip-path="url(#clip420)" d="M 0 0 M373.715 724.335 Q371.215 724.335 369.774 725.672 Q368.35 727.008 368.35 729.352 Q368.35 731.696 369.774 733.033 Q371.215 734.37 373.715 734.37 Q376.215 734.37 377.656 733.033 Q379.097 731.679 379.097 729.352 Q379.097 727.008 377.656 725.672 Q376.232 724.335 373.715 724.335 M370.208 722.842 Q367.951 722.286 366.684 720.741 Q365.434 719.196 365.434 716.974 Q365.434 713.866 367.638 712.061 Q369.861 710.255 373.715 710.255 Q377.586 710.255 379.791 712.061 Q381.996 713.866 381.996 716.974 Q381.996 719.196 380.729 720.741 Q379.479 722.286 377.239 722.842 Q379.774 723.432 381.18 725.151 Q382.604 726.87 382.604 729.352 Q382.604 733.12 380.295 735.133 Q378.003 737.147 373.715 737.147 Q369.427 737.147 367.118 735.133 Q364.826 733.12 364.826 729.352 Q364.826 726.87 366.25 725.151 Q367.673 723.432 370.208 722.842 M368.923 717.304 Q368.923 719.318 370.173 720.446 Q371.441 721.574 373.715 721.574 Q375.972 721.574 377.239 720.446 Q378.524 719.318 378.524 717.304 Q378.524 715.29 377.239 714.161 Q375.972 713.033 373.715 713.033 Q371.441 713.033 370.173 714.161 Q368.923 715.29 368.923 717.304 Z" fill="#000000" fill-rule="evenodd" fill-opacity="1" /><path clip-path="url(#clip420)" d="M 0 0 M71.4956 534.157 L77.2247 534.157 L77.2247 514.382 L70.9921 515.632 L70.9921 512.438 L77.19 511.188 L80.6969 511.188 L80.6969 534.157 L86.4261 534.157 L86.4261 537.108 L71.4956 537.108 L71.4956 534.157 Z" fill="#000000" fill-rule="evenodd" fill-opacity="1" /><path clip-path="url(#clip420)" d="M 0 0 M93.6135 536.57 L93.6135 533.375 Q94.933 534 96.2871 534.33 Q97.6413 534.66 98.9434 534.66 Q102.416 534.66 104.238 532.334 Q106.079 529.99 106.339 525.233 Q105.332 526.726 103.787 527.525 Q102.242 528.323 100.367 528.323 Q96.4781 528.323 94.2038 525.98 Q91.9469 523.618 91.9469 519.539 Q91.9469 515.546 94.308 513.132 Q96.6691 510.719 100.593 510.719 Q105.089 510.719 107.45 514.174 Q109.829 517.612 109.829 524.174 Q109.829 530.302 106.912 533.966 Q104.013 537.611 99.0996 537.611 Q97.7802 537.611 96.426 537.351 Q95.0719 537.091 93.6135 536.57 M100.593 525.58 Q102.954 525.58 104.325 523.966 Q105.714 522.351 105.714 519.539 Q105.714 516.743 104.325 515.129 Q102.954 513.497 100.593 513.497 Q98.2316 513.497 96.8427 515.129 Q95.4712 516.743 95.4712 519.539 Q95.4712 522.351 96.8427 523.966 Q98.2316 525.58 100.593 525.58 Z" fill="#000000" fill-rule="evenodd" fill-opacity="1" /><path clip-path="url(#clip420)" d="M 0 0 M416.093 883.344 L428.332 883.344 L428.332 886.296 L411.874 886.296 L411.874 883.344 Q413.871 881.278 417.308 877.806 Q420.763 874.317 421.648 873.31 Q423.332 871.417 423.992 870.115 Q424.669 868.796 424.669 867.529 Q424.669 865.463 423.211 864.16 Q421.77 862.858 419.443 862.858 Q417.794 862.858 415.954 863.431 Q414.131 864.004 412.048 865.167 L412.048 861.626 Q414.166 860.775 416.006 860.341 Q417.846 859.907 419.374 859.907 Q423.402 859.907 425.798 861.921 Q428.193 863.935 428.193 867.303 Q428.193 868.9 427.586 870.341 Q426.995 871.765 425.416 873.709 Q424.982 874.213 422.655 876.626 Q420.329 879.022 416.093 883.344 Z" fill="#000000" fill-rule="evenodd" fill-opacity="1" /><path clip-path="url(#clip420)" d="M 0 0 M443.193 862.685 Q440.485 862.685 439.113 865.358 Q437.759 868.015 437.759 873.362 Q437.759 878.692 439.113 881.365 Q440.485 884.021 443.193 884.021 Q445.919 884.021 447.273 881.365 Q448.645 878.692 448.645 873.362 Q448.645 868.015 447.273 865.358 Q445.919 862.685 443.193 862.685 M443.193 859.907 Q447.551 859.907 449.843 863.362 Q452.152 866.799 452.152 873.362 Q452.152 879.907 449.843 883.362 Q447.551 886.799 443.193 886.799 Q438.836 886.799 436.527 883.362 Q434.235 879.907 434.235 873.362 Q434.235 866.799 436.527 863.362 Q438.836 859.907 443.193 859.907 Z" fill="#000000" fill-rule="evenodd" fill-opacity="1" /><path clip-path="url(#clip420)" d="M 0 0 M143.387 683.809 L155.627 683.809 L155.627 686.76 L139.169 686.76 L139.169 683.809 Q141.165 681.743 144.603 678.27 Q148.057 674.781 148.943 673.774 Q150.627 671.881 151.286 670.579 Q151.964 669.26 151.964 667.993 Q151.964 665.927 150.505 664.625 Q149.064 663.323 146.738 663.323 Q145.089 663.323 143.248 663.895 Q141.425 664.468 139.342 665.632 L139.342 662.09 Q141.46 661.239 143.3 660.805 Q145.141 660.371 146.668 660.371 Q150.696 660.371 153.092 662.385 Q155.488 664.399 155.488 667.767 Q155.488 669.364 154.88 670.805 Q154.29 672.229 152.71 674.173 Q152.276 674.677 149.95 677.09 Q147.623 679.486 143.387 683.809 Z" fill="#000000" fill-rule="evenodd" fill-opacity="1" /><path clip-path="url(#clip420)" d="M 0 0 M163.595 683.809 L169.325 683.809 L169.325 664.034 L163.092 665.284 L163.092 662.09 L169.29 660.84 L172.797 660.84 L172.797 683.809 L178.526 683.809 L178.526 686.76 L163.595 686.76 L163.595 683.809 Z" fill="#000000" fill-rule="evenodd" fill-opacity="1" /><path clip-path="url(#clip420)" d="M 0 0 M75.2109 733.692 L87.4504 733.692 L87.4504 736.644 L70.9921 736.644 L70.9921 733.692 Q72.9886 731.627 76.4261 728.154 Q79.881 724.665 80.7664 723.658 Q82.4504 721.765 83.1101 720.463 Q83.7872 719.144 83.7872 717.877 Q83.7872 715.811 82.3289 714.509 Q80.8879 713.206 78.5615 713.206 Q76.9122 713.206 75.072 713.779 Q73.2491 714.352 71.1657 715.516 L71.1657 711.974 Q73.2838 711.123 75.124 710.689 Q76.9643 710.255 78.4921 710.255 Q82.5198 710.255 84.9157 712.269 Q87.3115 714.283 87.3115 717.651 Q87.3115 719.248 86.7038 720.689 Q86.1136 722.113 84.5337 724.057 Q84.0997 724.561 81.7733 726.974 Q79.4469 729.37 75.2109 733.692 Z" fill="#000000" fill-rule="evenodd" fill-opacity="1" /><path clip-path="url(#clip420)" d="M 0 0 M97.8323 733.692 L110.072 733.692 L110.072 736.644 L93.6135 736.644 L93.6135 733.692 Q95.61 731.627 99.0475 728.154 Q102.502 724.665 103.388 723.658 Q105.072 721.765 105.732 720.463 Q106.409 719.144 106.409 717.877 Q106.409 715.811 104.95 714.509 Q103.509 713.206 101.183 713.206 Q99.5336 713.206 97.6934 713.779 Q95.8705 714.352 93.7871 715.516 L93.7871 711.974 Q95.9052 711.123 97.7455 710.689 Q99.5857 710.255 101.113 710.255 Q105.141 710.255 107.537 712.269 Q109.933 714.283 109.933 717.651 Q109.933 719.248 109.325 720.689 Q108.735 722.113 107.155 724.057 Q106.721 724.561 104.395 726.974 Q102.068 729.37 97.8323 733.692 Z" fill="#000000" fill-rule="evenodd" fill-opacity="1" /><path clip-path="url(#clip420)" d="M 0 0 M211.564 833.46 L223.803 833.46 L223.803 836.412 L207.345 836.412 L207.345 833.46 Q209.341 831.394 212.779 827.922 Q216.234 824.433 217.119 823.426 Q218.803 821.533 219.463 820.231 Q220.14 818.912 220.14 817.645 Q220.14 815.579 218.682 814.277 Q217.241 812.974 214.914 812.974 Q213.265 812.974 211.425 813.547 Q209.602 814.12 207.518 815.283 L207.518 811.742 Q209.637 810.891 211.477 810.457 Q213.317 810.023 214.845 810.023 Q218.873 810.023 221.268 812.037 Q223.664 814.051 223.664 817.419 Q223.664 819.016 223.057 820.457 Q222.466 821.881 220.886 823.825 Q220.452 824.329 218.126 826.742 Q215.8 829.138 211.564 833.46 Z" fill="#000000" fill-rule="evenodd" fill-opacity="1" /><path clip-path="url(#clip420)" d="M 0 0 M241.789 822.436 Q244.306 822.974 245.713 824.676 Q247.136 826.377 247.136 828.877 Q247.136 832.714 244.497 834.815 Q241.859 836.915 236.998 836.915 Q235.366 836.915 233.629 836.585 Q231.911 836.273 230.07 835.631 L230.07 832.245 Q231.529 833.096 233.265 833.53 Q235.001 833.964 236.893 833.964 Q240.192 833.964 241.911 832.662 Q243.647 831.36 243.647 828.877 Q243.647 826.585 242.032 825.301 Q240.435 823.999 237.57 823.999 L234.55 823.999 L234.55 821.117 L237.709 821.117 Q240.296 821.117 241.668 820.092 Q243.039 819.051 243.039 817.106 Q243.039 815.11 241.616 814.051 Q240.209 812.974 237.57 812.974 Q236.129 812.974 234.48 813.287 Q232.831 813.599 230.852 814.259 L230.852 811.134 Q232.848 810.579 234.584 810.301 Q236.338 810.023 237.883 810.023 Q241.876 810.023 244.202 811.846 Q246.529 813.652 246.529 816.742 Q246.529 818.895 245.296 820.388 Q244.063 821.863 241.789 822.436 Z" fill="#000000" fill-rule="evenodd" fill-opacity="1" /><path clip-path="url(#clip420)" d="M 0 0 M143.387 284.737 L155.627 284.737 L155.627 287.688 L139.169 287.688 L139.169 284.737 Q141.165 282.671 144.603 279.199 Q148.057 275.709 148.943 274.702 Q150.627 272.81 151.286 271.508 Q151.964 270.188 151.964 268.921 Q151.964 266.855 150.505 265.553 Q149.064 264.251 146.738 264.251 Q145.089 264.251 143.248 264.824 Q141.425 265.397 139.342 266.56 L139.342 263.018 Q141.46 262.167 143.3 261.733 Q145.141 261.299 146.668 261.299 Q150.696 261.299 153.092 263.313 Q155.488 265.327 155.488 268.695 Q155.488 270.292 154.88 271.733 Q154.29 273.157 152.71 275.101 Q152.276 275.605 149.95 278.018 Q147.623 280.414 143.387 284.737 Z" fill="#000000" fill-rule="evenodd" fill-opacity="1" /><path clip-path="url(#clip420)" d="M 0 0 M172.623 264.824 L163.769 278.66 L172.623 278.66 L172.623 264.824 M171.703 261.768 L176.113 261.768 L176.113 278.66 L179.811 278.66 L179.811 281.577 L176.113 281.577 L176.113 287.688 L172.623 287.688 L172.623 281.577 L160.922 281.577 L160.922 278.192 L171.703 261.768 Z" fill="#000000" fill-rule="evenodd" fill-opacity="1" /><circle clip-path="url(#clip422)" cx="70.9921" cy="245.58" r="14" fill="#0000ff" fill-rule="evenodd" fill-opacity="1" stroke="none"/>
<circle clip-path="url(#clip422)" cx="275.521" cy="95.9282" r="14" fill="#0000ff" fill-rule="evenodd" fill-opacity="1" stroke="none"/>
<circle clip-path="url(#clip422)" cx="207.345" cy="145.812" r="14" fill="#0000ff" fill-rule="evenodd" fill-opacity="1" stroke="none"/>
<circle clip-path="url(#clip422)" cx="343.698" cy="245.58" r="14" fill="#0000ff" fill-rule="evenodd" fill-opacity="1" stroke="none"/>
<circle clip-path="url(#clip422)" cx="275.521" cy="295.464" r="14" fill="#0000ff" fill-rule="evenodd" fill-opacity="1" stroke="none"/>
<circle clip-path="url(#clip422)" cx="411.874" cy="395.232" r="14" fill="#0000ff" fill-rule="evenodd" fill-opacity="1" stroke="none"/>
<circle clip-path="url(#clip422)" cx="275.521" cy="395.232" r="14" fill="#0000ff" fill-rule="evenodd" fill-opacity="1" stroke="none"/>
<circle clip-path="url(#clip422)" cx="411.874" cy="95.9282" r="14" fill="#0000ff" fill-rule="evenodd" fill-opacity="1" stroke="none"/>
<circle clip-path="url(#clip422)" cx="343.698" cy="145.812" r="14" fill="#0000ff" fill-rule="evenodd" fill-opacity="1" stroke="none"/>
<circle clip-path="url(#clip422)" cx="411.874" cy="295.464" r="14" fill="#0000ff" fill-rule="evenodd" fill-opacity="1" stroke="none"/>
<circle clip-path="url(#clip422)" cx="139.169" cy="95.9282" r="14" fill="#0000ff" fill-rule="evenodd" fill-opacity="1" stroke="none"/>
<circle clip-path="url(#clip422)" cx="70.9921" cy="145.812" r="14" fill="#0000ff" fill-rule="evenodd" fill-opacity="1" stroke="none"/>
<circle clip-path="url(#clip422)" cx="207.345" cy="245.58" r="14" fill="#0000ff" fill-rule="evenodd" fill-opacity="1" stroke="none"/>
<path clip-path="url(#clip420)" d="M 0 0 M71.4956 234.853 L77.2247 234.853 L77.2247 215.079 L70.9921 216.329 L70.9921 213.134 L77.19 211.884 L80.6969 211.884 L80.6969 234.853 L86.4261 234.853 L86.4261 237.804 L71.4956 237.804 L71.4956 234.853 Z" fill="#000000" fill-rule="evenodd" fill-opacity="1" /><path clip-path="url(#clip420)" d="M 0 0 M275.521 62.2322 L292.188 62.2322 L292.188 63.7253 L282.778 88.1522 L279.115 88.1522 L287.969 65.1836 L275.521 65.1836 L275.521 62.2322 Z" fill="#000000" fill-rule="evenodd" fill-opacity="1" /><path clip-path="url(#clip420)" d="M 0 0 M216.234 125.727 Q213.734 125.727 212.293 127.064 Q210.869 128.401 210.869 130.745 Q210.869 133.088 212.293 134.425 Q213.734 135.762 216.234 135.762 Q218.734 135.762 220.175 134.425 Q221.616 133.071 221.616 130.745 Q221.616 128.401 220.175 127.064 Q218.751 125.727 216.234 125.727 M212.727 124.234 Q210.47 123.679 209.203 122.134 Q207.953 120.588 207.953 118.366 Q207.953 115.259 210.157 113.453 Q212.38 111.647 216.234 111.647 Q220.105 111.647 222.31 113.453 Q224.515 115.259 224.515 118.366 Q224.515 120.588 223.248 122.134 Q221.998 123.679 219.758 124.234 Q222.293 124.824 223.699 126.543 Q225.123 128.262 225.123 130.745 Q225.123 134.512 222.814 136.526 Q220.522 138.54 216.234 138.54 Q211.946 138.54 209.637 136.526 Q207.345 134.512 207.345 130.745 Q207.345 128.262 208.768 126.543 Q210.192 124.824 212.727 124.234 M211.442 118.696 Q211.442 120.71 212.692 121.838 Q213.959 122.967 216.234 122.967 Q218.491 122.967 219.758 121.838 Q221.043 120.71 221.043 118.696 Q221.043 116.682 219.758 115.554 Q218.491 114.425 216.234 114.425 Q213.959 114.425 212.692 115.554 Q211.442 116.682 211.442 118.696 Z" fill="#000000" fill-rule="evenodd" fill-opacity="1" /><path clip-path="url(#clip420)" d="M 0 0 M345.364 237.266 L345.364 234.072 Q346.684 234.697 348.038 235.026 Q349.392 235.356 350.694 235.356 Q354.166 235.356 355.989 233.03 Q357.83 230.686 358.09 225.929 Q357.083 227.422 355.538 228.221 Q353.993 229.019 352.118 229.019 Q348.229 229.019 345.955 226.676 Q343.698 224.315 343.698 220.235 Q343.698 216.242 346.059 213.829 Q348.42 211.415 352.343 211.415 Q356.84 211.415 359.201 214.87 Q361.579 218.308 361.579 224.87 Q361.579 230.999 358.663 234.662 Q355.764 238.308 350.85 238.308 Q349.531 238.308 348.177 238.047 Q346.823 237.787 345.364 237.266 M352.343 226.276 Q354.705 226.276 356.076 224.662 Q357.465 223.047 357.465 220.235 Q357.465 217.44 356.076 215.825 Q354.705 214.193 352.343 214.193 Q349.982 214.193 348.593 215.825 Q347.222 217.44 347.222 220.235 Q347.222 223.047 348.593 224.662 Q349.982 226.276 352.343 226.276 Z" fill="#000000" fill-rule="evenodd" fill-opacity="1" /><path clip-path="url(#clip420)" d="M 0 0 M276.025 284.737 L281.754 284.737 L281.754 264.963 L275.521 266.213 L275.521 263.018 L281.719 261.768 L285.226 261.768 L285.226 284.737 L290.955 284.737 L290.955 287.688 L276.025 287.688 L276.025 284.737 Z" fill="#000000" fill-rule="evenodd" fill-opacity="1" /><path clip-path="url(#clip420)" d="M 0 0 M305.538 264.077 Q302.83 264.077 301.459 266.751 Q300.104 269.407 300.104 274.754 Q300.104 280.084 301.459 282.758 Q302.83 285.414 305.538 285.414 Q308.264 285.414 309.618 282.758 Q310.99 280.084 310.99 274.754 Q310.99 269.407 309.618 266.751 Q308.264 264.077 305.538 264.077 M305.538 261.299 Q309.896 261.299 312.188 264.754 Q314.497 268.192 314.497 274.754 Q314.497 281.299 312.188 284.754 Q309.896 288.192 305.538 288.192 Q301.181 288.192 298.872 284.754 Q296.58 281.299 296.58 274.754 Q296.58 268.192 298.872 264.754 Q301.181 261.299 305.538 261.299 Z" fill="#000000" fill-rule="evenodd" fill-opacity="1" /><path clip-path="url(#clip420)" d="M 0 0 M412.377 384.505 L418.107 384.505 L418.107 364.73 L411.874 365.98 L411.874 362.786 L418.072 361.536 L421.579 361.536 L421.579 384.505 L427.308 384.505 L427.308 387.456 L412.377 387.456 L412.377 384.505 Z" fill="#000000" fill-rule="evenodd" fill-opacity="1" /><path clip-path="url(#clip420)" d="M 0 0 M434.999 384.505 L440.728 384.505 L440.728 364.73 L434.495 365.98 L434.495 362.786 L440.693 361.536 L444.2 361.536 L444.2 384.505 L449.929 384.505 L449.929 387.456 L434.999 387.456 L434.999 384.505 Z" fill="#000000" fill-rule="evenodd" fill-opacity="1" /><path clip-path="url(#clip420)" d="M 0 0 M276.025 384.505 L281.754 384.505 L281.754 364.73 L275.521 365.98 L275.521 362.786 L281.719 361.536 L285.226 361.536 L285.226 384.505 L290.955 384.505 L290.955 387.456 L276.025 387.456 L276.025 384.505 Z" fill="#000000" fill-rule="evenodd" fill-opacity="1" /><path clip-path="url(#clip420)" d="M 0 0 M308.663 373.48 Q311.181 374.019 312.587 375.72 Q314.011 377.421 314.011 379.921 Q314.011 383.758 311.372 385.859 Q308.733 387.96 303.872 387.96 Q302.24 387.96 300.504 387.63 Q298.785 387.317 296.945 386.675 L296.945 383.289 Q298.403 384.14 300.139 384.574 Q301.875 385.008 303.768 385.008 Q307.066 385.008 308.785 383.706 Q310.521 382.404 310.521 379.921 Q310.521 377.63 308.906 376.345 Q307.309 375.043 304.445 375.043 L301.424 375.043 L301.424 372.161 L304.584 372.161 Q307.17 372.161 308.542 371.137 Q309.913 370.095 309.913 368.151 Q309.913 366.154 308.49 365.095 Q307.084 364.019 304.445 364.019 Q303.004 364.019 301.354 364.331 Q299.705 364.644 297.726 365.303 L297.726 362.178 Q299.723 361.623 301.459 361.345 Q303.212 361.067 304.757 361.067 Q308.75 361.067 311.077 362.89 Q313.403 364.696 313.403 367.786 Q313.403 369.939 312.17 371.432 Q310.938 372.908 308.663 373.48 Z" fill="#000000" fill-rule="evenodd" fill-opacity="1" /><path clip-path="url(#clip420)" d="M 0 0 M412.377 85.2008 L418.107 85.2008 L418.107 65.4266 L411.874 66.6766 L411.874 63.4822 L418.072 62.2322 L421.579 62.2322 L421.579 85.2008 L427.308 85.2008 L427.308 88.1522 L412.377 88.1522 L412.377 85.2008 Z" fill="#000000" fill-rule="evenodd" fill-opacity="1" /><path clip-path="url(#clip420)" d="M 0 0 M433.506 62.2322 L450.172 62.2322 L450.172 63.7253 L440.763 88.1522 L437.1 88.1522 L445.954 65.1836 L433.506 65.1836 L433.506 62.2322 Z" fill="#000000" fill-rule="evenodd" fill-opacity="1" /><path clip-path="url(#clip420)" d="M 0 0 M344.201 135.085 L349.93 135.085 L349.93 115.311 L343.698 116.561 L343.698 113.366 L349.896 112.116 L353.402 112.116 L353.402 135.085 L359.132 135.085 L359.132 138.036 L344.201 138.036 L344.201 135.085 Z" fill="#000000" fill-rule="evenodd" fill-opacity="1" /><path clip-path="url(#clip420)" d="M 0 0 M373.715 125.727 Q371.215 125.727 369.774 127.064 Q368.35 128.401 368.35 130.745 Q368.35 133.088 369.774 134.425 Q371.215 135.762 373.715 135.762 Q376.215 135.762 377.656 134.425 Q379.097 133.071 379.097 130.745 Q379.097 128.401 377.656 127.064 Q376.232 125.727 373.715 125.727 M370.208 124.234 Q367.951 123.679 366.684 122.134 Q365.434 120.588 365.434 118.366 Q365.434 115.259 367.638 113.453 Q369.861 111.647 373.715 111.647 Q377.586 111.647 379.791 113.453 Q381.996 115.259 381.996 118.366 Q381.996 120.588 380.729 122.134 Q379.479 123.679 377.239 124.234 Q379.774 124.824 381.18 126.543 Q382.604 128.262 382.604 130.745 Q382.604 134.512 380.295 136.526 Q378.003 138.54 373.715 138.54 Q369.427 138.54 367.118 136.526 Q364.826 134.512 364.826 130.745 Q364.826 128.262 366.25 126.543 Q367.673 124.824 370.208 124.234 M368.923 118.696 Q368.923 120.71 370.173 121.838 Q371.441 122.967 373.715 122.967 Q375.972 122.967 377.239 121.838 Q378.524 120.71 378.524 118.696 Q378.524 116.682 377.239 115.554 Q375.972 114.425 373.715 114.425 Q371.441 114.425 370.173 115.554 Q368.923 116.682 368.923 118.696 Z" fill="#000000" fill-rule="evenodd" fill-opacity="1" /><path clip-path="url(#clip420)" d="M 0 0 M416.093 284.737 L428.332 284.737 L428.332 287.688 L411.874 287.688 L411.874 284.737 Q413.871 282.671 417.308 279.199 Q420.763 275.709 421.648 274.702 Q423.332 272.81 423.992 271.508 Q424.669 270.188 424.669 268.921 Q424.669 266.855 423.211 265.553 Q421.77 264.251 419.443 264.251 Q417.794 264.251 415.954 264.824 Q414.131 265.397 412.048 266.56 L412.048 263.018 Q414.166 262.167 416.006 261.733 Q417.846 261.299 419.374 261.299 Q423.402 261.299 425.798 263.313 Q428.193 265.327 428.193 268.695 Q428.193 270.292 427.586 271.733 Q426.995 273.157 425.416 275.101 Q424.982 275.605 422.655 278.018 Q420.329 280.414 416.093 284.737 Z" fill="#000000" fill-rule="evenodd" fill-opacity="1" /><path clip-path="url(#clip420)" d="M 0 0 M443.193 264.077 Q440.485 264.077 439.113 266.751 Q437.759 269.407 437.759 274.754 Q437.759 280.084 439.113 282.758 Q440.485 285.414 443.193 285.414 Q445.919 285.414 447.273 282.758 Q448.645 280.084 448.645 274.754 Q448.645 269.407 447.273 266.751 Q445.919 264.077 443.193 264.077 M443.193 261.299 Q447.551 261.299 449.843 264.754 Q452.152 268.192 452.152 274.754 Q452.152 281.299 449.843 284.754 Q447.551 288.192 443.193 288.192 Q438.836 288.192 436.527 284.754 Q434.235 281.299 434.235 274.754 Q434.235 268.192 436.527 264.754 Q438.836 261.299 443.193 261.299 Z" fill="#000000" fill-rule="evenodd" fill-opacity="1" /><path clip-path="url(#clip420)" d="M 0 0 M143.387 85.2008 L155.627 85.2008 L155.627 88.1522 L139.169 88.1522 L139.169 85.2008 Q141.165 83.1349 144.603 79.6627 Q148.057 76.1731 148.943 75.1662 Q150.627 73.2738 151.286 71.9718 Q151.964 70.6523 151.964 69.385 Q151.964 67.319 150.505 66.0169 Q149.064 64.7148 146.738 64.7148 Q145.089 64.7148 143.248 65.2878 Q141.425 65.8607 139.342 67.0239 L139.342 63.4822 Q141.46 62.6315 143.3 62.1975 Q145.141 61.7635 146.668 61.7635 Q150.696 61.7635 153.092 63.7774 Q155.488 65.7912 155.488 69.1593 Q155.488 70.7565 154.88 72.1974 Q154.29 73.621 152.71 75.5655 Q152.276 76.069 149.95 78.4821 Q147.623 80.878 143.387 85.2008 Z" fill="#000000" fill-rule="evenodd" fill-opacity="1" /><path clip-path="url(#clip420)" d="M 0 0 M163.595 85.2008 L169.325 85.2008 L169.325 65.4266 L163.092 66.6766 L163.092 63.4822 L169.29 62.2322 L172.797 62.2322 L172.797 85.2008 L178.526 85.2008 L178.526 88.1522 L163.595 88.1522 L163.595 85.2008 Z" fill="#000000" fill-rule="evenodd" fill-opacity="1" /><path clip-path="url(#clip420)" d="M 0 0 M75.2109 135.085 L87.4504 135.085 L87.4504 138.036 L70.9921 138.036 L70.9921 135.085 Q72.9886 133.019 76.4261 129.547 Q79.881 126.057 80.7664 125.05 Q82.4504 123.158 83.1101 121.856 Q83.7872 120.536 83.7872 119.269 Q83.7872 117.203 82.3289 115.901 Q80.8879 114.599 78.5615 114.599 Q76.9122 114.599 75.072 115.172 Q73.2491 115.745 71.1657 116.908 L71.1657 113.366 Q73.2838 112.515 75.124 112.081 Q76.9643 111.647 78.4921 111.647 Q82.5198 111.647 84.9157 113.661 Q87.3115 115.675 87.3115 119.043 Q87.3115 120.64 86.7038 122.081 Q86.1136 123.505 84.5337 125.449 Q84.0997 125.953 81.7733 128.366 Q79.4469 130.762 75.2109 135.085 Z" fill="#000000" fill-rule="evenodd" fill-opacity="1" /><path clip-path="url(#clip420)" d="M 0 0 M97.8323 135.085 L110.072 135.085 L110.072 138.036 L93.6135 138.036 L93.6135 135.085 Q95.61 133.019 99.0475 129.547 Q102.502 126.057 103.388 125.05 Q105.072 123.158 105.732 121.856 Q106.409 120.536 106.409 119.269 Q106.409 117.203 104.95 115.901 Q103.509 114.599 101.183 114.599 Q99.5336 114.599 97.6934 115.172 Q95.8705 115.745 93.7871 116.908 L93.7871 113.366 Q95.9052 112.515 97.7455 112.081 Q99.5857 111.647 101.113 111.647 Q105.141 111.647 107.537 113.661 Q109.933 115.675 109.933 119.043 Q109.933 120.64 109.325 122.081 Q108.735 123.505 107.155 125.449 Q106.721 125.953 104.395 128.366 Q102.068 130.762 97.8323 135.085 Z" fill="#000000" fill-rule="evenodd" fill-opacity="1" /><path clip-path="url(#clip420)" d="M 0 0 M211.564 234.853 L223.803 234.853 L223.803 237.804 L207.345 237.804 L207.345 234.853 Q209.341 232.787 212.779 229.315 Q216.234 225.825 217.119 224.818 Q218.803 222.926 219.463 221.624 Q220.14 220.304 220.14 219.037 Q220.14 216.971 218.682 215.669 Q217.241 214.367 214.914 214.367 Q213.265 214.367 211.425 214.94 Q209.602 215.513 207.518 216.676 L207.518 213.134 Q209.637 212.283 211.477 211.849 Q213.317 211.415 214.845 211.415 Q218.873 211.415 221.268 213.429 Q223.664 215.443 223.664 218.811 Q223.664 220.408 223.057 221.849 Q222.466 223.273 220.886 225.217 Q220.452 225.721 218.126 228.134 Q215.8 230.53 211.564 234.853 Z" fill="#000000" fill-rule="evenodd" fill-opacity="1" /><path clip-path="url(#clip420)" d="M 0 0 M241.789 223.829 Q244.306 224.367 245.713 226.068 Q247.136 227.769 247.136 230.269 Q247.136 234.106 244.497 236.207 Q241.859 238.308 236.998 238.308 Q235.366 238.308 233.629 237.978 Q231.911 237.665 230.07 237.023 L230.07 233.637 Q231.529 234.488 233.265 234.922 Q235.001 235.356 236.893 235.356 Q240.192 235.356 241.911 234.054 Q243.647 232.752 243.647 230.269 Q243.647 227.978 242.032 226.693 Q240.435 225.391 237.57 225.391 L234.55 225.391 L234.55 222.509 L237.709 222.509 Q240.296 222.509 241.668 221.485 Q243.039 220.443 243.039 218.499 Q243.039 216.502 241.616 215.443 Q240.209 214.367 237.57 214.367 Q236.129 214.367 234.48 214.679 Q232.831 214.992 230.852 215.651 L230.852 212.526 Q232.848 211.971 234.584 211.693 Q236.338 211.415 237.883 211.415 Q241.876 211.415 244.202 213.238 Q246.529 215.044 246.529 218.134 Q246.529 220.287 245.296 221.78 Q244.063 223.256 241.789 223.829 Z" fill="#000000" fill-rule="evenodd" fill-opacity="1" /><circle clip-path="url(#clip422)" cx="548.227" cy="694.536" r="14" fill="#0000ff" fill-rule="evenodd" fill-opacity="1" stroke="none"/>
<circle clip-path="url(#clip422)" cx="480.05" cy="744.42" r="14" fill="#0000ff" fill-rule="evenodd" fill-opacity="1" stroke="none"/>
<circle clip-path="url(#clip422)" cx="616.403" cy="844.188" r="14" fill="#0000ff" fill-rule="evenodd" fill-opacity="1" stroke="none"/>
<circle clip-path="url(#clip422)" cx="548.227" cy="894.072" r="14" fill="#0000ff" fill-rule="evenodd" fill-opacity="1" stroke="none"/>
<circle clip-path="url(#clip422)" cx="752.756" cy="744.42" r="14" fill="#0000ff" fill-rule="evenodd" fill-opacity="1" stroke="none"/>
<circle clip-path="url(#clip422)" cx="616.403" cy="744.42" r="14" fill="#0000ff" fill-rule="evenodd" fill-opacity="1" stroke="none"/>
<circle clip-path="url(#clip422)" cx="752.756" cy="844.188" r="14" fill="#0000ff" fill-rule="evenodd" fill-opacity="1" stroke="none"/>
<circle clip-path="url(#clip422)" cx="684.58" cy="894.072" r="14" fill="#0000ff" fill-rule="evenodd" fill-opacity="1" stroke="none"/>
<circle clip-path="url(#clip422)" cx="480.05" cy="844.188" r="14" fill="#0000ff" fill-rule="evenodd" fill-opacity="1" stroke="none"/>
<circle clip-path="url(#clip422)" cx="548.227" cy="594.768" r="14" fill="#0000ff" fill-rule="evenodd" fill-opacity="1" stroke="none"/>
<path clip-path="url(#clip420)" d="M 0 0 M559.945 672.784 Q562.463 673.322 563.869 675.024 Q565.293 676.725 565.293 679.225 Q565.293 683.062 562.654 685.163 Q560.015 687.263 555.154 687.263 Q553.522 687.263 551.786 686.934 Q550.067 686.621 548.227 685.979 L548.227 682.593 Q549.685 683.444 551.421 683.878 Q553.157 684.312 555.05 684.312 Q558.348 684.312 560.067 683.01 Q561.803 681.708 561.803 679.225 Q561.803 676.934 560.189 675.649 Q558.591 674.347 555.727 674.347 L552.706 674.347 L552.706 671.465 L555.866 671.465 Q558.452 671.465 559.824 670.441 Q561.195 669.399 561.195 667.454 Q561.195 665.458 559.772 664.399 Q558.366 663.323 555.727 663.323 Q554.286 663.323 552.636 663.635 Q550.987 663.948 549.008 664.607 L549.008 661.482 Q551.005 660.927 552.741 660.649 Q554.494 660.371 556.039 660.371 Q560.032 660.371 562.359 662.194 Q564.685 664 564.685 667.09 Q564.685 669.243 563.452 670.736 Q562.22 672.211 559.945 672.784 Z" fill="#000000" fill-rule="evenodd" fill-opacity="1" /><path clip-path="url(#clip420)" d="M 0 0 M491.752 713.779 L482.898 727.616 L491.752 727.616 L491.752 713.779 M490.832 710.724 L495.241 710.724 L495.241 727.616 L498.939 727.616 L498.939 730.533 L495.241 730.533 L495.241 736.644 L491.752 736.644 L491.752 730.533 L480.05 730.533 L480.05 727.147 L490.832 710.724 Z" fill="#000000" fill-rule="evenodd" fill-opacity="1" /><path clip-path="url(#clip420)" d="M 0 0 M617.497 810.492 L631.264 810.492 L631.264 813.443 L620.709 813.443 L620.709 819.797 Q621.473 819.537 622.236 819.415 Q623 819.276 623.764 819.276 Q628.104 819.276 630.639 821.655 Q633.174 824.033 633.174 828.096 Q633.174 832.28 630.57 834.606 Q627.966 836.915 623.226 836.915 Q621.594 836.915 619.893 836.638 Q618.209 836.36 616.403 835.804 L616.403 832.28 Q617.966 833.131 619.632 833.547 Q621.299 833.964 623.157 833.964 Q626.16 833.964 627.914 832.384 Q629.667 830.804 629.667 828.096 Q629.667 825.388 627.914 823.808 Q626.16 822.228 623.157 822.228 Q621.75 822.228 620.344 822.54 Q618.955 822.853 617.497 823.513 L617.497 810.492 Z" fill="#000000" fill-rule="evenodd" fill-opacity="1" /><path clip-path="url(#clip420)" d="M 0 0 M557.48 871.938 Q555.119 871.938 553.73 873.553 Q552.359 875.167 552.359 877.98 Q552.359 880.775 553.73 882.407 Q555.119 884.021 557.48 884.021 Q559.841 884.021 561.213 882.407 Q562.602 880.775 562.602 877.98 Q562.602 875.167 561.213 873.553 Q559.841 871.938 557.48 871.938 M564.442 860.949 L564.442 864.143 Q563.123 863.518 561.768 863.188 Q560.432 862.858 559.112 862.858 Q555.64 862.858 553.8 865.202 Q551.977 867.546 551.716 872.285 Q552.741 870.775 554.286 869.976 Q555.831 869.16 557.689 869.16 Q561.595 869.16 563.852 871.539 Q566.126 873.9 566.126 877.98 Q566.126 881.973 563.765 884.386 Q561.404 886.799 557.48 886.799 Q552.984 886.799 550.605 883.362 Q548.227 879.907 548.227 873.362 Q548.227 867.216 551.143 863.57 Q554.06 859.907 558.973 859.907 Q560.293 859.907 561.629 860.167 Q562.984 860.428 564.442 860.949 Z" fill="#000000" fill-rule="evenodd" fill-opacity="1" /><path clip-path="url(#clip420)" d="M 0 0 M753.259 733.692 L758.989 733.692 L758.989 713.918 L752.756 715.168 L752.756 711.974 L758.954 710.724 L762.461 710.724 L762.461 733.692 L768.19 733.692 L768.19 736.644 L753.259 736.644 L753.259 733.692 Z" fill="#000000" fill-rule="evenodd" fill-opacity="1" /><path clip-path="url(#clip420)" d="M 0 0 M778.294 733.692 L790.533 733.692 L790.533 736.644 L774.075 736.644 L774.075 733.692 Q776.072 731.627 779.509 728.154 Q782.964 724.665 783.849 723.658 Q785.534 721.765 786.193 720.463 Q786.87 719.144 786.87 717.877 Q786.87 715.811 785.412 714.509 Q783.971 713.206 781.645 713.206 Q779.995 713.206 778.155 713.779 Q776.332 714.352 774.249 715.516 L774.249 711.974 Q776.367 711.123 778.207 710.689 Q780.047 710.255 781.575 710.255 Q785.603 710.255 787.999 712.269 Q790.395 714.283 790.395 717.651 Q790.395 719.248 789.787 720.689 Q789.197 722.113 787.617 724.057 Q787.183 724.561 784.856 726.974 Q782.53 729.37 778.294 733.692 Z" fill="#000000" fill-rule="evenodd" fill-opacity="1" /><path clip-path="url(#clip420)" d="M 0 0 M616.907 733.692 L622.636 733.692 L622.636 713.918 L616.403 715.168 L616.403 711.974 L622.601 710.724 L626.108 710.724 L626.108 733.692 L631.837 733.692 L631.837 736.644 L616.907 736.644 L616.907 733.692 Z" fill="#000000" fill-rule="evenodd" fill-opacity="1" /><path clip-path="url(#clip420)" d="M 0 0 M648.556 713.779 L639.702 727.616 L648.556 727.616 L648.556 713.779 M647.636 710.724 L652.045 710.724 L652.045 727.616 L655.743 727.616 L655.743 730.533 L652.045 730.533 L652.045 736.644 L648.556 736.644 L648.556 730.533 L636.854 730.533 L636.854 727.147 L647.636 710.724 Z" fill="#000000" fill-rule="evenodd" fill-opacity="1" /><path clip-path="url(#clip420)" d="M 0 0 M753.259 833.46 L758.989 833.46 L758.989 813.686 L752.756 814.936 L752.756 811.742 L758.954 810.492 L762.461 810.492 L762.461 833.46 L768.19 833.46 L768.19 836.412 L753.259 836.412 L753.259 833.46 Z" fill="#000000" fill-rule="evenodd" fill-opacity="1" /><path clip-path="url(#clip420)" d="M 0 0 M775.308 810.492 L789.075 810.492 L789.075 813.443 L778.52 813.443 L778.52 819.797 Q779.284 819.537 780.047 819.415 Q780.811 819.276 781.575 819.276 Q785.915 819.276 788.45 821.655 Q790.985 824.033 790.985 828.096 Q790.985 832.28 788.381 834.606 Q785.777 836.915 781.037 836.915 Q779.405 836.915 777.704 836.638 Q776.02 836.36 774.214 835.804 L774.214 832.28 Q775.777 833.131 777.443 833.547 Q779.11 833.964 780.968 833.964 Q783.971 833.964 785.724 832.384 Q787.478 830.804 787.478 828.096 Q787.478 825.388 785.724 823.808 Q783.971 822.228 780.968 822.228 Q779.561 822.228 778.155 822.54 Q776.766 822.853 775.308 823.513 L775.308 810.492 Z" fill="#000000" fill-rule="evenodd" fill-opacity="1" /><path clip-path="url(#clip420)" d="M 0 0 M685.083 883.344 L690.812 883.344 L690.812 863.57 L684.58 864.82 L684.58 861.626 L690.777 860.376 L694.284 860.376 L694.284 883.344 L700.013 883.344 L700.013 886.296 L685.083 886.296 L685.083 883.344 Z" fill="#000000" fill-rule="evenodd" fill-opacity="1" /><path clip-path="url(#clip420)" d="M 0 0 M715.031 871.938 Q712.67 871.938 711.281 873.553 Q709.909 875.167 709.909 877.98 Q709.909 880.775 711.281 882.407 Q712.67 884.021 715.031 884.021 Q717.392 884.021 718.763 882.407 Q720.152 880.775 720.152 877.98 Q720.152 875.167 718.763 873.553 Q717.392 871.938 715.031 871.938 M721.993 860.949 L721.993 864.143 Q720.673 863.518 719.319 863.188 Q717.982 862.858 716.663 862.858 Q713.19 862.858 711.35 865.202 Q709.527 867.546 709.267 872.285 Q710.291 870.775 711.836 869.976 Q713.381 869.16 715.239 869.16 Q719.145 869.16 721.402 871.539 Q723.677 873.9 723.677 877.98 Q723.677 881.973 721.315 884.386 Q718.954 886.799 715.031 886.799 Q710.534 886.799 708.156 883.362 Q705.777 879.907 705.777 873.362 Q705.777 867.216 708.694 863.57 Q711.611 859.907 716.524 859.907 Q717.843 859.907 719.18 860.167 Q720.534 860.428 721.993 860.949 Z" fill="#000000" fill-rule="evenodd" fill-opacity="1" /><path clip-path="url(#clip420)" d="M 0 0 M480.554 833.46 L486.283 833.46 L486.283 813.686 L480.05 814.936 L480.05 811.742 L486.248 810.492 L489.755 810.492 L489.755 833.46 L495.484 833.46 L495.484 836.412 L480.554 836.412 L480.554 833.46 Z" fill="#000000" fill-rule="evenodd" fill-opacity="1" /><path clip-path="url(#clip420)" d="M 0 0 M502.672 835.874 L502.672 832.679 Q503.991 833.304 505.345 833.634 Q506.7 833.964 508.002 833.964 Q511.474 833.964 513.297 831.638 Q515.137 829.294 515.397 824.537 Q514.39 826.03 512.845 826.829 Q511.3 827.627 509.425 827.627 Q505.536 827.627 503.262 825.283 Q501.005 822.922 501.005 818.842 Q501.005 814.849 503.366 812.436 Q505.727 810.023 509.651 810.023 Q514.147 810.023 516.509 813.478 Q518.887 816.915 518.887 823.478 Q518.887 829.606 515.97 833.269 Q513.071 836.915 508.158 836.915 Q506.838 836.915 505.484 836.655 Q504.13 836.394 502.672 835.874 M509.651 824.884 Q512.012 824.884 513.384 823.27 Q514.772 821.655 514.772 818.842 Q514.772 816.047 513.384 814.433 Q512.012 812.801 509.651 812.801 Q507.29 812.801 505.901 814.433 Q504.529 816.047 504.529 818.842 Q504.529 821.655 505.901 823.27 Q507.29 824.884 509.651 824.884 Z" fill="#000000" fill-rule="evenodd" fill-opacity="1" /><path clip-path="url(#clip420)" d="M 0 0 M552.445 584.041 L564.685 584.041 L564.685 586.992 L548.227 586.992 L548.227 584.041 Q550.223 581.975 553.661 578.502 Q557.116 575.013 558.001 574.006 Q559.685 572.114 560.345 570.811 Q561.022 569.492 561.022 568.225 Q561.022 566.159 559.564 564.857 Q558.123 563.555 555.796 563.555 Q554.147 563.555 552.307 564.127 Q550.484 564.7 548.4 565.864 L548.4 562.322 Q550.518 561.471 552.359 561.037 Q554.199 560.603 555.727 560.603 Q559.754 560.603 562.15 562.617 Q564.546 564.631 564.546 567.999 Q564.546 569.596 563.938 571.037 Q563.348 572.461 561.768 574.405 Q561.334 574.909 559.008 577.322 Q556.682 579.718 552.445 584.041 Z" fill="#000000" fill-rule="evenodd" fill-opacity="1" /><path clip-path="url(#clip420)" d="M 0 0 M581.681 564.127 L572.827 577.964 L581.681 577.964 L581.681 564.127 M580.761 561.072 L585.171 561.072 L585.171 577.964 L588.869 577.964 L588.869 580.881 L585.171 580.881 L585.171 586.992 L581.681 586.992 L581.681 580.881 L569.98 580.881 L569.98 577.495 L580.761 561.072 Z" fill="#000000" fill-rule="evenodd" fill-opacity="1" /><circle clip-path="url(#clip422)" cx="480.05" cy="544.884" r="14" fill="#0000ff" fill-rule="evenodd" fill-opacity="1" stroke="none"/>
<circle clip-path="url(#clip422)" cx="548.227" cy="95.9282" r="14" fill="#0000ff" fill-rule="evenodd" fill-opacity="1" stroke="none"/>
<circle clip-path="url(#clip422)" cx="480.05" cy="145.812" r="14" fill="#0000ff" fill-rule="evenodd" fill-opacity="1" stroke="none"/>
<circle clip-path="url(#clip422)" cx="616.403" cy="245.58" r="14" fill="#0000ff" fill-rule="evenodd" fill-opacity="1" stroke="none"/>
<circle clip-path="url(#clip422)" cx="548.227" cy="295.464" r="14" fill="#0000ff" fill-rule="evenodd" fill-opacity="1" stroke="none"/>
<circle clip-path="url(#clip422)" cx="684.58" cy="395.232" r="14" fill="#0000ff" fill-rule="evenodd" fill-opacity="1" stroke="none"/>
<circle clip-path="url(#clip422)" cx="616.403" cy="445.116" r="14" fill="#0000ff" fill-rule="evenodd" fill-opacity="1" stroke="none"/>
<circle clip-path="url(#clip422)" cx="752.756" cy="544.884" r="14" fill="#0000ff" fill-rule="evenodd" fill-opacity="1" stroke="none"/>
<circle clip-path="url(#clip422)" cx="684.58" cy="594.768" r="14" fill="#0000ff" fill-rule="evenodd" fill-opacity="1" stroke="none"/>
<circle clip-path="url(#clip422)" cx="752.756" cy="145.812" r="14" fill="#0000ff" fill-rule="evenodd" fill-opacity="1" stroke="none"/>
<circle clip-path="url(#clip422)" cx="684.58" cy="694.536" r="14" fill="#0000ff" fill-rule="evenodd" fill-opacity="1" stroke="none"/>
<circle clip-path="url(#clip422)" cx="616.403" cy="145.812" r="14" fill="#0000ff" fill-rule="evenodd" fill-opacity="1" stroke="none"/>
<circle clip-path="url(#clip422)" cx="752.756" cy="245.58" r="14" fill="#0000ff" fill-rule="evenodd" fill-opacity="1" stroke="none"/>
<circle clip-path="url(#clip422)" cx="684.58" cy="295.464" r="14" fill="#0000ff" fill-rule="evenodd" fill-opacity="1" stroke="none"/>
<circle clip-path="url(#clip422)" cx="752.756" cy="445.116" r="14" fill="#0000ff" fill-rule="evenodd" fill-opacity="1" stroke="none"/>
<circle clip-path="url(#clip422)" cx="480.05" cy="245.58" r="14" fill="#0000ff" fill-rule="evenodd" fill-opacity="1" stroke="none"/>
<circle clip-path="url(#clip422)" cx="548.227" cy="395.232" r="14" fill="#0000ff" fill-rule="evenodd" fill-opacity="1" stroke="none"/>
<circle clip-path="url(#clip422)" cx="480.05" cy="445.116" r="14" fill="#0000ff" fill-rule="evenodd" fill-opacity="1" stroke="none"/>
<circle clip-path="url(#clip422)" cx="616.403" cy="544.884" r="14" fill="#0000ff" fill-rule="evenodd" fill-opacity="1" stroke="none"/>
<path clip-path="url(#clip420)" d="M 0 0 M480.554 534.157 L486.283 534.157 L486.283 514.382 L480.05 515.632 L480.05 512.438 L486.248 511.188 L489.755 511.188 L489.755 534.157 L495.484 534.157 L495.484 537.108 L480.554 537.108 L480.554 534.157 Z" fill="#000000" fill-rule="evenodd" fill-opacity="1" /><path clip-path="url(#clip420)" d="M 0 0 M559.945 74.1766 Q562.463 74.7148 563.869 76.4162 Q565.293 78.1176 565.293 80.6175 Q565.293 84.4543 562.654 86.555 Q560.015 88.6557 555.154 88.6557 Q553.522 88.6557 551.786 88.3258 Q550.067 88.0133 548.227 87.371 L548.227 83.9856 Q549.685 84.8363 551.421 85.2703 Q553.157 85.7043 555.05 85.7043 Q558.348 85.7043 560.067 84.4022 Q561.803 83.1002 561.803 80.6175 Q561.803 78.3259 560.189 77.0412 Q558.591 75.7391 555.727 75.7391 L552.706 75.7391 L552.706 72.8572 L555.866 72.8572 Q558.452 72.8572 559.824 71.8329 Q561.195 70.7912 561.195 68.8468 Q561.195 66.8503 559.772 65.7912 Q558.366 64.7148 555.727 64.7148 Q554.286 64.7148 552.636 65.0273 Q550.987 65.3398 549.008 65.9996 L549.008 62.8746 Q551.005 62.319 552.741 62.0412 Q554.494 61.7635 556.039 61.7635 Q560.032 61.7635 562.359 63.5864 Q564.685 65.3919 564.685 68.4822 Q564.685 70.635 563.452 72.128 Q562.22 73.6037 559.945 74.1766 Z" fill="#000000" fill-rule="evenodd" fill-opacity="1" /><path clip-path="url(#clip420)" d="M 0 0 M491.752 115.172 L482.898 129.008 L491.752 129.008 L491.752 115.172 M490.832 112.116 L495.241 112.116 L495.241 129.008 L498.939 129.008 L498.939 131.925 L495.241 131.925 L495.241 138.036 L491.752 138.036 L491.752 131.925 L480.05 131.925 L480.05 128.54 L490.832 112.116 Z" fill="#000000" fill-rule="evenodd" fill-opacity="1" /><path clip-path="url(#clip420)" d="M 0 0 M617.497 211.884 L631.264 211.884 L631.264 214.836 L620.709 214.836 L620.709 221.19 Q621.473 220.929 622.236 220.808 Q623 220.669 623.764 220.669 Q628.104 220.669 630.639 223.047 Q633.174 225.426 633.174 229.488 Q633.174 233.672 630.57 235.999 Q627.966 238.308 623.226 238.308 Q621.594 238.308 619.893 238.03 Q618.209 237.752 616.403 237.197 L616.403 233.672 Q617.966 234.523 619.632 234.94 Q621.299 235.356 623.157 235.356 Q626.16 235.356 627.914 233.776 Q629.667 232.197 629.667 229.488 Q629.667 226.78 627.914 225.2 Q626.16 223.62 623.157 223.62 Q621.75 223.62 620.344 223.933 Q618.955 224.245 617.497 224.905 L617.497 211.884 Z" fill="#000000" fill-rule="evenodd" fill-opacity="1" /><path clip-path="url(#clip420)" d="M 0 0 M557.48 273.331 Q555.119 273.331 553.73 274.945 Q552.359 276.56 552.359 279.372 Q552.359 282.167 553.73 283.799 Q555.119 285.414 557.48 285.414 Q559.841 285.414 561.213 283.799 Q562.602 282.167 562.602 279.372 Q562.602 276.56 561.213 274.945 Q559.841 273.331 557.48 273.331 M564.442 262.341 L564.442 265.535 Q563.123 264.91 561.768 264.581 Q560.432 264.251 559.112 264.251 Q555.64 264.251 553.8 266.594 Q551.977 268.938 551.716 273.678 Q552.741 272.167 554.286 271.369 Q555.831 270.553 557.689 270.553 Q561.595 270.553 563.852 272.931 Q566.126 275.292 566.126 279.372 Q566.126 283.365 563.765 285.778 Q561.404 288.192 557.48 288.192 Q552.984 288.192 550.605 284.754 Q548.227 281.299 548.227 274.754 Q548.227 268.608 551.143 264.963 Q554.06 261.299 558.973 261.299 Q560.293 261.299 561.629 261.56 Q562.984 261.82 564.442 262.341 Z" fill="#000000" fill-rule="evenodd" fill-opacity="1" /><path clip-path="url(#clip420)" d="M 0 0 M684.58 361.536 L701.246 361.536 L701.246 363.029 L691.836 387.456 L688.173 387.456 L697.027 364.487 L684.58 364.487 L684.58 361.536 Z" fill="#000000" fill-rule="evenodd" fill-opacity="1" /><path clip-path="url(#clip420)" d="M 0 0 M625.292 425.031 Q622.792 425.031 621.351 426.368 Q619.927 427.705 619.927 430.048 Q619.927 432.392 621.351 433.729 Q622.792 435.066 625.292 435.066 Q627.792 435.066 629.233 433.729 Q630.674 432.375 630.674 430.048 Q630.674 427.705 629.233 426.368 Q627.809 425.031 625.292 425.031 M621.785 423.538 Q619.528 422.982 618.261 421.437 Q617.011 419.892 617.011 417.67 Q617.011 414.562 619.216 412.757 Q621.438 410.951 625.292 410.951 Q629.163 410.951 631.368 412.757 Q633.573 414.562 633.573 417.67 Q633.573 419.892 632.306 421.437 Q631.056 422.982 628.816 423.538 Q631.351 424.128 632.757 425.847 Q634.181 427.566 634.181 430.048 Q634.181 433.816 631.872 435.83 Q629.58 437.843 625.292 437.843 Q621.004 437.843 618.695 435.83 Q616.403 433.816 616.403 430.048 Q616.403 427.566 617.827 425.847 Q619.25 424.128 621.785 423.538 M620.5 418 Q620.5 420.014 621.75 421.142 Q623.018 422.271 625.292 422.271 Q627.549 422.271 628.816 421.142 Q630.101 420.014 630.101 418 Q630.101 415.986 628.816 414.858 Q627.549 413.729 625.292 413.729 Q623.018 413.729 621.75 414.858 Q620.5 415.986 620.5 418 Z" fill="#000000" fill-rule="evenodd" fill-opacity="1" /><path clip-path="url(#clip420)" d="M 0 0 M754.423 536.57 L754.423 533.375 Q755.742 534 757.096 534.33 Q758.45 534.66 759.752 534.66 Q763.225 534.66 765.048 532.334 Q766.888 529.99 767.148 525.233 Q766.141 526.726 764.596 527.525 Q763.051 528.323 761.176 528.323 Q757.287 528.323 755.013 525.98 Q752.756 523.618 752.756 519.539 Q752.756 515.546 755.117 513.132 Q757.478 510.719 761.402 510.719 Q765.898 510.719 768.259 514.174 Q770.638 517.612 770.638 524.174 Q770.638 530.302 767.721 533.966 Q764.822 537.611 759.909 537.611 Q758.589 537.611 757.235 537.351 Q755.881 537.091 754.423 536.57 M761.402 525.58 Q763.763 525.58 765.134 523.966 Q766.523 522.351 766.523 519.539 Q766.523 516.743 765.134 515.129 Q763.763 513.497 761.402 513.497 Q759.041 513.497 757.652 515.129 Q756.28 516.743 756.28 519.539 Q756.28 522.351 757.652 523.966 Q759.041 525.58 761.402 525.58 Z" fill="#000000" fill-rule="evenodd" fill-opacity="1" /><path clip-path="url(#clip420)" d="M 0 0 M685.083 584.041 L690.812 584.041 L690.812 564.266 L684.58 565.516 L684.58 562.322 L690.777 561.072 L694.284 561.072 L694.284 584.041 L700.013 584.041 L700.013 586.992 L685.083 586.992 L685.083 584.041 Z" fill="#000000" fill-rule="evenodd" fill-opacity="1" /><path clip-path="url(#clip420)" d="M 0 0 M714.597 563.381 Q711.888 563.381 710.517 566.055 Q709.163 568.711 709.163 574.058 Q709.163 579.388 710.517 582.061 Q711.888 584.718 714.597 584.718 Q717.322 584.718 718.677 582.061 Q720.048 579.388 720.048 574.058 Q720.048 568.711 718.677 566.055 Q717.322 563.381 714.597 563.381 M714.597 560.603 Q718.954 560.603 721.246 564.058 Q723.555 567.496 723.555 574.058 Q723.555 580.603 721.246 584.058 Q718.954 587.495 714.597 587.495 Q710.239 587.495 707.93 584.058 Q705.638 580.603 705.638 574.058 Q705.638 567.496 707.93 564.058 Q710.239 560.603 714.597 560.603 Z" fill="#000000" fill-rule="evenodd" fill-opacity="1" /><path clip-path="url(#clip420)" d="M 0 0 M753.259 135.085 L758.989 135.085 L758.989 115.311 L752.756 116.561 L752.756 113.366 L758.954 112.116 L762.461 112.116 L762.461 135.085 L768.19 135.085 L768.19 138.036 L753.259 138.036 L753.259 135.085 Z" fill="#000000" fill-rule="evenodd" fill-opacity="1" /><path clip-path="url(#clip420)" d="M 0 0 M778.294 135.085 L790.533 135.085 L790.533 138.036 L774.075 138.036 L774.075 135.085 Q776.072 133.019 779.509 129.547 Q782.964 126.057 783.849 125.05 Q785.534 123.158 786.193 121.856 Q786.87 120.536 786.87 119.269 Q786.87 117.203 785.412 115.901 Q783.971 114.599 781.645 114.599 Q779.995 114.599 778.155 115.172 Q776.332 115.745 774.249 116.908 L774.249 113.366 Q776.367 112.515 778.207 112.081 Q780.047 111.647 781.575 111.647 Q785.603 111.647 787.999 113.661 Q790.395 115.675 790.395 119.043 Q790.395 120.64 789.787 122.081 Q789.197 123.505 787.617 125.449 Q787.183 125.953 784.856 128.366 Q782.53 130.762 778.294 135.085 Z" fill="#000000" fill-rule="evenodd" fill-opacity="1" /><path clip-path="url(#clip420)" d="M 0 0 M685.083 683.809 L690.812 683.809 L690.812 664.034 L684.58 665.284 L684.58 662.09 L690.777 660.84 L694.284 660.84 L694.284 683.809 L700.013 683.809 L700.013 686.76 L685.083 686.76 L685.083 683.809 Z" fill="#000000" fill-rule="evenodd" fill-opacity="1" /><path clip-path="url(#clip420)" d="M 0 0 M717.722 672.784 Q720.239 673.322 721.645 675.024 Q723.069 676.725 723.069 679.225 Q723.069 683.062 720.43 685.163 Q717.791 687.263 712.93 687.263 Q711.298 687.263 709.562 686.934 Q707.843 686.621 706.003 685.979 L706.003 682.593 Q707.461 683.444 709.197 683.878 Q710.934 684.312 712.826 684.312 Q716.124 684.312 717.843 683.01 Q719.579 681.708 719.579 679.225 Q719.579 676.934 717.965 675.649 Q716.368 674.347 713.503 674.347 L710.482 674.347 L710.482 671.465 L713.642 671.465 Q716.229 671.465 717.6 670.441 Q718.972 669.399 718.972 667.454 Q718.972 665.458 717.548 664.399 Q716.142 663.323 713.503 663.323 Q712.062 663.323 710.413 663.635 Q708.763 663.948 706.784 664.607 L706.784 661.482 Q708.781 660.927 710.517 660.649 Q712.27 660.371 713.815 660.371 Q717.809 660.371 720.135 662.194 Q722.461 664 722.461 667.09 Q722.461 669.243 721.229 670.736 Q719.996 672.211 717.722 672.784 Z" fill="#000000" fill-rule="evenodd" fill-opacity="1" /><path clip-path="url(#clip420)" d="M 0 0 M616.907 135.085 L622.636 135.085 L622.636 115.311 L616.403 116.561 L616.403 113.366 L622.601 112.116 L626.108 112.116 L626.108 135.085 L631.837 135.085 L631.837 138.036 L616.907 138.036 L616.907 135.085 Z" fill="#000000" fill-rule="evenodd" fill-opacity="1" /><path clip-path="url(#clip420)" d="M 0 0 M648.556 115.172 L639.702 129.008 L648.556 129.008 L648.556 115.172 M647.636 112.116 L652.045 112.116 L652.045 129.008 L655.743 129.008 L655.743 131.925 L652.045 131.925 L652.045 138.036 L648.556 138.036 L648.556 131.925 L636.854 131.925 L636.854 128.54 L647.636 112.116 Z" fill="#000000" fill-rule="evenodd" fill-opacity="1" /><path clip-path="url(#clip420)" d="M 0 0 M753.259 234.853 L758.989 234.853 L758.989 215.079 L752.756 216.329 L752.756 213.134 L758.954 211.884 L762.461 211.884 L762.461 234.853 L768.19 234.853 L768.19 237.804 L753.259 237.804 L753.259 234.853 Z" fill="#000000" fill-rule="evenodd" fill-opacity="1" /><path clip-path="url(#clip420)" d="M 0 0 M775.308 211.884 L789.075 211.884 L789.075 214.836 L778.52 214.836 L778.52 221.19 Q779.284 220.929 780.047 220.808 Q780.811 220.669 781.575 220.669 Q785.915 220.669 788.45 223.047 Q790.985 225.426 790.985 229.488 Q790.985 233.672 788.381 235.999 Q785.777 238.308 781.037 238.308 Q779.405 238.308 777.704 238.03 Q776.02 237.752 774.214 237.197 L774.214 233.672 Q775.777 234.523 777.443 234.94 Q779.11 235.356 780.968 235.356 Q783.971 235.356 785.724 233.776 Q787.478 232.197 787.478 229.488 Q787.478 226.78 785.724 225.2 Q783.971 223.62 780.968 223.62 Q779.561 223.62 778.155 223.933 Q776.766 224.245 775.308 224.905 L775.308 211.884 Z" fill="#000000" fill-rule="evenodd" fill-opacity="1" /><path clip-path="url(#clip420)" d="M 0 0 M685.083 284.737 L690.812 284.737 L690.812 264.963 L684.58 266.213 L684.58 263.018 L690.777 261.768 L694.284 261.768 L694.284 284.737 L700.013 284.737 L700.013 287.688 L685.083 287.688 L685.083 284.737 Z" fill="#000000" fill-rule="evenodd" fill-opacity="1" /><path clip-path="url(#clip420)" d="M 0 0 M715.031 273.331 Q712.67 273.331 711.281 274.945 Q709.909 276.56 709.909 279.372 Q709.909 282.167 711.281 283.799 Q712.67 285.414 715.031 285.414 Q717.392 285.414 718.763 283.799 Q720.152 282.167 720.152 279.372 Q720.152 276.56 718.763 274.945 Q717.392 273.331 715.031 273.331 M721.993 262.341 L721.993 265.535 Q720.673 264.91 719.319 264.581 Q717.982 264.251 716.663 264.251 Q713.19 264.251 711.35 266.594 Q709.527 268.938 709.267 273.678 Q710.291 272.167 711.836 271.369 Q713.381 270.553 715.239 270.553 Q719.145 270.553 721.402 272.931 Q723.677 275.292 723.677 279.372 Q723.677 283.365 721.315 285.778 Q718.954 288.192 715.031 288.192 Q710.534 288.192 708.156 284.754 Q705.777 281.299 705.777 274.754 Q705.777 268.608 708.694 264.963 Q711.611 261.299 716.524 261.299 Q717.843 261.299 719.18 261.56 Q720.534 261.82 721.993 262.341 Z" fill="#000000" fill-rule="evenodd" fill-opacity="1" /><path clip-path="url(#clip420)" d="M 0 0 M753.259 434.389 L758.989 434.389 L758.989 414.614 L752.756 415.864 L752.756 412.67 L758.954 411.42 L762.461 411.42 L762.461 434.389 L768.19 434.389 L768.19 437.34 L753.259 437.34 L753.259 434.389 Z" fill="#000000" fill-rule="evenodd" fill-opacity="1" /><path clip-path="url(#clip420)" d="M 0 0 M782.773 425.031 Q780.273 425.031 778.832 426.368 Q777.409 427.705 777.409 430.048 Q777.409 432.392 778.832 433.729 Q780.273 435.066 782.773 435.066 Q785.273 435.066 786.714 433.729 Q788.155 432.375 788.155 430.048 Q788.155 427.705 786.714 426.368 Q785.29 425.031 782.773 425.031 M779.266 423.538 Q777.009 422.982 775.742 421.437 Q774.492 419.892 774.492 417.67 Q774.492 414.562 776.697 412.757 Q778.919 410.951 782.773 410.951 Q786.645 410.951 788.849 412.757 Q791.054 414.562 791.054 417.67 Q791.054 419.892 789.787 421.437 Q788.537 422.982 786.297 423.538 Q788.832 424.128 790.238 425.847 Q791.662 427.566 791.662 430.048 Q791.662 433.816 789.353 435.83 Q787.061 437.843 782.773 437.843 Q778.485 437.843 776.176 435.83 Q773.884 433.816 773.884 430.048 Q773.884 427.566 775.308 425.847 Q776.731 424.128 779.266 423.538 M777.981 418 Q777.981 420.014 779.231 421.142 Q780.499 422.271 782.773 422.271 Q785.03 422.271 786.297 421.142 Q787.582 420.014 787.582 418 Q787.582 415.986 786.297 414.858 Q785.03 413.729 782.773 413.729 Q780.499 413.729 779.231 414.858 Q777.981 415.986 777.981 418 Z" fill="#000000" fill-rule="evenodd" fill-opacity="1" /><path clip-path="url(#clip420)" d="M 0 0 M480.554 234.853 L486.283 234.853 L486.283 215.079 L480.05 216.329 L480.05 213.134 L486.248 211.884 L489.755 211.884 L489.755 234.853 L495.484 234.853 L495.484 237.804 L480.554 237.804 L480.554 234.853 Z" fill="#000000" fill-rule="evenodd" fill-opacity="1" /><path clip-path="url(#clip420)" d="M 0 0 M502.672 237.266 L502.672 234.072 Q503.991 234.697 505.345 235.026 Q506.7 235.356 508.002 235.356 Q511.474 235.356 513.297 233.03 Q515.137 230.686 515.397 225.929 Q514.39 227.422 512.845 228.221 Q511.3 229.019 509.425 229.019 Q505.536 229.019 503.262 226.676 Q501.005 224.315 501.005 220.235 Q501.005 216.242 503.366 213.829 Q505.727 211.415 509.651 211.415 Q514.147 211.415 516.509 214.87 Q518.887 218.308 518.887 224.87 Q518.887 230.999 515.97 234.662 Q513.071 238.308 508.158 238.308 Q506.838 238.308 505.484 238.047 Q504.13 237.787 502.672 237.266 M509.651 226.276 Q512.012 226.276 513.384 224.662 Q514.772 223.047 514.772 220.235 Q514.772 217.44 513.384 215.825 Q512.012 214.193 509.651 214.193 Q507.29 214.193 505.901 215.825 Q504.529 217.44 504.529 220.235 Q504.529 223.047 505.901 224.662 Q507.29 226.276 509.651 226.276 Z" fill="#000000" fill-rule="evenodd" fill-opacity="1" /><path clip-path="url(#clip420)" d="M 0 0 M552.445 384.505 L564.685 384.505 L564.685 387.456 L548.227 387.456 L548.227 384.505 Q550.223 382.439 553.661 378.967 Q557.116 375.477 558.001 374.47 Q559.685 372.578 560.345 371.276 Q561.022 369.956 561.022 368.689 Q561.022 366.623 559.564 365.321 Q558.123 364.019 555.796 364.019 Q554.147 364.019 552.307 364.592 Q550.484 365.165 548.4 366.328 L548.4 362.786 Q550.518 361.935 552.359 361.501 Q554.199 361.067 555.727 361.067 Q559.754 361.067 562.15 363.081 Q564.546 365.095 564.546 368.463 Q564.546 370.06 563.938 371.501 Q563.348 372.925 561.768 374.869 Q561.334 375.373 559.008 377.786 Q556.682 380.182 552.445 384.505 Z" fill="#000000" fill-rule="evenodd" fill-opacity="1" /><path clip-path="url(#clip420)" d="M 0 0 M572.654 384.505 L578.383 384.505 L578.383 364.73 L572.15 365.98 L572.15 362.786 L578.348 361.536 L581.855 361.536 L581.855 384.505 L587.584 384.505 L587.584 387.456 L572.654 387.456 L572.654 384.505 Z" fill="#000000" fill-rule="evenodd" fill-opacity="1" /><path clip-path="url(#clip420)" d="M 0 0 M484.269 434.389 L496.509 434.389 L496.509 437.34 L480.05 437.34 L480.05 434.389 Q482.047 432.323 485.484 428.85 Q488.939 425.361 489.825 424.354 Q491.509 422.462 492.168 421.16 Q492.845 419.84 492.845 418.573 Q492.845 416.507 491.387 415.205 Q489.946 413.903 487.62 413.903 Q485.971 413.903 484.13 414.476 Q482.307 415.048 480.224 416.212 L480.224 412.67 Q482.342 411.819 484.182 411.385 Q486.023 410.951 487.55 410.951 Q491.578 410.951 493.974 412.965 Q496.37 414.979 496.37 418.347 Q496.37 419.944 495.762 421.385 Q495.172 422.809 493.592 424.753 Q493.158 425.257 490.832 427.67 Q488.505 430.066 484.269 434.389 Z" fill="#000000" fill-rule="evenodd" fill-opacity="1" /><path clip-path="url(#clip420)" d="M 0 0 M506.891 434.389 L519.13 434.389 L519.13 437.34 L502.672 437.34 L502.672 434.389 Q504.668 432.323 508.106 428.85 Q511.561 425.361 512.446 424.354 Q514.13 422.462 514.79 421.16 Q515.467 419.84 515.467 418.573 Q515.467 416.507 514.009 415.205 Q512.568 413.903 510.241 413.903 Q508.592 413.903 506.752 414.476 Q504.929 415.048 502.845 416.212 L502.845 412.67 Q504.963 411.819 506.804 411.385 Q508.644 410.951 510.172 410.951 Q514.2 410.951 516.595 412.965 Q518.991 414.979 518.991 418.347 Q518.991 419.944 518.384 421.385 Q517.793 422.809 516.213 424.753 Q515.779 425.257 513.453 427.67 Q511.127 430.066 506.891 434.389 Z" fill="#000000" fill-rule="evenodd" fill-opacity="1" /><path clip-path="url(#clip420)" d="M 0 0 M620.622 534.157 L632.861 534.157 L632.861 537.108 L616.403 537.108 L616.403 534.157 Q618.4 532.091 621.837 528.618 Q625.292 525.129 626.177 524.122 Q627.861 522.23 628.521 520.928 Q629.198 519.608 629.198 518.341 Q629.198 516.275 627.74 514.973 Q626.299 513.671 623.973 513.671 Q622.323 513.671 620.483 514.244 Q618.66 514.816 616.577 515.98 L616.577 512.438 Q618.695 511.587 620.535 511.153 Q622.375 510.719 623.903 510.719 Q627.931 510.719 630.327 512.733 Q632.723 514.747 632.723 518.115 Q632.723 519.712 632.115 521.153 Q631.525 522.577 629.945 524.521 Q629.511 525.025 627.184 527.438 Q624.858 529.834 620.622 534.157 Z" fill="#000000" fill-rule="evenodd" fill-opacity="1" /><path clip-path="url(#clip420)" d="M 0 0 M650.847 523.132 Q653.365 523.671 654.771 525.372 Q656.195 527.073 656.195 529.573 Q656.195 533.41 653.556 535.511 Q650.917 537.611 646.056 537.611 Q644.424 537.611 642.688 537.282 Q640.969 536.969 639.129 536.327 L639.129 532.941 Q640.587 533.792 642.323 534.226 Q644.059 534.66 645.952 534.66 Q649.25 534.66 650.969 533.358 Q652.705 532.056 652.705 529.573 Q652.705 527.282 651.09 525.997 Q649.493 524.695 646.629 524.695 L643.608 524.695 L643.608 521.813 L646.768 521.813 Q649.354 521.813 650.726 520.789 Q652.097 519.747 652.097 517.803 Q652.097 515.806 650.674 514.747 Q649.268 513.671 646.629 513.671 Q645.188 513.671 643.538 513.983 Q641.889 514.296 639.91 514.955 L639.91 511.83 Q641.906 511.275 643.643 510.997 Q645.396 510.719 646.941 510.719 Q650.934 510.719 653.261 512.542 Q655.587 514.348 655.587 517.438 Q655.587 519.591 654.354 521.084 Q653.122 522.559 650.847 523.132 Z" fill="#000000" fill-rule="evenodd" fill-opacity="1" /><circle clip-path="url(#clip422)" cx="684.58" cy="95.9282" r="14" fill="#0000ff" fill-rule="evenodd" fill-opacity="1" stroke="none"/>
<path clip-path="url(#clip420)" d="M 0 0 M685.083 85.2008 L690.812 85.2008 L690.812 65.4266 L684.58 66.6766 L684.58 63.4822 L690.777 62.2322 L694.284 62.2322 L694.284 85.2008 L700.013 85.2008 L700.013 88.1522 L685.083 88.1522 L685.083 85.2008 Z" fill="#000000" fill-rule="evenodd" fill-opacity="1" /><path clip-path="url(#clip420)" d="M 0 0 M717.722 74.1766 Q720.239 74.7148 721.645 76.4162 Q723.069 78.1176 723.069 80.6175 Q723.069 84.4543 720.43 86.555 Q717.791 88.6557 712.93 88.6557 Q711.298 88.6557 709.562 88.3258 Q707.843 88.0133 706.003 87.371 L706.003 83.9856 Q707.461 84.8363 709.197 85.2703 Q710.934 85.7043 712.826 85.7043 Q716.124 85.7043 717.843 84.4022 Q719.579 83.1002 719.579 80.6175 Q719.579 78.3259 717.965 77.0412 Q716.368 75.7391 713.503 75.7391 L710.482 75.7391 L710.482 72.8572 L713.642 72.8572 Q716.229 72.8572 717.6 71.8329 Q718.972 70.7912 718.972 68.8468 Q718.972 66.8503 717.548 65.7912 Q716.142 64.7148 713.503 64.7148 Q712.062 64.7148 710.413 65.0273 Q708.763 65.3398 706.784 65.9996 L706.784 62.8746 Q708.781 62.319 710.517 62.0412 Q712.27 61.7635 713.815 61.7635 Q717.809 61.7635 720.135 63.5864 Q722.461 65.3919 722.461 68.4822 Q722.461 70.635 721.229 72.128 Q719.996 73.6037 717.722 74.1766 Z" fill="#000000" fill-rule="evenodd" fill-opacity="1" /></svg>
