<?xml version="1.0" encoding="utf-8"?>
<svg xmlns="http://www.w3.org/2000/svg" xmlns:xlink="http://www.w3.org/1999/xlink" width="200" height="250" viewBox="0 0 800 1000">
<defs>
  <clipPath id="clip030">
    <rect x="0" y="0" width="800" height="1000"/>
  </clipPath>
</defs>
<path clip-path="url(#clip030)" d="
M0 1000 L800 1000 L800 0 L0 0  Z
  " fill="#ffffff" fill-rule="evenodd" fill-opacity="1"/>
<defs>
  <clipPath id="clip031">
    <rect x="200" y="100" width="701" height="701"/>
  </clipPath>
</defs>
<path clip-path="url(#clip030)" d="
M70.9921 927.008 L752.756 927.008 L752.756 62.9921 L70.9921 62.9921  Z
  " fill="#ffffff" fill-rule="evenodd" fill-opacity="1"/>
<defs>
  <clipPath id="clip032">
    <rect x="70" y="62" width="683" height="865"/>
  </clipPath>
</defs>
<polyline clip-path="url(#clip030)" style="stroke:#000000; stroke-width:4; stroke-opacity:1; fill:none" points="
  70.9921,927.008 752.756,927.008 
  "/>
<polyline clip-path="url(#clip030)" style="stroke:#000000; stroke-width:4; stroke-opacity:1; fill:none" points="
  139.169,927.008 139.169,916.64 
  "/>
<polyline clip-path="url(#clip030)" style="stroke:#000000; stroke-width:4; stroke-opacity:1; fill:none" points="
  275.521,927.008 275.521,916.64 
  "/>
<polyline clip-path="url(#clip030)" style="stroke:#000000; stroke-width:4; stroke-opacity:1; fill:none" points="
  411.874,927.008 411.874,916.64 
  "/>
<polyline clip-path="url(#clip030)" style="stroke:#000000; stroke-width:4; stroke-opacity:1; fill:none" points="
  548.227,927.008 548.227,916.64 
  "/>
<polyline clip-path="url(#clip030)" style="stroke:#000000; stroke-width:4; stroke-opacity:1; fill:none" points="
  684.58,927.008 684.58,916.64 
  "/>
<path clip-path="url(#clip030)" d="M 0 0 M109.111 959.651 L138.787 959.651 L138.787 963.586 L109.111 963.586 L109.111 959.651 Z" fill="#000000" fill-rule="evenodd" fill-opacity="1" /><path clip-path="url(#clip030)" d="M 0 0 M152.907 972.545 L169.226 972.545 L169.226 976.48 L147.282 976.48 L147.282 972.545 Q149.944 969.79 154.527 965.16 Q159.134 960.508 160.314 959.165 Q162.56 956.642 163.439 954.906 Q164.342 953.147 164.342 951.457 Q164.342 948.702 162.398 946.966 Q160.476 945.23 157.374 945.23 Q155.175 945.23 152.722 945.994 Q150.291 946.758 147.513 948.309 L147.513 943.587 Q150.337 942.452 152.791 941.874 Q155.245 941.295 157.282 941.295 Q162.652 941.295 165.847 943.98 Q169.041 946.665 169.041 951.156 Q169.041 953.286 168.231 955.207 Q167.444 957.105 165.337 959.698 Q164.759 960.369 161.657 963.586 Q158.555 966.781 152.907 972.545 Z" fill="#000000" fill-rule="evenodd" fill-opacity="1" /><path clip-path="url(#clip030)" d="M 0 0 M245.278 959.651 L274.954 959.651 L274.954 963.586 L245.278 963.586 L245.278 959.651 Z" fill="#000000" fill-rule="evenodd" fill-opacity="1" /><path clip-path="url(#clip030)" d="M 0 0 M285.857 972.545 L293.496 972.545 L293.496 946.179 L285.186 947.846 L285.186 943.587 L293.449 941.92 L298.125 941.92 L298.125 972.545 L305.764 972.545 L305.764 976.48 L285.857 976.48 L285.857 972.545 Z" fill="#000000" fill-rule="evenodd" fill-opacity="1" /><path clip-path="url(#clip030)" d="M 0 0 M411.874 944.999 Q408.263 944.999 406.434 948.563 Q404.629 952.105 404.629 959.235 Q404.629 966.341 406.434 969.906 Q408.263 973.447 411.874 973.447 Q415.508 973.447 417.314 969.906 Q419.142 966.341 419.142 959.235 Q419.142 952.105 417.314 948.563 Q415.508 944.999 411.874 944.999 M411.874 941.295 Q417.684 941.295 420.74 945.901 Q423.818 950.485 423.818 959.235 Q423.818 967.961 420.74 972.568 Q417.684 977.151 411.874 977.151 Q406.064 977.151 402.985 972.568 Q399.93 967.961 399.93 959.235 Q399.93 950.485 402.985 945.901 Q406.064 941.295 411.874 941.295 Z" fill="#000000" fill-rule="evenodd" fill-opacity="1" /><path clip-path="url(#clip030)" d="M 0 0 M538.609 972.545 L546.248 972.545 L546.248 946.179 L537.937 947.846 L537.937 943.587 L546.201 941.92 L550.877 941.92 L550.877 972.545 L558.516 972.545 L558.516 976.48 L538.609 976.48 L538.609 972.545 Z" fill="#000000" fill-rule="evenodd" fill-opacity="1" /><path clip-path="url(#clip030)" d="M 0 0 M679.232 972.545 L695.552 972.545 L695.552 976.48 L673.607 976.48 L673.607 972.545 Q676.269 969.79 680.853 965.16 Q685.459 960.508 686.64 959.165 Q688.885 956.642 689.765 954.906 Q690.667 953.147 690.667 951.457 Q690.667 948.702 688.723 946.966 Q686.802 945.23 683.7 945.23 Q681.501 945.23 679.047 945.994 Q676.617 946.758 673.839 948.309 L673.839 943.587 Q676.663 942.452 679.117 941.874 Q681.57 941.295 683.607 941.295 Q688.978 941.295 692.172 943.98 Q695.367 946.665 695.367 951.156 Q695.367 953.286 694.556 955.207 Q693.769 957.105 691.663 959.698 Q691.084 960.369 687.982 963.586 Q684.88 966.781 679.232 972.545 Z" fill="#000000" fill-rule="evenodd" fill-opacity="1" /><polyline clip-path="url(#clip030)" style="stroke:#000000; stroke-width:4; stroke-opacity:1; fill:none" points="
  70.9921,927.008 70.9921,62.9921 
  "/>
<polyline clip-path="url(#clip030)" style="stroke:#000000; stroke-width:4; stroke-opacity:1; fill:none" points="
  70.9921,840.606 79.1733,840.606 
  "/>
<polyline clip-path="url(#clip030)" style="stroke:#000000; stroke-width:4; stroke-opacity:1; fill:none" points="
  70.9921,667.803 79.1733,667.803 
  "/>
<polyline clip-path="url(#clip030)" style="stroke:#000000; stroke-width:4; stroke-opacity:1; fill:none" points="
  70.9921,495 79.1733,495 
  "/>
<polyline clip-path="url(#clip030)" style="stroke:#000000; stroke-width:4; stroke-opacity:1; fill:none" points="
  70.9921,322.197 79.1733,322.197 
  "/>
<polyline clip-path="url(#clip030)" style="stroke:#000000; stroke-width:4; stroke-opacity:1; fill:none" points="
  70.9921,149.394 79.1733,149.394 
  "/>
<path clip-path="url(#clip030)" d="M 0 0 M-4.12329 841.058 L25.5525 841.058 L25.5525 844.993 L-4.12329 844.993 L-4.12329 841.058 Z" fill="#000000" fill-rule="evenodd" fill-opacity="1" /><path clip-path="url(#clip030)" d="M 0 0 M39.6728 853.951 L55.9921 853.951 L55.9921 857.886 L34.0478 857.886 L34.0478 853.951 Q36.7098 851.197 41.2931 846.567 Q45.8996 841.914 47.0801 840.572 Q49.3255 838.048 50.2051 836.312 Q51.1079 834.553 51.1079 832.863 Q51.1079 830.109 49.1635 828.373 Q47.2422 826.636 44.1403 826.636 Q41.9413 826.636 39.4876 827.4 Q37.057 828.164 34.2793 829.715 L34.2793 824.993 Q37.1033 823.859 39.557 823.28 Q42.0107 822.701 44.0477 822.701 Q49.4181 822.701 52.6125 825.386 Q55.8069 828.072 55.8069 832.562 Q55.8069 834.692 54.9968 836.613 Q54.2097 838.511 52.1033 841.104 Q51.5246 841.775 48.4227 844.993 Q45.3209 848.187 39.6728 853.951 Z" fill="#000000" fill-rule="evenodd" fill-opacity="1" /><path clip-path="url(#clip030)" d="M 0 0 M-4.49366 668.255 L25.1821 668.255 L25.1821 672.19 L-4.49366 672.19 L-4.49366 668.255 Z" fill="#000000" fill-rule="evenodd" fill-opacity="1" /><path clip-path="url(#clip030)" d="M 0 0 M36.0848 681.148 L43.7237 681.148 L43.7237 654.782 L35.4135 656.449 L35.4135 652.19 L43.6774 650.523 L48.3533 650.523 L48.3533 681.148 L55.9921 681.148 L55.9921 685.083 L36.0848 685.083 L36.0848 681.148 Z" fill="#000000" fill-rule="evenodd" fill-opacity="1" /><path clip-path="url(#clip030)" d="M 0 0 M44.0477 480.799 Q40.4367 480.799 38.608 484.363 Q36.8024 487.905 36.8024 495.035 Q36.8024 502.141 38.608 505.706 Q40.4367 509.248 44.0477 509.248 Q47.682 509.248 49.4875 505.706 Q51.3162 502.141 51.3162 495.035 Q51.3162 487.905 49.4875 484.363 Q47.682 480.799 44.0477 480.799 M44.0477 477.095 Q49.8579 477.095 52.9134 481.701 Q55.9921 486.285 55.9921 495.035 Q55.9921 503.762 52.9134 508.368 Q49.8579 512.951 44.0477 512.951 Q38.2376 512.951 35.1589 508.368 Q32.1034 503.762 32.1034 495.035 Q32.1034 486.285 35.1589 481.701 Q38.2376 477.095 44.0477 477.095 Z" fill="#000000" fill-rule="evenodd" fill-opacity="1" /><path clip-path="url(#clip030)" d="M 0 0 M36.0848 335.542 L43.7237 335.542 L43.7237 309.176 L35.4135 310.843 L35.4135 306.584 L43.6774 304.917 L48.3533 304.917 L48.3533 335.542 L55.9921 335.542 L55.9921 339.477 L36.0848 339.477 L36.0848 335.542 Z" fill="#000000" fill-rule="evenodd" fill-opacity="1" /><path clip-path="url(#clip030)" d="M 0 0 M39.6728 162.739 L55.9921 162.739 L55.9921 166.674 L34.0478 166.674 L34.0478 162.739 Q36.7098 159.984 41.2931 155.354 Q45.8996 150.702 47.0801 149.359 Q49.3255 146.836 50.2051 145.1 Q51.1079 143.34 51.1079 141.651 Q51.1079 138.896 49.1635 137.16 Q47.2422 135.424 44.1403 135.424 Q41.9413 135.424 39.4876 136.188 Q37.057 136.952 34.2793 138.503 L34.2793 133.78 Q37.1033 132.646 39.557 132.067 Q42.0107 131.489 44.0477 131.489 Q49.4181 131.489 52.6125 134.174 Q55.8069 136.859 55.8069 141.35 Q55.8069 143.479 54.9968 145.401 Q54.2097 147.299 52.1033 149.891 Q51.5246 150.563 48.4227 153.78 Q45.3209 156.975 39.6728 162.739 Z" fill="#000000" fill-rule="evenodd" fill-opacity="1" /><path clip-path="url(#clip030)" d="M 0 0 M352.222 5.45367 L362.036 5.45367 L362.036 8.76384 L356.481 8.76384 L356.481 44.4118 L362.036 44.4118 L362.036 47.722 L352.222 47.722 L352.222 5.45367 Z" fill="#000000" fill-rule="evenodd" fill-opacity="1" /><path clip-path="url(#clip030)" d="M 0 0 M372.522 37.5368 L380.161 37.5368 L380.161 11.1712 L371.851 12.8379 L371.851 8.57866 L380.115 6.912 L384.791 6.912 L384.791 37.5368 L392.43 37.5368 L392.43 41.472 L372.522 41.472 L372.522 37.5368 Z" fill="#000000" fill-rule="evenodd" fill-opacity="1" /><path clip-path="url(#clip030)" d="M 0 0 M402.36 35.5924 L407.244 35.5924 L407.244 39.5739 L403.448 46.9812 L400.462 46.9812 L402.36 39.5739 L402.36 35.5924 Z" fill="#000000" fill-rule="evenodd" fill-opacity="1" /><path clip-path="url(#clip030)" d="M 0 0 M436.041 37.5368 L452.36 37.5368 L452.36 41.472 L430.416 41.472 L430.416 37.5368 Q433.078 34.7822 437.661 30.1526 Q442.267 25.4999 443.448 24.1573 Q445.693 21.6341 446.573 19.898 Q447.476 18.1388 447.476 16.449 Q447.476 13.6944 445.531 11.9583 Q443.61 10.2222 440.508 10.2222 Q438.309 10.2222 435.855 10.9861 Q433.425 11.7499 430.647 13.3009 L430.647 8.57866 Q433.471 7.4444 435.925 6.8657 Q438.379 6.287 440.416 6.287 Q445.786 6.287 448.98 8.97217 Q452.175 11.6573 452.175 16.1481 Q452.175 18.2777 451.365 20.199 Q450.578 22.0971 448.471 24.6897 Q447.892 25.361 444.791 28.5786 Q441.689 31.773 436.041 37.5368 Z" fill="#000000" fill-rule="evenodd" fill-opacity="1" /><path clip-path="url(#clip030)" d="M 0 0 M471.526 5.45367 L471.526 47.722 L461.712 47.722 L461.712 44.4118 L467.244 44.4118 L467.244 8.76384 L461.712 8.76384 L461.712 5.45367 L471.526 5.45367 Z" fill="#000000" fill-rule="evenodd" fill-opacity="1" /><circle clip-path="url(#clip032)" cx="139.169" cy="894.072" r="14" fill="#0000ff" fill-rule="evenodd" fill-opacity="1" stroke="none"/>
<path clip-path="url(#clip030)" d="M 0 0 M143.387 883.344 L155.627 883.344 L155.627 886.296 L139.169 886.296 L139.169 883.344 Q141.165 881.278 144.603 877.806 Q148.057 874.317 148.943 873.31 Q150.627 871.417 151.286 870.115 Q151.964 868.796 151.964 867.529 Q151.964 865.463 150.505 864.16 Q149.064 862.858 146.738 862.858 Q145.089 862.858 143.248 863.431 Q141.425 864.004 139.342 865.167 L139.342 861.626 Q141.46 860.775 143.3 860.341 Q145.141 859.907 146.668 859.907 Q150.696 859.907 153.092 861.921 Q155.488 863.935 155.488 867.303 Q155.488 868.9 154.88 870.341 Q154.29 871.765 152.71 873.709 Q152.276 874.213 149.95 876.626 Q147.623 879.022 143.387 883.344 Z" fill="#000000" fill-rule="evenodd" fill-opacity="1" /><path clip-path="url(#clip030)" d="M 0 0 M173.613 872.32 Q176.13 872.858 177.536 874.56 Q178.96 876.261 178.96 878.761 Q178.96 882.598 176.321 884.699 Q173.682 886.799 168.821 886.799 Q167.189 886.799 165.453 886.469 Q163.734 886.157 161.894 885.515 L161.894 882.129 Q163.352 882.98 165.089 883.414 Q166.825 883.848 168.717 883.848 Q172.016 883.848 173.734 882.546 Q175.47 881.244 175.47 878.761 Q175.47 876.469 173.856 875.185 Q172.259 873.883 169.394 873.883 L166.373 873.883 L166.373 871.001 L169.533 871.001 Q172.12 871.001 173.491 869.976 Q174.863 868.935 174.863 866.99 Q174.863 864.994 173.439 863.935 Q172.033 862.858 169.394 862.858 Q167.953 862.858 166.304 863.171 Q164.654 863.483 162.675 864.143 L162.675 861.018 Q164.672 860.463 166.408 860.185 Q168.161 859.907 169.707 859.907 Q173.7 859.907 176.026 861.73 Q178.352 863.535 178.352 866.626 Q178.352 868.779 177.12 870.272 Q175.887 871.747 173.613 872.32 Z" fill="#000000" fill-rule="evenodd" fill-opacity="1" /><circle clip-path="url(#clip032)" cx="70.9921" cy="445.116" r="14" fill="#0000ff" fill-rule="evenodd" fill-opacity="1" stroke="none"/>
<circle clip-path="url(#clip032)" cx="70.9921" cy="544.884" r="14" fill="#0000ff" fill-rule="evenodd" fill-opacity="1" stroke="none"/>
<circle clip-path="url(#clip032)" cx="207.345" cy="445.116" r="14" fill="#0000ff" fill-rule="evenodd" fill-opacity="1" stroke="none"/>
<circle clip-path="url(#clip032)" cx="207.345" cy="544.884" r="14" fill="#0000ff" fill-rule="evenodd" fill-opacity="1" stroke="none"/>
<circle clip-path="url(#clip032)" cx="343.698" cy="445.116" r="14" fill="#0000ff" fill-rule="evenodd" fill-opacity="1" stroke="none"/>
<circle clip-path="url(#clip032)" cx="343.698" cy="544.884" r="14" fill="#0000ff" fill-rule="evenodd" fill-opacity="1" stroke="none"/>
<circle clip-path="url(#clip032)" cx="70.9921" cy="744.42" r="14" fill="#0000ff" fill-rule="evenodd" fill-opacity="1" stroke="none"/>
<circle clip-path="url(#clip032)" cx="70.9921" cy="844.188" r="14" fill="#0000ff" fill-rule="evenodd" fill-opacity="1" stroke="none"/>
<circle clip-path="url(#clip032)" cx="207.345" cy="744.42" r="14" fill="#0000ff" fill-rule="evenodd" fill-opacity="1" stroke="none"/>
<circle clip-path="url(#clip032)" cx="207.345" cy="844.188" r="14" fill="#0000ff" fill-rule="evenodd" fill-opacity="1" stroke="none"/>
<circle clip-path="url(#clip032)" cx="343.698" cy="744.42" r="14" fill="#0000ff" fill-rule="evenodd" fill-opacity="1" stroke="none"/>
<circle clip-path="url(#clip032)" cx="343.698" cy="844.188" r="14" fill="#0000ff" fill-rule="evenodd" fill-opacity="1" stroke="none"/>
<circle clip-path="url(#clip032)" cx="275.521" cy="894.072" r="14" fill="#0000ff" fill-rule="evenodd" fill-opacity="1" stroke="none"/>
<circle clip-path="url(#clip032)" cx="411.874" cy="894.072" r="14" fill="#0000ff" fill-rule="evenodd" fill-opacity="1" stroke="none"/>
<circle clip-path="url(#clip032)" cx="139.169" cy="594.768" r="14" fill="#0000ff" fill-rule="evenodd" fill-opacity="1" stroke="none"/>
<circle clip-path="url(#clip032)" cx="139.169" cy="694.536" r="14" fill="#0000ff" fill-rule="evenodd" fill-opacity="1" stroke="none"/>
<circle clip-path="url(#clip032)" cx="275.521" cy="594.768" r="14" fill="#0000ff" fill-rule="evenodd" fill-opacity="1" stroke="none"/>
<circle clip-path="url(#clip032)" cx="275.521" cy="694.536" r="14" fill="#0000ff" fill-rule="evenodd" fill-opacity="1" stroke="none"/>
<circle clip-path="url(#clip032)" cx="411.874" cy="594.768" r="14" fill="#0000ff" fill-rule="evenodd" fill-opacity="1" stroke="none"/>
<circle clip-path="url(#clip032)" cx="411.874" cy="694.536" r="14" fill="#0000ff" fill-rule="evenodd" fill-opacity="1" stroke="none"/>
<circle clip-path="url(#clip032)" cx="139.169" cy="295.464" r="14" fill="#0000ff" fill-rule="evenodd" fill-opacity="1" stroke="none"/>
<circle clip-path="url(#clip032)" cx="139.169" cy="395.232" r="14" fill="#0000ff" fill-rule="evenodd" fill-opacity="1" stroke="none"/>
<path clip-path="url(#clip030)" d="M 0 0 M71.4956 434.389 L77.2247 434.389 L77.2247 414.614 L70.9921 415.864 L70.9921 412.67 L77.19 411.42 L80.6969 411.42 L80.6969 434.389 L86.4261 434.389 L86.4261 437.34 L71.4956 437.34 L71.4956 434.389 Z" fill="#000000" fill-rule="evenodd" fill-opacity="1" /><path clip-path="url(#clip030)" d="M 0 0 M75.2109 534.157 L87.4504 534.157 L87.4504 537.108 L70.9921 537.108 L70.9921 534.157 Q72.9886 532.091 76.4261 528.618 Q79.881 525.129 80.7664 524.122 Q82.4504 522.23 83.1101 520.928 Q83.7872 519.608 83.7872 518.341 Q83.7872 516.275 82.3289 514.973 Q80.8879 513.671 78.5615 513.671 Q76.9122 513.671 75.072 514.244 Q73.2491 514.816 71.1657 515.98 L71.1657 512.438 Q73.2838 511.587 75.124 511.153 Q76.9643 510.719 78.4921 510.719 Q82.5198 510.719 84.9157 512.733 Q87.3115 514.747 87.3115 518.115 Q87.3115 519.712 86.7038 521.153 Q86.1136 522.577 84.5337 524.521 Q84.0997 525.025 81.7733 527.438 Q79.4469 529.834 75.2109 534.157 Z" fill="#000000" fill-rule="evenodd" fill-opacity="1" /><path clip-path="url(#clip030)" d="M 0 0 M219.064 423.364 Q221.581 423.903 222.987 425.604 Q224.411 427.305 224.411 429.805 Q224.411 433.642 221.772 435.743 Q219.133 437.843 214.272 437.843 Q212.64 437.843 210.904 437.514 Q209.185 437.201 207.345 436.559 L207.345 433.173 Q208.803 434.024 210.539 434.458 Q212.275 434.892 214.168 434.892 Q217.466 434.892 219.185 433.59 Q220.921 432.288 220.921 429.805 Q220.921 427.514 219.307 426.229 Q217.709 424.927 214.845 424.927 L211.824 424.927 L211.824 422.045 L214.984 422.045 Q217.571 422.045 218.942 421.021 Q220.314 419.979 220.314 418.035 Q220.314 416.038 218.89 414.979 Q217.484 413.903 214.845 413.903 Q213.404 413.903 211.755 414.215 Q210.105 414.528 208.126 415.187 L208.126 412.062 Q210.123 411.507 211.859 411.229 Q213.612 410.951 215.157 410.951 Q219.15 410.951 221.477 412.774 Q223.803 414.58 223.803 417.67 Q223.803 419.823 222.57 421.316 Q221.338 422.791 219.064 423.364 Z" fill="#000000" fill-rule="evenodd" fill-opacity="1" /><path clip-path="url(#clip030)" d="M 0 0 M219.046 514.244 L210.192 528.08 L219.046 528.08 L219.046 514.244 M218.126 511.188 L222.536 511.188 L222.536 528.08 L226.234 528.08 L226.234 530.997 L222.536 530.997 L222.536 537.108 L219.046 537.108 L219.046 530.997 L207.345 530.997 L207.345 527.611 L218.126 511.188 Z" fill="#000000" fill-rule="evenodd" fill-opacity="1" /><path clip-path="url(#clip030)" d="M 0 0 M344.791 411.42 L358.559 411.42 L358.559 414.371 L348.003 414.371 L348.003 420.726 Q348.767 420.465 349.531 420.344 Q350.295 420.205 351.059 420.205 Q355.399 420.205 357.934 422.583 Q360.468 424.962 360.468 429.024 Q360.468 433.208 357.864 435.534 Q355.26 437.843 350.521 437.843 Q348.889 437.843 347.187 437.566 Q345.503 437.288 343.698 436.732 L343.698 433.208 Q345.26 434.059 346.927 434.475 Q348.593 434.892 350.451 434.892 Q353.455 434.892 355.208 433.312 Q356.961 431.732 356.961 429.024 Q356.961 426.316 355.208 424.736 Q353.455 423.156 350.451 423.156 Q349.045 423.156 347.639 423.469 Q346.25 423.781 344.791 424.441 L344.791 411.42 Z" fill="#000000" fill-rule="evenodd" fill-opacity="1" /><path clip-path="url(#clip030)" d="M 0 0 M352.951 522.75 Q350.59 522.75 349.201 524.365 Q347.83 525.98 347.83 528.792 Q347.83 531.587 349.201 533.219 Q350.59 534.834 352.951 534.834 Q355.312 534.834 356.684 533.219 Q358.073 531.587 358.073 528.792 Q358.073 525.98 356.684 524.365 Q355.312 522.75 352.951 522.75 M359.913 511.761 L359.913 514.955 Q358.593 514.33 357.239 514 Q355.902 513.671 354.583 513.671 Q351.111 513.671 349.271 516.014 Q347.448 518.358 347.187 523.098 Q348.212 521.587 349.757 520.789 Q351.302 519.973 353.159 519.973 Q357.066 519.973 359.323 522.351 Q361.597 524.712 361.597 528.792 Q361.597 532.785 359.236 535.198 Q356.875 537.611 352.951 537.611 Q348.455 537.611 346.076 534.174 Q343.698 530.719 343.698 524.174 Q343.698 518.028 346.614 514.382 Q349.531 510.719 354.444 510.719 Q355.764 510.719 357.1 510.98 Q358.455 511.24 359.913 511.761 Z" fill="#000000" fill-rule="evenodd" fill-opacity="1" /><path clip-path="url(#clip030)" d="M 0 0 M70.9921 710.724 L87.6587 710.724 L87.6587 712.217 L78.249 736.644 L74.5859 736.644 L83.44 713.675 L70.9921 713.675 L70.9921 710.724 Z" fill="#000000" fill-rule="evenodd" fill-opacity="1" /><path clip-path="url(#clip030)" d="M 0 0 M79.881 824.103 Q77.381 824.103 75.94 825.44 Q74.5164 826.776 74.5164 829.12 Q74.5164 831.464 75.94 832.801 Q77.381 834.138 79.881 834.138 Q82.381 834.138 83.8219 832.801 Q85.2629 831.447 85.2629 829.12 Q85.2629 826.776 83.8219 825.44 Q82.3983 824.103 79.881 824.103 M76.374 822.61 Q74.1171 822.054 72.8498 820.509 Q71.5998 818.964 71.5998 816.742 Q71.5998 813.634 73.8046 811.829 Q76.0268 810.023 79.881 810.023 Q83.7525 810.023 85.9573 811.829 Q88.1622 813.634 88.1622 816.742 Q88.1622 818.964 86.8948 820.509 Q85.6448 822.054 83.4053 822.61 Q85.94 823.2 87.3462 824.919 Q88.7698 826.638 88.7698 829.12 Q88.7698 832.888 86.4608 834.901 Q84.1691 836.915 79.881 836.915 Q75.5928 836.915 73.2838 834.901 Q70.9921 832.888 70.9921 829.12 Q70.9921 826.638 72.4157 824.919 Q73.8393 823.2 76.374 822.61 M75.0893 817.072 Q75.0893 819.086 76.3393 820.214 Q77.6067 821.342 79.881 821.342 Q82.1379 821.342 83.4053 820.214 Q84.69 819.086 84.69 817.072 Q84.69 815.058 83.4053 813.929 Q82.1379 812.801 79.881 812.801 Q77.6067 812.801 76.3393 813.929 Q75.0893 815.058 75.0893 817.072 Z" fill="#000000" fill-rule="evenodd" fill-opacity="1" /><path clip-path="url(#clip030)" d="M 0 0 M209.012 736.106 L209.012 732.911 Q210.331 733.536 211.685 733.866 Q213.039 734.196 214.341 734.196 Q217.814 734.196 219.636 731.87 Q221.477 729.526 221.737 724.769 Q220.73 726.262 219.185 727.061 Q217.64 727.859 215.765 727.859 Q211.876 727.859 209.602 725.515 Q207.345 723.154 207.345 719.075 Q207.345 715.081 209.706 712.668 Q212.067 710.255 215.991 710.255 Q220.487 710.255 222.848 713.71 Q225.227 717.147 225.227 723.71 Q225.227 729.838 222.31 733.502 Q219.411 737.147 214.498 737.147 Q213.178 737.147 211.824 736.887 Q210.47 736.627 209.012 736.106 M215.991 725.116 Q218.352 725.116 219.723 723.502 Q221.112 721.887 221.112 719.075 Q221.112 716.279 219.723 714.665 Q218.352 713.033 215.991 713.033 Q213.63 713.033 212.241 714.665 Q210.869 716.279 210.869 719.075 Q210.869 721.887 212.241 723.502 Q213.63 725.116 215.991 725.116 Z" fill="#000000" fill-rule="evenodd" fill-opacity="1" /><path clip-path="url(#clip030)" d="M 0 0 M207.848 833.46 L213.577 833.46 L213.577 813.686 L207.345 814.936 L207.345 811.742 L213.543 810.492 L217.05 810.492 L217.05 833.46 L222.779 833.46 L222.779 836.412 L207.848 836.412 L207.848 833.46 Z" fill="#000000" fill-rule="evenodd" fill-opacity="1" /><path clip-path="url(#clip030)" d="M 0 0 M237.362 812.801 Q234.654 812.801 233.282 815.474 Q231.928 818.131 231.928 823.478 Q231.928 828.808 233.282 831.481 Q234.654 834.138 237.362 834.138 Q240.088 834.138 241.442 831.481 Q242.813 828.808 242.813 823.478 Q242.813 818.131 241.442 815.474 Q240.088 812.801 237.362 812.801 M237.362 810.023 Q241.72 810.023 244.011 813.478 Q246.32 816.915 246.32 823.478 Q246.32 830.023 244.011 833.478 Q241.72 836.915 237.362 836.915 Q233.004 836.915 230.695 833.478 Q228.404 830.023 228.404 823.478 Q228.404 816.915 230.695 813.478 Q233.004 810.023 237.362 810.023 Z" fill="#000000" fill-rule="evenodd" fill-opacity="1" /><path clip-path="url(#clip030)" d="M 0 0 M344.201 733.692 L349.93 733.692 L349.93 713.918 L343.698 715.168 L343.698 711.974 L349.896 710.724 L353.402 710.724 L353.402 733.692 L359.132 733.692 L359.132 736.644 L344.201 736.644 L344.201 733.692 Z" fill="#000000" fill-rule="evenodd" fill-opacity="1" /><path clip-path="url(#clip030)" d="M 0 0 M366.823 733.692 L372.552 733.692 L372.552 713.918 L366.319 715.168 L366.319 711.974 L372.517 710.724 L376.024 710.724 L376.024 733.692 L381.753 733.692 L381.753 736.644 L366.823 736.644 L366.823 733.692 Z" fill="#000000" fill-rule="evenodd" fill-opacity="1" /><path clip-path="url(#clip030)" d="M 0 0 M344.201 833.46 L349.93 833.46 L349.93 813.686 L343.698 814.936 L343.698 811.742 L349.896 810.492 L353.402 810.492 L353.402 833.46 L359.132 833.46 L359.132 836.412 L344.201 836.412 L344.201 833.46 Z" fill="#000000" fill-rule="evenodd" fill-opacity="1" /><path clip-path="url(#clip030)" d="M 0 0 M369.236 833.46 L381.475 833.46 L381.475 836.412 L365.017 836.412 L365.017 833.46 Q367.013 831.394 370.451 827.922 Q373.906 824.433 374.791 823.426 Q376.475 821.533 377.135 820.231 Q377.812 818.912 377.812 817.645 Q377.812 815.579 376.354 814.277 Q374.913 812.974 372.586 812.974 Q370.937 812.974 369.097 813.547 Q367.274 814.12 365.191 815.283 L365.191 811.742 Q367.309 810.891 369.149 810.457 Q370.989 810.023 372.517 810.023 Q376.545 810.023 378.941 812.037 Q381.336 814.051 381.336 817.419 Q381.336 819.016 380.729 820.457 Q380.138 821.881 378.559 823.825 Q378.125 824.329 375.798 826.742 Q373.472 829.138 369.236 833.46 Z" fill="#000000" fill-rule="evenodd" fill-opacity="1" /><path clip-path="url(#clip030)" d="M 0 0 M276.025 883.344 L281.754 883.344 L281.754 863.57 L275.521 864.82 L275.521 861.626 L281.719 860.376 L285.226 860.376 L285.226 883.344 L290.955 883.344 L290.955 886.296 L276.025 886.296 L276.025 883.344 Z" fill="#000000" fill-rule="evenodd" fill-opacity="1" /><path clip-path="url(#clip030)" d="M 0 0 M308.663 872.32 Q311.181 872.858 312.587 874.56 Q314.011 876.261 314.011 878.761 Q314.011 882.598 311.372 884.699 Q308.733 886.799 303.872 886.799 Q302.24 886.799 300.504 886.469 Q298.785 886.157 296.945 885.515 L296.945 882.129 Q298.403 882.98 300.139 883.414 Q301.875 883.848 303.768 883.848 Q307.066 883.848 308.785 882.546 Q310.521 881.244 310.521 878.761 Q310.521 876.469 308.906 875.185 Q307.309 873.883 304.445 873.883 L301.424 873.883 L301.424 871.001 L304.584 871.001 Q307.17 871.001 308.542 869.976 Q309.913 868.935 309.913 866.99 Q309.913 864.994 308.49 863.935 Q307.084 862.858 304.445 862.858 Q303.004 862.858 301.354 863.171 Q299.705 863.483 297.726 864.143 L297.726 861.018 Q299.723 860.463 301.459 860.185 Q303.212 859.907 304.757 859.907 Q308.75 859.907 311.077 861.73 Q313.403 863.535 313.403 866.626 Q313.403 868.779 312.17 870.272 Q310.938 871.747 308.663 872.32 Z" fill="#000000" fill-rule="evenodd" fill-opacity="1" /><path clip-path="url(#clip030)" d="M 0 0 M412.377 883.344 L418.107 883.344 L418.107 863.57 L411.874 864.82 L411.874 861.626 L418.072 860.376 L421.579 860.376 L421.579 883.344 L427.308 883.344 L427.308 886.296 L412.377 886.296 L412.377 883.344 Z" fill="#000000" fill-rule="evenodd" fill-opacity="1" /><path clip-path="url(#clip030)" d="M 0 0 M434.426 860.376 L448.193 860.376 L448.193 863.327 L437.638 863.327 L437.638 869.681 Q438.402 869.421 439.166 869.299 Q439.929 869.16 440.693 869.16 Q445.034 869.16 447.568 871.539 Q450.103 873.917 450.103 877.98 Q450.103 882.164 447.499 884.49 Q444.895 886.799 440.155 886.799 Q438.523 886.799 436.822 886.521 Q435.138 886.244 433.332 885.688 L433.332 882.164 Q434.895 883.015 436.561 883.431 Q438.228 883.848 440.086 883.848 Q443.089 883.848 444.843 882.268 Q446.596 880.688 446.596 877.98 Q446.596 875.272 444.843 873.692 Q443.089 872.112 440.086 872.112 Q438.679 872.112 437.273 872.424 Q435.884 872.737 434.426 873.397 L434.426 860.376 Z" fill="#000000" fill-rule="evenodd" fill-opacity="1" /><path clip-path="url(#clip030)" d="M 0 0 M139.672 584.041 L145.401 584.041 L145.401 564.266 L139.169 565.516 L139.169 562.322 L145.366 561.072 L148.873 561.072 L148.873 584.041 L154.602 584.041 L154.602 586.992 L139.672 586.992 L139.672 584.041 Z" fill="#000000" fill-rule="evenodd" fill-opacity="1" /><path clip-path="url(#clip030)" d="M 0 0 M160.8 561.072 L177.467 561.072 L177.467 562.565 L168.057 586.992 L164.394 586.992 L173.248 564.023 L160.8 564.023 L160.8 561.072 Z" fill="#000000" fill-rule="evenodd" fill-opacity="1" /><path clip-path="url(#clip030)" d="M 0 0 M139.672 683.809 L145.401 683.809 L145.401 664.034 L139.169 665.284 L139.169 662.09 L145.366 660.84 L148.873 660.84 L148.873 683.809 L154.602 683.809 L154.602 686.76 L139.672 686.76 L139.672 683.809 Z" fill="#000000" fill-rule="evenodd" fill-opacity="1" /><path clip-path="url(#clip030)" d="M 0 0 M169.186 674.451 Q166.686 674.451 165.245 675.788 Q163.821 677.125 163.821 679.468 Q163.821 681.812 165.245 683.149 Q166.686 684.486 169.186 684.486 Q171.686 684.486 173.127 683.149 Q174.568 681.795 174.568 679.468 Q174.568 677.125 173.127 675.788 Q171.703 674.451 169.186 674.451 M165.679 672.958 Q163.422 672.402 162.154 670.857 Q160.904 669.312 160.904 667.09 Q160.904 663.982 163.109 662.177 Q165.332 660.371 169.186 660.371 Q173.057 660.371 175.262 662.177 Q177.467 663.982 177.467 667.09 Q177.467 669.312 176.2 670.857 Q174.95 672.402 172.71 672.958 Q175.245 673.548 176.651 675.267 Q178.075 676.986 178.075 679.468 Q178.075 683.236 175.766 685.249 Q173.474 687.263 169.186 687.263 Q164.898 687.263 162.589 685.249 Q160.297 683.236 160.297 679.468 Q160.297 676.986 161.72 675.267 Q163.144 673.548 165.679 672.958 M164.394 667.42 Q164.394 669.434 165.644 670.562 Q166.911 671.691 169.186 671.691 Q171.443 671.691 172.71 670.562 Q173.995 669.434 173.995 667.42 Q173.995 665.406 172.71 664.277 Q171.443 663.149 169.186 663.149 Q166.911 663.149 165.644 664.277 Q164.394 665.406 164.394 667.42 Z" fill="#000000" fill-rule="evenodd" fill-opacity="1" /><path clip-path="url(#clip030)" d="M 0 0 M276.025 584.041 L281.754 584.041 L281.754 564.266 L275.521 565.516 L275.521 562.322 L281.719 561.072 L285.226 561.072 L285.226 584.041 L290.955 584.041 L290.955 586.992 L276.025 586.992 L276.025 584.041 Z" fill="#000000" fill-rule="evenodd" fill-opacity="1" /><path clip-path="url(#clip030)" d="M 0 0 M298.143 586.454 L298.143 583.259 Q299.462 583.884 300.816 584.214 Q302.17 584.544 303.472 584.544 Q306.945 584.544 308.768 582.218 Q310.608 579.874 310.868 575.117 Q309.861 576.61 308.316 577.409 Q306.771 578.207 304.896 578.207 Q301.007 578.207 298.733 575.864 Q296.476 573.502 296.476 569.423 Q296.476 565.43 298.837 563.016 Q301.198 560.603 305.122 560.603 Q309.618 560.603 311.979 564.058 Q314.358 567.496 314.358 574.058 Q314.358 580.186 311.441 583.85 Q308.542 587.495 303.629 587.495 Q302.309 587.495 300.955 587.235 Q299.601 586.975 298.143 586.454 M305.122 575.464 Q307.483 575.464 308.854 573.85 Q310.243 572.235 310.243 569.423 Q310.243 566.627 308.854 565.013 Q307.483 563.381 305.122 563.381 Q302.761 563.381 301.372 565.013 Q300 566.627 300 569.423 Q300 572.235 301.372 573.85 Q302.761 575.464 305.122 575.464 Z" fill="#000000" fill-rule="evenodd" fill-opacity="1" /><path clip-path="url(#clip030)" d="M 0 0 M279.74 683.809 L291.98 683.809 L291.98 686.76 L275.521 686.76 L275.521 683.809 Q277.518 681.743 280.955 678.27 Q284.41 674.781 285.296 673.774 Q286.98 671.881 287.639 670.579 Q288.316 669.26 288.316 667.993 Q288.316 665.927 286.858 664.625 Q285.417 663.323 283.091 663.323 Q281.441 663.323 279.601 663.895 Q277.778 664.468 275.695 665.632 L275.695 662.09 Q277.813 661.239 279.653 660.805 Q281.493 660.371 283.021 660.371 Q287.049 660.371 289.445 662.385 Q291.841 664.399 291.841 667.767 Q291.841 669.364 291.233 670.805 Q290.643 672.229 289.063 674.173 Q288.629 674.677 286.302 677.09 Q283.976 679.486 279.74 683.809 Z" fill="#000000" fill-rule="evenodd" fill-opacity="1" /><path clip-path="url(#clip030)" d="M 0 0 M306.841 663.149 Q304.132 663.149 302.761 665.823 Q301.407 668.479 301.407 673.826 Q301.407 679.156 302.761 681.829 Q304.132 684.486 306.841 684.486 Q309.566 684.486 310.92 681.829 Q312.292 679.156 312.292 673.826 Q312.292 668.479 310.92 665.823 Q309.566 663.149 306.841 663.149 M306.841 660.371 Q311.198 660.371 313.49 663.826 Q315.799 667.263 315.799 673.826 Q315.799 680.371 313.49 683.826 Q311.198 687.263 306.841 687.263 Q302.483 687.263 300.174 683.826 Q297.882 680.371 297.882 673.826 Q297.882 667.263 300.174 663.826 Q302.483 660.371 306.841 660.371 Z" fill="#000000" fill-rule="evenodd" fill-opacity="1" /><path clip-path="url(#clip030)" d="M 0 0 M416.093 584.041 L428.332 584.041 L428.332 586.992 L411.874 586.992 L411.874 584.041 Q413.871 581.975 417.308 578.502 Q420.763 575.013 421.648 574.006 Q423.332 572.114 423.992 570.811 Q424.669 569.492 424.669 568.225 Q424.669 566.159 423.211 564.857 Q421.77 563.555 419.443 563.555 Q417.794 563.555 415.954 564.127 Q414.131 564.7 412.048 565.864 L412.048 562.322 Q414.166 561.471 416.006 561.037 Q417.846 560.603 419.374 560.603 Q423.402 560.603 425.798 562.617 Q428.193 564.631 428.193 567.999 Q428.193 569.596 427.586 571.037 Q426.995 572.461 425.416 574.405 Q424.982 574.909 422.655 577.322 Q420.329 579.718 416.093 584.041 Z" fill="#000000" fill-rule="evenodd" fill-opacity="1" /><path clip-path="url(#clip030)" d="M 0 0 M436.301 584.041 L442.03 584.041 L442.03 564.266 L435.797 565.516 L435.797 562.322 L441.995 561.072 L445.502 561.072 L445.502 584.041 L451.231 584.041 L451.231 586.992 L436.301 586.992 L436.301 584.041 Z" fill="#000000" fill-rule="evenodd" fill-opacity="1" /><path clip-path="url(#clip030)" d="M 0 0 M416.093 683.809 L428.332 683.809 L428.332 686.76 L411.874 686.76 L411.874 683.809 Q413.871 681.743 417.308 678.27 Q420.763 674.781 421.648 673.774 Q423.332 671.881 423.992 670.579 Q424.669 669.26 424.669 667.993 Q424.669 665.927 423.211 664.625 Q421.77 663.323 419.443 663.323 Q417.794 663.323 415.954 663.895 Q414.131 664.468 412.048 665.632 L412.048 662.09 Q414.166 661.239 416.006 660.805 Q417.846 660.371 419.374 660.371 Q423.402 660.371 425.798 662.385 Q428.193 664.399 428.193 667.767 Q428.193 669.364 427.586 670.805 Q426.995 672.229 425.416 674.173 Q424.982 674.677 422.655 677.09 Q420.329 679.486 416.093 683.809 Z" fill="#000000" fill-rule="evenodd" fill-opacity="1" /><path clip-path="url(#clip030)" d="M 0 0 M438.714 683.809 L450.954 683.809 L450.954 686.76 L434.495 686.76 L434.495 683.809 Q436.492 681.743 439.929 678.27 Q443.384 674.781 444.27 673.774 Q445.954 671.881 446.613 670.579 Q447.29 669.26 447.29 667.993 Q447.29 665.927 445.832 664.625 Q444.391 663.323 442.065 663.323 Q440.416 663.323 438.575 663.895 Q436.752 664.468 434.669 665.632 L434.669 662.09 Q436.787 661.239 438.627 660.805 Q440.468 660.371 441.995 660.371 Q446.023 660.371 448.419 662.385 Q450.815 664.399 450.815 667.767 Q450.815 669.364 450.207 670.805 Q449.617 672.229 448.037 674.173 Q447.603 674.677 445.277 677.09 Q442.95 679.486 438.714 683.809 Z" fill="#000000" fill-rule="evenodd" fill-opacity="1" /><path clip-path="url(#clip030)" d="M 0 0 M143.387 284.737 L155.627 284.737 L155.627 287.688 L139.169 287.688 L139.169 284.737 Q141.165 282.671 144.603 279.199 Q148.057 275.709 148.943 274.702 Q150.627 272.81 151.286 271.508 Q151.964 270.188 151.964 268.921 Q151.964 266.855 150.505 265.553 Q149.064 264.251 146.738 264.251 Q145.089 264.251 143.248 264.824 Q141.425 265.397 139.342 266.56 L139.342 263.018 Q141.46 262.167 143.3 261.733 Q145.141 261.299 146.668 261.299 Q150.696 261.299 153.092 263.313 Q155.488 265.327 155.488 268.695 Q155.488 270.292 154.88 271.733 Q154.29 273.157 152.71 275.101 Q152.276 275.605 149.95 278.018 Q147.623 280.414 143.387 284.737 Z" fill="#000000" fill-rule="evenodd" fill-opacity="1" /><path clip-path="url(#clip030)" d="M 0 0 M173.613 273.712 Q176.13 274.251 177.536 275.952 Q178.96 277.653 178.96 280.153 Q178.96 283.99 176.321 286.091 Q173.682 288.192 168.821 288.192 Q167.189 288.192 165.453 287.862 Q163.734 287.549 161.894 286.907 L161.894 283.521 Q163.352 284.372 165.089 284.806 Q166.825 285.24 168.717 285.24 Q172.016 285.24 173.734 283.938 Q175.47 282.636 175.47 280.153 Q175.47 277.862 173.856 276.577 Q172.259 275.275 169.394 275.275 L166.373 275.275 L166.373 272.393 L169.533 272.393 Q172.12 272.393 173.491 271.369 Q174.863 270.327 174.863 268.383 Q174.863 266.386 173.439 265.327 Q172.033 264.251 169.394 264.251 Q167.953 264.251 166.304 264.563 Q164.654 264.876 162.675 265.535 L162.675 262.41 Q164.672 261.855 166.408 261.577 Q168.161 261.299 169.707 261.299 Q173.7 261.299 176.026 263.122 Q178.352 264.928 178.352 268.018 Q178.352 270.171 177.12 271.664 Q175.887 273.14 173.613 273.712 Z" fill="#000000" fill-rule="evenodd" fill-opacity="1" /><path clip-path="url(#clip030)" d="M 0 0 M143.387 384.505 L155.627 384.505 L155.627 387.456 L139.169 387.456 L139.169 384.505 Q141.165 382.439 144.603 378.967 Q148.057 375.477 148.943 374.47 Q150.627 372.578 151.286 371.276 Q151.964 369.956 151.964 368.689 Q151.964 366.623 150.505 365.321 Q149.064 364.019 146.738 364.019 Q145.089 364.019 143.248 364.592 Q141.425 365.165 139.342 366.328 L139.342 362.786 Q141.46 361.935 143.3 361.501 Q145.141 361.067 146.668 361.067 Q150.696 361.067 153.092 363.081 Q155.488 365.095 155.488 368.463 Q155.488 370.06 154.88 371.501 Q154.29 372.925 152.71 374.869 Q152.276 375.373 149.95 377.786 Q147.623 380.182 143.387 384.505 Z" fill="#000000" fill-rule="evenodd" fill-opacity="1" /><path clip-path="url(#clip030)" d="M 0 0 M172.623 364.592 L163.769 378.428 L172.623 378.428 L172.623 364.592 M171.703 361.536 L176.113 361.536 L176.113 378.428 L179.811 378.428 L179.811 381.345 L176.113 381.345 L176.113 387.456 L172.623 387.456 L172.623 381.345 L160.922 381.345 L160.922 377.96 L171.703 361.536 Z" fill="#000000" fill-rule="evenodd" fill-opacity="1" /><circle clip-path="url(#clip032)" cx="70.9921" cy="145.812" r="14" fill="#0000ff" fill-rule="evenodd" fill-opacity="1" stroke="none"/>
<circle clip-path="url(#clip032)" cx="70.9921" cy="245.58" r="14" fill="#0000ff" fill-rule="evenodd" fill-opacity="1" stroke="none"/>
<circle clip-path="url(#clip032)" cx="207.345" cy="145.812" r="14" fill="#0000ff" fill-rule="evenodd" fill-opacity="1" stroke="none"/>
<circle clip-path="url(#clip032)" cx="207.345" cy="245.58" r="14" fill="#0000ff" fill-rule="evenodd" fill-opacity="1" stroke="none"/>
<circle clip-path="url(#clip032)" cx="343.698" cy="145.812" r="14" fill="#0000ff" fill-rule="evenodd" fill-opacity="1" stroke="none"/>
<circle clip-path="url(#clip032)" cx="343.698" cy="245.58" r="14" fill="#0000ff" fill-rule="evenodd" fill-opacity="1" stroke="none"/>
<circle clip-path="url(#clip032)" cx="275.521" cy="295.464" r="14" fill="#0000ff" fill-rule="evenodd" fill-opacity="1" stroke="none"/>
<circle clip-path="url(#clip032)" cx="275.521" cy="395.232" r="14" fill="#0000ff" fill-rule="evenodd" fill-opacity="1" stroke="none"/>
<circle clip-path="url(#clip032)" cx="411.874" cy="295.464" r="14" fill="#0000ff" fill-rule="evenodd" fill-opacity="1" stroke="none"/>
<circle clip-path="url(#clip032)" cx="411.874" cy="395.232" r="14" fill="#0000ff" fill-rule="evenodd" fill-opacity="1" stroke="none"/>
<circle clip-path="url(#clip032)" cx="139.169" cy="95.9282" r="14" fill="#0000ff" fill-rule="evenodd" fill-opacity="1" stroke="none"/>
<circle clip-path="url(#clip032)" cx="275.521" cy="95.9282" r="14" fill="#0000ff" fill-rule="evenodd" fill-opacity="1" stroke="none"/>
<circle clip-path="url(#clip032)" cx="411.874" cy="95.9282" r="14" fill="#0000ff" fill-rule="evenodd" fill-opacity="1" stroke="none"/>
<path clip-path="url(#clip030)" d="M 0 0 M70.9921 112.116 L87.6587 112.116 L87.6587 113.609 L78.249 138.036 L74.5859 138.036 L83.44 115.068 L70.9921 115.068 L70.9921 112.116 Z" fill="#000000" fill-rule="evenodd" fill-opacity="1" /><path clip-path="url(#clip030)" d="M 0 0 M79.881 225.495 Q77.381 225.495 75.94 226.832 Q74.5164 228.169 74.5164 230.513 Q74.5164 232.856 75.94 234.193 Q77.381 235.53 79.881 235.53 Q82.381 235.53 83.8219 234.193 Q85.2629 232.839 85.2629 230.513 Q85.2629 228.169 83.8219 226.832 Q82.3983 225.495 79.881 225.495 M76.374 224.002 Q74.1171 223.447 72.8498 221.901 Q71.5998 220.356 71.5998 218.134 Q71.5998 215.026 73.8046 213.221 Q76.0268 211.415 79.881 211.415 Q83.7525 211.415 85.9573 213.221 Q88.1622 215.026 88.1622 218.134 Q88.1622 220.356 86.8948 221.901 Q85.6448 223.447 83.4053 224.002 Q85.94 224.592 87.3462 226.311 Q88.7698 228.03 88.7698 230.513 Q88.7698 234.28 86.4608 236.294 Q84.1691 238.308 79.881 238.308 Q75.5928 238.308 73.2838 236.294 Q70.9921 234.28 70.9921 230.513 Q70.9921 228.03 72.4157 226.311 Q73.8393 224.592 76.374 224.002 M75.0893 218.464 Q75.0893 220.478 76.3393 221.606 Q77.6067 222.735 79.881 222.735 Q82.1379 222.735 83.4053 221.606 Q84.69 220.478 84.69 218.464 Q84.69 216.45 83.4053 215.322 Q82.1379 214.193 79.881 214.193 Q77.6067 214.193 76.3393 215.322 Q75.0893 216.45 75.0893 218.464 Z" fill="#000000" fill-rule="evenodd" fill-opacity="1" /><path clip-path="url(#clip030)" d="M 0 0 M209.012 137.498 L209.012 134.304 Q210.331 134.929 211.685 135.258 Q213.039 135.588 214.341 135.588 Q217.814 135.588 219.636 133.262 Q221.477 130.918 221.737 126.161 Q220.73 127.654 219.185 128.453 Q217.64 129.252 215.765 129.252 Q211.876 129.252 209.602 126.908 Q207.345 124.547 207.345 120.467 Q207.345 116.474 209.706 114.061 Q212.067 111.647 215.991 111.647 Q220.487 111.647 222.848 115.102 Q225.227 118.54 225.227 125.102 Q225.227 131.231 222.31 134.894 Q219.411 138.54 214.498 138.54 Q213.178 138.54 211.824 138.279 Q210.47 138.019 209.012 137.498 M215.991 126.508 Q218.352 126.508 219.723 124.894 Q221.112 123.279 221.112 120.467 Q221.112 117.672 219.723 116.057 Q218.352 114.425 215.991 114.425 Q213.63 114.425 212.241 116.057 Q210.869 117.672 210.869 120.467 Q210.869 123.279 212.241 124.894 Q213.63 126.508 215.991 126.508 Z" fill="#000000" fill-rule="evenodd" fill-opacity="1" /><path clip-path="url(#clip030)" d="M 0 0 M207.848 234.853 L213.577 234.853 L213.577 215.079 L207.345 216.329 L207.345 213.134 L213.543 211.884 L217.05 211.884 L217.05 234.853 L222.779 234.853 L222.779 237.804 L207.848 237.804 L207.848 234.853 Z" fill="#000000" fill-rule="evenodd" fill-opacity="1" /><path clip-path="url(#clip030)" d="M 0 0 M237.362 214.193 Q234.654 214.193 233.282 216.867 Q231.928 219.523 231.928 224.87 Q231.928 230.2 233.282 232.874 Q234.654 235.53 237.362 235.53 Q240.088 235.53 241.442 232.874 Q242.813 230.2 242.813 224.87 Q242.813 219.523 241.442 216.867 Q240.088 214.193 237.362 214.193 M237.362 211.415 Q241.72 211.415 244.011 214.87 Q246.32 218.308 246.32 224.87 Q246.32 231.415 244.011 234.87 Q241.72 238.308 237.362 238.308 Q233.004 238.308 230.695 234.87 Q228.404 231.415 228.404 224.87 Q228.404 218.308 230.695 214.87 Q233.004 211.415 237.362 211.415 Z" fill="#000000" fill-rule="evenodd" fill-opacity="1" /><path clip-path="url(#clip030)" d="M 0 0 M344.201 135.085 L349.93 135.085 L349.93 115.311 L343.698 116.561 L343.698 113.366 L349.896 112.116 L353.402 112.116 L353.402 135.085 L359.132 135.085 L359.132 138.036 L344.201 138.036 L344.201 135.085 Z" fill="#000000" fill-rule="evenodd" fill-opacity="1" /><path clip-path="url(#clip030)" d="M 0 0 M366.823 135.085 L372.552 135.085 L372.552 115.311 L366.319 116.561 L366.319 113.366 L372.517 112.116 L376.024 112.116 L376.024 135.085 L381.753 135.085 L381.753 138.036 L366.823 138.036 L366.823 135.085 Z" fill="#000000" fill-rule="evenodd" fill-opacity="1" /><path clip-path="url(#clip030)" d="M 0 0 M344.201 234.853 L349.93 234.853 L349.93 215.079 L343.698 216.329 L343.698 213.134 L349.896 211.884 L353.402 211.884 L353.402 234.853 L359.132 234.853 L359.132 237.804 L344.201 237.804 L344.201 234.853 Z" fill="#000000" fill-rule="evenodd" fill-opacity="1" /><path clip-path="url(#clip030)" d="M 0 0 M369.236 234.853 L381.475 234.853 L381.475 237.804 L365.017 237.804 L365.017 234.853 Q367.013 232.787 370.451 229.315 Q373.906 225.825 374.791 224.818 Q376.475 222.926 377.135 221.624 Q377.812 220.304 377.812 219.037 Q377.812 216.971 376.354 215.669 Q374.913 214.367 372.586 214.367 Q370.937 214.367 369.097 214.94 Q367.274 215.513 365.191 216.676 L365.191 213.134 Q367.309 212.283 369.149 211.849 Q370.989 211.415 372.517 211.415 Q376.545 211.415 378.941 213.429 Q381.336 215.443 381.336 218.811 Q381.336 220.408 380.729 221.849 Q380.138 223.273 378.559 225.217 Q378.125 225.721 375.798 228.134 Q373.472 230.53 369.236 234.853 Z" fill="#000000" fill-rule="evenodd" fill-opacity="1" /><path clip-path="url(#clip030)" d="M 0 0 M276.025 284.737 L281.754 284.737 L281.754 264.963 L275.521 266.213 L275.521 263.018 L281.719 261.768 L285.226 261.768 L285.226 284.737 L290.955 284.737 L290.955 287.688 L276.025 287.688 L276.025 284.737 Z" fill="#000000" fill-rule="evenodd" fill-opacity="1" /><path clip-path="url(#clip030)" d="M 0 0 M308.663 273.712 Q311.181 274.251 312.587 275.952 Q314.011 277.653 314.011 280.153 Q314.011 283.99 311.372 286.091 Q308.733 288.192 303.872 288.192 Q302.24 288.192 300.504 287.862 Q298.785 287.549 296.945 286.907 L296.945 283.521 Q298.403 284.372 300.139 284.806 Q301.875 285.24 303.768 285.24 Q307.066 285.24 308.785 283.938 Q310.521 282.636 310.521 280.153 Q310.521 277.862 308.906 276.577 Q307.309 275.275 304.445 275.275 L301.424 275.275 L301.424 272.393 L304.584 272.393 Q307.17 272.393 308.542 271.369 Q309.913 270.327 309.913 268.383 Q309.913 266.386 308.49 265.327 Q307.084 264.251 304.445 264.251 Q303.004 264.251 301.354 264.563 Q299.705 264.876 297.726 265.535 L297.726 262.41 Q299.723 261.855 301.459 261.577 Q303.212 261.299 304.757 261.299 Q308.75 261.299 311.077 263.122 Q313.403 264.928 313.403 268.018 Q313.403 270.171 312.17 271.664 Q310.938 273.14 308.663 273.712 Z" fill="#000000" fill-rule="evenodd" fill-opacity="1" /><path clip-path="url(#clip030)" d="M 0 0 M276.025 384.505 L281.754 384.505 L281.754 364.73 L275.521 365.98 L275.521 362.786 L281.719 361.536 L285.226 361.536 L285.226 384.505 L290.955 384.505 L290.955 387.456 L276.025 387.456 L276.025 384.505 Z" fill="#000000" fill-rule="evenodd" fill-opacity="1" /><path clip-path="url(#clip030)" d="M 0 0 M307.674 364.592 L298.82 378.428 L307.674 378.428 L307.674 364.592 M306.754 361.536 L311.163 361.536 L311.163 378.428 L314.861 378.428 L314.861 381.345 L311.163 381.345 L311.163 387.456 L307.674 387.456 L307.674 381.345 L295.973 381.345 L295.973 377.96 L306.754 361.536 Z" fill="#000000" fill-rule="evenodd" fill-opacity="1" /><path clip-path="url(#clip030)" d="M 0 0 M412.377 284.737 L418.107 284.737 L418.107 264.963 L411.874 266.213 L411.874 263.018 L418.072 261.768 L421.579 261.768 L421.579 284.737 L427.308 284.737 L427.308 287.688 L412.377 287.688 L412.377 284.737 Z" fill="#000000" fill-rule="evenodd" fill-opacity="1" /><path clip-path="url(#clip030)" d="M 0 0 M434.426 261.768 L448.193 261.768 L448.193 264.719 L437.638 264.719 L437.638 271.074 Q438.402 270.813 439.166 270.692 Q439.929 270.553 440.693 270.553 Q445.034 270.553 447.568 272.931 Q450.103 275.31 450.103 279.372 Q450.103 283.556 447.499 285.883 Q444.895 288.192 440.155 288.192 Q438.523 288.192 436.822 287.914 Q435.138 287.636 433.332 287.08 L433.332 283.556 Q434.895 284.407 436.561 284.824 Q438.228 285.24 440.086 285.24 Q443.089 285.24 444.843 283.66 Q446.596 282.081 446.596 279.372 Q446.596 276.664 444.843 275.084 Q443.089 273.504 440.086 273.504 Q438.679 273.504 437.273 273.817 Q435.884 274.129 434.426 274.789 L434.426 261.768 Z" fill="#000000" fill-rule="evenodd" fill-opacity="1" /><path clip-path="url(#clip030)" d="M 0 0 M412.377 384.505 L418.107 384.505 L418.107 364.73 L411.874 365.98 L411.874 362.786 L418.072 361.536 L421.579 361.536 L421.579 384.505 L427.308 384.505 L427.308 387.456 L412.377 387.456 L412.377 384.505 Z" fill="#000000" fill-rule="evenodd" fill-opacity="1" /><path clip-path="url(#clip030)" d="M 0 0 M442.325 373.098 Q439.964 373.098 438.575 374.713 Q437.204 376.328 437.204 379.14 Q437.204 381.935 438.575 383.567 Q439.964 385.182 442.325 385.182 Q444.686 385.182 446.058 383.567 Q447.447 381.935 447.447 379.14 Q447.447 376.328 446.058 374.713 Q444.686 373.098 442.325 373.098 M449.287 362.109 L449.287 365.303 Q447.968 364.678 446.613 364.349 Q445.277 364.019 443.957 364.019 Q440.485 364.019 438.645 366.362 Q436.822 368.706 436.561 373.446 Q437.586 371.935 439.131 371.137 Q440.676 370.321 442.534 370.321 Q446.44 370.321 448.697 372.699 Q450.971 375.06 450.971 379.14 Q450.971 383.133 448.61 385.546 Q446.249 387.96 442.325 387.96 Q437.829 387.96 435.45 384.522 Q433.072 381.067 433.072 374.522 Q433.072 368.376 435.988 364.73 Q438.905 361.067 443.818 361.067 Q445.138 361.067 446.475 361.328 Q447.829 361.588 449.287 362.109 Z" fill="#000000" fill-rule="evenodd" fill-opacity="1" /><path clip-path="url(#clip030)" d="M 0 0 M139.672 85.2008 L145.401 85.2008 L145.401 65.4266 L139.169 66.6766 L139.169 63.4822 L145.366 62.2322 L148.873 62.2322 L148.873 85.2008 L154.602 85.2008 L154.602 88.1522 L139.672 88.1522 L139.672 85.2008 Z" fill="#000000" fill-rule="evenodd" fill-opacity="1" /><path clip-path="url(#clip030)" d="M 0 0 M169.186 75.8433 Q166.686 75.8433 165.245 77.1801 Q163.821 78.5169 163.821 80.8606 Q163.821 83.2043 165.245 84.5411 Q166.686 85.8779 169.186 85.8779 Q171.686 85.8779 173.127 84.5411 Q174.568 83.187 174.568 80.8606 Q174.568 78.5169 173.127 77.1801 Q171.703 75.8433 169.186 75.8433 M165.679 74.3502 Q163.422 73.7947 162.154 72.2495 Q160.904 70.7044 160.904 68.4822 Q160.904 65.3746 163.109 63.569 Q165.332 61.7635 169.186 61.7635 Q173.057 61.7635 175.262 63.569 Q177.467 65.3746 177.467 68.4822 Q177.467 70.7044 176.2 72.2495 Q174.95 73.7947 172.71 74.3502 Q175.245 74.9405 176.651 76.6592 Q178.075 78.378 178.075 80.8606 Q178.075 84.6279 175.766 86.6418 Q173.474 88.6557 169.186 88.6557 Q164.898 88.6557 162.589 86.6418 Q160.297 84.6279 160.297 80.8606 Q160.297 78.378 161.72 76.6592 Q163.144 74.9405 165.679 74.3502 M164.394 68.812 Q164.394 70.8259 165.644 71.9544 Q166.911 73.0829 169.186 73.0829 Q171.443 73.0829 172.71 71.9544 Q173.995 70.8259 173.995 68.812 Q173.995 66.7982 172.71 65.6697 Q171.443 64.5412 169.186 64.5412 Q166.911 64.5412 165.644 65.6697 Q164.394 66.7982 164.394 68.812 Z" fill="#000000" fill-rule="evenodd" fill-opacity="1" /><path clip-path="url(#clip030)" d="M 0 0 M279.74 85.2008 L291.98 85.2008 L291.98 88.1522 L275.521 88.1522 L275.521 85.2008 Q277.518 83.1349 280.955 79.6627 Q284.41 76.1731 285.296 75.1662 Q286.98 73.2738 287.639 71.9718 Q288.316 70.6523 288.316 69.385 Q288.316 67.319 286.858 66.0169 Q285.417 64.7148 283.091 64.7148 Q281.441 64.7148 279.601 65.2878 Q277.778 65.8607 275.695 67.0239 L275.695 63.4822 Q277.813 62.6315 279.653 62.1975 Q281.493 61.7635 283.021 61.7635 Q287.049 61.7635 289.445 63.7774 Q291.841 65.7912 291.841 69.1593 Q291.841 70.7565 291.233 72.1974 Q290.643 73.621 289.063 75.5655 Q288.629 76.069 286.302 78.4821 Q283.976 80.878 279.74 85.2008 Z" fill="#000000" fill-rule="evenodd" fill-opacity="1" /><path clip-path="url(#clip030)" d="M 0 0 M306.841 64.5412 Q304.132 64.5412 302.761 67.2148 Q301.407 69.8711 301.407 75.2183 Q301.407 80.5481 302.761 83.2217 Q304.132 85.8779 306.841 85.8779 Q309.566 85.8779 310.92 83.2217 Q312.292 80.5481 312.292 75.2183 Q312.292 69.8711 310.92 67.2148 Q309.566 64.5412 306.841 64.5412 M306.841 61.7635 Q311.198 61.7635 313.49 65.2183 Q315.799 68.6558 315.799 75.2183 Q315.799 81.7634 313.49 85.2182 Q311.198 88.6557 306.841 88.6557 Q302.483 88.6557 300.174 85.2182 Q297.882 81.7634 297.882 75.2183 Q297.882 68.6558 300.174 65.2183 Q302.483 61.7635 306.841 61.7635 Z" fill="#000000" fill-rule="evenodd" fill-opacity="1" /><path clip-path="url(#clip030)" d="M 0 0 M416.093 85.2008 L428.332 85.2008 L428.332 88.1522 L411.874 88.1522 L411.874 85.2008 Q413.871 83.1349 417.308 79.6627 Q420.763 76.1731 421.648 75.1662 Q423.332 73.2738 423.992 71.9718 Q424.669 70.6523 424.669 69.385 Q424.669 67.319 423.211 66.0169 Q421.77 64.7148 419.443 64.7148 Q417.794 64.7148 415.954 65.2878 Q414.131 65.8607 412.048 67.0239 L412.048 63.4822 Q414.166 62.6315 416.006 62.1975 Q417.846 61.7635 419.374 61.7635 Q423.402 61.7635 425.798 63.7774 Q428.193 65.7912 428.193 69.1593 Q428.193 70.7565 427.586 72.1974 Q426.995 73.621 425.416 75.5655 Q424.982 76.069 422.655 78.4821 Q420.329 80.878 416.093 85.2008 Z" fill="#000000" fill-rule="evenodd" fill-opacity="1" /><path clip-path="url(#clip030)" d="M 0 0 M438.714 85.2008 L450.954 85.2008 L450.954 88.1522 L434.495 88.1522 L434.495 85.2008 Q436.492 83.1349 439.929 79.6627 Q443.384 76.1731 444.27 75.1662 Q445.954 73.2738 446.613 71.9718 Q447.29 70.6523 447.29 69.385 Q447.29 67.319 445.832 66.0169 Q444.391 64.7148 442.065 64.7148 Q440.416 64.7148 438.575 65.2878 Q436.752 65.8607 434.669 67.0239 L434.669 63.4822 Q436.787 62.6315 438.627 62.1975 Q440.468 61.7635 441.995 61.7635 Q446.023 61.7635 448.419 63.7774 Q450.815 65.7912 450.815 69.1593 Q450.815 70.7565 450.207 72.1974 Q449.617 73.621 448.037 75.5655 Q447.603 76.069 445.277 78.4821 Q442.95 80.878 438.714 85.2008 Z" fill="#000000" fill-rule="evenodd" fill-opacity="1" /><circle clip-path="url(#clip032)" cx="480.05" cy="744.42" r="14" fill="#0000ff" fill-rule="evenodd" fill-opacity="1" stroke="none"/>
<circle clip-path="url(#clip032)" cx="480.05" cy="844.188" r="14" fill="#0000ff" fill-rule="evenodd" fill-opacity="1" stroke="none"/>
<circle clip-path="url(#clip032)" cx="616.403" cy="744.42" r="14" fill="#0000ff" fill-rule="evenodd" fill-opacity="1" stroke="none"/>
<circle clip-path="url(#clip032)" cx="616.403" cy="844.188" r="14" fill="#0000ff" fill-rule="evenodd" fill-opacity="1" stroke="none"/>
<circle clip-path="url(#clip032)" cx="752.756" cy="744.42" r="14" fill="#0000ff" fill-rule="evenodd" fill-opacity="1" stroke="none"/>
<circle clip-path="url(#clip032)" cx="752.756" cy="844.188" r="14" fill="#0000ff" fill-rule="evenodd" fill-opacity="1" stroke="none"/>
<circle clip-path="url(#clip032)" cx="548.227" cy="894.072" r="14" fill="#0000ff" fill-rule="evenodd" fill-opacity="1" stroke="none"/>
<circle clip-path="url(#clip032)" cx="684.58" cy="894.072" r="14" fill="#0000ff" fill-rule="evenodd" fill-opacity="1" stroke="none"/>
<circle clip-path="url(#clip032)" cx="548.227" cy="594.768" r="14" fill="#0000ff" fill-rule="evenodd" fill-opacity="1" stroke="none"/>
<circle clip-path="url(#clip032)" cx="548.227" cy="694.536" r="14" fill="#0000ff" fill-rule="evenodd" fill-opacity="1" stroke="none"/>
<path clip-path="url(#clip030)" d="M 0 0 M480.554 733.692 L486.283 733.692 L486.283 713.918 L480.05 715.168 L480.05 711.974 L486.248 710.724 L489.755 710.724 L489.755 733.692 L495.484 733.692 L495.484 736.644 L480.554 736.644 L480.554 733.692 Z" fill="#000000" fill-rule="evenodd" fill-opacity="1" /><path clip-path="url(#clip030)" d="M 0 0 M484.269 833.46 L496.509 833.46 L496.509 836.412 L480.05 836.412 L480.05 833.46 Q482.047 831.394 485.484 827.922 Q488.939 824.433 489.825 823.426 Q491.509 821.533 492.168 820.231 Q492.845 818.912 492.845 817.645 Q492.845 815.579 491.387 814.277 Q489.946 812.974 487.62 812.974 Q485.971 812.974 484.13 813.547 Q482.307 814.12 480.224 815.283 L480.224 811.742 Q482.342 810.891 484.182 810.457 Q486.023 810.023 487.55 810.023 Q491.578 810.023 493.974 812.037 Q496.37 814.051 496.37 817.419 Q496.37 819.016 495.762 820.457 Q495.172 821.881 493.592 823.825 Q493.158 824.329 490.832 826.742 Q488.505 829.138 484.269 833.46 Z" fill="#000000" fill-rule="evenodd" fill-opacity="1" /><path clip-path="url(#clip030)" d="M 0 0 M628.122 722.668 Q630.639 723.206 632.045 724.908 Q633.469 726.609 633.469 729.109 Q633.469 732.946 630.83 735.047 Q628.191 737.147 623.33 737.147 Q621.698 737.147 619.962 736.817 Q618.243 736.505 616.403 735.863 L616.403 732.477 Q617.861 733.328 619.598 733.762 Q621.334 734.196 623.226 734.196 Q626.525 734.196 628.243 732.894 Q629.979 731.592 629.979 729.109 Q629.979 726.818 628.365 725.533 Q626.768 724.231 623.903 724.231 L620.882 724.231 L620.882 721.349 L624.042 721.349 Q626.629 721.349 628 720.325 Q629.372 719.283 629.372 717.338 Q629.372 715.342 627.948 714.283 Q626.542 713.206 623.903 713.206 Q622.462 713.206 620.813 713.519 Q619.164 713.831 617.184 714.491 L617.184 711.366 Q619.181 710.811 620.917 710.533 Q622.67 710.255 624.216 710.255 Q628.209 710.255 630.535 712.078 Q632.861 713.884 632.861 716.974 Q632.861 719.127 631.629 720.62 Q630.396 722.095 628.122 722.668 Z" fill="#000000" fill-rule="evenodd" fill-opacity="1" /><path clip-path="url(#clip030)" d="M 0 0 M628.104 813.547 L619.25 827.384 L628.104 827.384 L628.104 813.547 M627.184 810.492 L631.594 810.492 L631.594 827.384 L635.292 827.384 L635.292 830.301 L631.594 830.301 L631.594 836.412 L628.104 836.412 L628.104 830.301 L616.403 830.301 L616.403 826.915 L627.184 810.492 Z" fill="#000000" fill-rule="evenodd" fill-opacity="1" /><path clip-path="url(#clip030)" d="M 0 0 M753.85 710.724 L767.617 710.724 L767.617 713.675 L757.061 713.675 L757.061 720.029 Q757.825 719.769 758.589 719.647 Q759.353 719.509 760.117 719.509 Q764.457 719.509 766.992 721.887 Q769.527 724.265 769.527 728.328 Q769.527 732.512 766.922 734.838 Q764.318 737.147 759.579 737.147 Q757.947 737.147 756.245 736.87 Q754.561 736.592 752.756 736.036 L752.756 732.512 Q754.318 733.363 755.985 733.779 Q757.652 734.196 759.509 734.196 Q762.513 734.196 764.266 732.616 Q766.02 731.036 766.02 728.328 Q766.02 725.62 764.266 724.04 Q762.513 722.46 759.509 722.46 Q758.103 722.46 756.697 722.772 Q755.308 723.085 753.85 723.745 L753.85 710.724 Z" fill="#000000" fill-rule="evenodd" fill-opacity="1" /><path clip-path="url(#clip030)" d="M 0 0 M762.009 822.054 Q759.648 822.054 758.259 823.669 Q756.888 825.283 756.888 828.096 Q756.888 830.891 758.259 832.523 Q759.648 834.138 762.009 834.138 Q764.37 834.138 765.742 832.523 Q767.131 830.891 767.131 828.096 Q767.131 825.283 765.742 823.669 Q764.37 822.054 762.009 822.054 M768.971 811.065 L768.971 814.259 Q767.652 813.634 766.297 813.304 Q764.961 812.974 763.641 812.974 Q760.169 812.974 758.329 815.318 Q756.506 817.662 756.245 822.401 Q757.27 820.891 758.815 820.092 Q760.36 819.276 762.218 819.276 Q766.124 819.276 768.381 821.655 Q770.655 824.016 770.655 828.096 Q770.655 832.089 768.294 834.502 Q765.933 836.915 762.009 836.915 Q757.513 836.915 755.134 833.478 Q752.756 830.023 752.756 823.478 Q752.756 817.332 755.673 813.686 Q758.589 810.023 763.502 810.023 Q764.822 810.023 766.159 810.283 Q767.513 810.544 768.971 811.065 Z" fill="#000000" fill-rule="evenodd" fill-opacity="1" /><path clip-path="url(#clip030)" d="M 0 0 M548.73 883.344 L554.459 883.344 L554.459 863.57 L548.227 864.82 L548.227 861.626 L554.425 860.376 L557.932 860.376 L557.932 883.344 L563.661 883.344 L563.661 886.296 L548.73 886.296 L548.73 883.344 Z" fill="#000000" fill-rule="evenodd" fill-opacity="1" /><path clip-path="url(#clip030)" d="M 0 0 M569.859 860.376 L586.525 860.376 L586.525 861.869 L577.116 886.296 L573.452 886.296 L582.306 863.327 L569.859 863.327 L569.859 860.376 Z" fill="#000000" fill-rule="evenodd" fill-opacity="1" /><path clip-path="url(#clip030)" d="M 0 0 M685.083 883.344 L690.812 883.344 L690.812 863.57 L684.58 864.82 L684.58 861.626 L690.777 860.376 L694.284 860.376 L694.284 883.344 L700.013 883.344 L700.013 886.296 L685.083 886.296 L685.083 883.344 Z" fill="#000000" fill-rule="evenodd" fill-opacity="1" /><path clip-path="url(#clip030)" d="M 0 0 M707.201 885.758 L707.201 882.563 Q708.52 883.188 709.875 883.518 Q711.229 883.848 712.531 883.848 Q716.003 883.848 717.826 881.521 Q719.666 879.178 719.927 874.421 Q718.92 875.914 717.374 876.712 Q715.829 877.511 713.954 877.511 Q710.066 877.511 707.791 875.167 Q705.534 872.806 705.534 868.726 Q705.534 864.733 707.895 862.32 Q710.256 859.907 714.18 859.907 Q718.677 859.907 721.038 863.362 Q723.416 866.799 723.416 873.362 Q723.416 879.49 720.499 883.153 Q717.6 886.799 712.687 886.799 Q711.368 886.799 710.013 886.539 Q708.659 886.278 707.201 885.758 M714.18 874.768 Q716.541 874.768 717.913 873.153 Q719.302 871.539 719.302 868.726 Q719.302 865.931 717.913 864.317 Q716.541 862.685 714.18 862.685 Q711.819 862.685 710.43 864.317 Q709.059 865.931 709.059 868.726 Q709.059 871.539 710.43 873.153 Q711.819 874.768 714.18 874.768 Z" fill="#000000" fill-rule="evenodd" fill-opacity="1" /><path clip-path="url(#clip030)" d="M 0 0 M552.445 584.041 L564.685 584.041 L564.685 586.992 L548.227 586.992 L548.227 584.041 Q550.223 581.975 553.661 578.502 Q557.116 575.013 558.001 574.006 Q559.685 572.114 560.345 570.811 Q561.022 569.492 561.022 568.225 Q561.022 566.159 559.564 564.857 Q558.123 563.555 555.796 563.555 Q554.147 563.555 552.307 564.127 Q550.484 564.7 548.4 565.864 L548.4 562.322 Q550.518 561.471 552.359 561.037 Q554.199 560.603 555.727 560.603 Q559.754 560.603 562.15 562.617 Q564.546 564.631 564.546 567.999 Q564.546 569.596 563.938 571.037 Q563.348 572.461 561.768 574.405 Q561.334 574.909 559.008 577.322 Q556.682 579.718 552.445 584.041 Z" fill="#000000" fill-rule="evenodd" fill-opacity="1" /><path clip-path="url(#clip030)" d="M 0 0 M582.671 573.016 Q585.188 573.555 586.595 575.256 Q588.018 576.957 588.018 579.457 Q588.018 583.294 585.379 585.395 Q582.74 587.495 577.879 587.495 Q576.247 587.495 574.511 587.166 Q572.793 586.853 570.952 586.211 L570.952 582.825 Q572.411 583.676 574.147 584.11 Q575.883 584.544 577.775 584.544 Q581.074 584.544 582.793 583.242 Q584.529 581.94 584.529 579.457 Q584.529 577.166 582.914 575.881 Q581.317 574.579 578.452 574.579 L575.431 574.579 L575.431 571.697 L578.591 571.697 Q581.178 571.697 582.55 570.673 Q583.921 569.631 583.921 567.686 Q583.921 565.69 582.497 564.631 Q581.091 563.555 578.452 563.555 Q577.011 563.555 575.362 563.867 Q573.713 564.18 571.734 564.839 L571.734 561.714 Q573.73 561.159 575.466 560.881 Q577.22 560.603 578.765 560.603 Q582.758 560.603 585.084 562.426 Q587.411 564.232 587.411 567.322 Q587.411 569.475 586.178 570.968 Q584.945 572.443 582.671 573.016 Z" fill="#000000" fill-rule="evenodd" fill-opacity="1" /><path clip-path="url(#clip030)" d="M 0 0 M552.445 683.809 L564.685 683.809 L564.685 686.76 L548.227 686.76 L548.227 683.809 Q550.223 681.743 553.661 678.27 Q557.116 674.781 558.001 673.774 Q559.685 671.881 560.345 670.579 Q561.022 669.26 561.022 667.993 Q561.022 665.927 559.564 664.625 Q558.123 663.323 555.796 663.323 Q554.147 663.323 552.307 663.895 Q550.484 664.468 548.4 665.632 L548.4 662.09 Q550.518 661.239 552.359 660.805 Q554.199 660.371 555.727 660.371 Q559.754 660.371 562.15 662.385 Q564.546 664.399 564.546 667.767 Q564.546 669.364 563.938 670.805 Q563.348 672.229 561.768 674.173 Q561.334 674.677 559.008 677.09 Q556.682 679.486 552.445 683.809 Z" fill="#000000" fill-rule="evenodd" fill-opacity="1" /><path clip-path="url(#clip030)" d="M 0 0 M581.681 663.895 L572.827 677.732 L581.681 677.732 L581.681 663.895 M580.761 660.84 L585.171 660.84 L585.171 677.732 L588.869 677.732 L588.869 680.649 L585.171 680.649 L585.171 686.76 L581.681 686.76 L581.681 680.649 L569.98 680.649 L569.98 677.263 L580.761 660.84 Z" fill="#000000" fill-rule="evenodd" fill-opacity="1" /><circle clip-path="url(#clip032)" cx="480.05" cy="145.812" r="14" fill="#0000ff" fill-rule="evenodd" fill-opacity="1" stroke="none"/>
<circle clip-path="url(#clip032)" cx="480.05" cy="245.58" r="14" fill="#0000ff" fill-rule="evenodd" fill-opacity="1" stroke="none"/>
<circle clip-path="url(#clip032)" cx="616.403" cy="145.812" r="14" fill="#0000ff" fill-rule="evenodd" fill-opacity="1" stroke="none"/>
<circle clip-path="url(#clip032)" cx="616.403" cy="245.58" r="14" fill="#0000ff" fill-rule="evenodd" fill-opacity="1" stroke="none"/>
<circle clip-path="url(#clip032)" cx="752.756" cy="145.812" r="14" fill="#0000ff" fill-rule="evenodd" fill-opacity="1" stroke="none"/>
<circle clip-path="url(#clip032)" cx="752.756" cy="245.58" r="14" fill="#0000ff" fill-rule="evenodd" fill-opacity="1" stroke="none"/>
<circle clip-path="url(#clip032)" cx="480.05" cy="445.116" r="14" fill="#0000ff" fill-rule="evenodd" fill-opacity="1" stroke="none"/>
<circle clip-path="url(#clip032)" cx="480.05" cy="544.884" r="14" fill="#0000ff" fill-rule="evenodd" fill-opacity="1" stroke="none"/>
<circle clip-path="url(#clip032)" cx="616.403" cy="445.116" r="14" fill="#0000ff" fill-rule="evenodd" fill-opacity="1" stroke="none"/>
<circle clip-path="url(#clip032)" cx="616.403" cy="544.884" r="14" fill="#0000ff" fill-rule="evenodd" fill-opacity="1" stroke="none"/>
<circle clip-path="url(#clip032)" cx="752.756" cy="445.116" r="14" fill="#0000ff" fill-rule="evenodd" fill-opacity="1" stroke="none"/>
<circle clip-path="url(#clip032)" cx="752.756" cy="544.884" r="14" fill="#0000ff" fill-rule="evenodd" fill-opacity="1" stroke="none"/>
<circle clip-path="url(#clip032)" cx="684.58" cy="594.768" r="14" fill="#0000ff" fill-rule="evenodd" fill-opacity="1" stroke="none"/>
<circle clip-path="url(#clip032)" cx="684.58" cy="694.536" r="14" fill="#0000ff" fill-rule="evenodd" fill-opacity="1" stroke="none"/>
<circle clip-path="url(#clip032)" cx="548.227" cy="295.464" r="14" fill="#0000ff" fill-rule="evenodd" fill-opacity="1" stroke="none"/>
<circle clip-path="url(#clip032)" cx="548.227" cy="395.232" r="14" fill="#0000ff" fill-rule="evenodd" fill-opacity="1" stroke="none"/>
<circle clip-path="url(#clip032)" cx="684.58" cy="295.464" r="14" fill="#0000ff" fill-rule="evenodd" fill-opacity="1" stroke="none"/>
<circle clip-path="url(#clip032)" cx="684.58" cy="395.232" r="14" fill="#0000ff" fill-rule="evenodd" fill-opacity="1" stroke="none"/>
<circle clip-path="url(#clip032)" cx="548.227" cy="95.9282" r="14" fill="#0000ff" fill-rule="evenodd" fill-opacity="1" stroke="none"/>
<path clip-path="url(#clip030)" d="M 0 0 M480.554 135.085 L486.283 135.085 L486.283 115.311 L480.05 116.561 L480.05 113.366 L486.248 112.116 L489.755 112.116 L489.755 135.085 L495.484 135.085 L495.484 138.036 L480.554 138.036 L480.554 135.085 Z" fill="#000000" fill-rule="evenodd" fill-opacity="1" /><path clip-path="url(#clip030)" d="M 0 0 M484.269 234.853 L496.509 234.853 L496.509 237.804 L480.05 237.804 L480.05 234.853 Q482.047 232.787 485.484 229.315 Q488.939 225.825 489.825 224.818 Q491.509 222.926 492.168 221.624 Q492.845 220.304 492.845 219.037 Q492.845 216.971 491.387 215.669 Q489.946 214.367 487.62 214.367 Q485.971 214.367 484.13 214.94 Q482.307 215.513 480.224 216.676 L480.224 213.134 Q482.342 212.283 484.182 211.849 Q486.023 211.415 487.55 211.415 Q491.578 211.415 493.974 213.429 Q496.37 215.443 496.37 218.811 Q496.37 220.408 495.762 221.849 Q495.172 223.273 493.592 225.217 Q493.158 225.721 490.832 228.134 Q488.505 230.53 484.269 234.853 Z" fill="#000000" fill-rule="evenodd" fill-opacity="1" /><path clip-path="url(#clip030)" d="M 0 0 M628.122 124.061 Q630.639 124.599 632.045 126.3 Q633.469 128.002 633.469 130.502 Q633.469 134.338 630.83 136.439 Q628.191 138.54 623.33 138.54 Q621.698 138.54 619.962 138.21 Q618.243 137.897 616.403 137.255 L616.403 133.87 Q617.861 134.72 619.598 135.154 Q621.334 135.588 623.226 135.588 Q626.525 135.588 628.243 134.286 Q629.979 132.984 629.979 130.502 Q629.979 128.21 628.365 126.925 Q626.768 125.623 623.903 125.623 L620.882 125.623 L620.882 122.741 L624.042 122.741 Q626.629 122.741 628 121.717 Q629.372 120.675 629.372 118.731 Q629.372 116.734 627.948 115.675 Q626.542 114.599 623.903 114.599 Q622.462 114.599 620.813 114.911 Q619.164 115.224 617.184 115.884 L617.184 112.759 Q619.181 112.203 620.917 111.925 Q622.67 111.647 624.216 111.647 Q628.209 111.647 630.535 113.47 Q632.861 115.276 632.861 118.366 Q632.861 120.519 631.629 122.012 Q630.396 123.488 628.122 124.061 Z" fill="#000000" fill-rule="evenodd" fill-opacity="1" /><path clip-path="url(#clip030)" d="M 0 0 M628.104 214.94 L619.25 228.776 L628.104 228.776 L628.104 214.94 M627.184 211.884 L631.594 211.884 L631.594 228.776 L635.292 228.776 L635.292 231.693 L631.594 231.693 L631.594 237.804 L628.104 237.804 L628.104 231.693 L616.403 231.693 L616.403 228.308 L627.184 211.884 Z" fill="#000000" fill-rule="evenodd" fill-opacity="1" /><path clip-path="url(#clip030)" d="M 0 0 M753.85 112.116 L767.617 112.116 L767.617 115.068 L757.061 115.068 L757.061 121.422 Q757.825 121.161 758.589 121.04 Q759.353 120.901 760.117 120.901 Q764.457 120.901 766.992 123.279 Q769.527 125.658 769.527 129.72 Q769.527 133.904 766.922 136.231 Q764.318 138.54 759.579 138.54 Q757.947 138.54 756.245 138.262 Q754.561 137.984 752.756 137.429 L752.756 133.904 Q754.318 134.755 755.985 135.172 Q757.652 135.588 759.509 135.588 Q762.513 135.588 764.266 134.008 Q766.02 132.429 766.02 129.72 Q766.02 127.012 764.266 125.432 Q762.513 123.852 759.509 123.852 Q758.103 123.852 756.697 124.165 Q755.308 124.477 753.85 125.137 L753.85 112.116 Z" fill="#000000" fill-rule="evenodd" fill-opacity="1" /><path clip-path="url(#clip030)" d="M 0 0 M762.009 223.447 Q759.648 223.447 758.259 225.061 Q756.888 226.676 756.888 229.488 Q756.888 232.283 758.259 233.915 Q759.648 235.53 762.009 235.53 Q764.37 235.53 765.742 233.915 Q767.131 232.283 767.131 229.488 Q767.131 226.676 765.742 225.061 Q764.37 223.447 762.009 223.447 M768.971 212.457 L768.971 215.651 Q767.652 215.026 766.297 214.697 Q764.961 214.367 763.641 214.367 Q760.169 214.367 758.329 216.711 Q756.506 219.054 756.245 223.794 Q757.27 222.283 758.815 221.485 Q760.36 220.669 762.218 220.669 Q766.124 220.669 768.381 223.047 Q770.655 225.408 770.655 229.488 Q770.655 233.481 768.294 235.894 Q765.933 238.308 762.009 238.308 Q757.513 238.308 755.134 234.87 Q752.756 231.415 752.756 224.87 Q752.756 218.724 755.673 215.079 Q758.589 211.415 763.502 211.415 Q764.822 211.415 766.159 211.676 Q767.513 211.936 768.971 212.457 Z" fill="#000000" fill-rule="evenodd" fill-opacity="1" /><path clip-path="url(#clip030)" d="M 0 0 M480.05 411.42 L496.717 411.42 L496.717 412.913 L487.307 437.34 L483.644 437.34 L492.498 414.371 L480.05 414.371 L480.05 411.42 Z" fill="#000000" fill-rule="evenodd" fill-opacity="1" /><path clip-path="url(#clip030)" d="M 0 0 M488.939 524.799 Q486.439 524.799 484.998 526.136 Q483.575 527.473 483.575 529.816 Q483.575 532.16 484.998 533.497 Q486.439 534.834 488.939 534.834 Q491.439 534.834 492.88 533.497 Q494.321 532.143 494.321 529.816 Q494.321 527.473 492.88 526.136 Q491.457 524.799 488.939 524.799 M485.432 523.306 Q483.175 522.75 481.908 521.205 Q480.658 519.66 480.658 517.438 Q480.658 514.33 482.863 512.525 Q485.085 510.719 488.939 510.719 Q492.811 510.719 495.016 512.525 Q497.22 514.33 497.22 517.438 Q497.22 519.66 495.953 521.205 Q494.703 522.75 492.464 523.306 Q494.998 523.896 496.404 525.615 Q497.828 527.334 497.828 529.816 Q497.828 533.584 495.519 535.598 Q493.227 537.611 488.939 537.611 Q484.651 537.611 482.342 535.598 Q480.05 533.584 480.05 529.816 Q480.05 527.334 481.474 525.615 Q482.898 523.896 485.432 523.306 M484.148 517.768 Q484.148 519.782 485.398 520.91 Q486.665 522.039 488.939 522.039 Q491.196 522.039 492.464 520.91 Q493.748 519.782 493.748 517.768 Q493.748 515.754 492.464 514.625 Q491.196 513.497 488.939 513.497 Q486.665 513.497 485.398 514.625 Q484.148 515.754 484.148 517.768 Z" fill="#000000" fill-rule="evenodd" fill-opacity="1" /><path clip-path="url(#clip030)" d="M 0 0 M618.07 436.802 L618.07 433.607 Q619.389 434.232 620.743 434.562 Q622.098 434.892 623.4 434.892 Q626.872 434.892 628.695 432.566 Q630.535 430.222 630.795 425.465 Q629.788 426.958 628.243 427.757 Q626.698 428.555 624.823 428.555 Q620.934 428.555 618.66 426.212 Q616.403 423.851 616.403 419.771 Q616.403 415.778 618.764 413.364 Q621.125 410.951 625.049 410.951 Q629.545 410.951 631.907 414.406 Q634.285 417.844 634.285 424.406 Q634.285 430.535 631.368 434.198 Q628.469 437.843 623.556 437.843 Q622.236 437.843 620.882 437.583 Q619.528 437.323 618.07 436.802 M625.049 425.812 Q627.41 425.812 628.782 424.198 Q630.17 422.583 630.17 419.771 Q630.17 416.976 628.782 415.361 Q627.41 413.729 625.049 413.729 Q622.688 413.729 621.299 415.361 Q619.927 416.976 619.927 419.771 Q619.927 422.583 621.299 424.198 Q622.688 425.812 625.049 425.812 Z" fill="#000000" fill-rule="evenodd" fill-opacity="1" /><path clip-path="url(#clip030)" d="M 0 0 M616.907 534.157 L622.636 534.157 L622.636 514.382 L616.403 515.632 L616.403 512.438 L622.601 511.188 L626.108 511.188 L626.108 534.157 L631.837 534.157 L631.837 537.108 L616.907 537.108 L616.907 534.157 Z" fill="#000000" fill-rule="evenodd" fill-opacity="1" /><path clip-path="url(#clip030)" d="M 0 0 M646.42 513.497 Q643.712 513.497 642.341 516.171 Q640.986 518.827 640.986 524.174 Q640.986 529.504 642.341 532.177 Q643.712 534.834 646.42 534.834 Q649.146 534.834 650.5 532.177 Q651.872 529.504 651.872 524.174 Q651.872 518.827 650.5 516.171 Q649.146 513.497 646.42 513.497 M646.42 510.719 Q650.778 510.719 653.07 514.174 Q655.379 517.612 655.379 524.174 Q655.379 530.719 653.07 534.174 Q650.778 537.611 646.42 537.611 Q642.063 537.611 639.754 534.174 Q637.462 530.719 637.462 524.174 Q637.462 517.612 639.754 514.174 Q642.063 510.719 646.42 510.719 Z" fill="#000000" fill-rule="evenodd" fill-opacity="1" /><path clip-path="url(#clip030)" d="M 0 0 M753.259 434.389 L758.989 434.389 L758.989 414.614 L752.756 415.864 L752.756 412.67 L758.954 411.42 L762.461 411.42 L762.461 434.389 L768.19 434.389 L768.19 437.34 L753.259 437.34 L753.259 434.389 Z" fill="#000000" fill-rule="evenodd" fill-opacity="1" /><path clip-path="url(#clip030)" d="M 0 0 M775.881 434.389 L781.61 434.389 L781.61 414.614 L775.377 415.864 L775.377 412.67 L781.575 411.42 L785.082 411.42 L785.082 434.389 L790.811 434.389 L790.811 437.34 L775.881 437.34 L775.881 434.389 Z" fill="#000000" fill-rule="evenodd" fill-opacity="1" /><path clip-path="url(#clip030)" d="M 0 0 M753.259 534.157 L758.989 534.157 L758.989 514.382 L752.756 515.632 L752.756 512.438 L758.954 511.188 L762.461 511.188 L762.461 534.157 L768.19 534.157 L768.19 537.108 L753.259 537.108 L753.259 534.157 Z" fill="#000000" fill-rule="evenodd" fill-opacity="1" /><path clip-path="url(#clip030)" d="M 0 0 M778.294 534.157 L790.533 534.157 L790.533 537.108 L774.075 537.108 L774.075 534.157 Q776.072 532.091 779.509 528.618 Q782.964 525.129 783.849 524.122 Q785.534 522.23 786.193 520.928 Q786.87 519.608 786.87 518.341 Q786.87 516.275 785.412 514.973 Q783.971 513.671 781.645 513.671 Q779.995 513.671 778.155 514.244 Q776.332 514.816 774.249 515.98 L774.249 512.438 Q776.367 511.587 778.207 511.153 Q780.047 510.719 781.575 510.719 Q785.603 510.719 787.999 512.733 Q790.395 514.747 790.395 518.115 Q790.395 519.712 789.787 521.153 Q789.197 522.577 787.617 524.521 Q787.183 525.025 784.856 527.438 Q782.53 529.834 778.294 534.157 Z" fill="#000000" fill-rule="evenodd" fill-opacity="1" /><path clip-path="url(#clip030)" d="M 0 0 M685.083 584.041 L690.812 584.041 L690.812 564.266 L684.58 565.516 L684.58 562.322 L690.777 561.072 L694.284 561.072 L694.284 584.041 L700.013 584.041 L700.013 586.992 L685.083 586.992 L685.083 584.041 Z" fill="#000000" fill-rule="evenodd" fill-opacity="1" /><path clip-path="url(#clip030)" d="M 0 0 M717.722 573.016 Q720.239 573.555 721.645 575.256 Q723.069 576.957 723.069 579.457 Q723.069 583.294 720.43 585.395 Q717.791 587.495 712.93 587.495 Q711.298 587.495 709.562 587.166 Q707.843 586.853 706.003 586.211 L706.003 582.825 Q707.461 583.676 709.197 584.11 Q710.934 584.544 712.826 584.544 Q716.124 584.544 717.843 583.242 Q719.579 581.94 719.579 579.457 Q719.579 577.166 717.965 575.881 Q716.368 574.579 713.503 574.579 L710.482 574.579 L710.482 571.697 L713.642 571.697 Q716.229 571.697 717.6 570.673 Q718.972 569.631 718.972 567.686 Q718.972 565.69 717.548 564.631 Q716.142 563.555 713.503 563.555 Q712.062 563.555 710.413 563.867 Q708.763 564.18 706.784 564.839 L706.784 561.714 Q708.781 561.159 710.517 560.881 Q712.27 560.603 713.815 560.603 Q717.809 560.603 720.135 562.426 Q722.461 564.232 722.461 567.322 Q722.461 569.475 721.229 570.968 Q719.996 572.443 717.722 573.016 Z" fill="#000000" fill-rule="evenodd" fill-opacity="1" /><path clip-path="url(#clip030)" d="M 0 0 M685.083 683.809 L690.812 683.809 L690.812 664.034 L684.58 665.284 L684.58 662.09 L690.777 660.84 L694.284 660.84 L694.284 683.809 L700.013 683.809 L700.013 686.76 L685.083 686.76 L685.083 683.809 Z" fill="#000000" fill-rule="evenodd" fill-opacity="1" /><path clip-path="url(#clip030)" d="M 0 0 M716.732 663.895 L707.878 677.732 L716.732 677.732 L716.732 663.895 M715.812 660.84 L720.222 660.84 L720.222 677.732 L723.92 677.732 L723.92 680.649 L720.222 680.649 L720.222 686.76 L716.732 686.76 L716.732 680.649 L705.031 680.649 L705.031 677.263 L715.812 660.84 Z" fill="#000000" fill-rule="evenodd" fill-opacity="1" /><path clip-path="url(#clip030)" d="M 0 0 M548.73 284.737 L554.459 284.737 L554.459 264.963 L548.227 266.213 L548.227 263.018 L554.425 261.768 L557.932 261.768 L557.932 284.737 L563.661 284.737 L563.661 287.688 L548.73 287.688 L548.73 284.737 Z" fill="#000000" fill-rule="evenodd" fill-opacity="1" /><path clip-path="url(#clip030)" d="M 0 0 M569.859 261.768 L586.525 261.768 L586.525 263.261 L577.116 287.688 L573.452 287.688 L582.306 264.719 L569.859 264.719 L569.859 261.768 Z" fill="#000000" fill-rule="evenodd" fill-opacity="1" /><path clip-path="url(#clip030)" d="M 0 0 M548.73 384.505 L554.459 384.505 L554.459 364.73 L548.227 365.98 L548.227 362.786 L554.425 361.536 L557.932 361.536 L557.932 384.505 L563.661 384.505 L563.661 387.456 L548.73 387.456 L548.73 384.505 Z" fill="#000000" fill-rule="evenodd" fill-opacity="1" /><path clip-path="url(#clip030)" d="M 0 0 M578.244 375.147 Q575.744 375.147 574.303 376.484 Q572.879 377.821 572.879 380.164 Q572.879 382.508 574.303 383.845 Q575.744 385.182 578.244 385.182 Q580.744 385.182 582.185 383.845 Q583.626 382.491 583.626 380.164 Q583.626 377.821 582.185 376.484 Q580.761 375.147 578.244 375.147 M574.737 373.654 Q572.48 373.098 571.213 371.553 Q569.963 370.008 569.963 367.786 Q569.963 364.678 572.168 362.873 Q574.39 361.067 578.244 361.067 Q582.115 361.067 584.32 362.873 Q586.525 364.678 586.525 367.786 Q586.525 370.008 585.258 371.553 Q584.008 373.098 581.768 373.654 Q584.303 374.244 585.709 375.963 Q587.133 377.682 587.133 380.164 Q587.133 383.932 584.824 385.946 Q582.532 387.96 578.244 387.96 Q573.956 387.96 571.647 385.946 Q569.355 383.932 569.355 380.164 Q569.355 377.682 570.779 375.963 Q572.202 374.244 574.737 373.654 M573.452 368.116 Q573.452 370.13 574.702 371.258 Q575.97 372.387 578.244 372.387 Q580.501 372.387 581.768 371.258 Q583.053 370.13 583.053 368.116 Q583.053 366.102 581.768 364.974 Q580.501 363.845 578.244 363.845 Q575.97 363.845 574.702 364.974 Q573.452 366.102 573.452 368.116 Z" fill="#000000" fill-rule="evenodd" fill-opacity="1" /><path clip-path="url(#clip030)" d="M 0 0 M685.083 284.737 L690.812 284.737 L690.812 264.963 L684.58 266.213 L684.58 263.018 L690.777 261.768 L694.284 261.768 L694.284 284.737 L700.013 284.737 L700.013 287.688 L685.083 287.688 L685.083 284.737 Z" fill="#000000" fill-rule="evenodd" fill-opacity="1" /><path clip-path="url(#clip030)" d="M 0 0 M707.201 287.15 L707.201 283.955 Q708.52 284.58 709.875 284.91 Q711.229 285.24 712.531 285.24 Q716.003 285.24 717.826 282.914 Q719.666 280.57 719.927 275.813 Q718.92 277.306 717.374 278.105 Q715.829 278.903 713.954 278.903 Q710.066 278.903 707.791 276.56 Q705.534 274.199 705.534 270.119 Q705.534 266.126 707.895 263.713 Q710.256 261.299 714.18 261.299 Q718.677 261.299 721.038 264.754 Q723.416 268.192 723.416 274.754 Q723.416 280.883 720.499 284.546 Q717.6 288.192 712.687 288.192 Q711.368 288.192 710.013 287.931 Q708.659 287.671 707.201 287.15 M714.18 276.16 Q716.541 276.16 717.913 274.546 Q719.302 272.931 719.302 270.119 Q719.302 267.324 717.913 265.709 Q716.541 264.077 714.18 264.077 Q711.819 264.077 710.43 265.709 Q709.059 267.324 709.059 270.119 Q709.059 272.931 710.43 274.546 Q711.819 276.16 714.18 276.16 Z" fill="#000000" fill-rule="evenodd" fill-opacity="1" /><path clip-path="url(#clip030)" d="M 0 0 M688.798 384.505 L701.038 384.505 L701.038 387.456 L684.58 387.456 L684.58 384.505 Q686.576 382.439 690.014 378.967 Q693.468 375.477 694.354 374.47 Q696.038 372.578 696.698 371.276 Q697.375 369.956 697.375 368.689 Q697.375 366.623 695.916 365.321 Q694.475 364.019 692.149 364.019 Q690.5 364.019 688.659 364.592 Q686.836 365.165 684.753 366.328 L684.753 362.786 Q686.871 361.935 688.711 361.501 Q690.552 361.067 692.079 361.067 Q696.107 361.067 698.503 363.081 Q700.899 365.095 700.899 368.463 Q700.899 370.06 700.291 371.501 Q699.701 372.925 698.121 374.869 Q697.687 375.373 695.361 377.786 Q693.034 380.182 688.798 384.505 Z" fill="#000000" fill-rule="evenodd" fill-opacity="1" /><path clip-path="url(#clip030)" d="M 0 0 M715.899 363.845 Q713.19 363.845 711.819 366.519 Q710.465 369.175 710.465 374.522 Q710.465 379.852 711.819 382.526 Q713.19 385.182 715.899 385.182 Q718.624 385.182 719.979 382.526 Q721.35 379.852 721.35 374.522 Q721.35 369.175 719.979 366.519 Q718.624 363.845 715.899 363.845 M715.899 361.067 Q720.256 361.067 722.548 364.522 Q724.857 367.96 724.857 374.522 Q724.857 381.067 722.548 384.522 Q720.256 387.96 715.899 387.96 Q711.541 387.96 709.232 384.522 Q706.941 381.067 706.941 374.522 Q706.941 367.96 709.232 364.522 Q711.541 361.067 715.899 361.067 Z" fill="#000000" fill-rule="evenodd" fill-opacity="1" /><path clip-path="url(#clip030)" d="M 0 0 M552.445 85.2008 L564.685 85.2008 L564.685 88.1522 L548.227 88.1522 L548.227 85.2008 Q550.223 83.1349 553.661 79.6627 Q557.116 76.1731 558.001 75.1662 Q559.685 73.2738 560.345 71.9718 Q561.022 70.6523 561.022 69.385 Q561.022 67.319 559.564 66.0169 Q558.123 64.7148 555.796 64.7148 Q554.147 64.7148 552.307 65.2878 Q550.484 65.8607 548.4 67.0239 L548.4 63.4822 Q550.518 62.6315 552.359 62.1975 Q554.199 61.7635 555.727 61.7635 Q559.754 61.7635 562.15 63.7774 Q564.546 65.7912 564.546 69.1593 Q564.546 70.7565 563.938 72.1974 Q563.348 73.621 561.768 75.5655 Q561.334 76.069 559.008 78.4821 Q556.682 80.878 552.445 85.2008 Z" fill="#000000" fill-rule="evenodd" fill-opacity="1" /><path clip-path="url(#clip030)" d="M 0 0 M581.681 65.2878 L572.827 79.1245 L581.681 79.1245 L581.681 65.2878 M580.761 62.2322 L585.171 62.2322 L585.171 79.1245 L588.869 79.1245 L588.869 82.0411 L585.171 82.0411 L585.171 88.1522 L581.681 88.1522 L581.681 82.0411 L569.98 82.0411 L569.98 78.6557 L580.761 62.2322 Z" fill="#000000" fill-rule="evenodd" fill-opacity="1" /><circle clip-path="url(#clip032)" cx="684.58" cy="95.9282" r="14" fill="#0000ff" fill-rule="evenodd" fill-opacity="1" stroke="none"/>
<path clip-path="url(#clip030)" d="M 0 0 M685.083 85.2008 L690.812 85.2008 L690.812 65.4266 L684.58 66.6766 L684.58 63.4822 L690.777 62.2322 L694.284 62.2322 L694.284 85.2008 L700.013 85.2008 L700.013 88.1522 L685.083 88.1522 L685.083 85.2008 Z" fill="#000000" fill-rule="evenodd" fill-opacity="1" /><path clip-path="url(#clip030)" d="M 0 0 M716.732 65.2878 L707.878 79.1245 L716.732 79.1245 L716.732 65.2878 M715.812 62.2322 L720.222 62.2322 L720.222 79.1245 L723.92 79.1245 L723.92 82.0411 L720.222 82.0411 L720.222 88.1522 L716.732 88.1522 L716.732 82.0411 L705.031 82.0411 L705.031 78.6557 L715.812 62.2322 Z" fill="#000000" fill-rule="evenodd" fill-opacity="1" /></svg>
