<?xml version="1.0" encoding="utf-8"?>
<svg xmlns="http://www.w3.org/2000/svg" xmlns:xlink="http://www.w3.org/1999/xlink" width="200" height="250" viewBox="0 0 800 1000">
<defs>
  <clipPath id="clip000">
    <rect x="0" y="0" width="800" height="1000"/>
  </clipPath>
</defs>
<path clip-path="url(#clip000)" d="
M0 1000 L800 1000 L800 0 L0 0  Z
  " fill="#ffffff" fill-rule="evenodd" fill-opacity="1"/>
<defs>
  <clipPath id="clip001">
    <rect x="200" y="100" width="701" height="701"/>
  </clipPath>
</defs>
<path clip-path="url(#clip000)" d="
M70.9921 927.008 L752.756 927.008 L752.756 62.9921 L70.9921 62.9921  Z
  " fill="#ffffff" fill-rule="evenodd" fill-opacity="1"/>
<defs>
  <clipPath id="clip002">
    <rect x="70" y="62" width="683" height="865"/>
  </clipPath>
</defs>
<polyline clip-path="url(#clip000)" style="stroke:#000000; stroke-width:4; stroke-opacity:1; fill:none" points="
  70.9921,927.008 752.756,927.008 
  "/>
<polyline clip-path="url(#clip000)" style="stroke:#000000; stroke-width:4; stroke-opacity:1; fill:none" points="
  139.169,927.008 139.169,916.64 
  "/>
<polyline clip-path="url(#clip000)" style="stroke:#000000; stroke-width:4; stroke-opacity:1; fill:none" points="
  275.521,927.008 275.521,916.64 
  "/>
<polyline clip-path="url(#clip000)" style="stroke:#000000; stroke-width:4; stroke-opacity:1; fill:none" points="
  411.874,927.008 411.874,916.64 
  "/>
<polyline clip-path="url(#clip000)" style="stroke:#000000; stroke-width:4; stroke-opacity:1; fill:none" points="
  548.227,927.008 548.227,916.64 
  "/>
<polyline clip-path="url(#clip000)" style="stroke:#000000; stroke-width:4; stroke-opacity:1; fill:none" points="
  684.58,927.008 684.58,916.64 
  "/>
<path clip-path="url(#clip000)" d="M 0 0 M109.111 959.651 L138.787 959.651 L138.787 963.586 L109.111 963.586 L109.111 959.651 Z" fill="#000000" fill-rule="evenodd" fill-opacity="1" /><path clip-path="url(#clip000)" d="M 0 0 M152.907 972.545 L169.226 972.545 L169.226 976.48 L147.282 976.48 L147.282 972.545 Q149.944 969.79 154.527 965.16 Q159.134 960.508 160.314 959.165 Q162.56 956.642 163.439 954.906 Q164.342 953.147 164.342 951.457 Q164.342 948.702 162.398 946.966 Q160.476 945.23 157.374 945.23 Q155.175 945.23 152.722 945.994 Q150.291 946.758 147.513 948.309 L147.513 943.587 Q150.337 942.452 152.791 941.874 Q155.245 941.295 157.282 941.295 Q162.652 941.295 165.847 943.98 Q169.041 946.665 169.041 951.156 Q169.041 953.286 168.231 955.207 Q167.444 957.105 165.337 959.698 Q164.759 960.369 161.657 963.586 Q158.555 966.781 152.907 972.545 Z" fill="#000000" fill-rule="evenodd" fill-opacity="1" /><path clip-path="url(#clip000)" d="M 0 0 M245.278 959.651 L274.954 959.651 L274.954 963.586 L245.278 963.586 L245.278 959.651 Z" fill="#000000" fill-rule="evenodd" fill-opacity="1" /><path clip-path="url(#clip000)" d="M 0 0 M285.857 972.545 L293.496 972.545 L293.496 946.179 L285.186 947.846 L285.186 943.587 L293.449 941.92 L298.125 941.92 L298.125 972.545 L305.764 972.545 L305.764 976.48 L285.857 976.48 L285.857 972.545 Z" fill="#000000" fill-rule="evenodd" fill-opacity="1" /><path clip-path="url(#clip000)" d="M 0 0 M411.874 944.999 Q408.263 944.999 406.434 948.563 Q404.629 952.105 404.629 959.235 Q404.629 966.341 406.434 969.906 Q408.263 973.447 411.874 973.447 Q415.508 973.447 417.314 969.906 Q419.142 966.341 419.142 959.235 Q419.142 952.105 417.314 948.563 Q415.508 944.999 411.874 944.999 M411.874 941.295 Q417.684 941.295 420.74 945.901 Q423.818 950.485 423.818 959.235 Q423.818 967.961 420.74 972.568 Q417.684 977.151 411.874 977.151 Q406.064 977.151 402.985 972.568 Q399.93 967.961 399.93 959.235 Q399.93 950.485 402.985 945.901 Q406.064 941.295 411.874 941.295 Z" fill="#000000" fill-rule="evenodd" fill-opacity="1" /><path clip-path="url(#clip000)" d="M 0 0 M538.609 972.545 L546.248 972.545 L546.248 946.179 L537.937 947.846 L537.937 943.587 L546.201 941.92 L550.877 941.92 L550.877 972.545 L558.516 972.545 L558.516 976.48 L538.609 976.48 L538.609 972.545 Z" fill="#000000" fill-rule="evenodd" fill-opacity="1" /><path clip-path="url(#clip000)" d="M 0 0 M679.232 972.545 L695.552 972.545 L695.552 976.48 L673.607 976.48 L673.607 972.545 Q676.269 969.79 680.853 965.16 Q685.459 960.508 686.64 959.165 Q688.885 956.642 689.765 954.906 Q690.667 953.147 690.667 951.457 Q690.667 948.702 688.723 946.966 Q686.802 945.23 683.7 945.23 Q681.501 945.23 679.047 945.994 Q676.617 946.758 673.839 948.309 L673.839 943.587 Q676.663 942.452 679.117 941.874 Q681.57 941.295 683.607 941.295 Q688.978 941.295 692.172 943.98 Q695.367 946.665 695.367 951.156 Q695.367 953.286 694.556 955.207 Q693.769 957.105 691.663 959.698 Q691.084 960.369 687.982 963.586 Q684.88 966.781 679.232 972.545 Z" fill="#000000" fill-rule="evenodd" fill-opacity="1" /><polyline clip-path="url(#clip000)" style="stroke:#000000; stroke-width:4; stroke-opacity:1; fill:none" points="
  70.9921,927.008 70.9921,62.9921 
  "/>
<polyline clip-path="url(#clip000)" style="stroke:#000000; stroke-width:4; stroke-opacity:1; fill:none" points="
  70.9921,840.606 79.1733,840.606 
  "/>
<polyline clip-path="url(#clip000)" style="stroke:#000000; stroke-width:4; stroke-opacity:1; fill:none" points="
  70.9921,667.803 79.1733,667.803 
  "/>
<polyline clip-path="url(#clip000)" style="stroke:#000000; stroke-width:4; stroke-opacity:1; fill:none" points="
  70.9921,495 79.1733,495 
  "/>
<polyline clip-path="url(#clip000)" style="stroke:#000000; stroke-width:4; stroke-opacity:1; fill:none" points="
  70.9921,322.197 79.1733,322.197 
  "/>
<polyline clip-path="url(#clip000)" style="stroke:#000000; stroke-width:4; stroke-opacity:1; fill:none" points="
  70.9921,149.394 79.1733,149.394 
  "/>
<path clip-path="url(#clip000)" d="M 0 0 M-4.12329 841.058 L25.5525 841.058 L25.5525 844.993 L-4.12329 844.993 L-4.12329 841.058 Z" fill="#000000" fill-rule="evenodd" fill-opacity="1" /><path clip-path="url(#clip000)" d="M 0 0 M39.6728 853.951 L55.9921 853.951 L55.9921 857.886 L34.0478 857.886 L34.0478 853.951 Q36.7098 851.197 41.2931 846.567 Q45.8996 841.914 47.0801 840.572 Q49.3255 838.048 50.2051 836.312 Q51.1079 834.553 51.1079 832.863 Q51.1079 830.109 49.1635 828.373 Q47.2422 826.636 44.1403 826.636 Q41.9413 826.636 39.4876 827.4 Q37.057 828.164 34.2793 829.715 L34.2793 824.993 Q37.1033 823.859 39.557 823.28 Q42.0107 822.701 44.0477 822.701 Q49.4181 822.701 52.6125 825.386 Q55.8069 828.072 55.8069 832.562 Q55.8069 834.692 54.9968 836.613 Q54.2097 838.511 52.1033 841.104 Q51.5246 841.775 48.4227 844.993 Q45.3209 848.187 39.6728 853.951 Z" fill="#000000" fill-rule="evenodd" fill-opacity="1" /><path clip-path="url(#clip000)" d="M 0 0 M-4.49366 668.255 L25.1821 668.255 L25.1821 672.19 L-4.49366 672.19 L-4.49366 668.255 Z" fill="#000000" fill-rule="evenodd" fill-opacity="1" /><path clip-path="url(#clip000)" d="M 0 0 M36.0848 681.148 L43.7237 681.148 L43.7237 654.782 L35.4135 656.449 L35.4135 652.19 L43.6774 650.523 L48.3533 650.523 L48.3533 681.148 L55.9921 681.148 L55.9921 685.083 L36.0848 685.083 L36.0848 681.148 Z" fill="#000000" fill-rule="evenodd" fill-opacity="1" /><path clip-path="url(#clip000)" d="M 0 0 M44.0477 480.799 Q40.4367 480.799 38.608 484.363 Q36.8024 487.905 36.8024 495.035 Q36.8024 502.141 38.608 505.706 Q40.4367 509.248 44.0477 509.248 Q47.682 509.248 49.4875 505.706 Q51.3162 502.141 51.3162 495.035 Q51.3162 487.905 49.4875 484.363 Q47.682 480.799 44.0477 480.799 M44.0477 477.095 Q49.8579 477.095 52.9134 481.701 Q55.9921 486.285 55.9921 495.035 Q55.9921 503.762 52.9134 508.368 Q49.8579 512.951 44.0477 512.951 Q38.2376 512.951 35.1589 508.368 Q32.1034 503.762 32.1034 495.035 Q32.1034 486.285 35.1589 481.701 Q38.2376 477.095 44.0477 477.095 Z" fill="#000000" fill-rule="evenodd" fill-opacity="1" /><path clip-path="url(#clip000)" d="M 0 0 M36.0848 335.542 L43.7237 335.542 L43.7237 309.176 L35.4135 310.843 L35.4135 306.584 L43.6774 304.917 L48.3533 304.917 L48.3533 335.542 L55.9921 335.542 L55.9921 339.477 L36.0848 339.477 L36.0848 335.542 Z" fill="#000000" fill-rule="evenodd" fill-opacity="1" /><path clip-path="url(#clip000)" d="M 0 0 M39.6728 162.739 L55.9921 162.739 L55.9921 166.674 L34.0478 166.674 L34.0478 162.739 Q36.7098 159.984 41.2931 155.354 Q45.8996 150.702 47.0801 149.359 Q49.3255 146.836 50.2051 145.1 Q51.1079 143.34 51.1079 141.651 Q51.1079 138.896 49.1635 137.16 Q47.2422 135.424 44.1403 135.424 Q41.9413 135.424 39.4876 136.188 Q37.057 136.952 34.2793 138.503 L34.2793 133.78 Q37.1033 132.646 39.557 132.067 Q42.0107 131.489 44.0477 131.489 Q49.4181 131.489 52.6125 134.174 Q55.8069 136.859 55.8069 141.35 Q55.8069 143.479 54.9968 145.401 Q54.2097 147.299 52.1033 149.891 Q51.5246 150.563 48.4227 153.78 Q45.3209 156.975 39.6728 162.739 Z" fill="#000000" fill-rule="evenodd" fill-opacity="1" /><path clip-path="url(#clip000)" d="M 0 0 M352.222 5.45367 L362.036 5.45367 L362.036 8.76384 L356.481 8.76384 L356.481 44.4118 L362.036 44.4118 L362.036 47.722 L352.222 47.722 L352.222 5.45367 Z" fill="#000000" fill-rule="evenodd" fill-opacity="1" /><path clip-path="url(#clip000)" d="M 0 0 M375.74 37.5368 L392.059 37.5368 L392.059 41.472 L370.115 41.472 L370.115 37.5368 Q372.777 34.7822 377.36 30.1526 Q381.967 25.4999 383.147 24.1573 Q385.393 21.6341 386.272 19.898 Q387.175 18.1388 387.175 16.449 Q387.175 13.6944 385.231 11.9583 Q383.309 10.2222 380.208 10.2222 Q378.008 10.2222 375.555 10.9861 Q373.124 11.7499 370.346 13.3009 L370.346 8.57866 Q373.171 7.4444 375.624 6.8657 Q378.078 6.287 380.115 6.287 Q385.485 6.287 388.68 8.97217 Q391.874 11.6573 391.874 16.1481 Q391.874 18.2777 391.064 20.199 Q390.277 22.0971 388.17 24.6897 Q387.592 25.361 384.49 28.5786 Q381.388 31.773 375.74 37.5368 Z" fill="#000000" fill-rule="evenodd" fill-opacity="1" /><path clip-path="url(#clip000)" d="M 0 0 M402.36 35.5924 L407.244 35.5924 L407.244 39.5739 L403.448 46.9812 L400.462 46.9812 L402.36 39.5739 L402.36 35.5924 Z" fill="#000000" fill-rule="evenodd" fill-opacity="1" /><path clip-path="url(#clip000)" d="M 0 0 M442.013 9.99069 Q438.402 9.99069 436.573 13.5555 Q434.767 17.0971 434.767 24.2267 Q434.767 31.3332 436.573 34.898 Q438.402 38.4396 442.013 38.4396 Q445.647 38.4396 447.453 34.898 Q449.281 31.3332 449.281 24.2267 Q449.281 17.0971 447.453 13.5555 Q445.647 9.99069 442.013 9.99069 M442.013 6.287 Q447.823 6.287 450.878 10.8935 Q453.957 15.4768 453.957 24.2267 Q453.957 32.9535 450.878 37.56 Q447.823 42.1433 442.013 42.1433 Q436.203 42.1433 433.124 37.56 Q430.068 32.9535 430.068 24.2267 Q430.068 15.4768 433.124 10.8935 Q436.203 6.287 442.013 6.287 Z" fill="#000000" fill-rule="evenodd" fill-opacity="1" /><path clip-path="url(#clip000)" d="M 0 0 M471.526 5.45367 L471.526 47.722 L461.712 47.722 L461.712 44.4118 L467.244 44.4118 L467.244 8.76384 L461.712 8.76384 L461.712 5.45367 L471.526 5.45367 Z" fill="#000000" fill-rule="evenodd" fill-opacity="1" /><circle clip-path="url(#clip002)" cx="139.169" cy="894.072" r="14" fill="#0000ff" fill-rule="evenodd" fill-opacity="1" stroke="none"/>
<path clip-path="url(#clip000)" d="M 0 0 M139.672 883.344 L145.401 883.344 L145.401 863.57 L139.169 864.82 L139.169 861.626 L145.366 860.376 L148.873 860.376 L148.873 883.344 L154.602 883.344 L154.602 886.296 L139.672 886.296 L139.672 883.344 Z" fill="#000000" fill-rule="evenodd" fill-opacity="1" /><path clip-path="url(#clip000)" d="M 0 0 M172.311 872.32 Q174.828 872.858 176.234 874.56 Q177.658 876.261 177.658 878.761 Q177.658 882.598 175.019 884.699 Q172.38 886.799 167.519 886.799 Q165.887 886.799 164.151 886.469 Q162.432 886.157 160.592 885.515 L160.592 882.129 Q162.05 882.98 163.786 883.414 Q165.523 883.848 167.415 883.848 Q170.713 883.848 172.432 882.546 Q174.168 881.244 174.168 878.761 Q174.168 876.469 172.554 875.185 Q170.957 873.883 168.092 873.883 L165.071 873.883 L165.071 871.001 L168.231 871.001 Q170.818 871.001 172.189 869.976 Q173.561 868.935 173.561 866.99 Q173.561 864.994 172.137 863.935 Q170.731 862.858 168.092 862.858 Q166.651 862.858 165.002 863.171 Q163.352 863.483 161.373 864.143 L161.373 861.018 Q163.37 860.463 165.106 860.185 Q166.859 859.907 168.404 859.907 Q172.397 859.907 174.724 861.73 Q177.05 863.535 177.05 866.626 Q177.05 868.779 175.818 870.272 Q174.585 871.747 172.311 872.32 Z" fill="#000000" fill-rule="evenodd" fill-opacity="1" /><circle clip-path="url(#clip002)" cx="343.698" cy="744.42" r="14" fill="#0000ff" fill-rule="evenodd" fill-opacity="1" stroke="none"/>
<circle clip-path="url(#clip002)" cx="343.698" cy="844.188" r="14" fill="#0000ff" fill-rule="evenodd" fill-opacity="1" stroke="none"/>
<circle clip-path="url(#clip002)" cx="70.9921" cy="445.116" r="14" fill="#0000ff" fill-rule="evenodd" fill-opacity="1" stroke="none"/>
<circle clip-path="url(#clip002)" cx="70.9921" cy="544.884" r="14" fill="#0000ff" fill-rule="evenodd" fill-opacity="1" stroke="none"/>
<circle clip-path="url(#clip002)" cx="207.345" cy="445.116" r="14" fill="#0000ff" fill-rule="evenodd" fill-opacity="1" stroke="none"/>
<circle clip-path="url(#clip002)" cx="207.345" cy="544.884" r="14" fill="#0000ff" fill-rule="evenodd" fill-opacity="1" stroke="none"/>
<circle clip-path="url(#clip002)" cx="343.698" cy="445.116" r="14" fill="#0000ff" fill-rule="evenodd" fill-opacity="1" stroke="none"/>
<circle clip-path="url(#clip002)" cx="343.698" cy="544.884" r="14" fill="#0000ff" fill-rule="evenodd" fill-opacity="1" stroke="none"/>
<circle clip-path="url(#clip002)" cx="70.9921" cy="744.42" r="14" fill="#0000ff" fill-rule="evenodd" fill-opacity="1" stroke="none"/>
<circle clip-path="url(#clip002)" cx="70.9921" cy="844.188" r="14" fill="#0000ff" fill-rule="evenodd" fill-opacity="1" stroke="none"/>
<circle clip-path="url(#clip002)" cx="207.345" cy="744.42" r="14" fill="#0000ff" fill-rule="evenodd" fill-opacity="1" stroke="none"/>
<circle clip-path="url(#clip002)" cx="207.345" cy="844.188" r="14" fill="#0000ff" fill-rule="evenodd" fill-opacity="1" stroke="none"/>
<circle clip-path="url(#clip002)" cx="139.169" cy="295.464" r="14" fill="#0000ff" fill-rule="evenodd" fill-opacity="1" stroke="none"/>
<circle clip-path="url(#clip002)" cx="139.169" cy="395.232" r="14" fill="#0000ff" fill-rule="evenodd" fill-opacity="1" stroke="none"/>
<circle clip-path="url(#clip002)" cx="275.521" cy="894.072" r="14" fill="#0000ff" fill-rule="evenodd" fill-opacity="1" stroke="none"/>
<circle clip-path="url(#clip002)" cx="411.874" cy="894.072" r="14" fill="#0000ff" fill-rule="evenodd" fill-opacity="1" stroke="none"/>
<circle clip-path="url(#clip002)" cx="139.169" cy="594.768" r="14" fill="#0000ff" fill-rule="evenodd" fill-opacity="1" stroke="none"/>
<circle clip-path="url(#clip002)" cx="139.169" cy="694.536" r="14" fill="#0000ff" fill-rule="evenodd" fill-opacity="1" stroke="none"/>
<circle clip-path="url(#clip002)" cx="275.521" cy="594.768" r="14" fill="#0000ff" fill-rule="evenodd" fill-opacity="1" stroke="none"/>
<circle clip-path="url(#clip002)" cx="275.521" cy="694.536" r="14" fill="#0000ff" fill-rule="evenodd" fill-opacity="1" stroke="none"/>
<circle clip-path="url(#clip002)" cx="411.874" cy="594.768" r="14" fill="#0000ff" fill-rule="evenodd" fill-opacity="1" stroke="none"/>
<circle clip-path="url(#clip002)" cx="411.874" cy="694.536" r="14" fill="#0000ff" fill-rule="evenodd" fill-opacity="1" stroke="none"/>
<path clip-path="url(#clip000)" d="M 0 0 M344.201 733.692 L349.93 733.692 L349.93 713.918 L343.698 715.168 L343.698 711.974 L349.896 710.724 L353.402 710.724 L353.402 733.692 L359.132 733.692 L359.132 736.644 L344.201 736.644 L344.201 733.692 Z" fill="#000000" fill-rule="evenodd" fill-opacity="1" /><path clip-path="url(#clip000)" d="M 0 0 M347.916 833.46 L360.156 833.46 L360.156 836.412 L343.698 836.412 L343.698 833.46 Q345.694 831.394 349.132 827.922 Q352.586 824.433 353.472 823.426 Q355.156 821.533 355.816 820.231 Q356.493 818.912 356.493 817.645 Q356.493 815.579 355.034 814.277 Q353.593 812.974 351.267 812.974 Q349.618 812.974 347.777 813.547 Q345.955 814.12 343.871 815.283 L343.871 811.742 Q345.989 810.891 347.83 810.457 Q349.67 810.023 351.198 810.023 Q355.225 810.023 357.621 812.037 Q360.017 814.051 360.017 817.419 Q360.017 819.016 359.409 820.457 Q358.819 821.881 357.239 823.825 Q356.805 824.329 354.479 826.742 Q352.152 829.138 347.916 833.46 Z" fill="#000000" fill-rule="evenodd" fill-opacity="1" /><path clip-path="url(#clip000)" d="M 0 0 M82.7108 423.364 Q85.2282 423.903 86.6344 425.604 Q88.058 427.305 88.058 429.805 Q88.058 433.642 85.4191 435.743 Q82.7803 437.843 77.9192 437.843 Q76.2872 437.843 74.5511 437.514 Q72.8324 437.201 70.9921 436.559 L70.9921 433.173 Q72.4505 434.024 74.1866 434.458 Q75.9227 434.892 77.815 434.892 Q81.1136 434.892 82.8323 433.59 Q84.5684 432.288 84.5684 429.805 Q84.5684 427.514 82.9539 426.229 Q81.3567 424.927 78.4921 424.927 L75.4713 424.927 L75.4713 422.045 L78.631 422.045 Q81.2178 422.045 82.5893 421.021 Q83.9608 419.979 83.9608 418.035 Q83.9608 416.038 82.5372 414.979 Q81.131 413.903 78.4921 413.903 Q77.0511 413.903 75.4018 414.215 Q73.7525 414.528 71.7734 415.187 L71.7734 412.062 Q73.7699 411.507 75.506 411.229 Q77.2595 410.951 78.8046 410.951 Q82.7976 410.951 85.124 412.774 Q87.4504 414.58 87.4504 417.67 Q87.4504 419.823 86.2177 421.316 Q84.9851 422.791 82.7108 423.364 Z" fill="#000000" fill-rule="evenodd" fill-opacity="1" /><path clip-path="url(#clip000)" d="M 0 0 M82.6935 514.244 L73.8393 528.08 L82.6935 528.08 L82.6935 514.244 M81.7733 511.188 L86.183 511.188 L86.183 528.08 L89.8809 528.08 L89.8809 530.997 L86.183 530.997 L86.183 537.108 L82.6935 537.108 L82.6935 530.997 L70.9921 530.997 L70.9921 527.611 L81.7733 511.188 Z" fill="#000000" fill-rule="evenodd" fill-opacity="1" /><path clip-path="url(#clip000)" d="M 0 0 M208.439 411.42 L222.206 411.42 L222.206 414.371 L211.65 414.371 L211.65 420.726 Q212.414 420.465 213.178 420.344 Q213.942 420.205 214.706 420.205 Q219.046 420.205 221.581 422.583 Q224.116 424.962 224.116 429.024 Q224.116 433.208 221.511 435.534 Q218.907 437.843 214.168 437.843 Q212.536 437.843 210.834 437.566 Q209.15 437.288 207.345 436.732 L207.345 433.208 Q208.907 434.059 210.574 434.475 Q212.241 434.892 214.098 434.892 Q217.102 434.892 218.855 433.312 Q220.609 431.732 220.609 429.024 Q220.609 426.316 218.855 424.736 Q217.102 423.156 214.098 423.156 Q212.692 423.156 211.286 423.469 Q209.897 423.781 208.439 424.441 L208.439 411.42 Z" fill="#000000" fill-rule="evenodd" fill-opacity="1" /><path clip-path="url(#clip000)" d="M 0 0 M216.598 522.75 Q214.237 522.75 212.848 524.365 Q211.477 525.98 211.477 528.792 Q211.477 531.587 212.848 533.219 Q214.237 534.834 216.598 534.834 Q218.959 534.834 220.331 533.219 Q221.72 531.587 221.72 528.792 Q221.72 525.98 220.331 524.365 Q218.959 522.75 216.598 522.75 M223.56 511.761 L223.56 514.955 Q222.241 514.33 220.886 514 Q219.55 513.671 218.23 513.671 Q214.758 513.671 212.918 516.014 Q211.095 518.358 210.834 523.098 Q211.859 521.587 213.404 520.789 Q214.949 519.973 216.807 519.973 Q220.713 519.973 222.97 522.351 Q225.244 524.712 225.244 528.792 Q225.244 532.785 222.883 535.198 Q220.522 537.611 216.598 537.611 Q212.102 537.611 209.723 534.174 Q207.345 530.719 207.345 524.174 Q207.345 518.028 210.262 514.382 Q213.178 510.719 218.091 510.719 Q219.411 510.719 220.748 510.98 Q222.102 511.24 223.56 511.761 Z" fill="#000000" fill-rule="evenodd" fill-opacity="1" /><path clip-path="url(#clip000)" d="M 0 0 M343.698 411.42 L360.364 411.42 L360.364 412.913 L350.955 437.34 L347.291 437.34 L356.145 414.371 L343.698 414.371 L343.698 411.42 Z" fill="#000000" fill-rule="evenodd" fill-opacity="1" /><path clip-path="url(#clip000)" d="M 0 0 M352.586 524.799 Q350.086 524.799 348.646 526.136 Q347.222 527.473 347.222 529.816 Q347.222 532.16 348.646 533.497 Q350.086 534.834 352.586 534.834 Q355.086 534.834 356.527 533.497 Q357.968 532.143 357.968 529.816 Q357.968 527.473 356.527 526.136 Q355.104 524.799 352.586 524.799 M349.08 523.306 Q346.823 522.75 345.555 521.205 Q344.305 519.66 344.305 517.438 Q344.305 514.33 346.51 512.525 Q348.732 510.719 352.586 510.719 Q356.458 510.719 358.663 512.525 Q360.868 514.33 360.868 517.438 Q360.868 519.66 359.6 521.205 Q358.35 522.75 356.111 523.306 Q358.645 523.896 360.052 525.615 Q361.475 527.334 361.475 529.816 Q361.475 533.584 359.166 535.598 Q356.875 537.611 352.586 537.611 Q348.298 537.611 345.989 535.598 Q343.698 533.584 343.698 529.816 Q343.698 527.334 345.121 525.615 Q346.545 523.896 349.08 523.306 M347.795 517.768 Q347.795 519.782 349.045 520.91 Q350.312 522.039 352.586 522.039 Q354.843 522.039 356.111 520.91 Q357.395 519.782 357.395 517.768 Q357.395 515.754 356.111 514.625 Q354.843 513.497 352.586 513.497 Q350.312 513.497 349.045 514.625 Q347.795 515.754 347.795 517.768 Z" fill="#000000" fill-rule="evenodd" fill-opacity="1" /><path clip-path="url(#clip000)" d="M 0 0 M72.6588 736.106 L72.6588 732.911 Q73.9782 733.536 75.3324 733.866 Q76.6865 734.196 77.9886 734.196 Q81.4608 734.196 83.2837 731.87 Q85.124 729.526 85.3844 724.769 Q84.3775 726.262 82.8323 727.061 Q81.2872 727.859 79.4122 727.859 Q75.5234 727.859 73.2491 725.515 Q70.9921 723.154 70.9921 719.075 Q70.9921 715.081 73.3532 712.668 Q75.7143 710.255 79.6379 710.255 Q84.1344 710.255 86.4955 713.71 Q88.874 717.147 88.874 723.71 Q88.874 729.838 85.9573 733.502 Q83.058 737.147 78.1449 737.147 Q76.8254 737.147 75.4713 736.887 Q74.1171 736.627 72.6588 736.106 M79.6379 725.116 Q81.999 725.116 83.3705 723.502 Q84.7594 721.887 84.7594 719.075 Q84.7594 716.279 83.3705 714.665 Q81.999 713.033 79.6379 713.033 Q77.2768 713.033 75.8879 714.665 Q74.5164 716.279 74.5164 719.075 Q74.5164 721.887 75.8879 723.502 Q77.2768 725.116 79.6379 725.116 Z" fill="#000000" fill-rule="evenodd" fill-opacity="1" /><path clip-path="url(#clip000)" d="M 0 0 M71.4956 833.46 L77.2247 833.46 L77.2247 813.686 L70.9921 814.936 L70.9921 811.742 L77.19 810.492 L80.6969 810.492 L80.6969 833.46 L86.4261 833.46 L86.4261 836.412 L71.4956 836.412 L71.4956 833.46 Z" fill="#000000" fill-rule="evenodd" fill-opacity="1" /><path clip-path="url(#clip000)" d="M 0 0 M101.009 812.801 Q98.301 812.801 96.9295 815.474 Q95.5753 818.131 95.5753 823.478 Q95.5753 828.808 96.9295 831.481 Q98.301 834.138 101.009 834.138 Q103.735 834.138 105.089 831.481 Q106.461 828.808 106.461 823.478 Q106.461 818.131 105.089 815.474 Q103.735 812.801 101.009 812.801 M101.009 810.023 Q105.367 810.023 107.659 813.478 Q109.968 816.915 109.968 823.478 Q109.968 830.023 107.659 833.478 Q105.367 836.915 101.009 836.915 Q96.6517 836.915 94.3427 833.478 Q92.051 830.023 92.051 823.478 Q92.051 816.915 94.3427 813.478 Q96.6517 810.023 101.009 810.023 Z" fill="#000000" fill-rule="evenodd" fill-opacity="1" /><path clip-path="url(#clip000)" d="M 0 0 M207.848 733.692 L213.577 733.692 L213.577 713.918 L207.345 715.168 L207.345 711.974 L213.543 710.724 L217.05 710.724 L217.05 733.692 L222.779 733.692 L222.779 736.644 L207.848 736.644 L207.848 733.692 Z" fill="#000000" fill-rule="evenodd" fill-opacity="1" /><path clip-path="url(#clip000)" d="M 0 0 M230.47 733.692 L236.199 733.692 L236.199 713.918 L229.966 715.168 L229.966 711.974 L236.164 710.724 L239.671 710.724 L239.671 733.692 L245.4 733.692 L245.4 736.644 L230.47 736.644 L230.47 733.692 Z" fill="#000000" fill-rule="evenodd" fill-opacity="1" /><path clip-path="url(#clip000)" d="M 0 0 M207.848 833.46 L213.577 833.46 L213.577 813.686 L207.345 814.936 L207.345 811.742 L213.543 810.492 L217.05 810.492 L217.05 833.46 L222.779 833.46 L222.779 836.412 L207.848 836.412 L207.848 833.46 Z" fill="#000000" fill-rule="evenodd" fill-opacity="1" /><path clip-path="url(#clip000)" d="M 0 0 M232.883 833.46 L245.122 833.46 L245.122 836.412 L228.664 836.412 L228.664 833.46 Q230.661 831.394 234.098 827.922 Q237.553 824.433 238.438 823.426 Q240.122 821.533 240.782 820.231 Q241.459 818.912 241.459 817.645 Q241.459 815.579 240.001 814.277 Q238.56 812.974 236.234 812.974 Q234.584 812.974 232.744 813.547 Q230.921 814.12 228.838 815.283 L228.838 811.742 Q230.956 810.891 232.796 810.457 Q234.636 810.023 236.164 810.023 Q240.192 810.023 242.588 812.037 Q244.984 814.051 244.984 817.419 Q244.984 819.016 244.376 820.457 Q243.786 821.881 242.206 823.825 Q241.772 824.329 239.445 826.742 Q237.119 829.138 232.883 833.46 Z" fill="#000000" fill-rule="evenodd" fill-opacity="1" /><path clip-path="url(#clip000)" d="M 0 0 M139.672 284.737 L145.401 284.737 L145.401 264.963 L139.169 266.213 L139.169 263.018 L145.366 261.768 L148.873 261.768 L148.873 284.737 L154.602 284.737 L154.602 287.688 L139.672 287.688 L139.672 284.737 Z" fill="#000000" fill-rule="evenodd" fill-opacity="1" /><path clip-path="url(#clip000)" d="M 0 0 M172.311 273.712 Q174.828 274.251 176.234 275.952 Q177.658 277.653 177.658 280.153 Q177.658 283.99 175.019 286.091 Q172.38 288.192 167.519 288.192 Q165.887 288.192 164.151 287.862 Q162.432 287.549 160.592 286.907 L160.592 283.521 Q162.05 284.372 163.786 284.806 Q165.523 285.24 167.415 285.24 Q170.713 285.24 172.432 283.938 Q174.168 282.636 174.168 280.153 Q174.168 277.862 172.554 276.577 Q170.957 275.275 168.092 275.275 L165.071 275.275 L165.071 272.393 L168.231 272.393 Q170.818 272.393 172.189 271.369 Q173.561 270.327 173.561 268.383 Q173.561 266.386 172.137 265.327 Q170.731 264.251 168.092 264.251 Q166.651 264.251 165.002 264.563 Q163.352 264.876 161.373 265.535 L161.373 262.41 Q163.37 261.855 165.106 261.577 Q166.859 261.299 168.404 261.299 Q172.397 261.299 174.724 263.122 Q177.05 264.928 177.05 268.018 Q177.05 270.171 175.818 271.664 Q174.585 273.14 172.311 273.712 Z" fill="#000000" fill-rule="evenodd" fill-opacity="1" /><path clip-path="url(#clip000)" d="M 0 0 M139.672 384.505 L145.401 384.505 L145.401 364.73 L139.169 365.98 L139.169 362.786 L145.366 361.536 L148.873 361.536 L148.873 384.505 L154.602 384.505 L154.602 387.456 L139.672 387.456 L139.672 384.505 Z" fill="#000000" fill-rule="evenodd" fill-opacity="1" /><path clip-path="url(#clip000)" d="M 0 0 M171.321 364.592 L162.467 378.428 L171.321 378.428 L171.321 364.592 M170.401 361.536 L174.811 361.536 L174.811 378.428 L178.509 378.428 L178.509 381.345 L174.811 381.345 L174.811 387.456 L171.321 387.456 L171.321 381.345 L159.62 381.345 L159.62 377.96 L170.401 361.536 Z" fill="#000000" fill-rule="evenodd" fill-opacity="1" /><path clip-path="url(#clip000)" d="M 0 0 M276.025 883.344 L281.754 883.344 L281.754 863.57 L275.521 864.82 L275.521 861.626 L281.719 860.376 L285.226 860.376 L285.226 883.344 L290.955 883.344 L290.955 886.296 L276.025 886.296 L276.025 883.344 Z" fill="#000000" fill-rule="evenodd" fill-opacity="1" /><path clip-path="url(#clip000)" d="M 0 0 M298.073 860.376 L311.841 860.376 L311.841 863.327 L301.285 863.327 L301.285 869.681 Q302.049 869.421 302.813 869.299 Q303.577 869.16 304.341 869.16 Q308.681 869.16 311.216 871.539 Q313.75 873.917 313.75 877.98 Q313.75 882.164 311.146 884.49 Q308.542 886.799 303.802 886.799 Q302.17 886.799 300.469 886.521 Q298.785 886.244 296.979 885.688 L296.979 882.164 Q298.542 883.015 300.209 883.431 Q301.875 883.848 303.733 883.848 Q306.736 883.848 308.49 882.268 Q310.243 880.688 310.243 877.98 Q310.243 875.272 308.49 873.692 Q306.736 872.112 303.733 872.112 Q302.327 872.112 300.92 872.424 Q299.532 872.737 298.073 873.397 L298.073 860.376 Z" fill="#000000" fill-rule="evenodd" fill-opacity="1" /><path clip-path="url(#clip000)" d="M 0 0 M412.377 883.344 L418.107 883.344 L418.107 863.57 L411.874 864.82 L411.874 861.626 L418.072 860.376 L421.579 860.376 L421.579 883.344 L427.308 883.344 L427.308 886.296 L412.377 886.296 L412.377 883.344 Z" fill="#000000" fill-rule="evenodd" fill-opacity="1" /><path clip-path="url(#clip000)" d="M 0 0 M433.506 860.376 L450.172 860.376 L450.172 861.869 L440.763 886.296 L437.1 886.296 L445.954 863.327 L433.506 863.327 L433.506 860.376 Z" fill="#000000" fill-rule="evenodd" fill-opacity="1" /><path clip-path="url(#clip000)" d="M 0 0 M139.672 584.041 L145.401 584.041 L145.401 564.266 L139.169 565.516 L139.169 562.322 L145.366 561.072 L148.873 561.072 L148.873 584.041 L154.602 584.041 L154.602 586.992 L139.672 586.992 L139.672 584.041 Z" fill="#000000" fill-rule="evenodd" fill-opacity="1" /><path clip-path="url(#clip000)" d="M 0 0 M161.79 586.454 L161.79 583.259 Q163.109 583.884 164.464 584.214 Q165.818 584.544 167.12 584.544 Q170.592 584.544 172.415 582.218 Q174.255 579.874 174.516 575.117 Q173.509 576.61 171.963 577.409 Q170.418 578.207 168.543 578.207 Q164.654 578.207 162.38 575.864 Q160.123 573.502 160.123 569.423 Q160.123 565.43 162.484 563.016 Q164.845 560.603 168.769 560.603 Q173.266 560.603 175.627 564.058 Q178.005 567.496 178.005 574.058 Q178.005 580.186 175.088 583.85 Q172.189 587.495 167.276 587.495 Q165.957 587.495 164.602 587.235 Q163.248 586.975 161.79 586.454 M168.769 575.464 Q171.13 575.464 172.502 573.85 Q173.891 572.235 173.891 569.423 Q173.891 566.627 172.502 565.013 Q171.13 563.381 168.769 563.381 Q166.408 563.381 165.019 565.013 Q163.648 566.627 163.648 569.423 Q163.648 572.235 165.019 573.85 Q166.408 575.464 168.769 575.464 Z" fill="#000000" fill-rule="evenodd" fill-opacity="1" /><path clip-path="url(#clip000)" d="M 0 0 M143.387 683.809 L155.627 683.809 L155.627 686.76 L139.169 686.76 L139.169 683.809 Q141.165 681.743 144.603 678.27 Q148.057 674.781 148.943 673.774 Q150.627 671.881 151.286 670.579 Q151.964 669.26 151.964 667.993 Q151.964 665.927 150.505 664.625 Q149.064 663.323 146.738 663.323 Q145.089 663.323 143.248 663.895 Q141.425 664.468 139.342 665.632 L139.342 662.09 Q141.46 661.239 143.3 660.805 Q145.141 660.371 146.668 660.371 Q150.696 660.371 153.092 662.385 Q155.488 664.399 155.488 667.767 Q155.488 669.364 154.88 670.805 Q154.29 672.229 152.71 674.173 Q152.276 674.677 149.95 677.09 Q147.623 679.486 143.387 683.809 Z" fill="#000000" fill-rule="evenodd" fill-opacity="1" /><path clip-path="url(#clip000)" d="M 0 0 M170.488 663.149 Q167.779 663.149 166.408 665.823 Q165.054 668.479 165.054 673.826 Q165.054 679.156 166.408 681.829 Q167.779 684.486 170.488 684.486 Q173.213 684.486 174.568 681.829 Q175.939 679.156 175.939 673.826 Q175.939 668.479 174.568 665.823 Q173.213 663.149 170.488 663.149 M170.488 660.371 Q174.845 660.371 177.137 663.826 Q179.446 667.263 179.446 673.826 Q179.446 680.371 177.137 683.826 Q174.845 687.263 170.488 687.263 Q166.13 687.263 163.821 683.826 Q161.529 680.371 161.529 673.826 Q161.529 667.263 163.821 663.826 Q166.13 660.371 170.488 660.371 Z" fill="#000000" fill-rule="evenodd" fill-opacity="1" /><path clip-path="url(#clip000)" d="M 0 0 M279.74 584.041 L291.98 584.041 L291.98 586.992 L275.521 586.992 L275.521 584.041 Q277.518 581.975 280.955 578.502 Q284.41 575.013 285.296 574.006 Q286.98 572.114 287.639 570.811 Q288.316 569.492 288.316 568.225 Q288.316 566.159 286.858 564.857 Q285.417 563.555 283.091 563.555 Q281.441 563.555 279.601 564.127 Q277.778 564.7 275.695 565.864 L275.695 562.322 Q277.813 561.471 279.653 561.037 Q281.493 560.603 283.021 560.603 Q287.049 560.603 289.445 562.617 Q291.841 564.631 291.841 567.999 Q291.841 569.596 291.233 571.037 Q290.643 572.461 289.063 574.405 Q288.629 574.909 286.302 577.322 Q283.976 579.718 279.74 584.041 Z" fill="#000000" fill-rule="evenodd" fill-opacity="1" /><path clip-path="url(#clip000)" d="M 0 0 M299.948 584.041 L305.677 584.041 L305.677 564.266 L299.445 565.516 L299.445 562.322 L305.643 561.072 L309.15 561.072 L309.15 584.041 L314.879 584.041 L314.879 586.992 L299.948 586.992 L299.948 584.041 Z" fill="#000000" fill-rule="evenodd" fill-opacity="1" /><path clip-path="url(#clip000)" d="M 0 0 M279.74 683.809 L291.98 683.809 L291.98 686.76 L275.521 686.76 L275.521 683.809 Q277.518 681.743 280.955 678.27 Q284.41 674.781 285.296 673.774 Q286.98 671.881 287.639 670.579 Q288.316 669.26 288.316 667.993 Q288.316 665.927 286.858 664.625 Q285.417 663.323 283.091 663.323 Q281.441 663.323 279.601 663.895 Q277.778 664.468 275.695 665.632 L275.695 662.09 Q277.813 661.239 279.653 660.805 Q281.493 660.371 283.021 660.371 Q287.049 660.371 289.445 662.385 Q291.841 664.399 291.841 667.767 Q291.841 669.364 291.233 670.805 Q290.643 672.229 289.063 674.173 Q288.629 674.677 286.302 677.09 Q283.976 679.486 279.74 683.809 Z" fill="#000000" fill-rule="evenodd" fill-opacity="1" /><path clip-path="url(#clip000)" d="M 0 0 M302.361 683.809 L314.601 683.809 L314.601 686.76 L298.143 686.76 L298.143 683.809 Q300.139 681.743 303.577 678.27 Q307.032 674.781 307.917 673.774 Q309.601 671.881 310.261 670.579 Q310.938 669.26 310.938 667.993 Q310.938 665.927 309.479 664.625 Q308.038 663.323 305.712 663.323 Q304.063 663.323 302.223 663.895 Q300.4 664.468 298.316 665.632 L298.316 662.09 Q300.434 661.239 302.275 660.805 Q304.115 660.371 305.643 660.371 Q309.67 660.371 312.066 662.385 Q314.462 664.399 314.462 667.767 Q314.462 669.364 313.854 670.805 Q313.264 672.229 311.684 674.173 Q311.25 674.677 308.924 677.09 Q306.597 679.486 302.361 683.809 Z" fill="#000000" fill-rule="evenodd" fill-opacity="1" /><path clip-path="url(#clip000)" d="M 0 0 M416.093 584.041 L428.332 584.041 L428.332 586.992 L411.874 586.992 L411.874 584.041 Q413.871 581.975 417.308 578.502 Q420.763 575.013 421.648 574.006 Q423.332 572.114 423.992 570.811 Q424.669 569.492 424.669 568.225 Q424.669 566.159 423.211 564.857 Q421.77 563.555 419.443 563.555 Q417.794 563.555 415.954 564.127 Q414.131 564.7 412.048 565.864 L412.048 562.322 Q414.166 561.471 416.006 561.037 Q417.846 560.603 419.374 560.603 Q423.402 560.603 425.798 562.617 Q428.193 564.631 428.193 567.999 Q428.193 569.596 427.586 571.037 Q426.995 572.461 425.416 574.405 Q424.982 574.909 422.655 577.322 Q420.329 579.718 416.093 584.041 Z" fill="#000000" fill-rule="evenodd" fill-opacity="1" /><path clip-path="url(#clip000)" d="M 0 0 M446.318 573.016 Q448.836 573.555 450.242 575.256 Q451.665 576.957 451.665 579.457 Q451.665 583.294 449.027 585.395 Q446.388 587.495 441.527 587.495 Q439.895 587.495 438.159 587.166 Q436.44 586.853 434.6 586.211 L434.6 582.825 Q436.058 583.676 437.794 584.11 Q439.53 584.544 441.422 584.544 Q444.721 584.544 446.44 583.242 Q448.176 581.94 448.176 579.457 Q448.176 577.166 446.561 575.881 Q444.964 574.579 442.1 574.579 L439.079 574.579 L439.079 571.697 L442.238 571.697 Q444.825 571.697 446.197 570.673 Q447.568 569.631 447.568 567.686 Q447.568 565.69 446.145 564.631 Q444.738 563.555 442.1 563.555 Q440.659 563.555 439.009 563.867 Q437.36 564.18 435.381 564.839 L435.381 561.714 Q437.377 561.159 439.113 560.881 Q440.867 560.603 442.412 560.603 Q446.405 560.603 448.731 562.426 Q451.058 564.232 451.058 567.322 Q451.058 569.475 449.825 570.968 Q448.593 572.443 446.318 573.016 Z" fill="#000000" fill-rule="evenodd" fill-opacity="1" /><path clip-path="url(#clip000)" d="M 0 0 M416.093 683.809 L428.332 683.809 L428.332 686.76 L411.874 686.76 L411.874 683.809 Q413.871 681.743 417.308 678.27 Q420.763 674.781 421.648 673.774 Q423.332 671.881 423.992 670.579 Q424.669 669.26 424.669 667.993 Q424.669 665.927 423.211 664.625 Q421.77 663.323 419.443 663.323 Q417.794 663.323 415.954 663.895 Q414.131 664.468 412.048 665.632 L412.048 662.09 Q414.166 661.239 416.006 660.805 Q417.846 660.371 419.374 660.371 Q423.402 660.371 425.798 662.385 Q428.193 664.399 428.193 667.767 Q428.193 669.364 427.586 670.805 Q426.995 672.229 425.416 674.173 Q424.982 674.677 422.655 677.09 Q420.329 679.486 416.093 683.809 Z" fill="#000000" fill-rule="evenodd" fill-opacity="1" /><path clip-path="url(#clip000)" d="M 0 0 M445.329 663.895 L436.475 677.732 L445.329 677.732 L445.329 663.895 M444.409 660.84 L448.818 660.84 L448.818 677.732 L452.516 677.732 L452.516 680.649 L448.818 680.649 L448.818 686.76 L445.329 686.76 L445.329 680.649 L433.627 680.649 L433.627 677.263 L444.409 660.84 Z" fill="#000000" fill-rule="evenodd" fill-opacity="1" /><circle clip-path="url(#clip002)" cx="343.698" cy="145.812" r="14" fill="#0000ff" fill-rule="evenodd" fill-opacity="1" stroke="none"/>
<circle clip-path="url(#clip002)" cx="343.698" cy="245.58" r="14" fill="#0000ff" fill-rule="evenodd" fill-opacity="1" stroke="none"/>
<circle clip-path="url(#clip002)" cx="70.9921" cy="145.812" r="14" fill="#0000ff" fill-rule="evenodd" fill-opacity="1" stroke="none"/>
<circle clip-path="url(#clip002)" cx="70.9921" cy="245.58" r="14" fill="#0000ff" fill-rule="evenodd" fill-opacity="1" stroke="none"/>
<circle clip-path="url(#clip002)" cx="207.345" cy="145.812" r="14" fill="#0000ff" fill-rule="evenodd" fill-opacity="1" stroke="none"/>
<circle clip-path="url(#clip002)" cx="207.345" cy="245.58" r="14" fill="#0000ff" fill-rule="evenodd" fill-opacity="1" stroke="none"/>
<circle clip-path="url(#clip002)" cx="275.521" cy="295.464" r="14" fill="#0000ff" fill-rule="evenodd" fill-opacity="1" stroke="none"/>
<circle clip-path="url(#clip002)" cx="275.521" cy="395.232" r="14" fill="#0000ff" fill-rule="evenodd" fill-opacity="1" stroke="none"/>
<circle clip-path="url(#clip002)" cx="411.874" cy="295.464" r="14" fill="#0000ff" fill-rule="evenodd" fill-opacity="1" stroke="none"/>
<circle clip-path="url(#clip002)" cx="411.874" cy="395.232" r="14" fill="#0000ff" fill-rule="evenodd" fill-opacity="1" stroke="none"/>
<circle clip-path="url(#clip002)" cx="139.169" cy="95.9282" r="14" fill="#0000ff" fill-rule="evenodd" fill-opacity="1" stroke="none"/>
<circle clip-path="url(#clip002)" cx="275.521" cy="95.9282" r="14" fill="#0000ff" fill-rule="evenodd" fill-opacity="1" stroke="none"/>
<circle clip-path="url(#clip002)" cx="411.874" cy="95.9282" r="14" fill="#0000ff" fill-rule="evenodd" fill-opacity="1" stroke="none"/>
<path clip-path="url(#clip000)" d="M 0 0 M344.201 135.085 L349.93 135.085 L349.93 115.311 L343.698 116.561 L343.698 113.366 L349.896 112.116 L353.402 112.116 L353.402 135.085 L359.132 135.085 L359.132 138.036 L344.201 138.036 L344.201 135.085 Z" fill="#000000" fill-rule="evenodd" fill-opacity="1" /><path clip-path="url(#clip000)" d="M 0 0 M347.916 234.853 L360.156 234.853 L360.156 237.804 L343.698 237.804 L343.698 234.853 Q345.694 232.787 349.132 229.315 Q352.586 225.825 353.472 224.818 Q355.156 222.926 355.816 221.624 Q356.493 220.304 356.493 219.037 Q356.493 216.971 355.034 215.669 Q353.593 214.367 351.267 214.367 Q349.618 214.367 347.777 214.94 Q345.955 215.513 343.871 216.676 L343.871 213.134 Q345.989 212.283 347.83 211.849 Q349.67 211.415 351.198 211.415 Q355.225 211.415 357.621 213.429 Q360.017 215.443 360.017 218.811 Q360.017 220.408 359.409 221.849 Q358.819 223.273 357.239 225.217 Q356.805 225.721 354.479 228.134 Q352.152 230.53 347.916 234.853 Z" fill="#000000" fill-rule="evenodd" fill-opacity="1" /><path clip-path="url(#clip000)" d="M 0 0 M72.6588 137.498 L72.6588 134.304 Q73.9782 134.929 75.3324 135.258 Q76.6865 135.588 77.9886 135.588 Q81.4608 135.588 83.2837 133.262 Q85.124 130.918 85.3844 126.161 Q84.3775 127.654 82.8323 128.453 Q81.2872 129.252 79.4122 129.252 Q75.5234 129.252 73.2491 126.908 Q70.9921 124.547 70.9921 120.467 Q70.9921 116.474 73.3532 114.061 Q75.7143 111.647 79.6379 111.647 Q84.1344 111.647 86.4955 115.102 Q88.874 118.54 88.874 125.102 Q88.874 131.231 85.9573 134.894 Q83.058 138.54 78.1449 138.54 Q76.8254 138.54 75.4713 138.279 Q74.1171 138.019 72.6588 137.498 M79.6379 126.508 Q81.999 126.508 83.3705 124.894 Q84.7594 123.279 84.7594 120.467 Q84.7594 117.672 83.3705 116.057 Q81.999 114.425 79.6379 114.425 Q77.2768 114.425 75.8879 116.057 Q74.5164 117.672 74.5164 120.467 Q74.5164 123.279 75.8879 124.894 Q77.2768 126.508 79.6379 126.508 Z" fill="#000000" fill-rule="evenodd" fill-opacity="1" /><path clip-path="url(#clip000)" d="M 0 0 M71.4956 234.853 L77.2247 234.853 L77.2247 215.079 L70.9921 216.329 L70.9921 213.134 L77.19 211.884 L80.6969 211.884 L80.6969 234.853 L86.4261 234.853 L86.4261 237.804 L71.4956 237.804 L71.4956 234.853 Z" fill="#000000" fill-rule="evenodd" fill-opacity="1" /><path clip-path="url(#clip000)" d="M 0 0 M101.009 214.193 Q98.301 214.193 96.9295 216.867 Q95.5753 219.523 95.5753 224.87 Q95.5753 230.2 96.9295 232.874 Q98.301 235.53 101.009 235.53 Q103.735 235.53 105.089 232.874 Q106.461 230.2 106.461 224.87 Q106.461 219.523 105.089 216.867 Q103.735 214.193 101.009 214.193 M101.009 211.415 Q105.367 211.415 107.659 214.87 Q109.968 218.308 109.968 224.87 Q109.968 231.415 107.659 234.87 Q105.367 238.308 101.009 238.308 Q96.6517 238.308 94.3427 234.87 Q92.051 231.415 92.051 224.87 Q92.051 218.308 94.3427 214.87 Q96.6517 211.415 101.009 211.415 Z" fill="#000000" fill-rule="evenodd" fill-opacity="1" /><path clip-path="url(#clip000)" d="M 0 0 M207.848 135.085 L213.577 135.085 L213.577 115.311 L207.345 116.561 L207.345 113.366 L213.543 112.116 L217.05 112.116 L217.05 135.085 L222.779 135.085 L222.779 138.036 L207.848 138.036 L207.848 135.085 Z" fill="#000000" fill-rule="evenodd" fill-opacity="1" /><path clip-path="url(#clip000)" d="M 0 0 M230.47 135.085 L236.199 135.085 L236.199 115.311 L229.966 116.561 L229.966 113.366 L236.164 112.116 L239.671 112.116 L239.671 135.085 L245.4 135.085 L245.4 138.036 L230.47 138.036 L230.47 135.085 Z" fill="#000000" fill-rule="evenodd" fill-opacity="1" /><path clip-path="url(#clip000)" d="M 0 0 M207.848 234.853 L213.577 234.853 L213.577 215.079 L207.345 216.329 L207.345 213.134 L213.543 211.884 L217.05 211.884 L217.05 234.853 L222.779 234.853 L222.779 237.804 L207.848 237.804 L207.848 234.853 Z" fill="#000000" fill-rule="evenodd" fill-opacity="1" /><path clip-path="url(#clip000)" d="M 0 0 M232.883 234.853 L245.122 234.853 L245.122 237.804 L228.664 237.804 L228.664 234.853 Q230.661 232.787 234.098 229.315 Q237.553 225.825 238.438 224.818 Q240.122 222.926 240.782 221.624 Q241.459 220.304 241.459 219.037 Q241.459 216.971 240.001 215.669 Q238.56 214.367 236.234 214.367 Q234.584 214.367 232.744 214.94 Q230.921 215.513 228.838 216.676 L228.838 213.134 Q230.956 212.283 232.796 211.849 Q234.636 211.415 236.164 211.415 Q240.192 211.415 242.588 213.429 Q244.984 215.443 244.984 218.811 Q244.984 220.408 244.376 221.849 Q243.786 223.273 242.206 225.217 Q241.772 225.721 239.445 228.134 Q237.119 230.53 232.883 234.853 Z" fill="#000000" fill-rule="evenodd" fill-opacity="1" /><path clip-path="url(#clip000)" d="M 0 0 M276.025 284.737 L281.754 284.737 L281.754 264.963 L275.521 266.213 L275.521 263.018 L281.719 261.768 L285.226 261.768 L285.226 284.737 L290.955 284.737 L290.955 287.688 L276.025 287.688 L276.025 284.737 Z" fill="#000000" fill-rule="evenodd" fill-opacity="1" /><path clip-path="url(#clip000)" d="M 0 0 M298.073 261.768 L311.841 261.768 L311.841 264.719 L301.285 264.719 L301.285 271.074 Q302.049 270.813 302.813 270.692 Q303.577 270.553 304.341 270.553 Q308.681 270.553 311.216 272.931 Q313.75 275.31 313.75 279.372 Q313.75 283.556 311.146 285.883 Q308.542 288.192 303.802 288.192 Q302.17 288.192 300.469 287.914 Q298.785 287.636 296.979 287.08 L296.979 283.556 Q298.542 284.407 300.209 284.824 Q301.875 285.24 303.733 285.24 Q306.736 285.24 308.49 283.66 Q310.243 282.081 310.243 279.372 Q310.243 276.664 308.49 275.084 Q306.736 273.504 303.733 273.504 Q302.327 273.504 300.92 273.817 Q299.532 274.129 298.073 274.789 L298.073 261.768 Z" fill="#000000" fill-rule="evenodd" fill-opacity="1" /><path clip-path="url(#clip000)" d="M 0 0 M276.025 384.505 L281.754 384.505 L281.754 364.73 L275.521 365.98 L275.521 362.786 L281.719 361.536 L285.226 361.536 L285.226 384.505 L290.955 384.505 L290.955 387.456 L276.025 387.456 L276.025 384.505 Z" fill="#000000" fill-rule="evenodd" fill-opacity="1" /><path clip-path="url(#clip000)" d="M 0 0 M305.972 373.098 Q303.611 373.098 302.223 374.713 Q300.851 376.328 300.851 379.14 Q300.851 381.935 302.223 383.567 Q303.611 385.182 305.972 385.182 Q308.334 385.182 309.705 383.567 Q311.094 381.935 311.094 379.14 Q311.094 376.328 309.705 374.713 Q308.334 373.098 305.972 373.098 M312.934 362.109 L312.934 365.303 Q311.615 364.678 310.261 364.349 Q308.924 364.019 307.604 364.019 Q304.132 364.019 302.292 366.362 Q300.469 368.706 300.209 373.446 Q301.233 371.935 302.778 371.137 Q304.323 370.321 306.181 370.321 Q310.087 370.321 312.344 372.699 Q314.618 375.06 314.618 379.14 Q314.618 383.133 312.257 385.546 Q309.896 387.96 305.972 387.96 Q301.476 387.96 299.098 384.522 Q296.719 381.067 296.719 374.522 Q296.719 368.376 299.636 364.73 Q302.552 361.067 307.466 361.067 Q308.785 361.067 310.122 361.328 Q311.476 361.588 312.934 362.109 Z" fill="#000000" fill-rule="evenodd" fill-opacity="1" /><path clip-path="url(#clip000)" d="M 0 0 M412.377 284.737 L418.107 284.737 L418.107 264.963 L411.874 266.213 L411.874 263.018 L418.072 261.768 L421.579 261.768 L421.579 284.737 L427.308 284.737 L427.308 287.688 L412.377 287.688 L412.377 284.737 Z" fill="#000000" fill-rule="evenodd" fill-opacity="1" /><path clip-path="url(#clip000)" d="M 0 0 M433.506 261.768 L450.172 261.768 L450.172 263.261 L440.763 287.688 L437.1 287.688 L445.954 264.719 L433.506 264.719 L433.506 261.768 Z" fill="#000000" fill-rule="evenodd" fill-opacity="1" /><path clip-path="url(#clip000)" d="M 0 0 M412.377 384.505 L418.107 384.505 L418.107 364.73 L411.874 365.98 L411.874 362.786 L418.072 361.536 L421.579 361.536 L421.579 384.505 L427.308 384.505 L427.308 387.456 L412.377 387.456 L412.377 384.505 Z" fill="#000000" fill-rule="evenodd" fill-opacity="1" /><path clip-path="url(#clip000)" d="M 0 0 M441.891 375.147 Q439.391 375.147 437.95 376.484 Q436.527 377.821 436.527 380.164 Q436.527 382.508 437.95 383.845 Q439.391 385.182 441.891 385.182 Q444.391 385.182 445.832 383.845 Q447.273 382.491 447.273 380.164 Q447.273 377.821 445.832 376.484 Q444.409 375.147 441.891 375.147 M438.384 373.654 Q436.127 373.098 434.86 371.553 Q433.61 370.008 433.61 367.786 Q433.61 364.678 435.815 362.873 Q438.037 361.067 441.891 361.067 Q445.763 361.067 447.968 362.873 Q450.172 364.678 450.172 367.786 Q450.172 370.008 448.905 371.553 Q447.655 373.098 445.416 373.654 Q447.95 374.244 449.356 375.963 Q450.78 377.682 450.78 380.164 Q450.78 383.932 448.471 385.946 Q446.179 387.96 441.891 387.96 Q437.603 387.96 435.294 385.946 Q433.002 383.932 433.002 380.164 Q433.002 377.682 434.426 375.963 Q435.85 374.244 438.384 373.654 M437.1 368.116 Q437.1 370.13 438.35 371.258 Q439.617 372.387 441.891 372.387 Q444.148 372.387 445.416 371.258 Q446.7 370.13 446.7 368.116 Q446.7 366.102 445.416 364.974 Q444.148 363.845 441.891 363.845 Q439.617 363.845 438.35 364.974 Q437.1 366.102 437.1 368.116 Z" fill="#000000" fill-rule="evenodd" fill-opacity="1" /><path clip-path="url(#clip000)" d="M 0 0 M143.387 85.2008 L155.627 85.2008 L155.627 88.1522 L139.169 88.1522 L139.169 85.2008 Q141.165 83.1349 144.603 79.6627 Q148.057 76.1731 148.943 75.1662 Q150.627 73.2738 151.286 71.9718 Q151.964 70.6523 151.964 69.385 Q151.964 67.319 150.505 66.0169 Q149.064 64.7148 146.738 64.7148 Q145.089 64.7148 143.248 65.2878 Q141.425 65.8607 139.342 67.0239 L139.342 63.4822 Q141.46 62.6315 143.3 62.1975 Q145.141 61.7635 146.668 61.7635 Q150.696 61.7635 153.092 63.7774 Q155.488 65.7912 155.488 69.1593 Q155.488 70.7565 154.88 72.1974 Q154.29 73.621 152.71 75.5655 Q152.276 76.069 149.95 78.4821 Q147.623 80.878 143.387 85.2008 Z" fill="#000000" fill-rule="evenodd" fill-opacity="1" /><path clip-path="url(#clip000)" d="M 0 0 M170.488 64.5412 Q167.779 64.5412 166.408 67.2148 Q165.054 69.8711 165.054 75.2183 Q165.054 80.5481 166.408 83.2217 Q167.779 85.8779 170.488 85.8779 Q173.213 85.8779 174.568 83.2217 Q175.939 80.5481 175.939 75.2183 Q175.939 69.8711 174.568 67.2148 Q173.213 64.5412 170.488 64.5412 M170.488 61.7635 Q174.845 61.7635 177.137 65.2183 Q179.446 68.6558 179.446 75.2183 Q179.446 81.7634 177.137 85.2182 Q174.845 88.6557 170.488 88.6557 Q166.13 88.6557 163.821 85.2182 Q161.529 81.7634 161.529 75.2183 Q161.529 68.6558 163.821 65.2183 Q166.13 61.7635 170.488 61.7635 Z" fill="#000000" fill-rule="evenodd" fill-opacity="1" /><path clip-path="url(#clip000)" d="M 0 0 M279.74 85.2008 L291.98 85.2008 L291.98 88.1522 L275.521 88.1522 L275.521 85.2008 Q277.518 83.1349 280.955 79.6627 Q284.41 76.1731 285.296 75.1662 Q286.98 73.2738 287.639 71.9718 Q288.316 70.6523 288.316 69.385 Q288.316 67.319 286.858 66.0169 Q285.417 64.7148 283.091 64.7148 Q281.441 64.7148 279.601 65.2878 Q277.778 65.8607 275.695 67.0239 L275.695 63.4822 Q277.813 62.6315 279.653 62.1975 Q281.493 61.7635 283.021 61.7635 Q287.049 61.7635 289.445 63.7774 Q291.841 65.7912 291.841 69.1593 Q291.841 70.7565 291.233 72.1974 Q290.643 73.621 289.063 75.5655 Q288.629 76.069 286.302 78.4821 Q283.976 80.878 279.74 85.2008 Z" fill="#000000" fill-rule="evenodd" fill-opacity="1" /><path clip-path="url(#clip000)" d="M 0 0 M302.361 85.2008 L314.601 85.2008 L314.601 88.1522 L298.143 88.1522 L298.143 85.2008 Q300.139 83.1349 303.577 79.6627 Q307.032 76.1731 307.917 75.1662 Q309.601 73.2738 310.261 71.9718 Q310.938 70.6523 310.938 69.385 Q310.938 67.319 309.479 66.0169 Q308.038 64.7148 305.712 64.7148 Q304.063 64.7148 302.223 65.2878 Q300.4 65.8607 298.316 67.0239 L298.316 63.4822 Q300.434 62.6315 302.275 62.1975 Q304.115 61.7635 305.643 61.7635 Q309.67 61.7635 312.066 63.7774 Q314.462 65.7912 314.462 69.1593 Q314.462 70.7565 313.854 72.1974 Q313.264 73.621 311.684 75.5655 Q311.25 76.069 308.924 78.4821 Q306.597 80.878 302.361 85.2008 Z" fill="#000000" fill-rule="evenodd" fill-opacity="1" /><path clip-path="url(#clip000)" d="M 0 0 M416.093 85.2008 L428.332 85.2008 L428.332 88.1522 L411.874 88.1522 L411.874 85.2008 Q413.871 83.1349 417.308 79.6627 Q420.763 76.1731 421.648 75.1662 Q423.332 73.2738 423.992 71.9718 Q424.669 70.6523 424.669 69.385 Q424.669 67.319 423.211 66.0169 Q421.77 64.7148 419.443 64.7148 Q417.794 64.7148 415.954 65.2878 Q414.131 65.8607 412.048 67.0239 L412.048 63.4822 Q414.166 62.6315 416.006 62.1975 Q417.846 61.7635 419.374 61.7635 Q423.402 61.7635 425.798 63.7774 Q428.193 65.7912 428.193 69.1593 Q428.193 70.7565 427.586 72.1974 Q426.995 73.621 425.416 75.5655 Q424.982 76.069 422.655 78.4821 Q420.329 80.878 416.093 85.2008 Z" fill="#000000" fill-rule="evenodd" fill-opacity="1" /><path clip-path="url(#clip000)" d="M 0 0 M445.329 65.2878 L436.475 79.1245 L445.329 79.1245 L445.329 65.2878 M444.409 62.2322 L448.818 62.2322 L448.818 79.1245 L452.516 79.1245 L452.516 82.0411 L448.818 82.0411 L448.818 88.1522 L445.329 88.1522 L445.329 82.0411 L433.627 82.0411 L433.627 78.6557 L444.409 62.2322 Z" fill="#000000" fill-rule="evenodd" fill-opacity="1" /><circle clip-path="url(#clip002)" cx="480.05" cy="744.42" r="14" fill="#0000ff" fill-rule="evenodd" fill-opacity="1" stroke="none"/>
<circle clip-path="url(#clip002)" cx="480.05" cy="844.188" r="14" fill="#0000ff" fill-rule="evenodd" fill-opacity="1" stroke="none"/>
<circle clip-path="url(#clip002)" cx="616.403" cy="744.42" r="14" fill="#0000ff" fill-rule="evenodd" fill-opacity="1" stroke="none"/>
<circle clip-path="url(#clip002)" cx="616.403" cy="844.188" r="14" fill="#0000ff" fill-rule="evenodd" fill-opacity="1" stroke="none"/>
<circle clip-path="url(#clip002)" cx="752.756" cy="744.42" r="14" fill="#0000ff" fill-rule="evenodd" fill-opacity="1" stroke="none"/>
<circle clip-path="url(#clip002)" cx="752.756" cy="844.188" r="14" fill="#0000ff" fill-rule="evenodd" fill-opacity="1" stroke="none"/>
<circle clip-path="url(#clip002)" cx="548.227" cy="594.768" r="14" fill="#0000ff" fill-rule="evenodd" fill-opacity="1" stroke="none"/>
<circle clip-path="url(#clip002)" cx="548.227" cy="694.536" r="14" fill="#0000ff" fill-rule="evenodd" fill-opacity="1" stroke="none"/>
<circle clip-path="url(#clip002)" cx="548.227" cy="894.072" r="14" fill="#0000ff" fill-rule="evenodd" fill-opacity="1" stroke="none"/>
<circle clip-path="url(#clip002)" cx="684.58" cy="894.072" r="14" fill="#0000ff" fill-rule="evenodd" fill-opacity="1" stroke="none"/>
<path clip-path="url(#clip000)" d="M 0 0 M491.769 722.668 Q494.286 723.206 495.693 724.908 Q497.116 726.609 497.116 729.109 Q497.116 732.946 494.477 735.047 Q491.839 737.147 486.977 737.147 Q485.346 737.147 483.609 736.817 Q481.891 736.505 480.05 735.863 L480.05 732.477 Q481.509 733.328 483.245 733.762 Q484.981 734.196 486.873 734.196 Q490.172 734.196 491.891 732.894 Q493.627 731.592 493.627 729.109 Q493.627 726.818 492.012 725.533 Q490.415 724.231 487.55 724.231 L484.53 724.231 L484.53 721.349 L487.689 721.349 Q490.276 721.349 491.648 720.325 Q493.019 719.283 493.019 717.338 Q493.019 715.342 491.595 714.283 Q490.189 713.206 487.55 713.206 Q486.109 713.206 484.46 713.519 Q482.811 713.831 480.832 714.491 L480.832 711.366 Q482.828 710.811 484.564 710.533 Q486.318 710.255 487.863 710.255 Q491.856 710.255 494.182 712.078 Q496.509 713.884 496.509 716.974 Q496.509 719.127 495.276 720.62 Q494.043 722.095 491.769 722.668 Z" fill="#000000" fill-rule="evenodd" fill-opacity="1" /><path clip-path="url(#clip000)" d="M 0 0 M491.752 813.547 L482.898 827.384 L491.752 827.384 L491.752 813.547 M490.832 810.492 L495.241 810.492 L495.241 827.384 L498.939 827.384 L498.939 830.301 L495.241 830.301 L495.241 836.412 L491.752 836.412 L491.752 830.301 L480.05 830.301 L480.05 826.915 L490.832 810.492 Z" fill="#000000" fill-rule="evenodd" fill-opacity="1" /><path clip-path="url(#clip000)" d="M 0 0 M617.497 710.724 L631.264 710.724 L631.264 713.675 L620.709 713.675 L620.709 720.029 Q621.473 719.769 622.236 719.647 Q623 719.509 623.764 719.509 Q628.104 719.509 630.639 721.887 Q633.174 724.265 633.174 728.328 Q633.174 732.512 630.57 734.838 Q627.966 737.147 623.226 737.147 Q621.594 737.147 619.893 736.87 Q618.209 736.592 616.403 736.036 L616.403 732.512 Q617.966 733.363 619.632 733.779 Q621.299 734.196 623.157 734.196 Q626.16 734.196 627.914 732.616 Q629.667 731.036 629.667 728.328 Q629.667 725.62 627.914 724.04 Q626.16 722.46 623.157 722.46 Q621.75 722.46 620.344 722.772 Q618.955 723.085 617.497 723.745 L617.497 710.724 Z" fill="#000000" fill-rule="evenodd" fill-opacity="1" /><path clip-path="url(#clip000)" d="M 0 0 M625.657 822.054 Q623.295 822.054 621.907 823.669 Q620.535 825.283 620.535 828.096 Q620.535 830.891 621.907 832.523 Q623.295 834.138 625.657 834.138 Q628.018 834.138 629.389 832.523 Q630.778 830.891 630.778 828.096 Q630.778 825.283 629.389 823.669 Q628.018 822.054 625.657 822.054 M632.618 811.065 L632.618 814.259 Q631.299 813.634 629.945 813.304 Q628.608 812.974 627.289 812.974 Q623.816 812.974 621.976 815.318 Q620.153 817.662 619.893 822.401 Q620.917 820.891 622.462 820.092 Q624.007 819.276 625.865 819.276 Q629.771 819.276 632.028 821.655 Q634.302 824.016 634.302 828.096 Q634.302 832.089 631.941 834.502 Q629.58 836.915 625.657 836.915 Q621.16 836.915 618.782 833.478 Q616.403 830.023 616.403 823.478 Q616.403 817.332 619.32 813.686 Q622.236 810.023 627.15 810.023 Q628.469 810.023 629.806 810.283 Q631.16 810.544 632.618 811.065 Z" fill="#000000" fill-rule="evenodd" fill-opacity="1" /><path clip-path="url(#clip000)" d="M 0 0 M752.756 710.724 L769.422 710.724 L769.422 712.217 L760.013 736.644 L756.35 736.644 L765.204 713.675 L752.756 713.675 L752.756 710.724 Z" fill="#000000" fill-rule="evenodd" fill-opacity="1" /><path clip-path="url(#clip000)" d="M 0 0 M761.645 824.103 Q759.145 824.103 757.704 825.44 Q756.28 826.776 756.28 829.12 Q756.28 831.464 757.704 832.801 Q759.145 834.138 761.645 834.138 Q764.145 834.138 765.586 832.801 Q767.027 831.447 767.027 829.12 Q767.027 826.776 765.586 825.44 Q764.162 824.103 761.645 824.103 M758.138 822.61 Q755.881 822.054 754.614 820.509 Q753.364 818.964 753.364 816.742 Q753.364 813.634 755.568 811.829 Q757.791 810.023 761.645 810.023 Q765.516 810.023 767.721 811.829 Q769.926 813.634 769.926 816.742 Q769.926 818.964 768.659 820.509 Q767.409 822.054 765.169 822.61 Q767.704 823.2 769.11 824.919 Q770.534 826.638 770.534 829.12 Q770.534 832.888 768.225 834.901 Q765.933 836.915 761.645 836.915 Q757.357 836.915 755.048 834.901 Q752.756 832.888 752.756 829.12 Q752.756 826.638 754.18 824.919 Q755.603 823.2 758.138 822.61 M756.853 817.072 Q756.853 819.086 758.103 820.214 Q759.37 821.342 761.645 821.342 Q763.902 821.342 765.169 820.214 Q766.454 819.086 766.454 817.072 Q766.454 815.058 765.169 813.929 Q763.902 812.801 761.645 812.801 Q759.37 812.801 758.103 813.929 Q756.853 815.058 756.853 817.072 Z" fill="#000000" fill-rule="evenodd" fill-opacity="1" /><path clip-path="url(#clip000)" d="M 0 0 M548.73 584.041 L554.459 584.041 L554.459 564.266 L548.227 565.516 L548.227 562.322 L554.425 561.072 L557.932 561.072 L557.932 584.041 L563.661 584.041 L563.661 586.992 L548.73 586.992 L548.73 584.041 Z" fill="#000000" fill-rule="evenodd" fill-opacity="1" /><path clip-path="url(#clip000)" d="M 0 0 M581.369 573.016 Q583.886 573.555 585.293 575.256 Q586.716 576.957 586.716 579.457 Q586.716 583.294 584.077 585.395 Q581.438 587.495 576.577 587.495 Q574.945 587.495 573.209 587.166 Q571.491 586.853 569.65 586.211 L569.65 582.825 Q571.109 583.676 572.845 584.11 Q574.581 584.544 576.473 584.544 Q579.772 584.544 581.49 583.242 Q583.227 581.94 583.227 579.457 Q583.227 577.166 581.612 575.881 Q580.015 574.579 577.15 574.579 L574.129 574.579 L574.129 571.697 L577.289 571.697 Q579.876 571.697 581.247 570.673 Q582.619 569.631 582.619 567.686 Q582.619 565.69 581.195 564.631 Q579.789 563.555 577.15 563.555 Q575.709 563.555 574.06 563.867 Q572.411 564.18 570.432 564.839 L570.432 561.714 Q572.428 561.159 574.164 560.881 Q575.918 560.603 577.463 560.603 Q581.456 560.603 583.782 562.426 Q586.109 564.232 586.109 567.322 Q586.109 569.475 584.876 570.968 Q583.643 572.443 581.369 573.016 Z" fill="#000000" fill-rule="evenodd" fill-opacity="1" /><path clip-path="url(#clip000)" d="M 0 0 M548.73 683.809 L554.459 683.809 L554.459 664.034 L548.227 665.284 L548.227 662.09 L554.425 660.84 L557.932 660.84 L557.932 683.809 L563.661 683.809 L563.661 686.76 L548.73 686.76 L548.73 683.809 Z" fill="#000000" fill-rule="evenodd" fill-opacity="1" /><path clip-path="url(#clip000)" d="M 0 0 M580.379 663.895 L571.525 677.732 L580.379 677.732 L580.379 663.895 M579.459 660.84 L583.869 660.84 L583.869 677.732 L587.567 677.732 L587.567 680.649 L583.869 680.649 L583.869 686.76 L580.379 686.76 L580.379 680.649 L568.678 680.649 L568.678 677.263 L579.459 660.84 Z" fill="#000000" fill-rule="evenodd" fill-opacity="1" /><path clip-path="url(#clip000)" d="M 0 0 M548.73 883.344 L554.459 883.344 L554.459 863.57 L548.227 864.82 L548.227 861.626 L554.425 860.376 L557.932 860.376 L557.932 883.344 L563.661 883.344 L563.661 886.296 L548.73 886.296 L548.73 883.344 Z" fill="#000000" fill-rule="evenodd" fill-opacity="1" /><path clip-path="url(#clip000)" d="M 0 0 M570.848 885.758 L570.848 882.563 Q572.168 883.188 573.522 883.518 Q574.876 883.848 576.178 883.848 Q579.65 883.848 581.473 881.521 Q583.313 879.178 583.574 874.421 Q582.567 875.914 581.022 876.712 Q579.477 877.511 577.602 877.511 Q573.713 877.511 571.438 875.167 Q569.182 872.806 569.182 868.726 Q569.182 864.733 571.543 862.32 Q573.904 859.907 577.827 859.907 Q582.324 859.907 584.685 863.362 Q587.063 866.799 587.063 873.362 Q587.063 879.49 584.147 883.153 Q581.247 886.799 576.334 886.799 Q575.015 886.799 573.661 886.539 Q572.307 886.278 570.848 885.758 M577.827 874.768 Q580.188 874.768 581.56 873.153 Q582.949 871.539 582.949 868.726 Q582.949 865.931 581.56 864.317 Q580.188 862.685 577.827 862.685 Q575.466 862.685 574.077 864.317 Q572.706 865.931 572.706 868.726 Q572.706 871.539 574.077 873.153 Q575.466 874.768 577.827 874.768 Z" fill="#000000" fill-rule="evenodd" fill-opacity="1" /><path clip-path="url(#clip000)" d="M 0 0 M688.798 883.344 L701.038 883.344 L701.038 886.296 L684.58 886.296 L684.58 883.344 Q686.576 881.278 690.014 877.806 Q693.468 874.317 694.354 873.31 Q696.038 871.417 696.698 870.115 Q697.375 868.796 697.375 867.529 Q697.375 865.463 695.916 864.16 Q694.475 862.858 692.149 862.858 Q690.5 862.858 688.659 863.431 Q686.836 864.004 684.753 865.167 L684.753 861.626 Q686.871 860.775 688.711 860.341 Q690.552 859.907 692.079 859.907 Q696.107 859.907 698.503 861.921 Q700.899 863.935 700.899 867.303 Q700.899 868.9 700.291 870.341 Q699.701 871.765 698.121 873.709 Q697.687 874.213 695.361 876.626 Q693.034 879.022 688.798 883.344 Z" fill="#000000" fill-rule="evenodd" fill-opacity="1" /><path clip-path="url(#clip000)" d="M 0 0 M709.006 883.344 L714.736 883.344 L714.736 863.57 L708.503 864.82 L708.503 861.626 L714.701 860.376 L718.208 860.376 L718.208 883.344 L723.937 883.344 L723.937 886.296 L709.006 886.296 L709.006 883.344 Z" fill="#000000" fill-rule="evenodd" fill-opacity="1" /><circle clip-path="url(#clip002)" cx="752.756" cy="445.116" r="14" fill="#0000ff" fill-rule="evenodd" fill-opacity="1" stroke="none"/>
<circle clip-path="url(#clip002)" cx="752.756" cy="544.884" r="14" fill="#0000ff" fill-rule="evenodd" fill-opacity="1" stroke="none"/>
<circle clip-path="url(#clip002)" cx="480.05" cy="145.812" r="14" fill="#0000ff" fill-rule="evenodd" fill-opacity="1" stroke="none"/>
<circle clip-path="url(#clip002)" cx="480.05" cy="245.58" r="14" fill="#0000ff" fill-rule="evenodd" fill-opacity="1" stroke="none"/>
<circle clip-path="url(#clip002)" cx="616.403" cy="145.812" r="14" fill="#0000ff" fill-rule="evenodd" fill-opacity="1" stroke="none"/>
<circle clip-path="url(#clip002)" cx="616.403" cy="245.58" r="14" fill="#0000ff" fill-rule="evenodd" fill-opacity="1" stroke="none"/>
<circle clip-path="url(#clip002)" cx="752.756" cy="145.812" r="14" fill="#0000ff" fill-rule="evenodd" fill-opacity="1" stroke="none"/>
<circle clip-path="url(#clip002)" cx="752.756" cy="245.58" r="14" fill="#0000ff" fill-rule="evenodd" fill-opacity="1" stroke="none"/>
<circle clip-path="url(#clip002)" cx="480.05" cy="445.116" r="14" fill="#0000ff" fill-rule="evenodd" fill-opacity="1" stroke="none"/>
<circle clip-path="url(#clip002)" cx="480.05" cy="544.884" r="14" fill="#0000ff" fill-rule="evenodd" fill-opacity="1" stroke="none"/>
<circle clip-path="url(#clip002)" cx="616.403" cy="445.116" r="14" fill="#0000ff" fill-rule="evenodd" fill-opacity="1" stroke="none"/>
<circle clip-path="url(#clip002)" cx="616.403" cy="544.884" r="14" fill="#0000ff" fill-rule="evenodd" fill-opacity="1" stroke="none"/>
<circle clip-path="url(#clip002)" cx="548.227" cy="95.9282" r="14" fill="#0000ff" fill-rule="evenodd" fill-opacity="1" stroke="none"/>
<circle clip-path="url(#clip002)" cx="684.58" cy="594.768" r="14" fill="#0000ff" fill-rule="evenodd" fill-opacity="1" stroke="none"/>
<circle clip-path="url(#clip002)" cx="684.58" cy="694.536" r="14" fill="#0000ff" fill-rule="evenodd" fill-opacity="1" stroke="none"/>
<circle clip-path="url(#clip002)" cx="548.227" cy="295.464" r="14" fill="#0000ff" fill-rule="evenodd" fill-opacity="1" stroke="none"/>
<circle clip-path="url(#clip002)" cx="548.227" cy="395.232" r="14" fill="#0000ff" fill-rule="evenodd" fill-opacity="1" stroke="none"/>
<circle clip-path="url(#clip002)" cx="684.58" cy="295.464" r="14" fill="#0000ff" fill-rule="evenodd" fill-opacity="1" stroke="none"/>
<circle clip-path="url(#clip002)" cx="684.58" cy="395.232" r="14" fill="#0000ff" fill-rule="evenodd" fill-opacity="1" stroke="none"/>
<path clip-path="url(#clip000)" d="M 0 0 M753.259 434.389 L758.989 434.389 L758.989 414.614 L752.756 415.864 L752.756 412.67 L758.954 411.42 L762.461 411.42 L762.461 434.389 L768.19 434.389 L768.19 437.34 L753.259 437.34 L753.259 434.389 Z" fill="#000000" fill-rule="evenodd" fill-opacity="1" /><path clip-path="url(#clip000)" d="M 0 0 M756.975 534.157 L769.214 534.157 L769.214 537.108 L752.756 537.108 L752.756 534.157 Q754.752 532.091 758.19 528.618 Q761.645 525.129 762.53 524.122 Q764.214 522.23 764.874 520.928 Q765.551 519.608 765.551 518.341 Q765.551 516.275 764.093 514.973 Q762.652 513.671 760.325 513.671 Q758.676 513.671 756.836 514.244 Q755.013 514.816 752.93 515.98 L752.93 512.438 Q755.048 511.587 756.888 511.153 Q758.728 510.719 760.256 510.719 Q764.284 510.719 766.679 512.733 Q769.075 514.747 769.075 518.115 Q769.075 519.712 768.468 521.153 Q767.877 522.577 766.297 524.521 Q765.863 525.025 763.537 527.438 Q761.211 529.834 756.975 534.157 Z" fill="#000000" fill-rule="evenodd" fill-opacity="1" /><path clip-path="url(#clip000)" d="M 0 0 M491.769 124.061 Q494.286 124.599 495.693 126.3 Q497.116 128.002 497.116 130.502 Q497.116 134.338 494.477 136.439 Q491.839 138.54 486.977 138.54 Q485.346 138.54 483.609 138.21 Q481.891 137.897 480.05 137.255 L480.05 133.87 Q481.509 134.72 483.245 135.154 Q484.981 135.588 486.873 135.588 Q490.172 135.588 491.891 134.286 Q493.627 132.984 493.627 130.502 Q493.627 128.21 492.012 126.925 Q490.415 125.623 487.55 125.623 L484.53 125.623 L484.53 122.741 L487.689 122.741 Q490.276 122.741 491.648 121.717 Q493.019 120.675 493.019 118.731 Q493.019 116.734 491.595 115.675 Q490.189 114.599 487.55 114.599 Q486.109 114.599 484.46 114.911 Q482.811 115.224 480.832 115.884 L480.832 112.759 Q482.828 112.203 484.564 111.925 Q486.318 111.647 487.863 111.647 Q491.856 111.647 494.182 113.47 Q496.509 115.276 496.509 118.366 Q496.509 120.519 495.276 122.012 Q494.043 123.488 491.769 124.061 Z" fill="#000000" fill-rule="evenodd" fill-opacity="1" /><path clip-path="url(#clip000)" d="M 0 0 M491.752 214.94 L482.898 228.776 L491.752 228.776 L491.752 214.94 M490.832 211.884 L495.241 211.884 L495.241 228.776 L498.939 228.776 L498.939 231.693 L495.241 231.693 L495.241 237.804 L491.752 237.804 L491.752 231.693 L480.05 231.693 L480.05 228.308 L490.832 211.884 Z" fill="#000000" fill-rule="evenodd" fill-opacity="1" /><path clip-path="url(#clip000)" d="M 0 0 M617.497 112.116 L631.264 112.116 L631.264 115.068 L620.709 115.068 L620.709 121.422 Q621.473 121.161 622.236 121.04 Q623 120.901 623.764 120.901 Q628.104 120.901 630.639 123.279 Q633.174 125.658 633.174 129.72 Q633.174 133.904 630.57 136.231 Q627.966 138.54 623.226 138.54 Q621.594 138.54 619.893 138.262 Q618.209 137.984 616.403 137.429 L616.403 133.904 Q617.966 134.755 619.632 135.172 Q621.299 135.588 623.157 135.588 Q626.16 135.588 627.914 134.008 Q629.667 132.429 629.667 129.72 Q629.667 127.012 627.914 125.432 Q626.16 123.852 623.157 123.852 Q621.75 123.852 620.344 124.165 Q618.955 124.477 617.497 125.137 L617.497 112.116 Z" fill="#000000" fill-rule="evenodd" fill-opacity="1" /><path clip-path="url(#clip000)" d="M 0 0 M625.657 223.447 Q623.295 223.447 621.907 225.061 Q620.535 226.676 620.535 229.488 Q620.535 232.283 621.907 233.915 Q623.295 235.53 625.657 235.53 Q628.018 235.53 629.389 233.915 Q630.778 232.283 630.778 229.488 Q630.778 226.676 629.389 225.061 Q628.018 223.447 625.657 223.447 M632.618 212.457 L632.618 215.651 Q631.299 215.026 629.945 214.697 Q628.608 214.367 627.289 214.367 Q623.816 214.367 621.976 216.711 Q620.153 219.054 619.893 223.794 Q620.917 222.283 622.462 221.485 Q624.007 220.669 625.865 220.669 Q629.771 220.669 632.028 223.047 Q634.302 225.408 634.302 229.488 Q634.302 233.481 631.941 235.894 Q629.58 238.308 625.657 238.308 Q621.16 238.308 618.782 234.87 Q616.403 231.415 616.403 224.87 Q616.403 218.724 619.32 215.079 Q622.236 211.415 627.15 211.415 Q628.469 211.415 629.806 211.676 Q631.16 211.936 632.618 212.457 Z" fill="#000000" fill-rule="evenodd" fill-opacity="1" /><path clip-path="url(#clip000)" d="M 0 0 M752.756 112.116 L769.422 112.116 L769.422 113.609 L760.013 138.036 L756.35 138.036 L765.204 115.068 L752.756 115.068 L752.756 112.116 Z" fill="#000000" fill-rule="evenodd" fill-opacity="1" /><path clip-path="url(#clip000)" d="M 0 0 M761.645 225.495 Q759.145 225.495 757.704 226.832 Q756.28 228.169 756.28 230.513 Q756.28 232.856 757.704 234.193 Q759.145 235.53 761.645 235.53 Q764.145 235.53 765.586 234.193 Q767.027 232.839 767.027 230.513 Q767.027 228.169 765.586 226.832 Q764.162 225.495 761.645 225.495 M758.138 224.002 Q755.881 223.447 754.614 221.901 Q753.364 220.356 753.364 218.134 Q753.364 215.026 755.568 213.221 Q757.791 211.415 761.645 211.415 Q765.516 211.415 767.721 213.221 Q769.926 215.026 769.926 218.134 Q769.926 220.356 768.659 221.901 Q767.409 223.447 765.169 224.002 Q767.704 224.592 769.11 226.311 Q770.534 228.03 770.534 230.513 Q770.534 234.28 768.225 236.294 Q765.933 238.308 761.645 238.308 Q757.357 238.308 755.048 236.294 Q752.756 234.28 752.756 230.513 Q752.756 228.03 754.18 226.311 Q755.603 224.592 758.138 224.002 M756.853 218.464 Q756.853 220.478 758.103 221.606 Q759.37 222.735 761.645 222.735 Q763.902 222.735 765.169 221.606 Q766.454 220.478 766.454 218.464 Q766.454 216.45 765.169 215.322 Q763.902 214.193 761.645 214.193 Q759.37 214.193 758.103 215.322 Q756.853 216.45 756.853 218.464 Z" fill="#000000" fill-rule="evenodd" fill-opacity="1" /><path clip-path="url(#clip000)" d="M 0 0 M481.717 436.802 L481.717 433.607 Q483.036 434.232 484.391 434.562 Q485.745 434.892 487.047 434.892 Q490.519 434.892 492.342 432.566 Q494.182 430.222 494.443 425.465 Q493.436 426.958 491.891 427.757 Q490.345 428.555 488.47 428.555 Q484.582 428.555 482.307 426.212 Q480.05 423.851 480.05 419.771 Q480.05 415.778 482.411 413.364 Q484.773 410.951 488.696 410.951 Q493.193 410.951 495.554 414.406 Q497.932 417.844 497.932 424.406 Q497.932 430.535 495.016 434.198 Q492.116 437.843 487.203 437.843 Q485.884 437.843 484.53 437.583 Q483.175 437.323 481.717 436.802 M488.696 425.812 Q491.057 425.812 492.429 424.198 Q493.818 422.583 493.818 419.771 Q493.818 416.976 492.429 415.361 Q491.057 413.729 488.696 413.729 Q486.335 413.729 484.946 415.361 Q483.575 416.976 483.575 419.771 Q483.575 422.583 484.946 424.198 Q486.335 425.812 488.696 425.812 Z" fill="#000000" fill-rule="evenodd" fill-opacity="1" /><path clip-path="url(#clip000)" d="M 0 0 M480.554 534.157 L486.283 534.157 L486.283 514.382 L480.05 515.632 L480.05 512.438 L486.248 511.188 L489.755 511.188 L489.755 534.157 L495.484 534.157 L495.484 537.108 L480.554 537.108 L480.554 534.157 Z" fill="#000000" fill-rule="evenodd" fill-opacity="1" /><path clip-path="url(#clip000)" d="M 0 0 M510.068 513.497 Q507.359 513.497 505.988 516.171 Q504.634 518.827 504.634 524.174 Q504.634 529.504 505.988 532.177 Q507.359 534.834 510.068 534.834 Q512.793 534.834 514.147 532.177 Q515.519 529.504 515.519 524.174 Q515.519 518.827 514.147 516.171 Q512.793 513.497 510.068 513.497 M510.068 510.719 Q514.425 510.719 516.717 514.174 Q519.026 517.612 519.026 524.174 Q519.026 530.719 516.717 534.174 Q514.425 537.611 510.068 537.611 Q505.71 537.611 503.401 534.174 Q501.109 530.719 501.109 524.174 Q501.109 517.612 503.401 514.174 Q505.71 510.719 510.068 510.719 Z" fill="#000000" fill-rule="evenodd" fill-opacity="1" /><path clip-path="url(#clip000)" d="M 0 0 M616.907 434.389 L622.636 434.389 L622.636 414.614 L616.403 415.864 L616.403 412.67 L622.601 411.42 L626.108 411.42 L626.108 434.389 L631.837 434.389 L631.837 437.34 L616.907 437.34 L616.907 434.389 Z" fill="#000000" fill-rule="evenodd" fill-opacity="1" /><path clip-path="url(#clip000)" d="M 0 0 M639.528 434.389 L645.257 434.389 L645.257 414.614 L639.025 415.864 L639.025 412.67 L645.222 411.42 L648.729 411.42 L648.729 434.389 L654.459 434.389 L654.459 437.34 L639.528 437.34 L639.528 434.389 Z" fill="#000000" fill-rule="evenodd" fill-opacity="1" /><path clip-path="url(#clip000)" d="M 0 0 M616.907 534.157 L622.636 534.157 L622.636 514.382 L616.403 515.632 L616.403 512.438 L622.601 511.188 L626.108 511.188 L626.108 534.157 L631.837 534.157 L631.837 537.108 L616.907 537.108 L616.907 534.157 Z" fill="#000000" fill-rule="evenodd" fill-opacity="1" /><path clip-path="url(#clip000)" d="M 0 0 M641.941 534.157 L654.181 534.157 L654.181 537.108 L637.722 537.108 L637.722 534.157 Q639.719 532.091 643.156 528.618 Q646.611 525.129 647.497 524.122 Q649.181 522.23 649.84 520.928 Q650.518 519.608 650.518 518.341 Q650.518 516.275 649.059 514.973 Q647.618 513.671 645.292 513.671 Q643.643 513.671 641.802 514.244 Q639.979 514.816 637.896 515.98 L637.896 512.438 Q640.014 511.587 641.854 511.153 Q643.695 510.719 645.222 510.719 Q649.25 510.719 651.646 512.733 Q654.042 514.747 654.042 518.115 Q654.042 519.712 653.434 521.153 Q652.844 522.577 651.264 524.521 Q650.83 525.025 648.504 527.438 Q646.177 529.834 641.941 534.157 Z" fill="#000000" fill-rule="evenodd" fill-opacity="1" /><path clip-path="url(#clip000)" d="M 0 0 M548.73 85.2008 L554.459 85.2008 L554.459 65.4266 L548.227 66.6766 L548.227 63.4822 L554.425 62.2322 L557.932 62.2322 L557.932 85.2008 L563.661 85.2008 L563.661 88.1522 L548.73 88.1522 L548.73 85.2008 Z" fill="#000000" fill-rule="evenodd" fill-opacity="1" /><path clip-path="url(#clip000)" d="M 0 0 M580.379 65.2878 L571.525 79.1245 L580.379 79.1245 L580.379 65.2878 M579.459 62.2322 L583.869 62.2322 L583.869 79.1245 L587.567 79.1245 L587.567 82.0411 L583.869 82.0411 L583.869 88.1522 L580.379 88.1522 L580.379 82.0411 L568.678 82.0411 L568.678 78.6557 L579.459 62.2322 Z" fill="#000000" fill-rule="evenodd" fill-opacity="1" /><path clip-path="url(#clip000)" d="M 0 0 M685.083 584.041 L690.812 584.041 L690.812 564.266 L684.58 565.516 L684.58 562.322 L690.777 561.072 L694.284 561.072 L694.284 584.041 L700.013 584.041 L700.013 586.992 L685.083 586.992 L685.083 584.041 Z" fill="#000000" fill-rule="evenodd" fill-opacity="1" /><path clip-path="url(#clip000)" d="M 0 0 M707.131 561.072 L720.899 561.072 L720.899 564.023 L710.343 564.023 L710.343 570.377 Q711.107 570.117 711.871 569.996 Q712.635 569.857 713.399 569.857 Q717.739 569.857 720.274 572.235 Q722.808 574.614 722.808 578.676 Q722.808 582.86 720.204 585.186 Q717.6 587.495 712.861 587.495 Q711.229 587.495 709.527 587.218 Q707.843 586.94 706.038 586.384 L706.038 582.86 Q707.6 583.711 709.267 584.127 Q710.934 584.544 712.791 584.544 Q715.795 584.544 717.548 582.964 Q719.302 581.384 719.302 578.676 Q719.302 575.968 717.548 574.388 Q715.795 572.808 712.791 572.808 Q711.385 572.808 709.979 573.12 Q708.59 573.433 707.131 574.093 L707.131 561.072 Z" fill="#000000" fill-rule="evenodd" fill-opacity="1" /><path clip-path="url(#clip000)" d="M 0 0 M685.083 683.809 L690.812 683.809 L690.812 664.034 L684.58 665.284 L684.58 662.09 L690.777 660.84 L694.284 660.84 L694.284 683.809 L700.013 683.809 L700.013 686.76 L685.083 686.76 L685.083 683.809 Z" fill="#000000" fill-rule="evenodd" fill-opacity="1" /><path clip-path="url(#clip000)" d="M 0 0 M715.031 672.402 Q712.67 672.402 711.281 674.017 Q709.909 675.631 709.909 678.444 Q709.909 681.239 711.281 682.871 Q712.67 684.486 715.031 684.486 Q717.392 684.486 718.763 682.871 Q720.152 681.239 720.152 678.444 Q720.152 675.631 718.763 674.017 Q717.392 672.402 715.031 672.402 M721.993 661.413 L721.993 664.607 Q720.673 663.982 719.319 663.652 Q717.982 663.323 716.663 663.323 Q713.19 663.323 711.35 665.666 Q709.527 668.01 709.267 672.75 Q710.291 671.239 711.836 670.441 Q713.381 669.625 715.239 669.625 Q719.145 669.625 721.402 672.003 Q723.677 674.364 723.677 678.444 Q723.677 682.437 721.315 684.85 Q718.954 687.263 715.031 687.263 Q710.534 687.263 708.156 683.826 Q705.777 680.371 705.777 673.826 Q705.777 667.68 708.694 664.034 Q711.611 660.371 716.524 660.371 Q717.843 660.371 719.18 660.632 Q720.534 660.892 721.993 661.413 Z" fill="#000000" fill-rule="evenodd" fill-opacity="1" /><path clip-path="url(#clip000)" d="M 0 0 M548.73 284.737 L554.459 284.737 L554.459 264.963 L548.227 266.213 L548.227 263.018 L554.425 261.768 L557.932 261.768 L557.932 284.737 L563.661 284.737 L563.661 287.688 L548.73 287.688 L548.73 284.737 Z" fill="#000000" fill-rule="evenodd" fill-opacity="1" /><path clip-path="url(#clip000)" d="M 0 0 M570.848 287.15 L570.848 283.955 Q572.168 284.58 573.522 284.91 Q574.876 285.24 576.178 285.24 Q579.65 285.24 581.473 282.914 Q583.313 280.57 583.574 275.813 Q582.567 277.306 581.022 278.105 Q579.477 278.903 577.602 278.903 Q573.713 278.903 571.438 276.56 Q569.182 274.199 569.182 270.119 Q569.182 266.126 571.543 263.713 Q573.904 261.299 577.827 261.299 Q582.324 261.299 584.685 264.754 Q587.063 268.192 587.063 274.754 Q587.063 280.883 584.147 284.546 Q581.247 288.192 576.334 288.192 Q575.015 288.192 573.661 287.931 Q572.307 287.671 570.848 287.15 M577.827 276.16 Q580.188 276.16 581.56 274.546 Q582.949 272.931 582.949 270.119 Q582.949 267.324 581.56 265.709 Q580.188 264.077 577.827 264.077 Q575.466 264.077 574.077 265.709 Q572.706 267.324 572.706 270.119 Q572.706 272.931 574.077 274.546 Q575.466 276.16 577.827 276.16 Z" fill="#000000" fill-rule="evenodd" fill-opacity="1" /><path clip-path="url(#clip000)" d="M 0 0 M552.445 384.505 L564.685 384.505 L564.685 387.456 L548.227 387.456 L548.227 384.505 Q550.223 382.439 553.661 378.967 Q557.116 375.477 558.001 374.47 Q559.685 372.578 560.345 371.276 Q561.022 369.956 561.022 368.689 Q561.022 366.623 559.564 365.321 Q558.123 364.019 555.796 364.019 Q554.147 364.019 552.307 364.592 Q550.484 365.165 548.4 366.328 L548.4 362.786 Q550.518 361.935 552.359 361.501 Q554.199 361.067 555.727 361.067 Q559.754 361.067 562.15 363.081 Q564.546 365.095 564.546 368.463 Q564.546 370.06 563.938 371.501 Q563.348 372.925 561.768 374.869 Q561.334 375.373 559.008 377.786 Q556.682 380.182 552.445 384.505 Z" fill="#000000" fill-rule="evenodd" fill-opacity="1" /><path clip-path="url(#clip000)" d="M 0 0 M579.546 363.845 Q576.838 363.845 575.466 366.519 Q574.112 369.175 574.112 374.522 Q574.112 379.852 575.466 382.526 Q576.838 385.182 579.546 385.182 Q582.272 385.182 583.626 382.526 Q584.997 379.852 584.997 374.522 Q584.997 369.175 583.626 366.519 Q582.272 363.845 579.546 363.845 M579.546 361.067 Q583.904 361.067 586.195 364.522 Q588.504 367.96 588.504 374.522 Q588.504 381.067 586.195 384.522 Q583.904 387.96 579.546 387.96 Q575.188 387.96 572.879 384.522 Q570.588 381.067 570.588 374.522 Q570.588 367.96 572.879 364.522 Q575.188 361.067 579.546 361.067 Z" fill="#000000" fill-rule="evenodd" fill-opacity="1" /><path clip-path="url(#clip000)" d="M 0 0 M688.798 284.737 L701.038 284.737 L701.038 287.688 L684.58 287.688 L684.58 284.737 Q686.576 282.671 690.014 279.199 Q693.468 275.709 694.354 274.702 Q696.038 272.81 696.698 271.508 Q697.375 270.188 697.375 268.921 Q697.375 266.855 695.916 265.553 Q694.475 264.251 692.149 264.251 Q690.5 264.251 688.659 264.824 Q686.836 265.397 684.753 266.56 L684.753 263.018 Q686.871 262.167 688.711 261.733 Q690.552 261.299 692.079 261.299 Q696.107 261.299 698.503 263.313 Q700.899 265.327 700.899 268.695 Q700.899 270.292 700.291 271.733 Q699.701 273.157 698.121 275.101 Q697.687 275.605 695.361 278.018 Q693.034 280.414 688.798 284.737 Z" fill="#000000" fill-rule="evenodd" fill-opacity="1" /><path clip-path="url(#clip000)" d="M 0 0 M709.006 284.737 L714.736 284.737 L714.736 264.963 L708.503 266.213 L708.503 263.018 L714.701 261.768 L718.208 261.768 L718.208 284.737 L723.937 284.737 L723.937 287.688 L709.006 287.688 L709.006 284.737 Z" fill="#000000" fill-rule="evenodd" fill-opacity="1" /><path clip-path="url(#clip000)" d="M 0 0 M688.798 384.505 L701.038 384.505 L701.038 387.456 L684.58 387.456 L684.58 384.505 Q686.576 382.439 690.014 378.967 Q693.468 375.477 694.354 374.47 Q696.038 372.578 696.698 371.276 Q697.375 369.956 697.375 368.689 Q697.375 366.623 695.916 365.321 Q694.475 364.019 692.149 364.019 Q690.5 364.019 688.659 364.592 Q686.836 365.165 684.753 366.328 L684.753 362.786 Q686.871 361.935 688.711 361.501 Q690.552 361.067 692.079 361.067 Q696.107 361.067 698.503 363.081 Q700.899 365.095 700.899 368.463 Q700.899 370.06 700.291 371.501 Q699.701 372.925 698.121 374.869 Q697.687 375.373 695.361 377.786 Q693.034 380.182 688.798 384.505 Z" fill="#000000" fill-rule="evenodd" fill-opacity="1" /><path clip-path="url(#clip000)" d="M 0 0 M711.42 384.505 L723.659 384.505 L723.659 387.456 L707.201 387.456 L707.201 384.505 Q709.197 382.439 712.635 378.967 Q716.09 375.477 716.975 374.47 Q718.659 372.578 719.319 371.276 Q719.996 369.956 719.996 368.689 Q719.996 366.623 718.538 365.321 Q717.097 364.019 714.77 364.019 Q713.121 364.019 711.281 364.592 Q709.458 365.165 707.375 366.328 L707.375 362.786 Q709.493 361.935 711.333 361.501 Q713.173 361.067 714.701 361.067 Q718.729 361.067 721.124 363.081 Q723.52 365.095 723.52 368.463 Q723.52 370.06 722.913 371.501 Q722.322 372.925 720.743 374.869 Q720.309 375.373 717.982 377.786 Q715.656 380.182 711.42 384.505 Z" fill="#000000" fill-rule="evenodd" fill-opacity="1" /><circle clip-path="url(#clip002)" cx="684.58" cy="95.9282" r="14" fill="#0000ff" fill-rule="evenodd" fill-opacity="1" stroke="none"/>
<path clip-path="url(#clip000)" d="M 0 0 M685.083 85.2008 L690.812 85.2008 L690.812 65.4266 L684.58 66.6766 L684.58 63.4822 L690.777 62.2322 L694.284 62.2322 L694.284 85.2008 L700.013 85.2008 L700.013 88.1522 L685.083 88.1522 L685.083 85.2008 Z" fill="#000000" fill-rule="evenodd" fill-opacity="1" /><path clip-path="url(#clip000)" d="M 0 0 M715.031 73.7947 Q712.67 73.7947 711.281 75.4092 Q709.909 77.0238 709.909 79.8363 Q709.909 82.6314 711.281 84.2634 Q712.67 85.8779 715.031 85.8779 Q717.392 85.8779 718.763 84.2634 Q720.152 82.6314 720.152 79.8363 Q720.152 77.0238 718.763 75.4092 Q717.392 73.7947 715.031 73.7947 M721.993 62.8051 L721.993 65.9996 Q720.673 65.3746 719.319 65.0447 Q717.982 64.7148 716.663 64.7148 Q713.19 64.7148 711.35 67.0586 Q709.527 69.4023 709.267 74.1419 Q710.291 72.6315 711.836 71.8329 Q713.381 71.0169 715.239 71.0169 Q719.145 71.0169 721.402 73.3954 Q723.677 75.7565 723.677 79.8363 Q723.677 83.8293 721.315 86.2425 Q718.954 88.6557 715.031 88.6557 Q710.534 88.6557 708.156 85.2182 Q705.777 81.7634 705.777 75.2183 Q705.777 69.0725 708.694 65.4266 Q711.611 61.7635 716.524 61.7635 Q717.843 61.7635 719.18 62.0239 Q720.534 62.2843 721.993 62.8051 Z" fill="#000000" fill-rule="evenodd" fill-opacity="1" /></svg>
