<?xml version="1.0" encoding="utf-8"?>
<svg xmlns="http://www.w3.org/2000/svg" xmlns:xlink="http://www.w3.org/1999/xlink" width="600" height="400" viewBox="0 0 2400 1600">
<defs>
  <clipPath id="clip130">
    <rect x="0" y="0" width="2400" height="1600"/>
  </clipPath>
</defs>
<path clip-path="url(#clip130)" d="
M0 1600 L2400 1600 L2400 0 L0 0  Z
  " fill="#ffffff" fill-rule="evenodd" fill-opacity="1"/>
<defs>
  <clipPath id="clip131">
    <rect x="480" y="0" width="1681" height="1600"/>
  </clipPath>
</defs>
<path clip-path="url(#clip130)" d="
M482.992 1521.01 L1956.76 1521.01 L1956.76 47.2441 L482.992 47.2441  Z
  " fill="#ffffff" fill-rule="evenodd" fill-opacity="1"/>
<defs>
  <clipPath id="clip132">
    <rect x="482" y="47" width="1475" height="1475"/>
  </clipPath>
</defs>
<polyline clip-path="url(#clip132)" style="stroke:#000000; stroke-width:2; stroke-opacity:0.1; fill:none" points="
  482.992,1521.01 482.992,47.2441 
  "/>
<polyline clip-path="url(#clip132)" style="stroke:#000000; stroke-width:2; stroke-opacity:0.1; fill:none" points="
  851.433,1521.01 851.433,47.2441 
  "/>
<polyline clip-path="url(#clip132)" style="stroke:#000000; stroke-width:2; stroke-opacity:0.1; fill:none" points="
  1219.87,1521.01 1219.87,47.2441 
  "/>
<polyline clip-path="url(#clip132)" style="stroke:#000000; stroke-width:2; stroke-opacity:0.1; fill:none" points="
  1588.31,1521.01 1588.31,47.2441 
  "/>
<polyline clip-path="url(#clip132)" style="stroke:#000000; stroke-width:2; stroke-opacity:0.1; fill:none" points="
  1956.76,1521.01 1956.76,47.2441 
  "/>
<polyline clip-path="url(#clip130)" style="stroke:#000000; stroke-width:4; stroke-opacity:1; fill:none" points="
  482.992,1521.01 1956.76,1521.01 
  "/>
<polyline clip-path="url(#clip130)" style="stroke:#000000; stroke-width:4; stroke-opacity:1; fill:none" points="
  482.992,1521.01 482.992,1503.32 
  "/>
<polyline clip-path="url(#clip130)" style="stroke:#000000; stroke-width:4; stroke-opacity:1; fill:none" points="
  851.433,1521.01 851.433,1503.32 
  "/>
<polyline clip-path="url(#clip130)" style="stroke:#000000; stroke-width:4; stroke-opacity:1; fill:none" points="
  1219.87,1521.01 1219.87,1503.32 
  "/>
<polyline clip-path="url(#clip130)" style="stroke:#000000; stroke-width:4; stroke-opacity:1; fill:none" points="
  1588.31,1521.01 1588.31,1503.32 
  "/>
<polyline clip-path="url(#clip130)" style="stroke:#000000; stroke-width:4; stroke-opacity:1; fill:none" points="
  1956.76,1521.01 1956.76,1503.32 
  "/>
<path clip-path="url(#clip130)" d="M 0 0 M452.934 1564.85 L482.61 1564.85 L482.61 1568.79 L452.934 1568.79 L452.934 1564.85 Z" fill="#000000" fill-rule="evenodd" fill-opacity="1" /><path clip-path="url(#clip130)" d="M 0 0 M496.73 1577.74 L513.05 1577.74 L513.05 1581.68 L491.106 1581.68 L491.106 1577.74 Q493.768 1574.99 498.351 1570.36 Q502.957 1565.71 504.138 1564.37 Q506.383 1561.84 507.263 1560.11 Q508.166 1558.35 508.166 1556.66 Q508.166 1553.9 506.221 1552.17 Q504.3 1550.43 501.198 1550.43 Q498.999 1550.43 496.545 1551.19 Q494.115 1551.96 491.337 1553.51 L491.337 1548.79 Q494.161 1547.65 496.615 1547.07 Q499.068 1546.49 501.105 1546.49 Q506.476 1546.49 509.67 1549.18 Q512.865 1551.87 512.865 1556.36 Q512.865 1558.49 512.054 1560.41 Q511.267 1562.3 509.161 1564.9 Q508.582 1565.57 505.48 1568.79 Q502.379 1571.98 496.73 1577.74 Z" fill="#000000" fill-rule="evenodd" fill-opacity="1" /><path clip-path="url(#clip130)" d="M 0 0 M821.19 1564.85 L850.866 1564.85 L850.866 1568.79 L821.19 1568.79 L821.19 1564.85 Z" fill="#000000" fill-rule="evenodd" fill-opacity="1" /><path clip-path="url(#clip130)" d="M 0 0 M861.769 1577.74 L869.408 1577.74 L869.408 1551.38 L861.097 1553.05 L861.097 1548.79 L869.361 1547.12 L874.037 1547.12 L874.037 1577.74 L881.676 1577.74 L881.676 1581.68 L861.769 1581.68 L861.769 1577.74 Z" fill="#000000" fill-rule="evenodd" fill-opacity="1" /><path clip-path="url(#clip130)" d="M 0 0 M1219.87 1550.2 Q1216.26 1550.2 1214.43 1553.76 Q1212.63 1557.31 1212.63 1564.43 Q1212.63 1571.54 1214.43 1575.11 Q1216.26 1578.65 1219.87 1578.65 Q1223.51 1578.65 1225.31 1575.11 Q1227.14 1571.54 1227.14 1564.43 Q1227.14 1557.31 1225.31 1553.76 Q1223.51 1550.2 1219.87 1550.2 M1219.87 1546.49 Q1225.68 1546.49 1228.74 1551.1 Q1231.82 1555.68 1231.82 1564.43 Q1231.82 1573.16 1228.74 1577.77 Q1225.68 1582.35 1219.87 1582.35 Q1214.06 1582.35 1210.99 1577.77 Q1207.93 1573.16 1207.93 1564.43 Q1207.93 1555.68 1210.99 1551.1 Q1214.06 1546.49 1219.87 1546.49 Z" fill="#000000" fill-rule="evenodd" fill-opacity="1" /><path clip-path="url(#clip130)" d="M 0 0 M1578.7 1577.74 L1586.34 1577.74 L1586.34 1551.38 L1578.03 1553.05 L1578.03 1548.79 L1586.29 1547.12 L1590.97 1547.12 L1590.97 1577.74 L1598.6 1577.74 L1598.6 1581.68 L1578.7 1581.68 L1578.7 1577.74 Z" fill="#000000" fill-rule="evenodd" fill-opacity="1" /><path clip-path="url(#clip130)" d="M 0 0 M1951.41 1577.74 L1967.73 1577.74 L1967.73 1581.68 L1945.78 1581.68 L1945.78 1577.74 Q1948.45 1574.99 1953.03 1570.36 Q1957.64 1565.71 1958.82 1564.37 Q1961.06 1561.84 1961.94 1560.11 Q1962.84 1558.35 1962.84 1556.66 Q1962.84 1553.9 1960.9 1552.17 Q1958.98 1550.43 1955.88 1550.43 Q1953.68 1550.43 1951.22 1551.19 Q1948.79 1551.96 1946.02 1553.51 L1946.02 1548.79 Q1948.84 1547.65 1951.29 1547.07 Q1953.75 1546.49 1955.78 1546.49 Q1961.15 1546.49 1964.35 1549.18 Q1967.54 1551.87 1967.54 1556.36 Q1967.54 1558.49 1966.73 1560.41 Q1965.95 1562.3 1963.84 1564.9 Q1963.26 1565.57 1960.16 1568.79 Q1957.06 1571.98 1951.41 1577.74 Z" fill="#000000" fill-rule="evenodd" fill-opacity="1" /><polyline clip-path="url(#clip132)" style="stroke:#000000; stroke-width:2; stroke-opacity:0.1; fill:none" points="
  482.992,1521.01 1956.76,1521.01 
  "/>
<polyline clip-path="url(#clip132)" style="stroke:#000000; stroke-width:2; stroke-opacity:0.1; fill:none" points="
  482.992,1152.57 1956.76,1152.57 
  "/>
<polyline clip-path="url(#clip132)" style="stroke:#000000; stroke-width:2; stroke-opacity:0.1; fill:none" points="
  482.992,784.126 1956.76,784.126 
  "/>
<polyline clip-path="url(#clip132)" style="stroke:#000000; stroke-width:2; stroke-opacity:0.1; fill:none" points="
  482.992,415.685 1956.76,415.685 
  "/>
<polyline clip-path="url(#clip132)" style="stroke:#000000; stroke-width:2; stroke-opacity:0.1; fill:none" points="
  482.992,47.2441 1956.76,47.2441 
  "/>
<polyline clip-path="url(#clip130)" style="stroke:#000000; stroke-width:4; stroke-opacity:1; fill:none" points="
  482.992,1521.01 482.992,47.2441 
  "/>
<polyline clip-path="url(#clip130)" style="stroke:#000000; stroke-width:4; stroke-opacity:1; fill:none" points="
  482.992,1521.01 500.677,1521.01 
  "/>
<polyline clip-path="url(#clip130)" style="stroke:#000000; stroke-width:4; stroke-opacity:1; fill:none" points="
  482.992,1152.57 500.677,1152.57 
  "/>
<polyline clip-path="url(#clip130)" style="stroke:#000000; stroke-width:4; stroke-opacity:1; fill:none" points="
  482.992,784.126 500.677,784.126 
  "/>
<polyline clip-path="url(#clip130)" style="stroke:#000000; stroke-width:4; stroke-opacity:1; fill:none" points="
  482.992,415.685 500.677,415.685 
  "/>
<polyline clip-path="url(#clip130)" style="stroke:#000000; stroke-width:4; stroke-opacity:1; fill:none" points="
  482.992,47.2441 500.677,47.2441 
  "/>
<path clip-path="url(#clip130)" d="M 0 0 M386.877 1521.46 L416.552 1521.46 L416.552 1525.39 L386.877 1525.39 L386.877 1521.46 Z" fill="#000000" fill-rule="evenodd" fill-opacity="1" /><path clip-path="url(#clip130)" d="M 0 0 M430.673 1534.35 L446.992 1534.35 L446.992 1538.29 L425.048 1538.29 L425.048 1534.35 Q427.71 1531.6 432.293 1526.97 Q436.9 1522.32 438.08 1520.97 Q440.325 1518.45 441.205 1516.71 Q442.108 1514.95 442.108 1513.26 Q442.108 1510.51 440.163 1508.77 Q438.242 1507.04 435.14 1507.04 Q432.941 1507.04 430.488 1507.8 Q428.057 1508.57 425.279 1510.12 L425.279 1505.39 Q428.103 1504.26 430.557 1503.68 Q433.011 1503.1 435.048 1503.1 Q440.418 1503.1 443.613 1505.79 Q446.807 1508.47 446.807 1512.96 Q446.807 1515.09 445.997 1517.01 Q445.21 1518.91 443.103 1521.51 Q442.525 1522.18 439.423 1525.39 Q436.321 1528.59 430.673 1534.35 Z" fill="#000000" fill-rule="evenodd" fill-opacity="1" /><path clip-path="url(#clip130)" d="M 0 0 M386.506 1153.02 L416.182 1153.02 L416.182 1156.95 L386.506 1156.95 L386.506 1153.02 Z" fill="#000000" fill-rule="evenodd" fill-opacity="1" /><path clip-path="url(#clip130)" d="M 0 0 M427.085 1165.91 L434.724 1165.91 L434.724 1139.55 L426.414 1141.21 L426.414 1136.95 L434.677 1135.29 L439.353 1135.29 L439.353 1165.91 L446.992 1165.91 L446.992 1169.85 L427.085 1169.85 L427.085 1165.91 Z" fill="#000000" fill-rule="evenodd" fill-opacity="1" /><path clip-path="url(#clip130)" d="M 0 0 M435.048 769.925 Q431.437 769.925 429.608 773.489 Q427.802 777.031 427.802 784.161 Q427.802 791.267 429.608 794.832 Q431.437 798.374 435.048 798.374 Q438.682 798.374 440.488 794.832 Q442.316 791.267 442.316 784.161 Q442.316 777.031 440.488 773.489 Q438.682 769.925 435.048 769.925 M435.048 766.221 Q440.858 766.221 443.913 770.827 Q446.992 775.411 446.992 784.161 Q446.992 792.888 443.913 797.494 Q440.858 802.077 435.048 802.077 Q429.238 802.077 426.159 797.494 Q423.103 792.888 423.103 784.161 Q423.103 775.411 426.159 770.827 Q429.238 766.221 435.048 766.221 Z" fill="#000000" fill-rule="evenodd" fill-opacity="1" /><path clip-path="url(#clip130)" d="M 0 0 M427.085 429.03 L434.724 429.03 L434.724 402.664 L426.414 404.331 L426.414 400.072 L434.677 398.405 L439.353 398.405 L439.353 429.03 L446.992 429.03 L446.992 432.965 L427.085 432.965 L427.085 429.03 Z" fill="#000000" fill-rule="evenodd" fill-opacity="1" /><path clip-path="url(#clip130)" d="M 0 0 M430.673 60.5889 L446.992 60.5889 L446.992 64.5241 L425.048 64.5241 L425.048 60.5889 Q427.71 57.8343 432.293 53.2047 Q436.9 48.552 438.08 47.2094 Q440.325 44.6862 441.205 42.9501 Q442.108 41.1909 442.108 39.5011 Q442.108 36.7465 440.163 35.0104 Q438.242 33.2743 435.14 33.2743 Q432.941 33.2743 430.488 34.0381 Q428.057 34.802 425.279 36.3529 L425.279 31.6308 Q428.103 30.4965 430.557 29.9178 Q433.011 29.3391 435.048 29.3391 Q440.418 29.3391 443.613 32.0243 Q446.807 34.7094 446.807 39.2002 Q446.807 41.3298 445.997 43.2511 Q445.21 45.1492 443.103 47.7418 Q442.525 48.4131 439.423 51.6306 Q436.321 54.8251 430.673 60.5889 Z" fill="#000000" fill-rule="evenodd" fill-opacity="1" /><circle clip-path="url(#clip132)" cx="482.992" cy="1422.28" r="10" fill="#000000" fill-rule="evenodd" fill-opacity="1" stroke="none"/>
<circle clip-path="url(#clip132)" cx="851.433" cy="1422.28" r="10" fill="#000000" fill-rule="evenodd" fill-opacity="1" stroke="none"/>
<circle clip-path="url(#clip132)" cx="667.213" cy="1103.21" r="10" fill="#000000" fill-rule="evenodd" fill-opacity="1" stroke="none"/>
<circle clip-path="url(#clip132)" cx="482.992" cy="784.126" r="10" fill="#000000" fill-rule="evenodd" fill-opacity="1" stroke="none"/>
<circle clip-path="url(#clip132)" cx="1219.87" cy="1422.28" r="10" fill="#000000" fill-rule="evenodd" fill-opacity="1" stroke="none"/>
<circle clip-path="url(#clip132)" cx="1035.65" cy="1103.21" r="10" fill="#000000" fill-rule="evenodd" fill-opacity="1" stroke="none"/>
<circle clip-path="url(#clip132)" cx="851.433" cy="784.126" r="10" fill="#000000" fill-rule="evenodd" fill-opacity="1" stroke="none"/>
<circle clip-path="url(#clip132)" cx="667.213" cy="465.047" r="10" fill="#000000" fill-rule="evenodd" fill-opacity="1" stroke="none"/>
<circle clip-path="url(#clip132)" cx="482.992" cy="145.968" r="10" fill="#000000" fill-rule="evenodd" fill-opacity="1" stroke="none"/>
<circle clip-path="url(#clip132)" cx="1588.31" cy="1422.28" r="10" fill="#000000" fill-rule="evenodd" fill-opacity="1" stroke="none"/>
<circle clip-path="url(#clip132)" cx="1404.09" cy="1103.21" r="10" fill="#000000" fill-rule="evenodd" fill-opacity="1" stroke="none"/>
<circle clip-path="url(#clip132)" cx="1219.87" cy="784.126" r="10" fill="#000000" fill-rule="evenodd" fill-opacity="1" stroke="none"/>
<circle clip-path="url(#clip132)" cx="1035.65" cy="465.047" r="10" fill="#000000" fill-rule="evenodd" fill-opacity="1" stroke="none"/>
<circle clip-path="url(#clip132)" cx="851.433" cy="145.968" r="10" fill="#000000" fill-rule="evenodd" fill-opacity="1" stroke="none"/>
<circle clip-path="url(#clip132)" cx="1956.76" cy="1422.28" r="10" fill="#000000" fill-rule="evenodd" fill-opacity="1" stroke="none"/>
<circle clip-path="url(#clip132)" cx="1772.54" cy="1103.21" r="10" fill="#000000" fill-rule="evenodd" fill-opacity="1" stroke="none"/>
<circle clip-path="url(#clip132)" cx="1588.31" cy="784.126" r="10" fill="#000000" fill-rule="evenodd" fill-opacity="1" stroke="none"/>
<circle clip-path="url(#clip132)" cx="1404.09" cy="465.047" r="10" fill="#000000" fill-rule="evenodd" fill-opacity="1" stroke="none"/>
<circle clip-path="url(#clip132)" cx="1219.87" cy="145.968" r="10" fill="#000000" fill-rule="evenodd" fill-opacity="1" stroke="none"/>
<circle clip-path="url(#clip132)" cx="1956.76" cy="784.126" r="10" fill="#000000" fill-rule="evenodd" fill-opacity="1" stroke="none"/>
<circle clip-path="url(#clip132)" cx="1772.54" cy="465.047" r="10" fill="#000000" fill-rule="evenodd" fill-opacity="1" stroke="none"/>
<circle clip-path="url(#clip132)" cx="1588.31" cy="145.968" r="10" fill="#000000" fill-rule="evenodd" fill-opacity="1" stroke="none"/>
<circle clip-path="url(#clip132)" cx="1956.76" cy="145.968" r="10" fill="#000000" fill-rule="evenodd" fill-opacity="1" stroke="none"/>
<circle clip-path="url(#clip132)" cx="667.213" cy="1315.92" r="18" fill="#ff0000" fill-rule="evenodd" fill-opacity="1" stroke="#000000" stroke-opacity="1" stroke-width="0"/>
<circle clip-path="url(#clip132)" cx="482.992" cy="996.845" r="18" fill="#ff0000" fill-rule="evenodd" fill-opacity="1" stroke="#000000" stroke-opacity="1" stroke-width="0"/>
<circle clip-path="url(#clip132)" cx="1035.65" cy="1315.92" r="18" fill="#ff0000" fill-rule="evenodd" fill-opacity="1" stroke="#000000" stroke-opacity="1" stroke-width="0"/>
<circle clip-path="url(#clip132)" cx="851.433" cy="996.845" r="18" fill="#ff0000" fill-rule="evenodd" fill-opacity="1" stroke="#000000" stroke-opacity="1" stroke-width="0"/>
<circle clip-path="url(#clip132)" cx="667.213" cy="677.766" r="18" fill="#ff0000" fill-rule="evenodd" fill-opacity="1" stroke="#000000" stroke-opacity="1" stroke-width="0"/>
<circle clip-path="url(#clip132)" cx="482.992" cy="358.687" r="18" fill="#ff0000" fill-rule="evenodd" fill-opacity="1" stroke="#000000" stroke-opacity="1" stroke-width="0"/>
<circle clip-path="url(#clip132)" cx="1404.09" cy="1315.92" r="18" fill="#ff0000" fill-rule="evenodd" fill-opacity="1" stroke="#000000" stroke-opacity="1" stroke-width="0"/>
<circle clip-path="url(#clip132)" cx="1219.87" cy="996.845" r="18" fill="#ff0000" fill-rule="evenodd" fill-opacity="1" stroke="#000000" stroke-opacity="1" stroke-width="0"/>
<circle clip-path="url(#clip132)" cx="1035.65" cy="677.766" r="18" fill="#ff0000" fill-rule="evenodd" fill-opacity="1" stroke="#000000" stroke-opacity="1" stroke-width="0"/>
<circle clip-path="url(#clip132)" cx="851.433" cy="358.687" r="18" fill="#ff0000" fill-rule="evenodd" fill-opacity="1" stroke="#000000" stroke-opacity="1" stroke-width="0"/>
<circle clip-path="url(#clip132)" cx="1772.54" cy="1315.92" r="18" fill="#ff0000" fill-rule="evenodd" fill-opacity="1" stroke="#000000" stroke-opacity="1" stroke-width="0"/>
<circle clip-path="url(#clip132)" cx="1588.31" cy="996.845" r="18" fill="#ff0000" fill-rule="evenodd" fill-opacity="1" stroke="#000000" stroke-opacity="1" stroke-width="0"/>
<circle clip-path="url(#clip132)" cx="1404.09" cy="677.766" r="18" fill="#ff0000" fill-rule="evenodd" fill-opacity="1" stroke="#000000" stroke-opacity="1" stroke-width="0"/>
<circle clip-path="url(#clip132)" cx="1219.87" cy="358.687" r="18" fill="#ff0000" fill-rule="evenodd" fill-opacity="1" stroke="#000000" stroke-opacity="1" stroke-width="0"/>
<circle clip-path="url(#clip132)" cx="1956.76" cy="996.845" r="18" fill="#ff0000" fill-rule="evenodd" fill-opacity="1" stroke="#000000" stroke-opacity="1" stroke-width="0"/>
<circle clip-path="url(#clip132)" cx="1772.54" cy="677.766" r="18" fill="#ff0000" fill-rule="evenodd" fill-opacity="1" stroke="#000000" stroke-opacity="1" stroke-width="0"/>
<circle clip-path="url(#clip132)" cx="1588.31" cy="358.687" r="18" fill="#ff0000" fill-rule="evenodd" fill-opacity="1" stroke="#000000" stroke-opacity="1" stroke-width="0"/>
<circle clip-path="url(#clip132)" cx="1956.76" cy="358.687" r="18" fill="#ff0000" fill-rule="evenodd" fill-opacity="1" stroke="#000000" stroke-opacity="1" stroke-width="0"/>
<circle clip-path="url(#clip132)" cx="482.992" cy="1209.56" r="18" fill="#0000ff" fill-rule="evenodd" fill-opacity="1" stroke="#000000" stroke-opacity="1" stroke-width="0"/>
<circle clip-path="url(#clip132)" cx="851.433" cy="1209.56" r="18" fill="#0000ff" fill-rule="evenodd" fill-opacity="1" stroke="#000000" stroke-opacity="1" stroke-width="0"/>
<circle clip-path="url(#clip132)" cx="667.213" cy="890.486" r="18" fill="#0000ff" fill-rule="evenodd" fill-opacity="1" stroke="#000000" stroke-opacity="1" stroke-width="0"/>
<circle clip-path="url(#clip132)" cx="482.992" cy="571.407" r="18" fill="#0000ff" fill-rule="evenodd" fill-opacity="1" stroke="#000000" stroke-opacity="1" stroke-width="0"/>
<circle clip-path="url(#clip132)" cx="1219.87" cy="1209.56" r="18" fill="#0000ff" fill-rule="evenodd" fill-opacity="1" stroke="#000000" stroke-opacity="1" stroke-width="0"/>
<circle clip-path="url(#clip132)" cx="1035.65" cy="890.486" r="18" fill="#0000ff" fill-rule="evenodd" fill-opacity="1" stroke="#000000" stroke-opacity="1" stroke-width="0"/>
<circle clip-path="url(#clip132)" cx="851.433" cy="571.407" r="18" fill="#0000ff" fill-rule="evenodd" fill-opacity="1" stroke="#000000" stroke-opacity="1" stroke-width="0"/>
<circle clip-path="url(#clip132)" cx="667.213" cy="252.327" r="18" fill="#0000ff" fill-rule="evenodd" fill-opacity="1" stroke="#000000" stroke-opacity="1" stroke-width="0"/>
<circle clip-path="url(#clip132)" cx="1588.31" cy="1209.56" r="18" fill="#0000ff" fill-rule="evenodd" fill-opacity="1" stroke="#000000" stroke-opacity="1" stroke-width="0"/>
<circle clip-path="url(#clip132)" cx="1404.09" cy="890.486" r="18" fill="#0000ff" fill-rule="evenodd" fill-opacity="1" stroke="#000000" stroke-opacity="1" stroke-width="0"/>
<circle clip-path="url(#clip132)" cx="1219.87" cy="571.407" r="18" fill="#0000ff" fill-rule="evenodd" fill-opacity="1" stroke="#000000" stroke-opacity="1" stroke-width="0"/>
<circle clip-path="url(#clip132)" cx="1035.65" cy="252.327" r="18" fill="#0000ff" fill-rule="evenodd" fill-opacity="1" stroke="#000000" stroke-opacity="1" stroke-width="0"/>
<circle clip-path="url(#clip132)" cx="1956.76" cy="1209.56" r="18" fill="#0000ff" fill-rule="evenodd" fill-opacity="1" stroke="#000000" stroke-opacity="1" stroke-width="0"/>
<circle clip-path="url(#clip132)" cx="1772.54" cy="890.486" r="18" fill="#0000ff" fill-rule="evenodd" fill-opacity="1" stroke="#000000" stroke-opacity="1" stroke-width="0"/>
<circle clip-path="url(#clip132)" cx="1588.31" cy="571.407" r="18" fill="#0000ff" fill-rule="evenodd" fill-opacity="1" stroke="#000000" stroke-opacity="1" stroke-width="0"/>
<circle clip-path="url(#clip132)" cx="1404.09" cy="252.327" r="18" fill="#0000ff" fill-rule="evenodd" fill-opacity="1" stroke="#000000" stroke-opacity="1" stroke-width="0"/>
<circle clip-path="url(#clip132)" cx="1956.76" cy="571.407" r="18" fill="#0000ff" fill-rule="evenodd" fill-opacity="1" stroke="#000000" stroke-opacity="1" stroke-width="0"/>
<circle clip-path="url(#clip132)" cx="1772.54" cy="252.327" r="18" fill="#0000ff" fill-rule="evenodd" fill-opacity="1" stroke="#000000" stroke-opacity="1" stroke-width="0"/>
<path clip-path="url(#clip130)" d="
M1460.41 338.29 L1881.23 338.29 L1881.23 96.3696 L1460.41 96.3696  Z
  " fill="#ffffff" fill-rule="evenodd" fill-opacity="1"/>
<polyline clip-path="url(#clip130)" style="stroke:#000000; stroke-width:4; stroke-opacity:1; fill:none" points="
  1460.41,338.29 1881.23,338.29 1881.23,96.3696 1460.41,96.3696 1460.41,338.29 
  "/>
<circle clip-path="url(#clip130)" cx="1561.11" cy="156.85" r="23" fill="#000000" fill-rule="evenodd" fill-opacity="1" stroke="none"/>
<path clip-path="url(#clip130)" d="M 0 0 M1666.48 157.625 L1666.48 170.287 L1673.98 170.287 Q1677.76 170.287 1679.56 168.736 Q1681.39 167.162 1681.39 163.944 Q1681.39 160.704 1679.56 159.176 Q1677.76 157.625 1673.98 157.625 L1666.48 157.625 M1666.48 143.412 L1666.48 153.829 L1673.4 153.829 Q1676.83 153.829 1678.5 152.556 Q1680.19 151.259 1680.19 148.62 Q1680.19 146.005 1678.5 144.708 Q1676.83 143.412 1673.4 143.412 L1666.48 143.412 M1661.81 139.57 L1673.75 139.57 Q1679.1 139.57 1681.99 141.792 Q1684.89 144.014 1684.89 148.111 Q1684.89 151.282 1683.4 153.157 Q1681.92 155.032 1679.05 155.495 Q1682.5 156.236 1684.4 158.597 Q1686.32 160.935 1686.32 164.454 Q1686.32 169.083 1683.17 171.606 Q1680.02 174.13 1674.21 174.13 L1661.81 174.13 L1661.81 139.57 Z" fill="#000000" fill-rule="evenodd" fill-opacity="1" /><path clip-path="url(#clip130)" d="M 0 0 M1709.17 152.185 Q1708.45 151.769 1707.59 151.583 Q1706.76 151.375 1705.74 151.375 Q1702.13 151.375 1700.19 153.736 Q1698.27 156.074 1698.27 160.472 L1698.27 174.13 L1693.98 174.13 L1693.98 148.204 L1698.27 148.204 L1698.27 152.232 Q1699.61 149.87 1701.76 148.736 Q1703.91 147.579 1706.99 147.579 Q1707.43 147.579 1707.96 147.648 Q1708.5 147.695 1709.14 147.81 L1709.17 152.185 Z" fill="#000000" fill-rule="evenodd" fill-opacity="1" /><path clip-path="url(#clip130)" d="M 0 0 M1725.42 161.097 Q1720.26 161.097 1718.27 162.278 Q1716.27 163.458 1716.27 166.306 Q1716.27 168.574 1717.76 169.917 Q1719.26 171.236 1721.83 171.236 Q1725.37 171.236 1727.5 168.736 Q1729.65 166.213 1729.65 162.046 L1729.65 161.097 L1725.42 161.097 M1733.91 159.338 L1733.91 174.13 L1729.65 174.13 L1729.65 170.194 Q1728.2 172.555 1726.02 173.69 Q1723.84 174.801 1720.7 174.801 Q1716.71 174.801 1714.35 172.579 Q1712.02 170.333 1712.02 166.583 Q1712.02 162.208 1714.93 159.986 Q1717.87 157.764 1723.68 157.764 L1729.65 157.764 L1729.65 157.347 Q1729.65 154.407 1727.71 152.81 Q1725.79 151.19 1722.29 151.19 Q1720.07 151.19 1717.96 151.722 Q1715.86 152.255 1713.91 153.319 L1713.91 149.384 Q1716.25 148.482 1718.45 148.042 Q1720.65 147.579 1722.73 147.579 Q1728.36 147.579 1731.14 150.495 Q1733.91 153.412 1733.91 159.338 Z" fill="#000000" fill-rule="evenodd" fill-opacity="1" /><path clip-path="url(#clip130)" d="M 0 0 M1739.63 148.204 L1744.14 148.204 L1752.25 169.963 L1760.35 148.204 L1764.86 148.204 L1755.14 174.13 L1749.35 174.13 L1739.63 148.204 Z" fill="#000000" fill-rule="evenodd" fill-opacity="1" /><path clip-path="url(#clip130)" d="M 0 0 M1782.52 161.097 Q1777.36 161.097 1775.37 162.278 Q1773.38 163.458 1773.38 166.306 Q1773.38 168.574 1774.86 169.917 Q1776.37 171.236 1778.94 171.236 Q1782.48 171.236 1784.61 168.736 Q1786.76 166.213 1786.76 162.046 L1786.76 161.097 L1782.52 161.097 M1791.02 159.338 L1791.02 174.13 L1786.76 174.13 L1786.76 170.194 Q1785.3 172.555 1783.13 173.69 Q1780.95 174.801 1777.8 174.801 Q1773.82 174.801 1771.46 172.579 Q1769.12 170.333 1769.12 166.583 Q1769.12 162.208 1772.04 159.986 Q1774.98 157.764 1780.79 157.764 L1786.76 157.764 L1786.76 157.347 Q1786.76 154.407 1784.82 152.81 Q1782.89 151.19 1779.4 151.19 Q1777.18 151.19 1775.07 151.722 Q1772.96 152.255 1771.02 153.319 L1771.02 149.384 Q1773.36 148.482 1775.56 148.042 Q1777.76 147.579 1779.84 147.579 Q1785.46 147.579 1788.24 150.495 Q1791.02 153.412 1791.02 159.338 Z" fill="#000000" fill-rule="evenodd" fill-opacity="1" /><path clip-path="url(#clip130)" d="M 0 0 M1799.79 148.204 L1804.05 148.204 L1804.05 174.13 L1799.79 174.13 L1799.79 148.204 M1799.79 138.111 L1804.05 138.111 L1804.05 143.505 L1799.79 143.505 L1799.79 138.111 Z" fill="#000000" fill-rule="evenodd" fill-opacity="1" /><path clip-path="url(#clip130)" d="M 0 0 M1829.49 148.968 L1829.49 152.995 Q1827.69 152.069 1825.74 151.607 Q1823.8 151.144 1821.71 151.144 Q1818.54 151.144 1816.95 152.116 Q1815.37 153.088 1815.37 155.032 Q1815.37 156.514 1816.51 157.37 Q1817.64 158.204 1821.07 158.968 L1822.52 159.292 Q1827.06 160.264 1828.96 162.046 Q1830.88 163.806 1830.88 166.977 Q1830.88 170.588 1828.01 172.694 Q1825.16 174.801 1820.16 174.801 Q1818.08 174.801 1815.81 174.384 Q1813.57 173.991 1811.07 173.18 L1811.07 168.782 Q1813.43 170.009 1815.72 170.634 Q1818.01 171.236 1820.26 171.236 Q1823.26 171.236 1824.88 170.218 Q1826.51 169.176 1826.51 167.301 Q1826.51 165.565 1825.32 164.639 Q1824.17 163.713 1820.21 162.856 L1818.73 162.509 Q1814.77 161.676 1813.01 159.963 Q1811.25 158.227 1811.25 155.218 Q1811.25 151.56 1813.84 149.57 Q1816.44 147.579 1821.2 147.579 Q1823.57 147.579 1825.65 147.926 Q1827.73 148.273 1829.49 148.968 Z" fill="#000000" fill-rule="evenodd" fill-opacity="1" /><circle clip-path="url(#clip130)" cx="1561.11" cy="217.33" r="23" fill="#ff0000" fill-rule="evenodd" fill-opacity="1" stroke="#000000" stroke-opacity="1" stroke-width="0"/>
<path clip-path="url(#clip130)" d="M 0 0 M1677.64 204.656 L1671.3 221.855 L1684.01 221.855 L1677.64 204.656 M1675 200.05 L1680.3 200.05 L1693.47 234.61 L1688.61 234.61 L1685.46 225.744 L1669.89 225.744 L1666.74 234.61 L1661.81 234.61 L1675 200.05 Z" fill="#000000" fill-rule="evenodd" fill-opacity="1" /><circle clip-path="url(#clip130)" cx="1561.11" cy="277.81" r="23" fill="#0000ff" fill-rule="evenodd" fill-opacity="1" stroke="#000000" stroke-opacity="1" stroke-width="0"/>
<path clip-path="url(#clip130)" d="M 0 0 M1666.48 278.585 L1666.48 291.247 L1673.98 291.247 Q1677.76 291.247 1679.56 289.696 Q1681.39 288.122 1681.39 284.904 Q1681.39 281.664 1679.56 280.136 Q1677.76 278.585 1673.98 278.585 L1666.48 278.585 M1666.48 264.372 L1666.48 274.789 L1673.4 274.789 Q1676.83 274.789 1678.5 273.516 Q1680.19 272.219 1680.19 269.58 Q1680.19 266.965 1678.5 265.668 Q1676.83 264.372 1673.4 264.372 L1666.48 264.372 M1661.81 260.53 L1673.75 260.53 Q1679.1 260.53 1681.99 262.752 Q1684.89 264.974 1684.89 269.071 Q1684.89 272.242 1683.4 274.117 Q1681.92 275.992 1679.05 276.455 Q1682.5 277.196 1684.4 279.557 Q1686.32 281.895 1686.32 285.414 Q1686.32 290.043 1683.17 292.566 Q1680.02 295.09 1674.21 295.09 L1661.81 295.09 L1661.81 260.53 Z" fill="#000000" fill-rule="evenodd" fill-opacity="1" /></svg>
