<?xml version="1.0" encoding="utf-8"?>
<svg xmlns="http://www.w3.org/2000/svg" xmlns:xlink="http://www.w3.org/1999/xlink" width="200" height="250" viewBox="0 0 800 1000">
<defs>
  <clipPath id="clip920">
    <rect x="0" y="0" width="800" height="1000"/>
  </clipPath>
</defs>
<path clip-path="url(#clip920)" d="
M0 1000 L800 1000 L800 0 L0 0  Z
  " fill="#ffffff" fill-rule="evenodd" fill-opacity="1"/>
<defs>
  <clipPath id="clip921">
    <rect x="200" y="100" width="701" height="701"/>
  </clipPath>
</defs>
<path clip-path="url(#clip920)" d="
M70.9921 927.008 L752.756 927.008 L752.756 62.9921 L70.9921 62.9921  Z
  " fill="#ffffff" fill-rule="evenodd" fill-opacity="1"/>
<defs>
  <clipPath id="clip922">
    <rect x="70" y="62" width="683" height="865"/>
  </clipPath>
</defs>
<polyline clip-path="url(#clip920)" style="stroke:#000000; stroke-width:4; stroke-opacity:1; fill:none" points="
  70.9921,927.008 752.756,927.008 
  "/>
<polyline clip-path="url(#clip920)" style="stroke:#000000; stroke-width:4; stroke-opacity:1; fill:none" points="
  139.169,927.008 139.169,916.64 
  "/>
<polyline clip-path="url(#clip920)" style="stroke:#000000; stroke-width:4; stroke-opacity:1; fill:none" points="
  275.521,927.008 275.521,916.64 
  "/>
<polyline clip-path="url(#clip920)" style="stroke:#000000; stroke-width:4; stroke-opacity:1; fill:none" points="
  411.874,927.008 411.874,916.64 
  "/>
<polyline clip-path="url(#clip920)" style="stroke:#000000; stroke-width:4; stroke-opacity:1; fill:none" points="
  548.227,927.008 548.227,916.64 
  "/>
<polyline clip-path="url(#clip920)" style="stroke:#000000; stroke-width:4; stroke-opacity:1; fill:none" points="
  684.58,927.008 684.58,916.64 
  "/>
<path clip-path="url(#clip920)" d="M 0 0 M109.111 959.651 L138.787 959.651 L138.787 963.586 L109.111 963.586 L109.111 959.651 Z" fill="#000000" fill-rule="evenodd" fill-opacity="1" /><path clip-path="url(#clip920)" d="M 0 0 M152.907 972.545 L169.226 972.545 L169.226 976.48 L147.282 976.48 L147.282 972.545 Q149.944 969.79 154.527 965.16 Q159.134 960.508 160.314 959.165 Q162.56 956.642 163.439 954.906 Q164.342 953.147 164.342 951.457 Q164.342 948.702 162.398 946.966 Q160.476 945.23 157.374 945.23 Q155.175 945.23 152.722 945.994 Q150.291 946.758 147.513 948.309 L147.513 943.587 Q150.337 942.452 152.791 941.874 Q155.245 941.295 157.282 941.295 Q162.652 941.295 165.847 943.98 Q169.041 946.665 169.041 951.156 Q169.041 953.286 168.231 955.207 Q167.444 957.105 165.337 959.698 Q164.759 960.369 161.657 963.586 Q158.555 966.781 152.907 972.545 Z" fill="#000000" fill-rule="evenodd" fill-opacity="1" /><path clip-path="url(#clip920)" d="M 0 0 M245.278 959.651 L274.954 959.651 L274.954 963.586 L245.278 963.586 L245.278 959.651 Z" fill="#000000" fill-rule="evenodd" fill-opacity="1" /><path clip-path="url(#clip920)" d="M 0 0 M285.857 972.545 L293.496 972.545 L293.496 946.179 L285.186 947.846 L285.186 943.587 L293.449 941.92 L298.125 941.92 L298.125 972.545 L305.764 972.545 L305.764 976.48 L285.857 976.48 L285.857 972.545 Z" fill="#000000" fill-rule="evenodd" fill-opacity="1" /><path clip-path="url(#clip920)" d="M 0 0 M411.874 944.999 Q408.263 944.999 406.434 948.563 Q404.629 952.105 404.629 959.235 Q404.629 966.341 406.434 969.906 Q408.263 973.447 411.874 973.447 Q415.508 973.447 417.314 969.906 Q419.142 966.341 419.142 959.235 Q419.142 952.105 417.314 948.563 Q415.508 944.999 411.874 944.999 M411.874 941.295 Q417.684 941.295 420.74 945.901 Q423.818 950.485 423.818 959.235 Q423.818 967.961 420.74 972.568 Q417.684 977.151 411.874 977.151 Q406.064 977.151 402.985 972.568 Q399.93 967.961 399.93 959.235 Q399.93 950.485 402.985 945.901 Q406.064 941.295 411.874 941.295 Z" fill="#000000" fill-rule="evenodd" fill-opacity="1" /><path clip-path="url(#clip920)" d="M 0 0 M538.609 972.545 L546.248 972.545 L546.248 946.179 L537.937 947.846 L537.937 943.587 L546.201 941.92 L550.877 941.92 L550.877 972.545 L558.516 972.545 L558.516 976.48 L538.609 976.48 L538.609 972.545 Z" fill="#000000" fill-rule="evenodd" fill-opacity="1" /><path clip-path="url(#clip920)" d="M 0 0 M679.232 972.545 L695.552 972.545 L695.552 976.48 L673.607 976.48 L673.607 972.545 Q676.269 969.79 680.853 965.16 Q685.459 960.508 686.64 959.165 Q688.885 956.642 689.765 954.906 Q690.667 953.147 690.667 951.457 Q690.667 948.702 688.723 946.966 Q686.802 945.23 683.7 945.23 Q681.501 945.23 679.047 945.994 Q676.617 946.758 673.839 948.309 L673.839 943.587 Q676.663 942.452 679.117 941.874 Q681.57 941.295 683.607 941.295 Q688.978 941.295 692.172 943.98 Q695.367 946.665 695.367 951.156 Q695.367 953.286 694.556 955.207 Q693.769 957.105 691.663 959.698 Q691.084 960.369 687.982 963.586 Q684.88 966.781 679.232 972.545 Z" fill="#000000" fill-rule="evenodd" fill-opacity="1" /><polyline clip-path="url(#clip920)" style="stroke:#000000; stroke-width:4; stroke-opacity:1; fill:none" points="
  70.9921,927.008 70.9921,62.9921 
  "/>
<polyline clip-path="url(#clip920)" style="stroke:#000000; stroke-width:4; stroke-opacity:1; fill:none" points="
  70.9921,840.606 79.1733,840.606 
  "/>
<polyline clip-path="url(#clip920)" style="stroke:#000000; stroke-width:4; stroke-opacity:1; fill:none" points="
  70.9921,667.803 79.1733,667.803 
  "/>
<polyline clip-path="url(#clip920)" style="stroke:#000000; stroke-width:4; stroke-opacity:1; fill:none" points="
  70.9921,495 79.1733,495 
  "/>
<polyline clip-path="url(#clip920)" style="stroke:#000000; stroke-width:4; stroke-opacity:1; fill:none" points="
  70.9921,322.197 79.1733,322.197 
  "/>
<polyline clip-path="url(#clip920)" style="stroke:#000000; stroke-width:4; stroke-opacity:1; fill:none" points="
  70.9921,149.394 79.1733,149.394 
  "/>
<path clip-path="url(#clip920)" d="M 0 0 M-4.12329 841.058 L25.5525 841.058 L25.5525 844.993 L-4.12329 844.993 L-4.12329 841.058 Z" fill="#000000" fill-rule="evenodd" fill-opacity="1" /><path clip-path="url(#clip920)" d="M 0 0 M39.6728 853.951 L55.9921 853.951 L55.9921 857.886 L34.0478 857.886 L34.0478 853.951 Q36.7098 851.197 41.2931 846.567 Q45.8996 841.914 47.0801 840.572 Q49.3255 838.048 50.2051 836.312 Q51.1079 834.553 51.1079 832.863 Q51.1079 830.109 49.1635 828.373 Q47.2422 826.636 44.1403 826.636 Q41.9413 826.636 39.4876 827.4 Q37.057 828.164 34.2793 829.715 L34.2793 824.993 Q37.1033 823.859 39.557 823.28 Q42.0107 822.701 44.0477 822.701 Q49.4181 822.701 52.6125 825.386 Q55.8069 828.072 55.8069 832.562 Q55.8069 834.692 54.9968 836.613 Q54.2097 838.511 52.1033 841.104 Q51.5246 841.775 48.4227 844.993 Q45.3209 848.187 39.6728 853.951 Z" fill="#000000" fill-rule="evenodd" fill-opacity="1" /><path clip-path="url(#clip920)" d="M 0 0 M-4.49366 668.255 L25.1821 668.255 L25.1821 672.19 L-4.49366 672.19 L-4.49366 668.255 Z" fill="#000000" fill-rule="evenodd" fill-opacity="1" /><path clip-path="url(#clip920)" d="M 0 0 M36.0848 681.148 L43.7237 681.148 L43.7237 654.782 L35.4135 656.449 L35.4135 652.19 L43.6774 650.523 L48.3533 650.523 L48.3533 681.148 L55.9921 681.148 L55.9921 685.083 L36.0848 685.083 L36.0848 681.148 Z" fill="#000000" fill-rule="evenodd" fill-opacity="1" /><path clip-path="url(#clip920)" d="M 0 0 M44.0477 480.799 Q40.4367 480.799 38.608 484.363 Q36.8024 487.905 36.8024 495.035 Q36.8024 502.141 38.608 505.706 Q40.4367 509.248 44.0477 509.248 Q47.682 509.248 49.4875 505.706 Q51.3162 502.141 51.3162 495.035 Q51.3162 487.905 49.4875 484.363 Q47.682 480.799 44.0477 480.799 M44.0477 477.095 Q49.8579 477.095 52.9134 481.701 Q55.9921 486.285 55.9921 495.035 Q55.9921 503.762 52.9134 508.368 Q49.8579 512.951 44.0477 512.951 Q38.2376 512.951 35.1589 508.368 Q32.1034 503.762 32.1034 495.035 Q32.1034 486.285 35.1589 481.701 Q38.2376 477.095 44.0477 477.095 Z" fill="#000000" fill-rule="evenodd" fill-opacity="1" /><path clip-path="url(#clip920)" d="M 0 0 M36.0848 335.542 L43.7237 335.542 L43.7237 309.176 L35.4135 310.843 L35.4135 306.584 L43.6774 304.917 L48.3533 304.917 L48.3533 335.542 L55.9921 335.542 L55.9921 339.477 L36.0848 339.477 L36.0848 335.542 Z" fill="#000000" fill-rule="evenodd" fill-opacity="1" /><path clip-path="url(#clip920)" d="M 0 0 M39.6728 162.739 L55.9921 162.739 L55.9921 166.674 L34.0478 166.674 L34.0478 162.739 Q36.7098 159.984 41.2931 155.354 Q45.8996 150.702 47.0801 149.359 Q49.3255 146.836 50.2051 145.1 Q51.1079 143.34 51.1079 141.651 Q51.1079 138.896 49.1635 137.16 Q47.2422 135.424 44.1403 135.424 Q41.9413 135.424 39.4876 136.188 Q37.057 136.952 34.2793 138.503 L34.2793 133.78 Q37.1033 132.646 39.557 132.067 Q42.0107 131.489 44.0477 131.489 Q49.4181 131.489 52.6125 134.174 Q55.8069 136.859 55.8069 141.35 Q55.8069 143.479 54.9968 145.401 Q54.2097 147.299 52.1033 149.891 Q51.5246 150.563 48.4227 153.78 Q45.3209 156.975 39.6728 162.739 Z" fill="#000000" fill-rule="evenodd" fill-opacity="1" /><path clip-path="url(#clip920)" d="M 0 0 M349.583 20.523 Q351.18 17.6527 353.402 16.2869 Q355.624 14.9212 358.634 14.9212 Q362.684 14.9212 364.884 17.7684 Q367.083 20.5925 367.083 25.8239 L367.083 41.472 L362.8 41.472 L362.8 25.9628 Q362.8 22.236 361.481 20.4304 Q360.161 18.6249 357.453 18.6249 Q354.143 18.6249 352.222 20.824 Q350.3 23.023 350.3 26.8193 L350.3 41.472 L346.018 41.472 L346.018 25.9628 Q346.018 22.2128 344.698 20.4304 Q343.379 18.6249 340.624 18.6249 Q337.361 18.6249 335.439 20.8471 Q333.518 23.0462 333.518 26.8193 L333.518 41.472 L329.236 41.472 L329.236 15.5462 L333.518 15.5462 L333.518 19.574 Q334.976 17.1897 337.013 16.0555 Q339.05 14.9212 341.851 14.9212 Q344.675 14.9212 346.643 16.3564 Q348.634 17.7916 349.583 20.523 Z" fill="#000000" fill-rule="evenodd" fill-opacity="1" /><path clip-path="url(#clip920)" d="M 0 0 M375.184 5.45367 L384.999 5.45367 L384.999 8.76384 L379.444 8.76384 L379.444 44.4118 L384.999 44.4118 L384.999 47.722 L375.184 47.722 L375.184 5.45367 Z" fill="#000000" fill-rule="evenodd" fill-opacity="1" /><path clip-path="url(#clip920)" d="M 0 0 M395.485 37.5368 L403.124 37.5368 L403.124 11.1712 L394.814 12.8379 L394.814 8.57866 L403.078 6.912 L407.754 6.912 L407.754 37.5368 L415.393 37.5368 L415.393 41.472 L395.485 41.472 L395.485 37.5368 Z" fill="#000000" fill-rule="evenodd" fill-opacity="1" /><path clip-path="url(#clip920)" d="M 0 0 M434.837 9.99069 Q431.226 9.99069 429.397 13.5555 Q427.592 17.0971 427.592 24.2267 Q427.592 31.3332 429.397 34.898 Q431.226 38.4396 434.837 38.4396 Q438.471 38.4396 440.277 34.898 Q442.105 31.3332 442.105 24.2267 Q442.105 17.0971 440.277 13.5555 Q438.471 9.99069 434.837 9.99069 M434.837 6.287 Q440.647 6.287 443.703 10.8935 Q446.781 15.4768 446.781 24.2267 Q446.781 32.9535 443.703 37.56 Q440.647 42.1433 434.837 42.1433 Q429.027 42.1433 425.948 37.56 Q422.892 32.9535 422.892 24.2267 Q422.892 15.4768 425.948 10.8935 Q429.027 6.287 434.837 6.287 Z" fill="#000000" fill-rule="evenodd" fill-opacity="1" /><path clip-path="url(#clip920)" d="M 0 0 M464.999 9.99069 Q461.388 9.99069 459.559 13.5555 Q457.753 17.0971 457.753 24.2267 Q457.753 31.3332 459.559 34.898 Q461.388 38.4396 464.999 38.4396 Q468.633 38.4396 470.439 34.898 Q472.267 31.3332 472.267 24.2267 Q472.267 17.0971 470.439 13.5555 Q468.633 9.99069 464.999 9.99069 M464.999 6.287 Q470.809 6.287 473.864 10.8935 Q476.943 15.4768 476.943 24.2267 Q476.943 32.9535 473.864 37.56 Q470.809 42.1433 464.999 42.1433 Q459.189 42.1433 456.11 37.56 Q453.054 32.9535 453.054 24.2267 Q453.054 15.4768 456.11 10.8935 Q459.189 6.287 464.999 6.287 Z" fill="#000000" fill-rule="evenodd" fill-opacity="1" /><path clip-path="url(#clip920)" d="M 0 0 M494.512 5.45367 L494.512 47.722 L484.698 47.722 L484.698 44.4118 L490.23 44.4118 L490.23 8.76384 L484.698 8.76384 L484.698 5.45367 L494.512 5.45367 Z" fill="#000000" fill-rule="evenodd" fill-opacity="1" /><circle clip-path="url(#clip922)" cx="139.169" cy="894.072" r="14" fill="#0000ff" fill-rule="evenodd" fill-opacity="1" stroke="none"/>
<path clip-path="url(#clip920)" d="M 0 0 M139.672 883.344 L145.401 883.344 L145.401 863.57 L139.169 864.82 L139.169 861.626 L145.366 860.376 L148.873 860.376 L148.873 883.344 L154.602 883.344 L154.602 886.296 L139.672 886.296 L139.672 883.344 Z" fill="#000000" fill-rule="evenodd" fill-opacity="1" /><path clip-path="url(#clip920)" d="M 0 0 M172.311 872.32 Q174.828 872.858 176.234 874.56 Q177.658 876.261 177.658 878.761 Q177.658 882.598 175.019 884.699 Q172.38 886.799 167.519 886.799 Q165.887 886.799 164.151 886.469 Q162.432 886.157 160.592 885.515 L160.592 882.129 Q162.05 882.98 163.786 883.414 Q165.523 883.848 167.415 883.848 Q170.713 883.848 172.432 882.546 Q174.168 881.244 174.168 878.761 Q174.168 876.469 172.554 875.185 Q170.957 873.883 168.092 873.883 L165.071 873.883 L165.071 871.001 L168.231 871.001 Q170.818 871.001 172.189 869.976 Q173.561 868.935 173.561 866.99 Q173.561 864.994 172.137 863.935 Q170.731 862.858 168.092 862.858 Q166.651 862.858 165.002 863.171 Q163.352 863.483 161.373 864.143 L161.373 861.018 Q163.37 860.463 165.106 860.185 Q166.859 859.907 168.404 859.907 Q172.397 859.907 174.724 861.73 Q177.05 863.535 177.05 866.626 Q177.05 868.779 175.818 870.272 Q174.585 871.747 172.311 872.32 Z" fill="#000000" fill-rule="evenodd" fill-opacity="1" /><circle clip-path="url(#clip922)" cx="343.698" cy="445.116" r="14" fill="#0000ff" fill-rule="evenodd" fill-opacity="1" stroke="none"/>
<circle clip-path="url(#clip922)" cx="343.698" cy="544.884" r="14" fill="#0000ff" fill-rule="evenodd" fill-opacity="1" stroke="none"/>
<circle clip-path="url(#clip922)" cx="207.345" cy="445.116" r="14" fill="#0000ff" fill-rule="evenodd" fill-opacity="1" stroke="none"/>
<circle clip-path="url(#clip922)" cx="207.345" cy="544.884" r="14" fill="#0000ff" fill-rule="evenodd" fill-opacity="1" stroke="none"/>
<circle clip-path="url(#clip922)" cx="70.9921" cy="445.116" r="14" fill="#0000ff" fill-rule="evenodd" fill-opacity="1" stroke="none"/>
<circle clip-path="url(#clip922)" cx="70.9921" cy="544.884" r="14" fill="#0000ff" fill-rule="evenodd" fill-opacity="1" stroke="none"/>
<circle clip-path="url(#clip922)" cx="343.698" cy="744.42" r="14" fill="#0000ff" fill-rule="evenodd" fill-opacity="1" stroke="none"/>
<circle clip-path="url(#clip922)" cx="343.698" cy="844.188" r="14" fill="#0000ff" fill-rule="evenodd" fill-opacity="1" stroke="none"/>
<circle clip-path="url(#clip922)" cx="207.345" cy="744.42" r="14" fill="#0000ff" fill-rule="evenodd" fill-opacity="1" stroke="none"/>
<circle clip-path="url(#clip922)" cx="207.345" cy="844.188" r="14" fill="#0000ff" fill-rule="evenodd" fill-opacity="1" stroke="none"/>
<circle clip-path="url(#clip922)" cx="70.9921" cy="744.42" r="14" fill="#0000ff" fill-rule="evenodd" fill-opacity="1" stroke="none"/>
<circle clip-path="url(#clip922)" cx="70.9921" cy="844.188" r="14" fill="#0000ff" fill-rule="evenodd" fill-opacity="1" stroke="none"/>
<circle clip-path="url(#clip922)" cx="139.169" cy="295.464" r="14" fill="#0000ff" fill-rule="evenodd" fill-opacity="1" stroke="none"/>
<circle clip-path="url(#clip922)" cx="139.169" cy="395.232" r="14" fill="#0000ff" fill-rule="evenodd" fill-opacity="1" stroke="none"/>
<circle clip-path="url(#clip922)" cx="411.874" cy="594.768" r="14" fill="#0000ff" fill-rule="evenodd" fill-opacity="1" stroke="none"/>
<circle clip-path="url(#clip922)" cx="411.874" cy="694.536" r="14" fill="#0000ff" fill-rule="evenodd" fill-opacity="1" stroke="none"/>
<circle clip-path="url(#clip922)" cx="275.521" cy="594.768" r="14" fill="#0000ff" fill-rule="evenodd" fill-opacity="1" stroke="none"/>
<circle clip-path="url(#clip922)" cx="275.521" cy="694.536" r="14" fill="#0000ff" fill-rule="evenodd" fill-opacity="1" stroke="none"/>
<circle clip-path="url(#clip922)" cx="139.169" cy="594.768" r="14" fill="#0000ff" fill-rule="evenodd" fill-opacity="1" stroke="none"/>
<circle clip-path="url(#clip922)" cx="139.169" cy="694.536" r="14" fill="#0000ff" fill-rule="evenodd" fill-opacity="1" stroke="none"/>
<circle clip-path="url(#clip922)" cx="411.874" cy="894.072" r="14" fill="#0000ff" fill-rule="evenodd" fill-opacity="1" stroke="none"/>
<circle clip-path="url(#clip922)" cx="275.521" cy="894.072" r="14" fill="#0000ff" fill-rule="evenodd" fill-opacity="1" stroke="none"/>
<path clip-path="url(#clip920)" d="M 0 0 M344.201 434.389 L349.93 434.389 L349.93 414.614 L343.698 415.864 L343.698 412.67 L349.896 411.42 L353.402 411.42 L353.402 434.389 L359.132 434.389 L359.132 437.34 L344.201 437.34 L344.201 434.389 Z" fill="#000000" fill-rule="evenodd" fill-opacity="1" /><path clip-path="url(#clip920)" d="M 0 0 M347.916 534.157 L360.156 534.157 L360.156 537.108 L343.698 537.108 L343.698 534.157 Q345.694 532.091 349.132 528.618 Q352.586 525.129 353.472 524.122 Q355.156 522.23 355.816 520.928 Q356.493 519.608 356.493 518.341 Q356.493 516.275 355.034 514.973 Q353.593 513.671 351.267 513.671 Q349.618 513.671 347.777 514.244 Q345.955 514.816 343.871 515.98 L343.871 512.438 Q345.989 511.587 347.83 511.153 Q349.67 510.719 351.198 510.719 Q355.225 510.719 357.621 512.733 Q360.017 514.747 360.017 518.115 Q360.017 519.712 359.409 521.153 Q358.819 522.577 357.239 524.521 Q356.805 525.025 354.479 527.438 Q352.152 529.834 347.916 534.157 Z" fill="#000000" fill-rule="evenodd" fill-opacity="1" /><path clip-path="url(#clip920)" d="M 0 0 M219.064 423.364 Q221.581 423.903 222.987 425.604 Q224.411 427.305 224.411 429.805 Q224.411 433.642 221.772 435.743 Q219.133 437.843 214.272 437.843 Q212.64 437.843 210.904 437.514 Q209.185 437.201 207.345 436.559 L207.345 433.173 Q208.803 434.024 210.539 434.458 Q212.275 434.892 214.168 434.892 Q217.466 434.892 219.185 433.59 Q220.921 432.288 220.921 429.805 Q220.921 427.514 219.307 426.229 Q217.709 424.927 214.845 424.927 L211.824 424.927 L211.824 422.045 L214.984 422.045 Q217.571 422.045 218.942 421.021 Q220.314 419.979 220.314 418.035 Q220.314 416.038 218.89 414.979 Q217.484 413.903 214.845 413.903 Q213.404 413.903 211.755 414.215 Q210.105 414.528 208.126 415.187 L208.126 412.062 Q210.123 411.507 211.859 411.229 Q213.612 410.951 215.157 410.951 Q219.15 410.951 221.477 412.774 Q223.803 414.58 223.803 417.67 Q223.803 419.823 222.57 421.316 Q221.338 422.791 219.064 423.364 Z" fill="#000000" fill-rule="evenodd" fill-opacity="1" /><path clip-path="url(#clip920)" d="M 0 0 M219.046 514.244 L210.192 528.08 L219.046 528.08 L219.046 514.244 M218.126 511.188 L222.536 511.188 L222.536 528.08 L226.234 528.08 L226.234 530.997 L222.536 530.997 L222.536 537.108 L219.046 537.108 L219.046 530.997 L207.345 530.997 L207.345 527.611 L218.126 511.188 Z" fill="#000000" fill-rule="evenodd" fill-opacity="1" /><path clip-path="url(#clip920)" d="M 0 0 M72.0859 411.42 L85.8532 411.42 L85.8532 414.371 L75.2977 414.371 L75.2977 420.726 Q76.0615 420.465 76.8254 420.344 Q77.5893 420.205 78.3532 420.205 Q82.6935 420.205 85.2282 422.583 Q87.7629 424.962 87.7629 429.024 Q87.7629 433.208 85.1587 435.534 Q82.5546 437.843 77.815 437.843 Q76.1831 437.843 74.4817 437.566 Q72.7977 437.288 70.9921 436.732 L70.9921 433.208 Q72.5546 434.059 74.2213 434.475 Q75.8879 434.892 77.7456 434.892 Q80.749 434.892 82.5025 433.312 Q84.2559 431.732 84.2559 429.024 Q84.2559 426.316 82.5025 424.736 Q80.749 423.156 77.7456 423.156 Q76.3393 423.156 74.9331 423.469 Q73.5442 423.781 72.0859 424.441 L72.0859 411.42 Z" fill="#000000" fill-rule="evenodd" fill-opacity="1" /><path clip-path="url(#clip920)" d="M 0 0 M80.2455 522.75 Q77.8845 522.75 76.4956 524.365 Q75.124 525.98 75.124 528.792 Q75.124 531.587 76.4956 533.219 Q77.8845 534.834 80.2455 534.834 Q82.6066 534.834 83.9782 533.219 Q85.367 531.587 85.367 528.792 Q85.367 525.98 83.9782 524.365 Q82.6066 522.75 80.2455 522.75 M87.2073 511.761 L87.2073 514.955 Q85.8879 514.33 84.5337 514 Q83.1969 513.671 81.8775 513.671 Q78.4053 513.671 76.565 516.014 Q74.7421 518.358 74.4817 523.098 Q75.506 521.587 77.0511 520.789 Q78.5963 519.973 80.4539 519.973 Q84.3601 519.973 86.617 522.351 Q88.8913 524.712 88.8913 528.792 Q88.8913 532.785 86.5302 535.198 Q84.1691 537.611 80.2455 537.611 Q75.749 537.611 73.3706 534.174 Q70.9921 530.719 70.9921 524.174 Q70.9921 518.028 73.9088 514.382 Q76.8254 510.719 81.7386 510.719 Q83.058 510.719 84.3948 510.98 Q85.749 511.24 87.2073 511.761 Z" fill="#000000" fill-rule="evenodd" fill-opacity="1" /><path clip-path="url(#clip920)" d="M 0 0 M343.698 710.724 L360.364 710.724 L360.364 712.217 L350.955 736.644 L347.291 736.644 L356.145 713.675 L343.698 713.675 L343.698 710.724 Z" fill="#000000" fill-rule="evenodd" fill-opacity="1" /><path clip-path="url(#clip920)" d="M 0 0 M352.586 824.103 Q350.086 824.103 348.646 825.44 Q347.222 826.776 347.222 829.12 Q347.222 831.464 348.646 832.801 Q350.086 834.138 352.586 834.138 Q355.086 834.138 356.527 832.801 Q357.968 831.447 357.968 829.12 Q357.968 826.776 356.527 825.44 Q355.104 824.103 352.586 824.103 M349.08 822.61 Q346.823 822.054 345.555 820.509 Q344.305 818.964 344.305 816.742 Q344.305 813.634 346.51 811.829 Q348.732 810.023 352.586 810.023 Q356.458 810.023 358.663 811.829 Q360.868 813.634 360.868 816.742 Q360.868 818.964 359.6 820.509 Q358.35 822.054 356.111 822.61 Q358.645 823.2 360.052 824.919 Q361.475 826.638 361.475 829.12 Q361.475 832.888 359.166 834.901 Q356.875 836.915 352.586 836.915 Q348.298 836.915 345.989 834.901 Q343.698 832.888 343.698 829.12 Q343.698 826.638 345.121 824.919 Q346.545 823.2 349.08 822.61 M347.795 817.072 Q347.795 819.086 349.045 820.214 Q350.312 821.342 352.586 821.342 Q354.843 821.342 356.111 820.214 Q357.395 819.086 357.395 817.072 Q357.395 815.058 356.111 813.929 Q354.843 812.801 352.586 812.801 Q350.312 812.801 349.045 813.929 Q347.795 815.058 347.795 817.072 Z" fill="#000000" fill-rule="evenodd" fill-opacity="1" /><path clip-path="url(#clip920)" d="M 0 0 M209.012 736.106 L209.012 732.911 Q210.331 733.536 211.685 733.866 Q213.039 734.196 214.341 734.196 Q217.814 734.196 219.636 731.87 Q221.477 729.526 221.737 724.769 Q220.73 726.262 219.185 727.061 Q217.64 727.859 215.765 727.859 Q211.876 727.859 209.602 725.515 Q207.345 723.154 207.345 719.075 Q207.345 715.081 209.706 712.668 Q212.067 710.255 215.991 710.255 Q220.487 710.255 222.848 713.71 Q225.227 717.147 225.227 723.71 Q225.227 729.838 222.31 733.502 Q219.411 737.147 214.498 737.147 Q213.178 737.147 211.824 736.887 Q210.47 736.627 209.012 736.106 M215.991 725.116 Q218.352 725.116 219.723 723.502 Q221.112 721.887 221.112 719.075 Q221.112 716.279 219.723 714.665 Q218.352 713.033 215.991 713.033 Q213.63 713.033 212.241 714.665 Q210.869 716.279 210.869 719.075 Q210.869 721.887 212.241 723.502 Q213.63 725.116 215.991 725.116 Z" fill="#000000" fill-rule="evenodd" fill-opacity="1" /><path clip-path="url(#clip920)" d="M 0 0 M207.848 833.46 L213.577 833.46 L213.577 813.686 L207.345 814.936 L207.345 811.742 L213.543 810.492 L217.05 810.492 L217.05 833.46 L222.779 833.46 L222.779 836.412 L207.848 836.412 L207.848 833.46 Z" fill="#000000" fill-rule="evenodd" fill-opacity="1" /><path clip-path="url(#clip920)" d="M 0 0 M237.362 812.801 Q234.654 812.801 233.282 815.474 Q231.928 818.131 231.928 823.478 Q231.928 828.808 233.282 831.481 Q234.654 834.138 237.362 834.138 Q240.088 834.138 241.442 831.481 Q242.813 828.808 242.813 823.478 Q242.813 818.131 241.442 815.474 Q240.088 812.801 237.362 812.801 M237.362 810.023 Q241.72 810.023 244.011 813.478 Q246.32 816.915 246.32 823.478 Q246.32 830.023 244.011 833.478 Q241.72 836.915 237.362 836.915 Q233.004 836.915 230.695 833.478 Q228.404 830.023 228.404 823.478 Q228.404 816.915 230.695 813.478 Q233.004 810.023 237.362 810.023 Z" fill="#000000" fill-rule="evenodd" fill-opacity="1" /><path clip-path="url(#clip920)" d="M 0 0 M71.4956 733.692 L77.2247 733.692 L77.2247 713.918 L70.9921 715.168 L70.9921 711.974 L77.19 710.724 L80.6969 710.724 L80.6969 733.692 L86.4261 733.692 L86.4261 736.644 L71.4956 736.644 L71.4956 733.692 Z" fill="#000000" fill-rule="evenodd" fill-opacity="1" /><path clip-path="url(#clip920)" d="M 0 0 M94.117 733.692 L99.8461 733.692 L99.8461 713.918 L93.6135 715.168 L93.6135 711.974 L99.8114 710.724 L103.318 710.724 L103.318 733.692 L109.047 733.692 L109.047 736.644 L94.117 736.644 L94.117 733.692 Z" fill="#000000" fill-rule="evenodd" fill-opacity="1" /><path clip-path="url(#clip920)" d="M 0 0 M71.4956 833.46 L77.2247 833.46 L77.2247 813.686 L70.9921 814.936 L70.9921 811.742 L77.19 810.492 L80.6969 810.492 L80.6969 833.46 L86.4261 833.46 L86.4261 836.412 L71.4956 836.412 L71.4956 833.46 Z" fill="#000000" fill-rule="evenodd" fill-opacity="1" /><path clip-path="url(#clip920)" d="M 0 0 M96.5302 833.46 L108.77 833.46 L108.77 836.412 L92.3115 836.412 L92.3115 833.46 Q94.308 831.394 97.7455 827.922 Q101.2 824.433 102.086 823.426 Q103.77 821.533 104.429 820.231 Q105.107 818.912 105.107 817.645 Q105.107 815.579 103.648 814.277 Q102.207 812.974 99.8809 812.974 Q98.2316 812.974 96.3913 813.547 Q94.5684 814.12 92.4851 815.283 L92.4851 811.742 Q94.6031 810.891 96.4434 810.457 Q98.2836 810.023 99.8114 810.023 Q103.839 810.023 106.235 812.037 Q108.631 814.051 108.631 817.419 Q108.631 819.016 108.023 820.457 Q107.433 821.881 105.853 823.825 Q105.419 824.329 103.093 826.742 Q100.766 829.138 96.5302 833.46 Z" fill="#000000" fill-rule="evenodd" fill-opacity="1" /><path clip-path="url(#clip920)" d="M 0 0 M139.672 284.737 L145.401 284.737 L145.401 264.963 L139.169 266.213 L139.169 263.018 L145.366 261.768 L148.873 261.768 L148.873 284.737 L154.602 284.737 L154.602 287.688 L139.672 287.688 L139.672 284.737 Z" fill="#000000" fill-rule="evenodd" fill-opacity="1" /><path clip-path="url(#clip920)" d="M 0 0 M172.311 273.712 Q174.828 274.251 176.234 275.952 Q177.658 277.653 177.658 280.153 Q177.658 283.99 175.019 286.091 Q172.38 288.192 167.519 288.192 Q165.887 288.192 164.151 287.862 Q162.432 287.549 160.592 286.907 L160.592 283.521 Q162.05 284.372 163.786 284.806 Q165.523 285.24 167.415 285.24 Q170.713 285.24 172.432 283.938 Q174.168 282.636 174.168 280.153 Q174.168 277.862 172.554 276.577 Q170.957 275.275 168.092 275.275 L165.071 275.275 L165.071 272.393 L168.231 272.393 Q170.818 272.393 172.189 271.369 Q173.561 270.327 173.561 268.383 Q173.561 266.386 172.137 265.327 Q170.731 264.251 168.092 264.251 Q166.651 264.251 165.002 264.563 Q163.352 264.876 161.373 265.535 L161.373 262.41 Q163.37 261.855 165.106 261.577 Q166.859 261.299 168.404 261.299 Q172.397 261.299 174.724 263.122 Q177.05 264.928 177.05 268.018 Q177.05 270.171 175.818 271.664 Q174.585 273.14 172.311 273.712 Z" fill="#000000" fill-rule="evenodd" fill-opacity="1" /><path clip-path="url(#clip920)" d="M 0 0 M139.672 384.505 L145.401 384.505 L145.401 364.73 L139.169 365.98 L139.169 362.786 L145.366 361.536 L148.873 361.536 L148.873 384.505 L154.602 384.505 L154.602 387.456 L139.672 387.456 L139.672 384.505 Z" fill="#000000" fill-rule="evenodd" fill-opacity="1" /><path clip-path="url(#clip920)" d="M 0 0 M171.321 364.592 L162.467 378.428 L171.321 378.428 L171.321 364.592 M170.401 361.536 L174.811 361.536 L174.811 378.428 L178.509 378.428 L178.509 381.345 L174.811 381.345 L174.811 387.456 L171.321 387.456 L171.321 381.345 L159.62 381.345 L159.62 377.96 L170.401 361.536 Z" fill="#000000" fill-rule="evenodd" fill-opacity="1" /><path clip-path="url(#clip920)" d="M 0 0 M412.377 584.041 L418.107 584.041 L418.107 564.266 L411.874 565.516 L411.874 562.322 L418.072 561.072 L421.579 561.072 L421.579 584.041 L427.308 584.041 L427.308 586.992 L412.377 586.992 L412.377 584.041 Z" fill="#000000" fill-rule="evenodd" fill-opacity="1" /><path clip-path="url(#clip920)" d="M 0 0 M434.426 561.072 L448.193 561.072 L448.193 564.023 L437.638 564.023 L437.638 570.377 Q438.402 570.117 439.166 569.996 Q439.929 569.857 440.693 569.857 Q445.034 569.857 447.568 572.235 Q450.103 574.614 450.103 578.676 Q450.103 582.86 447.499 585.186 Q444.895 587.495 440.155 587.495 Q438.523 587.495 436.822 587.218 Q435.138 586.94 433.332 586.384 L433.332 582.86 Q434.895 583.711 436.561 584.127 Q438.228 584.544 440.086 584.544 Q443.089 584.544 444.843 582.964 Q446.596 581.384 446.596 578.676 Q446.596 575.968 444.843 574.388 Q443.089 572.808 440.086 572.808 Q438.679 572.808 437.273 573.12 Q435.884 573.433 434.426 574.093 L434.426 561.072 Z" fill="#000000" fill-rule="evenodd" fill-opacity="1" /><path clip-path="url(#clip920)" d="M 0 0 M412.377 683.809 L418.107 683.809 L418.107 664.034 L411.874 665.284 L411.874 662.09 L418.072 660.84 L421.579 660.84 L421.579 683.809 L427.308 683.809 L427.308 686.76 L412.377 686.76 L412.377 683.809 Z" fill="#000000" fill-rule="evenodd" fill-opacity="1" /><path clip-path="url(#clip920)" d="M 0 0 M442.325 672.402 Q439.964 672.402 438.575 674.017 Q437.204 675.631 437.204 678.444 Q437.204 681.239 438.575 682.871 Q439.964 684.486 442.325 684.486 Q444.686 684.486 446.058 682.871 Q447.447 681.239 447.447 678.444 Q447.447 675.631 446.058 674.017 Q444.686 672.402 442.325 672.402 M449.287 661.413 L449.287 664.607 Q447.968 663.982 446.613 663.652 Q445.277 663.323 443.957 663.323 Q440.485 663.323 438.645 665.666 Q436.822 668.01 436.561 672.75 Q437.586 671.239 439.131 670.441 Q440.676 669.625 442.534 669.625 Q446.44 669.625 448.697 672.003 Q450.971 674.364 450.971 678.444 Q450.971 682.437 448.61 684.85 Q446.249 687.263 442.325 687.263 Q437.829 687.263 435.45 683.826 Q433.072 680.371 433.072 673.826 Q433.072 667.68 435.988 664.034 Q438.905 660.371 443.818 660.371 Q445.138 660.371 446.475 660.632 Q447.829 660.892 449.287 661.413 Z" fill="#000000" fill-rule="evenodd" fill-opacity="1" /><path clip-path="url(#clip920)" d="M 0 0 M276.025 584.041 L281.754 584.041 L281.754 564.266 L275.521 565.516 L275.521 562.322 L281.719 561.072 L285.226 561.072 L285.226 584.041 L290.955 584.041 L290.955 586.992 L276.025 586.992 L276.025 584.041 Z" fill="#000000" fill-rule="evenodd" fill-opacity="1" /><path clip-path="url(#clip920)" d="M 0 0 M297.153 561.072 L313.82 561.072 L313.82 562.565 L304.41 586.992 L300.747 586.992 L309.601 564.023 L297.153 564.023 L297.153 561.072 Z" fill="#000000" fill-rule="evenodd" fill-opacity="1" /><path clip-path="url(#clip920)" d="M 0 0 M276.025 683.809 L281.754 683.809 L281.754 664.034 L275.521 665.284 L275.521 662.09 L281.719 660.84 L285.226 660.84 L285.226 683.809 L290.955 683.809 L290.955 686.76 L276.025 686.76 L276.025 683.809 Z" fill="#000000" fill-rule="evenodd" fill-opacity="1" /><path clip-path="url(#clip920)" d="M 0 0 M305.538 674.451 Q303.038 674.451 301.598 675.788 Q300.174 677.125 300.174 679.468 Q300.174 681.812 301.598 683.149 Q303.038 684.486 305.538 684.486 Q308.038 684.486 309.479 683.149 Q310.92 681.795 310.92 679.468 Q310.92 677.125 309.479 675.788 Q308.056 674.451 305.538 674.451 M302.032 672.958 Q299.775 672.402 298.507 670.857 Q297.257 669.312 297.257 667.09 Q297.257 663.982 299.462 662.177 Q301.684 660.371 305.538 660.371 Q309.41 660.371 311.615 662.177 Q313.82 663.982 313.82 667.09 Q313.82 669.312 312.552 670.857 Q311.302 672.402 309.063 672.958 Q311.597 673.548 313.004 675.267 Q314.427 676.986 314.427 679.468 Q314.427 683.236 312.118 685.249 Q309.827 687.263 305.538 687.263 Q301.25 687.263 298.941 685.249 Q296.65 683.236 296.65 679.468 Q296.65 676.986 298.073 675.267 Q299.497 673.548 302.032 672.958 M300.747 667.42 Q300.747 669.434 301.997 670.562 Q303.264 671.691 305.538 671.691 Q307.795 671.691 309.063 670.562 Q310.347 669.434 310.347 667.42 Q310.347 665.406 309.063 664.277 Q307.795 663.149 305.538 663.149 Q303.264 663.149 301.997 664.277 Q300.747 665.406 300.747 667.42 Z" fill="#000000" fill-rule="evenodd" fill-opacity="1" /><path clip-path="url(#clip920)" d="M 0 0 M139.672 584.041 L145.401 584.041 L145.401 564.266 L139.169 565.516 L139.169 562.322 L145.366 561.072 L148.873 561.072 L148.873 584.041 L154.602 584.041 L154.602 586.992 L139.672 586.992 L139.672 584.041 Z" fill="#000000" fill-rule="evenodd" fill-opacity="1" /><path clip-path="url(#clip920)" d="M 0 0 M161.79 586.454 L161.79 583.259 Q163.109 583.884 164.464 584.214 Q165.818 584.544 167.12 584.544 Q170.592 584.544 172.415 582.218 Q174.255 579.874 174.516 575.117 Q173.509 576.61 171.963 577.409 Q170.418 578.207 168.543 578.207 Q164.654 578.207 162.38 575.864 Q160.123 573.502 160.123 569.423 Q160.123 565.43 162.484 563.016 Q164.845 560.603 168.769 560.603 Q173.266 560.603 175.627 564.058 Q178.005 567.496 178.005 574.058 Q178.005 580.186 175.088 583.85 Q172.189 587.495 167.276 587.495 Q165.957 587.495 164.602 587.235 Q163.248 586.975 161.79 586.454 M168.769 575.464 Q171.13 575.464 172.502 573.85 Q173.891 572.235 173.891 569.423 Q173.891 566.627 172.502 565.013 Q171.13 563.381 168.769 563.381 Q166.408 563.381 165.019 565.013 Q163.648 566.627 163.648 569.423 Q163.648 572.235 165.019 573.85 Q166.408 575.464 168.769 575.464 Z" fill="#000000" fill-rule="evenodd" fill-opacity="1" /><path clip-path="url(#clip920)" d="M 0 0 M143.387 683.809 L155.627 683.809 L155.627 686.76 L139.169 686.76 L139.169 683.809 Q141.165 681.743 144.603 678.27 Q148.057 674.781 148.943 673.774 Q150.627 671.881 151.286 670.579 Q151.964 669.26 151.964 667.993 Q151.964 665.927 150.505 664.625 Q149.064 663.323 146.738 663.323 Q145.089 663.323 143.248 663.895 Q141.425 664.468 139.342 665.632 L139.342 662.09 Q141.46 661.239 143.3 660.805 Q145.141 660.371 146.668 660.371 Q150.696 660.371 153.092 662.385 Q155.488 664.399 155.488 667.767 Q155.488 669.364 154.88 670.805 Q154.29 672.229 152.71 674.173 Q152.276 674.677 149.95 677.09 Q147.623 679.486 143.387 683.809 Z" fill="#000000" fill-rule="evenodd" fill-opacity="1" /><path clip-path="url(#clip920)" d="M 0 0 M170.488 663.149 Q167.779 663.149 166.408 665.823 Q165.054 668.479 165.054 673.826 Q165.054 679.156 166.408 681.829 Q167.779 684.486 170.488 684.486 Q173.213 684.486 174.568 681.829 Q175.939 679.156 175.939 673.826 Q175.939 668.479 174.568 665.823 Q173.213 663.149 170.488 663.149 M170.488 660.371 Q174.845 660.371 177.137 663.826 Q179.446 667.263 179.446 673.826 Q179.446 680.371 177.137 683.826 Q174.845 687.263 170.488 687.263 Q166.13 687.263 163.821 683.826 Q161.529 680.371 161.529 673.826 Q161.529 667.263 163.821 663.826 Q166.13 660.371 170.488 660.371 Z" fill="#000000" fill-rule="evenodd" fill-opacity="1" /><path clip-path="url(#clip920)" d="M 0 0 M416.093 883.344 L428.332 883.344 L428.332 886.296 L411.874 886.296 L411.874 883.344 Q413.871 881.278 417.308 877.806 Q420.763 874.317 421.648 873.31 Q423.332 871.417 423.992 870.115 Q424.669 868.796 424.669 867.529 Q424.669 865.463 423.211 864.16 Q421.77 862.858 419.443 862.858 Q417.794 862.858 415.954 863.431 Q414.131 864.004 412.048 865.167 L412.048 861.626 Q414.166 860.775 416.006 860.341 Q417.846 859.907 419.374 859.907 Q423.402 859.907 425.798 861.921 Q428.193 863.935 428.193 867.303 Q428.193 868.9 427.586 870.341 Q426.995 871.765 425.416 873.709 Q424.982 874.213 422.655 876.626 Q420.329 879.022 416.093 883.344 Z" fill="#000000" fill-rule="evenodd" fill-opacity="1" /><path clip-path="url(#clip920)" d="M 0 0 M436.301 883.344 L442.03 883.344 L442.03 863.57 L435.797 864.82 L435.797 861.626 L441.995 860.376 L445.502 860.376 L445.502 883.344 L451.231 883.344 L451.231 886.296 L436.301 886.296 L436.301 883.344 Z" fill="#000000" fill-rule="evenodd" fill-opacity="1" /><path clip-path="url(#clip920)" d="M 0 0 M279.74 883.344 L291.98 883.344 L291.98 886.296 L275.521 886.296 L275.521 883.344 Q277.518 881.278 280.955 877.806 Q284.41 874.317 285.296 873.31 Q286.98 871.417 287.639 870.115 Q288.316 868.796 288.316 867.529 Q288.316 865.463 286.858 864.16 Q285.417 862.858 283.091 862.858 Q281.441 862.858 279.601 863.431 Q277.778 864.004 275.695 865.167 L275.695 861.626 Q277.813 860.775 279.653 860.341 Q281.493 859.907 283.021 859.907 Q287.049 859.907 289.445 861.921 Q291.841 863.935 291.841 867.303 Q291.841 868.9 291.233 870.341 Q290.643 871.765 289.063 873.709 Q288.629 874.213 286.302 876.626 Q283.976 879.022 279.74 883.344 Z" fill="#000000" fill-rule="evenodd" fill-opacity="1" /><path clip-path="url(#clip920)" d="M 0 0 M309.966 872.32 Q312.483 872.858 313.889 874.56 Q315.313 876.261 315.313 878.761 Q315.313 882.598 312.674 884.699 Q310.035 886.799 305.174 886.799 Q303.542 886.799 301.806 886.469 Q300.087 886.157 298.247 885.515 L298.247 882.129 Q299.705 882.98 301.441 883.414 Q303.177 883.848 305.07 883.848 Q308.368 883.848 310.087 882.546 Q311.823 881.244 311.823 878.761 Q311.823 876.469 310.209 875.185 Q308.611 873.883 305.747 873.883 L302.726 873.883 L302.726 871.001 L305.886 871.001 Q308.472 871.001 309.844 869.976 Q311.216 868.935 311.216 866.99 Q311.216 864.994 309.792 863.935 Q308.386 862.858 305.747 862.858 Q304.306 862.858 302.657 863.171 Q301.007 863.483 299.028 864.143 L299.028 861.018 Q301.025 860.463 302.761 860.185 Q304.514 859.907 306.059 859.907 Q310.052 859.907 312.379 861.73 Q314.705 863.535 314.705 866.626 Q314.705 868.779 313.472 870.272 Q312.24 871.747 309.966 872.32 Z" fill="#000000" fill-rule="evenodd" fill-opacity="1" /><circle clip-path="url(#clip922)" cx="343.698" cy="145.812" r="14" fill="#0000ff" fill-rule="evenodd" fill-opacity="1" stroke="none"/>
<circle clip-path="url(#clip922)" cx="343.698" cy="245.58" r="14" fill="#0000ff" fill-rule="evenodd" fill-opacity="1" stroke="none"/>
<circle clip-path="url(#clip922)" cx="207.345" cy="145.812" r="14" fill="#0000ff" fill-rule="evenodd" fill-opacity="1" stroke="none"/>
<circle clip-path="url(#clip922)" cx="207.345" cy="245.58" r="14" fill="#0000ff" fill-rule="evenodd" fill-opacity="1" stroke="none"/>
<circle clip-path="url(#clip922)" cx="70.9921" cy="145.812" r="14" fill="#0000ff" fill-rule="evenodd" fill-opacity="1" stroke="none"/>
<circle clip-path="url(#clip922)" cx="70.9921" cy="245.58" r="14" fill="#0000ff" fill-rule="evenodd" fill-opacity="1" stroke="none"/>
<circle clip-path="url(#clip922)" cx="411.874" cy="95.9282" r="14" fill="#0000ff" fill-rule="evenodd" fill-opacity="1" stroke="none"/>
<circle clip-path="url(#clip922)" cx="275.521" cy="95.9282" r="14" fill="#0000ff" fill-rule="evenodd" fill-opacity="1" stroke="none"/>
<circle clip-path="url(#clip922)" cx="139.169" cy="95.9282" r="14" fill="#0000ff" fill-rule="evenodd" fill-opacity="1" stroke="none"/>
<circle clip-path="url(#clip922)" cx="411.874" cy="295.464" r="14" fill="#0000ff" fill-rule="evenodd" fill-opacity="1" stroke="none"/>
<circle clip-path="url(#clip922)" cx="411.874" cy="395.232" r="14" fill="#0000ff" fill-rule="evenodd" fill-opacity="1" stroke="none"/>
<circle clip-path="url(#clip922)" cx="275.521" cy="295.464" r="14" fill="#0000ff" fill-rule="evenodd" fill-opacity="1" stroke="none"/>
<circle clip-path="url(#clip922)" cx="275.521" cy="395.232" r="14" fill="#0000ff" fill-rule="evenodd" fill-opacity="1" stroke="none"/>
<path clip-path="url(#clip920)" d="M 0 0 M343.698 112.116 L360.364 112.116 L360.364 113.609 L350.955 138.036 L347.291 138.036 L356.145 115.068 L343.698 115.068 L343.698 112.116 Z" fill="#000000" fill-rule="evenodd" fill-opacity="1" /><path clip-path="url(#clip920)" d="M 0 0 M352.586 225.495 Q350.086 225.495 348.646 226.832 Q347.222 228.169 347.222 230.513 Q347.222 232.856 348.646 234.193 Q350.086 235.53 352.586 235.53 Q355.086 235.53 356.527 234.193 Q357.968 232.839 357.968 230.513 Q357.968 228.169 356.527 226.832 Q355.104 225.495 352.586 225.495 M349.08 224.002 Q346.823 223.447 345.555 221.901 Q344.305 220.356 344.305 218.134 Q344.305 215.026 346.51 213.221 Q348.732 211.415 352.586 211.415 Q356.458 211.415 358.663 213.221 Q360.868 215.026 360.868 218.134 Q360.868 220.356 359.6 221.901 Q358.35 223.447 356.111 224.002 Q358.645 224.592 360.052 226.311 Q361.475 228.03 361.475 230.513 Q361.475 234.28 359.166 236.294 Q356.875 238.308 352.586 238.308 Q348.298 238.308 345.989 236.294 Q343.698 234.28 343.698 230.513 Q343.698 228.03 345.121 226.311 Q346.545 224.592 349.08 224.002 M347.795 218.464 Q347.795 220.478 349.045 221.606 Q350.312 222.735 352.586 222.735 Q354.843 222.735 356.111 221.606 Q357.395 220.478 357.395 218.464 Q357.395 216.45 356.111 215.322 Q354.843 214.193 352.586 214.193 Q350.312 214.193 349.045 215.322 Q347.795 216.45 347.795 218.464 Z" fill="#000000" fill-rule="evenodd" fill-opacity="1" /><path clip-path="url(#clip920)" d="M 0 0 M209.012 137.498 L209.012 134.304 Q210.331 134.929 211.685 135.258 Q213.039 135.588 214.341 135.588 Q217.814 135.588 219.636 133.262 Q221.477 130.918 221.737 126.161 Q220.73 127.654 219.185 128.453 Q217.64 129.252 215.765 129.252 Q211.876 129.252 209.602 126.908 Q207.345 124.547 207.345 120.467 Q207.345 116.474 209.706 114.061 Q212.067 111.647 215.991 111.647 Q220.487 111.647 222.848 115.102 Q225.227 118.54 225.227 125.102 Q225.227 131.231 222.31 134.894 Q219.411 138.54 214.498 138.54 Q213.178 138.54 211.824 138.279 Q210.47 138.019 209.012 137.498 M215.991 126.508 Q218.352 126.508 219.723 124.894 Q221.112 123.279 221.112 120.467 Q221.112 117.672 219.723 116.057 Q218.352 114.425 215.991 114.425 Q213.63 114.425 212.241 116.057 Q210.869 117.672 210.869 120.467 Q210.869 123.279 212.241 124.894 Q213.63 126.508 215.991 126.508 Z" fill="#000000" fill-rule="evenodd" fill-opacity="1" /><path clip-path="url(#clip920)" d="M 0 0 M207.848 234.853 L213.577 234.853 L213.577 215.079 L207.345 216.329 L207.345 213.134 L213.543 211.884 L217.05 211.884 L217.05 234.853 L222.779 234.853 L222.779 237.804 L207.848 237.804 L207.848 234.853 Z" fill="#000000" fill-rule="evenodd" fill-opacity="1" /><path clip-path="url(#clip920)" d="M 0 0 M237.362 214.193 Q234.654 214.193 233.282 216.867 Q231.928 219.523 231.928 224.87 Q231.928 230.2 233.282 232.874 Q234.654 235.53 237.362 235.53 Q240.088 235.53 241.442 232.874 Q242.813 230.2 242.813 224.87 Q242.813 219.523 241.442 216.867 Q240.088 214.193 237.362 214.193 M237.362 211.415 Q241.72 211.415 244.011 214.87 Q246.32 218.308 246.32 224.87 Q246.32 231.415 244.011 234.87 Q241.72 238.308 237.362 238.308 Q233.004 238.308 230.695 234.87 Q228.404 231.415 228.404 224.87 Q228.404 218.308 230.695 214.87 Q233.004 211.415 237.362 211.415 Z" fill="#000000" fill-rule="evenodd" fill-opacity="1" /><path clip-path="url(#clip920)" d="M 0 0 M71.4956 135.085 L77.2247 135.085 L77.2247 115.311 L70.9921 116.561 L70.9921 113.366 L77.19 112.116 L80.6969 112.116 L80.6969 135.085 L86.4261 135.085 L86.4261 138.036 L71.4956 138.036 L71.4956 135.085 Z" fill="#000000" fill-rule="evenodd" fill-opacity="1" /><path clip-path="url(#clip920)" d="M 0 0 M94.117 135.085 L99.8461 135.085 L99.8461 115.311 L93.6135 116.561 L93.6135 113.366 L99.8114 112.116 L103.318 112.116 L103.318 135.085 L109.047 135.085 L109.047 138.036 L94.117 138.036 L94.117 135.085 Z" fill="#000000" fill-rule="evenodd" fill-opacity="1" /><path clip-path="url(#clip920)" d="M 0 0 M71.4956 234.853 L77.2247 234.853 L77.2247 215.079 L70.9921 216.329 L70.9921 213.134 L77.19 211.884 L80.6969 211.884 L80.6969 234.853 L86.4261 234.853 L86.4261 237.804 L71.4956 237.804 L71.4956 234.853 Z" fill="#000000" fill-rule="evenodd" fill-opacity="1" /><path clip-path="url(#clip920)" d="M 0 0 M96.5302 234.853 L108.77 234.853 L108.77 237.804 L92.3115 237.804 L92.3115 234.853 Q94.308 232.787 97.7455 229.315 Q101.2 225.825 102.086 224.818 Q103.77 222.926 104.429 221.624 Q105.107 220.304 105.107 219.037 Q105.107 216.971 103.648 215.669 Q102.207 214.367 99.8809 214.367 Q98.2316 214.367 96.3913 214.94 Q94.5684 215.513 92.4851 216.676 L92.4851 213.134 Q94.6031 212.283 96.4434 211.849 Q98.2836 211.415 99.8114 211.415 Q103.839 211.415 106.235 213.429 Q108.631 215.443 108.631 218.811 Q108.631 220.408 108.023 221.849 Q107.433 223.273 105.853 225.217 Q105.419 225.721 103.093 228.134 Q100.766 230.53 96.5302 234.853 Z" fill="#000000" fill-rule="evenodd" fill-opacity="1" /><path clip-path="url(#clip920)" d="M 0 0 M412.377 85.2008 L418.107 85.2008 L418.107 65.4266 L411.874 66.6766 L411.874 63.4822 L418.072 62.2322 L421.579 62.2322 L421.579 85.2008 L427.308 85.2008 L427.308 88.1522 L412.377 88.1522 L412.377 85.2008 Z" fill="#000000" fill-rule="evenodd" fill-opacity="1" /><path clip-path="url(#clip920)" d="M 0 0 M442.325 73.7947 Q439.964 73.7947 438.575 75.4092 Q437.204 77.0238 437.204 79.8363 Q437.204 82.6314 438.575 84.2634 Q439.964 85.8779 442.325 85.8779 Q444.686 85.8779 446.058 84.2634 Q447.447 82.6314 447.447 79.8363 Q447.447 77.0238 446.058 75.4092 Q444.686 73.7947 442.325 73.7947 M449.287 62.8051 L449.287 65.9996 Q447.968 65.3746 446.613 65.0447 Q445.277 64.7148 443.957 64.7148 Q440.485 64.7148 438.645 67.0586 Q436.822 69.4023 436.561 74.1419 Q437.586 72.6315 439.131 71.8329 Q440.676 71.0169 442.534 71.0169 Q446.44 71.0169 448.697 73.3954 Q450.971 75.7565 450.971 79.8363 Q450.971 83.8293 448.61 86.2425 Q446.249 88.6557 442.325 88.6557 Q437.829 88.6557 435.45 85.2182 Q433.072 81.7634 433.072 75.2183 Q433.072 69.0725 435.988 65.4266 Q438.905 61.7635 443.818 61.7635 Q445.138 61.7635 446.475 62.0239 Q447.829 62.2843 449.287 62.8051 Z" fill="#000000" fill-rule="evenodd" fill-opacity="1" /><path clip-path="url(#clip920)" d="M 0 0 M276.025 85.2008 L281.754 85.2008 L281.754 65.4266 L275.521 66.6766 L275.521 63.4822 L281.719 62.2322 L285.226 62.2322 L285.226 85.2008 L290.955 85.2008 L290.955 88.1522 L276.025 88.1522 L276.025 85.2008 Z" fill="#000000" fill-rule="evenodd" fill-opacity="1" /><path clip-path="url(#clip920)" d="M 0 0 M305.538 75.8433 Q303.038 75.8433 301.598 77.1801 Q300.174 78.5169 300.174 80.8606 Q300.174 83.2043 301.598 84.5411 Q303.038 85.8779 305.538 85.8779 Q308.038 85.8779 309.479 84.5411 Q310.92 83.187 310.92 80.8606 Q310.92 78.5169 309.479 77.1801 Q308.056 75.8433 305.538 75.8433 M302.032 74.3502 Q299.775 73.7947 298.507 72.2495 Q297.257 70.7044 297.257 68.4822 Q297.257 65.3746 299.462 63.569 Q301.684 61.7635 305.538 61.7635 Q309.41 61.7635 311.615 63.569 Q313.82 65.3746 313.82 68.4822 Q313.82 70.7044 312.552 72.2495 Q311.302 73.7947 309.063 74.3502 Q311.597 74.9405 313.004 76.6592 Q314.427 78.378 314.427 80.8606 Q314.427 84.6279 312.118 86.6418 Q309.827 88.6557 305.538 88.6557 Q301.25 88.6557 298.941 86.6418 Q296.65 84.6279 296.65 80.8606 Q296.65 78.378 298.073 76.6592 Q299.497 74.9405 302.032 74.3502 M300.747 68.812 Q300.747 70.8259 301.997 71.9544 Q303.264 73.0829 305.538 73.0829 Q307.795 73.0829 309.063 71.9544 Q310.347 70.8259 310.347 68.812 Q310.347 66.7982 309.063 65.6697 Q307.795 64.5412 305.538 64.5412 Q303.264 64.5412 301.997 65.6697 Q300.747 66.7982 300.747 68.812 Z" fill="#000000" fill-rule="evenodd" fill-opacity="1" /><path clip-path="url(#clip920)" d="M 0 0 M143.387 85.2008 L155.627 85.2008 L155.627 88.1522 L139.169 88.1522 L139.169 85.2008 Q141.165 83.1349 144.603 79.6627 Q148.057 76.1731 148.943 75.1662 Q150.627 73.2738 151.286 71.9718 Q151.964 70.6523 151.964 69.385 Q151.964 67.319 150.505 66.0169 Q149.064 64.7148 146.738 64.7148 Q145.089 64.7148 143.248 65.2878 Q141.425 65.8607 139.342 67.0239 L139.342 63.4822 Q141.46 62.6315 143.3 62.1975 Q145.141 61.7635 146.668 61.7635 Q150.696 61.7635 153.092 63.7774 Q155.488 65.7912 155.488 69.1593 Q155.488 70.7565 154.88 72.1974 Q154.29 73.621 152.71 75.5655 Q152.276 76.069 149.95 78.4821 Q147.623 80.878 143.387 85.2008 Z" fill="#000000" fill-rule="evenodd" fill-opacity="1" /><path clip-path="url(#clip920)" d="M 0 0 M170.488 64.5412 Q167.779 64.5412 166.408 67.2148 Q165.054 69.8711 165.054 75.2183 Q165.054 80.5481 166.408 83.2217 Q167.779 85.8779 170.488 85.8779 Q173.213 85.8779 174.568 83.2217 Q175.939 80.5481 175.939 75.2183 Q175.939 69.8711 174.568 67.2148 Q173.213 64.5412 170.488 64.5412 M170.488 61.7635 Q174.845 61.7635 177.137 65.2183 Q179.446 68.6558 179.446 75.2183 Q179.446 81.7634 177.137 85.2182 Q174.845 88.6557 170.488 88.6557 Q166.13 88.6557 163.821 85.2182 Q161.529 81.7634 161.529 75.2183 Q161.529 68.6558 163.821 65.2183 Q166.13 61.7635 170.488 61.7635 Z" fill="#000000" fill-rule="evenodd" fill-opacity="1" /><path clip-path="url(#clip920)" d="M 0 0 M416.093 284.737 L428.332 284.737 L428.332 287.688 L411.874 287.688 L411.874 284.737 Q413.871 282.671 417.308 279.199 Q420.763 275.709 421.648 274.702 Q423.332 272.81 423.992 271.508 Q424.669 270.188 424.669 268.921 Q424.669 266.855 423.211 265.553 Q421.77 264.251 419.443 264.251 Q417.794 264.251 415.954 264.824 Q414.131 265.397 412.048 266.56 L412.048 263.018 Q414.166 262.167 416.006 261.733 Q417.846 261.299 419.374 261.299 Q423.402 261.299 425.798 263.313 Q428.193 265.327 428.193 268.695 Q428.193 270.292 427.586 271.733 Q426.995 273.157 425.416 275.101 Q424.982 275.605 422.655 278.018 Q420.329 280.414 416.093 284.737 Z" fill="#000000" fill-rule="evenodd" fill-opacity="1" /><path clip-path="url(#clip920)" d="M 0 0 M436.301 284.737 L442.03 284.737 L442.03 264.963 L435.797 266.213 L435.797 263.018 L441.995 261.768 L445.502 261.768 L445.502 284.737 L451.231 284.737 L451.231 287.688 L436.301 287.688 L436.301 284.737 Z" fill="#000000" fill-rule="evenodd" fill-opacity="1" /><path clip-path="url(#clip920)" d="M 0 0 M416.093 384.505 L428.332 384.505 L428.332 387.456 L411.874 387.456 L411.874 384.505 Q413.871 382.439 417.308 378.967 Q420.763 375.477 421.648 374.47 Q423.332 372.578 423.992 371.276 Q424.669 369.956 424.669 368.689 Q424.669 366.623 423.211 365.321 Q421.77 364.019 419.443 364.019 Q417.794 364.019 415.954 364.592 Q414.131 365.165 412.048 366.328 L412.048 362.786 Q414.166 361.935 416.006 361.501 Q417.846 361.067 419.374 361.067 Q423.402 361.067 425.798 363.081 Q428.193 365.095 428.193 368.463 Q428.193 370.06 427.586 371.501 Q426.995 372.925 425.416 374.869 Q424.982 375.373 422.655 377.786 Q420.329 380.182 416.093 384.505 Z" fill="#000000" fill-rule="evenodd" fill-opacity="1" /><path clip-path="url(#clip920)" d="M 0 0 M438.714 384.505 L450.954 384.505 L450.954 387.456 L434.495 387.456 L434.495 384.505 Q436.492 382.439 439.929 378.967 Q443.384 375.477 444.27 374.47 Q445.954 372.578 446.613 371.276 Q447.29 369.956 447.29 368.689 Q447.29 366.623 445.832 365.321 Q444.391 364.019 442.065 364.019 Q440.416 364.019 438.575 364.592 Q436.752 365.165 434.669 366.328 L434.669 362.786 Q436.787 361.935 438.627 361.501 Q440.468 361.067 441.995 361.067 Q446.023 361.067 448.419 363.081 Q450.815 365.095 450.815 368.463 Q450.815 370.06 450.207 371.501 Q449.617 372.925 448.037 374.869 Q447.603 375.373 445.277 377.786 Q442.95 380.182 438.714 384.505 Z" fill="#000000" fill-rule="evenodd" fill-opacity="1" /><path clip-path="url(#clip920)" d="M 0 0 M279.74 284.737 L291.98 284.737 L291.98 287.688 L275.521 287.688 L275.521 284.737 Q277.518 282.671 280.955 279.199 Q284.41 275.709 285.296 274.702 Q286.98 272.81 287.639 271.508 Q288.316 270.188 288.316 268.921 Q288.316 266.855 286.858 265.553 Q285.417 264.251 283.091 264.251 Q281.441 264.251 279.601 264.824 Q277.778 265.397 275.695 266.56 L275.695 263.018 Q277.813 262.167 279.653 261.733 Q281.493 261.299 283.021 261.299 Q287.049 261.299 289.445 263.313 Q291.841 265.327 291.841 268.695 Q291.841 270.292 291.233 271.733 Q290.643 273.157 289.063 275.101 Q288.629 275.605 286.302 278.018 Q283.976 280.414 279.74 284.737 Z" fill="#000000" fill-rule="evenodd" fill-opacity="1" /><path clip-path="url(#clip920)" d="M 0 0 M309.966 273.712 Q312.483 274.251 313.889 275.952 Q315.313 277.653 315.313 280.153 Q315.313 283.99 312.674 286.091 Q310.035 288.192 305.174 288.192 Q303.542 288.192 301.806 287.862 Q300.087 287.549 298.247 286.907 L298.247 283.521 Q299.705 284.372 301.441 284.806 Q303.177 285.24 305.07 285.24 Q308.368 285.24 310.087 283.938 Q311.823 282.636 311.823 280.153 Q311.823 277.862 310.209 276.577 Q308.611 275.275 305.747 275.275 L302.726 275.275 L302.726 272.393 L305.886 272.393 Q308.472 272.393 309.844 271.369 Q311.216 270.327 311.216 268.383 Q311.216 266.386 309.792 265.327 Q308.386 264.251 305.747 264.251 Q304.306 264.251 302.657 264.563 Q301.007 264.876 299.028 265.535 L299.028 262.41 Q301.025 261.855 302.761 261.577 Q304.514 261.299 306.059 261.299 Q310.052 261.299 312.379 263.122 Q314.705 264.928 314.705 268.018 Q314.705 270.171 313.472 271.664 Q312.24 273.14 309.966 273.712 Z" fill="#000000" fill-rule="evenodd" fill-opacity="1" /><path clip-path="url(#clip920)" d="M 0 0 M279.74 384.505 L291.98 384.505 L291.98 387.456 L275.521 387.456 L275.521 384.505 Q277.518 382.439 280.955 378.967 Q284.41 375.477 285.296 374.47 Q286.98 372.578 287.639 371.276 Q288.316 369.956 288.316 368.689 Q288.316 366.623 286.858 365.321 Q285.417 364.019 283.091 364.019 Q281.441 364.019 279.601 364.592 Q277.778 365.165 275.695 366.328 L275.695 362.786 Q277.813 361.935 279.653 361.501 Q281.493 361.067 283.021 361.067 Q287.049 361.067 289.445 363.081 Q291.841 365.095 291.841 368.463 Q291.841 370.06 291.233 371.501 Q290.643 372.925 289.063 374.869 Q288.629 375.373 286.302 377.786 Q283.976 380.182 279.74 384.505 Z" fill="#000000" fill-rule="evenodd" fill-opacity="1" /><path clip-path="url(#clip920)" d="M 0 0 M308.976 364.592 L300.122 378.428 L308.976 378.428 L308.976 364.592 M308.056 361.536 L312.466 361.536 L312.466 378.428 L316.163 378.428 L316.163 381.345 L312.466 381.345 L312.466 387.456 L308.976 387.456 L308.976 381.345 L297.275 381.345 L297.275 377.96 L308.056 361.536 Z" fill="#000000" fill-rule="evenodd" fill-opacity="1" /><circle clip-path="url(#clip922)" cx="752.756" cy="744.42" r="14" fill="#0000ff" fill-rule="evenodd" fill-opacity="1" stroke="none"/>
<circle clip-path="url(#clip922)" cx="752.756" cy="844.188" r="14" fill="#0000ff" fill-rule="evenodd" fill-opacity="1" stroke="none"/>
<circle clip-path="url(#clip922)" cx="616.403" cy="744.42" r="14" fill="#0000ff" fill-rule="evenodd" fill-opacity="1" stroke="none"/>
<circle clip-path="url(#clip922)" cx="616.403" cy="844.188" r="14" fill="#0000ff" fill-rule="evenodd" fill-opacity="1" stroke="none"/>
<circle clip-path="url(#clip922)" cx="480.05" cy="744.42" r="14" fill="#0000ff" fill-rule="evenodd" fill-opacity="1" stroke="none"/>
<circle clip-path="url(#clip922)" cx="480.05" cy="844.188" r="14" fill="#0000ff" fill-rule="evenodd" fill-opacity="1" stroke="none"/>
<circle clip-path="url(#clip922)" cx="548.227" cy="594.768" r="14" fill="#0000ff" fill-rule="evenodd" fill-opacity="1" stroke="none"/>
<circle clip-path="url(#clip922)" cx="548.227" cy="694.536" r="14" fill="#0000ff" fill-rule="evenodd" fill-opacity="1" stroke="none"/>
<circle clip-path="url(#clip922)" cx="684.58" cy="894.072" r="14" fill="#0000ff" fill-rule="evenodd" fill-opacity="1" stroke="none"/>
<circle clip-path="url(#clip922)" cx="548.227" cy="894.072" r="14" fill="#0000ff" fill-rule="evenodd" fill-opacity="1" stroke="none"/>
<path clip-path="url(#clip920)" d="M 0 0 M753.259 733.692 L758.989 733.692 L758.989 713.918 L752.756 715.168 L752.756 711.974 L758.954 710.724 L762.461 710.724 L762.461 733.692 L768.19 733.692 L768.19 736.644 L753.259 736.644 L753.259 733.692 Z" fill="#000000" fill-rule="evenodd" fill-opacity="1" /><path clip-path="url(#clip920)" d="M 0 0 M756.975 833.46 L769.214 833.46 L769.214 836.412 L752.756 836.412 L752.756 833.46 Q754.752 831.394 758.19 827.922 Q761.645 824.433 762.53 823.426 Q764.214 821.533 764.874 820.231 Q765.551 818.912 765.551 817.645 Q765.551 815.579 764.093 814.277 Q762.652 812.974 760.325 812.974 Q758.676 812.974 756.836 813.547 Q755.013 814.12 752.93 815.283 L752.93 811.742 Q755.048 810.891 756.888 810.457 Q758.728 810.023 760.256 810.023 Q764.284 810.023 766.679 812.037 Q769.075 814.051 769.075 817.419 Q769.075 819.016 768.468 820.457 Q767.877 821.881 766.297 823.825 Q765.863 824.329 763.537 826.742 Q761.211 829.138 756.975 833.46 Z" fill="#000000" fill-rule="evenodd" fill-opacity="1" /><path clip-path="url(#clip920)" d="M 0 0 M628.122 722.668 Q630.639 723.206 632.045 724.908 Q633.469 726.609 633.469 729.109 Q633.469 732.946 630.83 735.047 Q628.191 737.147 623.33 737.147 Q621.698 737.147 619.962 736.817 Q618.243 736.505 616.403 735.863 L616.403 732.477 Q617.861 733.328 619.598 733.762 Q621.334 734.196 623.226 734.196 Q626.525 734.196 628.243 732.894 Q629.979 731.592 629.979 729.109 Q629.979 726.818 628.365 725.533 Q626.768 724.231 623.903 724.231 L620.882 724.231 L620.882 721.349 L624.042 721.349 Q626.629 721.349 628 720.325 Q629.372 719.283 629.372 717.338 Q629.372 715.342 627.948 714.283 Q626.542 713.206 623.903 713.206 Q622.462 713.206 620.813 713.519 Q619.164 713.831 617.184 714.491 L617.184 711.366 Q619.181 710.811 620.917 710.533 Q622.67 710.255 624.216 710.255 Q628.209 710.255 630.535 712.078 Q632.861 713.884 632.861 716.974 Q632.861 719.127 631.629 720.62 Q630.396 722.095 628.122 722.668 Z" fill="#000000" fill-rule="evenodd" fill-opacity="1" /><path clip-path="url(#clip920)" d="M 0 0 M628.104 813.547 L619.25 827.384 L628.104 827.384 L628.104 813.547 M627.184 810.492 L631.594 810.492 L631.594 827.384 L635.292 827.384 L635.292 830.301 L631.594 830.301 L631.594 836.412 L628.104 836.412 L628.104 830.301 L616.403 830.301 L616.403 826.915 L627.184 810.492 Z" fill="#000000" fill-rule="evenodd" fill-opacity="1" /><path clip-path="url(#clip920)" d="M 0 0 M481.144 710.724 L494.911 710.724 L494.911 713.675 L484.356 713.675 L484.356 720.029 Q485.12 719.769 485.884 719.647 Q486.648 719.509 487.411 719.509 Q491.752 719.509 494.286 721.887 Q496.821 724.265 496.821 728.328 Q496.821 732.512 494.217 734.838 Q491.613 737.147 486.873 737.147 Q485.241 737.147 483.54 736.87 Q481.856 736.592 480.05 736.036 L480.05 732.512 Q481.613 733.363 483.28 733.779 Q484.946 734.196 486.804 734.196 Q489.807 734.196 491.561 732.616 Q493.314 731.036 493.314 728.328 Q493.314 725.62 491.561 724.04 Q489.807 722.46 486.804 722.46 Q485.398 722.46 483.991 722.772 Q482.602 723.085 481.144 723.745 L481.144 710.724 Z" fill="#000000" fill-rule="evenodd" fill-opacity="1" /><path clip-path="url(#clip920)" d="M 0 0 M489.304 822.054 Q486.943 822.054 485.554 823.669 Q484.182 825.283 484.182 828.096 Q484.182 830.891 485.554 832.523 Q486.943 834.138 489.304 834.138 Q491.665 834.138 493.036 832.523 Q494.425 830.891 494.425 828.096 Q494.425 825.283 493.036 823.669 Q491.665 822.054 489.304 822.054 M496.266 811.065 L496.266 814.259 Q494.946 813.634 493.592 813.304 Q492.255 812.974 490.936 812.974 Q487.464 812.974 485.623 815.318 Q483.8 817.662 483.54 822.401 Q484.564 820.891 486.109 820.092 Q487.655 819.276 489.512 819.276 Q493.418 819.276 495.675 821.655 Q497.95 824.016 497.95 828.096 Q497.95 832.089 495.589 834.502 Q493.227 836.915 489.304 836.915 Q484.807 836.915 482.429 833.478 Q480.05 830.023 480.05 823.478 Q480.05 817.332 482.967 813.686 Q485.884 810.023 490.797 810.023 Q492.116 810.023 493.453 810.283 Q494.807 810.544 496.266 811.065 Z" fill="#000000" fill-rule="evenodd" fill-opacity="1" /><path clip-path="url(#clip920)" d="M 0 0 M548.73 584.041 L554.459 584.041 L554.459 564.266 L548.227 565.516 L548.227 562.322 L554.425 561.072 L557.932 561.072 L557.932 584.041 L563.661 584.041 L563.661 586.992 L548.73 586.992 L548.73 584.041 Z" fill="#000000" fill-rule="evenodd" fill-opacity="1" /><path clip-path="url(#clip920)" d="M 0 0 M581.369 573.016 Q583.886 573.555 585.293 575.256 Q586.716 576.957 586.716 579.457 Q586.716 583.294 584.077 585.395 Q581.438 587.495 576.577 587.495 Q574.945 587.495 573.209 587.166 Q571.491 586.853 569.65 586.211 L569.65 582.825 Q571.109 583.676 572.845 584.11 Q574.581 584.544 576.473 584.544 Q579.772 584.544 581.49 583.242 Q583.227 581.94 583.227 579.457 Q583.227 577.166 581.612 575.881 Q580.015 574.579 577.15 574.579 L574.129 574.579 L574.129 571.697 L577.289 571.697 Q579.876 571.697 581.247 570.673 Q582.619 569.631 582.619 567.686 Q582.619 565.69 581.195 564.631 Q579.789 563.555 577.15 563.555 Q575.709 563.555 574.06 563.867 Q572.411 564.18 570.432 564.839 L570.432 561.714 Q572.428 561.159 574.164 560.881 Q575.918 560.603 577.463 560.603 Q581.456 560.603 583.782 562.426 Q586.109 564.232 586.109 567.322 Q586.109 569.475 584.876 570.968 Q583.643 572.443 581.369 573.016 Z" fill="#000000" fill-rule="evenodd" fill-opacity="1" /><path clip-path="url(#clip920)" d="M 0 0 M548.73 683.809 L554.459 683.809 L554.459 664.034 L548.227 665.284 L548.227 662.09 L554.425 660.84 L557.932 660.84 L557.932 683.809 L563.661 683.809 L563.661 686.76 L548.73 686.76 L548.73 683.809 Z" fill="#000000" fill-rule="evenodd" fill-opacity="1" /><path clip-path="url(#clip920)" d="M 0 0 M580.379 663.895 L571.525 677.732 L580.379 677.732 L580.379 663.895 M579.459 660.84 L583.869 660.84 L583.869 677.732 L587.567 677.732 L587.567 680.649 L583.869 680.649 L583.869 686.76 L580.379 686.76 L580.379 680.649 L568.678 680.649 L568.678 677.263 L579.459 660.84 Z" fill="#000000" fill-rule="evenodd" fill-opacity="1" /><path clip-path="url(#clip920)" d="M 0 0 M685.083 883.344 L690.812 883.344 L690.812 863.57 L684.58 864.82 L684.58 861.626 L690.777 860.376 L694.284 860.376 L694.284 883.344 L700.013 883.344 L700.013 886.296 L685.083 886.296 L685.083 883.344 Z" fill="#000000" fill-rule="evenodd" fill-opacity="1" /><path clip-path="url(#clip920)" d="M 0 0 M706.211 860.376 L722.878 860.376 L722.878 861.869 L713.468 886.296 L709.805 886.296 L718.659 863.327 L706.211 863.327 L706.211 860.376 Z" fill="#000000" fill-rule="evenodd" fill-opacity="1" /><path clip-path="url(#clip920)" d="M 0 0 M548.73 883.344 L554.459 883.344 L554.459 863.57 L548.227 864.82 L548.227 861.626 L554.425 860.376 L557.932 860.376 L557.932 883.344 L563.661 883.344 L563.661 886.296 L548.73 886.296 L548.73 883.344 Z" fill="#000000" fill-rule="evenodd" fill-opacity="1" /><path clip-path="url(#clip920)" d="M 0 0 M570.848 885.758 L570.848 882.563 Q572.168 883.188 573.522 883.518 Q574.876 883.848 576.178 883.848 Q579.65 883.848 581.473 881.521 Q583.313 879.178 583.574 874.421 Q582.567 875.914 581.022 876.712 Q579.477 877.511 577.602 877.511 Q573.713 877.511 571.438 875.167 Q569.182 872.806 569.182 868.726 Q569.182 864.733 571.543 862.32 Q573.904 859.907 577.827 859.907 Q582.324 859.907 584.685 863.362 Q587.063 866.799 587.063 873.362 Q587.063 879.49 584.147 883.153 Q581.247 886.799 576.334 886.799 Q575.015 886.799 573.661 886.539 Q572.307 886.278 570.848 885.758 M577.827 874.768 Q580.188 874.768 581.56 873.153 Q582.949 871.539 582.949 868.726 Q582.949 865.931 581.56 864.317 Q580.188 862.685 577.827 862.685 Q575.466 862.685 574.077 864.317 Q572.706 865.931 572.706 868.726 Q572.706 871.539 574.077 873.153 Q575.466 874.768 577.827 874.768 Z" fill="#000000" fill-rule="evenodd" fill-opacity="1" /><circle clip-path="url(#clip922)" cx="752.756" cy="145.812" r="14" fill="#0000ff" fill-rule="evenodd" fill-opacity="1" stroke="none"/>
<circle clip-path="url(#clip922)" cx="752.756" cy="245.58" r="14" fill="#0000ff" fill-rule="evenodd" fill-opacity="1" stroke="none"/>
<circle clip-path="url(#clip922)" cx="616.403" cy="145.812" r="14" fill="#0000ff" fill-rule="evenodd" fill-opacity="1" stroke="none"/>
<circle clip-path="url(#clip922)" cx="616.403" cy="245.58" r="14" fill="#0000ff" fill-rule="evenodd" fill-opacity="1" stroke="none"/>
<circle clip-path="url(#clip922)" cx="480.05" cy="145.812" r="14" fill="#0000ff" fill-rule="evenodd" fill-opacity="1" stroke="none"/>
<circle clip-path="url(#clip922)" cx="480.05" cy="245.58" r="14" fill="#0000ff" fill-rule="evenodd" fill-opacity="1" stroke="none"/>
<circle clip-path="url(#clip922)" cx="752.756" cy="445.116" r="14" fill="#0000ff" fill-rule="evenodd" fill-opacity="1" stroke="none"/>
<circle clip-path="url(#clip922)" cx="752.756" cy="544.884" r="14" fill="#0000ff" fill-rule="evenodd" fill-opacity="1" stroke="none"/>
<circle clip-path="url(#clip922)" cx="616.403" cy="445.116" r="14" fill="#0000ff" fill-rule="evenodd" fill-opacity="1" stroke="none"/>
<circle clip-path="url(#clip922)" cx="616.403" cy="544.884" r="14" fill="#0000ff" fill-rule="evenodd" fill-opacity="1" stroke="none"/>
<circle clip-path="url(#clip922)" cx="480.05" cy="445.116" r="14" fill="#0000ff" fill-rule="evenodd" fill-opacity="1" stroke="none"/>
<circle clip-path="url(#clip922)" cx="480.05" cy="544.884" r="14" fill="#0000ff" fill-rule="evenodd" fill-opacity="1" stroke="none"/>
<circle clip-path="url(#clip922)" cx="548.227" cy="95.9282" r="14" fill="#0000ff" fill-rule="evenodd" fill-opacity="1" stroke="none"/>
<circle clip-path="url(#clip922)" cx="684.58" cy="295.464" r="14" fill="#0000ff" fill-rule="evenodd" fill-opacity="1" stroke="none"/>
<circle clip-path="url(#clip922)" cx="684.58" cy="395.232" r="14" fill="#0000ff" fill-rule="evenodd" fill-opacity="1" stroke="none"/>
<circle clip-path="url(#clip922)" cx="548.227" cy="295.464" r="14" fill="#0000ff" fill-rule="evenodd" fill-opacity="1" stroke="none"/>
<circle clip-path="url(#clip922)" cx="548.227" cy="395.232" r="14" fill="#0000ff" fill-rule="evenodd" fill-opacity="1" stroke="none"/>
<circle clip-path="url(#clip922)" cx="684.58" cy="594.768" r="14" fill="#0000ff" fill-rule="evenodd" fill-opacity="1" stroke="none"/>
<circle clip-path="url(#clip922)" cx="684.58" cy="694.536" r="14" fill="#0000ff" fill-rule="evenodd" fill-opacity="1" stroke="none"/>
<path clip-path="url(#clip920)" d="M 0 0 M753.259 135.085 L758.989 135.085 L758.989 115.311 L752.756 116.561 L752.756 113.366 L758.954 112.116 L762.461 112.116 L762.461 135.085 L768.19 135.085 L768.19 138.036 L753.259 138.036 L753.259 135.085 Z" fill="#000000" fill-rule="evenodd" fill-opacity="1" /><path clip-path="url(#clip920)" d="M 0 0 M756.975 234.853 L769.214 234.853 L769.214 237.804 L752.756 237.804 L752.756 234.853 Q754.752 232.787 758.19 229.315 Q761.645 225.825 762.53 224.818 Q764.214 222.926 764.874 221.624 Q765.551 220.304 765.551 219.037 Q765.551 216.971 764.093 215.669 Q762.652 214.367 760.325 214.367 Q758.676 214.367 756.836 214.94 Q755.013 215.513 752.93 216.676 L752.93 213.134 Q755.048 212.283 756.888 211.849 Q758.728 211.415 760.256 211.415 Q764.284 211.415 766.679 213.429 Q769.075 215.443 769.075 218.811 Q769.075 220.408 768.468 221.849 Q767.877 223.273 766.297 225.217 Q765.863 225.721 763.537 228.134 Q761.211 230.53 756.975 234.853 Z" fill="#000000" fill-rule="evenodd" fill-opacity="1" /><path clip-path="url(#clip920)" d="M 0 0 M628.122 124.061 Q630.639 124.599 632.045 126.3 Q633.469 128.002 633.469 130.502 Q633.469 134.338 630.83 136.439 Q628.191 138.54 623.33 138.54 Q621.698 138.54 619.962 138.21 Q618.243 137.897 616.403 137.255 L616.403 133.87 Q617.861 134.72 619.598 135.154 Q621.334 135.588 623.226 135.588 Q626.525 135.588 628.243 134.286 Q629.979 132.984 629.979 130.502 Q629.979 128.21 628.365 126.925 Q626.768 125.623 623.903 125.623 L620.882 125.623 L620.882 122.741 L624.042 122.741 Q626.629 122.741 628 121.717 Q629.372 120.675 629.372 118.731 Q629.372 116.734 627.948 115.675 Q626.542 114.599 623.903 114.599 Q622.462 114.599 620.813 114.911 Q619.164 115.224 617.184 115.884 L617.184 112.759 Q619.181 112.203 620.917 111.925 Q622.67 111.647 624.216 111.647 Q628.209 111.647 630.535 113.47 Q632.861 115.276 632.861 118.366 Q632.861 120.519 631.629 122.012 Q630.396 123.488 628.122 124.061 Z" fill="#000000" fill-rule="evenodd" fill-opacity="1" /><path clip-path="url(#clip920)" d="M 0 0 M628.104 214.94 L619.25 228.776 L628.104 228.776 L628.104 214.94 M627.184 211.884 L631.594 211.884 L631.594 228.776 L635.292 228.776 L635.292 231.693 L631.594 231.693 L631.594 237.804 L628.104 237.804 L628.104 231.693 L616.403 231.693 L616.403 228.308 L627.184 211.884 Z" fill="#000000" fill-rule="evenodd" fill-opacity="1" /><path clip-path="url(#clip920)" d="M 0 0 M481.144 112.116 L494.911 112.116 L494.911 115.068 L484.356 115.068 L484.356 121.422 Q485.12 121.161 485.884 121.04 Q486.648 120.901 487.411 120.901 Q491.752 120.901 494.286 123.279 Q496.821 125.658 496.821 129.72 Q496.821 133.904 494.217 136.231 Q491.613 138.54 486.873 138.54 Q485.241 138.54 483.54 138.262 Q481.856 137.984 480.05 137.429 L480.05 133.904 Q481.613 134.755 483.28 135.172 Q484.946 135.588 486.804 135.588 Q489.807 135.588 491.561 134.008 Q493.314 132.429 493.314 129.72 Q493.314 127.012 491.561 125.432 Q489.807 123.852 486.804 123.852 Q485.398 123.852 483.991 124.165 Q482.602 124.477 481.144 125.137 L481.144 112.116 Z" fill="#000000" fill-rule="evenodd" fill-opacity="1" /><path clip-path="url(#clip920)" d="M 0 0 M489.304 223.447 Q486.943 223.447 485.554 225.061 Q484.182 226.676 484.182 229.488 Q484.182 232.283 485.554 233.915 Q486.943 235.53 489.304 235.53 Q491.665 235.53 493.036 233.915 Q494.425 232.283 494.425 229.488 Q494.425 226.676 493.036 225.061 Q491.665 223.447 489.304 223.447 M496.266 212.457 L496.266 215.651 Q494.946 215.026 493.592 214.697 Q492.255 214.367 490.936 214.367 Q487.464 214.367 485.623 216.711 Q483.8 219.054 483.54 223.794 Q484.564 222.283 486.109 221.485 Q487.655 220.669 489.512 220.669 Q493.418 220.669 495.675 223.047 Q497.95 225.408 497.95 229.488 Q497.95 233.481 495.589 235.894 Q493.227 238.308 489.304 238.308 Q484.807 238.308 482.429 234.87 Q480.05 231.415 480.05 224.87 Q480.05 218.724 482.967 215.079 Q485.884 211.415 490.797 211.415 Q492.116 211.415 493.453 211.676 Q494.807 211.936 496.266 212.457 Z" fill="#000000" fill-rule="evenodd" fill-opacity="1" /><path clip-path="url(#clip920)" d="M 0 0 M752.756 411.42 L769.422 411.42 L769.422 412.913 L760.013 437.34 L756.35 437.34 L765.204 414.371 L752.756 414.371 L752.756 411.42 Z" fill="#000000" fill-rule="evenodd" fill-opacity="1" /><path clip-path="url(#clip920)" d="M 0 0 M761.645 524.799 Q759.145 524.799 757.704 526.136 Q756.28 527.473 756.28 529.816 Q756.28 532.16 757.704 533.497 Q759.145 534.834 761.645 534.834 Q764.145 534.834 765.586 533.497 Q767.027 532.143 767.027 529.816 Q767.027 527.473 765.586 526.136 Q764.162 524.799 761.645 524.799 M758.138 523.306 Q755.881 522.75 754.614 521.205 Q753.364 519.66 753.364 517.438 Q753.364 514.33 755.568 512.525 Q757.791 510.719 761.645 510.719 Q765.516 510.719 767.721 512.525 Q769.926 514.33 769.926 517.438 Q769.926 519.66 768.659 521.205 Q767.409 522.75 765.169 523.306 Q767.704 523.896 769.11 525.615 Q770.534 527.334 770.534 529.816 Q770.534 533.584 768.225 535.598 Q765.933 537.611 761.645 537.611 Q757.357 537.611 755.048 535.598 Q752.756 533.584 752.756 529.816 Q752.756 527.334 754.18 525.615 Q755.603 523.896 758.138 523.306 M756.853 517.768 Q756.853 519.782 758.103 520.91 Q759.37 522.039 761.645 522.039 Q763.902 522.039 765.169 520.91 Q766.454 519.782 766.454 517.768 Q766.454 515.754 765.169 514.625 Q763.902 513.497 761.645 513.497 Q759.37 513.497 758.103 514.625 Q756.853 515.754 756.853 517.768 Z" fill="#000000" fill-rule="evenodd" fill-opacity="1" /><path clip-path="url(#clip920)" d="M 0 0 M618.07 436.802 L618.07 433.607 Q619.389 434.232 620.743 434.562 Q622.098 434.892 623.4 434.892 Q626.872 434.892 628.695 432.566 Q630.535 430.222 630.795 425.465 Q629.788 426.958 628.243 427.757 Q626.698 428.555 624.823 428.555 Q620.934 428.555 618.66 426.212 Q616.403 423.851 616.403 419.771 Q616.403 415.778 618.764 413.364 Q621.125 410.951 625.049 410.951 Q629.545 410.951 631.907 414.406 Q634.285 417.844 634.285 424.406 Q634.285 430.535 631.368 434.198 Q628.469 437.843 623.556 437.843 Q622.236 437.843 620.882 437.583 Q619.528 437.323 618.07 436.802 M625.049 425.812 Q627.41 425.812 628.782 424.198 Q630.17 422.583 630.17 419.771 Q630.17 416.976 628.782 415.361 Q627.41 413.729 625.049 413.729 Q622.688 413.729 621.299 415.361 Q619.927 416.976 619.927 419.771 Q619.927 422.583 621.299 424.198 Q622.688 425.812 625.049 425.812 Z" fill="#000000" fill-rule="evenodd" fill-opacity="1" /><path clip-path="url(#clip920)" d="M 0 0 M616.907 534.157 L622.636 534.157 L622.636 514.382 L616.403 515.632 L616.403 512.438 L622.601 511.188 L626.108 511.188 L626.108 534.157 L631.837 534.157 L631.837 537.108 L616.907 537.108 L616.907 534.157 Z" fill="#000000" fill-rule="evenodd" fill-opacity="1" /><path clip-path="url(#clip920)" d="M 0 0 M646.42 513.497 Q643.712 513.497 642.341 516.171 Q640.986 518.827 640.986 524.174 Q640.986 529.504 642.341 532.177 Q643.712 534.834 646.42 534.834 Q649.146 534.834 650.5 532.177 Q651.872 529.504 651.872 524.174 Q651.872 518.827 650.5 516.171 Q649.146 513.497 646.42 513.497 M646.42 510.719 Q650.778 510.719 653.07 514.174 Q655.379 517.612 655.379 524.174 Q655.379 530.719 653.07 534.174 Q650.778 537.611 646.42 537.611 Q642.063 537.611 639.754 534.174 Q637.462 530.719 637.462 524.174 Q637.462 517.612 639.754 514.174 Q642.063 510.719 646.42 510.719 Z" fill="#000000" fill-rule="evenodd" fill-opacity="1" /><path clip-path="url(#clip920)" d="M 0 0 M480.554 434.389 L486.283 434.389 L486.283 414.614 L480.05 415.864 L480.05 412.67 L486.248 411.42 L489.755 411.42 L489.755 434.389 L495.484 434.389 L495.484 437.34 L480.554 437.34 L480.554 434.389 Z" fill="#000000" fill-rule="evenodd" fill-opacity="1" /><path clip-path="url(#clip920)" d="M 0 0 M503.175 434.389 L508.904 434.389 L508.904 414.614 L502.672 415.864 L502.672 412.67 L508.87 411.42 L512.377 411.42 L512.377 434.389 L518.106 434.389 L518.106 437.34 L503.175 437.34 L503.175 434.389 Z" fill="#000000" fill-rule="evenodd" fill-opacity="1" /><path clip-path="url(#clip920)" d="M 0 0 M480.554 534.157 L486.283 534.157 L486.283 514.382 L480.05 515.632 L480.05 512.438 L486.248 511.188 L489.755 511.188 L489.755 534.157 L495.484 534.157 L495.484 537.108 L480.554 537.108 L480.554 534.157 Z" fill="#000000" fill-rule="evenodd" fill-opacity="1" /><path clip-path="url(#clip920)" d="M 0 0 M505.588 534.157 L517.828 534.157 L517.828 537.108 L501.37 537.108 L501.37 534.157 Q503.366 532.091 506.804 528.618 Q510.259 525.129 511.144 524.122 Q512.828 522.23 513.488 520.928 Q514.165 519.608 514.165 518.341 Q514.165 516.275 512.706 514.973 Q511.266 513.671 508.939 513.671 Q507.29 513.671 505.45 514.244 Q503.627 514.816 501.543 515.98 L501.543 512.438 Q503.661 511.587 505.502 511.153 Q507.342 510.719 508.87 510.719 Q512.897 510.719 515.293 512.733 Q517.689 514.747 517.689 518.115 Q517.689 519.712 517.081 521.153 Q516.491 522.577 514.911 524.521 Q514.477 525.025 512.151 527.438 Q509.825 529.834 505.588 534.157 Z" fill="#000000" fill-rule="evenodd" fill-opacity="1" /><path clip-path="url(#clip920)" d="M 0 0 M548.73 85.2008 L554.459 85.2008 L554.459 65.4266 L548.227 66.6766 L548.227 63.4822 L554.425 62.2322 L557.932 62.2322 L557.932 85.2008 L563.661 85.2008 L563.661 88.1522 L548.73 88.1522 L548.73 85.2008 Z" fill="#000000" fill-rule="evenodd" fill-opacity="1" /><path clip-path="url(#clip920)" d="M 0 0 M580.379 65.2878 L571.525 79.1245 L580.379 79.1245 L580.379 65.2878 M579.459 62.2322 L583.869 62.2322 L583.869 79.1245 L587.567 79.1245 L587.567 82.0411 L583.869 82.0411 L583.869 88.1522 L580.379 88.1522 L580.379 82.0411 L568.678 82.0411 L568.678 78.6557 L579.459 62.2322 Z" fill="#000000" fill-rule="evenodd" fill-opacity="1" /><path clip-path="url(#clip920)" d="M 0 0 M685.083 284.737 L690.812 284.737 L690.812 264.963 L684.58 266.213 L684.58 263.018 L690.777 261.768 L694.284 261.768 L694.284 284.737 L700.013 284.737 L700.013 287.688 L685.083 287.688 L685.083 284.737 Z" fill="#000000" fill-rule="evenodd" fill-opacity="1" /><path clip-path="url(#clip920)" d="M 0 0 M706.211 261.768 L722.878 261.768 L722.878 263.261 L713.468 287.688 L709.805 287.688 L718.659 264.719 L706.211 264.719 L706.211 261.768 Z" fill="#000000" fill-rule="evenodd" fill-opacity="1" /><path clip-path="url(#clip920)" d="M 0 0 M685.083 384.505 L690.812 384.505 L690.812 364.73 L684.58 365.98 L684.58 362.786 L690.777 361.536 L694.284 361.536 L694.284 384.505 L700.013 384.505 L700.013 387.456 L685.083 387.456 L685.083 384.505 Z" fill="#000000" fill-rule="evenodd" fill-opacity="1" /><path clip-path="url(#clip920)" d="M 0 0 M714.597 375.147 Q712.097 375.147 710.656 376.484 Q709.232 377.821 709.232 380.164 Q709.232 382.508 710.656 383.845 Q712.097 385.182 714.597 385.182 Q717.097 385.182 718.538 383.845 Q719.979 382.491 719.979 380.164 Q719.979 377.821 718.538 376.484 Q717.114 375.147 714.597 375.147 M711.09 373.654 Q708.833 373.098 707.566 371.553 Q706.316 370.008 706.316 367.786 Q706.316 364.678 708.52 362.873 Q710.743 361.067 714.597 361.067 Q718.468 361.067 720.673 362.873 Q722.878 364.678 722.878 367.786 Q722.878 370.008 721.611 371.553 Q720.361 373.098 718.121 373.654 Q720.656 374.244 722.062 375.963 Q723.486 377.682 723.486 380.164 Q723.486 383.932 721.177 385.946 Q718.885 387.96 714.597 387.96 Q710.309 387.96 708 385.946 Q705.708 383.932 705.708 380.164 Q705.708 377.682 707.131 375.963 Q708.555 374.244 711.09 373.654 M709.805 368.116 Q709.805 370.13 711.055 371.258 Q712.322 372.387 714.597 372.387 Q716.854 372.387 718.121 371.258 Q719.406 370.13 719.406 368.116 Q719.406 366.102 718.121 364.974 Q716.854 363.845 714.597 363.845 Q712.322 363.845 711.055 364.974 Q709.805 366.102 709.805 368.116 Z" fill="#000000" fill-rule="evenodd" fill-opacity="1" /><path clip-path="url(#clip920)" d="M 0 0 M548.73 284.737 L554.459 284.737 L554.459 264.963 L548.227 266.213 L548.227 263.018 L554.425 261.768 L557.932 261.768 L557.932 284.737 L563.661 284.737 L563.661 287.688 L548.73 287.688 L548.73 284.737 Z" fill="#000000" fill-rule="evenodd" fill-opacity="1" /><path clip-path="url(#clip920)" d="M 0 0 M570.848 287.15 L570.848 283.955 Q572.168 284.58 573.522 284.91 Q574.876 285.24 576.178 285.24 Q579.65 285.24 581.473 282.914 Q583.313 280.57 583.574 275.813 Q582.567 277.306 581.022 278.105 Q579.477 278.903 577.602 278.903 Q573.713 278.903 571.438 276.56 Q569.182 274.199 569.182 270.119 Q569.182 266.126 571.543 263.713 Q573.904 261.299 577.827 261.299 Q582.324 261.299 584.685 264.754 Q587.063 268.192 587.063 274.754 Q587.063 280.883 584.147 284.546 Q581.247 288.192 576.334 288.192 Q575.015 288.192 573.661 287.931 Q572.307 287.671 570.848 287.15 M577.827 276.16 Q580.188 276.16 581.56 274.546 Q582.949 272.931 582.949 270.119 Q582.949 267.324 581.56 265.709 Q580.188 264.077 577.827 264.077 Q575.466 264.077 574.077 265.709 Q572.706 267.324 572.706 270.119 Q572.706 272.931 574.077 274.546 Q575.466 276.16 577.827 276.16 Z" fill="#000000" fill-rule="evenodd" fill-opacity="1" /><path clip-path="url(#clip920)" d="M 0 0 M552.445 384.505 L564.685 384.505 L564.685 387.456 L548.227 387.456 L548.227 384.505 Q550.223 382.439 553.661 378.967 Q557.116 375.477 558.001 374.47 Q559.685 372.578 560.345 371.276 Q561.022 369.956 561.022 368.689 Q561.022 366.623 559.564 365.321 Q558.123 364.019 555.796 364.019 Q554.147 364.019 552.307 364.592 Q550.484 365.165 548.4 366.328 L548.4 362.786 Q550.518 361.935 552.359 361.501 Q554.199 361.067 555.727 361.067 Q559.754 361.067 562.15 363.081 Q564.546 365.095 564.546 368.463 Q564.546 370.06 563.938 371.501 Q563.348 372.925 561.768 374.869 Q561.334 375.373 559.008 377.786 Q556.682 380.182 552.445 384.505 Z" fill="#000000" fill-rule="evenodd" fill-opacity="1" /><path clip-path="url(#clip920)" d="M 0 0 M579.546 363.845 Q576.838 363.845 575.466 366.519 Q574.112 369.175 574.112 374.522 Q574.112 379.852 575.466 382.526 Q576.838 385.182 579.546 385.182 Q582.272 385.182 583.626 382.526 Q584.997 379.852 584.997 374.522 Q584.997 369.175 583.626 366.519 Q582.272 363.845 579.546 363.845 M579.546 361.067 Q583.904 361.067 586.195 364.522 Q588.504 367.96 588.504 374.522 Q588.504 381.067 586.195 384.522 Q583.904 387.96 579.546 387.96 Q575.188 387.96 572.879 384.522 Q570.588 381.067 570.588 374.522 Q570.588 367.96 572.879 364.522 Q575.188 361.067 579.546 361.067 Z" fill="#000000" fill-rule="evenodd" fill-opacity="1" /><path clip-path="url(#clip920)" d="M 0 0 M688.798 584.041 L701.038 584.041 L701.038 586.992 L684.58 586.992 L684.58 584.041 Q686.576 581.975 690.014 578.502 Q693.468 575.013 694.354 574.006 Q696.038 572.114 696.698 570.811 Q697.375 569.492 697.375 568.225 Q697.375 566.159 695.916 564.857 Q694.475 563.555 692.149 563.555 Q690.5 563.555 688.659 564.127 Q686.836 564.7 684.753 565.864 L684.753 562.322 Q686.871 561.471 688.711 561.037 Q690.552 560.603 692.079 560.603 Q696.107 560.603 698.503 562.617 Q700.899 564.631 700.899 567.999 Q700.899 569.596 700.291 571.037 Q699.701 572.461 698.121 574.405 Q697.687 574.909 695.361 577.322 Q693.034 579.718 688.798 584.041 Z" fill="#000000" fill-rule="evenodd" fill-opacity="1" /><path clip-path="url(#clip920)" d="M 0 0 M719.024 573.016 Q721.541 573.555 722.947 575.256 Q724.371 576.957 724.371 579.457 Q724.371 583.294 721.732 585.395 Q719.093 587.495 714.232 587.495 Q712.6 587.495 710.864 587.166 Q709.145 586.853 707.305 586.211 L707.305 582.825 Q708.763 583.676 710.5 584.11 Q712.236 584.544 714.128 584.544 Q717.427 584.544 719.145 583.242 Q720.881 581.94 720.881 579.457 Q720.881 577.166 719.267 575.881 Q717.67 574.579 714.805 574.579 L711.784 574.579 L711.784 571.697 L714.944 571.697 Q717.531 571.697 718.902 570.673 Q720.274 569.631 720.274 567.686 Q720.274 565.69 718.85 564.631 Q717.444 563.555 714.805 563.555 Q713.364 563.555 711.715 563.867 Q710.066 564.18 708.086 564.839 L708.086 561.714 Q710.083 561.159 711.819 560.881 Q713.572 560.603 715.118 560.603 Q719.111 560.603 721.437 562.426 Q723.763 564.232 723.763 567.322 Q723.763 569.475 722.531 570.968 Q721.298 572.443 719.024 573.016 Z" fill="#000000" fill-rule="evenodd" fill-opacity="1" /><path clip-path="url(#clip920)" d="M 0 0 M688.798 683.809 L701.038 683.809 L701.038 686.76 L684.58 686.76 L684.58 683.809 Q686.576 681.743 690.014 678.27 Q693.468 674.781 694.354 673.774 Q696.038 671.881 696.698 670.579 Q697.375 669.26 697.375 667.993 Q697.375 665.927 695.916 664.625 Q694.475 663.323 692.149 663.323 Q690.5 663.323 688.659 663.895 Q686.836 664.468 684.753 665.632 L684.753 662.09 Q686.871 661.239 688.711 660.805 Q690.552 660.371 692.079 660.371 Q696.107 660.371 698.503 662.385 Q700.899 664.399 700.899 667.767 Q700.899 669.364 700.291 670.805 Q699.701 672.229 698.121 674.173 Q697.687 674.677 695.361 677.09 Q693.034 679.486 688.798 683.809 Z" fill="#000000" fill-rule="evenodd" fill-opacity="1" /><path clip-path="url(#clip920)" d="M 0 0 M718.034 663.895 L709.18 677.732 L718.034 677.732 L718.034 663.895 M717.114 660.84 L721.524 660.84 L721.524 677.732 L725.222 677.732 L725.222 680.649 L721.524 680.649 L721.524 686.76 L718.034 686.76 L718.034 680.649 L706.333 680.649 L706.333 677.263 L717.114 660.84 Z" fill="#000000" fill-rule="evenodd" fill-opacity="1" /><circle clip-path="url(#clip922)" cx="684.58" cy="95.9282" r="14" fill="#0000ff" fill-rule="evenodd" fill-opacity="1" stroke="none"/>
<path clip-path="url(#clip920)" d="M 0 0 M688.798 85.2008 L701.038 85.2008 L701.038 88.1522 L684.58 88.1522 L684.58 85.2008 Q686.576 83.1349 690.014 79.6627 Q693.468 76.1731 694.354 75.1662 Q696.038 73.2738 696.698 71.9718 Q697.375 70.6523 697.375 69.385 Q697.375 67.319 695.916 66.0169 Q694.475 64.7148 692.149 64.7148 Q690.5 64.7148 688.659 65.2878 Q686.836 65.8607 684.753 67.0239 L684.753 63.4822 Q686.871 62.6315 688.711 62.1975 Q690.552 61.7635 692.079 61.7635 Q696.107 61.7635 698.503 63.7774 Q700.899 65.7912 700.899 69.1593 Q700.899 70.7565 700.291 72.1974 Q699.701 73.621 698.121 75.5655 Q697.687 76.069 695.361 78.4821 Q693.034 80.878 688.798 85.2008 Z" fill="#000000" fill-rule="evenodd" fill-opacity="1" /><path clip-path="url(#clip920)" d="M 0 0 M718.034 65.2878 L709.18 79.1245 L718.034 79.1245 L718.034 65.2878 M717.114 62.2322 L721.524 62.2322 L721.524 79.1245 L725.222 79.1245 L725.222 82.0411 L721.524 82.0411 L721.524 88.1522 L718.034 88.1522 L718.034 82.0411 L706.333 82.0411 L706.333 78.6557 L717.114 62.2322 Z" fill="#000000" fill-rule="evenodd" fill-opacity="1" /></svg>
