<?xml version="1.0" encoding="utf-8"?>
<svg xmlns="http://www.w3.org/2000/svg" xmlns:xlink="http://www.w3.org/1999/xlink" width="200" height="250" viewBox="0 0 800 1000">
<defs>
  <clipPath id="clip980">
    <rect x="0" y="0" width="800" height="1000"/>
  </clipPath>
</defs>
<path clip-path="url(#clip980)" d="
M0 1000 L800 1000 L800 0 L0 0  Z
  " fill="#ffffff" fill-rule="evenodd" fill-opacity="1"/>
<defs>
  <clipPath id="clip981">
    <rect x="200" y="100" width="701" height="701"/>
  </clipPath>
</defs>
<path clip-path="url(#clip980)" d="
M70.9921 927.008 L752.756 927.008 L752.756 62.9921 L70.9921 62.9921  Z
  " fill="#ffffff" fill-rule="evenodd" fill-opacity="1"/>
<defs>
  <clipPath id="clip982">
    <rect x="70" y="62" width="683" height="865"/>
  </clipPath>
</defs>
<polyline clip-path="url(#clip980)" style="stroke:#000000; stroke-width:4; stroke-opacity:1; fill:none" points="
  70.9921,927.008 752.756,927.008 
  "/>
<polyline clip-path="url(#clip980)" style="stroke:#000000; stroke-width:4; stroke-opacity:1; fill:none" points="
  139.169,927.008 139.169,916.64 
  "/>
<polyline clip-path="url(#clip980)" style="stroke:#000000; stroke-width:4; stroke-opacity:1; fill:none" points="
  275.521,927.008 275.521,916.64 
  "/>
<polyline clip-path="url(#clip980)" style="stroke:#000000; stroke-width:4; stroke-opacity:1; fill:none" points="
  411.874,927.008 411.874,916.64 
  "/>
<polyline clip-path="url(#clip980)" style="stroke:#000000; stroke-width:4; stroke-opacity:1; fill:none" points="
  548.227,927.008 548.227,916.64 
  "/>
<polyline clip-path="url(#clip980)" style="stroke:#000000; stroke-width:4; stroke-opacity:1; fill:none" points="
  684.58,927.008 684.58,916.64 
  "/>
<path clip-path="url(#clip980)" d="M 0 0 M109.111 959.651 L138.787 959.651 L138.787 963.586 L109.111 963.586 L109.111 959.651 Z" fill="#000000" fill-rule="evenodd" fill-opacity="1" /><path clip-path="url(#clip980)" d="M 0 0 M152.907 972.545 L169.226 972.545 L169.226 976.48 L147.282 976.48 L147.282 972.545 Q149.944 969.79 154.527 965.16 Q159.134 960.508 160.314 959.165 Q162.56 956.642 163.439 954.906 Q164.342 953.147 164.342 951.457 Q164.342 948.702 162.398 946.966 Q160.476 945.23 157.374 945.23 Q155.175 945.23 152.722 945.994 Q150.291 946.758 147.513 948.309 L147.513 943.587 Q150.337 942.452 152.791 941.874 Q155.245 941.295 157.282 941.295 Q162.652 941.295 165.847 943.98 Q169.041 946.665 169.041 951.156 Q169.041 953.286 168.231 955.207 Q167.444 957.105 165.337 959.698 Q164.759 960.369 161.657 963.586 Q158.555 966.781 152.907 972.545 Z" fill="#000000" fill-rule="evenodd" fill-opacity="1" /><path clip-path="url(#clip980)" d="M 0 0 M245.278 959.651 L274.954 959.651 L274.954 963.586 L245.278 963.586 L245.278 959.651 Z" fill="#000000" fill-rule="evenodd" fill-opacity="1" /><path clip-path="url(#clip980)" d="M 0 0 M285.857 972.545 L293.496 972.545 L293.496 946.179 L285.186 947.846 L285.186 943.587 L293.449 941.92 L298.125 941.92 L298.125 972.545 L305.764 972.545 L305.764 976.48 L285.857 976.48 L285.857 972.545 Z" fill="#000000" fill-rule="evenodd" fill-opacity="1" /><path clip-path="url(#clip980)" d="M 0 0 M411.874 944.999 Q408.263 944.999 406.434 948.563 Q404.629 952.105 404.629 959.235 Q404.629 966.341 406.434 969.906 Q408.263 973.447 411.874 973.447 Q415.508 973.447 417.314 969.906 Q419.142 966.341 419.142 959.235 Q419.142 952.105 417.314 948.563 Q415.508 944.999 411.874 944.999 M411.874 941.295 Q417.684 941.295 420.74 945.901 Q423.818 950.485 423.818 959.235 Q423.818 967.961 420.74 972.568 Q417.684 977.151 411.874 977.151 Q406.064 977.151 402.985 972.568 Q399.93 967.961 399.93 959.235 Q399.93 950.485 402.985 945.901 Q406.064 941.295 411.874 941.295 Z" fill="#000000" fill-rule="evenodd" fill-opacity="1" /><path clip-path="url(#clip980)" d="M 0 0 M538.609 972.545 L546.248 972.545 L546.248 946.179 L537.937 947.846 L537.937 943.587 L546.201 941.92 L550.877 941.92 L550.877 972.545 L558.516 972.545 L558.516 976.48 L538.609 976.48 L538.609 972.545 Z" fill="#000000" fill-rule="evenodd" fill-opacity="1" /><path clip-path="url(#clip980)" d="M 0 0 M679.232 972.545 L695.552 972.545 L695.552 976.48 L673.607 976.48 L673.607 972.545 Q676.269 969.79 680.853 965.16 Q685.459 960.508 686.64 959.165 Q688.885 956.642 689.765 954.906 Q690.667 953.147 690.667 951.457 Q690.667 948.702 688.723 946.966 Q686.802 945.23 683.7 945.23 Q681.501 945.23 679.047 945.994 Q676.617 946.758 673.839 948.309 L673.839 943.587 Q676.663 942.452 679.117 941.874 Q681.57 941.295 683.607 941.295 Q688.978 941.295 692.172 943.98 Q695.367 946.665 695.367 951.156 Q695.367 953.286 694.556 955.207 Q693.769 957.105 691.663 959.698 Q691.084 960.369 687.982 963.586 Q684.88 966.781 679.232 972.545 Z" fill="#000000" fill-rule="evenodd" fill-opacity="1" /><polyline clip-path="url(#clip980)" style="stroke:#000000; stroke-width:4; stroke-opacity:1; fill:none" points="
  70.9921,927.008 70.9921,62.9921 
  "/>
<polyline clip-path="url(#clip980)" style="stroke:#000000; stroke-width:4; stroke-opacity:1; fill:none" points="
  70.9921,840.606 79.1733,840.606 
  "/>
<polyline clip-path="url(#clip980)" style="stroke:#000000; stroke-width:4; stroke-opacity:1; fill:none" points="
  70.9921,667.803 79.1733,667.803 
  "/>
<polyline clip-path="url(#clip980)" style="stroke:#000000; stroke-width:4; stroke-opacity:1; fill:none" points="
  70.9921,495 79.1733,495 
  "/>
<polyline clip-path="url(#clip980)" style="stroke:#000000; stroke-width:4; stroke-opacity:1; fill:none" points="
  70.9921,322.197 79.1733,322.197 
  "/>
<polyline clip-path="url(#clip980)" style="stroke:#000000; stroke-width:4; stroke-opacity:1; fill:none" points="
  70.9921,149.394 79.1733,149.394 
  "/>
<path clip-path="url(#clip980)" d="M 0 0 M-4.12329 841.058 L25.5525 841.058 L25.5525 844.993 L-4.12329 844.993 L-4.12329 841.058 Z" fill="#000000" fill-rule="evenodd" fill-opacity="1" /><path clip-path="url(#clip980)" d="M 0 0 M39.6728 853.951 L55.9921 853.951 L55.9921 857.886 L34.0478 857.886 L34.0478 853.951 Q36.7098 851.197 41.2931 846.567 Q45.8996 841.914 47.0801 840.572 Q49.3255 838.048 50.2051 836.312 Q51.1079 834.553 51.1079 832.863 Q51.1079 830.109 49.1635 828.373 Q47.2422 826.636 44.1403 826.636 Q41.9413 826.636 39.4876 827.4 Q37.057 828.164 34.2793 829.715 L34.2793 824.993 Q37.1033 823.859 39.557 823.28 Q42.0107 822.701 44.0477 822.701 Q49.4181 822.701 52.6125 825.386 Q55.8069 828.072 55.8069 832.562 Q55.8069 834.692 54.9968 836.613 Q54.2097 838.511 52.1033 841.104 Q51.5246 841.775 48.4227 844.993 Q45.3209 848.187 39.6728 853.951 Z" fill="#000000" fill-rule="evenodd" fill-opacity="1" /><path clip-path="url(#clip980)" d="M 0 0 M-4.49366 668.255 L25.1821 668.255 L25.1821 672.19 L-4.49366 672.19 L-4.49366 668.255 Z" fill="#000000" fill-rule="evenodd" fill-opacity="1" /><path clip-path="url(#clip980)" d="M 0 0 M36.0848 681.148 L43.7237 681.148 L43.7237 654.782 L35.4135 656.449 L35.4135 652.19 L43.6774 650.523 L48.3533 650.523 L48.3533 681.148 L55.9921 681.148 L55.9921 685.083 L36.0848 685.083 L36.0848 681.148 Z" fill="#000000" fill-rule="evenodd" fill-opacity="1" /><path clip-path="url(#clip980)" d="M 0 0 M44.0477 480.799 Q40.4367 480.799 38.608 484.363 Q36.8024 487.905 36.8024 495.035 Q36.8024 502.141 38.608 505.706 Q40.4367 509.248 44.0477 509.248 Q47.682 509.248 49.4875 505.706 Q51.3162 502.141 51.3162 495.035 Q51.3162 487.905 49.4875 484.363 Q47.682 480.799 44.0477 480.799 M44.0477 477.095 Q49.8579 477.095 52.9134 481.701 Q55.9921 486.285 55.9921 495.035 Q55.9921 503.762 52.9134 508.368 Q49.8579 512.951 44.0477 512.951 Q38.2376 512.951 35.1589 508.368 Q32.1034 503.762 32.1034 495.035 Q32.1034 486.285 35.1589 481.701 Q38.2376 477.095 44.0477 477.095 Z" fill="#000000" fill-rule="evenodd" fill-opacity="1" /><path clip-path="url(#clip980)" d="M 0 0 M36.0848 335.542 L43.7237 335.542 L43.7237 309.176 L35.4135 310.843 L35.4135 306.584 L43.6774 304.917 L48.3533 304.917 L48.3533 335.542 L55.9921 335.542 L55.9921 339.477 L36.0848 339.477 L36.0848 335.542 Z" fill="#000000" fill-rule="evenodd" fill-opacity="1" /><path clip-path="url(#clip980)" d="M 0 0 M39.6728 162.739 L55.9921 162.739 L55.9921 166.674 L34.0478 166.674 L34.0478 162.739 Q36.7098 159.984 41.2931 155.354 Q45.8996 150.702 47.0801 149.359 Q49.3255 146.836 50.2051 145.1 Q51.1079 143.34 51.1079 141.651 Q51.1079 138.896 49.1635 137.16 Q47.2422 135.424 44.1403 135.424 Q41.9413 135.424 39.4876 136.188 Q37.057 136.952 34.2793 138.503 L34.2793 133.78 Q37.1033 132.646 39.557 132.067 Q42.0107 131.489 44.0477 131.489 Q49.4181 131.489 52.6125 134.174 Q55.8069 136.859 55.8069 141.35 Q55.8069 143.479 54.9968 145.401 Q54.2097 147.299 52.1033 149.891 Q51.5246 150.563 48.4227 153.78 Q45.3209 156.975 39.6728 162.739 Z" fill="#000000" fill-rule="evenodd" fill-opacity="1" /><path clip-path="url(#clip980)" d="M 0 0 M341.029 20.523 Q342.627 17.6527 344.849 16.2869 Q347.071 14.9212 350.08 14.9212 Q354.131 14.9212 356.33 17.7684 Q358.529 20.5925 358.529 25.8239 L358.529 41.472 L354.247 41.472 L354.247 25.9628 Q354.247 22.236 352.928 20.4304 Q351.608 18.6249 348.9 18.6249 Q345.59 18.6249 343.668 20.824 Q341.747 23.023 341.747 26.8193 L341.747 41.472 L337.465 41.472 L337.465 25.9628 Q337.465 22.2128 336.145 20.4304 Q334.826 18.6249 332.071 18.6249 Q328.807 18.6249 326.886 20.8471 Q324.965 23.0462 324.965 26.8193 L324.965 41.472 L320.682 41.472 L320.682 15.5462 L324.965 15.5462 L324.965 19.574 Q326.423 17.1897 328.46 16.0555 Q330.497 14.9212 333.298 14.9212 Q336.122 14.9212 338.09 16.3564 Q340.08 17.7916 341.029 20.523 Z" fill="#000000" fill-rule="evenodd" fill-opacity="1" /><path clip-path="url(#clip980)" d="M 0 0 M366.631 5.45367 L376.446 5.45367 L376.446 8.76384 L370.89 8.76384 L370.89 44.4118 L376.446 44.4118 L376.446 47.722 L366.631 47.722 L366.631 5.45367 Z" fill="#000000" fill-rule="evenodd" fill-opacity="1" /><path clip-path="url(#clip980)" d="M 0 0 M386.932 37.5368 L394.571 37.5368 L394.571 11.1712 L386.261 12.8379 L386.261 8.57866 L394.525 6.912 L399.2 6.912 L399.2 37.5368 L406.839 37.5368 L406.839 41.472 L386.932 41.472 L386.932 37.5368 Z" fill="#000000" fill-rule="evenodd" fill-opacity="1" /><path clip-path="url(#clip980)" d="M 0 0 M413.529 26.5878 L426.006 26.5878 L426.006 30.3841 L413.529 30.3841 L413.529 26.5878 Z" fill="#000000" fill-rule="evenodd" fill-opacity="1" /><path clip-path="url(#clip980)" d="M 0 0 M434.2 37.5368 L441.839 37.5368 L441.839 11.1712 L433.529 12.8379 L433.529 8.57866 L441.793 6.912 L446.469 6.912 L446.469 37.5368 L454.108 37.5368 L454.108 41.472 L434.2 41.472 L434.2 37.5368 Z" fill="#000000" fill-rule="evenodd" fill-opacity="1" /><path clip-path="url(#clip980)" d="M 0 0 M473.552 9.99069 Q469.941 9.99069 468.112 13.5555 Q466.307 17.0971 466.307 24.2267 Q466.307 31.3332 468.112 34.898 Q469.941 38.4396 473.552 38.4396 Q477.186 38.4396 478.992 34.898 Q480.82 31.3332 480.82 24.2267 Q480.82 17.0971 478.992 13.5555 Q477.186 9.99069 473.552 9.99069 M473.552 6.287 Q479.362 6.287 482.418 10.8935 Q485.496 15.4768 485.496 24.2267 Q485.496 32.9535 482.418 37.56 Q479.362 42.1433 473.552 42.1433 Q467.742 42.1433 464.663 37.56 Q461.608 32.9535 461.608 24.2267 Q461.608 15.4768 464.663 10.8935 Q467.742 6.287 473.552 6.287 Z" fill="#000000" fill-rule="evenodd" fill-opacity="1" /><path clip-path="url(#clip980)" d="M 0 0 M503.066 5.45367 L503.066 47.722 L493.251 47.722 L493.251 44.4118 L498.783 44.4118 L498.783 8.76384 L493.251 8.76384 L493.251 5.45367 L503.066 5.45367 Z" fill="#000000" fill-rule="evenodd" fill-opacity="1" /><circle clip-path="url(#clip982)" cx="139.169" cy="894.072" r="14" fill="#0000ff" fill-rule="evenodd" fill-opacity="1" stroke="none"/>
<path clip-path="url(#clip980)" d="M 0 0 M143.387 883.344 L155.627 883.344 L155.627 886.296 L139.169 886.296 L139.169 883.344 Q141.165 881.278 144.603 877.806 Q148.057 874.317 148.943 873.31 Q150.627 871.417 151.286 870.115 Q151.964 868.796 151.964 867.529 Q151.964 865.463 150.505 864.16 Q149.064 862.858 146.738 862.858 Q145.089 862.858 143.248 863.431 Q141.425 864.004 139.342 865.167 L139.342 861.626 Q141.46 860.775 143.3 860.341 Q145.141 859.907 146.668 859.907 Q150.696 859.907 153.092 861.921 Q155.488 863.935 155.488 867.303 Q155.488 868.9 154.88 870.341 Q154.29 871.765 152.71 873.709 Q152.276 874.213 149.95 876.626 Q147.623 879.022 143.387 883.344 Z" fill="#000000" fill-rule="evenodd" fill-opacity="1" /><path clip-path="url(#clip980)" d="M 0 0 M170.488 862.685 Q167.779 862.685 166.408 865.358 Q165.054 868.015 165.054 873.362 Q165.054 878.692 166.408 881.365 Q167.779 884.021 170.488 884.021 Q173.213 884.021 174.568 881.365 Q175.939 878.692 175.939 873.362 Q175.939 868.015 174.568 865.358 Q173.213 862.685 170.488 862.685 M170.488 859.907 Q174.845 859.907 177.137 863.362 Q179.446 866.799 179.446 873.362 Q179.446 879.907 177.137 883.362 Q174.845 886.799 170.488 886.799 Q166.13 886.799 163.821 883.362 Q161.529 879.907 161.529 873.362 Q161.529 866.799 163.821 863.362 Q166.13 859.907 170.488 859.907 Z" fill="#000000" fill-rule="evenodd" fill-opacity="1" /><circle clip-path="url(#clip982)" cx="343.698" cy="445.116" r="14" fill="#0000ff" fill-rule="evenodd" fill-opacity="1" stroke="none"/>
<circle clip-path="url(#clip982)" cx="343.698" cy="844.188" r="14" fill="#0000ff" fill-rule="evenodd" fill-opacity="1" stroke="none"/>
<circle clip-path="url(#clip982)" cx="275.521" cy="894.072" r="14" fill="#0000ff" fill-rule="evenodd" fill-opacity="1" stroke="none"/>
<circle clip-path="url(#clip982)" cx="275.521" cy="694.536" r="14" fill="#0000ff" fill-rule="evenodd" fill-opacity="1" stroke="none"/>
<circle clip-path="url(#clip982)" cx="207.345" cy="744.42" r="14" fill="#0000ff" fill-rule="evenodd" fill-opacity="1" stroke="none"/>
<circle clip-path="url(#clip982)" cx="207.345" cy="544.884" r="14" fill="#0000ff" fill-rule="evenodd" fill-opacity="1" stroke="none"/>
<circle clip-path="url(#clip982)" cx="139.169" cy="594.768" r="14" fill="#0000ff" fill-rule="evenodd" fill-opacity="1" stroke="none"/>
<circle clip-path="url(#clip982)" cx="139.169" cy="395.232" r="14" fill="#0000ff" fill-rule="evenodd" fill-opacity="1" stroke="none"/>
<circle clip-path="url(#clip982)" cx="70.9921" cy="445.116" r="14" fill="#0000ff" fill-rule="evenodd" fill-opacity="1" stroke="none"/>
<circle clip-path="url(#clip982)" cx="70.9921" cy="844.188" r="14" fill="#0000ff" fill-rule="evenodd" fill-opacity="1" stroke="none"/>
<circle clip-path="url(#clip982)" cx="411.874" cy="594.768" r="14" fill="#0000ff" fill-rule="evenodd" fill-opacity="1" stroke="none"/>
<circle clip-path="url(#clip982)" cx="411.874" cy="694.536" r="14" fill="#0000ff" fill-rule="evenodd" fill-opacity="1" stroke="none"/>
<circle clip-path="url(#clip982)" cx="343.698" cy="744.42" r="14" fill="#0000ff" fill-rule="evenodd" fill-opacity="1" stroke="none"/>
<circle clip-path="url(#clip982)" cx="343.698" cy="544.884" r="14" fill="#0000ff" fill-rule="evenodd" fill-opacity="1" stroke="none"/>
<circle clip-path="url(#clip982)" cx="275.521" cy="594.768" r="14" fill="#0000ff" fill-rule="evenodd" fill-opacity="1" stroke="none"/>
<circle clip-path="url(#clip982)" cx="207.345" cy="445.116" r="14" fill="#0000ff" fill-rule="evenodd" fill-opacity="1" stroke="none"/>
<circle clip-path="url(#clip982)" cx="207.345" cy="844.188" r="14" fill="#0000ff" fill-rule="evenodd" fill-opacity="1" stroke="none"/>
<circle clip-path="url(#clip982)" cx="139.169" cy="295.464" r="14" fill="#0000ff" fill-rule="evenodd" fill-opacity="1" stroke="none"/>
<circle clip-path="url(#clip982)" cx="139.169" cy="694.536" r="14" fill="#0000ff" fill-rule="evenodd" fill-opacity="1" stroke="none"/>
<circle clip-path="url(#clip982)" cx="70.9921" cy="744.42" r="14" fill="#0000ff" fill-rule="evenodd" fill-opacity="1" stroke="none"/>
<circle clip-path="url(#clip982)" cx="70.9921" cy="544.884" r="14" fill="#0000ff" fill-rule="evenodd" fill-opacity="1" stroke="none"/>
<circle clip-path="url(#clip982)" cx="411.874" cy="894.072" r="14" fill="#0000ff" fill-rule="evenodd" fill-opacity="1" stroke="none"/>
<path clip-path="url(#clip980)" d="M 0 0 M347.916 434.389 L360.156 434.389 L360.156 437.34 L343.698 437.34 L343.698 434.389 Q345.694 432.323 349.132 428.85 Q352.586 425.361 353.472 424.354 Q355.156 422.462 355.816 421.16 Q356.493 419.84 356.493 418.573 Q356.493 416.507 355.034 415.205 Q353.593 413.903 351.267 413.903 Q349.618 413.903 347.777 414.476 Q345.955 415.048 343.871 416.212 L343.871 412.67 Q345.989 411.819 347.83 411.385 Q349.67 410.951 351.198 410.951 Q355.225 410.951 357.621 412.965 Q360.017 414.979 360.017 418.347 Q360.017 419.944 359.409 421.385 Q358.819 422.809 357.239 424.753 Q356.805 425.257 354.479 427.67 Q352.152 430.066 347.916 434.389 Z" fill="#000000" fill-rule="evenodd" fill-opacity="1" /><path clip-path="url(#clip980)" d="M 0 0 M355.416 822.436 Q357.934 822.974 359.34 824.676 Q360.764 826.377 360.764 828.877 Q360.764 832.714 358.125 834.815 Q355.486 836.915 350.625 836.915 Q348.993 836.915 347.257 836.585 Q345.538 836.273 343.698 835.631 L343.698 832.245 Q345.156 833.096 346.892 833.53 Q348.628 833.964 350.521 833.964 Q353.819 833.964 355.538 832.662 Q357.274 831.36 357.274 828.877 Q357.274 826.585 355.659 825.301 Q354.062 823.999 351.198 823.999 L348.177 823.999 L348.177 821.117 L351.336 821.117 Q353.923 821.117 355.295 820.092 Q356.666 819.051 356.666 817.106 Q356.666 815.11 355.243 814.051 Q353.836 812.974 351.198 812.974 Q349.757 812.974 348.107 813.287 Q346.458 813.599 344.479 814.259 L344.479 811.134 Q346.475 810.579 348.212 810.301 Q349.965 810.023 351.51 810.023 Q355.503 810.023 357.83 811.846 Q360.156 813.652 360.156 816.742 Q360.156 818.895 358.923 820.388 Q357.691 821.863 355.416 822.436 Z" fill="#000000" fill-rule="evenodd" fill-opacity="1" /><path clip-path="url(#clip980)" d="M 0 0 M287.223 863.431 L278.368 877.268 L287.223 877.268 L287.223 863.431 M286.302 860.376 L290.712 860.376 L290.712 877.268 L294.41 877.268 L294.41 880.185 L290.712 880.185 L290.712 886.296 L287.223 886.296 L287.223 880.185 L275.521 880.185 L275.521 876.799 L286.302 860.376 Z" fill="#000000" fill-rule="evenodd" fill-opacity="1" /><path clip-path="url(#clip980)" d="M 0 0 M276.615 660.84 L290.382 660.84 L290.382 663.791 L279.827 663.791 L279.827 670.145 Q280.591 669.885 281.355 669.763 Q282.118 669.625 282.882 669.625 Q287.223 669.625 289.757 672.003 Q292.292 674.381 292.292 678.444 Q292.292 682.628 289.688 684.954 Q287.084 687.263 282.344 687.263 Q280.712 687.263 279.011 686.986 Q277.327 686.708 275.521 686.152 L275.521 682.628 Q277.084 683.479 278.75 683.895 Q280.417 684.312 282.275 684.312 Q285.278 684.312 287.032 682.732 Q288.785 681.152 288.785 678.444 Q288.785 675.736 287.032 674.156 Q285.278 672.576 282.275 672.576 Q280.868 672.576 279.462 672.888 Q278.073 673.201 276.615 673.861 L276.615 660.84 Z" fill="#000000" fill-rule="evenodd" fill-opacity="1" /><path clip-path="url(#clip980)" d="M 0 0 M216.598 722.286 Q214.237 722.286 212.848 723.901 Q211.477 725.515 211.477 728.328 Q211.477 731.123 212.848 732.755 Q214.237 734.37 216.598 734.37 Q218.959 734.37 220.331 732.755 Q221.72 731.123 221.72 728.328 Q221.72 725.515 220.331 723.901 Q218.959 722.286 216.598 722.286 M223.56 711.297 L223.56 714.491 Q222.241 713.866 220.886 713.536 Q219.55 713.206 218.23 713.206 Q214.758 713.206 212.918 715.55 Q211.095 717.894 210.834 722.634 Q211.859 721.123 213.404 720.325 Q214.949 719.509 216.807 719.509 Q220.713 719.509 222.97 721.887 Q225.244 724.248 225.244 728.328 Q225.244 732.321 222.883 734.734 Q220.522 737.147 216.598 737.147 Q212.102 737.147 209.723 733.71 Q207.345 730.255 207.345 723.71 Q207.345 717.564 210.262 713.918 Q213.178 710.255 218.091 710.255 Q219.411 710.255 220.748 710.516 Q222.102 710.776 223.56 711.297 Z" fill="#000000" fill-rule="evenodd" fill-opacity="1" /><path clip-path="url(#clip980)" d="M 0 0 M207.345 511.188 L224.011 511.188 L224.011 512.681 L214.602 537.108 L210.939 537.108 L219.793 514.139 L207.345 514.139 L207.345 511.188 Z" fill="#000000" fill-rule="evenodd" fill-opacity="1" /><path clip-path="url(#clip980)" d="M 0 0 M148.057 574.683 Q145.557 574.683 144.116 576.02 Q142.693 577.357 142.693 579.7 Q142.693 582.044 144.116 583.381 Q145.557 584.718 148.057 584.718 Q150.557 584.718 151.998 583.381 Q153.439 582.027 153.439 579.7 Q153.439 577.357 151.998 576.02 Q150.575 574.683 148.057 574.683 M144.55 573.19 Q142.293 572.634 141.026 571.089 Q139.776 569.544 139.776 567.322 Q139.776 564.214 141.981 562.409 Q144.203 560.603 148.057 560.603 Q151.929 560.603 154.134 562.409 Q156.339 564.214 156.339 567.322 Q156.339 569.544 155.071 571.089 Q153.821 572.634 151.582 573.19 Q154.116 573.78 155.523 575.499 Q156.946 577.218 156.946 579.7 Q156.946 583.468 154.637 585.482 Q152.346 587.495 148.057 587.495 Q143.769 587.495 141.46 585.482 Q139.169 583.468 139.169 579.7 Q139.169 577.218 140.592 575.499 Q142.016 573.78 144.55 573.19 M143.266 567.652 Q143.266 569.666 144.516 570.794 Q145.783 571.923 148.057 571.923 Q150.314 571.923 151.582 570.794 Q152.866 569.666 152.866 567.652 Q152.866 565.638 151.582 564.509 Q150.314 563.381 148.057 563.381 Q145.783 563.381 144.516 564.509 Q143.266 565.638 143.266 567.652 Z" fill="#000000" fill-rule="evenodd" fill-opacity="1" /><path clip-path="url(#clip980)" d="M 0 0 M140.835 386.918 L140.835 383.723 Q142.155 384.348 143.509 384.678 Q144.863 385.008 146.165 385.008 Q149.637 385.008 151.46 382.682 Q153.3 380.338 153.561 375.581 Q152.554 377.074 151.009 377.873 Q149.464 378.671 147.589 378.671 Q143.7 378.671 141.425 376.328 Q139.169 373.967 139.169 369.887 Q139.169 365.894 141.53 363.48 Q143.891 361.067 147.814 361.067 Q152.311 361.067 154.672 364.522 Q157.05 367.96 157.05 374.522 Q157.05 380.651 154.134 384.314 Q151.234 387.96 146.321 387.96 Q145.002 387.96 143.648 387.699 Q142.293 387.439 140.835 386.918 M147.814 375.928 Q150.175 375.928 151.547 374.314 Q152.936 372.699 152.936 369.887 Q152.936 367.092 151.547 365.477 Q150.175 363.845 147.814 363.845 Q145.453 363.845 144.064 365.477 Q142.693 367.092 142.693 369.887 Q142.693 372.699 144.064 374.314 Q145.453 375.928 147.814 375.928 Z" fill="#000000" fill-rule="evenodd" fill-opacity="1" /><path clip-path="url(#clip980)" d="M 0 0 M71.4956 434.389 L77.2247 434.389 L77.2247 414.614 L70.9921 415.864 L70.9921 412.67 L77.19 411.42 L80.6969 411.42 L80.6969 434.389 L86.4261 434.389 L86.4261 437.34 L71.4956 437.34 L71.4956 434.389 Z" fill="#000000" fill-rule="evenodd" fill-opacity="1" /><path clip-path="url(#clip980)" d="M 0 0 M101.009 413.729 Q98.301 413.729 96.9295 416.403 Q95.5753 419.059 95.5753 424.406 Q95.5753 429.736 96.9295 432.409 Q98.301 435.066 101.009 435.066 Q103.735 435.066 105.089 432.409 Q106.461 429.736 106.461 424.406 Q106.461 419.059 105.089 416.403 Q103.735 413.729 101.009 413.729 M101.009 410.951 Q105.367 410.951 107.659 414.406 Q109.968 417.844 109.968 424.406 Q109.968 430.951 107.659 434.406 Q105.367 437.843 101.009 437.843 Q96.6517 437.843 94.3427 434.406 Q92.051 430.951 92.051 424.406 Q92.051 417.844 94.3427 414.406 Q96.6517 410.951 101.009 410.951 Z" fill="#000000" fill-rule="evenodd" fill-opacity="1" /><path clip-path="url(#clip980)" d="M 0 0 M71.4956 833.46 L77.2247 833.46 L77.2247 813.686 L70.9921 814.936 L70.9921 811.742 L77.19 810.492 L80.6969 810.492 L80.6969 833.46 L86.4261 833.46 L86.4261 836.412 L71.4956 836.412 L71.4956 833.46 Z" fill="#000000" fill-rule="evenodd" fill-opacity="1" /><path clip-path="url(#clip980)" d="M 0 0 M94.117 833.46 L99.8461 833.46 L99.8461 813.686 L93.6135 814.936 L93.6135 811.742 L99.8114 810.492 L103.318 810.492 L103.318 833.46 L109.047 833.46 L109.047 836.412 L94.117 836.412 L94.117 833.46 Z" fill="#000000" fill-rule="evenodd" fill-opacity="1" /><path clip-path="url(#clip980)" d="M 0 0 M412.377 584.041 L418.107 584.041 L418.107 564.266 L411.874 565.516 L411.874 562.322 L418.072 561.072 L421.579 561.072 L421.579 584.041 L427.308 584.041 L427.308 586.992 L412.377 586.992 L412.377 584.041 Z" fill="#000000" fill-rule="evenodd" fill-opacity="1" /><path clip-path="url(#clip980)" d="M 0 0 M437.412 584.041 L449.652 584.041 L449.652 586.992 L433.193 586.992 L433.193 584.041 Q435.19 581.975 438.627 578.502 Q442.082 575.013 442.968 574.006 Q444.652 572.114 445.311 570.811 Q445.988 569.492 445.988 568.225 Q445.988 566.159 444.53 564.857 Q443.089 563.555 440.763 563.555 Q439.113 563.555 437.273 564.127 Q435.45 564.7 433.367 565.864 L433.367 562.322 Q435.485 561.471 437.325 561.037 Q439.166 560.603 440.693 560.603 Q444.721 560.603 447.117 562.617 Q449.513 564.631 449.513 567.999 Q449.513 569.596 448.905 571.037 Q448.315 572.461 446.735 574.405 Q446.301 574.909 443.975 577.322 Q441.648 579.718 437.412 584.041 Z" fill="#000000" fill-rule="evenodd" fill-opacity="1" /><path clip-path="url(#clip980)" d="M 0 0 M412.377 683.809 L418.107 683.809 L418.107 664.034 L411.874 665.284 L411.874 662.09 L418.072 660.84 L421.579 660.84 L421.579 683.809 L427.308 683.809 L427.308 686.76 L412.377 686.76 L412.377 683.809 Z" fill="#000000" fill-rule="evenodd" fill-opacity="1" /><path clip-path="url(#clip980)" d="M 0 0 M445.016 672.784 Q447.534 673.322 448.94 675.024 Q450.363 676.725 450.363 679.225 Q450.363 683.062 447.725 685.163 Q445.086 687.263 440.225 687.263 Q438.593 687.263 436.857 686.934 Q435.138 686.621 433.298 685.979 L433.298 682.593 Q434.756 683.444 436.492 683.878 Q438.228 684.312 440.12 684.312 Q443.419 684.312 445.138 683.01 Q446.874 681.708 446.874 679.225 Q446.874 676.934 445.259 675.649 Q443.662 674.347 440.797 674.347 L437.777 674.347 L437.777 671.465 L440.936 671.465 Q443.523 671.465 444.895 670.441 Q446.266 669.399 446.266 667.454 Q446.266 665.458 444.843 664.399 Q443.436 663.323 440.797 663.323 Q439.357 663.323 437.707 663.635 Q436.058 663.948 434.079 664.607 L434.079 661.482 Q436.075 660.927 437.811 660.649 Q439.565 660.371 441.11 660.371 Q445.103 660.371 447.429 662.194 Q449.756 664 449.756 667.09 Q449.756 669.243 448.523 670.736 Q447.29 672.211 445.016 672.784 Z" fill="#000000" fill-rule="evenodd" fill-opacity="1" /><path clip-path="url(#clip980)" d="M 0 0 M344.201 733.692 L349.93 733.692 L349.93 713.918 L343.698 715.168 L343.698 711.974 L349.896 710.724 L353.402 710.724 L353.402 733.692 L359.132 733.692 L359.132 736.644 L344.201 736.644 L344.201 733.692 Z" fill="#000000" fill-rule="evenodd" fill-opacity="1" /><path clip-path="url(#clip980)" d="M 0 0 M375.85 713.779 L366.996 727.616 L375.85 727.616 L375.85 713.779 M374.93 710.724 L379.34 710.724 L379.34 727.616 L383.038 727.616 L383.038 730.533 L379.34 730.533 L379.34 736.644 L375.85 736.644 L375.85 730.533 L364.149 730.533 L364.149 727.147 L374.93 710.724 Z" fill="#000000" fill-rule="evenodd" fill-opacity="1" /><path clip-path="url(#clip980)" d="M 0 0 M344.201 534.157 L349.93 534.157 L349.93 514.382 L343.698 515.632 L343.698 512.438 L349.896 511.188 L353.402 511.188 L353.402 534.157 L359.132 534.157 L359.132 537.108 L344.201 537.108 L344.201 534.157 Z" fill="#000000" fill-rule="evenodd" fill-opacity="1" /><path clip-path="url(#clip980)" d="M 0 0 M366.25 511.188 L380.017 511.188 L380.017 514.139 L369.461 514.139 L369.461 520.493 Q370.225 520.233 370.989 520.112 Q371.753 519.973 372.517 519.973 Q376.857 519.973 379.392 522.351 Q381.927 524.73 381.927 528.792 Q381.927 532.976 379.322 535.302 Q376.718 537.611 371.979 537.611 Q370.347 537.611 368.645 537.334 Q366.961 537.056 365.156 536.5 L365.156 532.976 Q366.718 533.827 368.385 534.243 Q370.052 534.66 371.909 534.66 Q374.913 534.66 376.666 533.08 Q378.42 531.5 378.42 528.792 Q378.42 526.084 376.666 524.504 Q374.913 522.924 371.909 522.924 Q370.503 522.924 369.097 523.237 Q367.708 523.549 366.25 524.209 L366.25 511.188 Z" fill="#000000" fill-rule="evenodd" fill-opacity="1" /><path clip-path="url(#clip980)" d="M 0 0 M276.025 584.041 L281.754 584.041 L281.754 564.266 L275.521 565.516 L275.521 562.322 L281.719 561.072 L285.226 561.072 L285.226 584.041 L290.955 584.041 L290.955 586.992 L276.025 586.992 L276.025 584.041 Z" fill="#000000" fill-rule="evenodd" fill-opacity="1" /><path clip-path="url(#clip980)" d="M 0 0 M305.972 572.634 Q303.611 572.634 302.223 574.249 Q300.851 575.864 300.851 578.676 Q300.851 581.471 302.223 583.103 Q303.611 584.718 305.972 584.718 Q308.334 584.718 309.705 583.103 Q311.094 581.471 311.094 578.676 Q311.094 575.864 309.705 574.249 Q308.334 572.634 305.972 572.634 M312.934 561.645 L312.934 564.839 Q311.615 564.214 310.261 563.884 Q308.924 563.555 307.604 563.555 Q304.132 563.555 302.292 565.898 Q300.469 568.242 300.209 572.982 Q301.233 571.471 302.778 570.673 Q304.323 569.857 306.181 569.857 Q310.087 569.857 312.344 572.235 Q314.618 574.596 314.618 578.676 Q314.618 582.669 312.257 585.082 Q309.896 587.495 305.972 587.495 Q301.476 587.495 299.098 584.058 Q296.719 580.603 296.719 574.058 Q296.719 567.912 299.636 564.266 Q302.552 560.603 307.466 560.603 Q308.785 560.603 310.122 560.864 Q311.476 561.124 312.934 561.645 Z" fill="#000000" fill-rule="evenodd" fill-opacity="1" /><path clip-path="url(#clip980)" d="M 0 0 M207.848 434.389 L213.577 434.389 L213.577 414.614 L207.345 415.864 L207.345 412.67 L213.543 411.42 L217.05 411.42 L217.05 434.389 L222.779 434.389 L222.779 437.34 L207.848 437.34 L207.848 434.389 Z" fill="#000000" fill-rule="evenodd" fill-opacity="1" /><path clip-path="url(#clip980)" d="M 0 0 M237.362 425.031 Q234.862 425.031 233.421 426.368 Q231.998 427.705 231.998 430.048 Q231.998 432.392 233.421 433.729 Q234.862 435.066 237.362 435.066 Q239.862 435.066 241.303 433.729 Q242.744 432.375 242.744 430.048 Q242.744 427.705 241.303 426.368 Q239.879 425.031 237.362 425.031 M233.855 423.538 Q231.598 422.982 230.331 421.437 Q229.081 419.892 229.081 417.67 Q229.081 414.562 231.286 412.757 Q233.508 410.951 237.362 410.951 Q241.234 410.951 243.438 412.757 Q245.643 414.562 245.643 417.67 Q245.643 419.892 244.376 421.437 Q243.126 422.982 240.886 423.538 Q243.421 424.128 244.827 425.847 Q246.251 427.566 246.251 430.048 Q246.251 433.816 243.942 435.83 Q241.65 437.843 237.362 437.843 Q233.074 437.843 230.765 435.83 Q228.473 433.816 228.473 430.048 Q228.473 427.566 229.897 425.847 Q231.32 424.128 233.855 423.538 M232.57 418 Q232.57 420.014 233.82 421.142 Q235.088 422.271 237.362 422.271 Q239.619 422.271 240.886 421.142 Q242.171 420.014 242.171 418 Q242.171 415.986 240.886 414.858 Q239.619 413.729 237.362 413.729 Q235.088 413.729 233.82 414.858 Q232.57 415.986 232.57 418 Z" fill="#000000" fill-rule="evenodd" fill-opacity="1" /><path clip-path="url(#clip980)" d="M 0 0 M207.848 833.46 L213.577 833.46 L213.577 813.686 L207.345 814.936 L207.345 811.742 L213.543 810.492 L217.05 810.492 L217.05 833.46 L222.779 833.46 L222.779 836.412 L207.848 836.412 L207.848 833.46 Z" fill="#000000" fill-rule="evenodd" fill-opacity="1" /><path clip-path="url(#clip980)" d="M 0 0 M229.966 835.874 L229.966 832.679 Q231.286 833.304 232.64 833.634 Q233.994 833.964 235.296 833.964 Q238.768 833.964 240.591 831.638 Q242.431 829.294 242.692 824.537 Q241.685 826.03 240.14 826.829 Q238.595 827.627 236.72 827.627 Q232.831 827.627 230.557 825.283 Q228.3 822.922 228.3 818.842 Q228.3 814.849 230.661 812.436 Q233.022 810.023 236.945 810.023 Q241.442 810.023 243.803 813.478 Q246.181 816.915 246.181 823.478 Q246.181 829.606 243.265 833.269 Q240.366 836.915 235.452 836.915 Q234.133 836.915 232.779 836.655 Q231.425 836.394 229.966 835.874 M236.945 824.884 Q239.307 824.884 240.678 823.27 Q242.067 821.655 242.067 818.842 Q242.067 816.047 240.678 814.433 Q239.307 812.801 236.945 812.801 Q234.584 812.801 233.195 814.433 Q231.824 816.047 231.824 818.842 Q231.824 821.655 233.195 823.27 Q234.584 824.884 236.945 824.884 Z" fill="#000000" fill-rule="evenodd" fill-opacity="1" /><path clip-path="url(#clip980)" d="M 0 0 M143.387 284.737 L155.627 284.737 L155.627 287.688 L139.169 287.688 L139.169 284.737 Q141.165 282.671 144.603 279.199 Q148.057 275.709 148.943 274.702 Q150.627 272.81 151.286 271.508 Q151.964 270.188 151.964 268.921 Q151.964 266.855 150.505 265.553 Q149.064 264.251 146.738 264.251 Q145.089 264.251 143.248 264.824 Q141.425 265.397 139.342 266.56 L139.342 263.018 Q141.46 262.167 143.3 261.733 Q145.141 261.299 146.668 261.299 Q150.696 261.299 153.092 263.313 Q155.488 265.327 155.488 268.695 Q155.488 270.292 154.88 271.733 Q154.29 273.157 152.71 275.101 Q152.276 275.605 149.95 278.018 Q147.623 280.414 143.387 284.737 Z" fill="#000000" fill-rule="evenodd" fill-opacity="1" /><path clip-path="url(#clip980)" d="M 0 0 M170.488 264.077 Q167.779 264.077 166.408 266.751 Q165.054 269.407 165.054 274.754 Q165.054 280.084 166.408 282.758 Q167.779 285.414 170.488 285.414 Q173.213 285.414 174.568 282.758 Q175.939 280.084 175.939 274.754 Q175.939 269.407 174.568 266.751 Q173.213 264.077 170.488 264.077 M170.488 261.299 Q174.845 261.299 177.137 264.754 Q179.446 268.192 179.446 274.754 Q179.446 281.299 177.137 284.754 Q174.845 288.192 170.488 288.192 Q166.13 288.192 163.821 284.754 Q161.529 281.299 161.529 274.754 Q161.529 268.192 163.821 264.754 Q166.13 261.299 170.488 261.299 Z" fill="#000000" fill-rule="evenodd" fill-opacity="1" /><path clip-path="url(#clip980)" d="M 0 0 M143.387 683.809 L155.627 683.809 L155.627 686.76 L139.169 686.76 L139.169 683.809 Q141.165 681.743 144.603 678.27 Q148.057 674.781 148.943 673.774 Q150.627 671.881 151.286 670.579 Q151.964 669.26 151.964 667.993 Q151.964 665.927 150.505 664.625 Q149.064 663.323 146.738 663.323 Q145.089 663.323 143.248 663.895 Q141.425 664.468 139.342 665.632 L139.342 662.09 Q141.46 661.239 143.3 660.805 Q145.141 660.371 146.668 660.371 Q150.696 660.371 153.092 662.385 Q155.488 664.399 155.488 667.767 Q155.488 669.364 154.88 670.805 Q154.29 672.229 152.71 674.173 Q152.276 674.677 149.95 677.09 Q147.623 679.486 143.387 683.809 Z" fill="#000000" fill-rule="evenodd" fill-opacity="1" /><path clip-path="url(#clip980)" d="M 0 0 M163.595 683.809 L169.325 683.809 L169.325 664.034 L163.092 665.284 L163.092 662.09 L169.29 660.84 L172.797 660.84 L172.797 683.809 L178.526 683.809 L178.526 686.76 L163.595 686.76 L163.595 683.809 Z" fill="#000000" fill-rule="evenodd" fill-opacity="1" /><path clip-path="url(#clip980)" d="M 0 0 M75.2109 733.692 L87.4504 733.692 L87.4504 736.644 L70.9921 736.644 L70.9921 733.692 Q72.9886 731.627 76.4261 728.154 Q79.881 724.665 80.7664 723.658 Q82.4504 721.765 83.1101 720.463 Q83.7872 719.144 83.7872 717.877 Q83.7872 715.811 82.3289 714.509 Q80.8879 713.206 78.5615 713.206 Q76.9122 713.206 75.072 713.779 Q73.2491 714.352 71.1657 715.516 L71.1657 711.974 Q73.2838 711.123 75.124 710.689 Q76.9643 710.255 78.4921 710.255 Q82.5198 710.255 84.9157 712.269 Q87.3115 714.283 87.3115 717.651 Q87.3115 719.248 86.7038 720.689 Q86.1136 722.113 84.5337 724.057 Q84.0997 724.561 81.7733 726.974 Q79.4469 729.37 75.2109 733.692 Z" fill="#000000" fill-rule="evenodd" fill-opacity="1" /><path clip-path="url(#clip980)" d="M 0 0 M97.8323 733.692 L110.072 733.692 L110.072 736.644 L93.6135 736.644 L93.6135 733.692 Q95.61 731.627 99.0475 728.154 Q102.502 724.665 103.388 723.658 Q105.072 721.765 105.732 720.463 Q106.409 719.144 106.409 717.877 Q106.409 715.811 104.95 714.509 Q103.509 713.206 101.183 713.206 Q99.5336 713.206 97.6934 713.779 Q95.8705 714.352 93.7871 715.516 L93.7871 711.974 Q95.9052 711.123 97.7455 710.689 Q99.5857 710.255 101.113 710.255 Q105.141 710.255 107.537 712.269 Q109.933 714.283 109.933 717.651 Q109.933 719.248 109.325 720.689 Q108.735 722.113 107.155 724.057 Q106.721 724.561 104.395 726.974 Q102.068 729.37 97.8323 733.692 Z" fill="#000000" fill-rule="evenodd" fill-opacity="1" /><path clip-path="url(#clip980)" d="M 0 0 M75.2109 534.157 L87.4504 534.157 L87.4504 537.108 L70.9921 537.108 L70.9921 534.157 Q72.9886 532.091 76.4261 528.618 Q79.881 525.129 80.7664 524.122 Q82.4504 522.23 83.1101 520.928 Q83.7872 519.608 83.7872 518.341 Q83.7872 516.275 82.3289 514.973 Q80.8879 513.671 78.5615 513.671 Q76.9122 513.671 75.072 514.244 Q73.2491 514.816 71.1657 515.98 L71.1657 512.438 Q73.2838 511.587 75.124 511.153 Q76.9643 510.719 78.4921 510.719 Q82.5198 510.719 84.9157 512.733 Q87.3115 514.747 87.3115 518.115 Q87.3115 519.712 86.7038 521.153 Q86.1136 522.577 84.5337 524.521 Q84.0997 525.025 81.7733 527.438 Q79.4469 529.834 75.2109 534.157 Z" fill="#000000" fill-rule="evenodd" fill-opacity="1" /><path clip-path="url(#clip980)" d="M 0 0 M105.436 523.132 Q107.954 523.671 109.36 525.372 Q110.784 527.073 110.784 529.573 Q110.784 533.41 108.145 535.511 Q105.506 537.611 100.645 537.611 Q99.0128 537.611 97.2767 537.282 Q95.558 536.969 93.7177 536.327 L93.7177 532.941 Q95.176 533.792 96.9121 534.226 Q98.6482 534.66 100.541 534.66 Q103.839 534.66 105.558 533.358 Q107.294 532.056 107.294 529.573 Q107.294 527.282 105.679 525.997 Q104.082 524.695 101.218 524.695 L98.1968 524.695 L98.1968 521.813 L101.357 521.813 Q103.943 521.813 105.315 520.789 Q106.686 519.747 106.686 517.803 Q106.686 515.806 105.263 514.747 Q103.857 513.671 101.218 513.671 Q99.7767 513.671 98.1274 513.983 Q96.4781 514.296 94.4989 514.955 L94.4989 511.83 Q96.4955 511.275 98.2316 510.997 Q99.985 510.719 101.53 510.719 Q105.523 510.719 107.85 512.542 Q110.176 514.348 110.176 517.438 Q110.176 519.591 108.943 521.084 Q107.711 522.559 105.436 523.132 Z" fill="#000000" fill-rule="evenodd" fill-opacity="1" /><path clip-path="url(#clip980)" d="M 0 0 M416.093 883.344 L428.332 883.344 L428.332 886.296 L411.874 886.296 L411.874 883.344 Q413.871 881.278 417.308 877.806 Q420.763 874.317 421.648 873.31 Q423.332 871.417 423.992 870.115 Q424.669 868.796 424.669 867.529 Q424.669 865.463 423.211 864.16 Q421.77 862.858 419.443 862.858 Q417.794 862.858 415.954 863.431 Q414.131 864.004 412.048 865.167 L412.048 861.626 Q414.166 860.775 416.006 860.341 Q417.846 859.907 419.374 859.907 Q423.402 859.907 425.798 861.921 Q428.193 863.935 428.193 867.303 Q428.193 868.9 427.586 870.341 Q426.995 871.765 425.416 873.709 Q424.982 874.213 422.655 876.626 Q420.329 879.022 416.093 883.344 Z" fill="#000000" fill-rule="evenodd" fill-opacity="1" /><path clip-path="url(#clip980)" d="M 0 0 M445.329 863.431 L436.475 877.268 L445.329 877.268 L445.329 863.431 M444.409 860.376 L448.818 860.376 L448.818 877.268 L452.516 877.268 L452.516 880.185 L448.818 880.185 L448.818 886.296 L445.329 886.296 L445.329 880.185 L433.627 880.185 L433.627 876.799 L444.409 860.376 Z" fill="#000000" fill-rule="evenodd" fill-opacity="1" /><circle clip-path="url(#clip982)" cx="411.874" cy="395.232" r="14" fill="#0000ff" fill-rule="evenodd" fill-opacity="1" stroke="none"/>
<circle clip-path="url(#clip982)" cx="343.698" cy="245.58" r="14" fill="#0000ff" fill-rule="evenodd" fill-opacity="1" stroke="none"/>
<circle clip-path="url(#clip982)" cx="275.521" cy="295.464" r="14" fill="#0000ff" fill-rule="evenodd" fill-opacity="1" stroke="none"/>
<circle clip-path="url(#clip982)" cx="275.521" cy="95.9282" r="14" fill="#0000ff" fill-rule="evenodd" fill-opacity="1" stroke="none"/>
<circle clip-path="url(#clip982)" cx="207.345" cy="145.812" r="14" fill="#0000ff" fill-rule="evenodd" fill-opacity="1" stroke="none"/>
<circle clip-path="url(#clip982)" cx="70.9921" cy="245.58" r="14" fill="#0000ff" fill-rule="evenodd" fill-opacity="1" stroke="none"/>
<circle clip-path="url(#clip982)" cx="411.874" cy="95.9282" r="14" fill="#0000ff" fill-rule="evenodd" fill-opacity="1" stroke="none"/>
<circle clip-path="url(#clip982)" cx="343.698" cy="145.812" r="14" fill="#0000ff" fill-rule="evenodd" fill-opacity="1" stroke="none"/>
<circle clip-path="url(#clip982)" cx="275.521" cy="395.232" r="14" fill="#0000ff" fill-rule="evenodd" fill-opacity="1" stroke="none"/>
<circle clip-path="url(#clip982)" cx="207.345" cy="245.58" r="14" fill="#0000ff" fill-rule="evenodd" fill-opacity="1" stroke="none"/>
<circle clip-path="url(#clip982)" cx="139.169" cy="95.9282" r="14" fill="#0000ff" fill-rule="evenodd" fill-opacity="1" stroke="none"/>
<circle clip-path="url(#clip982)" cx="70.9921" cy="145.812" r="14" fill="#0000ff" fill-rule="evenodd" fill-opacity="1" stroke="none"/>
<circle clip-path="url(#clip982)" cx="411.874" cy="295.464" r="14" fill="#0000ff" fill-rule="evenodd" fill-opacity="1" stroke="none"/>
<path clip-path="url(#clip980)" d="M 0 0 M412.377 384.505 L418.107 384.505 L418.107 364.73 L411.874 365.98 L411.874 362.786 L418.072 361.536 L421.579 361.536 L421.579 384.505 L427.308 384.505 L427.308 387.456 L412.377 387.456 L412.377 384.505 Z" fill="#000000" fill-rule="evenodd" fill-opacity="1" /><path clip-path="url(#clip980)" d="M 0 0 M355.416 223.829 Q357.934 224.367 359.34 226.068 Q360.764 227.769 360.764 230.269 Q360.764 234.106 358.125 236.207 Q355.486 238.308 350.625 238.308 Q348.993 238.308 347.257 237.978 Q345.538 237.665 343.698 237.023 L343.698 233.637 Q345.156 234.488 346.892 234.922 Q348.628 235.356 350.521 235.356 Q353.819 235.356 355.538 234.054 Q357.274 232.752 357.274 230.269 Q357.274 227.978 355.659 226.693 Q354.062 225.391 351.198 225.391 L348.177 225.391 L348.177 222.509 L351.336 222.509 Q353.923 222.509 355.295 221.485 Q356.666 220.443 356.666 218.499 Q356.666 216.502 355.243 215.443 Q353.836 214.367 351.198 214.367 Q349.757 214.367 348.107 214.679 Q346.458 214.992 344.479 215.651 L344.479 212.526 Q346.475 211.971 348.212 211.693 Q349.965 211.415 351.51 211.415 Q355.503 211.415 357.83 213.238 Q360.156 215.044 360.156 218.134 Q360.156 220.287 358.923 221.78 Q357.691 223.256 355.416 223.829 Z" fill="#000000" fill-rule="evenodd" fill-opacity="1" /><path clip-path="url(#clip980)" d="M 0 0 M287.223 264.824 L278.368 278.66 L287.223 278.66 L287.223 264.824 M286.302 261.768 L290.712 261.768 L290.712 278.66 L294.41 278.66 L294.41 281.577 L290.712 281.577 L290.712 287.688 L287.223 287.688 L287.223 281.577 L275.521 281.577 L275.521 278.192 L286.302 261.768 Z" fill="#000000" fill-rule="evenodd" fill-opacity="1" /><path clip-path="url(#clip980)" d="M 0 0 M276.615 62.2322 L290.382 62.2322 L290.382 65.1836 L279.827 65.1836 L279.827 71.5377 Q280.591 71.2773 281.355 71.1558 Q282.118 71.0169 282.882 71.0169 Q287.223 71.0169 289.757 73.3954 Q292.292 75.7738 292.292 79.8363 Q292.292 84.0203 289.688 86.3467 Q287.084 88.6557 282.344 88.6557 Q280.712 88.6557 279.011 88.3779 Q277.327 88.1001 275.521 87.5446 L275.521 84.0203 Q277.084 84.871 278.75 85.2877 Q280.417 85.7043 282.275 85.7043 Q285.278 85.7043 287.032 84.1245 Q288.785 82.5446 288.785 79.8363 Q288.785 77.128 287.032 75.5481 Q285.278 73.9683 282.275 73.9683 Q280.868 73.9683 279.462 74.2808 Q278.073 74.5933 276.615 75.253 L276.615 62.2322 Z" fill="#000000" fill-rule="evenodd" fill-opacity="1" /><path clip-path="url(#clip980)" d="M 0 0 M216.598 123.679 Q214.237 123.679 212.848 125.293 Q211.477 126.908 211.477 129.72 Q211.477 132.515 212.848 134.147 Q214.237 135.762 216.598 135.762 Q218.959 135.762 220.331 134.147 Q221.72 132.515 221.72 129.72 Q221.72 126.908 220.331 125.293 Q218.959 123.679 216.598 123.679 M223.56 112.689 L223.56 115.884 Q222.241 115.259 220.886 114.929 Q219.55 114.599 218.23 114.599 Q214.758 114.599 212.918 116.943 Q211.095 119.286 210.834 124.026 Q211.859 122.515 213.404 121.717 Q214.949 120.901 216.807 120.901 Q220.713 120.901 222.97 123.279 Q225.244 125.64 225.244 129.72 Q225.244 133.713 222.883 136.126 Q220.522 138.54 216.598 138.54 Q212.102 138.54 209.723 135.102 Q207.345 131.647 207.345 125.102 Q207.345 118.956 210.262 115.311 Q213.178 111.647 218.091 111.647 Q219.411 111.647 220.748 111.908 Q222.102 112.168 223.56 112.689 Z" fill="#000000" fill-rule="evenodd" fill-opacity="1" /><path clip-path="url(#clip980)" d="M 0 0 M71.4956 234.853 L77.2247 234.853 L77.2247 215.079 L70.9921 216.329 L70.9921 213.134 L77.19 211.884 L80.6969 211.884 L80.6969 234.853 L86.4261 234.853 L86.4261 237.804 L71.4956 237.804 L71.4956 234.853 Z" fill="#000000" fill-rule="evenodd" fill-opacity="1" /><path clip-path="url(#clip980)" d="M 0 0 M94.117 234.853 L99.8461 234.853 L99.8461 215.079 L93.6135 216.329 L93.6135 213.134 L99.8114 211.884 L103.318 211.884 L103.318 234.853 L109.047 234.853 L109.047 237.804 L94.117 237.804 L94.117 234.853 Z" fill="#000000" fill-rule="evenodd" fill-opacity="1" /><path clip-path="url(#clip980)" d="M 0 0 M412.377 85.2008 L418.107 85.2008 L418.107 65.4266 L411.874 66.6766 L411.874 63.4822 L418.072 62.2322 L421.579 62.2322 L421.579 85.2008 L427.308 85.2008 L427.308 88.1522 L412.377 88.1522 L412.377 85.2008 Z" fill="#000000" fill-rule="evenodd" fill-opacity="1" /><path clip-path="url(#clip980)" d="M 0 0 M445.016 74.1766 Q447.534 74.7148 448.94 76.4162 Q450.363 78.1176 450.363 80.6175 Q450.363 84.4543 447.725 86.555 Q445.086 88.6557 440.225 88.6557 Q438.593 88.6557 436.857 88.3258 Q435.138 88.0133 433.298 87.371 L433.298 83.9856 Q434.756 84.8363 436.492 85.2703 Q438.228 85.7043 440.12 85.7043 Q443.419 85.7043 445.138 84.4022 Q446.874 83.1002 446.874 80.6175 Q446.874 78.3259 445.259 77.0412 Q443.662 75.7391 440.797 75.7391 L437.777 75.7391 L437.777 72.8572 L440.936 72.8572 Q443.523 72.8572 444.895 71.8329 Q446.266 70.7912 446.266 68.8468 Q446.266 66.8503 444.843 65.7912 Q443.436 64.7148 440.797 64.7148 Q439.357 64.7148 437.707 65.0273 Q436.058 65.3398 434.079 65.9996 L434.079 62.8746 Q436.075 62.319 437.811 62.0412 Q439.565 61.7635 441.11 61.7635 Q445.103 61.7635 447.429 63.5864 Q449.756 65.3919 449.756 68.4822 Q449.756 70.635 448.523 72.128 Q447.29 73.6037 445.016 74.1766 Z" fill="#000000" fill-rule="evenodd" fill-opacity="1" /><path clip-path="url(#clip980)" d="M 0 0 M344.201 135.085 L349.93 135.085 L349.93 115.311 L343.698 116.561 L343.698 113.366 L349.896 112.116 L353.402 112.116 L353.402 135.085 L359.132 135.085 L359.132 138.036 L344.201 138.036 L344.201 135.085 Z" fill="#000000" fill-rule="evenodd" fill-opacity="1" /><path clip-path="url(#clip980)" d="M 0 0 M375.85 115.172 L366.996 129.008 L375.85 129.008 L375.85 115.172 M374.93 112.116 L379.34 112.116 L379.34 129.008 L383.038 129.008 L383.038 131.925 L379.34 131.925 L379.34 138.036 L375.85 138.036 L375.85 131.925 L364.149 131.925 L364.149 128.54 L374.93 112.116 Z" fill="#000000" fill-rule="evenodd" fill-opacity="1" /><path clip-path="url(#clip980)" d="M 0 0 M276.025 384.505 L281.754 384.505 L281.754 364.73 L275.521 365.98 L275.521 362.786 L281.719 361.536 L285.226 361.536 L285.226 384.505 L290.955 384.505 L290.955 387.456 L276.025 387.456 L276.025 384.505 Z" fill="#000000" fill-rule="evenodd" fill-opacity="1" /><path clip-path="url(#clip980)" d="M 0 0 M297.153 361.536 L313.82 361.536 L313.82 363.029 L304.41 387.456 L300.747 387.456 L309.601 364.487 L297.153 364.487 L297.153 361.536 Z" fill="#000000" fill-rule="evenodd" fill-opacity="1" /><path clip-path="url(#clip980)" d="M 0 0 M207.848 234.853 L213.577 234.853 L213.577 215.079 L207.345 216.329 L207.345 213.134 L213.543 211.884 L217.05 211.884 L217.05 234.853 L222.779 234.853 L222.779 237.804 L207.848 237.804 L207.848 234.853 Z" fill="#000000" fill-rule="evenodd" fill-opacity="1" /><path clip-path="url(#clip980)" d="M 0 0 M229.966 237.266 L229.966 234.072 Q231.286 234.697 232.64 235.026 Q233.994 235.356 235.296 235.356 Q238.768 235.356 240.591 233.03 Q242.431 230.686 242.692 225.929 Q241.685 227.422 240.14 228.221 Q238.595 229.019 236.72 229.019 Q232.831 229.019 230.557 226.676 Q228.3 224.315 228.3 220.235 Q228.3 216.242 230.661 213.829 Q233.022 211.415 236.945 211.415 Q241.442 211.415 243.803 214.87 Q246.181 218.308 246.181 224.87 Q246.181 230.999 243.265 234.662 Q240.366 238.308 235.452 238.308 Q234.133 238.308 232.779 238.047 Q231.425 237.787 229.966 237.266 M236.945 226.276 Q239.307 226.276 240.678 224.662 Q242.067 223.047 242.067 220.235 Q242.067 217.44 240.678 215.825 Q239.307 214.193 236.945 214.193 Q234.584 214.193 233.195 215.825 Q231.824 217.44 231.824 220.235 Q231.824 223.047 233.195 224.662 Q234.584 226.276 236.945 226.276 Z" fill="#000000" fill-rule="evenodd" fill-opacity="1" /><path clip-path="url(#clip980)" d="M 0 0 M143.387 85.2008 L155.627 85.2008 L155.627 88.1522 L139.169 88.1522 L139.169 85.2008 Q141.165 83.1349 144.603 79.6627 Q148.057 76.1731 148.943 75.1662 Q150.627 73.2738 151.286 71.9718 Q151.964 70.6523 151.964 69.385 Q151.964 67.319 150.505 66.0169 Q149.064 64.7148 146.738 64.7148 Q145.089 64.7148 143.248 65.2878 Q141.425 65.8607 139.342 67.0239 L139.342 63.4822 Q141.46 62.6315 143.3 62.1975 Q145.141 61.7635 146.668 61.7635 Q150.696 61.7635 153.092 63.7774 Q155.488 65.7912 155.488 69.1593 Q155.488 70.7565 154.88 72.1974 Q154.29 73.621 152.71 75.5655 Q152.276 76.069 149.95 78.4821 Q147.623 80.878 143.387 85.2008 Z" fill="#000000" fill-rule="evenodd" fill-opacity="1" /><path clip-path="url(#clip980)" d="M 0 0 M163.595 85.2008 L169.325 85.2008 L169.325 65.4266 L163.092 66.6766 L163.092 63.4822 L169.29 62.2322 L172.797 62.2322 L172.797 85.2008 L178.526 85.2008 L178.526 88.1522 L163.595 88.1522 L163.595 85.2008 Z" fill="#000000" fill-rule="evenodd" fill-opacity="1" /><path clip-path="url(#clip980)" d="M 0 0 M75.2109 135.085 L87.4504 135.085 L87.4504 138.036 L70.9921 138.036 L70.9921 135.085 Q72.9886 133.019 76.4261 129.547 Q79.881 126.057 80.7664 125.05 Q82.4504 123.158 83.1101 121.856 Q83.7872 120.536 83.7872 119.269 Q83.7872 117.203 82.3289 115.901 Q80.8879 114.599 78.5615 114.599 Q76.9122 114.599 75.072 115.172 Q73.2491 115.745 71.1657 116.908 L71.1657 113.366 Q73.2838 112.515 75.124 112.081 Q76.9643 111.647 78.4921 111.647 Q82.5198 111.647 84.9157 113.661 Q87.3115 115.675 87.3115 119.043 Q87.3115 120.64 86.7038 122.081 Q86.1136 123.505 84.5337 125.449 Q84.0997 125.953 81.7733 128.366 Q79.4469 130.762 75.2109 135.085 Z" fill="#000000" fill-rule="evenodd" fill-opacity="1" /><path clip-path="url(#clip980)" d="M 0 0 M97.8323 135.085 L110.072 135.085 L110.072 138.036 L93.6135 138.036 L93.6135 135.085 Q95.61 133.019 99.0475 129.547 Q102.502 126.057 103.388 125.05 Q105.072 123.158 105.732 121.856 Q106.409 120.536 106.409 119.269 Q106.409 117.203 104.95 115.901 Q103.509 114.599 101.183 114.599 Q99.5336 114.599 97.6934 115.172 Q95.8705 115.745 93.7871 116.908 L93.7871 113.366 Q95.9052 112.515 97.7455 112.081 Q99.5857 111.647 101.113 111.647 Q105.141 111.647 107.537 113.661 Q109.933 115.675 109.933 119.043 Q109.933 120.64 109.325 122.081 Q108.735 123.505 107.155 125.449 Q106.721 125.953 104.395 128.366 Q102.068 130.762 97.8323 135.085 Z" fill="#000000" fill-rule="evenodd" fill-opacity="1" /><path clip-path="url(#clip980)" d="M 0 0 M416.093 284.737 L428.332 284.737 L428.332 287.688 L411.874 287.688 L411.874 284.737 Q413.871 282.671 417.308 279.199 Q420.763 275.709 421.648 274.702 Q423.332 272.81 423.992 271.508 Q424.669 270.188 424.669 268.921 Q424.669 266.855 423.211 265.553 Q421.77 264.251 419.443 264.251 Q417.794 264.251 415.954 264.824 Q414.131 265.397 412.048 266.56 L412.048 263.018 Q414.166 262.167 416.006 261.733 Q417.846 261.299 419.374 261.299 Q423.402 261.299 425.798 263.313 Q428.193 265.327 428.193 268.695 Q428.193 270.292 427.586 271.733 Q426.995 273.157 425.416 275.101 Q424.982 275.605 422.655 278.018 Q420.329 280.414 416.093 284.737 Z" fill="#000000" fill-rule="evenodd" fill-opacity="1" /><path clip-path="url(#clip980)" d="M 0 0 M445.329 264.824 L436.475 278.66 L445.329 278.66 L445.329 264.824 M444.409 261.768 L448.818 261.768 L448.818 278.66 L452.516 278.66 L452.516 281.577 L448.818 281.577 L448.818 287.688 L445.329 287.688 L445.329 281.577 L433.627 281.577 L433.627 278.192 L444.409 261.768 Z" fill="#000000" fill-rule="evenodd" fill-opacity="1" /><circle clip-path="url(#clip982)" cx="752.756" cy="744.42" r="14" fill="#0000ff" fill-rule="evenodd" fill-opacity="1" stroke="none"/>
<circle clip-path="url(#clip982)" cx="616.403" cy="844.188" r="14" fill="#0000ff" fill-rule="evenodd" fill-opacity="1" stroke="none"/>
<circle clip-path="url(#clip982)" cx="548.227" cy="894.072" r="14" fill="#0000ff" fill-rule="evenodd" fill-opacity="1" stroke="none"/>
<circle clip-path="url(#clip982)" cx="548.227" cy="694.536" r="14" fill="#0000ff" fill-rule="evenodd" fill-opacity="1" stroke="none"/>
<circle clip-path="url(#clip982)" cx="480.05" cy="744.42" r="14" fill="#0000ff" fill-rule="evenodd" fill-opacity="1" stroke="none"/>
<circle clip-path="url(#clip982)" cx="752.756" cy="844.188" r="14" fill="#0000ff" fill-rule="evenodd" fill-opacity="1" stroke="none"/>
<circle clip-path="url(#clip982)" cx="684.58" cy="894.072" r="14" fill="#0000ff" fill-rule="evenodd" fill-opacity="1" stroke="none"/>
<circle clip-path="url(#clip982)" cx="616.403" cy="744.42" r="14" fill="#0000ff" fill-rule="evenodd" fill-opacity="1" stroke="none"/>
<circle clip-path="url(#clip982)" cx="548.227" cy="594.768" r="14" fill="#0000ff" fill-rule="evenodd" fill-opacity="1" stroke="none"/>
<circle clip-path="url(#clip982)" cx="480.05" cy="844.188" r="14" fill="#0000ff" fill-rule="evenodd" fill-opacity="1" stroke="none"/>
<path clip-path="url(#clip980)" d="M 0 0 M756.975 733.692 L769.214 733.692 L769.214 736.644 L752.756 736.644 L752.756 733.692 Q754.752 731.627 758.19 728.154 Q761.645 724.665 762.53 723.658 Q764.214 721.765 764.874 720.463 Q765.551 719.144 765.551 717.877 Q765.551 715.811 764.093 714.509 Q762.652 713.206 760.325 713.206 Q758.676 713.206 756.836 713.779 Q755.013 714.352 752.93 715.516 L752.93 711.974 Q755.048 711.123 756.888 710.689 Q758.728 710.255 760.256 710.255 Q764.284 710.255 766.679 712.269 Q769.075 714.283 769.075 717.651 Q769.075 719.248 768.468 720.689 Q767.877 722.113 766.297 724.057 Q765.863 724.561 763.537 726.974 Q761.211 729.37 756.975 733.692 Z" fill="#000000" fill-rule="evenodd" fill-opacity="1" /><path clip-path="url(#clip980)" d="M 0 0 M616.403 810.492 L633.07 810.492 L633.07 811.985 L623.66 836.412 L619.997 836.412 L628.851 813.443 L616.403 813.443 L616.403 810.492 Z" fill="#000000" fill-rule="evenodd" fill-opacity="1" /><path clip-path="url(#clip980)" d="M 0 0 M557.116 873.987 Q554.616 873.987 553.175 875.324 Q551.751 876.66 551.751 879.004 Q551.751 881.348 553.175 882.685 Q554.616 884.021 557.116 884.021 Q559.616 884.021 561.057 882.685 Q562.498 881.331 562.498 879.004 Q562.498 876.66 561.057 875.324 Q559.633 873.987 557.116 873.987 M553.609 872.494 Q551.352 871.938 550.084 870.393 Q548.834 868.848 548.834 866.626 Q548.834 863.518 551.039 861.713 Q553.261 859.907 557.116 859.907 Q560.987 859.907 563.192 861.713 Q565.397 863.518 565.397 866.626 Q565.397 868.848 564.129 870.393 Q562.879 871.938 560.64 872.494 Q563.175 873.084 564.581 874.803 Q566.004 876.522 566.004 879.004 Q566.004 882.771 563.695 884.785 Q561.404 886.799 557.116 886.799 Q552.827 886.799 550.518 884.785 Q548.227 882.771 548.227 879.004 Q548.227 876.522 549.65 874.803 Q551.074 873.084 553.609 872.494 M552.324 866.956 Q552.324 868.969 553.574 870.098 Q554.841 871.226 557.116 871.226 Q559.373 871.226 560.64 870.098 Q561.925 868.969 561.925 866.956 Q561.925 864.942 560.64 863.813 Q559.373 862.685 557.116 862.685 Q554.841 862.685 553.574 863.813 Q552.324 864.942 552.324 866.956 Z" fill="#000000" fill-rule="evenodd" fill-opacity="1" /><path clip-path="url(#clip980)" d="M 0 0 M549.893 686.222 L549.893 683.027 Q551.213 683.652 552.567 683.982 Q553.921 684.312 555.223 684.312 Q558.695 684.312 560.518 681.986 Q562.359 679.642 562.619 674.885 Q561.612 676.378 560.067 677.177 Q558.522 677.975 556.647 677.975 Q552.758 677.975 550.484 675.631 Q548.227 673.27 548.227 669.191 Q548.227 665.198 550.588 662.784 Q552.949 660.371 556.873 660.371 Q561.369 660.371 563.73 663.826 Q566.109 667.263 566.109 673.826 Q566.109 679.954 563.192 683.618 Q560.293 687.263 555.38 687.263 Q554.06 687.263 552.706 687.003 Q551.352 686.743 549.893 686.222 M556.873 675.232 Q559.234 675.232 560.605 673.618 Q561.994 672.003 561.994 669.191 Q561.994 666.395 560.605 664.781 Q559.234 663.149 556.873 663.149 Q554.511 663.149 553.123 664.781 Q551.751 666.395 551.751 669.191 Q551.751 672.003 553.123 673.618 Q554.511 675.232 556.873 675.232 Z" fill="#000000" fill-rule="evenodd" fill-opacity="1" /><path clip-path="url(#clip980)" d="M 0 0 M480.554 733.692 L486.283 733.692 L486.283 713.918 L480.05 715.168 L480.05 711.974 L486.248 710.724 L489.755 710.724 L489.755 733.692 L495.484 733.692 L495.484 736.644 L480.554 736.644 L480.554 733.692 Z" fill="#000000" fill-rule="evenodd" fill-opacity="1" /><path clip-path="url(#clip980)" d="M 0 0 M510.068 713.033 Q507.359 713.033 505.988 715.706 Q504.634 718.363 504.634 723.71 Q504.634 729.04 505.988 731.713 Q507.359 734.37 510.068 734.37 Q512.793 734.37 514.147 731.713 Q515.519 729.04 515.519 723.71 Q515.519 718.363 514.147 715.706 Q512.793 713.033 510.068 713.033 M510.068 710.255 Q514.425 710.255 516.717 713.71 Q519.026 717.147 519.026 723.71 Q519.026 730.255 516.717 733.71 Q514.425 737.147 510.068 737.147 Q505.71 737.147 503.401 733.71 Q501.109 730.255 501.109 723.71 Q501.109 717.147 503.401 713.71 Q505.71 710.255 510.068 710.255 Z" fill="#000000" fill-rule="evenodd" fill-opacity="1" /><path clip-path="url(#clip980)" d="M 0 0 M753.259 833.46 L758.989 833.46 L758.989 813.686 L752.756 814.936 L752.756 811.742 L758.954 810.492 L762.461 810.492 L762.461 833.46 L768.19 833.46 L768.19 836.412 L753.259 836.412 L753.259 833.46 Z" fill="#000000" fill-rule="evenodd" fill-opacity="1" /><path clip-path="url(#clip980)" d="M 0 0 M775.308 810.492 L789.075 810.492 L789.075 813.443 L778.52 813.443 L778.52 819.797 Q779.284 819.537 780.047 819.415 Q780.811 819.276 781.575 819.276 Q785.915 819.276 788.45 821.655 Q790.985 824.033 790.985 828.096 Q790.985 832.28 788.381 834.606 Q785.777 836.915 781.037 836.915 Q779.405 836.915 777.704 836.638 Q776.02 836.36 774.214 835.804 L774.214 832.28 Q775.777 833.131 777.443 833.547 Q779.11 833.964 780.968 833.964 Q783.971 833.964 785.724 832.384 Q787.478 830.804 787.478 828.096 Q787.478 825.388 785.724 823.808 Q783.971 822.228 780.968 822.228 Q779.561 822.228 778.155 822.54 Q776.766 822.853 775.308 823.513 L775.308 810.492 Z" fill="#000000" fill-rule="evenodd" fill-opacity="1" /><path clip-path="url(#clip980)" d="M 0 0 M685.083 883.344 L690.812 883.344 L690.812 863.57 L684.58 864.82 L684.58 861.626 L690.777 860.376 L694.284 860.376 L694.284 883.344 L700.013 883.344 L700.013 886.296 L685.083 886.296 L685.083 883.344 Z" fill="#000000" fill-rule="evenodd" fill-opacity="1" /><path clip-path="url(#clip980)" d="M 0 0 M715.031 871.938 Q712.67 871.938 711.281 873.553 Q709.909 875.167 709.909 877.98 Q709.909 880.775 711.281 882.407 Q712.67 884.021 715.031 884.021 Q717.392 884.021 718.763 882.407 Q720.152 880.775 720.152 877.98 Q720.152 875.167 718.763 873.553 Q717.392 871.938 715.031 871.938 M721.993 860.949 L721.993 864.143 Q720.673 863.518 719.319 863.188 Q717.982 862.858 716.663 862.858 Q713.19 862.858 711.35 865.202 Q709.527 867.546 709.267 872.285 Q710.291 870.775 711.836 869.976 Q713.381 869.16 715.239 869.16 Q719.145 869.16 721.402 871.539 Q723.677 873.9 723.677 877.98 Q723.677 881.973 721.315 884.386 Q718.954 886.799 715.031 886.799 Q710.534 886.799 708.156 883.362 Q705.777 879.907 705.777 873.362 Q705.777 867.216 708.694 863.57 Q711.611 859.907 716.524 859.907 Q717.843 859.907 719.18 860.167 Q720.534 860.428 721.993 860.949 Z" fill="#000000" fill-rule="evenodd" fill-opacity="1" /><path clip-path="url(#clip980)" d="M 0 0 M616.907 733.692 L622.636 733.692 L622.636 713.918 L616.403 715.168 L616.403 711.974 L622.601 710.724 L626.108 710.724 L626.108 733.692 L631.837 733.692 L631.837 736.644 L616.907 736.644 L616.907 733.692 Z" fill="#000000" fill-rule="evenodd" fill-opacity="1" /><path clip-path="url(#clip980)" d="M 0 0 M646.42 724.335 Q643.92 724.335 642.479 725.672 Q641.056 727.008 641.056 729.352 Q641.056 731.696 642.479 733.033 Q643.92 734.37 646.42 734.37 Q648.92 734.37 650.361 733.033 Q651.802 731.679 651.802 729.352 Q651.802 727.008 650.361 725.672 Q648.938 724.335 646.42 724.335 M642.913 722.842 Q640.656 722.286 639.389 720.741 Q638.139 719.196 638.139 716.974 Q638.139 713.866 640.344 712.061 Q642.566 710.255 646.42 710.255 Q650.292 710.255 652.497 712.061 Q654.702 713.866 654.702 716.974 Q654.702 719.196 653.434 720.741 Q652.184 722.286 649.945 722.842 Q652.479 723.432 653.886 725.151 Q655.309 726.87 655.309 729.352 Q655.309 733.12 653 735.133 Q650.709 737.147 646.42 737.147 Q642.132 737.147 639.823 735.133 Q637.532 733.12 637.532 729.352 Q637.532 726.87 638.955 725.151 Q640.379 723.432 642.913 722.842 M641.629 717.304 Q641.629 719.318 642.879 720.446 Q644.146 721.574 646.42 721.574 Q648.677 721.574 649.945 720.446 Q651.229 719.318 651.229 717.304 Q651.229 715.29 649.945 714.161 Q648.677 713.033 646.42 713.033 Q644.146 713.033 642.879 714.161 Q641.629 715.29 641.629 717.304 Z" fill="#000000" fill-rule="evenodd" fill-opacity="1" /><path clip-path="url(#clip980)" d="M 0 0 M552.445 584.041 L564.685 584.041 L564.685 586.992 L548.227 586.992 L548.227 584.041 Q550.223 581.975 553.661 578.502 Q557.116 575.013 558.001 574.006 Q559.685 572.114 560.345 570.811 Q561.022 569.492 561.022 568.225 Q561.022 566.159 559.564 564.857 Q558.123 563.555 555.796 563.555 Q554.147 563.555 552.307 564.127 Q550.484 564.7 548.4 565.864 L548.4 562.322 Q550.518 561.471 552.359 561.037 Q554.199 560.603 555.727 560.603 Q559.754 560.603 562.15 562.617 Q564.546 564.631 564.546 567.999 Q564.546 569.596 563.938 571.037 Q563.348 572.461 561.768 574.405 Q561.334 574.909 559.008 577.322 Q556.682 579.718 552.445 584.041 Z" fill="#000000" fill-rule="evenodd" fill-opacity="1" /><path clip-path="url(#clip980)" d="M 0 0 M579.546 563.381 Q576.838 563.381 575.466 566.055 Q574.112 568.711 574.112 574.058 Q574.112 579.388 575.466 582.061 Q576.838 584.718 579.546 584.718 Q582.272 584.718 583.626 582.061 Q584.997 579.388 584.997 574.058 Q584.997 568.711 583.626 566.055 Q582.272 563.381 579.546 563.381 M579.546 560.603 Q583.904 560.603 586.195 564.058 Q588.504 567.496 588.504 574.058 Q588.504 580.603 586.195 584.058 Q583.904 587.495 579.546 587.495 Q575.188 587.495 572.879 584.058 Q570.588 580.603 570.588 574.058 Q570.588 567.496 572.879 564.058 Q575.188 560.603 579.546 560.603 Z" fill="#000000" fill-rule="evenodd" fill-opacity="1" /><path clip-path="url(#clip980)" d="M 0 0 M484.269 833.46 L496.509 833.46 L496.509 836.412 L480.05 836.412 L480.05 833.46 Q482.047 831.394 485.484 827.922 Q488.939 824.433 489.825 823.426 Q491.509 821.533 492.168 820.231 Q492.845 818.912 492.845 817.645 Q492.845 815.579 491.387 814.277 Q489.946 812.974 487.62 812.974 Q485.971 812.974 484.13 813.547 Q482.307 814.12 480.224 815.283 L480.224 811.742 Q482.342 810.891 484.182 810.457 Q486.023 810.023 487.55 810.023 Q491.578 810.023 493.974 812.037 Q496.37 814.051 496.37 817.419 Q496.37 819.016 495.762 820.457 Q495.172 821.881 493.592 823.825 Q493.158 824.329 490.832 826.742 Q488.505 829.138 484.269 833.46 Z" fill="#000000" fill-rule="evenodd" fill-opacity="1" /><path clip-path="url(#clip980)" d="M 0 0 M514.495 822.436 Q517.012 822.974 518.418 824.676 Q519.842 826.377 519.842 828.877 Q519.842 832.714 517.203 834.815 Q514.564 836.915 509.703 836.915 Q508.071 836.915 506.335 836.585 Q504.616 836.273 502.776 835.631 L502.776 832.245 Q504.234 833.096 505.97 833.53 Q507.706 833.964 509.599 833.964 Q512.897 833.964 514.616 832.662 Q516.352 831.36 516.352 828.877 Q516.352 826.585 514.738 825.301 Q513.14 823.999 510.276 823.999 L507.255 823.999 L507.255 821.117 L510.415 821.117 Q513.002 821.117 514.373 820.092 Q515.745 819.051 515.745 817.106 Q515.745 815.11 514.321 814.051 Q512.915 812.974 510.276 812.974 Q508.835 812.974 507.186 813.287 Q505.536 813.599 503.557 814.259 L503.557 811.134 Q505.554 810.579 507.29 810.301 Q509.043 810.023 510.588 810.023 Q514.581 810.023 516.908 811.846 Q519.234 813.652 519.234 816.742 Q519.234 818.895 518.002 820.388 Q516.769 821.863 514.495 822.436 Z" fill="#000000" fill-rule="evenodd" fill-opacity="1" /><circle clip-path="url(#clip982)" cx="752.756" cy="145.812" r="14" fill="#0000ff" fill-rule="evenodd" fill-opacity="1" stroke="none"/>
<circle clip-path="url(#clip982)" cx="752.756" cy="544.884" r="14" fill="#0000ff" fill-rule="evenodd" fill-opacity="1" stroke="none"/>
<circle clip-path="url(#clip982)" cx="684.58" cy="594.768" r="14" fill="#0000ff" fill-rule="evenodd" fill-opacity="1" stroke="none"/>
<circle clip-path="url(#clip982)" cx="684.58" cy="395.232" r="14" fill="#0000ff" fill-rule="evenodd" fill-opacity="1" stroke="none"/>
<circle clip-path="url(#clip982)" cx="616.403" cy="445.116" r="14" fill="#0000ff" fill-rule="evenodd" fill-opacity="1" stroke="none"/>
<circle clip-path="url(#clip982)" cx="616.403" cy="245.58" r="14" fill="#0000ff" fill-rule="evenodd" fill-opacity="1" stroke="none"/>
<circle clip-path="url(#clip982)" cx="548.227" cy="295.464" r="14" fill="#0000ff" fill-rule="evenodd" fill-opacity="1" stroke="none"/>
<circle clip-path="url(#clip982)" cx="548.227" cy="95.9282" r="14" fill="#0000ff" fill-rule="evenodd" fill-opacity="1" stroke="none"/>
<circle clip-path="url(#clip982)" cx="480.05" cy="145.812" r="14" fill="#0000ff" fill-rule="evenodd" fill-opacity="1" stroke="none"/>
<circle clip-path="url(#clip982)" cx="480.05" cy="544.884" r="14" fill="#0000ff" fill-rule="evenodd" fill-opacity="1" stroke="none"/>
<circle clip-path="url(#clip982)" cx="752.756" cy="445.116" r="14" fill="#0000ff" fill-rule="evenodd" fill-opacity="1" stroke="none"/>
<circle clip-path="url(#clip982)" cx="752.756" cy="245.58" r="14" fill="#0000ff" fill-rule="evenodd" fill-opacity="1" stroke="none"/>
<circle clip-path="url(#clip982)" cx="684.58" cy="295.464" r="14" fill="#0000ff" fill-rule="evenodd" fill-opacity="1" stroke="none"/>
<circle clip-path="url(#clip982)" cx="684.58" cy="694.536" r="14" fill="#0000ff" fill-rule="evenodd" fill-opacity="1" stroke="none"/>
<circle clip-path="url(#clip982)" cx="616.403" cy="145.812" r="14" fill="#0000ff" fill-rule="evenodd" fill-opacity="1" stroke="none"/>
<circle clip-path="url(#clip982)" cx="616.403" cy="544.884" r="14" fill="#0000ff" fill-rule="evenodd" fill-opacity="1" stroke="none"/>
<circle clip-path="url(#clip982)" cx="548.227" cy="395.232" r="14" fill="#0000ff" fill-rule="evenodd" fill-opacity="1" stroke="none"/>
<circle clip-path="url(#clip982)" cx="480.05" cy="445.116" r="14" fill="#0000ff" fill-rule="evenodd" fill-opacity="1" stroke="none"/>
<circle clip-path="url(#clip982)" cx="480.05" cy="245.58" r="14" fill="#0000ff" fill-rule="evenodd" fill-opacity="1" stroke="none"/>
<path clip-path="url(#clip980)" d="M 0 0 M756.975 135.085 L769.214 135.085 L769.214 138.036 L752.756 138.036 L752.756 135.085 Q754.752 133.019 758.19 129.547 Q761.645 126.057 762.53 125.05 Q764.214 123.158 764.874 121.856 Q765.551 120.536 765.551 119.269 Q765.551 117.203 764.093 115.901 Q762.652 114.599 760.325 114.599 Q758.676 114.599 756.836 115.172 Q755.013 115.745 752.93 116.908 L752.93 113.366 Q755.048 112.515 756.888 112.081 Q758.728 111.647 760.256 111.647 Q764.284 111.647 766.679 113.661 Q769.075 115.675 769.075 119.043 Q769.075 120.64 768.468 122.081 Q767.877 123.505 766.297 125.449 Q765.863 125.953 763.537 128.366 Q761.211 130.762 756.975 135.085 Z" fill="#000000" fill-rule="evenodd" fill-opacity="1" /><path clip-path="url(#clip980)" d="M 0 0 M764.475 523.132 Q766.992 523.671 768.398 525.372 Q769.822 527.073 769.822 529.573 Q769.822 533.41 767.183 535.511 Q764.544 537.611 759.683 537.611 Q758.051 537.611 756.315 537.282 Q754.596 536.969 752.756 536.327 L752.756 532.941 Q754.214 533.792 755.95 534.226 Q757.686 534.66 759.579 534.66 Q762.877 534.66 764.596 533.358 Q766.332 532.056 766.332 529.573 Q766.332 527.282 764.718 525.997 Q763.12 524.695 760.256 524.695 L757.235 524.695 L757.235 521.813 L760.395 521.813 Q762.982 521.813 764.353 520.789 Q765.725 519.747 765.725 517.803 Q765.725 515.806 764.301 514.747 Q762.895 513.671 760.256 513.671 Q758.815 513.671 757.166 513.983 Q755.516 514.296 753.537 514.955 L753.537 511.83 Q755.534 511.275 757.27 510.997 Q759.023 510.719 760.568 510.719 Q764.561 510.719 766.888 512.542 Q769.214 514.348 769.214 517.438 Q769.214 519.591 767.982 521.084 Q766.749 522.559 764.475 523.132 Z" fill="#000000" fill-rule="evenodd" fill-opacity="1" /><path clip-path="url(#clip980)" d="M 0 0 M696.281 564.127 L687.427 577.964 L696.281 577.964 L696.281 564.127 M695.361 561.072 L699.77 561.072 L699.77 577.964 L703.468 577.964 L703.468 580.881 L699.77 580.881 L699.77 586.992 L696.281 586.992 L696.281 580.881 L684.58 580.881 L684.58 577.495 L695.361 561.072 Z" fill="#000000" fill-rule="evenodd" fill-opacity="1" /><path clip-path="url(#clip980)" d="M 0 0 M685.673 361.536 L699.441 361.536 L699.441 364.487 L688.885 364.487 L688.885 370.842 Q689.649 370.581 690.413 370.46 Q691.177 370.321 691.941 370.321 Q696.281 370.321 698.816 372.699 Q701.35 375.078 701.35 379.14 Q701.35 383.324 698.746 385.651 Q696.142 387.96 691.402 387.96 Q689.77 387.96 688.069 387.682 Q686.385 387.404 684.58 386.848 L684.58 383.324 Q686.142 384.175 687.809 384.591 Q689.475 385.008 691.333 385.008 Q694.336 385.008 696.09 383.428 Q697.843 381.848 697.843 379.14 Q697.843 376.432 696.09 374.852 Q694.336 373.272 691.333 373.272 Q689.927 373.272 688.52 373.585 Q687.132 373.897 685.673 374.557 L685.673 361.536 Z" fill="#000000" fill-rule="evenodd" fill-opacity="1" /><path clip-path="url(#clip980)" d="M 0 0 M625.657 422.982 Q623.295 422.982 621.907 424.597 Q620.535 426.212 620.535 429.024 Q620.535 431.819 621.907 433.451 Q623.295 435.066 625.657 435.066 Q628.018 435.066 629.389 433.451 Q630.778 431.819 630.778 429.024 Q630.778 426.212 629.389 424.597 Q628.018 422.982 625.657 422.982 M632.618 411.993 L632.618 415.187 Q631.299 414.562 629.945 414.233 Q628.608 413.903 627.289 413.903 Q623.816 413.903 621.976 416.246 Q620.153 418.59 619.893 423.33 Q620.917 421.819 622.462 421.021 Q624.007 420.205 625.865 420.205 Q629.771 420.205 632.028 422.583 Q634.302 424.944 634.302 429.024 Q634.302 433.017 631.941 435.43 Q629.58 437.843 625.657 437.843 Q621.16 437.843 618.782 434.406 Q616.403 430.951 616.403 424.406 Q616.403 418.26 619.32 414.614 Q622.236 410.951 627.15 410.951 Q628.469 410.951 629.806 411.212 Q631.16 411.472 632.618 411.993 Z" fill="#000000" fill-rule="evenodd" fill-opacity="1" /><path clip-path="url(#clip980)" d="M 0 0 M616.403 211.884 L633.07 211.884 L633.07 213.377 L623.66 237.804 L619.997 237.804 L628.851 214.836 L616.403 214.836 L616.403 211.884 Z" fill="#000000" fill-rule="evenodd" fill-opacity="1" /><path clip-path="url(#clip980)" d="M 0 0 M557.116 275.379 Q554.616 275.379 553.175 276.716 Q551.751 278.053 551.751 280.396 Q551.751 282.74 553.175 284.077 Q554.616 285.414 557.116 285.414 Q559.616 285.414 561.057 284.077 Q562.498 282.723 562.498 280.396 Q562.498 278.053 561.057 276.716 Q559.633 275.379 557.116 275.379 M553.609 273.886 Q551.352 273.331 550.084 271.785 Q548.834 270.24 548.834 268.018 Q548.834 264.91 551.039 263.105 Q553.261 261.299 557.116 261.299 Q560.987 261.299 563.192 263.105 Q565.397 264.91 565.397 268.018 Q565.397 270.24 564.129 271.785 Q562.879 273.331 560.64 273.886 Q563.175 274.476 564.581 276.195 Q566.004 277.914 566.004 280.396 Q566.004 284.164 563.695 286.178 Q561.404 288.192 557.116 288.192 Q552.827 288.192 550.518 286.178 Q548.227 284.164 548.227 280.396 Q548.227 277.914 549.65 276.195 Q551.074 274.476 553.609 273.886 M552.324 268.348 Q552.324 270.362 553.574 271.49 Q554.841 272.619 557.116 272.619 Q559.373 272.619 560.64 271.49 Q561.925 270.362 561.925 268.348 Q561.925 266.334 560.64 265.206 Q559.373 264.077 557.116 264.077 Q554.841 264.077 553.574 265.206 Q552.324 266.334 552.324 268.348 Z" fill="#000000" fill-rule="evenodd" fill-opacity="1" /><path clip-path="url(#clip980)" d="M 0 0 M549.893 87.614 L549.893 84.4196 Q551.213 85.0446 552.567 85.3745 Q553.921 85.7043 555.223 85.7043 Q558.695 85.7043 560.518 83.3779 Q562.359 81.0342 562.619 76.2773 Q561.612 77.7703 560.067 78.5689 Q558.522 79.3675 556.647 79.3675 Q552.758 79.3675 550.484 77.0238 Q548.227 74.6627 548.227 70.5829 Q548.227 66.5898 550.588 64.1767 Q552.949 61.7635 556.873 61.7635 Q561.369 61.7635 563.73 65.2183 Q566.109 68.6558 566.109 75.2183 Q566.109 81.3467 563.192 85.0099 Q560.293 88.6557 555.38 88.6557 Q554.06 88.6557 552.706 88.3953 Q551.352 88.1349 549.893 87.614 M556.873 76.6245 Q559.234 76.6245 560.605 75.0099 Q561.994 73.3954 561.994 70.5829 Q561.994 67.7877 560.605 66.1732 Q559.234 64.5412 556.873 64.5412 Q554.511 64.5412 553.123 66.1732 Q551.751 67.7877 551.751 70.5829 Q551.751 73.3954 553.123 75.0099 Q554.511 76.6245 556.873 76.6245 Z" fill="#000000" fill-rule="evenodd" fill-opacity="1" /><path clip-path="url(#clip980)" d="M 0 0 M480.554 135.085 L486.283 135.085 L486.283 115.311 L480.05 116.561 L480.05 113.366 L486.248 112.116 L489.755 112.116 L489.755 135.085 L495.484 135.085 L495.484 138.036 L480.554 138.036 L480.554 135.085 Z" fill="#000000" fill-rule="evenodd" fill-opacity="1" /><path clip-path="url(#clip980)" d="M 0 0 M510.068 114.425 Q507.359 114.425 505.988 117.099 Q504.634 119.755 504.634 125.102 Q504.634 130.432 505.988 133.106 Q507.359 135.762 510.068 135.762 Q512.793 135.762 514.147 133.106 Q515.519 130.432 515.519 125.102 Q515.519 119.755 514.147 117.099 Q512.793 114.425 510.068 114.425 M510.068 111.647 Q514.425 111.647 516.717 115.102 Q519.026 118.54 519.026 125.102 Q519.026 131.647 516.717 135.102 Q514.425 138.54 510.068 138.54 Q505.71 138.54 503.401 135.102 Q501.109 131.647 501.109 125.102 Q501.109 118.54 503.401 115.102 Q505.71 111.647 510.068 111.647 Z" fill="#000000" fill-rule="evenodd" fill-opacity="1" /><path clip-path="url(#clip980)" d="M 0 0 M480.554 534.157 L486.283 534.157 L486.283 514.382 L480.05 515.632 L480.05 512.438 L486.248 511.188 L489.755 511.188 L489.755 534.157 L495.484 534.157 L495.484 537.108 L480.554 537.108 L480.554 534.157 Z" fill="#000000" fill-rule="evenodd" fill-opacity="1" /><path clip-path="url(#clip980)" d="M 0 0 M503.175 534.157 L508.904 534.157 L508.904 514.382 L502.672 515.632 L502.672 512.438 L508.87 511.188 L512.377 511.188 L512.377 534.157 L518.106 534.157 L518.106 537.108 L503.175 537.108 L503.175 534.157 Z" fill="#000000" fill-rule="evenodd" fill-opacity="1" /><path clip-path="url(#clip980)" d="M 0 0 M753.259 434.389 L758.989 434.389 L758.989 414.614 L752.756 415.864 L752.756 412.67 L758.954 411.42 L762.461 411.42 L762.461 434.389 L768.19 434.389 L768.19 437.34 L753.259 437.34 L753.259 434.389 Z" fill="#000000" fill-rule="evenodd" fill-opacity="1" /><path clip-path="url(#clip980)" d="M 0 0 M784.909 414.476 L776.054 428.312 L784.909 428.312 L784.909 414.476 M783.988 411.42 L788.398 411.42 L788.398 428.312 L792.096 428.312 L792.096 431.229 L788.398 431.229 L788.398 437.34 L784.909 437.34 L784.909 431.229 L773.207 431.229 L773.207 427.844 L783.988 411.42 Z" fill="#000000" fill-rule="evenodd" fill-opacity="1" /><path clip-path="url(#clip980)" d="M 0 0 M753.259 234.853 L758.989 234.853 L758.989 215.079 L752.756 216.329 L752.756 213.134 L758.954 211.884 L762.461 211.884 L762.461 234.853 L768.19 234.853 L768.19 237.804 L753.259 237.804 L753.259 234.853 Z" fill="#000000" fill-rule="evenodd" fill-opacity="1" /><path clip-path="url(#clip980)" d="M 0 0 M775.308 211.884 L789.075 211.884 L789.075 214.836 L778.52 214.836 L778.52 221.19 Q779.284 220.929 780.047 220.808 Q780.811 220.669 781.575 220.669 Q785.915 220.669 788.45 223.047 Q790.985 225.426 790.985 229.488 Q790.985 233.672 788.381 235.999 Q785.777 238.308 781.037 238.308 Q779.405 238.308 777.704 238.03 Q776.02 237.752 774.214 237.197 L774.214 233.672 Q775.777 234.523 777.443 234.94 Q779.11 235.356 780.968 235.356 Q783.971 235.356 785.724 233.776 Q787.478 232.197 787.478 229.488 Q787.478 226.78 785.724 225.2 Q783.971 223.62 780.968 223.62 Q779.561 223.62 778.155 223.933 Q776.766 224.245 775.308 224.905 L775.308 211.884 Z" fill="#000000" fill-rule="evenodd" fill-opacity="1" /><path clip-path="url(#clip980)" d="M 0 0 M685.083 284.737 L690.812 284.737 L690.812 264.963 L684.58 266.213 L684.58 263.018 L690.777 261.768 L694.284 261.768 L694.284 284.737 L700.013 284.737 L700.013 287.688 L685.083 287.688 L685.083 284.737 Z" fill="#000000" fill-rule="evenodd" fill-opacity="1" /><path clip-path="url(#clip980)" d="M 0 0 M715.031 273.331 Q712.67 273.331 711.281 274.945 Q709.909 276.56 709.909 279.372 Q709.909 282.167 711.281 283.799 Q712.67 285.414 715.031 285.414 Q717.392 285.414 718.763 283.799 Q720.152 282.167 720.152 279.372 Q720.152 276.56 718.763 274.945 Q717.392 273.331 715.031 273.331 M721.993 262.341 L721.993 265.535 Q720.673 264.91 719.319 264.581 Q717.982 264.251 716.663 264.251 Q713.19 264.251 711.35 266.594 Q709.527 268.938 709.267 273.678 Q710.291 272.167 711.836 271.369 Q713.381 270.553 715.239 270.553 Q719.145 270.553 721.402 272.931 Q723.677 275.292 723.677 279.372 Q723.677 283.365 721.315 285.778 Q718.954 288.192 715.031 288.192 Q710.534 288.192 708.156 284.754 Q705.777 281.299 705.777 274.754 Q705.777 268.608 708.694 264.963 Q711.611 261.299 716.524 261.299 Q717.843 261.299 719.18 261.56 Q720.534 261.82 721.993 262.341 Z" fill="#000000" fill-rule="evenodd" fill-opacity="1" /><path clip-path="url(#clip980)" d="M 0 0 M685.083 683.809 L690.812 683.809 L690.812 664.034 L684.58 665.284 L684.58 662.09 L690.777 660.84 L694.284 660.84 L694.284 683.809 L700.013 683.809 L700.013 686.76 L685.083 686.76 L685.083 683.809 Z" fill="#000000" fill-rule="evenodd" fill-opacity="1" /><path clip-path="url(#clip980)" d="M 0 0 M706.211 660.84 L722.878 660.84 L722.878 662.333 L713.468 686.76 L709.805 686.76 L718.659 663.791 L706.211 663.791 L706.211 660.84 Z" fill="#000000" fill-rule="evenodd" fill-opacity="1" /><path clip-path="url(#clip980)" d="M 0 0 M616.907 135.085 L622.636 135.085 L622.636 115.311 L616.403 116.561 L616.403 113.366 L622.601 112.116 L626.108 112.116 L626.108 135.085 L631.837 135.085 L631.837 138.036 L616.907 138.036 L616.907 135.085 Z" fill="#000000" fill-rule="evenodd" fill-opacity="1" /><path clip-path="url(#clip980)" d="M 0 0 M646.42 125.727 Q643.92 125.727 642.479 127.064 Q641.056 128.401 641.056 130.745 Q641.056 133.088 642.479 134.425 Q643.92 135.762 646.42 135.762 Q648.92 135.762 650.361 134.425 Q651.802 133.071 651.802 130.745 Q651.802 128.401 650.361 127.064 Q648.938 125.727 646.42 125.727 M642.913 124.234 Q640.656 123.679 639.389 122.134 Q638.139 120.588 638.139 118.366 Q638.139 115.259 640.344 113.453 Q642.566 111.647 646.42 111.647 Q650.292 111.647 652.497 113.453 Q654.702 115.259 654.702 118.366 Q654.702 120.588 653.434 122.134 Q652.184 123.679 649.945 124.234 Q652.479 124.824 653.886 126.543 Q655.309 128.262 655.309 130.745 Q655.309 134.512 653 136.526 Q650.709 138.54 646.42 138.54 Q642.132 138.54 639.823 136.526 Q637.532 134.512 637.532 130.745 Q637.532 128.262 638.955 126.543 Q640.379 124.824 642.913 124.234 M641.629 118.696 Q641.629 120.71 642.879 121.838 Q644.146 122.967 646.42 122.967 Q648.677 122.967 649.945 121.838 Q651.229 120.71 651.229 118.696 Q651.229 116.682 649.945 115.554 Q648.677 114.425 646.42 114.425 Q644.146 114.425 642.879 115.554 Q641.629 116.682 641.629 118.696 Z" fill="#000000" fill-rule="evenodd" fill-opacity="1" /><path clip-path="url(#clip980)" d="M 0 0 M616.907 534.157 L622.636 534.157 L622.636 514.382 L616.403 515.632 L616.403 512.438 L622.601 511.188 L626.108 511.188 L626.108 534.157 L631.837 534.157 L631.837 537.108 L616.907 537.108 L616.907 534.157 Z" fill="#000000" fill-rule="evenodd" fill-opacity="1" /><path clip-path="url(#clip980)" d="M 0 0 M639.025 536.57 L639.025 533.375 Q640.344 534 641.698 534.33 Q643.052 534.66 644.354 534.66 Q647.827 534.66 649.649 532.334 Q651.49 529.99 651.75 525.233 Q650.743 526.726 649.198 527.525 Q647.653 528.323 645.778 528.323 Q641.889 528.323 639.615 525.98 Q637.358 523.618 637.358 519.539 Q637.358 515.546 639.719 513.132 Q642.08 510.719 646.004 510.719 Q650.5 510.719 652.861 514.174 Q655.24 517.612 655.24 524.174 Q655.24 530.302 652.323 533.966 Q649.424 537.611 644.511 537.611 Q643.191 537.611 641.837 537.351 Q640.483 537.091 639.025 536.57 M646.004 525.58 Q648.365 525.58 649.736 523.966 Q651.125 522.351 651.125 519.539 Q651.125 516.743 649.736 515.129 Q648.365 513.497 646.004 513.497 Q643.643 513.497 642.254 515.129 Q640.882 516.743 640.882 519.539 Q640.882 522.351 642.254 523.966 Q643.643 525.58 646.004 525.58 Z" fill="#000000" fill-rule="evenodd" fill-opacity="1" /><path clip-path="url(#clip980)" d="M 0 0 M552.445 384.505 L564.685 384.505 L564.685 387.456 L548.227 387.456 L548.227 384.505 Q550.223 382.439 553.661 378.967 Q557.116 375.477 558.001 374.47 Q559.685 372.578 560.345 371.276 Q561.022 369.956 561.022 368.689 Q561.022 366.623 559.564 365.321 Q558.123 364.019 555.796 364.019 Q554.147 364.019 552.307 364.592 Q550.484 365.165 548.4 366.328 L548.4 362.786 Q550.518 361.935 552.359 361.501 Q554.199 361.067 555.727 361.067 Q559.754 361.067 562.15 363.081 Q564.546 365.095 564.546 368.463 Q564.546 370.06 563.938 371.501 Q563.348 372.925 561.768 374.869 Q561.334 375.373 559.008 377.786 Q556.682 380.182 552.445 384.505 Z" fill="#000000" fill-rule="evenodd" fill-opacity="1" /><path clip-path="url(#clip980)" d="M 0 0 M572.654 384.505 L578.383 384.505 L578.383 364.73 L572.15 365.98 L572.15 362.786 L578.348 361.536 L581.855 361.536 L581.855 384.505 L587.584 384.505 L587.584 387.456 L572.654 387.456 L572.654 384.505 Z" fill="#000000" fill-rule="evenodd" fill-opacity="1" /><path clip-path="url(#clip980)" d="M 0 0 M484.269 434.389 L496.509 434.389 L496.509 437.34 L480.05 437.34 L480.05 434.389 Q482.047 432.323 485.484 428.85 Q488.939 425.361 489.825 424.354 Q491.509 422.462 492.168 421.16 Q492.845 419.84 492.845 418.573 Q492.845 416.507 491.387 415.205 Q489.946 413.903 487.62 413.903 Q485.971 413.903 484.13 414.476 Q482.307 415.048 480.224 416.212 L480.224 412.67 Q482.342 411.819 484.182 411.385 Q486.023 410.951 487.55 410.951 Q491.578 410.951 493.974 412.965 Q496.37 414.979 496.37 418.347 Q496.37 419.944 495.762 421.385 Q495.172 422.809 493.592 424.753 Q493.158 425.257 490.832 427.67 Q488.505 430.066 484.269 434.389 Z" fill="#000000" fill-rule="evenodd" fill-opacity="1" /><path clip-path="url(#clip980)" d="M 0 0 M506.891 434.389 L519.13 434.389 L519.13 437.34 L502.672 437.34 L502.672 434.389 Q504.668 432.323 508.106 428.85 Q511.561 425.361 512.446 424.354 Q514.13 422.462 514.79 421.16 Q515.467 419.84 515.467 418.573 Q515.467 416.507 514.009 415.205 Q512.568 413.903 510.241 413.903 Q508.592 413.903 506.752 414.476 Q504.929 415.048 502.845 416.212 L502.845 412.67 Q504.963 411.819 506.804 411.385 Q508.644 410.951 510.172 410.951 Q514.2 410.951 516.595 412.965 Q518.991 414.979 518.991 418.347 Q518.991 419.944 518.384 421.385 Q517.793 422.809 516.213 424.753 Q515.779 425.257 513.453 427.67 Q511.127 430.066 506.891 434.389 Z" fill="#000000" fill-rule="evenodd" fill-opacity="1" /><path clip-path="url(#clip980)" d="M 0 0 M484.269 234.853 L496.509 234.853 L496.509 237.804 L480.05 237.804 L480.05 234.853 Q482.047 232.787 485.484 229.315 Q488.939 225.825 489.825 224.818 Q491.509 222.926 492.168 221.624 Q492.845 220.304 492.845 219.037 Q492.845 216.971 491.387 215.669 Q489.946 214.367 487.62 214.367 Q485.971 214.367 484.13 214.94 Q482.307 215.513 480.224 216.676 L480.224 213.134 Q482.342 212.283 484.182 211.849 Q486.023 211.415 487.55 211.415 Q491.578 211.415 493.974 213.429 Q496.37 215.443 496.37 218.811 Q496.37 220.408 495.762 221.849 Q495.172 223.273 493.592 225.217 Q493.158 225.721 490.832 228.134 Q488.505 230.53 484.269 234.853 Z" fill="#000000" fill-rule="evenodd" fill-opacity="1" /><path clip-path="url(#clip980)" d="M 0 0 M514.495 223.829 Q517.012 224.367 518.418 226.068 Q519.842 227.769 519.842 230.269 Q519.842 234.106 517.203 236.207 Q514.564 238.308 509.703 238.308 Q508.071 238.308 506.335 237.978 Q504.616 237.665 502.776 237.023 L502.776 233.637 Q504.234 234.488 505.97 234.922 Q507.706 235.356 509.599 235.356 Q512.897 235.356 514.616 234.054 Q516.352 232.752 516.352 230.269 Q516.352 227.978 514.738 226.693 Q513.14 225.391 510.276 225.391 L507.255 225.391 L507.255 222.509 L510.415 222.509 Q513.002 222.509 514.373 221.485 Q515.745 220.443 515.745 218.499 Q515.745 216.502 514.321 215.443 Q512.915 214.367 510.276 214.367 Q508.835 214.367 507.186 214.679 Q505.536 214.992 503.557 215.651 L503.557 212.526 Q505.554 211.971 507.29 211.693 Q509.043 211.415 510.588 211.415 Q514.581 211.415 516.908 213.238 Q519.234 215.044 519.234 218.134 Q519.234 220.287 518.002 221.78 Q516.769 223.256 514.495 223.829 Z" fill="#000000" fill-rule="evenodd" fill-opacity="1" /><circle clip-path="url(#clip982)" cx="684.58" cy="95.9282" r="14" fill="#0000ff" fill-rule="evenodd" fill-opacity="1" stroke="none"/>
<path clip-path="url(#clip980)" d="M 0 0 M685.083 85.2008 L690.812 85.2008 L690.812 65.4266 L684.58 66.6766 L684.58 63.4822 L690.777 62.2322 L694.284 62.2322 L694.284 85.2008 L700.013 85.2008 L700.013 88.1522 L685.083 88.1522 L685.083 85.2008 Z" fill="#000000" fill-rule="evenodd" fill-opacity="1" /><path clip-path="url(#clip980)" d="M 0 0 M706.211 62.2322 L722.878 62.2322 L722.878 63.7253 L713.468 88.1522 L709.805 88.1522 L718.659 65.1836 L706.211 65.1836 L706.211 62.2322 Z" fill="#000000" fill-rule="evenodd" fill-opacity="1" /></svg>
