<?xml version="1.0" encoding="utf-8"?>
<svg xmlns="http://www.w3.org/2000/svg" xmlns:xlink="http://www.w3.org/1999/xlink" width="200" height="250" viewBox="0 0 800 1000">
<defs>
  <clipPath id="clip500">
    <rect x="0" y="0" width="800" height="1000"/>
  </clipPath>
</defs>
<path clip-path="url(#clip500)" d="
M0 1000 L800 1000 L800 0 L0 0  Z
  " fill="#ffffff" fill-rule="evenodd" fill-opacity="1"/>
<defs>
  <clipPath id="clip501">
    <rect x="200" y="100" width="701" height="701"/>
  </clipPath>
</defs>
<path clip-path="url(#clip500)" d="
M70.9921 927.008 L752.756 927.008 L752.756 62.9921 L70.9921 62.9921  Z
  " fill="#ffffff" fill-rule="evenodd" fill-opacity="1"/>
<defs>
  <clipPath id="clip502">
    <rect x="70" y="62" width="683" height="865"/>
  </clipPath>
</defs>
<polyline clip-path="url(#clip500)" style="stroke:#000000; stroke-width:4; stroke-opacity:1; fill:none" points="
  70.9921,927.008 752.756,927.008 
  "/>
<polyline clip-path="url(#clip500)" style="stroke:#000000; stroke-width:4; stroke-opacity:1; fill:none" points="
  139.169,927.008 139.169,916.64 
  "/>
<polyline clip-path="url(#clip500)" style="stroke:#000000; stroke-width:4; stroke-opacity:1; fill:none" points="
  275.521,927.008 275.521,916.64 
  "/>
<polyline clip-path="url(#clip500)" style="stroke:#000000; stroke-width:4; stroke-opacity:1; fill:none" points="
  411.874,927.008 411.874,916.64 
  "/>
<polyline clip-path="url(#clip500)" style="stroke:#000000; stroke-width:4; stroke-opacity:1; fill:none" points="
  548.227,927.008 548.227,916.64 
  "/>
<polyline clip-path="url(#clip500)" style="stroke:#000000; stroke-width:4; stroke-opacity:1; fill:none" points="
  684.58,927.008 684.58,916.64 
  "/>
<path clip-path="url(#clip500)" d="M 0 0 M109.111 959.651 L138.787 959.651 L138.787 963.586 L109.111 963.586 L109.111 959.651 Z" fill="#000000" fill-rule="evenodd" fill-opacity="1" /><path clip-path="url(#clip500)" d="M 0 0 M152.907 972.545 L169.226 972.545 L169.226 976.48 L147.282 976.48 L147.282 972.545 Q149.944 969.79 154.527 965.16 Q159.134 960.508 160.314 959.165 Q162.56 956.642 163.439 954.906 Q164.342 953.147 164.342 951.457 Q164.342 948.702 162.398 946.966 Q160.476 945.23 157.374 945.23 Q155.175 945.23 152.722 945.994 Q150.291 946.758 147.513 948.309 L147.513 943.587 Q150.337 942.452 152.791 941.874 Q155.245 941.295 157.282 941.295 Q162.652 941.295 165.847 943.98 Q169.041 946.665 169.041 951.156 Q169.041 953.286 168.231 955.207 Q167.444 957.105 165.337 959.698 Q164.759 960.369 161.657 963.586 Q158.555 966.781 152.907 972.545 Z" fill="#000000" fill-rule="evenodd" fill-opacity="1" /><path clip-path="url(#clip500)" d="M 0 0 M245.278 959.651 L274.954 959.651 L274.954 963.586 L245.278 963.586 L245.278 959.651 Z" fill="#000000" fill-rule="evenodd" fill-opacity="1" /><path clip-path="url(#clip500)" d="M 0 0 M285.857 972.545 L293.496 972.545 L293.496 946.179 L285.186 947.846 L285.186 943.587 L293.449 941.92 L298.125 941.92 L298.125 972.545 L305.764 972.545 L305.764 976.48 L285.857 976.48 L285.857 972.545 Z" fill="#000000" fill-rule="evenodd" fill-opacity="1" /><path clip-path="url(#clip500)" d="M 0 0 M411.874 944.999 Q408.263 944.999 406.434 948.563 Q404.629 952.105 404.629 959.235 Q404.629 966.341 406.434 969.906 Q408.263 973.447 411.874 973.447 Q415.508 973.447 417.314 969.906 Q419.142 966.341 419.142 959.235 Q419.142 952.105 417.314 948.563 Q415.508 944.999 411.874 944.999 M411.874 941.295 Q417.684 941.295 420.74 945.901 Q423.818 950.485 423.818 959.235 Q423.818 967.961 420.74 972.568 Q417.684 977.151 411.874 977.151 Q406.064 977.151 402.985 972.568 Q399.93 967.961 399.93 959.235 Q399.93 950.485 402.985 945.901 Q406.064 941.295 411.874 941.295 Z" fill="#000000" fill-rule="evenodd" fill-opacity="1" /><path clip-path="url(#clip500)" d="M 0 0 M538.609 972.545 L546.248 972.545 L546.248 946.179 L537.937 947.846 L537.937 943.587 L546.201 941.92 L550.877 941.92 L550.877 972.545 L558.516 972.545 L558.516 976.48 L538.609 976.48 L538.609 972.545 Z" fill="#000000" fill-rule="evenodd" fill-opacity="1" /><path clip-path="url(#clip500)" d="M 0 0 M679.232 972.545 L695.552 972.545 L695.552 976.48 L673.607 976.48 L673.607 972.545 Q676.269 969.79 680.853 965.16 Q685.459 960.508 686.64 959.165 Q688.885 956.642 689.765 954.906 Q690.667 953.147 690.667 951.457 Q690.667 948.702 688.723 946.966 Q686.802 945.23 683.7 945.23 Q681.501 945.23 679.047 945.994 Q676.617 946.758 673.839 948.309 L673.839 943.587 Q676.663 942.452 679.117 941.874 Q681.57 941.295 683.607 941.295 Q688.978 941.295 692.172 943.98 Q695.367 946.665 695.367 951.156 Q695.367 953.286 694.556 955.207 Q693.769 957.105 691.663 959.698 Q691.084 960.369 687.982 963.586 Q684.88 966.781 679.232 972.545 Z" fill="#000000" fill-rule="evenodd" fill-opacity="1" /><polyline clip-path="url(#clip500)" style="stroke:#000000; stroke-width:4; stroke-opacity:1; fill:none" points="
  70.9921,927.008 70.9921,62.9921 
  "/>
<polyline clip-path="url(#clip500)" style="stroke:#000000; stroke-width:4; stroke-opacity:1; fill:none" points="
  70.9921,840.606 79.1733,840.606 
  "/>
<polyline clip-path="url(#clip500)" style="stroke:#000000; stroke-width:4; stroke-opacity:1; fill:none" points="
  70.9921,667.803 79.1733,667.803 
  "/>
<polyline clip-path="url(#clip500)" style="stroke:#000000; stroke-width:4; stroke-opacity:1; fill:none" points="
  70.9921,495 79.1733,495 
  "/>
<polyline clip-path="url(#clip500)" style="stroke:#000000; stroke-width:4; stroke-opacity:1; fill:none" points="
  70.9921,322.197 79.1733,322.197 
  "/>
<polyline clip-path="url(#clip500)" style="stroke:#000000; stroke-width:4; stroke-opacity:1; fill:none" points="
  70.9921,149.394 79.1733,149.394 
  "/>
<path clip-path="url(#clip500)" d="M 0 0 M-4.12329 841.058 L25.5525 841.058 L25.5525 844.993 L-4.12329 844.993 L-4.12329 841.058 Z" fill="#000000" fill-rule="evenodd" fill-opacity="1" /><path clip-path="url(#clip500)" d="M 0 0 M39.6728 853.951 L55.9921 853.951 L55.9921 857.886 L34.0478 857.886 L34.0478 853.951 Q36.7098 851.197 41.2931 846.567 Q45.8996 841.914 47.0801 840.572 Q49.3255 838.048 50.2051 836.312 Q51.1079 834.553 51.1079 832.863 Q51.1079 830.109 49.1635 828.373 Q47.2422 826.636 44.1403 826.636 Q41.9413 826.636 39.4876 827.4 Q37.057 828.164 34.2793 829.715 L34.2793 824.993 Q37.1033 823.859 39.557 823.28 Q42.0107 822.701 44.0477 822.701 Q49.4181 822.701 52.6125 825.386 Q55.8069 828.072 55.8069 832.562 Q55.8069 834.692 54.9968 836.613 Q54.2097 838.511 52.1033 841.104 Q51.5246 841.775 48.4227 844.993 Q45.3209 848.187 39.6728 853.951 Z" fill="#000000" fill-rule="evenodd" fill-opacity="1" /><path clip-path="url(#clip500)" d="M 0 0 M-4.49366 668.255 L25.1821 668.255 L25.1821 672.19 L-4.49366 672.19 L-4.49366 668.255 Z" fill="#000000" fill-rule="evenodd" fill-opacity="1" /><path clip-path="url(#clip500)" d="M 0 0 M36.0848 681.148 L43.7237 681.148 L43.7237 654.782 L35.4135 656.449 L35.4135 652.19 L43.6774 650.523 L48.3533 650.523 L48.3533 681.148 L55.9921 681.148 L55.9921 685.083 L36.0848 685.083 L36.0848 681.148 Z" fill="#000000" fill-rule="evenodd" fill-opacity="1" /><path clip-path="url(#clip500)" d="M 0 0 M44.0477 480.799 Q40.4367 480.799 38.608 484.363 Q36.8024 487.905 36.8024 495.035 Q36.8024 502.141 38.608 505.706 Q40.4367 509.248 44.0477 509.248 Q47.682 509.248 49.4875 505.706 Q51.3162 502.141 51.3162 495.035 Q51.3162 487.905 49.4875 484.363 Q47.682 480.799 44.0477 480.799 M44.0477 477.095 Q49.8579 477.095 52.9134 481.701 Q55.9921 486.285 55.9921 495.035 Q55.9921 503.762 52.9134 508.368 Q49.8579 512.951 44.0477 512.951 Q38.2376 512.951 35.1589 508.368 Q32.1034 503.762 32.1034 495.035 Q32.1034 486.285 35.1589 481.701 Q38.2376 477.095 44.0477 477.095 Z" fill="#000000" fill-rule="evenodd" fill-opacity="1" /><path clip-path="url(#clip500)" d="M 0 0 M36.0848 335.542 L43.7237 335.542 L43.7237 309.176 L35.4135 310.843 L35.4135 306.584 L43.6774 304.917 L48.3533 304.917 L48.3533 335.542 L55.9921 335.542 L55.9921 339.477 L36.0848 339.477 L36.0848 335.542 Z" fill="#000000" fill-rule="evenodd" fill-opacity="1" /><path clip-path="url(#clip500)" d="M 0 0 M39.6728 162.739 L55.9921 162.739 L55.9921 166.674 L34.0478 166.674 L34.0478 162.739 Q36.7098 159.984 41.2931 155.354 Q45.8996 150.702 47.0801 149.359 Q49.3255 146.836 50.2051 145.1 Q51.1079 143.34 51.1079 141.651 Q51.1079 138.896 49.1635 137.16 Q47.2422 135.424 44.1403 135.424 Q41.9413 135.424 39.4876 136.188 Q37.057 136.952 34.2793 138.503 L34.2793 133.78 Q37.1033 132.646 39.557 132.067 Q42.0107 131.489 44.0477 131.489 Q49.4181 131.489 52.6125 134.174 Q55.8069 136.859 55.8069 141.35 Q55.8069 143.479 54.9968 145.401 Q54.2097 147.299 52.1033 149.891 Q51.5246 150.563 48.4227 153.78 Q45.3209 156.975 39.6728 162.739 Z" fill="#000000" fill-rule="evenodd" fill-opacity="1" /><path clip-path="url(#clip500)" d="M 0 0 M352.222 5.45367 L362.036 5.45367 L362.036 8.76384 L356.481 8.76384 L356.481 44.4118 L362.036 44.4118 L362.036 47.722 L352.222 47.722 L352.222 5.45367 Z" fill="#000000" fill-rule="evenodd" fill-opacity="1" /><path clip-path="url(#clip500)" d="M 0 0 M385.879 22.8378 Q389.235 23.5554 391.11 25.8239 Q393.008 28.0924 393.008 31.4258 Q393.008 36.5415 389.49 39.3424 Q385.971 42.1433 379.49 42.1433 Q377.314 42.1433 374.999 41.7035 Q372.708 41.2868 370.254 40.4303 L370.254 35.9165 Q372.198 37.0507 374.513 37.6294 Q376.828 38.2081 379.351 38.2081 Q383.749 38.2081 386.041 36.472 Q388.356 34.7359 388.356 31.4258 Q388.356 28.3702 386.203 26.6573 Q384.073 24.9212 380.254 24.9212 L376.226 24.9212 L376.226 21.0786 L380.439 21.0786 Q383.888 21.0786 385.717 19.7129 Q387.545 18.324 387.545 15.7314 Q387.545 13.0694 385.647 11.6573 Q383.772 10.2222 380.254 10.2222 Q378.333 10.2222 376.133 10.6388 Q373.934 11.0555 371.296 11.9351 L371.296 7.76848 Q373.958 7.02774 376.272 6.65737 Q378.61 6.287 380.67 6.287 Q385.995 6.287 389.096 8.71755 Q392.198 11.1249 392.198 15.2453 Q392.198 18.1156 390.555 20.1064 Q388.911 22.074 385.879 22.8378 Z" fill="#000000" fill-rule="evenodd" fill-opacity="1" /><path clip-path="url(#clip500)" d="M 0 0 M402.36 35.5924 L407.244 35.5924 L407.244 39.5739 L403.448 46.9812 L400.462 46.9812 L402.36 39.5739 L402.36 35.5924 Z" fill="#000000" fill-rule="evenodd" fill-opacity="1" /><path clip-path="url(#clip500)" d="M 0 0 M436.041 37.5368 L452.36 37.5368 L452.36 41.472 L430.416 41.472 L430.416 37.5368 Q433.078 34.7822 437.661 30.1526 Q442.267 25.4999 443.448 24.1573 Q445.693 21.6341 446.573 19.898 Q447.476 18.1388 447.476 16.449 Q447.476 13.6944 445.531 11.9583 Q443.61 10.2222 440.508 10.2222 Q438.309 10.2222 435.855 10.9861 Q433.425 11.7499 430.647 13.3009 L430.647 8.57866 Q433.471 7.4444 435.925 6.8657 Q438.379 6.287 440.416 6.287 Q445.786 6.287 448.98 8.97217 Q452.175 11.6573 452.175 16.1481 Q452.175 18.2777 451.365 20.199 Q450.578 22.0971 448.471 24.6897 Q447.892 25.361 444.791 28.5786 Q441.689 31.773 436.041 37.5368 Z" fill="#000000" fill-rule="evenodd" fill-opacity="1" /><path clip-path="url(#clip500)" d="M 0 0 M471.526 5.45367 L471.526 47.722 L461.712 47.722 L461.712 44.4118 L467.244 44.4118 L467.244 8.76384 L461.712 8.76384 L461.712 5.45367 L471.526 5.45367 Z" fill="#000000" fill-rule="evenodd" fill-opacity="1" /><circle clip-path="url(#clip502)" cx="139.169" cy="894.072" r="14" fill="#0000ff" fill-rule="evenodd" fill-opacity="1" stroke="none"/>
<path clip-path="url(#clip500)" d="M 0 0 M139.672 883.344 L145.401 883.344 L145.401 863.57 L139.169 864.82 L139.169 861.626 L145.366 860.376 L148.873 860.376 L148.873 883.344 L154.602 883.344 L154.602 886.296 L139.672 886.296 L139.672 883.344 Z" fill="#000000" fill-rule="evenodd" fill-opacity="1" /><path clip-path="url(#clip500)" d="M 0 0 M161.79 885.758 L161.79 882.563 Q163.109 883.188 164.464 883.518 Q165.818 883.848 167.12 883.848 Q170.592 883.848 172.415 881.521 Q174.255 879.178 174.516 874.421 Q173.509 875.914 171.963 876.712 Q170.418 877.511 168.543 877.511 Q164.654 877.511 162.38 875.167 Q160.123 872.806 160.123 868.726 Q160.123 864.733 162.484 862.32 Q164.845 859.907 168.769 859.907 Q173.266 859.907 175.627 863.362 Q178.005 866.799 178.005 873.362 Q178.005 879.49 175.088 883.153 Q172.189 886.799 167.276 886.799 Q165.957 886.799 164.602 886.539 Q163.248 886.278 161.79 885.758 M168.769 874.768 Q171.13 874.768 172.502 873.153 Q173.891 871.539 173.891 868.726 Q173.891 865.931 172.502 864.317 Q171.13 862.685 168.769 862.685 Q166.408 862.685 165.019 864.317 Q163.648 865.931 163.648 868.726 Q163.648 871.539 165.019 873.153 Q166.408 874.768 168.769 874.768 Z" fill="#000000" fill-rule="evenodd" fill-opacity="1" /><circle clip-path="url(#clip502)" cx="343.698" cy="445.116" r="14" fill="#0000ff" fill-rule="evenodd" fill-opacity="1" stroke="none"/>
<circle clip-path="url(#clip502)" cx="343.698" cy="544.884" r="14" fill="#0000ff" fill-rule="evenodd" fill-opacity="1" stroke="none"/>
<circle clip-path="url(#clip502)" cx="70.9921" cy="744.42" r="14" fill="#0000ff" fill-rule="evenodd" fill-opacity="1" stroke="none"/>
<circle clip-path="url(#clip502)" cx="70.9921" cy="844.188" r="14" fill="#0000ff" fill-rule="evenodd" fill-opacity="1" stroke="none"/>
<circle clip-path="url(#clip502)" cx="207.345" cy="744.42" r="14" fill="#0000ff" fill-rule="evenodd" fill-opacity="1" stroke="none"/>
<circle clip-path="url(#clip502)" cx="207.345" cy="844.188" r="14" fill="#0000ff" fill-rule="evenodd" fill-opacity="1" stroke="none"/>
<circle clip-path="url(#clip502)" cx="343.698" cy="744.42" r="14" fill="#0000ff" fill-rule="evenodd" fill-opacity="1" stroke="none"/>
<circle clip-path="url(#clip502)" cx="343.698" cy="844.188" r="14" fill="#0000ff" fill-rule="evenodd" fill-opacity="1" stroke="none"/>
<circle clip-path="url(#clip502)" cx="70.9921" cy="445.116" r="14" fill="#0000ff" fill-rule="evenodd" fill-opacity="1" stroke="none"/>
<circle clip-path="url(#clip502)" cx="70.9921" cy="544.884" r="14" fill="#0000ff" fill-rule="evenodd" fill-opacity="1" stroke="none"/>
<circle clip-path="url(#clip502)" cx="207.345" cy="445.116" r="14" fill="#0000ff" fill-rule="evenodd" fill-opacity="1" stroke="none"/>
<circle clip-path="url(#clip502)" cx="207.345" cy="544.884" r="14" fill="#0000ff" fill-rule="evenodd" fill-opacity="1" stroke="none"/>
<circle clip-path="url(#clip502)" cx="139.169" cy="594.768" r="14" fill="#0000ff" fill-rule="evenodd" fill-opacity="1" stroke="none"/>
<circle clip-path="url(#clip502)" cx="139.169" cy="694.536" r="14" fill="#0000ff" fill-rule="evenodd" fill-opacity="1" stroke="none"/>
<circle clip-path="url(#clip502)" cx="275.521" cy="594.768" r="14" fill="#0000ff" fill-rule="evenodd" fill-opacity="1" stroke="none"/>
<circle clip-path="url(#clip502)" cx="275.521" cy="694.536" r="14" fill="#0000ff" fill-rule="evenodd" fill-opacity="1" stroke="none"/>
<circle clip-path="url(#clip502)" cx="411.874" cy="594.768" r="14" fill="#0000ff" fill-rule="evenodd" fill-opacity="1" stroke="none"/>
<circle clip-path="url(#clip502)" cx="411.874" cy="694.536" r="14" fill="#0000ff" fill-rule="evenodd" fill-opacity="1" stroke="none"/>
<circle clip-path="url(#clip502)" cx="139.169" cy="295.464" r="14" fill="#0000ff" fill-rule="evenodd" fill-opacity="1" stroke="none"/>
<circle clip-path="url(#clip502)" cx="139.169" cy="395.232" r="14" fill="#0000ff" fill-rule="evenodd" fill-opacity="1" stroke="none"/>
<circle clip-path="url(#clip502)" cx="275.521" cy="894.072" r="14" fill="#0000ff" fill-rule="evenodd" fill-opacity="1" stroke="none"/>
<circle clip-path="url(#clip502)" cx="411.874" cy="894.072" r="14" fill="#0000ff" fill-rule="evenodd" fill-opacity="1" stroke="none"/>
<path clip-path="url(#clip500)" d="M 0 0 M344.201 434.389 L349.93 434.389 L349.93 414.614 L343.698 415.864 L343.698 412.67 L349.896 411.42 L353.402 411.42 L353.402 434.389 L359.132 434.389 L359.132 437.34 L344.201 437.34 L344.201 434.389 Z" fill="#000000" fill-rule="evenodd" fill-opacity="1" /><path clip-path="url(#clip500)" d="M 0 0 M347.916 534.157 L360.156 534.157 L360.156 537.108 L343.698 537.108 L343.698 534.157 Q345.694 532.091 349.132 528.618 Q352.586 525.129 353.472 524.122 Q355.156 522.23 355.816 520.928 Q356.493 519.608 356.493 518.341 Q356.493 516.275 355.034 514.973 Q353.593 513.671 351.267 513.671 Q349.618 513.671 347.777 514.244 Q345.955 514.816 343.871 515.98 L343.871 512.438 Q345.989 511.587 347.83 511.153 Q349.67 510.719 351.198 510.719 Q355.225 510.719 357.621 512.733 Q360.017 514.747 360.017 518.115 Q360.017 519.712 359.409 521.153 Q358.819 522.577 357.239 524.521 Q356.805 525.025 354.479 527.438 Q352.152 529.834 347.916 534.157 Z" fill="#000000" fill-rule="evenodd" fill-opacity="1" /><path clip-path="url(#clip500)" d="M 0 0 M82.7108 722.668 Q85.2282 723.206 86.6344 724.908 Q88.058 726.609 88.058 729.109 Q88.058 732.946 85.4191 735.047 Q82.7803 737.147 77.9192 737.147 Q76.2872 737.147 74.5511 736.817 Q72.8324 736.505 70.9921 735.863 L70.9921 732.477 Q72.4505 733.328 74.1866 733.762 Q75.9227 734.196 77.815 734.196 Q81.1136 734.196 82.8323 732.894 Q84.5684 731.592 84.5684 729.109 Q84.5684 726.818 82.9539 725.533 Q81.3567 724.231 78.4921 724.231 L75.4713 724.231 L75.4713 721.349 L78.631 721.349 Q81.2178 721.349 82.5893 720.325 Q83.9608 719.283 83.9608 717.338 Q83.9608 715.342 82.5372 714.283 Q81.131 713.206 78.4921 713.206 Q77.0511 713.206 75.4018 713.519 Q73.7525 713.831 71.7734 714.491 L71.7734 711.366 Q73.7699 710.811 75.506 710.533 Q77.2595 710.255 78.8046 710.255 Q82.7976 710.255 85.124 712.078 Q87.4504 713.884 87.4504 716.974 Q87.4504 719.127 86.2177 720.62 Q84.9851 722.095 82.7108 722.668 Z" fill="#000000" fill-rule="evenodd" fill-opacity="1" /><path clip-path="url(#clip500)" d="M 0 0 M82.6935 813.547 L73.8393 827.384 L82.6935 827.384 L82.6935 813.547 M81.7733 810.492 L86.183 810.492 L86.183 827.384 L89.8809 827.384 L89.8809 830.301 L86.183 830.301 L86.183 836.412 L82.6935 836.412 L82.6935 830.301 L70.9921 830.301 L70.9921 826.915 L81.7733 810.492 Z" fill="#000000" fill-rule="evenodd" fill-opacity="1" /><path clip-path="url(#clip500)" d="M 0 0 M208.439 710.724 L222.206 710.724 L222.206 713.675 L211.65 713.675 L211.65 720.029 Q212.414 719.769 213.178 719.647 Q213.942 719.509 214.706 719.509 Q219.046 719.509 221.581 721.887 Q224.116 724.265 224.116 728.328 Q224.116 732.512 221.511 734.838 Q218.907 737.147 214.168 737.147 Q212.536 737.147 210.834 736.87 Q209.15 736.592 207.345 736.036 L207.345 732.512 Q208.907 733.363 210.574 733.779 Q212.241 734.196 214.098 734.196 Q217.102 734.196 218.855 732.616 Q220.609 731.036 220.609 728.328 Q220.609 725.62 218.855 724.04 Q217.102 722.46 214.098 722.46 Q212.692 722.46 211.286 722.772 Q209.897 723.085 208.439 723.745 L208.439 710.724 Z" fill="#000000" fill-rule="evenodd" fill-opacity="1" /><path clip-path="url(#clip500)" d="M 0 0 M216.598 822.054 Q214.237 822.054 212.848 823.669 Q211.477 825.283 211.477 828.096 Q211.477 830.891 212.848 832.523 Q214.237 834.138 216.598 834.138 Q218.959 834.138 220.331 832.523 Q221.72 830.891 221.72 828.096 Q221.72 825.283 220.331 823.669 Q218.959 822.054 216.598 822.054 M223.56 811.065 L223.56 814.259 Q222.241 813.634 220.886 813.304 Q219.55 812.974 218.23 812.974 Q214.758 812.974 212.918 815.318 Q211.095 817.662 210.834 822.401 Q211.859 820.891 213.404 820.092 Q214.949 819.276 216.807 819.276 Q220.713 819.276 222.97 821.655 Q225.244 824.016 225.244 828.096 Q225.244 832.089 222.883 834.502 Q220.522 836.915 216.598 836.915 Q212.102 836.915 209.723 833.478 Q207.345 830.023 207.345 823.478 Q207.345 817.332 210.262 813.686 Q213.178 810.023 218.091 810.023 Q219.411 810.023 220.748 810.283 Q222.102 810.544 223.56 811.065 Z" fill="#000000" fill-rule="evenodd" fill-opacity="1" /><path clip-path="url(#clip500)" d="M 0 0 M343.698 710.724 L360.364 710.724 L360.364 712.217 L350.955 736.644 L347.291 736.644 L356.145 713.675 L343.698 713.675 L343.698 710.724 Z" fill="#000000" fill-rule="evenodd" fill-opacity="1" /><path clip-path="url(#clip500)" d="M 0 0 M352.586 824.103 Q350.086 824.103 348.646 825.44 Q347.222 826.776 347.222 829.12 Q347.222 831.464 348.646 832.801 Q350.086 834.138 352.586 834.138 Q355.086 834.138 356.527 832.801 Q357.968 831.447 357.968 829.12 Q357.968 826.776 356.527 825.44 Q355.104 824.103 352.586 824.103 M349.08 822.61 Q346.823 822.054 345.555 820.509 Q344.305 818.964 344.305 816.742 Q344.305 813.634 346.51 811.829 Q348.732 810.023 352.586 810.023 Q356.458 810.023 358.663 811.829 Q360.868 813.634 360.868 816.742 Q360.868 818.964 359.6 820.509 Q358.35 822.054 356.111 822.61 Q358.645 823.2 360.052 824.919 Q361.475 826.638 361.475 829.12 Q361.475 832.888 359.166 834.901 Q356.875 836.915 352.586 836.915 Q348.298 836.915 345.989 834.901 Q343.698 832.888 343.698 829.12 Q343.698 826.638 345.121 824.919 Q346.545 823.2 349.08 822.61 M347.795 817.072 Q347.795 819.086 349.045 820.214 Q350.312 821.342 352.586 821.342 Q354.843 821.342 356.111 820.214 Q357.395 819.086 357.395 817.072 Q357.395 815.058 356.111 813.929 Q354.843 812.801 352.586 812.801 Q350.312 812.801 349.045 813.929 Q347.795 815.058 347.795 817.072 Z" fill="#000000" fill-rule="evenodd" fill-opacity="1" /><path clip-path="url(#clip500)" d="M 0 0 M72.6588 436.802 L72.6588 433.607 Q73.9782 434.232 75.3324 434.562 Q76.6865 434.892 77.9886 434.892 Q81.4608 434.892 83.2837 432.566 Q85.124 430.222 85.3844 425.465 Q84.3775 426.958 82.8323 427.757 Q81.2872 428.555 79.4122 428.555 Q75.5234 428.555 73.2491 426.212 Q70.9921 423.851 70.9921 419.771 Q70.9921 415.778 73.3532 413.364 Q75.7143 410.951 79.6379 410.951 Q84.1344 410.951 86.4955 414.406 Q88.874 417.844 88.874 424.406 Q88.874 430.535 85.9573 434.198 Q83.058 437.843 78.1449 437.843 Q76.8254 437.843 75.4713 437.583 Q74.1171 437.323 72.6588 436.802 M79.6379 425.812 Q81.999 425.812 83.3705 424.198 Q84.7594 422.583 84.7594 419.771 Q84.7594 416.976 83.3705 415.361 Q81.999 413.729 79.6379 413.729 Q77.2768 413.729 75.8879 415.361 Q74.5164 416.976 74.5164 419.771 Q74.5164 422.583 75.8879 424.198 Q77.2768 425.812 79.6379 425.812 Z" fill="#000000" fill-rule="evenodd" fill-opacity="1" /><path clip-path="url(#clip500)" d="M 0 0 M71.4956 534.157 L77.2247 534.157 L77.2247 514.382 L70.9921 515.632 L70.9921 512.438 L77.19 511.188 L80.6969 511.188 L80.6969 534.157 L86.4261 534.157 L86.4261 537.108 L71.4956 537.108 L71.4956 534.157 Z" fill="#000000" fill-rule="evenodd" fill-opacity="1" /><path clip-path="url(#clip500)" d="M 0 0 M101.009 513.497 Q98.301 513.497 96.9295 516.171 Q95.5753 518.827 95.5753 524.174 Q95.5753 529.504 96.9295 532.177 Q98.301 534.834 101.009 534.834 Q103.735 534.834 105.089 532.177 Q106.461 529.504 106.461 524.174 Q106.461 518.827 105.089 516.171 Q103.735 513.497 101.009 513.497 M101.009 510.719 Q105.367 510.719 107.659 514.174 Q109.968 517.612 109.968 524.174 Q109.968 530.719 107.659 534.174 Q105.367 537.611 101.009 537.611 Q96.6517 537.611 94.3427 534.174 Q92.051 530.719 92.051 524.174 Q92.051 517.612 94.3427 514.174 Q96.6517 510.719 101.009 510.719 Z" fill="#000000" fill-rule="evenodd" fill-opacity="1" /><path clip-path="url(#clip500)" d="M 0 0 M207.848 434.389 L213.577 434.389 L213.577 414.614 L207.345 415.864 L207.345 412.67 L213.543 411.42 L217.05 411.42 L217.05 434.389 L222.779 434.389 L222.779 437.34 L207.848 437.34 L207.848 434.389 Z" fill="#000000" fill-rule="evenodd" fill-opacity="1" /><path clip-path="url(#clip500)" d="M 0 0 M230.47 434.389 L236.199 434.389 L236.199 414.614 L229.966 415.864 L229.966 412.67 L236.164 411.42 L239.671 411.42 L239.671 434.389 L245.4 434.389 L245.4 437.34 L230.47 437.34 L230.47 434.389 Z" fill="#000000" fill-rule="evenodd" fill-opacity="1" /><path clip-path="url(#clip500)" d="M 0 0 M207.848 534.157 L213.577 534.157 L213.577 514.382 L207.345 515.632 L207.345 512.438 L213.543 511.188 L217.05 511.188 L217.05 534.157 L222.779 534.157 L222.779 537.108 L207.848 537.108 L207.848 534.157 Z" fill="#000000" fill-rule="evenodd" fill-opacity="1" /><path clip-path="url(#clip500)" d="M 0 0 M232.883 534.157 L245.122 534.157 L245.122 537.108 L228.664 537.108 L228.664 534.157 Q230.661 532.091 234.098 528.618 Q237.553 525.129 238.438 524.122 Q240.122 522.23 240.782 520.928 Q241.459 519.608 241.459 518.341 Q241.459 516.275 240.001 514.973 Q238.56 513.671 236.234 513.671 Q234.584 513.671 232.744 514.244 Q230.921 514.816 228.838 515.98 L228.838 512.438 Q230.956 511.587 232.796 511.153 Q234.636 510.719 236.164 510.719 Q240.192 510.719 242.588 512.733 Q244.984 514.747 244.984 518.115 Q244.984 519.712 244.376 521.153 Q243.786 522.577 242.206 524.521 Q241.772 525.025 239.445 527.438 Q237.119 529.834 232.883 534.157 Z" fill="#000000" fill-rule="evenodd" fill-opacity="1" /><path clip-path="url(#clip500)" d="M 0 0 M139.672 584.041 L145.401 584.041 L145.401 564.266 L139.169 565.516 L139.169 562.322 L145.366 561.072 L148.873 561.072 L148.873 584.041 L154.602 584.041 L154.602 586.992 L139.672 586.992 L139.672 584.041 Z" fill="#000000" fill-rule="evenodd" fill-opacity="1" /><path clip-path="url(#clip500)" d="M 0 0 M172.311 573.016 Q174.828 573.555 176.234 575.256 Q177.658 576.957 177.658 579.457 Q177.658 583.294 175.019 585.395 Q172.38 587.495 167.519 587.495 Q165.887 587.495 164.151 587.166 Q162.432 586.853 160.592 586.211 L160.592 582.825 Q162.05 583.676 163.786 584.11 Q165.523 584.544 167.415 584.544 Q170.713 584.544 172.432 583.242 Q174.168 581.94 174.168 579.457 Q174.168 577.166 172.554 575.881 Q170.957 574.579 168.092 574.579 L165.071 574.579 L165.071 571.697 L168.231 571.697 Q170.818 571.697 172.189 570.673 Q173.561 569.631 173.561 567.686 Q173.561 565.69 172.137 564.631 Q170.731 563.555 168.092 563.555 Q166.651 563.555 165.002 563.867 Q163.352 564.18 161.373 564.839 L161.373 561.714 Q163.37 561.159 165.106 560.881 Q166.859 560.603 168.404 560.603 Q172.397 560.603 174.724 562.426 Q177.05 564.232 177.05 567.322 Q177.05 569.475 175.818 570.968 Q174.585 572.443 172.311 573.016 Z" fill="#000000" fill-rule="evenodd" fill-opacity="1" /><path clip-path="url(#clip500)" d="M 0 0 M139.672 683.809 L145.401 683.809 L145.401 664.034 L139.169 665.284 L139.169 662.09 L145.366 660.84 L148.873 660.84 L148.873 683.809 L154.602 683.809 L154.602 686.76 L139.672 686.76 L139.672 683.809 Z" fill="#000000" fill-rule="evenodd" fill-opacity="1" /><path clip-path="url(#clip500)" d="M 0 0 M171.321 663.895 L162.467 677.732 L171.321 677.732 L171.321 663.895 M170.401 660.84 L174.811 660.84 L174.811 677.732 L178.509 677.732 L178.509 680.649 L174.811 680.649 L174.811 686.76 L171.321 686.76 L171.321 680.649 L159.62 680.649 L159.62 677.263 L170.401 660.84 Z" fill="#000000" fill-rule="evenodd" fill-opacity="1" /><path clip-path="url(#clip500)" d="M 0 0 M276.025 584.041 L281.754 584.041 L281.754 564.266 L275.521 565.516 L275.521 562.322 L281.719 561.072 L285.226 561.072 L285.226 584.041 L290.955 584.041 L290.955 586.992 L276.025 586.992 L276.025 584.041 Z" fill="#000000" fill-rule="evenodd" fill-opacity="1" /><path clip-path="url(#clip500)" d="M 0 0 M298.073 561.072 L311.841 561.072 L311.841 564.023 L301.285 564.023 L301.285 570.377 Q302.049 570.117 302.813 569.996 Q303.577 569.857 304.341 569.857 Q308.681 569.857 311.216 572.235 Q313.75 574.614 313.75 578.676 Q313.75 582.86 311.146 585.186 Q308.542 587.495 303.802 587.495 Q302.17 587.495 300.469 587.218 Q298.785 586.94 296.979 586.384 L296.979 582.86 Q298.542 583.711 300.209 584.127 Q301.875 584.544 303.733 584.544 Q306.736 584.544 308.49 582.964 Q310.243 581.384 310.243 578.676 Q310.243 575.968 308.49 574.388 Q306.736 572.808 303.733 572.808 Q302.327 572.808 300.92 573.12 Q299.532 573.433 298.073 574.093 L298.073 561.072 Z" fill="#000000" fill-rule="evenodd" fill-opacity="1" /><path clip-path="url(#clip500)" d="M 0 0 M276.025 683.809 L281.754 683.809 L281.754 664.034 L275.521 665.284 L275.521 662.09 L281.719 660.84 L285.226 660.84 L285.226 683.809 L290.955 683.809 L290.955 686.76 L276.025 686.76 L276.025 683.809 Z" fill="#000000" fill-rule="evenodd" fill-opacity="1" /><path clip-path="url(#clip500)" d="M 0 0 M305.972 672.402 Q303.611 672.402 302.223 674.017 Q300.851 675.631 300.851 678.444 Q300.851 681.239 302.223 682.871 Q303.611 684.486 305.972 684.486 Q308.334 684.486 309.705 682.871 Q311.094 681.239 311.094 678.444 Q311.094 675.631 309.705 674.017 Q308.334 672.402 305.972 672.402 M312.934 661.413 L312.934 664.607 Q311.615 663.982 310.261 663.652 Q308.924 663.323 307.604 663.323 Q304.132 663.323 302.292 665.666 Q300.469 668.01 300.209 672.75 Q301.233 671.239 302.778 670.441 Q304.323 669.625 306.181 669.625 Q310.087 669.625 312.344 672.003 Q314.618 674.364 314.618 678.444 Q314.618 682.437 312.257 684.85 Q309.896 687.263 305.972 687.263 Q301.476 687.263 299.098 683.826 Q296.719 680.371 296.719 673.826 Q296.719 667.68 299.636 664.034 Q302.552 660.371 307.466 660.371 Q308.785 660.371 310.122 660.632 Q311.476 660.892 312.934 661.413 Z" fill="#000000" fill-rule="evenodd" fill-opacity="1" /><path clip-path="url(#clip500)" d="M 0 0 M412.377 584.041 L418.107 584.041 L418.107 564.266 L411.874 565.516 L411.874 562.322 L418.072 561.072 L421.579 561.072 L421.579 584.041 L427.308 584.041 L427.308 586.992 L412.377 586.992 L412.377 584.041 Z" fill="#000000" fill-rule="evenodd" fill-opacity="1" /><path clip-path="url(#clip500)" d="M 0 0 M433.506 561.072 L450.172 561.072 L450.172 562.565 L440.763 586.992 L437.1 586.992 L445.954 564.023 L433.506 564.023 L433.506 561.072 Z" fill="#000000" fill-rule="evenodd" fill-opacity="1" /><path clip-path="url(#clip500)" d="M 0 0 M412.377 683.809 L418.107 683.809 L418.107 664.034 L411.874 665.284 L411.874 662.09 L418.072 660.84 L421.579 660.84 L421.579 683.809 L427.308 683.809 L427.308 686.76 L412.377 686.76 L412.377 683.809 Z" fill="#000000" fill-rule="evenodd" fill-opacity="1" /><path clip-path="url(#clip500)" d="M 0 0 M441.891 674.451 Q439.391 674.451 437.95 675.788 Q436.527 677.125 436.527 679.468 Q436.527 681.812 437.95 683.149 Q439.391 684.486 441.891 684.486 Q444.391 684.486 445.832 683.149 Q447.273 681.795 447.273 679.468 Q447.273 677.125 445.832 675.788 Q444.409 674.451 441.891 674.451 M438.384 672.958 Q436.127 672.402 434.86 670.857 Q433.61 669.312 433.61 667.09 Q433.61 663.982 435.815 662.177 Q438.037 660.371 441.891 660.371 Q445.763 660.371 447.968 662.177 Q450.172 663.982 450.172 667.09 Q450.172 669.312 448.905 670.857 Q447.655 672.402 445.416 672.958 Q447.95 673.548 449.356 675.267 Q450.78 676.986 450.78 679.468 Q450.78 683.236 448.471 685.249 Q446.179 687.263 441.891 687.263 Q437.603 687.263 435.294 685.249 Q433.002 683.236 433.002 679.468 Q433.002 676.986 434.426 675.267 Q435.85 673.548 438.384 672.958 M437.1 667.42 Q437.1 669.434 438.35 670.562 Q439.617 671.691 441.891 671.691 Q444.148 671.691 445.416 670.562 Q446.7 669.434 446.7 667.42 Q446.7 665.406 445.416 664.277 Q444.148 663.149 441.891 663.149 Q439.617 663.149 438.35 664.277 Q437.1 665.406 437.1 667.42 Z" fill="#000000" fill-rule="evenodd" fill-opacity="1" /><path clip-path="url(#clip500)" d="M 0 0 M139.672 284.737 L145.401 284.737 L145.401 264.963 L139.169 266.213 L139.169 263.018 L145.366 261.768 L148.873 261.768 L148.873 284.737 L154.602 284.737 L154.602 287.688 L139.672 287.688 L139.672 284.737 Z" fill="#000000" fill-rule="evenodd" fill-opacity="1" /><path clip-path="url(#clip500)" d="M 0 0 M161.79 287.15 L161.79 283.955 Q163.109 284.58 164.464 284.91 Q165.818 285.24 167.12 285.24 Q170.592 285.24 172.415 282.914 Q174.255 280.57 174.516 275.813 Q173.509 277.306 171.963 278.105 Q170.418 278.903 168.543 278.903 Q164.654 278.903 162.38 276.56 Q160.123 274.199 160.123 270.119 Q160.123 266.126 162.484 263.713 Q164.845 261.299 168.769 261.299 Q173.266 261.299 175.627 264.754 Q178.005 268.192 178.005 274.754 Q178.005 280.883 175.088 284.546 Q172.189 288.192 167.276 288.192 Q165.957 288.192 164.602 287.931 Q163.248 287.671 161.79 287.15 M168.769 276.16 Q171.13 276.16 172.502 274.546 Q173.891 272.931 173.891 270.119 Q173.891 267.324 172.502 265.709 Q171.13 264.077 168.769 264.077 Q166.408 264.077 165.019 265.709 Q163.648 267.324 163.648 270.119 Q163.648 272.931 165.019 274.546 Q166.408 276.16 168.769 276.16 Z" fill="#000000" fill-rule="evenodd" fill-opacity="1" /><path clip-path="url(#clip500)" d="M 0 0 M143.387 384.505 L155.627 384.505 L155.627 387.456 L139.169 387.456 L139.169 384.505 Q141.165 382.439 144.603 378.967 Q148.057 375.477 148.943 374.47 Q150.627 372.578 151.286 371.276 Q151.964 369.956 151.964 368.689 Q151.964 366.623 150.505 365.321 Q149.064 364.019 146.738 364.019 Q145.089 364.019 143.248 364.592 Q141.425 365.165 139.342 366.328 L139.342 362.786 Q141.46 361.935 143.3 361.501 Q145.141 361.067 146.668 361.067 Q150.696 361.067 153.092 363.081 Q155.488 365.095 155.488 368.463 Q155.488 370.06 154.88 371.501 Q154.29 372.925 152.71 374.869 Q152.276 375.373 149.95 377.786 Q147.623 380.182 143.387 384.505 Z" fill="#000000" fill-rule="evenodd" fill-opacity="1" /><path clip-path="url(#clip500)" d="M 0 0 M170.488 363.845 Q167.779 363.845 166.408 366.519 Q165.054 369.175 165.054 374.522 Q165.054 379.852 166.408 382.526 Q167.779 385.182 170.488 385.182 Q173.213 385.182 174.568 382.526 Q175.939 379.852 175.939 374.522 Q175.939 369.175 174.568 366.519 Q173.213 363.845 170.488 363.845 M170.488 361.067 Q174.845 361.067 177.137 364.522 Q179.446 367.96 179.446 374.522 Q179.446 381.067 177.137 384.522 Q174.845 387.96 170.488 387.96 Q166.13 387.96 163.821 384.522 Q161.529 381.067 161.529 374.522 Q161.529 367.96 163.821 364.522 Q166.13 361.067 170.488 361.067 Z" fill="#000000" fill-rule="evenodd" fill-opacity="1" /><path clip-path="url(#clip500)" d="M 0 0 M279.74 883.344 L291.98 883.344 L291.98 886.296 L275.521 886.296 L275.521 883.344 Q277.518 881.278 280.955 877.806 Q284.41 874.317 285.296 873.31 Q286.98 871.417 287.639 870.115 Q288.316 868.796 288.316 867.529 Q288.316 865.463 286.858 864.16 Q285.417 862.858 283.091 862.858 Q281.441 862.858 279.601 863.431 Q277.778 864.004 275.695 865.167 L275.695 861.626 Q277.813 860.775 279.653 860.341 Q281.493 859.907 283.021 859.907 Q287.049 859.907 289.445 861.921 Q291.841 863.935 291.841 867.303 Q291.841 868.9 291.233 870.341 Q290.643 871.765 289.063 873.709 Q288.629 874.213 286.302 876.626 Q283.976 879.022 279.74 883.344 Z" fill="#000000" fill-rule="evenodd" fill-opacity="1" /><path clip-path="url(#clip500)" d="M 0 0 M299.948 883.344 L305.677 883.344 L305.677 863.57 L299.445 864.82 L299.445 861.626 L305.643 860.376 L309.15 860.376 L309.15 883.344 L314.879 883.344 L314.879 886.296 L299.948 886.296 L299.948 883.344 Z" fill="#000000" fill-rule="evenodd" fill-opacity="1" /><path clip-path="url(#clip500)" d="M 0 0 M416.093 883.344 L428.332 883.344 L428.332 886.296 L411.874 886.296 L411.874 883.344 Q413.871 881.278 417.308 877.806 Q420.763 874.317 421.648 873.31 Q423.332 871.417 423.992 870.115 Q424.669 868.796 424.669 867.529 Q424.669 865.463 423.211 864.16 Q421.77 862.858 419.443 862.858 Q417.794 862.858 415.954 863.431 Q414.131 864.004 412.048 865.167 L412.048 861.626 Q414.166 860.775 416.006 860.341 Q417.846 859.907 419.374 859.907 Q423.402 859.907 425.798 861.921 Q428.193 863.935 428.193 867.303 Q428.193 868.9 427.586 870.341 Q426.995 871.765 425.416 873.709 Q424.982 874.213 422.655 876.626 Q420.329 879.022 416.093 883.344 Z" fill="#000000" fill-rule="evenodd" fill-opacity="1" /><path clip-path="url(#clip500)" d="M 0 0 M446.318 872.32 Q448.836 872.858 450.242 874.56 Q451.665 876.261 451.665 878.761 Q451.665 882.598 449.027 884.699 Q446.388 886.799 441.527 886.799 Q439.895 886.799 438.159 886.469 Q436.44 886.157 434.6 885.515 L434.6 882.129 Q436.058 882.98 437.794 883.414 Q439.53 883.848 441.422 883.848 Q444.721 883.848 446.44 882.546 Q448.176 881.244 448.176 878.761 Q448.176 876.469 446.561 875.185 Q444.964 873.883 442.1 873.883 L439.079 873.883 L439.079 871.001 L442.238 871.001 Q444.825 871.001 446.197 869.976 Q447.568 868.935 447.568 866.99 Q447.568 864.994 446.145 863.935 Q444.738 862.858 442.1 862.858 Q440.659 862.858 439.009 863.171 Q437.36 863.483 435.381 864.143 L435.381 861.018 Q437.377 860.463 439.113 860.185 Q440.867 859.907 442.412 859.907 Q446.405 859.907 448.731 861.73 Q451.058 863.535 451.058 866.626 Q451.058 868.779 449.825 870.272 Q448.593 871.747 446.318 872.32 Z" fill="#000000" fill-rule="evenodd" fill-opacity="1" /><circle clip-path="url(#clip502)" cx="70.9921" cy="145.812" r="14" fill="#0000ff" fill-rule="evenodd" fill-opacity="1" stroke="none"/>
<circle clip-path="url(#clip502)" cx="70.9921" cy="245.58" r="14" fill="#0000ff" fill-rule="evenodd" fill-opacity="1" stroke="none"/>
<circle clip-path="url(#clip502)" cx="207.345" cy="145.812" r="14" fill="#0000ff" fill-rule="evenodd" fill-opacity="1" stroke="none"/>
<circle clip-path="url(#clip502)" cx="207.345" cy="245.58" r="14" fill="#0000ff" fill-rule="evenodd" fill-opacity="1" stroke="none"/>
<circle clip-path="url(#clip502)" cx="343.698" cy="145.812" r="14" fill="#0000ff" fill-rule="evenodd" fill-opacity="1" stroke="none"/>
<circle clip-path="url(#clip502)" cx="343.698" cy="245.58" r="14" fill="#0000ff" fill-rule="evenodd" fill-opacity="1" stroke="none"/>
<circle clip-path="url(#clip502)" cx="139.169" cy="95.9282" r="14" fill="#0000ff" fill-rule="evenodd" fill-opacity="1" stroke="none"/>
<circle clip-path="url(#clip502)" cx="275.521" cy="95.9282" r="14" fill="#0000ff" fill-rule="evenodd" fill-opacity="1" stroke="none"/>
<circle clip-path="url(#clip502)" cx="411.874" cy="95.9282" r="14" fill="#0000ff" fill-rule="evenodd" fill-opacity="1" stroke="none"/>
<circle clip-path="url(#clip502)" cx="275.521" cy="295.464" r="14" fill="#0000ff" fill-rule="evenodd" fill-opacity="1" stroke="none"/>
<circle clip-path="url(#clip502)" cx="275.521" cy="395.232" r="14" fill="#0000ff" fill-rule="evenodd" fill-opacity="1" stroke="none"/>
<circle clip-path="url(#clip502)" cx="411.874" cy="295.464" r="14" fill="#0000ff" fill-rule="evenodd" fill-opacity="1" stroke="none"/>
<circle clip-path="url(#clip502)" cx="411.874" cy="395.232" r="14" fill="#0000ff" fill-rule="evenodd" fill-opacity="1" stroke="none"/>
<path clip-path="url(#clip500)" d="M 0 0 M82.7108 124.061 Q85.2282 124.599 86.6344 126.3 Q88.058 128.002 88.058 130.502 Q88.058 134.338 85.4191 136.439 Q82.7803 138.54 77.9192 138.54 Q76.2872 138.54 74.5511 138.21 Q72.8324 137.897 70.9921 137.255 L70.9921 133.87 Q72.4505 134.72 74.1866 135.154 Q75.9227 135.588 77.815 135.588 Q81.1136 135.588 82.8323 134.286 Q84.5684 132.984 84.5684 130.502 Q84.5684 128.21 82.9539 126.925 Q81.3567 125.623 78.4921 125.623 L75.4713 125.623 L75.4713 122.741 L78.631 122.741 Q81.2178 122.741 82.5893 121.717 Q83.9608 120.675 83.9608 118.731 Q83.9608 116.734 82.5372 115.675 Q81.131 114.599 78.4921 114.599 Q77.0511 114.599 75.4018 114.911 Q73.7525 115.224 71.7734 115.884 L71.7734 112.759 Q73.7699 112.203 75.506 111.925 Q77.2595 111.647 78.8046 111.647 Q82.7976 111.647 85.124 113.47 Q87.4504 115.276 87.4504 118.366 Q87.4504 120.519 86.2177 122.012 Q84.9851 123.488 82.7108 124.061 Z" fill="#000000" fill-rule="evenodd" fill-opacity="1" /><path clip-path="url(#clip500)" d="M 0 0 M82.6935 214.94 L73.8393 228.776 L82.6935 228.776 L82.6935 214.94 M81.7733 211.884 L86.183 211.884 L86.183 228.776 L89.8809 228.776 L89.8809 231.693 L86.183 231.693 L86.183 237.804 L82.6935 237.804 L82.6935 231.693 L70.9921 231.693 L70.9921 228.308 L81.7733 211.884 Z" fill="#000000" fill-rule="evenodd" fill-opacity="1" /><path clip-path="url(#clip500)" d="M 0 0 M208.439 112.116 L222.206 112.116 L222.206 115.068 L211.65 115.068 L211.65 121.422 Q212.414 121.161 213.178 121.04 Q213.942 120.901 214.706 120.901 Q219.046 120.901 221.581 123.279 Q224.116 125.658 224.116 129.72 Q224.116 133.904 221.511 136.231 Q218.907 138.54 214.168 138.54 Q212.536 138.54 210.834 138.262 Q209.15 137.984 207.345 137.429 L207.345 133.904 Q208.907 134.755 210.574 135.172 Q212.241 135.588 214.098 135.588 Q217.102 135.588 218.855 134.008 Q220.609 132.429 220.609 129.72 Q220.609 127.012 218.855 125.432 Q217.102 123.852 214.098 123.852 Q212.692 123.852 211.286 124.165 Q209.897 124.477 208.439 125.137 L208.439 112.116 Z" fill="#000000" fill-rule="evenodd" fill-opacity="1" /><path clip-path="url(#clip500)" d="M 0 0 M216.598 223.447 Q214.237 223.447 212.848 225.061 Q211.477 226.676 211.477 229.488 Q211.477 232.283 212.848 233.915 Q214.237 235.53 216.598 235.53 Q218.959 235.53 220.331 233.915 Q221.72 232.283 221.72 229.488 Q221.72 226.676 220.331 225.061 Q218.959 223.447 216.598 223.447 M223.56 212.457 L223.56 215.651 Q222.241 215.026 220.886 214.697 Q219.55 214.367 218.23 214.367 Q214.758 214.367 212.918 216.711 Q211.095 219.054 210.834 223.794 Q211.859 222.283 213.404 221.485 Q214.949 220.669 216.807 220.669 Q220.713 220.669 222.97 223.047 Q225.244 225.408 225.244 229.488 Q225.244 233.481 222.883 235.894 Q220.522 238.308 216.598 238.308 Q212.102 238.308 209.723 234.87 Q207.345 231.415 207.345 224.87 Q207.345 218.724 210.262 215.079 Q213.178 211.415 218.091 211.415 Q219.411 211.415 220.748 211.676 Q222.102 211.936 223.56 212.457 Z" fill="#000000" fill-rule="evenodd" fill-opacity="1" /><path clip-path="url(#clip500)" d="M 0 0 M343.698 112.116 L360.364 112.116 L360.364 113.609 L350.955 138.036 L347.291 138.036 L356.145 115.068 L343.698 115.068 L343.698 112.116 Z" fill="#000000" fill-rule="evenodd" fill-opacity="1" /><path clip-path="url(#clip500)" d="M 0 0 M352.586 225.495 Q350.086 225.495 348.646 226.832 Q347.222 228.169 347.222 230.513 Q347.222 232.856 348.646 234.193 Q350.086 235.53 352.586 235.53 Q355.086 235.53 356.527 234.193 Q357.968 232.839 357.968 230.513 Q357.968 228.169 356.527 226.832 Q355.104 225.495 352.586 225.495 M349.08 224.002 Q346.823 223.447 345.555 221.901 Q344.305 220.356 344.305 218.134 Q344.305 215.026 346.51 213.221 Q348.732 211.415 352.586 211.415 Q356.458 211.415 358.663 213.221 Q360.868 215.026 360.868 218.134 Q360.868 220.356 359.6 221.901 Q358.35 223.447 356.111 224.002 Q358.645 224.592 360.052 226.311 Q361.475 228.03 361.475 230.513 Q361.475 234.28 359.166 236.294 Q356.875 238.308 352.586 238.308 Q348.298 238.308 345.989 236.294 Q343.698 234.28 343.698 230.513 Q343.698 228.03 345.121 226.311 Q346.545 224.592 349.08 224.002 M347.795 218.464 Q347.795 220.478 349.045 221.606 Q350.312 222.735 352.586 222.735 Q354.843 222.735 356.111 221.606 Q357.395 220.478 357.395 218.464 Q357.395 216.45 356.111 215.322 Q354.843 214.193 352.586 214.193 Q350.312 214.193 349.045 215.322 Q347.795 216.45 347.795 218.464 Z" fill="#000000" fill-rule="evenodd" fill-opacity="1" /><path clip-path="url(#clip500)" d="M 0 0 M139.672 85.2008 L145.401 85.2008 L145.401 65.4266 L139.169 66.6766 L139.169 63.4822 L145.366 62.2322 L148.873 62.2322 L148.873 85.2008 L154.602 85.2008 L154.602 88.1522 L139.672 88.1522 L139.672 85.2008 Z" fill="#000000" fill-rule="evenodd" fill-opacity="1" /><path clip-path="url(#clip500)" d="M 0 0 M171.321 65.2878 L162.467 79.1245 L171.321 79.1245 L171.321 65.2878 M170.401 62.2322 L174.811 62.2322 L174.811 79.1245 L178.509 79.1245 L178.509 82.0411 L174.811 82.0411 L174.811 88.1522 L171.321 88.1522 L171.321 82.0411 L159.62 82.0411 L159.62 78.6557 L170.401 62.2322 Z" fill="#000000" fill-rule="evenodd" fill-opacity="1" /><path clip-path="url(#clip500)" d="M 0 0 M276.025 85.2008 L281.754 85.2008 L281.754 65.4266 L275.521 66.6766 L275.521 63.4822 L281.719 62.2322 L285.226 62.2322 L285.226 85.2008 L290.955 85.2008 L290.955 88.1522 L276.025 88.1522 L276.025 85.2008 Z" fill="#000000" fill-rule="evenodd" fill-opacity="1" /><path clip-path="url(#clip500)" d="M 0 0 M305.972 73.7947 Q303.611 73.7947 302.223 75.4092 Q300.851 77.0238 300.851 79.8363 Q300.851 82.6314 302.223 84.2634 Q303.611 85.8779 305.972 85.8779 Q308.334 85.8779 309.705 84.2634 Q311.094 82.6314 311.094 79.8363 Q311.094 77.0238 309.705 75.4092 Q308.334 73.7947 305.972 73.7947 M312.934 62.8051 L312.934 65.9996 Q311.615 65.3746 310.261 65.0447 Q308.924 64.7148 307.604 64.7148 Q304.132 64.7148 302.292 67.0586 Q300.469 69.4023 300.209 74.1419 Q301.233 72.6315 302.778 71.8329 Q304.323 71.0169 306.181 71.0169 Q310.087 71.0169 312.344 73.3954 Q314.618 75.7565 314.618 79.8363 Q314.618 83.8293 312.257 86.2425 Q309.896 88.6557 305.972 88.6557 Q301.476 88.6557 299.098 85.2182 Q296.719 81.7634 296.719 75.2183 Q296.719 69.0725 299.636 65.4266 Q302.552 61.7635 307.466 61.7635 Q308.785 61.7635 310.122 62.0239 Q311.476 62.2843 312.934 62.8051 Z" fill="#000000" fill-rule="evenodd" fill-opacity="1" /><path clip-path="url(#clip500)" d="M 0 0 M412.377 85.2008 L418.107 85.2008 L418.107 65.4266 L411.874 66.6766 L411.874 63.4822 L418.072 62.2322 L421.579 62.2322 L421.579 85.2008 L427.308 85.2008 L427.308 88.1522 L412.377 88.1522 L412.377 85.2008 Z" fill="#000000" fill-rule="evenodd" fill-opacity="1" /><path clip-path="url(#clip500)" d="M 0 0 M441.891 75.8433 Q439.391 75.8433 437.95 77.1801 Q436.527 78.5169 436.527 80.8606 Q436.527 83.2043 437.95 84.5411 Q439.391 85.8779 441.891 85.8779 Q444.391 85.8779 445.832 84.5411 Q447.273 83.187 447.273 80.8606 Q447.273 78.5169 445.832 77.1801 Q444.409 75.8433 441.891 75.8433 M438.384 74.3502 Q436.127 73.7947 434.86 72.2495 Q433.61 70.7044 433.61 68.4822 Q433.61 65.3746 435.815 63.569 Q438.037 61.7635 441.891 61.7635 Q445.763 61.7635 447.968 63.569 Q450.172 65.3746 450.172 68.4822 Q450.172 70.7044 448.905 72.2495 Q447.655 73.7947 445.416 74.3502 Q447.95 74.9405 449.356 76.6592 Q450.78 78.378 450.78 80.8606 Q450.78 84.6279 448.471 86.6418 Q446.179 88.6557 441.891 88.6557 Q437.603 88.6557 435.294 86.6418 Q433.002 84.6279 433.002 80.8606 Q433.002 78.378 434.426 76.6592 Q435.85 74.9405 438.384 74.3502 M437.1 68.812 Q437.1 70.8259 438.35 71.9544 Q439.617 73.0829 441.891 73.0829 Q444.148 73.0829 445.416 71.9544 Q446.7 70.8259 446.7 68.812 Q446.7 66.7982 445.416 65.6697 Q444.148 64.5412 441.891 64.5412 Q439.617 64.5412 438.35 65.6697 Q437.1 66.7982 437.1 68.812 Z" fill="#000000" fill-rule="evenodd" fill-opacity="1" /><path clip-path="url(#clip500)" d="M 0 0 M279.74 284.737 L291.98 284.737 L291.98 287.688 L275.521 287.688 L275.521 284.737 Q277.518 282.671 280.955 279.199 Q284.41 275.709 285.296 274.702 Q286.98 272.81 287.639 271.508 Q288.316 270.188 288.316 268.921 Q288.316 266.855 286.858 265.553 Q285.417 264.251 283.091 264.251 Q281.441 264.251 279.601 264.824 Q277.778 265.397 275.695 266.56 L275.695 263.018 Q277.813 262.167 279.653 261.733 Q281.493 261.299 283.021 261.299 Q287.049 261.299 289.445 263.313 Q291.841 265.327 291.841 268.695 Q291.841 270.292 291.233 271.733 Q290.643 273.157 289.063 275.101 Q288.629 275.605 286.302 278.018 Q283.976 280.414 279.74 284.737 Z" fill="#000000" fill-rule="evenodd" fill-opacity="1" /><path clip-path="url(#clip500)" d="M 0 0 M299.948 284.737 L305.677 284.737 L305.677 264.963 L299.445 266.213 L299.445 263.018 L305.643 261.768 L309.15 261.768 L309.15 284.737 L314.879 284.737 L314.879 287.688 L299.948 287.688 L299.948 284.737 Z" fill="#000000" fill-rule="evenodd" fill-opacity="1" /><path clip-path="url(#clip500)" d="M 0 0 M279.74 384.505 L291.98 384.505 L291.98 387.456 L275.521 387.456 L275.521 384.505 Q277.518 382.439 280.955 378.967 Q284.41 375.477 285.296 374.47 Q286.98 372.578 287.639 371.276 Q288.316 369.956 288.316 368.689 Q288.316 366.623 286.858 365.321 Q285.417 364.019 283.091 364.019 Q281.441 364.019 279.601 364.592 Q277.778 365.165 275.695 366.328 L275.695 362.786 Q277.813 361.935 279.653 361.501 Q281.493 361.067 283.021 361.067 Q287.049 361.067 289.445 363.081 Q291.841 365.095 291.841 368.463 Q291.841 370.06 291.233 371.501 Q290.643 372.925 289.063 374.869 Q288.629 375.373 286.302 377.786 Q283.976 380.182 279.74 384.505 Z" fill="#000000" fill-rule="evenodd" fill-opacity="1" /><path clip-path="url(#clip500)" d="M 0 0 M302.361 384.505 L314.601 384.505 L314.601 387.456 L298.143 387.456 L298.143 384.505 Q300.139 382.439 303.577 378.967 Q307.032 375.477 307.917 374.47 Q309.601 372.578 310.261 371.276 Q310.938 369.956 310.938 368.689 Q310.938 366.623 309.479 365.321 Q308.038 364.019 305.712 364.019 Q304.063 364.019 302.223 364.592 Q300.4 365.165 298.316 366.328 L298.316 362.786 Q300.434 361.935 302.275 361.501 Q304.115 361.067 305.643 361.067 Q309.67 361.067 312.066 363.081 Q314.462 365.095 314.462 368.463 Q314.462 370.06 313.854 371.501 Q313.264 372.925 311.684 374.869 Q311.25 375.373 308.924 377.786 Q306.597 380.182 302.361 384.505 Z" fill="#000000" fill-rule="evenodd" fill-opacity="1" /><path clip-path="url(#clip500)" d="M 0 0 M416.093 284.737 L428.332 284.737 L428.332 287.688 L411.874 287.688 L411.874 284.737 Q413.871 282.671 417.308 279.199 Q420.763 275.709 421.648 274.702 Q423.332 272.81 423.992 271.508 Q424.669 270.188 424.669 268.921 Q424.669 266.855 423.211 265.553 Q421.77 264.251 419.443 264.251 Q417.794 264.251 415.954 264.824 Q414.131 265.397 412.048 266.56 L412.048 263.018 Q414.166 262.167 416.006 261.733 Q417.846 261.299 419.374 261.299 Q423.402 261.299 425.798 263.313 Q428.193 265.327 428.193 268.695 Q428.193 270.292 427.586 271.733 Q426.995 273.157 425.416 275.101 Q424.982 275.605 422.655 278.018 Q420.329 280.414 416.093 284.737 Z" fill="#000000" fill-rule="evenodd" fill-opacity="1" /><path clip-path="url(#clip500)" d="M 0 0 M446.318 273.712 Q448.836 274.251 450.242 275.952 Q451.665 277.653 451.665 280.153 Q451.665 283.99 449.027 286.091 Q446.388 288.192 441.527 288.192 Q439.895 288.192 438.159 287.862 Q436.44 287.549 434.6 286.907 L434.6 283.521 Q436.058 284.372 437.794 284.806 Q439.53 285.24 441.422 285.24 Q444.721 285.24 446.44 283.938 Q448.176 282.636 448.176 280.153 Q448.176 277.862 446.561 276.577 Q444.964 275.275 442.1 275.275 L439.079 275.275 L439.079 272.393 L442.238 272.393 Q444.825 272.393 446.197 271.369 Q447.568 270.327 447.568 268.383 Q447.568 266.386 446.145 265.327 Q444.738 264.251 442.1 264.251 Q440.659 264.251 439.009 264.563 Q437.36 264.876 435.381 265.535 L435.381 262.41 Q437.377 261.855 439.113 261.577 Q440.867 261.299 442.412 261.299 Q446.405 261.299 448.731 263.122 Q451.058 264.928 451.058 268.018 Q451.058 270.171 449.825 271.664 Q448.593 273.14 446.318 273.712 Z" fill="#000000" fill-rule="evenodd" fill-opacity="1" /><path clip-path="url(#clip500)" d="M 0 0 M416.093 384.505 L428.332 384.505 L428.332 387.456 L411.874 387.456 L411.874 384.505 Q413.871 382.439 417.308 378.967 Q420.763 375.477 421.648 374.47 Q423.332 372.578 423.992 371.276 Q424.669 369.956 424.669 368.689 Q424.669 366.623 423.211 365.321 Q421.77 364.019 419.443 364.019 Q417.794 364.019 415.954 364.592 Q414.131 365.165 412.048 366.328 L412.048 362.786 Q414.166 361.935 416.006 361.501 Q417.846 361.067 419.374 361.067 Q423.402 361.067 425.798 363.081 Q428.193 365.095 428.193 368.463 Q428.193 370.06 427.586 371.501 Q426.995 372.925 425.416 374.869 Q424.982 375.373 422.655 377.786 Q420.329 380.182 416.093 384.505 Z" fill="#000000" fill-rule="evenodd" fill-opacity="1" /><path clip-path="url(#clip500)" d="M 0 0 M445.329 364.592 L436.475 378.428 L445.329 378.428 L445.329 364.592 M444.409 361.536 L448.818 361.536 L448.818 378.428 L452.516 378.428 L452.516 381.345 L448.818 381.345 L448.818 387.456 L445.329 387.456 L445.329 381.345 L433.627 381.345 L433.627 377.96 L444.409 361.536 Z" fill="#000000" fill-rule="evenodd" fill-opacity="1" /><circle clip-path="url(#clip502)" cx="752.756" cy="744.42" r="14" fill="#0000ff" fill-rule="evenodd" fill-opacity="1" stroke="none"/>
<circle clip-path="url(#clip502)" cx="752.756" cy="844.188" r="14" fill="#0000ff" fill-rule="evenodd" fill-opacity="1" stroke="none"/>
<circle clip-path="url(#clip502)" cx="480.05" cy="744.42" r="14" fill="#0000ff" fill-rule="evenodd" fill-opacity="1" stroke="none"/>
<circle clip-path="url(#clip502)" cx="480.05" cy="844.188" r="14" fill="#0000ff" fill-rule="evenodd" fill-opacity="1" stroke="none"/>
<circle clip-path="url(#clip502)" cx="616.403" cy="744.42" r="14" fill="#0000ff" fill-rule="evenodd" fill-opacity="1" stroke="none"/>
<circle clip-path="url(#clip502)" cx="616.403" cy="844.188" r="14" fill="#0000ff" fill-rule="evenodd" fill-opacity="1" stroke="none"/>
<circle clip-path="url(#clip502)" cx="548.227" cy="894.072" r="14" fill="#0000ff" fill-rule="evenodd" fill-opacity="1" stroke="none"/>
<circle clip-path="url(#clip502)" cx="684.58" cy="894.072" r="14" fill="#0000ff" fill-rule="evenodd" fill-opacity="1" stroke="none"/>
<circle clip-path="url(#clip502)" cx="548.227" cy="594.768" r="14" fill="#0000ff" fill-rule="evenodd" fill-opacity="1" stroke="none"/>
<circle clip-path="url(#clip502)" cx="548.227" cy="694.536" r="14" fill="#0000ff" fill-rule="evenodd" fill-opacity="1" stroke="none"/>
<path clip-path="url(#clip500)" d="M 0 0 M753.259 733.692 L758.989 733.692 L758.989 713.918 L752.756 715.168 L752.756 711.974 L758.954 710.724 L762.461 710.724 L762.461 733.692 L768.19 733.692 L768.19 736.644 L753.259 736.644 L753.259 733.692 Z" fill="#000000" fill-rule="evenodd" fill-opacity="1" /><path clip-path="url(#clip500)" d="M 0 0 M756.975 833.46 L769.214 833.46 L769.214 836.412 L752.756 836.412 L752.756 833.46 Q754.752 831.394 758.19 827.922 Q761.645 824.433 762.53 823.426 Q764.214 821.533 764.874 820.231 Q765.551 818.912 765.551 817.645 Q765.551 815.579 764.093 814.277 Q762.652 812.974 760.325 812.974 Q758.676 812.974 756.836 813.547 Q755.013 814.12 752.93 815.283 L752.93 811.742 Q755.048 810.891 756.888 810.457 Q758.728 810.023 760.256 810.023 Q764.284 810.023 766.679 812.037 Q769.075 814.051 769.075 817.419 Q769.075 819.016 768.468 820.457 Q767.877 821.881 766.297 823.825 Q765.863 824.329 763.537 826.742 Q761.211 829.138 756.975 833.46 Z" fill="#000000" fill-rule="evenodd" fill-opacity="1" /><path clip-path="url(#clip500)" d="M 0 0 M481.717 736.106 L481.717 732.911 Q483.036 733.536 484.391 733.866 Q485.745 734.196 487.047 734.196 Q490.519 734.196 492.342 731.87 Q494.182 729.526 494.443 724.769 Q493.436 726.262 491.891 727.061 Q490.345 727.859 488.47 727.859 Q484.582 727.859 482.307 725.515 Q480.05 723.154 480.05 719.075 Q480.05 715.081 482.411 712.668 Q484.773 710.255 488.696 710.255 Q493.193 710.255 495.554 713.71 Q497.932 717.147 497.932 723.71 Q497.932 729.838 495.016 733.502 Q492.116 737.147 487.203 737.147 Q485.884 737.147 484.53 736.887 Q483.175 736.627 481.717 736.106 M488.696 725.116 Q491.057 725.116 492.429 723.502 Q493.818 721.887 493.818 719.075 Q493.818 716.279 492.429 714.665 Q491.057 713.033 488.696 713.033 Q486.335 713.033 484.946 714.665 Q483.575 716.279 483.575 719.075 Q483.575 721.887 484.946 723.502 Q486.335 725.116 488.696 725.116 Z" fill="#000000" fill-rule="evenodd" fill-opacity="1" /><path clip-path="url(#clip500)" d="M 0 0 M480.554 833.46 L486.283 833.46 L486.283 813.686 L480.05 814.936 L480.05 811.742 L486.248 810.492 L489.755 810.492 L489.755 833.46 L495.484 833.46 L495.484 836.412 L480.554 836.412 L480.554 833.46 Z" fill="#000000" fill-rule="evenodd" fill-opacity="1" /><path clip-path="url(#clip500)" d="M 0 0 M510.068 812.801 Q507.359 812.801 505.988 815.474 Q504.634 818.131 504.634 823.478 Q504.634 828.808 505.988 831.481 Q507.359 834.138 510.068 834.138 Q512.793 834.138 514.147 831.481 Q515.519 828.808 515.519 823.478 Q515.519 818.131 514.147 815.474 Q512.793 812.801 510.068 812.801 M510.068 810.023 Q514.425 810.023 516.717 813.478 Q519.026 816.915 519.026 823.478 Q519.026 830.023 516.717 833.478 Q514.425 836.915 510.068 836.915 Q505.71 836.915 503.401 833.478 Q501.109 830.023 501.109 823.478 Q501.109 816.915 503.401 813.478 Q505.71 810.023 510.068 810.023 Z" fill="#000000" fill-rule="evenodd" fill-opacity="1" /><path clip-path="url(#clip500)" d="M 0 0 M616.907 733.692 L622.636 733.692 L622.636 713.918 L616.403 715.168 L616.403 711.974 L622.601 710.724 L626.108 710.724 L626.108 733.692 L631.837 733.692 L631.837 736.644 L616.907 736.644 L616.907 733.692 Z" fill="#000000" fill-rule="evenodd" fill-opacity="1" /><path clip-path="url(#clip500)" d="M 0 0 M639.528 733.692 L645.257 733.692 L645.257 713.918 L639.025 715.168 L639.025 711.974 L645.222 710.724 L648.729 710.724 L648.729 733.692 L654.459 733.692 L654.459 736.644 L639.528 736.644 L639.528 733.692 Z" fill="#000000" fill-rule="evenodd" fill-opacity="1" /><path clip-path="url(#clip500)" d="M 0 0 M616.907 833.46 L622.636 833.46 L622.636 813.686 L616.403 814.936 L616.403 811.742 L622.601 810.492 L626.108 810.492 L626.108 833.46 L631.837 833.46 L631.837 836.412 L616.907 836.412 L616.907 833.46 Z" fill="#000000" fill-rule="evenodd" fill-opacity="1" /><path clip-path="url(#clip500)" d="M 0 0 M641.941 833.46 L654.181 833.46 L654.181 836.412 L637.722 836.412 L637.722 833.46 Q639.719 831.394 643.156 827.922 Q646.611 824.433 647.497 823.426 Q649.181 821.533 649.84 820.231 Q650.518 818.912 650.518 817.645 Q650.518 815.579 649.059 814.277 Q647.618 812.974 645.292 812.974 Q643.643 812.974 641.802 813.547 Q639.979 814.12 637.896 815.283 L637.896 811.742 Q640.014 810.891 641.854 810.457 Q643.695 810.023 645.222 810.023 Q649.25 810.023 651.646 812.037 Q654.042 814.051 654.042 817.419 Q654.042 819.016 653.434 820.457 Q652.844 821.881 651.264 823.825 Q650.83 824.329 648.504 826.742 Q646.177 829.138 641.941 833.46 Z" fill="#000000" fill-rule="evenodd" fill-opacity="1" /><path clip-path="url(#clip500)" d="M 0 0 M548.73 883.344 L554.459 883.344 L554.459 863.57 L548.227 864.82 L548.227 861.626 L554.425 860.376 L557.932 860.376 L557.932 883.344 L563.661 883.344 L563.661 886.296 L548.73 886.296 L548.73 883.344 Z" fill="#000000" fill-rule="evenodd" fill-opacity="1" /><path clip-path="url(#clip500)" d="M 0 0 M581.369 872.32 Q583.886 872.858 585.293 874.56 Q586.716 876.261 586.716 878.761 Q586.716 882.598 584.077 884.699 Q581.438 886.799 576.577 886.799 Q574.945 886.799 573.209 886.469 Q571.491 886.157 569.65 885.515 L569.65 882.129 Q571.109 882.98 572.845 883.414 Q574.581 883.848 576.473 883.848 Q579.772 883.848 581.49 882.546 Q583.227 881.244 583.227 878.761 Q583.227 876.469 581.612 875.185 Q580.015 873.883 577.15 873.883 L574.129 873.883 L574.129 871.001 L577.289 871.001 Q579.876 871.001 581.247 869.976 Q582.619 868.935 582.619 866.99 Q582.619 864.994 581.195 863.935 Q579.789 862.858 577.15 862.858 Q575.709 862.858 574.06 863.171 Q572.411 863.483 570.432 864.143 L570.432 861.018 Q572.428 860.463 574.164 860.185 Q575.918 859.907 577.463 859.907 Q581.456 859.907 583.782 861.73 Q586.109 863.535 586.109 866.626 Q586.109 868.779 584.876 870.272 Q583.643 871.747 581.369 872.32 Z" fill="#000000" fill-rule="evenodd" fill-opacity="1" /><path clip-path="url(#clip500)" d="M 0 0 M685.083 883.344 L690.812 883.344 L690.812 863.57 L684.58 864.82 L684.58 861.626 L690.777 860.376 L694.284 860.376 L694.284 883.344 L700.013 883.344 L700.013 886.296 L685.083 886.296 L685.083 883.344 Z" fill="#000000" fill-rule="evenodd" fill-opacity="1" /><path clip-path="url(#clip500)" d="M 0 0 M707.131 860.376 L720.899 860.376 L720.899 863.327 L710.343 863.327 L710.343 869.681 Q711.107 869.421 711.871 869.299 Q712.635 869.16 713.399 869.16 Q717.739 869.16 720.274 871.539 Q722.808 873.917 722.808 877.98 Q722.808 882.164 720.204 884.49 Q717.6 886.799 712.861 886.799 Q711.229 886.799 709.527 886.521 Q707.843 886.244 706.038 885.688 L706.038 882.164 Q707.6 883.015 709.267 883.431 Q710.934 883.848 712.791 883.848 Q715.795 883.848 717.548 882.268 Q719.302 880.688 719.302 877.98 Q719.302 875.272 717.548 873.692 Q715.795 872.112 712.791 872.112 Q711.385 872.112 709.979 872.424 Q708.59 872.737 707.131 873.397 L707.131 860.376 Z" fill="#000000" fill-rule="evenodd" fill-opacity="1" /><path clip-path="url(#clip500)" d="M 0 0 M548.73 584.041 L554.459 584.041 L554.459 564.266 L548.227 565.516 L548.227 562.322 L554.425 561.072 L557.932 561.072 L557.932 584.041 L563.661 584.041 L563.661 586.992 L548.73 586.992 L548.73 584.041 Z" fill="#000000" fill-rule="evenodd" fill-opacity="1" /><path clip-path="url(#clip500)" d="M 0 0 M570.848 586.454 L570.848 583.259 Q572.168 583.884 573.522 584.214 Q574.876 584.544 576.178 584.544 Q579.65 584.544 581.473 582.218 Q583.313 579.874 583.574 575.117 Q582.567 576.61 581.022 577.409 Q579.477 578.207 577.602 578.207 Q573.713 578.207 571.438 575.864 Q569.182 573.502 569.182 569.423 Q569.182 565.43 571.543 563.016 Q573.904 560.603 577.827 560.603 Q582.324 560.603 584.685 564.058 Q587.063 567.496 587.063 574.058 Q587.063 580.186 584.147 583.85 Q581.247 587.495 576.334 587.495 Q575.015 587.495 573.661 587.235 Q572.307 586.975 570.848 586.454 M577.827 575.464 Q580.188 575.464 581.56 573.85 Q582.949 572.235 582.949 569.423 Q582.949 566.627 581.56 565.013 Q580.188 563.381 577.827 563.381 Q575.466 563.381 574.077 565.013 Q572.706 566.627 572.706 569.423 Q572.706 572.235 574.077 573.85 Q575.466 575.464 577.827 575.464 Z" fill="#000000" fill-rule="evenodd" fill-opacity="1" /><path clip-path="url(#clip500)" d="M 0 0 M552.445 683.809 L564.685 683.809 L564.685 686.76 L548.227 686.76 L548.227 683.809 Q550.223 681.743 553.661 678.27 Q557.116 674.781 558.001 673.774 Q559.685 671.881 560.345 670.579 Q561.022 669.26 561.022 667.993 Q561.022 665.927 559.564 664.625 Q558.123 663.323 555.796 663.323 Q554.147 663.323 552.307 663.895 Q550.484 664.468 548.4 665.632 L548.4 662.09 Q550.518 661.239 552.359 660.805 Q554.199 660.371 555.727 660.371 Q559.754 660.371 562.15 662.385 Q564.546 664.399 564.546 667.767 Q564.546 669.364 563.938 670.805 Q563.348 672.229 561.768 674.173 Q561.334 674.677 559.008 677.09 Q556.682 679.486 552.445 683.809 Z" fill="#000000" fill-rule="evenodd" fill-opacity="1" /><path clip-path="url(#clip500)" d="M 0 0 M579.546 663.149 Q576.838 663.149 575.466 665.823 Q574.112 668.479 574.112 673.826 Q574.112 679.156 575.466 681.829 Q576.838 684.486 579.546 684.486 Q582.272 684.486 583.626 681.829 Q584.997 679.156 584.997 673.826 Q584.997 668.479 583.626 665.823 Q582.272 663.149 579.546 663.149 M579.546 660.371 Q583.904 660.371 586.195 663.826 Q588.504 667.263 588.504 673.826 Q588.504 680.371 586.195 683.826 Q583.904 687.263 579.546 687.263 Q575.188 687.263 572.879 683.826 Q570.588 680.371 570.588 673.826 Q570.588 667.263 572.879 663.826 Q575.188 660.371 579.546 660.371 Z" fill="#000000" fill-rule="evenodd" fill-opacity="1" /><circle clip-path="url(#clip502)" cx="752.756" cy="145.812" r="14" fill="#0000ff" fill-rule="evenodd" fill-opacity="1" stroke="none"/>
<circle clip-path="url(#clip502)" cx="752.756" cy="245.58" r="14" fill="#0000ff" fill-rule="evenodd" fill-opacity="1" stroke="none"/>
<circle clip-path="url(#clip502)" cx="480.05" cy="445.116" r="14" fill="#0000ff" fill-rule="evenodd" fill-opacity="1" stroke="none"/>
<circle clip-path="url(#clip502)" cx="480.05" cy="544.884" r="14" fill="#0000ff" fill-rule="evenodd" fill-opacity="1" stroke="none"/>
<circle clip-path="url(#clip502)" cx="616.403" cy="445.116" r="14" fill="#0000ff" fill-rule="evenodd" fill-opacity="1" stroke="none"/>
<circle clip-path="url(#clip502)" cx="616.403" cy="544.884" r="14" fill="#0000ff" fill-rule="evenodd" fill-opacity="1" stroke="none"/>
<circle clip-path="url(#clip502)" cx="752.756" cy="445.116" r="14" fill="#0000ff" fill-rule="evenodd" fill-opacity="1" stroke="none"/>
<circle clip-path="url(#clip502)" cx="752.756" cy="544.884" r="14" fill="#0000ff" fill-rule="evenodd" fill-opacity="1" stroke="none"/>
<circle clip-path="url(#clip502)" cx="480.05" cy="145.812" r="14" fill="#0000ff" fill-rule="evenodd" fill-opacity="1" stroke="none"/>
<circle clip-path="url(#clip502)" cx="480.05" cy="245.58" r="14" fill="#0000ff" fill-rule="evenodd" fill-opacity="1" stroke="none"/>
<circle clip-path="url(#clip502)" cx="616.403" cy="145.812" r="14" fill="#0000ff" fill-rule="evenodd" fill-opacity="1" stroke="none"/>
<circle clip-path="url(#clip502)" cx="616.403" cy="245.58" r="14" fill="#0000ff" fill-rule="evenodd" fill-opacity="1" stroke="none"/>
<circle clip-path="url(#clip502)" cx="548.227" cy="295.464" r="14" fill="#0000ff" fill-rule="evenodd" fill-opacity="1" stroke="none"/>
<circle clip-path="url(#clip502)" cx="548.227" cy="395.232" r="14" fill="#0000ff" fill-rule="evenodd" fill-opacity="1" stroke="none"/>
<circle clip-path="url(#clip502)" cx="684.58" cy="295.464" r="14" fill="#0000ff" fill-rule="evenodd" fill-opacity="1" stroke="none"/>
<circle clip-path="url(#clip502)" cx="684.58" cy="395.232" r="14" fill="#0000ff" fill-rule="evenodd" fill-opacity="1" stroke="none"/>
<circle clip-path="url(#clip502)" cx="548.227" cy="95.9282" r="14" fill="#0000ff" fill-rule="evenodd" fill-opacity="1" stroke="none"/>
<circle clip-path="url(#clip502)" cx="684.58" cy="594.768" r="14" fill="#0000ff" fill-rule="evenodd" fill-opacity="1" stroke="none"/>
<circle clip-path="url(#clip502)" cx="684.58" cy="694.536" r="14" fill="#0000ff" fill-rule="evenodd" fill-opacity="1" stroke="none"/>
<path clip-path="url(#clip500)" d="M 0 0 M753.259 135.085 L758.989 135.085 L758.989 115.311 L752.756 116.561 L752.756 113.366 L758.954 112.116 L762.461 112.116 L762.461 135.085 L768.19 135.085 L768.19 138.036 L753.259 138.036 L753.259 135.085 Z" fill="#000000" fill-rule="evenodd" fill-opacity="1" /><path clip-path="url(#clip500)" d="M 0 0 M756.975 234.853 L769.214 234.853 L769.214 237.804 L752.756 237.804 L752.756 234.853 Q754.752 232.787 758.19 229.315 Q761.645 225.825 762.53 224.818 Q764.214 222.926 764.874 221.624 Q765.551 220.304 765.551 219.037 Q765.551 216.971 764.093 215.669 Q762.652 214.367 760.325 214.367 Q758.676 214.367 756.836 214.94 Q755.013 215.513 752.93 216.676 L752.93 213.134 Q755.048 212.283 756.888 211.849 Q758.728 211.415 760.256 211.415 Q764.284 211.415 766.679 213.429 Q769.075 215.443 769.075 218.811 Q769.075 220.408 768.468 221.849 Q767.877 223.273 766.297 225.217 Q765.863 225.721 763.537 228.134 Q761.211 230.53 756.975 234.853 Z" fill="#000000" fill-rule="evenodd" fill-opacity="1" /><path clip-path="url(#clip500)" d="M 0 0 M491.769 423.364 Q494.286 423.903 495.693 425.604 Q497.116 427.305 497.116 429.805 Q497.116 433.642 494.477 435.743 Q491.839 437.843 486.977 437.843 Q485.346 437.843 483.609 437.514 Q481.891 437.201 480.05 436.559 L480.05 433.173 Q481.509 434.024 483.245 434.458 Q484.981 434.892 486.873 434.892 Q490.172 434.892 491.891 433.59 Q493.627 432.288 493.627 429.805 Q493.627 427.514 492.012 426.229 Q490.415 424.927 487.55 424.927 L484.53 424.927 L484.53 422.045 L487.689 422.045 Q490.276 422.045 491.648 421.021 Q493.019 419.979 493.019 418.035 Q493.019 416.038 491.595 414.979 Q490.189 413.903 487.55 413.903 Q486.109 413.903 484.46 414.215 Q482.811 414.528 480.832 415.187 L480.832 412.062 Q482.828 411.507 484.564 411.229 Q486.318 410.951 487.863 410.951 Q491.856 410.951 494.182 412.774 Q496.509 414.58 496.509 417.67 Q496.509 419.823 495.276 421.316 Q494.043 422.791 491.769 423.364 Z" fill="#000000" fill-rule="evenodd" fill-opacity="1" /><path clip-path="url(#clip500)" d="M 0 0 M491.752 514.244 L482.898 528.08 L491.752 528.08 L491.752 514.244 M490.832 511.188 L495.241 511.188 L495.241 528.08 L498.939 528.08 L498.939 530.997 L495.241 530.997 L495.241 537.108 L491.752 537.108 L491.752 530.997 L480.05 530.997 L480.05 527.611 L490.832 511.188 Z" fill="#000000" fill-rule="evenodd" fill-opacity="1" /><path clip-path="url(#clip500)" d="M 0 0 M617.497 411.42 L631.264 411.42 L631.264 414.371 L620.709 414.371 L620.709 420.726 Q621.473 420.465 622.236 420.344 Q623 420.205 623.764 420.205 Q628.104 420.205 630.639 422.583 Q633.174 424.962 633.174 429.024 Q633.174 433.208 630.57 435.534 Q627.966 437.843 623.226 437.843 Q621.594 437.843 619.893 437.566 Q618.209 437.288 616.403 436.732 L616.403 433.208 Q617.966 434.059 619.632 434.475 Q621.299 434.892 623.157 434.892 Q626.16 434.892 627.914 433.312 Q629.667 431.732 629.667 429.024 Q629.667 426.316 627.914 424.736 Q626.16 423.156 623.157 423.156 Q621.75 423.156 620.344 423.469 Q618.955 423.781 617.497 424.441 L617.497 411.42 Z" fill="#000000" fill-rule="evenodd" fill-opacity="1" /><path clip-path="url(#clip500)" d="M 0 0 M625.657 522.75 Q623.295 522.75 621.907 524.365 Q620.535 525.98 620.535 528.792 Q620.535 531.587 621.907 533.219 Q623.295 534.834 625.657 534.834 Q628.018 534.834 629.389 533.219 Q630.778 531.587 630.778 528.792 Q630.778 525.98 629.389 524.365 Q628.018 522.75 625.657 522.75 M632.618 511.761 L632.618 514.955 Q631.299 514.33 629.945 514 Q628.608 513.671 627.289 513.671 Q623.816 513.671 621.976 516.014 Q620.153 518.358 619.893 523.098 Q620.917 521.587 622.462 520.789 Q624.007 519.973 625.865 519.973 Q629.771 519.973 632.028 522.351 Q634.302 524.712 634.302 528.792 Q634.302 532.785 631.941 535.198 Q629.58 537.611 625.657 537.611 Q621.16 537.611 618.782 534.174 Q616.403 530.719 616.403 524.174 Q616.403 518.028 619.32 514.382 Q622.236 510.719 627.15 510.719 Q628.469 510.719 629.806 510.98 Q631.16 511.24 632.618 511.761 Z" fill="#000000" fill-rule="evenodd" fill-opacity="1" /><path clip-path="url(#clip500)" d="M 0 0 M752.756 411.42 L769.422 411.42 L769.422 412.913 L760.013 437.34 L756.35 437.34 L765.204 414.371 L752.756 414.371 L752.756 411.42 Z" fill="#000000" fill-rule="evenodd" fill-opacity="1" /><path clip-path="url(#clip500)" d="M 0 0 M761.645 524.799 Q759.145 524.799 757.704 526.136 Q756.28 527.473 756.28 529.816 Q756.28 532.16 757.704 533.497 Q759.145 534.834 761.645 534.834 Q764.145 534.834 765.586 533.497 Q767.027 532.143 767.027 529.816 Q767.027 527.473 765.586 526.136 Q764.162 524.799 761.645 524.799 M758.138 523.306 Q755.881 522.75 754.614 521.205 Q753.364 519.66 753.364 517.438 Q753.364 514.33 755.568 512.525 Q757.791 510.719 761.645 510.719 Q765.516 510.719 767.721 512.525 Q769.926 514.33 769.926 517.438 Q769.926 519.66 768.659 521.205 Q767.409 522.75 765.169 523.306 Q767.704 523.896 769.11 525.615 Q770.534 527.334 770.534 529.816 Q770.534 533.584 768.225 535.598 Q765.933 537.611 761.645 537.611 Q757.357 537.611 755.048 535.598 Q752.756 533.584 752.756 529.816 Q752.756 527.334 754.18 525.615 Q755.603 523.896 758.138 523.306 M756.853 517.768 Q756.853 519.782 758.103 520.91 Q759.37 522.039 761.645 522.039 Q763.902 522.039 765.169 520.91 Q766.454 519.782 766.454 517.768 Q766.454 515.754 765.169 514.625 Q763.902 513.497 761.645 513.497 Q759.37 513.497 758.103 514.625 Q756.853 515.754 756.853 517.768 Z" fill="#000000" fill-rule="evenodd" fill-opacity="1" /><path clip-path="url(#clip500)" d="M 0 0 M481.717 137.498 L481.717 134.304 Q483.036 134.929 484.391 135.258 Q485.745 135.588 487.047 135.588 Q490.519 135.588 492.342 133.262 Q494.182 130.918 494.443 126.161 Q493.436 127.654 491.891 128.453 Q490.345 129.252 488.47 129.252 Q484.582 129.252 482.307 126.908 Q480.05 124.547 480.05 120.467 Q480.05 116.474 482.411 114.061 Q484.773 111.647 488.696 111.647 Q493.193 111.647 495.554 115.102 Q497.932 118.54 497.932 125.102 Q497.932 131.231 495.016 134.894 Q492.116 138.54 487.203 138.54 Q485.884 138.54 484.53 138.279 Q483.175 138.019 481.717 137.498 M488.696 126.508 Q491.057 126.508 492.429 124.894 Q493.818 123.279 493.818 120.467 Q493.818 117.672 492.429 116.057 Q491.057 114.425 488.696 114.425 Q486.335 114.425 484.946 116.057 Q483.575 117.672 483.575 120.467 Q483.575 123.279 484.946 124.894 Q486.335 126.508 488.696 126.508 Z" fill="#000000" fill-rule="evenodd" fill-opacity="1" /><path clip-path="url(#clip500)" d="M 0 0 M480.554 234.853 L486.283 234.853 L486.283 215.079 L480.05 216.329 L480.05 213.134 L486.248 211.884 L489.755 211.884 L489.755 234.853 L495.484 234.853 L495.484 237.804 L480.554 237.804 L480.554 234.853 Z" fill="#000000" fill-rule="evenodd" fill-opacity="1" /><path clip-path="url(#clip500)" d="M 0 0 M510.068 214.193 Q507.359 214.193 505.988 216.867 Q504.634 219.523 504.634 224.87 Q504.634 230.2 505.988 232.874 Q507.359 235.53 510.068 235.53 Q512.793 235.53 514.147 232.874 Q515.519 230.2 515.519 224.87 Q515.519 219.523 514.147 216.867 Q512.793 214.193 510.068 214.193 M510.068 211.415 Q514.425 211.415 516.717 214.87 Q519.026 218.308 519.026 224.87 Q519.026 231.415 516.717 234.87 Q514.425 238.308 510.068 238.308 Q505.71 238.308 503.401 234.87 Q501.109 231.415 501.109 224.87 Q501.109 218.308 503.401 214.87 Q505.71 211.415 510.068 211.415 Z" fill="#000000" fill-rule="evenodd" fill-opacity="1" /><path clip-path="url(#clip500)" d="M 0 0 M616.907 135.085 L622.636 135.085 L622.636 115.311 L616.403 116.561 L616.403 113.366 L622.601 112.116 L626.108 112.116 L626.108 135.085 L631.837 135.085 L631.837 138.036 L616.907 138.036 L616.907 135.085 Z" fill="#000000" fill-rule="evenodd" fill-opacity="1" /><path clip-path="url(#clip500)" d="M 0 0 M639.528 135.085 L645.257 135.085 L645.257 115.311 L639.025 116.561 L639.025 113.366 L645.222 112.116 L648.729 112.116 L648.729 135.085 L654.459 135.085 L654.459 138.036 L639.528 138.036 L639.528 135.085 Z" fill="#000000" fill-rule="evenodd" fill-opacity="1" /><path clip-path="url(#clip500)" d="M 0 0 M616.907 234.853 L622.636 234.853 L622.636 215.079 L616.403 216.329 L616.403 213.134 L622.601 211.884 L626.108 211.884 L626.108 234.853 L631.837 234.853 L631.837 237.804 L616.907 237.804 L616.907 234.853 Z" fill="#000000" fill-rule="evenodd" fill-opacity="1" /><path clip-path="url(#clip500)" d="M 0 0 M641.941 234.853 L654.181 234.853 L654.181 237.804 L637.722 237.804 L637.722 234.853 Q639.719 232.787 643.156 229.315 Q646.611 225.825 647.497 224.818 Q649.181 222.926 649.84 221.624 Q650.518 220.304 650.518 219.037 Q650.518 216.971 649.059 215.669 Q647.618 214.367 645.292 214.367 Q643.643 214.367 641.802 214.94 Q639.979 215.513 637.896 216.676 L637.896 213.134 Q640.014 212.283 641.854 211.849 Q643.695 211.415 645.222 211.415 Q649.25 211.415 651.646 213.429 Q654.042 215.443 654.042 218.811 Q654.042 220.408 653.434 221.849 Q652.844 223.273 651.264 225.217 Q650.83 225.721 648.504 228.134 Q646.177 230.53 641.941 234.853 Z" fill="#000000" fill-rule="evenodd" fill-opacity="1" /><path clip-path="url(#clip500)" d="M 0 0 M548.73 284.737 L554.459 284.737 L554.459 264.963 L548.227 266.213 L548.227 263.018 L554.425 261.768 L557.932 261.768 L557.932 284.737 L563.661 284.737 L563.661 287.688 L548.73 287.688 L548.73 284.737 Z" fill="#000000" fill-rule="evenodd" fill-opacity="1" /><path clip-path="url(#clip500)" d="M 0 0 M581.369 273.712 Q583.886 274.251 585.293 275.952 Q586.716 277.653 586.716 280.153 Q586.716 283.99 584.077 286.091 Q581.438 288.192 576.577 288.192 Q574.945 288.192 573.209 287.862 Q571.491 287.549 569.65 286.907 L569.65 283.521 Q571.109 284.372 572.845 284.806 Q574.581 285.24 576.473 285.24 Q579.772 285.24 581.49 283.938 Q583.227 282.636 583.227 280.153 Q583.227 277.862 581.612 276.577 Q580.015 275.275 577.15 275.275 L574.129 275.275 L574.129 272.393 L577.289 272.393 Q579.876 272.393 581.247 271.369 Q582.619 270.327 582.619 268.383 Q582.619 266.386 581.195 265.327 Q579.789 264.251 577.15 264.251 Q575.709 264.251 574.06 264.563 Q572.411 264.876 570.432 265.535 L570.432 262.41 Q572.428 261.855 574.164 261.577 Q575.918 261.299 577.463 261.299 Q581.456 261.299 583.782 263.122 Q586.109 264.928 586.109 268.018 Q586.109 270.171 584.876 271.664 Q583.643 273.14 581.369 273.712 Z" fill="#000000" fill-rule="evenodd" fill-opacity="1" /><path clip-path="url(#clip500)" d="M 0 0 M548.73 384.505 L554.459 384.505 L554.459 364.73 L548.227 365.98 L548.227 362.786 L554.425 361.536 L557.932 361.536 L557.932 384.505 L563.661 384.505 L563.661 387.456 L548.73 387.456 L548.73 384.505 Z" fill="#000000" fill-rule="evenodd" fill-opacity="1" /><path clip-path="url(#clip500)" d="M 0 0 M580.379 364.592 L571.525 378.428 L580.379 378.428 L580.379 364.592 M579.459 361.536 L583.869 361.536 L583.869 378.428 L587.567 378.428 L587.567 381.345 L583.869 381.345 L583.869 387.456 L580.379 387.456 L580.379 381.345 L568.678 381.345 L568.678 377.96 L579.459 361.536 Z" fill="#000000" fill-rule="evenodd" fill-opacity="1" /><path clip-path="url(#clip500)" d="M 0 0 M685.083 284.737 L690.812 284.737 L690.812 264.963 L684.58 266.213 L684.58 263.018 L690.777 261.768 L694.284 261.768 L694.284 284.737 L700.013 284.737 L700.013 287.688 L685.083 287.688 L685.083 284.737 Z" fill="#000000" fill-rule="evenodd" fill-opacity="1" /><path clip-path="url(#clip500)" d="M 0 0 M707.131 261.768 L720.899 261.768 L720.899 264.719 L710.343 264.719 L710.343 271.074 Q711.107 270.813 711.871 270.692 Q712.635 270.553 713.399 270.553 Q717.739 270.553 720.274 272.931 Q722.808 275.31 722.808 279.372 Q722.808 283.556 720.204 285.883 Q717.6 288.192 712.861 288.192 Q711.229 288.192 709.527 287.914 Q707.843 287.636 706.038 287.08 L706.038 283.556 Q707.6 284.407 709.267 284.824 Q710.934 285.24 712.791 285.24 Q715.795 285.24 717.548 283.66 Q719.302 282.081 719.302 279.372 Q719.302 276.664 717.548 275.084 Q715.795 273.504 712.791 273.504 Q711.385 273.504 709.979 273.817 Q708.59 274.129 707.131 274.789 L707.131 261.768 Z" fill="#000000" fill-rule="evenodd" fill-opacity="1" /><path clip-path="url(#clip500)" d="M 0 0 M685.083 384.505 L690.812 384.505 L690.812 364.73 L684.58 365.98 L684.58 362.786 L690.777 361.536 L694.284 361.536 L694.284 384.505 L700.013 384.505 L700.013 387.456 L685.083 387.456 L685.083 384.505 Z" fill="#000000" fill-rule="evenodd" fill-opacity="1" /><path clip-path="url(#clip500)" d="M 0 0 M715.031 373.098 Q712.67 373.098 711.281 374.713 Q709.909 376.328 709.909 379.14 Q709.909 381.935 711.281 383.567 Q712.67 385.182 715.031 385.182 Q717.392 385.182 718.763 383.567 Q720.152 381.935 720.152 379.14 Q720.152 376.328 718.763 374.713 Q717.392 373.098 715.031 373.098 M721.993 362.109 L721.993 365.303 Q720.673 364.678 719.319 364.349 Q717.982 364.019 716.663 364.019 Q713.19 364.019 711.35 366.362 Q709.527 368.706 709.267 373.446 Q710.291 371.935 711.836 371.137 Q713.381 370.321 715.239 370.321 Q719.145 370.321 721.402 372.699 Q723.677 375.06 723.677 379.14 Q723.677 383.133 721.315 385.546 Q718.954 387.96 715.031 387.96 Q710.534 387.96 708.156 384.522 Q705.777 381.067 705.777 374.522 Q705.777 368.376 708.694 364.73 Q711.611 361.067 716.524 361.067 Q717.843 361.067 719.18 361.328 Q720.534 361.588 721.993 362.109 Z" fill="#000000" fill-rule="evenodd" fill-opacity="1" /><path clip-path="url(#clip500)" d="M 0 0 M552.445 85.2008 L564.685 85.2008 L564.685 88.1522 L548.227 88.1522 L548.227 85.2008 Q550.223 83.1349 553.661 79.6627 Q557.116 76.1731 558.001 75.1662 Q559.685 73.2738 560.345 71.9718 Q561.022 70.6523 561.022 69.385 Q561.022 67.319 559.564 66.0169 Q558.123 64.7148 555.796 64.7148 Q554.147 64.7148 552.307 65.2878 Q550.484 65.8607 548.4 67.0239 L548.4 63.4822 Q550.518 62.6315 552.359 62.1975 Q554.199 61.7635 555.727 61.7635 Q559.754 61.7635 562.15 63.7774 Q564.546 65.7912 564.546 69.1593 Q564.546 70.7565 563.938 72.1974 Q563.348 73.621 561.768 75.5655 Q561.334 76.069 559.008 78.4821 Q556.682 80.878 552.445 85.2008 Z" fill="#000000" fill-rule="evenodd" fill-opacity="1" /><path clip-path="url(#clip500)" d="M 0 0 M579.546 64.5412 Q576.838 64.5412 575.466 67.2148 Q574.112 69.8711 574.112 75.2183 Q574.112 80.5481 575.466 83.2217 Q576.838 85.8779 579.546 85.8779 Q582.272 85.8779 583.626 83.2217 Q584.997 80.5481 584.997 75.2183 Q584.997 69.8711 583.626 67.2148 Q582.272 64.5412 579.546 64.5412 M579.546 61.7635 Q583.904 61.7635 586.195 65.2183 Q588.504 68.6558 588.504 75.2183 Q588.504 81.7634 586.195 85.2182 Q583.904 88.6557 579.546 88.6557 Q575.188 88.6557 572.879 85.2182 Q570.588 81.7634 570.588 75.2183 Q570.588 68.6558 572.879 65.2183 Q575.188 61.7635 579.546 61.7635 Z" fill="#000000" fill-rule="evenodd" fill-opacity="1" /><path clip-path="url(#clip500)" d="M 0 0 M688.798 584.041 L701.038 584.041 L701.038 586.992 L684.58 586.992 L684.58 584.041 Q686.576 581.975 690.014 578.502 Q693.468 575.013 694.354 574.006 Q696.038 572.114 696.698 570.811 Q697.375 569.492 697.375 568.225 Q697.375 566.159 695.916 564.857 Q694.475 563.555 692.149 563.555 Q690.5 563.555 688.659 564.127 Q686.836 564.7 684.753 565.864 L684.753 562.322 Q686.871 561.471 688.711 561.037 Q690.552 560.603 692.079 560.603 Q696.107 560.603 698.503 562.617 Q700.899 564.631 700.899 567.999 Q700.899 569.596 700.291 571.037 Q699.701 572.461 698.121 574.405 Q697.687 574.909 695.361 577.322 Q693.034 579.718 688.798 584.041 Z" fill="#000000" fill-rule="evenodd" fill-opacity="1" /><path clip-path="url(#clip500)" d="M 0 0 M709.006 584.041 L714.736 584.041 L714.736 564.266 L708.503 565.516 L708.503 562.322 L714.701 561.072 L718.208 561.072 L718.208 584.041 L723.937 584.041 L723.937 586.992 L709.006 586.992 L709.006 584.041 Z" fill="#000000" fill-rule="evenodd" fill-opacity="1" /><path clip-path="url(#clip500)" d="M 0 0 M688.798 683.809 L701.038 683.809 L701.038 686.76 L684.58 686.76 L684.58 683.809 Q686.576 681.743 690.014 678.27 Q693.468 674.781 694.354 673.774 Q696.038 671.881 696.698 670.579 Q697.375 669.26 697.375 667.993 Q697.375 665.927 695.916 664.625 Q694.475 663.323 692.149 663.323 Q690.5 663.323 688.659 663.895 Q686.836 664.468 684.753 665.632 L684.753 662.09 Q686.871 661.239 688.711 660.805 Q690.552 660.371 692.079 660.371 Q696.107 660.371 698.503 662.385 Q700.899 664.399 700.899 667.767 Q700.899 669.364 700.291 670.805 Q699.701 672.229 698.121 674.173 Q697.687 674.677 695.361 677.09 Q693.034 679.486 688.798 683.809 Z" fill="#000000" fill-rule="evenodd" fill-opacity="1" /><path clip-path="url(#clip500)" d="M 0 0 M711.42 683.809 L723.659 683.809 L723.659 686.76 L707.201 686.76 L707.201 683.809 Q709.197 681.743 712.635 678.27 Q716.09 674.781 716.975 673.774 Q718.659 671.881 719.319 670.579 Q719.996 669.26 719.996 667.993 Q719.996 665.927 718.538 664.625 Q717.097 663.323 714.77 663.323 Q713.121 663.323 711.281 663.895 Q709.458 664.468 707.375 665.632 L707.375 662.09 Q709.493 661.239 711.333 660.805 Q713.173 660.371 714.701 660.371 Q718.729 660.371 721.124 662.385 Q723.52 664.399 723.52 667.767 Q723.52 669.364 722.913 670.805 Q722.322 672.229 720.743 674.173 Q720.309 674.677 717.982 677.09 Q715.656 679.486 711.42 683.809 Z" fill="#000000" fill-rule="evenodd" fill-opacity="1" /><circle clip-path="url(#clip502)" cx="684.58" cy="95.9282" r="14" fill="#0000ff" fill-rule="evenodd" fill-opacity="1" stroke="none"/>
<path clip-path="url(#clip500)" d="M 0 0 M688.798 85.2008 L701.038 85.2008 L701.038 88.1522 L684.58 88.1522 L684.58 85.2008 Q686.576 83.1349 690.014 79.6627 Q693.468 76.1731 694.354 75.1662 Q696.038 73.2738 696.698 71.9718 Q697.375 70.6523 697.375 69.385 Q697.375 67.319 695.916 66.0169 Q694.475 64.7148 692.149 64.7148 Q690.5 64.7148 688.659 65.2878 Q686.836 65.8607 684.753 67.0239 L684.753 63.4822 Q686.871 62.6315 688.711 62.1975 Q690.552 61.7635 692.079 61.7635 Q696.107 61.7635 698.503 63.7774 Q700.899 65.7912 700.899 69.1593 Q700.899 70.7565 700.291 72.1974 Q699.701 73.621 698.121 75.5655 Q697.687 76.069 695.361 78.4821 Q693.034 80.878 688.798 85.2008 Z" fill="#000000" fill-rule="evenodd" fill-opacity="1" /><path clip-path="url(#clip500)" d="M 0 0 M711.42 85.2008 L723.659 85.2008 L723.659 88.1522 L707.201 88.1522 L707.201 85.2008 Q709.197 83.1349 712.635 79.6627 Q716.09 76.1731 716.975 75.1662 Q718.659 73.2738 719.319 71.9718 Q719.996 70.6523 719.996 69.385 Q719.996 67.319 718.538 66.0169 Q717.097 64.7148 714.77 64.7148 Q713.121 64.7148 711.281 65.2878 Q709.458 65.8607 707.375 67.0239 L707.375 63.4822 Q709.493 62.6315 711.333 62.1975 Q713.173 61.7635 714.701 61.7635 Q718.729 61.7635 721.124 63.7774 Q723.52 65.7912 723.52 69.1593 Q723.52 70.7565 722.913 72.1974 Q722.322 73.621 720.743 75.5655 Q720.309 76.069 717.982 78.4821 Q715.656 80.878 711.42 85.2008 Z" fill="#000000" fill-rule="evenodd" fill-opacity="1" /></svg>
