<?xml version="1.0" encoding="utf-8"?>
<svg xmlns="http://www.w3.org/2000/svg" xmlns:xlink="http://www.w3.org/1999/xlink" width="200" height="250" viewBox="0 0 800 1000">
<defs>
  <clipPath id="clip020">
    <rect x="0" y="0" width="800" height="1000"/>
  </clipPath>
</defs>
<path clip-path="url(#clip020)" d="
M0 1000 L800 1000 L800 0 L0 0  Z
  " fill="#ffffff" fill-rule="evenodd" fill-opacity="1"/>
<defs>
  <clipPath id="clip021">
    <rect x="200" y="100" width="701" height="701"/>
  </clipPath>
</defs>
<path clip-path="url(#clip020)" d="
M70.9921 927.008 L752.756 927.008 L752.756 62.9921 L70.9921 62.9921  Z
  " fill="#ffffff" fill-rule="evenodd" fill-opacity="1"/>
<defs>
  <clipPath id="clip022">
    <rect x="70" y="62" width="683" height="865"/>
  </clipPath>
</defs>
<polyline clip-path="url(#clip020)" style="stroke:#000000; stroke-width:4; stroke-opacity:1; fill:none" points="
  70.9921,927.008 752.756,927.008 
  "/>
<polyline clip-path="url(#clip020)" style="stroke:#000000; stroke-width:4; stroke-opacity:1; fill:none" points="
  139.169,927.008 139.169,916.64 
  "/>
<polyline clip-path="url(#clip020)" style="stroke:#000000; stroke-width:4; stroke-opacity:1; fill:none" points="
  275.521,927.008 275.521,916.64 
  "/>
<polyline clip-path="url(#clip020)" style="stroke:#000000; stroke-width:4; stroke-opacity:1; fill:none" points="
  411.874,927.008 411.874,916.64 
  "/>
<polyline clip-path="url(#clip020)" style="stroke:#000000; stroke-width:4; stroke-opacity:1; fill:none" points="
  548.227,927.008 548.227,916.64 
  "/>
<polyline clip-path="url(#clip020)" style="stroke:#000000; stroke-width:4; stroke-opacity:1; fill:none" points="
  684.58,927.008 684.58,916.64 
  "/>
<path clip-path="url(#clip020)" d="M 0 0 M111.622 959.651 L141.298 959.651 L141.298 963.586 L111.622 963.586 L111.622 959.651 Z" fill="#000000" fill-rule="evenodd" fill-opacity="1" /><path clip-path="url(#clip020)" d="M 0 0 M150.395 972.545 L166.715 972.545 L166.715 976.48 L144.77 976.48 L144.77 972.545 Q147.432 969.79 152.016 965.16 Q156.622 960.508 157.803 959.165 Q160.048 956.642 160.928 954.906 Q161.83 953.147 161.83 951.457 Q161.83 948.702 159.886 946.966 Q157.965 945.23 154.863 945.23 Q152.664 945.23 150.21 945.994 Q147.78 946.758 145.002 948.309 L145.002 943.587 Q147.826 942.452 150.28 941.874 Q152.733 941.295 154.77 941.295 Q160.141 941.295 163.335 943.98 Q166.529 946.665 166.529 951.156 Q166.529 953.286 165.719 955.207 Q164.932 957.105 162.826 959.698 Q162.247 960.369 159.145 963.586 Q156.043 966.781 150.395 972.545 Z" fill="#000000" fill-rule="evenodd" fill-opacity="1" /><path clip-path="url(#clip020)" d="M 0 0 M247.79 959.651 L277.466 959.651 L277.466 963.586 L247.79 963.586 L247.79 959.651 Z" fill="#000000" fill-rule="evenodd" fill-opacity="1" /><path clip-path="url(#clip020)" d="M 0 0 M283.345 972.545 L290.984 972.545 L290.984 946.179 L282.674 947.846 L282.674 943.587 L290.938 941.92 L295.614 941.92 L295.614 972.545 L303.253 972.545 L303.253 976.48 L283.345 976.48 L283.345 972.545 Z" fill="#000000" fill-rule="evenodd" fill-opacity="1" /><path clip-path="url(#clip020)" d="M 0 0 M411.874 944.999 Q408.263 944.999 406.434 948.563 Q404.629 952.105 404.629 959.235 Q404.629 966.341 406.434 969.906 Q408.263 973.447 411.874 973.447 Q415.508 973.447 417.314 969.906 Q419.142 966.341 419.142 959.235 Q419.142 952.105 417.314 948.563 Q415.508 944.999 411.874 944.999 M411.874 941.295 Q417.684 941.295 420.74 945.901 Q423.818 950.485 423.818 959.235 Q423.818 967.961 420.74 972.568 Q417.684 977.151 411.874 977.151 Q406.064 977.151 402.985 972.568 Q399.93 967.961 399.93 959.235 Q399.93 950.485 402.985 945.901 Q406.064 941.295 411.874 941.295 Z" fill="#000000" fill-rule="evenodd" fill-opacity="1" /><path clip-path="url(#clip020)" d="M 0 0 M538.609 972.545 L546.248 972.545 L546.248 946.179 L537.937 947.846 L537.937 943.587 L546.201 941.92 L550.877 941.92 L550.877 972.545 L558.516 972.545 L558.516 976.48 L538.609 976.48 L538.609 972.545 Z" fill="#000000" fill-rule="evenodd" fill-opacity="1" /><path clip-path="url(#clip020)" d="M 0 0 M679.232 972.545 L695.552 972.545 L695.552 976.48 L673.607 976.48 L673.607 972.545 Q676.269 969.79 680.853 965.16 Q685.459 960.508 686.64 959.165 Q688.885 956.642 689.765 954.906 Q690.667 953.147 690.667 951.457 Q690.667 948.702 688.723 946.966 Q686.802 945.23 683.7 945.23 Q681.501 945.23 679.047 945.994 Q676.617 946.758 673.839 948.309 L673.839 943.587 Q676.663 942.452 679.117 941.874 Q681.57 941.295 683.607 941.295 Q688.978 941.295 692.172 943.98 Q695.367 946.665 695.367 951.156 Q695.367 953.286 694.556 955.207 Q693.769 957.105 691.663 959.698 Q691.084 960.369 687.982 963.586 Q684.88 966.781 679.232 972.545 Z" fill="#000000" fill-rule="evenodd" fill-opacity="1" /><polyline clip-path="url(#clip020)" style="stroke:#000000; stroke-width:4; stroke-opacity:1; fill:none" points="
  70.9921,927.008 70.9921,62.9921 
  "/>
<polyline clip-path="url(#clip020)" style="stroke:#000000; stroke-width:4; stroke-opacity:1; fill:none" points="
  70.9921,840.606 79.1733,840.606 
  "/>
<polyline clip-path="url(#clip020)" style="stroke:#000000; stroke-width:4; stroke-opacity:1; fill:none" points="
  70.9921,667.803 79.1733,667.803 
  "/>
<polyline clip-path="url(#clip020)" style="stroke:#000000; stroke-width:4; stroke-opacity:1; fill:none" points="
  70.9921,495 79.1733,495 
  "/>
<polyline clip-path="url(#clip020)" style="stroke:#000000; stroke-width:4; stroke-opacity:1; fill:none" points="
  70.9921,322.197 79.1733,322.197 
  "/>
<polyline clip-path="url(#clip020)" style="stroke:#000000; stroke-width:4; stroke-opacity:1; fill:none" points="
  70.9921,149.394 79.1733,149.394 
  "/>
<path clip-path="url(#clip020)" d="M 0 0 M0.899829 841.058 L30.5756 841.058 L30.5756 844.993 L0.899829 844.993 L0.899829 841.058 Z" fill="#000000" fill-rule="evenodd" fill-opacity="1" /><path clip-path="url(#clip020)" d="M 0 0 M39.6728 853.951 L55.9921 853.951 L55.9921 857.886 L34.0478 857.886 L34.0478 853.951 Q36.7098 851.197 41.2931 846.567 Q45.8996 841.914 47.0801 840.572 Q49.3255 838.048 50.2051 836.312 Q51.1079 834.553 51.1079 832.863 Q51.1079 830.109 49.1635 828.373 Q47.2422 826.636 44.1403 826.636 Q41.9413 826.636 39.4876 827.4 Q37.057 828.164 34.2793 829.715 L34.2793 824.993 Q37.1033 823.859 39.557 823.28 Q42.0107 822.701 44.0477 822.701 Q49.4181 822.701 52.6125 825.386 Q55.8069 828.072 55.8069 832.562 Q55.8069 834.692 54.9968 836.613 Q54.2097 838.511 52.1033 841.104 Q51.5246 841.775 48.4227 844.993 Q45.3209 848.187 39.6728 853.951 Z" fill="#000000" fill-rule="evenodd" fill-opacity="1" /><path clip-path="url(#clip020)" d="M 0 0 M0.52946 668.255 L30.2052 668.255 L30.2052 672.19 L0.52946 672.19 L0.52946 668.255 Z" fill="#000000" fill-rule="evenodd" fill-opacity="1" /><path clip-path="url(#clip020)" d="M 0 0 M36.0848 681.148 L43.7237 681.148 L43.7237 654.782 L35.4135 656.449 L35.4135 652.19 L43.6774 650.523 L48.3533 650.523 L48.3533 681.148 L55.9921 681.148 L55.9921 685.083 L36.0848 685.083 L36.0848 681.148 Z" fill="#000000" fill-rule="evenodd" fill-opacity="1" /><path clip-path="url(#clip020)" d="M 0 0 M44.0477 480.799 Q40.4367 480.799 38.608 484.363 Q36.8024 487.905 36.8024 495.035 Q36.8024 502.141 38.608 505.706 Q40.4367 509.248 44.0477 509.248 Q47.682 509.248 49.4875 505.706 Q51.3162 502.141 51.3162 495.035 Q51.3162 487.905 49.4875 484.363 Q47.682 480.799 44.0477 480.799 M44.0477 477.095 Q49.8579 477.095 52.9134 481.701 Q55.9921 486.285 55.9921 495.035 Q55.9921 503.762 52.9134 508.368 Q49.8579 512.951 44.0477 512.951 Q38.2376 512.951 35.1589 508.368 Q32.1034 503.762 32.1034 495.035 Q32.1034 486.285 35.1589 481.701 Q38.2376 477.095 44.0477 477.095 Z" fill="#000000" fill-rule="evenodd" fill-opacity="1" /><path clip-path="url(#clip020)" d="M 0 0 M36.0848 335.542 L43.7237 335.542 L43.7237 309.176 L35.4135 310.843 L35.4135 306.584 L43.6774 304.917 L48.3533 304.917 L48.3533 335.542 L55.9921 335.542 L55.9921 339.477 L36.0848 339.477 L36.0848 335.542 Z" fill="#000000" fill-rule="evenodd" fill-opacity="1" /><path clip-path="url(#clip020)" d="M 0 0 M39.6728 162.739 L55.9921 162.739 L55.9921 166.674 L34.0478 166.674 L34.0478 162.739 Q36.7098 159.984 41.2931 155.354 Q45.8996 150.702 47.0801 149.359 Q49.3255 146.836 50.2051 145.1 Q51.1079 143.34 51.1079 141.651 Q51.1079 138.896 49.1635 137.16 Q47.2422 135.424 44.1403 135.424 Q41.9413 135.424 39.4876 136.188 Q37.057 136.952 34.2793 138.503 L34.2793 133.78 Q37.1033 132.646 39.557 132.067 Q42.0107 131.489 44.0477 131.489 Q49.4181 131.489 52.6125 134.174 Q55.8069 136.859 55.8069 141.35 Q55.8069 143.479 54.9968 145.401 Q54.2097 147.299 52.1033 149.891 Q51.5246 150.563 48.4227 153.78 Q45.3209 156.975 39.6728 162.739 Z" fill="#000000" fill-rule="evenodd" fill-opacity="1" /><path clip-path="url(#clip020)" d="M 0 0 M361.585 5.45367 L371.4 5.45367 L371.4 8.76384 L365.844 8.76384 L365.844 44.4118 L371.4 44.4118 L371.4 47.722 L361.585 47.722 L361.585 5.45367 Z" fill="#000000" fill-rule="evenodd" fill-opacity="1" /><path clip-path="url(#clip020)" d="M 0 0 M380.497 37.5368 L396.816 37.5368 L396.816 41.472 L374.872 41.472 L374.872 37.5368 Q377.534 34.7822 382.117 30.1526 Q386.724 25.4999 387.904 24.1573 Q390.15 21.6341 391.029 19.898 Q391.932 18.1388 391.932 16.449 Q391.932 13.6944 389.988 11.9583 Q388.066 10.2222 384.964 10.2222 Q382.765 10.2222 380.312 10.9861 Q377.881 11.7499 375.103 13.3009 L375.103 8.57866 Q377.927 7.4444 380.381 6.8657 Q382.835 6.287 384.872 6.287 Q390.242 6.287 393.437 8.97217 Q396.631 11.6573 396.631 16.1481 Q396.631 18.2777 395.821 20.199 Q395.034 22.0971 392.927 24.6897 Q392.349 25.361 389.247 28.5786 Q386.145 31.773 380.497 37.5368 Z" fill="#000000" fill-rule="evenodd" fill-opacity="1" /><path clip-path="url(#clip020)" d="M 0 0 M402.372 35.5924 L407.256 35.5924 L407.256 39.5739 L403.46 46.9812 L400.474 46.9812 L402.372 39.5739 L402.372 35.5924 Z" fill="#000000" fill-rule="evenodd" fill-opacity="1" /><path clip-path="url(#clip020)" d="M 0 0 M431.423 37.5368 L447.742 37.5368 L447.742 41.472 L425.798 41.472 L425.798 37.5368 Q428.46 34.7822 433.043 30.1526 Q437.649 25.4999 438.83 24.1573 Q441.075 21.6341 441.955 19.898 Q442.858 18.1388 442.858 16.449 Q442.858 13.6944 440.913 11.9583 Q438.992 10.2222 435.89 10.2222 Q433.691 10.2222 431.237 10.9861 Q428.807 11.7499 426.029 13.3009 L426.029 8.57866 Q428.853 7.4444 431.307 6.8657 Q433.76 6.287 435.797 6.287 Q441.168 6.287 444.362 8.97217 Q447.557 11.6573 447.557 16.1481 Q447.557 18.2777 446.747 20.199 Q445.959 22.0971 443.853 24.6897 Q443.274 25.361 440.172 28.5786 Q437.071 31.773 431.423 37.5368 Z" fill="#000000" fill-rule="evenodd" fill-opacity="1" /><path clip-path="url(#clip020)" d="M 0 0 M462.163 5.45367 L462.163 47.722 L452.348 47.722 L452.348 44.4118 L457.881 44.4118 L457.881 8.76384 L452.348 8.76384 L452.348 5.45367 L462.163 5.45367 Z" fill="#000000" fill-rule="evenodd" fill-opacity="1" /><circle clip-path="url(#clip022)" cx="139.169" cy="894.072" r="14" fill="#0000ff" fill-rule="evenodd" fill-opacity="1" stroke="none"/>
<path clip-path="url(#clip020)" d="M 0 0 M143.387 883.344 L155.627 883.344 L155.627 886.296 L139.169 886.296 L139.169 883.344 Q141.165 881.278 144.603 877.806 Q148.057 874.317 148.943 873.31 Q150.627 871.417 151.286 870.115 Q151.964 868.796 151.964 867.529 Q151.964 865.463 150.505 864.16 Q149.064 862.858 146.738 862.858 Q145.089 862.858 143.248 863.431 Q141.425 864.004 139.342 865.167 L139.342 861.626 Q141.46 860.775 143.3 860.341 Q145.141 859.907 146.668 859.907 Q150.696 859.907 153.092 861.921 Q155.488 863.935 155.488 867.303 Q155.488 868.9 154.88 870.341 Q154.29 871.765 152.71 873.709 Q152.276 874.213 149.95 876.626 Q147.623 879.022 143.387 883.344 Z" fill="#000000" fill-rule="evenodd" fill-opacity="1" /><path clip-path="url(#clip020)" d="M 0 0 M160.036 883.344 L165.766 883.344 L165.766 863.57 L159.533 864.82 L159.533 861.626 L165.731 860.376 L169.238 860.376 L169.238 883.344 L174.967 883.344 L174.967 886.296 L160.036 886.296 L160.036 883.344 Z" fill="#000000" fill-rule="evenodd" fill-opacity="1" /><circle clip-path="url(#clip022)" cx="207.345" cy="445.116" r="14" fill="#0000ff" fill-rule="evenodd" fill-opacity="1" stroke="none"/>
<circle clip-path="url(#clip022)" cx="207.345" cy="544.884" r="14" fill="#0000ff" fill-rule="evenodd" fill-opacity="1" stroke="none"/>
<circle clip-path="url(#clip022)" cx="343.698" cy="445.116" r="14" fill="#0000ff" fill-rule="evenodd" fill-opacity="1" stroke="none"/>
<circle clip-path="url(#clip022)" cx="343.698" cy="544.884" r="14" fill="#0000ff" fill-rule="evenodd" fill-opacity="1" stroke="none"/>
<circle clip-path="url(#clip022)" cx="70.9921" cy="744.42" r="14" fill="#0000ff" fill-rule="evenodd" fill-opacity="1" stroke="none"/>
<circle clip-path="url(#clip022)" cx="70.9921" cy="844.188" r="14" fill="#0000ff" fill-rule="evenodd" fill-opacity="1" stroke="none"/>
<circle clip-path="url(#clip022)" cx="207.345" cy="744.42" r="14" fill="#0000ff" fill-rule="evenodd" fill-opacity="1" stroke="none"/>
<circle clip-path="url(#clip022)" cx="207.345" cy="844.188" r="14" fill="#0000ff" fill-rule="evenodd" fill-opacity="1" stroke="none"/>
<circle clip-path="url(#clip022)" cx="343.698" cy="744.42" r="14" fill="#0000ff" fill-rule="evenodd" fill-opacity="1" stroke="none"/>
<circle clip-path="url(#clip022)" cx="343.698" cy="844.188" r="14" fill="#0000ff" fill-rule="evenodd" fill-opacity="1" stroke="none"/>
<circle clip-path="url(#clip022)" cx="70.9921" cy="445.116" r="14" fill="#0000ff" fill-rule="evenodd" fill-opacity="1" stroke="none"/>
<circle clip-path="url(#clip022)" cx="70.9921" cy="544.884" r="14" fill="#0000ff" fill-rule="evenodd" fill-opacity="1" stroke="none"/>
<circle clip-path="url(#clip022)" cx="411.874" cy="894.072" r="14" fill="#0000ff" fill-rule="evenodd" fill-opacity="1" stroke="none"/>
<circle clip-path="url(#clip022)" cx="139.169" cy="594.768" r="14" fill="#0000ff" fill-rule="evenodd" fill-opacity="1" stroke="none"/>
<circle clip-path="url(#clip022)" cx="139.169" cy="694.536" r="14" fill="#0000ff" fill-rule="evenodd" fill-opacity="1" stroke="none"/>
<circle clip-path="url(#clip022)" cx="275.521" cy="594.768" r="14" fill="#0000ff" fill-rule="evenodd" fill-opacity="1" stroke="none"/>
<circle clip-path="url(#clip022)" cx="275.521" cy="694.536" r="14" fill="#0000ff" fill-rule="evenodd" fill-opacity="1" stroke="none"/>
<circle clip-path="url(#clip022)" cx="411.874" cy="594.768" r="14" fill="#0000ff" fill-rule="evenodd" fill-opacity="1" stroke="none"/>
<circle clip-path="url(#clip022)" cx="411.874" cy="694.536" r="14" fill="#0000ff" fill-rule="evenodd" fill-opacity="1" stroke="none"/>
<circle clip-path="url(#clip022)" cx="139.169" cy="295.464" r="14" fill="#0000ff" fill-rule="evenodd" fill-opacity="1" stroke="none"/>
<circle clip-path="url(#clip022)" cx="139.169" cy="395.232" r="14" fill="#0000ff" fill-rule="evenodd" fill-opacity="1" stroke="none"/>
<circle clip-path="url(#clip022)" cx="275.521" cy="894.072" r="14" fill="#0000ff" fill-rule="evenodd" fill-opacity="1" stroke="none"/>
<path clip-path="url(#clip020)" d="M 0 0 M207.848 434.389 L213.577 434.389 L213.577 414.614 L207.345 415.864 L207.345 412.67 L213.543 411.42 L217.05 411.42 L217.05 434.389 L222.779 434.389 L222.779 437.34 L207.848 437.34 L207.848 434.389 Z" fill="#000000" fill-rule="evenodd" fill-opacity="1" /><path clip-path="url(#clip020)" d="M 0 0 M211.564 534.157 L223.803 534.157 L223.803 537.108 L207.345 537.108 L207.345 534.157 Q209.341 532.091 212.779 528.618 Q216.234 525.129 217.119 524.122 Q218.803 522.23 219.463 520.928 Q220.14 519.608 220.14 518.341 Q220.14 516.275 218.682 514.973 Q217.241 513.671 214.914 513.671 Q213.265 513.671 211.425 514.244 Q209.602 514.816 207.518 515.98 L207.518 512.438 Q209.637 511.587 211.477 511.153 Q213.317 510.719 214.845 510.719 Q218.873 510.719 221.268 512.733 Q223.664 514.747 223.664 518.115 Q223.664 519.712 223.057 521.153 Q222.466 522.577 220.886 524.521 Q220.452 525.025 218.126 527.438 Q215.8 529.834 211.564 534.157 Z" fill="#000000" fill-rule="evenodd" fill-opacity="1" /><path clip-path="url(#clip020)" d="M 0 0 M355.416 423.364 Q357.934 423.903 359.34 425.604 Q360.764 427.305 360.764 429.805 Q360.764 433.642 358.125 435.743 Q355.486 437.843 350.625 437.843 Q348.993 437.843 347.257 437.514 Q345.538 437.201 343.698 436.559 L343.698 433.173 Q345.156 434.024 346.892 434.458 Q348.628 434.892 350.521 434.892 Q353.819 434.892 355.538 433.59 Q357.274 432.288 357.274 429.805 Q357.274 427.514 355.659 426.229 Q354.062 424.927 351.198 424.927 L348.177 424.927 L348.177 422.045 L351.336 422.045 Q353.923 422.045 355.295 421.021 Q356.666 419.979 356.666 418.035 Q356.666 416.038 355.243 414.979 Q353.836 413.903 351.198 413.903 Q349.757 413.903 348.107 414.215 Q346.458 414.528 344.479 415.187 L344.479 412.062 Q346.475 411.507 348.212 411.229 Q349.965 410.951 351.51 410.951 Q355.503 410.951 357.83 412.774 Q360.156 414.58 360.156 417.67 Q360.156 419.823 358.923 421.316 Q357.691 422.791 355.416 423.364 Z" fill="#000000" fill-rule="evenodd" fill-opacity="1" /><path clip-path="url(#clip020)" d="M 0 0 M355.399 514.244 L346.545 528.08 L355.399 528.08 L355.399 514.244 M354.479 511.188 L358.889 511.188 L358.889 528.08 L362.586 528.08 L362.586 530.997 L358.889 530.997 L358.889 537.108 L355.399 537.108 L355.399 530.997 L343.698 530.997 L343.698 527.611 L354.479 511.188 Z" fill="#000000" fill-rule="evenodd" fill-opacity="1" /><path clip-path="url(#clip020)" d="M 0 0 M72.0859 710.724 L85.8532 710.724 L85.8532 713.675 L75.2977 713.675 L75.2977 720.029 Q76.0615 719.769 76.8254 719.647 Q77.5893 719.509 78.3532 719.509 Q82.6935 719.509 85.2282 721.887 Q87.7629 724.265 87.7629 728.328 Q87.7629 732.512 85.1587 734.838 Q82.5546 737.147 77.815 737.147 Q76.1831 737.147 74.4817 736.87 Q72.7977 736.592 70.9921 736.036 L70.9921 732.512 Q72.5546 733.363 74.2213 733.779 Q75.8879 734.196 77.7456 734.196 Q80.749 734.196 82.5025 732.616 Q84.2559 731.036 84.2559 728.328 Q84.2559 725.62 82.5025 724.04 Q80.749 722.46 77.7456 722.46 Q76.3393 722.46 74.9331 722.772 Q73.5442 723.085 72.0859 723.745 L72.0859 710.724 Z" fill="#000000" fill-rule="evenodd" fill-opacity="1" /><path clip-path="url(#clip020)" d="M 0 0 M80.2455 822.054 Q77.8845 822.054 76.4956 823.669 Q75.124 825.283 75.124 828.096 Q75.124 830.891 76.4956 832.523 Q77.8845 834.138 80.2455 834.138 Q82.6066 834.138 83.9782 832.523 Q85.367 830.891 85.367 828.096 Q85.367 825.283 83.9782 823.669 Q82.6066 822.054 80.2455 822.054 M87.2073 811.065 L87.2073 814.259 Q85.8879 813.634 84.5337 813.304 Q83.1969 812.974 81.8775 812.974 Q78.4053 812.974 76.565 815.318 Q74.7421 817.662 74.4817 822.401 Q75.506 820.891 77.0511 820.092 Q78.5963 819.276 80.4539 819.276 Q84.3601 819.276 86.617 821.655 Q88.8913 824.016 88.8913 828.096 Q88.8913 832.089 86.5302 834.502 Q84.1691 836.915 80.2455 836.915 Q75.749 836.915 73.3706 833.478 Q70.9921 830.023 70.9921 823.478 Q70.9921 817.332 73.9088 813.686 Q76.8254 810.023 81.7386 810.023 Q83.058 810.023 84.3948 810.283 Q85.749 810.544 87.2073 811.065 Z" fill="#000000" fill-rule="evenodd" fill-opacity="1" /><path clip-path="url(#clip020)" d="M 0 0 M207.345 710.724 L224.011 710.724 L224.011 712.217 L214.602 736.644 L210.939 736.644 L219.793 713.675 L207.345 713.675 L207.345 710.724 Z" fill="#000000" fill-rule="evenodd" fill-opacity="1" /><path clip-path="url(#clip020)" d="M 0 0 M216.234 824.103 Q213.734 824.103 212.293 825.44 Q210.869 826.776 210.869 829.12 Q210.869 831.464 212.293 832.801 Q213.734 834.138 216.234 834.138 Q218.734 834.138 220.175 832.801 Q221.616 831.447 221.616 829.12 Q221.616 826.776 220.175 825.44 Q218.751 824.103 216.234 824.103 M212.727 822.61 Q210.47 822.054 209.203 820.509 Q207.953 818.964 207.953 816.742 Q207.953 813.634 210.157 811.829 Q212.38 810.023 216.234 810.023 Q220.105 810.023 222.31 811.829 Q224.515 813.634 224.515 816.742 Q224.515 818.964 223.248 820.509 Q221.998 822.054 219.758 822.61 Q222.293 823.2 223.699 824.919 Q225.123 826.638 225.123 829.12 Q225.123 832.888 222.814 834.901 Q220.522 836.915 216.234 836.915 Q211.946 836.915 209.637 834.901 Q207.345 832.888 207.345 829.12 Q207.345 826.638 208.768 824.919 Q210.192 823.2 212.727 822.61 M211.442 817.072 Q211.442 819.086 212.692 820.214 Q213.959 821.342 216.234 821.342 Q218.491 821.342 219.758 820.214 Q221.043 819.086 221.043 817.072 Q221.043 815.058 219.758 813.929 Q218.491 812.801 216.234 812.801 Q213.959 812.801 212.692 813.929 Q211.442 815.058 211.442 817.072 Z" fill="#000000" fill-rule="evenodd" fill-opacity="1" /><path clip-path="url(#clip020)" d="M 0 0 M345.364 736.106 L345.364 732.911 Q346.684 733.536 348.038 733.866 Q349.392 734.196 350.694 734.196 Q354.166 734.196 355.989 731.87 Q357.83 729.526 358.09 724.769 Q357.083 726.262 355.538 727.061 Q353.993 727.859 352.118 727.859 Q348.229 727.859 345.955 725.515 Q343.698 723.154 343.698 719.075 Q343.698 715.081 346.059 712.668 Q348.42 710.255 352.343 710.255 Q356.84 710.255 359.201 713.71 Q361.579 717.147 361.579 723.71 Q361.579 729.838 358.663 733.502 Q355.764 737.147 350.85 737.147 Q349.531 737.147 348.177 736.887 Q346.823 736.627 345.364 736.106 M352.343 725.116 Q354.705 725.116 356.076 723.502 Q357.465 721.887 357.465 719.075 Q357.465 716.279 356.076 714.665 Q354.705 713.033 352.343 713.033 Q349.982 713.033 348.593 714.665 Q347.222 716.279 347.222 719.075 Q347.222 721.887 348.593 723.502 Q349.982 725.116 352.343 725.116 Z" fill="#000000" fill-rule="evenodd" fill-opacity="1" /><path clip-path="url(#clip020)" d="M 0 0 M344.201 833.46 L349.93 833.46 L349.93 813.686 L343.698 814.936 L343.698 811.742 L349.896 810.492 L353.402 810.492 L353.402 833.46 L359.132 833.46 L359.132 836.412 L344.201 836.412 L344.201 833.46 Z" fill="#000000" fill-rule="evenodd" fill-opacity="1" /><path clip-path="url(#clip020)" d="M 0 0 M370.434 812.801 Q367.725 812.801 366.354 815.474 Q365 818.131 365 823.478 Q365 828.808 366.354 831.481 Q367.725 834.138 370.434 834.138 Q373.159 834.138 374.513 831.481 Q375.885 828.808 375.885 823.478 Q375.885 818.131 374.513 815.474 Q373.159 812.801 370.434 812.801 M370.434 810.023 Q374.791 810.023 377.083 813.478 Q379.392 816.915 379.392 823.478 Q379.392 830.023 377.083 833.478 Q374.791 836.915 370.434 836.915 Q366.076 836.915 363.767 833.478 Q361.475 830.023 361.475 823.478 Q361.475 816.915 363.767 813.478 Q366.076 810.023 370.434 810.023 Z" fill="#000000" fill-rule="evenodd" fill-opacity="1" /><path clip-path="url(#clip020)" d="M 0 0 M71.4956 434.389 L77.2247 434.389 L77.2247 414.614 L70.9921 415.864 L70.9921 412.67 L77.19 411.42 L80.6969 411.42 L80.6969 434.389 L86.4261 434.389 L86.4261 437.34 L71.4956 437.34 L71.4956 434.389 Z" fill="#000000" fill-rule="evenodd" fill-opacity="1" /><path clip-path="url(#clip020)" d="M 0 0 M90.8358 434.389 L96.5649 434.389 L96.5649 414.614 L90.3323 415.864 L90.3323 412.67 L96.5302 411.42 L100.037 411.42 L100.037 434.389 L105.766 434.389 L105.766 437.34 L90.8358 437.34 L90.8358 434.389 Z" fill="#000000" fill-rule="evenodd" fill-opacity="1" /><path clip-path="url(#clip020)" d="M 0 0 M71.4956 534.157 L77.2247 534.157 L77.2247 514.382 L70.9921 515.632 L70.9921 512.438 L77.19 511.188 L80.6969 511.188 L80.6969 534.157 L86.4261 534.157 L86.4261 537.108 L71.4956 537.108 L71.4956 534.157 Z" fill="#000000" fill-rule="evenodd" fill-opacity="1" /><path clip-path="url(#clip020)" d="M 0 0 M93.249 534.157 L105.488 534.157 L105.488 537.108 L89.0302 537.108 L89.0302 534.157 Q91.0267 532.091 94.4642 528.618 Q97.9191 525.129 98.8045 524.122 Q100.488 522.23 101.148 520.928 Q101.825 519.608 101.825 518.341 Q101.825 516.275 100.367 514.973 Q98.926 513.671 96.5996 513.671 Q94.9503 513.671 93.1101 514.244 Q91.2872 514.816 89.2038 515.98 L89.2038 512.438 Q91.3219 511.587 93.1621 511.153 Q95.0024 510.719 96.5302 510.719 Q100.558 510.719 102.954 512.733 Q105.35 514.747 105.35 518.115 Q105.35 519.712 104.742 521.153 Q104.152 522.577 102.572 524.521 Q102.138 525.025 99.8114 527.438 Q97.485 529.834 93.249 534.157 Z" fill="#000000" fill-rule="evenodd" fill-opacity="1" /><path clip-path="url(#clip020)" d="M 0 0 M412.377 883.344 L418.107 883.344 L418.107 863.57 L411.874 864.82 L411.874 861.626 L418.072 860.376 L421.579 860.376 L421.579 883.344 L427.308 883.344 L427.308 886.296 L412.377 886.296 L412.377 883.344 Z" fill="#000000" fill-rule="evenodd" fill-opacity="1" /><path clip-path="url(#clip020)" d="M 0 0 M441.735 872.32 Q444.252 872.858 445.659 874.56 Q447.082 876.261 447.082 878.761 Q447.082 882.598 444.443 884.699 Q441.804 886.799 436.943 886.799 Q435.311 886.799 433.575 886.469 Q431.857 886.157 430.016 885.515 L430.016 882.129 Q431.475 882.98 433.211 883.414 Q434.947 883.848 436.839 883.848 Q440.138 883.848 441.856 882.546 Q443.593 881.244 443.593 878.761 Q443.593 876.469 441.978 875.185 Q440.381 873.883 437.516 873.883 L434.495 873.883 L434.495 871.001 L437.655 871.001 Q440.242 871.001 441.613 869.976 Q442.985 868.935 442.985 866.99 Q442.985 864.994 441.561 863.935 Q440.155 862.858 437.516 862.858 Q436.075 862.858 434.426 863.171 Q432.777 863.483 430.798 864.143 L430.798 861.018 Q432.794 860.463 434.53 860.185 Q436.284 859.907 437.829 859.907 Q441.822 859.907 444.148 861.73 Q446.475 863.535 446.475 866.626 Q446.475 868.779 445.242 870.272 Q444.009 871.747 441.735 872.32 Z" fill="#000000" fill-rule="evenodd" fill-opacity="1" /><path clip-path="url(#clip020)" d="M 0 0 M139.672 584.041 L145.401 584.041 L145.401 564.266 L139.169 565.516 L139.169 562.322 L145.366 561.072 L148.873 561.072 L148.873 584.041 L154.602 584.041 L154.602 586.992 L139.672 586.992 L139.672 584.041 Z" fill="#000000" fill-rule="evenodd" fill-opacity="1" /><path clip-path="url(#clip020)" d="M 0 0 M158.439 561.072 L172.207 561.072 L172.207 564.023 L161.651 564.023 L161.651 570.377 Q162.415 570.117 163.179 569.996 Q163.943 569.857 164.707 569.857 Q169.047 569.857 171.582 572.235 Q174.116 574.614 174.116 578.676 Q174.116 582.86 171.512 585.186 Q168.908 587.495 164.168 587.495 Q162.536 587.495 160.835 587.218 Q159.151 586.94 157.345 586.384 L157.345 582.86 Q158.908 583.711 160.575 584.127 Q162.241 584.544 164.099 584.544 Q167.102 584.544 168.856 582.964 Q170.609 581.384 170.609 578.676 Q170.609 575.968 168.856 574.388 Q167.102 572.808 164.099 572.808 Q162.693 572.808 161.286 573.12 Q159.898 573.433 158.439 574.093 L158.439 561.072 Z" fill="#000000" fill-rule="evenodd" fill-opacity="1" /><path clip-path="url(#clip020)" d="M 0 0 M139.672 683.809 L145.401 683.809 L145.401 664.034 L139.169 665.284 L139.169 662.09 L145.366 660.84 L148.873 660.84 L148.873 683.809 L154.602 683.809 L154.602 686.76 L139.672 686.76 L139.672 683.809 Z" fill="#000000" fill-rule="evenodd" fill-opacity="1" /><path clip-path="url(#clip020)" d="M 0 0 M166.338 672.402 Q163.977 672.402 162.589 674.017 Q161.217 675.631 161.217 678.444 Q161.217 681.239 162.589 682.871 Q163.977 684.486 166.338 684.486 Q168.7 684.486 170.071 682.871 Q171.46 681.239 171.46 678.444 Q171.46 675.631 170.071 674.017 Q168.7 672.402 166.338 672.402 M173.3 661.413 L173.3 664.607 Q171.981 663.982 170.627 663.652 Q169.29 663.323 167.97 663.323 Q164.498 663.323 162.658 665.666 Q160.835 668.01 160.575 672.75 Q161.599 671.239 163.144 670.441 Q164.689 669.625 166.547 669.625 Q170.453 669.625 172.71 672.003 Q174.984 674.364 174.984 678.444 Q174.984 682.437 172.623 684.85 Q170.262 687.263 166.338 687.263 Q161.842 687.263 159.464 683.826 Q157.085 680.371 157.085 673.826 Q157.085 667.68 160.002 664.034 Q162.918 660.371 167.832 660.371 Q169.151 660.371 170.488 660.632 Q171.842 660.892 173.3 661.413 Z" fill="#000000" fill-rule="evenodd" fill-opacity="1" /><path clip-path="url(#clip020)" d="M 0 0 M276.025 584.041 L281.754 584.041 L281.754 564.266 L275.521 565.516 L275.521 562.322 L281.719 561.072 L285.226 561.072 L285.226 584.041 L290.955 584.041 L290.955 586.992 L276.025 586.992 L276.025 584.041 Z" fill="#000000" fill-rule="evenodd" fill-opacity="1" /><path clip-path="url(#clip020)" d="M 0 0 M293.872 561.072 L310.538 561.072 L310.538 562.565 L301.129 586.992 L297.466 586.992 L306.32 564.023 L293.872 564.023 L293.872 561.072 Z" fill="#000000" fill-rule="evenodd" fill-opacity="1" /><path clip-path="url(#clip020)" d="M 0 0 M276.025 683.809 L281.754 683.809 L281.754 664.034 L275.521 665.284 L275.521 662.09 L281.719 660.84 L285.226 660.84 L285.226 683.809 L290.955 683.809 L290.955 686.76 L276.025 686.76 L276.025 683.809 Z" fill="#000000" fill-rule="evenodd" fill-opacity="1" /><path clip-path="url(#clip020)" d="M 0 0 M302.257 674.451 Q299.757 674.451 298.316 675.788 Q296.893 677.125 296.893 679.468 Q296.893 681.812 298.316 683.149 Q299.757 684.486 302.257 684.486 Q304.757 684.486 306.198 683.149 Q307.639 681.795 307.639 679.468 Q307.639 677.125 306.198 675.788 Q304.775 674.451 302.257 674.451 M298.75 672.958 Q296.493 672.402 295.226 670.857 Q293.976 669.312 293.976 667.09 Q293.976 663.982 296.181 662.177 Q298.403 660.371 302.257 660.371 Q306.129 660.371 308.334 662.177 Q310.538 663.982 310.538 667.09 Q310.538 669.312 309.271 670.857 Q308.021 672.402 305.782 672.958 Q308.316 673.548 309.722 675.267 Q311.146 676.986 311.146 679.468 Q311.146 683.236 308.837 685.249 Q306.545 687.263 302.257 687.263 Q297.969 687.263 295.66 685.249 Q293.368 683.236 293.368 679.468 Q293.368 676.986 294.792 675.267 Q296.216 673.548 298.75 672.958 M297.466 667.42 Q297.466 669.434 298.716 670.562 Q299.983 671.691 302.257 671.691 Q304.514 671.691 305.782 670.562 Q307.066 669.434 307.066 667.42 Q307.066 665.406 305.782 664.277 Q304.514 663.149 302.257 663.149 Q299.983 663.149 298.716 664.277 Q297.466 665.406 297.466 667.42 Z" fill="#000000" fill-rule="evenodd" fill-opacity="1" /><path clip-path="url(#clip020)" d="M 0 0 M412.377 584.041 L418.107 584.041 L418.107 564.266 L411.874 565.516 L411.874 562.322 L418.072 561.072 L421.579 561.072 L421.579 584.041 L427.308 584.041 L427.308 586.992 L412.377 586.992 L412.377 584.041 Z" fill="#000000" fill-rule="evenodd" fill-opacity="1" /><path clip-path="url(#clip020)" d="M 0 0 M431.214 586.454 L431.214 583.259 Q432.534 583.884 433.888 584.214 Q435.242 584.544 436.544 584.544 Q440.016 584.544 441.839 582.218 Q443.679 579.874 443.94 575.117 Q442.933 576.61 441.388 577.409 Q439.843 578.207 437.968 578.207 Q434.079 578.207 431.804 575.864 Q429.548 573.502 429.548 569.423 Q429.548 565.43 431.909 563.016 Q434.27 560.603 438.193 560.603 Q442.69 560.603 445.051 564.058 Q447.429 567.496 447.429 574.058 Q447.429 580.186 444.513 583.85 Q441.613 587.495 436.7 587.495 Q435.381 587.495 434.027 587.235 Q432.673 586.975 431.214 586.454 M438.193 575.464 Q440.554 575.464 441.926 573.85 Q443.315 572.235 443.315 569.423 Q443.315 566.627 441.926 565.013 Q440.554 563.381 438.193 563.381 Q435.832 563.381 434.443 565.013 Q433.072 566.627 433.072 569.423 Q433.072 572.235 434.443 573.85 Q435.832 575.464 438.193 575.464 Z" fill="#000000" fill-rule="evenodd" fill-opacity="1" /><path clip-path="url(#clip020)" d="M 0 0 M416.093 683.809 L428.332 683.809 L428.332 686.76 L411.874 686.76 L411.874 683.809 Q413.871 681.743 417.308 678.27 Q420.763 674.781 421.648 673.774 Q423.332 671.881 423.992 670.579 Q424.669 669.26 424.669 667.993 Q424.669 665.927 423.211 664.625 Q421.77 663.323 419.443 663.323 Q417.794 663.323 415.954 663.895 Q414.131 664.468 412.048 665.632 L412.048 662.09 Q414.166 661.239 416.006 660.805 Q417.846 660.371 419.374 660.371 Q423.402 660.371 425.798 662.385 Q428.193 664.399 428.193 667.767 Q428.193 669.364 427.586 670.805 Q426.995 672.229 425.416 674.173 Q424.982 674.677 422.655 677.09 Q420.329 679.486 416.093 683.809 Z" fill="#000000" fill-rule="evenodd" fill-opacity="1" /><path clip-path="url(#clip020)" d="M 0 0 M439.634 663.149 Q436.926 663.149 435.554 665.823 Q434.2 668.479 434.2 673.826 Q434.2 679.156 435.554 681.829 Q436.926 684.486 439.634 684.486 Q442.36 684.486 443.714 681.829 Q445.086 679.156 445.086 673.826 Q445.086 668.479 443.714 665.823 Q442.36 663.149 439.634 663.149 M439.634 660.371 Q443.992 660.371 446.284 663.826 Q448.593 667.263 448.593 673.826 Q448.593 680.371 446.284 683.826 Q443.992 687.263 439.634 687.263 Q435.277 687.263 432.968 683.826 Q430.676 680.371 430.676 673.826 Q430.676 667.263 432.968 663.826 Q435.277 660.371 439.634 660.371 Z" fill="#000000" fill-rule="evenodd" fill-opacity="1" /><path clip-path="url(#clip020)" d="M 0 0 M143.387 284.737 L155.627 284.737 L155.627 287.688 L139.169 287.688 L139.169 284.737 Q141.165 282.671 144.603 279.199 Q148.057 275.709 148.943 274.702 Q150.627 272.81 151.286 271.508 Q151.964 270.188 151.964 268.921 Q151.964 266.855 150.505 265.553 Q149.064 264.251 146.738 264.251 Q145.089 264.251 143.248 264.824 Q141.425 265.397 139.342 266.56 L139.342 263.018 Q141.46 262.167 143.3 261.733 Q145.141 261.299 146.668 261.299 Q150.696 261.299 153.092 263.313 Q155.488 265.327 155.488 268.695 Q155.488 270.292 154.88 271.733 Q154.29 273.157 152.71 275.101 Q152.276 275.605 149.95 278.018 Q147.623 280.414 143.387 284.737 Z" fill="#000000" fill-rule="evenodd" fill-opacity="1" /><path clip-path="url(#clip020)" d="M 0 0 M160.036 284.737 L165.766 284.737 L165.766 264.963 L159.533 266.213 L159.533 263.018 L165.731 261.768 L169.238 261.768 L169.238 284.737 L174.967 284.737 L174.967 287.688 L160.036 287.688 L160.036 284.737 Z" fill="#000000" fill-rule="evenodd" fill-opacity="1" /><path clip-path="url(#clip020)" d="M 0 0 M143.387 384.505 L155.627 384.505 L155.627 387.456 L139.169 387.456 L139.169 384.505 Q141.165 382.439 144.603 378.967 Q148.057 375.477 148.943 374.47 Q150.627 372.578 151.286 371.276 Q151.964 369.956 151.964 368.689 Q151.964 366.623 150.505 365.321 Q149.064 364.019 146.738 364.019 Q145.089 364.019 143.248 364.592 Q141.425 365.165 139.342 366.328 L139.342 362.786 Q141.46 361.935 143.3 361.501 Q145.141 361.067 146.668 361.067 Q150.696 361.067 153.092 363.081 Q155.488 365.095 155.488 368.463 Q155.488 370.06 154.88 371.501 Q154.29 372.925 152.71 374.869 Q152.276 375.373 149.95 377.786 Q147.623 380.182 143.387 384.505 Z" fill="#000000" fill-rule="evenodd" fill-opacity="1" /><path clip-path="url(#clip020)" d="M 0 0 M162.45 384.505 L174.689 384.505 L174.689 387.456 L158.231 387.456 L158.231 384.505 Q160.227 382.439 163.665 378.967 Q167.12 375.477 168.005 374.47 Q169.689 372.578 170.349 371.276 Q171.026 369.956 171.026 368.689 Q171.026 366.623 169.568 365.321 Q168.127 364.019 165.8 364.019 Q164.151 364.019 162.311 364.592 Q160.488 365.165 158.405 366.328 L158.405 362.786 Q160.523 361.935 162.363 361.501 Q164.203 361.067 165.731 361.067 Q169.759 361.067 172.154 363.081 Q174.55 365.095 174.55 368.463 Q174.55 370.06 173.943 371.501 Q173.352 372.925 171.772 374.869 Q171.338 375.373 169.012 377.786 Q166.686 380.182 162.45 384.505 Z" fill="#000000" fill-rule="evenodd" fill-opacity="1" /><path clip-path="url(#clip020)" d="M 0 0 M279.74 883.344 L291.98 883.344 L291.98 886.296 L275.521 886.296 L275.521 883.344 Q277.518 881.278 280.955 877.806 Q284.41 874.317 285.296 873.31 Q286.98 871.417 287.639 870.115 Q288.316 868.796 288.316 867.529 Q288.316 865.463 286.858 864.16 Q285.417 862.858 283.091 862.858 Q281.441 862.858 279.601 863.431 Q277.778 864.004 275.695 865.167 L275.695 861.626 Q277.813 860.775 279.653 860.341 Q281.493 859.907 283.021 859.907 Q287.049 859.907 289.445 861.921 Q291.841 863.935 291.841 867.303 Q291.841 868.9 291.233 870.341 Q290.643 871.765 289.063 873.709 Q288.629 874.213 286.302 876.626 Q283.976 879.022 279.74 883.344 Z" fill="#000000" fill-rule="evenodd" fill-opacity="1" /><path clip-path="url(#clip020)" d="M 0 0 M306.407 872.32 Q308.924 872.858 310.33 874.56 Q311.754 876.261 311.754 878.761 Q311.754 882.598 309.115 884.699 Q306.476 886.799 301.615 886.799 Q299.983 886.799 298.247 886.469 Q296.528 886.157 294.688 885.515 L294.688 882.129 Q296.146 882.98 297.882 883.414 Q299.618 883.848 301.511 883.848 Q304.809 883.848 306.528 882.546 Q308.264 881.244 308.264 878.761 Q308.264 876.469 306.65 875.185 Q305.052 873.883 302.188 873.883 L299.167 873.883 L299.167 871.001 L302.327 871.001 Q304.913 871.001 306.285 869.976 Q307.657 868.935 307.657 866.99 Q307.657 864.994 306.233 863.935 Q304.827 862.858 302.188 862.858 Q300.747 862.858 299.098 863.171 Q297.448 863.483 295.469 864.143 L295.469 861.018 Q297.466 860.463 299.202 860.185 Q300.955 859.907 302.5 859.907 Q306.493 859.907 308.82 861.73 Q311.146 863.535 311.146 866.626 Q311.146 868.779 309.913 870.272 Q308.681 871.747 306.407 872.32 Z" fill="#000000" fill-rule="evenodd" fill-opacity="1" /><circle clip-path="url(#clip022)" cx="70.9921" cy="145.812" r="14" fill="#0000ff" fill-rule="evenodd" fill-opacity="1" stroke="none"/>
<circle clip-path="url(#clip022)" cx="70.9921" cy="245.58" r="14" fill="#0000ff" fill-rule="evenodd" fill-opacity="1" stroke="none"/>
<circle clip-path="url(#clip022)" cx="207.345" cy="145.812" r="14" fill="#0000ff" fill-rule="evenodd" fill-opacity="1" stroke="none"/>
<circle clip-path="url(#clip022)" cx="207.345" cy="245.58" r="14" fill="#0000ff" fill-rule="evenodd" fill-opacity="1" stroke="none"/>
<circle clip-path="url(#clip022)" cx="343.698" cy="145.812" r="14" fill="#0000ff" fill-rule="evenodd" fill-opacity="1" stroke="none"/>
<circle clip-path="url(#clip022)" cx="343.698" cy="245.58" r="14" fill="#0000ff" fill-rule="evenodd" fill-opacity="1" stroke="none"/>
<circle clip-path="url(#clip022)" cx="411.874" cy="295.464" r="14" fill="#0000ff" fill-rule="evenodd" fill-opacity="1" stroke="none"/>
<circle clip-path="url(#clip022)" cx="411.874" cy="395.232" r="14" fill="#0000ff" fill-rule="evenodd" fill-opacity="1" stroke="none"/>
<circle clip-path="url(#clip022)" cx="139.169" cy="95.9282" r="14" fill="#0000ff" fill-rule="evenodd" fill-opacity="1" stroke="none"/>
<circle clip-path="url(#clip022)" cx="275.521" cy="95.9282" r="14" fill="#0000ff" fill-rule="evenodd" fill-opacity="1" stroke="none"/>
<circle clip-path="url(#clip022)" cx="411.874" cy="95.9282" r="14" fill="#0000ff" fill-rule="evenodd" fill-opacity="1" stroke="none"/>
<circle clip-path="url(#clip022)" cx="275.521" cy="295.464" r="14" fill="#0000ff" fill-rule="evenodd" fill-opacity="1" stroke="none"/>
<circle clip-path="url(#clip022)" cx="275.521" cy="395.232" r="14" fill="#0000ff" fill-rule="evenodd" fill-opacity="1" stroke="none"/>
<path clip-path="url(#clip020)" d="M 0 0 M72.0859 112.116 L85.8532 112.116 L85.8532 115.068 L75.2977 115.068 L75.2977 121.422 Q76.0615 121.161 76.8254 121.04 Q77.5893 120.901 78.3532 120.901 Q82.6935 120.901 85.2282 123.279 Q87.7629 125.658 87.7629 129.72 Q87.7629 133.904 85.1587 136.231 Q82.5546 138.54 77.815 138.54 Q76.1831 138.54 74.4817 138.262 Q72.7977 137.984 70.9921 137.429 L70.9921 133.904 Q72.5546 134.755 74.2213 135.172 Q75.8879 135.588 77.7456 135.588 Q80.749 135.588 82.5025 134.008 Q84.2559 132.429 84.2559 129.72 Q84.2559 127.012 82.5025 125.432 Q80.749 123.852 77.7456 123.852 Q76.3393 123.852 74.9331 124.165 Q73.5442 124.477 72.0859 125.137 L72.0859 112.116 Z" fill="#000000" fill-rule="evenodd" fill-opacity="1" /><path clip-path="url(#clip020)" d="M 0 0 M80.2455 223.447 Q77.8845 223.447 76.4956 225.061 Q75.124 226.676 75.124 229.488 Q75.124 232.283 76.4956 233.915 Q77.8845 235.53 80.2455 235.53 Q82.6066 235.53 83.9782 233.915 Q85.367 232.283 85.367 229.488 Q85.367 226.676 83.9782 225.061 Q82.6066 223.447 80.2455 223.447 M87.2073 212.457 L87.2073 215.651 Q85.8879 215.026 84.5337 214.697 Q83.1969 214.367 81.8775 214.367 Q78.4053 214.367 76.565 216.711 Q74.7421 219.054 74.4817 223.794 Q75.506 222.283 77.0511 221.485 Q78.5963 220.669 80.4539 220.669 Q84.3601 220.669 86.617 223.047 Q88.8913 225.408 88.8913 229.488 Q88.8913 233.481 86.5302 235.894 Q84.1691 238.308 80.2455 238.308 Q75.749 238.308 73.3706 234.87 Q70.9921 231.415 70.9921 224.87 Q70.9921 218.724 73.9088 215.079 Q76.8254 211.415 81.7386 211.415 Q83.058 211.415 84.3948 211.676 Q85.749 211.936 87.2073 212.457 Z" fill="#000000" fill-rule="evenodd" fill-opacity="1" /><path clip-path="url(#clip020)" d="M 0 0 M207.345 112.116 L224.011 112.116 L224.011 113.609 L214.602 138.036 L210.939 138.036 L219.793 115.068 L207.345 115.068 L207.345 112.116 Z" fill="#000000" fill-rule="evenodd" fill-opacity="1" /><path clip-path="url(#clip020)" d="M 0 0 M216.234 225.495 Q213.734 225.495 212.293 226.832 Q210.869 228.169 210.869 230.513 Q210.869 232.856 212.293 234.193 Q213.734 235.53 216.234 235.53 Q218.734 235.53 220.175 234.193 Q221.616 232.839 221.616 230.513 Q221.616 228.169 220.175 226.832 Q218.751 225.495 216.234 225.495 M212.727 224.002 Q210.47 223.447 209.203 221.901 Q207.953 220.356 207.953 218.134 Q207.953 215.026 210.157 213.221 Q212.38 211.415 216.234 211.415 Q220.105 211.415 222.31 213.221 Q224.515 215.026 224.515 218.134 Q224.515 220.356 223.248 221.901 Q221.998 223.447 219.758 224.002 Q222.293 224.592 223.699 226.311 Q225.123 228.03 225.123 230.513 Q225.123 234.28 222.814 236.294 Q220.522 238.308 216.234 238.308 Q211.946 238.308 209.637 236.294 Q207.345 234.28 207.345 230.513 Q207.345 228.03 208.768 226.311 Q210.192 224.592 212.727 224.002 M211.442 218.464 Q211.442 220.478 212.692 221.606 Q213.959 222.735 216.234 222.735 Q218.491 222.735 219.758 221.606 Q221.043 220.478 221.043 218.464 Q221.043 216.45 219.758 215.322 Q218.491 214.193 216.234 214.193 Q213.959 214.193 212.692 215.322 Q211.442 216.45 211.442 218.464 Z" fill="#000000" fill-rule="evenodd" fill-opacity="1" /><path clip-path="url(#clip020)" d="M 0 0 M345.364 137.498 L345.364 134.304 Q346.684 134.929 348.038 135.258 Q349.392 135.588 350.694 135.588 Q354.166 135.588 355.989 133.262 Q357.83 130.918 358.09 126.161 Q357.083 127.654 355.538 128.453 Q353.993 129.252 352.118 129.252 Q348.229 129.252 345.955 126.908 Q343.698 124.547 343.698 120.467 Q343.698 116.474 346.059 114.061 Q348.42 111.647 352.343 111.647 Q356.84 111.647 359.201 115.102 Q361.579 118.54 361.579 125.102 Q361.579 131.231 358.663 134.894 Q355.764 138.54 350.85 138.54 Q349.531 138.54 348.177 138.279 Q346.823 138.019 345.364 137.498 M352.343 126.508 Q354.705 126.508 356.076 124.894 Q357.465 123.279 357.465 120.467 Q357.465 117.672 356.076 116.057 Q354.705 114.425 352.343 114.425 Q349.982 114.425 348.593 116.057 Q347.222 117.672 347.222 120.467 Q347.222 123.279 348.593 124.894 Q349.982 126.508 352.343 126.508 Z" fill="#000000" fill-rule="evenodd" fill-opacity="1" /><path clip-path="url(#clip020)" d="M 0 0 M344.201 234.853 L349.93 234.853 L349.93 215.079 L343.698 216.329 L343.698 213.134 L349.896 211.884 L353.402 211.884 L353.402 234.853 L359.132 234.853 L359.132 237.804 L344.201 237.804 L344.201 234.853 Z" fill="#000000" fill-rule="evenodd" fill-opacity="1" /><path clip-path="url(#clip020)" d="M 0 0 M370.434 214.193 Q367.725 214.193 366.354 216.867 Q365 219.523 365 224.87 Q365 230.2 366.354 232.874 Q367.725 235.53 370.434 235.53 Q373.159 235.53 374.513 232.874 Q375.885 230.2 375.885 224.87 Q375.885 219.523 374.513 216.867 Q373.159 214.193 370.434 214.193 M370.434 211.415 Q374.791 211.415 377.083 214.87 Q379.392 218.308 379.392 224.87 Q379.392 231.415 377.083 234.87 Q374.791 238.308 370.434 238.308 Q366.076 238.308 363.767 234.87 Q361.475 231.415 361.475 224.87 Q361.475 218.308 363.767 214.87 Q366.076 211.415 370.434 211.415 Z" fill="#000000" fill-rule="evenodd" fill-opacity="1" /><path clip-path="url(#clip020)" d="M 0 0 M412.377 284.737 L418.107 284.737 L418.107 264.963 L411.874 266.213 L411.874 263.018 L418.072 261.768 L421.579 261.768 L421.579 284.737 L427.308 284.737 L427.308 287.688 L412.377 287.688 L412.377 284.737 Z" fill="#000000" fill-rule="evenodd" fill-opacity="1" /><path clip-path="url(#clip020)" d="M 0 0 M441.735 273.712 Q444.252 274.251 445.659 275.952 Q447.082 277.653 447.082 280.153 Q447.082 283.99 444.443 286.091 Q441.804 288.192 436.943 288.192 Q435.311 288.192 433.575 287.862 Q431.857 287.549 430.016 286.907 L430.016 283.521 Q431.475 284.372 433.211 284.806 Q434.947 285.24 436.839 285.24 Q440.138 285.24 441.856 283.938 Q443.593 282.636 443.593 280.153 Q443.593 277.862 441.978 276.577 Q440.381 275.275 437.516 275.275 L434.495 275.275 L434.495 272.393 L437.655 272.393 Q440.242 272.393 441.613 271.369 Q442.985 270.327 442.985 268.383 Q442.985 266.386 441.561 265.327 Q440.155 264.251 437.516 264.251 Q436.075 264.251 434.426 264.563 Q432.777 264.876 430.798 265.535 L430.798 262.41 Q432.794 261.855 434.53 261.577 Q436.284 261.299 437.829 261.299 Q441.822 261.299 444.148 263.122 Q446.475 264.928 446.475 268.018 Q446.475 270.171 445.242 271.664 Q444.009 273.14 441.735 273.712 Z" fill="#000000" fill-rule="evenodd" fill-opacity="1" /><path clip-path="url(#clip020)" d="M 0 0 M412.377 384.505 L418.107 384.505 L418.107 364.73 L411.874 365.98 L411.874 362.786 L418.072 361.536 L421.579 361.536 L421.579 384.505 L427.308 384.505 L427.308 387.456 L412.377 387.456 L412.377 384.505 Z" fill="#000000" fill-rule="evenodd" fill-opacity="1" /><path clip-path="url(#clip020)" d="M 0 0 M440.745 364.592 L431.891 378.428 L440.745 378.428 L440.745 364.592 M439.825 361.536 L444.235 361.536 L444.235 378.428 L447.933 378.428 L447.933 381.345 L444.235 381.345 L444.235 387.456 L440.745 387.456 L440.745 381.345 L429.044 381.345 L429.044 377.96 L439.825 361.536 Z" fill="#000000" fill-rule="evenodd" fill-opacity="1" /><path clip-path="url(#clip020)" d="M 0 0 M139.672 85.2008 L145.401 85.2008 L145.401 65.4266 L139.169 66.6766 L139.169 63.4822 L145.366 62.2322 L148.873 62.2322 L148.873 85.2008 L154.602 85.2008 L154.602 88.1522 L139.672 88.1522 L139.672 85.2008 Z" fill="#000000" fill-rule="evenodd" fill-opacity="1" /><path clip-path="url(#clip020)" d="M 0 0 M166.338 73.7947 Q163.977 73.7947 162.589 75.4092 Q161.217 77.0238 161.217 79.8363 Q161.217 82.6314 162.589 84.2634 Q163.977 85.8779 166.338 85.8779 Q168.7 85.8779 170.071 84.2634 Q171.46 82.6314 171.46 79.8363 Q171.46 77.0238 170.071 75.4092 Q168.7 73.7947 166.338 73.7947 M173.3 62.8051 L173.3 65.9996 Q171.981 65.3746 170.627 65.0447 Q169.29 64.7148 167.97 64.7148 Q164.498 64.7148 162.658 67.0586 Q160.835 69.4023 160.575 74.1419 Q161.599 72.6315 163.144 71.8329 Q164.689 71.0169 166.547 71.0169 Q170.453 71.0169 172.71 73.3954 Q174.984 75.7565 174.984 79.8363 Q174.984 83.8293 172.623 86.2425 Q170.262 88.6557 166.338 88.6557 Q161.842 88.6557 159.464 85.2182 Q157.085 81.7634 157.085 75.2183 Q157.085 69.0725 160.002 65.4266 Q162.918 61.7635 167.832 61.7635 Q169.151 61.7635 170.488 62.0239 Q171.842 62.2843 173.3 62.8051 Z" fill="#000000" fill-rule="evenodd" fill-opacity="1" /><path clip-path="url(#clip020)" d="M 0 0 M276.025 85.2008 L281.754 85.2008 L281.754 65.4266 L275.521 66.6766 L275.521 63.4822 L281.719 62.2322 L285.226 62.2322 L285.226 85.2008 L290.955 85.2008 L290.955 88.1522 L276.025 88.1522 L276.025 85.2008 Z" fill="#000000" fill-rule="evenodd" fill-opacity="1" /><path clip-path="url(#clip020)" d="M 0 0 M302.257 75.8433 Q299.757 75.8433 298.316 77.1801 Q296.893 78.5169 296.893 80.8606 Q296.893 83.2043 298.316 84.5411 Q299.757 85.8779 302.257 85.8779 Q304.757 85.8779 306.198 84.5411 Q307.639 83.187 307.639 80.8606 Q307.639 78.5169 306.198 77.1801 Q304.775 75.8433 302.257 75.8433 M298.75 74.3502 Q296.493 73.7947 295.226 72.2495 Q293.976 70.7044 293.976 68.4822 Q293.976 65.3746 296.181 63.569 Q298.403 61.7635 302.257 61.7635 Q306.129 61.7635 308.334 63.569 Q310.538 65.3746 310.538 68.4822 Q310.538 70.7044 309.271 72.2495 Q308.021 73.7947 305.782 74.3502 Q308.316 74.9405 309.722 76.6592 Q311.146 78.378 311.146 80.8606 Q311.146 84.6279 308.837 86.6418 Q306.545 88.6557 302.257 88.6557 Q297.969 88.6557 295.66 86.6418 Q293.368 84.6279 293.368 80.8606 Q293.368 78.378 294.792 76.6592 Q296.216 74.9405 298.75 74.3502 M297.466 68.812 Q297.466 70.8259 298.716 71.9544 Q299.983 73.0829 302.257 73.0829 Q304.514 73.0829 305.782 71.9544 Q307.066 70.8259 307.066 68.812 Q307.066 66.7982 305.782 65.6697 Q304.514 64.5412 302.257 64.5412 Q299.983 64.5412 298.716 65.6697 Q297.466 66.7982 297.466 68.812 Z" fill="#000000" fill-rule="evenodd" fill-opacity="1" /><path clip-path="url(#clip020)" d="M 0 0 M416.093 85.2008 L428.332 85.2008 L428.332 88.1522 L411.874 88.1522 L411.874 85.2008 Q413.871 83.1349 417.308 79.6627 Q420.763 76.1731 421.648 75.1662 Q423.332 73.2738 423.992 71.9718 Q424.669 70.6523 424.669 69.385 Q424.669 67.319 423.211 66.0169 Q421.77 64.7148 419.443 64.7148 Q417.794 64.7148 415.954 65.2878 Q414.131 65.8607 412.048 67.0239 L412.048 63.4822 Q414.166 62.6315 416.006 62.1975 Q417.846 61.7635 419.374 61.7635 Q423.402 61.7635 425.798 63.7774 Q428.193 65.7912 428.193 69.1593 Q428.193 70.7565 427.586 72.1974 Q426.995 73.621 425.416 75.5655 Q424.982 76.069 422.655 78.4821 Q420.329 80.878 416.093 85.2008 Z" fill="#000000" fill-rule="evenodd" fill-opacity="1" /><path clip-path="url(#clip020)" d="M 0 0 M439.634 64.5412 Q436.926 64.5412 435.554 67.2148 Q434.2 69.8711 434.2 75.2183 Q434.2 80.5481 435.554 83.2217 Q436.926 85.8779 439.634 85.8779 Q442.36 85.8779 443.714 83.2217 Q445.086 80.5481 445.086 75.2183 Q445.086 69.8711 443.714 67.2148 Q442.36 64.5412 439.634 64.5412 M439.634 61.7635 Q443.992 61.7635 446.284 65.2183 Q448.593 68.6558 448.593 75.2183 Q448.593 81.7634 446.284 85.2182 Q443.992 88.6557 439.634 88.6557 Q435.277 88.6557 432.968 85.2182 Q430.676 81.7634 430.676 75.2183 Q430.676 68.6558 432.968 65.2183 Q435.277 61.7635 439.634 61.7635 Z" fill="#000000" fill-rule="evenodd" fill-opacity="1" /><path clip-path="url(#clip020)" d="M 0 0 M279.74 284.737 L291.98 284.737 L291.98 287.688 L275.521 287.688 L275.521 284.737 Q277.518 282.671 280.955 279.199 Q284.41 275.709 285.296 274.702 Q286.98 272.81 287.639 271.508 Q288.316 270.188 288.316 268.921 Q288.316 266.855 286.858 265.553 Q285.417 264.251 283.091 264.251 Q281.441 264.251 279.601 264.824 Q277.778 265.397 275.695 266.56 L275.695 263.018 Q277.813 262.167 279.653 261.733 Q281.493 261.299 283.021 261.299 Q287.049 261.299 289.445 263.313 Q291.841 265.327 291.841 268.695 Q291.841 270.292 291.233 271.733 Q290.643 273.157 289.063 275.101 Q288.629 275.605 286.302 278.018 Q283.976 280.414 279.74 284.737 Z" fill="#000000" fill-rule="evenodd" fill-opacity="1" /><path clip-path="url(#clip020)" d="M 0 0 M306.407 273.712 Q308.924 274.251 310.33 275.952 Q311.754 277.653 311.754 280.153 Q311.754 283.99 309.115 286.091 Q306.476 288.192 301.615 288.192 Q299.983 288.192 298.247 287.862 Q296.528 287.549 294.688 286.907 L294.688 283.521 Q296.146 284.372 297.882 284.806 Q299.618 285.24 301.511 285.24 Q304.809 285.24 306.528 283.938 Q308.264 282.636 308.264 280.153 Q308.264 277.862 306.65 276.577 Q305.052 275.275 302.188 275.275 L299.167 275.275 L299.167 272.393 L302.327 272.393 Q304.913 272.393 306.285 271.369 Q307.657 270.327 307.657 268.383 Q307.657 266.386 306.233 265.327 Q304.827 264.251 302.188 264.251 Q300.747 264.251 299.098 264.563 Q297.448 264.876 295.469 265.535 L295.469 262.41 Q297.466 261.855 299.202 261.577 Q300.955 261.299 302.5 261.299 Q306.493 261.299 308.82 263.122 Q311.146 264.928 311.146 268.018 Q311.146 270.171 309.913 271.664 Q308.681 273.14 306.407 273.712 Z" fill="#000000" fill-rule="evenodd" fill-opacity="1" /><path clip-path="url(#clip020)" d="M 0 0 M279.74 384.505 L291.98 384.505 L291.98 387.456 L275.521 387.456 L275.521 384.505 Q277.518 382.439 280.955 378.967 Q284.41 375.477 285.296 374.47 Q286.98 372.578 287.639 371.276 Q288.316 369.956 288.316 368.689 Q288.316 366.623 286.858 365.321 Q285.417 364.019 283.091 364.019 Q281.441 364.019 279.601 364.592 Q277.778 365.165 275.695 366.328 L275.695 362.786 Q277.813 361.935 279.653 361.501 Q281.493 361.067 283.021 361.067 Q287.049 361.067 289.445 363.081 Q291.841 365.095 291.841 368.463 Q291.841 370.06 291.233 371.501 Q290.643 372.925 289.063 374.869 Q288.629 375.373 286.302 377.786 Q283.976 380.182 279.74 384.505 Z" fill="#000000" fill-rule="evenodd" fill-opacity="1" /><path clip-path="url(#clip020)" d="M 0 0 M305.417 364.592 L296.563 378.428 L305.417 378.428 L305.417 364.592 M304.497 361.536 L308.906 361.536 L308.906 378.428 L312.604 378.428 L312.604 381.345 L308.906 381.345 L308.906 387.456 L305.417 387.456 L305.417 381.345 L293.716 381.345 L293.716 377.96 L304.497 361.536 Z" fill="#000000" fill-rule="evenodd" fill-opacity="1" /><circle clip-path="url(#clip022)" cx="616.403" cy="744.42" r="14" fill="#0000ff" fill-rule="evenodd" fill-opacity="1" stroke="none"/>
<circle clip-path="url(#clip022)" cx="616.403" cy="844.188" r="14" fill="#0000ff" fill-rule="evenodd" fill-opacity="1" stroke="none"/>
<circle clip-path="url(#clip022)" cx="752.756" cy="744.42" r="14" fill="#0000ff" fill-rule="evenodd" fill-opacity="1" stroke="none"/>
<circle clip-path="url(#clip022)" cx="752.756" cy="844.188" r="14" fill="#0000ff" fill-rule="evenodd" fill-opacity="1" stroke="none"/>
<circle clip-path="url(#clip022)" cx="480.05" cy="744.42" r="14" fill="#0000ff" fill-rule="evenodd" fill-opacity="1" stroke="none"/>
<circle clip-path="url(#clip022)" cx="480.05" cy="844.188" r="14" fill="#0000ff" fill-rule="evenodd" fill-opacity="1" stroke="none"/>
<circle clip-path="url(#clip022)" cx="548.227" cy="894.072" r="14" fill="#0000ff" fill-rule="evenodd" fill-opacity="1" stroke="none"/>
<circle clip-path="url(#clip022)" cx="684.58" cy="894.072" r="14" fill="#0000ff" fill-rule="evenodd" fill-opacity="1" stroke="none"/>
<circle clip-path="url(#clip022)" cx="548.227" cy="594.768" r="14" fill="#0000ff" fill-rule="evenodd" fill-opacity="1" stroke="none"/>
<circle clip-path="url(#clip022)" cx="548.227" cy="694.536" r="14" fill="#0000ff" fill-rule="evenodd" fill-opacity="1" stroke="none"/>
<path clip-path="url(#clip020)" d="M 0 0 M616.907 733.692 L622.636 733.692 L622.636 713.918 L616.403 715.168 L616.403 711.974 L622.601 710.724 L626.108 710.724 L626.108 733.692 L631.837 733.692 L631.837 736.644 L616.907 736.644 L616.907 733.692 Z" fill="#000000" fill-rule="evenodd" fill-opacity="1" /><path clip-path="url(#clip020)" d="M 0 0 M620.622 833.46 L632.861 833.46 L632.861 836.412 L616.403 836.412 L616.403 833.46 Q618.4 831.394 621.837 827.922 Q625.292 824.433 626.177 823.426 Q627.861 821.533 628.521 820.231 Q629.198 818.912 629.198 817.645 Q629.198 815.579 627.74 814.277 Q626.299 812.974 623.973 812.974 Q622.323 812.974 620.483 813.547 Q618.66 814.12 616.577 815.283 L616.577 811.742 Q618.695 810.891 620.535 810.457 Q622.375 810.023 623.903 810.023 Q627.931 810.023 630.327 812.037 Q632.723 814.051 632.723 817.419 Q632.723 819.016 632.115 820.457 Q631.525 821.881 629.945 823.825 Q629.511 824.329 627.184 826.742 Q624.858 829.138 620.622 833.46 Z" fill="#000000" fill-rule="evenodd" fill-opacity="1" /><path clip-path="url(#clip020)" d="M 0 0 M764.475 722.668 Q766.992 723.206 768.398 724.908 Q769.822 726.609 769.822 729.109 Q769.822 732.946 767.183 735.047 Q764.544 737.147 759.683 737.147 Q758.051 737.147 756.315 736.817 Q754.596 736.505 752.756 735.863 L752.756 732.477 Q754.214 733.328 755.95 733.762 Q757.686 734.196 759.579 734.196 Q762.877 734.196 764.596 732.894 Q766.332 731.592 766.332 729.109 Q766.332 726.818 764.718 725.533 Q763.12 724.231 760.256 724.231 L757.235 724.231 L757.235 721.349 L760.395 721.349 Q762.982 721.349 764.353 720.325 Q765.725 719.283 765.725 717.338 Q765.725 715.342 764.301 714.283 Q762.895 713.206 760.256 713.206 Q758.815 713.206 757.166 713.519 Q755.516 713.831 753.537 714.491 L753.537 711.366 Q755.534 710.811 757.27 710.533 Q759.023 710.255 760.568 710.255 Q764.561 710.255 766.888 712.078 Q769.214 713.884 769.214 716.974 Q769.214 719.127 767.982 720.62 Q766.749 722.095 764.475 722.668 Z" fill="#000000" fill-rule="evenodd" fill-opacity="1" /><path clip-path="url(#clip020)" d="M 0 0 M764.457 813.547 L755.603 827.384 L764.457 827.384 L764.457 813.547 M763.537 810.492 L767.947 810.492 L767.947 827.384 L771.645 827.384 L771.645 830.301 L767.947 830.301 L767.947 836.412 L764.457 836.412 L764.457 830.301 L752.756 830.301 L752.756 826.915 L763.537 810.492 Z" fill="#000000" fill-rule="evenodd" fill-opacity="1" /><path clip-path="url(#clip020)" d="M 0 0 M480.554 733.692 L486.283 733.692 L486.283 713.918 L480.05 715.168 L480.05 711.974 L486.248 710.724 L489.755 710.724 L489.755 733.692 L495.484 733.692 L495.484 736.644 L480.554 736.644 L480.554 733.692 Z" fill="#000000" fill-rule="evenodd" fill-opacity="1" /><path clip-path="url(#clip020)" d="M 0 0 M499.894 733.692 L505.623 733.692 L505.623 713.918 L499.391 715.168 L499.391 711.974 L505.588 710.724 L509.095 710.724 L509.095 733.692 L514.825 733.692 L514.825 736.644 L499.894 736.644 L499.894 733.692 Z" fill="#000000" fill-rule="evenodd" fill-opacity="1" /><path clip-path="url(#clip020)" d="M 0 0 M480.554 833.46 L486.283 833.46 L486.283 813.686 L480.05 814.936 L480.05 811.742 L486.248 810.492 L489.755 810.492 L489.755 833.46 L495.484 833.46 L495.484 836.412 L480.554 836.412 L480.554 833.46 Z" fill="#000000" fill-rule="evenodd" fill-opacity="1" /><path clip-path="url(#clip020)" d="M 0 0 M502.307 833.46 L514.547 833.46 L514.547 836.412 L498.088 836.412 L498.088 833.46 Q500.085 831.394 503.522 827.922 Q506.977 824.433 507.863 823.426 Q509.547 821.533 510.206 820.231 Q510.884 818.912 510.884 817.645 Q510.884 815.579 509.425 814.277 Q507.984 812.974 505.658 812.974 Q504.009 812.974 502.168 813.547 Q500.345 814.12 498.262 815.283 L498.262 811.742 Q500.38 810.891 502.22 810.457 Q504.061 810.023 505.588 810.023 Q509.616 810.023 512.012 812.037 Q514.408 814.051 514.408 817.419 Q514.408 819.016 513.8 820.457 Q513.21 821.881 511.63 823.825 Q511.196 824.329 508.87 826.742 Q506.543 829.138 502.307 833.46 Z" fill="#000000" fill-rule="evenodd" fill-opacity="1" /><path clip-path="url(#clip020)" d="M 0 0 M548.73 883.344 L554.459 883.344 L554.459 863.57 L548.227 864.82 L548.227 861.626 L554.425 860.376 L557.932 860.376 L557.932 883.344 L563.661 883.344 L563.661 886.296 L548.73 886.296 L548.73 883.344 Z" fill="#000000" fill-rule="evenodd" fill-opacity="1" /><path clip-path="url(#clip020)" d="M 0 0 M567.498 860.376 L581.265 860.376 L581.265 863.327 L570.709 863.327 L570.709 869.681 Q571.473 869.421 572.237 869.299 Q573.001 869.16 573.765 869.16 Q578.105 869.16 580.64 871.539 Q583.175 873.917 583.175 877.98 Q583.175 882.164 580.57 884.49 Q577.966 886.799 573.227 886.799 Q571.595 886.799 569.893 886.521 Q568.209 886.244 566.404 885.688 L566.404 882.164 Q567.966 883.015 569.633 883.431 Q571.3 883.848 573.157 883.848 Q576.161 883.848 577.914 882.268 Q579.668 880.688 579.668 877.98 Q579.668 875.272 577.914 873.692 Q576.161 872.112 573.157 872.112 Q571.751 872.112 570.345 872.424 Q568.956 872.737 567.498 873.397 L567.498 860.376 Z" fill="#000000" fill-rule="evenodd" fill-opacity="1" /><path clip-path="url(#clip020)" d="M 0 0 M685.083 883.344 L690.812 883.344 L690.812 863.57 L684.58 864.82 L684.58 861.626 L690.777 860.376 L694.284 860.376 L694.284 883.344 L700.013 883.344 L700.013 886.296 L685.083 886.296 L685.083 883.344 Z" fill="#000000" fill-rule="evenodd" fill-opacity="1" /><path clip-path="url(#clip020)" d="M 0 0 M702.93 860.376 L719.597 860.376 L719.597 861.869 L710.187 886.296 L706.524 886.296 L715.378 863.327 L702.93 863.327 L702.93 860.376 Z" fill="#000000" fill-rule="evenodd" fill-opacity="1" /><path clip-path="url(#clip020)" d="M 0 0 M552.445 584.041 L564.685 584.041 L564.685 586.992 L548.227 586.992 L548.227 584.041 Q550.223 581.975 553.661 578.502 Q557.116 575.013 558.001 574.006 Q559.685 572.114 560.345 570.811 Q561.022 569.492 561.022 568.225 Q561.022 566.159 559.564 564.857 Q558.123 563.555 555.796 563.555 Q554.147 563.555 552.307 564.127 Q550.484 564.7 548.4 565.864 L548.4 562.322 Q550.518 561.471 552.359 561.037 Q554.199 560.603 555.727 560.603 Q559.754 560.603 562.15 562.617 Q564.546 564.631 564.546 567.999 Q564.546 569.596 563.938 571.037 Q563.348 572.461 561.768 574.405 Q561.334 574.909 559.008 577.322 Q556.682 579.718 552.445 584.041 Z" fill="#000000" fill-rule="evenodd" fill-opacity="1" /><path clip-path="url(#clip020)" d="M 0 0 M569.095 584.041 L574.824 584.041 L574.824 564.266 L568.591 565.516 L568.591 562.322 L574.789 561.072 L578.296 561.072 L578.296 584.041 L584.025 584.041 L584.025 586.992 L569.095 586.992 L569.095 584.041 Z" fill="#000000" fill-rule="evenodd" fill-opacity="1" /><path clip-path="url(#clip020)" d="M 0 0 M552.445 683.809 L564.685 683.809 L564.685 686.76 L548.227 686.76 L548.227 683.809 Q550.223 681.743 553.661 678.27 Q557.116 674.781 558.001 673.774 Q559.685 671.881 560.345 670.579 Q561.022 669.26 561.022 667.993 Q561.022 665.927 559.564 664.625 Q558.123 663.323 555.796 663.323 Q554.147 663.323 552.307 663.895 Q550.484 664.468 548.4 665.632 L548.4 662.09 Q550.518 661.239 552.359 660.805 Q554.199 660.371 555.727 660.371 Q559.754 660.371 562.15 662.385 Q564.546 664.399 564.546 667.767 Q564.546 669.364 563.938 670.805 Q563.348 672.229 561.768 674.173 Q561.334 674.677 559.008 677.09 Q556.682 679.486 552.445 683.809 Z" fill="#000000" fill-rule="evenodd" fill-opacity="1" /><path clip-path="url(#clip020)" d="M 0 0 M571.508 683.809 L583.747 683.809 L583.747 686.76 L567.289 686.76 L567.289 683.809 Q569.286 681.743 572.723 678.27 Q576.178 674.781 577.063 673.774 Q578.747 671.881 579.407 670.579 Q580.084 669.26 580.084 667.993 Q580.084 665.927 578.626 664.625 Q577.185 663.323 574.859 663.323 Q573.209 663.323 571.369 663.895 Q569.546 664.468 567.463 665.632 L567.463 662.09 Q569.581 661.239 571.421 660.805 Q573.261 660.371 574.789 660.371 Q578.817 660.371 581.213 662.385 Q583.609 664.399 583.609 667.767 Q583.609 669.364 583.001 670.805 Q582.411 672.229 580.831 674.173 Q580.397 674.677 578.07 677.09 Q575.744 679.486 571.508 683.809 Z" fill="#000000" fill-rule="evenodd" fill-opacity="1" /><circle clip-path="url(#clip022)" cx="616.403" cy="145.812" r="14" fill="#0000ff" fill-rule="evenodd" fill-opacity="1" stroke="none"/>
<circle clip-path="url(#clip022)" cx="616.403" cy="245.58" r="14" fill="#0000ff" fill-rule="evenodd" fill-opacity="1" stroke="none"/>
<circle clip-path="url(#clip022)" cx="752.756" cy="145.812" r="14" fill="#0000ff" fill-rule="evenodd" fill-opacity="1" stroke="none"/>
<circle clip-path="url(#clip022)" cx="752.756" cy="245.58" r="14" fill="#0000ff" fill-rule="evenodd" fill-opacity="1" stroke="none"/>
<circle clip-path="url(#clip022)" cx="480.05" cy="445.116" r="14" fill="#0000ff" fill-rule="evenodd" fill-opacity="1" stroke="none"/>
<circle clip-path="url(#clip022)" cx="480.05" cy="544.884" r="14" fill="#0000ff" fill-rule="evenodd" fill-opacity="1" stroke="none"/>
<circle clip-path="url(#clip022)" cx="616.403" cy="445.116" r="14" fill="#0000ff" fill-rule="evenodd" fill-opacity="1" stroke="none"/>
<circle clip-path="url(#clip022)" cx="616.403" cy="544.884" r="14" fill="#0000ff" fill-rule="evenodd" fill-opacity="1" stroke="none"/>
<circle clip-path="url(#clip022)" cx="752.756" cy="445.116" r="14" fill="#0000ff" fill-rule="evenodd" fill-opacity="1" stroke="none"/>
<circle clip-path="url(#clip022)" cx="752.756" cy="544.884" r="14" fill="#0000ff" fill-rule="evenodd" fill-opacity="1" stroke="none"/>
<circle clip-path="url(#clip022)" cx="480.05" cy="145.812" r="14" fill="#0000ff" fill-rule="evenodd" fill-opacity="1" stroke="none"/>
<circle clip-path="url(#clip022)" cx="480.05" cy="245.58" r="14" fill="#0000ff" fill-rule="evenodd" fill-opacity="1" stroke="none"/>
<circle clip-path="url(#clip022)" cx="548.227" cy="295.464" r="14" fill="#0000ff" fill-rule="evenodd" fill-opacity="1" stroke="none"/>
<circle clip-path="url(#clip022)" cx="548.227" cy="395.232" r="14" fill="#0000ff" fill-rule="evenodd" fill-opacity="1" stroke="none"/>
<circle clip-path="url(#clip022)" cx="684.58" cy="295.464" r="14" fill="#0000ff" fill-rule="evenodd" fill-opacity="1" stroke="none"/>
<circle clip-path="url(#clip022)" cx="684.58" cy="395.232" r="14" fill="#0000ff" fill-rule="evenodd" fill-opacity="1" stroke="none"/>
<circle clip-path="url(#clip022)" cx="548.227" cy="95.9282" r="14" fill="#0000ff" fill-rule="evenodd" fill-opacity="1" stroke="none"/>
<circle clip-path="url(#clip022)" cx="684.58" cy="594.768" r="14" fill="#0000ff" fill-rule="evenodd" fill-opacity="1" stroke="none"/>
<circle clip-path="url(#clip022)" cx="684.58" cy="694.536" r="14" fill="#0000ff" fill-rule="evenodd" fill-opacity="1" stroke="none"/>
<path clip-path="url(#clip020)" d="M 0 0 M616.907 135.085 L622.636 135.085 L622.636 115.311 L616.403 116.561 L616.403 113.366 L622.601 112.116 L626.108 112.116 L626.108 135.085 L631.837 135.085 L631.837 138.036 L616.907 138.036 L616.907 135.085 Z" fill="#000000" fill-rule="evenodd" fill-opacity="1" /><path clip-path="url(#clip020)" d="M 0 0 M620.622 234.853 L632.861 234.853 L632.861 237.804 L616.403 237.804 L616.403 234.853 Q618.4 232.787 621.837 229.315 Q625.292 225.825 626.177 224.818 Q627.861 222.926 628.521 221.624 Q629.198 220.304 629.198 219.037 Q629.198 216.971 627.74 215.669 Q626.299 214.367 623.973 214.367 Q622.323 214.367 620.483 214.94 Q618.66 215.513 616.577 216.676 L616.577 213.134 Q618.695 212.283 620.535 211.849 Q622.375 211.415 623.903 211.415 Q627.931 211.415 630.327 213.429 Q632.723 215.443 632.723 218.811 Q632.723 220.408 632.115 221.849 Q631.525 223.273 629.945 225.217 Q629.511 225.721 627.184 228.134 Q624.858 230.53 620.622 234.853 Z" fill="#000000" fill-rule="evenodd" fill-opacity="1" /><path clip-path="url(#clip020)" d="M 0 0 M764.475 124.061 Q766.992 124.599 768.398 126.3 Q769.822 128.002 769.822 130.502 Q769.822 134.338 767.183 136.439 Q764.544 138.54 759.683 138.54 Q758.051 138.54 756.315 138.21 Q754.596 137.897 752.756 137.255 L752.756 133.87 Q754.214 134.72 755.95 135.154 Q757.686 135.588 759.579 135.588 Q762.877 135.588 764.596 134.286 Q766.332 132.984 766.332 130.502 Q766.332 128.21 764.718 126.925 Q763.12 125.623 760.256 125.623 L757.235 125.623 L757.235 122.741 L760.395 122.741 Q762.982 122.741 764.353 121.717 Q765.725 120.675 765.725 118.731 Q765.725 116.734 764.301 115.675 Q762.895 114.599 760.256 114.599 Q758.815 114.599 757.166 114.911 Q755.516 115.224 753.537 115.884 L753.537 112.759 Q755.534 112.203 757.27 111.925 Q759.023 111.647 760.568 111.647 Q764.561 111.647 766.888 113.47 Q769.214 115.276 769.214 118.366 Q769.214 120.519 767.982 122.012 Q766.749 123.488 764.475 124.061 Z" fill="#000000" fill-rule="evenodd" fill-opacity="1" /><path clip-path="url(#clip020)" d="M 0 0 M764.457 214.94 L755.603 228.776 L764.457 228.776 L764.457 214.94 M763.537 211.884 L767.947 211.884 L767.947 228.776 L771.645 228.776 L771.645 231.693 L767.947 231.693 L767.947 237.804 L764.457 237.804 L764.457 231.693 L752.756 231.693 L752.756 228.308 L763.537 211.884 Z" fill="#000000" fill-rule="evenodd" fill-opacity="1" /><path clip-path="url(#clip020)" d="M 0 0 M481.144 411.42 L494.911 411.42 L494.911 414.371 L484.356 414.371 L484.356 420.726 Q485.12 420.465 485.884 420.344 Q486.648 420.205 487.411 420.205 Q491.752 420.205 494.286 422.583 Q496.821 424.962 496.821 429.024 Q496.821 433.208 494.217 435.534 Q491.613 437.843 486.873 437.843 Q485.241 437.843 483.54 437.566 Q481.856 437.288 480.05 436.732 L480.05 433.208 Q481.613 434.059 483.28 434.475 Q484.946 434.892 486.804 434.892 Q489.807 434.892 491.561 433.312 Q493.314 431.732 493.314 429.024 Q493.314 426.316 491.561 424.736 Q489.807 423.156 486.804 423.156 Q485.398 423.156 483.991 423.469 Q482.602 423.781 481.144 424.441 L481.144 411.42 Z" fill="#000000" fill-rule="evenodd" fill-opacity="1" /><path clip-path="url(#clip020)" d="M 0 0 M489.304 522.75 Q486.943 522.75 485.554 524.365 Q484.182 525.98 484.182 528.792 Q484.182 531.587 485.554 533.219 Q486.943 534.834 489.304 534.834 Q491.665 534.834 493.036 533.219 Q494.425 531.587 494.425 528.792 Q494.425 525.98 493.036 524.365 Q491.665 522.75 489.304 522.75 M496.266 511.761 L496.266 514.955 Q494.946 514.33 493.592 514 Q492.255 513.671 490.936 513.671 Q487.464 513.671 485.623 516.014 Q483.8 518.358 483.54 523.098 Q484.564 521.587 486.109 520.789 Q487.655 519.973 489.512 519.973 Q493.418 519.973 495.675 522.351 Q497.95 524.712 497.95 528.792 Q497.95 532.785 495.589 535.198 Q493.227 537.611 489.304 537.611 Q484.807 537.611 482.429 534.174 Q480.05 530.719 480.05 524.174 Q480.05 518.028 482.967 514.382 Q485.884 510.719 490.797 510.719 Q492.116 510.719 493.453 510.98 Q494.807 511.24 496.266 511.761 Z" fill="#000000" fill-rule="evenodd" fill-opacity="1" /><path clip-path="url(#clip020)" d="M 0 0 M616.403 411.42 L633.07 411.42 L633.07 412.913 L623.66 437.34 L619.997 437.34 L628.851 414.371 L616.403 414.371 L616.403 411.42 Z" fill="#000000" fill-rule="evenodd" fill-opacity="1" /><path clip-path="url(#clip020)" d="M 0 0 M625.292 524.799 Q622.792 524.799 621.351 526.136 Q619.927 527.473 619.927 529.816 Q619.927 532.16 621.351 533.497 Q622.792 534.834 625.292 534.834 Q627.792 534.834 629.233 533.497 Q630.674 532.143 630.674 529.816 Q630.674 527.473 629.233 526.136 Q627.809 524.799 625.292 524.799 M621.785 523.306 Q619.528 522.75 618.261 521.205 Q617.011 519.66 617.011 517.438 Q617.011 514.33 619.216 512.525 Q621.438 510.719 625.292 510.719 Q629.163 510.719 631.368 512.525 Q633.573 514.33 633.573 517.438 Q633.573 519.66 632.306 521.205 Q631.056 522.75 628.816 523.306 Q631.351 523.896 632.757 525.615 Q634.181 527.334 634.181 529.816 Q634.181 533.584 631.872 535.598 Q629.58 537.611 625.292 537.611 Q621.004 537.611 618.695 535.598 Q616.403 533.584 616.403 529.816 Q616.403 527.334 617.827 525.615 Q619.25 523.896 621.785 523.306 M620.5 517.768 Q620.5 519.782 621.75 520.91 Q623.018 522.039 625.292 522.039 Q627.549 522.039 628.816 520.91 Q630.101 519.782 630.101 517.768 Q630.101 515.754 628.816 514.625 Q627.549 513.497 625.292 513.497 Q623.018 513.497 621.75 514.625 Q620.5 515.754 620.5 517.768 Z" fill="#000000" fill-rule="evenodd" fill-opacity="1" /><path clip-path="url(#clip020)" d="M 0 0 M754.423 436.802 L754.423 433.607 Q755.742 434.232 757.096 434.562 Q758.45 434.892 759.752 434.892 Q763.225 434.892 765.048 432.566 Q766.888 430.222 767.148 425.465 Q766.141 426.958 764.596 427.757 Q763.051 428.555 761.176 428.555 Q757.287 428.555 755.013 426.212 Q752.756 423.851 752.756 419.771 Q752.756 415.778 755.117 413.364 Q757.478 410.951 761.402 410.951 Q765.898 410.951 768.259 414.406 Q770.638 417.844 770.638 424.406 Q770.638 430.535 767.721 434.198 Q764.822 437.843 759.909 437.843 Q758.589 437.843 757.235 437.583 Q755.881 437.323 754.423 436.802 M761.402 425.812 Q763.763 425.812 765.134 424.198 Q766.523 422.583 766.523 419.771 Q766.523 416.976 765.134 415.361 Q763.763 413.729 761.402 413.729 Q759.041 413.729 757.652 415.361 Q756.28 416.976 756.28 419.771 Q756.28 422.583 757.652 424.198 Q759.041 425.812 761.402 425.812 Z" fill="#000000" fill-rule="evenodd" fill-opacity="1" /><path clip-path="url(#clip020)" d="M 0 0 M753.259 534.157 L758.989 534.157 L758.989 514.382 L752.756 515.632 L752.756 512.438 L758.954 511.188 L762.461 511.188 L762.461 534.157 L768.19 534.157 L768.19 537.108 L753.259 537.108 L753.259 534.157 Z" fill="#000000" fill-rule="evenodd" fill-opacity="1" /><path clip-path="url(#clip020)" d="M 0 0 M779.492 513.497 Q776.784 513.497 775.412 516.171 Q774.058 518.827 774.058 524.174 Q774.058 529.504 775.412 532.177 Q776.784 534.834 779.492 534.834 Q782.218 534.834 783.572 532.177 Q784.943 529.504 784.943 524.174 Q784.943 518.827 783.572 516.171 Q782.218 513.497 779.492 513.497 M779.492 510.719 Q783.849 510.719 786.141 514.174 Q788.45 517.612 788.45 524.174 Q788.45 530.719 786.141 534.174 Q783.849 537.611 779.492 537.611 Q775.134 537.611 772.825 534.174 Q770.534 530.719 770.534 524.174 Q770.534 517.612 772.825 514.174 Q775.134 510.719 779.492 510.719 Z" fill="#000000" fill-rule="evenodd" fill-opacity="1" /><path clip-path="url(#clip020)" d="M 0 0 M480.554 135.085 L486.283 135.085 L486.283 115.311 L480.05 116.561 L480.05 113.366 L486.248 112.116 L489.755 112.116 L489.755 135.085 L495.484 135.085 L495.484 138.036 L480.554 138.036 L480.554 135.085 Z" fill="#000000" fill-rule="evenodd" fill-opacity="1" /><path clip-path="url(#clip020)" d="M 0 0 M499.894 135.085 L505.623 135.085 L505.623 115.311 L499.391 116.561 L499.391 113.366 L505.588 112.116 L509.095 112.116 L509.095 135.085 L514.825 135.085 L514.825 138.036 L499.894 138.036 L499.894 135.085 Z" fill="#000000" fill-rule="evenodd" fill-opacity="1" /><path clip-path="url(#clip020)" d="M 0 0 M480.554 234.853 L486.283 234.853 L486.283 215.079 L480.05 216.329 L480.05 213.134 L486.248 211.884 L489.755 211.884 L489.755 234.853 L495.484 234.853 L495.484 237.804 L480.554 237.804 L480.554 234.853 Z" fill="#000000" fill-rule="evenodd" fill-opacity="1" /><path clip-path="url(#clip020)" d="M 0 0 M502.307 234.853 L514.547 234.853 L514.547 237.804 L498.088 237.804 L498.088 234.853 Q500.085 232.787 503.522 229.315 Q506.977 225.825 507.863 224.818 Q509.547 222.926 510.206 221.624 Q510.884 220.304 510.884 219.037 Q510.884 216.971 509.425 215.669 Q507.984 214.367 505.658 214.367 Q504.009 214.367 502.168 214.94 Q500.345 215.513 498.262 216.676 L498.262 213.134 Q500.38 212.283 502.22 211.849 Q504.061 211.415 505.588 211.415 Q509.616 211.415 512.012 213.429 Q514.408 215.443 514.408 218.811 Q514.408 220.408 513.8 221.849 Q513.21 223.273 511.63 225.217 Q511.196 225.721 508.87 228.134 Q506.543 230.53 502.307 234.853 Z" fill="#000000" fill-rule="evenodd" fill-opacity="1" /><path clip-path="url(#clip020)" d="M 0 0 M548.73 284.737 L554.459 284.737 L554.459 264.963 L548.227 266.213 L548.227 263.018 L554.425 261.768 L557.932 261.768 L557.932 284.737 L563.661 284.737 L563.661 287.688 L548.73 287.688 L548.73 284.737 Z" fill="#000000" fill-rule="evenodd" fill-opacity="1" /><path clip-path="url(#clip020)" d="M 0 0 M567.498 261.768 L581.265 261.768 L581.265 264.719 L570.709 264.719 L570.709 271.074 Q571.473 270.813 572.237 270.692 Q573.001 270.553 573.765 270.553 Q578.105 270.553 580.64 272.931 Q583.175 275.31 583.175 279.372 Q583.175 283.556 580.57 285.883 Q577.966 288.192 573.227 288.192 Q571.595 288.192 569.893 287.914 Q568.209 287.636 566.404 287.08 L566.404 283.556 Q567.966 284.407 569.633 284.824 Q571.3 285.24 573.157 285.24 Q576.161 285.24 577.914 283.66 Q579.668 282.081 579.668 279.372 Q579.668 276.664 577.914 275.084 Q576.161 273.504 573.157 273.504 Q571.751 273.504 570.345 273.817 Q568.956 274.129 567.498 274.789 L567.498 261.768 Z" fill="#000000" fill-rule="evenodd" fill-opacity="1" /><path clip-path="url(#clip020)" d="M 0 0 M548.73 384.505 L554.459 384.505 L554.459 364.73 L548.227 365.98 L548.227 362.786 L554.425 361.536 L557.932 361.536 L557.932 384.505 L563.661 384.505 L563.661 387.456 L548.73 387.456 L548.73 384.505 Z" fill="#000000" fill-rule="evenodd" fill-opacity="1" /><path clip-path="url(#clip020)" d="M 0 0 M575.397 373.098 Q573.036 373.098 571.647 374.713 Q570.275 376.328 570.275 379.14 Q570.275 381.935 571.647 383.567 Q573.036 385.182 575.397 385.182 Q577.758 385.182 579.129 383.567 Q580.518 381.935 580.518 379.14 Q580.518 376.328 579.129 374.713 Q577.758 373.098 575.397 373.098 M582.359 362.109 L582.359 365.303 Q581.039 364.678 579.685 364.349 Q578.348 364.019 577.029 364.019 Q573.556 364.019 571.716 366.362 Q569.893 368.706 569.633 373.446 Q570.657 371.935 572.202 371.137 Q573.747 370.321 575.605 370.321 Q579.511 370.321 581.768 372.699 Q584.043 375.06 584.043 379.14 Q584.043 383.133 581.681 385.546 Q579.32 387.96 575.397 387.96 Q570.9 387.96 568.522 384.522 Q566.143 381.067 566.143 374.522 Q566.143 368.376 569.06 364.73 Q571.977 361.067 576.89 361.067 Q578.209 361.067 579.546 361.328 Q580.9 361.588 582.359 362.109 Z" fill="#000000" fill-rule="evenodd" fill-opacity="1" /><path clip-path="url(#clip020)" d="M 0 0 M685.083 284.737 L690.812 284.737 L690.812 264.963 L684.58 266.213 L684.58 263.018 L690.777 261.768 L694.284 261.768 L694.284 284.737 L700.013 284.737 L700.013 287.688 L685.083 287.688 L685.083 284.737 Z" fill="#000000" fill-rule="evenodd" fill-opacity="1" /><path clip-path="url(#clip020)" d="M 0 0 M702.93 261.768 L719.597 261.768 L719.597 263.261 L710.187 287.688 L706.524 287.688 L715.378 264.719 L702.93 264.719 L702.93 261.768 Z" fill="#000000" fill-rule="evenodd" fill-opacity="1" /><path clip-path="url(#clip020)" d="M 0 0 M685.083 384.505 L690.812 384.505 L690.812 364.73 L684.58 365.98 L684.58 362.786 L690.777 361.536 L694.284 361.536 L694.284 384.505 L700.013 384.505 L700.013 387.456 L685.083 387.456 L685.083 384.505 Z" fill="#000000" fill-rule="evenodd" fill-opacity="1" /><path clip-path="url(#clip020)" d="M 0 0 M711.315 375.147 Q708.816 375.147 707.375 376.484 Q705.951 377.821 705.951 380.164 Q705.951 382.508 707.375 383.845 Q708.816 385.182 711.315 385.182 Q713.815 385.182 715.256 383.845 Q716.697 382.491 716.697 380.164 Q716.697 377.821 715.256 376.484 Q713.833 375.147 711.315 375.147 M707.809 373.654 Q705.552 373.098 704.284 371.553 Q703.034 370.008 703.034 367.786 Q703.034 364.678 705.239 362.873 Q707.461 361.067 711.315 361.067 Q715.187 361.067 717.392 362.873 Q719.597 364.678 719.597 367.786 Q719.597 370.008 718.329 371.553 Q717.079 373.098 714.84 373.654 Q717.374 374.244 718.781 375.963 Q720.204 377.682 720.204 380.164 Q720.204 383.932 717.895 385.946 Q715.604 387.96 711.315 387.96 Q707.027 387.96 704.718 385.946 Q702.427 383.932 702.427 380.164 Q702.427 377.682 703.85 375.963 Q705.274 374.244 707.809 373.654 M706.524 368.116 Q706.524 370.13 707.774 371.258 Q709.041 372.387 711.315 372.387 Q713.572 372.387 714.84 371.258 Q716.124 370.13 716.124 368.116 Q716.124 366.102 714.84 364.974 Q713.572 363.845 711.315 363.845 Q709.041 363.845 707.774 364.974 Q706.524 366.102 706.524 368.116 Z" fill="#000000" fill-rule="evenodd" fill-opacity="1" /><path clip-path="url(#clip020)" d="M 0 0 M552.445 85.2008 L564.685 85.2008 L564.685 88.1522 L548.227 88.1522 L548.227 85.2008 Q550.223 83.1349 553.661 79.6627 Q557.116 76.1731 558.001 75.1662 Q559.685 73.2738 560.345 71.9718 Q561.022 70.6523 561.022 69.385 Q561.022 67.319 559.564 66.0169 Q558.123 64.7148 555.796 64.7148 Q554.147 64.7148 552.307 65.2878 Q550.484 65.8607 548.4 67.0239 L548.4 63.4822 Q550.518 62.6315 552.359 62.1975 Q554.199 61.7635 555.727 61.7635 Q559.754 61.7635 562.15 63.7774 Q564.546 65.7912 564.546 69.1593 Q564.546 70.7565 563.938 72.1974 Q563.348 73.621 561.768 75.5655 Q561.334 76.069 559.008 78.4821 Q556.682 80.878 552.445 85.2008 Z" fill="#000000" fill-rule="evenodd" fill-opacity="1" /><path clip-path="url(#clip020)" d="M 0 0 M571.508 85.2008 L583.747 85.2008 L583.747 88.1522 L567.289 88.1522 L567.289 85.2008 Q569.286 83.1349 572.723 79.6627 Q576.178 76.1731 577.063 75.1662 Q578.747 73.2738 579.407 71.9718 Q580.084 70.6523 580.084 69.385 Q580.084 67.319 578.626 66.0169 Q577.185 64.7148 574.859 64.7148 Q573.209 64.7148 571.369 65.2878 Q569.546 65.8607 567.463 67.0239 L567.463 63.4822 Q569.581 62.6315 571.421 62.1975 Q573.261 61.7635 574.789 61.7635 Q578.817 61.7635 581.213 63.7774 Q583.609 65.7912 583.609 69.1593 Q583.609 70.7565 583.001 72.1974 Q582.411 73.621 580.831 75.5655 Q580.397 76.069 578.07 78.4821 Q575.744 80.878 571.508 85.2008 Z" fill="#000000" fill-rule="evenodd" fill-opacity="1" /><path clip-path="url(#clip020)" d="M 0 0 M688.798 584.041 L701.038 584.041 L701.038 586.992 L684.58 586.992 L684.58 584.041 Q686.576 581.975 690.014 578.502 Q693.468 575.013 694.354 574.006 Q696.038 572.114 696.698 570.811 Q697.375 569.492 697.375 568.225 Q697.375 566.159 695.916 564.857 Q694.475 563.555 692.149 563.555 Q690.5 563.555 688.659 564.127 Q686.836 564.7 684.753 565.864 L684.753 562.322 Q686.871 561.471 688.711 561.037 Q690.552 560.603 692.079 560.603 Q696.107 560.603 698.503 562.617 Q700.899 564.631 700.899 567.999 Q700.899 569.596 700.291 571.037 Q699.701 572.461 698.121 574.405 Q697.687 574.909 695.361 577.322 Q693.034 579.718 688.798 584.041 Z" fill="#000000" fill-rule="evenodd" fill-opacity="1" /><path clip-path="url(#clip020)" d="M 0 0 M715.465 573.016 Q717.982 573.555 719.388 575.256 Q720.812 576.957 720.812 579.457 Q720.812 583.294 718.173 585.395 Q715.534 587.495 710.673 587.495 Q709.041 587.495 707.305 587.166 Q705.586 586.853 703.746 586.211 L703.746 582.825 Q705.204 583.676 706.941 584.11 Q708.677 584.544 710.569 584.544 Q713.868 584.544 715.586 583.242 Q717.322 581.94 717.322 579.457 Q717.322 577.166 715.708 575.881 Q714.111 574.579 711.246 574.579 L708.225 574.579 L708.225 571.697 L711.385 571.697 Q713.972 571.697 715.343 570.673 Q716.715 569.631 716.715 567.686 Q716.715 565.69 715.291 564.631 Q713.885 563.555 711.246 563.555 Q709.805 563.555 708.156 563.867 Q706.506 564.18 704.527 564.839 L704.527 561.714 Q706.524 561.159 708.26 560.881 Q710.013 560.603 711.559 560.603 Q715.552 560.603 717.878 562.426 Q720.204 564.232 720.204 567.322 Q720.204 569.475 718.972 570.968 Q717.739 572.443 715.465 573.016 Z" fill="#000000" fill-rule="evenodd" fill-opacity="1" /><path clip-path="url(#clip020)" d="M 0 0 M688.798 683.809 L701.038 683.809 L701.038 686.76 L684.58 686.76 L684.58 683.809 Q686.576 681.743 690.014 678.27 Q693.468 674.781 694.354 673.774 Q696.038 671.881 696.698 670.579 Q697.375 669.26 697.375 667.993 Q697.375 665.927 695.916 664.625 Q694.475 663.323 692.149 663.323 Q690.5 663.323 688.659 663.895 Q686.836 664.468 684.753 665.632 L684.753 662.09 Q686.871 661.239 688.711 660.805 Q690.552 660.371 692.079 660.371 Q696.107 660.371 698.503 662.385 Q700.899 664.399 700.899 667.767 Q700.899 669.364 700.291 670.805 Q699.701 672.229 698.121 674.173 Q697.687 674.677 695.361 677.09 Q693.034 679.486 688.798 683.809 Z" fill="#000000" fill-rule="evenodd" fill-opacity="1" /><path clip-path="url(#clip020)" d="M 0 0 M714.475 663.895 L705.621 677.732 L714.475 677.732 L714.475 663.895 M713.555 660.84 L717.965 660.84 L717.965 677.732 L721.663 677.732 L721.663 680.649 L717.965 680.649 L717.965 686.76 L714.475 686.76 L714.475 680.649 L702.774 680.649 L702.774 677.263 L713.555 660.84 Z" fill="#000000" fill-rule="evenodd" fill-opacity="1" /><circle clip-path="url(#clip022)" cx="684.58" cy="95.9282" r="14" fill="#0000ff" fill-rule="evenodd" fill-opacity="1" stroke="none"/>
<path clip-path="url(#clip020)" d="M 0 0 M688.798 85.2008 L701.038 85.2008 L701.038 88.1522 L684.58 88.1522 L684.58 85.2008 Q686.576 83.1349 690.014 79.6627 Q693.468 76.1731 694.354 75.1662 Q696.038 73.2738 696.698 71.9718 Q697.375 70.6523 697.375 69.385 Q697.375 67.319 695.916 66.0169 Q694.475 64.7148 692.149 64.7148 Q690.5 64.7148 688.659 65.2878 Q686.836 65.8607 684.753 67.0239 L684.753 63.4822 Q686.871 62.6315 688.711 62.1975 Q690.552 61.7635 692.079 61.7635 Q696.107 61.7635 698.503 63.7774 Q700.899 65.7912 700.899 69.1593 Q700.899 70.7565 700.291 72.1974 Q699.701 73.621 698.121 75.5655 Q697.687 76.069 695.361 78.4821 Q693.034 80.878 688.798 85.2008 Z" fill="#000000" fill-rule="evenodd" fill-opacity="1" /><path clip-path="url(#clip020)" d="M 0 0 M714.475 65.2878 L705.621 79.1245 L714.475 79.1245 L714.475 65.2878 M713.555 62.2322 L717.965 62.2322 L717.965 79.1245 L721.663 79.1245 L721.663 82.0411 L717.965 82.0411 L717.965 88.1522 L714.475 88.1522 L714.475 82.0411 L702.774 82.0411 L702.774 78.6557 L713.555 62.2322 Z" fill="#000000" fill-rule="evenodd" fill-opacity="1" /></svg>
