<?xml version="1.0" encoding="UTF-8"?>
<svg xmlns="http://www.w3.org/2000/svg" xmlns:xlink="http://www.w3.org/1999/xlink" width="800pt" height="300pt" viewBox="0 0 800 300" version="1.1">
<g id="surface1">
<path style="fill:none;stroke-width:2;stroke-linecap:butt;stroke-linejoin:miter;stroke:rgb(50.196078%,50.196078%,50.196078%);stroke-opacity:1;stroke-miterlimit:10;" d="M 66.25 221.542969 L 58.75 208.554688 "/>
<path style="fill:none;stroke-width:2;stroke-linecap:butt;stroke-linejoin:miter;stroke:rgb(50.196078%,50.196078%,50.196078%);stroke-opacity:1;stroke-miterlimit:10;" d="M 42.5 236.699219 L 57.5 236.699219 "/>
<path style="fill:none;stroke-width:2;stroke-linecap:butt;stroke-linejoin:miter;stroke:rgb(50.196078%,50.196078%,50.196078%);stroke-opacity:1;stroke-miterlimit:10;" d="M 33.75 221.542969 L 41.25 208.554688 "/>
<path style="fill:none;stroke-width:2;stroke-linecap:butt;stroke-linejoin:miter;stroke:rgb(50.196078%,50.196078%,50.196078%);stroke-opacity:1;stroke-miterlimit:10;" d="M 91.25 264.84375 L 83.75 251.855469 "/>
<path style="fill:none;stroke-width:2;stroke-linecap:butt;stroke-linejoin:miter;stroke:rgb(50.196078%,50.196078%,50.196078%);stroke-opacity:1;stroke-miterlimit:10;" d="M 92.5 236.699219 L 107.5 236.699219 "/>
<path style="fill:none;stroke-width:2;stroke-linecap:butt;stroke-linejoin:miter;stroke:rgb(50.196078%,50.196078%,50.196078%);stroke-opacity:1;stroke-miterlimit:10;" d="M 108.75 264.84375 L 116.25 251.855469 "/>
<path style="fill:none;stroke-width:2;stroke-linecap:butt;stroke-linejoin:miter;stroke:rgb(50.196078%,50.196078%,50.196078%);stroke-opacity:1;stroke-miterlimit:10;" d="M 166.25 221.542969 L 158.75 208.554688 "/>
<path style="fill:none;stroke-width:2;stroke-linecap:butt;stroke-linejoin:miter;stroke:rgb(50.196078%,50.196078%,50.196078%);stroke-opacity:1;stroke-miterlimit:10;" d="M 142.5 236.699219 L 157.5 236.699219 "/>
<path style="fill:none;stroke-width:2;stroke-linecap:butt;stroke-linejoin:miter;stroke:rgb(50.196078%,50.196078%,50.196078%);stroke-opacity:1;stroke-miterlimit:10;" d="M 133.75 221.542969 L 141.25 208.554688 "/>
<path style="fill:none;stroke-width:2;stroke-linecap:butt;stroke-linejoin:miter;stroke:rgb(50.196078%,50.196078%,50.196078%);stroke-opacity:1;stroke-miterlimit:10;" d="M 191.25 264.84375 L 183.75 251.855469 "/>
<path style="fill:none;stroke-width:2;stroke-linecap:butt;stroke-linejoin:miter;stroke:rgb(50.196078%,50.196078%,50.196078%);stroke-opacity:1;stroke-miterlimit:10;" d="M 192.5 236.699219 L 207.5 236.699219 "/>
<path style="fill:none;stroke-width:2;stroke-linecap:butt;stroke-linejoin:miter;stroke:rgb(50.196078%,50.196078%,50.196078%);stroke-opacity:1;stroke-miterlimit:10;" d="M 208.75 264.84375 L 216.25 251.855469 "/>
<path style="fill:none;stroke-width:2;stroke-linecap:butt;stroke-linejoin:miter;stroke:rgb(50.196078%,50.196078%,50.196078%);stroke-opacity:1;stroke-miterlimit:10;" d="M 266.25 221.542969 L 258.75 208.554688 "/>
<path style="fill:none;stroke-width:2;stroke-linecap:butt;stroke-linejoin:miter;stroke:rgb(50.196078%,50.196078%,50.196078%);stroke-opacity:1;stroke-miterlimit:10;" d="M 242.5 236.699219 L 257.5 236.699219 "/>
<path style="fill:none;stroke-width:2;stroke-linecap:butt;stroke-linejoin:miter;stroke:rgb(50.196078%,50.196078%,50.196078%);stroke-opacity:1;stroke-miterlimit:10;" d="M 233.75 221.542969 L 241.25 208.554688 "/>
<path style="fill:none;stroke-width:2;stroke-linecap:butt;stroke-linejoin:miter;stroke:rgb(50.196078%,50.196078%,50.196078%);stroke-opacity:1;stroke-miterlimit:10;" d="M 41.25 178.242188 L 33.75 165.25 "/>
<path style="fill:none;stroke-width:2;stroke-linecap:butt;stroke-linejoin:miter;stroke:rgb(50.196078%,50.196078%,50.196078%);stroke-opacity:1;stroke-miterlimit:10;" d="M 42.5 150.097656 L 57.5 150.097656 "/>
<path style="fill:none;stroke-width:2;stroke-linecap:butt;stroke-linejoin:miter;stroke:rgb(50.196078%,50.196078%,50.196078%);stroke-opacity:1;stroke-miterlimit:10;" d="M 58.75 178.242188 L 66.25 165.25 "/>
<path style="fill:none;stroke-width:2;stroke-linecap:butt;stroke-linejoin:miter;stroke:rgb(50.196078%,50.196078%,50.196078%);stroke-opacity:1;stroke-miterlimit:10;" d="M 116.25 134.941406 L 108.75 121.949219 "/>
<path style="fill:none;stroke-width:2;stroke-linecap:butt;stroke-linejoin:miter;stroke:rgb(50.196078%,50.196078%,50.196078%);stroke-opacity:1;stroke-miterlimit:10;" d="M 92.5 150.097656 L 107.5 150.097656 "/>
<path style="fill:none;stroke-width:2;stroke-linecap:butt;stroke-linejoin:miter;stroke:rgb(50.196078%,50.196078%,50.196078%);stroke-opacity:1;stroke-miterlimit:10;" d="M 83.75 134.941406 L 91.25 121.949219 "/>
<path style="fill:none;stroke-width:2;stroke-linecap:butt;stroke-linejoin:miter;stroke:rgb(50.196078%,50.196078%,50.196078%);stroke-opacity:1;stroke-miterlimit:10;" d="M 141.25 178.242188 L 133.75 165.25 "/>
<path style="fill:none;stroke-width:2;stroke-linecap:butt;stroke-linejoin:miter;stroke:rgb(50.196078%,50.196078%,50.196078%);stroke-opacity:1;stroke-miterlimit:10;" d="M 142.5 150.097656 L 157.5 150.097656 "/>
<path style="fill:none;stroke-width:2;stroke-linecap:butt;stroke-linejoin:miter;stroke:rgb(50.196078%,50.196078%,50.196078%);stroke-opacity:1;stroke-miterlimit:10;" d="M 158.75 178.242188 L 166.25 165.25 "/>
<path style="fill:none;stroke-width:2;stroke-linecap:butt;stroke-linejoin:miter;stroke:rgb(50.196078%,50.196078%,50.196078%);stroke-opacity:1;stroke-miterlimit:10;" d="M 216.25 134.941406 L 208.75 121.949219 "/>
<path style="fill:none;stroke-width:2;stroke-linecap:butt;stroke-linejoin:miter;stroke:rgb(50.196078%,50.196078%,50.196078%);stroke-opacity:1;stroke-miterlimit:10;" d="M 192.5 150.097656 L 207.5 150.097656 "/>
<path style="fill:none;stroke-width:2;stroke-linecap:butt;stroke-linejoin:miter;stroke:rgb(50.196078%,50.196078%,50.196078%);stroke-opacity:1;stroke-miterlimit:10;" d="M 183.75 134.941406 L 191.25 121.949219 "/>
<path style="fill:none;stroke-width:2;stroke-linecap:butt;stroke-linejoin:miter;stroke:rgb(50.196078%,50.196078%,50.196078%);stroke-opacity:1;stroke-miterlimit:10;" d="M 241.25 178.242188 L 233.75 165.25 "/>
<path style="fill:none;stroke-width:2;stroke-linecap:butt;stroke-linejoin:miter;stroke:rgb(50.196078%,50.196078%,50.196078%);stroke-opacity:1;stroke-miterlimit:10;" d="M 242.5 150.097656 L 257.5 150.097656 "/>
<path style="fill:none;stroke-width:2;stroke-linecap:butt;stroke-linejoin:miter;stroke:rgb(50.196078%,50.196078%,50.196078%);stroke-opacity:1;stroke-miterlimit:10;" d="M 258.75 178.242188 L 266.25 165.25 "/>
<path style="fill:none;stroke-width:2;stroke-linecap:butt;stroke-linejoin:miter;stroke:rgb(50.196078%,50.196078%,50.196078%);stroke-opacity:1;stroke-miterlimit:10;" d="M 91.25 91.640625 L 83.75 78.648438 "/>
<path style="fill:none;stroke-width:2;stroke-linecap:butt;stroke-linejoin:miter;stroke:rgb(50.196078%,50.196078%,50.196078%);stroke-opacity:1;stroke-miterlimit:10;" d="M 92.5 63.492188 L 107.5 63.492188 "/>
<path style="fill:none;stroke-width:2;stroke-linecap:butt;stroke-linejoin:miter;stroke:rgb(50.196078%,50.196078%,50.196078%);stroke-opacity:1;stroke-miterlimit:10;" d="M 108.75 91.640625 L 116.25 78.648438 "/>
<path style="fill:none;stroke-width:2;stroke-linecap:butt;stroke-linejoin:miter;stroke:rgb(50.196078%,50.196078%,50.196078%);stroke-opacity:1;stroke-miterlimit:10;" d="M 166.25 48.339844 L 158.75 35.347656 "/>
<path style="fill:none;stroke-width:2;stroke-linecap:butt;stroke-linejoin:miter;stroke:rgb(50.196078%,50.196078%,50.196078%);stroke-opacity:1;stroke-miterlimit:10;" d="M 142.5 63.492188 L 157.5 63.492188 "/>
<path style="fill:none;stroke-width:2;stroke-linecap:butt;stroke-linejoin:miter;stroke:rgb(50.196078%,50.196078%,50.196078%);stroke-opacity:1;stroke-miterlimit:10;" d="M 133.75 48.339844 L 141.25 35.347656 "/>
<path style="fill:none;stroke-width:2;stroke-linecap:butt;stroke-linejoin:miter;stroke:rgb(50.196078%,50.196078%,50.196078%);stroke-opacity:1;stroke-miterlimit:10;" d="M 191.25 91.640625 L 183.75 78.648438 "/>
<path style="fill:none;stroke-width:2;stroke-linecap:butt;stroke-linejoin:miter;stroke:rgb(50.196078%,50.196078%,50.196078%);stroke-opacity:1;stroke-miterlimit:10;" d="M 192.5 63.492188 L 207.5 63.492188 "/>
<path style="fill:none;stroke-width:2;stroke-linecap:butt;stroke-linejoin:miter;stroke:rgb(50.196078%,50.196078%,50.196078%);stroke-opacity:1;stroke-miterlimit:10;" d="M 208.75 91.640625 L 216.25 78.648438 "/>
<path style=" stroke:none;fill-rule:nonzero;fill:rgb(79.607843%,23.529412%,20%);fill-opacity:1;" d="M 41 236.699219 C 41 245.535156 33.835938 252.699219 25 252.699219 C 16.164063 252.699219 9 245.535156 9 236.699219 C 9 227.863281 16.164063 220.699219 25 220.699219 C 33.835938 220.699219 41 227.863281 41 236.699219 "/>
<path style=" stroke:none;fill-rule:nonzero;fill:rgb(21.960784%,59.607843%,14.901961%);fill-opacity:1;" d="M 116 280 C 116 288.835938 108.835938 296 100 296 C 91.164063 296 84 288.835938 84 280 C 84 271.164063 91.164063 264 100 264 C 108.835938 264 116 271.164063 116 280 "/>
<path style=" stroke:none;fill-rule:nonzero;fill:rgb(58.431373%,34.509804%,69.803922%);fill-opacity:1;" d="M 91 236.699219 C 91 245.535156 83.835938 252.699219 75 252.699219 C 66.164063 252.699219 59 245.535156 59 236.699219 C 59 227.863281 66.164063 220.699219 75 220.699219 C 83.835938 220.699219 91 227.863281 91 236.699219 "/>
<path style=" stroke:none;fill-rule:nonzero;fill:rgb(79.607843%,23.529412%,20%);fill-opacity:1;" d="M 141 236.699219 C 141 245.535156 133.835938 252.699219 125 252.699219 C 116.164063 252.699219 109 245.535156 109 236.699219 C 109 227.863281 116.164063 220.699219 125 220.699219 C 133.835938 220.699219 141 227.863281 141 236.699219 "/>
<path style=" stroke:none;fill-rule:nonzero;fill:rgb(21.960784%,59.607843%,14.901961%);fill-opacity:1;" d="M 216 280 C 216 288.835938 208.835938 296 200 296 C 191.164063 296 184 288.835938 184 280 C 184 271.164063 191.164063 264 200 264 C 208.835938 264 216 271.164063 216 280 "/>
<path style=" stroke:none;fill-rule:nonzero;fill:rgb(58.431373%,34.509804%,69.803922%);fill-opacity:1;" d="M 191 236.699219 C 191 245.535156 183.835938 252.699219 175 252.699219 C 166.164063 252.699219 159 245.535156 159 236.699219 C 159 227.863281 166.164063 220.699219 175 220.699219 C 183.835938 220.699219 191 227.863281 191 236.699219 "/>
<path style=" stroke:none;fill-rule:nonzero;fill:rgb(79.607843%,23.529412%,20%);fill-opacity:1;" d="M 241 236.699219 C 241 245.535156 233.835938 252.699219 225 252.699219 C 216.164063 252.699219 209 245.535156 209 236.699219 C 209 227.863281 216.164063 220.699219 225 220.699219 C 233.835938 220.699219 241 227.863281 241 236.699219 "/>
<path style=" stroke:none;fill-rule:nonzero;fill:rgb(58.431373%,34.509804%,69.803922%);fill-opacity:1;" d="M 291 236.699219 C 291 245.535156 283.835938 252.699219 275 252.699219 C 266.164063 252.699219 259 245.535156 259 236.699219 C 259 227.863281 266.164063 220.699219 275 220.699219 C 283.835938 220.699219 291 227.863281 291 236.699219 "/>
<path style=" stroke:none;fill-rule:nonzero;fill:rgb(21.960784%,59.607843%,14.901961%);fill-opacity:1;" d="M 66 193.398438 C 66 202.234375 58.835938 209.398438 50 209.398438 C 41.164063 209.398438 34 202.234375 34 193.398438 C 34 184.5625 41.164063 177.398438 50 177.398438 C 58.835938 177.398438 66 184.5625 66 193.398438 "/>
<path style=" stroke:none;fill-rule:nonzero;fill:rgb(58.431373%,34.509804%,69.803922%);fill-opacity:1;" d="M 41 150.097656 C 41 158.933594 33.835938 166.097656 25 166.097656 C 16.164063 166.097656 9 158.933594 9 150.097656 C 9 141.257813 16.164063 134.097656 25 134.097656 C 33.835938 134.097656 41 141.257813 41 150.097656 "/>
<path style=" stroke:none;fill-rule:nonzero;fill:rgb(79.607843%,23.529412%,20%);fill-opacity:1;" d="M 91 150.097656 C 91 158.933594 83.835938 166.097656 75 166.097656 C 66.164063 166.097656 59 158.933594 59 150.097656 C 59 141.257813 66.164063 134.097656 75 134.097656 C 83.835938 134.097656 91 141.257813 91 150.097656 "/>
<path style=" stroke:none;fill-rule:nonzero;fill:rgb(21.960784%,59.607843%,14.901961%);fill-opacity:1;" d="M 166 193.398438 C 166 202.234375 158.835938 209.398438 150 209.398438 C 141.164063 209.398438 134 202.234375 134 193.398438 C 134 184.5625 141.164063 177.398438 150 177.398438 C 158.835938 177.398438 166 184.5625 166 193.398438 "/>
<path style=" stroke:none;fill-rule:nonzero;fill:rgb(58.431373%,34.509804%,69.803922%);fill-opacity:1;" d="M 141 150.097656 C 141 158.933594 133.835938 166.097656 125 166.097656 C 116.164063 166.097656 109 158.933594 109 150.097656 C 109 141.257813 116.164063 134.097656 125 134.097656 C 133.835938 134.097656 141 141.257813 141 150.097656 "/>
<path style=" stroke:none;fill-rule:nonzero;fill:rgb(79.607843%,23.529412%,20%);fill-opacity:1;" d="M 191 150.097656 C 191 158.933594 183.835938 166.097656 175 166.097656 C 166.164063 166.097656 159 158.933594 159 150.097656 C 159 141.257813 166.164063 134.097656 175 134.097656 C 183.835938 134.097656 191 141.257813 191 150.097656 "/>
<path style=" stroke:none;fill-rule:nonzero;fill:rgb(21.960784%,59.607843%,14.901961%);fill-opacity:1;" d="M 266 193.398438 C 266 202.234375 258.835938 209.398438 250 209.398438 C 241.164063 209.398438 234 202.234375 234 193.398438 C 234 184.5625 241.164063 177.398438 250 177.398438 C 258.835938 177.398438 266 184.5625 266 193.398438 "/>
<path style=" stroke:none;fill-rule:nonzero;fill:rgb(58.431373%,34.509804%,69.803922%);fill-opacity:1;" d="M 241 150.097656 C 241 158.933594 233.835938 166.097656 225 166.097656 C 216.164063 166.097656 209 158.933594 209 150.097656 C 209 141.257813 216.164063 134.097656 225 134.097656 C 233.835938 134.097656 241 141.257813 241 150.097656 "/>
<path style=" stroke:none;fill-rule:nonzero;fill:rgb(79.607843%,23.529412%,20%);fill-opacity:1;" d="M 291 150.097656 C 291 158.933594 283.835938 166.097656 275 166.097656 C 266.164063 166.097656 259 158.933594 259 150.097656 C 259 141.257813 266.164063 134.097656 275 134.097656 C 283.835938 134.097656 291 141.257813 291 150.097656 "/>
<path style=" stroke:none;fill-rule:nonzero;fill:rgb(21.960784%,59.607843%,14.901961%);fill-opacity:1;" d="M 116 106.792969 C 116 115.632813 108.835938 122.792969 100 122.792969 C 91.164063 122.792969 84 115.632813 84 106.792969 C 84 97.957031 91.164063 90.792969 100 90.792969 C 108.835938 90.792969 116 97.957031 116 106.792969 "/>
<path style=" stroke:none;fill-rule:nonzero;fill:rgb(58.431373%,34.509804%,69.803922%);fill-opacity:1;" d="M 91 63.492188 C 91 72.332031 83.835938 79.492188 75 79.492188 C 66.164063 79.492188 59 72.332031 59 63.492188 C 59 54.65625 66.164063 47.492188 75 47.492188 C 83.835938 47.492188 91 54.65625 91 63.492188 "/>
<path style=" stroke:none;fill-rule:nonzero;fill:rgb(79.607843%,23.529412%,20%);fill-opacity:1;" d="M 141 63.492188 C 141 72.332031 133.835938 79.492188 125 79.492188 C 116.164063 79.492188 109 72.332031 109 63.492188 C 109 54.65625 116.164063 47.492188 125 47.492188 C 133.835938 47.492188 141 54.65625 141 63.492188 "/>
<path style=" stroke:none;fill-rule:nonzero;fill:rgb(21.960784%,59.607843%,14.901961%);fill-opacity:1;" d="M 216 106.792969 C 216 115.632813 208.835938 122.792969 200 122.792969 C 191.164063 122.792969 184 115.632813 184 106.792969 C 184 97.957031 191.164063 90.792969 200 90.792969 C 208.835938 90.792969 216 97.957031 216 106.792969 "/>
<path style=" stroke:none;fill-rule:nonzero;fill:rgb(58.431373%,34.509804%,69.803922%);fill-opacity:1;" d="M 191 63.492188 C 191 72.332031 183.835938 79.492188 175 79.492188 C 166.164063 79.492188 159 72.332031 159 63.492188 C 159 54.65625 166.164063 47.492188 175 47.492188 C 183.835938 47.492188 191 54.65625 191 63.492188 "/>
<path style=" stroke:none;fill-rule:nonzero;fill:rgb(79.607843%,23.529412%,20%);fill-opacity:1;" d="M 241 63.492188 C 241 72.332031 233.835938 79.492188 225 79.492188 C 216.164063 79.492188 209 72.332031 209 63.492188 C 209 54.65625 216.164063 47.492188 225 47.492188 C 233.835938 47.492188 241 54.65625 241 63.492188 "/>
<path style=" stroke:none;fill-rule:nonzero;fill:rgb(21.960784%,59.607843%,14.901961%);fill-opacity:1;" d="M 166 20.191406 C 166 29.027344 158.835938 36.191406 150 36.191406 C 141.164063 36.191406 134 29.027344 134 20.191406 C 134 11.355469 141.164063 4.191406 150 4.191406 C 158.835938 4.191406 166 11.355469 166 20.191406 "/>
<path style=" stroke:none;fill-rule:nonzero;fill:rgb(0%,0%,0%);fill-opacity:1;" d="M 322.304688 19.875 L 346.84375 19.875 L 346.84375 109.734375 L 397.960938 109.734375 L 397.960938 120 L 322.304688 120 Z M 401.476563 120 Z "/>
<path style=" stroke:none;fill-rule:nonzero;fill:rgb(0%,0%,0%);fill-opacity:1;" d="M 440.472656 80.976563 L 437.148438 82.492188 L 433.792969 84.246094 L 430.574219 86.195313 L 427.675781 88.324219 L 425.183594 90.609375 L 423.210938 93.035156 L 422.453125 94.296875 L 421.914063 95.589844 L 421.59375 96.914063 L 421.488281 98.273438 L 421.628906 100.386719 L 422.050781 102.386719 L 422.71875 104.195313 L 423.597656 105.761719 L 424.640625 107.050781 L 425.8125 108.046875 L 427.082031 108.679688 L 428.449219 108.890625 L 429.824219 108.777344 L 431.230469 108.457031 L 432.65625 107.917969 L 434.109375 107.167969 L 437.15625 105.222656 L 440.472656 102.84375 Z M 463.464844 120 L 440.472656 120 L 440.472656 113.953125 L 436.746094 116.90625 L 434.816406 118.160156 L 432.703125 119.261719 L 430.335938 120.164063 L 427.675781 120.84375 L 424.597656 121.265625 L 420.996094 121.40625 L 418.453125 121.3125 L 416.042969 121.035156 L 413.761719 120.574219 L 411.609375 119.929688 L 409.59375 119.113281 L 407.742188 118.160156 L 406.042969 117.058594 L 404.507813 115.816406 L 403.132813 114.433594 L 401.929688 112.9375 L 400.898438 111.320313 L 400.042969 109.59375 L 399.363281 107.765625 L 398.882813 105.867188 L 398.589844 103.898438 L 398.496094 101.859375 L 398.59375 99.730469 L 398.90625 97.714844 L 399.421875 95.808594 L 400.148438 94.019531 L 401.046875 92.316406 L 402.097656 90.703125 L 403.296875 89.171875 L 404.648438 87.726563 L 407.742188 85.054688 L 411.328125 82.664063 L 415.300781 80.519531 L 419.554688 78.585938 L 424.023438 76.828125 L 428.660156 75.210938 L 437.941406 72.1875 L 440.472656 71.625 L 440.472656 64.101563 L 440.285156 60.777344 L 439.734375 57.984375 L 438.855469 55.6875 L 437.695313 53.871094 L 436.253906 52.503906 L 434.53125 51.585938 L 432.550781 51.058594 L 430.347656 50.882813 L 427.832031 51.058594 L 425.777344 51.585938 L 424.125 52.417969 L 422.824219 53.519531 L 421.855469 54.84375 L 421.207031 56.367188 L 420.835938 58.035156 L 420.714844 59.8125 L 420.597656 61.9375 L 420.257813 63.960938 L 419.625 65.8125 L 418.640625 67.441406 L 417.269531 68.800781 L 415.476563 69.867188 L 414.398438 70.265625 L 413.179688 70.550781 L 410.308594 70.78125 L 408.011719 70.59375 L 405.914063 70.042969 L 404.054688 69.164063 L 402.503906 68.003906 L 401.242188 66.578125 L 400.289063 64.910156 L 399.679688 63.050781 L 399.480469 61.078125 L 399.644531 59.144531 L 400.148438 57.285156 L 400.980469 55.503906 L 402.152344 53.800781 L 403.597656 52.179688 L 405.285156 50.675781 L 407.203125 49.28125 L 409.359375 48 L 411.710938 46.832031 L 414.246094 45.808594 L 416.949219 44.917969 L 419.835938 44.167969 L 422.84375 43.566406 L 425.941406 43.136719 L 429.121094 42.878906 L 432.386719 42.796875 L 436.289063 42.882813 L 439.914063 43.164063 L 443.265625 43.621094 L 446.34375 44.273438 L 449.144531 45.082031 L 451.691406 46.046875 L 453.976563 47.15625 L 456.011719 48.421875 L 457.785156 49.828125 L 459.316406 51.375 L 460.597656 53.0625 L 461.636719 54.890625 L 462.433594 56.839844 L 463.007813 58.914063 L 463.347656 61.09375 L 463.464844 63.398438 Z M 474.714844 120 Z "/>
<path style=" stroke:none;fill-rule:nonzero;fill:rgb(0%,0%,0%);fill-opacity:1;" d="M 470.960938 53.765625 L 470.960938 46.171875 L 472.96875 46.042969 L 474.921875 45.660156 L 476.816406 45.023438 L 478.660156 44.132813 L 480.425781 43.019531 L 482.105469 41.730469 L 483.695313 40.261719 L 485.199219 38.613281 L 486.601563 36.792969 L 487.90625 34.832031 L 489.097656 32.714844 L 490.191406 30.457031 L 492.007813 25.628906 L 493.320313 20.507813 L 505.976563 20.507813 L 505.976563 44.554688 L 524.609375 44.554688 L 524.609375 53.765625 L 505.976563 53.765625 L 505.976563 102.492188 L 506.046875 103.582031 L 506.261719 104.601563 L 506.625 105.550781 L 507.136719 106.429688 L 507.765625 107.167969 L 508.511719 107.695313 L 509.367188 108.011719 L 510.335938 108.117188 L 511.582031 107.910156 L 512.9375 107.308594 L 515.609375 105.445313 L 517.894531 103.300781 L 519.335938 101.648438 L 527.210938 107.835938 L 525.210938 110.683594 L 523.027344 113.320313 L 520.570313 115.679688 L 517.789063 117.714844 L 514.613281 119.371094 L 511.003906 120.632813 L 509.007813 121.089844 L 506.859375 121.421875 L 502.109375 121.6875 L 499.792969 121.597656 L 497.632813 121.339844 L 495.625 120.910156 L 493.777344 120.316406 L 492.070313 119.5625 L 490.511719 118.679688 L 489.101563 117.664063 L 487.835938 116.519531 L 486.710938 115.242188 L 485.742188 113.847656 L 484.917969 112.324219 L 484.25 110.683594 L 483.722656 108.925781 L 483.351563 107.085938 L 483.125 105.152344 L 483.054688 103.125 L 483.054688 53.765625 Z M 528.195313 120 Z "/>
<path style=" stroke:none;fill-rule:nonzero;fill:rgb(0%,0%,0%);fill-opacity:1;" d="M 524.4375 53.765625 L 524.4375 46.171875 L 526.445313 46.042969 L 528.398438 45.660156 L 530.292969 45.023438 L 532.136719 44.132813 L 533.902344 43.019531 L 535.582031 41.730469 L 537.171875 40.261719 L 538.675781 38.613281 L 540.078125 36.792969 L 541.382813 34.832031 L 542.574219 32.714844 L 543.667969 30.457031 L 545.484375 25.628906 L 546.796875 20.507813 L 559.453125 20.507813 L 559.453125 44.554688 L 578.085938 44.554688 L 578.085938 53.765625 L 559.453125 53.765625 L 559.453125 102.492188 L 559.523438 103.582031 L 559.738281 104.601563 L 560.101563 105.550781 L 560.613281 106.429688 L 561.242188 107.167969 L 561.988281 107.695313 L 562.84375 108.011719 L 563.8125 108.117188 L 565.058594 107.910156 L 566.414063 107.308594 L 569.085938 105.445313 L 571.371094 103.300781 L 572.8125 101.648438 L 580.6875 107.835938 L 578.6875 110.683594 L 576.503906 113.320313 L 574.046875 115.679688 L 571.265625 117.714844 L 568.089844 119.371094 L 564.480469 120.632813 L 562.484375 121.089844 L 560.335938 121.421875 L 555.585938 121.6875 L 553.269531 121.597656 L 551.109375 121.339844 L 549.101563 120.910156 L 547.253906 120.316406 L 545.546875 119.5625 L 543.988281 118.679688 L 542.578125 117.664063 L 541.3125 116.519531 L 540.1875 115.242188 L 539.21875 113.847656 L 538.394531 112.324219 L 537.726563 110.683594 L 537.199219 108.925781 L 536.828125 107.085938 L 536.601563 105.152344 L 536.53125 103.125 L 536.53125 53.765625 Z M 581.671875 120 Z "/>
<path style=" stroke:none;fill-rule:nonzero;fill:rgb(0%,0%,0%);fill-opacity:1;" d="M 584.949219 48.632813 L 607.800781 42.304688 L 607.800781 120 L 584.949219 120 Z M 583.964844 20.4375 L 584.199219 18.1875 L 584.914063 16.078125 L 586.042969 14.167969 L 587.550781 12.527344 L 589.378906 11.171875 L 591.488281 10.136719 L 593.808594 9.472656 L 596.269531 9.257813 L 598.730469 9.472656 L 601.050781 10.136719 L 603.160156 11.171875 L 604.988281 12.527344 L 606.5 14.167969 L 607.660156 16.078125 L 608.398438 18.1875 L 608.644531 20.4375 L 608.398438 22.6875 L 607.660156 24.796875 L 606.5 26.695313 L 604.988281 28.3125 L 603.160156 29.636719 L 601.050781 30.667969 L 598.730469 31.324219 L 596.269531 31.546875 L 593.808594 31.324219 L 591.488281 30.667969 L 589.378906 29.636719 L 587.550781 28.3125 L 586.042969 26.695313 L 584.914063 24.796875 L 584.199219 22.6875 Z M 618.136719 120 Z "/>
<path style=" stroke:none;fill-rule:nonzero;fill:rgb(0%,0%,0%);fill-opacity:1;" d="M 655.164063 52.21875 L 653.375 52.328125 L 651.671875 52.675781 L 650.050781 53.242188 L 648.519531 54.046875 L 647.074219 55.035156 L 645.746094 56.195313 L 644.527344 57.515625 L 643.421875 59.003906 L 642.425781 60.628906 L 641.558594 62.378906 L 640.808594 64.25 L 640.1875 66.246094 L 639.34375 70.46875 L 639.0625 74.929688 L 639.148438 78.058594 L 639.417969 81.117188 L 639.867188 84.105469 L 640.503906 87.023438 L 641.292969 89.816406 L 642.230469 92.441406 L 643.316406 94.894531 L 644.546875 97.183594 L 645.910156 99.265625 L 647.417969 101.125 L 649.058594 102.761719 L 650.839844 104.179688 L 652.734375 105.316406 L 654.746094 106.128906 L 656.867188 106.617188 L 659.101563 106.78125 L 660.953125 106.679688 L 662.710938 106.394531 L 664.375 105.90625 L 665.957031 105.234375 L 667.445313 104.390625 L 668.875 103.410156 L 670.222656 102.296875 L 671.511719 101.050781 L 673.882813 98.191406 L 676.011719 94.898438 L 677.949219 91.277344 L 679.773438 87.445313 L 690.671875 90.328125 L 689.628906 93.917969 L 688.402344 97.3125 L 686.992188 100.507813 L 685.398438 103.511719 L 683.628906 106.296875 L 681.695313 108.855469 L 679.597656 111.183594 L 677.347656 113.285156 L 674.929688 115.148438 L 672.355469 116.78125 L 669.621094 118.171875 L 666.730469 119.332031 L 663.691406 120.234375 L 660.53125 120.882813 L 657.242188 121.269531 L 653.828125 121.40625 L 649.984375 121.21875 L 646.257813 120.65625 L 642.648438 119.71875 L 639.167969 118.417969 L 635.847656 116.785156 L 632.75 114.890625 L 629.871094 112.726563 L 627.214844 110.296875 L 624.796875 107.625 L 622.648438 104.742188 L 620.769531 101.648438 L 619.164063 98.34375 L 617.867188 94.878906 L 616.949219 91.3125 L 616.390625 87.636719 L 616.210938 83.859375 L 616.402344 79.734375 L 617 75.726563 L 617.984375 71.835938 L 619.375 68.074219 L 621.097656 64.476563 L 623.101563 61.113281 L 625.386719 57.972656 L 627.953125 55.066406 L 630.777344 52.414063 L 633.839844 50.0625 L 637.140625 48.003906 L 640.679688 46.242188 L 644.386719 44.824219 L 648.21875 43.816406 L 652.15625 43.207031 L 656.21875 43.007813 L 659.609375 43.09375 L 662.84375 43.359375 L 665.902344 43.796875 L 668.804688 44.414063 L 671.511719 45.1875 L 674.011719 46.101563 L 676.308594 47.15625 L 678.402344 48.351563 L 680.273438 49.667969 L 681.917969 51.109375 L 683.332031 52.65625 L 684.519531 54.328125 L 685.453125 56.085938 L 686.125 57.914063 L 686.527344 59.8125 L 686.664063 61.78125 L 686.382813 63.625 L 685.539063 65.367188 L 684.238281 66.953125 L 682.585938 68.355469 L 680.621094 69.515625 L 678.402344 70.394531 L 676.035156 70.945313 L 673.65625 71.132813 L 671.089844 70.9375 L 668.875 70.359375 L 666.992188 69.46875 L 665.429688 68.355469 L 664.199219 67.023438 L 663.320313 65.507813 L 662.792969 63.871094 L 662.617188 62.203125 L 662.476563 58.722656 L 662.195313 57.015625 L 661.632813 55.488281 L 660.722656 54.175781 L 659.417969 53.132813 L 658.582031 52.726563 L 657.59375 52.445313 Z M 695.945313 120 Z "/>
<path style=" stroke:none;fill-rule:nonzero;fill:rgb(0%,0%,0%);fill-opacity:1;" d="M 732.832031 121.6875 L 728.847656 121.5 L 724.996094 120.9375 L 721.273438 120 L 717.679688 118.699219 L 714.253906 117.070313 L 711.058594 115.1875 L 708.085938 113.042969 L 705.339844 110.648438 L 702.84375 108.011719 L 700.628906 105.167969 L 698.695313 102.121094 L 697.042969 98.871094 L 695.71875 95.460938 L 694.773438 91.96875 L 694.207031 88.382813 L 694.019531 84.703125 L 694.195313 80.3125 L 694.722656 76.09375 L 695.601563 72.035156 L 696.832031 68.144531 L 698.378906 64.453125 L 700.222656 61.023438 L 702.351563 57.84375 L 704.777344 54.925781 L 707.472656 52.277344 L 710.4375 49.9375 L 713.660156 47.898438 L 717.152344 46.171875 L 720.871094 44.78125 L 724.796875 43.796875 L 728.921875 43.199219 L 733.253906 43.007813 L 737.109375 43.160156 L 740.800781 43.628906 L 744.328125 44.410156 L 747.703125 45.503906 L 750.867188 46.867188 L 753.800781 48.472656 L 756.492188 50.3125 L 758.953125 52.394531 L 761.15625 54.679688 L 763.105469 57.15625 L 764.792969 59.8125 L 766.230469 62.660156 L 767.367188 65.644531 L 768.179688 68.746094 L 768.667969 71.957031 L 768.832031 75.28125 L 716.519531 75.28125 L 716.707031 78.375 L 717.070313 81.398438 L 717.605469 84.351563 L 718.3125 87.234375 L 719.167969 89.992188 L 720.164063 92.59375 L 721.292969 95.019531 L 722.566406 97.289063 L 723.953125 99.351563 L 725.464844 101.195313 L 727.082031 102.816406 L 728.824219 104.214844 L 730.664063 105.335938 L 732.601563 106.136719 L 734.636719 106.617188 L 736.769531 106.78125 L 738.65625 106.699219 L 740.53125 106.453125 L 742.382813 106.042969 L 744.222656 105.480469 L 747.738281 103.933594 L 750.972656 101.894531 L 753.855469 99.421875 L 756.316406 96.585938 L 757.363281 95.050781 L 758.265625 93.472656 L 759.015625 91.851563 L 759.621094 90.1875 L 771.363281 91.945313 L 770.347656 94.957031 L 769.066406 97.886719 L 767.515625 100.722656 L 765.703125 103.476563 L 763.664063 106.09375 L 761.472656 108.542969 L 759.117188 110.820313 L 756.597656 112.933594 L 753.929688 114.84375 L 751.152344 116.554688 L 748.253906 118.042969 L 745.242188 119.332031 L 742.15625 120.359375 L 739.058594 121.09375 L 735.949219 121.535156 Z M 742.535156 67.476563 L 742.03125 64.257813 L 741.09375 61.359375 L 739.773438 58.808594 L 738.140625 56.648438 L 736.207031 54.894531 L 733.992188 53.589844 L 731.535156 52.769531 L 728.894531 52.5 L 726.800781 52.761719 L 724.746094 53.554688 L 722.792969 54.835938 L 721.019531 56.578125 L 719.460938 58.746094 L 718.171875 61.324219 L 717.210938 64.246094 L 716.660156 67.476563 Z M 776.636719 120 Z "/>
<path style=" stroke:none;fill-rule:nonzero;fill:rgb(0%,0%,0%);fill-opacity:1;" d="M 409.140625 159.875 L 409.140625 168.382813 L 374.476563 168.382813 L 374.476563 260 L 349.9375 260 L 349.9375 168.382813 L 315.273438 168.382813 L 315.273438 159.875 Z M 414.414063 260 Z "/>
<path style=" stroke:none;fill-rule:nonzero;fill:rgb(0%,0%,0%);fill-opacity:1;" d="M 454.183594 261.40625 L 449.765625 261.21875 L 445.515625 260.667969 L 441.433594 259.742188 L 437.519531 258.453125 L 433.816406 256.835938 L 430.382813 254.941406 L 427.207031 252.773438 L 424.300781 250.332031 L 421.667969 247.625 L 419.347656 244.695313 L 417.328125 241.53125 L 415.617188 238.132813 L 414.242188 234.546875 L 413.265625 230.835938 L 412.679688 226.988281 L 412.488281 223.015625 L 412.679688 218.738281 L 413.265625 214.636719 L 414.242188 210.707031 L 415.617188 206.949219 L 417.328125 203.398438 L 419.347656 200.109375 L 421.667969 197.070313 L 424.300781 194.292969 L 427.207031 191.78125 L 430.371094 189.5625 L 433.792969 187.632813 L 437.484375 185.996094 L 441.382813 184.683594 L 445.453125 183.75 L 449.695313 183.1875 L 454.113281 183.007813 L 458.53125 183.1875 L 462.785156 183.734375 L 466.875 184.644531 L 470.8125 185.925781 L 474.527344 187.519531 L 477.984375 189.394531 L 481.171875 191.542969 L 484.101563 193.976563 L 486.738281 196.648438 L 489.082031 199.546875 L 491.121094 202.660156 L 492.855469 206 L 494.238281 209.507813 L 495.226563 213.152344 L 495.820313 216.925781 L 496.019531 220.835938 L 495.820313 224.953125 L 495.226563 228.957031 L 494.238281 232.828125 L 492.855469 236.585938 L 491.121094 240.160156 L 489.082031 243.5 L 486.738281 246.605469 L 484.101563 249.488281 L 481.171875 252.097656 L 477.988281 254.425781 L 474.542969 256.457031 L 470.847656 258.207031 L 466.925781 259.601563 L 462.847656 260.601563 L 458.59375 261.199219 Z M 456.855469 252.195313 L 458.402344 252.066406 L 459.882813 251.683594 L 461.300781 251.046875 L 462.65625 250.15625 L 463.921875 249.046875 L 465.105469 247.765625 L 466.195313 246.304688 L 467.191406 244.671875 L 468.882813 240.960938 L 470.179688 236.726563 L 470.992188 232.121094 L 471.269531 227.304688 L 471.003906 220.273438 L 470.214844 213.664063 L 469.597656 210.5625 L 468.8125 207.667969 L 467.855469 204.972656 L 466.734375 202.484375 L 465.425781 200.214844 L 463.9375 198.195313 L 462.261719 196.417969 L 460.40625 194.890625 L 458.34375 193.660156 L 456.070313 192.78125 L 453.578125 192.253906 L 450.878906 192.078125 L 449.546875 192.199219 L 448.246094 192.574219 L 446.964844 193.199219 L 445.710938 194.082031 L 444.496094 195.167969 L 443.359375 196.425781 L 442.300781 197.855469 L 441.316406 199.460938 L 439.597656 203.097656 L 438.257813 207.265625 L 437.746094 209.503906 L 437.382813 211.800781 L 437.097656 216.546875 L 437.179688 220.148438 L 437.429688 223.648438 L 437.847656 227.039063 L 438.433594 230.328125 L 439.175781 233.457031 L 440.074219 236.390625 L 441.125 239.117188 L 442.335938 241.648438 L 443.683594 243.945313 L 445.171875 245.996094 L 446.792969 247.796875 L 448.558594 249.347656 L 450.445313 250.589844 L 452.460938 251.480469 L 454.59375 252.011719 Z M 501.292969 260 Z "/>
<path style=" stroke:none;fill-rule:nonzero;fill:rgb(0%,0%,0%);fill-opacity:1;" d="M 541.0625 261.40625 L 536.644531 261.21875 L 532.394531 260.667969 L 528.3125 259.742188 L 524.398438 258.453125 L 520.695313 256.835938 L 517.261719 254.941406 L 514.085938 252.773438 L 511.179688 250.332031 L 508.546875 247.625 L 506.226563 244.695313 L 504.207031 241.53125 L 502.496094 238.132813 L 501.121094 234.546875 L 500.144531 230.835938 L 499.558594 226.988281 L 499.367188 223.015625 L 499.558594 218.738281 L 500.144531 214.636719 L 501.121094 210.707031 L 502.496094 206.949219 L 504.207031 203.398438 L 506.226563 200.109375 L 508.546875 197.070313 L 511.179688 194.292969 L 514.085938 191.78125 L 517.25 189.5625 L 520.671875 187.632813 L 524.363281 185.996094 L 528.261719 184.683594 L 532.332031 183.75 L 536.574219 183.1875 L 540.992188 183.007813 L 545.410156 183.1875 L 549.664063 183.734375 L 553.753906 184.644531 L 557.691406 185.925781 L 561.40625 187.519531 L 564.863281 189.394531 L 568.050781 191.542969 L 570.980469 193.976563 L 573.617188 196.648438 L 575.960938 199.546875 L 578 202.660156 L 579.734375 206 L 581.117188 209.507813 L 582.105469 213.152344 L 582.699219 216.925781 L 582.898438 220.835938 L 582.699219 224.953125 L 582.105469 228.957031 L 581.117188 232.828125 L 579.734375 236.585938 L 578 240.160156 L 575.960938 243.5 L 573.617188 246.605469 L 570.980469 249.488281 L 568.050781 252.097656 L 564.867188 254.425781 L 561.421875 256.457031 L 557.726563 258.207031 L 553.804688 259.601563 L 549.726563 260.601563 L 545.472656 261.199219 Z M 543.734375 252.195313 L 545.28125 252.066406 L 546.761719 251.683594 L 548.179688 251.046875 L 549.535156 250.15625 L 550.800781 249.046875 L 551.984375 247.765625 L 553.074219 246.304688 L 554.070313 244.671875 L 555.761719 240.960938 L 557.058594 236.726563 L 557.871094 232.121094 L 558.148438 227.304688 L 557.882813 220.273438 L 557.09375 213.664063 L 556.476563 210.5625 L 555.691406 207.667969 L 554.734375 204.972656 L 553.613281 202.484375 L 552.304688 200.214844 L 550.816406 198.195313 L 549.140625 196.417969 L 547.285156 194.890625 L 545.222656 193.660156 L 542.949219 192.78125 L 540.457031 192.253906 L 537.757813 192.078125 L 536.425781 192.199219 L 535.125 192.574219 L 533.84375 193.199219 L 532.589844 194.082031 L 531.375 195.167969 L 530.238281 196.425781 L 529.179688 197.855469 L 528.195313 199.460938 L 526.476563 203.097656 L 525.136719 207.265625 L 524.625 209.503906 L 524.261719 211.800781 L 523.976563 216.546875 L 524.058594 220.148438 L 524.308594 223.648438 L 524.726563 227.039063 L 525.3125 230.328125 L 526.054688 233.457031 L 526.953125 236.390625 L 528.003906 239.117188 L 529.214844 241.648438 L 530.5625 243.945313 L 532.050781 245.996094 L 533.671875 247.796875 L 535.4375 249.347656 L 537.324219 250.589844 L 539.339844 251.480469 L 541.472656 252.011719 Z M 588.171875 260 Z "/>
<path style=" stroke:none;fill-rule:nonzero;fill:rgb(0%,0%,0%);fill-opacity:1;" d="M 613.171875 260 L 590.460938 260 L 590.460938 154.179688 L 613.171875 147.851563 Z M 622.664063 260 Z "/>
<path style=" stroke:none;fill-rule:nonzero;fill:rgb(0%,0%,0%);fill-opacity:1;" d="M 633.746094 238.90625 L 634.871094 241.792969 L 636.207031 244.359375 L 637.753906 246.59375 L 639.511719 248.503906 L 641.492188 250.023438 L 643.710938 251.109375 L 646.167969 251.761719 L 648.863281 251.984375 L 651.148438 251.824219 L 653.222656 251.351563 L 655.050781 250.613281 L 656.597656 249.664063 L 657.84375 248.519531 L 658.777344 247.203125 L 659.355469 245.742188 L 659.550781 244.179688 L 659.292969 241.648438 L 658.53125 239.398438 L 657.324219 237.394531 L 655.753906 235.601563 L 653.820313 233.972656 L 651.535156 232.472656 L 648.984375 231.070313 L 646.261719 229.765625 L 641.832031 227.707031 L 637.402344 225.476563 L 633.1875 222.984375 L 629.421875 220.167969 L 627.730469 218.617188 L 626.210938 216.96875 L 624.863281 215.207031 L 623.691406 213.347656 L 622.734375 211.351563 L 622.054688 209.203125 L 621.644531 206.902344 L 621.511719 204.453125 L 621.632813 202.113281 L 622.007813 199.882813 L 622.632813 197.753906 L 623.515625 195.734375 L 624.613281 193.835938 L 625.910156 192.078125 L 627.40625 190.460938 L 629.105469 188.984375 L 630.984375 187.652344 L 633.046875 186.488281 L 635.289063 185.472656 L 637.71875 184.625 L 640.292969 183.945313 L 642.996094 183.464844 L 645.828125 183.171875 L 648.792969 183.078125 L 654.03125 183.328125 L 656.410156 183.648438 L 658.636719 184.097656 L 662.667969 185.34375 L 664.492188 186.136719 L 666.195313 187.050781 L 669.257813 189.183594 L 671.925781 191.726563 L 674.28125 194.644531 L 676.425781 197.914063 L 663.207031 202.554688 L 662.035156 199.308594 L 661.363281 197.996094 L 660.640625 196.894531 L 659.109375 195.140625 L 657.546875 193.90625 L 655.964844 193.113281 L 654.382813 192.710938 L 651.605469 192.5 L 649.546875 192.609375 L 647.597656 192.957031 L 645.804688 193.519531 L 644.222656 194.292969 L 642.890625 195.28125 L 641.867188 196.507813 L 641.203125 197.929688 L 640.988281 199.53125 L 641.269531 201.640625 L 642.113281 203.609375 L 643.449219 205.441406 L 645.207031 207.160156 L 647.355469 208.765625 L 649.882813 210.289063 L 652.699219 211.730469 L 655.753906 213.101563 L 660.523438 215.179688 L 665.140625 217.496094 L 669.417969 220.078125 L 673.191406 222.980469 L 674.859375 224.546875 L 676.359375 226.203125 L 677.6875 227.941406 L 678.851563 229.765625 L 679.785156 231.679688 L 680.457031 233.71875 L 680.859375 235.863281 L 680.996094 238.132813 L 680.890625 240.550781 L 680.589844 242.894531 L 680.082031 245.15625 L 679.378906 247.34375 L 678.441406 249.417969 L 677.25 251.355469 L 675.804688 253.160156 L 674.105469 254.832031 L 672.140625 256.339844 L 669.910156 257.683594 L 667.410156 258.855469 L 664.648438 259.859375 L 661.585938 260.65625 L 658.21875 261.230469 L 654.539063 261.570313 L 650.550781 261.6875 L 647.164063 261.582031 L 644.046875 261.28125 L 641.1875 260.773438 L 638.597656 260.070313 L 636.230469 259.195313 L 634.050781 258.210938 L 632.058594 257.105469 L 630.265625 255.886719 L 628.632813 254.5625 L 627.152344 253.167969 L 625.820313 251.695313 L 624.640625 250.15625 L 622.554688 247.007813 L 620.738281 243.898438 Z M 686.269531 260 Z "/>
<path style=" stroke:none;fill-rule:nonzero;fill:rgb(0%,0%,0%);fill-opacity:1;" d="M 687.15625 251.421875 L 687.347656 249.371094 L 687.929688 247.449219 L 688.847656 245.707031 L 690.074219 244.214844 L 691.566406 242.984375 L 693.308594 242.035156 L 695.230469 241.425781 L 697.28125 241.226563 L 699.335938 241.425781 L 701.289063 242.035156 L 703.050781 242.984375 L 704.558594 244.214844 L 705.789063 245.707031 L 706.738281 247.449219 L 707.339844 249.371094 L 707.546875 251.421875 L 707.339844 253.464844 L 706.738281 255.394531 L 705.789063 257.132813 L 704.558594 258.628906 L 703.050781 259.847656 L 701.289063 260.773438 L 699.335938 261.351563 L 697.28125 261.546875 L 695.230469 261.351563 L 693.308594 260.773438 L 691.566406 259.847656 L 690.074219 258.628906 L 688.847656 257.132813 L 687.929688 255.394531 L 687.347656 253.464844 Z M 715.632813 260 Z "/>
<path style=" stroke:none;fill-rule:nonzero;fill:rgb(0%,0%,0%);fill-opacity:1;" d="M 740.214844 260 L 740.066406 264.78125 L 739.640625 269.074219 L 738.925781 272.882813 L 737.929688 276.207031 L 736.664063 279.109375 L 735.175781 281.671875 L 733.453125 283.890625 L 731.496094 285.769531 L 729.316406 287.328125 L 726.925781 288.617188 L 724.324219 289.613281 L 721.511719 290.339844 L 718.511719 290.84375 L 715.359375 291.207031 L 712.042969 291.421875 L 708.574219 291.5 L 704.054688 291.292969 L 700.066406 290.691406 L 696.636719 289.730469 L 693.808594 288.476563 L 691.582031 286.953125 L 690.699219 286.105469 L 689.976563 285.207031 L 689.402344 284.257813 L 688.996094 283.296875 L 688.75 282.3125 L 688.675781 281.304688 L 688.851563 279.582031 L 689.378906 278.015625 L 690.257813 276.59375 L 691.488281 275.328125 L 693.015625 274.277344 L 694.808594 273.535156 L 696.847656 273.082031 L 699.152344 272.9375 L 700.878906 273.078125 L 702.421875 273.5 L 703.78125 274.136719 L 704.988281 274.941406 L 706.992188 276.839844 L 708.503906 278.773438 L 709.984375 280.53125 L 711.210938 281.585938 L 712.253906 282.113281 L 713.214844 282.289063 L 714.144531 282.164063 L 714.972656 281.796875 L 715.675781 281.109375 L 716.238281 280.039063 L 716.664063 278.5625 L 716.976563 276.664063 L 717.15625 274.253906 L 717.222656 271.25 L 717.222656 188.632813 L 740.214844 182.304688 Z M 716.238281 160.4375 L 716.472656 158.1875 L 717.1875 156.078125 L 718.316406 154.167969 L 719.824219 152.527344 L 721.652344 151.171875 L 723.761719 150.136719 L 726.082031 149.472656 L 728.542969 149.257813 L 731.003906 149.472656 L 733.324219 150.136719 L 735.433594 151.171875 L 737.261719 152.527344 L 738.773438 154.167969 L 739.933594 156.078125 L 740.671875 158.1875 L 740.917969 160.4375 L 740.671875 162.6875 L 739.933594 164.796875 L 738.773438 166.695313 L 737.261719 168.3125 L 735.433594 169.636719 L 733.324219 170.667969 L 731.003906 171.324219 L 728.542969 171.546875 L 726.082031 171.324219 L 723.761719 170.667969 L 721.652344 169.636719 L 719.824219 168.3125 L 718.316406 166.695313 L 717.1875 164.796875 L 716.472656 162.6875 Z M 749.707031 260 Z "/>
<path style=" stroke:none;fill-rule:nonzero;fill:rgb(0%,0%,0%);fill-opacity:1;" d="M 774.710938 260 L 752 260 L 752 154.179688 L 774.710938 147.851563 Z M 784.203125 260 Z "/>
<path style=" stroke:none;fill-rule:nonzero;fill:rgb(25.098039%,38.823529%,84.705882%);fill-opacity:1;" d="M 580 22 C 580 13.164063 587.164063 6 596 6 C 604.835938 6 612 13.164063 612 22 C 612 30.835938 604.835938 38 596 38 C 587.164063 38 580 30.835938 580 22 "/>
</g>
</svg>
