<?xml version="1.0" encoding="utf-8"?>
<svg xmlns="http://www.w3.org/2000/svg" xmlns:xlink="http://www.w3.org/1999/xlink" width="200" height="200" viewBox="0 0 800 800">
<defs>
  <clipPath id="clip840">
    <rect x="0" y="0" width="800" height="800"/>
  </clipPath>
</defs>
<path clip-path="url(#clip840)" d="
M0 800 L800 800 L800 0 L0 0  Z
  " fill="#ffffff" fill-rule="evenodd" fill-opacity="1"/>
<defs>
  <clipPath id="clip841">
    <rect x="160" y="80" width="561" height="561"/>
  </clipPath>
</defs>
<path clip-path="url(#clip840)" d="
M70.9921 729.008 L752.756 729.008 L752.756 62.9921 L70.9921 62.9921  Z
  " fill="#ffffff" fill-rule="evenodd" fill-opacity="1"/>
<defs>
  <clipPath id="clip842">
    <rect x="70" y="62" width="683" height="667"/>
  </clipPath>
</defs>
<polyline clip-path="url(#clip840)" style="stroke:#000000; stroke-width:4; stroke-opacity:1; fill:none" points="
  70.9921,729.008 752.756,729.008 
  "/>
<polyline clip-path="url(#clip840)" style="stroke:#000000; stroke-width:4; stroke-opacity:1; fill:none" points="
  70.9921,729.008 70.9921,62.9921 
  "/>
<polyline clip-path="url(#clip840)" style="stroke:#000000; stroke-width:4; stroke-opacity:1; fill:none" points="
  70.9921,729.008 70.9921,721.016 
  "/>
<polyline clip-path="url(#clip840)" style="stroke:#000000; stroke-width:4; stroke-opacity:1; fill:none" points="
  241.433,729.008 241.433,721.016 
  "/>
<polyline clip-path="url(#clip840)" style="stroke:#000000; stroke-width:4; stroke-opacity:1; fill:none" points="
  411.874,729.008 411.874,721.016 
  "/>
<polyline clip-path="url(#clip840)" style="stroke:#000000; stroke-width:4; stroke-opacity:1; fill:none" points="
  582.315,729.008 582.315,721.016 
  "/>
<polyline clip-path="url(#clip840)" style="stroke:#000000; stroke-width:4; stroke-opacity:1; fill:none" points="
  752.756,729.008 752.756,721.016 
  "/>
<polyline clip-path="url(#clip840)" style="stroke:#000000; stroke-width:4; stroke-opacity:1; fill:none" points="
  70.9921,729.008 79.1733,729.008 
  "/>
<polyline clip-path="url(#clip840)" style="stroke:#000000; stroke-width:4; stroke-opacity:1; fill:none" points="
  70.9921,562.504 79.1733,562.504 
  "/>
<polyline clip-path="url(#clip840)" style="stroke:#000000; stroke-width:4; stroke-opacity:1; fill:none" points="
  70.9921,396 79.1733,396 
  "/>
<polyline clip-path="url(#clip840)" style="stroke:#000000; stroke-width:4; stroke-opacity:1; fill:none" points="
  70.9921,229.496 79.1733,229.496 
  "/>
<polyline clip-path="url(#clip840)" style="stroke:#000000; stroke-width:4; stroke-opacity:1; fill:none" points="
  70.9921,62.9921 79.1733,62.9921 
  "/>
<path clip-path="url(#clip840)" d="M 0 0 M52.0455 759.596 L64.5223 759.596 L64.5223 763.392 L52.0455 763.392 L52.0455 759.596 Z" fill="#000000" fill-rule="evenodd" fill-opacity="1" /><path clip-path="url(#clip840)" d="M 0 0 M73.6194 770.545 L89.9388 770.545 L89.9388 774.48 L67.9945 774.48 L67.9945 770.545 Q70.6565 767.79 75.2398 763.16 Q79.8462 758.508 81.0268 757.165 Q83.2722 754.642 84.1518 752.906 Q85.0546 751.147 85.0546 749.457 Q85.0546 746.702 83.1101 744.966 Q81.1888 743.23 78.087 743.23 Q75.8879 743.23 73.4342 743.994 Q71.0037 744.758 68.2259 746.309 L68.2259 741.587 Q71.05 740.452 73.5037 739.874 Q75.9574 739.295 77.9944 739.295 Q83.3647 739.295 86.5592 741.98 Q89.7536 744.665 89.7536 749.156 Q89.7536 751.286 88.9434 753.207 Q88.1564 755.105 86.0499 757.698 Q85.4712 758.369 82.3694 761.586 Q79.2675 764.781 73.6194 770.545 Z" fill="#000000" fill-rule="evenodd" fill-opacity="1" /><path clip-path="url(#clip840)" d="M 0 0 M222.301 759.596 L234.778 759.596 L234.778 763.392 L222.301 763.392 L222.301 759.596 Z" fill="#000000" fill-rule="evenodd" fill-opacity="1" /><path clip-path="url(#clip840)" d="M 0 0 M240.658 770.545 L248.296 770.545 L248.296 744.179 L239.986 745.846 L239.986 741.587 L248.25 739.92 L252.926 739.92 L252.926 770.545 L260.565 770.545 L260.565 774.48 L240.658 774.48 L240.658 770.545 Z" fill="#000000" fill-rule="evenodd" fill-opacity="1" /><path clip-path="url(#clip840)" d="M 0 0 M411.874 742.999 Q408.263 742.999 406.434 746.563 Q404.629 750.105 404.629 757.235 Q404.629 764.341 406.434 767.906 Q408.263 771.447 411.874 771.447 Q415.508 771.447 417.314 767.906 Q419.142 764.341 419.142 757.235 Q419.142 750.105 417.314 746.563 Q415.508 742.999 411.874 742.999 M411.874 739.295 Q417.684 739.295 420.74 743.901 Q423.818 748.485 423.818 757.235 Q423.818 765.961 420.74 770.568 Q417.684 775.151 411.874 775.151 Q406.064 775.151 402.985 770.568 Q399.93 765.961 399.93 757.235 Q399.93 748.485 402.985 743.901 Q406.064 739.295 411.874 739.295 Z" fill="#000000" fill-rule="evenodd" fill-opacity="1" /><path clip-path="url(#clip840)" d="M 0 0 M572.697 770.545 L580.336 770.545 L580.336 744.179 L572.026 745.846 L572.026 741.587 L580.29 739.92 L584.965 739.92 L584.965 770.545 L592.604 770.545 L592.604 774.48 L572.697 774.48 L572.697 770.545 Z" fill="#000000" fill-rule="evenodd" fill-opacity="1" /><path clip-path="url(#clip840)" d="M 0 0 M747.409 770.545 L763.728 770.545 L763.728 774.48 L741.784 774.48 L741.784 770.545 Q744.446 767.79 749.029 763.16 Q753.636 758.508 754.816 757.165 Q757.061 754.642 757.941 752.906 Q758.844 751.147 758.844 749.457 Q758.844 746.702 756.899 744.966 Q754.978 743.23 751.876 743.23 Q749.677 743.23 747.224 743.994 Q744.793 744.758 742.015 746.309 L742.015 741.587 Q744.839 740.452 747.293 739.874 Q749.747 739.295 751.784 739.295 Q757.154 739.295 760.348 741.98 Q763.543 744.665 763.543 749.156 Q763.543 751.286 762.733 753.207 Q761.946 755.105 759.839 757.698 Q759.261 758.369 756.159 761.586 Q753.057 764.781 747.409 770.545 Z" fill="#000000" fill-rule="evenodd" fill-opacity="1" /><path clip-path="url(#clip840)" d="M 0 0 M25.0988 731.404 L37.5756 731.404 L37.5756 735.2 L25.0988 735.2 L25.0988 731.404 Z" fill="#000000" fill-rule="evenodd" fill-opacity="1" /><path clip-path="url(#clip840)" d="M 0 0 M46.6728 742.353 L62.9921 742.353 L62.9921 746.288 L41.0478 746.288 L41.0478 742.353 Q43.7098 739.598 48.2931 734.968 Q52.8996 730.316 54.0801 728.973 Q56.3255 726.45 57.2051 724.714 Q58.1079 722.955 58.1079 721.265 Q58.1079 718.51 56.1635 716.774 Q54.2422 715.038 51.1403 715.038 Q48.9413 715.038 46.4876 715.802 Q44.057 716.566 41.2793 718.117 L41.2793 713.395 Q44.1033 712.26 46.557 711.682 Q49.0107 711.103 51.0477 711.103 Q56.4181 711.103 59.6125 713.788 Q62.8069 716.473 62.8069 720.964 Q62.8069 723.094 61.9968 725.015 Q61.2097 726.913 59.1033 729.506 Q58.5246 730.177 55.4227 733.394 Q52.3209 736.589 46.6728 742.353 Z" fill="#000000" fill-rule="evenodd" fill-opacity="1" /><path clip-path="url(#clip840)" d="M 0 0 M24.7284 564.9 L37.2052 564.9 L37.2052 568.696 L24.7284 568.696 L24.7284 564.9 Z" fill="#000000" fill-rule="evenodd" fill-opacity="1" /><path clip-path="url(#clip840)" d="M 0 0 M43.0848 575.849 L50.7237 575.849 L50.7237 549.483 L42.4135 551.15 L42.4135 546.891 L50.6774 545.224 L55.3533 545.224 L55.3533 575.849 L62.9921 575.849 L62.9921 579.784 L43.0848 579.784 L43.0848 575.849 Z" fill="#000000" fill-rule="evenodd" fill-opacity="1" /><path clip-path="url(#clip840)" d="M 0 0 M51.0477 381.799 Q47.4367 381.799 45.608 385.363 Q43.8024 388.905 43.8024 396.035 Q43.8024 403.141 45.608 406.706 Q47.4367 410.248 51.0477 410.248 Q54.682 410.248 56.4875 406.706 Q58.3162 403.141 58.3162 396.035 Q58.3162 388.905 56.4875 385.363 Q54.682 381.799 51.0477 381.799 M51.0477 378.095 Q56.8579 378.095 59.9134 382.701 Q62.9921 387.285 62.9921 396.035 Q62.9921 404.762 59.9134 409.368 Q56.8579 413.951 51.0477 413.951 Q45.2376 413.951 42.1589 409.368 Q39.1034 404.762 39.1034 396.035 Q39.1034 387.285 42.1589 382.701 Q45.2376 378.095 51.0477 378.095 Z" fill="#000000" fill-rule="evenodd" fill-opacity="1" /><path clip-path="url(#clip840)" d="M 0 0 M43.0848 242.841 L50.7237 242.841 L50.7237 216.475 L42.4135 218.142 L42.4135 213.883 L50.6774 212.216 L55.3533 212.216 L55.3533 242.841 L62.9921 242.841 L62.9921 246.776 L43.0848 246.776 L43.0848 242.841 Z" fill="#000000" fill-rule="evenodd" fill-opacity="1" /><path clip-path="url(#clip840)" d="M 0 0 M46.6728 76.337 L62.9921 76.337 L62.9921 80.2721 L41.0478 80.2721 L41.0478 76.337 Q43.7098 73.5823 48.2931 68.9527 Q52.8996 64.3 54.0801 62.9574 Q56.3255 60.4343 57.2051 58.6982 Q58.1079 56.9389 58.1079 55.2491 Q58.1079 52.4945 56.1635 50.7584 Q54.2422 49.0223 51.1403 49.0223 Q48.9413 49.0223 46.4876 49.7862 Q44.057 50.5501 41.2793 52.101 L41.2793 47.3788 Q44.1033 46.2445 46.557 45.6658 Q49.0107 45.0871 51.0477 45.0871 Q56.4181 45.0871 59.6125 47.7723 Q62.8069 50.4575 62.8069 54.9482 Q62.8069 57.0778 61.9968 58.9991 Q61.2097 60.8972 59.1033 63.4898 Q58.5246 64.1611 55.4227 67.3787 Q52.3209 70.5731 46.6728 76.337 Z" fill="#000000" fill-rule="evenodd" fill-opacity="1" /><path clip-path="url(#clip840)" d="M 0 0 M359.849 20.523 Q361.446 17.6527 363.668 16.2869 Q365.89 14.9212 368.9 14.9212 Q372.951 14.9212 375.15 17.7684 Q377.349 20.5925 377.349 25.8239 L377.349 41.472 L373.066 41.472 L373.066 25.9628 Q373.066 22.236 371.747 20.4304 Q370.427 18.6249 367.719 18.6249 Q364.409 18.6249 362.488 20.824 Q360.566 23.023 360.566 26.8193 L360.566 41.472 L356.284 41.472 L356.284 25.9628 Q356.284 22.2128 354.965 20.4304 Q353.645 18.6249 350.891 18.6249 Q347.627 18.6249 345.705 20.8471 Q343.784 23.0462 343.784 26.8193 L343.784 41.472 L339.502 41.472 L339.502 15.5462 L343.784 15.5462 L343.784 19.574 Q345.242 17.1897 347.279 16.0555 Q349.316 14.9212 352.117 14.9212 Q354.941 14.9212 356.909 16.3564 Q358.9 17.7916 359.849 20.523 Z" fill="#000000" fill-rule="evenodd" fill-opacity="1" /><path clip-path="url(#clip840)" d="M 0 0 M381.423 5.45367 L391.238 5.45367 L391.238 8.76384 L385.682 8.76384 L385.682 44.4118 L391.238 44.4118 L391.238 47.722 L381.423 47.722 L381.423 5.45367 Z" fill="#000000" fill-rule="evenodd" fill-opacity="1" /><path clip-path="url(#clip840)" d="M 0 0 M397.117 37.5368 L404.756 37.5368 L404.756 11.1712 L396.446 12.8379 L396.446 8.57866 L404.71 6.912 L409.386 6.912 L409.386 37.5368 L417.024 37.5368 L417.024 41.472 L397.117 41.472 L397.117 37.5368 Z" fill="#000000" fill-rule="evenodd" fill-opacity="1" /><path clip-path="url(#clip840)" d="M 0 0 M422.904 37.5368 L430.543 37.5368 L430.543 11.1712 L422.233 12.8379 L422.233 8.57866 L430.497 6.912 L435.173 6.912 L435.173 37.5368 L442.811 37.5368 L442.811 41.472 L422.904 41.472 L422.904 37.5368 Z" fill="#000000" fill-rule="evenodd" fill-opacity="1" /><path clip-path="url(#clip840)" d="M 0 0 M457.881 9.99069 Q454.27 9.99069 452.441 13.5555 Q450.635 17.0971 450.635 24.2267 Q450.635 31.3332 452.441 34.898 Q454.27 38.4396 457.881 38.4396 Q461.515 38.4396 463.32 34.898 Q465.149 31.3332 465.149 24.2267 Q465.149 17.0971 463.32 13.5555 Q461.515 9.99069 457.881 9.99069 M457.881 6.287 Q463.691 6.287 466.746 10.8935 Q469.825 15.4768 469.825 24.2267 Q469.825 32.9535 466.746 37.56 Q463.691 42.1433 457.881 42.1433 Q452.071 42.1433 448.992 37.56 Q445.936 32.9535 445.936 24.2267 Q445.936 15.4768 448.992 10.8935 Q452.071 6.287 457.881 6.287 Z" fill="#000000" fill-rule="evenodd" fill-opacity="1" /><path clip-path="url(#clip840)" d="M 0 0 M484.246 5.45367 L484.246 47.722 L474.432 47.722 L474.432 44.4118 L479.964 44.4118 L479.964 8.76384 L474.432 8.76384 L474.432 5.45367 L484.246 5.45367 Z" fill="#000000" fill-rule="evenodd" fill-opacity="1" /><circle clip-path="url(#clip842)" cx="454.484" cy="468.098" r="14" fill="#0000ff" fill-rule="evenodd" fill-opacity="1" stroke="none"/>
<circle clip-path="url(#clip842)" cx="369.264" cy="468.098" r="14" fill="#0000ff" fill-rule="evenodd" fill-opacity="1" stroke="none"/>
<circle clip-path="url(#clip842)" cx="411.874" cy="540.197" r="14" fill="#0000ff" fill-rule="evenodd" fill-opacity="1" stroke="none"/>
<circle clip-path="url(#clip842)" cx="539.705" cy="612.295" r="14" fill="#0000ff" fill-rule="evenodd" fill-opacity="1" stroke="none"/>
<circle clip-path="url(#clip842)" cx="454.484" cy="612.295" r="14" fill="#0000ff" fill-rule="evenodd" fill-opacity="1" stroke="none"/>
<circle clip-path="url(#clip842)" cx="497.094" cy="684.393" r="14" fill="#0000ff" fill-rule="evenodd" fill-opacity="1" stroke="none"/>
<circle clip-path="url(#clip842)" cx="198.823" cy="612.295" r="14" fill="#0000ff" fill-rule="evenodd" fill-opacity="1" stroke="none"/>
<circle clip-path="url(#clip842)" cx="113.602" cy="612.295" r="14" fill="#0000ff" fill-rule="evenodd" fill-opacity="1" stroke="none"/>
<circle clip-path="url(#clip842)" cx="156.213" cy="684.393" r="14" fill="#0000ff" fill-rule="evenodd" fill-opacity="1" stroke="none"/>
<circle clip-path="url(#clip842)" cx="624.925" cy="468.098" r="14" fill="#0000ff" fill-rule="evenodd" fill-opacity="1" stroke="none"/>
<circle clip-path="url(#clip842)" cx="539.705" cy="468.098" r="14" fill="#0000ff" fill-rule="evenodd" fill-opacity="1" stroke="none"/>
<circle clip-path="url(#clip842)" cx="582.315" cy="540.197" r="14" fill="#0000ff" fill-rule="evenodd" fill-opacity="1" stroke="none"/>
<circle clip-path="url(#clip842)" cx="710.146" cy="612.295" r="14" fill="#0000ff" fill-rule="evenodd" fill-opacity="1" stroke="none"/>
<circle clip-path="url(#clip842)" cx="624.925" cy="612.295" r="14" fill="#0000ff" fill-rule="evenodd" fill-opacity="1" stroke="none"/>
<circle clip-path="url(#clip842)" cx="667.535" cy="684.393" r="14" fill="#0000ff" fill-rule="evenodd" fill-opacity="1" stroke="none"/>
<circle clip-path="url(#clip842)" cx="369.264" cy="612.295" r="14" fill="#0000ff" fill-rule="evenodd" fill-opacity="1" stroke="none"/>
<circle clip-path="url(#clip842)" cx="284.043" cy="612.295" r="14" fill="#0000ff" fill-rule="evenodd" fill-opacity="1" stroke="none"/>
<circle clip-path="url(#clip842)" cx="326.654" cy="684.393" r="14" fill="#0000ff" fill-rule="evenodd" fill-opacity="1" stroke="none"/>
<path clip-path="url(#clip840)" d="M 0 0 M454.988 457.371 L460.717 457.371 L460.717 437.597 L454.484 438.847 L454.484 435.652 L460.682 434.402 L464.189 434.402 L464.189 457.371 L469.918 457.371 L469.918 460.322 L454.988 460.322 L454.988 457.371 Z" fill="#000000" fill-rule="evenodd" fill-opacity="1" /><path clip-path="url(#clip840)" d="M 0 0 M373.483 457.371 L385.722 457.371 L385.722 460.322 L369.264 460.322 L369.264 457.371 Q371.26 455.305 374.698 451.833 Q378.153 448.343 379.038 447.336 Q380.722 445.444 381.382 444.142 Q382.059 442.822 382.059 441.555 Q382.059 439.489 380.601 438.187 Q379.16 436.885 376.833 436.885 Q375.184 436.885 373.344 437.458 Q371.521 438.031 369.437 439.194 L369.437 435.652 Q371.555 434.802 373.396 434.368 Q375.236 433.934 376.764 433.934 Q380.791 433.934 383.187 435.947 Q385.583 437.961 385.583 441.329 Q385.583 442.927 384.976 444.368 Q384.385 445.791 382.805 447.736 Q382.371 448.239 380.045 450.652 Q377.719 453.048 373.483 457.371 Z" fill="#000000" fill-rule="evenodd" fill-opacity="1" /><path clip-path="url(#clip840)" d="M 0 0 M423.593 518.445 Q426.11 518.983 427.516 520.685 Q428.94 522.386 428.94 524.886 Q428.94 528.723 426.301 530.823 Q423.662 532.924 418.801 532.924 Q417.169 532.924 415.433 532.594 Q413.714 532.282 411.874 531.639 L411.874 528.254 Q413.332 529.105 415.068 529.539 Q416.805 529.973 418.697 529.973 Q421.995 529.973 423.714 528.671 Q425.45 527.369 425.45 524.886 Q425.45 522.594 423.836 521.31 Q422.239 520.008 419.374 520.008 L416.353 520.008 L416.353 517.126 L419.513 517.126 Q422.1 517.126 423.471 516.101 Q424.843 515.06 424.843 513.115 Q424.843 511.119 423.419 510.06 Q422.013 508.983 419.374 508.983 Q417.933 508.983 416.284 509.296 Q414.634 509.608 412.655 510.268 L412.655 507.143 Q414.652 506.587 416.388 506.31 Q418.141 506.032 419.686 506.032 Q423.68 506.032 426.006 507.855 Q428.332 509.66 428.332 512.751 Q428.332 514.903 427.1 516.396 Q425.867 517.872 423.593 518.445 Z" fill="#000000" fill-rule="evenodd" fill-opacity="1" /><path clip-path="url(#clip840)" d="M 0 0 M551.406 581.654 L542.552 595.491 L551.406 595.491 L551.406 581.654 M550.486 578.599 L554.896 578.599 L554.896 595.491 L558.594 595.491 L558.594 598.408 L554.896 598.408 L554.896 604.519 L551.406 604.519 L551.406 598.408 L539.705 598.408 L539.705 595.022 L550.486 578.599 Z" fill="#000000" fill-rule="evenodd" fill-opacity="1" /><path clip-path="url(#clip840)" d="M 0 0 M455.578 578.599 L469.345 578.599 L469.345 581.55 L458.79 581.55 L458.79 587.904 Q459.554 587.644 460.318 587.523 Q461.081 587.384 461.845 587.384 Q466.186 587.384 468.72 589.762 Q471.255 592.141 471.255 596.203 Q471.255 600.387 468.651 602.713 Q466.047 605.022 461.307 605.022 Q459.675 605.022 457.974 604.745 Q456.29 604.467 454.484 603.911 L454.484 600.387 Q456.047 601.238 457.713 601.654 Q459.38 602.071 461.238 602.071 Q464.241 602.071 465.995 600.491 Q467.748 598.911 467.748 596.203 Q467.748 593.495 465.995 591.915 Q464.241 590.335 461.238 590.335 Q459.831 590.335 458.425 590.648 Q457.036 590.96 455.578 591.62 L455.578 578.599 Z" fill="#000000" fill-rule="evenodd" fill-opacity="1" /><path clip-path="url(#clip840)" d="M 0 0 M506.348 662.26 Q503.987 662.26 502.598 663.874 Q501.226 665.489 501.226 668.301 Q501.226 671.096 502.598 672.728 Q503.987 674.343 506.348 674.343 Q508.709 674.343 510.081 672.728 Q511.469 671.096 511.469 668.301 Q511.469 665.489 510.081 663.874 Q508.709 662.26 506.348 662.26 M513.31 651.27 L513.31 654.465 Q511.99 653.84 510.636 653.51 Q509.299 653.18 507.98 653.18 Q504.508 653.18 502.667 655.524 Q500.844 657.867 500.584 662.607 Q501.608 661.097 503.153 660.298 Q504.699 659.482 506.556 659.482 Q510.462 659.482 512.719 661.86 Q514.994 664.222 514.994 668.301 Q514.994 672.294 512.633 674.708 Q510.272 677.121 506.348 677.121 Q501.851 677.121 499.473 673.683 Q497.094 670.228 497.094 663.683 Q497.094 657.538 500.011 653.892 Q502.928 650.229 507.841 650.229 Q509.16 650.229 510.497 650.489 Q511.851 650.749 513.31 651.27 Z" fill="#000000" fill-rule="evenodd" fill-opacity="1" /><path clip-path="url(#clip840)" d="M 0 0 M199.326 601.568 L205.055 601.568 L205.055 581.793 L198.823 583.043 L198.823 579.849 L205.021 578.599 L208.528 578.599 L208.528 601.568 L214.257 601.568 L214.257 604.519 L199.326 604.519 L199.326 601.568 Z" fill="#000000" fill-rule="evenodd" fill-opacity="1" /><path clip-path="url(#clip840)" d="M 0 0 M225.559 580.908 Q222.85 580.908 221.479 583.582 Q220.125 586.238 220.125 591.585 Q220.125 596.915 221.479 599.588 Q222.85 602.245 225.559 602.245 Q228.284 602.245 229.639 599.588 Q231.01 596.915 231.01 591.585 Q231.01 586.238 229.639 583.582 Q228.284 580.908 225.559 580.908 M225.559 578.13 Q229.916 578.13 232.208 581.585 Q234.517 585.023 234.517 591.585 Q234.517 598.13 232.208 601.585 Q229.916 605.022 225.559 605.022 Q221.201 605.022 218.892 601.585 Q216.601 598.13 216.601 591.585 Q216.601 585.023 218.892 581.585 Q221.201 578.13 225.559 578.13 Z" fill="#000000" fill-rule="evenodd" fill-opacity="1" /><path clip-path="url(#clip840)" d="M 0 0 M114.106 601.568 L119.835 601.568 L119.835 581.793 L113.602 583.043 L113.602 579.849 L119.8 578.599 L123.307 578.599 L123.307 601.568 L129.036 601.568 L129.036 604.519 L114.106 604.519 L114.106 601.568 Z" fill="#000000" fill-rule="evenodd" fill-opacity="1" /><path clip-path="url(#clip840)" d="M 0 0 M133.446 601.568 L139.175 601.568 L139.175 581.793 L132.943 583.043 L132.943 579.849 L139.14 578.599 L142.647 578.599 L142.647 601.568 L148.376 601.568 L148.376 604.519 L133.446 604.519 L133.446 601.568 Z" fill="#000000" fill-rule="evenodd" fill-opacity="1" /><path clip-path="url(#clip840)" d="M 0 0 M156.716 673.666 L162.445 673.666 L162.445 653.892 L156.213 655.142 L156.213 651.947 L162.41 650.697 L165.917 650.697 L165.917 673.666 L171.647 673.666 L171.647 676.617 L156.716 676.617 L156.716 673.666 Z" fill="#000000" fill-rule="evenodd" fill-opacity="1" /><path clip-path="url(#clip840)" d="M 0 0 M178.469 673.666 L190.709 673.666 L190.709 676.617 L174.251 676.617 L174.251 673.666 Q176.247 671.6 179.685 668.128 Q183.14 664.638 184.025 663.631 Q185.709 661.739 186.369 660.437 Q187.046 659.117 187.046 657.85 Q187.046 655.784 185.587 654.482 Q184.146 653.18 181.82 653.18 Q180.171 653.18 178.331 653.753 Q176.508 654.326 174.424 655.489 L174.424 651.947 Q176.542 651.097 178.383 650.663 Q180.223 650.229 181.751 650.229 Q185.778 650.229 188.174 652.242 Q190.57 654.256 190.57 657.624 Q190.57 659.222 189.962 660.663 Q189.372 662.086 187.792 664.031 Q187.358 664.534 185.032 666.947 Q182.706 669.343 178.469 673.666 Z" fill="#000000" fill-rule="evenodd" fill-opacity="1" /><path clip-path="url(#clip840)" d="M 0 0 M629.144 457.371 L641.383 457.371 L641.383 460.322 L624.925 460.322 L624.925 457.371 Q626.922 455.305 630.359 451.833 Q633.814 448.343 634.699 447.336 Q636.383 445.444 637.043 444.142 Q637.72 442.822 637.72 441.555 Q637.72 439.489 636.262 438.187 Q634.821 436.885 632.495 436.885 Q630.845 436.885 629.005 437.458 Q627.182 438.031 625.099 439.194 L625.099 435.652 Q627.217 434.802 629.057 434.368 Q630.897 433.934 632.425 433.934 Q636.453 433.934 638.849 435.947 Q641.245 437.961 641.245 441.329 Q641.245 442.927 640.637 444.368 Q640.047 445.791 638.467 447.736 Q638.033 448.239 635.706 450.652 Q633.38 453.048 629.144 457.371 Z" fill="#000000" fill-rule="evenodd" fill-opacity="1" /><path clip-path="url(#clip840)" d="M 0 0 M645.22 434.402 L658.988 434.402 L658.988 437.354 L648.432 437.354 L648.432 443.708 Q649.196 443.447 649.96 443.326 Q650.724 443.187 651.488 443.187 Q655.828 443.187 658.363 445.565 Q660.897 447.944 660.897 452.006 Q660.897 456.19 658.293 458.517 Q655.689 460.826 650.949 460.826 Q649.317 460.826 647.616 460.548 Q645.932 460.27 644.126 459.715 L644.126 456.19 Q645.689 457.041 647.356 457.458 Q649.022 457.874 650.88 457.874 Q653.883 457.874 655.637 456.295 Q657.39 454.715 657.39 452.006 Q657.39 449.298 655.637 447.718 Q653.883 446.138 650.88 446.138 Q649.474 446.138 648.067 446.451 Q646.679 446.763 645.22 447.423 L645.22 434.402 Z" fill="#000000" fill-rule="evenodd" fill-opacity="1" /><path clip-path="url(#clip840)" d="M 0 0 M543.923 457.371 L556.163 457.371 L556.163 460.322 L539.705 460.322 L539.705 457.371 Q541.701 455.305 545.139 451.833 Q548.594 448.343 549.479 447.336 Q551.163 445.444 551.823 444.142 Q552.5 442.822 552.5 441.555 Q552.5 439.489 551.041 438.187 Q549.601 436.885 547.274 436.885 Q545.625 436.885 543.785 437.458 Q541.962 438.031 539.878 439.194 L539.878 435.652 Q541.996 434.802 543.837 434.368 Q545.677 433.934 547.205 433.934 Q551.232 433.934 553.628 435.947 Q556.024 437.961 556.024 441.329 Q556.024 442.927 555.416 444.368 Q554.826 445.791 553.246 447.736 Q552.812 448.239 550.486 450.652 Q548.16 453.048 543.923 457.371 Z" fill="#000000" fill-rule="evenodd" fill-opacity="1" /><path clip-path="url(#clip840)" d="M 0 0 M567.899 445.965 Q565.538 445.965 564.149 447.579 Q562.778 449.194 562.778 452.006 Q562.778 454.802 564.149 456.433 Q565.538 458.048 567.899 458.048 Q570.26 458.048 571.632 456.433 Q573.021 454.802 573.021 452.006 Q573.021 449.194 571.632 447.579 Q570.26 445.965 567.899 445.965 M574.861 434.975 L574.861 438.17 Q573.541 437.545 572.187 437.215 Q570.85 436.885 569.531 436.885 Q566.059 436.885 564.218 439.229 Q562.396 441.572 562.135 446.312 Q563.159 444.802 564.705 444.003 Q566.25 443.187 568.107 443.187 Q572.014 443.187 574.271 445.565 Q576.545 447.927 576.545 452.006 Q576.545 455.999 574.184 458.413 Q571.823 460.826 567.899 460.826 Q563.403 460.826 561.024 457.388 Q558.646 453.933 558.646 447.388 Q558.646 441.243 561.562 437.597 Q564.479 433.934 569.392 433.934 Q570.712 433.934 572.048 434.194 Q573.402 434.454 574.861 434.975 Z" fill="#000000" fill-rule="evenodd" fill-opacity="1" /><path clip-path="url(#clip840)" d="M 0 0 M586.534 529.469 L598.773 529.469 L598.773 532.421 L582.315 532.421 L582.315 529.469 Q584.311 527.403 587.749 523.931 Q591.204 520.442 592.089 519.435 Q593.773 517.542 594.433 516.24 Q595.11 514.921 595.11 513.653 Q595.11 511.587 593.652 510.285 Q592.211 508.983 589.884 508.983 Q588.235 508.983 586.395 509.556 Q584.572 510.129 582.489 511.292 L582.489 507.751 Q584.607 506.9 586.447 506.466 Q588.287 506.032 589.815 506.032 Q593.843 506.032 596.238 508.046 Q598.634 510.06 598.634 513.428 Q598.634 515.025 598.027 516.466 Q597.436 517.889 595.857 519.834 Q595.423 520.337 593.096 522.751 Q590.77 525.146 586.534 529.469 Z" fill="#000000" fill-rule="evenodd" fill-opacity="1" /><path clip-path="url(#clip840)" d="M 0 0 M601.69 506.501 L618.356 506.501 L618.356 507.994 L608.947 532.421 L605.284 532.421 L614.138 509.452 L601.69 509.452 L601.69 506.501 Z" fill="#000000" fill-rule="evenodd" fill-opacity="1" /><path clip-path="url(#clip840)" d="M 0 0 M714.364 601.568 L726.604 601.568 L726.604 604.519 L710.146 604.519 L710.146 601.568 Q712.142 599.502 715.58 596.029 Q719.035 592.54 719.92 591.533 Q721.604 589.641 722.264 588.338 Q722.941 587.019 722.941 585.752 Q722.941 583.686 721.482 582.384 Q720.041 581.082 717.715 581.082 Q716.066 581.082 714.226 581.654 Q712.403 582.227 710.319 583.391 L710.319 579.849 Q712.437 578.998 714.278 578.564 Q716.118 578.13 717.646 578.13 Q721.673 578.13 724.069 580.144 Q726.465 582.158 726.465 585.526 Q726.465 587.123 725.857 588.564 Q725.267 589.988 723.687 591.932 Q723.253 592.436 720.927 594.849 Q718.6 597.245 714.364 601.568 Z" fill="#000000" fill-rule="evenodd" fill-opacity="1" /><path clip-path="url(#clip840)" d="M 0 0 M737.906 592.21 Q735.406 592.21 733.965 593.547 Q732.541 594.884 732.541 597.227 Q732.541 599.571 733.965 600.908 Q735.406 602.245 737.906 602.245 Q740.406 602.245 741.847 600.908 Q743.288 599.554 743.288 597.227 Q743.288 594.884 741.847 593.547 Q740.423 592.21 737.906 592.21 M734.399 590.717 Q732.142 590.161 730.875 588.616 Q729.625 587.071 729.625 584.849 Q729.625 581.741 731.83 579.936 Q734.052 578.13 737.906 578.13 Q741.777 578.13 743.982 579.936 Q746.187 581.741 746.187 584.849 Q746.187 587.071 744.92 588.616 Q743.67 590.161 741.43 590.717 Q743.965 591.307 745.371 593.026 Q746.795 594.745 746.795 597.227 Q746.795 600.995 744.486 603.009 Q742.194 605.022 737.906 605.022 Q733.618 605.022 731.309 603.009 Q729.017 600.995 729.017 597.227 Q729.017 594.745 730.441 593.026 Q731.864 591.307 734.399 590.717 M733.114 585.179 Q733.114 587.193 734.364 588.321 Q735.632 589.45 737.906 589.45 Q740.163 589.45 741.43 588.321 Q742.715 587.193 742.715 585.179 Q742.715 583.165 741.43 582.036 Q740.163 580.908 737.906 580.908 Q735.632 580.908 734.364 582.036 Q733.114 583.165 733.114 585.179 Z" fill="#000000" fill-rule="evenodd" fill-opacity="1" /><path clip-path="url(#clip840)" d="M 0 0 M629.144 601.568 L641.383 601.568 L641.383 604.519 L624.925 604.519 L624.925 601.568 Q626.922 599.502 630.359 596.029 Q633.814 592.54 634.699 591.533 Q636.383 589.641 637.043 588.338 Q637.72 587.019 637.72 585.752 Q637.72 583.686 636.262 582.384 Q634.821 581.082 632.495 581.082 Q630.845 581.082 629.005 581.654 Q627.182 582.227 625.099 583.391 L625.099 579.849 Q627.217 578.998 629.057 578.564 Q630.897 578.13 632.425 578.13 Q636.453 578.13 638.849 580.144 Q641.245 582.158 641.245 585.526 Q641.245 587.123 640.637 588.564 Q640.047 589.988 638.467 591.932 Q638.033 592.436 635.706 594.849 Q633.38 597.245 629.144 601.568 Z" fill="#000000" fill-rule="evenodd" fill-opacity="1" /><path clip-path="url(#clip840)" d="M 0 0 M645.29 603.981 L645.29 600.786 Q646.609 601.411 647.963 601.741 Q649.317 602.071 650.62 602.071 Q654.092 602.071 655.915 599.745 Q657.755 597.401 658.015 592.644 Q657.008 594.137 655.463 594.936 Q653.918 595.734 652.043 595.734 Q648.154 595.734 645.88 593.391 Q643.623 591.029 643.623 586.95 Q643.623 582.957 645.984 580.543 Q648.345 578.13 652.269 578.13 Q656.765 578.13 659.126 581.585 Q661.505 585.023 661.505 591.585 Q661.505 597.713 658.588 601.377 Q655.689 605.022 650.776 605.022 Q649.456 605.022 648.102 604.762 Q646.748 604.502 645.29 603.981 M652.269 592.991 Q654.63 592.991 656.001 591.377 Q657.39 589.762 657.39 586.95 Q657.39 584.154 656.001 582.54 Q654.63 580.908 652.269 580.908 Q649.908 580.908 648.519 582.54 Q647.147 584.154 647.147 586.95 Q647.147 589.762 648.519 591.377 Q649.908 592.991 652.269 592.991 Z" fill="#000000" fill-rule="evenodd" fill-opacity="1" /><path clip-path="url(#clip840)" d="M 0 0 M679.254 662.642 Q681.771 663.18 683.178 664.881 Q684.601 666.583 684.601 669.083 Q684.601 672.919 681.962 675.02 Q679.324 677.121 674.462 677.121 Q672.831 677.121 671.094 676.791 Q669.376 676.478 667.535 675.836 L667.535 672.451 Q668.994 673.301 670.73 673.735 Q672.466 674.169 674.358 674.169 Q677.657 674.169 679.376 672.867 Q681.112 671.565 681.112 669.083 Q681.112 666.791 679.497 665.506 Q677.9 664.204 675.035 664.204 L672.015 664.204 L672.015 661.322 L675.174 661.322 Q677.761 661.322 679.133 660.298 Q680.504 659.256 680.504 657.312 Q680.504 655.315 679.081 654.256 Q677.674 653.18 675.035 653.18 Q673.594 653.18 671.945 653.492 Q670.296 653.805 668.317 654.465 L668.317 651.34 Q670.313 650.784 672.049 650.506 Q673.803 650.229 675.348 650.229 Q679.341 650.229 681.667 652.051 Q683.994 653.857 683.994 656.947 Q683.994 659.1 682.761 660.593 Q681.528 662.069 679.254 662.642 Z" fill="#000000" fill-rule="evenodd" fill-opacity="1" /><path clip-path="url(#clip840)" d="M 0 0 M695.903 653.006 Q693.195 653.006 691.823 655.68 Q690.469 658.336 690.469 663.683 Q690.469 669.013 691.823 671.687 Q693.195 674.343 695.903 674.343 Q698.629 674.343 699.983 671.687 Q701.355 669.013 701.355 663.683 Q701.355 658.336 699.983 655.68 Q698.629 653.006 695.903 653.006 M695.903 650.229 Q700.261 650.229 702.553 653.683 Q704.862 657.121 704.862 663.683 Q704.862 670.228 702.553 673.683 Q700.261 677.121 695.903 677.121 Q691.546 677.121 689.237 673.683 Q686.945 670.228 686.945 663.683 Q686.945 657.121 689.237 653.683 Q691.546 650.229 695.903 650.229 Z" fill="#000000" fill-rule="evenodd" fill-opacity="1" /><path clip-path="url(#clip840)" d="M 0 0 M380.982 590.543 Q383.5 591.082 384.906 592.783 Q386.33 594.484 386.33 596.984 Q386.33 600.821 383.691 602.922 Q381.052 605.022 376.191 605.022 Q374.559 605.022 372.823 604.693 Q371.104 604.38 369.264 603.738 L369.264 600.352 Q370.722 601.203 372.458 601.637 Q374.194 602.071 376.087 602.071 Q379.385 602.071 381.104 600.769 Q382.84 599.467 382.84 596.984 Q382.84 594.693 381.226 593.408 Q379.628 592.106 376.764 592.106 L373.743 592.106 L373.743 589.224 L376.903 589.224 Q379.489 589.224 380.861 588.2 Q382.232 587.158 382.232 585.214 Q382.232 583.217 380.809 582.158 Q379.403 581.082 376.764 581.082 Q375.323 581.082 373.673 581.394 Q372.024 581.707 370.045 582.366 L370.045 579.241 Q372.042 578.686 373.778 578.408 Q375.531 578.13 377.076 578.13 Q381.069 578.13 383.396 579.953 Q385.722 581.759 385.722 584.849 Q385.722 587.002 384.489 588.495 Q383.257 589.97 380.982 590.543 Z" fill="#000000" fill-rule="evenodd" fill-opacity="1" /><path clip-path="url(#clip840)" d="M 0 0 M399.767 581.654 L390.913 595.491 L399.767 595.491 L399.767 581.654 M398.847 578.599 L403.257 578.599 L403.257 595.491 L406.955 595.491 L406.955 598.408 L403.257 598.408 L403.257 604.519 L399.767 604.519 L399.767 598.408 L388.066 598.408 L388.066 595.022 L398.847 578.599 Z" fill="#000000" fill-rule="evenodd" fill-opacity="1" /><path clip-path="url(#clip840)" d="M 0 0 M295.762 590.543 Q298.279 591.082 299.686 592.783 Q301.109 594.484 301.109 596.984 Q301.109 600.821 298.47 602.922 Q295.831 605.022 290.97 605.022 Q289.338 605.022 287.602 604.693 Q285.884 604.38 284.043 603.738 L284.043 600.352 Q285.502 601.203 287.238 601.637 Q288.974 602.071 290.866 602.071 Q294.165 602.071 295.884 600.769 Q297.62 599.467 297.62 596.984 Q297.62 594.693 296.005 593.408 Q294.408 592.106 291.543 592.106 L288.522 592.106 L288.522 589.224 L291.682 589.224 Q294.269 589.224 295.64 588.2 Q297.012 587.158 297.012 585.214 Q297.012 583.217 295.588 582.158 Q294.182 581.082 291.543 581.082 Q290.102 581.082 288.453 581.394 Q286.804 581.707 284.825 582.366 L284.825 579.241 Q286.821 578.686 288.557 578.408 Q290.311 578.13 291.856 578.13 Q295.849 578.13 298.175 579.953 Q300.502 581.759 300.502 584.849 Q300.502 587.002 299.269 588.495 Q298.036 589.97 295.762 590.543 Z" fill="#000000" fill-rule="evenodd" fill-opacity="1" /><path clip-path="url(#clip840)" d="M 0 0 M304.946 578.599 L318.713 578.599 L318.713 581.55 L308.158 581.55 L308.158 587.904 Q308.922 587.644 309.686 587.523 Q310.449 587.384 311.213 587.384 Q315.554 587.384 318.088 589.762 Q320.623 592.141 320.623 596.203 Q320.623 600.387 318.019 602.713 Q315.415 605.022 310.675 605.022 Q309.043 605.022 307.342 604.745 Q305.658 604.467 303.852 603.911 L303.852 600.387 Q305.415 601.238 307.081 601.654 Q308.748 602.071 310.606 602.071 Q313.609 602.071 315.363 600.491 Q317.116 598.911 317.116 596.203 Q317.116 593.495 315.363 591.915 Q313.609 590.335 310.606 590.335 Q309.199 590.335 307.793 590.648 Q306.404 590.96 304.946 591.62 L304.946 578.599 Z" fill="#000000" fill-rule="evenodd" fill-opacity="1" /><path clip-path="url(#clip840)" d="M 0 0 M338.372 662.642 Q340.89 663.18 342.296 664.881 Q343.719 666.583 343.719 669.083 Q343.719 672.919 341.081 675.02 Q338.442 677.121 333.581 677.121 Q331.949 677.121 330.213 676.791 Q328.494 676.478 326.654 675.836 L326.654 672.451 Q328.112 673.301 329.848 673.735 Q331.584 674.169 333.476 674.169 Q336.775 674.169 338.494 672.867 Q340.23 671.565 340.23 669.083 Q340.23 666.791 338.615 665.506 Q337.018 664.204 334.154 664.204 L331.133 664.204 L331.133 661.322 L334.292 661.322 Q336.879 661.322 338.251 660.298 Q339.622 659.256 339.622 657.312 Q339.622 655.315 338.199 654.256 Q336.792 653.18 334.154 653.18 Q332.713 653.18 331.063 653.492 Q329.414 653.805 327.435 654.465 L327.435 651.34 Q329.431 650.784 331.167 650.506 Q332.921 650.229 334.466 650.229 Q338.459 650.229 340.785 652.051 Q343.112 653.857 343.112 656.947 Q343.112 659.1 341.879 660.593 Q340.647 662.069 338.372 662.642 Z" fill="#000000" fill-rule="evenodd" fill-opacity="1" /><path clip-path="url(#clip840)" d="M 0 0 M355.455 662.26 Q353.094 662.26 351.705 663.874 Q350.334 665.489 350.334 668.301 Q350.334 671.096 351.705 672.728 Q353.094 674.343 355.455 674.343 Q357.817 674.343 359.188 672.728 Q360.577 671.096 360.577 668.301 Q360.577 665.489 359.188 663.874 Q357.817 662.26 355.455 662.26 M362.417 651.27 L362.417 654.465 Q361.098 653.84 359.744 653.51 Q358.407 653.18 357.087 653.18 Q353.615 653.18 351.775 655.524 Q349.952 657.867 349.692 662.607 Q350.716 661.097 352.261 660.298 Q353.806 659.482 355.664 659.482 Q359.57 659.482 361.827 661.86 Q364.101 664.222 364.101 668.301 Q364.101 672.294 361.74 674.708 Q359.379 677.121 355.455 677.121 Q350.959 677.121 348.581 673.683 Q346.202 670.228 346.202 663.683 Q346.202 657.538 349.119 653.892 Q352.035 650.229 356.949 650.229 Q358.268 650.229 359.605 650.489 Q360.959 650.749 362.417 651.27 Z" fill="#000000" fill-rule="evenodd" fill-opacity="1" /><circle clip-path="url(#clip842)" cx="113.602" cy="468.098" r="14" fill="#0000ff" fill-rule="evenodd" fill-opacity="1" stroke="none"/>
<circle clip-path="url(#clip842)" cx="369.264" cy="323.902" r="14" fill="#0000ff" fill-rule="evenodd" fill-opacity="1" stroke="none"/>
<circle clip-path="url(#clip842)" cx="284.043" cy="323.902" r="14" fill="#0000ff" fill-rule="evenodd" fill-opacity="1" stroke="none"/>
<circle clip-path="url(#clip842)" cx="326.654" cy="396" r="14" fill="#0000ff" fill-rule="evenodd" fill-opacity="1" stroke="none"/>
<circle clip-path="url(#clip842)" cx="113.602" cy="179.705" r="14" fill="#0000ff" fill-rule="evenodd" fill-opacity="1" stroke="none"/>
<circle clip-path="url(#clip842)" cx="198.823" cy="323.902" r="14" fill="#0000ff" fill-rule="evenodd" fill-opacity="1" stroke="none"/>
<circle clip-path="url(#clip842)" cx="113.602" cy="323.902" r="14" fill="#0000ff" fill-rule="evenodd" fill-opacity="1" stroke="none"/>
<circle clip-path="url(#clip842)" cx="156.213" cy="396" r="14" fill="#0000ff" fill-rule="evenodd" fill-opacity="1" stroke="none"/>
<circle clip-path="url(#clip842)" cx="284.043" cy="468.098" r="14" fill="#0000ff" fill-rule="evenodd" fill-opacity="1" stroke="none"/>
<circle clip-path="url(#clip842)" cx="198.823" cy="468.098" r="14" fill="#0000ff" fill-rule="evenodd" fill-opacity="1" stroke="none"/>
<circle clip-path="url(#clip842)" cx="241.433" cy="540.197" r="14" fill="#0000ff" fill-rule="evenodd" fill-opacity="1" stroke="none"/>
<path clip-path="url(#clip840)" d="M 0 0 M113.602 434.402 L130.269 434.402 L130.269 435.895 L120.859 460.322 L117.196 460.322 L126.05 437.354 L113.602 437.354 L113.602 434.402 Z" fill="#000000" fill-rule="evenodd" fill-opacity="1" /><path clip-path="url(#clip840)" d="M 0 0 M72.6588 531.882 L72.6588 528.688 Q73.9782 529.313 75.3324 529.643 Q76.6865 529.973 77.9886 529.973 Q81.4608 529.973 83.2837 527.646 Q85.124 525.303 85.3844 520.546 Q84.3775 522.039 82.8323 522.837 Q81.2872 523.636 79.4122 523.636 Q75.5234 523.636 73.2491 521.292 Q70.9921 518.931 70.9921 514.851 Q70.9921 510.858 73.3532 508.445 Q75.7143 506.032 79.6379 506.032 Q84.1344 506.032 86.4955 509.487 Q88.874 512.924 88.874 519.487 Q88.874 525.615 85.9573 529.278 Q83.058 532.924 78.1449 532.924 Q76.8254 532.924 75.4713 532.664 Q74.1171 532.403 72.6588 531.882 M79.6379 520.893 Q81.999 520.893 83.3705 519.278 Q84.7594 517.664 84.7594 514.851 Q84.7594 512.056 83.3705 510.442 Q81.999 508.81 79.6379 508.81 Q77.2768 508.81 75.8879 510.442 Q74.5164 512.056 74.5164 514.851 Q74.5164 517.664 75.8879 519.278 Q77.2768 520.893 79.6379 520.893 Z" fill="#000000" fill-rule="evenodd" fill-opacity="1" /><path clip-path="url(#clip840)" d="M 0 0 M369.767 313.174 L375.496 313.174 L375.496 293.4 L369.264 294.65 L369.264 291.456 L375.462 290.206 L378.969 290.206 L378.969 313.174 L384.698 313.174 L384.698 316.126 L369.767 316.126 L369.767 313.174 Z" fill="#000000" fill-rule="evenodd" fill-opacity="1" /><path clip-path="url(#clip840)" d="M 0 0 M396.434 301.768 Q394.073 301.768 392.684 303.383 Q391.312 304.997 391.312 307.81 Q391.312 310.605 392.684 312.237 Q394.073 313.851 396.434 313.851 Q398.795 313.851 400.166 312.237 Q401.555 310.605 401.555 307.81 Q401.555 304.997 400.166 303.383 Q398.795 301.768 396.434 301.768 M403.396 290.779 L403.396 293.973 Q402.076 293.348 400.722 293.018 Q399.385 292.688 398.066 292.688 Q394.594 292.688 392.753 295.032 Q390.93 297.376 390.67 302.115 Q391.694 300.605 393.239 299.806 Q394.784 298.99 396.642 298.99 Q400.548 298.99 402.805 301.369 Q405.08 303.73 405.08 307.81 Q405.08 311.803 402.718 314.216 Q400.357 316.629 396.434 316.629 Q391.937 316.629 389.559 313.192 Q387.18 309.737 387.18 303.192 Q387.18 297.046 390.097 293.4 Q393.014 289.737 397.927 289.737 Q399.246 289.737 400.583 289.997 Q401.937 290.258 403.396 290.779 Z" fill="#000000" fill-rule="evenodd" fill-opacity="1" /><path clip-path="url(#clip840)" d="M 0 0 M284.547 313.174 L290.276 313.174 L290.276 293.4 L284.043 294.65 L284.043 291.456 L290.241 290.206 L293.748 290.206 L293.748 313.174 L299.477 313.174 L299.477 316.126 L284.547 316.126 L284.547 313.174 Z" fill="#000000" fill-rule="evenodd" fill-opacity="1" /><path clip-path="url(#clip840)" d="M 0 0 M302.394 290.206 L319.06 290.206 L319.06 291.699 L309.651 316.126 L305.988 316.126 L314.842 293.157 L302.394 293.157 L302.394 290.206 Z" fill="#000000" fill-rule="evenodd" fill-opacity="1" /><path clip-path="url(#clip840)" d="M 0 0 M327.157 385.273 L332.886 385.273 L332.886 365.498 L326.654 366.748 L326.654 363.554 L332.851 362.304 L336.358 362.304 L336.358 385.273 L342.087 385.273 L342.087 388.224 L327.157 388.224 L327.157 385.273 Z" fill="#000000" fill-rule="evenodd" fill-opacity="1" /><path clip-path="url(#clip840)" d="M 0 0 M353.39 375.915 Q350.89 375.915 349.449 377.252 Q348.025 378.589 348.025 380.932 Q348.025 383.276 349.449 384.613 Q350.89 385.95 353.39 385.95 Q355.889 385.95 357.33 384.613 Q358.771 383.259 358.771 380.932 Q358.771 378.589 357.33 377.252 Q355.907 375.915 353.39 375.915 M349.883 374.422 Q347.626 373.866 346.358 372.321 Q345.108 370.776 345.108 368.554 Q345.108 365.446 347.313 363.641 Q349.535 361.835 353.39 361.835 Q357.261 361.835 359.466 363.641 Q361.671 365.446 361.671 368.554 Q361.671 370.776 360.403 372.321 Q359.153 373.866 356.914 374.422 Q359.449 375.012 360.855 376.731 Q362.278 378.45 362.278 380.932 Q362.278 384.7 359.969 386.714 Q357.678 388.727 353.39 388.727 Q349.101 388.727 346.792 386.714 Q344.501 384.7 344.501 380.932 Q344.501 378.45 345.924 376.731 Q347.348 375.012 349.883 374.422 M348.598 368.884 Q348.598 370.898 349.848 372.026 Q351.115 373.155 353.39 373.155 Q355.646 373.155 356.914 372.026 Q358.199 370.898 358.199 368.884 Q358.199 366.87 356.914 365.741 Q355.646 364.613 353.39 364.613 Q351.115 364.613 349.848 365.741 Q348.598 366.87 348.598 368.884 Z" fill="#000000" fill-rule="evenodd" fill-opacity="1" /><path clip-path="url(#clip840)" d="M 0 0 M117.821 168.978 L130.061 168.978 L130.061 171.929 L113.602 171.929 L113.602 168.978 Q115.599 166.912 119.036 163.44 Q122.491 159.95 123.377 158.943 Q125.061 157.051 125.72 155.749 Q126.397 154.429 126.397 153.162 Q126.397 151.096 124.939 149.794 Q123.498 148.492 121.172 148.492 Q119.522 148.492 117.682 149.065 Q115.859 149.637 113.776 150.801 L113.776 147.259 Q115.894 146.408 117.734 145.974 Q119.575 145.54 121.102 145.54 Q125.13 145.54 127.526 147.554 Q129.922 149.568 129.922 152.936 Q129.922 154.533 129.314 155.974 Q128.724 157.398 127.144 159.342 Q126.71 159.846 124.384 162.259 Q122.057 164.655 117.821 168.978 Z" fill="#000000" fill-rule="evenodd" fill-opacity="1" /><path clip-path="url(#clip840)" d="M 0 0 M133.897 146.009 L147.665 146.009 L147.665 148.96 L137.109 148.96 L137.109 155.315 Q137.873 155.054 138.637 154.933 Q139.401 154.794 140.165 154.794 Q144.505 154.794 147.04 157.172 Q149.574 159.551 149.574 163.613 Q149.574 167.797 146.97 170.123 Q144.366 172.433 139.627 172.433 Q137.995 172.433 136.293 172.155 Q134.609 171.877 132.804 171.321 L132.804 167.797 Q134.366 168.648 136.033 169.064 Q137.699 169.481 139.557 169.481 Q142.561 169.481 144.314 167.901 Q146.067 166.321 146.067 163.613 Q146.067 160.905 144.314 159.325 Q142.561 157.745 139.557 157.745 Q138.151 157.745 136.745 158.058 Q135.356 158.37 133.897 159.03 L133.897 146.009 Z" fill="#000000" fill-rule="evenodd" fill-opacity="1" /><path clip-path="url(#clip840)" d="M 0 0 M203.042 313.174 L215.281 313.174 L215.281 316.126 L198.823 316.126 L198.823 313.174 Q200.819 311.108 204.257 307.636 Q207.712 304.147 208.597 303.14 Q210.281 301.247 210.941 299.945 Q211.618 298.626 211.618 297.358 Q211.618 295.292 210.16 293.99 Q208.719 292.688 206.392 292.688 Q204.743 292.688 202.903 293.261 Q201.08 293.834 198.996 294.997 L198.996 291.456 Q201.114 290.605 202.955 290.171 Q204.795 289.737 206.323 289.737 Q210.351 289.737 212.746 291.751 Q215.142 293.765 215.142 297.133 Q215.142 298.73 214.535 300.171 Q213.944 301.595 212.364 303.539 Q211.93 304.042 209.604 306.456 Q207.278 308.851 203.042 313.174 Z" fill="#000000" fill-rule="evenodd" fill-opacity="1" /><path clip-path="url(#clip840)" d="M 0 0 M226.583 303.817 Q224.083 303.817 222.642 305.154 Q221.219 306.49 221.219 308.834 Q221.219 311.178 222.642 312.515 Q224.083 313.851 226.583 313.851 Q229.083 313.851 230.524 312.515 Q231.965 311.16 231.965 308.834 Q231.965 306.49 230.524 305.154 Q229.1 303.817 226.583 303.817 M223.076 302.324 Q220.819 301.768 219.552 300.223 Q218.302 298.678 218.302 296.456 Q218.302 293.348 220.507 291.542 Q222.729 289.737 226.583 289.737 Q230.455 289.737 232.659 291.542 Q234.864 293.348 234.864 296.456 Q234.864 298.678 233.597 300.223 Q232.347 301.768 230.107 302.324 Q232.642 302.914 234.048 304.633 Q235.472 306.351 235.472 308.834 Q235.472 312.601 233.163 314.615 Q230.871 316.629 226.583 316.629 Q222.295 316.629 219.986 314.615 Q217.694 312.601 217.694 308.834 Q217.694 306.351 219.118 304.633 Q220.541 302.914 223.076 302.324 M221.791 296.786 Q221.791 298.799 223.041 299.928 Q224.309 301.056 226.583 301.056 Q228.84 301.056 230.107 299.928 Q231.392 298.799 231.392 296.786 Q231.392 294.772 230.107 293.643 Q228.84 292.515 226.583 292.515 Q224.309 292.515 223.041 293.643 Q221.791 294.772 221.791 296.786 Z" fill="#000000" fill-rule="evenodd" fill-opacity="1" /><path clip-path="url(#clip840)" d="M 0 0 M117.821 313.174 L130.061 313.174 L130.061 316.126 L113.602 316.126 L113.602 313.174 Q115.599 311.108 119.036 307.636 Q122.491 304.147 123.377 303.14 Q125.061 301.247 125.72 299.945 Q126.397 298.626 126.397 297.358 Q126.397 295.292 124.939 293.99 Q123.498 292.688 121.172 292.688 Q119.522 292.688 117.682 293.261 Q115.859 293.834 113.776 294.997 L113.776 291.456 Q115.894 290.605 117.734 290.171 Q119.575 289.737 121.102 289.737 Q125.13 289.737 127.526 291.751 Q129.922 293.765 129.922 297.133 Q129.922 298.73 129.314 300.171 Q128.724 301.595 127.144 303.539 Q126.71 304.042 124.384 306.456 Q122.057 308.851 117.821 313.174 Z" fill="#000000" fill-rule="evenodd" fill-opacity="1" /><path clip-path="url(#clip840)" d="M 0 0 M133.967 315.587 L133.967 312.393 Q135.286 313.018 136.64 313.348 Q137.995 313.678 139.297 313.678 Q142.769 313.678 144.592 311.351 Q146.432 309.008 146.692 304.251 Q145.686 305.744 144.14 306.542 Q142.595 307.341 140.72 307.341 Q136.831 307.341 134.557 304.997 Q132.3 302.636 132.3 298.556 Q132.3 294.563 134.661 292.15 Q137.022 289.737 140.946 289.737 Q145.442 289.737 147.804 293.192 Q150.182 296.629 150.182 303.192 Q150.182 309.32 147.265 312.983 Q144.366 316.629 139.453 316.629 Q138.133 316.629 136.779 316.369 Q135.425 316.108 133.967 315.587 M140.946 304.598 Q143.307 304.598 144.679 302.983 Q146.067 301.369 146.067 298.556 Q146.067 295.761 144.679 294.147 Q143.307 292.515 140.946 292.515 Q138.585 292.515 137.196 294.147 Q135.824 295.761 135.824 298.556 Q135.824 301.369 137.196 302.983 Q138.585 304.598 140.946 304.598 Z" fill="#000000" fill-rule="evenodd" fill-opacity="1" /><path clip-path="url(#clip840)" d="M 0 0 M167.931 374.248 Q170.449 374.787 171.855 376.488 Q173.278 378.189 173.278 380.689 Q173.278 384.526 170.64 386.627 Q168.001 388.727 163.14 388.727 Q161.508 388.727 159.772 388.398 Q158.053 388.085 156.213 387.443 L156.213 384.057 Q157.671 384.908 159.407 385.342 Q161.143 385.776 163.035 385.776 Q166.334 385.776 168.053 384.474 Q169.789 383.172 169.789 380.689 Q169.789 378.398 168.174 377.113 Q166.577 375.811 163.713 375.811 L160.692 375.811 L160.692 372.929 L163.851 372.929 Q166.438 372.929 167.81 371.905 Q169.181 370.863 169.181 368.919 Q169.181 366.922 167.758 365.863 Q166.351 364.787 163.713 364.787 Q162.272 364.787 160.622 365.099 Q158.973 365.412 156.994 366.071 L156.994 362.946 Q158.99 362.391 160.726 362.113 Q162.48 361.835 164.025 361.835 Q168.018 361.835 170.344 363.658 Q172.671 365.464 172.671 368.554 Q172.671 370.707 171.438 372.2 Q170.206 373.675 167.931 374.248 Z" fill="#000000" fill-rule="evenodd" fill-opacity="1" /><path clip-path="url(#clip840)" d="M 0 0 M184.581 364.613 Q181.872 364.613 180.501 367.287 Q179.147 369.943 179.147 375.29 Q179.147 380.62 180.501 383.293 Q181.872 385.95 184.581 385.95 Q187.306 385.95 188.66 383.293 Q190.032 380.62 190.032 375.29 Q190.032 369.943 188.66 367.287 Q187.306 364.613 184.581 364.613 M184.581 361.835 Q188.938 361.835 191.23 365.29 Q193.539 368.728 193.539 375.29 Q193.539 381.835 191.23 385.29 Q188.938 388.727 184.581 388.727 Q180.223 388.727 177.914 385.29 Q175.622 381.835 175.622 375.29 Q175.622 368.728 177.914 365.29 Q180.223 361.835 184.581 361.835 Z" fill="#000000" fill-rule="evenodd" fill-opacity="1" /><path clip-path="url(#clip840)" d="M 0 0 M295.762 446.347 Q298.279 446.885 299.686 448.586 Q301.109 450.288 301.109 452.788 Q301.109 456.624 298.47 458.725 Q295.831 460.826 290.97 460.826 Q289.338 460.826 287.602 460.496 Q285.884 460.183 284.043 459.541 L284.043 456.156 Q285.502 457.006 287.238 457.44 Q288.974 457.874 290.866 457.874 Q294.165 457.874 295.884 456.572 Q297.62 455.27 297.62 452.788 Q297.62 450.496 296.005 449.211 Q294.408 447.909 291.543 447.909 L288.522 447.909 L288.522 445.027 L291.682 445.027 Q294.269 445.027 295.64 444.003 Q297.012 442.961 297.012 441.017 Q297.012 439.02 295.588 437.961 Q294.182 436.885 291.543 436.885 Q290.102 436.885 288.453 437.197 Q286.804 437.51 284.825 438.17 L284.825 435.045 Q286.821 434.489 288.557 434.211 Q290.311 433.934 291.856 433.934 Q295.849 433.934 298.175 435.756 Q300.502 437.562 300.502 440.652 Q300.502 442.805 299.269 444.298 Q298.036 445.774 295.762 446.347 Z" fill="#000000" fill-rule="evenodd" fill-opacity="1" /><path clip-path="url(#clip840)" d="M 0 0 M305.519 457.371 L311.248 457.371 L311.248 437.597 L305.015 438.847 L305.015 435.652 L311.213 434.402 L314.72 434.402 L314.72 457.371 L320.449 457.371 L320.449 460.322 L305.519 460.322 L305.519 457.371 Z" fill="#000000" fill-rule="evenodd" fill-opacity="1" /><path clip-path="url(#clip840)" d="M 0 0 M210.542 446.347 Q213.059 446.885 214.465 448.586 Q215.889 450.288 215.889 452.788 Q215.889 456.624 213.25 458.725 Q210.611 460.826 205.75 460.826 Q204.118 460.826 202.382 460.496 Q200.663 460.183 198.823 459.541 L198.823 456.156 Q200.281 457.006 202.017 457.44 Q203.753 457.874 205.646 457.874 Q208.944 457.874 210.663 456.572 Q212.399 455.27 212.399 452.788 Q212.399 450.496 210.785 449.211 Q209.187 447.909 206.323 447.909 L203.302 447.909 L203.302 445.027 L206.462 445.027 Q209.048 445.027 210.42 444.003 Q211.792 442.961 211.792 441.017 Q211.792 439.02 210.368 437.961 Q208.962 436.885 206.323 436.885 Q204.882 436.885 203.233 437.197 Q201.583 437.51 199.604 438.17 L199.604 435.045 Q201.601 434.489 203.337 434.211 Q205.09 433.934 206.635 433.934 Q210.628 433.934 212.955 435.756 Q215.281 437.562 215.281 440.652 Q215.281 442.805 214.048 444.298 Q212.816 445.774 210.542 446.347 Z" fill="#000000" fill-rule="evenodd" fill-opacity="1" /><path clip-path="url(#clip840)" d="M 0 0 M222.712 457.371 L234.951 457.371 L234.951 460.322 L218.493 460.322 L218.493 457.371 Q220.489 455.305 223.927 451.833 Q227.382 448.343 228.267 447.336 Q229.951 445.444 230.611 444.142 Q231.288 442.822 231.288 441.555 Q231.288 439.489 229.83 438.187 Q228.389 436.885 226.062 436.885 Q224.413 436.885 222.573 437.458 Q220.75 438.031 218.666 439.194 L218.666 435.652 Q220.785 434.802 222.625 434.368 Q224.465 433.934 225.993 433.934 Q230.021 433.934 232.416 435.947 Q234.812 437.961 234.812 441.329 Q234.812 442.927 234.205 444.368 Q233.614 445.791 232.034 447.736 Q231.6 448.239 229.274 450.652 Q226.948 453.048 222.712 457.371 Z" fill="#000000" fill-rule="evenodd" fill-opacity="1" /><path clip-path="url(#clip840)" d="M 0 0 M253.152 518.445 Q255.669 518.983 257.075 520.685 Q258.499 522.386 258.499 524.886 Q258.499 528.723 255.86 530.823 Q253.221 532.924 248.36 532.924 Q246.728 532.924 244.992 532.594 Q243.273 532.282 241.433 531.639 L241.433 528.254 Q242.891 529.105 244.627 529.539 Q246.364 529.973 248.256 529.973 Q251.555 529.973 253.273 528.671 Q255.009 527.369 255.009 524.886 Q255.009 522.594 253.395 521.31 Q251.798 520.008 248.933 520.008 L245.912 520.008 L245.912 517.126 L249.072 517.126 Q251.659 517.126 253.03 516.101 Q254.402 515.06 254.402 513.115 Q254.402 511.119 252.978 510.06 Q251.572 508.983 248.933 508.983 Q247.492 508.983 245.843 509.296 Q244.193 509.608 242.214 510.268 L242.214 507.143 Q244.211 506.587 245.947 506.31 Q247.7 506.032 249.246 506.032 Q253.239 506.032 255.565 507.855 Q257.891 509.66 257.891 512.751 Q257.891 514.903 256.659 516.396 Q255.426 517.872 253.152 518.445 Z" fill="#000000" fill-rule="evenodd" fill-opacity="1" /><path clip-path="url(#clip840)" d="M 0 0 M272.926 518.445 Q275.443 518.983 276.85 520.685 Q278.273 522.386 278.273 524.886 Q278.273 528.723 275.634 530.823 Q272.995 532.924 268.134 532.924 Q266.502 532.924 264.766 532.594 Q263.048 532.282 261.207 531.639 L261.207 528.254 Q262.666 529.105 264.402 529.539 Q266.138 529.973 268.03 529.973 Q271.329 529.973 273.047 528.671 Q274.784 527.369 274.784 524.886 Q274.784 522.594 273.169 521.31 Q271.572 520.008 268.707 520.008 L265.686 520.008 L265.686 517.126 L268.846 517.126 Q271.433 517.126 272.804 516.101 Q274.176 515.06 274.176 513.115 Q274.176 511.119 272.752 510.06 Q271.346 508.983 268.707 508.983 Q267.266 508.983 265.617 509.296 Q263.968 509.608 261.989 510.268 L261.989 507.143 Q263.985 506.587 265.721 506.31 Q267.475 506.032 269.02 506.032 Q273.013 506.032 275.339 507.855 Q277.666 509.66 277.666 512.751 Q277.666 514.903 276.433 516.396 Q275.2 517.872 272.926 518.445 Z" fill="#000000" fill-rule="evenodd" fill-opacity="1" /><circle clip-path="url(#clip842)" cx="710.146" cy="323.902" r="14" fill="#0000ff" fill-rule="evenodd" fill-opacity="1" stroke="none"/>
<circle clip-path="url(#clip842)" cx="624.925" cy="323.902" r="14" fill="#0000ff" fill-rule="evenodd" fill-opacity="1" stroke="none"/>
<circle clip-path="url(#clip842)" cx="667.535" cy="396" r="14" fill="#0000ff" fill-rule="evenodd" fill-opacity="1" stroke="none"/>
<circle clip-path="url(#clip842)" cx="710.146" cy="468.098" r="14" fill="#0000ff" fill-rule="evenodd" fill-opacity="1" stroke="none"/>
<circle clip-path="url(#clip842)" cx="752.756" cy="540.197" r="14" fill="#0000ff" fill-rule="evenodd" fill-opacity="1" stroke="none"/>
<path clip-path="url(#clip840)" d="M 0 0 M710.649 313.174 L716.378 313.174 L716.378 293.4 L710.146 294.65 L710.146 291.456 L716.344 290.206 L719.85 290.206 L719.85 313.174 L725.58 313.174 L725.58 316.126 L710.649 316.126 L710.649 313.174 Z" fill="#000000" fill-rule="evenodd" fill-opacity="1" /><path clip-path="url(#clip840)" d="M 0 0 M736.882 292.515 Q734.173 292.515 732.802 295.188 Q731.448 297.845 731.448 303.192 Q731.448 308.522 732.802 311.195 Q734.173 313.851 736.882 313.851 Q739.607 313.851 740.961 311.195 Q742.333 308.522 742.333 303.192 Q742.333 297.845 740.961 295.188 Q739.607 292.515 736.882 292.515 M736.882 289.737 Q741.239 289.737 743.531 293.192 Q745.84 296.629 745.84 303.192 Q745.84 309.737 743.531 313.192 Q741.239 316.629 736.882 316.629 Q732.524 316.629 730.215 313.192 Q727.923 309.737 727.923 303.192 Q727.923 296.629 730.215 293.192 Q732.524 289.737 736.882 289.737 Z" fill="#000000" fill-rule="evenodd" fill-opacity="1" /><path clip-path="url(#clip840)" d="M 0 0 M625.429 313.174 L631.158 313.174 L631.158 293.4 L624.925 294.65 L624.925 291.456 L631.123 290.206 L634.63 290.206 L634.63 313.174 L640.359 313.174 L640.359 316.126 L625.429 316.126 L625.429 313.174 Z" fill="#000000" fill-rule="evenodd" fill-opacity="1" /><path clip-path="url(#clip840)" d="M 0 0 M644.769 313.174 L650.498 313.174 L650.498 293.4 L644.265 294.65 L644.265 291.456 L650.463 290.206 L653.97 290.206 L653.97 313.174 L659.699 313.174 L659.699 316.126 L644.769 316.126 L644.769 313.174 Z" fill="#000000" fill-rule="evenodd" fill-opacity="1" /><path clip-path="url(#clip840)" d="M 0 0 M668.039 385.273 L673.768 385.273 L673.768 365.498 L667.535 366.748 L667.535 363.554 L673.733 362.304 L677.24 362.304 L677.24 385.273 L682.969 385.273 L682.969 388.224 L668.039 388.224 L668.039 385.273 Z" fill="#000000" fill-rule="evenodd" fill-opacity="1" /><path clip-path="url(#clip840)" d="M 0 0 M689.792 385.273 L702.032 385.273 L702.032 388.224 L685.574 388.224 L685.574 385.273 Q687.57 383.207 691.008 379.734 Q694.462 376.245 695.348 375.238 Q697.032 373.346 697.692 372.044 Q698.369 370.724 698.369 369.457 Q698.369 367.391 696.91 366.089 Q695.469 364.787 693.143 364.787 Q691.494 364.787 689.653 365.36 Q687.83 365.932 685.747 367.096 L685.747 363.554 Q687.865 362.703 689.705 362.269 Q691.546 361.835 693.073 361.835 Q697.101 361.835 699.497 363.849 Q701.893 365.863 701.893 369.231 Q701.893 370.828 701.285 372.269 Q700.695 373.693 699.115 375.637 Q698.681 376.141 696.355 378.554 Q694.028 380.95 689.792 385.273 Z" fill="#000000" fill-rule="evenodd" fill-opacity="1" /><path clip-path="url(#clip840)" d="M 0 0 M710.649 457.371 L716.378 457.371 L716.378 437.597 L710.146 438.847 L710.146 435.652 L716.344 434.402 L719.85 434.402 L719.85 457.371 L725.58 457.371 L725.58 460.322 L710.649 460.322 L710.649 457.371 Z" fill="#000000" fill-rule="evenodd" fill-opacity="1" /><path clip-path="url(#clip840)" d="M 0 0 M739.017 437.458 L730.163 451.295 L739.017 451.295 L739.017 437.458 M738.097 434.402 L742.507 434.402 L742.507 451.295 L746.205 451.295 L746.205 454.211 L742.507 454.211 L742.507 460.322 L739.017 460.322 L739.017 454.211 L727.316 454.211 L727.316 450.826 L738.097 434.402 Z" fill="#000000" fill-rule="evenodd" fill-opacity="1" /><path clip-path="url(#clip840)" d="M 0 0 M753.259 529.469 L758.989 529.469 L758.989 509.695 L752.756 510.945 L752.756 507.751 L758.954 506.501 L762.461 506.501 L762.461 529.469 L768.19 529.469 L768.19 532.421 L753.259 532.421 L753.259 529.469 Z" fill="#000000" fill-rule="evenodd" fill-opacity="1" /><path clip-path="url(#clip840)" d="M 0 0 M772.027 506.501 L785.794 506.501 L785.794 509.452 L775.238 509.452 L775.238 515.806 Q776.002 515.546 776.766 515.424 Q777.53 515.285 778.294 515.285 Q782.634 515.285 785.169 517.664 Q787.704 520.042 787.704 524.105 Q787.704 528.289 785.099 530.615 Q782.495 532.924 777.756 532.924 Q776.124 532.924 774.422 532.646 Q772.738 532.369 770.933 531.813 L770.933 528.289 Q772.495 529.139 774.162 529.556 Q775.829 529.973 777.686 529.973 Q780.69 529.973 782.443 528.393 Q784.197 526.813 784.197 524.105 Q784.197 521.396 782.443 519.817 Q780.69 518.237 777.686 518.237 Q776.28 518.237 774.874 518.549 Q773.485 518.862 772.027 519.521 L772.027 506.501 Z" fill="#000000" fill-rule="evenodd" fill-opacity="1" /><circle clip-path="url(#clip842)" cx="497.094" cy="107.607" r="14" fill="#0000ff" fill-rule="evenodd" fill-opacity="1" stroke="none"/>
<circle clip-path="url(#clip842)" cx="624.925" cy="179.705" r="14" fill="#0000ff" fill-rule="evenodd" fill-opacity="1" stroke="none"/>
<circle clip-path="url(#clip842)" cx="539.705" cy="179.705" r="14" fill="#0000ff" fill-rule="evenodd" fill-opacity="1" stroke="none"/>
<circle clip-path="url(#clip842)" cx="582.315" cy="251.803" r="14" fill="#0000ff" fill-rule="evenodd" fill-opacity="1" stroke="none"/>
<circle clip-path="url(#clip842)" cx="156.213" cy="107.607" r="14" fill="#0000ff" fill-rule="evenodd" fill-opacity="1" stroke="none"/>
<circle clip-path="url(#clip842)" cx="284.043" cy="179.705" r="14" fill="#0000ff" fill-rule="evenodd" fill-opacity="1" stroke="none"/>
<circle clip-path="url(#clip842)" cx="198.823" cy="179.705" r="14" fill="#0000ff" fill-rule="evenodd" fill-opacity="1" stroke="none"/>
<circle clip-path="url(#clip842)" cx="241.433" cy="251.803" r="14" fill="#0000ff" fill-rule="evenodd" fill-opacity="1" stroke="none"/>
<circle clip-path="url(#clip842)" cx="454.484" cy="179.705" r="14" fill="#0000ff" fill-rule="evenodd" fill-opacity="1" stroke="none"/>
<circle clip-path="url(#clip842)" cx="369.264" cy="179.705" r="14" fill="#0000ff" fill-rule="evenodd" fill-opacity="1" stroke="none"/>
<circle clip-path="url(#clip842)" cx="411.874" cy="251.803" r="14" fill="#0000ff" fill-rule="evenodd" fill-opacity="1" stroke="none"/>
<circle clip-path="url(#clip842)" cx="539.705" cy="323.902" r="14" fill="#0000ff" fill-rule="evenodd" fill-opacity="1" stroke="none"/>
<circle clip-path="url(#clip842)" cx="454.484" cy="323.902" r="14" fill="#0000ff" fill-rule="evenodd" fill-opacity="1" stroke="none"/>
<circle clip-path="url(#clip842)" cx="497.094" cy="396" r="14" fill="#0000ff" fill-rule="evenodd" fill-opacity="1" stroke="none"/>
<circle clip-path="url(#clip842)" cx="667.535" cy="107.607" r="14" fill="#0000ff" fill-rule="evenodd" fill-opacity="1" stroke="none"/>
<circle clip-path="url(#clip842)" cx="710.146" cy="179.705" r="14" fill="#0000ff" fill-rule="evenodd" fill-opacity="1" stroke="none"/>
<circle clip-path="url(#clip842)" cx="752.756" cy="251.803" r="14" fill="#0000ff" fill-rule="evenodd" fill-opacity="1" stroke="none"/>
<circle clip-path="url(#clip842)" cx="326.654" cy="107.607" r="14" fill="#0000ff" fill-rule="evenodd" fill-opacity="1" stroke="none"/>
<path clip-path="url(#clip840)" d="M 0 0 M506.348 85.4732 Q503.987 85.4732 502.598 87.0877 Q501.226 88.7023 501.226 91.5148 Q501.226 94.3099 502.598 95.9419 Q503.987 97.5564 506.348 97.5564 Q508.709 97.5564 510.081 95.9419 Q511.469 94.3099 511.469 91.5148 Q511.469 88.7023 510.081 87.0877 Q508.709 85.4732 506.348 85.4732 M513.31 74.4836 L513.31 77.6781 Q511.99 77.0531 510.636 76.7232 Q509.299 76.3933 507.98 76.3933 Q504.508 76.3933 502.667 78.7371 Q500.844 81.0808 500.584 85.8204 Q501.608 84.31 503.153 83.5114 Q504.699 82.6954 506.556 82.6954 Q510.462 82.6954 512.719 85.0739 Q514.994 87.435 514.994 91.5148 Q514.994 95.5078 512.633 97.921 Q510.272 100.334 506.348 100.334 Q501.851 100.334 499.473 96.8967 Q497.094 93.4419 497.094 86.8968 Q497.094 80.751 500.011 77.1051 Q502.928 73.442 507.841 73.442 Q509.16 73.442 510.497 73.7024 Q511.851 73.9628 513.31 74.4836 Z" fill="#000000" fill-rule="evenodd" fill-opacity="1" /><path clip-path="url(#clip840)" d="M 0 0 M624.925 146.009 L641.592 146.009 L641.592 147.502 L632.182 171.929 L628.519 171.929 L637.373 148.96 L624.925 148.96 L624.925 146.009 Z" fill="#000000" fill-rule="evenodd" fill-opacity="1" /><path clip-path="url(#clip840)" d="M 0 0 M548.594 159.62 Q546.094 159.62 544.653 160.957 Q543.229 162.294 543.229 164.637 Q543.229 166.981 544.653 168.318 Q546.094 169.655 548.594 169.655 Q551.094 169.655 552.535 168.318 Q553.975 166.964 553.975 164.637 Q553.975 162.294 552.535 160.957 Q551.111 159.62 548.594 159.62 M545.087 158.127 Q542.83 157.571 541.562 156.026 Q540.312 154.481 540.312 152.259 Q540.312 149.151 542.517 147.346 Q544.739 145.54 548.594 145.54 Q552.465 145.54 554.67 147.346 Q556.875 149.151 556.875 152.259 Q556.875 154.481 555.607 156.026 Q554.357 157.571 552.118 158.127 Q554.653 158.717 556.059 160.436 Q557.482 162.155 557.482 164.637 Q557.482 168.405 555.173 170.419 Q552.882 172.433 548.594 172.433 Q544.305 172.433 541.996 170.419 Q539.705 168.405 539.705 164.637 Q539.705 162.155 541.128 160.436 Q542.552 158.717 545.087 158.127 M543.802 152.589 Q543.802 154.603 545.052 155.731 Q546.319 156.86 548.594 156.86 Q550.85 156.86 552.118 155.731 Q553.403 154.603 553.403 152.589 Q553.403 150.575 552.118 149.447 Q550.85 148.318 548.594 148.318 Q546.319 148.318 545.052 149.447 Q543.802 150.575 543.802 152.589 Z" fill="#000000" fill-rule="evenodd" fill-opacity="1" /><path clip-path="url(#clip840)" d="M 0 0 M583.982 243.489 L583.982 240.295 Q585.301 240.92 586.655 241.25 Q588.009 241.579 589.311 241.579 Q592.784 241.579 594.607 239.253 Q596.447 236.909 596.707 232.152 Q595.7 233.645 594.155 234.444 Q592.61 235.243 590.735 235.243 Q586.846 235.243 584.572 232.899 Q582.315 230.538 582.315 226.458 Q582.315 222.465 584.676 220.052 Q587.037 217.639 590.961 217.639 Q595.457 217.639 597.818 221.093 Q600.197 224.531 600.197 231.093 Q600.197 237.222 597.28 240.885 Q594.381 244.531 589.468 244.531 Q588.148 244.531 586.794 244.27 Q585.44 244.01 583.982 243.489 M590.961 232.5 Q593.322 232.5 594.693 230.885 Q596.082 229.27 596.082 226.458 Q596.082 223.663 594.693 222.048 Q593.322 220.416 590.961 220.416 Q588.6 220.416 587.211 222.048 Q585.839 223.663 585.839 226.458 Q585.839 229.27 587.211 230.885 Q588.6 232.5 590.961 232.5 Z" fill="#000000" fill-rule="evenodd" fill-opacity="1" /><path clip-path="url(#clip840)" d="M 0 0 M156.716 96.8793 L162.445 96.8793 L162.445 77.1051 L156.213 78.3551 L156.213 75.1607 L162.41 73.9107 L165.917 73.9107 L165.917 96.8793 L171.647 96.8793 L171.647 99.8307 L156.716 99.8307 L156.716 96.8793 Z" fill="#000000" fill-rule="evenodd" fill-opacity="1" /><path clip-path="url(#clip840)" d="M 0 0 M178.469 96.8793 L190.709 96.8793 L190.709 99.8307 L174.251 99.8307 L174.251 96.8793 Q176.247 94.8134 179.685 91.3412 Q183.14 87.8516 184.025 86.8447 Q185.709 84.9523 186.369 83.6503 Q187.046 82.3308 187.046 81.0635 Q187.046 78.9975 185.587 77.6954 Q184.146 76.3933 181.82 76.3933 Q180.171 76.3933 178.331 76.9663 Q176.508 77.5392 174.424 78.7024 L174.424 75.1607 Q176.542 74.31 178.383 73.876 Q180.223 73.442 181.751 73.442 Q185.778 73.442 188.174 75.4559 Q190.57 77.4697 190.57 80.8378 Q190.57 82.435 189.962 83.8759 Q189.372 85.2995 187.792 87.244 Q187.358 87.7475 185.032 90.1606 Q182.706 92.5565 178.469 96.8793 Z" fill="#000000" fill-rule="evenodd" fill-opacity="1" /><path clip-path="url(#clip840)" d="M 0 0 M284.547 168.978 L290.276 168.978 L290.276 149.203 L284.043 150.453 L284.043 147.259 L290.241 146.009 L293.748 146.009 L293.748 168.978 L299.477 168.978 L299.477 171.929 L284.547 171.929 L284.547 168.978 Z" fill="#000000" fill-rule="evenodd" fill-opacity="1" /><path clip-path="url(#clip840)" d="M 0 0 M313.904 157.953 Q316.422 158.492 317.828 160.193 Q319.251 161.894 319.251 164.394 Q319.251 168.231 316.613 170.332 Q313.974 172.433 309.113 172.433 Q307.481 172.433 305.745 172.103 Q304.026 171.79 302.186 171.148 L302.186 167.762 Q303.644 168.613 305.38 169.047 Q307.116 169.481 309.008 169.481 Q312.307 169.481 314.026 168.179 Q315.762 166.877 315.762 164.394 Q315.762 162.103 314.147 160.818 Q312.55 159.516 309.686 159.516 L306.665 159.516 L306.665 156.634 L309.824 156.634 Q312.411 156.634 313.783 155.61 Q315.154 154.568 315.154 152.624 Q315.154 150.627 313.731 149.568 Q312.324 148.492 309.686 148.492 Q308.245 148.492 306.595 148.804 Q304.946 149.117 302.967 149.776 L302.967 146.651 Q304.963 146.096 306.699 145.818 Q308.453 145.54 309.998 145.54 Q313.991 145.54 316.317 147.363 Q318.644 149.169 318.644 152.259 Q318.644 154.412 317.411 155.905 Q316.179 157.381 313.904 157.953 Z" fill="#000000" fill-rule="evenodd" fill-opacity="1" /><path clip-path="url(#clip840)" d="M 0 0 M199.326 168.978 L205.055 168.978 L205.055 149.203 L198.823 150.453 L198.823 147.259 L205.021 146.009 L208.528 146.009 L208.528 168.978 L214.257 168.978 L214.257 171.929 L199.326 171.929 L199.326 168.978 Z" fill="#000000" fill-rule="evenodd" fill-opacity="1" /><path clip-path="url(#clip840)" d="M 0 0 M227.694 149.065 L218.84 162.901 L227.694 162.901 L227.694 149.065 M226.774 146.009 L231.184 146.009 L231.184 162.901 L234.882 162.901 L234.882 165.818 L231.184 165.818 L231.184 171.929 L227.694 171.929 L227.694 165.818 L215.993 165.818 L215.993 162.433 L226.774 146.009 Z" fill="#000000" fill-rule="evenodd" fill-opacity="1" /><path clip-path="url(#clip840)" d="M 0 0 M241.937 241.076 L247.666 241.076 L247.666 221.302 L241.433 222.552 L241.433 219.357 L247.631 218.107 L251.138 218.107 L251.138 241.076 L256.867 241.076 L256.867 244.027 L241.937 244.027 L241.937 241.076 Z" fill="#000000" fill-rule="evenodd" fill-opacity="1" /><path clip-path="url(#clip840)" d="M 0 0 M260.704 218.107 L274.471 218.107 L274.471 221.059 L263.916 221.059 L263.916 227.413 Q264.679 227.152 265.443 227.031 Q266.207 226.892 266.971 226.892 Q271.311 226.892 273.846 229.27 Q276.381 231.649 276.381 235.711 Q276.381 239.895 273.777 242.222 Q271.172 244.531 266.433 244.531 Q264.801 244.531 263.1 244.253 Q261.416 243.975 259.61 243.42 L259.61 239.895 Q261.173 240.746 262.839 241.163 Q264.506 241.579 266.363 241.579 Q269.367 241.579 271.12 240 Q272.874 238.42 272.874 235.711 Q272.874 233.003 271.12 231.423 Q269.367 229.843 266.363 229.843 Q264.957 229.843 263.551 230.156 Q262.162 230.468 260.704 231.128 L260.704 218.107 Z" fill="#000000" fill-rule="evenodd" fill-opacity="1" /><path clip-path="url(#clip840)" d="M 0 0 M454.988 168.978 L460.717 168.978 L460.717 149.203 L454.484 150.453 L454.484 147.259 L460.682 146.009 L464.189 146.009 L464.189 168.978 L469.918 168.978 L469.918 171.929 L454.988 171.929 L454.988 168.978 Z" fill="#000000" fill-rule="evenodd" fill-opacity="1" /><path clip-path="url(#clip840)" d="M 0 0 M473.824 171.391 L473.824 168.196 Q475.144 168.821 476.498 169.151 Q477.852 169.481 479.154 169.481 Q482.626 169.481 484.449 167.155 Q486.29 164.811 486.55 160.054 Q485.543 161.547 483.998 162.346 Q482.453 163.144 480.578 163.144 Q476.689 163.144 474.415 160.801 Q472.158 158.44 472.158 154.36 Q472.158 150.367 474.519 147.953 Q476.88 145.54 480.804 145.54 Q485.3 145.54 487.661 148.995 Q490.04 152.433 490.04 158.995 Q490.04 165.124 487.123 168.787 Q484.224 172.433 479.311 172.433 Q477.991 172.433 476.637 172.172 Q475.283 171.912 473.824 171.391 M480.804 160.401 Q483.165 160.401 484.536 158.787 Q485.925 157.172 485.925 154.36 Q485.925 151.565 484.536 149.95 Q483.165 148.318 480.804 148.318 Q478.442 148.318 477.054 149.95 Q475.682 151.565 475.682 154.36 Q475.682 157.172 477.054 158.787 Q478.442 160.401 480.804 160.401 Z" fill="#000000" fill-rule="evenodd" fill-opacity="1" /><path clip-path="url(#clip840)" d="M 0 0 M373.483 168.978 L385.722 168.978 L385.722 171.929 L369.264 171.929 L369.264 168.978 Q371.26 166.912 374.698 163.44 Q378.153 159.95 379.038 158.943 Q380.722 157.051 381.382 155.749 Q382.059 154.429 382.059 153.162 Q382.059 151.096 380.601 149.794 Q379.16 148.492 376.833 148.492 Q375.184 148.492 373.344 149.065 Q371.521 149.637 369.437 150.801 L369.437 147.259 Q371.555 146.408 373.396 145.974 Q375.236 145.54 376.764 145.54 Q380.791 145.54 383.187 147.554 Q385.583 149.568 385.583 152.936 Q385.583 154.533 384.976 155.974 Q384.385 157.398 382.805 159.342 Q382.371 159.846 380.045 162.259 Q377.719 164.655 373.483 168.978 Z" fill="#000000" fill-rule="evenodd" fill-opacity="1" /><path clip-path="url(#clip840)" d="M 0 0 M397.024 148.318 Q394.316 148.318 392.944 150.992 Q391.59 153.648 391.59 158.995 Q391.59 164.325 392.944 166.999 Q394.316 169.655 397.024 169.655 Q399.75 169.655 401.104 166.999 Q402.475 164.325 402.475 158.995 Q402.475 153.648 401.104 150.992 Q399.75 148.318 397.024 148.318 M397.024 145.54 Q401.382 145.54 403.673 148.995 Q405.982 152.433 405.982 158.995 Q405.982 165.54 403.673 168.995 Q401.382 172.433 397.024 172.433 Q392.666 172.433 390.357 168.995 Q388.066 165.54 388.066 158.995 Q388.066 152.433 390.357 148.995 Q392.666 145.54 397.024 145.54 Z" fill="#000000" fill-rule="evenodd" fill-opacity="1" /><path clip-path="url(#clip840)" d="M 0 0 M416.093 241.076 L428.332 241.076 L428.332 244.027 L411.874 244.027 L411.874 241.076 Q413.871 239.01 417.308 235.538 Q420.763 232.048 421.648 231.041 Q423.332 229.149 423.992 227.847 Q424.669 226.527 424.669 225.26 Q424.669 223.194 423.211 221.892 Q421.77 220.59 419.443 220.59 Q417.794 220.59 415.954 221.163 Q414.131 221.736 412.048 222.899 L412.048 219.357 Q414.166 218.507 416.006 218.073 Q417.846 217.639 419.374 217.639 Q423.402 217.639 425.798 219.652 Q428.193 221.666 428.193 225.034 Q428.193 226.632 427.586 228.073 Q426.995 229.496 425.416 231.441 Q424.982 231.944 422.655 234.357 Q420.329 236.753 416.093 241.076 Z" fill="#000000" fill-rule="evenodd" fill-opacity="1" /><path clip-path="url(#clip840)" d="M 0 0 M432.742 241.076 L438.471 241.076 L438.471 221.302 L432.238 222.552 L432.238 219.357 L438.436 218.107 L441.943 218.107 L441.943 241.076 L447.672 241.076 L447.672 244.027 L432.742 244.027 L432.742 241.076 Z" fill="#000000" fill-rule="evenodd" fill-opacity="1" /><path clip-path="url(#clip840)" d="M 0 0 M543.923 313.174 L556.163 313.174 L556.163 316.126 L539.705 316.126 L539.705 313.174 Q541.701 311.108 545.139 307.636 Q548.594 304.147 549.479 303.14 Q551.163 301.247 551.823 299.945 Q552.5 298.626 552.5 297.358 Q552.5 295.292 551.041 293.99 Q549.601 292.688 547.274 292.688 Q545.625 292.688 543.785 293.261 Q541.962 293.834 539.878 294.997 L539.878 291.456 Q541.996 290.605 543.837 290.171 Q545.677 289.737 547.205 289.737 Q551.232 289.737 553.628 291.751 Q556.024 293.765 556.024 297.133 Q556.024 298.73 555.416 300.171 Q554.826 301.595 553.246 303.539 Q552.812 304.042 550.486 306.456 Q548.16 308.851 543.923 313.174 Z" fill="#000000" fill-rule="evenodd" fill-opacity="1" /><path clip-path="url(#clip840)" d="M 0 0 M562.986 313.174 L575.225 313.174 L575.225 316.126 L558.767 316.126 L558.767 313.174 Q560.764 311.108 564.201 307.636 Q567.656 304.147 568.541 303.14 Q570.225 301.247 570.885 299.945 Q571.562 298.626 571.562 297.358 Q571.562 295.292 570.104 293.99 Q568.663 292.688 566.337 292.688 Q564.687 292.688 562.847 293.261 Q561.024 293.834 558.941 294.997 L558.941 291.456 Q561.059 290.605 562.899 290.171 Q564.739 289.737 566.267 289.737 Q570.295 289.737 572.691 291.751 Q575.086 293.765 575.086 297.133 Q575.086 298.73 574.479 300.171 Q573.889 301.595 572.309 303.539 Q571.875 304.042 569.548 306.456 Q567.222 308.851 562.986 313.174 Z" fill="#000000" fill-rule="evenodd" fill-opacity="1" /><path clip-path="url(#clip840)" d="M 0 0 M458.703 313.174 L470.942 313.174 L470.942 316.126 L454.484 316.126 L454.484 313.174 Q456.481 311.108 459.918 307.636 Q463.373 304.147 464.259 303.14 Q465.943 301.247 466.602 299.945 Q467.279 298.626 467.279 297.358 Q467.279 295.292 465.821 293.99 Q464.38 292.688 462.054 292.688 Q460.404 292.688 458.564 293.261 Q456.741 293.834 454.658 294.997 L454.658 291.456 Q456.776 290.605 458.616 290.171 Q460.456 289.737 461.984 289.737 Q466.012 289.737 468.408 291.751 Q470.804 293.765 470.804 297.133 Q470.804 298.73 470.196 300.171 Q469.606 301.595 468.026 303.539 Q467.592 304.042 465.265 306.456 Q462.939 308.851 458.703 313.174 Z" fill="#000000" fill-rule="evenodd" fill-opacity="1" /><path clip-path="url(#clip840)" d="M 0 0 M485.37 302.15 Q487.887 302.688 489.293 304.39 Q490.717 306.091 490.717 308.591 Q490.717 312.428 488.078 314.528 Q485.439 316.629 480.578 316.629 Q478.946 316.629 477.21 316.299 Q475.491 315.987 473.651 315.344 L473.651 311.959 Q475.109 312.81 476.845 313.244 Q478.581 313.678 480.474 313.678 Q483.772 313.678 485.491 312.376 Q487.227 311.074 487.227 308.591 Q487.227 306.299 485.613 305.015 Q484.015 303.713 481.151 303.713 L478.13 303.713 L478.13 300.831 L481.29 300.831 Q483.876 300.831 485.248 299.806 Q486.619 298.765 486.619 296.82 Q486.619 294.824 485.196 293.765 Q483.79 292.688 481.151 292.688 Q479.71 292.688 478.061 293.001 Q476.411 293.313 474.432 293.973 L474.432 290.848 Q476.429 290.292 478.165 290.015 Q479.918 289.737 481.463 289.737 Q485.456 289.737 487.783 291.56 Q490.109 293.365 490.109 296.456 Q490.109 298.608 488.876 300.101 Q487.644 301.577 485.37 302.15 Z" fill="#000000" fill-rule="evenodd" fill-opacity="1" /><path clip-path="url(#clip840)" d="M 0 0 M501.313 385.273 L513.553 385.273 L513.553 388.224 L497.094 388.224 L497.094 385.273 Q499.091 383.207 502.528 379.734 Q505.983 376.245 506.869 375.238 Q508.553 373.346 509.212 372.044 Q509.89 370.724 509.89 369.457 Q509.89 367.391 508.431 366.089 Q506.99 364.787 504.664 364.787 Q503.015 364.787 501.174 365.36 Q499.351 365.932 497.268 367.096 L497.268 363.554 Q499.386 362.703 501.226 362.269 Q503.067 361.835 504.594 361.835 Q508.622 361.835 511.018 363.849 Q513.414 365.863 513.414 369.231 Q513.414 370.828 512.806 372.269 Q512.216 373.693 510.636 375.637 Q510.202 376.141 507.876 378.554 Q505.549 380.95 501.313 385.273 Z" fill="#000000" fill-rule="evenodd" fill-opacity="1" /><path clip-path="url(#clip840)" d="M 0 0 M526.99 365.36 L518.136 379.196 L526.99 379.196 L526.99 365.36 M526.07 362.304 L530.48 362.304 L530.48 379.196 L534.178 379.196 L534.178 382.113 L530.48 382.113 L530.48 388.224 L526.99 388.224 L526.99 382.113 L515.289 382.113 L515.289 378.728 L526.07 362.304 Z" fill="#000000" fill-rule="evenodd" fill-opacity="1" /><path clip-path="url(#clip840)" d="M 0 0 M679.254 85.8551 Q681.771 86.3933 683.178 88.0947 Q684.601 89.7961 684.601 92.296 Q684.601 96.1328 681.962 98.2335 Q679.324 100.334 674.462 100.334 Q672.831 100.334 671.094 100.004 Q669.376 99.6918 667.535 99.0495 L667.535 95.6641 Q668.994 96.5148 670.73 96.9488 Q672.466 97.3828 674.358 97.3828 Q677.657 97.3828 679.376 96.0807 Q681.112 94.7787 681.112 92.296 Q681.112 90.0044 679.497 88.7197 Q677.9 87.4176 675.035 87.4176 L672.015 87.4176 L672.015 84.5357 L675.174 84.5357 Q677.761 84.5357 679.133 83.5114 Q680.504 82.4697 680.504 80.5253 Q680.504 78.5288 679.081 77.4697 Q677.674 76.3933 675.035 76.3933 Q673.594 76.3933 671.945 76.7058 Q670.296 77.0183 668.317 77.6781 L668.317 74.5531 Q670.313 73.9975 672.049 73.7198 Q673.803 73.442 675.348 73.442 Q679.341 73.442 681.667 75.2649 Q683.994 77.0704 683.994 80.1607 Q683.994 82.3135 682.761 83.8065 Q681.528 85.2822 679.254 85.8551 Z" fill="#000000" fill-rule="evenodd" fill-opacity="1" /><path clip-path="url(#clip840)" d="M 0 0 M695.903 76.2197 Q693.195 76.2197 691.823 78.8933 Q690.469 81.5496 690.469 86.8968 Q690.469 92.2266 691.823 94.9002 Q693.195 97.5564 695.903 97.5564 Q698.629 97.5564 699.983 94.9002 Q701.355 92.2266 701.355 86.8968 Q701.355 81.5496 699.983 78.8933 Q698.629 76.2197 695.903 76.2197 M695.903 73.442 Q700.261 73.442 702.553 76.8968 Q704.862 80.3343 704.862 86.8968 Q704.862 93.4419 702.553 96.8967 Q700.261 100.334 695.903 100.334 Q691.546 100.334 689.237 96.8967 Q686.945 93.4419 686.945 86.8968 Q686.945 80.3343 689.237 76.8968 Q691.546 73.442 695.903 73.442 Z" fill="#000000" fill-rule="evenodd" fill-opacity="1" /><path clip-path="url(#clip840)" d="M 0 0 M721.864 157.953 Q724.382 158.492 725.788 160.193 Q727.212 161.894 727.212 164.394 Q727.212 168.231 724.573 170.332 Q721.934 172.433 717.073 172.433 Q715.441 172.433 713.705 172.103 Q711.986 171.79 710.146 171.148 L710.146 167.762 Q711.604 168.613 713.34 169.047 Q715.076 169.481 716.969 169.481 Q720.267 169.481 721.986 168.179 Q723.722 166.877 723.722 164.394 Q723.722 162.103 722.107 160.818 Q720.51 159.516 717.646 159.516 L714.625 159.516 L714.625 156.634 L717.785 156.634 Q720.371 156.634 721.743 155.61 Q723.114 154.568 723.114 152.624 Q723.114 150.627 721.691 149.568 Q720.285 148.492 717.646 148.492 Q716.205 148.492 714.555 148.804 Q712.906 149.117 710.927 149.776 L710.927 146.651 Q712.923 146.096 714.66 145.818 Q716.413 145.54 717.958 145.54 Q721.951 145.54 724.278 147.363 Q726.604 149.169 726.604 152.259 Q726.604 154.412 725.371 155.905 Q724.139 157.381 721.864 157.953 Z" fill="#000000" fill-rule="evenodd" fill-opacity="1" /><path clip-path="url(#clip840)" d="M 0 0 M734.034 168.978 L746.274 168.978 L746.274 171.929 L729.816 171.929 L729.816 168.978 Q731.812 166.912 735.25 163.44 Q738.705 159.95 739.59 158.943 Q741.274 157.051 741.934 155.749 Q742.611 154.429 742.611 153.162 Q742.611 151.096 741.152 149.794 Q739.711 148.492 737.385 148.492 Q735.736 148.492 733.896 149.065 Q732.073 149.637 729.989 150.801 L729.989 147.259 Q732.107 146.408 733.948 145.974 Q735.788 145.54 737.316 145.54 Q741.343 145.54 743.739 147.554 Q746.135 149.568 746.135 152.936 Q746.135 154.533 745.527 155.974 Q744.937 157.398 743.357 159.342 Q742.923 159.846 740.597 162.259 Q738.271 164.655 734.034 168.978 Z" fill="#000000" fill-rule="evenodd" fill-opacity="1" /><path clip-path="url(#clip840)" d="M 0 0 M764.475 230.052 Q766.992 230.59 768.398 232.291 Q769.822 233.993 769.822 236.493 Q769.822 240.329 767.183 242.43 Q764.544 244.531 759.683 244.531 Q758.051 244.531 756.315 244.201 Q754.596 243.888 752.756 243.246 L752.756 239.861 Q754.214 240.711 755.95 241.145 Q757.686 241.579 759.579 241.579 Q762.877 241.579 764.596 240.277 Q766.332 238.975 766.332 236.493 Q766.332 234.201 764.718 232.916 Q763.12 231.614 760.256 231.614 L757.235 231.614 L757.235 228.732 L760.395 228.732 Q762.982 228.732 764.353 227.708 Q765.725 226.666 765.725 224.722 Q765.725 222.725 764.301 221.666 Q762.895 220.59 760.256 220.59 Q758.815 220.59 757.166 220.902 Q755.516 221.215 753.537 221.875 L753.537 218.75 Q755.534 218.194 757.27 217.916 Q759.023 217.639 760.568 217.639 Q764.561 217.639 766.888 219.462 Q769.214 221.267 769.214 224.357 Q769.214 226.51 767.982 228.003 Q766.749 229.479 764.475 230.052 Z" fill="#000000" fill-rule="evenodd" fill-opacity="1" /><path clip-path="url(#clip840)" d="M 0 0 M784.249 230.052 Q786.766 230.59 788.172 232.291 Q789.596 233.993 789.596 236.493 Q789.596 240.329 786.957 242.43 Q784.318 244.531 779.457 244.531 Q777.825 244.531 776.089 244.201 Q774.37 243.888 772.53 243.246 L772.53 239.861 Q773.988 240.711 775.725 241.145 Q777.461 241.579 779.353 241.579 Q782.652 241.579 784.37 240.277 Q786.106 238.975 786.106 236.493 Q786.106 234.201 784.492 232.916 Q782.895 231.614 780.03 231.614 L777.009 231.614 L777.009 228.732 L780.169 228.732 Q782.756 228.732 784.127 227.708 Q785.499 226.666 785.499 224.722 Q785.499 222.725 784.075 221.666 Q782.669 220.59 780.03 220.59 Q778.589 220.59 776.94 220.902 Q775.291 221.215 773.311 221.875 L773.311 218.75 Q775.308 218.194 777.044 217.916 Q778.797 217.639 780.343 217.639 Q784.336 217.639 786.662 219.462 Q788.988 221.267 788.988 224.357 Q788.988 226.51 787.756 228.003 Q786.523 229.479 784.249 230.052 Z" fill="#000000" fill-rule="evenodd" fill-opacity="1" /><path clip-path="url(#clip840)" d="M 0 0 M338.372 85.8551 Q340.89 86.3933 342.296 88.0947 Q343.719 89.7961 343.719 92.296 Q343.719 96.1328 341.081 98.2335 Q338.442 100.334 333.581 100.334 Q331.949 100.334 330.213 100.004 Q328.494 99.6918 326.654 99.0495 L326.654 95.6641 Q328.112 96.5148 329.848 96.9488 Q331.584 97.3828 333.476 97.3828 Q336.775 97.3828 338.494 96.0807 Q340.23 94.7787 340.23 92.296 Q340.23 90.0044 338.615 88.7197 Q337.018 87.4176 334.154 87.4176 L331.133 87.4176 L331.133 84.5357 L334.292 84.5357 Q336.879 84.5357 338.251 83.5114 Q339.622 82.4697 339.622 80.5253 Q339.622 78.5288 338.199 77.4697 Q336.792 76.3933 334.154 76.3933 Q332.713 76.3933 331.063 76.7058 Q329.414 77.0183 327.435 77.6781 L327.435 74.5531 Q329.431 73.9975 331.167 73.7198 Q332.921 73.442 334.466 73.442 Q338.459 73.442 340.785 75.2649 Q343.112 77.0704 343.112 80.1607 Q343.112 82.3135 341.879 83.8065 Q340.647 85.2822 338.372 85.8551 Z" fill="#000000" fill-rule="evenodd" fill-opacity="1" /><path clip-path="url(#clip840)" d="M 0 0 M355.455 85.4732 Q353.094 85.4732 351.705 87.0877 Q350.334 88.7023 350.334 91.5148 Q350.334 94.3099 351.705 95.9419 Q353.094 97.5564 355.455 97.5564 Q357.817 97.5564 359.188 95.9419 Q360.577 94.3099 360.577 91.5148 Q360.577 88.7023 359.188 87.0877 Q357.817 85.4732 355.455 85.4732 M362.417 74.4836 L362.417 77.6781 Q361.098 77.0531 359.744 76.7232 Q358.407 76.3933 357.087 76.3933 Q353.615 76.3933 351.775 78.7371 Q349.952 81.0808 349.692 85.8204 Q350.716 84.31 352.261 83.5114 Q353.806 82.6954 355.664 82.6954 Q359.57 82.6954 361.827 85.0739 Q364.101 87.435 364.101 91.5148 Q364.101 95.5078 361.74 97.921 Q359.379 100.334 355.455 100.334 Q350.959 100.334 348.581 96.8967 Q346.202 93.4419 346.202 86.8968 Q346.202 80.751 349.119 77.1051 Q352.035 73.442 356.949 73.442 Q358.268 73.442 359.605 73.7024 Q360.959 73.9628 362.417 74.4836 Z" fill="#000000" fill-rule="evenodd" fill-opacity="1" /></svg>
