<?xml version="1.0" encoding="utf-8"?>
<svg xmlns="http://www.w3.org/2000/svg" xmlns:xlink="http://www.w3.org/1999/xlink" width="200" height="200" viewBox="0 0 800 800">
<defs>
  <clipPath id="clip590">
    <rect x="0" y="0" width="800" height="800"/>
  </clipPath>
</defs>
<path clip-path="url(#clip590)" d="
M0 800 L800 800 L800 0 L0 0  Z
  " fill="#ffffff" fill-rule="evenodd" fill-opacity="1"/>
<defs>
  <clipPath id="clip591">
    <rect x="160" y="80" width="561" height="561"/>
  </clipPath>
</defs>
<path clip-path="url(#clip590)" d="
M70.9921 729.008 L752.756 729.008 L752.756 62.9921 L70.9921 62.9921  Z
  " fill="#ffffff" fill-rule="evenodd" fill-opacity="1"/>
<defs>
  <clipPath id="clip592">
    <rect x="70" y="62" width="683" height="667"/>
  </clipPath>
</defs>
<polyline clip-path="url(#clip590)" style="stroke:#000000; stroke-width:4; stroke-opacity:1; fill:none" points="
  70.9921,729.008 752.756,729.008 
  "/>
<polyline clip-path="url(#clip590)" style="stroke:#000000; stroke-width:4; stroke-opacity:1; fill:none" points="
  70.9921,729.008 70.9921,721.016 
  "/>
<polyline clip-path="url(#clip590)" style="stroke:#000000; stroke-width:4; stroke-opacity:1; fill:none" points="
  241.433,729.008 241.433,721.016 
  "/>
<polyline clip-path="url(#clip590)" style="stroke:#000000; stroke-width:4; stroke-opacity:1; fill:none" points="
  411.874,729.008 411.874,721.016 
  "/>
<polyline clip-path="url(#clip590)" style="stroke:#000000; stroke-width:4; stroke-opacity:1; fill:none" points="
  582.315,729.008 582.315,721.016 
  "/>
<polyline clip-path="url(#clip590)" style="stroke:#000000; stroke-width:4; stroke-opacity:1; fill:none" points="
  752.756,729.008 752.756,721.016 
  "/>
<path clip-path="url(#clip590)" d="M 0 0 M40.9344 760.051 L70.6102 760.051 L70.6102 763.986 L40.9344 763.986 L40.9344 760.051 Z" fill="#000000" fill-rule="evenodd" fill-opacity="1" /><path clip-path="url(#clip590)" d="M 0 0 M84.7305 772.945 L101.05 772.945 L101.05 776.88 L79.1055 776.88 L79.1055 772.945 Q81.7675 770.19 86.3508 765.56 Q90.9573 760.908 92.1378 759.565 Q94.3832 757.042 95.2628 755.306 Q96.1656 753.547 96.1656 751.857 Q96.1656 749.102 94.2212 747.366 Q92.2999 745.63 89.198 745.63 Q86.999 745.63 84.5453 746.394 Q82.1148 747.158 79.337 748.709 L79.337 743.987 Q82.161 742.852 84.6147 742.274 Q87.0684 741.695 89.1055 741.695 Q94.4758 741.695 97.6702 744.38 Q100.865 747.065 100.865 751.556 Q100.865 753.686 100.054 755.607 Q99.2674 757.505 97.161 760.098 Q96.5823 760.769 93.4804 763.986 Q90.3786 767.181 84.7305 772.945 Z" fill="#000000" fill-rule="evenodd" fill-opacity="1" /><path clip-path="url(#clip590)" d="M 0 0 M211.19 760.051 L240.866 760.051 L240.866 763.986 L211.19 763.986 L211.19 760.051 Z" fill="#000000" fill-rule="evenodd" fill-opacity="1" /><path clip-path="url(#clip590)" d="M 0 0 M251.769 772.945 L259.408 772.945 L259.408 746.579 L251.097 748.246 L251.097 743.987 L259.361 742.32 L264.037 742.32 L264.037 772.945 L271.676 772.945 L271.676 776.88 L251.769 776.88 L251.769 772.945 Z" fill="#000000" fill-rule="evenodd" fill-opacity="1" /><path clip-path="url(#clip590)" d="M 0 0 M411.874 745.399 Q408.263 745.399 406.434 748.963 Q404.629 752.505 404.629 759.635 Q404.629 766.741 406.434 770.306 Q408.263 773.847 411.874 773.847 Q415.508 773.847 417.314 770.306 Q419.142 766.741 419.142 759.635 Q419.142 752.505 417.314 748.963 Q415.508 745.399 411.874 745.399 M411.874 741.695 Q417.684 741.695 420.74 746.301 Q423.818 750.885 423.818 759.635 Q423.818 768.361 420.74 772.968 Q417.684 777.551 411.874 777.551 Q406.064 777.551 402.985 772.968 Q399.93 768.361 399.93 759.635 Q399.93 750.885 402.985 746.301 Q406.064 741.695 411.874 741.695 Z" fill="#000000" fill-rule="evenodd" fill-opacity="1" /><path clip-path="url(#clip590)" d="M 0 0 M572.697 772.945 L580.336 772.945 L580.336 746.579 L572.026 748.246 L572.026 743.987 L580.29 742.32 L584.965 742.32 L584.965 772.945 L592.604 772.945 L592.604 776.88 L572.697 776.88 L572.697 772.945 Z" fill="#000000" fill-rule="evenodd" fill-opacity="1" /><path clip-path="url(#clip590)" d="M 0 0 M747.409 772.945 L763.728 772.945 L763.728 776.88 L741.784 776.88 L741.784 772.945 Q744.446 770.19 749.029 765.56 Q753.636 760.908 754.816 759.565 Q757.061 757.042 757.941 755.306 Q758.844 753.547 758.844 751.857 Q758.844 749.102 756.899 747.366 Q754.978 745.63 751.876 745.63 Q749.677 745.63 747.224 746.394 Q744.793 747.158 742.015 748.709 L742.015 743.987 Q744.839 742.852 747.293 742.274 Q749.747 741.695 751.784 741.695 Q757.154 741.695 760.348 744.38 Q763.543 747.065 763.543 751.556 Q763.543 753.686 762.733 755.607 Q761.946 757.505 759.839 760.098 Q759.261 760.769 756.159 763.986 Q753.057 767.181 747.409 772.945 Z" fill="#000000" fill-rule="evenodd" fill-opacity="1" /><polyline clip-path="url(#clip590)" style="stroke:#000000; stroke-width:4; stroke-opacity:1; fill:none" points="
  70.9921,729.008 70.9921,62.9921 
  "/>
<polyline clip-path="url(#clip590)" style="stroke:#000000; stroke-width:4; stroke-opacity:1; fill:none" points="
  70.9921,729.008 79.1733,729.008 
  "/>
<polyline clip-path="url(#clip590)" style="stroke:#000000; stroke-width:4; stroke-opacity:1; fill:none" points="
  70.9921,562.504 79.1733,562.504 
  "/>
<polyline clip-path="url(#clip590)" style="stroke:#000000; stroke-width:4; stroke-opacity:1; fill:none" points="
  70.9921,396 79.1733,396 
  "/>
<polyline clip-path="url(#clip590)" style="stroke:#000000; stroke-width:4; stroke-opacity:1; fill:none" points="
  70.9921,229.496 79.1733,229.496 
  "/>
<polyline clip-path="url(#clip590)" style="stroke:#000000; stroke-width:4; stroke-opacity:1; fill:none" points="
  70.9921,62.9921 79.1733,62.9921 
  "/>
<path clip-path="url(#clip590)" d="M 0 0 M-1.12329 729.459 L28.5525 729.459 L28.5525 733.394 L-1.12329 733.394 L-1.12329 729.459 Z" fill="#000000" fill-rule="evenodd" fill-opacity="1" /><path clip-path="url(#clip590)" d="M 0 0 M42.6728 742.353 L58.9921 742.353 L58.9921 746.288 L37.0478 746.288 L37.0478 742.353 Q39.7098 739.598 44.2931 734.968 Q48.8996 730.316 50.0801 728.973 Q52.3255 726.45 53.2051 724.714 Q54.1079 722.955 54.1079 721.265 Q54.1079 718.51 52.1635 716.774 Q50.2422 715.038 47.1403 715.038 Q44.9413 715.038 42.4876 715.802 Q40.057 716.566 37.2793 718.117 L37.2793 713.395 Q40.1033 712.26 42.557 711.682 Q45.0107 711.103 47.0477 711.103 Q52.4181 711.103 55.6125 713.788 Q58.8069 716.473 58.8069 720.964 Q58.8069 723.094 57.9968 725.015 Q57.2097 726.913 55.1033 729.506 Q54.5246 730.177 51.4227 733.394 Q48.3209 736.589 42.6728 742.353 Z" fill="#000000" fill-rule="evenodd" fill-opacity="1" /><path clip-path="url(#clip590)" d="M 0 0 M-1.49366 562.955 L28.1821 562.955 L28.1821 566.89 L-1.49366 566.89 L-1.49366 562.955 Z" fill="#000000" fill-rule="evenodd" fill-opacity="1" /><path clip-path="url(#clip590)" d="M 0 0 M39.0848 575.849 L46.7237 575.849 L46.7237 549.483 L38.4135 551.15 L38.4135 546.891 L46.6774 545.224 L51.3533 545.224 L51.3533 575.849 L58.9921 575.849 L58.9921 579.784 L39.0848 579.784 L39.0848 575.849 Z" fill="#000000" fill-rule="evenodd" fill-opacity="1" /><path clip-path="url(#clip590)" d="M 0 0 M47.0477 381.799 Q43.4367 381.799 41.608 385.363 Q39.8024 388.905 39.8024 396.035 Q39.8024 403.141 41.608 406.706 Q43.4367 410.248 47.0477 410.248 Q50.682 410.248 52.4875 406.706 Q54.3162 403.141 54.3162 396.035 Q54.3162 388.905 52.4875 385.363 Q50.682 381.799 47.0477 381.799 M47.0477 378.095 Q52.8579 378.095 55.9134 382.701 Q58.9921 387.285 58.9921 396.035 Q58.9921 404.762 55.9134 409.368 Q52.8579 413.951 47.0477 413.951 Q41.2376 413.951 38.1589 409.368 Q35.1034 404.762 35.1034 396.035 Q35.1034 387.285 38.1589 382.701 Q41.2376 378.095 47.0477 378.095 Z" fill="#000000" fill-rule="evenodd" fill-opacity="1" /><path clip-path="url(#clip590)" d="M 0 0 M39.0848 242.841 L46.7237 242.841 L46.7237 216.475 L38.4135 218.142 L38.4135 213.883 L46.6774 212.216 L51.3533 212.216 L51.3533 242.841 L58.9921 242.841 L58.9921 246.776 L39.0848 246.776 L39.0848 242.841 Z" fill="#000000" fill-rule="evenodd" fill-opacity="1" /><path clip-path="url(#clip590)" d="M 0 0 M42.6728 76.337 L58.9921 76.337 L58.9921 80.2721 L37.0478 80.2721 L37.0478 76.337 Q39.7098 73.5823 44.2931 68.9527 Q48.8996 64.3 50.0801 62.9574 Q52.3255 60.4343 53.2051 58.6982 Q54.1079 56.9389 54.1079 55.2491 Q54.1079 52.4945 52.1635 50.7584 Q50.2422 49.0223 47.1403 49.0223 Q44.9413 49.0223 42.4876 49.7862 Q40.057 50.5501 37.2793 52.101 L37.2793 47.3788 Q40.1033 46.2445 42.557 45.6658 Q45.0107 45.0871 47.0477 45.0871 Q52.4181 45.0871 55.6125 47.7723 Q58.8069 50.4575 58.8069 54.9482 Q58.8069 57.0778 57.9968 58.9991 Q57.2097 60.8972 55.1033 63.4898 Q54.5246 64.1611 51.4227 67.3787 Q48.3209 70.5731 42.6728 76.337 Z" fill="#000000" fill-rule="evenodd" fill-opacity="1" /><path clip-path="url(#clip590)" d="M 0 0 M349.583 20.523 Q351.18 17.6527 353.402 16.2869 Q355.624 14.9212 358.634 14.9212 Q362.684 14.9212 364.884 17.7684 Q367.083 20.5925 367.083 25.8239 L367.083 41.472 L362.8 41.472 L362.8 25.9628 Q362.8 22.236 361.481 20.4304 Q360.161 18.6249 357.453 18.6249 Q354.143 18.6249 352.222 20.824 Q350.3 23.023 350.3 26.8193 L350.3 41.472 L346.018 41.472 L346.018 25.9628 Q346.018 22.2128 344.698 20.4304 Q343.379 18.6249 340.624 18.6249 Q337.361 18.6249 335.439 20.8471 Q333.518 23.0462 333.518 26.8193 L333.518 41.472 L329.236 41.472 L329.236 15.5462 L333.518 15.5462 L333.518 19.574 Q334.976 17.1897 337.013 16.0555 Q339.05 14.9212 341.851 14.9212 Q344.675 14.9212 346.643 16.3564 Q348.634 17.7916 349.583 20.523 Z" fill="#000000" fill-rule="evenodd" fill-opacity="1" /><path clip-path="url(#clip590)" d="M 0 0 M375.184 5.45367 L384.999 5.45367 L384.999 8.76384 L379.444 8.76384 L379.444 44.4118 L384.999 44.4118 L384.999 47.722 L375.184 47.722 L375.184 5.45367 Z" fill="#000000" fill-rule="evenodd" fill-opacity="1" /><path clip-path="url(#clip590)" d="M 0 0 M404.675 9.99069 Q401.064 9.99069 399.235 13.5555 Q397.43 17.0971 397.43 24.2267 Q397.43 31.3332 399.235 34.898 Q401.064 38.4396 404.675 38.4396 Q408.309 38.4396 410.115 34.898 Q411.943 31.3332 411.943 24.2267 Q411.943 17.0971 410.115 13.5555 Q408.309 9.99069 404.675 9.99069 M404.675 6.287 Q410.485 6.287 413.541 10.8935 Q416.619 15.4768 416.619 24.2267 Q416.619 32.9535 413.541 37.56 Q410.485 42.1433 404.675 42.1433 Q398.865 42.1433 395.786 37.56 Q392.731 32.9535 392.731 24.2267 Q392.731 15.4768 395.786 10.8935 Q398.865 6.287 404.675 6.287 Z" fill="#000000" fill-rule="evenodd" fill-opacity="1" /><path clip-path="url(#clip590)" d="M 0 0 M425.647 37.5368 L433.286 37.5368 L433.286 11.1712 L424.976 12.8379 L424.976 8.57866 L433.24 6.912 L437.916 6.912 L437.916 37.5368 L445.554 37.5368 L445.554 41.472 L425.647 41.472 L425.647 37.5368 Z" fill="#000000" fill-rule="evenodd" fill-opacity="1" /><path clip-path="url(#clip590)" d="M 0 0 M464.999 9.99069 Q461.388 9.99069 459.559 13.5555 Q457.753 17.0971 457.753 24.2267 Q457.753 31.3332 459.559 34.898 Q461.388 38.4396 464.999 38.4396 Q468.633 38.4396 470.439 34.898 Q472.267 31.3332 472.267 24.2267 Q472.267 17.0971 470.439 13.5555 Q468.633 9.99069 464.999 9.99069 M464.999 6.287 Q470.809 6.287 473.864 10.8935 Q476.943 15.4768 476.943 24.2267 Q476.943 32.9535 473.864 37.56 Q470.809 42.1433 464.999 42.1433 Q459.189 42.1433 456.11 37.56 Q453.054 32.9535 453.054 24.2267 Q453.054 15.4768 456.11 10.8935 Q459.189 6.287 464.999 6.287 Z" fill="#000000" fill-rule="evenodd" fill-opacity="1" /><path clip-path="url(#clip590)" d="M 0 0 M494.512 5.45367 L494.512 47.722 L484.698 47.722 L484.698 44.4118 L490.23 44.4118 L490.23 8.76384 L484.698 8.76384 L484.698 5.45367 L494.512 5.45367 Z" fill="#000000" fill-rule="evenodd" fill-opacity="1" /><circle clip-path="url(#clip592)" cx="624.925" cy="612.295" r="14" fill="#0000ff" fill-rule="evenodd" fill-opacity="1" stroke="none"/>
<circle clip-path="url(#clip592)" cx="667.535" cy="684.393" r="14" fill="#0000ff" fill-rule="evenodd" fill-opacity="1" stroke="none"/>
<circle clip-path="url(#clip592)" cx="710.146" cy="612.295" r="14" fill="#0000ff" fill-rule="evenodd" fill-opacity="1" stroke="none"/>
<circle clip-path="url(#clip592)" cx="284.043" cy="612.295" r="14" fill="#0000ff" fill-rule="evenodd" fill-opacity="1" stroke="none"/>
<circle clip-path="url(#clip592)" cx="326.654" cy="684.393" r="14" fill="#0000ff" fill-rule="evenodd" fill-opacity="1" stroke="none"/>
<circle clip-path="url(#clip592)" cx="369.264" cy="612.295" r="14" fill="#0000ff" fill-rule="evenodd" fill-opacity="1" stroke="none"/>
<circle clip-path="url(#clip592)" cx="369.264" cy="468.098" r="14" fill="#0000ff" fill-rule="evenodd" fill-opacity="1" stroke="none"/>
<circle clip-path="url(#clip592)" cx="411.874" cy="540.197" r="14" fill="#0000ff" fill-rule="evenodd" fill-opacity="1" stroke="none"/>
<circle clip-path="url(#clip592)" cx="454.484" cy="468.098" r="14" fill="#0000ff" fill-rule="evenodd" fill-opacity="1" stroke="none"/>
<circle clip-path="url(#clip592)" cx="454.484" cy="612.295" r="14" fill="#0000ff" fill-rule="evenodd" fill-opacity="1" stroke="none"/>
<circle clip-path="url(#clip592)" cx="497.094" cy="684.393" r="14" fill="#0000ff" fill-rule="evenodd" fill-opacity="1" stroke="none"/>
<circle clip-path="url(#clip592)" cx="539.705" cy="612.295" r="14" fill="#0000ff" fill-rule="evenodd" fill-opacity="1" stroke="none"/>
<circle clip-path="url(#clip592)" cx="539.705" cy="468.098" r="14" fill="#0000ff" fill-rule="evenodd" fill-opacity="1" stroke="none"/>
<circle clip-path="url(#clip592)" cx="582.315" cy="540.197" r="14" fill="#0000ff" fill-rule="evenodd" fill-opacity="1" stroke="none"/>
<circle clip-path="url(#clip592)" cx="624.925" cy="468.098" r="14" fill="#0000ff" fill-rule="evenodd" fill-opacity="1" stroke="none"/>
<circle clip-path="url(#clip592)" cx="113.602" cy="612.295" r="14" fill="#0000ff" fill-rule="evenodd" fill-opacity="1" stroke="none"/>
<circle clip-path="url(#clip592)" cx="156.213" cy="684.393" r="14" fill="#0000ff" fill-rule="evenodd" fill-opacity="1" stroke="none"/>
<circle clip-path="url(#clip592)" cx="198.823" cy="612.295" r="14" fill="#0000ff" fill-rule="evenodd" fill-opacity="1" stroke="none"/>
<path clip-path="url(#clip590)" d="M 0 0 M624.925 578.599 L641.592 578.599 L641.592 580.092 L632.182 604.519 L628.519 604.519 L637.373 581.55 L624.925 581.55 L624.925 578.599 Z" fill="#000000" fill-rule="evenodd" fill-opacity="1" /><path clip-path="url(#clip590)" d="M 0 0 M676.424 664.308 Q673.924 664.308 672.483 665.645 Q671.06 666.982 671.06 669.326 Q671.06 671.669 672.483 673.006 Q673.924 674.343 676.424 674.343 Q678.924 674.343 680.365 673.006 Q681.806 671.652 681.806 669.326 Q681.806 666.982 680.365 665.645 Q678.942 664.308 676.424 664.308 M672.917 662.815 Q670.66 662.26 669.393 660.715 Q668.143 659.169 668.143 656.947 Q668.143 653.84 670.348 652.034 Q672.57 650.229 676.424 650.229 Q680.296 650.229 682.501 652.034 Q684.705 653.84 684.705 656.947 Q684.705 659.169 683.438 660.715 Q682.188 662.26 679.949 662.815 Q682.483 663.406 683.89 665.124 Q685.313 666.843 685.313 669.326 Q685.313 673.093 683.004 675.107 Q680.712 677.121 676.424 677.121 Q672.136 677.121 669.827 675.107 Q667.535 673.093 667.535 669.326 Q667.535 666.843 668.959 665.124 Q670.383 663.406 672.917 662.815 M671.633 657.277 Q671.633 659.291 672.883 660.419 Q674.15 661.548 676.424 661.548 Q678.681 661.548 679.949 660.419 Q681.233 659.291 681.233 657.277 Q681.233 655.263 679.949 654.135 Q678.681 653.006 676.424 653.006 Q674.15 653.006 672.883 654.135 Q671.633 655.263 671.633 657.277 Z" fill="#000000" fill-rule="evenodd" fill-opacity="1" /><path clip-path="url(#clip590)" d="M 0 0 M711.812 603.981 L711.812 600.786 Q713.132 601.411 714.486 601.741 Q715.84 602.071 717.142 602.071 Q720.614 602.071 722.437 599.745 Q724.278 597.401 724.538 592.644 Q723.531 594.137 721.986 594.936 Q720.441 595.734 718.566 595.734 Q714.677 595.734 712.403 593.391 Q710.146 591.029 710.146 586.95 Q710.146 582.957 712.507 580.543 Q714.868 578.13 718.791 578.13 Q723.288 578.13 725.649 581.585 Q728.028 585.023 728.028 591.585 Q728.028 597.713 725.111 601.377 Q722.212 605.022 717.298 605.022 Q715.979 605.022 714.625 604.762 Q713.271 604.502 711.812 603.981 M718.791 592.991 Q721.153 592.991 722.524 591.377 Q723.913 589.762 723.913 586.95 Q723.913 584.154 722.524 582.54 Q721.153 580.908 718.791 580.908 Q716.43 580.908 715.041 582.54 Q713.67 584.154 713.67 586.95 Q713.67 589.762 715.041 591.377 Q716.43 592.991 718.791 592.991 Z" fill="#000000" fill-rule="evenodd" fill-opacity="1" /><path clip-path="url(#clip590)" d="M 0 0 M284.547 601.568 L290.276 601.568 L290.276 581.793 L284.043 583.043 L284.043 579.849 L290.241 578.599 L293.748 578.599 L293.748 601.568 L299.477 601.568 L299.477 604.519 L284.547 604.519 L284.547 601.568 Z" fill="#000000" fill-rule="evenodd" fill-opacity="1" /><path clip-path="url(#clip590)" d="M 0 0 M317.185 590.543 Q319.703 591.082 321.109 592.783 Q322.533 594.484 322.533 596.984 Q322.533 600.821 319.894 602.922 Q317.255 605.022 312.394 605.022 Q310.762 605.022 309.026 604.693 Q307.307 604.38 305.467 603.738 L305.467 600.352 Q306.925 601.203 308.661 601.637 Q310.397 602.071 312.29 602.071 Q315.588 602.071 317.307 600.769 Q319.043 599.467 319.043 596.984 Q319.043 594.693 317.429 593.408 Q315.831 592.106 312.967 592.106 L309.946 592.106 L309.946 589.224 L313.106 589.224 Q315.692 589.224 317.064 588.2 Q318.435 587.158 318.435 585.214 Q318.435 583.217 317.012 582.158 Q315.606 581.082 312.967 581.082 Q311.526 581.082 309.877 581.394 Q308.227 581.707 306.248 582.366 L306.248 579.241 Q308.245 578.686 309.981 578.408 Q311.734 578.13 313.279 578.13 Q317.272 578.13 319.599 579.953 Q321.925 581.759 321.925 584.849 Q321.925 587.002 320.692 588.495 Q319.46 589.97 317.185 590.543 Z" fill="#000000" fill-rule="evenodd" fill-opacity="1" /><path clip-path="url(#clip590)" d="M 0 0 M327.157 673.666 L332.886 673.666 L332.886 653.892 L326.654 655.142 L326.654 651.947 L332.851 650.697 L336.358 650.697 L336.358 673.666 L342.087 673.666 L342.087 676.617 L327.157 676.617 L327.157 673.666 Z" fill="#000000" fill-rule="evenodd" fill-opacity="1" /><path clip-path="url(#clip590)" d="M 0 0 M358.806 653.753 L349.952 667.59 L358.806 667.59 L358.806 653.753 M357.886 650.697 L362.296 650.697 L362.296 667.59 L365.994 667.59 L365.994 670.506 L362.296 670.506 L362.296 676.617 L358.806 676.617 L358.806 670.506 L347.105 670.506 L347.105 667.121 L357.886 650.697 Z" fill="#000000" fill-rule="evenodd" fill-opacity="1" /><path clip-path="url(#clip590)" d="M 0 0 M369.767 601.568 L375.496 601.568 L375.496 581.793 L369.264 583.043 L369.264 579.849 L375.462 578.599 L378.969 578.599 L378.969 601.568 L384.698 601.568 L384.698 604.519 L369.767 604.519 L369.767 601.568 Z" fill="#000000" fill-rule="evenodd" fill-opacity="1" /><path clip-path="url(#clip590)" d="M 0 0 M391.816 578.599 L405.583 578.599 L405.583 581.55 L395.028 581.55 L395.028 587.904 Q395.791 587.644 396.555 587.523 Q397.319 587.384 398.083 587.384 Q402.423 587.384 404.958 589.762 Q407.493 592.141 407.493 596.203 Q407.493 600.387 404.889 602.713 Q402.284 605.022 397.545 605.022 Q395.913 605.022 394.212 604.745 Q392.528 604.467 390.722 603.911 L390.722 600.387 Q392.284 601.238 393.951 601.654 Q395.618 602.071 397.475 602.071 Q400.479 602.071 402.232 600.491 Q403.986 598.911 403.986 596.203 Q403.986 593.495 402.232 591.915 Q400.479 590.335 397.475 590.335 Q396.069 590.335 394.663 590.648 Q393.274 590.96 391.816 591.62 L391.816 578.599 Z" fill="#000000" fill-rule="evenodd" fill-opacity="1" /><path clip-path="url(#clip590)" d="M 0 0 M369.767 457.371 L375.496 457.371 L375.496 437.597 L369.264 438.847 L369.264 435.652 L375.462 434.402 L378.969 434.402 L378.969 457.371 L384.698 457.371 L384.698 460.322 L369.767 460.322 L369.767 457.371 Z" fill="#000000" fill-rule="evenodd" fill-opacity="1" /><path clip-path="url(#clip590)" d="M 0 0 M399.715 445.965 Q397.354 445.965 395.965 447.579 Q394.594 449.194 394.594 452.006 Q394.594 454.802 395.965 456.433 Q397.354 458.048 399.715 458.048 Q402.076 458.048 403.448 456.433 Q404.837 454.802 404.837 452.006 Q404.837 449.194 403.448 447.579 Q402.076 445.965 399.715 445.965 M406.677 434.975 L406.677 438.17 Q405.357 437.545 404.003 437.215 Q402.666 436.885 401.347 436.885 Q397.875 436.885 396.034 439.229 Q394.212 441.572 393.951 446.312 Q394.975 444.802 396.521 444.003 Q398.066 443.187 399.923 443.187 Q403.83 443.187 406.086 445.565 Q408.361 447.927 408.361 452.006 Q408.361 455.999 406 458.413 Q403.639 460.826 399.715 460.826 Q395.219 460.826 392.84 457.388 Q390.462 453.933 390.462 447.388 Q390.462 441.243 393.378 437.597 Q396.295 433.934 401.208 433.934 Q402.527 433.934 403.864 434.194 Q405.218 434.454 406.677 434.975 Z" fill="#000000" fill-rule="evenodd" fill-opacity="1" /><path clip-path="url(#clip590)" d="M 0 0 M412.377 529.469 L418.107 529.469 L418.107 509.695 L411.874 510.945 L411.874 507.751 L418.072 506.501 L421.579 506.501 L421.579 529.469 L427.308 529.469 L427.308 532.421 L412.377 532.421 L412.377 529.469 Z" fill="#000000" fill-rule="evenodd" fill-opacity="1" /><path clip-path="url(#clip590)" d="M 0 0 M433.506 506.501 L450.172 506.501 L450.172 507.994 L440.763 532.421 L437.1 532.421 L445.954 509.452 L433.506 509.452 L433.506 506.501 Z" fill="#000000" fill-rule="evenodd" fill-opacity="1" /><path clip-path="url(#clip590)" d="M 0 0 M454.988 457.371 L460.717 457.371 L460.717 437.597 L454.484 438.847 L454.484 435.652 L460.682 434.402 L464.189 434.402 L464.189 457.371 L469.918 457.371 L469.918 460.322 L454.988 460.322 L454.988 457.371 Z" fill="#000000" fill-rule="evenodd" fill-opacity="1" /><path clip-path="url(#clip590)" d="M 0 0 M484.501 448.013 Q482.001 448.013 480.561 449.35 Q479.137 450.687 479.137 453.031 Q479.137 455.374 480.561 456.711 Q482.001 458.048 484.501 458.048 Q487.001 458.048 488.442 456.711 Q489.883 455.357 489.883 453.031 Q489.883 450.687 488.442 449.35 Q487.019 448.013 484.501 448.013 M480.995 446.52 Q478.738 445.965 477.47 444.42 Q476.22 442.874 476.22 440.652 Q476.22 437.545 478.425 435.739 Q480.647 433.934 484.501 433.934 Q488.373 433.934 490.578 435.739 Q492.783 437.545 492.783 440.652 Q492.783 442.874 491.515 444.42 Q490.265 445.965 488.026 446.52 Q490.56 447.111 491.967 448.829 Q493.39 450.548 493.39 453.031 Q493.39 456.798 491.081 458.812 Q488.79 460.826 484.501 460.826 Q480.213 460.826 477.904 458.812 Q475.613 456.798 475.613 453.031 Q475.613 450.548 477.036 448.829 Q478.46 447.111 480.995 446.52 M479.71 440.982 Q479.71 442.996 480.96 444.124 Q482.227 445.253 484.501 445.253 Q486.758 445.253 488.026 444.124 Q489.31 442.996 489.31 440.982 Q489.31 438.968 488.026 437.84 Q486.758 436.711 484.501 436.711 Q482.227 436.711 480.96 437.84 Q479.71 438.968 479.71 440.982 Z" fill="#000000" fill-rule="evenodd" fill-opacity="1" /><path clip-path="url(#clip590)" d="M 0 0 M458.703 601.568 L470.942 601.568 L470.942 604.519 L454.484 604.519 L454.484 601.568 Q456.481 599.502 459.918 596.029 Q463.373 592.54 464.259 591.533 Q465.943 589.641 466.602 588.338 Q467.279 587.019 467.279 585.752 Q467.279 583.686 465.821 582.384 Q464.38 581.082 462.054 581.082 Q460.404 581.082 458.564 581.654 Q456.741 582.227 454.658 583.391 L454.658 579.849 Q456.776 578.998 458.616 578.564 Q460.456 578.13 461.984 578.13 Q466.012 578.13 468.408 580.144 Q470.804 582.158 470.804 585.526 Q470.804 587.123 470.196 588.564 Q469.606 589.988 468.026 591.932 Q467.592 592.436 465.265 594.849 Q462.939 597.245 458.703 601.568 Z" fill="#000000" fill-rule="evenodd" fill-opacity="1" /><path clip-path="url(#clip590)" d="M 0 0 M485.804 592.21 Q483.304 592.21 481.863 593.547 Q480.439 594.884 480.439 597.227 Q480.439 599.571 481.863 600.908 Q483.304 602.245 485.804 602.245 Q488.304 602.245 489.744 600.908 Q491.185 599.554 491.185 597.227 Q491.185 594.884 489.744 593.547 Q488.321 592.21 485.804 592.21 M482.297 590.717 Q480.04 590.161 478.772 588.616 Q477.522 587.071 477.522 584.849 Q477.522 581.741 479.727 579.936 Q481.949 578.13 485.804 578.13 Q489.675 578.13 491.88 579.936 Q494.085 581.741 494.085 584.849 Q494.085 587.071 492.817 588.616 Q491.567 590.161 489.328 590.717 Q491.863 591.307 493.269 593.026 Q494.692 594.745 494.692 597.227 Q494.692 600.995 492.383 603.009 Q490.092 605.022 485.804 605.022 Q481.515 605.022 479.206 603.009 Q476.915 600.995 476.915 597.227 Q476.915 594.745 478.338 593.026 Q479.762 591.307 482.297 590.717 M481.012 585.179 Q481.012 587.193 482.262 588.321 Q483.529 589.45 485.804 589.45 Q488.06 589.45 489.328 588.321 Q490.613 587.193 490.613 585.179 Q490.613 583.165 489.328 582.036 Q488.06 580.908 485.804 580.908 Q483.529 580.908 482.262 582.036 Q481.012 583.165 481.012 585.179 Z" fill="#000000" fill-rule="evenodd" fill-opacity="1" /><path clip-path="url(#clip590)" d="M 0 0 M501.313 673.666 L513.553 673.666 L513.553 676.617 L497.094 676.617 L497.094 673.666 Q499.091 671.6 502.528 668.128 Q505.983 664.638 506.869 663.631 Q508.553 661.739 509.212 660.437 Q509.89 659.117 509.89 657.85 Q509.89 655.784 508.431 654.482 Q506.99 653.18 504.664 653.18 Q503.015 653.18 501.174 653.753 Q499.351 654.326 497.268 655.489 L497.268 651.947 Q499.386 651.097 501.226 650.663 Q503.067 650.229 504.594 650.229 Q508.622 650.229 511.018 652.242 Q513.414 654.256 513.414 657.624 Q513.414 659.222 512.806 660.663 Q512.216 662.086 510.636 664.031 Q510.202 664.534 507.876 666.947 Q505.549 669.343 501.313 673.666 Z" fill="#000000" fill-rule="evenodd" fill-opacity="1" /><path clip-path="url(#clip590)" d="M 0 0 M521.018 676.079 L521.018 672.885 Q522.337 673.51 523.692 673.84 Q525.046 674.169 526.348 674.169 Q529.82 674.169 531.643 671.843 Q533.483 669.499 533.744 664.742 Q532.737 666.235 531.192 667.034 Q529.646 667.833 527.771 667.833 Q523.883 667.833 521.608 665.489 Q519.351 663.128 519.351 659.048 Q519.351 655.055 521.712 652.642 Q524.074 650.229 527.997 650.229 Q532.494 650.229 534.855 653.683 Q537.233 657.121 537.233 663.683 Q537.233 669.812 534.317 673.475 Q531.417 677.121 526.504 677.121 Q525.185 677.121 523.83 676.86 Q522.476 676.6 521.018 676.079 M527.997 665.09 Q530.358 665.09 531.73 663.475 Q533.119 661.86 533.119 659.048 Q533.119 656.253 531.73 654.638 Q530.358 653.006 527.997 653.006 Q525.636 653.006 524.247 654.638 Q522.876 656.253 522.876 659.048 Q522.876 661.86 524.247 663.475 Q525.636 665.09 527.997 665.09 Z" fill="#000000" fill-rule="evenodd" fill-opacity="1" /><path clip-path="url(#clip590)" d="M 0 0 M551.423 590.543 Q553.941 591.082 555.347 592.783 Q556.771 594.484 556.771 596.984 Q556.771 600.821 554.132 602.922 Q551.493 605.022 546.632 605.022 Q545 605.022 543.264 604.693 Q541.545 604.38 539.705 603.738 L539.705 600.352 Q541.163 601.203 542.899 601.637 Q544.635 602.071 546.528 602.071 Q549.826 602.071 551.545 600.769 Q553.281 599.467 553.281 596.984 Q553.281 594.693 551.666 593.408 Q550.069 592.106 547.205 592.106 L544.184 592.106 L544.184 589.224 L547.344 589.224 Q549.93 589.224 551.302 588.2 Q552.673 587.158 552.673 585.214 Q552.673 583.217 551.25 582.158 Q549.844 581.082 547.205 581.082 Q545.764 581.082 544.114 581.394 Q542.465 581.707 540.486 582.366 L540.486 579.241 Q542.482 578.686 544.219 578.408 Q545.972 578.13 547.517 578.13 Q551.51 578.13 553.837 579.953 Q556.163 581.759 556.163 584.849 Q556.163 587.002 554.93 588.495 Q553.698 589.97 551.423 590.543 Z" fill="#000000" fill-rule="evenodd" fill-opacity="1" /><path clip-path="url(#clip590)" d="M 0 0 M570.92 580.908 Q568.212 580.908 566.84 583.582 Q565.486 586.238 565.486 591.585 Q565.486 596.915 566.84 599.588 Q568.212 602.245 570.92 602.245 Q573.646 602.245 575 599.588 Q576.371 596.915 576.371 591.585 Q576.371 586.238 575 583.582 Q573.646 580.908 570.92 580.908 M570.92 578.13 Q575.277 578.13 577.569 581.585 Q579.878 585.023 579.878 591.585 Q579.878 598.13 577.569 601.585 Q575.277 605.022 570.92 605.022 Q566.562 605.022 564.253 601.585 Q561.962 598.13 561.962 591.585 Q561.962 585.023 564.253 581.585 Q566.562 578.13 570.92 578.13 Z" fill="#000000" fill-rule="evenodd" fill-opacity="1" /><path clip-path="url(#clip590)" d="M 0 0 M551.423 446.347 Q553.941 446.885 555.347 448.586 Q556.771 450.288 556.771 452.788 Q556.771 456.624 554.132 458.725 Q551.493 460.826 546.632 460.826 Q545 460.826 543.264 460.496 Q541.545 460.183 539.705 459.541 L539.705 456.156 Q541.163 457.006 542.899 457.44 Q544.635 457.874 546.528 457.874 Q549.826 457.874 551.545 456.572 Q553.281 455.27 553.281 452.788 Q553.281 450.496 551.666 449.211 Q550.069 447.909 547.205 447.909 L544.184 447.909 L544.184 445.027 L547.344 445.027 Q549.93 445.027 551.302 444.003 Q552.673 442.961 552.673 441.017 Q552.673 439.02 551.25 437.961 Q549.844 436.885 547.205 436.885 Q545.764 436.885 544.114 437.197 Q542.465 437.51 540.486 438.17 L540.486 435.045 Q542.482 434.489 544.219 434.211 Q545.972 433.934 547.517 433.934 Q551.51 433.934 553.837 435.756 Q556.163 437.562 556.163 440.652 Q556.163 442.805 554.93 444.298 Q553.698 445.774 551.423 446.347 Z" fill="#000000" fill-rule="evenodd" fill-opacity="1" /><path clip-path="url(#clip590)" d="M 0 0 M564.028 457.371 L569.757 457.371 L569.757 437.597 L563.524 438.847 L563.524 435.652 L569.722 434.402 L573.229 434.402 L573.229 457.371 L578.958 457.371 L578.958 460.322 L564.028 460.322 L564.028 457.371 Z" fill="#000000" fill-rule="evenodd" fill-opacity="1" /><path clip-path="url(#clip590)" d="M 0 0 M594.034 518.445 Q596.551 518.983 597.957 520.685 Q599.381 522.386 599.381 524.886 Q599.381 528.723 596.742 530.823 Q594.103 532.924 589.242 532.924 Q587.61 532.924 585.874 532.594 Q584.155 532.282 582.315 531.639 L582.315 528.254 Q583.773 529.105 585.509 529.539 Q587.245 529.973 589.138 529.973 Q592.436 529.973 594.155 528.671 Q595.891 527.369 595.891 524.886 Q595.891 522.594 594.277 521.31 Q592.679 520.008 589.815 520.008 L586.794 520.008 L586.794 517.126 L589.954 517.126 Q592.541 517.126 593.912 516.101 Q595.284 515.06 595.284 513.115 Q595.284 511.119 593.86 510.06 Q592.454 508.983 589.815 508.983 Q588.374 508.983 586.725 509.296 Q585.075 509.608 583.096 510.268 L583.096 507.143 Q585.093 506.587 586.829 506.31 Q588.582 506.032 590.127 506.032 Q594.12 506.032 596.447 507.855 Q598.773 509.66 598.773 512.751 Q598.773 514.903 597.541 516.396 Q596.308 517.872 594.034 518.445 Z" fill="#000000" fill-rule="evenodd" fill-opacity="1" /><path clip-path="url(#clip590)" d="M 0 0 M609.051 529.469 L621.29 529.469 L621.29 532.421 L604.832 532.421 L604.832 529.469 Q606.829 527.403 610.266 523.931 Q613.721 520.442 614.606 519.435 Q616.29 517.542 616.95 516.24 Q617.627 514.921 617.627 513.653 Q617.627 511.587 616.169 510.285 Q614.728 508.983 612.402 508.983 Q610.752 508.983 608.912 509.556 Q607.089 510.129 605.006 511.292 L605.006 507.751 Q607.124 506.9 608.964 506.466 Q610.804 506.032 612.332 506.032 Q616.36 506.032 618.756 508.046 Q621.152 510.06 621.152 513.428 Q621.152 515.025 620.544 516.466 Q619.954 517.889 618.374 519.834 Q617.94 520.337 615.613 522.751 Q613.287 525.146 609.051 529.469 Z" fill="#000000" fill-rule="evenodd" fill-opacity="1" /><path clip-path="url(#clip590)" d="M 0 0 M636.644 446.347 Q639.161 446.885 640.567 448.586 Q641.991 450.288 641.991 452.788 Q641.991 456.624 639.352 458.725 Q636.713 460.826 631.852 460.826 Q630.22 460.826 628.484 460.496 Q626.765 460.183 624.925 459.541 L624.925 456.156 Q626.384 457.006 628.12 457.44 Q629.856 457.874 631.748 457.874 Q635.047 457.874 636.765 456.572 Q638.502 455.27 638.502 452.788 Q638.502 450.496 636.887 449.211 Q635.29 447.909 632.425 447.909 L629.404 447.909 L629.404 445.027 L632.564 445.027 Q635.151 445.027 636.522 444.003 Q637.894 442.961 637.894 441.017 Q637.894 439.02 636.47 437.961 Q635.064 436.885 632.425 436.885 Q630.984 436.885 629.335 437.197 Q627.686 437.51 625.706 438.17 L625.706 435.045 Q627.703 434.489 629.439 434.211 Q631.193 433.934 632.738 433.934 Q636.731 433.934 639.057 435.756 Q641.383 437.562 641.383 440.652 Q641.383 442.805 640.151 444.298 Q638.918 445.774 636.644 446.347 Z" fill="#000000" fill-rule="evenodd" fill-opacity="1" /><path clip-path="url(#clip590)" d="M 0 0 M659.265 446.347 Q661.783 446.885 663.189 448.586 Q664.612 450.288 664.612 452.788 Q664.612 456.624 661.974 458.725 Q659.335 460.826 654.474 460.826 Q652.842 460.826 651.106 460.496 Q649.387 460.183 647.547 459.541 L647.547 456.156 Q649.005 457.006 650.741 457.44 Q652.477 457.874 654.369 457.874 Q657.668 457.874 659.387 456.572 Q661.123 455.27 661.123 452.788 Q661.123 450.496 659.508 449.211 Q657.911 447.909 655.047 447.909 L652.026 447.909 L652.026 445.027 L655.185 445.027 Q657.772 445.027 659.144 444.003 Q660.515 442.961 660.515 441.017 Q660.515 439.02 659.092 437.961 Q657.685 436.885 655.047 436.885 Q653.606 436.885 651.956 437.197 Q650.307 437.51 648.328 438.17 L648.328 435.045 Q650.324 434.489 652.06 434.211 Q653.814 433.934 655.359 433.934 Q659.352 433.934 661.678 435.756 Q664.005 437.562 664.005 440.652 Q664.005 442.805 662.772 444.298 Q661.54 445.774 659.265 446.347 Z" fill="#000000" fill-rule="evenodd" fill-opacity="1" /><path clip-path="url(#clip590)" d="M 0 0 M125.321 590.543 Q127.838 591.082 129.245 592.783 Q130.668 594.484 130.668 596.984 Q130.668 600.821 128.029 602.922 Q125.39 605.022 120.529 605.022 Q118.897 605.022 117.161 604.693 Q115.443 604.38 113.602 603.738 L113.602 600.352 Q115.061 601.203 116.797 601.637 Q118.533 602.071 120.425 602.071 Q123.724 602.071 125.443 600.769 Q127.179 599.467 127.179 596.984 Q127.179 594.693 125.564 593.408 Q123.967 592.106 121.102 592.106 L118.082 592.106 L118.082 589.224 L121.241 589.224 Q123.828 589.224 125.2 588.2 Q126.571 587.158 126.571 585.214 Q126.571 583.217 125.147 582.158 Q123.741 581.082 121.102 581.082 Q119.661 581.082 118.012 581.394 Q116.363 581.707 114.384 582.366 L114.384 579.241 Q116.38 578.686 118.116 578.408 Q119.87 578.13 121.415 578.13 Q125.408 578.13 127.734 579.953 Q130.061 581.759 130.061 584.849 Q130.061 587.002 128.828 588.495 Q127.595 589.97 125.321 590.543 Z" fill="#000000" fill-rule="evenodd" fill-opacity="1" /><path clip-path="url(#clip590)" d="M 0 0 M146.953 581.654 L138.099 595.491 L146.953 595.491 L146.953 581.654 M146.033 578.599 L150.442 578.599 L150.442 595.491 L154.14 595.491 L154.14 598.408 L150.442 598.408 L150.442 604.519 L146.953 604.519 L146.953 598.408 L135.252 598.408 L135.252 595.022 L146.033 578.599 Z" fill="#000000" fill-rule="evenodd" fill-opacity="1" /><path clip-path="url(#clip590)" d="M 0 0 M167.931 662.642 Q170.449 663.18 171.855 664.881 Q173.278 666.583 173.278 669.083 Q173.278 672.919 170.64 675.02 Q168.001 677.121 163.14 677.121 Q161.508 677.121 159.772 676.791 Q158.053 676.478 156.213 675.836 L156.213 672.451 Q157.671 673.301 159.407 673.735 Q161.143 674.169 163.035 674.169 Q166.334 674.169 168.053 672.867 Q169.789 671.565 169.789 669.083 Q169.789 666.791 168.174 665.506 Q166.577 664.204 163.713 664.204 L160.692 664.204 L160.692 661.322 L163.851 661.322 Q166.438 661.322 167.81 660.298 Q169.181 659.256 169.181 657.312 Q169.181 655.315 167.758 654.256 Q166.351 653.18 163.713 653.18 Q162.272 653.18 160.622 653.492 Q158.973 653.805 156.994 654.465 L156.994 651.34 Q158.99 650.784 160.726 650.506 Q162.48 650.229 164.025 650.229 Q168.018 650.229 170.344 652.051 Q172.671 653.857 172.671 656.947 Q172.671 659.1 171.438 660.593 Q170.206 662.069 167.931 662.642 Z" fill="#000000" fill-rule="evenodd" fill-opacity="1" /><path clip-path="url(#clip590)" d="M 0 0 M179.962 650.697 L193.73 650.697 L193.73 653.649 L183.174 653.649 L183.174 660.003 Q183.938 659.742 184.702 659.621 Q185.466 659.482 186.23 659.482 Q190.57 659.482 193.105 661.86 Q195.639 664.239 195.639 668.301 Q195.639 672.485 193.035 674.812 Q190.431 677.121 185.692 677.121 Q184.06 677.121 182.358 676.843 Q180.674 676.565 178.869 676.01 L178.869 672.485 Q180.431 673.336 182.098 673.753 Q183.765 674.169 185.622 674.169 Q188.626 674.169 190.379 672.59 Q192.133 671.01 192.133 668.301 Q192.133 665.593 190.379 664.013 Q188.626 662.433 185.622 662.433 Q184.216 662.433 182.81 662.746 Q181.421 663.058 179.962 663.718 L179.962 650.697 Z" fill="#000000" fill-rule="evenodd" fill-opacity="1" /><path clip-path="url(#clip590)" d="M 0 0 M210.542 590.543 Q213.059 591.082 214.465 592.783 Q215.889 594.484 215.889 596.984 Q215.889 600.821 213.25 602.922 Q210.611 605.022 205.75 605.022 Q204.118 605.022 202.382 604.693 Q200.663 604.38 198.823 603.738 L198.823 600.352 Q200.281 601.203 202.017 601.637 Q203.753 602.071 205.646 602.071 Q208.944 602.071 210.663 600.769 Q212.399 599.467 212.399 596.984 Q212.399 594.693 210.785 593.408 Q209.187 592.106 206.323 592.106 L203.302 592.106 L203.302 589.224 L206.462 589.224 Q209.048 589.224 210.42 588.2 Q211.792 587.158 211.792 585.214 Q211.792 583.217 210.368 582.158 Q208.962 581.082 206.323 581.082 Q204.882 581.082 203.233 581.394 Q201.583 581.707 199.604 582.366 L199.604 579.241 Q201.601 578.686 203.337 578.408 Q205.09 578.13 206.635 578.13 Q210.628 578.13 212.955 579.953 Q215.281 581.759 215.281 584.849 Q215.281 587.002 214.048 588.495 Q212.816 589.97 210.542 590.543 Z" fill="#000000" fill-rule="evenodd" fill-opacity="1" /><path clip-path="url(#clip590)" d="M 0 0 M230.472 590.161 Q228.111 590.161 226.722 591.776 Q225.35 593.391 225.35 596.203 Q225.35 598.998 226.722 600.63 Q228.111 602.245 230.472 602.245 Q232.833 602.245 234.205 600.63 Q235.593 598.998 235.593 596.203 Q235.593 593.391 234.205 591.776 Q232.833 590.161 230.472 590.161 M237.434 579.172 L237.434 582.366 Q236.114 581.741 234.76 581.411 Q233.423 581.082 232.104 581.082 Q228.632 581.082 226.791 583.425 Q224.969 585.769 224.708 590.509 Q225.732 588.998 227.278 588.2 Q228.823 587.384 230.68 587.384 Q234.587 587.384 236.843 589.762 Q239.118 592.123 239.118 596.203 Q239.118 600.196 236.757 602.609 Q234.396 605.022 230.472 605.022 Q225.975 605.022 223.597 601.585 Q221.219 598.13 221.219 591.585 Q221.219 585.439 224.135 581.793 Q227.052 578.13 231.965 578.13 Q233.284 578.13 234.621 578.391 Q235.975 578.651 237.434 579.172 Z" fill="#000000" fill-rule="evenodd" fill-opacity="1" /><circle clip-path="url(#clip592)" cx="113.602" cy="468.098" r="14" fill="#0000ff" fill-rule="evenodd" fill-opacity="1" stroke="none"/>
<circle clip-path="url(#clip592)" cx="113.602" cy="323.902" r="14" fill="#0000ff" fill-rule="evenodd" fill-opacity="1" stroke="none"/>
<circle clip-path="url(#clip592)" cx="156.213" cy="396" r="14" fill="#0000ff" fill-rule="evenodd" fill-opacity="1" stroke="none"/>
<circle clip-path="url(#clip592)" cx="198.823" cy="323.902" r="14" fill="#0000ff" fill-rule="evenodd" fill-opacity="1" stroke="none"/>
<circle clip-path="url(#clip592)" cx="198.823" cy="468.098" r="14" fill="#0000ff" fill-rule="evenodd" fill-opacity="1" stroke="none"/>
<circle clip-path="url(#clip592)" cx="241.433" cy="540.197" r="14" fill="#0000ff" fill-rule="evenodd" fill-opacity="1" stroke="none"/>
<circle clip-path="url(#clip592)" cx="284.043" cy="468.098" r="14" fill="#0000ff" fill-rule="evenodd" fill-opacity="1" stroke="none"/>
<circle clip-path="url(#clip592)" cx="284.043" cy="323.902" r="14" fill="#0000ff" fill-rule="evenodd" fill-opacity="1" stroke="none"/>
<circle clip-path="url(#clip592)" cx="326.654" cy="396" r="14" fill="#0000ff" fill-rule="evenodd" fill-opacity="1" stroke="none"/>
<circle clip-path="url(#clip592)" cx="369.264" cy="323.902" r="14" fill="#0000ff" fill-rule="evenodd" fill-opacity="1" stroke="none"/>
<circle clip-path="url(#clip592)" cx="113.602" cy="179.705" r="14" fill="#0000ff" fill-rule="evenodd" fill-opacity="1" stroke="none"/>
<path clip-path="url(#clip590)" d="M 0 0 M72.0859 506.501 L85.8532 506.501 L85.8532 509.452 L75.2977 509.452 L75.2977 515.806 Q76.0615 515.546 76.8254 515.424 Q77.5893 515.285 78.3532 515.285 Q82.6935 515.285 85.2282 517.664 Q87.7629 520.042 87.7629 524.105 Q87.7629 528.289 85.1587 530.615 Q82.5546 532.924 77.815 532.924 Q76.1831 532.924 74.4817 532.646 Q72.7977 532.369 70.9921 531.813 L70.9921 528.289 Q72.5546 529.139 74.2213 529.556 Q75.8879 529.973 77.7456 529.973 Q80.749 529.973 82.5025 528.393 Q84.2559 526.813 84.2559 524.105 Q84.2559 521.396 82.5025 519.817 Q80.749 518.237 77.7456 518.237 Q76.3393 518.237 74.9331 518.549 Q73.5442 518.862 72.0859 519.521 L72.0859 506.501 Z" fill="#000000" fill-rule="evenodd" fill-opacity="1" /><path clip-path="url(#clip590)" d="M 0 0 M122.856 445.965 Q120.495 445.965 119.106 447.579 Q117.734 449.194 117.734 452.006 Q117.734 454.802 119.106 456.433 Q120.495 458.048 122.856 458.048 Q125.217 458.048 126.588 456.433 Q127.977 454.802 127.977 452.006 Q127.977 449.194 126.588 447.579 Q125.217 445.965 122.856 445.965 M129.818 434.975 L129.818 438.17 Q128.498 437.545 127.144 437.215 Q125.807 436.885 124.488 436.885 Q121.016 436.885 119.175 439.229 Q117.352 441.572 117.092 446.312 Q118.116 444.802 119.661 444.003 Q121.206 443.187 123.064 443.187 Q126.97 443.187 129.227 445.565 Q131.502 447.927 131.502 452.006 Q131.502 455.999 129.14 458.413 Q126.779 460.826 122.856 460.826 Q118.359 460.826 115.981 457.388 Q113.602 453.933 113.602 447.388 Q113.602 441.243 116.519 437.597 Q119.436 433.934 124.349 433.934 Q125.668 433.934 127.005 434.194 Q128.359 434.454 129.818 434.975 Z" fill="#000000" fill-rule="evenodd" fill-opacity="1" /><path clip-path="url(#clip590)" d="M 0 0 M113.602 290.206 L130.269 290.206 L130.269 291.699 L120.859 316.126 L117.196 316.126 L126.05 293.157 L113.602 293.157 L113.602 290.206 Z" fill="#000000" fill-rule="evenodd" fill-opacity="1" /><path clip-path="url(#clip590)" d="M 0 0 M165.101 375.915 Q162.601 375.915 161.16 377.252 Q159.737 378.589 159.737 380.932 Q159.737 383.276 161.16 384.613 Q162.601 385.95 165.101 385.95 Q167.601 385.95 169.042 384.613 Q170.483 383.259 170.483 380.932 Q170.483 378.589 169.042 377.252 Q167.619 375.915 165.101 375.915 M161.595 374.422 Q159.338 373.866 158.07 372.321 Q156.82 370.776 156.82 368.554 Q156.82 365.446 159.025 363.641 Q161.247 361.835 165.101 361.835 Q168.973 361.835 171.178 363.641 Q173.383 365.446 173.383 368.554 Q173.383 370.776 172.115 372.321 Q170.865 373.866 168.626 374.422 Q171.16 375.012 172.567 376.731 Q173.99 378.45 173.99 380.932 Q173.99 384.7 171.681 386.714 Q169.39 388.727 165.101 388.727 Q160.813 388.727 158.504 386.714 Q156.213 384.7 156.213 380.932 Q156.213 378.45 157.636 376.731 Q159.06 375.012 161.595 374.422 M160.31 368.884 Q160.31 370.898 161.56 372.026 Q162.827 373.155 165.101 373.155 Q167.358 373.155 168.626 372.026 Q169.91 370.898 169.91 368.884 Q169.91 366.87 168.626 365.741 Q167.358 364.613 165.101 364.613 Q162.827 364.613 161.56 365.741 Q160.31 366.87 160.31 368.884 Z" fill="#000000" fill-rule="evenodd" fill-opacity="1" /><path clip-path="url(#clip590)" d="M 0 0 M200.489 315.587 L200.489 312.393 Q201.809 313.018 203.163 313.348 Q204.517 313.678 205.819 313.678 Q209.292 313.678 211.114 311.351 Q212.955 309.008 213.215 304.251 Q212.208 305.744 210.663 306.542 Q209.118 307.341 207.243 307.341 Q203.354 307.341 201.08 304.997 Q198.823 302.636 198.823 298.556 Q198.823 294.563 201.184 292.15 Q203.545 289.737 207.469 289.737 Q211.965 289.737 214.326 293.192 Q216.705 296.629 216.705 303.192 Q216.705 309.32 213.788 312.983 Q210.889 316.629 205.976 316.629 Q204.656 316.629 203.302 316.369 Q201.948 316.108 200.489 315.587 M207.469 304.598 Q209.83 304.598 211.201 302.983 Q212.59 301.369 212.59 298.556 Q212.59 295.761 211.201 294.147 Q209.83 292.515 207.469 292.515 Q205.108 292.515 203.719 294.147 Q202.347 295.761 202.347 298.556 Q202.347 301.369 203.719 302.983 Q205.108 304.598 207.469 304.598 Z" fill="#000000" fill-rule="evenodd" fill-opacity="1" /><path clip-path="url(#clip590)" d="M 0 0 M199.326 457.371 L205.055 457.371 L205.055 437.597 L198.823 438.847 L198.823 435.652 L205.021 434.402 L208.528 434.402 L208.528 457.371 L214.257 457.371 L214.257 460.322 L199.326 460.322 L199.326 457.371 Z" fill="#000000" fill-rule="evenodd" fill-opacity="1" /><path clip-path="url(#clip590)" d="M 0 0 M221.444 459.784 L221.444 456.59 Q222.764 457.215 224.118 457.545 Q225.472 457.874 226.774 457.874 Q230.246 457.874 232.069 455.548 Q233.909 453.204 234.17 448.447 Q233.163 449.94 231.618 450.739 Q230.073 451.538 228.198 451.538 Q224.309 451.538 222.035 449.194 Q219.778 446.833 219.778 442.753 Q219.778 438.76 222.139 436.347 Q224.5 433.934 228.423 433.934 Q232.92 433.934 235.281 437.388 Q237.659 440.826 237.659 447.388 Q237.659 453.517 234.743 457.18 Q231.843 460.826 226.93 460.826 Q225.611 460.826 224.257 460.565 Q222.903 460.305 221.444 459.784 M228.423 448.795 Q230.784 448.795 232.156 447.18 Q233.545 445.565 233.545 442.753 Q233.545 439.958 232.156 438.343 Q230.784 436.711 228.423 436.711 Q226.062 436.711 224.673 438.343 Q223.302 439.958 223.302 442.753 Q223.302 445.565 224.673 447.18 Q226.062 448.795 228.423 448.795 Z" fill="#000000" fill-rule="evenodd" fill-opacity="1" /><path clip-path="url(#clip590)" d="M 0 0 M245.652 529.469 L257.891 529.469 L257.891 532.421 L241.433 532.421 L241.433 529.469 Q243.43 527.403 246.867 523.931 Q250.322 520.442 251.207 519.435 Q252.891 517.542 253.551 516.24 Q254.228 514.921 254.228 513.653 Q254.228 511.587 252.77 510.285 Q251.329 508.983 249.002 508.983 Q247.353 508.983 245.513 509.556 Q243.69 510.129 241.607 511.292 L241.607 507.751 Q243.725 506.9 245.565 506.466 Q247.405 506.032 248.933 506.032 Q252.961 506.032 255.357 508.046 Q257.752 510.06 257.752 513.428 Q257.752 515.025 257.145 516.466 Q256.555 517.889 254.975 519.834 Q254.541 520.337 252.214 522.751 Q249.888 525.146 245.652 529.469 Z" fill="#000000" fill-rule="evenodd" fill-opacity="1" /><path clip-path="url(#clip590)" d="M 0 0 M272.752 508.81 Q270.044 508.81 268.673 511.483 Q267.318 514.139 267.318 519.487 Q267.318 524.817 268.673 527.49 Q270.044 530.146 272.752 530.146 Q275.478 530.146 276.832 527.49 Q278.204 524.817 278.204 519.487 Q278.204 514.139 276.832 511.483 Q275.478 508.81 272.752 508.81 M272.752 506.032 Q277.11 506.032 279.402 509.487 Q281.711 512.924 281.711 519.487 Q281.711 526.032 279.402 529.487 Q277.11 532.924 272.752 532.924 Q268.395 532.924 266.086 529.487 Q263.794 526.032 263.794 519.487 Q263.794 512.924 266.086 509.487 Q268.395 506.032 272.752 506.032 Z" fill="#000000" fill-rule="evenodd" fill-opacity="1" /><path clip-path="url(#clip590)" d="M 0 0 M288.262 457.371 L300.502 457.371 L300.502 460.322 L284.043 460.322 L284.043 457.371 Q286.04 455.305 289.477 451.833 Q292.932 448.343 293.818 447.336 Q295.502 445.444 296.161 444.142 Q296.838 442.822 296.838 441.555 Q296.838 439.489 295.38 438.187 Q293.939 436.885 291.613 436.885 Q289.963 436.885 288.123 437.458 Q286.3 438.031 284.217 439.194 L284.217 435.652 Q286.335 434.802 288.175 434.368 Q290.015 433.934 291.543 433.934 Q295.571 433.934 297.967 435.947 Q300.363 437.961 300.363 441.329 Q300.363 442.927 299.755 444.368 Q299.165 445.791 297.585 447.736 Q297.151 448.239 294.824 450.652 Q292.498 453.048 288.262 457.371 Z" fill="#000000" fill-rule="evenodd" fill-opacity="1" /><path clip-path="url(#clip590)" d="M 0 0 M308.47 457.371 L314.199 457.371 L314.199 437.597 L307.967 438.847 L307.967 435.652 L314.165 434.402 L317.672 434.402 L317.672 457.371 L323.401 457.371 L323.401 460.322 L308.47 460.322 L308.47 457.371 Z" fill="#000000" fill-rule="evenodd" fill-opacity="1" /><path clip-path="url(#clip590)" d="M 0 0 M288.262 313.174 L300.502 313.174 L300.502 316.126 L284.043 316.126 L284.043 313.174 Q286.04 311.108 289.477 307.636 Q292.932 304.147 293.818 303.14 Q295.502 301.247 296.161 299.945 Q296.838 298.626 296.838 297.358 Q296.838 295.292 295.38 293.99 Q293.939 292.688 291.613 292.688 Q289.963 292.688 288.123 293.261 Q286.3 293.834 284.217 294.997 L284.217 291.456 Q286.335 290.605 288.175 290.171 Q290.015 289.737 291.543 289.737 Q295.571 289.737 297.967 291.751 Q300.363 293.765 300.363 297.133 Q300.363 298.73 299.755 300.171 Q299.165 301.595 297.585 303.539 Q297.151 304.042 294.824 306.456 Q292.498 308.851 288.262 313.174 Z" fill="#000000" fill-rule="evenodd" fill-opacity="1" /><path clip-path="url(#clip590)" d="M 0 0 M310.883 313.174 L323.123 313.174 L323.123 316.126 L306.665 316.126 L306.665 313.174 Q308.661 311.108 312.099 307.636 Q315.554 304.147 316.439 303.14 Q318.123 301.247 318.783 299.945 Q319.46 298.626 319.46 297.358 Q319.46 295.292 318.001 293.99 Q316.56 292.688 314.234 292.688 Q312.585 292.688 310.745 293.261 Q308.922 293.834 306.838 294.997 L306.838 291.456 Q308.956 290.605 310.797 290.171 Q312.637 289.737 314.165 289.737 Q318.192 289.737 320.588 291.751 Q322.984 293.765 322.984 297.133 Q322.984 298.73 322.376 300.171 Q321.786 301.595 320.206 303.539 Q319.772 304.042 317.446 306.456 Q315.12 308.851 310.883 313.174 Z" fill="#000000" fill-rule="evenodd" fill-opacity="1" /><path clip-path="url(#clip590)" d="M 0 0 M330.872 385.273 L343.112 385.273 L343.112 388.224 L326.654 388.224 L326.654 385.273 Q328.65 383.207 332.088 379.734 Q335.542 376.245 336.428 375.238 Q338.112 373.346 338.772 372.044 Q339.449 370.724 339.449 369.457 Q339.449 367.391 337.99 366.089 Q336.549 364.787 334.223 364.787 Q332.574 364.787 330.733 365.36 Q328.91 365.932 326.827 367.096 L326.827 363.554 Q328.945 362.703 330.785 362.269 Q332.626 361.835 334.154 361.835 Q338.181 361.835 340.577 363.849 Q342.973 365.863 342.973 369.231 Q342.973 370.828 342.365 372.269 Q341.775 373.693 340.195 375.637 Q339.761 376.141 337.435 378.554 Q335.108 380.95 330.872 385.273 Z" fill="#000000" fill-rule="evenodd" fill-opacity="1" /><path clip-path="url(#clip590)" d="M 0 0 M361.098 374.248 Q363.615 374.787 365.021 376.488 Q366.445 378.189 366.445 380.689 Q366.445 384.526 363.806 386.627 Q361.167 388.727 356.306 388.727 Q354.674 388.727 352.938 388.398 Q351.219 388.085 349.379 387.443 L349.379 384.057 Q350.837 384.908 352.574 385.342 Q354.31 385.776 356.202 385.776 Q359.501 385.776 361.219 384.474 Q362.955 383.172 362.955 380.689 Q362.955 378.398 361.341 377.113 Q359.744 375.811 356.879 375.811 L353.858 375.811 L353.858 372.929 L357.018 372.929 Q359.605 372.929 360.976 371.905 Q362.348 370.863 362.348 368.919 Q362.348 366.922 360.924 365.863 Q359.518 364.787 356.879 364.787 Q355.438 364.787 353.789 365.099 Q352.14 365.412 350.16 366.071 L350.16 362.946 Q352.157 362.391 353.893 362.113 Q355.646 361.835 357.192 361.835 Q361.185 361.835 363.511 363.658 Q365.837 365.464 365.837 368.554 Q365.837 370.707 364.605 372.2 Q363.372 373.675 361.098 374.248 Z" fill="#000000" fill-rule="evenodd" fill-opacity="1" /><path clip-path="url(#clip590)" d="M 0 0 M373.483 313.174 L385.722 313.174 L385.722 316.126 L369.264 316.126 L369.264 313.174 Q371.26 311.108 374.698 307.636 Q378.153 304.147 379.038 303.14 Q380.722 301.247 381.382 299.945 Q382.059 298.626 382.059 297.358 Q382.059 295.292 380.601 293.99 Q379.16 292.688 376.833 292.688 Q375.184 292.688 373.344 293.261 Q371.521 293.834 369.437 294.997 L369.437 291.456 Q371.555 290.605 373.396 290.171 Q375.236 289.737 376.764 289.737 Q380.791 289.737 383.187 291.751 Q385.583 293.765 385.583 297.133 Q385.583 298.73 384.976 300.171 Q384.385 301.595 382.805 303.539 Q382.371 304.042 380.045 306.456 Q377.719 308.851 373.483 313.174 Z" fill="#000000" fill-rule="evenodd" fill-opacity="1" /><path clip-path="url(#clip590)" d="M 0 0 M402.718 293.261 L393.864 307.098 L402.718 307.098 L402.718 293.261 M401.798 290.206 L406.208 290.206 L406.208 307.098 L409.906 307.098 L409.906 310.015 L406.208 310.015 L406.208 316.126 L402.718 316.126 L402.718 310.015 L391.017 310.015 L391.017 306.629 L401.798 290.206 Z" fill="#000000" fill-rule="evenodd" fill-opacity="1" /><path clip-path="url(#clip590)" d="M 0 0 M125.321 157.953 Q127.838 158.492 129.245 160.193 Q130.668 161.894 130.668 164.394 Q130.668 168.231 128.029 170.332 Q125.39 172.433 120.529 172.433 Q118.897 172.433 117.161 172.103 Q115.443 171.79 113.602 171.148 L113.602 167.762 Q115.061 168.613 116.797 169.047 Q118.533 169.481 120.425 169.481 Q123.724 169.481 125.443 168.179 Q127.179 166.877 127.179 164.394 Q127.179 162.103 125.564 160.818 Q123.967 159.516 121.102 159.516 L118.082 159.516 L118.082 156.634 L121.241 156.634 Q123.828 156.634 125.2 155.61 Q126.571 154.568 126.571 152.624 Q126.571 150.627 125.147 149.568 Q123.741 148.492 121.102 148.492 Q119.661 148.492 118.012 148.804 Q116.363 149.117 114.384 149.776 L114.384 146.651 Q116.38 146.096 118.116 145.818 Q119.87 145.54 121.415 145.54 Q125.408 145.54 127.734 147.363 Q130.061 149.169 130.061 152.259 Q130.061 154.412 128.828 155.905 Q127.595 157.381 125.321 157.953 Z" fill="#000000" fill-rule="evenodd" fill-opacity="1" /><path clip-path="url(#clip590)" d="M 0 0 M147.942 157.953 Q150.46 158.492 151.866 160.193 Q153.29 161.894 153.29 164.394 Q153.29 168.231 150.651 170.332 Q148.012 172.433 143.151 172.433 Q141.519 172.433 139.783 172.103 Q138.064 171.79 136.224 171.148 L136.224 167.762 Q137.682 168.613 139.418 169.047 Q141.154 169.481 143.047 169.481 Q146.345 169.481 148.064 168.179 Q149.8 166.877 149.8 164.394 Q149.8 162.103 148.186 160.818 Q146.588 159.516 143.724 159.516 L140.703 159.516 L140.703 156.634 L143.863 156.634 Q146.449 156.634 147.821 155.61 Q149.192 154.568 149.192 152.624 Q149.192 150.627 147.769 149.568 Q146.363 148.492 143.724 148.492 Q142.283 148.492 140.633 148.804 Q138.984 149.117 137.005 149.776 L137.005 146.651 Q139.002 146.096 140.738 145.818 Q142.491 145.54 144.036 145.54 Q148.029 145.54 150.356 147.363 Q152.682 149.169 152.682 152.259 Q152.682 154.412 151.449 155.905 Q150.217 157.381 147.942 157.953 Z" fill="#000000" fill-rule="evenodd" fill-opacity="1" /><circle clip-path="url(#clip592)" cx="710.146" cy="468.098" r="14" fill="#0000ff" fill-rule="evenodd" fill-opacity="1" stroke="none"/>
<circle clip-path="url(#clip592)" cx="752.756" cy="540.197" r="14" fill="#0000ff" fill-rule="evenodd" fill-opacity="1" stroke="none"/>
<circle clip-path="url(#clip592)" cx="624.925" cy="323.902" r="14" fill="#0000ff" fill-rule="evenodd" fill-opacity="1" stroke="none"/>
<circle clip-path="url(#clip592)" cx="667.535" cy="396" r="14" fill="#0000ff" fill-rule="evenodd" fill-opacity="1" stroke="none"/>
<circle clip-path="url(#clip592)" cx="710.146" cy="323.902" r="14" fill="#0000ff" fill-rule="evenodd" fill-opacity="1" stroke="none"/>
<path clip-path="url(#clip590)" d="M 0 0 M710.649 457.371 L716.378 457.371 L716.378 437.597 L710.146 438.847 L710.146 435.652 L716.344 434.402 L719.85 434.402 L719.85 457.371 L725.58 457.371 L725.58 460.322 L710.649 460.322 L710.649 457.371 Z" fill="#000000" fill-rule="evenodd" fill-opacity="1" /><path clip-path="url(#clip590)" d="M 0 0 M740.163 436.711 Q737.455 436.711 736.083 439.385 Q734.729 442.041 734.729 447.388 Q734.729 452.718 736.083 455.392 Q737.455 458.048 740.163 458.048 Q742.889 458.048 744.243 455.392 Q745.614 452.718 745.614 447.388 Q745.614 442.041 744.243 439.385 Q742.889 436.711 740.163 436.711 M740.163 433.934 Q744.52 433.934 746.812 437.388 Q749.121 440.826 749.121 447.388 Q749.121 453.933 746.812 457.388 Q744.52 460.826 740.163 460.826 Q735.805 460.826 733.496 457.388 Q731.205 453.933 731.205 447.388 Q731.205 440.826 733.496 437.388 Q735.805 433.934 740.163 433.934 Z" fill="#000000" fill-rule="evenodd" fill-opacity="1" /><path clip-path="url(#clip590)" d="M 0 0 M753.259 529.469 L758.989 529.469 L758.989 509.695 L752.756 510.945 L752.756 507.751 L758.954 506.501 L762.461 506.501 L762.461 529.469 L768.19 529.469 L768.19 532.421 L753.259 532.421 L753.259 529.469 Z" fill="#000000" fill-rule="evenodd" fill-opacity="1" /><path clip-path="url(#clip590)" d="M 0 0 M775.881 529.469 L781.61 529.469 L781.61 509.695 L775.377 510.945 L775.377 507.751 L781.575 506.501 L785.082 506.501 L785.082 529.469 L790.811 529.469 L790.811 532.421 L775.881 532.421 L775.881 529.469 Z" fill="#000000" fill-rule="evenodd" fill-opacity="1" /><path clip-path="url(#clip590)" d="M 0 0 M636.644 302.15 Q639.161 302.688 640.567 304.39 Q641.991 306.091 641.991 308.591 Q641.991 312.428 639.352 314.528 Q636.713 316.629 631.852 316.629 Q630.22 316.629 628.484 316.299 Q626.765 315.987 624.925 315.344 L624.925 311.959 Q626.384 312.81 628.12 313.244 Q629.856 313.678 631.748 313.678 Q635.047 313.678 636.765 312.376 Q638.502 311.074 638.502 308.591 Q638.502 306.299 636.887 305.015 Q635.29 303.713 632.425 303.713 L629.404 303.713 L629.404 300.831 L632.564 300.831 Q635.151 300.831 636.522 299.806 Q637.894 298.765 637.894 296.82 Q637.894 294.824 636.47 293.765 Q635.064 292.688 632.425 292.688 Q630.984 292.688 629.335 293.001 Q627.686 293.313 625.706 293.973 L625.706 290.848 Q627.703 290.292 629.439 290.015 Q631.193 289.737 632.738 289.737 Q636.731 289.737 639.057 291.56 Q641.383 293.365 641.383 296.456 Q641.383 298.608 640.151 300.101 Q638.918 301.577 636.644 302.15 Z" fill="#000000" fill-rule="evenodd" fill-opacity="1" /><path clip-path="url(#clip590)" d="M 0 0 M658.276 293.261 L649.422 307.098 L658.276 307.098 L658.276 293.261 M657.356 290.206 L661.765 290.206 L661.765 307.098 L665.463 307.098 L665.463 310.015 L661.765 310.015 L661.765 316.126 L658.276 316.126 L658.276 310.015 L646.574 310.015 L646.574 306.629 L657.356 290.206 Z" fill="#000000" fill-rule="evenodd" fill-opacity="1" /><path clip-path="url(#clip590)" d="M 0 0 M679.254 374.248 Q681.771 374.787 683.178 376.488 Q684.601 378.189 684.601 380.689 Q684.601 384.526 681.962 386.627 Q679.324 388.727 674.462 388.727 Q672.831 388.727 671.094 388.398 Q669.376 388.085 667.535 387.443 L667.535 384.057 Q668.994 384.908 670.73 385.342 Q672.466 385.776 674.358 385.776 Q677.657 385.776 679.376 384.474 Q681.112 383.172 681.112 380.689 Q681.112 378.398 679.497 377.113 Q677.9 375.811 675.035 375.811 L672.015 375.811 L672.015 372.929 L675.174 372.929 Q677.761 372.929 679.133 371.905 Q680.504 370.863 680.504 368.919 Q680.504 366.922 679.081 365.863 Q677.674 364.787 675.035 364.787 Q673.594 364.787 671.945 365.099 Q670.296 365.412 668.317 366.071 L668.317 362.946 Q670.313 362.391 672.049 362.113 Q673.803 361.835 675.348 361.835 Q679.341 361.835 681.667 363.658 Q683.994 365.464 683.994 368.554 Q683.994 370.707 682.761 372.2 Q681.528 373.675 679.254 374.248 Z" fill="#000000" fill-rule="evenodd" fill-opacity="1" /><path clip-path="url(#clip590)" d="M 0 0 M691.285 362.304 L705.053 362.304 L705.053 365.255 L694.497 365.255 L694.497 371.61 Q695.261 371.349 696.025 371.228 Q696.789 371.089 697.553 371.089 Q701.893 371.089 704.428 373.467 Q706.962 375.846 706.962 379.908 Q706.962 384.092 704.358 386.418 Q701.754 388.727 697.014 388.727 Q695.383 388.727 693.681 388.45 Q691.997 388.172 690.192 387.616 L690.192 384.092 Q691.754 384.943 693.421 385.359 Q695.087 385.776 696.945 385.776 Q699.948 385.776 701.702 384.196 Q703.455 382.616 703.455 379.908 Q703.455 377.2 701.702 375.62 Q699.948 374.04 696.945 374.04 Q695.539 374.04 694.133 374.353 Q692.744 374.665 691.285 375.325 L691.285 362.304 Z" fill="#000000" fill-rule="evenodd" fill-opacity="1" /><path clip-path="url(#clip590)" d="M 0 0 M721.864 302.15 Q724.382 302.688 725.788 304.39 Q727.212 306.091 727.212 308.591 Q727.212 312.428 724.573 314.528 Q721.934 316.629 717.073 316.629 Q715.441 316.629 713.705 316.299 Q711.986 315.987 710.146 315.344 L710.146 311.959 Q711.604 312.81 713.34 313.244 Q715.076 313.678 716.969 313.678 Q720.267 313.678 721.986 312.376 Q723.722 311.074 723.722 308.591 Q723.722 306.299 722.107 305.015 Q720.51 303.713 717.646 303.713 L714.625 303.713 L714.625 300.831 L717.785 300.831 Q720.371 300.831 721.743 299.806 Q723.114 298.765 723.114 296.82 Q723.114 294.824 721.691 293.765 Q720.285 292.688 717.646 292.688 Q716.205 292.688 714.555 293.001 Q712.906 293.313 710.927 293.973 L710.927 290.848 Q712.923 290.292 714.66 290.015 Q716.413 289.737 717.958 289.737 Q721.951 289.737 724.278 291.56 Q726.604 293.365 726.604 296.456 Q726.604 298.608 725.371 300.101 Q724.139 301.577 721.864 302.15 Z" fill="#000000" fill-rule="evenodd" fill-opacity="1" /><path clip-path="url(#clip590)" d="M 0 0 M741.795 301.768 Q739.434 301.768 738.045 303.383 Q736.673 304.997 736.673 307.81 Q736.673 310.605 738.045 312.237 Q739.434 313.851 741.795 313.851 Q744.156 313.851 745.527 312.237 Q746.916 310.605 746.916 307.81 Q746.916 304.997 745.527 303.383 Q744.156 301.768 741.795 301.768 M748.757 290.779 L748.757 293.973 Q747.437 293.348 746.083 293.018 Q744.746 292.688 743.427 292.688 Q739.955 292.688 738.114 295.032 Q736.291 297.376 736.031 302.115 Q737.055 300.605 738.6 299.806 Q740.146 298.99 742.003 298.99 Q745.909 298.99 748.166 301.369 Q750.441 303.73 750.441 307.81 Q750.441 311.803 748.079 314.216 Q745.718 316.629 741.795 316.629 Q737.298 316.629 734.92 313.192 Q732.541 309.737 732.541 303.192 Q732.541 297.046 735.458 293.4 Q738.375 289.737 743.288 289.737 Q744.607 289.737 745.944 289.997 Q747.298 290.258 748.757 290.779 Z" fill="#000000" fill-rule="evenodd" fill-opacity="1" /><circle clip-path="url(#clip592)" cx="454.484" cy="323.902" r="14" fill="#0000ff" fill-rule="evenodd" fill-opacity="1" stroke="none"/>
<circle clip-path="url(#clip592)" cx="497.094" cy="396" r="14" fill="#0000ff" fill-rule="evenodd" fill-opacity="1" stroke="none"/>
<circle clip-path="url(#clip592)" cx="539.705" cy="323.902" r="14" fill="#0000ff" fill-rule="evenodd" fill-opacity="1" stroke="none"/>
<circle clip-path="url(#clip592)" cx="539.705" cy="179.705" r="14" fill="#0000ff" fill-rule="evenodd" fill-opacity="1" stroke="none"/>
<circle clip-path="url(#clip592)" cx="582.315" cy="251.803" r="14" fill="#0000ff" fill-rule="evenodd" fill-opacity="1" stroke="none"/>
<circle clip-path="url(#clip592)" cx="624.925" cy="179.705" r="14" fill="#0000ff" fill-rule="evenodd" fill-opacity="1" stroke="none"/>
<circle clip-path="url(#clip592)" cx="667.535" cy="107.607" r="14" fill="#0000ff" fill-rule="evenodd" fill-opacity="1" stroke="none"/>
<circle clip-path="url(#clip592)" cx="198.823" cy="179.705" r="14" fill="#0000ff" fill-rule="evenodd" fill-opacity="1" stroke="none"/>
<circle clip-path="url(#clip592)" cx="241.433" cy="251.803" r="14" fill="#0000ff" fill-rule="evenodd" fill-opacity="1" stroke="none"/>
<circle clip-path="url(#clip592)" cx="284.043" cy="179.705" r="14" fill="#0000ff" fill-rule="evenodd" fill-opacity="1" stroke="none"/>
<circle clip-path="url(#clip592)" cx="326.654" cy="107.607" r="14" fill="#0000ff" fill-rule="evenodd" fill-opacity="1" stroke="none"/>
<circle clip-path="url(#clip592)" cx="710.146" cy="179.705" r="14" fill="#0000ff" fill-rule="evenodd" fill-opacity="1" stroke="none"/>
<circle clip-path="url(#clip592)" cx="752.756" cy="251.803" r="14" fill="#0000ff" fill-rule="evenodd" fill-opacity="1" stroke="none"/>
<circle clip-path="url(#clip592)" cx="369.264" cy="179.705" r="14" fill="#0000ff" fill-rule="evenodd" fill-opacity="1" stroke="none"/>
<circle clip-path="url(#clip592)" cx="411.874" cy="251.803" r="14" fill="#0000ff" fill-rule="evenodd" fill-opacity="1" stroke="none"/>
<circle clip-path="url(#clip592)" cx="454.484" cy="179.705" r="14" fill="#0000ff" fill-rule="evenodd" fill-opacity="1" stroke="none"/>
<circle clip-path="url(#clip592)" cx="497.094" cy="107.607" r="14" fill="#0000ff" fill-rule="evenodd" fill-opacity="1" stroke="none"/>
<circle clip-path="url(#clip592)" cx="156.213" cy="107.607" r="14" fill="#0000ff" fill-rule="evenodd" fill-opacity="1" stroke="none"/>
<path clip-path="url(#clip590)" d="M 0 0 M454.988 313.174 L460.717 313.174 L460.717 293.4 L454.484 294.65 L454.484 291.456 L460.682 290.206 L464.189 290.206 L464.189 313.174 L469.918 313.174 L469.918 316.126 L454.988 316.126 L454.988 313.174 Z" fill="#000000" fill-rule="evenodd" fill-opacity="1" /><path clip-path="url(#clip590)" d="M 0 0 M501.313 385.273 L513.553 385.273 L513.553 388.224 L497.094 388.224 L497.094 385.273 Q499.091 383.207 502.528 379.734 Q505.983 376.245 506.869 375.238 Q508.553 373.346 509.212 372.044 Q509.89 370.724 509.89 369.457 Q509.89 367.391 508.431 366.089 Q506.99 364.787 504.664 364.787 Q503.015 364.787 501.174 365.36 Q499.351 365.932 497.268 367.096 L497.268 363.554 Q499.386 362.703 501.226 362.269 Q503.067 361.835 504.594 361.835 Q508.622 361.835 511.018 363.849 Q513.414 365.863 513.414 369.231 Q513.414 370.828 512.806 372.269 Q512.216 373.693 510.636 375.637 Q510.202 376.141 507.876 378.554 Q505.549 380.95 501.313 385.273 Z" fill="#000000" fill-rule="evenodd" fill-opacity="1" /><path clip-path="url(#clip590)" d="M 0 0 M551.423 302.15 Q553.941 302.688 555.347 304.39 Q556.771 306.091 556.771 308.591 Q556.771 312.428 554.132 314.528 Q551.493 316.629 546.632 316.629 Q545 316.629 543.264 316.299 Q541.545 315.987 539.705 315.344 L539.705 311.959 Q541.163 312.81 542.899 313.244 Q544.635 313.678 546.528 313.678 Q549.826 313.678 551.545 312.376 Q553.281 311.074 553.281 308.591 Q553.281 306.299 551.666 305.015 Q550.069 303.713 547.205 303.713 L544.184 303.713 L544.184 300.831 L547.344 300.831 Q549.93 300.831 551.302 299.806 Q552.673 298.765 552.673 296.82 Q552.673 294.824 551.25 293.765 Q549.844 292.688 547.205 292.688 Q545.764 292.688 544.114 293.001 Q542.465 293.313 540.486 293.973 L540.486 290.848 Q542.482 290.292 544.219 290.015 Q545.972 289.737 547.517 289.737 Q551.51 289.737 553.837 291.56 Q556.163 293.365 556.163 296.456 Q556.163 298.608 554.93 300.101 Q553.698 301.577 551.423 302.15 Z" fill="#000000" fill-rule="evenodd" fill-opacity="1" /><path clip-path="url(#clip590)" d="M 0 0 M551.406 149.065 L542.552 162.901 L551.406 162.901 L551.406 149.065 M550.486 146.009 L554.896 146.009 L554.896 162.901 L558.594 162.901 L558.594 165.818 L554.896 165.818 L554.896 171.929 L551.406 171.929 L551.406 165.818 L539.705 165.818 L539.705 162.433 L550.486 146.009 Z" fill="#000000" fill-rule="evenodd" fill-opacity="1" /><path clip-path="url(#clip590)" d="M 0 0 M583.409 218.107 L597.176 218.107 L597.176 221.059 L586.62 221.059 L586.62 227.413 Q587.384 227.152 588.148 227.031 Q588.912 226.892 589.676 226.892 Q594.016 226.892 596.551 229.27 Q599.086 231.649 599.086 235.711 Q599.086 239.895 596.482 242.222 Q593.877 244.531 589.138 244.531 Q587.506 244.531 585.805 244.253 Q584.121 243.975 582.315 243.42 L582.315 239.895 Q583.877 240.746 585.544 241.163 Q587.211 241.579 589.068 241.579 Q592.072 241.579 593.825 240 Q595.579 238.42 595.579 235.711 Q595.579 233.003 593.825 231.423 Q592.072 229.843 589.068 229.843 Q587.662 229.843 586.256 230.156 Q584.867 230.468 583.409 231.128 L583.409 218.107 Z" fill="#000000" fill-rule="evenodd" fill-opacity="1" /><path clip-path="url(#clip590)" d="M 0 0 M634.179 157.571 Q631.818 157.571 630.429 159.186 Q629.057 160.801 629.057 163.613 Q629.057 166.408 630.429 168.04 Q631.818 169.655 634.179 169.655 Q636.54 169.655 637.911 168.04 Q639.3 166.408 639.3 163.613 Q639.3 160.801 637.911 159.186 Q636.54 157.571 634.179 157.571 M641.14 146.582 L641.14 149.776 Q639.821 149.151 638.467 148.822 Q637.13 148.492 635.811 148.492 Q632.338 148.492 630.498 150.835 Q628.675 153.179 628.415 157.919 Q629.439 156.408 630.984 155.61 Q632.529 154.794 634.387 154.794 Q638.293 154.794 640.55 157.172 Q642.824 159.533 642.824 163.613 Q642.824 167.606 640.463 170.019 Q638.102 172.433 634.179 172.433 Q629.682 172.433 627.304 168.995 Q624.925 165.54 624.925 158.995 Q624.925 152.849 627.842 149.203 Q630.758 145.54 635.672 145.54 Q636.991 145.54 638.328 145.801 Q639.682 146.061 641.14 146.582 Z" fill="#000000" fill-rule="evenodd" fill-opacity="1" /><path clip-path="url(#clip590)" d="M 0 0 M676.424 87.5218 Q673.924 87.5218 672.483 88.8586 Q671.06 90.1954 671.06 92.5391 Q671.06 94.8828 672.483 96.2196 Q673.924 97.5564 676.424 97.5564 Q678.924 97.5564 680.365 96.2196 Q681.806 94.8655 681.806 92.5391 Q681.806 90.1954 680.365 88.8586 Q678.942 87.5218 676.424 87.5218 M672.917 86.0287 Q670.66 85.4732 669.393 83.928 Q668.143 82.3829 668.143 80.1607 Q668.143 77.0531 670.348 75.2475 Q672.57 73.442 676.424 73.442 Q680.296 73.442 682.501 75.2475 Q684.705 77.0531 684.705 80.1607 Q684.705 82.3829 683.438 83.928 Q682.188 85.4732 679.949 86.0287 Q682.483 86.619 683.89 88.3377 Q685.313 90.0565 685.313 92.5391 Q685.313 96.3064 683.004 98.3203 Q680.712 100.334 676.424 100.334 Q672.136 100.334 669.827 98.3203 Q667.535 96.3064 667.535 92.5391 Q667.535 90.0565 668.959 88.3377 Q670.383 86.619 672.917 86.0287 M671.633 80.4905 Q671.633 82.5044 672.883 83.6329 Q674.15 84.7614 676.424 84.7614 Q678.681 84.7614 679.949 83.6329 Q681.233 82.5044 681.233 80.4905 Q681.233 78.4767 679.949 77.3482 Q678.681 76.2197 676.424 76.2197 Q674.15 76.2197 672.883 77.3482 Q671.633 78.4767 671.633 80.4905 Z" fill="#000000" fill-rule="evenodd" fill-opacity="1" /><path clip-path="url(#clip590)" d="M 0 0 M199.326 168.978 L205.055 168.978 L205.055 149.203 L198.823 150.453 L198.823 147.259 L205.021 146.009 L208.528 146.009 L208.528 168.978 L214.257 168.978 L214.257 171.929 L199.326 171.929 L199.326 168.978 Z" fill="#000000" fill-rule="evenodd" fill-opacity="1" /><path clip-path="url(#clip590)" d="M 0 0 M228.84 148.318 Q226.132 148.318 224.76 150.992 Q223.406 153.648 223.406 158.995 Q223.406 164.325 224.76 166.999 Q226.132 169.655 228.84 169.655 Q231.566 169.655 232.92 166.999 Q234.291 164.325 234.291 158.995 Q234.291 153.648 232.92 150.992 Q231.566 148.318 228.84 148.318 M228.84 145.54 Q233.198 145.54 235.489 148.995 Q237.798 152.433 237.798 158.995 Q237.798 165.54 235.489 168.995 Q233.198 172.433 228.84 172.433 Q224.482 172.433 222.173 168.995 Q219.882 165.54 219.882 158.995 Q219.882 152.433 222.173 148.995 Q224.482 145.54 228.84 145.54 Z" fill="#000000" fill-rule="evenodd" fill-opacity="1" /><path clip-path="url(#clip590)" d="M 0 0 M241.937 241.076 L247.666 241.076 L247.666 221.302 L241.433 222.552 L241.433 219.357 L247.631 218.107 L251.138 218.107 L251.138 241.076 L256.867 241.076 L256.867 244.027 L241.937 244.027 L241.937 241.076 Z" fill="#000000" fill-rule="evenodd" fill-opacity="1" /><path clip-path="url(#clip590)" d="M 0 0 M264.558 241.076 L270.287 241.076 L270.287 221.302 L264.054 222.552 L264.054 219.357 L270.252 218.107 L273.759 218.107 L273.759 241.076 L279.488 241.076 L279.488 244.027 L264.558 244.027 L264.558 241.076 Z" fill="#000000" fill-rule="evenodd" fill-opacity="1" /><path clip-path="url(#clip590)" d="M 0 0 M284.547 168.978 L290.276 168.978 L290.276 149.203 L284.043 150.453 L284.043 147.259 L290.241 146.009 L293.748 146.009 L293.748 168.978 L299.477 168.978 L299.477 171.929 L284.547 171.929 L284.547 168.978 Z" fill="#000000" fill-rule="evenodd" fill-opacity="1" /><path clip-path="url(#clip590)" d="M 0 0 M309.581 168.978 L321.821 168.978 L321.821 171.929 L305.363 171.929 L305.363 168.978 Q307.359 166.912 310.797 163.44 Q314.251 159.95 315.137 158.943 Q316.821 157.051 317.481 155.749 Q318.158 154.429 318.158 153.162 Q318.158 151.096 316.699 149.794 Q315.258 148.492 312.932 148.492 Q311.283 148.492 309.442 149.065 Q307.62 149.637 305.536 150.801 L305.536 147.259 Q307.654 146.408 309.495 145.974 Q311.335 145.54 312.863 145.54 Q316.89 145.54 319.286 147.554 Q321.682 149.568 321.682 152.936 Q321.682 154.533 321.074 155.974 Q320.484 157.398 318.904 159.342 Q318.47 159.846 316.144 162.259 Q313.817 164.655 309.581 168.978 Z" fill="#000000" fill-rule="evenodd" fill-opacity="1" /><path clip-path="url(#clip590)" d="M 0 0 M327.157 96.8793 L332.886 96.8793 L332.886 77.1051 L326.654 78.3551 L326.654 75.1607 L332.851 73.9107 L336.358 73.9107 L336.358 96.8793 L342.087 96.8793 L342.087 99.8307 L327.157 99.8307 L327.157 96.8793 Z" fill="#000000" fill-rule="evenodd" fill-opacity="1" /><path clip-path="url(#clip590)" d="M 0 0 M358.806 76.9663 L349.952 90.803 L358.806 90.803 L358.806 76.9663 M357.886 73.9107 L362.296 73.9107 L362.296 90.803 L365.994 90.803 L365.994 93.7196 L362.296 93.7196 L362.296 99.8307 L358.806 99.8307 L358.806 93.7196 L347.105 93.7196 L347.105 90.3342 L357.886 73.9107 Z" fill="#000000" fill-rule="evenodd" fill-opacity="1" /><path clip-path="url(#clip590)" d="M 0 0 M710.649 168.978 L716.378 168.978 L716.378 149.203 L710.146 150.453 L710.146 147.259 L716.344 146.009 L719.85 146.009 L719.85 168.978 L725.58 168.978 L725.58 171.929 L710.649 171.929 L710.649 168.978 Z" fill="#000000" fill-rule="evenodd" fill-opacity="1" /><path clip-path="url(#clip590)" d="M 0 0 M732.767 171.391 L732.767 168.196 Q734.087 168.821 735.441 169.151 Q736.795 169.481 738.097 169.481 Q741.569 169.481 743.392 167.155 Q745.232 164.811 745.493 160.054 Q744.486 161.547 742.941 162.346 Q741.396 163.144 739.521 163.144 Q735.632 163.144 733.357 160.801 Q731.1 158.44 731.1 154.36 Q731.1 150.367 733.462 147.953 Q735.823 145.54 739.746 145.54 Q744.243 145.54 746.604 148.995 Q748.982 152.433 748.982 158.995 Q748.982 165.124 746.066 168.787 Q743.166 172.433 738.253 172.433 Q736.934 172.433 735.58 172.172 Q734.225 171.912 732.767 171.391 M739.746 160.401 Q742.107 160.401 743.479 158.787 Q744.868 157.172 744.868 154.36 Q744.868 151.565 743.479 149.95 Q742.107 148.318 739.746 148.318 Q737.385 148.318 735.996 149.95 Q734.625 151.565 734.625 154.36 Q734.625 157.172 735.996 158.787 Q737.385 160.401 739.746 160.401 Z" fill="#000000" fill-rule="evenodd" fill-opacity="1" /><path clip-path="url(#clip590)" d="M 0 0 M756.975 241.076 L769.214 241.076 L769.214 244.027 L752.756 244.027 L752.756 241.076 Q754.752 239.01 758.19 235.538 Q761.645 232.048 762.53 231.041 Q764.214 229.149 764.874 227.847 Q765.551 226.527 765.551 225.26 Q765.551 223.194 764.093 221.892 Q762.652 220.59 760.325 220.59 Q758.676 220.59 756.836 221.163 Q755.013 221.736 752.93 222.899 L752.93 219.357 Q755.048 218.507 756.888 218.073 Q758.728 217.639 760.256 217.639 Q764.284 217.639 766.679 219.652 Q769.075 221.666 769.075 225.034 Q769.075 226.632 768.468 228.073 Q767.877 229.496 766.297 231.441 Q765.863 231.944 763.537 234.357 Q761.211 236.753 756.975 241.076 Z" fill="#000000" fill-rule="evenodd" fill-opacity="1" /><path clip-path="url(#clip590)" d="M 0 0 M784.075 220.416 Q781.367 220.416 779.995 223.09 Q778.641 225.746 778.641 231.093 Q778.641 236.423 779.995 239.097 Q781.367 241.753 784.075 241.753 Q786.801 241.753 788.155 239.097 Q789.527 236.423 789.527 231.093 Q789.527 225.746 788.155 223.09 Q786.801 220.416 784.075 220.416 M784.075 217.639 Q788.433 217.639 790.724 221.093 Q793.033 224.531 793.033 231.093 Q793.033 237.639 790.724 241.093 Q788.433 244.531 784.075 244.531 Q779.718 244.531 777.409 241.093 Q775.117 237.639 775.117 231.093 Q775.117 224.531 777.409 221.093 Q779.718 217.639 784.075 217.639 Z" fill="#000000" fill-rule="evenodd" fill-opacity="1" /><path clip-path="url(#clip590)" d="M 0 0 M373.483 168.978 L385.722 168.978 L385.722 171.929 L369.264 171.929 L369.264 168.978 Q371.26 166.912 374.698 163.44 Q378.153 159.95 379.038 158.943 Q380.722 157.051 381.382 155.749 Q382.059 154.429 382.059 153.162 Q382.059 151.096 380.601 149.794 Q379.16 148.492 376.833 148.492 Q375.184 148.492 373.344 149.065 Q371.521 149.637 369.437 150.801 L369.437 147.259 Q371.555 146.408 373.396 145.974 Q375.236 145.54 376.764 145.54 Q380.791 145.54 383.187 147.554 Q385.583 149.568 385.583 152.936 Q385.583 154.533 384.976 155.974 Q384.385 157.398 382.805 159.342 Q382.371 159.846 380.045 162.259 Q377.719 164.655 373.483 168.978 Z" fill="#000000" fill-rule="evenodd" fill-opacity="1" /><path clip-path="url(#clip590)" d="M 0 0 M393.118 146.009 L406.885 146.009 L406.885 148.96 L396.33 148.96 L396.33 155.315 Q397.093 155.054 397.857 154.933 Q398.621 154.794 399.385 154.794 Q403.725 154.794 406.26 157.172 Q408.795 159.551 408.795 163.613 Q408.795 167.797 406.191 170.123 Q403.587 172.433 398.847 172.433 Q397.215 172.433 395.514 172.155 Q393.83 171.877 392.024 171.321 L392.024 167.797 Q393.587 168.648 395.253 169.064 Q396.92 169.481 398.778 169.481 Q401.781 169.481 403.534 167.901 Q405.288 166.321 405.288 163.613 Q405.288 160.905 403.534 159.325 Q401.781 157.745 398.778 157.745 Q397.371 157.745 395.965 158.058 Q394.576 158.37 393.118 159.03 L393.118 146.009 Z" fill="#000000" fill-rule="evenodd" fill-opacity="1" /><path clip-path="url(#clip590)" d="M 0 0 M416.093 241.076 L428.332 241.076 L428.332 244.027 L411.874 244.027 L411.874 241.076 Q413.871 239.01 417.308 235.538 Q420.763 232.048 421.648 231.041 Q423.332 229.149 423.992 227.847 Q424.669 226.527 424.669 225.26 Q424.669 223.194 423.211 221.892 Q421.77 220.59 419.443 220.59 Q417.794 220.59 415.954 221.163 Q414.131 221.736 412.048 222.899 L412.048 219.357 Q414.166 218.507 416.006 218.073 Q417.846 217.639 419.374 217.639 Q423.402 217.639 425.798 219.652 Q428.193 221.666 428.193 225.034 Q428.193 226.632 427.586 228.073 Q426.995 229.496 425.416 231.441 Q424.982 231.944 422.655 234.357 Q420.329 236.753 416.093 241.076 Z" fill="#000000" fill-rule="evenodd" fill-opacity="1" /><path clip-path="url(#clip590)" d="M 0 0 M443.627 229.67 Q441.266 229.67 439.877 231.284 Q438.506 232.899 438.506 235.711 Q438.506 238.507 439.877 240.138 Q441.266 241.753 443.627 241.753 Q445.988 241.753 447.36 240.138 Q448.749 238.507 448.749 235.711 Q448.749 232.899 447.36 231.284 Q445.988 229.67 443.627 229.67 M450.589 218.68 L450.589 221.875 Q449.27 221.25 447.915 220.92 Q446.579 220.59 445.259 220.59 Q441.787 220.59 439.947 222.934 Q438.124 225.277 437.863 230.017 Q438.888 228.507 440.433 227.708 Q441.978 226.892 443.836 226.892 Q447.742 226.892 449.999 229.27 Q452.273 231.632 452.273 235.711 Q452.273 239.704 449.912 242.118 Q447.551 244.531 443.627 244.531 Q439.131 244.531 436.752 241.093 Q434.374 237.639 434.374 231.093 Q434.374 224.948 437.291 221.302 Q440.207 217.639 445.12 217.639 Q446.44 217.639 447.777 217.899 Q449.131 218.159 450.589 218.68 Z" fill="#000000" fill-rule="evenodd" fill-opacity="1" /><path clip-path="url(#clip590)" d="M 0 0 M458.703 168.978 L470.942 168.978 L470.942 171.929 L454.484 171.929 L454.484 168.978 Q456.481 166.912 459.918 163.44 Q463.373 159.95 464.259 158.943 Q465.943 157.051 466.602 155.749 Q467.279 154.429 467.279 153.162 Q467.279 151.096 465.821 149.794 Q464.38 148.492 462.054 148.492 Q460.404 148.492 458.564 149.065 Q456.741 149.637 454.658 150.801 L454.658 147.259 Q456.776 146.408 458.616 145.974 Q460.456 145.54 461.984 145.54 Q466.012 145.54 468.408 147.554 Q470.804 149.568 470.804 152.936 Q470.804 154.533 470.196 155.974 Q469.606 157.398 468.026 159.342 Q467.592 159.846 465.265 162.259 Q462.939 164.655 458.703 168.978 Z" fill="#000000" fill-rule="evenodd" fill-opacity="1" /><path clip-path="url(#clip590)" d="M 0 0 M477.418 146.009 L494.085 146.009 L494.085 147.502 L484.675 171.929 L481.012 171.929 L489.866 148.96 L477.418 148.96 L477.418 146.009 Z" fill="#000000" fill-rule="evenodd" fill-opacity="1" /><path clip-path="url(#clip590)" d="M 0 0 M501.313 96.8793 L513.553 96.8793 L513.553 99.8307 L497.094 99.8307 L497.094 96.8793 Q499.091 94.8134 502.528 91.3412 Q505.983 87.8516 506.869 86.8447 Q508.553 84.9523 509.212 83.6503 Q509.89 82.3308 509.89 81.0635 Q509.89 78.9975 508.431 77.6954 Q506.99 76.3933 504.664 76.3933 Q503.015 76.3933 501.174 76.9663 Q499.351 77.5392 497.268 78.7024 L497.268 75.1607 Q499.386 74.31 501.226 73.876 Q503.067 73.442 504.594 73.442 Q508.622 73.442 511.018 75.4559 Q513.414 77.4697 513.414 80.8378 Q513.414 82.435 512.806 83.8759 Q512.216 85.2995 510.636 87.244 Q510.202 87.7475 507.876 90.1606 Q505.549 92.5565 501.313 96.8793 Z" fill="#000000" fill-rule="evenodd" fill-opacity="1" /><path clip-path="url(#clip590)" d="M 0 0 M521.018 99.2925 L521.018 96.0981 Q522.337 96.7231 523.692 97.053 Q525.046 97.3828 526.348 97.3828 Q529.82 97.3828 531.643 95.0564 Q533.483 92.7127 533.744 87.9558 Q532.737 89.4488 531.192 90.2474 Q529.646 91.046 527.771 91.046 Q523.883 91.046 521.608 88.7023 Q519.351 86.3412 519.351 82.2614 Q519.351 78.2683 521.712 75.8552 Q524.074 73.442 527.997 73.442 Q532.494 73.442 534.855 76.8968 Q537.233 80.3343 537.233 86.8968 Q537.233 93.0252 534.317 96.6884 Q531.417 100.334 526.504 100.334 Q525.185 100.334 523.83 100.074 Q522.476 99.8134 521.018 99.2925 M527.997 88.303 Q530.358 88.303 531.73 86.6884 Q533.119 85.0739 533.119 82.2614 Q533.119 79.4662 531.73 77.8517 Q530.358 76.2197 527.997 76.2197 Q525.636 76.2197 524.247 77.8517 Q522.876 79.4662 522.876 82.2614 Q522.876 85.0739 524.247 86.6884 Q525.636 88.303 527.997 88.303 Z" fill="#000000" fill-rule="evenodd" fill-opacity="1" /><path clip-path="url(#clip590)" d="M 0 0 M167.931 85.8551 Q170.449 86.3933 171.855 88.0947 Q173.278 89.7961 173.278 92.296 Q173.278 96.1328 170.64 98.2335 Q168.001 100.334 163.14 100.334 Q161.508 100.334 159.772 100.004 Q158.053 99.6918 156.213 99.0495 L156.213 95.6641 Q157.671 96.5148 159.407 96.9488 Q161.143 97.3828 163.035 97.3828 Q166.334 97.3828 168.053 96.0807 Q169.789 94.7787 169.789 92.296 Q169.789 90.0044 168.174 88.7197 Q166.577 87.4176 163.713 87.4176 L160.692 87.4176 L160.692 84.5357 L163.851 84.5357 Q166.438 84.5357 167.81 83.5114 Q169.181 82.4697 169.181 80.5253 Q169.181 78.5288 167.758 77.4697 Q166.351 76.3933 163.713 76.3933 Q162.272 76.3933 160.622 76.7058 Q158.973 77.0183 156.994 77.6781 L156.994 74.5531 Q158.99 73.9975 160.726 73.7198 Q162.48 73.442 164.025 73.442 Q168.018 73.442 170.344 75.2649 Q172.671 77.0704 172.671 80.1607 Q172.671 82.3135 171.438 83.8065 Q170.206 85.2822 167.931 85.8551 Z" fill="#000000" fill-rule="evenodd" fill-opacity="1" /><path clip-path="url(#clip590)" d="M 0 0 M179.962 73.9107 L193.73 73.9107 L193.73 76.8621 L183.174 76.8621 L183.174 83.2162 Q183.938 82.9558 184.702 82.8343 Q185.466 82.6954 186.23 82.6954 Q190.57 82.6954 193.105 85.0739 Q195.639 87.4523 195.639 91.5148 Q195.639 95.6988 193.035 98.0252 Q190.431 100.334 185.692 100.334 Q184.06 100.334 182.358 100.056 Q180.674 99.7786 178.869 99.2231 L178.869 95.6988 Q180.431 96.5495 182.098 96.9662 Q183.765 97.3828 185.622 97.3828 Q188.626 97.3828 190.379 95.803 Q192.133 94.2231 192.133 91.5148 Q192.133 88.8065 190.379 87.2266 Q188.626 85.6468 185.622 85.6468 Q184.216 85.6468 182.81 85.9593 Q181.421 86.2718 179.962 86.9315 L179.962 73.9107 Z" fill="#000000" fill-rule="evenodd" fill-opacity="1" /></svg>
