<?xml version="1.0" encoding="utf-8"?>
<svg xmlns="http://www.w3.org/2000/svg" xmlns:xlink="http://www.w3.org/1999/xlink" width="200" height="200" viewBox="0 0 800 800">
<defs>
  <clipPath id="clip470">
    <rect x="0" y="0" width="800" height="800"/>
  </clipPath>
</defs>
<path clip-path="url(#clip470)" d="
M0 800 L800 800 L800 0 L0 0  Z
  " fill="#ffffff" fill-rule="evenodd" fill-opacity="1"/>
<defs>
  <clipPath id="clip471">
    <rect x="160" y="80" width="561" height="561"/>
  </clipPath>
</defs>
<path clip-path="url(#clip470)" d="
M70.9921 729.008 L752.756 729.008 L752.756 62.9921 L70.9921 62.9921  Z
  " fill="#ffffff" fill-rule="evenodd" fill-opacity="1"/>
<defs>
  <clipPath id="clip472">
    <rect x="70" y="62" width="683" height="667"/>
  </clipPath>
</defs>
<polyline clip-path="url(#clip470)" style="stroke:#000000; stroke-width:4; stroke-opacity:1; fill:none" points="
  70.9921,729.008 752.756,729.008 
  "/>
<polyline clip-path="url(#clip470)" style="stroke:#000000; stroke-width:4; stroke-opacity:1; fill:none" points="
  70.9921,729.008 70.9921,721.016 
  "/>
<polyline clip-path="url(#clip470)" style="stroke:#000000; stroke-width:4; stroke-opacity:1; fill:none" points="
  241.433,729.008 241.433,721.016 
  "/>
<polyline clip-path="url(#clip470)" style="stroke:#000000; stroke-width:4; stroke-opacity:1; fill:none" points="
  411.874,729.008 411.874,721.016 
  "/>
<polyline clip-path="url(#clip470)" style="stroke:#000000; stroke-width:4; stroke-opacity:1; fill:none" points="
  582.315,729.008 582.315,721.016 
  "/>
<polyline clip-path="url(#clip470)" style="stroke:#000000; stroke-width:4; stroke-opacity:1; fill:none" points="
  752.756,729.008 752.756,721.016 
  "/>
<path clip-path="url(#clip470)" d="M 0 0 M40.9344 760.051 L70.6102 760.051 L70.6102 763.986 L40.9344 763.986 L40.9344 760.051 Z" fill="#000000" fill-rule="evenodd" fill-opacity="1" /><path clip-path="url(#clip470)" d="M 0 0 M84.7305 772.945 L101.05 772.945 L101.05 776.88 L79.1055 776.88 L79.1055 772.945 Q81.7675 770.19 86.3508 765.56 Q90.9573 760.908 92.1378 759.565 Q94.3832 757.042 95.2628 755.306 Q96.1656 753.547 96.1656 751.857 Q96.1656 749.102 94.2212 747.366 Q92.2999 745.63 89.198 745.63 Q86.999 745.63 84.5453 746.394 Q82.1148 747.158 79.337 748.709 L79.337 743.987 Q82.161 742.852 84.6147 742.274 Q87.0684 741.695 89.1055 741.695 Q94.4758 741.695 97.6702 744.38 Q100.865 747.065 100.865 751.556 Q100.865 753.686 100.054 755.607 Q99.2674 757.505 97.161 760.098 Q96.5823 760.769 93.4804 763.986 Q90.3786 767.181 84.7305 772.945 Z" fill="#000000" fill-rule="evenodd" fill-opacity="1" /><path clip-path="url(#clip470)" d="M 0 0 M211.19 760.051 L240.866 760.051 L240.866 763.986 L211.19 763.986 L211.19 760.051 Z" fill="#000000" fill-rule="evenodd" fill-opacity="1" /><path clip-path="url(#clip470)" d="M 0 0 M251.769 772.945 L259.408 772.945 L259.408 746.579 L251.097 748.246 L251.097 743.987 L259.361 742.32 L264.037 742.32 L264.037 772.945 L271.676 772.945 L271.676 776.88 L251.769 776.88 L251.769 772.945 Z" fill="#000000" fill-rule="evenodd" fill-opacity="1" /><path clip-path="url(#clip470)" d="M 0 0 M411.874 745.399 Q408.263 745.399 406.434 748.963 Q404.629 752.505 404.629 759.635 Q404.629 766.741 406.434 770.306 Q408.263 773.847 411.874 773.847 Q415.508 773.847 417.314 770.306 Q419.142 766.741 419.142 759.635 Q419.142 752.505 417.314 748.963 Q415.508 745.399 411.874 745.399 M411.874 741.695 Q417.684 741.695 420.74 746.301 Q423.818 750.885 423.818 759.635 Q423.818 768.361 420.74 772.968 Q417.684 777.551 411.874 777.551 Q406.064 777.551 402.985 772.968 Q399.93 768.361 399.93 759.635 Q399.93 750.885 402.985 746.301 Q406.064 741.695 411.874 741.695 Z" fill="#000000" fill-rule="evenodd" fill-opacity="1" /><path clip-path="url(#clip470)" d="M 0 0 M572.697 772.945 L580.336 772.945 L580.336 746.579 L572.026 748.246 L572.026 743.987 L580.29 742.32 L584.965 742.32 L584.965 772.945 L592.604 772.945 L592.604 776.88 L572.697 776.88 L572.697 772.945 Z" fill="#000000" fill-rule="evenodd" fill-opacity="1" /><path clip-path="url(#clip470)" d="M 0 0 M747.409 772.945 L763.728 772.945 L763.728 776.88 L741.784 776.88 L741.784 772.945 Q744.446 770.19 749.029 765.56 Q753.636 760.908 754.816 759.565 Q757.061 757.042 757.941 755.306 Q758.844 753.547 758.844 751.857 Q758.844 749.102 756.899 747.366 Q754.978 745.63 751.876 745.63 Q749.677 745.63 747.224 746.394 Q744.793 747.158 742.015 748.709 L742.015 743.987 Q744.839 742.852 747.293 742.274 Q749.747 741.695 751.784 741.695 Q757.154 741.695 760.348 744.38 Q763.543 747.065 763.543 751.556 Q763.543 753.686 762.733 755.607 Q761.946 757.505 759.839 760.098 Q759.261 760.769 756.159 763.986 Q753.057 767.181 747.409 772.945 Z" fill="#000000" fill-rule="evenodd" fill-opacity="1" /><polyline clip-path="url(#clip470)" style="stroke:#000000; stroke-width:4; stroke-opacity:1; fill:none" points="
  70.9921,729.008 70.9921,62.9921 
  "/>
<polyline clip-path="url(#clip470)" style="stroke:#000000; stroke-width:4; stroke-opacity:1; fill:none" points="
  70.9921,729.008 79.1733,729.008 
  "/>
<polyline clip-path="url(#clip470)" style="stroke:#000000; stroke-width:4; stroke-opacity:1; fill:none" points="
  70.9921,562.504 79.1733,562.504 
  "/>
<polyline clip-path="url(#clip470)" style="stroke:#000000; stroke-width:4; stroke-opacity:1; fill:none" points="
  70.9921,396 79.1733,396 
  "/>
<polyline clip-path="url(#clip470)" style="stroke:#000000; stroke-width:4; stroke-opacity:1; fill:none" points="
  70.9921,229.496 79.1733,229.496 
  "/>
<polyline clip-path="url(#clip470)" style="stroke:#000000; stroke-width:4; stroke-opacity:1; fill:none" points="
  70.9921,62.9921 79.1733,62.9921 
  "/>
<path clip-path="url(#clip470)" d="M 0 0 M-1.12329 729.459 L28.5525 729.459 L28.5525 733.394 L-1.12329 733.394 L-1.12329 729.459 Z" fill="#000000" fill-rule="evenodd" fill-opacity="1" /><path clip-path="url(#clip470)" d="M 0 0 M42.6728 742.353 L58.9921 742.353 L58.9921 746.288 L37.0478 746.288 L37.0478 742.353 Q39.7098 739.598 44.2931 734.968 Q48.8996 730.316 50.0801 728.973 Q52.3255 726.45 53.2051 724.714 Q54.1079 722.955 54.1079 721.265 Q54.1079 718.51 52.1635 716.774 Q50.2422 715.038 47.1403 715.038 Q44.9413 715.038 42.4876 715.802 Q40.057 716.566 37.2793 718.117 L37.2793 713.395 Q40.1033 712.26 42.557 711.682 Q45.0107 711.103 47.0477 711.103 Q52.4181 711.103 55.6125 713.788 Q58.8069 716.473 58.8069 720.964 Q58.8069 723.094 57.9968 725.015 Q57.2097 726.913 55.1033 729.506 Q54.5246 730.177 51.4227 733.394 Q48.3209 736.589 42.6728 742.353 Z" fill="#000000" fill-rule="evenodd" fill-opacity="1" /><path clip-path="url(#clip470)" d="M 0 0 M-1.49366 562.955 L28.1821 562.955 L28.1821 566.89 L-1.49366 566.89 L-1.49366 562.955 Z" fill="#000000" fill-rule="evenodd" fill-opacity="1" /><path clip-path="url(#clip470)" d="M 0 0 M39.0848 575.849 L46.7237 575.849 L46.7237 549.483 L38.4135 551.15 L38.4135 546.891 L46.6774 545.224 L51.3533 545.224 L51.3533 575.849 L58.9921 575.849 L58.9921 579.784 L39.0848 579.784 L39.0848 575.849 Z" fill="#000000" fill-rule="evenodd" fill-opacity="1" /><path clip-path="url(#clip470)" d="M 0 0 M47.0477 381.799 Q43.4367 381.799 41.608 385.363 Q39.8024 388.905 39.8024 396.035 Q39.8024 403.141 41.608 406.706 Q43.4367 410.248 47.0477 410.248 Q50.682 410.248 52.4875 406.706 Q54.3162 403.141 54.3162 396.035 Q54.3162 388.905 52.4875 385.363 Q50.682 381.799 47.0477 381.799 M47.0477 378.095 Q52.8579 378.095 55.9134 382.701 Q58.9921 387.285 58.9921 396.035 Q58.9921 404.762 55.9134 409.368 Q52.8579 413.951 47.0477 413.951 Q41.2376 413.951 38.1589 409.368 Q35.1034 404.762 35.1034 396.035 Q35.1034 387.285 38.1589 382.701 Q41.2376 378.095 47.0477 378.095 Z" fill="#000000" fill-rule="evenodd" fill-opacity="1" /><path clip-path="url(#clip470)" d="M 0 0 M39.0848 242.841 L46.7237 242.841 L46.7237 216.475 L38.4135 218.142 L38.4135 213.883 L46.6774 212.216 L51.3533 212.216 L51.3533 242.841 L58.9921 242.841 L58.9921 246.776 L39.0848 246.776 L39.0848 242.841 Z" fill="#000000" fill-rule="evenodd" fill-opacity="1" /><path clip-path="url(#clip470)" d="M 0 0 M42.6728 76.337 L58.9921 76.337 L58.9921 80.2721 L37.0478 80.2721 L37.0478 76.337 Q39.7098 73.5823 44.2931 68.9527 Q48.8996 64.3 50.0801 62.9574 Q52.3255 60.4343 53.2051 58.6982 Q54.1079 56.9389 54.1079 55.2491 Q54.1079 52.4945 52.1635 50.7584 Q50.2422 49.0223 47.1403 49.0223 Q44.9413 49.0223 42.4876 49.7862 Q40.057 50.5501 37.2793 52.101 L37.2793 47.3788 Q40.1033 46.2445 42.557 45.6658 Q45.0107 45.0871 47.0477 45.0871 Q52.4181 45.0871 55.6125 47.7723 Q58.8069 50.4575 58.8069 54.9482 Q58.8069 57.0778 57.9968 58.9991 Q57.2097 60.8972 55.1033 63.4898 Q54.5246 64.1611 51.4227 67.3787 Q48.3209 70.5731 42.6728 76.337 Z" fill="#000000" fill-rule="evenodd" fill-opacity="1" /><path clip-path="url(#clip470)" d="M 0 0 M340.532 22.3286 Q337.384 22.3286 335.532 24.4814 Q333.703 26.6341 333.703 30.3841 Q333.703 34.1109 335.532 36.2868 Q337.384 38.4396 340.532 38.4396 Q343.68 38.4396 345.509 36.2868 Q347.36 34.1109 347.36 30.3841 Q347.36 26.6341 345.509 24.4814 Q343.68 22.3286 340.532 22.3286 M349.814 7.67588 L349.814 11.9351 Q348.055 11.1018 346.249 10.662 Q344.467 10.2222 342.708 10.2222 Q338.078 10.2222 335.624 13.3472 Q333.194 16.4721 332.847 22.7915 Q334.212 20.7777 336.273 19.7129 Q338.333 18.6249 340.81 18.6249 Q346.018 18.6249 349.027 21.7962 Q352.06 24.9443 352.06 30.3841 Q352.06 35.7081 348.911 38.9257 Q345.763 42.1433 340.532 42.1433 Q334.536 42.1433 331.365 37.56 Q328.194 32.9535 328.194 24.2267 Q328.194 16.0323 332.083 11.1712 Q335.972 6.287 342.523 6.287 Q344.282 6.287 346.064 6.63422 Q347.87 6.98144 349.814 7.67588 Z" fill="#000000" fill-rule="evenodd" fill-opacity="1" /><path clip-path="url(#clip470)" d="M 0 0 M357.36 26.5878 L369.837 26.5878 L369.837 30.3841 L357.36 30.3841 L357.36 26.5878 Z" fill="#000000" fill-rule="evenodd" fill-opacity="1" /><path clip-path="url(#clip470)" d="M 0 0 M376.226 5.45367 L386.041 5.45367 L386.041 8.76384 L380.485 8.76384 L380.485 44.4118 L386.041 44.4118 L386.041 47.722 L376.226 47.722 L376.226 5.45367 Z" fill="#000000" fill-rule="evenodd" fill-opacity="1" /><path clip-path="url(#clip470)" d="M 0 0 M405.717 9.99069 Q402.106 9.99069 400.277 13.5555 Q398.471 17.0971 398.471 24.2267 Q398.471 31.3332 400.277 34.898 Q402.106 38.4396 405.717 38.4396 Q409.351 38.4396 411.156 34.898 Q412.985 31.3332 412.985 24.2267 Q412.985 17.0971 411.156 13.5555 Q409.351 9.99069 405.717 9.99069 M405.717 6.287 Q411.527 6.287 414.582 10.8935 Q417.661 15.4768 417.661 24.2267 Q417.661 32.9535 414.582 37.56 Q411.527 42.1433 405.717 42.1433 Q399.906 42.1433 396.828 37.56 Q393.772 32.9535 393.772 24.2267 Q393.772 15.4768 396.828 10.8935 Q399.906 6.287 405.717 6.287 Z" fill="#000000" fill-rule="evenodd" fill-opacity="1" /><path clip-path="url(#clip470)" d="M 0 0 M435.879 9.99069 Q432.267 9.99069 430.439 13.5555 Q428.633 17.0971 428.633 24.2267 Q428.633 31.3332 430.439 34.898 Q432.267 38.4396 435.879 38.4396 Q439.513 38.4396 441.318 34.898 Q443.147 31.3332 443.147 24.2267 Q443.147 17.0971 441.318 13.5555 Q439.513 9.99069 435.879 9.99069 M435.879 6.287 Q441.689 6.287 444.744 10.8935 Q447.823 15.4768 447.823 24.2267 Q447.823 32.9535 444.744 37.56 Q441.689 42.1433 435.879 42.1433 Q430.068 42.1433 426.99 37.56 Q423.934 32.9535 423.934 24.2267 Q423.934 15.4768 426.99 10.8935 Q430.068 6.287 435.879 6.287 Z" fill="#000000" fill-rule="evenodd" fill-opacity="1" /><path clip-path="url(#clip470)" d="M 0 0 M456.851 37.5368 L464.489 37.5368 L464.489 11.1712 L456.179 12.8379 L456.179 8.57866 L464.443 6.912 L469.119 6.912 L469.119 37.5368 L476.758 37.5368 L476.758 41.472 L456.851 41.472 L456.851 37.5368 Z" fill="#000000" fill-rule="evenodd" fill-opacity="1" /><path clip-path="url(#clip470)" d="M 0 0 M495.554 5.45367 L495.554 47.722 L485.739 47.722 L485.739 44.4118 L491.272 44.4118 L491.272 8.76384 L485.739 8.76384 L485.739 5.45367 L495.554 5.45367 Z" fill="#000000" fill-rule="evenodd" fill-opacity="1" /><circle clip-path="url(#clip472)" cx="454.484" cy="468.098" r="14" fill="#0000ff" fill-rule="evenodd" fill-opacity="1" stroke="none"/>
<circle clip-path="url(#clip472)" cx="539.705" cy="468.098" r="14" fill="#0000ff" fill-rule="evenodd" fill-opacity="1" stroke="none"/>
<circle clip-path="url(#clip472)" cx="539.705" cy="612.295" r="14" fill="#0000ff" fill-rule="evenodd" fill-opacity="1" stroke="none"/>
<circle clip-path="url(#clip472)" cx="582.315" cy="540.197" r="14" fill="#0000ff" fill-rule="evenodd" fill-opacity="1" stroke="none"/>
<circle clip-path="url(#clip472)" cx="624.925" cy="612.295" r="14" fill="#0000ff" fill-rule="evenodd" fill-opacity="1" stroke="none"/>
<circle clip-path="url(#clip472)" cx="667.535" cy="684.393" r="14" fill="#0000ff" fill-rule="evenodd" fill-opacity="1" stroke="none"/>
<circle clip-path="url(#clip472)" cx="198.823" cy="612.295" r="14" fill="#0000ff" fill-rule="evenodd" fill-opacity="1" stroke="none"/>
<circle clip-path="url(#clip472)" cx="284.043" cy="612.295" r="14" fill="#0000ff" fill-rule="evenodd" fill-opacity="1" stroke="none"/>
<circle clip-path="url(#clip472)" cx="326.654" cy="684.393" r="14" fill="#0000ff" fill-rule="evenodd" fill-opacity="1" stroke="none"/>
<circle clip-path="url(#clip472)" cx="710.146" cy="612.295" r="14" fill="#0000ff" fill-rule="evenodd" fill-opacity="1" stroke="none"/>
<circle clip-path="url(#clip472)" cx="369.264" cy="468.098" r="14" fill="#0000ff" fill-rule="evenodd" fill-opacity="1" stroke="none"/>
<circle clip-path="url(#clip472)" cx="369.264" cy="612.295" r="14" fill="#0000ff" fill-rule="evenodd" fill-opacity="1" stroke="none"/>
<circle clip-path="url(#clip472)" cx="411.874" cy="540.197" r="14" fill="#0000ff" fill-rule="evenodd" fill-opacity="1" stroke="none"/>
<circle clip-path="url(#clip472)" cx="454.484" cy="612.295" r="14" fill="#0000ff" fill-rule="evenodd" fill-opacity="1" stroke="none"/>
<circle clip-path="url(#clip472)" cx="497.094" cy="684.393" r="14" fill="#0000ff" fill-rule="evenodd" fill-opacity="1" stroke="none"/>
<circle clip-path="url(#clip472)" cx="113.602" cy="612.295" r="14" fill="#0000ff" fill-rule="evenodd" fill-opacity="1" stroke="none"/>
<circle clip-path="url(#clip472)" cx="624.925" cy="468.098" r="14" fill="#0000ff" fill-rule="evenodd" fill-opacity="1" stroke="none"/>
<circle clip-path="url(#clip472)" cx="156.213" cy="684.393" r="14" fill="#0000ff" fill-rule="evenodd" fill-opacity="1" stroke="none"/>
<path clip-path="url(#clip470)" d="M 0 0 M454.988 457.371 L460.717 457.371 L460.717 437.597 L454.484 438.847 L454.484 435.652 L460.682 434.402 L464.189 434.402 L464.189 457.371 L469.918 457.371 L469.918 460.322 L454.988 460.322 L454.988 457.371 Z" fill="#000000" fill-rule="evenodd" fill-opacity="1" /><path clip-path="url(#clip470)" d="M 0 0 M551.423 446.347 Q553.941 446.885 555.347 448.586 Q556.771 450.288 556.771 452.788 Q556.771 456.624 554.132 458.725 Q551.493 460.826 546.632 460.826 Q545 460.826 543.264 460.496 Q541.545 460.183 539.705 459.541 L539.705 456.156 Q541.163 457.006 542.899 457.44 Q544.635 457.874 546.528 457.874 Q549.826 457.874 551.545 456.572 Q553.281 455.27 553.281 452.788 Q553.281 450.496 551.666 449.211 Q550.069 447.909 547.205 447.909 L544.184 447.909 L544.184 445.027 L547.344 445.027 Q549.93 445.027 551.302 444.003 Q552.673 442.961 552.673 441.017 Q552.673 439.02 551.25 437.961 Q549.844 436.885 547.205 436.885 Q545.764 436.885 544.114 437.197 Q542.465 437.51 540.486 438.17 L540.486 435.045 Q542.482 434.489 544.219 434.211 Q545.972 433.934 547.517 433.934 Q551.51 433.934 553.837 435.756 Q556.163 437.562 556.163 440.652 Q556.163 442.805 554.93 444.298 Q553.698 445.774 551.423 446.347 Z" fill="#000000" fill-rule="evenodd" fill-opacity="1" /><path clip-path="url(#clip470)" d="M 0 0 M551.406 581.654 L542.552 595.491 L551.406 595.491 L551.406 581.654 M550.486 578.599 L554.896 578.599 L554.896 595.491 L558.594 595.491 L558.594 598.408 L554.896 598.408 L554.896 604.519 L551.406 604.519 L551.406 598.408 L539.705 598.408 L539.705 595.022 L550.486 578.599 Z" fill="#000000" fill-rule="evenodd" fill-opacity="1" /><path clip-path="url(#clip470)" d="M 0 0 M583.409 506.501 L597.176 506.501 L597.176 509.452 L586.62 509.452 L586.62 515.806 Q587.384 515.546 588.148 515.424 Q588.912 515.285 589.676 515.285 Q594.016 515.285 596.551 517.664 Q599.086 520.042 599.086 524.105 Q599.086 528.289 596.482 530.615 Q593.877 532.924 589.138 532.924 Q587.506 532.924 585.805 532.646 Q584.121 532.369 582.315 531.813 L582.315 528.289 Q583.877 529.139 585.544 529.556 Q587.211 529.973 589.068 529.973 Q592.072 529.973 593.825 528.393 Q595.579 526.813 595.579 524.105 Q595.579 521.396 593.825 519.817 Q592.072 518.237 589.068 518.237 Q587.662 518.237 586.256 518.549 Q584.867 518.862 583.409 519.521 L583.409 506.501 Z" fill="#000000" fill-rule="evenodd" fill-opacity="1" /><path clip-path="url(#clip470)" d="M 0 0 M634.179 590.161 Q631.818 590.161 630.429 591.776 Q629.057 593.391 629.057 596.203 Q629.057 598.998 630.429 600.63 Q631.818 602.245 634.179 602.245 Q636.54 602.245 637.911 600.63 Q639.3 598.998 639.3 596.203 Q639.3 593.391 637.911 591.776 Q636.54 590.161 634.179 590.161 M641.14 579.172 L641.14 582.366 Q639.821 581.741 638.467 581.411 Q637.13 581.082 635.811 581.082 Q632.338 581.082 630.498 583.425 Q628.675 585.769 628.415 590.509 Q629.439 588.998 630.984 588.2 Q632.529 587.384 634.387 587.384 Q638.293 587.384 640.55 589.762 Q642.824 592.123 642.824 596.203 Q642.824 600.196 640.463 602.609 Q638.102 605.022 634.179 605.022 Q629.682 605.022 627.304 601.585 Q624.925 598.13 624.925 591.585 Q624.925 585.439 627.842 581.793 Q630.758 578.13 635.672 578.13 Q636.991 578.13 638.328 578.391 Q639.682 578.651 641.14 579.172 Z" fill="#000000" fill-rule="evenodd" fill-opacity="1" /><path clip-path="url(#clip470)" d="M 0 0 M676.424 664.308 Q673.924 664.308 672.483 665.645 Q671.06 666.982 671.06 669.326 Q671.06 671.669 672.483 673.006 Q673.924 674.343 676.424 674.343 Q678.924 674.343 680.365 673.006 Q681.806 671.652 681.806 669.326 Q681.806 666.982 680.365 665.645 Q678.942 664.308 676.424 664.308 M672.917 662.815 Q670.66 662.26 669.393 660.715 Q668.143 659.169 668.143 656.947 Q668.143 653.84 670.348 652.034 Q672.57 650.229 676.424 650.229 Q680.296 650.229 682.501 652.034 Q684.705 653.84 684.705 656.947 Q684.705 659.169 683.438 660.715 Q682.188 662.26 679.949 662.815 Q682.483 663.406 683.89 665.124 Q685.313 666.843 685.313 669.326 Q685.313 673.093 683.004 675.107 Q680.712 677.121 676.424 677.121 Q672.136 677.121 669.827 675.107 Q667.535 673.093 667.535 669.326 Q667.535 666.843 668.959 665.124 Q670.383 663.406 672.917 662.815 M671.633 657.277 Q671.633 659.291 672.883 660.419 Q674.15 661.548 676.424 661.548 Q678.681 661.548 679.949 660.419 Q681.233 659.291 681.233 657.277 Q681.233 655.263 679.949 654.135 Q678.681 653.006 676.424 653.006 Q674.15 653.006 672.883 654.135 Q671.633 655.263 671.633 657.277 Z" fill="#000000" fill-rule="evenodd" fill-opacity="1" /><path clip-path="url(#clip470)" d="M 0 0 M199.326 601.568 L205.055 601.568 L205.055 581.793 L198.823 583.043 L198.823 579.849 L205.021 578.599 L208.528 578.599 L208.528 601.568 L214.257 601.568 L214.257 604.519 L199.326 604.519 L199.326 601.568 Z" fill="#000000" fill-rule="evenodd" fill-opacity="1" /><path clip-path="url(#clip470)" d="M 0 0 M228.84 580.908 Q226.132 580.908 224.76 583.582 Q223.406 586.238 223.406 591.585 Q223.406 596.915 224.76 599.588 Q226.132 602.245 228.84 602.245 Q231.566 602.245 232.92 599.588 Q234.291 596.915 234.291 591.585 Q234.291 586.238 232.92 583.582 Q231.566 580.908 228.84 580.908 M228.84 578.13 Q233.198 578.13 235.489 581.585 Q237.798 585.023 237.798 591.585 Q237.798 598.13 235.489 601.585 Q233.198 605.022 228.84 605.022 Q224.482 605.022 222.173 601.585 Q219.882 598.13 219.882 591.585 Q219.882 585.023 222.173 581.585 Q224.482 578.13 228.84 578.13 Z" fill="#000000" fill-rule="evenodd" fill-opacity="1" /><path clip-path="url(#clip470)" d="M 0 0 M284.547 601.568 L290.276 601.568 L290.276 581.793 L284.043 583.043 L284.043 579.849 L290.241 578.599 L293.748 578.599 L293.748 601.568 L299.477 601.568 L299.477 604.519 L284.547 604.519 L284.547 601.568 Z" fill="#000000" fill-rule="evenodd" fill-opacity="1" /><path clip-path="url(#clip470)" d="M 0 0 M309.581 601.568 L321.821 601.568 L321.821 604.519 L305.363 604.519 L305.363 601.568 Q307.359 599.502 310.797 596.029 Q314.251 592.54 315.137 591.533 Q316.821 589.641 317.481 588.338 Q318.158 587.019 318.158 585.752 Q318.158 583.686 316.699 582.384 Q315.258 581.082 312.932 581.082 Q311.283 581.082 309.442 581.654 Q307.62 582.227 305.536 583.391 L305.536 579.849 Q307.654 578.998 309.495 578.564 Q311.335 578.13 312.863 578.13 Q316.89 578.13 319.286 580.144 Q321.682 582.158 321.682 585.526 Q321.682 587.123 321.074 588.564 Q320.484 589.988 318.904 591.932 Q318.47 592.436 316.144 594.849 Q313.817 597.245 309.581 601.568 Z" fill="#000000" fill-rule="evenodd" fill-opacity="1" /><path clip-path="url(#clip470)" d="M 0 0 M327.157 673.666 L332.886 673.666 L332.886 653.892 L326.654 655.142 L326.654 651.947 L332.851 650.697 L336.358 650.697 L336.358 673.666 L342.087 673.666 L342.087 676.617 L327.157 676.617 L327.157 673.666 Z" fill="#000000" fill-rule="evenodd" fill-opacity="1" /><path clip-path="url(#clip470)" d="M 0 0 M358.806 653.753 L349.952 667.59 L358.806 667.59 L358.806 653.753 M357.886 650.697 L362.296 650.697 L362.296 667.59 L365.994 667.59 L365.994 670.506 L362.296 670.506 L362.296 676.617 L358.806 676.617 L358.806 670.506 L347.105 670.506 L347.105 667.121 L357.886 650.697 Z" fill="#000000" fill-rule="evenodd" fill-opacity="1" /><path clip-path="url(#clip470)" d="M 0 0 M710.649 601.568 L716.378 601.568 L716.378 581.793 L710.146 583.043 L710.146 579.849 L716.344 578.599 L719.85 578.599 L719.85 601.568 L725.58 601.568 L725.58 604.519 L710.649 604.519 L710.649 601.568 Z" fill="#000000" fill-rule="evenodd" fill-opacity="1" /><path clip-path="url(#clip470)" d="M 0 0 M732.767 603.981 L732.767 600.786 Q734.087 601.411 735.441 601.741 Q736.795 602.071 738.097 602.071 Q741.569 602.071 743.392 599.745 Q745.232 597.401 745.493 592.644 Q744.486 594.137 742.941 594.936 Q741.396 595.734 739.521 595.734 Q735.632 595.734 733.357 593.391 Q731.1 591.029 731.1 586.95 Q731.1 582.957 733.462 580.543 Q735.823 578.13 739.746 578.13 Q744.243 578.13 746.604 581.585 Q748.982 585.023 748.982 591.585 Q748.982 597.713 746.066 601.377 Q743.166 605.022 738.253 605.022 Q736.934 605.022 735.58 604.762 Q734.225 604.502 732.767 603.981 M739.746 592.991 Q742.107 592.991 743.479 591.377 Q744.868 589.762 744.868 586.95 Q744.868 584.154 743.479 582.54 Q742.107 580.908 739.746 580.908 Q737.385 580.908 735.996 582.54 Q734.625 584.154 734.625 586.95 Q734.625 589.762 735.996 591.377 Q737.385 592.991 739.746 592.991 Z" fill="#000000" fill-rule="evenodd" fill-opacity="1" /><path clip-path="url(#clip470)" d="M 0 0 M373.483 457.371 L385.722 457.371 L385.722 460.322 L369.264 460.322 L369.264 457.371 Q371.26 455.305 374.698 451.833 Q378.153 448.343 379.038 447.336 Q380.722 445.444 381.382 444.142 Q382.059 442.822 382.059 441.555 Q382.059 439.489 380.601 438.187 Q379.16 436.885 376.833 436.885 Q375.184 436.885 373.344 437.458 Q371.521 438.031 369.437 439.194 L369.437 435.652 Q371.555 434.802 373.396 434.368 Q375.236 433.934 376.764 433.934 Q380.791 433.934 383.187 435.947 Q385.583 437.961 385.583 441.329 Q385.583 442.927 384.976 444.368 Q384.385 445.791 382.805 447.736 Q382.371 448.239 380.045 450.652 Q377.719 453.048 373.483 457.371 Z" fill="#000000" fill-rule="evenodd" fill-opacity="1" /><path clip-path="url(#clip470)" d="M 0 0 M402.718 437.458 L393.864 451.295 L402.718 451.295 L402.718 437.458 M401.798 434.402 L406.208 434.402 L406.208 451.295 L409.906 451.295 L409.906 454.211 L406.208 454.211 L406.208 460.322 L402.718 460.322 L402.718 454.211 L391.017 454.211 L391.017 450.826 L401.798 434.402 Z" fill="#000000" fill-rule="evenodd" fill-opacity="1" /><path clip-path="url(#clip470)" d="M 0 0 M373.483 601.568 L385.722 601.568 L385.722 604.519 L369.264 604.519 L369.264 601.568 Q371.26 599.502 374.698 596.029 Q378.153 592.54 379.038 591.533 Q380.722 589.641 381.382 588.338 Q382.059 587.019 382.059 585.752 Q382.059 583.686 380.601 582.384 Q379.16 581.082 376.833 581.082 Q375.184 581.082 373.344 581.654 Q371.521 582.227 369.437 583.391 L369.437 579.849 Q371.555 578.998 373.396 578.564 Q375.236 578.13 376.764 578.13 Q380.791 578.13 383.187 580.144 Q385.583 582.158 385.583 585.526 Q385.583 587.123 384.976 588.564 Q384.385 589.988 382.805 591.932 Q382.371 592.436 380.045 594.849 Q377.719 597.245 373.483 601.568 Z" fill="#000000" fill-rule="evenodd" fill-opacity="1" /><path clip-path="url(#clip470)" d="M 0 0 M393.118 578.599 L406.885 578.599 L406.885 581.55 L396.33 581.55 L396.33 587.904 Q397.093 587.644 397.857 587.523 Q398.621 587.384 399.385 587.384 Q403.725 587.384 406.26 589.762 Q408.795 592.141 408.795 596.203 Q408.795 600.387 406.191 602.713 Q403.587 605.022 398.847 605.022 Q397.215 605.022 395.514 604.745 Q393.83 604.467 392.024 603.911 L392.024 600.387 Q393.587 601.238 395.253 601.654 Q396.92 602.071 398.778 602.071 Q401.781 602.071 403.534 600.491 Q405.288 598.911 405.288 596.203 Q405.288 593.495 403.534 591.915 Q401.781 590.335 398.778 590.335 Q397.371 590.335 395.965 590.648 Q394.576 590.96 393.118 591.62 L393.118 578.599 Z" fill="#000000" fill-rule="evenodd" fill-opacity="1" /><path clip-path="url(#clip470)" d="M 0 0 M416.093 529.469 L428.332 529.469 L428.332 532.421 L411.874 532.421 L411.874 529.469 Q413.871 527.403 417.308 523.931 Q420.763 520.442 421.648 519.435 Q423.332 517.542 423.992 516.24 Q424.669 514.921 424.669 513.653 Q424.669 511.587 423.211 510.285 Q421.77 508.983 419.443 508.983 Q417.794 508.983 415.954 509.556 Q414.131 510.129 412.048 511.292 L412.048 507.751 Q414.166 506.9 416.006 506.466 Q417.846 506.032 419.374 506.032 Q423.402 506.032 425.798 508.046 Q428.193 510.06 428.193 513.428 Q428.193 515.025 427.586 516.466 Q426.995 517.889 425.416 519.834 Q424.982 520.337 422.655 522.751 Q420.329 525.146 416.093 529.469 Z" fill="#000000" fill-rule="evenodd" fill-opacity="1" /><path clip-path="url(#clip470)" d="M 0 0 M443.627 518.063 Q441.266 518.063 439.877 519.678 Q438.506 521.292 438.506 524.105 Q438.506 526.9 439.877 528.532 Q441.266 530.146 443.627 530.146 Q445.988 530.146 447.36 528.532 Q448.749 526.9 448.749 524.105 Q448.749 521.292 447.36 519.678 Q445.988 518.063 443.627 518.063 M450.589 507.074 L450.589 510.268 Q449.27 509.643 447.915 509.313 Q446.579 508.983 445.259 508.983 Q441.787 508.983 439.947 511.327 Q438.124 513.671 437.863 518.41 Q438.888 516.9 440.433 516.101 Q441.978 515.285 443.836 515.285 Q447.742 515.285 449.999 517.664 Q452.273 520.025 452.273 524.105 Q452.273 528.098 449.912 530.511 Q447.551 532.924 443.627 532.924 Q439.131 532.924 436.752 529.487 Q434.374 526.032 434.374 519.487 Q434.374 513.341 437.291 509.695 Q440.207 506.032 445.12 506.032 Q446.44 506.032 447.777 506.292 Q449.131 506.553 450.589 507.074 Z" fill="#000000" fill-rule="evenodd" fill-opacity="1" /><path clip-path="url(#clip470)" d="M 0 0 M458.703 601.568 L470.942 601.568 L470.942 604.519 L454.484 604.519 L454.484 601.568 Q456.481 599.502 459.918 596.029 Q463.373 592.54 464.259 591.533 Q465.943 589.641 466.602 588.338 Q467.279 587.019 467.279 585.752 Q467.279 583.686 465.821 582.384 Q464.38 581.082 462.054 581.082 Q460.404 581.082 458.564 581.654 Q456.741 582.227 454.658 583.391 L454.658 579.849 Q456.776 578.998 458.616 578.564 Q460.456 578.13 461.984 578.13 Q466.012 578.13 468.408 580.144 Q470.804 582.158 470.804 585.526 Q470.804 587.123 470.196 588.564 Q469.606 589.988 468.026 591.932 Q467.592 592.436 465.265 594.849 Q462.939 597.245 458.703 601.568 Z" fill="#000000" fill-rule="evenodd" fill-opacity="1" /><path clip-path="url(#clip470)" d="M 0 0 M477.418 578.599 L494.085 578.599 L494.085 580.092 L484.675 604.519 L481.012 604.519 L489.866 581.55 L477.418 581.55 L477.418 578.599 Z" fill="#000000" fill-rule="evenodd" fill-opacity="1" /><path clip-path="url(#clip470)" d="M 0 0 M501.313 673.666 L513.553 673.666 L513.553 676.617 L497.094 676.617 L497.094 673.666 Q499.091 671.6 502.528 668.128 Q505.983 664.638 506.869 663.631 Q508.553 661.739 509.212 660.437 Q509.89 659.117 509.89 657.85 Q509.89 655.784 508.431 654.482 Q506.99 653.18 504.664 653.18 Q503.015 653.18 501.174 653.753 Q499.351 654.326 497.268 655.489 L497.268 651.947 Q499.386 651.097 501.226 650.663 Q503.067 650.229 504.594 650.229 Q508.622 650.229 511.018 652.242 Q513.414 654.256 513.414 657.624 Q513.414 659.222 512.806 660.663 Q512.216 662.086 510.636 664.031 Q510.202 664.534 507.876 666.947 Q505.549 669.343 501.313 673.666 Z" fill="#000000" fill-rule="evenodd" fill-opacity="1" /><path clip-path="url(#clip470)" d="M 0 0 M521.018 676.079 L521.018 672.885 Q522.337 673.51 523.692 673.84 Q525.046 674.169 526.348 674.169 Q529.82 674.169 531.643 671.843 Q533.483 669.499 533.744 664.742 Q532.737 666.235 531.192 667.034 Q529.646 667.833 527.771 667.833 Q523.883 667.833 521.608 665.489 Q519.351 663.128 519.351 659.048 Q519.351 655.055 521.712 652.642 Q524.074 650.229 527.997 650.229 Q532.494 650.229 534.855 653.683 Q537.233 657.121 537.233 663.683 Q537.233 669.812 534.317 673.475 Q531.417 677.121 526.504 677.121 Q525.185 677.121 523.83 676.86 Q522.476 676.6 521.018 676.079 M527.997 665.09 Q530.358 665.09 531.73 663.475 Q533.119 661.86 533.119 659.048 Q533.119 656.253 531.73 654.638 Q530.358 653.006 527.997 653.006 Q525.636 653.006 524.247 654.638 Q522.876 656.253 522.876 659.048 Q522.876 661.86 524.247 663.475 Q525.636 665.09 527.997 665.09 Z" fill="#000000" fill-rule="evenodd" fill-opacity="1" /><path clip-path="url(#clip470)" d="M 0 0 M125.321 590.543 Q127.838 591.082 129.245 592.783 Q130.668 594.484 130.668 596.984 Q130.668 600.821 128.029 602.922 Q125.39 605.022 120.529 605.022 Q118.897 605.022 117.161 604.693 Q115.443 604.38 113.602 603.738 L113.602 600.352 Q115.061 601.203 116.797 601.637 Q118.533 602.071 120.425 602.071 Q123.724 602.071 125.443 600.769 Q127.179 599.467 127.179 596.984 Q127.179 594.693 125.564 593.408 Q123.967 592.106 121.102 592.106 L118.082 592.106 L118.082 589.224 L121.241 589.224 Q123.828 589.224 125.2 588.2 Q126.571 587.158 126.571 585.214 Q126.571 583.217 125.147 582.158 Q123.741 581.082 121.102 581.082 Q119.661 581.082 118.012 581.394 Q116.363 581.707 114.384 582.366 L114.384 579.241 Q116.38 578.686 118.116 578.408 Q119.87 578.13 121.415 578.13 Q125.408 578.13 127.734 579.953 Q130.061 581.759 130.061 584.849 Q130.061 587.002 128.828 588.495 Q127.595 589.97 125.321 590.543 Z" fill="#000000" fill-rule="evenodd" fill-opacity="1" /><path clip-path="url(#clip470)" d="M 0 0 M147.942 590.543 Q150.46 591.082 151.866 592.783 Q153.29 594.484 153.29 596.984 Q153.29 600.821 150.651 602.922 Q148.012 605.022 143.151 605.022 Q141.519 605.022 139.783 604.693 Q138.064 604.38 136.224 603.738 L136.224 600.352 Q137.682 601.203 139.418 601.637 Q141.154 602.071 143.047 602.071 Q146.345 602.071 148.064 600.769 Q149.8 599.467 149.8 596.984 Q149.8 594.693 148.186 593.408 Q146.588 592.106 143.724 592.106 L140.703 592.106 L140.703 589.224 L143.863 589.224 Q146.449 589.224 147.821 588.2 Q149.192 587.158 149.192 585.214 Q149.192 583.217 147.769 582.158 Q146.363 581.082 143.724 581.082 Q142.283 581.082 140.633 581.394 Q138.984 581.707 137.005 582.366 L137.005 579.241 Q139.002 578.686 140.738 578.408 Q142.491 578.13 144.036 578.13 Q148.029 578.13 150.356 579.953 Q152.682 581.759 152.682 584.849 Q152.682 587.002 151.449 588.495 Q150.217 589.97 147.942 590.543 Z" fill="#000000" fill-rule="evenodd" fill-opacity="1" /><path clip-path="url(#clip470)" d="M 0 0 M636.644 446.347 Q639.161 446.885 640.567 448.586 Q641.991 450.288 641.991 452.788 Q641.991 456.624 639.352 458.725 Q636.713 460.826 631.852 460.826 Q630.22 460.826 628.484 460.496 Q626.765 460.183 624.925 459.541 L624.925 456.156 Q626.384 457.006 628.12 457.44 Q629.856 457.874 631.748 457.874 Q635.047 457.874 636.765 456.572 Q638.502 455.27 638.502 452.788 Q638.502 450.496 636.887 449.211 Q635.29 447.909 632.425 447.909 L629.404 447.909 L629.404 445.027 L632.564 445.027 Q635.151 445.027 636.522 444.003 Q637.894 442.961 637.894 441.017 Q637.894 439.02 636.47 437.961 Q635.064 436.885 632.425 436.885 Q630.984 436.885 629.335 437.197 Q627.686 437.51 625.706 438.17 L625.706 435.045 Q627.703 434.489 629.439 434.211 Q631.193 433.934 632.738 433.934 Q636.731 433.934 639.057 435.756 Q641.383 437.562 641.383 440.652 Q641.383 442.805 640.151 444.298 Q638.918 445.774 636.644 446.347 Z" fill="#000000" fill-rule="evenodd" fill-opacity="1" /><path clip-path="url(#clip470)" d="M 0 0 M658.276 437.458 L649.422 451.295 L658.276 451.295 L658.276 437.458 M657.356 434.402 L661.765 434.402 L661.765 451.295 L665.463 451.295 L665.463 454.211 L661.765 454.211 L661.765 460.322 L658.276 460.322 L658.276 454.211 L646.574 454.211 L646.574 450.826 L657.356 434.402 Z" fill="#000000" fill-rule="evenodd" fill-opacity="1" /><path clip-path="url(#clip470)" d="M 0 0 M167.931 662.642 Q170.449 663.18 171.855 664.881 Q173.278 666.583 173.278 669.083 Q173.278 672.919 170.64 675.02 Q168.001 677.121 163.14 677.121 Q161.508 677.121 159.772 676.791 Q158.053 676.478 156.213 675.836 L156.213 672.451 Q157.671 673.301 159.407 673.735 Q161.143 674.169 163.035 674.169 Q166.334 674.169 168.053 672.867 Q169.789 671.565 169.789 669.083 Q169.789 666.791 168.174 665.506 Q166.577 664.204 163.713 664.204 L160.692 664.204 L160.692 661.322 L163.851 661.322 Q166.438 661.322 167.81 660.298 Q169.181 659.256 169.181 657.312 Q169.181 655.315 167.758 654.256 Q166.351 653.18 163.713 653.18 Q162.272 653.18 160.622 653.492 Q158.973 653.805 156.994 654.465 L156.994 651.34 Q158.99 650.784 160.726 650.506 Q162.48 650.229 164.025 650.229 Q168.018 650.229 170.344 652.051 Q172.671 653.857 172.671 656.947 Q172.671 659.1 171.438 660.593 Q170.206 662.069 167.931 662.642 Z" fill="#000000" fill-rule="evenodd" fill-opacity="1" /><path clip-path="url(#clip470)" d="M 0 0 M179.962 650.697 L193.73 650.697 L193.73 653.649 L183.174 653.649 L183.174 660.003 Q183.938 659.742 184.702 659.621 Q185.466 659.482 186.23 659.482 Q190.57 659.482 193.105 661.86 Q195.639 664.239 195.639 668.301 Q195.639 672.485 193.035 674.812 Q190.431 677.121 185.692 677.121 Q184.06 677.121 182.358 676.843 Q180.674 676.565 178.869 676.01 L178.869 672.485 Q180.431 673.336 182.098 673.753 Q183.765 674.169 185.622 674.169 Q188.626 674.169 190.379 672.59 Q192.133 671.01 192.133 668.301 Q192.133 665.593 190.379 664.013 Q188.626 662.433 185.622 662.433 Q184.216 662.433 182.81 662.746 Q181.421 663.058 179.962 663.718 L179.962 650.697 Z" fill="#000000" fill-rule="evenodd" fill-opacity="1" /><circle clip-path="url(#clip472)" cx="113.602" cy="323.902" r="14" fill="#0000ff" fill-rule="evenodd" fill-opacity="1" stroke="none"/>
<circle clip-path="url(#clip472)" cx="113.602" cy="468.098" r="14" fill="#0000ff" fill-rule="evenodd" fill-opacity="1" stroke="none"/>
<circle clip-path="url(#clip472)" cx="156.213" cy="396" r="14" fill="#0000ff" fill-rule="evenodd" fill-opacity="1" stroke="none"/>
<circle clip-path="url(#clip472)" cx="198.823" cy="468.098" r="14" fill="#0000ff" fill-rule="evenodd" fill-opacity="1" stroke="none"/>
<circle clip-path="url(#clip472)" cx="241.433" cy="540.197" r="14" fill="#0000ff" fill-rule="evenodd" fill-opacity="1" stroke="none"/>
<circle clip-path="url(#clip472)" cx="369.264" cy="323.902" r="14" fill="#0000ff" fill-rule="evenodd" fill-opacity="1" stroke="none"/>
<circle clip-path="url(#clip472)" cx="198.823" cy="323.902" r="14" fill="#0000ff" fill-rule="evenodd" fill-opacity="1" stroke="none"/>
<circle clip-path="url(#clip472)" cx="284.043" cy="323.902" r="14" fill="#0000ff" fill-rule="evenodd" fill-opacity="1" stroke="none"/>
<circle clip-path="url(#clip472)" cx="284.043" cy="468.098" r="14" fill="#0000ff" fill-rule="evenodd" fill-opacity="1" stroke="none"/>
<circle clip-path="url(#clip472)" cx="326.654" cy="396" r="14" fill="#0000ff" fill-rule="evenodd" fill-opacity="1" stroke="none"/>
<circle clip-path="url(#clip472)" cx="113.602" cy="179.705" r="14" fill="#0000ff" fill-rule="evenodd" fill-opacity="1" stroke="none"/>
<path clip-path="url(#clip470)" d="M 0 0 M122.856 301.768 Q120.495 301.768 119.106 303.383 Q117.734 304.997 117.734 307.81 Q117.734 310.605 119.106 312.237 Q120.495 313.851 122.856 313.851 Q125.217 313.851 126.588 312.237 Q127.977 310.605 127.977 307.81 Q127.977 304.997 126.588 303.383 Q125.217 301.768 122.856 301.768 M129.818 290.779 L129.818 293.973 Q128.498 293.348 127.144 293.018 Q125.807 292.688 124.488 292.688 Q121.016 292.688 119.175 295.032 Q117.352 297.376 117.092 302.115 Q118.116 300.605 119.661 299.806 Q121.206 298.99 123.064 298.99 Q126.97 298.99 129.227 301.369 Q131.502 303.73 131.502 307.81 Q131.502 311.803 129.14 314.216 Q126.779 316.629 122.856 316.629 Q118.359 316.629 115.981 313.192 Q113.602 309.737 113.602 303.192 Q113.602 297.046 116.519 293.4 Q119.436 289.737 124.349 289.737 Q125.668 289.737 127.005 289.997 Q128.359 290.258 129.818 290.779 Z" fill="#000000" fill-rule="evenodd" fill-opacity="1" /><path clip-path="url(#clip470)" d="M 0 0 M113.602 434.402 L130.269 434.402 L130.269 435.895 L120.859 460.322 L117.196 460.322 L126.05 437.354 L113.602 437.354 L113.602 434.402 Z" fill="#000000" fill-rule="evenodd" fill-opacity="1" /><path clip-path="url(#clip470)" d="M 0 0 M165.101 375.915 Q162.601 375.915 161.16 377.252 Q159.737 378.589 159.737 380.932 Q159.737 383.276 161.16 384.613 Q162.601 385.95 165.101 385.95 Q167.601 385.95 169.042 384.613 Q170.483 383.259 170.483 380.932 Q170.483 378.589 169.042 377.252 Q167.619 375.915 165.101 375.915 M161.595 374.422 Q159.338 373.866 158.07 372.321 Q156.82 370.776 156.82 368.554 Q156.82 365.446 159.025 363.641 Q161.247 361.835 165.101 361.835 Q168.973 361.835 171.178 363.641 Q173.383 365.446 173.383 368.554 Q173.383 370.776 172.115 372.321 Q170.865 373.866 168.626 374.422 Q171.16 375.012 172.567 376.731 Q173.99 378.45 173.99 380.932 Q173.99 384.7 171.681 386.714 Q169.39 388.727 165.101 388.727 Q160.813 388.727 158.504 386.714 Q156.213 384.7 156.213 380.932 Q156.213 378.45 157.636 376.731 Q159.06 375.012 161.595 374.422 M160.31 368.884 Q160.31 370.898 161.56 372.026 Q162.827 373.155 165.101 373.155 Q167.358 373.155 168.626 372.026 Q169.91 370.898 169.91 368.884 Q169.91 366.87 168.626 365.741 Q167.358 364.613 165.101 364.613 Q162.827 364.613 161.56 365.741 Q160.31 366.87 160.31 368.884 Z" fill="#000000" fill-rule="evenodd" fill-opacity="1" /><path clip-path="url(#clip470)" d="M 0 0 M200.489 459.784 L200.489 456.59 Q201.809 457.215 203.163 457.545 Q204.517 457.874 205.819 457.874 Q209.292 457.874 211.114 455.548 Q212.955 453.204 213.215 448.447 Q212.208 449.94 210.663 450.739 Q209.118 451.538 207.243 451.538 Q203.354 451.538 201.08 449.194 Q198.823 446.833 198.823 442.753 Q198.823 438.76 201.184 436.347 Q203.545 433.934 207.469 433.934 Q211.965 433.934 214.326 437.388 Q216.705 440.826 216.705 447.388 Q216.705 453.517 213.788 457.18 Q210.889 460.826 205.976 460.826 Q204.656 460.826 203.302 460.565 Q201.948 460.305 200.489 459.784 M207.469 448.795 Q209.83 448.795 211.201 447.18 Q212.59 445.565 212.59 442.753 Q212.59 439.958 211.201 438.343 Q209.83 436.711 207.469 436.711 Q205.108 436.711 203.719 438.343 Q202.347 439.958 202.347 442.753 Q202.347 445.565 203.719 447.18 Q205.108 448.795 207.469 448.795 Z" fill="#000000" fill-rule="evenodd" fill-opacity="1" /><path clip-path="url(#clip470)" d="M 0 0 M241.937 529.469 L247.666 529.469 L247.666 509.695 L241.433 510.945 L241.433 507.751 L247.631 506.501 L251.138 506.501 L251.138 529.469 L256.867 529.469 L256.867 532.421 L241.937 532.421 L241.937 529.469 Z" fill="#000000" fill-rule="evenodd" fill-opacity="1" /><path clip-path="url(#clip470)" d="M 0 0 M264.558 529.469 L270.287 529.469 L270.287 509.695 L264.054 510.945 L264.054 507.751 L270.252 506.501 L273.759 506.501 L273.759 529.469 L279.488 529.469 L279.488 532.421 L264.558 532.421 L264.558 529.469 Z" fill="#000000" fill-rule="evenodd" fill-opacity="1" /><path clip-path="url(#clip470)" d="M 0 0 M369.767 313.174 L375.496 313.174 L375.496 293.4 L369.264 294.65 L369.264 291.456 L375.462 290.206 L378.969 290.206 L378.969 313.174 L384.698 313.174 L384.698 316.126 L369.767 316.126 L369.767 313.174 Z" fill="#000000" fill-rule="evenodd" fill-opacity="1" /><path clip-path="url(#clip470)" d="M 0 0 M399.715 301.768 Q397.354 301.768 395.965 303.383 Q394.594 304.997 394.594 307.81 Q394.594 310.605 395.965 312.237 Q397.354 313.851 399.715 313.851 Q402.076 313.851 403.448 312.237 Q404.837 310.605 404.837 307.81 Q404.837 304.997 403.448 303.383 Q402.076 301.768 399.715 301.768 M406.677 290.779 L406.677 293.973 Q405.357 293.348 404.003 293.018 Q402.666 292.688 401.347 292.688 Q397.875 292.688 396.034 295.032 Q394.212 297.376 393.951 302.115 Q394.975 300.605 396.521 299.806 Q398.066 298.99 399.923 298.99 Q403.83 298.99 406.086 301.369 Q408.361 303.73 408.361 307.81 Q408.361 311.803 406 314.216 Q403.639 316.629 399.715 316.629 Q395.219 316.629 392.84 313.192 Q390.462 309.737 390.462 303.192 Q390.462 297.046 393.378 293.4 Q396.295 289.737 401.208 289.737 Q402.527 289.737 403.864 289.997 Q405.218 290.258 406.677 290.779 Z" fill="#000000" fill-rule="evenodd" fill-opacity="1" /><path clip-path="url(#clip470)" d="M 0 0 M199.326 313.174 L205.055 313.174 L205.055 293.4 L198.823 294.65 L198.823 291.456 L205.021 290.206 L208.528 290.206 L208.528 313.174 L214.257 313.174 L214.257 316.126 L199.326 316.126 L199.326 313.174 Z" fill="#000000" fill-rule="evenodd" fill-opacity="1" /><path clip-path="url(#clip470)" d="M 0 0 M221.444 315.587 L221.444 312.393 Q222.764 313.018 224.118 313.348 Q225.472 313.678 226.774 313.678 Q230.246 313.678 232.069 311.351 Q233.909 309.008 234.17 304.251 Q233.163 305.744 231.618 306.542 Q230.073 307.341 228.198 307.341 Q224.309 307.341 222.035 304.997 Q219.778 302.636 219.778 298.556 Q219.778 294.563 222.139 292.15 Q224.5 289.737 228.423 289.737 Q232.92 289.737 235.281 293.192 Q237.659 296.629 237.659 303.192 Q237.659 309.32 234.743 312.983 Q231.843 316.629 226.93 316.629 Q225.611 316.629 224.257 316.369 Q222.903 316.108 221.444 315.587 M228.423 304.598 Q230.784 304.598 232.156 302.983 Q233.545 301.369 233.545 298.556 Q233.545 295.761 232.156 294.147 Q230.784 292.515 228.423 292.515 Q226.062 292.515 224.673 294.147 Q223.302 295.761 223.302 298.556 Q223.302 301.369 224.673 302.983 Q226.062 304.598 228.423 304.598 Z" fill="#000000" fill-rule="evenodd" fill-opacity="1" /><path clip-path="url(#clip470)" d="M 0 0 M288.262 313.174 L300.502 313.174 L300.502 316.126 L284.043 316.126 L284.043 313.174 Q286.04 311.108 289.477 307.636 Q292.932 304.147 293.818 303.14 Q295.502 301.247 296.161 299.945 Q296.838 298.626 296.838 297.358 Q296.838 295.292 295.38 293.99 Q293.939 292.688 291.613 292.688 Q289.963 292.688 288.123 293.261 Q286.3 293.834 284.217 294.997 L284.217 291.456 Q286.335 290.605 288.175 290.171 Q290.015 289.737 291.543 289.737 Q295.571 289.737 297.967 291.751 Q300.363 293.765 300.363 297.133 Q300.363 298.73 299.755 300.171 Q299.165 301.595 297.585 303.539 Q297.151 304.042 294.824 306.456 Q292.498 308.851 288.262 313.174 Z" fill="#000000" fill-rule="evenodd" fill-opacity="1" /><path clip-path="url(#clip470)" d="M 0 0 M308.47 313.174 L314.199 313.174 L314.199 293.4 L307.967 294.65 L307.967 291.456 L314.165 290.206 L317.672 290.206 L317.672 313.174 L323.401 313.174 L323.401 316.126 L308.47 316.126 L308.47 313.174 Z" fill="#000000" fill-rule="evenodd" fill-opacity="1" /><path clip-path="url(#clip470)" d="M 0 0 M288.262 457.371 L300.502 457.371 L300.502 460.322 L284.043 460.322 L284.043 457.371 Q286.04 455.305 289.477 451.833 Q292.932 448.343 293.818 447.336 Q295.502 445.444 296.161 444.142 Q296.838 442.822 296.838 441.555 Q296.838 439.489 295.38 438.187 Q293.939 436.885 291.613 436.885 Q289.963 436.885 288.123 437.458 Q286.3 438.031 284.217 439.194 L284.217 435.652 Q286.335 434.802 288.175 434.368 Q290.015 433.934 291.543 433.934 Q295.571 433.934 297.967 435.947 Q300.363 437.961 300.363 441.329 Q300.363 442.927 299.755 444.368 Q299.165 445.791 297.585 447.736 Q297.151 448.239 294.824 450.652 Q292.498 453.048 288.262 457.371 Z" fill="#000000" fill-rule="evenodd" fill-opacity="1" /><path clip-path="url(#clip470)" d="M 0 0 M310.883 457.371 L323.123 457.371 L323.123 460.322 L306.665 460.322 L306.665 457.371 Q308.661 455.305 312.099 451.833 Q315.554 448.343 316.439 447.336 Q318.123 445.444 318.783 444.142 Q319.46 442.822 319.46 441.555 Q319.46 439.489 318.001 438.187 Q316.56 436.885 314.234 436.885 Q312.585 436.885 310.745 437.458 Q308.922 438.031 306.838 439.194 L306.838 435.652 Q308.956 434.802 310.797 434.368 Q312.637 433.934 314.165 433.934 Q318.192 433.934 320.588 435.947 Q322.984 437.961 322.984 441.329 Q322.984 442.927 322.376 444.368 Q321.786 445.791 320.206 447.736 Q319.772 448.239 317.446 450.652 Q315.12 453.048 310.883 457.371 Z" fill="#000000" fill-rule="evenodd" fill-opacity="1" /><path clip-path="url(#clip470)" d="M 0 0 M330.872 385.273 L343.112 385.273 L343.112 388.224 L326.654 388.224 L326.654 385.273 Q328.65 383.207 332.088 379.734 Q335.542 376.245 336.428 375.238 Q338.112 373.346 338.772 372.044 Q339.449 370.724 339.449 369.457 Q339.449 367.391 337.99 366.089 Q336.549 364.787 334.223 364.787 Q332.574 364.787 330.733 365.36 Q328.91 365.932 326.827 367.096 L326.827 363.554 Q328.945 362.703 330.785 362.269 Q332.626 361.835 334.154 361.835 Q338.181 361.835 340.577 363.849 Q342.973 365.863 342.973 369.231 Q342.973 370.828 342.365 372.269 Q341.775 373.693 340.195 375.637 Q339.761 376.141 337.435 378.554 Q335.108 380.95 330.872 385.273 Z" fill="#000000" fill-rule="evenodd" fill-opacity="1" /><path clip-path="url(#clip470)" d="M 0 0 M361.098 374.248 Q363.615 374.787 365.021 376.488 Q366.445 378.189 366.445 380.689 Q366.445 384.526 363.806 386.627 Q361.167 388.727 356.306 388.727 Q354.674 388.727 352.938 388.398 Q351.219 388.085 349.379 387.443 L349.379 384.057 Q350.837 384.908 352.574 385.342 Q354.31 385.776 356.202 385.776 Q359.501 385.776 361.219 384.474 Q362.955 383.172 362.955 380.689 Q362.955 378.398 361.341 377.113 Q359.744 375.811 356.879 375.811 L353.858 375.811 L353.858 372.929 L357.018 372.929 Q359.605 372.929 360.976 371.905 Q362.348 370.863 362.348 368.919 Q362.348 366.922 360.924 365.863 Q359.518 364.787 356.879 364.787 Q355.438 364.787 353.789 365.099 Q352.14 365.412 350.16 366.071 L350.16 362.946 Q352.157 362.391 353.893 362.113 Q355.646 361.835 357.192 361.835 Q361.185 361.835 363.511 363.658 Q365.837 365.464 365.837 368.554 Q365.837 370.707 364.605 372.2 Q363.372 373.675 361.098 374.248 Z" fill="#000000" fill-rule="evenodd" fill-opacity="1" /><path clip-path="url(#clip470)" d="M 0 0 M82.7108 518.445 Q85.2282 518.983 86.6344 520.685 Q88.058 522.386 88.058 524.886 Q88.058 528.723 85.4191 530.823 Q82.7803 532.924 77.9192 532.924 Q76.2872 532.924 74.5511 532.594 Q72.8324 532.282 70.9921 531.639 L70.9921 528.254 Q72.4505 529.105 74.1866 529.539 Q75.9227 529.973 77.815 529.973 Q81.1136 529.973 82.8323 528.671 Q84.5684 527.369 84.5684 524.886 Q84.5684 522.594 82.9539 521.31 Q81.3567 520.008 78.4921 520.008 L75.4713 520.008 L75.4713 517.126 L78.631 517.126 Q81.2178 517.126 82.5893 516.101 Q83.9608 515.06 83.9608 513.115 Q83.9608 511.119 82.5372 510.06 Q81.131 508.983 78.4921 508.983 Q77.0511 508.983 75.4018 509.296 Q73.7525 509.608 71.7734 510.268 L71.7734 507.143 Q73.7699 506.587 75.506 506.31 Q77.2595 506.032 78.8046 506.032 Q82.7976 506.032 85.124 507.855 Q87.4504 509.66 87.4504 512.751 Q87.4504 514.903 86.2177 516.396 Q84.9851 517.872 82.7108 518.445 Z" fill="#000000" fill-rule="evenodd" fill-opacity="1" /><path clip-path="url(#clip470)" d="M 0 0 M97.7281 529.469 L109.968 529.469 L109.968 532.421 L93.5094 532.421 L93.5094 529.469 Q95.5059 527.403 98.9434 523.931 Q102.398 520.442 103.284 519.435 Q104.968 517.542 105.627 516.24 Q106.304 514.921 106.304 513.653 Q106.304 511.587 104.846 510.285 Q103.405 508.983 101.079 508.983 Q99.4295 508.983 97.5892 509.556 Q95.7663 510.129 93.683 511.292 L93.683 507.751 Q95.801 506.9 97.6413 506.466 Q99.4816 506.032 101.009 506.032 Q105.037 506.032 107.433 508.046 Q109.829 510.06 109.829 513.428 Q109.829 515.025 109.221 516.466 Q108.631 517.889 107.051 519.834 Q106.617 520.337 104.291 522.751 Q101.964 525.146 97.7281 529.469 Z" fill="#000000" fill-rule="evenodd" fill-opacity="1" /><path clip-path="url(#clip470)" d="M 0 0 M125.321 157.953 Q127.838 158.492 129.245 160.193 Q130.668 161.894 130.668 164.394 Q130.668 168.231 128.029 170.332 Q125.39 172.433 120.529 172.433 Q118.897 172.433 117.161 172.103 Q115.443 171.79 113.602 171.148 L113.602 167.762 Q115.061 168.613 116.797 169.047 Q118.533 169.481 120.425 169.481 Q123.724 169.481 125.443 168.179 Q127.179 166.877 127.179 164.394 Q127.179 162.103 125.564 160.818 Q123.967 159.516 121.102 159.516 L118.082 159.516 L118.082 156.634 L121.241 156.634 Q123.828 156.634 125.2 155.61 Q126.571 154.568 126.571 152.624 Q126.571 150.627 125.147 149.568 Q123.741 148.492 121.102 148.492 Q119.661 148.492 118.012 148.804 Q116.363 149.117 114.384 149.776 L114.384 146.651 Q116.38 146.096 118.116 145.818 Q119.87 145.54 121.415 145.54 Q125.408 145.54 127.734 147.363 Q130.061 149.169 130.061 152.259 Q130.061 154.412 128.828 155.905 Q127.595 157.381 125.321 157.953 Z" fill="#000000" fill-rule="evenodd" fill-opacity="1" /><path clip-path="url(#clip470)" d="M 0 0 M146.953 149.065 L138.099 162.901 L146.953 162.901 L146.953 149.065 M146.033 146.009 L150.442 146.009 L150.442 162.901 L154.14 162.901 L154.14 165.818 L150.442 165.818 L150.442 171.929 L146.953 171.929 L146.953 165.818 L135.252 165.818 L135.252 162.433 L146.033 146.009 Z" fill="#000000" fill-rule="evenodd" fill-opacity="1" /><circle clip-path="url(#clip472)" cx="710.146" cy="323.902" r="14" fill="#0000ff" fill-rule="evenodd" fill-opacity="1" stroke="none"/>
<circle clip-path="url(#clip472)" cx="752.756" cy="540.197" r="14" fill="#0000ff" fill-rule="evenodd" fill-opacity="1" stroke="none"/>
<circle clip-path="url(#clip472)" cx="624.925" cy="323.902" r="14" fill="#0000ff" fill-rule="evenodd" fill-opacity="1" stroke="none"/>
<circle clip-path="url(#clip472)" cx="667.535" cy="396" r="14" fill="#0000ff" fill-rule="evenodd" fill-opacity="1" stroke="none"/>
<circle clip-path="url(#clip472)" cx="710.146" cy="468.098" r="14" fill="#0000ff" fill-rule="evenodd" fill-opacity="1" stroke="none"/>
<path clip-path="url(#clip470)" d="M 0 0 M710.649 313.174 L716.378 313.174 L716.378 293.4 L710.146 294.65 L710.146 291.456 L716.344 290.206 L719.85 290.206 L719.85 313.174 L725.58 313.174 L725.58 316.126 L710.649 316.126 L710.649 313.174 Z" fill="#000000" fill-rule="evenodd" fill-opacity="1" /><path clip-path="url(#clip470)" d="M 0 0 M740.163 292.515 Q737.455 292.515 736.083 295.188 Q734.729 297.845 734.729 303.192 Q734.729 308.522 736.083 311.195 Q737.455 313.851 740.163 313.851 Q742.889 313.851 744.243 311.195 Q745.614 308.522 745.614 303.192 Q745.614 297.845 744.243 295.188 Q742.889 292.515 740.163 292.515 M740.163 289.737 Q744.52 289.737 746.812 293.192 Q749.121 296.629 749.121 303.192 Q749.121 309.737 746.812 313.192 Q744.52 316.629 740.163 316.629 Q735.805 316.629 733.496 313.192 Q731.205 309.737 731.205 303.192 Q731.205 296.629 733.496 293.192 Q735.805 289.737 740.163 289.737 Z" fill="#000000" fill-rule="evenodd" fill-opacity="1" /><path clip-path="url(#clip470)" d="M 0 0 M756.975 529.469 L769.214 529.469 L769.214 532.421 L752.756 532.421 L752.756 529.469 Q754.752 527.403 758.19 523.931 Q761.645 520.442 762.53 519.435 Q764.214 517.542 764.874 516.24 Q765.551 514.921 765.551 513.653 Q765.551 511.587 764.093 510.285 Q762.652 508.983 760.325 508.983 Q758.676 508.983 756.836 509.556 Q755.013 510.129 752.93 511.292 L752.93 507.751 Q755.048 506.9 756.888 506.466 Q758.728 506.032 760.256 506.032 Q764.284 506.032 766.679 508.046 Q769.075 510.06 769.075 513.428 Q769.075 515.025 768.468 516.466 Q767.877 517.889 766.297 519.834 Q765.863 520.337 763.537 522.751 Q761.211 525.146 756.975 529.469 Z" fill="#000000" fill-rule="evenodd" fill-opacity="1" /><path clip-path="url(#clip470)" d="M 0 0 M784.075 508.81 Q781.367 508.81 779.995 511.483 Q778.641 514.139 778.641 519.487 Q778.641 524.817 779.995 527.49 Q781.367 530.146 784.075 530.146 Q786.801 530.146 788.155 527.49 Q789.527 524.817 789.527 519.487 Q789.527 514.139 788.155 511.483 Q786.801 508.81 784.075 508.81 M784.075 506.032 Q788.433 506.032 790.724 509.487 Q793.033 512.924 793.033 519.487 Q793.033 526.032 790.724 529.487 Q788.433 532.924 784.075 532.924 Q779.718 532.924 777.409 529.487 Q775.117 526.032 775.117 519.487 Q775.117 512.924 777.409 509.487 Q779.718 506.032 784.075 506.032 Z" fill="#000000" fill-rule="evenodd" fill-opacity="1" /><path clip-path="url(#clip470)" d="M 0 0 M636.644 302.15 Q639.161 302.688 640.567 304.39 Q641.991 306.091 641.991 308.591 Q641.991 312.428 639.352 314.528 Q636.713 316.629 631.852 316.629 Q630.22 316.629 628.484 316.299 Q626.765 315.987 624.925 315.344 L624.925 311.959 Q626.384 312.81 628.12 313.244 Q629.856 313.678 631.748 313.678 Q635.047 313.678 636.765 312.376 Q638.502 311.074 638.502 308.591 Q638.502 306.299 636.887 305.015 Q635.29 303.713 632.425 303.713 L629.404 303.713 L629.404 300.831 L632.564 300.831 Q635.151 300.831 636.522 299.806 Q637.894 298.765 637.894 296.82 Q637.894 294.824 636.47 293.765 Q635.064 292.688 632.425 292.688 Q630.984 292.688 629.335 293.001 Q627.686 293.313 625.706 293.973 L625.706 290.848 Q627.703 290.292 629.439 290.015 Q631.193 289.737 632.738 289.737 Q636.731 289.737 639.057 291.56 Q641.383 293.365 641.383 296.456 Q641.383 298.608 640.151 300.101 Q638.918 301.577 636.644 302.15 Z" fill="#000000" fill-rule="evenodd" fill-opacity="1" /><path clip-path="url(#clip470)" d="M 0 0 M659.265 302.15 Q661.783 302.688 663.189 304.39 Q664.612 306.091 664.612 308.591 Q664.612 312.428 661.974 314.528 Q659.335 316.629 654.474 316.629 Q652.842 316.629 651.106 316.299 Q649.387 315.987 647.547 315.344 L647.547 311.959 Q649.005 312.81 650.741 313.244 Q652.477 313.678 654.369 313.678 Q657.668 313.678 659.387 312.376 Q661.123 311.074 661.123 308.591 Q661.123 306.299 659.508 305.015 Q657.911 303.713 655.047 303.713 L652.026 303.713 L652.026 300.831 L655.185 300.831 Q657.772 300.831 659.144 299.806 Q660.515 298.765 660.515 296.82 Q660.515 294.824 659.092 293.765 Q657.685 292.688 655.047 292.688 Q653.606 292.688 651.956 293.001 Q650.307 293.313 648.328 293.973 L648.328 290.848 Q650.324 290.292 652.06 290.015 Q653.814 289.737 655.359 289.737 Q659.352 289.737 661.678 291.56 Q664.005 293.365 664.005 296.456 Q664.005 298.608 662.772 300.101 Q661.54 301.577 659.265 302.15 Z" fill="#000000" fill-rule="evenodd" fill-opacity="1" /><path clip-path="url(#clip470)" d="M 0 0 M679.254 374.248 Q681.771 374.787 683.178 376.488 Q684.601 378.189 684.601 380.689 Q684.601 384.526 681.962 386.627 Q679.324 388.727 674.462 388.727 Q672.831 388.727 671.094 388.398 Q669.376 388.085 667.535 387.443 L667.535 384.057 Q668.994 384.908 670.73 385.342 Q672.466 385.776 674.358 385.776 Q677.657 385.776 679.376 384.474 Q681.112 383.172 681.112 380.689 Q681.112 378.398 679.497 377.113 Q677.9 375.811 675.035 375.811 L672.015 375.811 L672.015 372.929 L675.174 372.929 Q677.761 372.929 679.133 371.905 Q680.504 370.863 680.504 368.919 Q680.504 366.922 679.081 365.863 Q677.674 364.787 675.035 364.787 Q673.594 364.787 671.945 365.099 Q670.296 365.412 668.317 366.071 L668.317 362.946 Q670.313 362.391 672.049 362.113 Q673.803 361.835 675.348 361.835 Q679.341 361.835 681.667 363.658 Q683.994 365.464 683.994 368.554 Q683.994 370.707 682.761 372.2 Q681.528 373.675 679.254 374.248 Z" fill="#000000" fill-rule="evenodd" fill-opacity="1" /><path clip-path="url(#clip470)" d="M 0 0 M691.285 362.304 L705.053 362.304 L705.053 365.255 L694.497 365.255 L694.497 371.61 Q695.261 371.349 696.025 371.228 Q696.789 371.089 697.553 371.089 Q701.893 371.089 704.428 373.467 Q706.962 375.846 706.962 379.908 Q706.962 384.092 704.358 386.418 Q701.754 388.727 697.014 388.727 Q695.383 388.727 693.681 388.45 Q691.997 388.172 690.192 387.616 L690.192 384.092 Q691.754 384.943 693.421 385.359 Q695.087 385.776 696.945 385.776 Q699.948 385.776 701.702 384.196 Q703.455 382.616 703.455 379.908 Q703.455 377.2 701.702 375.62 Q699.948 374.04 696.945 374.04 Q695.539 374.04 694.133 374.353 Q692.744 374.665 691.285 375.325 L691.285 362.304 Z" fill="#000000" fill-rule="evenodd" fill-opacity="1" /><path clip-path="url(#clip470)" d="M 0 0 M721.864 446.347 Q724.382 446.885 725.788 448.586 Q727.212 450.288 727.212 452.788 Q727.212 456.624 724.573 458.725 Q721.934 460.826 717.073 460.826 Q715.441 460.826 713.705 460.496 Q711.986 460.183 710.146 459.541 L710.146 456.156 Q711.604 457.006 713.34 457.44 Q715.076 457.874 716.969 457.874 Q720.267 457.874 721.986 456.572 Q723.722 455.27 723.722 452.788 Q723.722 450.496 722.107 449.211 Q720.51 447.909 717.646 447.909 L714.625 447.909 L714.625 445.027 L717.785 445.027 Q720.371 445.027 721.743 444.003 Q723.114 442.961 723.114 441.017 Q723.114 439.02 721.691 437.961 Q720.285 436.885 717.646 436.885 Q716.205 436.885 714.555 437.197 Q712.906 437.51 710.927 438.17 L710.927 435.045 Q712.923 434.489 714.66 434.211 Q716.413 433.934 717.958 433.934 Q721.951 433.934 724.278 435.756 Q726.604 437.562 726.604 440.652 Q726.604 442.805 725.371 444.298 Q724.139 445.774 721.864 446.347 Z" fill="#000000" fill-rule="evenodd" fill-opacity="1" /><path clip-path="url(#clip470)" d="M 0 0 M741.795 445.965 Q739.434 445.965 738.045 447.579 Q736.673 449.194 736.673 452.006 Q736.673 454.802 738.045 456.433 Q739.434 458.048 741.795 458.048 Q744.156 458.048 745.527 456.433 Q746.916 454.802 746.916 452.006 Q746.916 449.194 745.527 447.579 Q744.156 445.965 741.795 445.965 M748.757 434.975 L748.757 438.17 Q747.437 437.545 746.083 437.215 Q744.746 436.885 743.427 436.885 Q739.955 436.885 738.114 439.229 Q736.291 441.572 736.031 446.312 Q737.055 444.802 738.6 444.003 Q740.146 443.187 742.003 443.187 Q745.909 443.187 748.166 445.565 Q750.441 447.927 750.441 452.006 Q750.441 455.999 748.079 458.413 Q745.718 460.826 741.795 460.826 Q737.298 460.826 734.92 457.388 Q732.541 453.933 732.541 447.388 Q732.541 441.243 735.458 437.597 Q738.375 433.934 743.288 433.934 Q744.607 433.934 745.944 434.194 Q747.298 434.454 748.757 434.975 Z" fill="#000000" fill-rule="evenodd" fill-opacity="1" /><circle clip-path="url(#clip472)" cx="497.094" cy="396" r="14" fill="#0000ff" fill-rule="evenodd" fill-opacity="1" stroke="none"/>
<circle clip-path="url(#clip472)" cx="624.925" cy="179.705" r="14" fill="#0000ff" fill-rule="evenodd" fill-opacity="1" stroke="none"/>
<circle clip-path="url(#clip472)" cx="667.535" cy="107.607" r="14" fill="#0000ff" fill-rule="evenodd" fill-opacity="1" stroke="none"/>
<circle clip-path="url(#clip472)" cx="710.146" cy="179.705" r="14" fill="#0000ff" fill-rule="evenodd" fill-opacity="1" stroke="none"/>
<circle clip-path="url(#clip472)" cx="752.756" cy="251.803" r="14" fill="#0000ff" fill-rule="evenodd" fill-opacity="1" stroke="none"/>
<circle clip-path="url(#clip472)" cx="284.043" cy="179.705" r="14" fill="#0000ff" fill-rule="evenodd" fill-opacity="1" stroke="none"/>
<circle clip-path="url(#clip472)" cx="326.654" cy="107.607" r="14" fill="#0000ff" fill-rule="evenodd" fill-opacity="1" stroke="none"/>
<circle clip-path="url(#clip472)" cx="369.264" cy="179.705" r="14" fill="#0000ff" fill-rule="evenodd" fill-opacity="1" stroke="none"/>
<circle clip-path="url(#clip472)" cx="411.874" cy="251.803" r="14" fill="#0000ff" fill-rule="evenodd" fill-opacity="1" stroke="none"/>
<circle clip-path="url(#clip472)" cx="454.484" cy="323.902" r="14" fill="#0000ff" fill-rule="evenodd" fill-opacity="1" stroke="none"/>
<circle clip-path="url(#clip472)" cx="241.433" cy="251.803" r="14" fill="#0000ff" fill-rule="evenodd" fill-opacity="1" stroke="none"/>
<circle clip-path="url(#clip472)" cx="454.484" cy="179.705" r="14" fill="#0000ff" fill-rule="evenodd" fill-opacity="1" stroke="none"/>
<circle clip-path="url(#clip472)" cx="497.094" cy="107.607" r="14" fill="#0000ff" fill-rule="evenodd" fill-opacity="1" stroke="none"/>
<circle clip-path="url(#clip472)" cx="539.705" cy="179.705" r="14" fill="#0000ff" fill-rule="evenodd" fill-opacity="1" stroke="none"/>
<circle clip-path="url(#clip472)" cx="539.705" cy="323.902" r="14" fill="#0000ff" fill-rule="evenodd" fill-opacity="1" stroke="none"/>
<circle clip-path="url(#clip472)" cx="582.315" cy="251.803" r="14" fill="#0000ff" fill-rule="evenodd" fill-opacity="1" stroke="none"/>
<circle clip-path="url(#clip472)" cx="156.213" cy="107.607" r="14" fill="#0000ff" fill-rule="evenodd" fill-opacity="1" stroke="none"/>
<circle clip-path="url(#clip472)" cx="198.823" cy="179.705" r="14" fill="#0000ff" fill-rule="evenodd" fill-opacity="1" stroke="none"/>
<path clip-path="url(#clip470)" d="M 0 0 M501.313 385.273 L513.553 385.273 L513.553 388.224 L497.094 388.224 L497.094 385.273 Q499.091 383.207 502.528 379.734 Q505.983 376.245 506.869 375.238 Q508.553 373.346 509.212 372.044 Q509.89 370.724 509.89 369.457 Q509.89 367.391 508.431 366.089 Q506.99 364.787 504.664 364.787 Q503.015 364.787 501.174 365.36 Q499.351 365.932 497.268 367.096 L497.268 363.554 Q499.386 362.703 501.226 362.269 Q503.067 361.835 504.594 361.835 Q508.622 361.835 511.018 363.849 Q513.414 365.863 513.414 369.231 Q513.414 370.828 512.806 372.269 Q512.216 373.693 510.636 375.637 Q510.202 376.141 507.876 378.554 Q505.549 380.95 501.313 385.273 Z" fill="#000000" fill-rule="evenodd" fill-opacity="1" /><path clip-path="url(#clip470)" d="M 0 0 M624.925 146.009 L641.592 146.009 L641.592 147.502 L632.182 171.929 L628.519 171.929 L637.373 148.96 L624.925 148.96 L624.925 146.009 Z" fill="#000000" fill-rule="evenodd" fill-opacity="1" /><path clip-path="url(#clip470)" d="M 0 0 M676.424 87.5218 Q673.924 87.5218 672.483 88.8586 Q671.06 90.1954 671.06 92.5391 Q671.06 94.8828 672.483 96.2196 Q673.924 97.5564 676.424 97.5564 Q678.924 97.5564 680.365 96.2196 Q681.806 94.8655 681.806 92.5391 Q681.806 90.1954 680.365 88.8586 Q678.942 87.5218 676.424 87.5218 M672.917 86.0287 Q670.66 85.4732 669.393 83.928 Q668.143 82.3829 668.143 80.1607 Q668.143 77.0531 670.348 75.2475 Q672.57 73.442 676.424 73.442 Q680.296 73.442 682.501 75.2475 Q684.705 77.0531 684.705 80.1607 Q684.705 82.3829 683.438 83.928 Q682.188 85.4732 679.949 86.0287 Q682.483 86.619 683.89 88.3377 Q685.313 90.0565 685.313 92.5391 Q685.313 96.3064 683.004 98.3203 Q680.712 100.334 676.424 100.334 Q672.136 100.334 669.827 98.3203 Q667.535 96.3064 667.535 92.5391 Q667.535 90.0565 668.959 88.3377 Q670.383 86.619 672.917 86.0287 M671.633 80.4905 Q671.633 82.5044 672.883 83.6329 Q674.15 84.7614 676.424 84.7614 Q678.681 84.7614 679.949 83.6329 Q681.233 82.5044 681.233 80.4905 Q681.233 78.4767 679.949 77.3482 Q678.681 76.2197 676.424 76.2197 Q674.15 76.2197 672.883 77.3482 Q671.633 78.4767 671.633 80.4905 Z" fill="#000000" fill-rule="evenodd" fill-opacity="1" /><path clip-path="url(#clip470)" d="M 0 0 M711.812 171.391 L711.812 168.196 Q713.132 168.821 714.486 169.151 Q715.84 169.481 717.142 169.481 Q720.614 169.481 722.437 167.155 Q724.278 164.811 724.538 160.054 Q723.531 161.547 721.986 162.346 Q720.441 163.144 718.566 163.144 Q714.677 163.144 712.403 160.801 Q710.146 158.44 710.146 154.36 Q710.146 150.367 712.507 147.953 Q714.868 145.54 718.791 145.54 Q723.288 145.54 725.649 148.995 Q728.028 152.433 728.028 158.995 Q728.028 165.124 725.111 168.787 Q722.212 172.433 717.298 172.433 Q715.979 172.433 714.625 172.172 Q713.271 171.912 711.812 171.391 M718.791 160.401 Q721.153 160.401 722.524 158.787 Q723.913 157.172 723.913 154.36 Q723.913 151.565 722.524 149.95 Q721.153 148.318 718.791 148.318 Q716.43 148.318 715.041 149.95 Q713.67 151.565 713.67 154.36 Q713.67 157.172 715.041 158.787 Q716.43 160.401 718.791 160.401 Z" fill="#000000" fill-rule="evenodd" fill-opacity="1" /><path clip-path="url(#clip470)" d="M 0 0 M753.259 241.076 L758.989 241.076 L758.989 221.302 L752.756 222.552 L752.756 219.357 L758.954 218.107 L762.461 218.107 L762.461 241.076 L768.19 241.076 L768.19 244.027 L753.259 244.027 L753.259 241.076 Z" fill="#000000" fill-rule="evenodd" fill-opacity="1" /><path clip-path="url(#clip470)" d="M 0 0 M775.881 241.076 L781.61 241.076 L781.61 221.302 L775.377 222.552 L775.377 219.357 L781.575 218.107 L785.082 218.107 L785.082 241.076 L790.811 241.076 L790.811 244.027 L775.881 244.027 L775.881 241.076 Z" fill="#000000" fill-rule="evenodd" fill-opacity="1" /><path clip-path="url(#clip470)" d="M 0 0 M284.547 168.978 L290.276 168.978 L290.276 149.203 L284.043 150.453 L284.043 147.259 L290.241 146.009 L293.748 146.009 L293.748 168.978 L299.477 168.978 L299.477 171.929 L284.547 171.929 L284.547 168.978 Z" fill="#000000" fill-rule="evenodd" fill-opacity="1" /><path clip-path="url(#clip470)" d="M 0 0 M317.185 157.953 Q319.703 158.492 321.109 160.193 Q322.533 161.894 322.533 164.394 Q322.533 168.231 319.894 170.332 Q317.255 172.433 312.394 172.433 Q310.762 172.433 309.026 172.103 Q307.307 171.79 305.467 171.148 L305.467 167.762 Q306.925 168.613 308.661 169.047 Q310.397 169.481 312.29 169.481 Q315.588 169.481 317.307 168.179 Q319.043 166.877 319.043 164.394 Q319.043 162.103 317.429 160.818 Q315.831 159.516 312.967 159.516 L309.946 159.516 L309.946 156.634 L313.106 156.634 Q315.692 156.634 317.064 155.61 Q318.435 154.568 318.435 152.624 Q318.435 150.627 317.012 149.568 Q315.606 148.492 312.967 148.492 Q311.526 148.492 309.877 148.804 Q308.227 149.117 306.248 149.776 L306.248 146.651 Q308.245 146.096 309.981 145.818 Q311.734 145.54 313.279 145.54 Q317.272 145.54 319.599 147.363 Q321.925 149.169 321.925 152.259 Q321.925 154.412 320.692 155.905 Q319.46 157.381 317.185 157.953 Z" fill="#000000" fill-rule="evenodd" fill-opacity="1" /><path clip-path="url(#clip470)" d="M 0 0 M327.157 96.8793 L332.886 96.8793 L332.886 77.1051 L326.654 78.3551 L326.654 75.1607 L332.851 73.9107 L336.358 73.9107 L336.358 96.8793 L342.087 96.8793 L342.087 99.8307 L327.157 99.8307 L327.157 96.8793 Z" fill="#000000" fill-rule="evenodd" fill-opacity="1" /><path clip-path="url(#clip470)" d="M 0 0 M358.806 76.9663 L349.952 90.803 L358.806 90.803 L358.806 76.9663 M357.886 73.9107 L362.296 73.9107 L362.296 90.803 L365.994 90.803 L365.994 93.7196 L362.296 93.7196 L362.296 99.8307 L358.806 99.8307 L358.806 93.7196 L347.105 93.7196 L347.105 90.3342 L357.886 73.9107 Z" fill="#000000" fill-rule="evenodd" fill-opacity="1" /><path clip-path="url(#clip470)" d="M 0 0 M369.767 168.978 L375.496 168.978 L375.496 149.203 L369.264 150.453 L369.264 147.259 L375.462 146.009 L378.969 146.009 L378.969 168.978 L384.698 168.978 L384.698 171.929 L369.767 171.929 L369.767 168.978 Z" fill="#000000" fill-rule="evenodd" fill-opacity="1" /><path clip-path="url(#clip470)" d="M 0 0 M391.816 146.009 L405.583 146.009 L405.583 148.96 L395.028 148.96 L395.028 155.315 Q395.791 155.054 396.555 154.933 Q397.319 154.794 398.083 154.794 Q402.423 154.794 404.958 157.172 Q407.493 159.551 407.493 163.613 Q407.493 167.797 404.889 170.123 Q402.284 172.433 397.545 172.433 Q395.913 172.433 394.212 172.155 Q392.528 171.877 390.722 171.321 L390.722 167.797 Q392.284 168.648 393.951 169.064 Q395.618 169.481 397.475 169.481 Q400.479 169.481 402.232 167.901 Q403.986 166.321 403.986 163.613 Q403.986 160.905 402.232 159.325 Q400.479 157.745 397.475 157.745 Q396.069 157.745 394.663 158.058 Q393.274 158.37 391.816 159.03 L391.816 146.009 Z" fill="#000000" fill-rule="evenodd" fill-opacity="1" /><path clip-path="url(#clip470)" d="M 0 0 M412.377 241.076 L418.107 241.076 L418.107 221.302 L411.874 222.552 L411.874 219.357 L418.072 218.107 L421.579 218.107 L421.579 241.076 L427.308 241.076 L427.308 244.027 L412.377 244.027 L412.377 241.076 Z" fill="#000000" fill-rule="evenodd" fill-opacity="1" /><path clip-path="url(#clip470)" d="M 0 0 M433.506 218.107 L450.172 218.107 L450.172 219.6 L440.763 244.027 L437.1 244.027 L445.954 221.059 L433.506 221.059 L433.506 218.107 Z" fill="#000000" fill-rule="evenodd" fill-opacity="1" /><path clip-path="url(#clip470)" d="M 0 0 M454.988 313.174 L460.717 313.174 L460.717 293.4 L454.484 294.65 L454.484 291.456 L460.682 290.206 L464.189 290.206 L464.189 313.174 L469.918 313.174 L469.918 316.126 L454.988 316.126 L454.988 313.174 Z" fill="#000000" fill-rule="evenodd" fill-opacity="1" /><path clip-path="url(#clip470)" d="M 0 0 M484.501 303.817 Q482.001 303.817 480.561 305.154 Q479.137 306.49 479.137 308.834 Q479.137 311.178 480.561 312.515 Q482.001 313.851 484.501 313.851 Q487.001 313.851 488.442 312.515 Q489.883 311.16 489.883 308.834 Q489.883 306.49 488.442 305.154 Q487.019 303.817 484.501 303.817 M480.995 302.324 Q478.738 301.768 477.47 300.223 Q476.22 298.678 476.22 296.456 Q476.22 293.348 478.425 291.542 Q480.647 289.737 484.501 289.737 Q488.373 289.737 490.578 291.542 Q492.783 293.348 492.783 296.456 Q492.783 298.678 491.515 300.223 Q490.265 301.768 488.026 302.324 Q490.56 302.914 491.967 304.633 Q493.39 306.351 493.39 308.834 Q493.39 312.601 491.081 314.615 Q488.79 316.629 484.501 316.629 Q480.213 316.629 477.904 314.615 Q475.613 312.601 475.613 308.834 Q475.613 306.351 477.036 304.633 Q478.46 302.914 480.995 302.324 M479.71 296.786 Q479.71 298.799 480.96 299.928 Q482.227 301.056 484.501 301.056 Q486.758 301.056 488.026 299.928 Q489.31 298.799 489.31 296.786 Q489.31 294.772 488.026 293.643 Q486.758 292.515 484.501 292.515 Q482.227 292.515 480.96 293.643 Q479.71 294.772 479.71 296.786 Z" fill="#000000" fill-rule="evenodd" fill-opacity="1" /><path clip-path="url(#clip470)" d="M 0 0 M245.652 241.076 L257.891 241.076 L257.891 244.027 L241.433 244.027 L241.433 241.076 Q243.43 239.01 246.867 235.538 Q250.322 232.048 251.207 231.041 Q252.891 229.149 253.551 227.847 Q254.228 226.527 254.228 225.26 Q254.228 223.194 252.77 221.892 Q251.329 220.59 249.002 220.59 Q247.353 220.59 245.513 221.163 Q243.69 221.736 241.607 222.899 L241.607 219.357 Q243.725 218.507 245.565 218.073 Q247.405 217.639 248.933 217.639 Q252.961 217.639 255.357 219.652 Q257.752 221.666 257.752 225.034 Q257.752 226.632 257.145 228.073 Q256.555 229.496 254.975 231.441 Q254.541 231.944 252.214 234.357 Q249.888 236.753 245.652 241.076 Z" fill="#000000" fill-rule="evenodd" fill-opacity="1" /><path clip-path="url(#clip470)" d="M 0 0 M272.752 220.416 Q270.044 220.416 268.673 223.09 Q267.318 225.746 267.318 231.093 Q267.318 236.423 268.673 239.097 Q270.044 241.753 272.752 241.753 Q275.478 241.753 276.832 239.097 Q278.204 236.423 278.204 231.093 Q278.204 225.746 276.832 223.09 Q275.478 220.416 272.752 220.416 M272.752 217.639 Q277.11 217.639 279.402 221.093 Q281.711 224.531 281.711 231.093 Q281.711 237.639 279.402 241.093 Q277.11 244.531 272.752 244.531 Q268.395 244.531 266.086 241.093 Q263.794 237.639 263.794 231.093 Q263.794 224.531 266.086 221.093 Q268.395 217.639 272.752 217.639 Z" fill="#000000" fill-rule="evenodd" fill-opacity="1" /><path clip-path="url(#clip470)" d="M 0 0 M458.703 168.978 L470.942 168.978 L470.942 171.929 L454.484 171.929 L454.484 168.978 Q456.481 166.912 459.918 163.44 Q463.373 159.95 464.259 158.943 Q465.943 157.051 466.602 155.749 Q467.279 154.429 467.279 153.162 Q467.279 151.096 465.821 149.794 Q464.38 148.492 462.054 148.492 Q460.404 148.492 458.564 149.065 Q456.741 149.637 454.658 150.801 L454.658 147.259 Q456.776 146.408 458.616 145.974 Q460.456 145.54 461.984 145.54 Q466.012 145.54 468.408 147.554 Q470.804 149.568 470.804 152.936 Q470.804 154.533 470.196 155.974 Q469.606 157.398 468.026 159.342 Q467.592 159.846 465.265 162.259 Q462.939 164.655 458.703 168.978 Z" fill="#000000" fill-rule="evenodd" fill-opacity="1" /><path clip-path="url(#clip470)" d="M 0 0 M485.804 159.62 Q483.304 159.62 481.863 160.957 Q480.439 162.294 480.439 164.637 Q480.439 166.981 481.863 168.318 Q483.304 169.655 485.804 169.655 Q488.304 169.655 489.744 168.318 Q491.185 166.964 491.185 164.637 Q491.185 162.294 489.744 160.957 Q488.321 159.62 485.804 159.62 M482.297 158.127 Q480.04 157.571 478.772 156.026 Q477.522 154.481 477.522 152.259 Q477.522 149.151 479.727 147.346 Q481.949 145.54 485.804 145.54 Q489.675 145.54 491.88 147.346 Q494.085 149.151 494.085 152.259 Q494.085 154.481 492.817 156.026 Q491.567 157.571 489.328 158.127 Q491.863 158.717 493.269 160.436 Q494.692 162.155 494.692 164.637 Q494.692 168.405 492.383 170.419 Q490.092 172.433 485.804 172.433 Q481.515 172.433 479.206 170.419 Q476.915 168.405 476.915 164.637 Q476.915 162.155 478.338 160.436 Q479.762 158.717 482.297 158.127 M481.012 152.589 Q481.012 154.603 482.262 155.731 Q483.529 156.86 485.804 156.86 Q488.06 156.86 489.328 155.731 Q490.613 154.603 490.613 152.589 Q490.613 150.575 489.328 149.447 Q488.06 148.318 485.804 148.318 Q483.529 148.318 482.262 149.447 Q481.012 150.575 481.012 152.589 Z" fill="#000000" fill-rule="evenodd" fill-opacity="1" /><path clip-path="url(#clip470)" d="M 0 0 M501.313 96.8793 L513.553 96.8793 L513.553 99.8307 L497.094 99.8307 L497.094 96.8793 Q499.091 94.8134 502.528 91.3412 Q505.983 87.8516 506.869 86.8447 Q508.553 84.9523 509.212 83.6503 Q509.89 82.3308 509.89 81.0635 Q509.89 78.9975 508.431 77.6954 Q506.99 76.3933 504.664 76.3933 Q503.015 76.3933 501.174 76.9663 Q499.351 77.5392 497.268 78.7024 L497.268 75.1607 Q499.386 74.31 501.226 73.876 Q503.067 73.442 504.594 73.442 Q508.622 73.442 511.018 75.4559 Q513.414 77.4697 513.414 80.8378 Q513.414 82.435 512.806 83.8759 Q512.216 85.2995 510.636 87.244 Q510.202 87.7475 507.876 90.1606 Q505.549 92.5565 501.313 96.8793 Z" fill="#000000" fill-rule="evenodd" fill-opacity="1" /><path clip-path="url(#clip470)" d="M 0 0 M521.018 99.2925 L521.018 96.0981 Q522.337 96.7231 523.692 97.053 Q525.046 97.3828 526.348 97.3828 Q529.82 97.3828 531.643 95.0564 Q533.483 92.7127 533.744 87.9558 Q532.737 89.4488 531.192 90.2474 Q529.646 91.046 527.771 91.046 Q523.883 91.046 521.608 88.7023 Q519.351 86.3412 519.351 82.2614 Q519.351 78.2683 521.712 75.8552 Q524.074 73.442 527.997 73.442 Q532.494 73.442 534.855 76.8968 Q537.233 80.3343 537.233 86.8968 Q537.233 93.0252 534.317 96.6884 Q531.417 100.334 526.504 100.334 Q525.185 100.334 523.83 100.074 Q522.476 99.8134 521.018 99.2925 M527.997 88.303 Q530.358 88.303 531.73 86.6884 Q533.119 85.0739 533.119 82.2614 Q533.119 79.4662 531.73 77.8517 Q530.358 76.2197 527.997 76.2197 Q525.636 76.2197 524.247 77.8517 Q522.876 79.4662 522.876 82.2614 Q522.876 85.0739 524.247 86.6884 Q525.636 88.303 527.997 88.303 Z" fill="#000000" fill-rule="evenodd" fill-opacity="1" /><path clip-path="url(#clip470)" d="M 0 0 M551.423 157.953 Q553.941 158.492 555.347 160.193 Q556.771 161.894 556.771 164.394 Q556.771 168.231 554.132 170.332 Q551.493 172.433 546.632 172.433 Q545 172.433 543.264 172.103 Q541.545 171.79 539.705 171.148 L539.705 167.762 Q541.163 168.613 542.899 169.047 Q544.635 169.481 546.528 169.481 Q549.826 169.481 551.545 168.179 Q553.281 166.877 553.281 164.394 Q553.281 162.103 551.666 160.818 Q550.069 159.516 547.205 159.516 L544.184 159.516 L544.184 156.634 L547.344 156.634 Q549.93 156.634 551.302 155.61 Q552.673 154.568 552.673 152.624 Q552.673 150.627 551.25 149.568 Q549.844 148.492 547.205 148.492 Q545.764 148.492 544.114 148.804 Q542.465 149.117 540.486 149.776 L540.486 146.651 Q542.482 146.096 544.219 145.818 Q545.972 145.54 547.517 145.54 Q551.51 145.54 553.837 147.363 Q556.163 149.169 556.163 152.259 Q556.163 154.412 554.93 155.905 Q553.698 157.381 551.423 157.953 Z" fill="#000000" fill-rule="evenodd" fill-opacity="1" /><path clip-path="url(#clip470)" d="M 0 0 M570.92 148.318 Q568.212 148.318 566.84 150.992 Q565.486 153.648 565.486 158.995 Q565.486 164.325 566.84 166.999 Q568.212 169.655 570.92 169.655 Q573.646 169.655 575 166.999 Q576.371 164.325 576.371 158.995 Q576.371 153.648 575 150.992 Q573.646 148.318 570.92 148.318 M570.92 145.54 Q575.277 145.54 577.569 148.995 Q579.878 152.433 579.878 158.995 Q579.878 165.54 577.569 168.995 Q575.277 172.433 570.92 172.433 Q566.562 172.433 564.253 168.995 Q561.962 165.54 561.962 158.995 Q561.962 152.433 564.253 148.995 Q566.562 145.54 570.92 145.54 Z" fill="#000000" fill-rule="evenodd" fill-opacity="1" /><path clip-path="url(#clip470)" d="M 0 0 M551.423 302.15 Q553.941 302.688 555.347 304.39 Q556.771 306.091 556.771 308.591 Q556.771 312.428 554.132 314.528 Q551.493 316.629 546.632 316.629 Q545 316.629 543.264 316.299 Q541.545 315.987 539.705 315.344 L539.705 311.959 Q541.163 312.81 542.899 313.244 Q544.635 313.678 546.528 313.678 Q549.826 313.678 551.545 312.376 Q553.281 311.074 553.281 308.591 Q553.281 306.299 551.666 305.015 Q550.069 303.713 547.205 303.713 L544.184 303.713 L544.184 300.831 L547.344 300.831 Q549.93 300.831 551.302 299.806 Q552.673 298.765 552.673 296.82 Q552.673 294.824 551.25 293.765 Q549.844 292.688 547.205 292.688 Q545.764 292.688 544.114 293.001 Q542.465 293.313 540.486 293.973 L540.486 290.848 Q542.482 290.292 544.219 290.015 Q545.972 289.737 547.517 289.737 Q551.51 289.737 553.837 291.56 Q556.163 293.365 556.163 296.456 Q556.163 298.608 554.93 300.101 Q553.698 301.577 551.423 302.15 Z" fill="#000000" fill-rule="evenodd" fill-opacity="1" /><path clip-path="url(#clip470)" d="M 0 0 M564.028 313.174 L569.757 313.174 L569.757 293.4 L563.524 294.65 L563.524 291.456 L569.722 290.206 L573.229 290.206 L573.229 313.174 L578.958 313.174 L578.958 316.126 L564.028 316.126 L564.028 313.174 Z" fill="#000000" fill-rule="evenodd" fill-opacity="1" /><path clip-path="url(#clip470)" d="M 0 0 M594.034 230.052 Q596.551 230.59 597.957 232.291 Q599.381 233.993 599.381 236.493 Q599.381 240.329 596.742 242.43 Q594.103 244.531 589.242 244.531 Q587.61 244.531 585.874 244.201 Q584.155 243.888 582.315 243.246 L582.315 239.861 Q583.773 240.711 585.509 241.145 Q587.245 241.579 589.138 241.579 Q592.436 241.579 594.155 240.277 Q595.891 238.975 595.891 236.493 Q595.891 234.201 594.277 232.916 Q592.679 231.614 589.815 231.614 L586.794 231.614 L586.794 228.732 L589.954 228.732 Q592.541 228.732 593.912 227.708 Q595.284 226.666 595.284 224.722 Q595.284 222.725 593.86 221.666 Q592.454 220.59 589.815 220.59 Q588.374 220.59 586.725 220.902 Q585.075 221.215 583.096 221.875 L583.096 218.75 Q585.093 218.194 586.829 217.916 Q588.582 217.639 590.127 217.639 Q594.12 217.639 596.447 219.462 Q598.773 221.267 598.773 224.357 Q598.773 226.51 597.541 228.003 Q596.308 229.479 594.034 230.052 Z" fill="#000000" fill-rule="evenodd" fill-opacity="1" /><path clip-path="url(#clip470)" d="M 0 0 M609.051 241.076 L621.29 241.076 L621.29 244.027 L604.832 244.027 L604.832 241.076 Q606.829 239.01 610.266 235.538 Q613.721 232.048 614.606 231.041 Q616.29 229.149 616.95 227.847 Q617.627 226.527 617.627 225.26 Q617.627 223.194 616.169 221.892 Q614.728 220.59 612.402 220.59 Q610.752 220.59 608.912 221.163 Q607.089 221.736 605.006 222.899 L605.006 219.357 Q607.124 218.507 608.964 218.073 Q610.804 217.639 612.332 217.639 Q616.36 217.639 618.756 219.652 Q621.152 221.666 621.152 225.034 Q621.152 226.632 620.544 228.073 Q619.954 229.496 618.374 231.441 Q617.94 231.944 615.613 234.357 Q613.287 236.753 609.051 241.076 Z" fill="#000000" fill-rule="evenodd" fill-opacity="1" /><path clip-path="url(#clip470)" d="M 0 0 M167.931 85.8551 Q170.449 86.3933 171.855 88.0947 Q173.278 89.7961 173.278 92.296 Q173.278 96.1328 170.64 98.2335 Q168.001 100.334 163.14 100.334 Q161.508 100.334 159.772 100.004 Q158.053 99.6918 156.213 99.0495 L156.213 95.6641 Q157.671 96.5148 159.407 96.9488 Q161.143 97.3828 163.035 97.3828 Q166.334 97.3828 168.053 96.0807 Q169.789 94.7787 169.789 92.296 Q169.789 90.0044 168.174 88.7197 Q166.577 87.4176 163.713 87.4176 L160.692 87.4176 L160.692 84.5357 L163.851 84.5357 Q166.438 84.5357 167.81 83.5114 Q169.181 82.4697 169.181 80.5253 Q169.181 78.5288 167.758 77.4697 Q166.351 76.3933 163.713 76.3933 Q162.272 76.3933 160.622 76.7058 Q158.973 77.0183 156.994 77.6781 L156.994 74.5531 Q158.99 73.9975 160.726 73.7198 Q162.48 73.442 164.025 73.442 Q168.018 73.442 170.344 75.2649 Q172.671 77.0704 172.671 80.1607 Q172.671 82.3135 171.438 83.8065 Q170.206 85.2822 167.931 85.8551 Z" fill="#000000" fill-rule="evenodd" fill-opacity="1" /><path clip-path="url(#clip470)" d="M 0 0 M179.962 73.9107 L193.73 73.9107 L193.73 76.8621 L183.174 76.8621 L183.174 83.2162 Q183.938 82.9558 184.702 82.8343 Q185.466 82.6954 186.23 82.6954 Q190.57 82.6954 193.105 85.0739 Q195.639 87.4523 195.639 91.5148 Q195.639 95.6988 193.035 98.0252 Q190.431 100.334 185.692 100.334 Q184.06 100.334 182.358 100.056 Q180.674 99.7786 178.869 99.2231 L178.869 95.6988 Q180.431 96.5495 182.098 96.9662 Q183.765 97.3828 185.622 97.3828 Q188.626 97.3828 190.379 95.803 Q192.133 94.2231 192.133 91.5148 Q192.133 88.8065 190.379 87.2266 Q188.626 85.6468 185.622 85.6468 Q184.216 85.6468 182.81 85.9593 Q181.421 86.2718 179.962 86.9315 L179.962 73.9107 Z" fill="#000000" fill-rule="evenodd" fill-opacity="1" /><path clip-path="url(#clip470)" d="M 0 0 M210.542 157.953 Q213.059 158.492 214.465 160.193 Q215.889 161.894 215.889 164.394 Q215.889 168.231 213.25 170.332 Q210.611 172.433 205.75 172.433 Q204.118 172.433 202.382 172.103 Q200.663 171.79 198.823 171.148 L198.823 167.762 Q200.281 168.613 202.017 169.047 Q203.753 169.481 205.646 169.481 Q208.944 169.481 210.663 168.179 Q212.399 166.877 212.399 164.394 Q212.399 162.103 210.785 160.818 Q209.187 159.516 206.323 159.516 L203.302 159.516 L203.302 156.634 L206.462 156.634 Q209.048 156.634 210.42 155.61 Q211.792 154.568 211.792 152.624 Q211.792 150.627 210.368 149.568 Q208.962 148.492 206.323 148.492 Q204.882 148.492 203.233 148.804 Q201.583 149.117 199.604 149.776 L199.604 146.651 Q201.601 146.096 203.337 145.818 Q205.09 145.54 206.635 145.54 Q210.628 145.54 212.955 147.363 Q215.281 149.169 215.281 152.259 Q215.281 154.412 214.048 155.905 Q212.816 157.381 210.542 157.953 Z" fill="#000000" fill-rule="evenodd" fill-opacity="1" /><path clip-path="url(#clip470)" d="M 0 0 M230.472 157.571 Q228.111 157.571 226.722 159.186 Q225.35 160.801 225.35 163.613 Q225.35 166.408 226.722 168.04 Q228.111 169.655 230.472 169.655 Q232.833 169.655 234.205 168.04 Q235.593 166.408 235.593 163.613 Q235.593 160.801 234.205 159.186 Q232.833 157.571 230.472 157.571 M237.434 146.582 L237.434 149.776 Q236.114 149.151 234.76 148.822 Q233.423 148.492 232.104 148.492 Q228.632 148.492 226.791 150.835 Q224.969 153.179 224.708 157.919 Q225.732 156.408 227.278 155.61 Q228.823 154.794 230.68 154.794 Q234.587 154.794 236.843 157.172 Q239.118 159.533 239.118 163.613 Q239.118 167.606 236.757 170.019 Q234.396 172.433 230.472 172.433 Q225.975 172.433 223.597 168.995 Q221.219 165.54 221.219 158.995 Q221.219 152.849 224.135 149.203 Q227.052 145.54 231.965 145.54 Q233.284 145.54 234.621 145.801 Q235.975 146.061 237.434 146.582 Z" fill="#000000" fill-rule="evenodd" fill-opacity="1" /></svg>
