<?xml version="1.0" encoding="utf-8"?>
<svg xmlns="http://www.w3.org/2000/svg" xmlns:xlink="http://www.w3.org/1999/xlink" width="200" height="200" viewBox="0 0 800 800">
<defs>
  <clipPath id="clip290">
    <rect x="0" y="0" width="800" height="800"/>
  </clipPath>
</defs>
<path clip-path="url(#clip290)" d="
M0 800 L800 800 L800 0 L0 0  Z
  " fill="#ffffff" fill-rule="evenodd" fill-opacity="1"/>
<defs>
  <clipPath id="clip291">
    <rect x="160" y="80" width="561" height="561"/>
  </clipPath>
</defs>
<path clip-path="url(#clip290)" d="
M70.9921 729.008 L752.756 729.008 L752.756 62.9921 L70.9921 62.9921  Z
  " fill="#ffffff" fill-rule="evenodd" fill-opacity="1"/>
<defs>
  <clipPath id="clip292">
    <rect x="70" y="62" width="683" height="667"/>
  </clipPath>
</defs>
<polyline clip-path="url(#clip290)" style="stroke:#000000; stroke-width:4; stroke-opacity:1; fill:none" points="
  70.9921,729.008 752.756,729.008 
  "/>
<polyline clip-path="url(#clip290)" style="stroke:#000000; stroke-width:4; stroke-opacity:1; fill:none" points="
  70.9921,729.008 70.9921,721.016 
  "/>
<polyline clip-path="url(#clip290)" style="stroke:#000000; stroke-width:4; stroke-opacity:1; fill:none" points="
  241.433,729.008 241.433,721.016 
  "/>
<polyline clip-path="url(#clip290)" style="stroke:#000000; stroke-width:4; stroke-opacity:1; fill:none" points="
  411.874,729.008 411.874,721.016 
  "/>
<polyline clip-path="url(#clip290)" style="stroke:#000000; stroke-width:4; stroke-opacity:1; fill:none" points="
  582.315,729.008 582.315,721.016 
  "/>
<polyline clip-path="url(#clip290)" style="stroke:#000000; stroke-width:4; stroke-opacity:1; fill:none" points="
  752.756,729.008 752.756,721.016 
  "/>
<path clip-path="url(#clip290)" d="M 0 0 M40.9344 760.051 L70.6102 760.051 L70.6102 763.986 L40.9344 763.986 L40.9344 760.051 Z" fill="#000000" fill-rule="evenodd" fill-opacity="1" /><path clip-path="url(#clip290)" d="M 0 0 M84.7305 772.945 L101.05 772.945 L101.05 776.88 L79.1055 776.88 L79.1055 772.945 Q81.7675 770.19 86.3508 765.56 Q90.9573 760.908 92.1378 759.565 Q94.3832 757.042 95.2628 755.306 Q96.1656 753.547 96.1656 751.857 Q96.1656 749.102 94.2212 747.366 Q92.2999 745.63 89.198 745.63 Q86.999 745.63 84.5453 746.394 Q82.1148 747.158 79.337 748.709 L79.337 743.987 Q82.161 742.852 84.6147 742.274 Q87.0684 741.695 89.1055 741.695 Q94.4758 741.695 97.6702 744.38 Q100.865 747.065 100.865 751.556 Q100.865 753.686 100.054 755.607 Q99.2674 757.505 97.161 760.098 Q96.5823 760.769 93.4804 763.986 Q90.3786 767.181 84.7305 772.945 Z" fill="#000000" fill-rule="evenodd" fill-opacity="1" /><path clip-path="url(#clip290)" d="M 0 0 M211.19 760.051 L240.866 760.051 L240.866 763.986 L211.19 763.986 L211.19 760.051 Z" fill="#000000" fill-rule="evenodd" fill-opacity="1" /><path clip-path="url(#clip290)" d="M 0 0 M251.769 772.945 L259.408 772.945 L259.408 746.579 L251.097 748.246 L251.097 743.987 L259.361 742.32 L264.037 742.32 L264.037 772.945 L271.676 772.945 L271.676 776.88 L251.769 776.88 L251.769 772.945 Z" fill="#000000" fill-rule="evenodd" fill-opacity="1" /><path clip-path="url(#clip290)" d="M 0 0 M411.874 745.399 Q408.263 745.399 406.434 748.963 Q404.629 752.505 404.629 759.635 Q404.629 766.741 406.434 770.306 Q408.263 773.847 411.874 773.847 Q415.508 773.847 417.314 770.306 Q419.142 766.741 419.142 759.635 Q419.142 752.505 417.314 748.963 Q415.508 745.399 411.874 745.399 M411.874 741.695 Q417.684 741.695 420.74 746.301 Q423.818 750.885 423.818 759.635 Q423.818 768.361 420.74 772.968 Q417.684 777.551 411.874 777.551 Q406.064 777.551 402.985 772.968 Q399.93 768.361 399.93 759.635 Q399.93 750.885 402.985 746.301 Q406.064 741.695 411.874 741.695 Z" fill="#000000" fill-rule="evenodd" fill-opacity="1" /><path clip-path="url(#clip290)" d="M 0 0 M572.697 772.945 L580.336 772.945 L580.336 746.579 L572.026 748.246 L572.026 743.987 L580.29 742.32 L584.965 742.32 L584.965 772.945 L592.604 772.945 L592.604 776.88 L572.697 776.88 L572.697 772.945 Z" fill="#000000" fill-rule="evenodd" fill-opacity="1" /><path clip-path="url(#clip290)" d="M 0 0 M747.409 772.945 L763.728 772.945 L763.728 776.88 L741.784 776.88 L741.784 772.945 Q744.446 770.19 749.029 765.56 Q753.636 760.908 754.816 759.565 Q757.061 757.042 757.941 755.306 Q758.844 753.547 758.844 751.857 Q758.844 749.102 756.899 747.366 Q754.978 745.63 751.876 745.63 Q749.677 745.63 747.224 746.394 Q744.793 747.158 742.015 748.709 L742.015 743.987 Q744.839 742.852 747.293 742.274 Q749.747 741.695 751.784 741.695 Q757.154 741.695 760.348 744.38 Q763.543 747.065 763.543 751.556 Q763.543 753.686 762.733 755.607 Q761.946 757.505 759.839 760.098 Q759.261 760.769 756.159 763.986 Q753.057 767.181 747.409 772.945 Z" fill="#000000" fill-rule="evenodd" fill-opacity="1" /><polyline clip-path="url(#clip290)" style="stroke:#000000; stroke-width:4; stroke-opacity:1; fill:none" points="
  70.9921,729.008 70.9921,62.9921 
  "/>
<polyline clip-path="url(#clip290)" style="stroke:#000000; stroke-width:4; stroke-opacity:1; fill:none" points="
  70.9921,729.008 79.1733,729.008 
  "/>
<polyline clip-path="url(#clip290)" style="stroke:#000000; stroke-width:4; stroke-opacity:1; fill:none" points="
  70.9921,562.504 79.1733,562.504 
  "/>
<polyline clip-path="url(#clip290)" style="stroke:#000000; stroke-width:4; stroke-opacity:1; fill:none" points="
  70.9921,396 79.1733,396 
  "/>
<polyline clip-path="url(#clip290)" style="stroke:#000000; stroke-width:4; stroke-opacity:1; fill:none" points="
  70.9921,229.496 79.1733,229.496 
  "/>
<polyline clip-path="url(#clip290)" style="stroke:#000000; stroke-width:4; stroke-opacity:1; fill:none" points="
  70.9921,62.9921 79.1733,62.9921 
  "/>
<path clip-path="url(#clip290)" d="M 0 0 M-1.12329 729.459 L28.5525 729.459 L28.5525 733.394 L-1.12329 733.394 L-1.12329 729.459 Z" fill="#000000" fill-rule="evenodd" fill-opacity="1" /><path clip-path="url(#clip290)" d="M 0 0 M42.6728 742.353 L58.9921 742.353 L58.9921 746.288 L37.0478 746.288 L37.0478 742.353 Q39.7098 739.598 44.2931 734.968 Q48.8996 730.316 50.0801 728.973 Q52.3255 726.45 53.2051 724.714 Q54.1079 722.955 54.1079 721.265 Q54.1079 718.51 52.1635 716.774 Q50.2422 715.038 47.1403 715.038 Q44.9413 715.038 42.4876 715.802 Q40.057 716.566 37.2793 718.117 L37.2793 713.395 Q40.1033 712.26 42.557 711.682 Q45.0107 711.103 47.0477 711.103 Q52.4181 711.103 55.6125 713.788 Q58.8069 716.473 58.8069 720.964 Q58.8069 723.094 57.9968 725.015 Q57.2097 726.913 55.1033 729.506 Q54.5246 730.177 51.4227 733.394 Q48.3209 736.589 42.6728 742.353 Z" fill="#000000" fill-rule="evenodd" fill-opacity="1" /><path clip-path="url(#clip290)" d="M 0 0 M-1.49366 562.955 L28.1821 562.955 L28.1821 566.89 L-1.49366 566.89 L-1.49366 562.955 Z" fill="#000000" fill-rule="evenodd" fill-opacity="1" /><path clip-path="url(#clip290)" d="M 0 0 M39.0848 575.849 L46.7237 575.849 L46.7237 549.483 L38.4135 551.15 L38.4135 546.891 L46.6774 545.224 L51.3533 545.224 L51.3533 575.849 L58.9921 575.849 L58.9921 579.784 L39.0848 579.784 L39.0848 575.849 Z" fill="#000000" fill-rule="evenodd" fill-opacity="1" /><path clip-path="url(#clip290)" d="M 0 0 M47.0477 381.799 Q43.4367 381.799 41.608 385.363 Q39.8024 388.905 39.8024 396.035 Q39.8024 403.141 41.608 406.706 Q43.4367 410.248 47.0477 410.248 Q50.682 410.248 52.4875 406.706 Q54.3162 403.141 54.3162 396.035 Q54.3162 388.905 52.4875 385.363 Q50.682 381.799 47.0477 381.799 M47.0477 378.095 Q52.8579 378.095 55.9134 382.701 Q58.9921 387.285 58.9921 396.035 Q58.9921 404.762 55.9134 409.368 Q52.8579 413.951 47.0477 413.951 Q41.2376 413.951 38.1589 409.368 Q35.1034 404.762 35.1034 396.035 Q35.1034 387.285 38.1589 382.701 Q41.2376 378.095 47.0477 378.095 Z" fill="#000000" fill-rule="evenodd" fill-opacity="1" /><path clip-path="url(#clip290)" d="M 0 0 M39.0848 242.841 L46.7237 242.841 L46.7237 216.475 L38.4135 218.142 L38.4135 213.883 L46.6774 212.216 L51.3533 212.216 L51.3533 242.841 L58.9921 242.841 L58.9921 246.776 L39.0848 246.776 L39.0848 242.841 Z" fill="#000000" fill-rule="evenodd" fill-opacity="1" /><path clip-path="url(#clip290)" d="M 0 0 M42.6728 76.337 L58.9921 76.337 L58.9921 80.2721 L37.0478 80.2721 L37.0478 76.337 Q39.7098 73.5823 44.2931 68.9527 Q48.8996 64.3 50.0801 62.9574 Q52.3255 60.4343 53.2051 58.6982 Q54.1079 56.9389 54.1079 55.2491 Q54.1079 52.4945 52.1635 50.7584 Q50.2422 49.0223 47.1403 49.0223 Q44.9413 49.0223 42.4876 49.7862 Q40.057 50.5501 37.2793 52.101 L37.2793 47.3788 Q40.1033 46.2445 42.557 45.6658 Q45.0107 45.0871 47.0477 45.0871 Q52.4181 45.0871 55.6125 47.7723 Q58.8069 50.4575 58.8069 54.9482 Q58.8069 57.0778 57.9968 58.9991 Q57.2097 60.8972 55.1033 63.4898 Q54.5246 64.1611 51.4227 67.3787 Q48.3209 70.5731 42.6728 76.337 Z" fill="#000000" fill-rule="evenodd" fill-opacity="1" /><path clip-path="url(#clip290)" d="M 0 0 M352.222 5.45367 L362.036 5.45367 L362.036 8.76384 L356.481 8.76384 L356.481 44.4118 L362.036 44.4118 L362.036 47.722 L352.222 47.722 L352.222 5.45367 Z" fill="#000000" fill-rule="evenodd" fill-opacity="1" /><path clip-path="url(#clip290)" d="M 0 0 M381.712 9.99069 Q378.101 9.99069 376.272 13.5555 Q374.467 17.0971 374.467 24.2267 Q374.467 31.3332 376.272 34.898 Q378.101 38.4396 381.712 38.4396 Q385.346 38.4396 387.152 34.898 Q388.981 31.3332 388.981 24.2267 Q388.981 17.0971 387.152 13.5555 Q385.346 9.99069 381.712 9.99069 M381.712 6.287 Q387.522 6.287 390.578 10.8935 Q393.657 15.4768 393.657 24.2267 Q393.657 32.9535 390.578 37.56 Q387.522 42.1433 381.712 42.1433 Q375.902 42.1433 372.823 37.56 Q369.768 32.9535 369.768 24.2267 Q369.768 15.4768 372.823 10.8935 Q375.902 6.287 381.712 6.287 Z" fill="#000000" fill-rule="evenodd" fill-opacity="1" /><path clip-path="url(#clip290)" d="M 0 0 M402.36 35.5924 L407.244 35.5924 L407.244 39.5739 L403.448 46.9812 L400.462 46.9812 L402.36 39.5739 L402.36 35.5924 Z" fill="#000000" fill-rule="evenodd" fill-opacity="1" /><path clip-path="url(#clip290)" d="M 0 0 M432.823 37.5368 L440.462 37.5368 L440.462 11.1712 L432.152 12.8379 L432.152 8.57866 L440.416 6.912 L445.091 6.912 L445.091 37.5368 L452.73 37.5368 L452.73 41.472 L432.823 41.472 L432.823 37.5368 Z" fill="#000000" fill-rule="evenodd" fill-opacity="1" /><path clip-path="url(#clip290)" d="M 0 0 M471.526 5.45367 L471.526 47.722 L461.712 47.722 L461.712 44.4118 L467.244 44.4118 L467.244 8.76384 L461.712 8.76384 L461.712 5.45367 L471.526 5.45367 Z" fill="#000000" fill-rule="evenodd" fill-opacity="1" /><circle clip-path="url(#clip292)" cx="411.874" cy="540.197" r="14" fill="#0000ff" fill-rule="evenodd" fill-opacity="1" stroke="none"/>
<circle clip-path="url(#clip292)" cx="369.264" cy="468.098" r="14" fill="#0000ff" fill-rule="evenodd" fill-opacity="1" stroke="none"/>
<circle clip-path="url(#clip292)" cx="454.484" cy="468.098" r="14" fill="#0000ff" fill-rule="evenodd" fill-opacity="1" stroke="none"/>
<circle clip-path="url(#clip292)" cx="582.315" cy="540.197" r="14" fill="#0000ff" fill-rule="evenodd" fill-opacity="1" stroke="none"/>
<circle clip-path="url(#clip292)" cx="539.705" cy="468.098" r="14" fill="#0000ff" fill-rule="evenodd" fill-opacity="1" stroke="none"/>
<circle clip-path="url(#clip292)" cx="624.925" cy="468.098" r="14" fill="#0000ff" fill-rule="evenodd" fill-opacity="1" stroke="none"/>
<circle clip-path="url(#clip292)" cx="667.535" cy="684.393" r="14" fill="#0000ff" fill-rule="evenodd" fill-opacity="1" stroke="none"/>
<circle clip-path="url(#clip292)" cx="624.925" cy="612.295" r="14" fill="#0000ff" fill-rule="evenodd" fill-opacity="1" stroke="none"/>
<circle clip-path="url(#clip292)" cx="710.146" cy="612.295" r="14" fill="#0000ff" fill-rule="evenodd" fill-opacity="1" stroke="none"/>
<circle clip-path="url(#clip292)" cx="156.213" cy="684.393" r="14" fill="#0000ff" fill-rule="evenodd" fill-opacity="1" stroke="none"/>
<circle clip-path="url(#clip292)" cx="113.602" cy="612.295" r="14" fill="#0000ff" fill-rule="evenodd" fill-opacity="1" stroke="none"/>
<circle clip-path="url(#clip292)" cx="198.823" cy="612.295" r="14" fill="#0000ff" fill-rule="evenodd" fill-opacity="1" stroke="none"/>
<circle clip-path="url(#clip292)" cx="326.654" cy="684.393" r="14" fill="#0000ff" fill-rule="evenodd" fill-opacity="1" stroke="none"/>
<circle clip-path="url(#clip292)" cx="284.043" cy="612.295" r="14" fill="#0000ff" fill-rule="evenodd" fill-opacity="1" stroke="none"/>
<circle clip-path="url(#clip292)" cx="369.264" cy="612.295" r="14" fill="#0000ff" fill-rule="evenodd" fill-opacity="1" stroke="none"/>
<circle clip-path="url(#clip292)" cx="497.094" cy="684.393" r="14" fill="#0000ff" fill-rule="evenodd" fill-opacity="1" stroke="none"/>
<circle clip-path="url(#clip292)" cx="454.484" cy="612.295" r="14" fill="#0000ff" fill-rule="evenodd" fill-opacity="1" stroke="none"/>
<circle clip-path="url(#clip292)" cx="539.705" cy="612.295" r="14" fill="#0000ff" fill-rule="evenodd" fill-opacity="1" stroke="none"/>
<path clip-path="url(#clip290)" d="M 0 0 M412.377 529.469 L418.107 529.469 L418.107 509.695 L411.874 510.945 L411.874 507.751 L418.072 506.501 L421.579 506.501 L421.579 529.469 L427.308 529.469 L427.308 532.421 L412.377 532.421 L412.377 529.469 Z" fill="#000000" fill-rule="evenodd" fill-opacity="1" /><path clip-path="url(#clip290)" d="M 0 0 M441.891 508.81 Q439.183 508.81 437.811 511.483 Q436.457 514.139 436.457 519.487 Q436.457 524.817 437.811 527.49 Q439.183 530.146 441.891 530.146 Q444.617 530.146 445.971 527.49 Q447.343 524.817 447.343 519.487 Q447.343 514.139 445.971 511.483 Q444.617 508.81 441.891 508.81 M441.891 506.032 Q446.249 506.032 448.54 509.487 Q450.85 512.924 450.85 519.487 Q450.85 526.032 448.54 529.487 Q446.249 532.924 441.891 532.924 Q437.534 532.924 435.225 529.487 Q432.933 526.032 432.933 519.487 Q432.933 512.924 435.225 509.487 Q437.534 506.032 441.891 506.032 Z" fill="#000000" fill-rule="evenodd" fill-opacity="1" /><path clip-path="url(#clip290)" d="M 0 0 M369.767 457.371 L375.496 457.371 L375.496 437.597 L369.264 438.847 L369.264 435.652 L375.462 434.402 L378.969 434.402 L378.969 457.371 L384.698 457.371 L384.698 460.322 L369.767 460.322 L369.767 457.371 Z" fill="#000000" fill-rule="evenodd" fill-opacity="1" /><path clip-path="url(#clip290)" d="M 0 0 M392.389 457.371 L398.118 457.371 L398.118 437.597 L391.885 438.847 L391.885 435.652 L398.083 434.402 L401.59 434.402 L401.59 457.371 L407.319 457.371 L407.319 460.322 L392.389 460.322 L392.389 457.371 Z" fill="#000000" fill-rule="evenodd" fill-opacity="1" /><path clip-path="url(#clip290)" d="M 0 0 M454.988 457.371 L460.717 457.371 L460.717 437.597 L454.484 438.847 L454.484 435.652 L460.682 434.402 L464.189 434.402 L464.189 457.371 L469.918 457.371 L469.918 460.322 L454.988 460.322 L454.988 457.371 Z" fill="#000000" fill-rule="evenodd" fill-opacity="1" /><path clip-path="url(#clip290)" d="M 0 0 M480.022 457.371 L492.262 457.371 L492.262 460.322 L475.804 460.322 L475.804 457.371 Q477.8 455.305 481.238 451.833 Q484.692 448.343 485.578 447.336 Q487.262 445.444 487.922 444.142 Q488.599 442.822 488.599 441.555 Q488.599 439.489 487.14 438.187 Q485.699 436.885 483.373 436.885 Q481.724 436.885 479.883 437.458 Q478.061 438.031 475.977 439.194 L475.977 435.652 Q478.095 434.802 479.936 434.368 Q481.776 433.934 483.304 433.934 Q487.331 433.934 489.727 435.947 Q492.123 437.961 492.123 441.329 Q492.123 442.927 491.515 444.368 Q490.925 445.791 489.345 447.736 Q488.911 448.239 486.585 450.652 Q484.258 453.048 480.022 457.371 Z" fill="#000000" fill-rule="evenodd" fill-opacity="1" /><path clip-path="url(#clip290)" d="M 0 0 M582.818 529.469 L588.548 529.469 L588.548 509.695 L582.315 510.945 L582.315 507.751 L588.513 506.501 L592.02 506.501 L592.02 529.469 L597.749 529.469 L597.749 532.421 L582.818 532.421 L582.818 529.469 Z" fill="#000000" fill-rule="evenodd" fill-opacity="1" /><path clip-path="url(#clip290)" d="M 0 0 M615.457 518.445 Q617.974 518.983 619.381 520.685 Q620.804 522.386 620.804 524.886 Q620.804 528.723 618.165 530.823 Q615.527 532.924 610.666 532.924 Q609.034 532.924 607.297 532.594 Q605.579 532.282 603.738 531.639 L603.738 528.254 Q605.197 529.105 606.933 529.539 Q608.669 529.973 610.561 529.973 Q613.86 529.973 615.579 528.671 Q617.315 527.369 617.315 524.886 Q617.315 522.594 615.7 521.31 Q614.103 520.008 611.238 520.008 L608.218 520.008 L608.218 517.126 L611.377 517.126 Q613.964 517.126 615.336 516.101 Q616.707 515.06 616.707 513.115 Q616.707 511.119 615.284 510.06 Q613.877 508.983 611.238 508.983 Q609.797 508.983 608.148 509.296 Q606.499 509.608 604.52 510.268 L604.52 507.143 Q606.516 506.587 608.252 506.31 Q610.006 506.032 611.551 506.032 Q615.544 506.032 617.87 507.855 Q620.197 509.66 620.197 512.751 Q620.197 514.903 618.964 516.396 Q617.731 517.872 615.457 518.445 Z" fill="#000000" fill-rule="evenodd" fill-opacity="1" /><path clip-path="url(#clip290)" d="M 0 0 M540.208 457.371 L545.937 457.371 L545.937 437.597 L539.705 438.847 L539.705 435.652 L545.903 434.402 L549.41 434.402 L549.41 457.371 L555.139 457.371 L555.139 460.322 L540.208 460.322 L540.208 457.371 Z" fill="#000000" fill-rule="evenodd" fill-opacity="1" /><path clip-path="url(#clip290)" d="M 0 0 M571.857 437.458 L563.003 451.295 L571.857 451.295 L571.857 437.458 M570.937 434.402 L575.347 434.402 L575.347 451.295 L579.045 451.295 L579.045 454.211 L575.347 454.211 L575.347 460.322 L571.857 460.322 L571.857 454.211 L560.156 454.211 L560.156 450.826 L570.937 434.402 Z" fill="#000000" fill-rule="evenodd" fill-opacity="1" /><path clip-path="url(#clip290)" d="M 0 0 M625.429 457.371 L631.158 457.371 L631.158 437.597 L624.925 438.847 L624.925 435.652 L631.123 434.402 L634.63 434.402 L634.63 457.371 L640.359 457.371 L640.359 460.322 L625.429 460.322 L625.429 457.371 Z" fill="#000000" fill-rule="evenodd" fill-opacity="1" /><path clip-path="url(#clip290)" d="M 0 0 M647.477 434.402 L661.244 434.402 L661.244 437.354 L650.689 437.354 L650.689 443.708 Q651.453 443.447 652.217 443.326 Q652.981 443.187 653.744 443.187 Q658.085 443.187 660.619 445.565 Q663.154 447.944 663.154 452.006 Q663.154 456.19 660.55 458.517 Q657.946 460.826 653.206 460.826 Q651.574 460.826 649.873 460.548 Q648.189 460.27 646.383 459.715 L646.383 456.19 Q647.946 457.041 649.613 457.458 Q651.279 457.874 653.137 457.874 Q656.14 457.874 657.894 456.295 Q659.647 454.715 659.647 452.006 Q659.647 449.298 657.894 447.718 Q656.14 446.138 653.137 446.138 Q651.731 446.138 650.324 446.451 Q648.935 446.763 647.477 447.423 L647.477 434.402 Z" fill="#000000" fill-rule="evenodd" fill-opacity="1" /><path clip-path="url(#clip290)" d="M 0 0 M668.039 673.666 L673.768 673.666 L673.768 653.892 L667.535 655.142 L667.535 651.947 L673.733 650.697 L677.24 650.697 L677.24 673.666 L682.969 673.666 L682.969 676.617 L668.039 676.617 L668.039 673.666 Z" fill="#000000" fill-rule="evenodd" fill-opacity="1" /><path clip-path="url(#clip290)" d="M 0 0 M690.157 676.079 L690.157 672.885 Q691.476 673.51 692.83 673.84 Q694.185 674.169 695.487 674.169 Q698.959 674.169 700.782 671.843 Q702.622 669.499 702.882 664.742 Q701.876 666.235 700.33 667.034 Q698.785 667.833 696.91 667.833 Q693.021 667.833 690.747 665.489 Q688.49 663.128 688.49 659.048 Q688.49 655.055 690.851 652.642 Q693.212 650.229 697.136 650.229 Q701.632 650.229 703.994 653.683 Q706.372 657.121 706.372 663.683 Q706.372 669.812 703.455 673.475 Q700.556 677.121 695.643 677.121 Q694.323 677.121 692.969 676.86 Q691.615 676.6 690.157 676.079 M697.136 665.09 Q699.497 665.09 700.869 663.475 Q702.257 661.86 702.257 659.048 Q702.257 656.253 700.869 654.638 Q699.497 653.006 697.136 653.006 Q694.775 653.006 693.386 654.638 Q692.014 656.253 692.014 659.048 Q692.014 661.86 693.386 663.475 Q694.775 665.09 697.136 665.09 Z" fill="#000000" fill-rule="evenodd" fill-opacity="1" /><path clip-path="url(#clip290)" d="M 0 0 M629.144 601.568 L641.383 601.568 L641.383 604.519 L624.925 604.519 L624.925 601.568 Q626.922 599.502 630.359 596.029 Q633.814 592.54 634.699 591.533 Q636.383 589.641 637.043 588.338 Q637.72 587.019 637.72 585.752 Q637.72 583.686 636.262 582.384 Q634.821 581.082 632.495 581.082 Q630.845 581.082 629.005 581.654 Q627.182 582.227 625.099 583.391 L625.099 579.849 Q627.217 578.998 629.057 578.564 Q630.897 578.13 632.425 578.13 Q636.453 578.13 638.849 580.144 Q641.245 582.158 641.245 585.526 Q641.245 587.123 640.637 588.564 Q640.047 589.988 638.467 591.932 Q638.033 592.436 635.706 594.849 Q633.38 597.245 629.144 601.568 Z" fill="#000000" fill-rule="evenodd" fill-opacity="1" /><path clip-path="url(#clip290)" d="M 0 0 M656.244 580.908 Q653.536 580.908 652.165 583.582 Q650.81 586.238 650.81 591.585 Q650.81 596.915 652.165 599.588 Q653.536 602.245 656.244 602.245 Q658.97 602.245 660.324 599.588 Q661.696 596.915 661.696 591.585 Q661.696 586.238 660.324 583.582 Q658.97 580.908 656.244 580.908 M656.244 578.13 Q660.602 578.13 662.894 581.585 Q665.203 585.023 665.203 591.585 Q665.203 598.13 662.894 601.585 Q660.602 605.022 656.244 605.022 Q651.887 605.022 649.578 601.585 Q647.286 598.13 647.286 591.585 Q647.286 585.023 649.578 581.585 Q651.887 578.13 656.244 578.13 Z" fill="#000000" fill-rule="evenodd" fill-opacity="1" /><path clip-path="url(#clip290)" d="M 0 0 M714.364 601.568 L726.604 601.568 L726.604 604.519 L710.146 604.519 L710.146 601.568 Q712.142 599.502 715.58 596.029 Q719.035 592.54 719.92 591.533 Q721.604 589.641 722.264 588.338 Q722.941 587.019 722.941 585.752 Q722.941 583.686 721.482 582.384 Q720.041 581.082 717.715 581.082 Q716.066 581.082 714.226 581.654 Q712.403 582.227 710.319 583.391 L710.319 579.849 Q712.437 578.998 714.278 578.564 Q716.118 578.13 717.646 578.13 Q721.673 578.13 724.069 580.144 Q726.465 582.158 726.465 585.526 Q726.465 587.123 725.857 588.564 Q725.267 589.988 723.687 591.932 Q723.253 592.436 720.927 594.849 Q718.6 597.245 714.364 601.568 Z" fill="#000000" fill-rule="evenodd" fill-opacity="1" /><path clip-path="url(#clip290)" d="M 0 0 M734.573 601.568 L740.302 601.568 L740.302 581.793 L734.069 583.043 L734.069 579.849 L740.267 578.599 L743.774 578.599 L743.774 601.568 L749.503 601.568 L749.503 604.519 L734.573 604.519 L734.573 601.568 Z" fill="#000000" fill-rule="evenodd" fill-opacity="1" /><path clip-path="url(#clip290)" d="M 0 0 M160.431 673.666 L172.671 673.666 L172.671 676.617 L156.213 676.617 L156.213 673.666 Q158.209 671.6 161.647 668.128 Q165.101 664.638 165.987 663.631 Q167.671 661.739 168.331 660.437 Q169.008 659.117 169.008 657.85 Q169.008 655.784 167.549 654.482 Q166.108 653.18 163.782 653.18 Q162.133 653.18 160.292 653.753 Q158.47 654.326 156.386 655.489 L156.386 651.947 Q158.504 651.097 160.345 650.663 Q162.185 650.229 163.713 650.229 Q167.74 650.229 170.136 652.242 Q172.532 654.256 172.532 657.624 Q172.532 659.222 171.924 660.663 Q171.334 662.086 169.754 664.031 Q169.32 664.534 166.994 666.947 Q164.667 669.343 160.431 673.666 Z" fill="#000000" fill-rule="evenodd" fill-opacity="1" /><path clip-path="url(#clip290)" d="M 0 0 M187.532 664.308 Q185.032 664.308 183.591 665.645 Q182.167 666.982 182.167 669.326 Q182.167 671.669 183.591 673.006 Q185.032 674.343 187.532 674.343 Q190.032 674.343 191.473 673.006 Q192.914 671.652 192.914 669.326 Q192.914 666.982 191.473 665.645 Q190.049 664.308 187.532 664.308 M184.025 662.815 Q181.768 662.26 180.501 660.715 Q179.251 659.169 179.251 656.947 Q179.251 653.84 181.456 652.034 Q183.678 650.229 187.532 650.229 Q191.403 650.229 193.608 652.034 Q195.813 653.84 195.813 656.947 Q195.813 659.169 194.546 660.715 Q193.296 662.26 191.056 662.815 Q193.591 663.406 194.997 665.124 Q196.421 666.843 196.421 669.326 Q196.421 673.093 194.112 675.107 Q191.82 677.121 187.532 677.121 Q183.244 677.121 180.935 675.107 Q178.643 673.093 178.643 669.326 Q178.643 666.843 180.067 665.124 Q181.49 663.406 184.025 662.815 M182.74 657.277 Q182.74 659.291 183.99 660.419 Q185.258 661.548 187.532 661.548 Q189.789 661.548 191.056 660.419 Q192.341 659.291 192.341 657.277 Q192.341 655.263 191.056 654.135 Q189.789 653.006 187.532 653.006 Q185.258 653.006 183.99 654.135 Q182.74 655.263 182.74 657.277 Z" fill="#000000" fill-rule="evenodd" fill-opacity="1" /><path clip-path="url(#clip290)" d="M 0 0 M117.821 601.568 L130.061 601.568 L130.061 604.519 L113.602 604.519 L113.602 601.568 Q115.599 599.502 119.036 596.029 Q122.491 592.54 123.377 591.533 Q125.061 589.641 125.72 588.338 Q126.397 587.019 126.397 585.752 Q126.397 583.686 124.939 582.384 Q123.498 581.082 121.172 581.082 Q119.522 581.082 117.682 581.654 Q115.859 582.227 113.776 583.391 L113.776 579.849 Q115.894 578.998 117.734 578.564 Q119.575 578.13 121.102 578.13 Q125.13 578.13 127.526 580.144 Q129.922 582.158 129.922 585.526 Q129.922 587.123 129.314 588.564 Q128.724 589.988 127.144 591.932 Q126.71 592.436 124.384 594.849 Q122.057 597.245 117.821 601.568 Z" fill="#000000" fill-rule="evenodd" fill-opacity="1" /><path clip-path="url(#clip290)" d="M 0 0 M137.526 603.981 L137.526 600.786 Q138.845 601.411 140.199 601.741 Q141.554 602.071 142.856 602.071 Q146.328 602.071 148.151 599.745 Q149.991 597.401 150.251 592.644 Q149.245 594.137 147.699 594.936 Q146.154 595.734 144.279 595.734 Q140.39 595.734 138.116 593.391 Q135.859 591.029 135.859 586.95 Q135.859 582.957 138.22 580.543 Q140.581 578.13 144.505 578.13 Q149.001 578.13 151.363 581.585 Q153.741 585.023 153.741 591.585 Q153.741 597.713 150.824 601.377 Q147.925 605.022 143.012 605.022 Q141.692 605.022 140.338 604.762 Q138.984 604.502 137.526 603.981 M144.505 592.991 Q146.866 592.991 148.238 591.377 Q149.626 589.762 149.626 586.95 Q149.626 584.154 148.238 582.54 Q146.866 580.908 144.505 580.908 Q142.144 580.908 140.755 582.54 Q139.383 584.154 139.383 586.95 Q139.383 589.762 140.755 591.377 Q142.144 592.991 144.505 592.991 Z" fill="#000000" fill-rule="evenodd" fill-opacity="1" /><path clip-path="url(#clip290)" d="M 0 0 M210.542 590.543 Q213.059 591.082 214.465 592.783 Q215.889 594.484 215.889 596.984 Q215.889 600.821 213.25 602.922 Q210.611 605.022 205.75 605.022 Q204.118 605.022 202.382 604.693 Q200.663 604.38 198.823 603.738 L198.823 600.352 Q200.281 601.203 202.017 601.637 Q203.753 602.071 205.646 602.071 Q208.944 602.071 210.663 600.769 Q212.399 599.467 212.399 596.984 Q212.399 594.693 210.785 593.408 Q209.187 592.106 206.323 592.106 L203.302 592.106 L203.302 589.224 L206.462 589.224 Q209.048 589.224 210.42 588.2 Q211.792 587.158 211.792 585.214 Q211.792 583.217 210.368 582.158 Q208.962 581.082 206.323 581.082 Q204.882 581.082 203.233 581.394 Q201.583 581.707 199.604 582.366 L199.604 579.241 Q201.601 578.686 203.337 578.408 Q205.09 578.13 206.635 578.13 Q210.628 578.13 212.955 579.953 Q215.281 581.759 215.281 584.849 Q215.281 587.002 214.048 588.495 Q212.816 589.97 210.542 590.543 Z" fill="#000000" fill-rule="evenodd" fill-opacity="1" /><path clip-path="url(#clip290)" d="M 0 0 M230.038 580.908 Q227.33 580.908 225.958 583.582 Q224.604 586.238 224.604 591.585 Q224.604 596.915 225.958 599.588 Q227.33 602.245 230.038 602.245 Q232.764 602.245 234.118 599.588 Q235.489 596.915 235.489 591.585 Q235.489 586.238 234.118 583.582 Q232.764 580.908 230.038 580.908 M230.038 578.13 Q234.396 578.13 236.687 581.585 Q238.996 585.023 238.996 591.585 Q238.996 598.13 236.687 601.585 Q234.396 605.022 230.038 605.022 Q225.68 605.022 223.371 601.585 Q221.08 598.13 221.08 591.585 Q221.08 585.023 223.371 581.585 Q225.68 578.13 230.038 578.13 Z" fill="#000000" fill-rule="evenodd" fill-opacity="1" /><path clip-path="url(#clip290)" d="M 0 0 M338.372 662.642 Q340.89 663.18 342.296 664.881 Q343.719 666.583 343.719 669.083 Q343.719 672.919 341.081 675.02 Q338.442 677.121 333.581 677.121 Q331.949 677.121 330.213 676.791 Q328.494 676.478 326.654 675.836 L326.654 672.451 Q328.112 673.301 329.848 673.735 Q331.584 674.169 333.476 674.169 Q336.775 674.169 338.494 672.867 Q340.23 671.565 340.23 669.083 Q340.23 666.791 338.615 665.506 Q337.018 664.204 334.154 664.204 L331.133 664.204 L331.133 661.322 L334.292 661.322 Q336.879 661.322 338.251 660.298 Q339.622 659.256 339.622 657.312 Q339.622 655.315 338.199 654.256 Q336.792 653.18 334.154 653.18 Q332.713 653.18 331.063 653.492 Q329.414 653.805 327.435 654.465 L327.435 651.34 Q329.431 650.784 331.167 650.506 Q332.921 650.229 334.466 650.229 Q338.459 650.229 340.785 652.051 Q343.112 653.857 343.112 656.947 Q343.112 659.1 341.879 660.593 Q340.647 662.069 338.372 662.642 Z" fill="#000000" fill-rule="evenodd" fill-opacity="1" /><path clip-path="url(#clip290)" d="M 0 0 M350.976 673.666 L356.705 673.666 L356.705 653.892 L350.473 655.142 L350.473 651.947 L356.671 650.697 L360.178 650.697 L360.178 673.666 L365.907 673.666 L365.907 676.617 L350.976 676.617 L350.976 673.666 Z" fill="#000000" fill-rule="evenodd" fill-opacity="1" /><path clip-path="url(#clip290)" d="M 0 0 M295.762 590.543 Q298.279 591.082 299.686 592.783 Q301.109 594.484 301.109 596.984 Q301.109 600.821 298.47 602.922 Q295.831 605.022 290.97 605.022 Q289.338 605.022 287.602 604.693 Q285.884 604.38 284.043 603.738 L284.043 600.352 Q285.502 601.203 287.238 601.637 Q288.974 602.071 290.866 602.071 Q294.165 602.071 295.884 600.769 Q297.62 599.467 297.62 596.984 Q297.62 594.693 296.005 593.408 Q294.408 592.106 291.543 592.106 L288.522 592.106 L288.522 589.224 L291.682 589.224 Q294.269 589.224 295.64 588.2 Q297.012 587.158 297.012 585.214 Q297.012 583.217 295.588 582.158 Q294.182 581.082 291.543 581.082 Q290.102 581.082 288.453 581.394 Q286.804 581.707 284.825 582.366 L284.825 579.241 Q286.821 578.686 288.557 578.408 Q290.311 578.13 291.856 578.13 Q295.849 578.13 298.175 579.953 Q300.502 581.759 300.502 584.849 Q300.502 587.002 299.269 588.495 Q298.036 589.97 295.762 590.543 Z" fill="#000000" fill-rule="evenodd" fill-opacity="1" /><path clip-path="url(#clip290)" d="M 0 0 M310.779 601.568 L323.019 601.568 L323.019 604.519 L306.561 604.519 L306.561 601.568 Q308.557 599.502 311.995 596.029 Q315.449 592.54 316.335 591.533 Q318.019 589.641 318.679 588.338 Q319.356 587.019 319.356 585.752 Q319.356 583.686 317.897 582.384 Q316.456 581.082 314.13 581.082 Q312.481 581.082 310.64 581.654 Q308.817 582.227 306.734 583.391 L306.734 579.849 Q308.852 578.998 310.692 578.564 Q312.533 578.13 314.061 578.13 Q318.088 578.13 320.484 580.144 Q322.88 582.158 322.88 585.526 Q322.88 587.123 322.272 588.564 Q321.682 589.988 320.102 591.932 Q319.668 592.436 317.342 594.849 Q315.015 597.245 310.779 601.568 Z" fill="#000000" fill-rule="evenodd" fill-opacity="1" /><path clip-path="url(#clip290)" d="M 0 0 M380.982 590.543 Q383.5 591.082 384.906 592.783 Q386.33 594.484 386.33 596.984 Q386.33 600.821 383.691 602.922 Q381.052 605.022 376.191 605.022 Q374.559 605.022 372.823 604.693 Q371.104 604.38 369.264 603.738 L369.264 600.352 Q370.722 601.203 372.458 601.637 Q374.194 602.071 376.087 602.071 Q379.385 602.071 381.104 600.769 Q382.84 599.467 382.84 596.984 Q382.84 594.693 381.226 593.408 Q379.628 592.106 376.764 592.106 L373.743 592.106 L373.743 589.224 L376.903 589.224 Q379.489 589.224 380.861 588.2 Q382.232 587.158 382.232 585.214 Q382.232 583.217 380.809 582.158 Q379.403 581.082 376.764 581.082 Q375.323 581.082 373.673 581.394 Q372.024 581.707 370.045 582.366 L370.045 579.241 Q372.042 578.686 373.778 578.408 Q375.531 578.13 377.076 578.13 Q381.069 578.13 383.396 579.953 Q385.722 581.759 385.722 584.849 Q385.722 587.002 384.489 588.495 Q383.257 589.97 380.982 590.543 Z" fill="#000000" fill-rule="evenodd" fill-opacity="1" /><path clip-path="url(#clip290)" d="M 0 0 M403.604 590.543 Q406.121 591.082 407.527 592.783 Q408.951 594.484 408.951 596.984 Q408.951 600.821 406.312 602.922 Q403.673 605.022 398.812 605.022 Q397.18 605.022 395.444 604.693 Q393.725 604.38 391.885 603.738 L391.885 600.352 Q393.344 601.203 395.08 601.637 Q396.816 602.071 398.708 602.071 Q402.007 602.071 403.725 600.769 Q405.462 599.467 405.462 596.984 Q405.462 594.693 403.847 593.408 Q402.25 592.106 399.385 592.106 L396.364 592.106 L396.364 589.224 L399.524 589.224 Q402.111 589.224 403.482 588.2 Q404.854 587.158 404.854 585.214 Q404.854 583.217 403.43 582.158 Q402.024 581.082 399.385 581.082 Q397.944 581.082 396.295 581.394 Q394.646 581.707 392.666 582.366 L392.666 579.241 Q394.663 578.686 396.399 578.408 Q398.153 578.13 399.698 578.13 Q403.691 578.13 406.017 579.953 Q408.343 581.759 408.343 584.849 Q408.343 587.002 407.111 588.495 Q405.878 589.97 403.604 590.543 Z" fill="#000000" fill-rule="evenodd" fill-opacity="1" /><path clip-path="url(#clip290)" d="M 0 0 M508.813 662.642 Q511.331 663.18 512.737 664.881 Q514.16 666.583 514.16 669.083 Q514.16 672.919 511.521 675.02 Q508.883 677.121 504.022 677.121 Q502.39 677.121 500.653 676.791 Q498.935 676.478 497.094 675.836 L497.094 672.451 Q498.553 673.301 500.289 673.735 Q502.025 674.169 503.917 674.169 Q507.216 674.169 508.935 672.867 Q510.671 671.565 510.671 669.083 Q510.671 666.791 509.056 665.506 Q507.459 664.204 504.594 664.204 L501.574 664.204 L501.574 661.322 L504.733 661.322 Q507.32 661.322 508.692 660.298 Q510.063 659.256 510.063 657.312 Q510.063 655.315 508.64 654.256 Q507.233 653.18 504.594 653.18 Q503.153 653.18 501.504 653.492 Q499.855 653.805 497.876 654.465 L497.876 651.34 Q499.872 650.784 501.608 650.506 Q503.362 650.229 504.907 650.229 Q508.9 650.229 511.226 652.051 Q513.553 653.857 513.553 656.947 Q513.553 659.1 512.32 660.593 Q511.087 662.069 508.813 662.642 Z" fill="#000000" fill-rule="evenodd" fill-opacity="1" /><path clip-path="url(#clip290)" d="M 0 0 M530.445 653.753 L521.591 667.59 L530.445 667.59 L530.445 653.753 M529.525 650.697 L533.935 650.697 L533.935 667.59 L537.632 667.59 L537.632 670.506 L533.935 670.506 L533.935 676.617 L530.445 676.617 L530.445 670.506 L518.744 670.506 L518.744 667.121 L529.525 650.697 Z" fill="#000000" fill-rule="evenodd" fill-opacity="1" /><path clip-path="url(#clip290)" d="M 0 0 M466.203 590.543 Q468.72 591.082 470.127 592.783 Q471.55 594.484 471.55 596.984 Q471.55 600.821 468.911 602.922 Q466.272 605.022 461.411 605.022 Q459.779 605.022 458.043 604.693 Q456.325 604.38 454.484 603.738 L454.484 600.352 Q455.943 601.203 457.679 601.637 Q459.415 602.071 461.307 602.071 Q464.606 602.071 466.324 600.769 Q468.061 599.467 468.061 596.984 Q468.061 594.693 466.446 593.408 Q464.849 592.106 461.984 592.106 L458.963 592.106 L458.963 589.224 L462.123 589.224 Q464.71 589.224 466.081 588.2 Q467.453 587.158 467.453 585.214 Q467.453 583.217 466.029 582.158 Q464.623 581.082 461.984 581.082 Q460.543 581.082 458.894 581.394 Q457.245 581.707 455.265 582.366 L455.265 579.241 Q457.262 578.686 458.998 578.408 Q460.752 578.13 462.297 578.13 Q466.29 578.13 468.616 579.953 Q470.942 581.759 470.942 584.849 Q470.942 587.002 469.71 588.495 Q468.477 589.97 466.203 590.543 Z" fill="#000000" fill-rule="evenodd" fill-opacity="1" /><path clip-path="url(#clip290)" d="M 0 0 M478.234 578.599 L492.001 578.599 L492.001 581.55 L481.446 581.55 L481.446 587.904 Q482.21 587.644 482.974 587.523 Q483.738 587.384 484.501 587.384 Q488.842 587.384 491.376 589.762 Q493.911 592.141 493.911 596.203 Q493.911 600.387 491.307 602.713 Q488.703 605.022 483.963 605.022 Q482.331 605.022 480.63 604.745 Q478.946 604.467 477.14 603.911 L477.14 600.387 Q478.703 601.238 480.37 601.654 Q482.036 602.071 483.894 602.071 Q486.897 602.071 488.651 600.491 Q490.404 598.911 490.404 596.203 Q490.404 593.495 488.651 591.915 Q486.897 590.335 483.894 590.335 Q482.488 590.335 481.081 590.648 Q479.692 590.96 478.234 591.62 L478.234 578.599 Z" fill="#000000" fill-rule="evenodd" fill-opacity="1" /><path clip-path="url(#clip290)" d="M 0 0 M551.423 590.543 Q553.941 591.082 555.347 592.783 Q556.771 594.484 556.771 596.984 Q556.771 600.821 554.132 602.922 Q551.493 605.022 546.632 605.022 Q545 605.022 543.264 604.693 Q541.545 604.38 539.705 603.738 L539.705 600.352 Q541.163 601.203 542.899 601.637 Q544.635 602.071 546.528 602.071 Q549.826 602.071 551.545 600.769 Q553.281 599.467 553.281 596.984 Q553.281 594.693 551.666 593.408 Q550.069 592.106 547.205 592.106 L544.184 592.106 L544.184 589.224 L547.344 589.224 Q549.93 589.224 551.302 588.2 Q552.673 587.158 552.673 585.214 Q552.673 583.217 551.25 582.158 Q549.844 581.082 547.205 581.082 Q545.764 581.082 544.114 581.394 Q542.465 581.707 540.486 582.366 L540.486 579.241 Q542.482 578.686 544.219 578.408 Q545.972 578.13 547.517 578.13 Q551.51 578.13 553.837 579.953 Q556.163 581.759 556.163 584.849 Q556.163 587.002 554.93 588.495 Q553.698 589.97 551.423 590.543 Z" fill="#000000" fill-rule="evenodd" fill-opacity="1" /><path clip-path="url(#clip290)" d="M 0 0 M571.354 590.161 Q568.993 590.161 567.604 591.776 Q566.232 593.391 566.232 596.203 Q566.232 598.998 567.604 600.63 Q568.993 602.245 571.354 602.245 Q573.715 602.245 575.086 600.63 Q576.475 598.998 576.475 596.203 Q576.475 593.391 575.086 591.776 Q573.715 590.161 571.354 590.161 M578.316 579.172 L578.316 582.366 Q576.996 581.741 575.642 581.411 Q574.305 581.082 572.986 581.082 Q569.514 581.082 567.673 583.425 Q565.85 585.769 565.59 590.509 Q566.614 588.998 568.159 588.2 Q569.705 587.384 571.562 587.384 Q575.468 587.384 577.725 589.762 Q580 592.123 580 596.203 Q580 600.196 577.639 602.609 Q575.277 605.022 571.354 605.022 Q566.857 605.022 564.479 601.585 Q562.1 598.13 562.1 591.585 Q562.1 585.439 565.017 581.793 Q567.934 578.13 572.847 578.13 Q574.166 578.13 575.503 578.391 Q576.857 578.651 578.316 579.172 Z" fill="#000000" fill-rule="evenodd" fill-opacity="1" /><circle clip-path="url(#clip292)" cx="113.602" cy="468.098" r="14" fill="#0000ff" fill-rule="evenodd" fill-opacity="1" stroke="none"/>
<circle clip-path="url(#clip292)" cx="241.433" cy="540.197" r="14" fill="#0000ff" fill-rule="evenodd" fill-opacity="1" stroke="none"/>
<circle clip-path="url(#clip292)" cx="198.823" cy="468.098" r="14" fill="#0000ff" fill-rule="evenodd" fill-opacity="1" stroke="none"/>
<circle clip-path="url(#clip292)" cx="284.043" cy="468.098" r="14" fill="#0000ff" fill-rule="evenodd" fill-opacity="1" stroke="none"/>
<circle clip-path="url(#clip292)" cx="113.602" cy="179.705" r="14" fill="#0000ff" fill-rule="evenodd" fill-opacity="1" stroke="none"/>
<circle clip-path="url(#clip292)" cx="156.213" cy="396" r="14" fill="#0000ff" fill-rule="evenodd" fill-opacity="1" stroke="none"/>
<circle clip-path="url(#clip292)" cx="113.602" cy="323.902" r="14" fill="#0000ff" fill-rule="evenodd" fill-opacity="1" stroke="none"/>
<circle clip-path="url(#clip292)" cx="198.823" cy="323.902" r="14" fill="#0000ff" fill-rule="evenodd" fill-opacity="1" stroke="none"/>
<circle clip-path="url(#clip292)" cx="326.654" cy="396" r="14" fill="#0000ff" fill-rule="evenodd" fill-opacity="1" stroke="none"/>
<circle clip-path="url(#clip292)" cx="284.043" cy="323.902" r="14" fill="#0000ff" fill-rule="evenodd" fill-opacity="1" stroke="none"/>
<circle clip-path="url(#clip292)" cx="369.264" cy="323.902" r="14" fill="#0000ff" fill-rule="evenodd" fill-opacity="1" stroke="none"/>
<path clip-path="url(#clip290)" d="M 0 0 M82.6935 509.556 L73.8393 523.393 L82.6935 523.393 L82.6935 509.556 M81.7733 506.501 L86.183 506.501 L86.183 523.393 L89.8809 523.393 L89.8809 526.31 L86.183 526.31 L86.183 532.421 L82.6935 532.421 L82.6935 526.31 L70.9921 526.31 L70.9921 522.924 L81.7733 506.501 Z" fill="#000000" fill-rule="evenodd" fill-opacity="1" /><path clip-path="url(#clip290)" d="M 0 0 M122.856 445.965 Q120.495 445.965 119.106 447.579 Q117.734 449.194 117.734 452.006 Q117.734 454.802 119.106 456.433 Q120.495 458.048 122.856 458.048 Q125.217 458.048 126.588 456.433 Q127.977 454.802 127.977 452.006 Q127.977 449.194 126.588 447.579 Q125.217 445.965 122.856 445.965 M129.818 434.975 L129.818 438.17 Q128.498 437.545 127.144 437.215 Q125.807 436.885 124.488 436.885 Q121.016 436.885 119.175 439.229 Q117.352 441.572 117.092 446.312 Q118.116 444.802 119.661 444.003 Q121.206 443.187 123.064 443.187 Q126.97 443.187 129.227 445.565 Q131.502 447.927 131.502 452.006 Q131.502 455.999 129.14 458.413 Q126.779 460.826 122.856 460.826 Q118.359 460.826 115.981 457.388 Q113.602 453.933 113.602 447.388 Q113.602 441.243 116.519 437.597 Q119.436 433.934 124.349 433.934 Q125.668 433.934 127.005 434.194 Q128.359 434.454 129.818 434.975 Z" fill="#000000" fill-rule="evenodd" fill-opacity="1" /><path clip-path="url(#clip290)" d="M 0 0 M241.433 506.501 L258.1 506.501 L258.1 507.994 L248.69 532.421 L245.027 532.421 L253.881 509.452 L241.433 509.452 L241.433 506.501 Z" fill="#000000" fill-rule="evenodd" fill-opacity="1" /><path clip-path="url(#clip290)" d="M 0 0 M207.712 448.013 Q205.212 448.013 203.771 449.35 Q202.347 450.687 202.347 453.031 Q202.347 455.374 203.771 456.711 Q205.212 458.048 207.712 458.048 Q210.212 458.048 211.653 456.711 Q213.094 455.357 213.094 453.031 Q213.094 450.687 211.653 449.35 Q210.229 448.013 207.712 448.013 M204.205 446.52 Q201.948 445.965 200.68 444.42 Q199.43 442.874 199.43 440.652 Q199.43 437.545 201.635 435.739 Q203.858 433.934 207.712 433.934 Q211.583 433.934 213.788 435.739 Q215.993 437.545 215.993 440.652 Q215.993 442.874 214.726 444.42 Q213.476 445.965 211.236 446.52 Q213.771 447.111 215.177 448.829 Q216.601 450.548 216.601 453.031 Q216.601 456.798 214.292 458.812 Q212 460.826 207.712 460.826 Q203.424 460.826 201.114 458.812 Q198.823 456.798 198.823 453.031 Q198.823 450.548 200.246 448.829 Q201.67 447.111 204.205 446.52 M202.92 440.982 Q202.92 442.996 204.17 444.124 Q205.437 445.253 207.712 445.253 Q209.969 445.253 211.236 444.124 Q212.521 442.996 212.521 440.982 Q212.521 438.968 211.236 437.84 Q209.969 436.711 207.712 436.711 Q205.437 436.711 204.17 437.84 Q202.92 438.968 202.92 440.982 Z" fill="#000000" fill-rule="evenodd" fill-opacity="1" /><path clip-path="url(#clip290)" d="M 0 0 M285.71 459.784 L285.71 456.59 Q287.029 457.215 288.384 457.545 Q289.738 457.874 291.04 457.874 Q294.512 457.874 296.335 455.548 Q298.175 453.204 298.436 448.447 Q297.429 449.94 295.884 450.739 Q294.338 451.538 292.463 451.538 Q288.575 451.538 286.3 449.194 Q284.043 446.833 284.043 442.753 Q284.043 438.76 286.404 436.347 Q288.766 433.934 292.689 433.934 Q297.186 433.934 299.547 437.388 Q301.925 440.826 301.925 447.388 Q301.925 453.517 299.009 457.18 Q296.109 460.826 291.196 460.826 Q289.877 460.826 288.522 460.565 Q287.168 460.305 285.71 459.784 M292.689 448.795 Q295.05 448.795 296.422 447.18 Q297.811 445.565 297.811 442.753 Q297.811 439.958 296.422 438.343 Q295.05 436.711 292.689 436.711 Q290.328 436.711 288.939 438.343 Q287.568 439.958 287.568 442.753 Q287.568 445.565 288.939 447.18 Q290.328 448.795 292.689 448.795 Z" fill="#000000" fill-rule="evenodd" fill-opacity="1" /><path clip-path="url(#clip290)" d="M 0 0 M114.106 168.978 L119.835 168.978 L119.835 149.203 L113.602 150.453 L113.602 147.259 L119.8 146.009 L123.307 146.009 L123.307 168.978 L129.036 168.978 L129.036 171.929 L114.106 171.929 L114.106 168.978 Z" fill="#000000" fill-rule="evenodd" fill-opacity="1" /><path clip-path="url(#clip290)" d="M 0 0 M136.154 146.009 L149.922 146.009 L149.922 148.96 L139.366 148.96 L139.366 155.315 Q140.13 155.054 140.894 154.933 Q141.658 154.794 142.422 154.794 Q146.762 154.794 149.297 157.172 Q151.831 159.551 151.831 163.613 Q151.831 167.797 149.227 170.123 Q146.623 172.433 141.883 172.433 Q140.252 172.433 138.55 172.155 Q136.866 171.877 135.061 171.321 L135.061 167.797 Q136.623 168.648 138.29 169.064 Q139.956 169.481 141.814 169.481 Q144.817 169.481 146.571 167.901 Q148.324 166.321 148.324 163.613 Q148.324 160.905 146.571 159.325 Q144.817 157.745 141.814 157.745 Q140.408 157.745 139.002 158.058 Q137.613 158.37 136.154 159.03 L136.154 146.009 Z" fill="#000000" fill-rule="evenodd" fill-opacity="1" /><path clip-path="url(#clip290)" d="M 0 0 M156.716 385.273 L162.445 385.273 L162.445 365.498 L156.213 366.748 L156.213 363.554 L162.41 362.304 L165.917 362.304 L165.917 385.273 L171.647 385.273 L171.647 388.224 L156.716 388.224 L156.716 385.273 Z" fill="#000000" fill-rule="evenodd" fill-opacity="1" /><path clip-path="url(#clip290)" d="M 0 0 M178.834 387.686 L178.834 384.491 Q180.153 385.116 181.508 385.446 Q182.862 385.776 184.164 385.776 Q187.636 385.776 189.459 383.45 Q191.299 381.106 191.56 376.349 Q190.553 377.842 189.008 378.641 Q187.462 379.439 185.587 379.439 Q181.699 379.439 179.424 377.096 Q177.167 374.734 177.167 370.655 Q177.167 366.662 179.528 364.248 Q181.89 361.835 185.813 361.835 Q190.31 361.835 192.671 365.29 Q195.049 368.728 195.049 375.29 Q195.049 381.418 192.133 385.082 Q189.233 388.727 184.32 388.727 Q183.001 388.727 181.646 388.467 Q180.292 388.207 178.834 387.686 M185.813 376.696 Q188.174 376.696 189.546 375.082 Q190.935 373.467 190.935 370.655 Q190.935 367.86 189.546 366.245 Q188.174 364.613 185.813 364.613 Q183.452 364.613 182.063 366.245 Q180.692 367.86 180.692 370.655 Q180.692 373.467 182.063 375.082 Q183.452 376.696 185.813 376.696 Z" fill="#000000" fill-rule="evenodd" fill-opacity="1" /><path clip-path="url(#clip290)" d="M 0 0 M117.821 313.174 L130.061 313.174 L130.061 316.126 L113.602 316.126 L113.602 313.174 Q115.599 311.108 119.036 307.636 Q122.491 304.147 123.377 303.14 Q125.061 301.247 125.72 299.945 Q126.397 298.626 126.397 297.358 Q126.397 295.292 124.939 293.99 Q123.498 292.688 121.172 292.688 Q119.522 292.688 117.682 293.261 Q115.859 293.834 113.776 294.997 L113.776 291.456 Q115.894 290.605 117.734 290.171 Q119.575 289.737 121.102 289.737 Q125.13 289.737 127.526 291.751 Q129.922 293.765 129.922 297.133 Q129.922 298.73 129.314 300.171 Q128.724 301.595 127.144 303.539 Q126.71 304.042 124.384 306.456 Q122.057 308.851 117.821 313.174 Z" fill="#000000" fill-rule="evenodd" fill-opacity="1" /><path clip-path="url(#clip290)" d="M 0 0 M144.922 292.515 Q142.213 292.515 140.842 295.188 Q139.488 297.845 139.488 303.192 Q139.488 308.522 140.842 311.195 Q142.213 313.851 144.922 313.851 Q147.647 313.851 149.001 311.195 Q150.373 308.522 150.373 303.192 Q150.373 297.845 149.001 295.188 Q147.647 292.515 144.922 292.515 M144.922 289.737 Q149.279 289.737 151.571 293.192 Q153.88 296.629 153.88 303.192 Q153.88 309.737 151.571 313.192 Q149.279 316.629 144.922 316.629 Q140.564 316.629 138.255 313.192 Q135.963 309.737 135.963 303.192 Q135.963 296.629 138.255 293.192 Q140.564 289.737 144.922 289.737 Z" fill="#000000" fill-rule="evenodd" fill-opacity="1" /><path clip-path="url(#clip290)" d="M 0 0 M203.042 313.174 L215.281 313.174 L215.281 316.126 L198.823 316.126 L198.823 313.174 Q200.819 311.108 204.257 307.636 Q207.712 304.147 208.597 303.14 Q210.281 301.247 210.941 299.945 Q211.618 298.626 211.618 297.358 Q211.618 295.292 210.16 293.99 Q208.719 292.688 206.392 292.688 Q204.743 292.688 202.903 293.261 Q201.08 293.834 198.996 294.997 L198.996 291.456 Q201.114 290.605 202.955 290.171 Q204.795 289.737 206.323 289.737 Q210.351 289.737 212.746 291.751 Q215.142 293.765 215.142 297.133 Q215.142 298.73 214.535 300.171 Q213.944 301.595 212.364 303.539 Q211.93 304.042 209.604 306.456 Q207.278 308.851 203.042 313.174 Z" fill="#000000" fill-rule="evenodd" fill-opacity="1" /><path clip-path="url(#clip290)" d="M 0 0 M223.25 313.174 L228.979 313.174 L228.979 293.4 L222.746 294.65 L222.746 291.456 L228.944 290.206 L232.451 290.206 L232.451 313.174 L238.18 313.174 L238.18 316.126 L223.25 316.126 L223.25 313.174 Z" fill="#000000" fill-rule="evenodd" fill-opacity="1" /><path clip-path="url(#clip290)" d="M 0 0 M330.872 385.273 L343.112 385.273 L343.112 388.224 L326.654 388.224 L326.654 385.273 Q328.65 383.207 332.088 379.734 Q335.542 376.245 336.428 375.238 Q338.112 373.346 338.772 372.044 Q339.449 370.724 339.449 369.457 Q339.449 367.391 337.99 366.089 Q336.549 364.787 334.223 364.787 Q332.574 364.787 330.733 365.36 Q328.91 365.932 326.827 367.096 L326.827 363.554 Q328.945 362.703 330.785 362.269 Q332.626 361.835 334.154 361.835 Q338.181 361.835 340.577 363.849 Q342.973 365.863 342.973 369.231 Q342.973 370.828 342.365 372.269 Q341.775 373.693 340.195 375.637 Q339.761 376.141 337.435 378.554 Q335.108 380.95 330.872 385.273 Z" fill="#000000" fill-rule="evenodd" fill-opacity="1" /><path clip-path="url(#clip290)" d="M 0 0 M353.494 385.273 L365.733 385.273 L365.733 388.224 L349.275 388.224 L349.275 385.273 Q351.271 383.207 354.709 379.734 Q358.164 376.245 359.049 375.238 Q360.733 373.346 361.393 372.044 Q362.07 370.724 362.07 369.457 Q362.07 367.391 360.612 366.089 Q359.171 364.787 356.844 364.787 Q355.195 364.787 353.355 365.36 Q351.532 365.932 349.449 367.096 L349.449 363.554 Q351.567 362.703 353.407 362.269 Q355.247 361.835 356.775 361.835 Q360.803 361.835 363.198 363.849 Q365.594 365.863 365.594 369.231 Q365.594 370.828 364.987 372.269 Q364.396 373.693 362.817 375.637 Q362.383 376.141 360.056 378.554 Q357.73 380.95 353.494 385.273 Z" fill="#000000" fill-rule="evenodd" fill-opacity="1" /><path clip-path="url(#clip290)" d="M 0 0 M288.262 313.174 L300.502 313.174 L300.502 316.126 L284.043 316.126 L284.043 313.174 Q286.04 311.108 289.477 307.636 Q292.932 304.147 293.818 303.14 Q295.502 301.247 296.161 299.945 Q296.838 298.626 296.838 297.358 Q296.838 295.292 295.38 293.99 Q293.939 292.688 291.613 292.688 Q289.963 292.688 288.123 293.261 Q286.3 293.834 284.217 294.997 L284.217 291.456 Q286.335 290.605 288.175 290.171 Q290.015 289.737 291.543 289.737 Q295.571 289.737 297.967 291.751 Q300.363 293.765 300.363 297.133 Q300.363 298.73 299.755 300.171 Q299.165 301.595 297.585 303.539 Q297.151 304.042 294.824 306.456 Q292.498 308.851 288.262 313.174 Z" fill="#000000" fill-rule="evenodd" fill-opacity="1" /><path clip-path="url(#clip290)" d="M 0 0 M318.488 302.15 Q321.005 302.688 322.411 304.39 Q323.835 306.091 323.835 308.591 Q323.835 312.428 321.196 314.528 Q318.557 316.629 313.696 316.629 Q312.064 316.629 310.328 316.299 Q308.609 315.987 306.769 315.344 L306.769 311.959 Q308.227 312.81 309.963 313.244 Q311.699 313.678 313.592 313.678 Q316.89 313.678 318.609 312.376 Q320.345 311.074 320.345 308.591 Q320.345 306.299 318.731 305.015 Q317.133 303.713 314.269 303.713 L311.248 303.713 L311.248 300.831 L314.408 300.831 Q316.995 300.831 318.366 299.806 Q319.738 298.765 319.738 296.82 Q319.738 294.824 318.314 293.765 Q316.908 292.688 314.269 292.688 Q312.828 292.688 311.179 293.001 Q309.529 293.313 307.55 293.973 L307.55 290.848 Q309.547 290.292 311.283 290.015 Q313.036 289.737 314.581 289.737 Q318.574 289.737 320.901 291.56 Q323.227 293.365 323.227 296.456 Q323.227 298.608 321.994 300.101 Q320.762 301.577 318.488 302.15 Z" fill="#000000" fill-rule="evenodd" fill-opacity="1" /><path clip-path="url(#clip290)" d="M 0 0 M373.483 313.174 L385.722 313.174 L385.722 316.126 L369.264 316.126 L369.264 313.174 Q371.26 311.108 374.698 307.636 Q378.153 304.147 379.038 303.14 Q380.722 301.247 381.382 299.945 Q382.059 298.626 382.059 297.358 Q382.059 295.292 380.601 293.99 Q379.16 292.688 376.833 292.688 Q375.184 292.688 373.344 293.261 Q371.521 293.834 369.437 294.997 L369.437 291.456 Q371.555 290.605 373.396 290.171 Q375.236 289.737 376.764 289.737 Q380.791 289.737 383.187 291.751 Q385.583 293.765 385.583 297.133 Q385.583 298.73 384.976 300.171 Q384.385 301.595 382.805 303.539 Q382.371 304.042 380.045 306.456 Q377.719 308.851 373.483 313.174 Z" fill="#000000" fill-rule="evenodd" fill-opacity="1" /><path clip-path="url(#clip290)" d="M 0 0 M402.718 293.261 L393.864 307.098 L402.718 307.098 L402.718 293.261 M401.798 290.206 L406.208 290.206 L406.208 307.098 L409.906 307.098 L409.906 310.015 L406.208 310.015 L406.208 316.126 L402.718 316.126 L402.718 310.015 L391.017 310.015 L391.017 306.629 L401.798 290.206 Z" fill="#000000" fill-rule="evenodd" fill-opacity="1" /><circle clip-path="url(#clip292)" cx="752.756" cy="540.197" r="14" fill="#0000ff" fill-rule="evenodd" fill-opacity="1" stroke="none"/>
<circle clip-path="url(#clip292)" cx="710.146" cy="468.098" r="14" fill="#0000ff" fill-rule="evenodd" fill-opacity="1" stroke="none"/>
<circle clip-path="url(#clip292)" cx="667.535" cy="396" r="14" fill="#0000ff" fill-rule="evenodd" fill-opacity="1" stroke="none"/>
<circle clip-path="url(#clip292)" cx="624.925" cy="323.902" r="14" fill="#0000ff" fill-rule="evenodd" fill-opacity="1" stroke="none"/>
<circle clip-path="url(#clip292)" cx="710.146" cy="323.902" r="14" fill="#0000ff" fill-rule="evenodd" fill-opacity="1" stroke="none"/>
<path clip-path="url(#clip290)" d="M 0 0 M753.259 529.469 L758.989 529.469 L758.989 509.695 L752.756 510.945 L752.756 507.751 L758.954 506.501 L762.461 506.501 L762.461 529.469 L768.19 529.469 L768.19 532.421 L753.259 532.421 L753.259 529.469 Z" fill="#000000" fill-rule="evenodd" fill-opacity="1" /><path clip-path="url(#clip290)" d="M 0 0 M783.207 518.063 Q780.846 518.063 779.457 519.678 Q778.086 521.292 778.086 524.105 Q778.086 526.9 779.457 528.532 Q780.846 530.146 783.207 530.146 Q785.568 530.146 786.94 528.532 Q788.329 526.9 788.329 524.105 Q788.329 521.292 786.94 519.678 Q785.568 518.063 783.207 518.063 M790.169 507.074 L790.169 510.268 Q788.849 509.643 787.495 509.313 Q786.159 508.983 784.839 508.983 Q781.367 508.983 779.527 511.327 Q777.704 513.671 777.443 518.41 Q778.468 516.9 780.013 516.101 Q781.558 515.285 783.415 515.285 Q787.322 515.285 789.579 517.664 Q791.853 520.025 791.853 524.105 Q791.853 528.098 789.492 530.511 Q787.131 532.924 783.207 532.924 Q778.711 532.924 776.332 529.487 Q773.954 526.032 773.954 519.487 Q773.954 513.341 776.87 509.695 Q779.787 506.032 784.7 506.032 Q786.02 506.032 787.356 506.292 Q788.711 506.553 790.169 507.074 Z" fill="#000000" fill-rule="evenodd" fill-opacity="1" /><path clip-path="url(#clip290)" d="M 0 0 M710.649 457.371 L716.378 457.371 L716.378 437.597 L710.146 438.847 L710.146 435.652 L716.344 434.402 L719.85 434.402 L719.85 457.371 L725.58 457.371 L725.58 460.322 L710.649 460.322 L710.649 457.371 Z" fill="#000000" fill-rule="evenodd" fill-opacity="1" /><path clip-path="url(#clip290)" d="M 0 0 M731.777 434.402 L748.444 434.402 L748.444 435.895 L739.034 460.322 L735.371 460.322 L744.225 437.354 L731.777 437.354 L731.777 434.402 Z" fill="#000000" fill-rule="evenodd" fill-opacity="1" /><path clip-path="url(#clip290)" d="M 0 0 M671.754 385.273 L683.994 385.273 L683.994 388.224 L667.535 388.224 L667.535 385.273 Q669.532 383.207 672.969 379.734 Q676.424 376.245 677.31 375.238 Q678.994 373.346 679.653 372.044 Q680.331 370.724 680.331 369.457 Q680.331 367.391 678.872 366.089 Q677.431 364.787 675.105 364.787 Q673.456 364.787 671.615 365.36 Q669.792 365.932 667.709 367.096 L667.709 363.554 Q669.827 362.703 671.667 362.269 Q673.508 361.835 675.035 361.835 Q679.063 361.835 681.459 363.849 Q683.855 365.863 683.855 369.231 Q683.855 370.828 683.247 372.269 Q682.657 373.693 681.077 375.637 Q680.643 376.141 678.317 378.554 Q675.99 380.95 671.754 385.273 Z" fill="#000000" fill-rule="evenodd" fill-opacity="1" /><path clip-path="url(#clip290)" d="M 0 0 M698.855 375.915 Q696.355 375.915 694.914 377.252 Q693.49 378.589 693.49 380.932 Q693.49 383.276 694.914 384.613 Q696.355 385.95 698.855 385.95 Q701.355 385.95 702.796 384.613 Q704.237 383.259 704.237 380.932 Q704.237 378.589 702.796 377.252 Q701.372 375.915 698.855 375.915 M695.348 374.422 Q693.091 373.866 691.823 372.321 Q690.574 370.776 690.574 368.554 Q690.574 365.446 692.778 363.641 Q695.001 361.835 698.855 361.835 Q702.726 361.835 704.931 363.641 Q707.136 365.446 707.136 368.554 Q707.136 370.776 705.869 372.321 Q704.619 373.866 702.379 374.422 Q704.914 375.012 706.32 376.731 Q707.744 378.45 707.744 380.932 Q707.744 384.7 705.435 386.714 Q703.143 388.727 698.855 388.727 Q694.567 388.727 692.258 386.714 Q689.966 384.7 689.966 380.932 Q689.966 378.45 691.389 376.731 Q692.813 375.012 695.348 374.422 M694.063 368.884 Q694.063 370.898 695.313 372.026 Q696.58 373.155 698.855 373.155 Q701.112 373.155 702.379 372.026 Q703.664 370.898 703.664 368.884 Q703.664 366.87 702.379 365.741 Q701.112 364.613 698.855 364.613 Q696.58 364.613 695.313 365.741 Q694.063 366.87 694.063 368.884 Z" fill="#000000" fill-rule="evenodd" fill-opacity="1" /><path clip-path="url(#clip290)" d="M 0 0 M629.144 313.174 L641.383 313.174 L641.383 316.126 L624.925 316.126 L624.925 313.174 Q626.922 311.108 630.359 307.636 Q633.814 304.147 634.699 303.14 Q636.383 301.247 637.043 299.945 Q637.72 298.626 637.72 297.358 Q637.72 295.292 636.262 293.99 Q634.821 292.688 632.495 292.688 Q630.845 292.688 629.005 293.261 Q627.182 293.834 625.099 294.997 L625.099 291.456 Q627.217 290.605 629.057 290.171 Q630.897 289.737 632.425 289.737 Q636.453 289.737 638.849 291.751 Q641.245 293.765 641.245 297.133 Q641.245 298.73 640.637 300.171 Q640.047 301.595 638.467 303.539 Q638.033 304.042 635.706 306.456 Q633.38 308.851 629.144 313.174 Z" fill="#000000" fill-rule="evenodd" fill-opacity="1" /><path clip-path="url(#clip290)" d="M 0 0 M648.849 315.587 L648.849 312.393 Q650.168 313.018 651.522 313.348 Q652.876 313.678 654.179 313.678 Q657.651 313.678 659.474 311.351 Q661.314 309.008 661.574 304.251 Q660.567 305.744 659.022 306.542 Q657.477 307.341 655.602 307.341 Q651.713 307.341 649.439 304.997 Q647.182 302.636 647.182 298.556 Q647.182 294.563 649.543 292.15 Q651.904 289.737 655.828 289.737 Q660.324 289.737 662.685 293.192 Q665.064 296.629 665.064 303.192 Q665.064 309.32 662.147 312.983 Q659.248 316.629 654.335 316.629 Q653.015 316.629 651.661 316.369 Q650.307 316.108 648.849 315.587 M655.828 304.598 Q658.189 304.598 659.56 302.983 Q660.949 301.369 660.949 298.556 Q660.949 295.761 659.56 294.147 Q658.189 292.515 655.828 292.515 Q653.467 292.515 652.078 294.147 Q650.706 295.761 650.706 298.556 Q650.706 301.369 652.078 302.983 Q653.467 304.598 655.828 304.598 Z" fill="#000000" fill-rule="evenodd" fill-opacity="1" /><path clip-path="url(#clip290)" d="M 0 0 M721.864 302.15 Q724.382 302.688 725.788 304.39 Q727.212 306.091 727.212 308.591 Q727.212 312.428 724.573 314.528 Q721.934 316.629 717.073 316.629 Q715.441 316.629 713.705 316.299 Q711.986 315.987 710.146 315.344 L710.146 311.959 Q711.604 312.81 713.34 313.244 Q715.076 313.678 716.969 313.678 Q720.267 313.678 721.986 312.376 Q723.722 311.074 723.722 308.591 Q723.722 306.299 722.107 305.015 Q720.51 303.713 717.646 303.713 L714.625 303.713 L714.625 300.831 L717.785 300.831 Q720.371 300.831 721.743 299.806 Q723.114 298.765 723.114 296.82 Q723.114 294.824 721.691 293.765 Q720.285 292.688 717.646 292.688 Q716.205 292.688 714.555 293.001 Q712.906 293.313 710.927 293.973 L710.927 290.848 Q712.923 290.292 714.66 290.015 Q716.413 289.737 717.958 289.737 Q721.951 289.737 724.278 291.56 Q726.604 293.365 726.604 296.456 Q726.604 298.608 725.371 300.101 Q724.139 301.577 721.864 302.15 Z" fill="#000000" fill-rule="evenodd" fill-opacity="1" /><path clip-path="url(#clip290)" d="M 0 0 M741.361 292.515 Q738.652 292.515 737.281 295.188 Q735.927 297.845 735.927 303.192 Q735.927 308.522 737.281 311.195 Q738.652 313.851 741.361 313.851 Q744.086 313.851 745.441 311.195 Q746.812 308.522 746.812 303.192 Q746.812 297.845 745.441 295.188 Q744.086 292.515 741.361 292.515 M741.361 289.737 Q745.718 289.737 748.01 293.192 Q750.319 296.629 750.319 303.192 Q750.319 309.737 748.01 313.192 Q745.718 316.629 741.361 316.629 Q737.003 316.629 734.694 313.192 Q732.402 309.737 732.402 303.192 Q732.402 296.629 734.694 293.192 Q737.003 289.737 741.361 289.737 Z" fill="#000000" fill-rule="evenodd" fill-opacity="1" /><circle clip-path="url(#clip292)" cx="411.874" cy="251.803" r="14" fill="#0000ff" fill-rule="evenodd" fill-opacity="1" stroke="none"/>
<circle clip-path="url(#clip292)" cx="369.264" cy="179.705" r="14" fill="#0000ff" fill-rule="evenodd" fill-opacity="1" stroke="none"/>
<circle clip-path="url(#clip292)" cx="454.484" cy="179.705" r="14" fill="#0000ff" fill-rule="evenodd" fill-opacity="1" stroke="none"/>
<circle clip-path="url(#clip292)" cx="582.315" cy="251.803" r="14" fill="#0000ff" fill-rule="evenodd" fill-opacity="1" stroke="none"/>
<circle clip-path="url(#clip292)" cx="539.705" cy="179.705" r="14" fill="#0000ff" fill-rule="evenodd" fill-opacity="1" stroke="none"/>
<circle clip-path="url(#clip292)" cx="624.925" cy="179.705" r="14" fill="#0000ff" fill-rule="evenodd" fill-opacity="1" stroke="none"/>
<circle clip-path="url(#clip292)" cx="752.756" cy="251.803" r="14" fill="#0000ff" fill-rule="evenodd" fill-opacity="1" stroke="none"/>
<circle clip-path="url(#clip292)" cx="710.146" cy="179.705" r="14" fill="#0000ff" fill-rule="evenodd" fill-opacity="1" stroke="none"/>
<circle clip-path="url(#clip292)" cx="241.433" cy="251.803" r="14" fill="#0000ff" fill-rule="evenodd" fill-opacity="1" stroke="none"/>
<circle clip-path="url(#clip292)" cx="198.823" cy="179.705" r="14" fill="#0000ff" fill-rule="evenodd" fill-opacity="1" stroke="none"/>
<circle clip-path="url(#clip292)" cx="284.043" cy="179.705" r="14" fill="#0000ff" fill-rule="evenodd" fill-opacity="1" stroke="none"/>
<circle clip-path="url(#clip292)" cx="667.535" cy="107.607" r="14" fill="#0000ff" fill-rule="evenodd" fill-opacity="1" stroke="none"/>
<circle clip-path="url(#clip292)" cx="497.094" cy="396" r="14" fill="#0000ff" fill-rule="evenodd" fill-opacity="1" stroke="none"/>
<circle clip-path="url(#clip292)" cx="454.484" cy="323.902" r="14" fill="#0000ff" fill-rule="evenodd" fill-opacity="1" stroke="none"/>
<circle clip-path="url(#clip292)" cx="539.705" cy="323.902" r="14" fill="#0000ff" fill-rule="evenodd" fill-opacity="1" stroke="none"/>
<circle clip-path="url(#clip292)" cx="156.213" cy="107.607" r="14" fill="#0000ff" fill-rule="evenodd" fill-opacity="1" stroke="none"/>
<circle clip-path="url(#clip292)" cx="326.654" cy="107.607" r="14" fill="#0000ff" fill-rule="evenodd" fill-opacity="1" stroke="none"/>
<circle clip-path="url(#clip292)" cx="497.094" cy="107.607" r="14" fill="#0000ff" fill-rule="evenodd" fill-opacity="1" stroke="none"/>
<path clip-path="url(#clip290)" d="M 0 0 M412.377 241.076 L418.107 241.076 L418.107 221.302 L411.874 222.552 L411.874 219.357 L418.072 218.107 L421.579 218.107 L421.579 241.076 L427.308 241.076 L427.308 244.027 L412.377 244.027 L412.377 241.076 Z" fill="#000000" fill-rule="evenodd" fill-opacity="1" /><path clip-path="url(#clip290)" d="M 0 0 M373.483 168.978 L385.722 168.978 L385.722 171.929 L369.264 171.929 L369.264 168.978 Q371.26 166.912 374.698 163.44 Q378.153 159.95 379.038 158.943 Q380.722 157.051 381.382 155.749 Q382.059 154.429 382.059 153.162 Q382.059 151.096 380.601 149.794 Q379.16 148.492 376.833 148.492 Q375.184 148.492 373.344 149.065 Q371.521 149.637 369.437 150.801 L369.437 147.259 Q371.555 146.408 373.396 145.974 Q375.236 145.54 376.764 145.54 Q380.791 145.54 383.187 147.554 Q385.583 149.568 385.583 152.936 Q385.583 154.533 384.976 155.974 Q384.385 157.398 382.805 159.342 Q382.371 159.846 380.045 162.259 Q377.719 164.655 373.483 168.978 Z" fill="#000000" fill-rule="evenodd" fill-opacity="1" /><path clip-path="url(#clip290)" d="M 0 0 M466.203 157.953 Q468.72 158.492 470.127 160.193 Q471.55 161.894 471.55 164.394 Q471.55 168.231 468.911 170.332 Q466.272 172.433 461.411 172.433 Q459.779 172.433 458.043 172.103 Q456.325 171.79 454.484 171.148 L454.484 167.762 Q455.943 168.613 457.679 169.047 Q459.415 169.481 461.307 169.481 Q464.606 169.481 466.324 168.179 Q468.061 166.877 468.061 164.394 Q468.061 162.103 466.446 160.818 Q464.849 159.516 461.984 159.516 L458.963 159.516 L458.963 156.634 L462.123 156.634 Q464.71 156.634 466.081 155.61 Q467.453 154.568 467.453 152.624 Q467.453 150.627 466.029 149.568 Q464.623 148.492 461.984 148.492 Q460.543 148.492 458.894 148.804 Q457.245 149.117 455.265 149.776 L455.265 146.651 Q457.262 146.096 458.998 145.818 Q460.752 145.54 462.297 145.54 Q466.29 145.54 468.616 147.363 Q470.942 149.169 470.942 152.259 Q470.942 154.412 469.71 155.905 Q468.477 157.381 466.203 157.953 Z" fill="#000000" fill-rule="evenodd" fill-opacity="1" /><path clip-path="url(#clip290)" d="M 0 0 M594.016 221.163 L585.162 235 L594.016 235 L594.016 221.163 M593.096 218.107 L597.506 218.107 L597.506 235 L601.204 235 L601.204 237.916 L597.506 237.916 L597.506 244.027 L594.016 244.027 L594.016 237.916 L582.315 237.916 L582.315 234.531 L593.096 218.107 Z" fill="#000000" fill-rule="evenodd" fill-opacity="1" /><path clip-path="url(#clip290)" d="M 0 0 M540.798 146.009 L554.566 146.009 L554.566 148.96 L544.01 148.96 L544.01 155.315 Q544.774 155.054 545.538 154.933 Q546.302 154.794 547.066 154.794 Q551.406 154.794 553.941 157.172 Q556.475 159.551 556.475 163.613 Q556.475 167.797 553.871 170.123 Q551.267 172.433 546.528 172.433 Q544.896 172.433 543.194 172.155 Q541.51 171.877 539.705 171.321 L539.705 167.797 Q541.267 168.648 542.934 169.064 Q544.601 169.481 546.458 169.481 Q549.462 169.481 551.215 167.901 Q552.969 166.321 552.969 163.613 Q552.969 160.905 551.215 159.325 Q549.462 157.745 546.458 157.745 Q545.052 157.745 543.646 158.058 Q542.257 158.37 540.798 159.03 L540.798 146.009 Z" fill="#000000" fill-rule="evenodd" fill-opacity="1" /><path clip-path="url(#clip290)" d="M 0 0 M634.179 157.571 Q631.818 157.571 630.429 159.186 Q629.057 160.801 629.057 163.613 Q629.057 166.408 630.429 168.04 Q631.818 169.655 634.179 169.655 Q636.54 169.655 637.911 168.04 Q639.3 166.408 639.3 163.613 Q639.3 160.801 637.911 159.186 Q636.54 157.571 634.179 157.571 M641.14 146.582 L641.14 149.776 Q639.821 149.151 638.467 148.822 Q637.13 148.492 635.811 148.492 Q632.338 148.492 630.498 150.835 Q628.675 153.179 628.415 157.919 Q629.439 156.408 630.984 155.61 Q632.529 154.794 634.387 154.794 Q638.293 154.794 640.55 157.172 Q642.824 159.533 642.824 163.613 Q642.824 167.606 640.463 170.019 Q638.102 172.433 634.179 172.433 Q629.682 172.433 627.304 168.995 Q624.925 165.54 624.925 158.995 Q624.925 152.849 627.842 149.203 Q630.758 145.54 635.672 145.54 Q636.991 145.54 638.328 145.801 Q639.682 146.061 641.14 146.582 Z" fill="#000000" fill-rule="evenodd" fill-opacity="1" /><path clip-path="url(#clip290)" d="M 0 0 M752.756 218.107 L769.422 218.107 L769.422 219.6 L760.013 244.027 L756.35 244.027 L765.204 221.059 L752.756 221.059 L752.756 218.107 Z" fill="#000000" fill-rule="evenodd" fill-opacity="1" /><path clip-path="url(#clip290)" d="M 0 0 M719.035 159.62 Q716.535 159.62 715.094 160.957 Q713.67 162.294 713.67 164.637 Q713.67 166.981 715.094 168.318 Q716.535 169.655 719.035 169.655 Q721.534 169.655 722.975 168.318 Q724.416 166.964 724.416 164.637 Q724.416 162.294 722.975 160.957 Q721.552 159.62 719.035 159.62 M715.528 158.127 Q713.271 157.571 712.003 156.026 Q710.753 154.481 710.753 152.259 Q710.753 149.151 712.958 147.346 Q715.18 145.54 719.035 145.54 Q722.906 145.54 725.111 147.346 Q727.316 149.151 727.316 152.259 Q727.316 154.481 726.048 156.026 Q724.798 157.571 722.559 158.127 Q725.094 158.717 726.5 160.436 Q727.923 162.155 727.923 164.637 Q727.923 168.405 725.614 170.419 Q723.323 172.433 719.035 172.433 Q714.746 172.433 712.437 170.419 Q710.146 168.405 710.146 164.637 Q710.146 162.155 711.569 160.436 Q712.993 158.717 715.528 158.127 M714.243 152.589 Q714.243 154.603 715.493 155.731 Q716.76 156.86 719.035 156.86 Q721.291 156.86 722.559 155.731 Q723.844 154.603 723.844 152.589 Q723.844 150.575 722.559 149.447 Q721.291 148.318 719.035 148.318 Q716.76 148.318 715.493 149.447 Q714.243 150.575 714.243 152.589 Z" fill="#000000" fill-rule="evenodd" fill-opacity="1" /><path clip-path="url(#clip290)" d="M 0 0 M241.937 241.076 L247.666 241.076 L247.666 221.302 L241.433 222.552 L241.433 219.357 L247.631 218.107 L251.138 218.107 L251.138 241.076 L256.867 241.076 L256.867 244.027 L241.937 244.027 L241.937 241.076 Z" fill="#000000" fill-rule="evenodd" fill-opacity="1" /><path clip-path="url(#clip290)" d="M 0 0 M271.884 229.67 Q269.523 229.67 268.134 231.284 Q266.763 232.899 266.763 235.711 Q266.763 238.507 268.134 240.138 Q269.523 241.753 271.884 241.753 Q274.245 241.753 275.617 240.138 Q277.006 238.507 277.006 235.711 Q277.006 232.899 275.617 231.284 Q274.245 229.67 271.884 229.67 M278.846 218.68 L278.846 221.875 Q277.527 221.25 276.172 220.92 Q274.836 220.59 273.516 220.59 Q270.044 220.59 268.204 222.934 Q266.381 225.277 266.12 230.017 Q267.145 228.507 268.69 227.708 Q270.235 226.892 272.093 226.892 Q275.999 226.892 278.256 229.27 Q280.53 231.632 280.53 235.711 Q280.53 239.704 278.169 242.118 Q275.808 244.531 271.884 244.531 Q267.388 244.531 265.009 241.093 Q262.631 237.639 262.631 231.093 Q262.631 224.948 265.548 221.302 Q268.464 217.639 273.377 217.639 Q274.697 217.639 276.034 217.899 Q277.388 218.159 278.846 218.68 Z" fill="#000000" fill-rule="evenodd" fill-opacity="1" /><path clip-path="url(#clip290)" d="M 0 0 M199.326 168.978 L205.055 168.978 L205.055 149.203 L198.823 150.453 L198.823 147.259 L205.021 146.009 L208.528 146.009 L208.528 168.978 L214.257 168.978 L214.257 171.929 L199.326 171.929 L199.326 168.978 Z" fill="#000000" fill-rule="evenodd" fill-opacity="1" /><path clip-path="url(#clip290)" d="M 0 0 M220.455 146.009 L237.121 146.009 L237.121 147.502 L227.712 171.929 L224.048 171.929 L232.903 148.96 L220.455 148.96 L220.455 146.009 Z" fill="#000000" fill-rule="evenodd" fill-opacity="1" /><path clip-path="url(#clip290)" d="M 0 0 M284.547 168.978 L290.276 168.978 L290.276 149.203 L284.043 150.453 L284.043 147.259 L290.241 146.009 L293.748 146.009 L293.748 168.978 L299.477 168.978 L299.477 171.929 L284.547 171.929 L284.547 168.978 Z" fill="#000000" fill-rule="evenodd" fill-opacity="1" /><path clip-path="url(#clip290)" d="M 0 0 M314.061 159.62 Q311.561 159.62 310.12 160.957 Q308.696 162.294 308.696 164.637 Q308.696 166.981 310.12 168.318 Q311.561 169.655 314.061 169.655 Q316.56 169.655 318.001 168.318 Q319.442 166.964 319.442 164.637 Q319.442 162.294 318.001 160.957 Q316.578 159.62 314.061 159.62 M310.554 158.127 Q308.297 157.571 307.029 156.026 Q305.779 154.481 305.779 152.259 Q305.779 149.151 307.984 147.346 Q310.206 145.54 314.061 145.54 Q317.932 145.54 320.137 147.346 Q322.342 149.151 322.342 152.259 Q322.342 154.481 321.074 156.026 Q319.824 157.571 317.585 158.127 Q320.12 158.717 321.526 160.436 Q322.949 162.155 322.949 164.637 Q322.949 168.405 320.64 170.419 Q318.349 172.433 314.061 172.433 Q309.772 172.433 307.463 170.419 Q305.172 168.405 305.172 164.637 Q305.172 162.155 306.595 160.436 Q308.019 158.717 310.554 158.127 M309.269 152.589 Q309.269 154.603 310.519 155.731 Q311.786 156.86 314.061 156.86 Q316.317 156.86 317.585 155.731 Q318.87 154.603 318.87 152.589 Q318.87 150.575 317.585 149.447 Q316.317 148.318 314.061 148.318 Q311.786 148.318 310.519 149.447 Q309.269 150.575 309.269 152.589 Z" fill="#000000" fill-rule="evenodd" fill-opacity="1" /><path clip-path="url(#clip290)" d="M 0 0 M668.039 96.8793 L673.768 96.8793 L673.768 77.1051 L667.535 78.3551 L667.535 75.1607 L673.733 73.9107 L677.24 73.9107 L677.24 96.8793 L682.969 96.8793 L682.969 99.8307 L668.039 99.8307 L668.039 96.8793 Z" fill="#000000" fill-rule="evenodd" fill-opacity="1" /><path clip-path="url(#clip290)" d="M 0 0 M690.157 99.2925 L690.157 96.0981 Q691.476 96.7231 692.83 97.053 Q694.185 97.3828 695.487 97.3828 Q698.959 97.3828 700.782 95.0564 Q702.622 92.7127 702.882 87.9558 Q701.876 89.4488 700.33 90.2474 Q698.785 91.046 696.91 91.046 Q693.021 91.046 690.747 88.7023 Q688.49 86.3412 688.49 82.2614 Q688.49 78.2683 690.851 75.8552 Q693.212 73.442 697.136 73.442 Q701.632 73.442 703.994 76.8968 Q706.372 80.3343 706.372 86.8968 Q706.372 93.0252 703.455 96.6884 Q700.556 100.334 695.643 100.334 Q694.323 100.334 692.969 100.074 Q691.615 99.8134 690.157 99.2925 M697.136 88.303 Q699.497 88.303 700.869 86.6884 Q702.257 85.0739 702.257 82.2614 Q702.257 79.4662 700.869 77.8517 Q699.497 76.2197 697.136 76.2197 Q694.775 76.2197 693.386 77.8517 Q692.014 79.4662 692.014 82.2614 Q692.014 85.0739 693.386 86.6884 Q694.775 88.303 697.136 88.303 Z" fill="#000000" fill-rule="evenodd" fill-opacity="1" /><path clip-path="url(#clip290)" d="M 0 0 M501.313 385.273 L513.553 385.273 L513.553 388.224 L497.094 388.224 L497.094 385.273 Q499.091 383.207 502.528 379.734 Q505.983 376.245 506.869 375.238 Q508.553 373.346 509.212 372.044 Q509.89 370.724 509.89 369.457 Q509.89 367.391 508.431 366.089 Q506.99 364.787 504.664 364.787 Q503.015 364.787 501.174 365.36 Q499.351 365.932 497.268 367.096 L497.268 363.554 Q499.386 362.703 501.226 362.269 Q503.067 361.835 504.594 361.835 Q508.622 361.835 511.018 363.849 Q513.414 365.863 513.414 369.231 Q513.414 370.828 512.806 372.269 Q512.216 373.693 510.636 375.637 Q510.202 376.141 507.876 378.554 Q505.549 380.95 501.313 385.273 Z" fill="#000000" fill-rule="evenodd" fill-opacity="1" /><path clip-path="url(#clip290)" d="M 0 0 M520.949 362.304 L534.716 362.304 L534.716 365.255 L524.16 365.255 L524.16 371.61 Q524.924 371.349 525.688 371.228 Q526.452 371.089 527.216 371.089 Q531.556 371.089 534.091 373.467 Q536.626 375.846 536.626 379.908 Q536.626 384.092 534.021 386.418 Q531.417 388.727 526.678 388.727 Q525.046 388.727 523.344 388.45 Q521.66 388.172 519.855 387.616 L519.855 384.092 Q521.417 384.943 523.084 385.359 Q524.751 385.776 526.608 385.776 Q529.612 385.776 531.365 384.196 Q533.119 382.616 533.119 379.908 Q533.119 377.2 531.365 375.62 Q529.612 374.04 526.608 374.04 Q525.202 374.04 523.796 374.353 Q522.407 374.665 520.949 375.325 L520.949 362.304 Z" fill="#000000" fill-rule="evenodd" fill-opacity="1" /><path clip-path="url(#clip290)" d="M 0 0 M458.703 313.174 L470.942 313.174 L470.942 316.126 L454.484 316.126 L454.484 313.174 Q456.481 311.108 459.918 307.636 Q463.373 304.147 464.259 303.14 Q465.943 301.247 466.602 299.945 Q467.279 298.626 467.279 297.358 Q467.279 295.292 465.821 293.99 Q464.38 292.688 462.054 292.688 Q460.404 292.688 458.564 293.261 Q456.741 293.834 454.658 294.997 L454.658 291.456 Q456.776 290.605 458.616 290.171 Q460.456 289.737 461.984 289.737 Q466.012 289.737 468.408 291.751 Q470.804 293.765 470.804 297.133 Q470.804 298.73 470.196 300.171 Q469.606 301.595 468.026 303.539 Q467.592 304.042 465.265 306.456 Q462.939 308.851 458.703 313.174 Z" fill="#000000" fill-rule="evenodd" fill-opacity="1" /><path clip-path="url(#clip290)" d="M 0 0 M486.238 301.768 Q483.876 301.768 482.488 303.383 Q481.116 304.997 481.116 307.81 Q481.116 310.605 482.488 312.237 Q483.876 313.851 486.238 313.851 Q488.599 313.851 489.97 312.237 Q491.359 310.605 491.359 307.81 Q491.359 304.997 489.97 303.383 Q488.599 301.768 486.238 301.768 M493.199 290.779 L493.199 293.973 Q491.88 293.348 490.526 293.018 Q489.189 292.688 487.869 292.688 Q484.397 292.688 482.557 295.032 Q480.734 297.376 480.474 302.115 Q481.498 300.605 483.043 299.806 Q484.588 298.99 486.446 298.99 Q490.352 298.99 492.609 301.369 Q494.883 303.73 494.883 307.81 Q494.883 311.803 492.522 314.216 Q490.161 316.629 486.238 316.629 Q481.741 316.629 479.363 313.192 Q476.984 309.737 476.984 303.192 Q476.984 297.046 479.901 293.4 Q482.817 289.737 487.731 289.737 Q489.05 289.737 490.387 289.997 Q491.741 290.258 493.199 290.779 Z" fill="#000000" fill-rule="evenodd" fill-opacity="1" /><path clip-path="url(#clip290)" d="M 0 0 M543.923 313.174 L556.163 313.174 L556.163 316.126 L539.705 316.126 L539.705 313.174 Q541.701 311.108 545.139 307.636 Q548.594 304.147 549.479 303.14 Q551.163 301.247 551.823 299.945 Q552.5 298.626 552.5 297.358 Q552.5 295.292 551.041 293.99 Q549.601 292.688 547.274 292.688 Q545.625 292.688 543.785 293.261 Q541.962 293.834 539.878 294.997 L539.878 291.456 Q541.996 290.605 543.837 290.171 Q545.677 289.737 547.205 289.737 Q551.232 289.737 553.628 291.751 Q556.024 293.765 556.024 297.133 Q556.024 298.73 555.416 300.171 Q554.826 301.595 553.246 303.539 Q552.812 304.042 550.486 306.456 Q548.16 308.851 543.923 313.174 Z" fill="#000000" fill-rule="evenodd" fill-opacity="1" /><path clip-path="url(#clip290)" d="M 0 0 M562.639 290.206 L579.305 290.206 L579.305 291.699 L569.896 316.126 L566.232 316.126 L575.086 293.157 L562.639 293.157 L562.639 290.206 Z" fill="#000000" fill-rule="evenodd" fill-opacity="1" /><path clip-path="url(#clip290)" d="M 0 0 M160.431 96.8793 L172.671 96.8793 L172.671 99.8307 L156.213 99.8307 L156.213 96.8793 Q158.209 94.8134 161.647 91.3412 Q165.101 87.8516 165.987 86.8447 Q167.671 84.9523 168.331 83.6503 Q169.008 82.3308 169.008 81.0635 Q169.008 78.9975 167.549 77.6954 Q166.108 76.3933 163.782 76.3933 Q162.133 76.3933 160.292 76.9663 Q158.47 77.5392 156.386 78.7024 L156.386 75.1607 Q158.504 74.31 160.345 73.876 Q162.185 73.442 163.713 73.442 Q167.74 73.442 170.136 75.4559 Q172.532 77.4697 172.532 80.8378 Q172.532 82.435 171.924 83.8759 Q171.334 85.2995 169.754 87.244 Q169.32 87.7475 166.994 90.1606 Q164.667 92.5565 160.431 96.8793 Z" fill="#000000" fill-rule="evenodd" fill-opacity="1" /><path clip-path="url(#clip290)" d="M 0 0 M187.532 87.5218 Q185.032 87.5218 183.591 88.8586 Q182.167 90.1954 182.167 92.5391 Q182.167 94.8828 183.591 96.2196 Q185.032 97.5564 187.532 97.5564 Q190.032 97.5564 191.473 96.2196 Q192.914 94.8655 192.914 92.5391 Q192.914 90.1954 191.473 88.8586 Q190.049 87.5218 187.532 87.5218 M184.025 86.0287 Q181.768 85.4732 180.501 83.928 Q179.251 82.3829 179.251 80.1607 Q179.251 77.0531 181.456 75.2475 Q183.678 73.442 187.532 73.442 Q191.403 73.442 193.608 75.2475 Q195.813 77.0531 195.813 80.1607 Q195.813 82.3829 194.546 83.928 Q193.296 85.4732 191.056 86.0287 Q193.591 86.619 194.997 88.3377 Q196.421 90.0565 196.421 92.5391 Q196.421 96.3064 194.112 98.3203 Q191.82 100.334 187.532 100.334 Q183.244 100.334 180.935 98.3203 Q178.643 96.3064 178.643 92.5391 Q178.643 90.0565 180.067 88.3377 Q181.49 86.619 184.025 86.0287 M182.74 80.4905 Q182.74 82.5044 183.99 83.6329 Q185.258 84.7614 187.532 84.7614 Q189.789 84.7614 191.056 83.6329 Q192.341 82.5044 192.341 80.4905 Q192.341 78.4767 191.056 77.3482 Q189.789 76.2197 187.532 76.2197 Q185.258 76.2197 183.99 77.3482 Q182.74 78.4767 182.74 80.4905 Z" fill="#000000" fill-rule="evenodd" fill-opacity="1" /><path clip-path="url(#clip290)" d="M 0 0 M338.372 85.8551 Q340.89 86.3933 342.296 88.0947 Q343.719 89.7961 343.719 92.296 Q343.719 96.1328 341.081 98.2335 Q338.442 100.334 333.581 100.334 Q331.949 100.334 330.213 100.004 Q328.494 99.6918 326.654 99.0495 L326.654 95.6641 Q328.112 96.5148 329.848 96.9488 Q331.584 97.3828 333.476 97.3828 Q336.775 97.3828 338.494 96.0807 Q340.23 94.7787 340.23 92.296 Q340.23 90.0044 338.615 88.7197 Q337.018 87.4176 334.154 87.4176 L331.133 87.4176 L331.133 84.5357 L334.292 84.5357 Q336.879 84.5357 338.251 83.5114 Q339.622 82.4697 339.622 80.5253 Q339.622 78.5288 338.199 77.4697 Q336.792 76.3933 334.154 76.3933 Q332.713 76.3933 331.063 76.7058 Q329.414 77.0183 327.435 77.6781 L327.435 74.5531 Q329.431 73.9975 331.167 73.7198 Q332.921 73.442 334.466 73.442 Q338.459 73.442 340.785 75.2649 Q343.112 77.0704 343.112 80.1607 Q343.112 82.3135 341.879 83.8065 Q340.647 85.2822 338.372 85.8551 Z" fill="#000000" fill-rule="evenodd" fill-opacity="1" /><path clip-path="url(#clip290)" d="M 0 0 M350.976 96.8793 L356.705 96.8793 L356.705 77.1051 L350.473 78.3551 L350.473 75.1607 L356.671 73.9107 L360.178 73.9107 L360.178 96.8793 L365.907 96.8793 L365.907 99.8307 L350.976 99.8307 L350.976 96.8793 Z" fill="#000000" fill-rule="evenodd" fill-opacity="1" /><path clip-path="url(#clip290)" d="M 0 0 M508.813 85.8551 Q511.331 86.3933 512.737 88.0947 Q514.16 89.7961 514.16 92.296 Q514.16 96.1328 511.521 98.2335 Q508.883 100.334 504.022 100.334 Q502.39 100.334 500.653 100.004 Q498.935 99.6918 497.094 99.0495 L497.094 95.6641 Q498.553 96.5148 500.289 96.9488 Q502.025 97.3828 503.917 97.3828 Q507.216 97.3828 508.935 96.0807 Q510.671 94.7787 510.671 92.296 Q510.671 90.0044 509.056 88.7197 Q507.459 87.4176 504.594 87.4176 L501.574 87.4176 L501.574 84.5357 L504.733 84.5357 Q507.32 84.5357 508.692 83.5114 Q510.063 82.4697 510.063 80.5253 Q510.063 78.5288 508.64 77.4697 Q507.233 76.3933 504.594 76.3933 Q503.153 76.3933 501.504 76.7058 Q499.855 77.0183 497.876 77.6781 L497.876 74.5531 Q499.872 73.9975 501.608 73.7198 Q503.362 73.442 504.907 73.442 Q508.9 73.442 511.226 75.2649 Q513.553 77.0704 513.553 80.1607 Q513.553 82.3135 512.32 83.8065 Q511.087 85.2822 508.813 85.8551 Z" fill="#000000" fill-rule="evenodd" fill-opacity="1" /><path clip-path="url(#clip290)" d="M 0 0 M530.445 76.9663 L521.591 90.803 L530.445 90.803 L530.445 76.9663 M529.525 73.9107 L533.935 73.9107 L533.935 90.803 L537.632 90.803 L537.632 93.7196 L533.935 93.7196 L533.935 99.8307 L530.445 99.8307 L530.445 93.7196 L518.744 93.7196 L518.744 90.3342 L529.525 73.9107 Z" fill="#000000" fill-rule="evenodd" fill-opacity="1" /></svg>
