<?xml version="1.0" encoding="utf-8"?>
<svg xmlns="http://www.w3.org/2000/svg" xmlns:xlink="http://www.w3.org/1999/xlink" width="200" height="200" viewBox="0 0 800 800">
<defs>
  <clipPath id="clip110">
    <rect x="0" y="0" width="800" height="800"/>
  </clipPath>
</defs>
<path clip-path="url(#clip110)" d="
M0 800 L800 800 L800 0 L0 0  Z
  " fill="#ffffff" fill-rule="evenodd" fill-opacity="1"/>
<defs>
  <clipPath id="clip111">
    <rect x="160" y="80" width="561" height="561"/>
  </clipPath>
</defs>
<path clip-path="url(#clip110)" d="
M70.9921 729.008 L752.756 729.008 L752.756 62.9921 L70.9921 62.9921  Z
  " fill="#ffffff" fill-rule="evenodd" fill-opacity="1"/>
<defs>
  <clipPath id="clip112">
    <rect x="70" y="62" width="683" height="667"/>
  </clipPath>
</defs>
<polyline clip-path="url(#clip110)" style="stroke:#000000; stroke-width:4; stroke-opacity:1; fill:none" points="
  70.9921,729.008 752.756,729.008 
  "/>
<polyline clip-path="url(#clip110)" style="stroke:#000000; stroke-width:4; stroke-opacity:1; fill:none" points="
  70.9921,729.008 70.9921,721.016 
  "/>
<polyline clip-path="url(#clip110)" style="stroke:#000000; stroke-width:4; stroke-opacity:1; fill:none" points="
  241.433,729.008 241.433,721.016 
  "/>
<polyline clip-path="url(#clip110)" style="stroke:#000000; stroke-width:4; stroke-opacity:1; fill:none" points="
  411.874,729.008 411.874,721.016 
  "/>
<polyline clip-path="url(#clip110)" style="stroke:#000000; stroke-width:4; stroke-opacity:1; fill:none" points="
  582.315,729.008 582.315,721.016 
  "/>
<polyline clip-path="url(#clip110)" style="stroke:#000000; stroke-width:4; stroke-opacity:1; fill:none" points="
  752.756,729.008 752.756,721.016 
  "/>
<path clip-path="url(#clip110)" d="M 0 0 M40.9344 760.051 L70.6102 760.051 L70.6102 763.986 L40.9344 763.986 L40.9344 760.051 Z" fill="#000000" fill-rule="evenodd" fill-opacity="1" /><path clip-path="url(#clip110)" d="M 0 0 M84.7305 772.945 L101.05 772.945 L101.05 776.88 L79.1055 776.88 L79.1055 772.945 Q81.7675 770.19 86.3508 765.56 Q90.9573 760.908 92.1378 759.565 Q94.3832 757.042 95.2628 755.306 Q96.1656 753.547 96.1656 751.857 Q96.1656 749.102 94.2212 747.366 Q92.2999 745.63 89.198 745.63 Q86.999 745.63 84.5453 746.394 Q82.1148 747.158 79.337 748.709 L79.337 743.987 Q82.161 742.852 84.6147 742.274 Q87.0684 741.695 89.1055 741.695 Q94.4758 741.695 97.6702 744.38 Q100.865 747.065 100.865 751.556 Q100.865 753.686 100.054 755.607 Q99.2674 757.505 97.161 760.098 Q96.5823 760.769 93.4804 763.986 Q90.3786 767.181 84.7305 772.945 Z" fill="#000000" fill-rule="evenodd" fill-opacity="1" /><path clip-path="url(#clip110)" d="M 0 0 M211.19 760.051 L240.866 760.051 L240.866 763.986 L211.19 763.986 L211.19 760.051 Z" fill="#000000" fill-rule="evenodd" fill-opacity="1" /><path clip-path="url(#clip110)" d="M 0 0 M251.769 772.945 L259.408 772.945 L259.408 746.579 L251.097 748.246 L251.097 743.987 L259.361 742.32 L264.037 742.32 L264.037 772.945 L271.676 772.945 L271.676 776.88 L251.769 776.88 L251.769 772.945 Z" fill="#000000" fill-rule="evenodd" fill-opacity="1" /><path clip-path="url(#clip110)" d="M 0 0 M411.874 745.399 Q408.263 745.399 406.434 748.963 Q404.629 752.505 404.629 759.635 Q404.629 766.741 406.434 770.306 Q408.263 773.847 411.874 773.847 Q415.508 773.847 417.314 770.306 Q419.142 766.741 419.142 759.635 Q419.142 752.505 417.314 748.963 Q415.508 745.399 411.874 745.399 M411.874 741.695 Q417.684 741.695 420.74 746.301 Q423.818 750.885 423.818 759.635 Q423.818 768.361 420.74 772.968 Q417.684 777.551 411.874 777.551 Q406.064 777.551 402.985 772.968 Q399.93 768.361 399.93 759.635 Q399.93 750.885 402.985 746.301 Q406.064 741.695 411.874 741.695 Z" fill="#000000" fill-rule="evenodd" fill-opacity="1" /><path clip-path="url(#clip110)" d="M 0 0 M572.697 772.945 L580.336 772.945 L580.336 746.579 L572.026 748.246 L572.026 743.987 L580.29 742.32 L584.965 742.32 L584.965 772.945 L592.604 772.945 L592.604 776.88 L572.697 776.88 L572.697 772.945 Z" fill="#000000" fill-rule="evenodd" fill-opacity="1" /><path clip-path="url(#clip110)" d="M 0 0 M747.409 772.945 L763.728 772.945 L763.728 776.88 L741.784 776.88 L741.784 772.945 Q744.446 770.19 749.029 765.56 Q753.636 760.908 754.816 759.565 Q757.061 757.042 757.941 755.306 Q758.844 753.547 758.844 751.857 Q758.844 749.102 756.899 747.366 Q754.978 745.63 751.876 745.63 Q749.677 745.63 747.224 746.394 Q744.793 747.158 742.015 748.709 L742.015 743.987 Q744.839 742.852 747.293 742.274 Q749.747 741.695 751.784 741.695 Q757.154 741.695 760.348 744.38 Q763.543 747.065 763.543 751.556 Q763.543 753.686 762.733 755.607 Q761.946 757.505 759.839 760.098 Q759.261 760.769 756.159 763.986 Q753.057 767.181 747.409 772.945 Z" fill="#000000" fill-rule="evenodd" fill-opacity="1" /><polyline clip-path="url(#clip110)" style="stroke:#000000; stroke-width:4; stroke-opacity:1; fill:none" points="
  70.9921,729.008 70.9921,62.9921 
  "/>
<polyline clip-path="url(#clip110)" style="stroke:#000000; stroke-width:4; stroke-opacity:1; fill:none" points="
  70.9921,729.008 79.1733,729.008 
  "/>
<polyline clip-path="url(#clip110)" style="stroke:#000000; stroke-width:4; stroke-opacity:1; fill:none" points="
  70.9921,562.504 79.1733,562.504 
  "/>
<polyline clip-path="url(#clip110)" style="stroke:#000000; stroke-width:4; stroke-opacity:1; fill:none" points="
  70.9921,396 79.1733,396 
  "/>
<polyline clip-path="url(#clip110)" style="stroke:#000000; stroke-width:4; stroke-opacity:1; fill:none" points="
  70.9921,229.496 79.1733,229.496 
  "/>
<polyline clip-path="url(#clip110)" style="stroke:#000000; stroke-width:4; stroke-opacity:1; fill:none" points="
  70.9921,62.9921 79.1733,62.9921 
  "/>
<path clip-path="url(#clip110)" d="M 0 0 M-1.12329 729.459 L28.5525 729.459 L28.5525 733.394 L-1.12329 733.394 L-1.12329 729.459 Z" fill="#000000" fill-rule="evenodd" fill-opacity="1" /><path clip-path="url(#clip110)" d="M 0 0 M42.6728 742.353 L58.9921 742.353 L58.9921 746.288 L37.0478 746.288 L37.0478 742.353 Q39.7098 739.598 44.2931 734.968 Q48.8996 730.316 50.0801 728.973 Q52.3255 726.45 53.2051 724.714 Q54.1079 722.955 54.1079 721.265 Q54.1079 718.51 52.1635 716.774 Q50.2422 715.038 47.1403 715.038 Q44.9413 715.038 42.4876 715.802 Q40.057 716.566 37.2793 718.117 L37.2793 713.395 Q40.1033 712.26 42.557 711.682 Q45.0107 711.103 47.0477 711.103 Q52.4181 711.103 55.6125 713.788 Q58.8069 716.473 58.8069 720.964 Q58.8069 723.094 57.9968 725.015 Q57.2097 726.913 55.1033 729.506 Q54.5246 730.177 51.4227 733.394 Q48.3209 736.589 42.6728 742.353 Z" fill="#000000" fill-rule="evenodd" fill-opacity="1" /><path clip-path="url(#clip110)" d="M 0 0 M-1.49366 562.955 L28.1821 562.955 L28.1821 566.89 L-1.49366 566.89 L-1.49366 562.955 Z" fill="#000000" fill-rule="evenodd" fill-opacity="1" /><path clip-path="url(#clip110)" d="M 0 0 M39.0848 575.849 L46.7237 575.849 L46.7237 549.483 L38.4135 551.15 L38.4135 546.891 L46.6774 545.224 L51.3533 545.224 L51.3533 575.849 L58.9921 575.849 L58.9921 579.784 L39.0848 579.784 L39.0848 575.849 Z" fill="#000000" fill-rule="evenodd" fill-opacity="1" /><path clip-path="url(#clip110)" d="M 0 0 M47.0477 381.799 Q43.4367 381.799 41.608 385.363 Q39.8024 388.905 39.8024 396.035 Q39.8024 403.141 41.608 406.706 Q43.4367 410.248 47.0477 410.248 Q50.682 410.248 52.4875 406.706 Q54.3162 403.141 54.3162 396.035 Q54.3162 388.905 52.4875 385.363 Q50.682 381.799 47.0477 381.799 M47.0477 378.095 Q52.8579 378.095 55.9134 382.701 Q58.9921 387.285 58.9921 396.035 Q58.9921 404.762 55.9134 409.368 Q52.8579 413.951 47.0477 413.951 Q41.2376 413.951 38.1589 409.368 Q35.1034 404.762 35.1034 396.035 Q35.1034 387.285 38.1589 382.701 Q41.2376 378.095 47.0477 378.095 Z" fill="#000000" fill-rule="evenodd" fill-opacity="1" /><path clip-path="url(#clip110)" d="M 0 0 M39.0848 242.841 L46.7237 242.841 L46.7237 216.475 L38.4135 218.142 L38.4135 213.883 L46.6774 212.216 L51.3533 212.216 L51.3533 242.841 L58.9921 242.841 L58.9921 246.776 L39.0848 246.776 L39.0848 242.841 Z" fill="#000000" fill-rule="evenodd" fill-opacity="1" /><path clip-path="url(#clip110)" d="M 0 0 M42.6728 76.337 L58.9921 76.337 L58.9921 80.2721 L37.0478 80.2721 L37.0478 76.337 Q39.7098 73.5823 44.2931 68.9527 Q48.8996 64.3 50.0801 62.9574 Q52.3255 60.4343 53.2051 58.6982 Q54.1079 56.9389 54.1079 55.2491 Q54.1079 52.4945 52.1635 50.7584 Q50.2422 49.0223 47.1403 49.0223 Q44.9413 49.0223 42.4876 49.7862 Q40.057 50.5501 37.2793 52.101 L37.2793 47.3788 Q40.1033 46.2445 42.557 45.6658 Q45.0107 45.0871 47.0477 45.0871 Q52.4181 45.0871 55.6125 47.7723 Q58.8069 50.4575 58.8069 54.9482 Q58.8069 57.0778 57.9968 58.9991 Q57.2097 60.8972 55.1033 63.4898 Q54.5246 64.1611 51.4227 67.3787 Q48.3209 70.5731 42.6728 76.337 Z" fill="#000000" fill-rule="evenodd" fill-opacity="1" /><path clip-path="url(#clip110)" d="M 0 0 M352.222 5.45367 L362.036 5.45367 L362.036 8.76384 L356.481 8.76384 L356.481 44.4118 L362.036 44.4118 L362.036 47.722 L352.222 47.722 L352.222 5.45367 Z" fill="#000000" fill-rule="evenodd" fill-opacity="1" /><path clip-path="url(#clip110)" d="M 0 0 M375.74 37.5368 L392.059 37.5368 L392.059 41.472 L370.115 41.472 L370.115 37.5368 Q372.777 34.7822 377.36 30.1526 Q381.967 25.4999 383.147 24.1573 Q385.393 21.6341 386.272 19.898 Q387.175 18.1388 387.175 16.449 Q387.175 13.6944 385.231 11.9583 Q383.309 10.2222 380.208 10.2222 Q378.008 10.2222 375.555 10.9861 Q373.124 11.7499 370.346 13.3009 L370.346 8.57866 Q373.171 7.4444 375.624 6.8657 Q378.078 6.287 380.115 6.287 Q385.485 6.287 388.68 8.97217 Q391.874 11.6573 391.874 16.1481 Q391.874 18.2777 391.064 20.199 Q390.277 22.0971 388.17 24.6897 Q387.592 25.361 384.49 28.5786 Q381.388 31.773 375.74 37.5368 Z" fill="#000000" fill-rule="evenodd" fill-opacity="1" /><path clip-path="url(#clip110)" d="M 0 0 M402.36 35.5924 L407.244 35.5924 L407.244 39.5739 L403.448 46.9812 L400.462 46.9812 L402.36 39.5739 L402.36 35.5924 Z" fill="#000000" fill-rule="evenodd" fill-opacity="1" /><path clip-path="url(#clip110)" d="M 0 0 M436.041 37.5368 L452.36 37.5368 L452.36 41.472 L430.416 41.472 L430.416 37.5368 Q433.078 34.7822 437.661 30.1526 Q442.267 25.4999 443.448 24.1573 Q445.693 21.6341 446.573 19.898 Q447.476 18.1388 447.476 16.449 Q447.476 13.6944 445.531 11.9583 Q443.61 10.2222 440.508 10.2222 Q438.309 10.2222 435.855 10.9861 Q433.425 11.7499 430.647 13.3009 L430.647 8.57866 Q433.471 7.4444 435.925 6.8657 Q438.379 6.287 440.416 6.287 Q445.786 6.287 448.98 8.97217 Q452.175 11.6573 452.175 16.1481 Q452.175 18.2777 451.365 20.199 Q450.578 22.0971 448.471 24.6897 Q447.892 25.361 444.791 28.5786 Q441.689 31.773 436.041 37.5368 Z" fill="#000000" fill-rule="evenodd" fill-opacity="1" /><path clip-path="url(#clip110)" d="M 0 0 M471.526 5.45367 L471.526 47.722 L461.712 47.722 L461.712 44.4118 L467.244 44.4118 L467.244 8.76384 L461.712 8.76384 L461.712 5.45367 L471.526 5.45367 Z" fill="#000000" fill-rule="evenodd" fill-opacity="1" /><circle clip-path="url(#clip112)" cx="667.535" cy="684.393" r="14" fill="#0000ff" fill-rule="evenodd" fill-opacity="1" stroke="none"/>
<circle clip-path="url(#clip112)" cx="624.925" cy="612.295" r="14" fill="#0000ff" fill-rule="evenodd" fill-opacity="1" stroke="none"/>
<circle clip-path="url(#clip112)" cx="710.146" cy="612.295" r="14" fill="#0000ff" fill-rule="evenodd" fill-opacity="1" stroke="none"/>
<circle clip-path="url(#clip112)" cx="156.213" cy="684.393" r="14" fill="#0000ff" fill-rule="evenodd" fill-opacity="1" stroke="none"/>
<circle clip-path="url(#clip112)" cx="113.602" cy="612.295" r="14" fill="#0000ff" fill-rule="evenodd" fill-opacity="1" stroke="none"/>
<circle clip-path="url(#clip112)" cx="198.823" cy="612.295" r="14" fill="#0000ff" fill-rule="evenodd" fill-opacity="1" stroke="none"/>
<circle clip-path="url(#clip112)" cx="326.654" cy="684.393" r="14" fill="#0000ff" fill-rule="evenodd" fill-opacity="1" stroke="none"/>
<circle clip-path="url(#clip112)" cx="284.043" cy="612.295" r="14" fill="#0000ff" fill-rule="evenodd" fill-opacity="1" stroke="none"/>
<circle clip-path="url(#clip112)" cx="369.264" cy="612.295" r="14" fill="#0000ff" fill-rule="evenodd" fill-opacity="1" stroke="none"/>
<circle clip-path="url(#clip112)" cx="497.094" cy="684.393" r="14" fill="#0000ff" fill-rule="evenodd" fill-opacity="1" stroke="none"/>
<circle clip-path="url(#clip112)" cx="454.484" cy="612.295" r="14" fill="#0000ff" fill-rule="evenodd" fill-opacity="1" stroke="none"/>
<circle clip-path="url(#clip112)" cx="539.705" cy="612.295" r="14" fill="#0000ff" fill-rule="evenodd" fill-opacity="1" stroke="none"/>
<circle clip-path="url(#clip112)" cx="411.874" cy="540.197" r="14" fill="#0000ff" fill-rule="evenodd" fill-opacity="1" stroke="none"/>
<circle clip-path="url(#clip112)" cx="369.264" cy="468.098" r="14" fill="#0000ff" fill-rule="evenodd" fill-opacity="1" stroke="none"/>
<circle clip-path="url(#clip112)" cx="454.484" cy="468.098" r="14" fill="#0000ff" fill-rule="evenodd" fill-opacity="1" stroke="none"/>
<circle clip-path="url(#clip112)" cx="582.315" cy="540.197" r="14" fill="#0000ff" fill-rule="evenodd" fill-opacity="1" stroke="none"/>
<circle clip-path="url(#clip112)" cx="539.705" cy="468.098" r="14" fill="#0000ff" fill-rule="evenodd" fill-opacity="1" stroke="none"/>
<circle clip-path="url(#clip112)" cx="624.925" cy="468.098" r="14" fill="#0000ff" fill-rule="evenodd" fill-opacity="1" stroke="none"/>
<path clip-path="url(#clip110)" d="M 0 0 M668.039 673.666 L673.768 673.666 L673.768 653.892 L667.535 655.142 L667.535 651.947 L673.733 650.697 L677.24 650.697 L677.24 673.666 L682.969 673.666 L682.969 676.617 L668.039 676.617 L668.039 673.666 Z" fill="#000000" fill-rule="evenodd" fill-opacity="1" /><path clip-path="url(#clip110)" d="M 0 0 M629.144 601.568 L641.383 601.568 L641.383 604.519 L624.925 604.519 L624.925 601.568 Q626.922 599.502 630.359 596.029 Q633.814 592.54 634.699 591.533 Q636.383 589.641 637.043 588.338 Q637.72 587.019 637.72 585.752 Q637.72 583.686 636.262 582.384 Q634.821 581.082 632.495 581.082 Q630.845 581.082 629.005 581.654 Q627.182 582.227 625.099 583.391 L625.099 579.849 Q627.217 578.998 629.057 578.564 Q630.897 578.13 632.425 578.13 Q636.453 578.13 638.849 580.144 Q641.245 582.158 641.245 585.526 Q641.245 587.123 640.637 588.564 Q640.047 589.988 638.467 591.932 Q638.033 592.436 635.706 594.849 Q633.38 597.245 629.144 601.568 Z" fill="#000000" fill-rule="evenodd" fill-opacity="1" /><path clip-path="url(#clip110)" d="M 0 0 M721.864 590.543 Q724.382 591.082 725.788 592.783 Q727.212 594.484 727.212 596.984 Q727.212 600.821 724.573 602.922 Q721.934 605.022 717.073 605.022 Q715.441 605.022 713.705 604.693 Q711.986 604.38 710.146 603.738 L710.146 600.352 Q711.604 601.203 713.34 601.637 Q715.076 602.071 716.969 602.071 Q720.267 602.071 721.986 600.769 Q723.722 599.467 723.722 596.984 Q723.722 594.693 722.107 593.408 Q720.51 592.106 717.646 592.106 L714.625 592.106 L714.625 589.224 L717.785 589.224 Q720.371 589.224 721.743 588.2 Q723.114 587.158 723.114 585.214 Q723.114 583.217 721.691 582.158 Q720.285 581.082 717.646 581.082 Q716.205 581.082 714.555 581.394 Q712.906 581.707 710.927 582.366 L710.927 579.241 Q712.923 578.686 714.66 578.408 Q716.413 578.13 717.958 578.13 Q721.951 578.13 724.278 579.953 Q726.604 581.759 726.604 584.849 Q726.604 587.002 725.371 588.495 Q724.139 589.97 721.864 590.543 Z" fill="#000000" fill-rule="evenodd" fill-opacity="1" /><path clip-path="url(#clip110)" d="M 0 0 M156.716 673.666 L162.445 673.666 L162.445 653.892 L156.213 655.142 L156.213 651.947 L162.41 650.697 L165.917 650.697 L165.917 673.666 L171.647 673.666 L171.647 676.617 L156.716 676.617 L156.716 673.666 Z" fill="#000000" fill-rule="evenodd" fill-opacity="1" /><path clip-path="url(#clip110)" d="M 0 0 M186.23 653.006 Q183.521 653.006 182.15 655.68 Q180.796 658.336 180.796 663.683 Q180.796 669.013 182.15 671.687 Q183.521 674.343 186.23 674.343 Q188.955 674.343 190.31 671.687 Q191.681 669.013 191.681 663.683 Q191.681 658.336 190.31 655.68 Q188.955 653.006 186.23 653.006 M186.23 650.229 Q190.587 650.229 192.879 653.683 Q195.188 657.121 195.188 663.683 Q195.188 670.228 192.879 673.683 Q190.587 677.121 186.23 677.121 Q181.872 677.121 179.563 673.683 Q177.272 670.228 177.272 663.683 Q177.272 657.121 179.563 653.683 Q181.872 650.229 186.23 650.229 Z" fill="#000000" fill-rule="evenodd" fill-opacity="1" /><path clip-path="url(#clip110)" d="M 0 0 M114.106 601.568 L119.835 601.568 L119.835 581.793 L113.602 583.043 L113.602 579.849 L119.8 578.599 L123.307 578.599 L123.307 601.568 L129.036 601.568 L129.036 604.519 L114.106 604.519 L114.106 601.568 Z" fill="#000000" fill-rule="evenodd" fill-opacity="1" /><path clip-path="url(#clip110)" d="M 0 0 M136.727 601.568 L142.456 601.568 L142.456 581.793 L136.224 583.043 L136.224 579.849 L142.422 578.599 L145.929 578.599 L145.929 601.568 L151.658 601.568 L151.658 604.519 L136.727 604.519 L136.727 601.568 Z" fill="#000000" fill-rule="evenodd" fill-opacity="1" /><path clip-path="url(#clip110)" d="M 0 0 M199.326 601.568 L205.055 601.568 L205.055 581.793 L198.823 583.043 L198.823 579.849 L205.021 578.599 L208.528 578.599 L208.528 601.568 L214.257 601.568 L214.257 604.519 L199.326 604.519 L199.326 601.568 Z" fill="#000000" fill-rule="evenodd" fill-opacity="1" /><path clip-path="url(#clip110)" d="M 0 0 M224.361 601.568 L236.6 601.568 L236.6 604.519 L220.142 604.519 L220.142 601.568 Q222.139 599.502 225.576 596.029 Q229.031 592.54 229.916 591.533 Q231.6 589.641 232.26 588.338 Q232.937 587.019 232.937 585.752 Q232.937 583.686 231.479 582.384 Q230.038 581.082 227.712 581.082 Q226.062 581.082 224.222 581.654 Q222.399 582.227 220.316 583.391 L220.316 579.849 Q222.434 578.998 224.274 578.564 Q226.114 578.13 227.642 578.13 Q231.67 578.13 234.066 580.144 Q236.462 582.158 236.462 585.526 Q236.462 587.123 235.854 588.564 Q235.264 589.988 233.684 591.932 Q233.25 592.436 230.923 594.849 Q228.597 597.245 224.361 601.568 Z" fill="#000000" fill-rule="evenodd" fill-opacity="1" /><path clip-path="url(#clip110)" d="M 0 0 M327.157 673.666 L332.886 673.666 L332.886 653.892 L326.654 655.142 L326.654 651.947 L332.851 650.697 L336.358 650.697 L336.358 673.666 L342.087 673.666 L342.087 676.617 L327.157 676.617 L327.157 673.666 Z" fill="#000000" fill-rule="evenodd" fill-opacity="1" /><path clip-path="url(#clip110)" d="M 0 0 M359.796 662.642 Q362.313 663.18 363.719 664.881 Q365.143 666.583 365.143 669.083 Q365.143 672.919 362.504 675.02 Q359.865 677.121 355.004 677.121 Q353.372 677.121 351.636 676.791 Q349.917 676.478 348.077 675.836 L348.077 672.451 Q349.535 673.301 351.271 673.735 Q353.008 674.169 354.9 674.169 Q358.199 674.169 359.917 672.867 Q361.653 671.565 361.653 669.083 Q361.653 666.791 360.039 665.506 Q358.442 664.204 355.577 664.204 L352.556 664.204 L352.556 661.322 L355.716 661.322 Q358.303 661.322 359.674 660.298 Q361.046 659.256 361.046 657.312 Q361.046 655.315 359.622 654.256 Q358.216 653.18 355.577 653.18 Q354.136 653.18 352.487 653.492 Q350.837 653.805 348.858 654.465 L348.858 651.34 Q350.855 650.784 352.591 650.506 Q354.344 650.229 355.889 650.229 Q359.883 650.229 362.209 652.051 Q364.535 653.857 364.535 656.947 Q364.535 659.1 363.303 660.593 Q362.07 662.069 359.796 662.642 Z" fill="#000000" fill-rule="evenodd" fill-opacity="1" /><path clip-path="url(#clip110)" d="M 0 0 M284.547 601.568 L290.276 601.568 L290.276 581.793 L284.043 583.043 L284.043 579.849 L290.241 578.599 L293.748 578.599 L293.748 601.568 L299.477 601.568 L299.477 604.519 L284.547 604.519 L284.547 601.568 Z" fill="#000000" fill-rule="evenodd" fill-opacity="1" /><path clip-path="url(#clip110)" d="M 0 0 M316.196 581.654 L307.342 595.491 L316.196 595.491 L316.196 581.654 M315.276 578.599 L319.685 578.599 L319.685 595.491 L323.383 595.491 L323.383 598.408 L319.685 598.408 L319.685 604.519 L316.196 604.519 L316.196 598.408 L304.495 598.408 L304.495 595.022 L315.276 578.599 Z" fill="#000000" fill-rule="evenodd" fill-opacity="1" /><path clip-path="url(#clip110)" d="M 0 0 M369.767 601.568 L375.496 601.568 L375.496 581.793 L369.264 583.043 L369.264 579.849 L375.462 578.599 L378.969 578.599 L378.969 601.568 L384.698 601.568 L384.698 604.519 L369.767 604.519 L369.767 601.568 Z" fill="#000000" fill-rule="evenodd" fill-opacity="1" /><path clip-path="url(#clip110)" d="M 0 0 M391.816 578.599 L405.583 578.599 L405.583 581.55 L395.028 581.55 L395.028 587.904 Q395.791 587.644 396.555 587.523 Q397.319 587.384 398.083 587.384 Q402.423 587.384 404.958 589.762 Q407.493 592.141 407.493 596.203 Q407.493 600.387 404.889 602.713 Q402.284 605.022 397.545 605.022 Q395.913 605.022 394.212 604.745 Q392.528 604.467 390.722 603.911 L390.722 600.387 Q392.284 601.238 393.951 601.654 Q395.618 602.071 397.475 602.071 Q400.479 602.071 402.232 600.491 Q403.986 598.911 403.986 596.203 Q403.986 593.495 402.232 591.915 Q400.479 590.335 397.475 590.335 Q396.069 590.335 394.663 590.648 Q393.274 590.96 391.816 591.62 L391.816 578.599 Z" fill="#000000" fill-rule="evenodd" fill-opacity="1" /><path clip-path="url(#clip110)" d="M 0 0 M497.598 673.666 L503.327 673.666 L503.327 653.892 L497.094 655.142 L497.094 651.947 L503.292 650.697 L506.799 650.697 L506.799 673.666 L512.528 673.666 L512.528 676.617 L497.598 676.617 L497.598 673.666 Z" fill="#000000" fill-rule="evenodd" fill-opacity="1" /><path clip-path="url(#clip110)" d="M 0 0 M527.546 662.26 Q525.185 662.26 523.796 663.874 Q522.424 665.489 522.424 668.301 Q522.424 671.096 523.796 672.728 Q525.185 674.343 527.546 674.343 Q529.907 674.343 531.278 672.728 Q532.667 671.096 532.667 668.301 Q532.667 665.489 531.278 663.874 Q529.907 662.26 527.546 662.26 M534.507 651.27 L534.507 654.465 Q533.188 653.84 531.834 653.51 Q530.497 653.18 529.178 653.18 Q525.705 653.18 523.865 655.524 Q522.042 657.867 521.782 662.607 Q522.806 661.097 524.351 660.298 Q525.896 659.482 527.754 659.482 Q531.66 659.482 533.917 661.86 Q536.192 664.222 536.192 668.301 Q536.192 672.294 533.83 674.708 Q531.469 677.121 527.546 677.121 Q523.049 677.121 520.671 673.683 Q518.292 670.228 518.292 663.683 Q518.292 657.538 521.209 653.892 Q524.126 650.229 529.039 650.229 Q530.358 650.229 531.695 650.489 Q533.049 650.749 534.507 651.27 Z" fill="#000000" fill-rule="evenodd" fill-opacity="1" /><path clip-path="url(#clip110)" d="M 0 0 M454.988 601.568 L460.717 601.568 L460.717 581.793 L454.484 583.043 L454.484 579.849 L460.682 578.599 L464.189 578.599 L464.189 601.568 L469.918 601.568 L469.918 604.519 L454.988 604.519 L454.988 601.568 Z" fill="#000000" fill-rule="evenodd" fill-opacity="1" /><path clip-path="url(#clip110)" d="M 0 0 M476.116 578.599 L492.783 578.599 L492.783 580.092 L483.373 604.519 L479.71 604.519 L488.564 581.55 L476.116 581.55 L476.116 578.599 Z" fill="#000000" fill-rule="evenodd" fill-opacity="1" /><path clip-path="url(#clip110)" d="M 0 0 M540.208 601.568 L545.937 601.568 L545.937 581.793 L539.705 583.043 L539.705 579.849 L545.903 578.599 L549.41 578.599 L549.41 601.568 L555.139 601.568 L555.139 604.519 L540.208 604.519 L540.208 601.568 Z" fill="#000000" fill-rule="evenodd" fill-opacity="1" /><path clip-path="url(#clip110)" d="M 0 0 M569.722 592.21 Q567.222 592.21 565.781 593.547 Q564.357 594.884 564.357 597.227 Q564.357 599.571 565.781 600.908 Q567.222 602.245 569.722 602.245 Q572.222 602.245 573.663 600.908 Q575.104 599.554 575.104 597.227 Q575.104 594.884 573.663 593.547 Q572.239 592.21 569.722 592.21 M566.215 590.717 Q563.958 590.161 562.691 588.616 Q561.441 587.071 561.441 584.849 Q561.441 581.741 563.646 579.936 Q565.868 578.13 569.722 578.13 Q573.593 578.13 575.798 579.936 Q578.003 581.741 578.003 584.849 Q578.003 587.071 576.736 588.616 Q575.486 590.161 573.246 590.717 Q575.781 591.307 577.187 593.026 Q578.611 594.745 578.611 597.227 Q578.611 600.995 576.302 603.009 Q574.01 605.022 569.722 605.022 Q565.434 605.022 563.125 603.009 Q560.833 600.995 560.833 597.227 Q560.833 594.745 562.257 593.026 Q563.68 591.307 566.215 590.717 M564.93 585.179 Q564.93 587.193 566.18 588.321 Q567.448 589.45 569.722 589.45 Q571.979 589.45 573.246 588.321 Q574.531 587.193 574.531 585.179 Q574.531 583.165 573.246 582.036 Q571.979 580.908 569.722 580.908 Q567.448 580.908 566.18 582.036 Q564.93 583.165 564.93 585.179 Z" fill="#000000" fill-rule="evenodd" fill-opacity="1" /><path clip-path="url(#clip110)" d="M 0 0 M416.093 529.469 L428.332 529.469 L428.332 532.421 L411.874 532.421 L411.874 529.469 Q413.871 527.403 417.308 523.931 Q420.763 520.442 421.648 519.435 Q423.332 517.542 423.992 516.24 Q424.669 514.921 424.669 513.653 Q424.669 511.587 423.211 510.285 Q421.77 508.983 419.443 508.983 Q417.794 508.983 415.954 509.556 Q414.131 510.129 412.048 511.292 L412.048 507.751 Q414.166 506.9 416.006 506.466 Q417.846 506.032 419.374 506.032 Q423.402 506.032 425.798 508.046 Q428.193 510.06 428.193 513.428 Q428.193 515.025 427.586 516.466 Q426.995 517.889 425.416 519.834 Q424.982 520.337 422.655 522.751 Q420.329 525.146 416.093 529.469 Z" fill="#000000" fill-rule="evenodd" fill-opacity="1" /><path clip-path="url(#clip110)" d="M 0 0 M443.193 520.112 Q440.693 520.112 439.252 521.448 Q437.829 522.785 437.829 525.129 Q437.829 527.473 439.252 528.81 Q440.693 530.146 443.193 530.146 Q445.693 530.146 447.134 528.81 Q448.575 527.455 448.575 525.129 Q448.575 522.785 447.134 521.448 Q445.711 520.112 443.193 520.112 M439.686 518.619 Q437.429 518.063 436.162 516.518 Q434.912 514.973 434.912 512.751 Q434.912 509.643 437.117 507.837 Q439.339 506.032 443.193 506.032 Q447.065 506.032 449.27 507.837 Q451.474 509.643 451.474 512.751 Q451.474 514.973 450.207 516.518 Q448.957 518.063 446.718 518.619 Q449.252 519.209 450.659 520.928 Q452.082 522.646 452.082 525.129 Q452.082 528.896 449.773 530.91 Q447.481 532.924 443.193 532.924 Q438.905 532.924 436.596 530.91 Q434.304 528.896 434.304 525.129 Q434.304 522.646 435.728 520.928 Q437.152 519.209 439.686 518.619 M438.402 513.08 Q438.402 515.094 439.652 516.223 Q440.919 517.351 443.193 517.351 Q445.45 517.351 446.718 516.223 Q448.002 515.094 448.002 513.08 Q448.002 511.067 446.718 509.938 Q445.45 508.81 443.193 508.81 Q440.919 508.81 439.652 509.938 Q438.402 511.067 438.402 513.08 Z" fill="#000000" fill-rule="evenodd" fill-opacity="1" /><path clip-path="url(#clip110)" d="M 0 0 M373.483 457.371 L385.722 457.371 L385.722 460.322 L369.264 460.322 L369.264 457.371 Q371.26 455.305 374.698 451.833 Q378.153 448.343 379.038 447.336 Q380.722 445.444 381.382 444.142 Q382.059 442.822 382.059 441.555 Q382.059 439.489 380.601 438.187 Q379.16 436.885 376.833 436.885 Q375.184 436.885 373.344 437.458 Q371.521 438.031 369.437 439.194 L369.437 435.652 Q371.555 434.802 373.396 434.368 Q375.236 433.934 376.764 433.934 Q380.791 433.934 383.187 435.947 Q385.583 437.961 385.583 441.329 Q385.583 442.927 384.976 444.368 Q384.385 445.791 382.805 447.736 Q382.371 448.239 380.045 450.652 Q377.719 453.048 373.483 457.371 Z" fill="#000000" fill-rule="evenodd" fill-opacity="1" /><path clip-path="url(#clip110)" d="M 0 0 M393.187 459.784 L393.187 456.59 Q394.507 457.215 395.861 457.545 Q397.215 457.874 398.517 457.874 Q401.989 457.874 403.812 455.548 Q405.652 453.204 405.913 448.447 Q404.906 449.94 403.361 450.739 Q401.816 451.538 399.941 451.538 Q396.052 451.538 393.778 449.194 Q391.521 446.833 391.521 442.753 Q391.521 438.76 393.882 436.347 Q396.243 433.934 400.166 433.934 Q404.663 433.934 407.024 437.388 Q409.402 440.826 409.402 447.388 Q409.402 453.517 406.486 457.18 Q403.587 460.826 398.673 460.826 Q397.354 460.826 396 460.565 Q394.646 460.305 393.187 459.784 M400.166 448.795 Q402.527 448.795 403.899 447.18 Q405.288 445.565 405.288 442.753 Q405.288 439.958 403.899 438.343 Q402.527 436.711 400.166 436.711 Q397.805 436.711 396.416 438.343 Q395.045 439.958 395.045 442.753 Q395.045 445.565 396.416 447.18 Q397.805 448.795 400.166 448.795 Z" fill="#000000" fill-rule="evenodd" fill-opacity="1" /><path clip-path="url(#clip110)" d="M 0 0 M466.203 446.347 Q468.72 446.885 470.127 448.586 Q471.55 450.288 471.55 452.788 Q471.55 456.624 468.911 458.725 Q466.272 460.826 461.411 460.826 Q459.779 460.826 458.043 460.496 Q456.325 460.183 454.484 459.541 L454.484 456.156 Q455.943 457.006 457.679 457.44 Q459.415 457.874 461.307 457.874 Q464.606 457.874 466.324 456.572 Q468.061 455.27 468.061 452.788 Q468.061 450.496 466.446 449.211 Q464.849 447.909 461.984 447.909 L458.963 447.909 L458.963 445.027 L462.123 445.027 Q464.71 445.027 466.081 444.003 Q467.453 442.961 467.453 441.017 Q467.453 439.02 466.029 437.961 Q464.623 436.885 461.984 436.885 Q460.543 436.885 458.894 437.197 Q457.245 437.51 455.265 438.17 L455.265 435.045 Q457.262 434.489 458.998 434.211 Q460.752 433.934 462.297 433.934 Q466.29 433.934 468.616 435.756 Q470.942 437.562 470.942 440.652 Q470.942 442.805 469.71 444.298 Q468.477 445.774 466.203 446.347 Z" fill="#000000" fill-rule="evenodd" fill-opacity="1" /><path clip-path="url(#clip110)" d="M 0 0 M485.699 436.711 Q482.991 436.711 481.62 439.385 Q480.265 442.041 480.265 447.388 Q480.265 452.718 481.62 455.392 Q482.991 458.048 485.699 458.048 Q488.425 458.048 489.779 455.392 Q491.151 452.718 491.151 447.388 Q491.151 442.041 489.779 439.385 Q488.425 436.711 485.699 436.711 M485.699 433.934 Q490.057 433.934 492.349 437.388 Q494.658 440.826 494.658 447.388 Q494.658 453.933 492.349 457.388 Q490.057 460.826 485.699 460.826 Q481.342 460.826 479.033 457.388 Q476.741 453.933 476.741 447.388 Q476.741 440.826 479.033 437.388 Q481.342 433.934 485.699 433.934 Z" fill="#000000" fill-rule="evenodd" fill-opacity="1" /><path clip-path="url(#clip110)" d="M 0 0 M594.034 518.445 Q596.551 518.983 597.957 520.685 Q599.381 522.386 599.381 524.886 Q599.381 528.723 596.742 530.823 Q594.103 532.924 589.242 532.924 Q587.61 532.924 585.874 532.594 Q584.155 532.282 582.315 531.639 L582.315 528.254 Q583.773 529.105 585.509 529.539 Q587.245 529.973 589.138 529.973 Q592.436 529.973 594.155 528.671 Q595.891 527.369 595.891 524.886 Q595.891 522.594 594.277 521.31 Q592.679 520.008 589.815 520.008 L586.794 520.008 L586.794 517.126 L589.954 517.126 Q592.541 517.126 593.912 516.101 Q595.284 515.06 595.284 513.115 Q595.284 511.119 593.86 510.06 Q592.454 508.983 589.815 508.983 Q588.374 508.983 586.725 509.296 Q585.075 509.608 583.096 510.268 L583.096 507.143 Q585.093 506.587 586.829 506.31 Q588.582 506.032 590.127 506.032 Q594.12 506.032 596.447 507.855 Q598.773 509.66 598.773 512.751 Q598.773 514.903 597.541 516.396 Q596.308 517.872 594.034 518.445 Z" fill="#000000" fill-rule="evenodd" fill-opacity="1" /><path clip-path="url(#clip110)" d="M 0 0 M606.638 529.469 L612.367 529.469 L612.367 509.695 L606.134 510.945 L606.134 507.751 L612.332 506.501 L615.839 506.501 L615.839 529.469 L621.568 529.469 L621.568 532.421 L606.638 532.421 L606.638 529.469 Z" fill="#000000" fill-rule="evenodd" fill-opacity="1" /><path clip-path="url(#clip110)" d="M 0 0 M551.423 446.347 Q553.941 446.885 555.347 448.586 Q556.771 450.288 556.771 452.788 Q556.771 456.624 554.132 458.725 Q551.493 460.826 546.632 460.826 Q545 460.826 543.264 460.496 Q541.545 460.183 539.705 459.541 L539.705 456.156 Q541.163 457.006 542.899 457.44 Q544.635 457.874 546.528 457.874 Q549.826 457.874 551.545 456.572 Q553.281 455.27 553.281 452.788 Q553.281 450.496 551.666 449.211 Q550.069 447.909 547.205 447.909 L544.184 447.909 L544.184 445.027 L547.344 445.027 Q549.93 445.027 551.302 444.003 Q552.673 442.961 552.673 441.017 Q552.673 439.02 551.25 437.961 Q549.844 436.885 547.205 436.885 Q545.764 436.885 544.114 437.197 Q542.465 437.51 540.486 438.17 L540.486 435.045 Q542.482 434.489 544.219 434.211 Q545.972 433.934 547.517 433.934 Q551.51 433.934 553.837 435.756 Q556.163 437.562 556.163 440.652 Q556.163 442.805 554.93 444.298 Q553.698 445.774 551.423 446.347 Z" fill="#000000" fill-rule="evenodd" fill-opacity="1" /><path clip-path="url(#clip110)" d="M 0 0 M566.441 457.371 L578.68 457.371 L578.68 460.322 L562.222 460.322 L562.222 457.371 Q564.218 455.305 567.656 451.833 Q571.111 448.343 571.996 447.336 Q573.68 445.444 574.34 444.142 Q575.017 442.822 575.017 441.555 Q575.017 439.489 573.559 438.187 Q572.118 436.885 569.791 436.885 Q568.142 436.885 566.302 437.458 Q564.479 438.031 562.396 439.194 L562.396 435.652 Q564.514 434.802 566.354 434.368 Q568.194 433.934 569.722 433.934 Q573.75 433.934 576.146 435.947 Q578.541 437.961 578.541 441.329 Q578.541 442.927 577.934 444.368 Q577.343 445.791 575.764 447.736 Q575.33 448.239 573.003 450.652 Q570.677 453.048 566.441 457.371 Z" fill="#000000" fill-rule="evenodd" fill-opacity="1" /><path clip-path="url(#clip110)" d="M 0 0 M636.644 446.347 Q639.161 446.885 640.567 448.586 Q641.991 450.288 641.991 452.788 Q641.991 456.624 639.352 458.725 Q636.713 460.826 631.852 460.826 Q630.22 460.826 628.484 460.496 Q626.765 460.183 624.925 459.541 L624.925 456.156 Q626.384 457.006 628.12 457.44 Q629.856 457.874 631.748 457.874 Q635.047 457.874 636.765 456.572 Q638.502 455.27 638.502 452.788 Q638.502 450.496 636.887 449.211 Q635.29 447.909 632.425 447.909 L629.404 447.909 L629.404 445.027 L632.564 445.027 Q635.151 445.027 636.522 444.003 Q637.894 442.961 637.894 441.017 Q637.894 439.02 636.47 437.961 Q635.064 436.885 632.425 436.885 Q630.984 436.885 629.335 437.197 Q627.686 437.51 625.706 438.17 L625.706 435.045 Q627.703 434.489 629.439 434.211 Q631.193 433.934 632.738 433.934 Q636.731 433.934 639.057 435.756 Q641.383 437.562 641.383 440.652 Q641.383 442.805 640.151 444.298 Q638.918 445.774 636.644 446.347 Z" fill="#000000" fill-rule="evenodd" fill-opacity="1" /><path clip-path="url(#clip110)" d="M 0 0 M659.265 446.347 Q661.783 446.885 663.189 448.586 Q664.612 450.288 664.612 452.788 Q664.612 456.624 661.974 458.725 Q659.335 460.826 654.474 460.826 Q652.842 460.826 651.106 460.496 Q649.387 460.183 647.547 459.541 L647.547 456.156 Q649.005 457.006 650.741 457.44 Q652.477 457.874 654.369 457.874 Q657.668 457.874 659.387 456.572 Q661.123 455.27 661.123 452.788 Q661.123 450.496 659.508 449.211 Q657.911 447.909 655.047 447.909 L652.026 447.909 L652.026 445.027 L655.185 445.027 Q657.772 445.027 659.144 444.003 Q660.515 442.961 660.515 441.017 Q660.515 439.02 659.092 437.961 Q657.685 436.885 655.047 436.885 Q653.606 436.885 651.956 437.197 Q650.307 437.51 648.328 438.17 L648.328 435.045 Q650.324 434.489 652.06 434.211 Q653.814 433.934 655.359 433.934 Q659.352 433.934 661.678 435.756 Q664.005 437.562 664.005 440.652 Q664.005 442.805 662.772 444.298 Q661.54 445.774 659.265 446.347 Z" fill="#000000" fill-rule="evenodd" fill-opacity="1" /><circle clip-path="url(#clip112)" cx="156.213" cy="396" r="14" fill="#0000ff" fill-rule="evenodd" fill-opacity="1" stroke="none"/>
<circle clip-path="url(#clip112)" cx="113.602" cy="323.902" r="14" fill="#0000ff" fill-rule="evenodd" fill-opacity="1" stroke="none"/>
<circle clip-path="url(#clip112)" cx="198.823" cy="323.902" r="14" fill="#0000ff" fill-rule="evenodd" fill-opacity="1" stroke="none"/>
<circle clip-path="url(#clip112)" cx="326.654" cy="396" r="14" fill="#0000ff" fill-rule="evenodd" fill-opacity="1" stroke="none"/>
<circle clip-path="url(#clip112)" cx="284.043" cy="323.902" r="14" fill="#0000ff" fill-rule="evenodd" fill-opacity="1" stroke="none"/>
<circle clip-path="url(#clip112)" cx="369.264" cy="323.902" r="14" fill="#0000ff" fill-rule="evenodd" fill-opacity="1" stroke="none"/>
<circle clip-path="url(#clip112)" cx="113.602" cy="468.098" r="14" fill="#0000ff" fill-rule="evenodd" fill-opacity="1" stroke="none"/>
<circle clip-path="url(#clip112)" cx="241.433" cy="540.197" r="14" fill="#0000ff" fill-rule="evenodd" fill-opacity="1" stroke="none"/>
<circle clip-path="url(#clip112)" cx="198.823" cy="468.098" r="14" fill="#0000ff" fill-rule="evenodd" fill-opacity="1" stroke="none"/>
<circle clip-path="url(#clip112)" cx="284.043" cy="468.098" r="14" fill="#0000ff" fill-rule="evenodd" fill-opacity="1" stroke="none"/>
<circle clip-path="url(#clip112)" cx="113.602" cy="179.705" r="14" fill="#0000ff" fill-rule="evenodd" fill-opacity="1" stroke="none"/>
<path clip-path="url(#clip110)" d="M 0 0 M156.716 385.273 L162.445 385.273 L162.445 365.498 L156.213 366.748 L156.213 363.554 L162.41 362.304 L165.917 362.304 L165.917 385.273 L171.647 385.273 L171.647 388.224 L156.716 388.224 L156.716 385.273 Z" fill="#000000" fill-rule="evenodd" fill-opacity="1" /><path clip-path="url(#clip110)" d="M 0 0 M117.821 313.174 L130.061 313.174 L130.061 316.126 L113.602 316.126 L113.602 313.174 Q115.599 311.108 119.036 307.636 Q122.491 304.147 123.377 303.14 Q125.061 301.247 125.72 299.945 Q126.397 298.626 126.397 297.358 Q126.397 295.292 124.939 293.99 Q123.498 292.688 121.172 292.688 Q119.522 292.688 117.682 293.261 Q115.859 293.834 113.776 294.997 L113.776 291.456 Q115.894 290.605 117.734 290.171 Q119.575 289.737 121.102 289.737 Q125.13 289.737 127.526 291.751 Q129.922 293.765 129.922 297.133 Q129.922 298.73 129.314 300.171 Q128.724 301.595 127.144 303.539 Q126.71 304.042 124.384 306.456 Q122.057 308.851 117.821 313.174 Z" fill="#000000" fill-rule="evenodd" fill-opacity="1" /><path clip-path="url(#clip110)" d="M 0 0 M210.542 302.15 Q213.059 302.688 214.465 304.39 Q215.889 306.091 215.889 308.591 Q215.889 312.428 213.25 314.528 Q210.611 316.629 205.75 316.629 Q204.118 316.629 202.382 316.299 Q200.663 315.987 198.823 315.344 L198.823 311.959 Q200.281 312.81 202.017 313.244 Q203.753 313.678 205.646 313.678 Q208.944 313.678 210.663 312.376 Q212.399 311.074 212.399 308.591 Q212.399 306.299 210.785 305.015 Q209.187 303.713 206.323 303.713 L203.302 303.713 L203.302 300.831 L206.462 300.831 Q209.048 300.831 210.42 299.806 Q211.792 298.765 211.792 296.82 Q211.792 294.824 210.368 293.765 Q208.962 292.688 206.323 292.688 Q204.882 292.688 203.233 293.001 Q201.583 293.313 199.604 293.973 L199.604 290.848 Q201.601 290.292 203.337 290.015 Q205.09 289.737 206.635 289.737 Q210.628 289.737 212.955 291.56 Q215.281 293.365 215.281 296.456 Q215.281 298.608 214.048 300.101 Q212.816 301.577 210.542 302.15 Z" fill="#000000" fill-rule="evenodd" fill-opacity="1" /><path clip-path="url(#clip110)" d="M 0 0 M338.355 365.36 L329.501 379.196 L338.355 379.196 L338.355 365.36 M337.435 362.304 L341.844 362.304 L341.844 379.196 L345.542 379.196 L345.542 382.113 L341.844 382.113 L341.844 388.224 L338.355 388.224 L338.355 382.113 L326.654 382.113 L326.654 378.728 L337.435 362.304 Z" fill="#000000" fill-rule="evenodd" fill-opacity="1" /><path clip-path="url(#clip110)" d="M 0 0 M285.137 290.206 L298.904 290.206 L298.904 293.157 L288.349 293.157 L288.349 299.511 Q289.113 299.251 289.877 299.129 Q290.64 298.99 291.404 298.99 Q295.745 298.99 298.279 301.369 Q300.814 303.747 300.814 307.81 Q300.814 311.994 298.21 314.32 Q295.606 316.629 290.866 316.629 Q289.234 316.629 287.533 316.351 Q285.849 316.074 284.043 315.518 L284.043 311.994 Q285.606 312.844 287.272 313.261 Q288.939 313.678 290.797 313.678 Q293.8 313.678 295.554 312.098 Q297.307 310.518 297.307 307.81 Q297.307 305.101 295.554 303.522 Q293.8 301.942 290.797 301.942 Q289.391 301.942 287.984 302.254 Q286.595 302.567 285.137 303.226 L285.137 290.206 Z" fill="#000000" fill-rule="evenodd" fill-opacity="1" /><path clip-path="url(#clip110)" d="M 0 0 M378.517 301.768 Q376.156 301.768 374.767 303.383 Q373.396 304.997 373.396 307.81 Q373.396 310.605 374.767 312.237 Q376.156 313.851 378.517 313.851 Q380.878 313.851 382.25 312.237 Q383.639 310.605 383.639 307.81 Q383.639 304.997 382.25 303.383 Q380.878 301.768 378.517 301.768 M385.479 290.779 L385.479 293.973 Q384.16 293.348 382.805 293.018 Q381.469 292.688 380.149 292.688 Q376.677 292.688 374.837 295.032 Q373.014 297.376 372.753 302.115 Q373.778 300.605 375.323 299.806 Q376.868 298.99 378.726 298.99 Q382.632 298.99 384.889 301.369 Q387.163 303.73 387.163 307.81 Q387.163 311.803 384.802 314.216 Q382.441 316.629 378.517 316.629 Q374.021 316.629 371.642 313.192 Q369.264 309.737 369.264 303.192 Q369.264 297.046 372.18 293.4 Q375.097 289.737 380.01 289.737 Q381.33 289.737 382.666 289.997 Q384.021 290.258 385.479 290.779 Z" fill="#000000" fill-rule="evenodd" fill-opacity="1" /><path clip-path="url(#clip110)" d="M 0 0 M75.2109 529.469 L87.4504 529.469 L87.4504 532.421 L70.9921 532.421 L70.9921 529.469 Q72.9886 527.403 76.4261 523.931 Q79.881 520.442 80.7664 519.435 Q82.4504 517.542 83.1101 516.24 Q83.7872 514.921 83.7872 513.653 Q83.7872 511.587 82.3289 510.285 Q80.8879 508.983 78.5615 508.983 Q76.9122 508.983 75.072 509.556 Q73.2491 510.129 71.1657 511.292 L71.1657 507.751 Q73.2838 506.9 75.124 506.466 Q76.9643 506.032 78.4921 506.032 Q82.5198 506.032 84.9157 508.046 Q87.3115 510.06 87.3115 513.428 Q87.3115 515.025 86.7038 516.466 Q86.1136 517.889 84.5337 519.834 Q84.0997 520.337 81.7733 522.751 Q79.4469 525.146 75.2109 529.469 Z" fill="#000000" fill-rule="evenodd" fill-opacity="1" /><path clip-path="url(#clip110)" d="M 0 0 M97.8323 529.469 L110.072 529.469 L110.072 532.421 L93.6135 532.421 L93.6135 529.469 Q95.61 527.403 99.0475 523.931 Q102.502 520.442 103.388 519.435 Q105.072 517.542 105.732 516.24 Q106.409 514.921 106.409 513.653 Q106.409 511.587 104.95 510.285 Q103.509 508.983 101.183 508.983 Q99.5336 508.983 97.6934 509.556 Q95.8705 510.129 93.7871 511.292 L93.7871 507.751 Q95.9052 506.9 97.7455 506.466 Q99.5857 506.032 101.113 506.032 Q105.141 506.032 107.537 508.046 Q109.933 510.06 109.933 513.428 Q109.933 515.025 109.325 516.466 Q108.735 517.889 107.155 519.834 Q106.721 520.337 104.395 522.751 Q102.068 525.146 97.8323 529.469 Z" fill="#000000" fill-rule="evenodd" fill-opacity="1" /><path clip-path="url(#clip110)" d="M 0 0 M117.821 457.371 L130.061 457.371 L130.061 460.322 L113.602 460.322 L113.602 457.371 Q115.599 455.305 119.036 451.833 Q122.491 448.343 123.377 447.336 Q125.061 445.444 125.72 444.142 Q126.397 442.822 126.397 441.555 Q126.397 439.489 124.939 438.187 Q123.498 436.885 121.172 436.885 Q119.522 436.885 117.682 437.458 Q115.859 438.031 113.776 439.194 L113.776 435.652 Q115.894 434.802 117.734 434.368 Q119.575 433.934 121.102 433.934 Q125.13 433.934 127.526 435.947 Q129.922 437.961 129.922 441.329 Q129.922 442.927 129.314 444.368 Q128.724 445.791 127.144 447.736 Q126.71 448.239 124.384 450.652 Q122.057 453.048 117.821 457.371 Z" fill="#000000" fill-rule="evenodd" fill-opacity="1" /><path clip-path="url(#clip110)" d="M 0 0 M147.057 437.458 L138.203 451.295 L147.057 451.295 L147.057 437.458 M146.137 434.402 L150.547 434.402 L150.547 451.295 L154.245 451.295 L154.245 454.211 L150.547 454.211 L150.547 460.322 L147.057 460.322 L147.057 454.211 L135.356 454.211 L135.356 450.826 L146.137 434.402 Z" fill="#000000" fill-rule="evenodd" fill-opacity="1" /><path clip-path="url(#clip110)" d="M 0 0 M245.652 529.469 L257.891 529.469 L257.891 532.421 L241.433 532.421 L241.433 529.469 Q243.43 527.403 246.867 523.931 Q250.322 520.442 251.207 519.435 Q252.891 517.542 253.551 516.24 Q254.228 514.921 254.228 513.653 Q254.228 511.587 252.77 510.285 Q251.329 508.983 249.002 508.983 Q247.353 508.983 245.513 509.556 Q243.69 510.129 241.607 511.292 L241.607 507.751 Q243.725 506.9 245.565 506.466 Q247.405 506.032 248.933 506.032 Q252.961 506.032 255.357 508.046 Q257.752 510.06 257.752 513.428 Q257.752 515.025 257.145 516.466 Q256.555 517.889 254.975 519.834 Q254.541 520.337 252.214 522.751 Q249.888 525.146 245.652 529.469 Z" fill="#000000" fill-rule="evenodd" fill-opacity="1" /><path clip-path="url(#clip110)" d="M 0 0 M265.287 506.501 L279.054 506.501 L279.054 509.452 L268.499 509.452 L268.499 515.806 Q269.263 515.546 270.027 515.424 Q270.791 515.285 271.554 515.285 Q275.895 515.285 278.429 517.664 Q280.964 520.042 280.964 524.105 Q280.964 528.289 278.36 530.615 Q275.756 532.924 271.016 532.924 Q269.384 532.924 267.683 532.646 Q265.999 532.369 264.193 531.813 L264.193 528.289 Q265.756 529.139 267.423 529.556 Q269.089 529.973 270.947 529.973 Q273.95 529.973 275.704 528.393 Q277.457 526.813 277.457 524.105 Q277.457 521.396 275.704 519.817 Q273.95 518.237 270.947 518.237 Q269.541 518.237 268.134 518.549 Q266.745 518.862 265.287 519.521 L265.287 506.501 Z" fill="#000000" fill-rule="evenodd" fill-opacity="1" /><path clip-path="url(#clip110)" d="M 0 0 M203.042 457.371 L215.281 457.371 L215.281 460.322 L198.823 460.322 L198.823 457.371 Q200.819 455.305 204.257 451.833 Q207.712 448.343 208.597 447.336 Q210.281 445.444 210.941 444.142 Q211.618 442.822 211.618 441.555 Q211.618 439.489 210.16 438.187 Q208.719 436.885 206.392 436.885 Q204.743 436.885 202.903 437.458 Q201.08 438.031 198.996 439.194 L198.996 435.652 Q201.114 434.802 202.955 434.368 Q204.795 433.934 206.323 433.934 Q210.351 433.934 212.746 435.947 Q215.142 437.961 215.142 441.329 Q215.142 442.927 214.535 444.368 Q213.944 445.791 212.364 447.736 Q211.93 448.239 209.604 450.652 Q207.278 453.048 203.042 457.371 Z" fill="#000000" fill-rule="evenodd" fill-opacity="1" /><path clip-path="url(#clip110)" d="M 0 0 M230.576 445.965 Q228.215 445.965 226.826 447.579 Q225.455 449.194 225.455 452.006 Q225.455 454.802 226.826 456.433 Q228.215 458.048 230.576 458.048 Q232.937 458.048 234.309 456.433 Q235.698 454.802 235.698 452.006 Q235.698 449.194 234.309 447.579 Q232.937 445.965 230.576 445.965 M237.538 434.975 L237.538 438.17 Q236.218 437.545 234.864 437.215 Q233.528 436.885 232.208 436.885 Q228.736 436.885 226.896 439.229 Q225.073 441.572 224.812 446.312 Q225.837 444.802 227.382 444.003 Q228.927 443.187 230.784 443.187 Q234.691 443.187 236.948 445.565 Q239.222 447.927 239.222 452.006 Q239.222 455.999 236.861 458.413 Q234.5 460.826 230.576 460.826 Q226.08 460.826 223.701 457.388 Q221.323 453.933 221.323 447.388 Q221.323 441.243 224.239 437.597 Q227.156 433.934 232.069 433.934 Q233.389 433.934 234.725 434.194 Q236.08 434.454 237.538 434.975 Z" fill="#000000" fill-rule="evenodd" fill-opacity="1" /><path clip-path="url(#clip110)" d="M 0 0 M288.262 457.371 L300.502 457.371 L300.502 460.322 L284.043 460.322 L284.043 457.371 Q286.04 455.305 289.477 451.833 Q292.932 448.343 293.818 447.336 Q295.502 445.444 296.161 444.142 Q296.838 442.822 296.838 441.555 Q296.838 439.489 295.38 438.187 Q293.939 436.885 291.613 436.885 Q289.963 436.885 288.123 437.458 Q286.3 438.031 284.217 439.194 L284.217 435.652 Q286.335 434.802 288.175 434.368 Q290.015 433.934 291.543 433.934 Q295.571 433.934 297.967 435.947 Q300.363 437.961 300.363 441.329 Q300.363 442.927 299.755 444.368 Q299.165 445.791 297.585 447.736 Q297.151 448.239 294.824 450.652 Q292.498 453.048 288.262 457.371 Z" fill="#000000" fill-rule="evenodd" fill-opacity="1" /><path clip-path="url(#clip110)" d="M 0 0 M306.977 434.402 L323.644 434.402 L323.644 435.895 L314.234 460.322 L310.571 460.322 L319.425 437.354 L306.977 437.354 L306.977 434.402 Z" fill="#000000" fill-rule="evenodd" fill-opacity="1" /><path clip-path="url(#clip110)" d="M 0 0 M125.321 157.953 Q127.838 158.492 129.245 160.193 Q130.668 161.894 130.668 164.394 Q130.668 168.231 128.029 170.332 Q125.39 172.433 120.529 172.433 Q118.897 172.433 117.161 172.103 Q115.443 171.79 113.602 171.148 L113.602 167.762 Q115.061 168.613 116.797 169.047 Q118.533 169.481 120.425 169.481 Q123.724 169.481 125.443 168.179 Q127.179 166.877 127.179 164.394 Q127.179 162.103 125.564 160.818 Q123.967 159.516 121.102 159.516 L118.082 159.516 L118.082 156.634 L121.241 156.634 Q123.828 156.634 125.2 155.61 Q126.571 154.568 126.571 152.624 Q126.571 150.627 125.147 149.568 Q123.741 148.492 121.102 148.492 Q119.661 148.492 118.012 148.804 Q116.363 149.117 114.384 149.776 L114.384 146.651 Q116.38 146.096 118.116 145.818 Q119.87 145.54 121.415 145.54 Q125.408 145.54 127.734 147.363 Q130.061 149.169 130.061 152.259 Q130.061 154.412 128.828 155.905 Q127.595 157.381 125.321 157.953 Z" fill="#000000" fill-rule="evenodd" fill-opacity="1" /><path clip-path="url(#clip110)" d="M 0 0 M147.942 157.953 Q150.46 158.492 151.866 160.193 Q153.29 161.894 153.29 164.394 Q153.29 168.231 150.651 170.332 Q148.012 172.433 143.151 172.433 Q141.519 172.433 139.783 172.103 Q138.064 171.79 136.224 171.148 L136.224 167.762 Q137.682 168.613 139.418 169.047 Q141.154 169.481 143.047 169.481 Q146.345 169.481 148.064 168.179 Q149.8 166.877 149.8 164.394 Q149.8 162.103 148.186 160.818 Q146.588 159.516 143.724 159.516 L140.703 159.516 L140.703 156.634 L143.863 156.634 Q146.449 156.634 147.821 155.61 Q149.192 154.568 149.192 152.624 Q149.192 150.627 147.769 149.568 Q146.363 148.492 143.724 148.492 Q142.283 148.492 140.633 148.804 Q138.984 149.117 137.005 149.776 L137.005 146.651 Q139.002 146.096 140.738 145.818 Q142.491 145.54 144.036 145.54 Q148.029 145.54 150.356 147.363 Q152.682 149.169 152.682 152.259 Q152.682 154.412 151.449 155.905 Q150.217 157.381 147.942 157.953 Z" fill="#000000" fill-rule="evenodd" fill-opacity="1" /><circle clip-path="url(#clip112)" cx="667.535" cy="396" r="14" fill="#0000ff" fill-rule="evenodd" fill-opacity="1" stroke="none"/>
<circle clip-path="url(#clip112)" cx="624.925" cy="323.902" r="14" fill="#0000ff" fill-rule="evenodd" fill-opacity="1" stroke="none"/>
<circle clip-path="url(#clip112)" cx="710.146" cy="323.902" r="14" fill="#0000ff" fill-rule="evenodd" fill-opacity="1" stroke="none"/>
<circle clip-path="url(#clip112)" cx="752.756" cy="540.197" r="14" fill="#0000ff" fill-rule="evenodd" fill-opacity="1" stroke="none"/>
<circle clip-path="url(#clip112)" cx="710.146" cy="468.098" r="14" fill="#0000ff" fill-rule="evenodd" fill-opacity="1" stroke="none"/>
<path clip-path="url(#clip110)" d="M 0 0 M668.039 385.273 L673.768 385.273 L673.768 365.498 L667.535 366.748 L667.535 363.554 L673.733 362.304 L677.24 362.304 L677.24 385.273 L682.969 385.273 L682.969 388.224 L668.039 388.224 L668.039 385.273 Z" fill="#000000" fill-rule="evenodd" fill-opacity="1" /><path clip-path="url(#clip110)" d="M 0 0 M697.553 364.613 Q694.844 364.613 693.473 367.287 Q692.119 369.943 692.119 375.29 Q692.119 380.62 693.473 383.293 Q694.844 385.95 697.553 385.95 Q700.278 385.95 701.632 383.293 Q703.004 380.62 703.004 375.29 Q703.004 369.943 701.632 367.287 Q700.278 364.613 697.553 364.613 M697.553 361.835 Q701.91 361.835 704.202 365.29 Q706.511 368.728 706.511 375.29 Q706.511 381.835 704.202 385.29 Q701.91 388.727 697.553 388.727 Q693.195 388.727 690.886 385.29 Q688.594 381.835 688.594 375.29 Q688.594 368.728 690.886 365.29 Q693.195 361.835 697.553 361.835 Z" fill="#000000" fill-rule="evenodd" fill-opacity="1" /><path clip-path="url(#clip110)" d="M 0 0 M625.429 313.174 L631.158 313.174 L631.158 293.4 L624.925 294.65 L624.925 291.456 L631.123 290.206 L634.63 290.206 L634.63 313.174 L640.359 313.174 L640.359 316.126 L625.429 316.126 L625.429 313.174 Z" fill="#000000" fill-rule="evenodd" fill-opacity="1" /><path clip-path="url(#clip110)" d="M 0 0 M648.05 313.174 L653.779 313.174 L653.779 293.4 L647.547 294.65 L647.547 291.456 L653.744 290.206 L657.251 290.206 L657.251 313.174 L662.981 313.174 L662.981 316.126 L648.05 316.126 L648.05 313.174 Z" fill="#000000" fill-rule="evenodd" fill-opacity="1" /><path clip-path="url(#clip110)" d="M 0 0 M710.649 313.174 L716.378 313.174 L716.378 293.4 L710.146 294.65 L710.146 291.456 L716.344 290.206 L719.85 290.206 L719.85 313.174 L725.58 313.174 L725.58 316.126 L710.649 316.126 L710.649 313.174 Z" fill="#000000" fill-rule="evenodd" fill-opacity="1" /><path clip-path="url(#clip110)" d="M 0 0 M735.684 313.174 L747.923 313.174 L747.923 316.126 L731.465 316.126 L731.465 313.174 Q733.462 311.108 736.899 307.636 Q740.354 304.147 741.239 303.14 Q742.923 301.247 743.583 299.945 Q744.26 298.626 744.26 297.358 Q744.26 295.292 742.802 293.99 Q741.361 292.688 739.034 292.688 Q737.385 292.688 735.545 293.261 Q733.722 293.834 731.639 294.997 L731.639 291.456 Q733.757 290.605 735.597 290.171 Q737.437 289.737 738.965 289.737 Q742.993 289.737 745.389 291.751 Q747.784 293.765 747.784 297.133 Q747.784 298.73 747.177 300.171 Q746.586 301.595 745.007 303.539 Q744.573 304.042 742.246 306.456 Q739.92 308.851 735.684 313.174 Z" fill="#000000" fill-rule="evenodd" fill-opacity="1" /><path clip-path="url(#clip110)" d="M 0 0 M764.475 518.445 Q766.992 518.983 768.398 520.685 Q769.822 522.386 769.822 524.886 Q769.822 528.723 767.183 530.823 Q764.544 532.924 759.683 532.924 Q758.051 532.924 756.315 532.594 Q754.596 532.282 752.756 531.639 L752.756 528.254 Q754.214 529.105 755.95 529.539 Q757.686 529.973 759.579 529.973 Q762.877 529.973 764.596 528.671 Q766.332 527.369 766.332 524.886 Q766.332 522.594 764.718 521.31 Q763.12 520.008 760.256 520.008 L757.235 520.008 L757.235 517.126 L760.395 517.126 Q762.982 517.126 764.353 516.101 Q765.725 515.06 765.725 513.115 Q765.725 511.119 764.301 510.06 Q762.895 508.983 760.256 508.983 Q758.815 508.983 757.166 509.296 Q755.516 509.608 753.537 510.268 L753.537 507.143 Q755.534 506.587 757.27 506.31 Q759.023 506.032 760.568 506.032 Q764.561 506.032 766.888 507.855 Q769.214 509.66 769.214 512.751 Q769.214 514.903 767.982 516.396 Q766.749 517.872 764.475 518.445 Z" fill="#000000" fill-rule="evenodd" fill-opacity="1" /><path clip-path="url(#clip110)" d="M 0 0 M786.106 509.556 L777.252 523.393 L786.106 523.393 L786.106 509.556 M785.186 506.501 L789.596 506.501 L789.596 523.393 L793.294 523.393 L793.294 526.31 L789.596 526.31 L789.596 532.421 L786.106 532.421 L786.106 526.31 L774.405 526.31 L774.405 522.924 L785.186 506.501 Z" fill="#000000" fill-rule="evenodd" fill-opacity="1" /><path clip-path="url(#clip110)" d="M 0 0 M721.864 446.347 Q724.382 446.885 725.788 448.586 Q727.212 450.288 727.212 452.788 Q727.212 456.624 724.573 458.725 Q721.934 460.826 717.073 460.826 Q715.441 460.826 713.705 460.496 Q711.986 460.183 710.146 459.541 L710.146 456.156 Q711.604 457.006 713.34 457.44 Q715.076 457.874 716.969 457.874 Q720.267 457.874 721.986 456.572 Q723.722 455.27 723.722 452.788 Q723.722 450.496 722.107 449.211 Q720.51 447.909 717.646 447.909 L714.625 447.909 L714.625 445.027 L717.785 445.027 Q720.371 445.027 721.743 444.003 Q723.114 442.961 723.114 441.017 Q723.114 439.02 721.691 437.961 Q720.285 436.885 717.646 436.885 Q716.205 436.885 714.555 437.197 Q712.906 437.51 710.927 438.17 L710.927 435.045 Q712.923 434.489 714.66 434.211 Q716.413 433.934 717.958 433.934 Q721.951 433.934 724.278 435.756 Q726.604 437.562 726.604 440.652 Q726.604 442.805 725.371 444.298 Q724.139 445.774 721.864 446.347 Z" fill="#000000" fill-rule="evenodd" fill-opacity="1" /><path clip-path="url(#clip110)" d="M 0 0 M733.896 434.402 L747.663 434.402 L747.663 437.354 L737.107 437.354 L737.107 443.708 Q737.871 443.447 738.635 443.326 Q739.399 443.187 740.163 443.187 Q744.503 443.187 747.038 445.565 Q749.573 447.944 749.573 452.006 Q749.573 456.19 746.968 458.517 Q744.364 460.826 739.625 460.826 Q737.993 460.826 736.291 460.548 Q734.607 460.27 732.802 459.715 L732.802 456.19 Q734.364 457.041 736.031 457.458 Q737.698 457.874 739.555 457.874 Q742.559 457.874 744.312 456.295 Q746.066 454.715 746.066 452.006 Q746.066 449.298 744.312 447.718 Q742.559 446.138 739.555 446.138 Q738.149 446.138 736.743 446.451 Q735.354 446.763 733.896 447.423 L733.896 434.402 Z" fill="#000000" fill-rule="evenodd" fill-opacity="1" /><circle clip-path="url(#clip112)" cx="667.535" cy="107.607" r="14" fill="#0000ff" fill-rule="evenodd" fill-opacity="1" stroke="none"/>
<circle clip-path="url(#clip112)" cx="497.094" cy="396" r="14" fill="#0000ff" fill-rule="evenodd" fill-opacity="1" stroke="none"/>
<circle clip-path="url(#clip112)" cx="454.484" cy="323.902" r="14" fill="#0000ff" fill-rule="evenodd" fill-opacity="1" stroke="none"/>
<circle clip-path="url(#clip112)" cx="539.705" cy="323.902" r="14" fill="#0000ff" fill-rule="evenodd" fill-opacity="1" stroke="none"/>
<circle clip-path="url(#clip112)" cx="156.213" cy="107.607" r="14" fill="#0000ff" fill-rule="evenodd" fill-opacity="1" stroke="none"/>
<circle clip-path="url(#clip112)" cx="326.654" cy="107.607" r="14" fill="#0000ff" fill-rule="evenodd" fill-opacity="1" stroke="none"/>
<circle clip-path="url(#clip112)" cx="497.094" cy="107.607" r="14" fill="#0000ff" fill-rule="evenodd" fill-opacity="1" stroke="none"/>
<circle clip-path="url(#clip112)" cx="411.874" cy="251.803" r="14" fill="#0000ff" fill-rule="evenodd" fill-opacity="1" stroke="none"/>
<circle clip-path="url(#clip112)" cx="369.264" cy="179.705" r="14" fill="#0000ff" fill-rule="evenodd" fill-opacity="1" stroke="none"/>
<circle clip-path="url(#clip112)" cx="454.484" cy="179.705" r="14" fill="#0000ff" fill-rule="evenodd" fill-opacity="1" stroke="none"/>
<circle clip-path="url(#clip112)" cx="582.315" cy="251.803" r="14" fill="#0000ff" fill-rule="evenodd" fill-opacity="1" stroke="none"/>
<circle clip-path="url(#clip112)" cx="539.705" cy="179.705" r="14" fill="#0000ff" fill-rule="evenodd" fill-opacity="1" stroke="none"/>
<circle clip-path="url(#clip112)" cx="624.925" cy="179.705" r="14" fill="#0000ff" fill-rule="evenodd" fill-opacity="1" stroke="none"/>
<circle clip-path="url(#clip112)" cx="752.756" cy="251.803" r="14" fill="#0000ff" fill-rule="evenodd" fill-opacity="1" stroke="none"/>
<circle clip-path="url(#clip112)" cx="710.146" cy="179.705" r="14" fill="#0000ff" fill-rule="evenodd" fill-opacity="1" stroke="none"/>
<circle clip-path="url(#clip112)" cx="241.433" cy="251.803" r="14" fill="#0000ff" fill-rule="evenodd" fill-opacity="1" stroke="none"/>
<circle clip-path="url(#clip112)" cx="198.823" cy="179.705" r="14" fill="#0000ff" fill-rule="evenodd" fill-opacity="1" stroke="none"/>
<circle clip-path="url(#clip112)" cx="284.043" cy="179.705" r="14" fill="#0000ff" fill-rule="evenodd" fill-opacity="1" stroke="none"/>
<path clip-path="url(#clip110)" d="M 0 0 M668.039 96.8793 L673.768 96.8793 L673.768 77.1051 L667.535 78.3551 L667.535 75.1607 L673.733 73.9107 L677.24 73.9107 L677.24 96.8793 L682.969 96.8793 L682.969 99.8307 L668.039 99.8307 L668.039 96.8793 Z" fill="#000000" fill-rule="evenodd" fill-opacity="1" /><path clip-path="url(#clip110)" d="M 0 0 M497.094 362.304 L513.761 362.304 L513.761 363.797 L504.351 388.224 L500.688 388.224 L509.542 365.255 L497.094 365.255 L497.094 362.304 Z" fill="#000000" fill-rule="evenodd" fill-opacity="1" /><path clip-path="url(#clip110)" d="M 0 0 M463.373 303.817 Q460.873 303.817 459.432 305.154 Q458.009 306.49 458.009 308.834 Q458.009 311.178 459.432 312.515 Q460.873 313.851 463.373 313.851 Q465.873 313.851 467.314 312.515 Q468.755 311.16 468.755 308.834 Q468.755 306.49 467.314 305.154 Q465.89 303.817 463.373 303.817 M459.866 302.324 Q457.609 301.768 456.342 300.223 Q455.092 298.678 455.092 296.456 Q455.092 293.348 457.297 291.542 Q459.519 289.737 463.373 289.737 Q467.245 289.737 469.449 291.542 Q471.654 293.348 471.654 296.456 Q471.654 298.678 470.387 300.223 Q469.137 301.768 466.897 302.324 Q469.432 302.914 470.838 304.633 Q472.262 306.351 472.262 308.834 Q472.262 312.601 469.953 314.615 Q467.661 316.629 463.373 316.629 Q459.085 316.629 456.776 314.615 Q454.484 312.601 454.484 308.834 Q454.484 306.351 455.908 304.633 Q457.331 302.914 459.866 302.324 M458.581 296.786 Q458.581 298.799 459.831 299.928 Q461.099 301.056 463.373 301.056 Q465.63 301.056 466.897 299.928 Q468.182 298.799 468.182 296.786 Q468.182 294.772 466.897 293.643 Q465.63 292.515 463.373 292.515 Q461.099 292.515 459.831 293.643 Q458.581 294.772 458.581 296.786 Z" fill="#000000" fill-rule="evenodd" fill-opacity="1" /><path clip-path="url(#clip110)" d="M 0 0 M541.371 315.587 L541.371 312.393 Q542.691 313.018 544.045 313.348 Q545.399 313.678 546.701 313.678 Q550.173 313.678 551.996 311.351 Q553.837 309.008 554.097 304.251 Q553.09 305.744 551.545 306.542 Q550 307.341 548.125 307.341 Q544.236 307.341 541.962 304.997 Q539.705 302.636 539.705 298.556 Q539.705 294.563 542.066 292.15 Q544.427 289.737 548.351 289.737 Q552.847 289.737 555.208 293.192 Q557.587 296.629 557.587 303.192 Q557.587 309.32 554.67 312.983 Q551.771 316.629 546.857 316.629 Q545.538 316.629 544.184 316.369 Q542.83 316.108 541.371 315.587 M548.351 304.598 Q550.712 304.598 552.083 302.983 Q553.472 301.369 553.472 298.556 Q553.472 295.761 552.083 294.147 Q550.712 292.515 548.351 292.515 Q545.989 292.515 544.601 294.147 Q543.229 295.761 543.229 298.556 Q543.229 301.369 544.601 302.983 Q545.989 304.598 548.351 304.598 Z" fill="#000000" fill-rule="evenodd" fill-opacity="1" /><path clip-path="url(#clip110)" d="M 0 0 M156.716 96.8793 L162.445 96.8793 L162.445 77.1051 L156.213 78.3551 L156.213 75.1607 L162.41 73.9107 L165.917 73.9107 L165.917 96.8793 L171.647 96.8793 L171.647 99.8307 L156.716 99.8307 L156.716 96.8793 Z" fill="#000000" fill-rule="evenodd" fill-opacity="1" /><path clip-path="url(#clip110)" d="M 0 0 M186.23 76.2197 Q183.521 76.2197 182.15 78.8933 Q180.796 81.5496 180.796 86.8968 Q180.796 92.2266 182.15 94.9002 Q183.521 97.5564 186.23 97.5564 Q188.955 97.5564 190.31 94.9002 Q191.681 92.2266 191.681 86.8968 Q191.681 81.5496 190.31 78.8933 Q188.955 76.2197 186.23 76.2197 M186.23 73.442 Q190.587 73.442 192.879 76.8968 Q195.188 80.3343 195.188 86.8968 Q195.188 93.4419 192.879 96.8967 Q190.587 100.334 186.23 100.334 Q181.872 100.334 179.563 96.8967 Q177.272 93.4419 177.272 86.8968 Q177.272 80.3343 179.563 76.8968 Q181.872 73.442 186.23 73.442 Z" fill="#000000" fill-rule="evenodd" fill-opacity="1" /><path clip-path="url(#clip110)" d="M 0 0 M327.157 96.8793 L332.886 96.8793 L332.886 77.1051 L326.654 78.3551 L326.654 75.1607 L332.851 73.9107 L336.358 73.9107 L336.358 96.8793 L342.087 96.8793 L342.087 99.8307 L327.157 99.8307 L327.157 96.8793 Z" fill="#000000" fill-rule="evenodd" fill-opacity="1" /><path clip-path="url(#clip110)" d="M 0 0 M359.796 85.8551 Q362.313 86.3933 363.719 88.0947 Q365.143 89.7961 365.143 92.296 Q365.143 96.1328 362.504 98.2335 Q359.865 100.334 355.004 100.334 Q353.372 100.334 351.636 100.004 Q349.917 99.6918 348.077 99.0495 L348.077 95.6641 Q349.535 96.5148 351.271 96.9488 Q353.008 97.3828 354.9 97.3828 Q358.199 97.3828 359.917 96.0807 Q361.653 94.7787 361.653 92.296 Q361.653 90.0044 360.039 88.7197 Q358.442 87.4176 355.577 87.4176 L352.556 87.4176 L352.556 84.5357 L355.716 84.5357 Q358.303 84.5357 359.674 83.5114 Q361.046 82.4697 361.046 80.5253 Q361.046 78.5288 359.622 77.4697 Q358.216 76.3933 355.577 76.3933 Q354.136 76.3933 352.487 76.7058 Q350.837 77.0183 348.858 77.6781 L348.858 74.5531 Q350.855 73.9975 352.591 73.7198 Q354.344 73.442 355.889 73.442 Q359.883 73.442 362.209 75.2649 Q364.535 77.0704 364.535 80.1607 Q364.535 82.3135 363.303 83.8065 Q362.07 85.2822 359.796 85.8551 Z" fill="#000000" fill-rule="evenodd" fill-opacity="1" /><path clip-path="url(#clip110)" d="M 0 0 M497.598 96.8793 L503.327 96.8793 L503.327 77.1051 L497.094 78.3551 L497.094 75.1607 L503.292 73.9107 L506.799 73.9107 L506.799 96.8793 L512.528 96.8793 L512.528 99.8307 L497.598 99.8307 L497.598 96.8793 Z" fill="#000000" fill-rule="evenodd" fill-opacity="1" /><path clip-path="url(#clip110)" d="M 0 0 M527.546 85.4732 Q525.185 85.4732 523.796 87.0877 Q522.424 88.7023 522.424 91.5148 Q522.424 94.3099 523.796 95.9419 Q525.185 97.5564 527.546 97.5564 Q529.907 97.5564 531.278 95.9419 Q532.667 94.3099 532.667 91.5148 Q532.667 88.7023 531.278 87.0877 Q529.907 85.4732 527.546 85.4732 M534.507 74.4836 L534.507 77.6781 Q533.188 77.0531 531.834 76.7232 Q530.497 76.3933 529.178 76.3933 Q525.705 76.3933 523.865 78.7371 Q522.042 81.0808 521.782 85.8204 Q522.806 84.31 524.351 83.5114 Q525.896 82.6954 527.754 82.6954 Q531.66 82.6954 533.917 85.0739 Q536.192 87.435 536.192 91.5148 Q536.192 95.5078 533.83 97.921 Q531.469 100.334 527.546 100.334 Q523.049 100.334 520.671 96.8967 Q518.292 93.4419 518.292 86.8968 Q518.292 80.751 521.209 77.1051 Q524.126 73.442 529.039 73.442 Q530.358 73.442 531.695 73.7024 Q533.049 73.9628 534.507 74.4836 Z" fill="#000000" fill-rule="evenodd" fill-opacity="1" /><path clip-path="url(#clip110)" d="M 0 0 M412.377 241.076 L418.107 241.076 L418.107 221.302 L411.874 222.552 L411.874 219.357 L418.072 218.107 L421.579 218.107 L421.579 241.076 L427.308 241.076 L427.308 244.027 L412.377 244.027 L412.377 241.076 Z" fill="#000000" fill-rule="evenodd" fill-opacity="1" /><path clip-path="url(#clip110)" d="M 0 0 M434.495 243.489 L434.495 240.295 Q435.815 240.92 437.169 241.25 Q438.523 241.579 439.825 241.579 Q443.297 241.579 445.12 239.253 Q446.961 236.909 447.221 232.152 Q446.214 233.645 444.669 234.444 Q443.124 235.243 441.249 235.243 Q437.36 235.243 435.086 232.899 Q432.829 230.538 432.829 226.458 Q432.829 222.465 435.19 220.052 Q437.551 217.639 441.475 217.639 Q445.971 217.639 448.332 221.093 Q450.711 224.531 450.711 231.093 Q450.711 237.222 447.794 240.885 Q444.895 244.531 439.982 244.531 Q438.662 244.531 437.308 244.27 Q435.954 244.01 434.495 243.489 M441.475 232.5 Q443.836 232.5 445.207 230.885 Q446.596 229.27 446.596 226.458 Q446.596 223.663 445.207 222.048 Q443.836 220.416 441.475 220.416 Q439.113 220.416 437.725 222.048 Q436.353 223.663 436.353 226.458 Q436.353 229.27 437.725 230.885 Q439.113 232.5 441.475 232.5 Z" fill="#000000" fill-rule="evenodd" fill-opacity="1" /><path clip-path="url(#clip110)" d="M 0 0 M373.483 168.978 L385.722 168.978 L385.722 171.929 L369.264 171.929 L369.264 168.978 Q371.26 166.912 374.698 163.44 Q378.153 159.95 379.038 158.943 Q380.722 157.051 381.382 155.749 Q382.059 154.429 382.059 153.162 Q382.059 151.096 380.601 149.794 Q379.16 148.492 376.833 148.492 Q375.184 148.492 373.344 149.065 Q371.521 149.637 369.437 150.801 L369.437 147.259 Q371.555 146.408 373.396 145.974 Q375.236 145.54 376.764 145.54 Q380.791 145.54 383.187 147.554 Q385.583 149.568 385.583 152.936 Q385.583 154.533 384.976 155.974 Q384.385 157.398 382.805 159.342 Q382.371 159.846 380.045 162.259 Q377.719 164.655 373.483 168.978 Z" fill="#000000" fill-rule="evenodd" fill-opacity="1" /><path clip-path="url(#clip110)" d="M 0 0 M400.583 148.318 Q397.875 148.318 396.503 150.992 Q395.149 153.648 395.149 158.995 Q395.149 164.325 396.503 166.999 Q397.875 169.655 400.583 169.655 Q403.309 169.655 404.663 166.999 Q406.034 164.325 406.034 158.995 Q406.034 153.648 404.663 150.992 Q403.309 148.318 400.583 148.318 M400.583 145.54 Q404.941 145.54 407.232 148.995 Q409.541 152.433 409.541 158.995 Q409.541 165.54 407.232 168.995 Q404.941 172.433 400.583 172.433 Q396.225 172.433 393.916 168.995 Q391.625 165.54 391.625 158.995 Q391.625 152.433 393.916 148.995 Q396.225 145.54 400.583 145.54 Z" fill="#000000" fill-rule="evenodd" fill-opacity="1" /><path clip-path="url(#clip110)" d="M 0 0 M458.703 168.978 L470.942 168.978 L470.942 171.929 L454.484 171.929 L454.484 168.978 Q456.481 166.912 459.918 163.44 Q463.373 159.95 464.259 158.943 Q465.943 157.051 466.602 155.749 Q467.279 154.429 467.279 153.162 Q467.279 151.096 465.821 149.794 Q464.38 148.492 462.054 148.492 Q460.404 148.492 458.564 149.065 Q456.741 149.637 454.658 150.801 L454.658 147.259 Q456.776 146.408 458.616 145.974 Q460.456 145.54 461.984 145.54 Q466.012 145.54 468.408 147.554 Q470.804 149.568 470.804 152.936 Q470.804 154.533 470.196 155.974 Q469.606 157.398 468.026 159.342 Q467.592 159.846 465.265 162.259 Q462.939 164.655 458.703 168.978 Z" fill="#000000" fill-rule="evenodd" fill-opacity="1" /><path clip-path="url(#clip110)" d="M 0 0 M478.911 168.978 L484.64 168.978 L484.64 149.203 L478.408 150.453 L478.408 147.259 L484.606 146.009 L488.113 146.009 L488.113 168.978 L493.842 168.978 L493.842 171.929 L478.911 171.929 L478.911 168.978 Z" fill="#000000" fill-rule="evenodd" fill-opacity="1" /><path clip-path="url(#clip110)" d="M 0 0 M586.534 241.076 L598.773 241.076 L598.773 244.027 L582.315 244.027 L582.315 241.076 Q584.311 239.01 587.749 235.538 Q591.204 232.048 592.089 231.041 Q593.773 229.149 594.433 227.847 Q595.11 226.527 595.11 225.26 Q595.11 223.194 593.652 221.892 Q592.211 220.59 589.884 220.59 Q588.235 220.59 586.395 221.163 Q584.572 221.736 582.489 222.899 L582.489 219.357 Q584.607 218.507 586.447 218.073 Q588.287 217.639 589.815 217.639 Q593.843 217.639 596.238 219.652 Q598.634 221.666 598.634 225.034 Q598.634 226.632 598.027 228.073 Q597.436 229.496 595.857 231.441 Q595.423 231.944 593.096 234.357 Q590.77 236.753 586.534 241.076 Z" fill="#000000" fill-rule="evenodd" fill-opacity="1" /><path clip-path="url(#clip110)" d="M 0 0 M609.155 241.076 L621.395 241.076 L621.395 244.027 L604.936 244.027 L604.936 241.076 Q606.933 239.01 610.37 235.538 Q613.825 232.048 614.711 231.041 Q616.395 229.149 617.054 227.847 Q617.731 226.527 617.731 225.26 Q617.731 223.194 616.273 221.892 Q614.832 220.59 612.506 220.59 Q610.856 220.59 609.016 221.163 Q607.193 221.736 605.11 222.899 L605.11 219.357 Q607.228 218.507 609.068 218.073 Q610.909 217.639 612.436 217.639 Q616.464 217.639 618.86 219.652 Q621.256 221.666 621.256 225.034 Q621.256 226.632 620.648 228.073 Q620.058 229.496 618.478 231.441 Q618.044 231.944 615.718 234.357 Q613.391 236.753 609.155 241.076 Z" fill="#000000" fill-rule="evenodd" fill-opacity="1" /><path clip-path="url(#clip110)" d="M 0 0 M543.923 168.978 L556.163 168.978 L556.163 171.929 L539.705 171.929 L539.705 168.978 Q541.701 166.912 545.139 163.44 Q548.594 159.95 549.479 158.943 Q551.163 157.051 551.823 155.749 Q552.5 154.429 552.5 153.162 Q552.5 151.096 551.041 149.794 Q549.601 148.492 547.274 148.492 Q545.625 148.492 543.785 149.065 Q541.962 149.637 539.878 150.801 L539.878 147.259 Q541.996 146.408 543.837 145.974 Q545.677 145.54 547.205 145.54 Q551.232 145.54 553.628 147.554 Q556.024 149.568 556.024 152.936 Q556.024 154.533 555.416 155.974 Q554.826 157.398 553.246 159.342 Q552.812 159.846 550.486 162.259 Q548.16 164.655 543.923 168.978 Z" fill="#000000" fill-rule="evenodd" fill-opacity="1" /><path clip-path="url(#clip110)" d="M 0 0 M574.149 157.953 Q576.666 158.492 578.073 160.193 Q579.496 161.894 579.496 164.394 Q579.496 168.231 576.857 170.332 Q574.218 172.433 569.357 172.433 Q567.725 172.433 565.989 172.103 Q564.271 171.79 562.43 171.148 L562.43 167.762 Q563.889 168.613 565.625 169.047 Q567.361 169.481 569.253 169.481 Q572.552 169.481 574.271 168.179 Q576.007 166.877 576.007 164.394 Q576.007 162.103 574.392 160.818 Q572.795 159.516 569.93 159.516 L566.909 159.516 L566.909 156.634 L570.069 156.634 Q572.656 156.634 574.027 155.61 Q575.399 154.568 575.399 152.624 Q575.399 150.627 573.975 149.568 Q572.569 148.492 569.93 148.492 Q568.489 148.492 566.84 148.804 Q565.191 149.117 563.212 149.776 L563.212 146.651 Q565.208 146.096 566.944 145.818 Q568.698 145.54 570.243 145.54 Q574.236 145.54 576.562 147.363 Q578.889 149.169 578.889 152.259 Q578.889 154.412 577.656 155.905 Q576.423 157.381 574.149 157.953 Z" fill="#000000" fill-rule="evenodd" fill-opacity="1" /><path clip-path="url(#clip110)" d="M 0 0 M629.144 168.978 L641.383 168.978 L641.383 171.929 L624.925 171.929 L624.925 168.978 Q626.922 166.912 630.359 163.44 Q633.814 159.95 634.699 158.943 Q636.383 157.051 637.043 155.749 Q637.72 154.429 637.72 153.162 Q637.72 151.096 636.262 149.794 Q634.821 148.492 632.495 148.492 Q630.845 148.492 629.005 149.065 Q627.182 149.637 625.099 150.801 L625.099 147.259 Q627.217 146.408 629.057 145.974 Q630.897 145.54 632.425 145.54 Q636.453 145.54 638.849 147.554 Q641.245 149.568 641.245 152.936 Q641.245 154.533 640.637 155.974 Q640.047 157.398 638.467 159.342 Q638.033 159.846 635.706 162.259 Q633.38 164.655 629.144 168.978 Z" fill="#000000" fill-rule="evenodd" fill-opacity="1" /><path clip-path="url(#clip110)" d="M 0 0 M658.38 149.065 L649.526 162.901 L658.38 162.901 L658.38 149.065 M657.46 146.009 L661.869 146.009 L661.869 162.901 L665.567 162.901 L665.567 165.818 L661.869 165.818 L661.869 171.929 L658.38 171.929 L658.38 165.818 L646.679 165.818 L646.679 162.433 L657.46 146.009 Z" fill="#000000" fill-rule="evenodd" fill-opacity="1" /><path clip-path="url(#clip110)" d="M 0 0 M756.975 241.076 L769.214 241.076 L769.214 244.027 L752.756 244.027 L752.756 241.076 Q754.752 239.01 758.19 235.538 Q761.645 232.048 762.53 231.041 Q764.214 229.149 764.874 227.847 Q765.551 226.527 765.551 225.26 Q765.551 223.194 764.093 221.892 Q762.652 220.59 760.325 220.59 Q758.676 220.59 756.836 221.163 Q755.013 221.736 752.93 222.899 L752.93 219.357 Q755.048 218.507 756.888 218.073 Q758.728 217.639 760.256 217.639 Q764.284 217.639 766.679 219.652 Q769.075 221.666 769.075 225.034 Q769.075 226.632 768.468 228.073 Q767.877 229.496 766.297 231.441 Q765.863 231.944 763.537 234.357 Q761.211 236.753 756.975 241.076 Z" fill="#000000" fill-rule="evenodd" fill-opacity="1" /><path clip-path="url(#clip110)" d="M 0 0 M776.61 218.107 L790.377 218.107 L790.377 221.059 L779.822 221.059 L779.822 227.413 Q780.586 227.152 781.35 227.031 Q782.113 226.892 782.877 226.892 Q787.218 226.892 789.752 229.27 Q792.287 231.649 792.287 235.711 Q792.287 239.895 789.683 242.222 Q787.079 244.531 782.339 244.531 Q780.707 244.531 779.006 244.253 Q777.322 243.975 775.516 243.42 L775.516 239.895 Q777.079 240.746 778.745 241.163 Q780.412 241.579 782.27 241.579 Q785.273 241.579 787.027 240 Q788.78 238.42 788.78 235.711 Q788.78 233.003 787.027 231.423 Q785.273 229.843 782.27 229.843 Q780.863 229.843 779.457 230.156 Q778.068 230.468 776.61 231.128 L776.61 218.107 Z" fill="#000000" fill-rule="evenodd" fill-opacity="1" /><path clip-path="url(#clip110)" d="M 0 0 M714.364 168.978 L726.604 168.978 L726.604 171.929 L710.146 171.929 L710.146 168.978 Q712.142 166.912 715.58 163.44 Q719.035 159.95 719.92 158.943 Q721.604 157.051 722.264 155.749 Q722.941 154.429 722.941 153.162 Q722.941 151.096 721.482 149.794 Q720.041 148.492 717.715 148.492 Q716.066 148.492 714.226 149.065 Q712.403 149.637 710.319 150.801 L710.319 147.259 Q712.437 146.408 714.278 145.974 Q716.118 145.54 717.646 145.54 Q721.673 145.54 724.069 147.554 Q726.465 149.568 726.465 152.936 Q726.465 154.533 725.857 155.974 Q725.267 157.398 723.687 159.342 Q723.253 159.846 720.927 162.259 Q718.6 164.655 714.364 168.978 Z" fill="#000000" fill-rule="evenodd" fill-opacity="1" /><path clip-path="url(#clip110)" d="M 0 0 M741.899 157.571 Q739.538 157.571 738.149 159.186 Q736.777 160.801 736.777 163.613 Q736.777 166.408 738.149 168.04 Q739.538 169.655 741.899 169.655 Q744.26 169.655 745.632 168.04 Q747.02 166.408 747.02 163.613 Q747.02 160.801 745.632 159.186 Q744.26 157.571 741.899 157.571 M748.861 146.582 L748.861 149.776 Q747.541 149.151 746.187 148.822 Q744.85 148.492 743.531 148.492 Q740.059 148.492 738.218 150.835 Q736.396 153.179 736.135 157.919 Q737.159 156.408 738.705 155.61 Q740.25 154.794 742.107 154.794 Q746.014 154.794 748.27 157.172 Q750.545 159.533 750.545 163.613 Q750.545 167.606 748.184 170.019 Q745.823 172.433 741.899 172.433 Q737.402 172.433 735.024 168.995 Q732.646 165.54 732.646 158.995 Q732.646 152.849 735.562 149.203 Q738.479 145.54 743.392 145.54 Q744.711 145.54 746.048 145.801 Q747.402 146.061 748.861 146.582 Z" fill="#000000" fill-rule="evenodd" fill-opacity="1" /><path clip-path="url(#clip110)" d="M 0 0 M253.152 230.052 Q255.669 230.59 257.075 232.291 Q258.499 233.993 258.499 236.493 Q258.499 240.329 255.86 242.43 Q253.221 244.531 248.36 244.531 Q246.728 244.531 244.992 244.201 Q243.273 243.888 241.433 243.246 L241.433 239.861 Q242.891 240.711 244.627 241.145 Q246.364 241.579 248.256 241.579 Q251.555 241.579 253.273 240.277 Q255.009 238.975 255.009 236.493 Q255.009 234.201 253.395 232.916 Q251.798 231.614 248.933 231.614 L245.912 231.614 L245.912 228.732 L249.072 228.732 Q251.659 228.732 253.03 227.708 Q254.402 226.666 254.402 224.722 Q254.402 222.725 252.978 221.666 Q251.572 220.59 248.933 220.59 Q247.492 220.59 245.843 220.902 Q244.193 221.215 242.214 221.875 L242.214 218.75 Q244.211 218.194 245.947 217.916 Q247.7 217.639 249.246 217.639 Q253.239 217.639 255.565 219.462 Q257.891 221.267 257.891 224.357 Q257.891 226.51 256.659 228.003 Q255.426 229.479 253.152 230.052 Z" fill="#000000" fill-rule="evenodd" fill-opacity="1" /><path clip-path="url(#clip110)" d="M 0 0 M274.784 221.163 L265.929 235 L274.784 235 L274.784 221.163 M273.863 218.107 L278.273 218.107 L278.273 235 L281.971 235 L281.971 237.916 L278.273 237.916 L278.273 244.027 L274.784 244.027 L274.784 237.916 L263.082 237.916 L263.082 234.531 L273.863 218.107 Z" fill="#000000" fill-rule="evenodd" fill-opacity="1" /><path clip-path="url(#clip110)" d="M 0 0 M210.542 157.953 Q213.059 158.492 214.465 160.193 Q215.889 161.894 215.889 164.394 Q215.889 168.231 213.25 170.332 Q210.611 172.433 205.75 172.433 Q204.118 172.433 202.382 172.103 Q200.663 171.79 198.823 171.148 L198.823 167.762 Q200.281 168.613 202.017 169.047 Q203.753 169.481 205.646 169.481 Q208.944 169.481 210.663 168.179 Q212.399 166.877 212.399 164.394 Q212.399 162.103 210.785 160.818 Q209.187 159.516 206.323 159.516 L203.302 159.516 L203.302 156.634 L206.462 156.634 Q209.048 156.634 210.42 155.61 Q211.792 154.568 211.792 152.624 Q211.792 150.627 210.368 149.568 Q208.962 148.492 206.323 148.492 Q204.882 148.492 203.233 148.804 Q201.583 149.117 199.604 149.776 L199.604 146.651 Q201.601 146.096 203.337 145.818 Q205.09 145.54 206.635 145.54 Q210.628 145.54 212.955 147.363 Q215.281 149.169 215.281 152.259 Q215.281 154.412 214.048 155.905 Q212.816 157.381 210.542 157.953 Z" fill="#000000" fill-rule="evenodd" fill-opacity="1" /><path clip-path="url(#clip110)" d="M 0 0 M222.573 146.009 L236.34 146.009 L236.34 148.96 L225.784 148.96 L225.784 155.315 Q226.548 155.054 227.312 154.933 Q228.076 154.794 228.84 154.794 Q233.18 154.794 235.715 157.172 Q238.25 159.551 238.25 163.613 Q238.25 167.797 235.646 170.123 Q233.041 172.433 228.302 172.433 Q226.67 172.433 224.969 172.155 Q223.285 171.877 221.479 171.321 L221.479 167.797 Q223.041 168.648 224.708 169.064 Q226.375 169.481 228.232 169.481 Q231.236 169.481 232.989 167.901 Q234.743 166.321 234.743 163.613 Q234.743 160.905 232.989 159.325 Q231.236 157.745 228.232 157.745 Q226.826 157.745 225.42 158.058 Q224.031 158.37 222.573 159.03 L222.573 146.009 Z" fill="#000000" fill-rule="evenodd" fill-opacity="1" /><path clip-path="url(#clip110)" d="M 0 0 M295.762 157.953 Q298.279 158.492 299.686 160.193 Q301.109 161.894 301.109 164.394 Q301.109 168.231 298.47 170.332 Q295.831 172.433 290.97 172.433 Q289.338 172.433 287.602 172.103 Q285.884 171.79 284.043 171.148 L284.043 167.762 Q285.502 168.613 287.238 169.047 Q288.974 169.481 290.866 169.481 Q294.165 169.481 295.884 168.179 Q297.62 166.877 297.62 164.394 Q297.62 162.103 296.005 160.818 Q294.408 159.516 291.543 159.516 L288.522 159.516 L288.522 156.634 L291.682 156.634 Q294.269 156.634 295.64 155.61 Q297.012 154.568 297.012 152.624 Q297.012 150.627 295.588 149.568 Q294.182 148.492 291.543 148.492 Q290.102 148.492 288.453 148.804 Q286.804 149.117 284.825 149.776 L284.825 146.651 Q286.821 146.096 288.557 145.818 Q290.311 145.54 291.856 145.54 Q295.849 145.54 298.175 147.363 Q300.502 149.169 300.502 152.259 Q300.502 154.412 299.269 155.905 Q298.036 157.381 295.762 157.953 Z" fill="#000000" fill-rule="evenodd" fill-opacity="1" /><path clip-path="url(#clip110)" d="M 0 0 M315.692 157.571 Q313.331 157.571 311.942 159.186 Q310.571 160.801 310.571 163.613 Q310.571 166.408 311.942 168.04 Q313.331 169.655 315.692 169.655 Q318.054 169.655 319.425 168.04 Q320.814 166.408 320.814 163.613 Q320.814 160.801 319.425 159.186 Q318.054 157.571 315.692 157.571 M322.654 146.582 L322.654 149.776 Q321.335 149.151 319.981 148.822 Q318.644 148.492 317.324 148.492 Q313.852 148.492 312.012 150.835 Q310.189 153.179 309.929 157.919 Q310.953 156.408 312.498 155.61 Q314.043 154.794 315.901 154.794 Q319.807 154.794 322.064 157.172 Q324.338 159.533 324.338 163.613 Q324.338 167.606 321.977 170.019 Q319.616 172.433 315.692 172.433 Q311.196 172.433 308.817 168.995 Q306.439 165.54 306.439 158.995 Q306.439 152.849 309.356 149.203 Q312.272 145.54 317.185 145.54 Q318.505 145.54 319.842 145.801 Q321.196 146.061 322.654 146.582 Z" fill="#000000" fill-rule="evenodd" fill-opacity="1" /></svg>
