<?xml version="1.0" encoding="utf-8"?>
<svg xmlns="http://www.w3.org/2000/svg" xmlns:xlink="http://www.w3.org/1999/xlink" width="200" height="200" viewBox="0 0 800 800">
<defs>
  <clipPath id="clip170">
    <rect x="0" y="0" width="800" height="800"/>
  </clipPath>
</defs>
<path clip-path="url(#clip170)" d="
M0 800 L800 800 L800 0 L0 0  Z
  " fill="#ffffff" fill-rule="evenodd" fill-opacity="1"/>
<defs>
  <clipPath id="clip171">
    <rect x="160" y="80" width="561" height="561"/>
  </clipPath>
</defs>
<path clip-path="url(#clip170)" d="
M70.9921 729.008 L752.756 729.008 L752.756 62.9921 L70.9921 62.9921  Z
  " fill="#ffffff" fill-rule="evenodd" fill-opacity="1"/>
<defs>
  <clipPath id="clip172">
    <rect x="70" y="62" width="683" height="667"/>
  </clipPath>
</defs>
<polyline clip-path="url(#clip170)" style="stroke:#000000; stroke-width:4; stroke-opacity:1; fill:none" points="
  70.9921,729.008 752.756,729.008 
  "/>
<polyline clip-path="url(#clip170)" style="stroke:#000000; stroke-width:4; stroke-opacity:1; fill:none" points="
  70.9921,729.008 70.9921,721.016 
  "/>
<polyline clip-path="url(#clip170)" style="stroke:#000000; stroke-width:4; stroke-opacity:1; fill:none" points="
  241.433,729.008 241.433,721.016 
  "/>
<polyline clip-path="url(#clip170)" style="stroke:#000000; stroke-width:4; stroke-opacity:1; fill:none" points="
  411.874,729.008 411.874,721.016 
  "/>
<polyline clip-path="url(#clip170)" style="stroke:#000000; stroke-width:4; stroke-opacity:1; fill:none" points="
  582.315,729.008 582.315,721.016 
  "/>
<polyline clip-path="url(#clip170)" style="stroke:#000000; stroke-width:4; stroke-opacity:1; fill:none" points="
  752.756,729.008 752.756,721.016 
  "/>
<path clip-path="url(#clip170)" d="M 0 0 M40.9344 760.051 L70.6102 760.051 L70.6102 763.986 L40.9344 763.986 L40.9344 760.051 Z" fill="#000000" fill-rule="evenodd" fill-opacity="1" /><path clip-path="url(#clip170)" d="M 0 0 M84.7305 772.945 L101.05 772.945 L101.05 776.88 L79.1055 776.88 L79.1055 772.945 Q81.7675 770.19 86.3508 765.56 Q90.9573 760.908 92.1378 759.565 Q94.3832 757.042 95.2628 755.306 Q96.1656 753.547 96.1656 751.857 Q96.1656 749.102 94.2212 747.366 Q92.2999 745.63 89.198 745.63 Q86.999 745.63 84.5453 746.394 Q82.1148 747.158 79.337 748.709 L79.337 743.987 Q82.161 742.852 84.6147 742.274 Q87.0684 741.695 89.1055 741.695 Q94.4758 741.695 97.6702 744.38 Q100.865 747.065 100.865 751.556 Q100.865 753.686 100.054 755.607 Q99.2674 757.505 97.161 760.098 Q96.5823 760.769 93.4804 763.986 Q90.3786 767.181 84.7305 772.945 Z" fill="#000000" fill-rule="evenodd" fill-opacity="1" /><path clip-path="url(#clip170)" d="M 0 0 M211.19 760.051 L240.866 760.051 L240.866 763.986 L211.19 763.986 L211.19 760.051 Z" fill="#000000" fill-rule="evenodd" fill-opacity="1" /><path clip-path="url(#clip170)" d="M 0 0 M251.769 772.945 L259.408 772.945 L259.408 746.579 L251.097 748.246 L251.097 743.987 L259.361 742.32 L264.037 742.32 L264.037 772.945 L271.676 772.945 L271.676 776.88 L251.769 776.88 L251.769 772.945 Z" fill="#000000" fill-rule="evenodd" fill-opacity="1" /><path clip-path="url(#clip170)" d="M 0 0 M411.874 745.399 Q408.263 745.399 406.434 748.963 Q404.629 752.505 404.629 759.635 Q404.629 766.741 406.434 770.306 Q408.263 773.847 411.874 773.847 Q415.508 773.847 417.314 770.306 Q419.142 766.741 419.142 759.635 Q419.142 752.505 417.314 748.963 Q415.508 745.399 411.874 745.399 M411.874 741.695 Q417.684 741.695 420.74 746.301 Q423.818 750.885 423.818 759.635 Q423.818 768.361 420.74 772.968 Q417.684 777.551 411.874 777.551 Q406.064 777.551 402.985 772.968 Q399.93 768.361 399.93 759.635 Q399.93 750.885 402.985 746.301 Q406.064 741.695 411.874 741.695 Z" fill="#000000" fill-rule="evenodd" fill-opacity="1" /><path clip-path="url(#clip170)" d="M 0 0 M572.697 772.945 L580.336 772.945 L580.336 746.579 L572.026 748.246 L572.026 743.987 L580.29 742.32 L584.965 742.32 L584.965 772.945 L592.604 772.945 L592.604 776.88 L572.697 776.88 L572.697 772.945 Z" fill="#000000" fill-rule="evenodd" fill-opacity="1" /><path clip-path="url(#clip170)" d="M 0 0 M747.409 772.945 L763.728 772.945 L763.728 776.88 L741.784 776.88 L741.784 772.945 Q744.446 770.19 749.029 765.56 Q753.636 760.908 754.816 759.565 Q757.061 757.042 757.941 755.306 Q758.844 753.547 758.844 751.857 Q758.844 749.102 756.899 747.366 Q754.978 745.63 751.876 745.63 Q749.677 745.63 747.224 746.394 Q744.793 747.158 742.015 748.709 L742.015 743.987 Q744.839 742.852 747.293 742.274 Q749.747 741.695 751.784 741.695 Q757.154 741.695 760.348 744.38 Q763.543 747.065 763.543 751.556 Q763.543 753.686 762.733 755.607 Q761.946 757.505 759.839 760.098 Q759.261 760.769 756.159 763.986 Q753.057 767.181 747.409 772.945 Z" fill="#000000" fill-rule="evenodd" fill-opacity="1" /><polyline clip-path="url(#clip170)" style="stroke:#000000; stroke-width:4; stroke-opacity:1; fill:none" points="
  70.9921,729.008 70.9921,62.9921 
  "/>
<polyline clip-path="url(#clip170)" style="stroke:#000000; stroke-width:4; stroke-opacity:1; fill:none" points="
  70.9921,729.008 79.1733,729.008 
  "/>
<polyline clip-path="url(#clip170)" style="stroke:#000000; stroke-width:4; stroke-opacity:1; fill:none" points="
  70.9921,562.504 79.1733,562.504 
  "/>
<polyline clip-path="url(#clip170)" style="stroke:#000000; stroke-width:4; stroke-opacity:1; fill:none" points="
  70.9921,396 79.1733,396 
  "/>
<polyline clip-path="url(#clip170)" style="stroke:#000000; stroke-width:4; stroke-opacity:1; fill:none" points="
  70.9921,229.496 79.1733,229.496 
  "/>
<polyline clip-path="url(#clip170)" style="stroke:#000000; stroke-width:4; stroke-opacity:1; fill:none" points="
  70.9921,62.9921 79.1733,62.9921 
  "/>
<path clip-path="url(#clip170)" d="M 0 0 M-1.12329 729.459 L28.5525 729.459 L28.5525 733.394 L-1.12329 733.394 L-1.12329 729.459 Z" fill="#000000" fill-rule="evenodd" fill-opacity="1" /><path clip-path="url(#clip170)" d="M 0 0 M42.6728 742.353 L58.9921 742.353 L58.9921 746.288 L37.0478 746.288 L37.0478 742.353 Q39.7098 739.598 44.2931 734.968 Q48.8996 730.316 50.0801 728.973 Q52.3255 726.45 53.2051 724.714 Q54.1079 722.955 54.1079 721.265 Q54.1079 718.51 52.1635 716.774 Q50.2422 715.038 47.1403 715.038 Q44.9413 715.038 42.4876 715.802 Q40.057 716.566 37.2793 718.117 L37.2793 713.395 Q40.1033 712.26 42.557 711.682 Q45.0107 711.103 47.0477 711.103 Q52.4181 711.103 55.6125 713.788 Q58.8069 716.473 58.8069 720.964 Q58.8069 723.094 57.9968 725.015 Q57.2097 726.913 55.1033 729.506 Q54.5246 730.177 51.4227 733.394 Q48.3209 736.589 42.6728 742.353 Z" fill="#000000" fill-rule="evenodd" fill-opacity="1" /><path clip-path="url(#clip170)" d="M 0 0 M-1.49366 562.955 L28.1821 562.955 L28.1821 566.89 L-1.49366 566.89 L-1.49366 562.955 Z" fill="#000000" fill-rule="evenodd" fill-opacity="1" /><path clip-path="url(#clip170)" d="M 0 0 M39.0848 575.849 L46.7237 575.849 L46.7237 549.483 L38.4135 551.15 L38.4135 546.891 L46.6774 545.224 L51.3533 545.224 L51.3533 575.849 L58.9921 575.849 L58.9921 579.784 L39.0848 579.784 L39.0848 575.849 Z" fill="#000000" fill-rule="evenodd" fill-opacity="1" /><path clip-path="url(#clip170)" d="M 0 0 M47.0477 381.799 Q43.4367 381.799 41.608 385.363 Q39.8024 388.905 39.8024 396.035 Q39.8024 403.141 41.608 406.706 Q43.4367 410.248 47.0477 410.248 Q50.682 410.248 52.4875 406.706 Q54.3162 403.141 54.3162 396.035 Q54.3162 388.905 52.4875 385.363 Q50.682 381.799 47.0477 381.799 M47.0477 378.095 Q52.8579 378.095 55.9134 382.701 Q58.9921 387.285 58.9921 396.035 Q58.9921 404.762 55.9134 409.368 Q52.8579 413.951 47.0477 413.951 Q41.2376 413.951 38.1589 409.368 Q35.1034 404.762 35.1034 396.035 Q35.1034 387.285 38.1589 382.701 Q41.2376 378.095 47.0477 378.095 Z" fill="#000000" fill-rule="evenodd" fill-opacity="1" /><path clip-path="url(#clip170)" d="M 0 0 M39.0848 242.841 L46.7237 242.841 L46.7237 216.475 L38.4135 218.142 L38.4135 213.883 L46.6774 212.216 L51.3533 212.216 L51.3533 242.841 L58.9921 242.841 L58.9921 246.776 L39.0848 246.776 L39.0848 242.841 Z" fill="#000000" fill-rule="evenodd" fill-opacity="1" /><path clip-path="url(#clip170)" d="M 0 0 M42.6728 76.337 L58.9921 76.337 L58.9921 80.2721 L37.0478 80.2721 L37.0478 76.337 Q39.7098 73.5823 44.2931 68.9527 Q48.8996 64.3 50.0801 62.9574 Q52.3255 60.4343 53.2051 58.6982 Q54.1079 56.9389 54.1079 55.2491 Q54.1079 52.4945 52.1635 50.7584 Q50.2422 49.0223 47.1403 49.0223 Q44.9413 49.0223 42.4876 49.7862 Q40.057 50.5501 37.2793 52.101 L37.2793 47.3788 Q40.1033 46.2445 42.557 45.6658 Q45.0107 45.0871 47.0477 45.0871 Q52.4181 45.0871 55.6125 47.7723 Q58.8069 50.4575 58.8069 54.9482 Q58.8069 57.0778 57.9968 58.9991 Q57.2097 60.8972 55.1033 63.4898 Q54.5246 64.1611 51.4227 67.3787 Q48.3209 70.5731 42.6728 76.337 Z" fill="#000000" fill-rule="evenodd" fill-opacity="1" /><path clip-path="url(#clip170)" d="M 0 0 M352.222 5.45367 L362.036 5.45367 L362.036 8.76384 L356.481 8.76384 L356.481 44.4118 L362.036 44.4118 L362.036 47.722 L352.222 47.722 L352.222 5.45367 Z" fill="#000000" fill-rule="evenodd" fill-opacity="1" /><path clip-path="url(#clip170)" d="M 0 0 M375.74 37.5368 L392.059 37.5368 L392.059 41.472 L370.115 41.472 L370.115 37.5368 Q372.777 34.7822 377.36 30.1526 Q381.967 25.4999 383.147 24.1573 Q385.393 21.6341 386.272 19.898 Q387.175 18.1388 387.175 16.449 Q387.175 13.6944 385.231 11.9583 Q383.309 10.2222 380.208 10.2222 Q378.008 10.2222 375.555 10.9861 Q373.124 11.7499 370.346 13.3009 L370.346 8.57866 Q373.171 7.4444 375.624 6.8657 Q378.078 6.287 380.115 6.287 Q385.485 6.287 388.68 8.97217 Q391.874 11.6573 391.874 16.1481 Q391.874 18.2777 391.064 20.199 Q390.277 22.0971 388.17 24.6897 Q387.592 25.361 384.49 28.5786 Q381.388 31.773 375.74 37.5368 Z" fill="#000000" fill-rule="evenodd" fill-opacity="1" /><path clip-path="url(#clip170)" d="M 0 0 M402.36 35.5924 L407.244 35.5924 L407.244 39.5739 L403.448 46.9812 L400.462 46.9812 L402.36 39.5739 L402.36 35.5924 Z" fill="#000000" fill-rule="evenodd" fill-opacity="1" /><path clip-path="url(#clip170)" d="M 0 0 M432.823 37.5368 L440.462 37.5368 L440.462 11.1712 L432.152 12.8379 L432.152 8.57866 L440.416 6.912 L445.091 6.912 L445.091 37.5368 L452.73 37.5368 L452.73 41.472 L432.823 41.472 L432.823 37.5368 Z" fill="#000000" fill-rule="evenodd" fill-opacity="1" /><path clip-path="url(#clip170)" d="M 0 0 M471.526 5.45367 L471.526 47.722 L461.712 47.722 L461.712 44.4118 L467.244 44.4118 L467.244 8.76384 L461.712 8.76384 L461.712 5.45367 L471.526 5.45367 Z" fill="#000000" fill-rule="evenodd" fill-opacity="1" /><circle clip-path="url(#clip172)" cx="411.874" cy="540.197" r="14" fill="#0000ff" fill-rule="evenodd" fill-opacity="1" stroke="none"/>
<circle clip-path="url(#clip172)" cx="369.264" cy="468.098" r="14" fill="#0000ff" fill-rule="evenodd" fill-opacity="1" stroke="none"/>
<circle clip-path="url(#clip172)" cx="454.484" cy="468.098" r="14" fill="#0000ff" fill-rule="evenodd" fill-opacity="1" stroke="none"/>
<circle clip-path="url(#clip172)" cx="582.315" cy="540.197" r="14" fill="#0000ff" fill-rule="evenodd" fill-opacity="1" stroke="none"/>
<circle clip-path="url(#clip172)" cx="539.705" cy="468.098" r="14" fill="#0000ff" fill-rule="evenodd" fill-opacity="1" stroke="none"/>
<circle clip-path="url(#clip172)" cx="624.925" cy="468.098" r="14" fill="#0000ff" fill-rule="evenodd" fill-opacity="1" stroke="none"/>
<circle clip-path="url(#clip172)" cx="156.213" cy="684.393" r="14" fill="#0000ff" fill-rule="evenodd" fill-opacity="1" stroke="none"/>
<circle clip-path="url(#clip172)" cx="113.602" cy="612.295" r="14" fill="#0000ff" fill-rule="evenodd" fill-opacity="1" stroke="none"/>
<circle clip-path="url(#clip172)" cx="198.823" cy="612.295" r="14" fill="#0000ff" fill-rule="evenodd" fill-opacity="1" stroke="none"/>
<circle clip-path="url(#clip172)" cx="326.654" cy="684.393" r="14" fill="#0000ff" fill-rule="evenodd" fill-opacity="1" stroke="none"/>
<circle clip-path="url(#clip172)" cx="284.043" cy="612.295" r="14" fill="#0000ff" fill-rule="evenodd" fill-opacity="1" stroke="none"/>
<circle clip-path="url(#clip172)" cx="369.264" cy="612.295" r="14" fill="#0000ff" fill-rule="evenodd" fill-opacity="1" stroke="none"/>
<circle clip-path="url(#clip172)" cx="497.094" cy="684.393" r="14" fill="#0000ff" fill-rule="evenodd" fill-opacity="1" stroke="none"/>
<circle clip-path="url(#clip172)" cx="454.484" cy="612.295" r="14" fill="#0000ff" fill-rule="evenodd" fill-opacity="1" stroke="none"/>
<circle clip-path="url(#clip172)" cx="539.705" cy="612.295" r="14" fill="#0000ff" fill-rule="evenodd" fill-opacity="1" stroke="none"/>
<circle clip-path="url(#clip172)" cx="667.535" cy="684.393" r="14" fill="#0000ff" fill-rule="evenodd" fill-opacity="1" stroke="none"/>
<circle clip-path="url(#clip172)" cx="624.925" cy="612.295" r="14" fill="#0000ff" fill-rule="evenodd" fill-opacity="1" stroke="none"/>
<circle clip-path="url(#clip172)" cx="710.146" cy="612.295" r="14" fill="#0000ff" fill-rule="evenodd" fill-opacity="1" stroke="none"/>
<path clip-path="url(#clip170)" d="M 0 0 M423.575 509.556 L414.721 523.393 L423.575 523.393 L423.575 509.556 M422.655 506.501 L427.065 506.501 L427.065 523.393 L430.763 523.393 L430.763 526.31 L427.065 526.31 L427.065 532.421 L423.575 532.421 L423.575 526.31 L411.874 526.31 L411.874 522.924 L422.655 506.501 Z" fill="#000000" fill-rule="evenodd" fill-opacity="1" /><path clip-path="url(#clip170)" d="M 0 0 M370.358 434.402 L384.125 434.402 L384.125 437.354 L373.569 437.354 L373.569 443.708 Q374.333 443.447 375.097 443.326 Q375.861 443.187 376.625 443.187 Q380.965 443.187 383.5 445.565 Q386.035 447.944 386.035 452.006 Q386.035 456.19 383.43 458.517 Q380.826 460.826 376.087 460.826 Q374.455 460.826 372.753 460.548 Q371.069 460.27 369.264 459.715 L369.264 456.19 Q370.826 457.041 372.493 457.458 Q374.16 457.874 376.017 457.874 Q379.021 457.874 380.774 456.295 Q382.528 454.715 382.528 452.006 Q382.528 449.298 380.774 447.718 Q379.021 446.138 376.017 446.138 Q374.611 446.138 373.205 446.451 Q371.816 446.763 370.358 447.423 L370.358 434.402 Z" fill="#000000" fill-rule="evenodd" fill-opacity="1" /><path clip-path="url(#clip170)" d="M 0 0 M463.738 445.965 Q461.377 445.965 459.988 447.579 Q458.616 449.194 458.616 452.006 Q458.616 454.802 459.988 456.433 Q461.377 458.048 463.738 458.048 Q466.099 458.048 467.47 456.433 Q468.859 454.802 468.859 452.006 Q468.859 449.194 467.47 447.579 Q466.099 445.965 463.738 445.965 M470.699 434.975 L470.699 438.17 Q469.38 437.545 468.026 437.215 Q466.689 436.885 465.37 436.885 Q461.897 436.885 460.057 439.229 Q458.234 441.572 457.974 446.312 Q458.998 444.802 460.543 444.003 Q462.088 443.187 463.946 443.187 Q467.852 443.187 470.109 445.565 Q472.383 447.927 472.383 452.006 Q472.383 455.999 470.022 458.413 Q467.661 460.826 463.738 460.826 Q459.241 460.826 456.863 457.388 Q454.484 453.933 454.484 447.388 Q454.484 441.243 457.401 437.597 Q460.318 433.934 465.231 433.934 Q466.55 433.934 467.887 434.194 Q469.241 434.454 470.699 434.975 Z" fill="#000000" fill-rule="evenodd" fill-opacity="1" /><path clip-path="url(#clip170)" d="M 0 0 M582.315 506.501 L598.982 506.501 L598.982 507.994 L589.572 532.421 L585.909 532.421 L594.763 509.452 L582.315 509.452 L582.315 506.501 Z" fill="#000000" fill-rule="evenodd" fill-opacity="1" /><path clip-path="url(#clip170)" d="M 0 0 M548.594 448.013 Q546.094 448.013 544.653 449.35 Q543.229 450.687 543.229 453.031 Q543.229 455.374 544.653 456.711 Q546.094 458.048 548.594 458.048 Q551.094 458.048 552.535 456.711 Q553.975 455.357 553.975 453.031 Q553.975 450.687 552.535 449.35 Q551.111 448.013 548.594 448.013 M545.087 446.52 Q542.83 445.965 541.562 444.42 Q540.312 442.874 540.312 440.652 Q540.312 437.545 542.517 435.739 Q544.739 433.934 548.594 433.934 Q552.465 433.934 554.67 435.739 Q556.875 437.545 556.875 440.652 Q556.875 442.874 555.607 444.42 Q554.357 445.965 552.118 446.52 Q554.653 447.111 556.059 448.829 Q557.482 450.548 557.482 453.031 Q557.482 456.798 555.173 458.812 Q552.882 460.826 548.594 460.826 Q544.305 460.826 541.996 458.812 Q539.705 456.798 539.705 453.031 Q539.705 450.548 541.128 448.829 Q542.552 447.111 545.087 446.52 M543.802 440.982 Q543.802 442.996 545.052 444.124 Q546.319 445.253 548.594 445.253 Q550.85 445.253 552.118 444.124 Q553.403 442.996 553.403 440.982 Q553.403 438.968 552.118 437.84 Q550.85 436.711 548.594 436.711 Q546.319 436.711 545.052 437.84 Q543.802 438.968 543.802 440.982 Z" fill="#000000" fill-rule="evenodd" fill-opacity="1" /><path clip-path="url(#clip170)" d="M 0 0 M626.592 459.784 L626.592 456.59 Q627.911 457.215 629.265 457.545 Q630.62 457.874 631.922 457.874 Q635.394 457.874 637.217 455.548 Q639.057 453.204 639.317 448.447 Q638.311 449.94 636.765 450.739 Q635.22 451.538 633.345 451.538 Q629.456 451.538 627.182 449.194 Q624.925 446.833 624.925 442.753 Q624.925 438.76 627.286 436.347 Q629.647 433.934 633.571 433.934 Q638.067 433.934 640.429 437.388 Q642.807 440.826 642.807 447.388 Q642.807 453.517 639.89 457.18 Q636.991 460.826 632.078 460.826 Q630.758 460.826 629.404 460.565 Q628.05 460.305 626.592 459.784 M633.571 448.795 Q635.932 448.795 637.304 447.18 Q638.692 445.565 638.692 442.753 Q638.692 439.958 637.304 438.343 Q635.932 436.711 633.571 436.711 Q631.21 436.711 629.821 438.343 Q628.449 439.958 628.449 442.753 Q628.449 445.565 629.821 447.18 Q631.21 448.795 633.571 448.795 Z" fill="#000000" fill-rule="evenodd" fill-opacity="1" /><path clip-path="url(#clip170)" d="M 0 0 M160.431 673.666 L172.671 673.666 L172.671 676.617 L156.213 676.617 L156.213 673.666 Q158.209 671.6 161.647 668.128 Q165.101 664.638 165.987 663.631 Q167.671 661.739 168.331 660.437 Q169.008 659.117 169.008 657.85 Q169.008 655.784 167.549 654.482 Q166.108 653.18 163.782 653.18 Q162.133 653.18 160.292 653.753 Q158.47 654.326 156.386 655.489 L156.386 651.947 Q158.504 651.097 160.345 650.663 Q162.185 650.229 163.713 650.229 Q167.74 650.229 170.136 652.242 Q172.532 654.256 172.532 657.624 Q172.532 659.222 171.924 660.663 Q171.334 662.086 169.754 664.031 Q169.32 664.534 166.994 666.947 Q164.667 669.343 160.431 673.666 Z" fill="#000000" fill-rule="evenodd" fill-opacity="1" /><path clip-path="url(#clip170)" d="M 0 0 M183.053 673.666 L195.292 673.666 L195.292 676.617 L178.834 676.617 L178.834 673.666 Q180.831 671.6 184.268 668.128 Q187.723 664.638 188.608 663.631 Q190.292 661.739 190.952 660.437 Q191.629 659.117 191.629 657.85 Q191.629 655.784 190.171 654.482 Q188.73 653.18 186.403 653.18 Q184.754 653.18 182.914 653.753 Q181.091 654.326 179.008 655.489 L179.008 651.947 Q181.126 651.097 182.966 650.663 Q184.806 650.229 186.334 650.229 Q190.362 650.229 192.758 652.242 Q195.153 654.256 195.153 657.624 Q195.153 659.222 194.546 660.663 Q193.955 662.086 192.376 664.031 Q191.942 664.534 189.615 666.947 Q187.289 669.343 183.053 673.666 Z" fill="#000000" fill-rule="evenodd" fill-opacity="1" /><path clip-path="url(#clip170)" d="M 0 0 M117.821 601.568 L130.061 601.568 L130.061 604.519 L113.602 604.519 L113.602 601.568 Q115.599 599.502 119.036 596.029 Q122.491 592.54 123.377 591.533 Q125.061 589.641 125.72 588.338 Q126.397 587.019 126.397 585.752 Q126.397 583.686 124.939 582.384 Q123.498 581.082 121.172 581.082 Q119.522 581.082 117.682 581.654 Q115.859 582.227 113.776 583.391 L113.776 579.849 Q115.894 578.998 117.734 578.564 Q119.575 578.13 121.102 578.13 Q125.13 578.13 127.526 580.144 Q129.922 582.158 129.922 585.526 Q129.922 587.123 129.314 588.564 Q128.724 589.988 127.144 591.932 Q126.71 592.436 124.384 594.849 Q122.057 597.245 117.821 601.568 Z" fill="#000000" fill-rule="evenodd" fill-opacity="1" /><path clip-path="url(#clip170)" d="M 0 0 M148.047 590.543 Q150.564 591.082 151.97 592.783 Q153.394 594.484 153.394 596.984 Q153.394 600.821 150.755 602.922 Q148.116 605.022 143.255 605.022 Q141.623 605.022 139.887 604.693 Q138.168 604.38 136.328 603.738 L136.328 600.352 Q137.786 601.203 139.522 601.637 Q141.258 602.071 143.151 602.071 Q146.449 602.071 148.168 600.769 Q149.904 599.467 149.904 596.984 Q149.904 594.693 148.29 593.408 Q146.692 592.106 143.828 592.106 L140.807 592.106 L140.807 589.224 L143.967 589.224 Q146.554 589.224 147.925 588.2 Q149.297 587.158 149.297 585.214 Q149.297 583.217 147.873 582.158 Q146.467 581.082 143.828 581.082 Q142.387 581.082 140.738 581.394 Q139.088 581.707 137.109 582.366 L137.109 579.241 Q139.106 578.686 140.842 578.408 Q142.595 578.13 144.14 578.13 Q148.133 578.13 150.46 579.953 Q152.786 581.759 152.786 584.849 Q152.786 587.002 151.554 588.495 Q150.321 589.97 148.047 590.543 Z" fill="#000000" fill-rule="evenodd" fill-opacity="1" /><path clip-path="url(#clip170)" d="M 0 0 M203.042 601.568 L215.281 601.568 L215.281 604.519 L198.823 604.519 L198.823 601.568 Q200.819 599.502 204.257 596.029 Q207.712 592.54 208.597 591.533 Q210.281 589.641 210.941 588.338 Q211.618 587.019 211.618 585.752 Q211.618 583.686 210.16 582.384 Q208.719 581.082 206.392 581.082 Q204.743 581.082 202.903 581.654 Q201.08 582.227 198.996 583.391 L198.996 579.849 Q201.114 578.998 202.955 578.564 Q204.795 578.13 206.323 578.13 Q210.351 578.13 212.746 580.144 Q215.142 582.158 215.142 585.526 Q215.142 587.123 214.535 588.564 Q213.944 589.988 212.364 591.932 Q211.93 592.436 209.604 594.849 Q207.278 597.245 203.042 601.568 Z" fill="#000000" fill-rule="evenodd" fill-opacity="1" /><path clip-path="url(#clip170)" d="M 0 0 M232.278 581.654 L223.423 595.491 L232.278 595.491 L232.278 581.654 M231.357 578.599 L235.767 578.599 L235.767 595.491 L239.465 595.491 L239.465 598.408 L235.767 598.408 L235.767 604.519 L232.278 604.519 L232.278 598.408 L220.576 598.408 L220.576 595.022 L231.357 578.599 Z" fill="#000000" fill-rule="evenodd" fill-opacity="1" /><path clip-path="url(#clip170)" d="M 0 0 M330.872 673.666 L343.112 673.666 L343.112 676.617 L326.654 676.617 L326.654 673.666 Q328.65 671.6 332.088 668.128 Q335.542 664.638 336.428 663.631 Q338.112 661.739 338.772 660.437 Q339.449 659.117 339.449 657.85 Q339.449 655.784 337.99 654.482 Q336.549 653.18 334.223 653.18 Q332.574 653.18 330.733 653.753 Q328.91 654.326 326.827 655.489 L326.827 651.947 Q328.945 651.097 330.785 650.663 Q332.626 650.229 334.154 650.229 Q338.181 650.229 340.577 652.242 Q342.973 654.256 342.973 657.624 Q342.973 659.222 342.365 660.663 Q341.775 662.086 340.195 664.031 Q339.761 664.534 337.435 666.947 Q335.108 669.343 330.872 673.666 Z" fill="#000000" fill-rule="evenodd" fill-opacity="1" /><path clip-path="url(#clip170)" d="M 0 0 M350.508 650.697 L364.275 650.697 L364.275 653.649 L353.719 653.649 L353.719 660.003 Q354.483 659.742 355.247 659.621 Q356.011 659.482 356.775 659.482 Q361.115 659.482 363.65 661.86 Q366.185 664.239 366.185 668.301 Q366.185 672.485 363.58 674.812 Q360.976 677.121 356.237 677.121 Q354.605 677.121 352.903 676.843 Q351.219 676.565 349.414 676.01 L349.414 672.485 Q350.976 673.336 352.643 673.753 Q354.31 674.169 356.167 674.169 Q359.171 674.169 360.924 672.59 Q362.678 671.01 362.678 668.301 Q362.678 665.593 360.924 664.013 Q359.171 662.433 356.167 662.433 Q354.761 662.433 353.355 662.746 Q351.966 663.058 350.508 663.718 L350.508 650.697 Z" fill="#000000" fill-rule="evenodd" fill-opacity="1" /><path clip-path="url(#clip170)" d="M 0 0 M288.262 601.568 L300.502 601.568 L300.502 604.519 L284.043 604.519 L284.043 601.568 Q286.04 599.502 289.477 596.029 Q292.932 592.54 293.818 591.533 Q295.502 589.641 296.161 588.338 Q296.838 587.019 296.838 585.752 Q296.838 583.686 295.38 582.384 Q293.939 581.082 291.613 581.082 Q289.963 581.082 288.123 581.654 Q286.3 582.227 284.217 583.391 L284.217 579.849 Q286.335 578.998 288.175 578.564 Q290.015 578.13 291.543 578.13 Q295.571 578.13 297.967 580.144 Q300.363 582.158 300.363 585.526 Q300.363 587.123 299.755 588.564 Q299.165 589.988 297.585 591.932 Q297.151 592.436 294.824 594.849 Q292.498 597.245 288.262 601.568 Z" fill="#000000" fill-rule="evenodd" fill-opacity="1" /><path clip-path="url(#clip170)" d="M 0 0 M315.797 590.161 Q313.436 590.161 312.047 591.776 Q310.675 593.391 310.675 596.203 Q310.675 598.998 312.047 600.63 Q313.436 602.245 315.797 602.245 Q318.158 602.245 319.529 600.63 Q320.918 598.998 320.918 596.203 Q320.918 593.391 319.529 591.776 Q318.158 590.161 315.797 590.161 M322.758 579.172 L322.758 582.366 Q321.439 581.741 320.085 581.411 Q318.748 581.082 317.429 581.082 Q313.956 581.082 312.116 583.425 Q310.293 585.769 310.033 590.509 Q311.057 588.998 312.602 588.2 Q314.147 587.384 316.005 587.384 Q319.911 587.384 322.168 589.762 Q324.442 592.123 324.442 596.203 Q324.442 600.196 322.081 602.609 Q319.72 605.022 315.797 605.022 Q311.3 605.022 308.922 601.585 Q306.543 598.13 306.543 591.585 Q306.543 585.439 309.46 581.793 Q312.376 578.13 317.29 578.13 Q318.609 578.13 319.946 578.391 Q321.3 578.651 322.758 579.172 Z" fill="#000000" fill-rule="evenodd" fill-opacity="1" /><path clip-path="url(#clip170)" d="M 0 0 M373.483 601.568 L385.722 601.568 L385.722 604.519 L369.264 604.519 L369.264 601.568 Q371.26 599.502 374.698 596.029 Q378.153 592.54 379.038 591.533 Q380.722 589.641 381.382 588.338 Q382.059 587.019 382.059 585.752 Q382.059 583.686 380.601 582.384 Q379.16 581.082 376.833 581.082 Q375.184 581.082 373.344 581.654 Q371.521 582.227 369.437 583.391 L369.437 579.849 Q371.555 578.998 373.396 578.564 Q375.236 578.13 376.764 578.13 Q380.791 578.13 383.187 580.144 Q385.583 582.158 385.583 585.526 Q385.583 587.123 384.976 588.564 Q384.385 589.988 382.805 591.932 Q382.371 592.436 380.045 594.849 Q377.719 597.245 373.483 601.568 Z" fill="#000000" fill-rule="evenodd" fill-opacity="1" /><path clip-path="url(#clip170)" d="M 0 0 M392.198 578.599 L408.864 578.599 L408.864 580.092 L399.455 604.519 L395.791 604.519 L404.646 581.55 L392.198 581.55 L392.198 578.599 Z" fill="#000000" fill-rule="evenodd" fill-opacity="1" /><path clip-path="url(#clip170)" d="M 0 0 M501.313 673.666 L513.553 673.666 L513.553 676.617 L497.094 676.617 L497.094 673.666 Q499.091 671.6 502.528 668.128 Q505.983 664.638 506.869 663.631 Q508.553 661.739 509.212 660.437 Q509.89 659.117 509.89 657.85 Q509.89 655.784 508.431 654.482 Q506.99 653.18 504.664 653.18 Q503.015 653.18 501.174 653.753 Q499.351 654.326 497.268 655.489 L497.268 651.947 Q499.386 651.097 501.226 650.663 Q503.067 650.229 504.594 650.229 Q508.622 650.229 511.018 652.242 Q513.414 654.256 513.414 657.624 Q513.414 659.222 512.806 660.663 Q512.216 662.086 510.636 664.031 Q510.202 664.534 507.876 666.947 Q505.549 669.343 501.313 673.666 Z" fill="#000000" fill-rule="evenodd" fill-opacity="1" /><path clip-path="url(#clip170)" d="M 0 0 M528.414 664.308 Q525.914 664.308 524.473 665.645 Q523.049 666.982 523.049 669.326 Q523.049 671.669 524.473 673.006 Q525.914 674.343 528.414 674.343 Q530.914 674.343 532.355 673.006 Q533.796 671.652 533.796 669.326 Q533.796 666.982 532.355 665.645 Q530.931 664.308 528.414 664.308 M524.907 662.815 Q522.65 662.26 521.383 660.715 Q520.133 659.169 520.133 656.947 Q520.133 653.84 522.337 652.034 Q524.56 650.229 528.414 650.229 Q532.285 650.229 534.49 652.034 Q536.695 653.84 536.695 656.947 Q536.695 659.169 535.428 660.715 Q534.178 662.26 531.938 662.815 Q534.473 663.406 535.879 665.124 Q537.303 666.843 537.303 669.326 Q537.303 673.093 534.994 675.107 Q532.702 677.121 528.414 677.121 Q524.126 677.121 521.817 675.107 Q519.525 673.093 519.525 669.326 Q519.525 666.843 520.949 665.124 Q522.372 663.406 524.907 662.815 M523.622 657.277 Q523.622 659.291 524.872 660.419 Q526.139 661.548 528.414 661.548 Q530.671 661.548 531.938 660.419 Q533.223 659.291 533.223 657.277 Q533.223 655.263 531.938 654.135 Q530.671 653.006 528.414 653.006 Q526.139 653.006 524.872 654.135 Q523.622 655.263 523.622 657.277 Z" fill="#000000" fill-rule="evenodd" fill-opacity="1" /><path clip-path="url(#clip170)" d="M 0 0 M458.703 601.568 L470.942 601.568 L470.942 604.519 L454.484 604.519 L454.484 601.568 Q456.481 599.502 459.918 596.029 Q463.373 592.54 464.259 591.533 Q465.943 589.641 466.602 588.338 Q467.279 587.019 467.279 585.752 Q467.279 583.686 465.821 582.384 Q464.38 581.082 462.054 581.082 Q460.404 581.082 458.564 581.654 Q456.741 582.227 454.658 583.391 L454.658 579.849 Q456.776 578.998 458.616 578.564 Q460.456 578.13 461.984 578.13 Q466.012 578.13 468.408 580.144 Q470.804 582.158 470.804 585.526 Q470.804 587.123 470.196 588.564 Q469.606 589.988 468.026 591.932 Q467.592 592.436 465.265 594.849 Q462.939 597.245 458.703 601.568 Z" fill="#000000" fill-rule="evenodd" fill-opacity="1" /><path clip-path="url(#clip170)" d="M 0 0 M478.408 603.981 L478.408 600.786 Q479.727 601.411 481.081 601.741 Q482.435 602.071 483.738 602.071 Q487.21 602.071 489.033 599.745 Q490.873 597.401 491.133 592.644 Q490.126 594.137 488.581 594.936 Q487.036 595.734 485.161 595.734 Q481.272 595.734 478.998 593.391 Q476.741 591.029 476.741 586.95 Q476.741 582.957 479.102 580.543 Q481.463 578.13 485.387 578.13 Q489.883 578.13 492.244 581.585 Q494.623 585.023 494.623 591.585 Q494.623 597.713 491.706 601.377 Q488.807 605.022 483.894 605.022 Q482.574 605.022 481.22 604.762 Q479.866 604.502 478.408 603.981 M485.387 592.991 Q487.748 592.991 489.119 591.377 Q490.508 589.762 490.508 586.95 Q490.508 584.154 489.119 582.54 Q487.748 580.908 485.387 580.908 Q483.026 580.908 481.637 582.54 Q480.265 584.154 480.265 586.95 Q480.265 589.762 481.637 591.377 Q483.026 592.991 485.387 592.991 Z" fill="#000000" fill-rule="evenodd" fill-opacity="1" /><path clip-path="url(#clip170)" d="M 0 0 M551.423 590.543 Q553.941 591.082 555.347 592.783 Q556.771 594.484 556.771 596.984 Q556.771 600.821 554.132 602.922 Q551.493 605.022 546.632 605.022 Q545 605.022 543.264 604.693 Q541.545 604.38 539.705 603.738 L539.705 600.352 Q541.163 601.203 542.899 601.637 Q544.635 602.071 546.528 602.071 Q549.826 602.071 551.545 600.769 Q553.281 599.467 553.281 596.984 Q553.281 594.693 551.666 593.408 Q550.069 592.106 547.205 592.106 L544.184 592.106 L544.184 589.224 L547.344 589.224 Q549.93 589.224 551.302 588.2 Q552.673 587.158 552.673 585.214 Q552.673 583.217 551.25 582.158 Q549.844 581.082 547.205 581.082 Q545.764 581.082 544.114 581.394 Q542.465 581.707 540.486 582.366 L540.486 579.241 Q542.482 578.686 544.219 578.408 Q545.972 578.13 547.517 578.13 Q551.51 578.13 553.837 579.953 Q556.163 581.759 556.163 584.849 Q556.163 587.002 554.93 588.495 Q553.698 589.97 551.423 590.543 Z" fill="#000000" fill-rule="evenodd" fill-opacity="1" /><path clip-path="url(#clip170)" d="M 0 0 M570.92 580.908 Q568.212 580.908 566.84 583.582 Q565.486 586.238 565.486 591.585 Q565.486 596.915 566.84 599.588 Q568.212 602.245 570.92 602.245 Q573.646 602.245 575 599.588 Q576.371 596.915 576.371 591.585 Q576.371 586.238 575 583.582 Q573.646 580.908 570.92 580.908 M570.92 578.13 Q575.277 578.13 577.569 581.585 Q579.878 585.023 579.878 591.585 Q579.878 598.13 577.569 601.585 Q575.277 605.022 570.92 605.022 Q566.562 605.022 564.253 601.585 Q561.962 598.13 561.962 591.585 Q561.962 585.023 564.253 581.585 Q566.562 578.13 570.92 578.13 Z" fill="#000000" fill-rule="evenodd" fill-opacity="1" /><path clip-path="url(#clip170)" d="M 0 0 M679.254 662.642 Q681.771 663.18 683.178 664.881 Q684.601 666.583 684.601 669.083 Q684.601 672.919 681.962 675.02 Q679.324 677.121 674.462 677.121 Q672.831 677.121 671.094 676.791 Q669.376 676.478 667.535 675.836 L667.535 672.451 Q668.994 673.301 670.73 673.735 Q672.466 674.169 674.358 674.169 Q677.657 674.169 679.376 672.867 Q681.112 671.565 681.112 669.083 Q681.112 666.791 679.497 665.506 Q677.9 664.204 675.035 664.204 L672.015 664.204 L672.015 661.322 L675.174 661.322 Q677.761 661.322 679.133 660.298 Q680.504 659.256 680.504 657.312 Q680.504 655.315 679.081 654.256 Q677.674 653.18 675.035 653.18 Q673.594 653.18 671.945 653.492 Q670.296 653.805 668.317 654.465 L668.317 651.34 Q670.313 650.784 672.049 650.506 Q673.803 650.229 675.348 650.229 Q679.341 650.229 681.667 652.051 Q683.994 653.857 683.994 656.947 Q683.994 659.1 682.761 660.593 Q681.528 662.069 679.254 662.642 Z" fill="#000000" fill-rule="evenodd" fill-opacity="1" /><path clip-path="url(#clip170)" d="M 0 0 M691.858 673.666 L697.587 673.666 L697.587 653.892 L691.355 655.142 L691.355 651.947 L697.553 650.697 L701.06 650.697 L701.06 673.666 L706.789 673.666 L706.789 676.617 L691.858 676.617 L691.858 673.666 Z" fill="#000000" fill-rule="evenodd" fill-opacity="1" /><path clip-path="url(#clip170)" d="M 0 0 M636.644 590.543 Q639.161 591.082 640.567 592.783 Q641.991 594.484 641.991 596.984 Q641.991 600.821 639.352 602.922 Q636.713 605.022 631.852 605.022 Q630.22 605.022 628.484 604.693 Q626.765 604.38 624.925 603.738 L624.925 600.352 Q626.384 601.203 628.12 601.637 Q629.856 602.071 631.748 602.071 Q635.047 602.071 636.765 600.769 Q638.502 599.467 638.502 596.984 Q638.502 594.693 636.887 593.408 Q635.29 592.106 632.425 592.106 L629.404 592.106 L629.404 589.224 L632.564 589.224 Q635.151 589.224 636.522 588.2 Q637.894 587.158 637.894 585.214 Q637.894 583.217 636.47 582.158 Q635.064 581.082 632.425 581.082 Q630.984 581.082 629.335 581.394 Q627.686 581.707 625.706 582.366 L625.706 579.241 Q627.703 578.686 629.439 578.408 Q631.193 578.13 632.738 578.13 Q636.731 578.13 639.057 579.953 Q641.383 581.759 641.383 584.849 Q641.383 587.002 640.151 588.495 Q638.918 589.97 636.644 590.543 Z" fill="#000000" fill-rule="evenodd" fill-opacity="1" /><path clip-path="url(#clip170)" d="M 0 0 M651.661 601.568 L663.901 601.568 L663.901 604.519 L647.442 604.519 L647.442 601.568 Q649.439 599.502 652.876 596.029 Q656.331 592.54 657.217 591.533 Q658.901 589.641 659.56 588.338 Q660.238 587.019 660.238 585.752 Q660.238 583.686 658.779 582.384 Q657.338 581.082 655.012 581.082 Q653.363 581.082 651.522 581.654 Q649.699 582.227 647.616 583.391 L647.616 579.849 Q649.734 578.998 651.574 578.564 Q653.415 578.13 654.942 578.13 Q658.97 578.13 661.366 580.144 Q663.762 582.158 663.762 585.526 Q663.762 587.123 663.154 588.564 Q662.564 589.988 660.984 591.932 Q660.55 592.436 658.224 594.849 Q655.897 597.245 651.661 601.568 Z" fill="#000000" fill-rule="evenodd" fill-opacity="1" /><path clip-path="url(#clip170)" d="M 0 0 M721.864 590.543 Q724.382 591.082 725.788 592.783 Q727.212 594.484 727.212 596.984 Q727.212 600.821 724.573 602.922 Q721.934 605.022 717.073 605.022 Q715.441 605.022 713.705 604.693 Q711.986 604.38 710.146 603.738 L710.146 600.352 Q711.604 601.203 713.34 601.637 Q715.076 602.071 716.969 602.071 Q720.267 602.071 721.986 600.769 Q723.722 599.467 723.722 596.984 Q723.722 594.693 722.107 593.408 Q720.51 592.106 717.646 592.106 L714.625 592.106 L714.625 589.224 L717.785 589.224 Q720.371 589.224 721.743 588.2 Q723.114 587.158 723.114 585.214 Q723.114 583.217 721.691 582.158 Q720.285 581.082 717.646 581.082 Q716.205 581.082 714.555 581.394 Q712.906 581.707 710.927 582.366 L710.927 579.241 Q712.923 578.686 714.66 578.408 Q716.413 578.13 717.958 578.13 Q721.951 578.13 724.278 579.953 Q726.604 581.759 726.604 584.849 Q726.604 587.002 725.371 588.495 Q724.139 589.97 721.864 590.543 Z" fill="#000000" fill-rule="evenodd" fill-opacity="1" /><path clip-path="url(#clip170)" d="M 0 0 M744.486 590.543 Q747.003 591.082 748.409 592.783 Q749.833 594.484 749.833 596.984 Q749.833 600.821 747.194 602.922 Q744.555 605.022 739.694 605.022 Q738.062 605.022 736.326 604.693 Q734.607 604.38 732.767 603.738 L732.767 600.352 Q734.225 601.203 735.962 601.637 Q737.698 602.071 739.59 602.071 Q742.889 602.071 744.607 600.769 Q746.343 599.467 746.343 596.984 Q746.343 594.693 744.729 593.408 Q743.132 592.106 740.267 592.106 L737.246 592.106 L737.246 589.224 L740.406 589.224 Q742.993 589.224 744.364 588.2 Q745.736 587.158 745.736 585.214 Q745.736 583.217 744.312 582.158 Q742.906 581.082 740.267 581.082 Q738.826 581.082 737.177 581.394 Q735.527 581.707 733.548 582.366 L733.548 579.241 Q735.545 578.686 737.281 578.408 Q739.034 578.13 740.58 578.13 Q744.573 578.13 746.899 579.953 Q749.225 581.759 749.225 584.849 Q749.225 587.002 747.993 588.495 Q746.76 589.97 744.486 590.543 Z" fill="#000000" fill-rule="evenodd" fill-opacity="1" /><circle clip-path="url(#clip172)" cx="241.433" cy="540.197" r="14" fill="#0000ff" fill-rule="evenodd" fill-opacity="1" stroke="none"/>
<circle clip-path="url(#clip172)" cx="198.823" cy="468.098" r="14" fill="#0000ff" fill-rule="evenodd" fill-opacity="1" stroke="none"/>
<circle clip-path="url(#clip172)" cx="284.043" cy="468.098" r="14" fill="#0000ff" fill-rule="evenodd" fill-opacity="1" stroke="none"/>
<circle clip-path="url(#clip172)" cx="113.602" cy="179.705" r="14" fill="#0000ff" fill-rule="evenodd" fill-opacity="1" stroke="none"/>
<circle clip-path="url(#clip172)" cx="113.602" cy="468.098" r="14" fill="#0000ff" fill-rule="evenodd" fill-opacity="1" stroke="none"/>
<circle clip-path="url(#clip172)" cx="156.213" cy="396" r="14" fill="#0000ff" fill-rule="evenodd" fill-opacity="1" stroke="none"/>
<circle clip-path="url(#clip172)" cx="113.602" cy="323.902" r="14" fill="#0000ff" fill-rule="evenodd" fill-opacity="1" stroke="none"/>
<circle clip-path="url(#clip172)" cx="198.823" cy="323.902" r="14" fill="#0000ff" fill-rule="evenodd" fill-opacity="1" stroke="none"/>
<circle clip-path="url(#clip172)" cx="326.654" cy="396" r="14" fill="#0000ff" fill-rule="evenodd" fill-opacity="1" stroke="none"/>
<circle clip-path="url(#clip172)" cx="284.043" cy="323.902" r="14" fill="#0000ff" fill-rule="evenodd" fill-opacity="1" stroke="none"/>
<circle clip-path="url(#clip172)" cx="369.264" cy="323.902" r="14" fill="#0000ff" fill-rule="evenodd" fill-opacity="1" stroke="none"/>
<path clip-path="url(#clip170)" d="M 0 0 M241.937 529.469 L247.666 529.469 L247.666 509.695 L241.433 510.945 L241.433 507.751 L247.631 506.501 L251.138 506.501 L251.138 529.469 L256.867 529.469 L256.867 532.421 L241.937 532.421 L241.937 529.469 Z" fill="#000000" fill-rule="evenodd" fill-opacity="1" /><path clip-path="url(#clip170)" d="M 0 0 M203.042 457.371 L215.281 457.371 L215.281 460.322 L198.823 460.322 L198.823 457.371 Q200.819 455.305 204.257 451.833 Q207.712 448.343 208.597 447.336 Q210.281 445.444 210.941 444.142 Q211.618 442.822 211.618 441.555 Q211.618 439.489 210.16 438.187 Q208.719 436.885 206.392 436.885 Q204.743 436.885 202.903 437.458 Q201.08 438.031 198.996 439.194 L198.996 435.652 Q201.114 434.802 202.955 434.368 Q204.795 433.934 206.323 433.934 Q210.351 433.934 212.746 435.947 Q215.142 437.961 215.142 441.329 Q215.142 442.927 214.535 444.368 Q213.944 445.791 212.364 447.736 Q211.93 448.239 209.604 450.652 Q207.278 453.048 203.042 457.371 Z" fill="#000000" fill-rule="evenodd" fill-opacity="1" /><path clip-path="url(#clip170)" d="M 0 0 M295.762 446.347 Q298.279 446.885 299.686 448.586 Q301.109 450.288 301.109 452.788 Q301.109 456.624 298.47 458.725 Q295.831 460.826 290.97 460.826 Q289.338 460.826 287.602 460.496 Q285.884 460.183 284.043 459.541 L284.043 456.156 Q285.502 457.006 287.238 457.44 Q288.974 457.874 290.866 457.874 Q294.165 457.874 295.884 456.572 Q297.62 455.27 297.62 452.788 Q297.62 450.496 296.005 449.211 Q294.408 447.909 291.543 447.909 L288.522 447.909 L288.522 445.027 L291.682 445.027 Q294.269 445.027 295.64 444.003 Q297.012 442.961 297.012 441.017 Q297.012 439.02 295.588 437.961 Q294.182 436.885 291.543 436.885 Q290.102 436.885 288.453 437.197 Q286.804 437.51 284.825 438.17 L284.825 435.045 Q286.821 434.489 288.557 434.211 Q290.311 433.934 291.856 433.934 Q295.849 433.934 298.175 435.756 Q300.502 437.562 300.502 440.652 Q300.502 442.805 299.269 444.298 Q298.036 445.774 295.762 446.347 Z" fill="#000000" fill-rule="evenodd" fill-opacity="1" /><path clip-path="url(#clip170)" d="M 0 0 M115.269 171.391 L115.269 168.196 Q116.588 168.821 117.943 169.151 Q119.297 169.481 120.599 169.481 Q124.071 169.481 125.894 167.155 Q127.734 164.811 127.995 160.054 Q126.988 161.547 125.443 162.346 Q123.897 163.144 122.022 163.144 Q118.134 163.144 115.859 160.801 Q113.602 158.44 113.602 154.36 Q113.602 150.367 115.963 147.953 Q118.325 145.54 122.248 145.54 Q126.745 145.54 129.106 148.995 Q131.484 152.433 131.484 158.995 Q131.484 165.124 128.568 168.787 Q125.668 172.433 120.755 172.433 Q119.436 172.433 118.082 172.172 Q116.727 171.912 115.269 171.391 M122.248 160.401 Q124.609 160.401 125.981 158.787 Q127.37 157.172 127.37 154.36 Q127.37 151.565 125.981 149.95 Q124.609 148.318 122.248 148.318 Q119.887 148.318 118.498 149.95 Q117.127 151.565 117.127 154.36 Q117.127 157.172 118.498 158.787 Q119.887 160.401 122.248 160.401 Z" fill="#000000" fill-rule="evenodd" fill-opacity="1" /><path clip-path="url(#clip170)" d="M 0 0 M71.4956 529.469 L77.2247 529.469 L77.2247 509.695 L70.9921 510.945 L70.9921 507.751 L77.19 506.501 L80.6969 506.501 L80.6969 529.469 L86.4261 529.469 L86.4261 532.421 L71.4956 532.421 L71.4956 529.469 Z" fill="#000000" fill-rule="evenodd" fill-opacity="1" /><path clip-path="url(#clip170)" d="M 0 0 M101.443 518.063 Q99.0823 518.063 97.6934 519.678 Q96.3219 521.292 96.3219 524.105 Q96.3219 526.9 97.6934 528.532 Q99.0823 530.146 101.443 530.146 Q103.804 530.146 105.176 528.532 Q106.565 526.9 106.565 524.105 Q106.565 521.292 105.176 519.678 Q103.804 518.063 101.443 518.063 M108.405 507.074 L108.405 510.268 Q107.086 509.643 105.732 509.313 Q104.395 508.983 103.075 508.983 Q99.6031 508.983 97.7628 511.327 Q95.9399 513.671 95.6795 518.41 Q96.7038 516.9 98.2489 516.101 Q99.7941 515.285 101.652 515.285 Q105.558 515.285 107.815 517.664 Q110.089 520.025 110.089 524.105 Q110.089 528.098 107.728 530.511 Q105.367 532.924 101.443 532.924 Q96.9468 532.924 94.5684 529.487 Q92.1899 526.032 92.1899 519.487 Q92.1899 513.341 95.1066 509.695 Q98.0232 506.032 102.936 506.032 Q104.256 506.032 105.593 506.292 Q106.947 506.553 108.405 507.074 Z" fill="#000000" fill-rule="evenodd" fill-opacity="1" /><path clip-path="url(#clip170)" d="M 0 0 M114.106 457.371 L119.835 457.371 L119.835 437.597 L113.602 438.847 L113.602 435.652 L119.8 434.402 L123.307 434.402 L123.307 457.371 L129.036 457.371 L129.036 460.322 L114.106 460.322 L114.106 457.371 Z" fill="#000000" fill-rule="evenodd" fill-opacity="1" /><path clip-path="url(#clip170)" d="M 0 0 M143.62 448.013 Q141.12 448.013 139.679 449.35 Q138.255 450.687 138.255 453.031 Q138.255 455.374 139.679 456.711 Q141.12 458.048 143.62 458.048 Q146.12 458.048 147.561 456.711 Q149.001 455.357 149.001 453.031 Q149.001 450.687 147.561 449.35 Q146.137 448.013 143.62 448.013 M140.113 446.52 Q137.856 445.965 136.588 444.42 Q135.338 442.874 135.338 440.652 Q135.338 437.545 137.543 435.739 Q139.765 433.934 143.62 433.934 Q147.491 433.934 149.696 435.739 Q151.901 437.545 151.901 440.652 Q151.901 442.874 150.633 444.42 Q149.383 445.965 147.144 446.52 Q149.679 447.111 151.085 448.829 Q152.508 450.548 152.508 453.031 Q152.508 456.798 150.199 458.812 Q147.908 460.826 143.62 460.826 Q139.331 460.826 137.022 458.812 Q134.731 456.798 134.731 453.031 Q134.731 450.548 136.154 448.829 Q137.578 447.111 140.113 446.52 M138.828 440.982 Q138.828 442.996 140.078 444.124 Q141.345 445.253 143.62 445.253 Q145.876 445.253 147.144 444.124 Q148.429 442.996 148.429 440.982 Q148.429 438.968 147.144 437.84 Q145.876 436.711 143.62 436.711 Q141.345 436.711 140.078 437.84 Q138.828 438.968 138.828 440.982 Z" fill="#000000" fill-rule="evenodd" fill-opacity="1" /><path clip-path="url(#clip170)" d="M 0 0 M167.931 374.248 Q170.449 374.787 171.855 376.488 Q173.278 378.189 173.278 380.689 Q173.278 384.526 170.64 386.627 Q168.001 388.727 163.14 388.727 Q161.508 388.727 159.772 388.398 Q158.053 388.085 156.213 387.443 L156.213 384.057 Q157.671 384.908 159.407 385.342 Q161.143 385.776 163.035 385.776 Q166.334 385.776 168.053 384.474 Q169.789 383.172 169.789 380.689 Q169.789 378.398 168.174 377.113 Q166.577 375.811 163.713 375.811 L160.692 375.811 L160.692 372.929 L163.851 372.929 Q166.438 372.929 167.81 371.905 Q169.181 370.863 169.181 368.919 Q169.181 366.922 167.758 365.863 Q166.351 364.787 163.713 364.787 Q162.272 364.787 160.622 365.099 Q158.973 365.412 156.994 366.071 L156.994 362.946 Q158.99 362.391 160.726 362.113 Q162.48 361.835 164.025 361.835 Q168.018 361.835 170.344 363.658 Q172.671 365.464 172.671 368.554 Q172.671 370.707 171.438 372.2 Q170.206 373.675 167.931 374.248 Z" fill="#000000" fill-rule="evenodd" fill-opacity="1" /><path clip-path="url(#clip170)" d="M 0 0 M180.535 385.273 L186.265 385.273 L186.265 365.498 L180.032 366.748 L180.032 363.554 L186.23 362.304 L189.737 362.304 L189.737 385.273 L195.466 385.273 L195.466 388.224 L180.535 388.224 L180.535 385.273 Z" fill="#000000" fill-rule="evenodd" fill-opacity="1" /><path clip-path="url(#clip170)" d="M 0 0 M125.321 302.15 Q127.838 302.688 129.245 304.39 Q130.668 306.091 130.668 308.591 Q130.668 312.428 128.029 314.528 Q125.39 316.629 120.529 316.629 Q118.897 316.629 117.161 316.299 Q115.443 315.987 113.602 315.344 L113.602 311.959 Q115.061 312.81 116.797 313.244 Q118.533 313.678 120.425 313.678 Q123.724 313.678 125.443 312.376 Q127.179 311.074 127.179 308.591 Q127.179 306.299 125.564 305.015 Q123.967 303.713 121.102 303.713 L118.082 303.713 L118.082 300.831 L121.241 300.831 Q123.828 300.831 125.2 299.806 Q126.571 298.765 126.571 296.82 Q126.571 294.824 125.147 293.765 Q123.741 292.688 121.102 292.688 Q119.661 292.688 118.012 293.001 Q116.363 293.313 114.384 293.973 L114.384 290.848 Q116.38 290.292 118.116 290.015 Q119.87 289.737 121.415 289.737 Q125.408 289.737 127.734 291.56 Q130.061 293.365 130.061 296.456 Q130.061 298.608 128.828 300.101 Q127.595 301.577 125.321 302.15 Z" fill="#000000" fill-rule="evenodd" fill-opacity="1" /><path clip-path="url(#clip170)" d="M 0 0 M140.338 313.174 L152.578 313.174 L152.578 316.126 L136.12 316.126 L136.12 313.174 Q138.116 311.108 141.554 307.636 Q145.008 304.147 145.894 303.14 Q147.578 301.247 148.238 299.945 Q148.915 298.626 148.915 297.358 Q148.915 295.292 147.456 293.99 Q146.015 292.688 143.689 292.688 Q142.04 292.688 140.199 293.261 Q138.377 293.834 136.293 294.997 L136.293 291.456 Q138.411 290.605 140.252 290.171 Q142.092 289.737 143.62 289.737 Q147.647 289.737 150.043 291.751 Q152.439 293.765 152.439 297.133 Q152.439 298.73 151.831 300.171 Q151.241 301.595 149.661 303.539 Q149.227 304.042 146.901 306.456 Q144.574 308.851 140.338 313.174 Z" fill="#000000" fill-rule="evenodd" fill-opacity="1" /><path clip-path="url(#clip170)" d="M 0 0 M210.542 302.15 Q213.059 302.688 214.465 304.39 Q215.889 306.091 215.889 308.591 Q215.889 312.428 213.25 314.528 Q210.611 316.629 205.75 316.629 Q204.118 316.629 202.382 316.299 Q200.663 315.987 198.823 315.344 L198.823 311.959 Q200.281 312.81 202.017 313.244 Q203.753 313.678 205.646 313.678 Q208.944 313.678 210.663 312.376 Q212.399 311.074 212.399 308.591 Q212.399 306.299 210.785 305.015 Q209.187 303.713 206.323 303.713 L203.302 303.713 L203.302 300.831 L206.462 300.831 Q209.048 300.831 210.42 299.806 Q211.792 298.765 211.792 296.82 Q211.792 294.824 210.368 293.765 Q208.962 292.688 206.323 292.688 Q204.882 292.688 203.233 293.001 Q201.583 293.313 199.604 293.973 L199.604 290.848 Q201.601 290.292 203.337 290.015 Q205.09 289.737 206.635 289.737 Q210.628 289.737 212.955 291.56 Q215.281 293.365 215.281 296.456 Q215.281 298.608 214.048 300.101 Q212.816 301.577 210.542 302.15 Z" fill="#000000" fill-rule="evenodd" fill-opacity="1" /><path clip-path="url(#clip170)" d="M 0 0 M233.163 302.15 Q235.68 302.688 237.087 304.39 Q238.51 306.091 238.51 308.591 Q238.51 312.428 235.871 314.528 Q233.232 316.629 228.371 316.629 Q226.739 316.629 225.003 316.299 Q223.285 315.987 221.444 315.344 L221.444 311.959 Q222.903 312.81 224.639 313.244 Q226.375 313.678 228.267 313.678 Q231.566 313.678 233.284 312.376 Q235.021 311.074 235.021 308.591 Q235.021 306.299 233.406 305.015 Q231.809 303.713 228.944 303.713 L225.923 303.713 L225.923 300.831 L229.083 300.831 Q231.67 300.831 233.041 299.806 Q234.413 298.765 234.413 296.82 Q234.413 294.824 232.989 293.765 Q231.583 292.688 228.944 292.688 Q227.503 292.688 225.854 293.001 Q224.205 293.313 222.225 293.973 L222.225 290.848 Q224.222 290.292 225.958 290.015 Q227.712 289.737 229.257 289.737 Q233.25 289.737 235.576 291.56 Q237.902 293.365 237.902 296.456 Q237.902 298.608 236.67 300.101 Q235.437 301.577 233.163 302.15 Z" fill="#000000" fill-rule="evenodd" fill-opacity="1" /><path clip-path="url(#clip170)" d="M 0 0 M338.372 374.248 Q340.89 374.787 342.296 376.488 Q343.719 378.189 343.719 380.689 Q343.719 384.526 341.081 386.627 Q338.442 388.727 333.581 388.727 Q331.949 388.727 330.213 388.398 Q328.494 388.085 326.654 387.443 L326.654 384.057 Q328.112 384.908 329.848 385.342 Q331.584 385.776 333.476 385.776 Q336.775 385.776 338.494 384.474 Q340.23 383.172 340.23 380.689 Q340.23 378.398 338.615 377.113 Q337.018 375.811 334.154 375.811 L331.133 375.811 L331.133 372.929 L334.292 372.929 Q336.879 372.929 338.251 371.905 Q339.622 370.863 339.622 368.919 Q339.622 366.922 338.199 365.863 Q336.792 364.787 334.154 364.787 Q332.713 364.787 331.063 365.099 Q329.414 365.412 327.435 366.071 L327.435 362.946 Q329.431 362.391 331.167 362.113 Q332.921 361.835 334.466 361.835 Q338.459 361.835 340.785 363.658 Q343.112 365.464 343.112 368.554 Q343.112 370.707 341.879 372.2 Q340.647 373.675 338.372 374.248 Z" fill="#000000" fill-rule="evenodd" fill-opacity="1" /><path clip-path="url(#clip170)" d="M 0 0 M360.004 365.36 L351.15 379.196 L360.004 379.196 L360.004 365.36 M359.084 362.304 L363.494 362.304 L363.494 379.196 L367.192 379.196 L367.192 382.113 L363.494 382.113 L363.494 388.224 L360.004 388.224 L360.004 382.113 L348.303 382.113 L348.303 378.728 L359.084 362.304 Z" fill="#000000" fill-rule="evenodd" fill-opacity="1" /><path clip-path="url(#clip170)" d="M 0 0 M295.762 302.15 Q298.279 302.688 299.686 304.39 Q301.109 306.091 301.109 308.591 Q301.109 312.428 298.47 314.528 Q295.831 316.629 290.97 316.629 Q289.338 316.629 287.602 316.299 Q285.884 315.987 284.043 315.344 L284.043 311.959 Q285.502 312.81 287.238 313.244 Q288.974 313.678 290.866 313.678 Q294.165 313.678 295.884 312.376 Q297.62 311.074 297.62 308.591 Q297.62 306.299 296.005 305.015 Q294.408 303.713 291.543 303.713 L288.522 303.713 L288.522 300.831 L291.682 300.831 Q294.269 300.831 295.64 299.806 Q297.012 298.765 297.012 296.82 Q297.012 294.824 295.588 293.765 Q294.182 292.688 291.543 292.688 Q290.102 292.688 288.453 293.001 Q286.804 293.313 284.825 293.973 L284.825 290.848 Q286.821 290.292 288.557 290.015 Q290.311 289.737 291.856 289.737 Q295.849 289.737 298.175 291.56 Q300.502 293.365 300.502 296.456 Q300.502 298.608 299.269 300.101 Q298.036 301.577 295.762 302.15 Z" fill="#000000" fill-rule="evenodd" fill-opacity="1" /><path clip-path="url(#clip170)" d="M 0 0 M307.793 290.206 L321.56 290.206 L321.56 293.157 L311.005 293.157 L311.005 299.511 Q311.769 299.251 312.533 299.129 Q313.297 298.99 314.061 298.99 Q318.401 298.99 320.935 301.369 Q323.47 303.747 323.47 307.81 Q323.47 311.994 320.866 314.32 Q318.262 316.629 313.522 316.629 Q311.89 316.629 310.189 316.351 Q308.505 316.074 306.699 315.518 L306.699 311.994 Q308.262 312.844 309.929 313.261 Q311.595 313.678 313.453 313.678 Q316.456 313.678 318.21 312.098 Q319.963 310.518 319.963 307.81 Q319.963 305.101 318.21 303.522 Q316.456 301.942 313.453 301.942 Q312.047 301.942 310.64 302.254 Q309.252 302.567 307.793 303.226 L307.793 290.206 Z" fill="#000000" fill-rule="evenodd" fill-opacity="1" /><path clip-path="url(#clip170)" d="M 0 0 M380.982 302.15 Q383.5 302.688 384.906 304.39 Q386.33 306.091 386.33 308.591 Q386.33 312.428 383.691 314.528 Q381.052 316.629 376.191 316.629 Q374.559 316.629 372.823 316.299 Q371.104 315.987 369.264 315.344 L369.264 311.959 Q370.722 312.81 372.458 313.244 Q374.194 313.678 376.087 313.678 Q379.385 313.678 381.104 312.376 Q382.84 311.074 382.84 308.591 Q382.84 306.299 381.226 305.015 Q379.628 303.713 376.764 303.713 L373.743 303.713 L373.743 300.831 L376.903 300.831 Q379.489 300.831 380.861 299.806 Q382.232 298.765 382.232 296.82 Q382.232 294.824 380.809 293.765 Q379.403 292.688 376.764 292.688 Q375.323 292.688 373.673 293.001 Q372.024 293.313 370.045 293.973 L370.045 290.848 Q372.042 290.292 373.778 290.015 Q375.531 289.737 377.076 289.737 Q381.069 289.737 383.396 291.56 Q385.722 293.365 385.722 296.456 Q385.722 298.608 384.489 300.101 Q383.257 301.577 380.982 302.15 Z" fill="#000000" fill-rule="evenodd" fill-opacity="1" /><path clip-path="url(#clip170)" d="M 0 0 M400.913 301.768 Q398.552 301.768 397.163 303.383 Q395.791 304.997 395.791 307.81 Q395.791 310.605 397.163 312.237 Q398.552 313.851 400.913 313.851 Q403.274 313.851 404.646 312.237 Q406.034 310.605 406.034 307.81 Q406.034 304.997 404.646 303.383 Q403.274 301.768 400.913 301.768 M407.875 290.779 L407.875 293.973 Q406.555 293.348 405.201 293.018 Q403.864 292.688 402.545 292.688 Q399.073 292.688 397.232 295.032 Q395.409 297.376 395.149 302.115 Q396.173 300.605 397.718 299.806 Q399.264 298.99 401.121 298.99 Q405.027 298.99 407.284 301.369 Q409.559 303.73 409.559 307.81 Q409.559 311.803 407.198 314.216 Q404.837 316.629 400.913 316.629 Q396.416 316.629 394.038 313.192 Q391.659 309.737 391.659 303.192 Q391.659 297.046 394.576 293.4 Q397.493 289.737 402.406 289.737 Q403.725 289.737 405.062 289.997 Q406.416 290.258 407.875 290.779 Z" fill="#000000" fill-rule="evenodd" fill-opacity="1" /><circle clip-path="url(#clip172)" cx="752.756" cy="540.197" r="14" fill="#0000ff" fill-rule="evenodd" fill-opacity="1" stroke="none"/>
<circle clip-path="url(#clip172)" cx="710.146" cy="468.098" r="14" fill="#0000ff" fill-rule="evenodd" fill-opacity="1" stroke="none"/>
<circle clip-path="url(#clip172)" cx="667.535" cy="396" r="14" fill="#0000ff" fill-rule="evenodd" fill-opacity="1" stroke="none"/>
<circle clip-path="url(#clip172)" cx="624.925" cy="323.902" r="14" fill="#0000ff" fill-rule="evenodd" fill-opacity="1" stroke="none"/>
<circle clip-path="url(#clip172)" cx="710.146" cy="323.902" r="14" fill="#0000ff" fill-rule="evenodd" fill-opacity="1" stroke="none"/>
<path clip-path="url(#clip170)" d="M 0 0 M753.259 529.469 L758.989 529.469 L758.989 509.695 L752.756 510.945 L752.756 507.751 L758.954 506.501 L762.461 506.501 L762.461 529.469 L768.19 529.469 L768.19 532.421 L753.259 532.421 L753.259 529.469 Z" fill="#000000" fill-rule="evenodd" fill-opacity="1" /><path clip-path="url(#clip170)" d="M 0 0 M782.773 508.81 Q780.065 508.81 778.693 511.483 Q777.339 514.139 777.339 519.487 Q777.339 524.817 778.693 527.49 Q780.065 530.146 782.773 530.146 Q785.499 530.146 786.853 527.49 Q788.224 524.817 788.224 519.487 Q788.224 514.139 786.853 511.483 Q785.499 508.81 782.773 508.81 M782.773 506.032 Q787.131 506.032 789.422 509.487 Q791.731 512.924 791.731 519.487 Q791.731 526.032 789.422 529.487 Q787.131 532.924 782.773 532.924 Q778.415 532.924 776.106 529.487 Q773.815 526.032 773.815 519.487 Q773.815 512.924 776.106 509.487 Q778.415 506.032 782.773 506.032 Z" fill="#000000" fill-rule="evenodd" fill-opacity="1" /><path clip-path="url(#clip170)" d="M 0 0 M710.649 457.371 L716.378 457.371 L716.378 437.597 L710.146 438.847 L710.146 435.652 L716.344 434.402 L719.85 434.402 L719.85 457.371 L725.58 457.371 L725.58 460.322 L710.649 460.322 L710.649 457.371 Z" fill="#000000" fill-rule="evenodd" fill-opacity="1" /><path clip-path="url(#clip170)" d="M 0 0 M733.271 457.371 L739 457.371 L739 437.597 L732.767 438.847 L732.767 435.652 L738.965 434.402 L742.472 434.402 L742.472 457.371 L748.201 457.371 L748.201 460.322 L733.271 460.322 L733.271 457.371 Z" fill="#000000" fill-rule="evenodd" fill-opacity="1" /><path clip-path="url(#clip170)" d="M 0 0 M671.754 385.273 L683.994 385.273 L683.994 388.224 L667.535 388.224 L667.535 385.273 Q669.532 383.207 672.969 379.734 Q676.424 376.245 677.31 375.238 Q678.994 373.346 679.653 372.044 Q680.331 370.724 680.331 369.457 Q680.331 367.391 678.872 366.089 Q677.431 364.787 675.105 364.787 Q673.456 364.787 671.615 365.36 Q669.792 365.932 667.709 367.096 L667.709 363.554 Q669.827 362.703 671.667 362.269 Q673.508 361.835 675.035 361.835 Q679.063 361.835 681.459 363.849 Q683.855 365.863 683.855 369.231 Q683.855 370.828 683.247 372.269 Q682.657 373.693 681.077 375.637 Q680.643 376.141 678.317 378.554 Q675.99 380.95 671.754 385.273 Z" fill="#000000" fill-rule="evenodd" fill-opacity="1" /><path clip-path="url(#clip170)" d="M 0 0 M694.376 385.273 L706.615 385.273 L706.615 388.224 L690.157 388.224 L690.157 385.273 Q692.153 383.207 695.591 379.734 Q699.046 376.245 699.931 375.238 Q701.615 373.346 702.275 372.044 Q702.952 370.724 702.952 369.457 Q702.952 367.391 701.494 366.089 Q700.053 364.787 697.726 364.787 Q696.077 364.787 694.237 365.36 Q692.414 365.932 690.33 367.096 L690.33 363.554 Q692.448 362.703 694.289 362.269 Q696.129 361.835 697.657 361.835 Q701.685 361.835 704.08 363.849 Q706.476 365.863 706.476 369.231 Q706.476 370.828 705.869 372.269 Q705.278 373.693 703.698 375.637 Q703.264 376.141 700.938 378.554 Q698.612 380.95 694.376 385.273 Z" fill="#000000" fill-rule="evenodd" fill-opacity="1" /><path clip-path="url(#clip170)" d="M 0 0 M629.144 313.174 L641.383 313.174 L641.383 316.126 L624.925 316.126 L624.925 313.174 Q626.922 311.108 630.359 307.636 Q633.814 304.147 634.699 303.14 Q636.383 301.247 637.043 299.945 Q637.72 298.626 637.72 297.358 Q637.72 295.292 636.262 293.99 Q634.821 292.688 632.495 292.688 Q630.845 292.688 629.005 293.261 Q627.182 293.834 625.099 294.997 L625.099 291.456 Q627.217 290.605 629.057 290.171 Q630.897 289.737 632.425 289.737 Q636.453 289.737 638.849 291.751 Q641.245 293.765 641.245 297.133 Q641.245 298.73 640.637 300.171 Q640.047 301.595 638.467 303.539 Q638.033 304.042 635.706 306.456 Q633.38 308.851 629.144 313.174 Z" fill="#000000" fill-rule="evenodd" fill-opacity="1" /><path clip-path="url(#clip170)" d="M 0 0 M659.369 302.15 Q661.887 302.688 663.293 304.39 Q664.717 306.091 664.717 308.591 Q664.717 312.428 662.078 314.528 Q659.439 316.629 654.578 316.629 Q652.946 316.629 651.21 316.299 Q649.491 315.987 647.651 315.344 L647.651 311.959 Q649.109 312.81 650.845 313.244 Q652.581 313.678 654.474 313.678 Q657.772 313.678 659.491 312.376 Q661.227 311.074 661.227 308.591 Q661.227 306.299 659.613 305.015 Q658.015 303.713 655.151 303.713 L652.13 303.713 L652.13 300.831 L655.29 300.831 Q657.876 300.831 659.248 299.806 Q660.619 298.765 660.619 296.82 Q660.619 294.824 659.196 293.765 Q657.79 292.688 655.151 292.688 Q653.71 292.688 652.06 293.001 Q650.411 293.313 648.432 293.973 L648.432 290.848 Q650.429 290.292 652.165 290.015 Q653.918 289.737 655.463 289.737 Q659.456 289.737 661.783 291.56 Q664.109 293.365 664.109 296.456 Q664.109 298.608 662.876 300.101 Q661.644 301.577 659.369 302.15 Z" fill="#000000" fill-rule="evenodd" fill-opacity="1" /><path clip-path="url(#clip170)" d="M 0 0 M714.364 313.174 L726.604 313.174 L726.604 316.126 L710.146 316.126 L710.146 313.174 Q712.142 311.108 715.58 307.636 Q719.035 304.147 719.92 303.14 Q721.604 301.247 722.264 299.945 Q722.941 298.626 722.941 297.358 Q722.941 295.292 721.482 293.99 Q720.041 292.688 717.715 292.688 Q716.066 292.688 714.226 293.261 Q712.403 293.834 710.319 294.997 L710.319 291.456 Q712.437 290.605 714.278 290.171 Q716.118 289.737 717.646 289.737 Q721.673 289.737 724.069 291.751 Q726.465 293.765 726.465 297.133 Q726.465 298.73 725.857 300.171 Q725.267 301.595 723.687 303.539 Q723.253 304.042 720.927 306.456 Q718.6 308.851 714.364 313.174 Z" fill="#000000" fill-rule="evenodd" fill-opacity="1" /><path clip-path="url(#clip170)" d="M 0 0 M743.6 293.261 L734.746 307.098 L743.6 307.098 L743.6 293.261 M742.68 290.206 L747.09 290.206 L747.09 307.098 L750.788 307.098 L750.788 310.015 L747.09 310.015 L747.09 316.126 L743.6 316.126 L743.6 310.015 L731.899 310.015 L731.899 306.629 L742.68 290.206 Z" fill="#000000" fill-rule="evenodd" fill-opacity="1" /><circle clip-path="url(#clip172)" cx="752.756" cy="251.803" r="14" fill="#0000ff" fill-rule="evenodd" fill-opacity="1" stroke="none"/>
<circle clip-path="url(#clip172)" cx="710.146" cy="179.705" r="14" fill="#0000ff" fill-rule="evenodd" fill-opacity="1" stroke="none"/>
<circle clip-path="url(#clip172)" cx="241.433" cy="251.803" r="14" fill="#0000ff" fill-rule="evenodd" fill-opacity="1" stroke="none"/>
<circle clip-path="url(#clip172)" cx="198.823" cy="179.705" r="14" fill="#0000ff" fill-rule="evenodd" fill-opacity="1" stroke="none"/>
<circle clip-path="url(#clip172)" cx="284.043" cy="179.705" r="14" fill="#0000ff" fill-rule="evenodd" fill-opacity="1" stroke="none"/>
<circle clip-path="url(#clip172)" cx="411.874" cy="251.803" r="14" fill="#0000ff" fill-rule="evenodd" fill-opacity="1" stroke="none"/>
<circle clip-path="url(#clip172)" cx="369.264" cy="179.705" r="14" fill="#0000ff" fill-rule="evenodd" fill-opacity="1" stroke="none"/>
<circle clip-path="url(#clip172)" cx="454.484" cy="179.705" r="14" fill="#0000ff" fill-rule="evenodd" fill-opacity="1" stroke="none"/>
<circle clip-path="url(#clip172)" cx="582.315" cy="251.803" r="14" fill="#0000ff" fill-rule="evenodd" fill-opacity="1" stroke="none"/>
<circle clip-path="url(#clip172)" cx="539.705" cy="179.705" r="14" fill="#0000ff" fill-rule="evenodd" fill-opacity="1" stroke="none"/>
<circle clip-path="url(#clip172)" cx="624.925" cy="179.705" r="14" fill="#0000ff" fill-rule="evenodd" fill-opacity="1" stroke="none"/>
<circle clip-path="url(#clip172)" cx="497.094" cy="396" r="14" fill="#0000ff" fill-rule="evenodd" fill-opacity="1" stroke="none"/>
<circle clip-path="url(#clip172)" cx="454.484" cy="323.902" r="14" fill="#0000ff" fill-rule="evenodd" fill-opacity="1" stroke="none"/>
<circle clip-path="url(#clip172)" cx="539.705" cy="323.902" r="14" fill="#0000ff" fill-rule="evenodd" fill-opacity="1" stroke="none"/>
<circle clip-path="url(#clip172)" cx="156.213" cy="107.607" r="14" fill="#0000ff" fill-rule="evenodd" fill-opacity="1" stroke="none"/>
<circle clip-path="url(#clip172)" cx="326.654" cy="107.607" r="14" fill="#0000ff" fill-rule="evenodd" fill-opacity="1" stroke="none"/>
<circle clip-path="url(#clip172)" cx="497.094" cy="107.607" r="14" fill="#0000ff" fill-rule="evenodd" fill-opacity="1" stroke="none"/>
<circle clip-path="url(#clip172)" cx="667.535" cy="107.607" r="14" fill="#0000ff" fill-rule="evenodd" fill-opacity="1" stroke="none"/>
<path clip-path="url(#clip170)" d="M 0 0 M753.259 241.076 L758.989 241.076 L758.989 221.302 L752.756 222.552 L752.756 219.357 L758.954 218.107 L762.461 218.107 L762.461 241.076 L768.19 241.076 L768.19 244.027 L753.259 244.027 L753.259 241.076 Z" fill="#000000" fill-rule="evenodd" fill-opacity="1" /><path clip-path="url(#clip170)" d="M 0 0 M714.364 168.978 L726.604 168.978 L726.604 171.929 L710.146 171.929 L710.146 168.978 Q712.142 166.912 715.58 163.44 Q719.035 159.95 719.92 158.943 Q721.604 157.051 722.264 155.749 Q722.941 154.429 722.941 153.162 Q722.941 151.096 721.482 149.794 Q720.041 148.492 717.715 148.492 Q716.066 148.492 714.226 149.065 Q712.403 149.637 710.319 150.801 L710.319 147.259 Q712.437 146.408 714.278 145.974 Q716.118 145.54 717.646 145.54 Q721.673 145.54 724.069 147.554 Q726.465 149.568 726.465 152.936 Q726.465 154.533 725.857 155.974 Q725.267 157.398 723.687 159.342 Q723.253 159.846 720.927 162.259 Q718.6 164.655 714.364 168.978 Z" fill="#000000" fill-rule="evenodd" fill-opacity="1" /><path clip-path="url(#clip170)" d="M 0 0 M241.937 241.076 L247.666 241.076 L247.666 221.302 L241.433 222.552 L241.433 219.357 L247.631 218.107 L251.138 218.107 L251.138 241.076 L256.867 241.076 L256.867 244.027 L241.937 244.027 L241.937 241.076 Z" fill="#000000" fill-rule="evenodd" fill-opacity="1" /><path clip-path="url(#clip170)" d="M 0 0 M271.45 220.416 Q268.742 220.416 267.37 223.09 Q266.016 225.746 266.016 231.093 Q266.016 236.423 267.37 239.097 Q268.742 241.753 271.45 241.753 Q274.176 241.753 275.53 239.097 Q276.902 236.423 276.902 231.093 Q276.902 225.746 275.53 223.09 Q274.176 220.416 271.45 220.416 M271.45 217.639 Q275.808 217.639 278.1 221.093 Q280.409 224.531 280.409 231.093 Q280.409 237.639 278.1 241.093 Q275.808 244.531 271.45 244.531 Q267.093 244.531 264.784 241.093 Q262.492 237.639 262.492 231.093 Q262.492 224.531 264.784 221.093 Q267.093 217.639 271.45 217.639 Z" fill="#000000" fill-rule="evenodd" fill-opacity="1" /><path clip-path="url(#clip170)" d="M 0 0 M199.326 168.978 L205.055 168.978 L205.055 149.203 L198.823 150.453 L198.823 147.259 L205.021 146.009 L208.528 146.009 L208.528 168.978 L214.257 168.978 L214.257 171.929 L199.326 171.929 L199.326 168.978 Z" fill="#000000" fill-rule="evenodd" fill-opacity="1" /><path clip-path="url(#clip170)" d="M 0 0 M221.948 168.978 L227.677 168.978 L227.677 149.203 L221.444 150.453 L221.444 147.259 L227.642 146.009 L231.149 146.009 L231.149 168.978 L236.878 168.978 L236.878 171.929 L221.948 171.929 L221.948 168.978 Z" fill="#000000" fill-rule="evenodd" fill-opacity="1" /><path clip-path="url(#clip170)" d="M 0 0 M284.547 168.978 L290.276 168.978 L290.276 149.203 L284.043 150.453 L284.043 147.259 L290.241 146.009 L293.748 146.009 L293.748 168.978 L299.477 168.978 L299.477 171.929 L284.547 171.929 L284.547 168.978 Z" fill="#000000" fill-rule="evenodd" fill-opacity="1" /><path clip-path="url(#clip170)" d="M 0 0 M309.581 168.978 L321.821 168.978 L321.821 171.929 L305.363 171.929 L305.363 168.978 Q307.359 166.912 310.797 163.44 Q314.251 159.95 315.137 158.943 Q316.821 157.051 317.481 155.749 Q318.158 154.429 318.158 153.162 Q318.158 151.096 316.699 149.794 Q315.258 148.492 312.932 148.492 Q311.283 148.492 309.442 149.065 Q307.62 149.637 305.536 150.801 L305.536 147.259 Q307.654 146.408 309.495 145.974 Q311.335 145.54 312.863 145.54 Q316.89 145.54 319.286 147.554 Q321.682 149.568 321.682 152.936 Q321.682 154.533 321.074 155.974 Q320.484 157.398 318.904 159.342 Q318.47 159.846 316.144 162.259 Q313.817 164.655 309.581 168.978 Z" fill="#000000" fill-rule="evenodd" fill-opacity="1" /><path clip-path="url(#clip170)" d="M 0 0 M412.377 241.076 L418.107 241.076 L418.107 221.302 L411.874 222.552 L411.874 219.357 L418.072 218.107 L421.579 218.107 L421.579 241.076 L427.308 241.076 L427.308 244.027 L412.377 244.027 L412.377 241.076 Z" fill="#000000" fill-rule="evenodd" fill-opacity="1" /><path clip-path="url(#clip170)" d="M 0 0 M445.016 230.052 Q447.534 230.59 448.94 232.291 Q450.363 233.993 450.363 236.493 Q450.363 240.329 447.725 242.43 Q445.086 244.531 440.225 244.531 Q438.593 244.531 436.857 244.201 Q435.138 243.888 433.298 243.246 L433.298 239.861 Q434.756 240.711 436.492 241.145 Q438.228 241.579 440.12 241.579 Q443.419 241.579 445.138 240.277 Q446.874 238.975 446.874 236.493 Q446.874 234.201 445.259 232.916 Q443.662 231.614 440.797 231.614 L437.777 231.614 L437.777 228.732 L440.936 228.732 Q443.523 228.732 444.895 227.708 Q446.266 226.666 446.266 224.722 Q446.266 222.725 444.843 221.666 Q443.436 220.59 440.797 220.59 Q439.357 220.59 437.707 220.902 Q436.058 221.215 434.079 221.875 L434.079 218.75 Q436.075 218.194 437.811 217.916 Q439.565 217.639 441.11 217.639 Q445.103 217.639 447.429 219.462 Q449.756 221.267 449.756 224.357 Q449.756 226.51 448.523 228.003 Q447.29 229.479 445.016 230.052 Z" fill="#000000" fill-rule="evenodd" fill-opacity="1" /><path clip-path="url(#clip170)" d="M 0 0 M369.767 168.978 L375.496 168.978 L375.496 149.203 L369.264 150.453 L369.264 147.259 L375.462 146.009 L378.969 146.009 L378.969 168.978 L384.698 168.978 L384.698 171.929 L369.767 171.929 L369.767 168.978 Z" fill="#000000" fill-rule="evenodd" fill-opacity="1" /><path clip-path="url(#clip170)" d="M 0 0 M401.416 149.065 L392.562 162.901 L401.416 162.901 L401.416 149.065 M400.496 146.009 L404.906 146.009 L404.906 162.901 L408.604 162.901 L408.604 165.818 L404.906 165.818 L404.906 171.929 L401.416 171.929 L401.416 165.818 L389.715 165.818 L389.715 162.433 L400.496 146.009 Z" fill="#000000" fill-rule="evenodd" fill-opacity="1" /><path clip-path="url(#clip170)" d="M 0 0 M454.988 168.978 L460.717 168.978 L460.717 149.203 L454.484 150.453 L454.484 147.259 L460.682 146.009 L464.189 146.009 L464.189 168.978 L469.918 168.978 L469.918 171.929 L454.988 171.929 L454.988 168.978 Z" fill="#000000" fill-rule="evenodd" fill-opacity="1" /><path clip-path="url(#clip170)" d="M 0 0 M477.036 146.009 L490.804 146.009 L490.804 148.96 L480.248 148.96 L480.248 155.315 Q481.012 155.054 481.776 154.933 Q482.54 154.794 483.304 154.794 Q487.644 154.794 490.179 157.172 Q492.713 159.551 492.713 163.613 Q492.713 167.797 490.109 170.123 Q487.505 172.433 482.765 172.433 Q481.133 172.433 479.432 172.155 Q477.748 171.877 475.942 171.321 L475.942 167.797 Q477.505 168.648 479.172 169.064 Q480.838 169.481 482.696 169.481 Q485.699 169.481 487.453 167.901 Q489.206 166.321 489.206 163.613 Q489.206 160.905 487.453 159.325 Q485.699 157.745 482.696 157.745 Q481.29 157.745 479.883 158.058 Q478.495 158.37 477.036 159.03 L477.036 146.009 Z" fill="#000000" fill-rule="evenodd" fill-opacity="1" /><path clip-path="url(#clip170)" d="M 0 0 M582.818 241.076 L588.548 241.076 L588.548 221.302 L582.315 222.552 L582.315 219.357 L588.513 218.107 L592.02 218.107 L592.02 241.076 L597.749 241.076 L597.749 244.027 L582.818 244.027 L582.818 241.076 Z" fill="#000000" fill-rule="evenodd" fill-opacity="1" /><path clip-path="url(#clip170)" d="M 0 0 M612.766 229.67 Q610.405 229.67 609.016 231.284 Q607.645 232.899 607.645 235.711 Q607.645 238.507 609.016 240.138 Q610.405 241.753 612.766 241.753 Q615.127 241.753 616.499 240.138 Q617.888 238.507 617.888 235.711 Q617.888 232.899 616.499 231.284 Q615.127 229.67 612.766 229.67 M619.728 218.68 L619.728 221.875 Q618.409 221.25 617.054 220.92 Q615.718 220.59 614.398 220.59 Q610.926 220.59 609.086 222.934 Q607.263 225.277 607.002 230.017 Q608.027 228.507 609.572 227.708 Q611.117 226.892 612.975 226.892 Q616.881 226.892 619.138 229.27 Q621.412 231.632 621.412 235.711 Q621.412 239.704 619.051 242.118 Q616.69 244.531 612.766 244.531 Q608.27 244.531 605.891 241.093 Q603.513 237.639 603.513 231.093 Q603.513 224.948 606.429 221.302 Q609.346 217.639 614.259 217.639 Q615.579 217.639 616.915 217.899 Q618.27 218.159 619.728 218.68 Z" fill="#000000" fill-rule="evenodd" fill-opacity="1" /><path clip-path="url(#clip170)" d="M 0 0 M540.208 168.978 L545.937 168.978 L545.937 149.203 L539.705 150.453 L539.705 147.259 L545.903 146.009 L549.41 146.009 L549.41 168.978 L555.139 168.978 L555.139 171.929 L540.208 171.929 L540.208 168.978 Z" fill="#000000" fill-rule="evenodd" fill-opacity="1" /><path clip-path="url(#clip170)" d="M 0 0 M561.337 146.009 L578.003 146.009 L578.003 147.502 L568.593 171.929 L564.93 171.929 L573.784 148.96 L561.337 148.96 L561.337 146.009 Z" fill="#000000" fill-rule="evenodd" fill-opacity="1" /><path clip-path="url(#clip170)" d="M 0 0 M625.429 168.978 L631.158 168.978 L631.158 149.203 L624.925 150.453 L624.925 147.259 L631.123 146.009 L634.63 146.009 L634.63 168.978 L640.359 168.978 L640.359 171.929 L625.429 171.929 L625.429 168.978 Z" fill="#000000" fill-rule="evenodd" fill-opacity="1" /><path clip-path="url(#clip170)" d="M 0 0 M654.942 159.62 Q652.442 159.62 651.001 160.957 Q649.578 162.294 649.578 164.637 Q649.578 166.981 651.001 168.318 Q652.442 169.655 654.942 169.655 Q657.442 169.655 658.883 168.318 Q660.324 166.964 660.324 164.637 Q660.324 162.294 658.883 160.957 Q657.46 159.62 654.942 159.62 M651.435 158.127 Q649.179 157.571 647.911 156.026 Q646.661 154.481 646.661 152.259 Q646.661 149.151 648.866 147.346 Q651.088 145.54 654.942 145.54 Q658.814 145.54 661.019 147.346 Q663.224 149.151 663.224 152.259 Q663.224 154.481 661.956 156.026 Q660.706 157.571 658.467 158.127 Q661.001 158.717 662.408 160.436 Q663.831 162.155 663.831 164.637 Q663.831 168.405 661.522 170.419 Q659.231 172.433 654.942 172.433 Q650.654 172.433 648.345 170.419 Q646.054 168.405 646.054 164.637 Q646.054 162.155 647.477 160.436 Q648.901 158.717 651.435 158.127 M650.151 152.589 Q650.151 154.603 651.401 155.731 Q652.668 156.86 654.942 156.86 Q657.199 156.86 658.467 155.731 Q659.751 154.603 659.751 152.589 Q659.751 150.575 658.467 149.447 Q657.199 148.318 654.942 148.318 Q652.668 148.318 651.401 149.447 Q650.151 150.575 650.151 152.589 Z" fill="#000000" fill-rule="evenodd" fill-opacity="1" /><path clip-path="url(#clip170)" d="M 0 0 M497.598 385.273 L503.327 385.273 L503.327 365.498 L497.094 366.748 L497.094 363.554 L503.292 362.304 L506.799 362.304 L506.799 385.273 L512.528 385.273 L512.528 388.224 L497.598 388.224 L497.598 385.273 Z" fill="#000000" fill-rule="evenodd" fill-opacity="1" /><path clip-path="url(#clip170)" d="M 0 0 M519.716 387.686 L519.716 384.491 Q521.035 385.116 522.389 385.446 Q523.744 385.776 525.046 385.776 Q528.518 385.776 530.341 383.45 Q532.181 381.106 532.442 376.349 Q531.435 377.842 529.889 378.641 Q528.344 379.439 526.469 379.439 Q522.58 379.439 520.306 377.096 Q518.049 374.734 518.049 370.655 Q518.049 366.662 520.41 364.248 Q522.771 361.835 526.695 361.835 Q531.192 361.835 533.553 365.29 Q535.931 368.728 535.931 375.29 Q535.931 381.418 533.014 385.082 Q530.115 388.727 525.202 388.727 Q523.883 388.727 522.528 388.467 Q521.174 388.207 519.716 387.686 M526.695 376.696 Q529.056 376.696 530.428 375.082 Q531.817 373.467 531.817 370.655 Q531.817 367.86 530.428 366.245 Q529.056 364.613 526.695 364.613 Q524.334 364.613 522.945 366.245 Q521.574 367.86 521.574 370.655 Q521.574 373.467 522.945 375.082 Q524.334 376.696 526.695 376.696 Z" fill="#000000" fill-rule="evenodd" fill-opacity="1" /><path clip-path="url(#clip170)" d="M 0 0 M458.703 313.174 L470.942 313.174 L470.942 316.126 L454.484 316.126 L454.484 313.174 Q456.481 311.108 459.918 307.636 Q463.373 304.147 464.259 303.14 Q465.943 301.247 466.602 299.945 Q467.279 298.626 467.279 297.358 Q467.279 295.292 465.821 293.99 Q464.38 292.688 462.054 292.688 Q460.404 292.688 458.564 293.261 Q456.741 293.834 454.658 294.997 L454.658 291.456 Q456.776 290.605 458.616 290.171 Q460.456 289.737 461.984 289.737 Q466.012 289.737 468.408 291.751 Q470.804 293.765 470.804 297.133 Q470.804 298.73 470.196 300.171 Q469.606 301.595 468.026 303.539 Q467.592 304.042 465.265 306.456 Q462.939 308.851 458.703 313.174 Z" fill="#000000" fill-rule="evenodd" fill-opacity="1" /><path clip-path="url(#clip170)" d="M 0 0 M485.804 292.515 Q483.095 292.515 481.724 295.188 Q480.37 297.845 480.37 303.192 Q480.37 308.522 481.724 311.195 Q483.095 313.851 485.804 313.851 Q488.529 313.851 489.883 311.195 Q491.255 308.522 491.255 303.192 Q491.255 297.845 489.883 295.188 Q488.529 292.515 485.804 292.515 M485.804 289.737 Q490.161 289.737 492.453 293.192 Q494.762 296.629 494.762 303.192 Q494.762 309.737 492.453 313.192 Q490.161 316.629 485.804 316.629 Q481.446 316.629 479.137 313.192 Q476.845 309.737 476.845 303.192 Q476.845 296.629 479.137 293.192 Q481.446 289.737 485.804 289.737 Z" fill="#000000" fill-rule="evenodd" fill-opacity="1" /><path clip-path="url(#clip170)" d="M 0 0 M543.923 313.174 L556.163 313.174 L556.163 316.126 L539.705 316.126 L539.705 313.174 Q541.701 311.108 545.139 307.636 Q548.594 304.147 549.479 303.14 Q551.163 301.247 551.823 299.945 Q552.5 298.626 552.5 297.358 Q552.5 295.292 551.041 293.99 Q549.601 292.688 547.274 292.688 Q545.625 292.688 543.785 293.261 Q541.962 293.834 539.878 294.997 L539.878 291.456 Q541.996 290.605 543.837 290.171 Q545.677 289.737 547.205 289.737 Q551.232 289.737 553.628 291.751 Q556.024 293.765 556.024 297.133 Q556.024 298.73 555.416 300.171 Q554.826 301.595 553.246 303.539 Q552.812 304.042 550.486 306.456 Q548.16 308.851 543.923 313.174 Z" fill="#000000" fill-rule="evenodd" fill-opacity="1" /><path clip-path="url(#clip170)" d="M 0 0 M564.132 313.174 L569.861 313.174 L569.861 293.4 L563.628 294.65 L563.628 291.456 L569.826 290.206 L573.333 290.206 L573.333 313.174 L579.062 313.174 L579.062 316.126 L564.132 316.126 L564.132 313.174 Z" fill="#000000" fill-rule="evenodd" fill-opacity="1" /><path clip-path="url(#clip170)" d="M 0 0 M160.431 96.8793 L172.671 96.8793 L172.671 99.8307 L156.213 99.8307 L156.213 96.8793 Q158.209 94.8134 161.647 91.3412 Q165.101 87.8516 165.987 86.8447 Q167.671 84.9523 168.331 83.6503 Q169.008 82.3308 169.008 81.0635 Q169.008 78.9975 167.549 77.6954 Q166.108 76.3933 163.782 76.3933 Q162.133 76.3933 160.292 76.9663 Q158.47 77.5392 156.386 78.7024 L156.386 75.1607 Q158.504 74.31 160.345 73.876 Q162.185 73.442 163.713 73.442 Q167.74 73.442 170.136 75.4559 Q172.532 77.4697 172.532 80.8378 Q172.532 82.435 171.924 83.8759 Q171.334 85.2995 169.754 87.244 Q169.32 87.7475 166.994 90.1606 Q164.667 92.5565 160.431 96.8793 Z" fill="#000000" fill-rule="evenodd" fill-opacity="1" /><path clip-path="url(#clip170)" d="M 0 0 M183.053 96.8793 L195.292 96.8793 L195.292 99.8307 L178.834 99.8307 L178.834 96.8793 Q180.831 94.8134 184.268 91.3412 Q187.723 87.8516 188.608 86.8447 Q190.292 84.9523 190.952 83.6503 Q191.629 82.3308 191.629 81.0635 Q191.629 78.9975 190.171 77.6954 Q188.73 76.3933 186.403 76.3933 Q184.754 76.3933 182.914 76.9663 Q181.091 77.5392 179.008 78.7024 L179.008 75.1607 Q181.126 74.31 182.966 73.876 Q184.806 73.442 186.334 73.442 Q190.362 73.442 192.758 75.4559 Q195.153 77.4697 195.153 80.8378 Q195.153 82.435 194.546 83.8759 Q193.955 85.2995 192.376 87.244 Q191.942 87.7475 189.615 90.1606 Q187.289 92.5565 183.053 96.8793 Z" fill="#000000" fill-rule="evenodd" fill-opacity="1" /><path clip-path="url(#clip170)" d="M 0 0 M330.872 96.8793 L343.112 96.8793 L343.112 99.8307 L326.654 99.8307 L326.654 96.8793 Q328.65 94.8134 332.088 91.3412 Q335.542 87.8516 336.428 86.8447 Q338.112 84.9523 338.772 83.6503 Q339.449 82.3308 339.449 81.0635 Q339.449 78.9975 337.99 77.6954 Q336.549 76.3933 334.223 76.3933 Q332.574 76.3933 330.733 76.9663 Q328.91 77.5392 326.827 78.7024 L326.827 75.1607 Q328.945 74.31 330.785 73.876 Q332.626 73.442 334.154 73.442 Q338.181 73.442 340.577 75.4559 Q342.973 77.4697 342.973 80.8378 Q342.973 82.435 342.365 83.8759 Q341.775 85.2995 340.195 87.244 Q339.761 87.7475 337.435 90.1606 Q335.108 92.5565 330.872 96.8793 Z" fill="#000000" fill-rule="evenodd" fill-opacity="1" /><path clip-path="url(#clip170)" d="M 0 0 M350.508 73.9107 L364.275 73.9107 L364.275 76.8621 L353.719 76.8621 L353.719 83.2162 Q354.483 82.9558 355.247 82.8343 Q356.011 82.6954 356.775 82.6954 Q361.115 82.6954 363.65 85.0739 Q366.185 87.4523 366.185 91.5148 Q366.185 95.6988 363.58 98.0252 Q360.976 100.334 356.237 100.334 Q354.605 100.334 352.903 100.056 Q351.219 99.7786 349.414 99.2231 L349.414 95.6988 Q350.976 96.5495 352.643 96.9662 Q354.31 97.3828 356.167 97.3828 Q359.171 97.3828 360.924 95.803 Q362.678 94.2231 362.678 91.5148 Q362.678 88.8065 360.924 87.2266 Q359.171 85.6468 356.167 85.6468 Q354.761 85.6468 353.355 85.9593 Q351.966 86.2718 350.508 86.9315 L350.508 73.9107 Z" fill="#000000" fill-rule="evenodd" fill-opacity="1" /><path clip-path="url(#clip170)" d="M 0 0 M501.313 96.8793 L513.553 96.8793 L513.553 99.8307 L497.094 99.8307 L497.094 96.8793 Q499.091 94.8134 502.528 91.3412 Q505.983 87.8516 506.869 86.8447 Q508.553 84.9523 509.212 83.6503 Q509.89 82.3308 509.89 81.0635 Q509.89 78.9975 508.431 77.6954 Q506.99 76.3933 504.664 76.3933 Q503.015 76.3933 501.174 76.9663 Q499.351 77.5392 497.268 78.7024 L497.268 75.1607 Q499.386 74.31 501.226 73.876 Q503.067 73.442 504.594 73.442 Q508.622 73.442 511.018 75.4559 Q513.414 77.4697 513.414 80.8378 Q513.414 82.435 512.806 83.8759 Q512.216 85.2995 510.636 87.244 Q510.202 87.7475 507.876 90.1606 Q505.549 92.5565 501.313 96.8793 Z" fill="#000000" fill-rule="evenodd" fill-opacity="1" /><path clip-path="url(#clip170)" d="M 0 0 M528.414 87.5218 Q525.914 87.5218 524.473 88.8586 Q523.049 90.1954 523.049 92.5391 Q523.049 94.8828 524.473 96.2196 Q525.914 97.5564 528.414 97.5564 Q530.914 97.5564 532.355 96.2196 Q533.796 94.8655 533.796 92.5391 Q533.796 90.1954 532.355 88.8586 Q530.931 87.5218 528.414 87.5218 M524.907 86.0287 Q522.65 85.4732 521.383 83.928 Q520.133 82.3829 520.133 80.1607 Q520.133 77.0531 522.337 75.2475 Q524.56 73.442 528.414 73.442 Q532.285 73.442 534.49 75.2475 Q536.695 77.0531 536.695 80.1607 Q536.695 82.3829 535.428 83.928 Q534.178 85.4732 531.938 86.0287 Q534.473 86.619 535.879 88.3377 Q537.303 90.0565 537.303 92.5391 Q537.303 96.3064 534.994 98.3203 Q532.702 100.334 528.414 100.334 Q524.126 100.334 521.817 98.3203 Q519.525 96.3064 519.525 92.5391 Q519.525 90.0565 520.949 88.3377 Q522.372 86.619 524.907 86.0287 M523.622 80.4905 Q523.622 82.5044 524.872 83.6329 Q526.139 84.7614 528.414 84.7614 Q530.671 84.7614 531.938 83.6329 Q533.223 82.5044 533.223 80.4905 Q533.223 78.4767 531.938 77.3482 Q530.671 76.2197 528.414 76.2197 Q526.139 76.2197 524.872 77.3482 Q523.622 78.4767 523.622 80.4905 Z" fill="#000000" fill-rule="evenodd" fill-opacity="1" /><path clip-path="url(#clip170)" d="M 0 0 M679.254 85.8551 Q681.771 86.3933 683.178 88.0947 Q684.601 89.7961 684.601 92.296 Q684.601 96.1328 681.962 98.2335 Q679.324 100.334 674.462 100.334 Q672.831 100.334 671.094 100.004 Q669.376 99.6918 667.535 99.0495 L667.535 95.6641 Q668.994 96.5148 670.73 96.9488 Q672.466 97.3828 674.358 97.3828 Q677.657 97.3828 679.376 96.0807 Q681.112 94.7787 681.112 92.296 Q681.112 90.0044 679.497 88.7197 Q677.9 87.4176 675.035 87.4176 L672.015 87.4176 L672.015 84.5357 L675.174 84.5357 Q677.761 84.5357 679.133 83.5114 Q680.504 82.4697 680.504 80.5253 Q680.504 78.5288 679.081 77.4697 Q677.674 76.3933 675.035 76.3933 Q673.594 76.3933 671.945 76.7058 Q670.296 77.0183 668.317 77.6781 L668.317 74.5531 Q670.313 73.9975 672.049 73.7198 Q673.803 73.442 675.348 73.442 Q679.341 73.442 681.667 75.2649 Q683.994 77.0704 683.994 80.1607 Q683.994 82.3135 682.761 83.8065 Q681.528 85.2822 679.254 85.8551 Z" fill="#000000" fill-rule="evenodd" fill-opacity="1" /><path clip-path="url(#clip170)" d="M 0 0 M691.858 96.8793 L697.587 96.8793 L697.587 77.1051 L691.355 78.3551 L691.355 75.1607 L697.553 73.9107 L701.06 73.9107 L701.06 96.8793 L706.789 96.8793 L706.789 99.8307 L691.858 99.8307 L691.858 96.8793 Z" fill="#000000" fill-rule="evenodd" fill-opacity="1" /></svg>
