<?xml version="1.0" encoding="utf-8"?>
<svg xmlns="http://www.w3.org/2000/svg" xmlns:xlink="http://www.w3.org/1999/xlink" width="200" height="200" viewBox="0 0 800 800">
<defs>
  <clipPath id="clip020">
    <rect x="0" y="0" width="800" height="800"/>
  </clipPath>
</defs>
<path clip-path="url(#clip020)" d="
M0 800 L800 800 L800 0 L0 0  Z
  " fill="#ffffff" fill-rule="evenodd" fill-opacity="1"/>
<defs>
  <clipPath id="clip021">
    <rect x="160" y="80" width="561" height="561"/>
  </clipPath>
</defs>
<path clip-path="url(#clip020)" d="
M70.9921 729.008 L752.756 729.008 L752.756 62.9921 L70.9921 62.9921  Z
  " fill="#ffffff" fill-rule="evenodd" fill-opacity="1"/>
<defs>
  <clipPath id="clip022">
    <rect x="70" y="62" width="683" height="667"/>
  </clipPath>
</defs>
<polyline clip-path="url(#clip020)" style="stroke:#000000; stroke-width:4; stroke-opacity:1; fill:none" points="
  70.9921,729.008 752.756,729.008 
  "/>
<polyline clip-path="url(#clip020)" style="stroke:#000000; stroke-width:4; stroke-opacity:1; fill:none" points="
  70.9921,729.008 70.9921,721.016 
  "/>
<polyline clip-path="url(#clip020)" style="stroke:#000000; stroke-width:4; stroke-opacity:1; fill:none" points="
  241.433,729.008 241.433,721.016 
  "/>
<polyline clip-path="url(#clip020)" style="stroke:#000000; stroke-width:4; stroke-opacity:1; fill:none" points="
  411.874,729.008 411.874,721.016 
  "/>
<polyline clip-path="url(#clip020)" style="stroke:#000000; stroke-width:4; stroke-opacity:1; fill:none" points="
  582.315,729.008 582.315,721.016 
  "/>
<polyline clip-path="url(#clip020)" style="stroke:#000000; stroke-width:4; stroke-opacity:1; fill:none" points="
  752.756,729.008 752.756,721.016 
  "/>
<path clip-path="url(#clip020)" d="M 0 0 M40.9344 760.051 L70.6102 760.051 L70.6102 763.986 L40.9344 763.986 L40.9344 760.051 Z" fill="#000000" fill-rule="evenodd" fill-opacity="1" /><path clip-path="url(#clip020)" d="M 0 0 M84.7305 772.945 L101.05 772.945 L101.05 776.88 L79.1055 776.88 L79.1055 772.945 Q81.7675 770.19 86.3508 765.56 Q90.9573 760.908 92.1378 759.565 Q94.3832 757.042 95.2628 755.306 Q96.1656 753.547 96.1656 751.857 Q96.1656 749.102 94.2212 747.366 Q92.2999 745.63 89.198 745.63 Q86.999 745.63 84.5453 746.394 Q82.1148 747.158 79.337 748.709 L79.337 743.987 Q82.161 742.852 84.6147 742.274 Q87.0684 741.695 89.1055 741.695 Q94.4758 741.695 97.6702 744.38 Q100.865 747.065 100.865 751.556 Q100.865 753.686 100.054 755.607 Q99.2674 757.505 97.161 760.098 Q96.5823 760.769 93.4804 763.986 Q90.3786 767.181 84.7305 772.945 Z" fill="#000000" fill-rule="evenodd" fill-opacity="1" /><path clip-path="url(#clip020)" d="M 0 0 M211.19 760.051 L240.866 760.051 L240.866 763.986 L211.19 763.986 L211.19 760.051 Z" fill="#000000" fill-rule="evenodd" fill-opacity="1" /><path clip-path="url(#clip020)" d="M 0 0 M251.769 772.945 L259.408 772.945 L259.408 746.579 L251.097 748.246 L251.097 743.987 L259.361 742.32 L264.037 742.32 L264.037 772.945 L271.676 772.945 L271.676 776.88 L251.769 776.88 L251.769 772.945 Z" fill="#000000" fill-rule="evenodd" fill-opacity="1" /><path clip-path="url(#clip020)" d="M 0 0 M411.874 745.399 Q408.263 745.399 406.434 748.963 Q404.629 752.505 404.629 759.635 Q404.629 766.741 406.434 770.306 Q408.263 773.847 411.874 773.847 Q415.508 773.847 417.314 770.306 Q419.142 766.741 419.142 759.635 Q419.142 752.505 417.314 748.963 Q415.508 745.399 411.874 745.399 M411.874 741.695 Q417.684 741.695 420.74 746.301 Q423.818 750.885 423.818 759.635 Q423.818 768.361 420.74 772.968 Q417.684 777.551 411.874 777.551 Q406.064 777.551 402.985 772.968 Q399.93 768.361 399.93 759.635 Q399.93 750.885 402.985 746.301 Q406.064 741.695 411.874 741.695 Z" fill="#000000" fill-rule="evenodd" fill-opacity="1" /><path clip-path="url(#clip020)" d="M 0 0 M572.697 772.945 L580.336 772.945 L580.336 746.579 L572.026 748.246 L572.026 743.987 L580.29 742.32 L584.965 742.32 L584.965 772.945 L592.604 772.945 L592.604 776.88 L572.697 776.88 L572.697 772.945 Z" fill="#000000" fill-rule="evenodd" fill-opacity="1" /><path clip-path="url(#clip020)" d="M 0 0 M747.409 772.945 L763.728 772.945 L763.728 776.88 L741.784 776.88 L741.784 772.945 Q744.446 770.19 749.029 765.56 Q753.636 760.908 754.816 759.565 Q757.061 757.042 757.941 755.306 Q758.844 753.547 758.844 751.857 Q758.844 749.102 756.899 747.366 Q754.978 745.63 751.876 745.63 Q749.677 745.63 747.224 746.394 Q744.793 747.158 742.015 748.709 L742.015 743.987 Q744.839 742.852 747.293 742.274 Q749.747 741.695 751.784 741.695 Q757.154 741.695 760.348 744.38 Q763.543 747.065 763.543 751.556 Q763.543 753.686 762.733 755.607 Q761.946 757.505 759.839 760.098 Q759.261 760.769 756.159 763.986 Q753.057 767.181 747.409 772.945 Z" fill="#000000" fill-rule="evenodd" fill-opacity="1" /><polyline clip-path="url(#clip020)" style="stroke:#000000; stroke-width:4; stroke-opacity:1; fill:none" points="
  70.9921,729.008 70.9921,62.9921 
  "/>
<polyline clip-path="url(#clip020)" style="stroke:#000000; stroke-width:4; stroke-opacity:1; fill:none" points="
  70.9921,729.008 79.1733,729.008 
  "/>
<polyline clip-path="url(#clip020)" style="stroke:#000000; stroke-width:4; stroke-opacity:1; fill:none" points="
  70.9921,562.504 79.1733,562.504 
  "/>
<polyline clip-path="url(#clip020)" style="stroke:#000000; stroke-width:4; stroke-opacity:1; fill:none" points="
  70.9921,396 79.1733,396 
  "/>
<polyline clip-path="url(#clip020)" style="stroke:#000000; stroke-width:4; stroke-opacity:1; fill:none" points="
  70.9921,229.496 79.1733,229.496 
  "/>
<polyline clip-path="url(#clip020)" style="stroke:#000000; stroke-width:4; stroke-opacity:1; fill:none" points="
  70.9921,62.9921 79.1733,62.9921 
  "/>
<path clip-path="url(#clip020)" d="M 0 0 M-1.12329 729.459 L28.5525 729.459 L28.5525 733.394 L-1.12329 733.394 L-1.12329 729.459 Z" fill="#000000" fill-rule="evenodd" fill-opacity="1" /><path clip-path="url(#clip020)" d="M 0 0 M42.6728 742.353 L58.9921 742.353 L58.9921 746.288 L37.0478 746.288 L37.0478 742.353 Q39.7098 739.598 44.2931 734.968 Q48.8996 730.316 50.0801 728.973 Q52.3255 726.45 53.2051 724.714 Q54.1079 722.955 54.1079 721.265 Q54.1079 718.51 52.1635 716.774 Q50.2422 715.038 47.1403 715.038 Q44.9413 715.038 42.4876 715.802 Q40.057 716.566 37.2793 718.117 L37.2793 713.395 Q40.1033 712.26 42.557 711.682 Q45.0107 711.103 47.0477 711.103 Q52.4181 711.103 55.6125 713.788 Q58.8069 716.473 58.8069 720.964 Q58.8069 723.094 57.9968 725.015 Q57.2097 726.913 55.1033 729.506 Q54.5246 730.177 51.4227 733.394 Q48.3209 736.589 42.6728 742.353 Z" fill="#000000" fill-rule="evenodd" fill-opacity="1" /><path clip-path="url(#clip020)" d="M 0 0 M-1.49366 562.955 L28.1821 562.955 L28.1821 566.89 L-1.49366 566.89 L-1.49366 562.955 Z" fill="#000000" fill-rule="evenodd" fill-opacity="1" /><path clip-path="url(#clip020)" d="M 0 0 M39.0848 575.849 L46.7237 575.849 L46.7237 549.483 L38.4135 551.15 L38.4135 546.891 L46.6774 545.224 L51.3533 545.224 L51.3533 575.849 L58.9921 575.849 L58.9921 579.784 L39.0848 579.784 L39.0848 575.849 Z" fill="#000000" fill-rule="evenodd" fill-opacity="1" /><path clip-path="url(#clip020)" d="M 0 0 M47.0477 381.799 Q43.4367 381.799 41.608 385.363 Q39.8024 388.905 39.8024 396.035 Q39.8024 403.141 41.608 406.706 Q43.4367 410.248 47.0477 410.248 Q50.682 410.248 52.4875 406.706 Q54.3162 403.141 54.3162 396.035 Q54.3162 388.905 52.4875 385.363 Q50.682 381.799 47.0477 381.799 M47.0477 378.095 Q52.8579 378.095 55.9134 382.701 Q58.9921 387.285 58.9921 396.035 Q58.9921 404.762 55.9134 409.368 Q52.8579 413.951 47.0477 413.951 Q41.2376 413.951 38.1589 409.368 Q35.1034 404.762 35.1034 396.035 Q35.1034 387.285 38.1589 382.701 Q41.2376 378.095 47.0477 378.095 Z" fill="#000000" fill-rule="evenodd" fill-opacity="1" /><path clip-path="url(#clip020)" d="M 0 0 M39.0848 242.841 L46.7237 242.841 L46.7237 216.475 L38.4135 218.142 L38.4135 213.883 L46.6774 212.216 L51.3533 212.216 L51.3533 242.841 L58.9921 242.841 L58.9921 246.776 L39.0848 246.776 L39.0848 242.841 Z" fill="#000000" fill-rule="evenodd" fill-opacity="1" /><path clip-path="url(#clip020)" d="M 0 0 M42.6728 76.337 L58.9921 76.337 L58.9921 80.2721 L37.0478 80.2721 L37.0478 76.337 Q39.7098 73.5823 44.2931 68.9527 Q48.8996 64.3 50.0801 62.9574 Q52.3255 60.4343 53.2051 58.6982 Q54.1079 56.9389 54.1079 55.2491 Q54.1079 52.4945 52.1635 50.7584 Q50.2422 49.0223 47.1403 49.0223 Q44.9413 49.0223 42.4876 49.7862 Q40.057 50.5501 37.2793 52.101 L37.2793 47.3788 Q40.1033 46.2445 42.557 45.6658 Q45.0107 45.0871 47.0477 45.0871 Q52.4181 45.0871 55.6125 47.7723 Q58.8069 50.4575 58.8069 54.9482 Q58.8069 57.0778 57.9968 58.9991 Q57.2097 60.8972 55.1033 63.4898 Q54.5246 64.1611 51.4227 67.3787 Q48.3209 70.5731 42.6728 76.337 Z" fill="#000000" fill-rule="evenodd" fill-opacity="1" /><path clip-path="url(#clip020)" d="M 0 0 M343.668 5.45367 L353.483 5.45367 L353.483 8.76384 L347.928 8.76384 L347.928 44.4118 L353.483 44.4118 L353.483 47.722 L343.668 47.722 L343.668 5.45367 Z" fill="#000000" fill-rule="evenodd" fill-opacity="1" /><path clip-path="url(#clip020)" d="M 0 0 M360.404 26.5878 L372.881 26.5878 L372.881 30.3841 L360.404 30.3841 L360.404 26.5878 Z" fill="#000000" fill-rule="evenodd" fill-opacity="1" /><path clip-path="url(#clip020)" d="M 0 0 M381.076 37.5368 L388.714 37.5368 L388.714 11.1712 L380.404 12.8379 L380.404 8.57866 L388.668 6.912 L393.344 6.912 L393.344 37.5368 L400.983 37.5368 L400.983 41.472 L381.076 41.472 L381.076 37.5368 Z" fill="#000000" fill-rule="evenodd" fill-opacity="1" /><path clip-path="url(#clip020)" d="M 0 0 M410.913 35.5924 L415.798 35.5924 L415.798 39.5739 L412.001 46.9812 L409.015 46.9812 L410.913 39.5739 L410.913 35.5924 Z" fill="#000000" fill-rule="evenodd" fill-opacity="1" /><path clip-path="url(#clip020)" d="M 0 0 M444.594 37.5368 L460.913 37.5368 L460.913 41.472 L438.969 41.472 L438.969 37.5368 Q441.631 34.7822 446.214 30.1526 Q450.821 25.4999 452.001 24.1573 Q454.246 21.6341 455.126 19.898 Q456.029 18.1388 456.029 16.449 Q456.029 13.6944 454.084 11.9583 Q452.163 10.2222 449.061 10.2222 Q446.862 10.2222 444.409 10.9861 Q441.978 11.7499 439.2 13.3009 L439.2 8.57866 Q442.024 7.4444 444.478 6.8657 Q446.932 6.287 448.969 6.287 Q454.339 6.287 457.533 8.97217 Q460.728 11.6573 460.728 16.1481 Q460.728 18.2777 459.918 20.199 Q459.131 22.0971 457.024 24.6897 Q456.446 25.361 453.344 28.5786 Q450.242 31.773 444.594 37.5368 Z" fill="#000000" fill-rule="evenodd" fill-opacity="1" /><path clip-path="url(#clip020)" d="M 0 0 M480.08 5.45367 L480.08 47.722 L470.265 47.722 L470.265 44.4118 L475.797 44.4118 L475.797 8.76384 L470.265 8.76384 L470.265 5.45367 L480.08 5.45367 Z" fill="#000000" fill-rule="evenodd" fill-opacity="1" /><circle clip-path="url(#clip022)" cx="156.213" cy="684.393" r="14" fill="#0000ff" fill-rule="evenodd" fill-opacity="1" stroke="none"/>
<circle clip-path="url(#clip022)" cx="113.602" cy="612.295" r="14" fill="#0000ff" fill-rule="evenodd" fill-opacity="1" stroke="none"/>
<circle clip-path="url(#clip022)" cx="198.823" cy="612.295" r="14" fill="#0000ff" fill-rule="evenodd" fill-opacity="1" stroke="none"/>
<circle clip-path="url(#clip022)" cx="326.654" cy="684.393" r="14" fill="#0000ff" fill-rule="evenodd" fill-opacity="1" stroke="none"/>
<circle clip-path="url(#clip022)" cx="284.043" cy="612.295" r="14" fill="#0000ff" fill-rule="evenodd" fill-opacity="1" stroke="none"/>
<circle clip-path="url(#clip022)" cx="369.264" cy="612.295" r="14" fill="#0000ff" fill-rule="evenodd" fill-opacity="1" stroke="none"/>
<circle clip-path="url(#clip022)" cx="497.094" cy="684.393" r="14" fill="#0000ff" fill-rule="evenodd" fill-opacity="1" stroke="none"/>
<circle clip-path="url(#clip022)" cx="454.484" cy="612.295" r="14" fill="#0000ff" fill-rule="evenodd" fill-opacity="1" stroke="none"/>
<circle clip-path="url(#clip022)" cx="539.705" cy="612.295" r="14" fill="#0000ff" fill-rule="evenodd" fill-opacity="1" stroke="none"/>
<circle clip-path="url(#clip022)" cx="667.535" cy="684.393" r="14" fill="#0000ff" fill-rule="evenodd" fill-opacity="1" stroke="none"/>
<circle clip-path="url(#clip022)" cx="624.925" cy="612.295" r="14" fill="#0000ff" fill-rule="evenodd" fill-opacity="1" stroke="none"/>
<circle clip-path="url(#clip022)" cx="710.146" cy="612.295" r="14" fill="#0000ff" fill-rule="evenodd" fill-opacity="1" stroke="none"/>
<circle clip-path="url(#clip022)" cx="411.874" cy="540.197" r="14" fill="#0000ff" fill-rule="evenodd" fill-opacity="1" stroke="none"/>
<circle clip-path="url(#clip022)" cx="369.264" cy="468.098" r="14" fill="#0000ff" fill-rule="evenodd" fill-opacity="1" stroke="none"/>
<circle clip-path="url(#clip022)" cx="454.484" cy="468.098" r="14" fill="#0000ff" fill-rule="evenodd" fill-opacity="1" stroke="none"/>
<circle clip-path="url(#clip022)" cx="582.315" cy="540.197" r="14" fill="#0000ff" fill-rule="evenodd" fill-opacity="1" stroke="none"/>
<circle clip-path="url(#clip022)" cx="539.705" cy="468.098" r="14" fill="#0000ff" fill-rule="evenodd" fill-opacity="1" stroke="none"/>
<circle clip-path="url(#clip022)" cx="624.925" cy="468.098" r="14" fill="#0000ff" fill-rule="evenodd" fill-opacity="1" stroke="none"/>
<path clip-path="url(#clip020)" d="M 0 0 M156.716 673.666 L162.445 673.666 L162.445 653.892 L156.213 655.142 L156.213 651.947 L162.41 650.697 L165.917 650.697 L165.917 673.666 L171.647 673.666 L171.647 676.617 L156.716 676.617 L156.716 673.666 Z" fill="#000000" fill-rule="evenodd" fill-opacity="1" /><path clip-path="url(#clip020)" d="M 0 0 M117.821 601.568 L130.061 601.568 L130.061 604.519 L113.602 604.519 L113.602 601.568 Q115.599 599.502 119.036 596.029 Q122.491 592.54 123.377 591.533 Q125.061 589.641 125.72 588.338 Q126.397 587.019 126.397 585.752 Q126.397 583.686 124.939 582.384 Q123.498 581.082 121.172 581.082 Q119.522 581.082 117.682 581.654 Q115.859 582.227 113.776 583.391 L113.776 579.849 Q115.894 578.998 117.734 578.564 Q119.575 578.13 121.102 578.13 Q125.13 578.13 127.526 580.144 Q129.922 582.158 129.922 585.526 Q129.922 587.123 129.314 588.564 Q128.724 589.988 127.144 591.932 Q126.71 592.436 124.384 594.849 Q122.057 597.245 117.821 601.568 Z" fill="#000000" fill-rule="evenodd" fill-opacity="1" /><path clip-path="url(#clip020)" d="M 0 0 M210.542 590.543 Q213.059 591.082 214.465 592.783 Q215.889 594.484 215.889 596.984 Q215.889 600.821 213.25 602.922 Q210.611 605.022 205.75 605.022 Q204.118 605.022 202.382 604.693 Q200.663 604.38 198.823 603.738 L198.823 600.352 Q200.281 601.203 202.017 601.637 Q203.753 602.071 205.646 602.071 Q208.944 602.071 210.663 600.769 Q212.399 599.467 212.399 596.984 Q212.399 594.693 210.785 593.408 Q209.187 592.106 206.323 592.106 L203.302 592.106 L203.302 589.224 L206.462 589.224 Q209.048 589.224 210.42 588.2 Q211.792 587.158 211.792 585.214 Q211.792 583.217 210.368 582.158 Q208.962 581.082 206.323 581.082 Q204.882 581.082 203.233 581.394 Q201.583 581.707 199.604 582.366 L199.604 579.241 Q201.601 578.686 203.337 578.408 Q205.09 578.13 206.635 578.13 Q210.628 578.13 212.955 579.953 Q215.281 581.759 215.281 584.849 Q215.281 587.002 214.048 588.495 Q212.816 589.97 210.542 590.543 Z" fill="#000000" fill-rule="evenodd" fill-opacity="1" /><path clip-path="url(#clip020)" d="M 0 0 M338.355 653.753 L329.501 667.59 L338.355 667.59 L338.355 653.753 M337.435 650.697 L341.844 650.697 L341.844 667.59 L345.542 667.59 L345.542 670.506 L341.844 670.506 L341.844 676.617 L338.355 676.617 L338.355 670.506 L326.654 670.506 L326.654 667.121 L337.435 650.697 Z" fill="#000000" fill-rule="evenodd" fill-opacity="1" /><path clip-path="url(#clip020)" d="M 0 0 M285.137 578.599 L298.904 578.599 L298.904 581.55 L288.349 581.55 L288.349 587.904 Q289.113 587.644 289.877 587.523 Q290.64 587.384 291.404 587.384 Q295.745 587.384 298.279 589.762 Q300.814 592.141 300.814 596.203 Q300.814 600.387 298.21 602.713 Q295.606 605.022 290.866 605.022 Q289.234 605.022 287.533 604.745 Q285.849 604.467 284.043 603.911 L284.043 600.387 Q285.606 601.238 287.272 601.654 Q288.939 602.071 290.797 602.071 Q293.8 602.071 295.554 600.491 Q297.307 598.911 297.307 596.203 Q297.307 593.495 295.554 591.915 Q293.8 590.335 290.797 590.335 Q289.391 590.335 287.984 590.648 Q286.595 590.96 285.137 591.62 L285.137 578.599 Z" fill="#000000" fill-rule="evenodd" fill-opacity="1" /><path clip-path="url(#clip020)" d="M 0 0 M378.517 590.161 Q376.156 590.161 374.767 591.776 Q373.396 593.391 373.396 596.203 Q373.396 598.998 374.767 600.63 Q376.156 602.245 378.517 602.245 Q380.878 602.245 382.25 600.63 Q383.639 598.998 383.639 596.203 Q383.639 593.391 382.25 591.776 Q380.878 590.161 378.517 590.161 M385.479 579.172 L385.479 582.366 Q384.16 581.741 382.805 581.411 Q381.469 581.082 380.149 581.082 Q376.677 581.082 374.837 583.425 Q373.014 585.769 372.753 590.509 Q373.778 588.998 375.323 588.2 Q376.868 587.384 378.726 587.384 Q382.632 587.384 384.889 589.762 Q387.163 592.123 387.163 596.203 Q387.163 600.196 384.802 602.609 Q382.441 605.022 378.517 605.022 Q374.021 605.022 371.642 601.585 Q369.264 598.13 369.264 591.585 Q369.264 585.439 372.18 581.793 Q375.097 578.13 380.01 578.13 Q381.33 578.13 382.666 578.391 Q384.021 578.651 385.479 579.172 Z" fill="#000000" fill-rule="evenodd" fill-opacity="1" /><path clip-path="url(#clip020)" d="M 0 0 M497.094 650.697 L513.761 650.697 L513.761 652.19 L504.351 676.617 L500.688 676.617 L509.542 653.649 L497.094 653.649 L497.094 650.697 Z" fill="#000000" fill-rule="evenodd" fill-opacity="1" /><path clip-path="url(#clip020)" d="M 0 0 M463.373 592.21 Q460.873 592.21 459.432 593.547 Q458.009 594.884 458.009 597.227 Q458.009 599.571 459.432 600.908 Q460.873 602.245 463.373 602.245 Q465.873 602.245 467.314 600.908 Q468.755 599.554 468.755 597.227 Q468.755 594.884 467.314 593.547 Q465.89 592.21 463.373 592.21 M459.866 590.717 Q457.609 590.161 456.342 588.616 Q455.092 587.071 455.092 584.849 Q455.092 581.741 457.297 579.936 Q459.519 578.13 463.373 578.13 Q467.245 578.13 469.449 579.936 Q471.654 581.741 471.654 584.849 Q471.654 587.071 470.387 588.616 Q469.137 590.161 466.897 590.717 Q469.432 591.307 470.838 593.026 Q472.262 594.745 472.262 597.227 Q472.262 600.995 469.953 603.009 Q467.661 605.022 463.373 605.022 Q459.085 605.022 456.776 603.009 Q454.484 600.995 454.484 597.227 Q454.484 594.745 455.908 593.026 Q457.331 591.307 459.866 590.717 M458.581 585.179 Q458.581 587.193 459.831 588.321 Q461.099 589.45 463.373 589.45 Q465.63 589.45 466.897 588.321 Q468.182 587.193 468.182 585.179 Q468.182 583.165 466.897 582.036 Q465.63 580.908 463.373 580.908 Q461.099 580.908 459.831 582.036 Q458.581 583.165 458.581 585.179 Z" fill="#000000" fill-rule="evenodd" fill-opacity="1" /><path clip-path="url(#clip020)" d="M 0 0 M541.371 603.981 L541.371 600.786 Q542.691 601.411 544.045 601.741 Q545.399 602.071 546.701 602.071 Q550.173 602.071 551.996 599.745 Q553.837 597.401 554.097 592.644 Q553.09 594.137 551.545 594.936 Q550 595.734 548.125 595.734 Q544.236 595.734 541.962 593.391 Q539.705 591.029 539.705 586.95 Q539.705 582.957 542.066 580.543 Q544.427 578.13 548.351 578.13 Q552.847 578.13 555.208 581.585 Q557.587 585.023 557.587 591.585 Q557.587 597.713 554.67 601.377 Q551.771 605.022 546.857 605.022 Q545.538 605.022 544.184 604.762 Q542.83 604.502 541.371 603.981 M548.351 592.991 Q550.712 592.991 552.083 591.377 Q553.472 589.762 553.472 586.95 Q553.472 584.154 552.083 582.54 Q550.712 580.908 548.351 580.908 Q545.989 580.908 544.601 582.54 Q543.229 584.154 543.229 586.95 Q543.229 589.762 544.601 591.377 Q545.989 592.991 548.351 592.991 Z" fill="#000000" fill-rule="evenodd" fill-opacity="1" /><path clip-path="url(#clip020)" d="M 0 0 M668.039 673.666 L673.768 673.666 L673.768 653.892 L667.535 655.142 L667.535 651.947 L673.733 650.697 L677.24 650.697 L677.24 673.666 L682.969 673.666 L682.969 676.617 L668.039 676.617 L668.039 673.666 Z" fill="#000000" fill-rule="evenodd" fill-opacity="1" /><path clip-path="url(#clip020)" d="M 0 0 M697.553 653.006 Q694.844 653.006 693.473 655.68 Q692.119 658.336 692.119 663.683 Q692.119 669.013 693.473 671.687 Q694.844 674.343 697.553 674.343 Q700.278 674.343 701.632 671.687 Q703.004 669.013 703.004 663.683 Q703.004 658.336 701.632 655.68 Q700.278 653.006 697.553 653.006 M697.553 650.229 Q701.91 650.229 704.202 653.683 Q706.511 657.121 706.511 663.683 Q706.511 670.228 704.202 673.683 Q701.91 677.121 697.553 677.121 Q693.195 677.121 690.886 673.683 Q688.594 670.228 688.594 663.683 Q688.594 657.121 690.886 653.683 Q693.195 650.229 697.553 650.229 Z" fill="#000000" fill-rule="evenodd" fill-opacity="1" /><path clip-path="url(#clip020)" d="M 0 0 M625.429 601.568 L631.158 601.568 L631.158 581.793 L624.925 583.043 L624.925 579.849 L631.123 578.599 L634.63 578.599 L634.63 601.568 L640.359 601.568 L640.359 604.519 L625.429 604.519 L625.429 601.568 Z" fill="#000000" fill-rule="evenodd" fill-opacity="1" /><path clip-path="url(#clip020)" d="M 0 0 M648.05 601.568 L653.779 601.568 L653.779 581.793 L647.547 583.043 L647.547 579.849 L653.744 578.599 L657.251 578.599 L657.251 601.568 L662.981 601.568 L662.981 604.519 L648.05 604.519 L648.05 601.568 Z" fill="#000000" fill-rule="evenodd" fill-opacity="1" /><path clip-path="url(#clip020)" d="M 0 0 M710.649 601.568 L716.378 601.568 L716.378 581.793 L710.146 583.043 L710.146 579.849 L716.344 578.599 L719.85 578.599 L719.85 601.568 L725.58 601.568 L725.58 604.519 L710.649 604.519 L710.649 601.568 Z" fill="#000000" fill-rule="evenodd" fill-opacity="1" /><path clip-path="url(#clip020)" d="M 0 0 M735.684 601.568 L747.923 601.568 L747.923 604.519 L731.465 604.519 L731.465 601.568 Q733.462 599.502 736.899 596.029 Q740.354 592.54 741.239 591.533 Q742.923 589.641 743.583 588.338 Q744.26 587.019 744.26 585.752 Q744.26 583.686 742.802 582.384 Q741.361 581.082 739.034 581.082 Q737.385 581.082 735.545 581.654 Q733.722 582.227 731.639 583.391 L731.639 579.849 Q733.757 578.998 735.597 578.564 Q737.437 578.13 738.965 578.13 Q742.993 578.13 745.389 580.144 Q747.784 582.158 747.784 585.526 Q747.784 587.123 747.177 588.564 Q746.586 589.988 745.007 591.932 Q744.573 592.436 742.246 594.849 Q739.92 597.245 735.684 601.568 Z" fill="#000000" fill-rule="evenodd" fill-opacity="1" /><path clip-path="url(#clip020)" d="M 0 0 M412.377 529.469 L418.107 529.469 L418.107 509.695 L411.874 510.945 L411.874 507.751 L418.072 506.501 L421.579 506.501 L421.579 529.469 L427.308 529.469 L427.308 532.421 L412.377 532.421 L412.377 529.469 Z" fill="#000000" fill-rule="evenodd" fill-opacity="1" /><path clip-path="url(#clip020)" d="M 0 0 M434.495 531.882 L434.495 528.688 Q435.815 529.313 437.169 529.643 Q438.523 529.973 439.825 529.973 Q443.297 529.973 445.12 527.646 Q446.961 525.303 447.221 520.546 Q446.214 522.039 444.669 522.837 Q443.124 523.636 441.249 523.636 Q437.36 523.636 435.086 521.292 Q432.829 518.931 432.829 514.851 Q432.829 510.858 435.19 508.445 Q437.551 506.032 441.475 506.032 Q445.971 506.032 448.332 509.487 Q450.711 512.924 450.711 519.487 Q450.711 525.615 447.794 529.278 Q444.895 532.924 439.982 532.924 Q438.662 532.924 437.308 532.664 Q435.954 532.403 434.495 531.882 M441.475 520.893 Q443.836 520.893 445.207 519.278 Q446.596 517.664 446.596 514.851 Q446.596 512.056 445.207 510.442 Q443.836 508.81 441.475 508.81 Q439.113 508.81 437.725 510.442 Q436.353 512.056 436.353 514.851 Q436.353 517.664 437.725 519.278 Q439.113 520.893 441.475 520.893 Z" fill="#000000" fill-rule="evenodd" fill-opacity="1" /><path clip-path="url(#clip020)" d="M 0 0 M373.483 457.371 L385.722 457.371 L385.722 460.322 L369.264 460.322 L369.264 457.371 Q371.26 455.305 374.698 451.833 Q378.153 448.343 379.038 447.336 Q380.722 445.444 381.382 444.142 Q382.059 442.822 382.059 441.555 Q382.059 439.489 380.601 438.187 Q379.16 436.885 376.833 436.885 Q375.184 436.885 373.344 437.458 Q371.521 438.031 369.437 439.194 L369.437 435.652 Q371.555 434.802 373.396 434.368 Q375.236 433.934 376.764 433.934 Q380.791 433.934 383.187 435.947 Q385.583 437.961 385.583 441.329 Q385.583 442.927 384.976 444.368 Q384.385 445.791 382.805 447.736 Q382.371 448.239 380.045 450.652 Q377.719 453.048 373.483 457.371 Z" fill="#000000" fill-rule="evenodd" fill-opacity="1" /><path clip-path="url(#clip020)" d="M 0 0 M400.583 436.711 Q397.875 436.711 396.503 439.385 Q395.149 442.041 395.149 447.388 Q395.149 452.718 396.503 455.392 Q397.875 458.048 400.583 458.048 Q403.309 458.048 404.663 455.392 Q406.034 452.718 406.034 447.388 Q406.034 442.041 404.663 439.385 Q403.309 436.711 400.583 436.711 M400.583 433.934 Q404.941 433.934 407.232 437.388 Q409.541 440.826 409.541 447.388 Q409.541 453.933 407.232 457.388 Q404.941 460.826 400.583 460.826 Q396.225 460.826 393.916 457.388 Q391.625 453.933 391.625 447.388 Q391.625 440.826 393.916 437.388 Q396.225 433.934 400.583 433.934 Z" fill="#000000" fill-rule="evenodd" fill-opacity="1" /><path clip-path="url(#clip020)" d="M 0 0 M458.703 457.371 L470.942 457.371 L470.942 460.322 L454.484 460.322 L454.484 457.371 Q456.481 455.305 459.918 451.833 Q463.373 448.343 464.259 447.336 Q465.943 445.444 466.602 444.142 Q467.279 442.822 467.279 441.555 Q467.279 439.489 465.821 438.187 Q464.38 436.885 462.054 436.885 Q460.404 436.885 458.564 437.458 Q456.741 438.031 454.658 439.194 L454.658 435.652 Q456.776 434.802 458.616 434.368 Q460.456 433.934 461.984 433.934 Q466.012 433.934 468.408 435.947 Q470.804 437.961 470.804 441.329 Q470.804 442.927 470.196 444.368 Q469.606 445.791 468.026 447.736 Q467.592 448.239 465.265 450.652 Q462.939 453.048 458.703 457.371 Z" fill="#000000" fill-rule="evenodd" fill-opacity="1" /><path clip-path="url(#clip020)" d="M 0 0 M478.911 457.371 L484.64 457.371 L484.64 437.597 L478.408 438.847 L478.408 435.652 L484.606 434.402 L488.113 434.402 L488.113 457.371 L493.842 457.371 L493.842 460.322 L478.911 460.322 L478.911 457.371 Z" fill="#000000" fill-rule="evenodd" fill-opacity="1" /><path clip-path="url(#clip020)" d="M 0 0 M586.534 529.469 L598.773 529.469 L598.773 532.421 L582.315 532.421 L582.315 529.469 Q584.311 527.403 587.749 523.931 Q591.204 520.442 592.089 519.435 Q593.773 517.542 594.433 516.24 Q595.11 514.921 595.11 513.653 Q595.11 511.587 593.652 510.285 Q592.211 508.983 589.884 508.983 Q588.235 508.983 586.395 509.556 Q584.572 510.129 582.489 511.292 L582.489 507.751 Q584.607 506.9 586.447 506.466 Q588.287 506.032 589.815 506.032 Q593.843 506.032 596.238 508.046 Q598.634 510.06 598.634 513.428 Q598.634 515.025 598.027 516.466 Q597.436 517.889 595.857 519.834 Q595.423 520.337 593.096 522.751 Q590.77 525.146 586.534 529.469 Z" fill="#000000" fill-rule="evenodd" fill-opacity="1" /><path clip-path="url(#clip020)" d="M 0 0 M609.155 529.469 L621.395 529.469 L621.395 532.421 L604.936 532.421 L604.936 529.469 Q606.933 527.403 610.37 523.931 Q613.825 520.442 614.711 519.435 Q616.395 517.542 617.054 516.24 Q617.731 514.921 617.731 513.653 Q617.731 511.587 616.273 510.285 Q614.832 508.983 612.506 508.983 Q610.856 508.983 609.016 509.556 Q607.193 510.129 605.11 511.292 L605.11 507.751 Q607.228 506.9 609.068 506.466 Q610.909 506.032 612.436 506.032 Q616.464 506.032 618.86 508.046 Q621.256 510.06 621.256 513.428 Q621.256 515.025 620.648 516.466 Q620.058 517.889 618.478 519.834 Q618.044 520.337 615.718 522.751 Q613.391 525.146 609.155 529.469 Z" fill="#000000" fill-rule="evenodd" fill-opacity="1" /><path clip-path="url(#clip020)" d="M 0 0 M543.923 457.371 L556.163 457.371 L556.163 460.322 L539.705 460.322 L539.705 457.371 Q541.701 455.305 545.139 451.833 Q548.594 448.343 549.479 447.336 Q551.163 445.444 551.823 444.142 Q552.5 442.822 552.5 441.555 Q552.5 439.489 551.041 438.187 Q549.601 436.885 547.274 436.885 Q545.625 436.885 543.785 437.458 Q541.962 438.031 539.878 439.194 L539.878 435.652 Q541.996 434.802 543.837 434.368 Q545.677 433.934 547.205 433.934 Q551.232 433.934 553.628 435.947 Q556.024 437.961 556.024 441.329 Q556.024 442.927 555.416 444.368 Q554.826 445.791 553.246 447.736 Q552.812 448.239 550.486 450.652 Q548.16 453.048 543.923 457.371 Z" fill="#000000" fill-rule="evenodd" fill-opacity="1" /><path clip-path="url(#clip020)" d="M 0 0 M574.149 446.347 Q576.666 446.885 578.073 448.586 Q579.496 450.288 579.496 452.788 Q579.496 456.624 576.857 458.725 Q574.218 460.826 569.357 460.826 Q567.725 460.826 565.989 460.496 Q564.271 460.183 562.43 459.541 L562.43 456.156 Q563.889 457.006 565.625 457.44 Q567.361 457.874 569.253 457.874 Q572.552 457.874 574.271 456.572 Q576.007 455.27 576.007 452.788 Q576.007 450.496 574.392 449.211 Q572.795 447.909 569.93 447.909 L566.909 447.909 L566.909 445.027 L570.069 445.027 Q572.656 445.027 574.027 444.003 Q575.399 442.961 575.399 441.017 Q575.399 439.02 573.975 437.961 Q572.569 436.885 569.93 436.885 Q568.489 436.885 566.84 437.197 Q565.191 437.51 563.212 438.17 L563.212 435.045 Q565.208 434.489 566.944 434.211 Q568.698 433.934 570.243 433.934 Q574.236 433.934 576.562 435.756 Q578.889 437.562 578.889 440.652 Q578.889 442.805 577.656 444.298 Q576.423 445.774 574.149 446.347 Z" fill="#000000" fill-rule="evenodd" fill-opacity="1" /><path clip-path="url(#clip020)" d="M 0 0 M629.144 457.371 L641.383 457.371 L641.383 460.322 L624.925 460.322 L624.925 457.371 Q626.922 455.305 630.359 451.833 Q633.814 448.343 634.699 447.336 Q636.383 445.444 637.043 444.142 Q637.72 442.822 637.72 441.555 Q637.72 439.489 636.262 438.187 Q634.821 436.885 632.495 436.885 Q630.845 436.885 629.005 437.458 Q627.182 438.031 625.099 439.194 L625.099 435.652 Q627.217 434.802 629.057 434.368 Q630.897 433.934 632.425 433.934 Q636.453 433.934 638.849 435.947 Q641.245 437.961 641.245 441.329 Q641.245 442.927 640.637 444.368 Q640.047 445.791 638.467 447.736 Q638.033 448.239 635.706 450.652 Q633.38 453.048 629.144 457.371 Z" fill="#000000" fill-rule="evenodd" fill-opacity="1" /><path clip-path="url(#clip020)" d="M 0 0 M658.38 437.458 L649.526 451.295 L658.38 451.295 L658.38 437.458 M657.46 434.402 L661.869 434.402 L661.869 451.295 L665.567 451.295 L665.567 454.211 L661.869 454.211 L661.869 460.322 L658.38 460.322 L658.38 454.211 L646.679 454.211 L646.679 450.826 L657.46 434.402 Z" fill="#000000" fill-rule="evenodd" fill-opacity="1" /><circle clip-path="url(#clip022)" cx="156.213" cy="396" r="14" fill="#0000ff" fill-rule="evenodd" fill-opacity="1" stroke="none"/>
<circle clip-path="url(#clip022)" cx="113.602" cy="323.902" r="14" fill="#0000ff" fill-rule="evenodd" fill-opacity="1" stroke="none"/>
<circle clip-path="url(#clip022)" cx="198.823" cy="323.902" r="14" fill="#0000ff" fill-rule="evenodd" fill-opacity="1" stroke="none"/>
<circle clip-path="url(#clip022)" cx="326.654" cy="396" r="14" fill="#0000ff" fill-rule="evenodd" fill-opacity="1" stroke="none"/>
<circle clip-path="url(#clip022)" cx="284.043" cy="323.902" r="14" fill="#0000ff" fill-rule="evenodd" fill-opacity="1" stroke="none"/>
<circle clip-path="url(#clip022)" cx="369.264" cy="323.902" r="14" fill="#0000ff" fill-rule="evenodd" fill-opacity="1" stroke="none"/>
<circle clip-path="url(#clip022)" cx="113.602" cy="179.705" r="14" fill="#0000ff" fill-rule="evenodd" fill-opacity="1" stroke="none"/>
<circle clip-path="url(#clip022)" cx="113.602" cy="468.098" r="14" fill="#0000ff" fill-rule="evenodd" fill-opacity="1" stroke="none"/>
<circle clip-path="url(#clip022)" cx="241.433" cy="540.197" r="14" fill="#0000ff" fill-rule="evenodd" fill-opacity="1" stroke="none"/>
<circle clip-path="url(#clip022)" cx="198.823" cy="468.098" r="14" fill="#0000ff" fill-rule="evenodd" fill-opacity="1" stroke="none"/>
<circle clip-path="url(#clip022)" cx="284.043" cy="468.098" r="14" fill="#0000ff" fill-rule="evenodd" fill-opacity="1" stroke="none"/>
<path clip-path="url(#clip020)" d="M 0 0 M156.716 385.273 L162.445 385.273 L162.445 365.498 L156.213 366.748 L156.213 363.554 L162.41 362.304 L165.917 362.304 L165.917 385.273 L171.647 385.273 L171.647 388.224 L156.716 388.224 L156.716 385.273 Z" fill="#000000" fill-rule="evenodd" fill-opacity="1" /><path clip-path="url(#clip020)" d="M 0 0 M186.23 364.613 Q183.521 364.613 182.15 367.287 Q180.796 369.943 180.796 375.29 Q180.796 380.62 182.15 383.293 Q183.521 385.95 186.23 385.95 Q188.955 385.95 190.31 383.293 Q191.681 380.62 191.681 375.29 Q191.681 369.943 190.31 367.287 Q188.955 364.613 186.23 364.613 M186.23 361.835 Q190.587 361.835 192.879 365.29 Q195.188 368.728 195.188 375.29 Q195.188 381.835 192.879 385.29 Q190.587 388.727 186.23 388.727 Q181.872 388.727 179.563 385.29 Q177.272 381.835 177.272 375.29 Q177.272 368.728 179.563 365.29 Q181.872 361.835 186.23 361.835 Z" fill="#000000" fill-rule="evenodd" fill-opacity="1" /><path clip-path="url(#clip020)" d="M 0 0 M114.106 313.174 L119.835 313.174 L119.835 293.4 L113.602 294.65 L113.602 291.456 L119.8 290.206 L123.307 290.206 L123.307 313.174 L129.036 313.174 L129.036 316.126 L114.106 316.126 L114.106 313.174 Z" fill="#000000" fill-rule="evenodd" fill-opacity="1" /><path clip-path="url(#clip020)" d="M 0 0 M136.727 313.174 L142.456 313.174 L142.456 293.4 L136.224 294.65 L136.224 291.456 L142.422 290.206 L145.929 290.206 L145.929 313.174 L151.658 313.174 L151.658 316.126 L136.727 316.126 L136.727 313.174 Z" fill="#000000" fill-rule="evenodd" fill-opacity="1" /><path clip-path="url(#clip020)" d="M 0 0 M199.326 313.174 L205.055 313.174 L205.055 293.4 L198.823 294.65 L198.823 291.456 L205.021 290.206 L208.528 290.206 L208.528 313.174 L214.257 313.174 L214.257 316.126 L199.326 316.126 L199.326 313.174 Z" fill="#000000" fill-rule="evenodd" fill-opacity="1" /><path clip-path="url(#clip020)" d="M 0 0 M224.361 313.174 L236.6 313.174 L236.6 316.126 L220.142 316.126 L220.142 313.174 Q222.139 311.108 225.576 307.636 Q229.031 304.147 229.916 303.14 Q231.6 301.247 232.26 299.945 Q232.937 298.626 232.937 297.358 Q232.937 295.292 231.479 293.99 Q230.038 292.688 227.712 292.688 Q226.062 292.688 224.222 293.261 Q222.399 293.834 220.316 294.997 L220.316 291.456 Q222.434 290.605 224.274 290.171 Q226.114 289.737 227.642 289.737 Q231.67 289.737 234.066 291.751 Q236.462 293.765 236.462 297.133 Q236.462 298.73 235.854 300.171 Q235.264 301.595 233.684 303.539 Q233.25 304.042 230.923 306.456 Q228.597 308.851 224.361 313.174 Z" fill="#000000" fill-rule="evenodd" fill-opacity="1" /><path clip-path="url(#clip020)" d="M 0 0 M327.157 385.273 L332.886 385.273 L332.886 365.498 L326.654 366.748 L326.654 363.554 L332.851 362.304 L336.358 362.304 L336.358 385.273 L342.087 385.273 L342.087 388.224 L327.157 388.224 L327.157 385.273 Z" fill="#000000" fill-rule="evenodd" fill-opacity="1" /><path clip-path="url(#clip020)" d="M 0 0 M359.796 374.248 Q362.313 374.787 363.719 376.488 Q365.143 378.189 365.143 380.689 Q365.143 384.526 362.504 386.627 Q359.865 388.727 355.004 388.727 Q353.372 388.727 351.636 388.398 Q349.917 388.085 348.077 387.443 L348.077 384.057 Q349.535 384.908 351.271 385.342 Q353.008 385.776 354.9 385.776 Q358.199 385.776 359.917 384.474 Q361.653 383.172 361.653 380.689 Q361.653 378.398 360.039 377.113 Q358.442 375.811 355.577 375.811 L352.556 375.811 L352.556 372.929 L355.716 372.929 Q358.303 372.929 359.674 371.905 Q361.046 370.863 361.046 368.919 Q361.046 366.922 359.622 365.863 Q358.216 364.787 355.577 364.787 Q354.136 364.787 352.487 365.099 Q350.837 365.412 348.858 366.071 L348.858 362.946 Q350.855 362.391 352.591 362.113 Q354.344 361.835 355.889 361.835 Q359.883 361.835 362.209 363.658 Q364.535 365.464 364.535 368.554 Q364.535 370.707 363.303 372.2 Q362.07 373.675 359.796 374.248 Z" fill="#000000" fill-rule="evenodd" fill-opacity="1" /><path clip-path="url(#clip020)" d="M 0 0 M284.547 313.174 L290.276 313.174 L290.276 293.4 L284.043 294.65 L284.043 291.456 L290.241 290.206 L293.748 290.206 L293.748 313.174 L299.477 313.174 L299.477 316.126 L284.547 316.126 L284.547 313.174 Z" fill="#000000" fill-rule="evenodd" fill-opacity="1" /><path clip-path="url(#clip020)" d="M 0 0 M316.196 293.261 L307.342 307.098 L316.196 307.098 L316.196 293.261 M315.276 290.206 L319.685 290.206 L319.685 307.098 L323.383 307.098 L323.383 310.015 L319.685 310.015 L319.685 316.126 L316.196 316.126 L316.196 310.015 L304.495 310.015 L304.495 306.629 L315.276 290.206 Z" fill="#000000" fill-rule="evenodd" fill-opacity="1" /><path clip-path="url(#clip020)" d="M 0 0 M369.767 313.174 L375.496 313.174 L375.496 293.4 L369.264 294.65 L369.264 291.456 L375.462 290.206 L378.969 290.206 L378.969 313.174 L384.698 313.174 L384.698 316.126 L369.767 316.126 L369.767 313.174 Z" fill="#000000" fill-rule="evenodd" fill-opacity="1" /><path clip-path="url(#clip020)" d="M 0 0 M391.816 290.206 L405.583 290.206 L405.583 293.157 L395.028 293.157 L395.028 299.511 Q395.791 299.251 396.555 299.129 Q397.319 298.99 398.083 298.99 Q402.423 298.99 404.958 301.369 Q407.493 303.747 407.493 307.81 Q407.493 311.994 404.889 314.32 Q402.284 316.629 397.545 316.629 Q395.913 316.629 394.212 316.351 Q392.528 316.074 390.722 315.518 L390.722 311.994 Q392.284 312.844 393.951 313.261 Q395.618 313.678 397.475 313.678 Q400.479 313.678 402.232 312.098 Q403.986 310.518 403.986 307.81 Q403.986 305.101 402.232 303.522 Q400.479 301.942 397.475 301.942 Q396.069 301.942 394.663 302.254 Q393.274 302.567 391.816 303.226 L391.816 290.206 Z" fill="#000000" fill-rule="evenodd" fill-opacity="1" /><path clip-path="url(#clip020)" d="M 0 0 M117.821 168.978 L130.061 168.978 L130.061 171.929 L113.602 171.929 L113.602 168.978 Q115.599 166.912 119.036 163.44 Q122.491 159.95 123.377 158.943 Q125.061 157.051 125.72 155.749 Q126.397 154.429 126.397 153.162 Q126.397 151.096 124.939 149.794 Q123.498 148.492 121.172 148.492 Q119.522 148.492 117.682 149.065 Q115.859 149.637 113.776 150.801 L113.776 147.259 Q115.894 146.408 117.734 145.974 Q119.575 145.54 121.102 145.54 Q125.13 145.54 127.526 147.554 Q129.922 149.568 129.922 152.936 Q129.922 154.533 129.314 155.974 Q128.724 157.398 127.144 159.342 Q126.71 159.846 124.384 162.259 Q122.057 164.655 117.821 168.978 Z" fill="#000000" fill-rule="evenodd" fill-opacity="1" /><path clip-path="url(#clip020)" d="M 0 0 M147.057 149.065 L138.203 162.901 L147.057 162.901 L147.057 149.065 M146.137 146.009 L150.547 146.009 L150.547 162.901 L154.245 162.901 L154.245 165.818 L150.547 165.818 L150.547 171.929 L147.057 171.929 L147.057 165.818 L135.356 165.818 L135.356 162.433 L146.137 146.009 Z" fill="#000000" fill-rule="evenodd" fill-opacity="1" /><path clip-path="url(#clip020)" d="M 0 0 M82.7108 518.445 Q85.2282 518.983 86.6344 520.685 Q88.058 522.386 88.058 524.886 Q88.058 528.723 85.4191 530.823 Q82.7803 532.924 77.9192 532.924 Q76.2872 532.924 74.5511 532.594 Q72.8324 532.282 70.9921 531.639 L70.9921 528.254 Q72.4505 529.105 74.1866 529.539 Q75.9227 529.973 77.815 529.973 Q81.1136 529.973 82.8323 528.671 Q84.5684 527.369 84.5684 524.886 Q84.5684 522.594 82.9539 521.31 Q81.3567 520.008 78.4921 520.008 L75.4713 520.008 L75.4713 517.126 L78.631 517.126 Q81.2178 517.126 82.5893 516.101 Q83.9608 515.06 83.9608 513.115 Q83.9608 511.119 82.5372 510.06 Q81.131 508.983 78.4921 508.983 Q77.0511 508.983 75.4018 509.296 Q73.7525 509.608 71.7734 510.268 L71.7734 507.143 Q73.7699 506.587 75.506 506.31 Q77.2595 506.032 78.8046 506.032 Q82.7976 506.032 85.124 507.855 Q87.4504 509.66 87.4504 512.751 Q87.4504 514.903 86.2177 516.396 Q84.9851 517.872 82.7108 518.445 Z" fill="#000000" fill-rule="evenodd" fill-opacity="1" /><path clip-path="url(#clip020)" d="M 0 0 M95.3149 529.469 L101.044 529.469 L101.044 509.695 L94.8114 510.945 L94.8114 507.751 L101.009 506.501 L104.516 506.501 L104.516 529.469 L110.245 529.469 L110.245 532.421 L95.3149 532.421 L95.3149 529.469 Z" fill="#000000" fill-rule="evenodd" fill-opacity="1" /><path clip-path="url(#clip020)" d="M 0 0 M125.321 446.347 Q127.838 446.885 129.245 448.586 Q130.668 450.288 130.668 452.788 Q130.668 456.624 128.029 458.725 Q125.39 460.826 120.529 460.826 Q118.897 460.826 117.161 460.496 Q115.443 460.183 113.602 459.541 L113.602 456.156 Q115.061 457.006 116.797 457.44 Q118.533 457.874 120.425 457.874 Q123.724 457.874 125.443 456.572 Q127.179 455.27 127.179 452.788 Q127.179 450.496 125.564 449.211 Q123.967 447.909 121.102 447.909 L118.082 447.909 L118.082 445.027 L121.241 445.027 Q123.828 445.027 125.2 444.003 Q126.571 442.961 126.571 441.017 Q126.571 439.02 125.147 437.961 Q123.741 436.885 121.102 436.885 Q119.661 436.885 118.012 437.197 Q116.363 437.51 114.384 438.17 L114.384 435.045 Q116.38 434.489 118.116 434.211 Q119.87 433.934 121.415 433.934 Q125.408 433.934 127.734 435.756 Q130.061 437.562 130.061 440.652 Q130.061 442.805 128.828 444.298 Q127.595 445.774 125.321 446.347 Z" fill="#000000" fill-rule="evenodd" fill-opacity="1" /><path clip-path="url(#clip020)" d="M 0 0 M147.942 446.347 Q150.46 446.885 151.866 448.586 Q153.29 450.288 153.29 452.788 Q153.29 456.624 150.651 458.725 Q148.012 460.826 143.151 460.826 Q141.519 460.826 139.783 460.496 Q138.064 460.183 136.224 459.541 L136.224 456.156 Q137.682 457.006 139.418 457.44 Q141.154 457.874 143.047 457.874 Q146.345 457.874 148.064 456.572 Q149.8 455.27 149.8 452.788 Q149.8 450.496 148.186 449.211 Q146.588 447.909 143.724 447.909 L140.703 447.909 L140.703 445.027 L143.863 445.027 Q146.449 445.027 147.821 444.003 Q149.192 442.961 149.192 441.017 Q149.192 439.02 147.769 437.961 Q146.363 436.885 143.724 436.885 Q142.283 436.885 140.633 437.197 Q138.984 437.51 137.005 438.17 L137.005 435.045 Q139.002 434.489 140.738 434.211 Q142.491 433.934 144.036 433.934 Q148.029 433.934 150.356 435.756 Q152.682 437.562 152.682 440.652 Q152.682 442.805 151.449 444.298 Q150.217 445.774 147.942 446.347 Z" fill="#000000" fill-rule="evenodd" fill-opacity="1" /><path clip-path="url(#clip020)" d="M 0 0 M253.152 518.445 Q255.669 518.983 257.075 520.685 Q258.499 522.386 258.499 524.886 Q258.499 528.723 255.86 530.823 Q253.221 532.924 248.36 532.924 Q246.728 532.924 244.992 532.594 Q243.273 532.282 241.433 531.639 L241.433 528.254 Q242.891 529.105 244.627 529.539 Q246.364 529.973 248.256 529.973 Q251.555 529.973 253.273 528.671 Q255.009 527.369 255.009 524.886 Q255.009 522.594 253.395 521.31 Q251.798 520.008 248.933 520.008 L245.912 520.008 L245.912 517.126 L249.072 517.126 Q251.659 517.126 253.03 516.101 Q254.402 515.06 254.402 513.115 Q254.402 511.119 252.978 510.06 Q251.572 508.983 248.933 508.983 Q247.492 508.983 245.843 509.296 Q244.193 509.608 242.214 510.268 L242.214 507.143 Q244.211 506.587 245.947 506.31 Q247.7 506.032 249.246 506.032 Q253.239 506.032 255.565 507.855 Q257.891 509.66 257.891 512.751 Q257.891 514.903 256.659 516.396 Q255.426 517.872 253.152 518.445 Z" fill="#000000" fill-rule="evenodd" fill-opacity="1" /><path clip-path="url(#clip020)" d="M 0 0 M274.784 509.556 L265.929 523.393 L274.784 523.393 L274.784 509.556 M273.863 506.501 L278.273 506.501 L278.273 523.393 L281.971 523.393 L281.971 526.31 L278.273 526.31 L278.273 532.421 L274.784 532.421 L274.784 526.31 L263.082 526.31 L263.082 522.924 L273.863 506.501 Z" fill="#000000" fill-rule="evenodd" fill-opacity="1" /><path clip-path="url(#clip020)" d="M 0 0 M210.542 446.347 Q213.059 446.885 214.465 448.586 Q215.889 450.288 215.889 452.788 Q215.889 456.624 213.25 458.725 Q210.611 460.826 205.75 460.826 Q204.118 460.826 202.382 460.496 Q200.663 460.183 198.823 459.541 L198.823 456.156 Q200.281 457.006 202.017 457.44 Q203.753 457.874 205.646 457.874 Q208.944 457.874 210.663 456.572 Q212.399 455.27 212.399 452.788 Q212.399 450.496 210.785 449.211 Q209.187 447.909 206.323 447.909 L203.302 447.909 L203.302 445.027 L206.462 445.027 Q209.048 445.027 210.42 444.003 Q211.792 442.961 211.792 441.017 Q211.792 439.02 210.368 437.961 Q208.962 436.885 206.323 436.885 Q204.882 436.885 203.233 437.197 Q201.583 437.51 199.604 438.17 L199.604 435.045 Q201.601 434.489 203.337 434.211 Q205.09 433.934 206.635 433.934 Q210.628 433.934 212.955 435.756 Q215.281 437.562 215.281 440.652 Q215.281 442.805 214.048 444.298 Q212.816 445.774 210.542 446.347 Z" fill="#000000" fill-rule="evenodd" fill-opacity="1" /><path clip-path="url(#clip020)" d="M 0 0 M222.573 434.402 L236.34 434.402 L236.34 437.354 L225.784 437.354 L225.784 443.708 Q226.548 443.447 227.312 443.326 Q228.076 443.187 228.84 443.187 Q233.18 443.187 235.715 445.565 Q238.25 447.944 238.25 452.006 Q238.25 456.19 235.646 458.517 Q233.041 460.826 228.302 460.826 Q226.67 460.826 224.969 460.548 Q223.285 460.27 221.479 459.715 L221.479 456.19 Q223.041 457.041 224.708 457.458 Q226.375 457.874 228.232 457.874 Q231.236 457.874 232.989 456.295 Q234.743 454.715 234.743 452.006 Q234.743 449.298 232.989 447.718 Q231.236 446.138 228.232 446.138 Q226.826 446.138 225.42 446.451 Q224.031 446.763 222.573 447.423 L222.573 434.402 Z" fill="#000000" fill-rule="evenodd" fill-opacity="1" /><path clip-path="url(#clip020)" d="M 0 0 M295.762 446.347 Q298.279 446.885 299.686 448.586 Q301.109 450.288 301.109 452.788 Q301.109 456.624 298.47 458.725 Q295.831 460.826 290.97 460.826 Q289.338 460.826 287.602 460.496 Q285.884 460.183 284.043 459.541 L284.043 456.156 Q285.502 457.006 287.238 457.44 Q288.974 457.874 290.866 457.874 Q294.165 457.874 295.884 456.572 Q297.62 455.27 297.62 452.788 Q297.62 450.496 296.005 449.211 Q294.408 447.909 291.543 447.909 L288.522 447.909 L288.522 445.027 L291.682 445.027 Q294.269 445.027 295.64 444.003 Q297.012 442.961 297.012 441.017 Q297.012 439.02 295.588 437.961 Q294.182 436.885 291.543 436.885 Q290.102 436.885 288.453 437.197 Q286.804 437.51 284.825 438.17 L284.825 435.045 Q286.821 434.489 288.557 434.211 Q290.311 433.934 291.856 433.934 Q295.849 433.934 298.175 435.756 Q300.502 437.562 300.502 440.652 Q300.502 442.805 299.269 444.298 Q298.036 445.774 295.762 446.347 Z" fill="#000000" fill-rule="evenodd" fill-opacity="1" /><path clip-path="url(#clip020)" d="M 0 0 M315.692 445.965 Q313.331 445.965 311.942 447.579 Q310.571 449.194 310.571 452.006 Q310.571 454.802 311.942 456.433 Q313.331 458.048 315.692 458.048 Q318.054 458.048 319.425 456.433 Q320.814 454.802 320.814 452.006 Q320.814 449.194 319.425 447.579 Q318.054 445.965 315.692 445.965 M322.654 434.975 L322.654 438.17 Q321.335 437.545 319.981 437.215 Q318.644 436.885 317.324 436.885 Q313.852 436.885 312.012 439.229 Q310.189 441.572 309.929 446.312 Q310.953 444.802 312.498 444.003 Q314.043 443.187 315.901 443.187 Q319.807 443.187 322.064 445.565 Q324.338 447.927 324.338 452.006 Q324.338 455.999 321.977 458.413 Q319.616 460.826 315.692 460.826 Q311.196 460.826 308.817 457.388 Q306.439 453.933 306.439 447.388 Q306.439 441.243 309.356 437.597 Q312.272 433.934 317.185 433.934 Q318.505 433.934 319.842 434.194 Q321.196 434.454 322.654 434.975 Z" fill="#000000" fill-rule="evenodd" fill-opacity="1" /><circle clip-path="url(#clip022)" cx="667.535" cy="396" r="14" fill="#0000ff" fill-rule="evenodd" fill-opacity="1" stroke="none"/>
<circle clip-path="url(#clip022)" cx="624.925" cy="323.902" r="14" fill="#0000ff" fill-rule="evenodd" fill-opacity="1" stroke="none"/>
<circle clip-path="url(#clip022)" cx="710.146" cy="323.902" r="14" fill="#0000ff" fill-rule="evenodd" fill-opacity="1" stroke="none"/>
<circle clip-path="url(#clip022)" cx="752.756" cy="540.197" r="14" fill="#0000ff" fill-rule="evenodd" fill-opacity="1" stroke="none"/>
<circle clip-path="url(#clip022)" cx="710.146" cy="468.098" r="14" fill="#0000ff" fill-rule="evenodd" fill-opacity="1" stroke="none"/>
<path clip-path="url(#clip020)" d="M 0 0 M668.039 385.273 L673.768 385.273 L673.768 365.498 L667.535 366.748 L667.535 363.554 L673.733 362.304 L677.24 362.304 L677.24 385.273 L682.969 385.273 L682.969 388.224 L668.039 388.224 L668.039 385.273 Z" fill="#000000" fill-rule="evenodd" fill-opacity="1" /><path clip-path="url(#clip020)" d="M 0 0 M629.144 313.174 L641.383 313.174 L641.383 316.126 L624.925 316.126 L624.925 313.174 Q626.922 311.108 630.359 307.636 Q633.814 304.147 634.699 303.14 Q636.383 301.247 637.043 299.945 Q637.72 298.626 637.72 297.358 Q637.72 295.292 636.262 293.99 Q634.821 292.688 632.495 292.688 Q630.845 292.688 629.005 293.261 Q627.182 293.834 625.099 294.997 L625.099 291.456 Q627.217 290.605 629.057 290.171 Q630.897 289.737 632.425 289.737 Q636.453 289.737 638.849 291.751 Q641.245 293.765 641.245 297.133 Q641.245 298.73 640.637 300.171 Q640.047 301.595 638.467 303.539 Q638.033 304.042 635.706 306.456 Q633.38 308.851 629.144 313.174 Z" fill="#000000" fill-rule="evenodd" fill-opacity="1" /><path clip-path="url(#clip020)" d="M 0 0 M721.864 302.15 Q724.382 302.688 725.788 304.39 Q727.212 306.091 727.212 308.591 Q727.212 312.428 724.573 314.528 Q721.934 316.629 717.073 316.629 Q715.441 316.629 713.705 316.299 Q711.986 315.987 710.146 315.344 L710.146 311.959 Q711.604 312.81 713.34 313.244 Q715.076 313.678 716.969 313.678 Q720.267 313.678 721.986 312.376 Q723.722 311.074 723.722 308.591 Q723.722 306.299 722.107 305.015 Q720.51 303.713 717.646 303.713 L714.625 303.713 L714.625 300.831 L717.785 300.831 Q720.371 300.831 721.743 299.806 Q723.114 298.765 723.114 296.82 Q723.114 294.824 721.691 293.765 Q720.285 292.688 717.646 292.688 Q716.205 292.688 714.555 293.001 Q712.906 293.313 710.927 293.973 L710.927 290.848 Q712.923 290.292 714.66 290.015 Q716.413 289.737 717.958 289.737 Q721.951 289.737 724.278 291.56 Q726.604 293.365 726.604 296.456 Q726.604 298.608 725.371 300.101 Q724.139 301.577 721.864 302.15 Z" fill="#000000" fill-rule="evenodd" fill-opacity="1" /><path clip-path="url(#clip020)" d="M 0 0 M756.975 529.469 L769.214 529.469 L769.214 532.421 L752.756 532.421 L752.756 529.469 Q754.752 527.403 758.19 523.931 Q761.645 520.442 762.53 519.435 Q764.214 517.542 764.874 516.24 Q765.551 514.921 765.551 513.653 Q765.551 511.587 764.093 510.285 Q762.652 508.983 760.325 508.983 Q758.676 508.983 756.836 509.556 Q755.013 510.129 752.93 511.292 L752.93 507.751 Q755.048 506.9 756.888 506.466 Q758.728 506.032 760.256 506.032 Q764.284 506.032 766.679 508.046 Q769.075 510.06 769.075 513.428 Q769.075 515.025 768.468 516.466 Q767.877 517.889 766.297 519.834 Q765.863 520.337 763.537 522.751 Q761.211 525.146 756.975 529.469 Z" fill="#000000" fill-rule="evenodd" fill-opacity="1" /><path clip-path="url(#clip020)" d="M 0 0 M776.61 506.501 L790.377 506.501 L790.377 509.452 L779.822 509.452 L779.822 515.806 Q780.586 515.546 781.35 515.424 Q782.113 515.285 782.877 515.285 Q787.218 515.285 789.752 517.664 Q792.287 520.042 792.287 524.105 Q792.287 528.289 789.683 530.615 Q787.079 532.924 782.339 532.924 Q780.707 532.924 779.006 532.646 Q777.322 532.369 775.516 531.813 L775.516 528.289 Q777.079 529.139 778.745 529.556 Q780.412 529.973 782.27 529.973 Q785.273 529.973 787.027 528.393 Q788.78 526.813 788.78 524.105 Q788.78 521.396 787.027 519.817 Q785.273 518.237 782.27 518.237 Q780.863 518.237 779.457 518.549 Q778.068 518.862 776.61 519.521 L776.61 506.501 Z" fill="#000000" fill-rule="evenodd" fill-opacity="1" /><path clip-path="url(#clip020)" d="M 0 0 M714.364 457.371 L726.604 457.371 L726.604 460.322 L710.146 460.322 L710.146 457.371 Q712.142 455.305 715.58 451.833 Q719.035 448.343 719.92 447.336 Q721.604 445.444 722.264 444.142 Q722.941 442.822 722.941 441.555 Q722.941 439.489 721.482 438.187 Q720.041 436.885 717.715 436.885 Q716.066 436.885 714.226 437.458 Q712.403 438.031 710.319 439.194 L710.319 435.652 Q712.437 434.802 714.278 434.368 Q716.118 433.934 717.646 433.934 Q721.673 433.934 724.069 435.947 Q726.465 437.961 726.465 441.329 Q726.465 442.927 725.857 444.368 Q725.267 445.791 723.687 447.736 Q723.253 448.239 720.927 450.652 Q718.6 453.048 714.364 457.371 Z" fill="#000000" fill-rule="evenodd" fill-opacity="1" /><path clip-path="url(#clip020)" d="M 0 0 M741.899 445.965 Q739.538 445.965 738.149 447.579 Q736.777 449.194 736.777 452.006 Q736.777 454.802 738.149 456.433 Q739.538 458.048 741.899 458.048 Q744.26 458.048 745.632 456.433 Q747.02 454.802 747.02 452.006 Q747.02 449.194 745.632 447.579 Q744.26 445.965 741.899 445.965 M748.861 434.975 L748.861 438.17 Q747.541 437.545 746.187 437.215 Q744.85 436.885 743.531 436.885 Q740.059 436.885 738.218 439.229 Q736.396 441.572 736.135 446.312 Q737.159 444.802 738.705 444.003 Q740.25 443.187 742.107 443.187 Q746.014 443.187 748.27 445.565 Q750.545 447.927 750.545 452.006 Q750.545 455.999 748.184 458.413 Q745.823 460.826 741.899 460.826 Q737.402 460.826 735.024 457.388 Q732.646 453.933 732.646 447.388 Q732.646 441.243 735.562 437.597 Q738.479 433.934 743.392 433.934 Q744.711 433.934 746.048 434.194 Q747.402 434.454 748.861 434.975 Z" fill="#000000" fill-rule="evenodd" fill-opacity="1" /><circle clip-path="url(#clip022)" cx="156.213" cy="107.607" r="14" fill="#0000ff" fill-rule="evenodd" fill-opacity="1" stroke="none"/>
<circle clip-path="url(#clip022)" cx="326.654" cy="107.607" r="14" fill="#0000ff" fill-rule="evenodd" fill-opacity="1" stroke="none"/>
<circle clip-path="url(#clip022)" cx="497.094" cy="107.607" r="14" fill="#0000ff" fill-rule="evenodd" fill-opacity="1" stroke="none"/>
<circle clip-path="url(#clip022)" cx="667.535" cy="107.607" r="14" fill="#0000ff" fill-rule="evenodd" fill-opacity="1" stroke="none"/>
<circle clip-path="url(#clip022)" cx="497.094" cy="396" r="14" fill="#0000ff" fill-rule="evenodd" fill-opacity="1" stroke="none"/>
<circle clip-path="url(#clip022)" cx="454.484" cy="323.902" r="14" fill="#0000ff" fill-rule="evenodd" fill-opacity="1" stroke="none"/>
<circle clip-path="url(#clip022)" cx="539.705" cy="323.902" r="14" fill="#0000ff" fill-rule="evenodd" fill-opacity="1" stroke="none"/>
<circle clip-path="url(#clip022)" cx="241.433" cy="251.803" r="14" fill="#0000ff" fill-rule="evenodd" fill-opacity="1" stroke="none"/>
<circle clip-path="url(#clip022)" cx="198.823" cy="179.705" r="14" fill="#0000ff" fill-rule="evenodd" fill-opacity="1" stroke="none"/>
<circle clip-path="url(#clip022)" cx="284.043" cy="179.705" r="14" fill="#0000ff" fill-rule="evenodd" fill-opacity="1" stroke="none"/>
<circle clip-path="url(#clip022)" cx="411.874" cy="251.803" r="14" fill="#0000ff" fill-rule="evenodd" fill-opacity="1" stroke="none"/>
<circle clip-path="url(#clip022)" cx="369.264" cy="179.705" r="14" fill="#0000ff" fill-rule="evenodd" fill-opacity="1" stroke="none"/>
<circle clip-path="url(#clip022)" cx="454.484" cy="179.705" r="14" fill="#0000ff" fill-rule="evenodd" fill-opacity="1" stroke="none"/>
<circle clip-path="url(#clip022)" cx="582.315" cy="251.803" r="14" fill="#0000ff" fill-rule="evenodd" fill-opacity="1" stroke="none"/>
<circle clip-path="url(#clip022)" cx="539.705" cy="179.705" r="14" fill="#0000ff" fill-rule="evenodd" fill-opacity="1" stroke="none"/>
<circle clip-path="url(#clip022)" cx="624.925" cy="179.705" r="14" fill="#0000ff" fill-rule="evenodd" fill-opacity="1" stroke="none"/>
<circle clip-path="url(#clip022)" cx="752.756" cy="251.803" r="14" fill="#0000ff" fill-rule="evenodd" fill-opacity="1" stroke="none"/>
<circle clip-path="url(#clip022)" cx="710.146" cy="179.705" r="14" fill="#0000ff" fill-rule="evenodd" fill-opacity="1" stroke="none"/>
<path clip-path="url(#clip020)" d="M 0 0 M156.716 96.8793 L162.445 96.8793 L162.445 77.1051 L156.213 78.3551 L156.213 75.1607 L162.41 73.9107 L165.917 73.9107 L165.917 96.8793 L171.647 96.8793 L171.647 99.8307 L156.716 99.8307 L156.716 96.8793 Z" fill="#000000" fill-rule="evenodd" fill-opacity="1" /><path clip-path="url(#clip020)" d="M 0 0 M338.355 76.9663 L329.501 90.803 L338.355 90.803 L338.355 76.9663 M337.435 73.9107 L341.844 73.9107 L341.844 90.803 L345.542 90.803 L345.542 93.7196 L341.844 93.7196 L341.844 99.8307 L338.355 99.8307 L338.355 93.7196 L326.654 93.7196 L326.654 90.3342 L337.435 73.9107 Z" fill="#000000" fill-rule="evenodd" fill-opacity="1" /><path clip-path="url(#clip020)" d="M 0 0 M497.094 73.9107 L513.761 73.9107 L513.761 75.4038 L504.351 99.8307 L500.688 99.8307 L509.542 76.8621 L497.094 76.8621 L497.094 73.9107 Z" fill="#000000" fill-rule="evenodd" fill-opacity="1" /><path clip-path="url(#clip020)" d="M 0 0 M668.039 96.8793 L673.768 96.8793 L673.768 77.1051 L667.535 78.3551 L667.535 75.1607 L673.733 73.9107 L677.24 73.9107 L677.24 96.8793 L682.969 96.8793 L682.969 99.8307 L668.039 99.8307 L668.039 96.8793 Z" fill="#000000" fill-rule="evenodd" fill-opacity="1" /><path clip-path="url(#clip020)" d="M 0 0 M697.553 76.2197 Q694.844 76.2197 693.473 78.8933 Q692.119 81.5496 692.119 86.8968 Q692.119 92.2266 693.473 94.9002 Q694.844 97.5564 697.553 97.5564 Q700.278 97.5564 701.632 94.9002 Q703.004 92.2266 703.004 86.8968 Q703.004 81.5496 701.632 78.8933 Q700.278 76.2197 697.553 76.2197 M697.553 73.442 Q701.91 73.442 704.202 76.8968 Q706.511 80.3343 706.511 86.8968 Q706.511 93.4419 704.202 96.8967 Q701.91 100.334 697.553 100.334 Q693.195 100.334 690.886 96.8967 Q688.594 93.4419 688.594 86.8968 Q688.594 80.3343 690.886 76.8968 Q693.195 73.442 697.553 73.442 Z" fill="#000000" fill-rule="evenodd" fill-opacity="1" /><path clip-path="url(#clip020)" d="M 0 0 M497.598 385.273 L503.327 385.273 L503.327 365.498 L497.094 366.748 L497.094 363.554 L503.292 362.304 L506.799 362.304 L506.799 385.273 L512.528 385.273 L512.528 388.224 L497.598 388.224 L497.598 385.273 Z" fill="#000000" fill-rule="evenodd" fill-opacity="1" /><path clip-path="url(#clip020)" d="M 0 0 M527.546 373.866 Q525.185 373.866 523.796 375.481 Q522.424 377.096 522.424 379.908 Q522.424 382.703 523.796 384.335 Q525.185 385.95 527.546 385.95 Q529.907 385.95 531.278 384.335 Q532.667 382.703 532.667 379.908 Q532.667 377.096 531.278 375.481 Q529.907 373.866 527.546 373.866 M534.507 362.877 L534.507 366.071 Q533.188 365.446 531.834 365.116 Q530.497 364.787 529.178 364.787 Q525.705 364.787 523.865 367.13 Q522.042 369.474 521.782 374.214 Q522.806 372.703 524.351 371.905 Q525.896 371.089 527.754 371.089 Q531.66 371.089 533.917 373.467 Q536.192 375.828 536.192 379.908 Q536.192 383.901 533.83 386.314 Q531.469 388.727 527.546 388.727 Q523.049 388.727 520.671 385.29 Q518.292 381.835 518.292 375.29 Q518.292 369.144 521.209 365.498 Q524.126 361.835 529.039 361.835 Q530.358 361.835 531.695 362.096 Q533.049 362.356 534.507 362.877 Z" fill="#000000" fill-rule="evenodd" fill-opacity="1" /><path clip-path="url(#clip020)" d="M 0 0 M454.988 313.174 L460.717 313.174 L460.717 293.4 L454.484 294.65 L454.484 291.456 L460.682 290.206 L464.189 290.206 L464.189 313.174 L469.918 313.174 L469.918 316.126 L454.988 316.126 L454.988 313.174 Z" fill="#000000" fill-rule="evenodd" fill-opacity="1" /><path clip-path="url(#clip020)" d="M 0 0 M476.116 290.206 L492.783 290.206 L492.783 291.699 L483.373 316.126 L479.71 316.126 L488.564 293.157 L476.116 293.157 L476.116 290.206 Z" fill="#000000" fill-rule="evenodd" fill-opacity="1" /><path clip-path="url(#clip020)" d="M 0 0 M540.208 313.174 L545.937 313.174 L545.937 293.4 L539.705 294.65 L539.705 291.456 L545.903 290.206 L549.41 290.206 L549.41 313.174 L555.139 313.174 L555.139 316.126 L540.208 316.126 L540.208 313.174 Z" fill="#000000" fill-rule="evenodd" fill-opacity="1" /><path clip-path="url(#clip020)" d="M 0 0 M569.722 303.817 Q567.222 303.817 565.781 305.154 Q564.357 306.49 564.357 308.834 Q564.357 311.178 565.781 312.515 Q567.222 313.851 569.722 313.851 Q572.222 313.851 573.663 312.515 Q575.104 311.16 575.104 308.834 Q575.104 306.49 573.663 305.154 Q572.239 303.817 569.722 303.817 M566.215 302.324 Q563.958 301.768 562.691 300.223 Q561.441 298.678 561.441 296.456 Q561.441 293.348 563.646 291.542 Q565.868 289.737 569.722 289.737 Q573.593 289.737 575.798 291.542 Q578.003 293.348 578.003 296.456 Q578.003 298.678 576.736 300.223 Q575.486 301.768 573.246 302.324 Q575.781 302.914 577.187 304.633 Q578.611 306.351 578.611 308.834 Q578.611 312.601 576.302 314.615 Q574.01 316.629 569.722 316.629 Q565.434 316.629 563.125 314.615 Q560.833 312.601 560.833 308.834 Q560.833 306.351 562.257 304.633 Q563.68 302.914 566.215 302.324 M564.93 296.786 Q564.93 298.799 566.18 299.928 Q567.448 301.056 569.722 301.056 Q571.979 301.056 573.246 299.928 Q574.531 298.799 574.531 296.786 Q574.531 294.772 573.246 293.643 Q571.979 292.515 569.722 292.515 Q567.448 292.515 566.18 293.643 Q564.93 294.772 564.93 296.786 Z" fill="#000000" fill-rule="evenodd" fill-opacity="1" /><path clip-path="url(#clip020)" d="M 0 0 M245.652 241.076 L257.891 241.076 L257.891 244.027 L241.433 244.027 L241.433 241.076 Q243.43 239.01 246.867 235.538 Q250.322 232.048 251.207 231.041 Q252.891 229.149 253.551 227.847 Q254.228 226.527 254.228 225.26 Q254.228 223.194 252.77 221.892 Q251.329 220.59 249.002 220.59 Q247.353 220.59 245.513 221.163 Q243.69 221.736 241.607 222.899 L241.607 219.357 Q243.725 218.507 245.565 218.073 Q247.405 217.639 248.933 217.639 Q252.961 217.639 255.357 219.652 Q257.752 221.666 257.752 225.034 Q257.752 226.632 257.145 228.073 Q256.555 229.496 254.975 231.441 Q254.541 231.944 252.214 234.357 Q249.888 236.753 245.652 241.076 Z" fill="#000000" fill-rule="evenodd" fill-opacity="1" /><path clip-path="url(#clip020)" d="M 0 0 M265.287 218.107 L279.054 218.107 L279.054 221.059 L268.499 221.059 L268.499 227.413 Q269.263 227.152 270.027 227.031 Q270.791 226.892 271.554 226.892 Q275.895 226.892 278.429 229.27 Q280.964 231.649 280.964 235.711 Q280.964 239.895 278.36 242.222 Q275.756 244.531 271.016 244.531 Q269.384 244.531 267.683 244.253 Q265.999 243.975 264.193 243.42 L264.193 239.895 Q265.756 240.746 267.423 241.163 Q269.089 241.579 270.947 241.579 Q273.95 241.579 275.704 240 Q277.457 238.42 277.457 235.711 Q277.457 233.003 275.704 231.423 Q273.95 229.843 270.947 229.843 Q269.541 229.843 268.134 230.156 Q266.745 230.468 265.287 231.128 L265.287 218.107 Z" fill="#000000" fill-rule="evenodd" fill-opacity="1" /><path clip-path="url(#clip020)" d="M 0 0 M203.042 168.978 L215.281 168.978 L215.281 171.929 L198.823 171.929 L198.823 168.978 Q200.819 166.912 204.257 163.44 Q207.712 159.95 208.597 158.943 Q210.281 157.051 210.941 155.749 Q211.618 154.429 211.618 153.162 Q211.618 151.096 210.16 149.794 Q208.719 148.492 206.392 148.492 Q204.743 148.492 202.903 149.065 Q201.08 149.637 198.996 150.801 L198.996 147.259 Q201.114 146.408 202.955 145.974 Q204.795 145.54 206.323 145.54 Q210.351 145.54 212.746 147.554 Q215.142 149.568 215.142 152.936 Q215.142 154.533 214.535 155.974 Q213.944 157.398 212.364 159.342 Q211.93 159.846 209.604 162.259 Q207.278 164.655 203.042 168.978 Z" fill="#000000" fill-rule="evenodd" fill-opacity="1" /><path clip-path="url(#clip020)" d="M 0 0 M230.576 157.571 Q228.215 157.571 226.826 159.186 Q225.455 160.801 225.455 163.613 Q225.455 166.408 226.826 168.04 Q228.215 169.655 230.576 169.655 Q232.937 169.655 234.309 168.04 Q235.698 166.408 235.698 163.613 Q235.698 160.801 234.309 159.186 Q232.937 157.571 230.576 157.571 M237.538 146.582 L237.538 149.776 Q236.218 149.151 234.864 148.822 Q233.528 148.492 232.208 148.492 Q228.736 148.492 226.896 150.835 Q225.073 153.179 224.812 157.919 Q225.837 156.408 227.382 155.61 Q228.927 154.794 230.784 154.794 Q234.691 154.794 236.948 157.172 Q239.222 159.533 239.222 163.613 Q239.222 167.606 236.861 170.019 Q234.5 172.433 230.576 172.433 Q226.08 172.433 223.701 168.995 Q221.323 165.54 221.323 158.995 Q221.323 152.849 224.239 149.203 Q227.156 145.54 232.069 145.54 Q233.389 145.54 234.725 145.801 Q236.08 146.061 237.538 146.582 Z" fill="#000000" fill-rule="evenodd" fill-opacity="1" /><path clip-path="url(#clip020)" d="M 0 0 M288.262 168.978 L300.502 168.978 L300.502 171.929 L284.043 171.929 L284.043 168.978 Q286.04 166.912 289.477 163.44 Q292.932 159.95 293.818 158.943 Q295.502 157.051 296.161 155.749 Q296.838 154.429 296.838 153.162 Q296.838 151.096 295.38 149.794 Q293.939 148.492 291.613 148.492 Q289.963 148.492 288.123 149.065 Q286.3 149.637 284.217 150.801 L284.217 147.259 Q286.335 146.408 288.175 145.974 Q290.015 145.54 291.543 145.54 Q295.571 145.54 297.967 147.554 Q300.363 149.568 300.363 152.936 Q300.363 154.533 299.755 155.974 Q299.165 157.398 297.585 159.342 Q297.151 159.846 294.824 162.259 Q292.498 164.655 288.262 168.978 Z" fill="#000000" fill-rule="evenodd" fill-opacity="1" /><path clip-path="url(#clip020)" d="M 0 0 M306.977 146.009 L323.644 146.009 L323.644 147.502 L314.234 171.929 L310.571 171.929 L319.425 148.96 L306.977 148.96 L306.977 146.009 Z" fill="#000000" fill-rule="evenodd" fill-opacity="1" /><path clip-path="url(#clip020)" d="M 0 0 M416.093 241.076 L428.332 241.076 L428.332 244.027 L411.874 244.027 L411.874 241.076 Q413.871 239.01 417.308 235.538 Q420.763 232.048 421.648 231.041 Q423.332 229.149 423.992 227.847 Q424.669 226.527 424.669 225.26 Q424.669 223.194 423.211 221.892 Q421.77 220.59 419.443 220.59 Q417.794 220.59 415.954 221.163 Q414.131 221.736 412.048 222.899 L412.048 219.357 Q414.166 218.507 416.006 218.073 Q417.846 217.639 419.374 217.639 Q423.402 217.639 425.798 219.652 Q428.193 221.666 428.193 225.034 Q428.193 226.632 427.586 228.073 Q426.995 229.496 425.416 231.441 Q424.982 231.944 422.655 234.357 Q420.329 236.753 416.093 241.076 Z" fill="#000000" fill-rule="evenodd" fill-opacity="1" /><path clip-path="url(#clip020)" d="M 0 0 M443.193 231.718 Q440.693 231.718 439.252 233.055 Q437.829 234.392 437.829 236.736 Q437.829 239.079 439.252 240.416 Q440.693 241.753 443.193 241.753 Q445.693 241.753 447.134 240.416 Q448.575 239.062 448.575 236.736 Q448.575 234.392 447.134 233.055 Q445.711 231.718 443.193 231.718 M439.686 230.225 Q437.429 229.67 436.162 228.125 Q434.912 226.58 434.912 224.357 Q434.912 221.25 437.117 219.444 Q439.339 217.639 443.193 217.639 Q447.065 217.639 449.27 219.444 Q451.474 221.25 451.474 224.357 Q451.474 226.58 450.207 228.125 Q448.957 229.67 446.718 230.225 Q449.252 230.816 450.659 232.534 Q452.082 234.253 452.082 236.736 Q452.082 240.503 449.773 242.517 Q447.481 244.531 443.193 244.531 Q438.905 244.531 436.596 242.517 Q434.304 240.503 434.304 236.736 Q434.304 234.253 435.728 232.534 Q437.152 230.816 439.686 230.225 M438.402 224.687 Q438.402 226.701 439.652 227.83 Q440.919 228.958 443.193 228.958 Q445.45 228.958 446.718 227.83 Q448.002 226.701 448.002 224.687 Q448.002 222.673 446.718 221.545 Q445.45 220.416 443.193 220.416 Q440.919 220.416 439.652 221.545 Q438.402 222.673 438.402 224.687 Z" fill="#000000" fill-rule="evenodd" fill-opacity="1" /><path clip-path="url(#clip020)" d="M 0 0 M373.483 168.978 L385.722 168.978 L385.722 171.929 L369.264 171.929 L369.264 168.978 Q371.26 166.912 374.698 163.44 Q378.153 159.95 379.038 158.943 Q380.722 157.051 381.382 155.749 Q382.059 154.429 382.059 153.162 Q382.059 151.096 380.601 149.794 Q379.16 148.492 376.833 148.492 Q375.184 148.492 373.344 149.065 Q371.521 149.637 369.437 150.801 L369.437 147.259 Q371.555 146.408 373.396 145.974 Q375.236 145.54 376.764 145.54 Q380.791 145.54 383.187 147.554 Q385.583 149.568 385.583 152.936 Q385.583 154.533 384.976 155.974 Q384.385 157.398 382.805 159.342 Q382.371 159.846 380.045 162.259 Q377.719 164.655 373.483 168.978 Z" fill="#000000" fill-rule="evenodd" fill-opacity="1" /><path clip-path="url(#clip020)" d="M 0 0 M393.187 171.391 L393.187 168.196 Q394.507 168.821 395.861 169.151 Q397.215 169.481 398.517 169.481 Q401.989 169.481 403.812 167.155 Q405.652 164.811 405.913 160.054 Q404.906 161.547 403.361 162.346 Q401.816 163.144 399.941 163.144 Q396.052 163.144 393.778 160.801 Q391.521 158.44 391.521 154.36 Q391.521 150.367 393.882 147.953 Q396.243 145.54 400.166 145.54 Q404.663 145.54 407.024 148.995 Q409.402 152.433 409.402 158.995 Q409.402 165.124 406.486 168.787 Q403.587 172.433 398.673 172.433 Q397.354 172.433 396 172.172 Q394.646 171.912 393.187 171.391 M400.166 160.401 Q402.527 160.401 403.899 158.787 Q405.288 157.172 405.288 154.36 Q405.288 151.565 403.899 149.95 Q402.527 148.318 400.166 148.318 Q397.805 148.318 396.416 149.95 Q395.045 151.565 395.045 154.36 Q395.045 157.172 396.416 158.787 Q397.805 160.401 400.166 160.401 Z" fill="#000000" fill-rule="evenodd" fill-opacity="1" /><path clip-path="url(#clip020)" d="M 0 0 M466.203 157.953 Q468.72 158.492 470.127 160.193 Q471.55 161.894 471.55 164.394 Q471.55 168.231 468.911 170.332 Q466.272 172.433 461.411 172.433 Q459.779 172.433 458.043 172.103 Q456.325 171.79 454.484 171.148 L454.484 167.762 Q455.943 168.613 457.679 169.047 Q459.415 169.481 461.307 169.481 Q464.606 169.481 466.324 168.179 Q468.061 166.877 468.061 164.394 Q468.061 162.103 466.446 160.818 Q464.849 159.516 461.984 159.516 L458.963 159.516 L458.963 156.634 L462.123 156.634 Q464.71 156.634 466.081 155.61 Q467.453 154.568 467.453 152.624 Q467.453 150.627 466.029 149.568 Q464.623 148.492 461.984 148.492 Q460.543 148.492 458.894 148.804 Q457.245 149.117 455.265 149.776 L455.265 146.651 Q457.262 146.096 458.998 145.818 Q460.752 145.54 462.297 145.54 Q466.29 145.54 468.616 147.363 Q470.942 149.169 470.942 152.259 Q470.942 154.412 469.71 155.905 Q468.477 157.381 466.203 157.953 Z" fill="#000000" fill-rule="evenodd" fill-opacity="1" /><path clip-path="url(#clip020)" d="M 0 0 M485.699 148.318 Q482.991 148.318 481.62 150.992 Q480.265 153.648 480.265 158.995 Q480.265 164.325 481.62 166.999 Q482.991 169.655 485.699 169.655 Q488.425 169.655 489.779 166.999 Q491.151 164.325 491.151 158.995 Q491.151 153.648 489.779 150.992 Q488.425 148.318 485.699 148.318 M485.699 145.54 Q490.057 145.54 492.349 148.995 Q494.658 152.433 494.658 158.995 Q494.658 165.54 492.349 168.995 Q490.057 172.433 485.699 172.433 Q481.342 172.433 479.033 168.995 Q476.741 165.54 476.741 158.995 Q476.741 152.433 479.033 148.995 Q481.342 145.54 485.699 145.54 Z" fill="#000000" fill-rule="evenodd" fill-opacity="1" /><path clip-path="url(#clip020)" d="M 0 0 M594.034 230.052 Q596.551 230.59 597.957 232.291 Q599.381 233.993 599.381 236.493 Q599.381 240.329 596.742 242.43 Q594.103 244.531 589.242 244.531 Q587.61 244.531 585.874 244.201 Q584.155 243.888 582.315 243.246 L582.315 239.861 Q583.773 240.711 585.509 241.145 Q587.245 241.579 589.138 241.579 Q592.436 241.579 594.155 240.277 Q595.891 238.975 595.891 236.493 Q595.891 234.201 594.277 232.916 Q592.679 231.614 589.815 231.614 L586.794 231.614 L586.794 228.732 L589.954 228.732 Q592.541 228.732 593.912 227.708 Q595.284 226.666 595.284 224.722 Q595.284 222.725 593.86 221.666 Q592.454 220.59 589.815 220.59 Q588.374 220.59 586.725 220.902 Q585.075 221.215 583.096 221.875 L583.096 218.75 Q585.093 218.194 586.829 217.916 Q588.582 217.639 590.127 217.639 Q594.12 217.639 596.447 219.462 Q598.773 221.267 598.773 224.357 Q598.773 226.51 597.541 228.003 Q596.308 229.479 594.034 230.052 Z" fill="#000000" fill-rule="evenodd" fill-opacity="1" /><path clip-path="url(#clip020)" d="M 0 0 M606.638 241.076 L612.367 241.076 L612.367 221.302 L606.134 222.552 L606.134 219.357 L612.332 218.107 L615.839 218.107 L615.839 241.076 L621.568 241.076 L621.568 244.027 L606.638 244.027 L606.638 241.076 Z" fill="#000000" fill-rule="evenodd" fill-opacity="1" /><path clip-path="url(#clip020)" d="M 0 0 M551.423 157.953 Q553.941 158.492 555.347 160.193 Q556.771 161.894 556.771 164.394 Q556.771 168.231 554.132 170.332 Q551.493 172.433 546.632 172.433 Q545 172.433 543.264 172.103 Q541.545 171.79 539.705 171.148 L539.705 167.762 Q541.163 168.613 542.899 169.047 Q544.635 169.481 546.528 169.481 Q549.826 169.481 551.545 168.179 Q553.281 166.877 553.281 164.394 Q553.281 162.103 551.666 160.818 Q550.069 159.516 547.205 159.516 L544.184 159.516 L544.184 156.634 L547.344 156.634 Q549.93 156.634 551.302 155.61 Q552.673 154.568 552.673 152.624 Q552.673 150.627 551.25 149.568 Q549.844 148.492 547.205 148.492 Q545.764 148.492 544.114 148.804 Q542.465 149.117 540.486 149.776 L540.486 146.651 Q542.482 146.096 544.219 145.818 Q545.972 145.54 547.517 145.54 Q551.51 145.54 553.837 147.363 Q556.163 149.169 556.163 152.259 Q556.163 154.412 554.93 155.905 Q553.698 157.381 551.423 157.953 Z" fill="#000000" fill-rule="evenodd" fill-opacity="1" /><path clip-path="url(#clip020)" d="M 0 0 M566.441 168.978 L578.68 168.978 L578.68 171.929 L562.222 171.929 L562.222 168.978 Q564.218 166.912 567.656 163.44 Q571.111 159.95 571.996 158.943 Q573.68 157.051 574.34 155.749 Q575.017 154.429 575.017 153.162 Q575.017 151.096 573.559 149.794 Q572.118 148.492 569.791 148.492 Q568.142 148.492 566.302 149.065 Q564.479 149.637 562.396 150.801 L562.396 147.259 Q564.514 146.408 566.354 145.974 Q568.194 145.54 569.722 145.54 Q573.75 145.54 576.146 147.554 Q578.541 149.568 578.541 152.936 Q578.541 154.533 577.934 155.974 Q577.343 157.398 575.764 159.342 Q575.33 159.846 573.003 162.259 Q570.677 164.655 566.441 168.978 Z" fill="#000000" fill-rule="evenodd" fill-opacity="1" /><path clip-path="url(#clip020)" d="M 0 0 M636.644 157.953 Q639.161 158.492 640.567 160.193 Q641.991 161.894 641.991 164.394 Q641.991 168.231 639.352 170.332 Q636.713 172.433 631.852 172.433 Q630.22 172.433 628.484 172.103 Q626.765 171.79 624.925 171.148 L624.925 167.762 Q626.384 168.613 628.12 169.047 Q629.856 169.481 631.748 169.481 Q635.047 169.481 636.765 168.179 Q638.502 166.877 638.502 164.394 Q638.502 162.103 636.887 160.818 Q635.29 159.516 632.425 159.516 L629.404 159.516 L629.404 156.634 L632.564 156.634 Q635.151 156.634 636.522 155.61 Q637.894 154.568 637.894 152.624 Q637.894 150.627 636.47 149.568 Q635.064 148.492 632.425 148.492 Q630.984 148.492 629.335 148.804 Q627.686 149.117 625.706 149.776 L625.706 146.651 Q627.703 146.096 629.439 145.818 Q631.193 145.54 632.738 145.54 Q636.731 145.54 639.057 147.363 Q641.383 149.169 641.383 152.259 Q641.383 154.412 640.151 155.905 Q638.918 157.381 636.644 157.953 Z" fill="#000000" fill-rule="evenodd" fill-opacity="1" /><path clip-path="url(#clip020)" d="M 0 0 M659.265 157.953 Q661.783 158.492 663.189 160.193 Q664.612 161.894 664.612 164.394 Q664.612 168.231 661.974 170.332 Q659.335 172.433 654.474 172.433 Q652.842 172.433 651.106 172.103 Q649.387 171.79 647.547 171.148 L647.547 167.762 Q649.005 168.613 650.741 169.047 Q652.477 169.481 654.369 169.481 Q657.668 169.481 659.387 168.179 Q661.123 166.877 661.123 164.394 Q661.123 162.103 659.508 160.818 Q657.911 159.516 655.047 159.516 L652.026 159.516 L652.026 156.634 L655.185 156.634 Q657.772 156.634 659.144 155.61 Q660.515 154.568 660.515 152.624 Q660.515 150.627 659.092 149.568 Q657.685 148.492 655.047 148.492 Q653.606 148.492 651.956 148.804 Q650.307 149.117 648.328 149.776 L648.328 146.651 Q650.324 146.096 652.06 145.818 Q653.814 145.54 655.359 145.54 Q659.352 145.54 661.678 147.363 Q664.005 149.169 664.005 152.259 Q664.005 154.412 662.772 155.905 Q661.54 157.381 659.265 157.953 Z" fill="#000000" fill-rule="evenodd" fill-opacity="1" /><path clip-path="url(#clip020)" d="M 0 0 M764.475 230.052 Q766.992 230.59 768.398 232.291 Q769.822 233.993 769.822 236.493 Q769.822 240.329 767.183 242.43 Q764.544 244.531 759.683 244.531 Q758.051 244.531 756.315 244.201 Q754.596 243.888 752.756 243.246 L752.756 239.861 Q754.214 240.711 755.95 241.145 Q757.686 241.579 759.579 241.579 Q762.877 241.579 764.596 240.277 Q766.332 238.975 766.332 236.493 Q766.332 234.201 764.718 232.916 Q763.12 231.614 760.256 231.614 L757.235 231.614 L757.235 228.732 L760.395 228.732 Q762.982 228.732 764.353 227.708 Q765.725 226.666 765.725 224.722 Q765.725 222.725 764.301 221.666 Q762.895 220.59 760.256 220.59 Q758.815 220.59 757.166 220.902 Q755.516 221.215 753.537 221.875 L753.537 218.75 Q755.534 218.194 757.27 217.916 Q759.023 217.639 760.568 217.639 Q764.561 217.639 766.888 219.462 Q769.214 221.267 769.214 224.357 Q769.214 226.51 767.982 228.003 Q766.749 229.479 764.475 230.052 Z" fill="#000000" fill-rule="evenodd" fill-opacity="1" /><path clip-path="url(#clip020)" d="M 0 0 M786.106 221.163 L777.252 235 L786.106 235 L786.106 221.163 M785.186 218.107 L789.596 218.107 L789.596 235 L793.294 235 L793.294 237.916 L789.596 237.916 L789.596 244.027 L786.106 244.027 L786.106 237.916 L774.405 237.916 L774.405 234.531 L785.186 218.107 Z" fill="#000000" fill-rule="evenodd" fill-opacity="1" /><path clip-path="url(#clip020)" d="M 0 0 M721.864 157.953 Q724.382 158.492 725.788 160.193 Q727.212 161.894 727.212 164.394 Q727.212 168.231 724.573 170.332 Q721.934 172.433 717.073 172.433 Q715.441 172.433 713.705 172.103 Q711.986 171.79 710.146 171.148 L710.146 167.762 Q711.604 168.613 713.34 169.047 Q715.076 169.481 716.969 169.481 Q720.267 169.481 721.986 168.179 Q723.722 166.877 723.722 164.394 Q723.722 162.103 722.107 160.818 Q720.51 159.516 717.646 159.516 L714.625 159.516 L714.625 156.634 L717.785 156.634 Q720.371 156.634 721.743 155.61 Q723.114 154.568 723.114 152.624 Q723.114 150.627 721.691 149.568 Q720.285 148.492 717.646 148.492 Q716.205 148.492 714.555 148.804 Q712.906 149.117 710.927 149.776 L710.927 146.651 Q712.923 146.096 714.66 145.818 Q716.413 145.54 717.958 145.54 Q721.951 145.54 724.278 147.363 Q726.604 149.169 726.604 152.259 Q726.604 154.412 725.371 155.905 Q724.139 157.381 721.864 157.953 Z" fill="#000000" fill-rule="evenodd" fill-opacity="1" /><path clip-path="url(#clip020)" d="M 0 0 M733.896 146.009 L747.663 146.009 L747.663 148.96 L737.107 148.96 L737.107 155.315 Q737.871 155.054 738.635 154.933 Q739.399 154.794 740.163 154.794 Q744.503 154.794 747.038 157.172 Q749.573 159.551 749.573 163.613 Q749.573 167.797 746.968 170.123 Q744.364 172.433 739.625 172.433 Q737.993 172.433 736.291 172.155 Q734.607 171.877 732.802 171.321 L732.802 167.797 Q734.364 168.648 736.031 169.064 Q737.698 169.481 739.555 169.481 Q742.559 169.481 744.312 167.901 Q746.066 166.321 746.066 163.613 Q746.066 160.905 744.312 159.325 Q742.559 157.745 739.555 157.745 Q738.149 157.745 736.743 158.058 Q735.354 158.37 733.896 159.03 L733.896 146.009 Z" fill="#000000" fill-rule="evenodd" fill-opacity="1" /></svg>
