<?xml version="1.0" encoding="utf-8"?>
<svg xmlns="http://www.w3.org/2000/svg" xmlns:xlink="http://www.w3.org/1999/xlink" width="50" height="62.5" viewBox="0 0 200 250">
<defs>
  <clipPath id="clip260">
    <rect x="0" y="0" width="200" height="250"/>
  </clipPath>
</defs>
<path clip-path="url(#clip260)" d="
M0 250 L200 250 L200 0 L0 0  Z
  " fill="#ffffff" fill-rule="evenodd" fill-opacity="1"/>
<defs>
  <clipPath id="clip261">
    <rect x="50" y="25" width="176" height="176"/>
  </clipPath>
</defs>
<path clip-path="url(#clip260)" d="
M17.748 231.752 L188.189 231.752 L188.189 15.748 L17.748 15.748  Z
  " fill="#ffffff" fill-rule="evenodd" fill-opacity="1"/>
<defs>
  <clipPath id="clip262">
    <rect x="17" y="15" width="171" height="217"/>
  </clipPath>
</defs>
<polyline clip-path="url(#clip260)" style="stroke:#000000; stroke-width:1; stroke-opacity:1; fill:none" points="
  17.748,231.752 188.189,231.752 
  "/>
<polyline clip-path="url(#clip260)" style="stroke:#000000; stroke-width:1; stroke-opacity:1; fill:none" points="
  34.7921,231.752 34.7921,229.16 
  "/>
<polyline clip-path="url(#clip260)" style="stroke:#000000; stroke-width:1; stroke-opacity:1; fill:none" points="
  68.8803,231.752 68.8803,229.16 
  "/>
<polyline clip-path="url(#clip260)" style="stroke:#000000; stroke-width:1; stroke-opacity:1; fill:none" points="
  102.969,231.752 102.969,229.16 
  "/>
<polyline clip-path="url(#clip260)" style="stroke:#000000; stroke-width:1; stroke-opacity:1; fill:none" points="
  137.057,231.752 137.057,229.16 
  "/>
<polyline clip-path="url(#clip260)" style="stroke:#000000; stroke-width:1; stroke-opacity:1; fill:none" points="
  171.145,231.752 171.145,229.16 
  "/>
<path clip-path="url(#clip260)" d="M 0 0 M27.9056 239.913 L35.3245 239.913 L35.3245 240.897 L27.9056 240.897 L27.9056 239.913 Z" fill="#000000" fill-rule="evenodd" fill-opacity="1" /><path clip-path="url(#clip260)" d="M 0 0 M37.5988 243.136 L41.6787 243.136 L41.6787 244.12 L36.1926 244.12 L36.1926 243.136 Q36.8581 242.448 38.0039 241.29 Q39.1555 240.127 39.4507 239.791 Q40.012 239.161 40.2319 238.726 Q40.4576 238.287 40.4576 237.864 Q40.4576 237.176 39.9715 236.742 Q39.4912 236.308 38.7157 236.308 Q38.166 236.308 37.5525 236.498 Q36.9449 236.689 36.2505 237.077 L36.2505 235.897 Q36.9565 235.613 37.5699 235.468 Q38.1833 235.324 38.6926 235.324 Q40.0352 235.324 40.8338 235.995 Q41.6324 236.666 41.6324 237.789 Q41.6324 238.321 41.4298 238.802 Q41.2331 239.276 40.7064 239.924 Q40.5618 240.092 39.7863 240.897 Q39.0109 241.695 37.5988 243.136 Z" fill="#000000" fill-rule="evenodd" fill-opacity="1" /><path clip-path="url(#clip260)" d="M 0 0 M61.9475 239.913 L69.3664 239.913 L69.3664 240.897 L61.9475 240.897 L61.9475 239.913 Z" fill="#000000" fill-rule="evenodd" fill-opacity="1" /><path clip-path="url(#clip260)" d="M 0 0 M70.8363 243.136 L72.746 243.136 L72.746 236.545 L70.6685 236.961 L70.6685 235.897 L72.7345 235.48 L73.9034 235.48 L73.9034 243.136 L75.8131 243.136 L75.8131 244.12 L70.8363 244.12 L70.8363 243.136 Z" fill="#000000" fill-rule="evenodd" fill-opacity="1" /><path clip-path="url(#clip260)" d="M 0 0 M102.969 236.25 Q102.066 236.25 101.609 237.141 Q101.157 238.026 101.157 239.809 Q101.157 241.585 101.609 242.476 Q102.066 243.362 102.969 243.362 Q103.877 243.362 104.328 242.476 Q104.786 241.585 104.786 239.809 Q104.786 238.026 104.328 237.141 Q103.877 236.25 102.969 236.25 M102.969 235.324 Q104.421 235.324 105.185 236.475 Q105.955 237.621 105.955 239.809 Q105.955 241.99 105.185 243.142 Q104.421 244.288 102.969 244.288 Q101.516 244.288 100.746 243.142 Q99.9824 241.99 99.9824 239.809 Q99.9824 237.621 100.746 236.475 Q101.516 235.324 102.969 235.324 Z" fill="#000000" fill-rule="evenodd" fill-opacity="1" /><path clip-path="url(#clip260)" d="M 0 0 M134.652 243.136 L136.562 243.136 L136.562 236.545 L134.484 236.961 L134.484 235.897 L136.55 235.48 L137.719 235.48 L137.719 243.136 L139.629 243.136 L139.629 244.12 L134.652 244.12 L134.652 243.136 Z" fill="#000000" fill-rule="evenodd" fill-opacity="1" /><path clip-path="url(#clip260)" d="M 0 0 M169.808 243.136 L173.888 243.136 L173.888 244.12 L168.402 244.12 L168.402 243.136 Q169.067 242.448 170.213 241.29 Q171.365 240.127 171.66 239.791 Q172.221 239.161 172.441 238.726 Q172.667 238.287 172.667 237.864 Q172.667 237.176 172.181 236.742 Q171.7 236.308 170.925 236.308 Q170.375 236.308 169.762 236.498 Q169.154 236.689 168.46 237.077 L168.46 235.897 Q169.166 235.613 169.779 235.468 Q170.393 235.324 170.902 235.324 Q172.244 235.324 173.043 235.995 Q173.842 236.666 173.842 237.789 Q173.842 238.321 173.639 238.802 Q173.442 239.276 172.916 239.924 Q172.771 240.092 171.996 240.897 Q171.22 241.695 169.808 243.136 Z" fill="#000000" fill-rule="evenodd" fill-opacity="1" /><polyline clip-path="url(#clip260)" style="stroke:#000000; stroke-width:1; stroke-opacity:1; fill:none" points="
  17.748,231.752 17.748,15.748 
  "/>
<polyline clip-path="url(#clip260)" style="stroke:#000000; stroke-width:1; stroke-opacity:1; fill:none" points="
  17.748,210.152 19.7933,210.152 
  "/>
<polyline clip-path="url(#clip260)" style="stroke:#000000; stroke-width:1; stroke-opacity:1; fill:none" points="
  17.748,166.951 19.7933,166.951 
  "/>
<polyline clip-path="url(#clip260)" style="stroke:#000000; stroke-width:1; stroke-opacity:1; fill:none" points="
  17.748,123.75 19.7933,123.75 
  "/>
<polyline clip-path="url(#clip260)" style="stroke:#000000; stroke-width:1; stroke-opacity:1; fill:none" points="
  17.748,80.5492 19.7933,80.5492 
  "/>
<polyline clip-path="url(#clip260)" style="stroke:#000000; stroke-width:1; stroke-opacity:1; fill:none" points="
  17.748,37.3484 19.7933,37.3484 
  "/>
<path clip-path="url(#clip260)" d="M 0 0 M0.224957 210.264 L7.6439 210.264 L7.6439 211.248 L0.224957 211.248 L0.224957 210.264 Z" fill="#000000" fill-rule="evenodd" fill-opacity="1" /><path clip-path="url(#clip260)" d="M 0 0 M9.91819 213.488 L13.998 213.488 L13.998 214.472 L8.51195 214.472 L8.51195 213.488 Q9.17746 212.799 10.3233 211.642 Q11.4749 210.479 11.77 210.143 Q12.3314 209.512 12.5513 209.078 Q12.777 208.638 12.777 208.216 Q12.777 207.527 12.2909 207.093 Q11.8105 206.659 11.0351 206.659 Q10.4853 206.659 9.8719 206.85 Q9.26426 207.041 8.56982 207.429 L8.56982 206.248 Q9.27583 205.965 9.88926 205.82 Q10.5027 205.675 11.0119 205.675 Q12.3545 205.675 13.1531 206.347 Q13.9517 207.018 13.9517 208.141 Q13.9517 208.673 13.7492 209.153 Q13.5524 209.628 13.0258 210.276 Q12.8811 210.444 12.1057 211.248 Q11.3302 212.047 9.91819 213.488 Z" fill="#000000" fill-rule="evenodd" fill-opacity="1" /><path clip-path="url(#clip260)" d="M 0 0 M0.132365 167.064 L7.55131 167.064 L7.55131 168.047 L0.132365 168.047 L0.132365 167.064 Z" fill="#000000" fill-rule="evenodd" fill-opacity="1" /><path clip-path="url(#clip260)" d="M 0 0 M9.02121 170.287 L10.9309 170.287 L10.9309 163.696 L8.85338 164.112 L8.85338 163.047 L10.9193 162.631 L12.0883 162.631 L12.0883 170.287 L13.998 170.287 L13.998 171.271 L9.02121 171.271 L9.02121 170.287 Z" fill="#000000" fill-rule="evenodd" fill-opacity="1" /><path clip-path="url(#clip260)" d="M 0 0 M11.0119 120.2 Q10.1092 120.2 9.65199 121.091 Q9.2006 121.976 9.2006 123.759 Q9.2006 125.535 9.65199 126.426 Q10.1092 127.312 11.0119 127.312 Q11.9205 127.312 12.3719 126.426 Q12.8291 125.535 12.8291 123.759 Q12.8291 121.976 12.3719 121.091 Q11.9205 120.2 11.0119 120.2 M11.0119 119.274 Q12.4645 119.274 13.2284 120.425 Q13.998 121.571 13.998 123.759 Q13.998 125.94 13.2284 127.092 Q12.4645 128.238 11.0119 128.238 Q9.5594 128.238 8.78973 127.092 Q8.02584 125.94 8.02584 123.759 Q8.02584 121.571 8.78973 120.425 Q9.5594 119.274 11.0119 119.274 Z" fill="#000000" fill-rule="evenodd" fill-opacity="1" /><path clip-path="url(#clip260)" d="M 0 0 M9.02121 83.8854 L10.9309 83.8854 L10.9309 77.294 L8.85338 77.7107 L8.85338 76.6459 L10.9193 76.2292 L12.0883 76.2292 L12.0883 83.8854 L13.998 83.8854 L13.998 84.8692 L9.02121 84.8692 L9.02121 83.8854 Z" fill="#000000" fill-rule="evenodd" fill-opacity="1" /><path clip-path="url(#clip260)" d="M 0 0 M9.91819 40.6846 L13.998 40.6846 L13.998 41.6684 L8.51195 41.6684 L8.51195 40.6846 Q9.17746 39.996 10.3233 38.8386 Q11.4749 37.6754 11.77 37.3397 Q12.3314 36.709 12.5513 36.2749 Q12.777 35.8351 12.777 35.4127 Q12.777 34.724 12.2909 34.29 Q11.8105 33.856 11.0351 33.856 Q10.4853 33.856 9.8719 34.0469 Q9.26426 34.2379 8.56982 34.6256 L8.56982 33.4451 Q9.27583 33.1615 9.88926 33.0169 Q10.5027 32.8722 11.0119 32.8722 Q12.3545 32.8722 13.1531 33.5435 Q13.9517 34.2148 13.9517 35.3374 Q13.9517 35.8698 13.7492 36.3502 Q13.5524 36.8247 13.0258 37.4728 Q12.8811 37.6407 12.1057 38.4451 Q11.3302 39.2437 9.91819 40.6846 Z" fill="#000000" fill-rule="evenodd" fill-opacity="1" /><path clip-path="url(#clip260)" d="M 0 0 M90.0085 5.13076 Q90.4078 4.41317 90.9634 4.07174 Q91.5189 3.7303 92.2712 3.7303 Q93.2839 3.7303 93.8337 4.44211 Q94.3835 5.14812 94.3835 6.45598 L94.3835 10.368 L93.3129 10.368 L93.3129 6.49071 Q93.3129 5.559 92.983 5.10761 Q92.6532 4.65623 91.9761 4.65623 Q91.1485 4.65623 90.6682 5.20599 Q90.1879 5.75576 90.1879 6.70483 L90.1879 10.368 L89.1173 10.368 L89.1173 6.49071 Q89.1173 5.55321 88.7874 5.10761 Q88.4576 4.65623 87.7689 4.65623 Q86.953 4.65623 86.4726 5.21178 Q85.9923 5.76154 85.9923 6.70483 L85.9923 10.368 L84.9217 10.368 L84.9217 3.88655 L85.9923 3.88655 L85.9923 4.89349 Q86.3569 4.29743 86.8662 4.01387 Q87.3754 3.7303 88.0756 3.7303 Q88.7817 3.7303 89.2736 4.0891 Q89.7712 4.44789 90.0085 5.13076 Z" fill="#000000" fill-rule="evenodd" fill-opacity="1" /><path clip-path="url(#clip260)" d="M 0 0 M95.402 1.36342 L97.8557 1.36342 L97.8557 2.19096 L96.4668 2.19096 L96.4668 11.1029 L97.8557 11.1029 L97.8557 11.9305 L95.402 11.9305 L95.402 1.36342 Z" fill="#000000" fill-rule="evenodd" fill-opacity="1" /><path clip-path="url(#clip260)" d="M 0 0 M100.13 9.38421 L104.21 9.38421 L104.21 10.368 L98.7237 10.368 L98.7237 9.38421 Q99.3892 8.69556 100.535 7.53815 Q101.687 6.37497 101.982 6.03932 Q102.543 5.40854 102.763 4.97451 Q102.989 4.5347 102.989 4.11225 Q102.989 3.42359 102.503 2.98957 Q102.022 2.55554 101.247 2.55554 Q100.697 2.55554 100.084 2.74651 Q99.476 2.93748 98.7816 3.32521 L98.7816 2.14466 Q99.4876 1.8611 100.101 1.71643 Q100.714 1.57175 101.224 1.57175 Q102.566 1.57175 103.365 2.24304 Q104.164 2.91434 104.164 4.03702 Q104.164 4.56942 103.961 5.04974 Q103.764 5.52428 103.238 6.17242 Q103.093 6.34024 102.317 7.14464 Q101.542 7.94324 100.13 9.38421 Z" fill="#000000" fill-rule="evenodd" fill-opacity="1" /><path clip-path="url(#clip260)" d="M 0 0 M105.68 9.38421 L107.589 9.38421 L107.589 2.79281 L105.512 3.20947 L105.512 2.14466 L107.578 1.728 L108.747 1.728 L108.747 9.38421 L110.657 9.38421 L110.657 10.368 L105.68 10.368 L105.68 9.38421 Z" fill="#000000" fill-rule="evenodd" fill-opacity="1" /><path clip-path="url(#clip260)" d="M 0 0 M114.424 2.49767 Q113.521 2.49767 113.064 3.38887 Q112.613 4.27428 112.613 6.05668 Q112.613 7.83329 113.064 8.72449 Q113.521 9.6099 114.424 9.6099 Q115.332 9.6099 115.784 8.72449 Q116.241 7.83329 116.241 6.05668 Q116.241 4.27428 115.784 3.38887 Q115.332 2.49767 114.424 2.49767 M114.424 1.57175 Q115.876 1.57175 116.64 2.72337 Q117.41 3.86919 117.41 6.05668 Q117.41 8.23838 116.64 9.39 Q115.876 10.5358 114.424 10.5358 Q112.971 10.5358 112.202 9.39 Q111.438 8.23838 111.438 6.05668 Q111.438 3.86919 112.202 2.72337 Q112.971 1.57175 114.424 1.57175 Z" fill="#000000" fill-rule="evenodd" fill-opacity="1" /><path clip-path="url(#clip260)" d="M 0 0 M121.015 1.36342 L121.015 11.9305 L118.562 11.9305 L118.562 11.1029 L119.945 11.1029 L119.945 2.19096 L118.562 2.19096 L118.562 1.36342 L121.015 1.36342 Z" fill="#000000" fill-rule="evenodd" fill-opacity="1" /><circle clip-path="url(#clip262)" cx="34.7921" cy="223.518" r="3" fill="#0000ff" fill-rule="evenodd" fill-opacity="1" stroke="none"/>
<path clip-path="url(#clip260)" d="M 0 0 M34.918 220.836 L36.3503 220.836 L36.3503 215.893 L34.7921 216.205 L34.7921 215.406 L36.3416 215.094 L37.2183 215.094 L37.2183 220.836 L38.6506 220.836 L38.6506 221.574 L34.918 221.574 L34.918 220.836 Z" fill="#000000" fill-rule="evenodd" fill-opacity="1" /><path clip-path="url(#clip260)" d="M 0 0 M41.5846 217.985 Q40.9943 217.985 40.6471 218.388 Q40.3042 218.792 40.3042 219.495 Q40.3042 220.194 40.6471 220.602 Q40.9943 221.005 41.5846 221.005 Q42.1749 221.005 42.5178 220.602 Q42.865 220.194 42.865 219.495 Q42.865 218.792 42.5178 218.388 Q42.1749 217.985 41.5846 217.985 M43.3251 215.237 L43.3251 216.036 Q42.9952 215.88 42.6567 215.797 Q42.3225 215.715 41.9926 215.715 Q41.1246 215.715 40.6645 216.301 Q40.2088 216.886 40.1437 218.071 Q40.3997 217.694 40.786 217.494 Q41.1723 217.29 41.6367 217.29 Q42.6133 217.29 43.1775 217.885 Q43.7461 218.475 43.7461 219.495 Q43.7461 220.493 43.1558 221.097 Q42.5655 221.7 41.5846 221.7 Q40.4605 221.7 39.8659 220.84 Q39.2713 219.977 39.2713 218.34 Q39.2713 216.804 40.0004 215.893 Q40.7296 214.977 41.9579 214.977 Q42.2877 214.977 42.6219 215.042 Q42.9605 215.107 43.3251 215.237 Z" fill="#000000" fill-rule="evenodd" fill-opacity="1" /><circle clip-path="url(#clip262)" cx="85.9244" cy="136.221" r="3" fill="#0000ff" fill-rule="evenodd" fill-opacity="1" stroke="none"/>
<circle clip-path="url(#clip262)" cx="102.969" cy="148.692" r="3" fill="#0000ff" fill-rule="evenodd" fill-opacity="1" stroke="none"/>
<circle clip-path="url(#clip262)" cx="68.8803" cy="173.634" r="3" fill="#0000ff" fill-rule="evenodd" fill-opacity="1" stroke="none"/>
<circle clip-path="url(#clip262)" cx="85.9244" cy="186.105" r="3" fill="#0000ff" fill-rule="evenodd" fill-opacity="1" stroke="none"/>
<circle clip-path="url(#clip262)" cx="51.8362" cy="211.047" r="3" fill="#0000ff" fill-rule="evenodd" fill-opacity="1" stroke="none"/>
<circle clip-path="url(#clip262)" cx="68.8803" cy="223.518" r="3" fill="#0000ff" fill-rule="evenodd" fill-opacity="1" stroke="none"/>
<circle clip-path="url(#clip262)" cx="34.7921" cy="98.808" r="3" fill="#0000ff" fill-rule="evenodd" fill-opacity="1" stroke="none"/>
<circle clip-path="url(#clip262)" cx="51.8362" cy="111.279" r="3" fill="#0000ff" fill-rule="evenodd" fill-opacity="1" stroke="none"/>
<circle clip-path="url(#clip262)" cx="17.748" cy="136.221" r="3" fill="#0000ff" fill-rule="evenodd" fill-opacity="1" stroke="none"/>
<circle clip-path="url(#clip262)" cx="34.7921" cy="148.692" r="3" fill="#0000ff" fill-rule="evenodd" fill-opacity="1" stroke="none"/>
<circle clip-path="url(#clip262)" cx="17.748" cy="186.105" r="3" fill="#0000ff" fill-rule="evenodd" fill-opacity="1" stroke="none"/>
<circle clip-path="url(#clip262)" cx="34.7921" cy="173.634" r="3" fill="#0000ff" fill-rule="evenodd" fill-opacity="1" stroke="none"/>
<circle clip-path="url(#clip262)" cx="51.8362" cy="186.105" r="3" fill="#0000ff" fill-rule="evenodd" fill-opacity="1" stroke="none"/>
<circle clip-path="url(#clip262)" cx="17.748" cy="211.047" r="3" fill="#0000ff" fill-rule="evenodd" fill-opacity="1" stroke="none"/>
<circle clip-path="url(#clip262)" cx="34.7921" cy="73.866" r="3" fill="#0000ff" fill-rule="evenodd" fill-opacity="1" stroke="none"/>
<circle clip-path="url(#clip262)" cx="102.969" cy="173.634" r="3" fill="#0000ff" fill-rule="evenodd" fill-opacity="1" stroke="none"/>
<circle clip-path="url(#clip262)" cx="17.748" cy="111.279" r="3" fill="#0000ff" fill-rule="evenodd" fill-opacity="1" stroke="none"/>
<circle clip-path="url(#clip262)" cx="85.9244" cy="211.047" r="3" fill="#0000ff" fill-rule="evenodd" fill-opacity="1" stroke="none"/>
<circle clip-path="url(#clip262)" cx="102.969" cy="223.518" r="3" fill="#0000ff" fill-rule="evenodd" fill-opacity="1" stroke="none"/>
<circle clip-path="url(#clip262)" cx="85.9244" cy="111.279" r="3" fill="#0000ff" fill-rule="evenodd" fill-opacity="1" stroke="none"/>
<circle clip-path="url(#clip262)" cx="51.8362" cy="136.221" r="3" fill="#0000ff" fill-rule="evenodd" fill-opacity="1" stroke="none"/>
<circle clip-path="url(#clip262)" cx="68.8803" cy="148.692" r="3" fill="#0000ff" fill-rule="evenodd" fill-opacity="1" stroke="none"/>
<path clip-path="url(#clip260)" d="M 0 0 M86.0503 133.539 L87.4826 133.539 L87.4826 128.596 L85.9244 128.908 L85.9244 128.109 L87.4739 127.797 L88.3506 127.797 L88.3506 133.539 L89.7829 133.539 L89.7829 134.277 L86.0503 134.277 L86.0503 133.539 Z" fill="#000000" fill-rule="evenodd" fill-opacity="1" /><path clip-path="url(#clip260)" d="M 0 0 M104.023 146.01 L107.083 146.01 L107.083 146.748 L102.969 146.748 L102.969 146.01 Q103.468 145.494 104.327 144.626 Q105.191 143.753 105.412 143.501 Q105.833 143.028 105.998 142.703 Q106.167 142.373 106.167 142.056 Q106.167 141.54 105.803 141.214 Q105.442 140.889 104.861 140.889 Q104.449 140.889 103.988 141.032 Q103.533 141.175 103.012 141.466 L103.012 140.58 Q103.541 140.368 104.001 140.259 Q104.462 140.151 104.843 140.151 Q105.85 140.151 106.449 140.654 Q107.048 141.158 107.048 142 Q107.048 142.399 106.896 142.759 Q106.749 143.115 106.354 143.601 Q106.245 143.727 105.664 144.33 Q105.082 144.929 104.023 146.01 Z" fill="#000000" fill-rule="evenodd" fill-opacity="1" /><path clip-path="url(#clip260)" d="M 0 0 M71.81 168.196 Q72.4393 168.331 72.7909 168.756 Q73.1468 169.181 73.1468 169.806 Q73.1468 170.765 72.4871 171.291 Q71.8273 171.816 70.6121 171.816 Q70.2041 171.816 69.7701 171.733 Q69.3404 171.655 68.8803 171.495 L68.8803 170.648 Q69.2449 170.861 69.6789 170.969 Q70.1129 171.078 70.586 171.078 Q71.4107 171.078 71.8404 170.752 Q72.2744 170.427 72.2744 169.806 Q72.2744 169.233 71.8708 168.912 Q71.4714 168.587 70.7553 168.587 L70.0001 168.587 L70.0001 167.866 L70.79 167.866 Q71.4367 167.866 71.7796 167.61 Q72.1225 167.35 72.1225 166.864 Q72.1225 166.364 71.7666 166.1 Q71.415 165.831 70.7553 165.831 Q70.3951 165.831 69.9827 165.909 Q69.5704 165.987 69.0756 166.152 L69.0756 165.371 Q69.5748 165.232 70.0088 165.162 Q70.4471 165.093 70.8334 165.093 Q71.8317 165.093 72.4133 165.549 Q72.9949 166 72.9949 166.772 Q72.9949 167.311 72.6867 167.684 Q72.3786 168.053 71.81 168.196 Z" fill="#000000" fill-rule="evenodd" fill-opacity="1" /><path clip-path="url(#clip260)" d="M 0 0 M88.8497 178.445 L86.6362 181.904 L88.8497 181.904 L88.8497 178.445 M88.6197 177.681 L89.7221 177.681 L89.7221 181.904 L90.6466 181.904 L90.6466 182.633 L89.7221 182.633 L89.7221 184.161 L88.8497 184.161 L88.8497 182.633 L85.9244 182.633 L85.9244 181.787 L88.6197 177.681 Z" fill="#000000" fill-rule="evenodd" fill-opacity="1" /><path clip-path="url(#clip260)" d="M 0 0 M52.1097 202.623 L55.5515 202.623 L55.5515 203.361 L52.9126 203.361 L52.9126 204.949 Q53.1036 204.884 53.2945 204.854 Q53.4855 204.819 53.6765 204.819 Q54.7616 204.819 55.3952 205.414 Q56.0289 206.008 56.0289 207.024 Q56.0289 208.07 55.3779 208.652 Q54.7268 209.229 53.5419 209.229 Q53.134 209.229 52.7086 209.159 Q52.2876 209.09 51.8362 208.951 L51.8362 208.07 Q52.2268 208.283 52.6435 208.387 Q53.0602 208.491 53.5246 208.491 Q54.2754 208.491 54.7138 208.096 Q55.1522 207.701 55.1522 207.024 Q55.1522 206.347 54.7138 205.952 Q54.2754 205.557 53.5246 205.557 Q53.173 205.557 52.8215 205.635 Q52.4742 205.713 52.1097 205.878 L52.1097 202.623 Z" fill="#000000" fill-rule="evenodd" fill-opacity="1" /><path clip-path="url(#clip260)" d="M 0 0 M71.1937 217.985 Q70.6034 217.985 70.2562 218.388 Q69.9133 218.792 69.9133 219.495 Q69.9133 220.194 70.2562 220.602 Q70.6034 221.005 71.1937 221.005 Q71.7839 221.005 72.1268 220.602 Q72.474 220.194 72.474 219.495 Q72.474 218.792 72.1268 218.388 Q71.7839 217.985 71.1937 217.985 M72.9341 215.237 L72.9341 216.036 Q72.6043 215.88 72.2657 215.797 Q71.9315 215.715 71.6017 215.715 Q70.7336 215.715 70.2735 216.301 Q69.8178 216.886 69.7527 218.071 Q70.0088 217.694 70.3951 217.494 Q70.7813 217.29 71.2458 217.29 Q72.2223 217.29 72.7865 217.885 Q73.3551 218.475 73.3551 219.495 Q73.3551 220.493 72.7648 221.097 Q72.1746 221.7 71.1937 221.7 Q70.0695 221.7 69.4749 220.84 Q68.8803 219.977 68.8803 218.34 Q68.8803 216.804 69.6095 215.893 Q70.3386 214.977 71.5669 214.977 Q71.8968 214.977 72.231 215.042 Q72.5695 215.107 72.9341 215.237 Z" fill="#000000" fill-rule="evenodd" fill-opacity="1" /><path clip-path="url(#clip260)" d="M 0 0 M34.7921 90.384 L38.9588 90.384 L38.9588 90.7573 L36.6064 96.864 L35.6906 96.864 L37.9041 91.1219 L34.7921 91.1219 L34.7921 90.384 Z" fill="#000000" fill-rule="evenodd" fill-opacity="1" /><path clip-path="url(#clip260)" d="M 0 0 M54.0584 106.258 Q53.4334 106.258 53.0732 106.592 Q52.7173 106.926 52.7173 107.512 Q52.7173 108.098 53.0732 108.432 Q53.4334 108.766 54.0584 108.766 Q54.6834 108.766 55.0437 108.432 Q55.4039 108.094 55.4039 107.512 Q55.4039 106.926 55.0437 106.592 Q54.6878 106.258 54.0584 106.258 M53.1817 105.885 Q52.6175 105.746 52.3006 105.359 Q51.9881 104.973 51.9881 104.417 Q51.9881 103.641 52.5393 103.189 Q53.0949 102.738 54.0584 102.738 Q55.0263 102.738 55.5775 103.189 Q56.1287 103.641 56.1287 104.417 Q56.1287 104.973 55.8119 105.359 Q55.4994 105.746 54.9395 105.885 Q55.5732 106.032 55.9247 106.462 Q56.2806 106.891 56.2806 107.512 Q56.2806 108.454 55.7034 108.957 Q55.1305 109.461 54.0584 109.461 Q52.9864 109.461 52.4091 108.957 Q51.8362 108.454 51.8362 107.512 Q51.8362 106.891 52.1921 106.462 Q52.548 106.032 53.1817 105.885 M52.8605 104.5 Q52.8605 105.003 53.173 105.286 Q53.4899 105.568 54.0584 105.568 Q54.6227 105.568 54.9395 105.286 Q55.2607 105.003 55.2607 104.5 Q55.2607 103.996 54.9395 103.714 Q54.6227 103.432 54.0584 103.432 Q53.4899 103.432 53.173 103.714 Q52.8605 103.996 52.8605 104.5 Z" fill="#000000" fill-rule="evenodd" fill-opacity="1" /><path clip-path="url(#clip260)" d="M 0 0 M18.1647 134.142 L18.1647 133.344 Q18.4946 133.5 18.8331 133.583 Q19.1716 133.665 19.4972 133.665 Q20.3652 133.665 20.8209 133.083 Q21.281 132.497 21.3461 131.308 Q21.0944 131.682 20.7081 131.881 Q20.3218 132.081 19.8531 132.081 Q18.8808 132.081 18.3123 131.495 Q17.748 130.905 17.748 129.885 Q17.748 128.886 18.3383 128.283 Q18.9286 127.68 19.9095 127.68 Q21.0336 127.68 21.6239 128.544 Q22.2185 129.403 22.2185 131.044 Q22.2185 132.576 21.4893 133.491 Q20.7645 134.403 19.5362 134.403 Q19.2064 134.403 18.8678 134.338 Q18.5293 134.273 18.1647 134.142 M19.9095 131.395 Q20.4998 131.395 20.8426 130.991 Q21.1899 130.588 21.1899 129.885 Q21.1899 129.186 20.8426 128.782 Q20.4998 128.374 19.9095 128.374 Q19.3192 128.374 18.972 128.782 Q18.6291 129.186 18.6291 129.885 Q18.6291 130.588 18.972 130.991 Q19.3192 131.395 19.9095 131.395 Z" fill="#000000" fill-rule="evenodd" fill-opacity="1" /><path clip-path="url(#clip260)" d="M 0 0 M34.918 146.01 L36.3503 146.01 L36.3503 141.067 L34.7921 141.379 L34.7921 140.58 L36.3416 140.268 L37.2183 140.268 L37.2183 146.01 L38.6506 146.01 L38.6506 146.748 L34.918 146.748 L34.918 146.01 Z" fill="#000000" fill-rule="evenodd" fill-opacity="1" /><path clip-path="url(#clip260)" d="M 0 0 M41.4761 140.845 Q40.799 140.845 40.4562 141.514 Q40.1176 142.178 40.1176 143.514 Q40.1176 144.847 40.4562 145.515 Q40.799 146.179 41.4761 146.179 Q42.1575 146.179 42.4961 145.515 Q42.839 144.847 42.839 143.514 Q42.839 142.178 42.4961 141.514 Q42.1575 140.845 41.4761 140.845 M41.4761 140.151 Q42.5655 140.151 43.1384 141.015 Q43.7157 141.874 43.7157 143.514 Q43.7157 145.151 43.1384 146.014 Q42.5655 146.874 41.4761 146.874 Q40.3867 146.874 39.8095 146.014 Q39.2365 145.151 39.2365 143.514 Q39.2365 141.874 39.8095 141.015 Q40.3867 140.151 41.4761 140.151 Z" fill="#000000" fill-rule="evenodd" fill-opacity="1" /><path clip-path="url(#clip260)" d="M 0 0 M17.8739 183.423 L19.3062 183.423 L19.3062 178.48 L17.748 178.792 L17.748 177.993 L19.2975 177.681 L20.1742 177.681 L20.1742 183.423 L21.6065 183.423 L21.6065 184.161 L17.8739 184.161 L17.8739 183.423 Z" fill="#000000" fill-rule="evenodd" fill-opacity="1" /><path clip-path="url(#clip260)" d="M 0 0 M23.3122 183.423 L26.3721 183.423 L26.3721 184.161 L22.2576 184.161 L22.2576 183.423 Q22.7567 182.907 23.6161 182.039 Q24.4798 181.166 24.7011 180.914 Q25.1221 180.441 25.2871 180.116 Q25.4563 179.786 25.4563 179.469 Q25.4563 178.953 25.0917 178.627 Q24.7315 178.302 24.1499 178.302 Q23.7376 178.302 23.2775 178.445 Q22.8218 178.588 22.301 178.879 L22.301 177.993 Q22.8305 177.781 23.2905 177.672 Q23.7506 177.564 24.1325 177.564 Q25.1395 177.564 25.7384 178.067 Q26.3374 178.571 26.3374 179.413 Q26.3374 179.812 26.1855 180.172 Q26.0379 180.528 25.643 181.014 Q25.5344 181.14 24.9529 181.743 Q24.3713 182.342 23.3122 183.423 Z" fill="#000000" fill-rule="evenodd" fill-opacity="1" /><path clip-path="url(#clip260)" d="M 0 0 M34.918 170.952 L36.3503 170.952 L36.3503 166.009 L34.7921 166.321 L34.7921 165.522 L36.3416 165.21 L37.2183 165.21 L37.2183 170.952 L38.6506 170.952 L38.6506 171.69 L34.918 171.69 L34.918 170.952 Z" fill="#000000" fill-rule="evenodd" fill-opacity="1" /><path clip-path="url(#clip260)" d="M 0 0 M42.2574 168.196 Q42.8867 168.331 43.2383 168.756 Q43.5942 169.181 43.5942 169.806 Q43.5942 170.765 42.9344 171.291 Q42.2747 171.816 41.0595 171.816 Q40.6515 171.816 40.2174 171.733 Q39.7878 171.655 39.3277 171.495 L39.3277 170.648 Q39.6923 170.861 40.1263 170.969 Q40.5603 171.078 41.0334 171.078 Q41.8581 171.078 42.2877 170.752 Q42.7218 170.427 42.7218 169.806 Q42.7218 169.233 42.3181 168.912 Q41.9188 168.587 41.2027 168.587 L40.4475 168.587 L40.4475 167.866 L41.2374 167.866 Q41.8841 167.866 42.227 167.61 Q42.5699 167.35 42.5699 166.864 Q42.5699 166.364 42.214 166.1 Q41.8624 165.831 41.2027 165.831 Q40.8424 165.831 40.4301 165.909 Q40.0178 165.987 39.523 166.152 L39.523 165.371 Q40.0221 165.232 40.4562 165.162 Q40.8945 165.093 41.2808 165.093 Q42.2791 165.093 42.8607 165.549 Q43.4423 166 43.4423 166.772 Q43.4423 167.311 43.1341 167.684 Q42.8259 168.053 42.2574 168.196 Z" fill="#000000" fill-rule="evenodd" fill-opacity="1" /><path clip-path="url(#clip260)" d="M 0 0 M51.9621 183.423 L53.3944 183.423 L53.3944 178.48 L51.8362 178.792 L51.8362 177.993 L53.3857 177.681 L54.2624 177.681 L54.2624 183.423 L55.6947 183.423 L55.6947 184.161 L51.9621 184.161 L51.9621 183.423 Z" fill="#000000" fill-rule="evenodd" fill-opacity="1" /><path clip-path="url(#clip260)" d="M 0 0 M59.0541 178.445 L56.8405 181.904 L59.0541 181.904 L59.0541 178.445 M58.824 177.681 L59.9265 177.681 L59.9265 181.904 L60.8509 181.904 L60.8509 182.633 L59.9265 182.633 L59.9265 184.161 L59.0541 184.161 L59.0541 182.633 L56.1287 182.633 L56.1287 181.787 L58.824 177.681 Z" fill="#000000" fill-rule="evenodd" fill-opacity="1" /><path clip-path="url(#clip260)" d="M 0 0 M17.8739 208.365 L19.3062 208.365 L19.3062 203.422 L17.748 203.734 L17.748 202.935 L19.2975 202.623 L20.1742 202.623 L20.1742 208.365 L21.6065 208.365 L21.6065 209.103 L17.8739 209.103 L17.8739 208.365 Z" fill="#000000" fill-rule="evenodd" fill-opacity="1" /><path clip-path="url(#clip260)" d="M 0 0 M22.5657 202.623 L26.0075 202.623 L26.0075 203.361 L23.3687 203.361 L23.3687 204.949 Q23.5596 204.884 23.7506 204.854 Q23.9416 204.819 24.1325 204.819 Q25.2176 204.819 25.8513 205.414 Q26.485 206.008 26.485 207.024 Q26.485 208.07 25.8339 208.652 Q25.1829 209.229 23.998 209.229 Q23.59 209.229 23.1647 209.159 Q22.7437 209.09 22.2923 208.951 L22.2923 208.07 Q22.6829 208.283 23.0996 208.387 Q23.5162 208.491 23.9806 208.491 Q24.7315 208.491 25.1699 208.096 Q25.6082 207.701 25.6082 207.024 Q25.6082 206.347 25.1699 205.952 Q24.7315 205.557 23.9806 205.557 Q23.6291 205.557 23.2775 205.635 Q22.9303 205.713 22.5657 205.878 L22.5657 202.623 Z" fill="#000000" fill-rule="evenodd" fill-opacity="1" /><path clip-path="url(#clip260)" d="M 0 0 M34.918 71.1842 L36.3503 71.1842 L36.3503 66.2406 L34.7921 66.5531 L34.7921 65.7545 L36.3416 65.442 L37.2183 65.442 L37.2183 71.1842 L38.6506 71.1842 L38.6506 71.922 L34.918 71.922 L34.918 71.1842 Z" fill="#000000" fill-rule="evenodd" fill-opacity="1" /><path clip-path="url(#clip260)" d="M 0 0 M41.5846 68.3326 Q40.9943 68.3326 40.6471 68.7363 Q40.3042 69.1399 40.3042 69.843 Q40.3042 70.5418 40.6471 70.9498 Q40.9943 71.3535 41.5846 71.3535 Q42.1749 71.3535 42.5178 70.9498 Q42.865 70.5418 42.865 69.843 Q42.865 69.1399 42.5178 68.7363 Q42.1749 68.3326 41.5846 68.3326 M43.3251 65.5853 L43.3251 66.3839 Q42.9952 66.2276 42.6567 66.1451 Q42.3225 66.0627 41.9926 66.0627 Q41.1246 66.0627 40.6645 66.6486 Q40.2088 67.2346 40.1437 68.4194 Q40.3997 68.0418 40.786 67.8422 Q41.1723 67.6382 41.6367 67.6382 Q42.6133 67.6382 43.1775 68.2328 Q43.7461 68.8231 43.7461 69.843 Q43.7461 70.8413 43.1558 71.4446 Q42.5655 72.0479 41.5846 72.0479 Q40.4605 72.0479 39.8659 71.1885 Q39.2713 70.3248 39.2713 68.6885 Q39.2713 67.1521 40.0004 66.2406 Q40.7296 65.3248 41.9579 65.3248 Q42.2877 65.3248 42.6219 65.3899 Q42.9605 65.455 43.3251 65.5853 Z" fill="#000000" fill-rule="evenodd" fill-opacity="1" /><path clip-path="url(#clip260)" d="M 0 0 M103.094 170.952 L104.527 170.952 L104.527 166.009 L102.969 166.321 L102.969 165.522 L104.518 165.21 L105.395 165.21 L105.395 170.952 L106.827 170.952 L106.827 171.69 L103.094 171.69 L103.094 170.952 Z" fill="#000000" fill-rule="evenodd" fill-opacity="1" /><path clip-path="url(#clip260)" d="M 0 0 M107.556 165.21 L111.723 165.21 L111.723 165.583 L109.37 171.69 L108.455 171.69 L110.668 165.948 L107.556 165.948 L107.556 165.21 Z" fill="#000000" fill-rule="evenodd" fill-opacity="1" /><path clip-path="url(#clip260)" d="M 0 0 M17.8739 108.597 L19.3062 108.597 L19.3062 103.654 L17.748 103.966 L17.748 103.168 L19.2975 102.855 L20.1742 102.855 L20.1742 108.597 L21.6065 108.597 L21.6065 109.335 L17.8739 109.335 L17.8739 108.597 Z" fill="#000000" fill-rule="evenodd" fill-opacity="1" /><path clip-path="url(#clip260)" d="M 0 0 M24.432 106.258 Q23.807 106.258 23.4468 106.592 Q23.0909 106.926 23.0909 107.512 Q23.0909 108.098 23.4468 108.432 Q23.807 108.766 24.432 108.766 Q25.057 108.766 25.4173 108.432 Q25.7775 108.094 25.7775 107.512 Q25.7775 106.926 25.4173 106.592 Q25.0614 106.258 24.432 106.258 M23.5553 105.885 Q22.9911 105.746 22.6742 105.359 Q22.3617 104.973 22.3617 104.417 Q22.3617 103.641 22.9129 103.189 Q23.4685 102.738 24.432 102.738 Q25.3999 102.738 25.9511 103.189 Q26.5023 103.641 26.5023 104.417 Q26.5023 104.973 26.1855 105.359 Q25.873 105.746 25.3131 105.885 Q25.9468 106.032 26.2983 106.462 Q26.6542 106.891 26.6542 107.512 Q26.6542 108.454 26.077 108.957 Q25.5041 109.461 24.432 109.461 Q23.36 109.461 22.7827 108.957 Q22.2098 108.454 22.2098 107.512 Q22.2098 106.891 22.5657 106.462 Q22.9216 106.032 23.5553 105.885 M23.2341 104.5 Q23.2341 105.003 23.5466 105.286 Q23.8635 105.568 24.432 105.568 Q24.9963 105.568 25.3131 105.286 Q25.6343 105.003 25.6343 104.5 Q25.6343 103.996 25.3131 103.714 Q24.9963 103.432 24.432 103.432 Q23.8635 103.432 23.5466 103.714 Q23.2341 103.996 23.2341 104.5 Z" fill="#000000" fill-rule="evenodd" fill-opacity="1" /><path clip-path="url(#clip260)" d="M 0 0 M86.0503 208.365 L87.4826 208.365 L87.4826 203.422 L85.9244 203.734 L85.9244 202.935 L87.4739 202.623 L88.3506 202.623 L88.3506 208.365 L89.7829 208.365 L89.7829 209.103 L86.0503 209.103 L86.0503 208.365 Z" fill="#000000" fill-rule="evenodd" fill-opacity="1" /><path clip-path="url(#clip260)" d="M 0 0 M90.7595 208.968 L90.7595 208.17 Q91.0893 208.326 91.4279 208.409 Q91.7664 208.491 92.0919 208.491 Q92.96 208.491 93.4157 207.909 Q93.8758 207.323 93.9409 206.134 Q93.6891 206.507 93.3028 206.707 Q92.9166 206.907 92.4478 206.907 Q91.4756 206.907 90.907 206.321 Q90.3428 205.731 90.3428 204.711 Q90.3428 203.712 90.9331 203.109 Q91.5233 202.506 92.5042 202.506 Q93.6284 202.506 94.2186 203.369 Q94.8133 204.229 94.8133 205.869 Q94.8133 207.402 94.0841 208.317 Q93.3593 209.229 92.131 209.229 Q91.8011 209.229 91.4626 209.164 Q91.124 209.099 90.7595 208.968 M92.5042 206.221 Q93.0945 206.221 93.4374 205.817 Q93.7846 205.414 93.7846 204.711 Q93.7846 204.012 93.4374 203.608 Q93.0945 203.2 92.5042 203.2 Q91.914 203.2 91.5667 203.608 Q91.2239 204.012 91.2239 204.711 Q91.2239 205.414 91.5667 205.817 Q91.914 206.221 92.5042 206.221 Z" fill="#000000" fill-rule="evenodd" fill-opacity="1" /><path clip-path="url(#clip260)" d="M 0 0 M104.023 220.836 L107.083 220.836 L107.083 221.574 L102.969 221.574 L102.969 220.836 Q103.468 220.32 104.327 219.452 Q105.191 218.579 105.412 218.327 Q105.833 217.854 105.998 217.529 Q106.167 217.199 106.167 216.882 Q106.167 216.366 105.803 216.04 Q105.442 215.715 104.861 215.715 Q104.449 215.715 103.988 215.858 Q103.533 216.001 103.012 216.292 L103.012 215.406 Q103.541 215.194 104.001 215.085 Q104.462 214.977 104.843 214.977 Q105.85 214.977 106.449 215.48 Q107.048 215.984 107.048 216.826 Q107.048 217.225 106.896 217.585 Q106.749 217.941 106.354 218.427 Q106.245 218.553 105.664 219.156 Q105.082 219.755 104.023 220.836 Z" fill="#000000" fill-rule="evenodd" fill-opacity="1" /><path clip-path="url(#clip260)" d="M 0 0 M109.909 215.671 Q109.231 215.671 108.889 216.34 Q108.55 217.004 108.55 218.34 Q108.55 219.673 108.889 220.341 Q109.231 221.005 109.909 221.005 Q110.59 221.005 110.929 220.341 Q111.271 219.673 111.271 218.34 Q111.271 217.004 110.929 216.34 Q110.59 215.671 109.909 215.671 M109.909 214.977 Q110.998 214.977 111.571 215.84 Q112.148 216.7 112.148 218.34 Q112.148 219.977 111.571 220.84 Q110.998 221.7 109.909 221.7 Q108.819 221.7 108.242 220.84 Q107.669 219.977 107.669 218.34 Q107.669 216.7 108.242 215.84 Q108.819 214.977 109.909 214.977 Z" fill="#000000" fill-rule="evenodd" fill-opacity="1" /><path clip-path="url(#clip260)" d="M 0 0 M86.9791 108.597 L90.039 108.597 L90.039 109.335 L85.9244 109.335 L85.9244 108.597 Q86.4235 108.081 87.2829 107.213 Q88.1466 106.34 88.368 106.088 Q88.789 105.615 88.9539 105.29 Q89.1232 104.96 89.1232 104.643 Q89.1232 104.127 88.7586 103.801 Q88.3984 103.476 87.8168 103.476 Q87.4044 103.476 86.9444 103.619 Q86.4886 103.762 85.9678 104.053 L85.9678 103.168 Q86.4973 102.955 86.9574 102.846 Q87.4175 102.738 87.7994 102.738 Q88.8063 102.738 89.4053 103.241 Q90.0042 103.745 90.0042 104.587 Q90.0042 104.986 89.8523 105.346 Q89.7048 105.702 89.3098 106.188 Q89.2013 106.314 88.6197 106.917 Q88.0381 107.516 86.9791 108.597 Z" fill="#000000" fill-rule="evenodd" fill-opacity="1" /><path clip-path="url(#clip260)" d="M 0 0 M91.7447 108.597 L94.8046 108.597 L94.8046 109.335 L90.69 109.335 L90.69 108.597 Q91.1891 108.081 92.0485 107.213 Q92.9122 106.34 93.1336 106.088 Q93.5546 105.615 93.7195 105.29 Q93.8888 104.96 93.8888 104.643 Q93.8888 104.127 93.5242 103.801 Q93.164 103.476 92.5824 103.476 Q92.17 103.476 91.71 103.619 Q91.2542 103.762 90.7334 104.053 L90.7334 103.168 Q91.2629 102.955 91.723 102.846 Q92.1831 102.738 92.565 102.738 Q93.5719 102.738 94.1709 103.241 Q94.7698 103.745 94.7698 104.587 Q94.7698 104.986 94.6179 105.346 Q94.4704 105.702 94.0754 106.188 Q93.9669 106.314 93.3853 106.917 Q92.8037 107.516 91.7447 108.597 Z" fill="#000000" fill-rule="evenodd" fill-opacity="1" /><path clip-path="url(#clip260)" d="M 0 0 M52.8909 133.539 L55.9508 133.539 L55.9508 134.277 L51.8362 134.277 L51.8362 133.539 Q52.3353 133.023 53.1947 132.155 Q54.0584 131.282 54.2798 131.03 Q54.7008 130.557 54.8657 130.232 Q55.035 129.902 55.035 129.585 Q55.035 129.069 54.6704 128.743 Q54.3102 128.418 53.7286 128.418 Q53.3162 128.418 52.8562 128.561 Q52.4005 128.704 51.8796 128.995 L51.8796 128.109 Q52.4091 127.897 52.8692 127.788 Q53.3293 127.68 53.7112 127.68 Q54.7181 127.68 55.3171 128.183 Q55.9161 128.687 55.9161 129.529 Q55.9161 129.928 55.7642 130.288 Q55.6166 130.644 55.2216 131.13 Q55.1131 131.256 54.5315 131.859 Q53.9499 132.458 52.8909 133.539 Z" fill="#000000" fill-rule="evenodd" fill-opacity="1" /><path clip-path="url(#clip260)" d="M 0 0 M59.5575 130.783 Q60.1869 130.918 60.5384 131.343 Q60.8943 131.768 60.8943 132.393 Q60.8943 133.353 60.2346 133.878 Q59.5749 134.403 58.3596 134.403 Q57.9516 134.403 57.5176 134.32 Q57.0879 134.242 56.6279 134.082 L56.6279 133.235 Q56.9924 133.448 57.4265 133.557 Q57.8605 133.665 58.3336 133.665 Q59.1582 133.665 59.5879 133.339 Q60.0219 133.014 60.0219 132.393 Q60.0219 131.82 59.6183 131.499 Q59.219 131.174 58.5029 131.174 L57.7476 131.174 L57.7476 130.453 L58.5376 130.453 Q59.1843 130.453 59.5272 130.197 Q59.87 129.937 59.87 129.451 Q59.87 128.952 59.5141 128.687 Q59.1626 128.418 58.5029 128.418 Q58.1426 128.418 57.7303 128.496 Q57.318 128.574 56.8232 128.739 L56.8232 127.958 Q57.3223 127.819 57.7563 127.749 Q58.1947 127.68 58.581 127.68 Q59.5792 127.68 60.1608 128.136 Q60.7424 128.587 60.7424 129.359 Q60.7424 129.898 60.4343 130.271 Q60.1261 130.64 59.5575 130.783 Z" fill="#000000" fill-rule="evenodd" fill-opacity="1" /><path clip-path="url(#clip260)" d="M 0 0 M69.935 146.01 L72.9949 146.01 L72.9949 146.748 L68.8803 146.748 L68.8803 146.01 Q69.3794 145.494 70.2388 144.626 Q71.1025 143.753 71.3239 143.501 Q71.7449 143.028 71.9098 142.703 Q72.0791 142.373 72.0791 142.056 Q72.0791 141.54 71.7145 141.214 Q71.3543 140.889 70.7727 140.889 Q70.3603 140.889 69.9003 141.032 Q69.4445 141.175 68.9237 141.466 L68.9237 140.58 Q69.4532 140.368 69.9133 140.259 Q70.3734 140.151 70.7553 140.151 Q71.7622 140.151 72.3612 140.654 Q72.9602 141.158 72.9602 142 Q72.9602 142.399 72.8082 142.759 Q72.6607 143.115 72.2657 143.601 Q72.1572 143.727 71.5756 144.33 Q70.994 144.929 69.935 146.01 Z" fill="#000000" fill-rule="evenodd" fill-opacity="1" /><path clip-path="url(#clip260)" d="M 0 0 M76.3542 141.032 L74.1407 144.491 L76.3542 144.491 L76.3542 141.032 M76.1242 140.268 L77.2266 140.268 L77.2266 144.491 L78.1511 144.491 L78.1511 145.22 L77.2266 145.22 L77.2266 146.748 L76.3542 146.748 L76.3542 145.22 L73.4289 145.22 L73.4289 144.374 L76.1242 140.268 Z" fill="#000000" fill-rule="evenodd" fill-opacity="1" /><circle clip-path="url(#clip262)" cx="68.8803" cy="23.9821" r="3" fill="#0000ff" fill-rule="evenodd" fill-opacity="1" stroke="none"/>
<circle clip-path="url(#clip262)" cx="85.9244" cy="36.453" r="3" fill="#0000ff" fill-rule="evenodd" fill-opacity="1" stroke="none"/>
<circle clip-path="url(#clip262)" cx="51.8362" cy="61.395" r="3" fill="#0000ff" fill-rule="evenodd" fill-opacity="1" stroke="none"/>
<circle clip-path="url(#clip262)" cx="68.8803" cy="73.866" r="3" fill="#0000ff" fill-rule="evenodd" fill-opacity="1" stroke="none"/>
<circle clip-path="url(#clip262)" cx="102.969" cy="98.808" r="3" fill="#0000ff" fill-rule="evenodd" fill-opacity="1" stroke="none"/>
<circle clip-path="url(#clip262)" cx="17.748" cy="36.453" r="3" fill="#0000ff" fill-rule="evenodd" fill-opacity="1" stroke="none"/>
<circle clip-path="url(#clip262)" cx="34.7921" cy="23.9821" r="3" fill="#0000ff" fill-rule="evenodd" fill-opacity="1" stroke="none"/>
<circle clip-path="url(#clip262)" cx="51.8362" cy="36.453" r="3" fill="#0000ff" fill-rule="evenodd" fill-opacity="1" stroke="none"/>
<circle clip-path="url(#clip262)" cx="17.748" cy="61.395" r="3" fill="#0000ff" fill-rule="evenodd" fill-opacity="1" stroke="none"/>
<circle clip-path="url(#clip262)" cx="102.969" cy="23.9821" r="3" fill="#0000ff" fill-rule="evenodd" fill-opacity="1" stroke="none"/>
<circle clip-path="url(#clip262)" cx="85.9244" cy="61.395" r="3" fill="#0000ff" fill-rule="evenodd" fill-opacity="1" stroke="none"/>
<circle clip-path="url(#clip262)" cx="102.969" cy="73.866" r="3" fill="#0000ff" fill-rule="evenodd" fill-opacity="1" stroke="none"/>
<circle clip-path="url(#clip262)" cx="68.8803" cy="98.808" r="3" fill="#0000ff" fill-rule="evenodd" fill-opacity="1" stroke="none"/>
<path clip-path="url(#clip260)" d="M 0 0 M71.81 18.5442 Q72.4393 18.6787 72.7909 19.104 Q73.1468 19.5294 73.1468 20.1544 Q73.1468 21.1136 72.4871 21.6388 Q71.8273 22.1639 70.6121 22.1639 Q70.2041 22.1639 69.7701 22.0815 Q69.3404 22.0033 68.8803 21.8427 L68.8803 20.9964 Q69.2449 21.2091 69.6789 21.3176 Q70.1129 21.4261 70.586 21.4261 Q71.4107 21.4261 71.8404 21.1006 Q72.2744 20.775 72.2744 20.1544 Q72.2744 19.5815 71.8708 19.2603 Q71.4714 18.9348 70.7553 18.9348 L70.0001 18.9348 L70.0001 18.2143 L70.79 18.2143 Q71.4367 18.2143 71.7796 17.9582 Q72.1225 17.6978 72.1225 17.2117 Q72.1225 16.7126 71.7666 16.4478 Q71.415 16.1787 70.7553 16.1787 Q70.3951 16.1787 69.9827 16.2568 Q69.5704 16.335 69.0756 16.4999 L69.0756 15.7186 Q69.5748 15.5798 70.0088 15.5103 Q70.4471 15.4409 70.8334 15.4409 Q71.8317 15.4409 72.4133 15.8966 Q72.9949 16.348 72.9949 17.1205 Q72.9949 17.6587 72.6867 18.032 Q72.3786 18.4009 71.81 18.5442 Z" fill="#000000" fill-rule="evenodd" fill-opacity="1" /><path clip-path="url(#clip260)" d="M 0 0 M88.8497 28.7929 L86.6362 32.2521 L88.8497 32.2521 L88.8497 28.7929 M88.6197 28.029 L89.7221 28.029 L89.7221 32.2521 L90.6466 32.2521 L90.6466 32.9813 L89.7221 32.9813 L89.7221 34.509 L88.8497 34.509 L88.8497 32.9813 L85.9244 32.9813 L85.9244 32.1349 L88.6197 28.029 Z" fill="#000000" fill-rule="evenodd" fill-opacity="1" /><path clip-path="url(#clip260)" d="M 0 0 M52.1097 52.971 L55.5515 52.971 L55.5515 53.7089 L52.9126 53.7089 L52.9126 55.2974 Q53.1036 55.2323 53.2945 55.2019 Q53.4855 55.1672 53.6765 55.1672 Q54.7616 55.1672 55.3952 55.7618 Q56.0289 56.3564 56.0289 57.3721 Q56.0289 58.4181 55.3779 58.9996 Q54.7268 59.5769 53.5419 59.5769 Q53.134 59.5769 52.7086 59.5075 Q52.2876 59.438 51.8362 59.2991 L51.8362 58.4181 Q52.2268 58.6307 52.6435 58.7349 Q53.0602 58.8391 53.5246 58.8391 Q54.2754 58.8391 54.7138 58.4441 Q55.1522 58.0491 55.1522 57.3721 Q55.1522 56.695 54.7138 56.3 Q54.2754 55.905 53.5246 55.905 Q53.173 55.905 52.8215 55.9832 Q52.4742 56.0613 52.1097 56.2262 L52.1097 52.971 Z" fill="#000000" fill-rule="evenodd" fill-opacity="1" /><path clip-path="url(#clip260)" d="M 0 0 M71.1937 68.3326 Q70.6034 68.3326 70.2562 68.7363 Q69.9133 69.1399 69.9133 69.843 Q69.9133 70.5418 70.2562 70.9498 Q70.6034 71.3535 71.1937 71.3535 Q71.7839 71.3535 72.1268 70.9498 Q72.474 70.5418 72.474 69.843 Q72.474 69.1399 72.1268 68.7363 Q71.7839 68.3326 71.1937 68.3326 M72.9341 65.5853 L72.9341 66.3839 Q72.6043 66.2276 72.2657 66.1451 Q71.9315 66.0627 71.6017 66.0627 Q70.7336 66.0627 70.2735 66.6486 Q69.8178 67.2346 69.7527 68.4194 Q70.0088 68.0418 70.3951 67.8422 Q70.7813 67.6382 71.2458 67.6382 Q72.2223 67.6382 72.7865 68.2328 Q73.3551 68.8231 73.3551 69.843 Q73.3551 70.8413 72.7648 71.4446 Q72.1746 72.0479 71.1937 72.0479 Q70.0695 72.0479 69.4749 71.1885 Q68.8803 70.3248 68.8803 68.6885 Q68.8803 67.1521 69.6095 66.2406 Q70.3386 65.3248 71.5669 65.3248 Q71.8968 65.3248 72.231 65.3899 Q72.5695 65.455 72.9341 65.5853 Z" fill="#000000" fill-rule="evenodd" fill-opacity="1" /><path clip-path="url(#clip260)" d="M 0 0 M103.094 96.1262 L104.527 96.1262 L104.527 91.1826 L102.969 91.4951 L102.969 90.6965 L104.518 90.384 L105.395 90.384 L105.395 96.1262 L106.827 96.1262 L106.827 96.864 L103.094 96.864 L103.094 96.1262 Z" fill="#000000" fill-rule="evenodd" fill-opacity="1" /><path clip-path="url(#clip260)" d="M 0 0 M107.929 96.1262 L109.362 96.1262 L109.362 91.1826 L107.804 91.4951 L107.804 90.6965 L109.353 90.384 L110.23 90.384 L110.23 96.1262 L111.662 96.1262 L111.662 96.864 L107.929 96.864 L107.929 96.1262 Z" fill="#000000" fill-rule="evenodd" fill-opacity="1" /><path clip-path="url(#clip260)" d="M 0 0 M17.8739 33.7712 L19.3062 33.7712 L19.3062 28.8277 L17.748 29.1402 L17.748 28.3415 L19.2975 28.029 L20.1742 28.029 L20.1742 33.7712 L21.6065 33.7712 L21.6065 34.509 L17.8739 34.509 L17.8739 33.7712 Z" fill="#000000" fill-rule="evenodd" fill-opacity="1" /><path clip-path="url(#clip260)" d="M 0 0 M23.3122 33.7712 L26.3721 33.7712 L26.3721 34.509 L22.2576 34.509 L22.2576 33.7712 Q22.7567 33.2547 23.6161 32.3867 Q24.4798 31.5143 24.7011 31.2625 Q25.1221 30.7895 25.2871 30.4639 Q25.4563 30.1341 25.4563 29.8172 Q25.4563 29.3007 25.0917 28.9752 Q24.7315 28.6497 24.1499 28.6497 Q23.7376 28.6497 23.2775 28.7929 Q22.8218 28.9362 22.301 29.227 L22.301 28.3415 Q22.8305 28.1289 23.2905 28.0204 Q23.7506 27.9119 24.1325 27.9119 Q25.1395 27.9119 25.7384 28.4153 Q26.3374 28.9188 26.3374 29.7608 Q26.3374 30.1601 26.1855 30.5204 Q26.0379 30.8763 25.643 31.3624 Q25.5344 31.4882 24.9529 32.0915 Q24.3713 32.6905 23.3122 33.7712 Z" fill="#000000" fill-rule="evenodd" fill-opacity="1" /><path clip-path="url(#clip260)" d="M 0 0 M34.918 21.3002 L36.3503 21.3002 L36.3503 16.3567 L34.7921 16.6692 L34.7921 15.8706 L36.3416 15.5581 L37.2183 15.5581 L37.2183 21.3002 L38.6506 21.3002 L38.6506 22.0381 L34.918 22.0381 L34.918 21.3002 Z" fill="#000000" fill-rule="evenodd" fill-opacity="1" /><path clip-path="url(#clip260)" d="M 0 0 M42.2574 18.5442 Q42.8867 18.6787 43.2383 19.104 Q43.5942 19.5294 43.5942 20.1544 Q43.5942 21.1136 42.9344 21.6388 Q42.2747 22.1639 41.0595 22.1639 Q40.6515 22.1639 40.2174 22.0815 Q39.7878 22.0033 39.3277 21.8427 L39.3277 20.9964 Q39.6923 21.2091 40.1263 21.3176 Q40.5603 21.4261 41.0334 21.4261 Q41.8581 21.4261 42.2877 21.1006 Q42.7218 20.775 42.7218 20.1544 Q42.7218 19.5815 42.3181 19.2603 Q41.9188 18.9348 41.2027 18.9348 L40.4475 18.9348 L40.4475 18.2143 L41.2374 18.2143 Q41.8841 18.2143 42.227 17.9582 Q42.5699 17.6978 42.5699 17.2117 Q42.5699 16.7126 42.214 16.4478 Q41.8624 16.1787 41.2027 16.1787 Q40.8424 16.1787 40.4301 16.2568 Q40.0178 16.335 39.523 16.4999 L39.523 15.7186 Q40.0221 15.5798 40.4562 15.5103 Q40.8945 15.4409 41.2808 15.4409 Q42.2791 15.4409 42.8607 15.8966 Q43.4423 16.348 43.4423 17.1205 Q43.4423 17.6587 43.1341 18.032 Q42.8259 18.4009 42.2574 18.5442 Z" fill="#000000" fill-rule="evenodd" fill-opacity="1" /><path clip-path="url(#clip260)" d="M 0 0 M51.9621 33.7712 L53.3944 33.7712 L53.3944 28.8277 L51.8362 29.1402 L51.8362 28.3415 L53.3857 28.029 L54.2624 28.029 L54.2624 33.7712 L55.6947 33.7712 L55.6947 34.509 L51.9621 34.509 L51.9621 33.7712 Z" fill="#000000" fill-rule="evenodd" fill-opacity="1" /><path clip-path="url(#clip260)" d="M 0 0 M59.0541 28.7929 L56.8405 32.2521 L59.0541 32.2521 L59.0541 28.7929 M58.824 28.029 L59.9265 28.029 L59.9265 32.2521 L60.8509 32.2521 L60.8509 32.9813 L59.9265 32.9813 L59.9265 34.509 L59.0541 34.509 L59.0541 32.9813 L56.1287 32.9813 L56.1287 32.1349 L58.824 28.029 Z" fill="#000000" fill-rule="evenodd" fill-opacity="1" /><path clip-path="url(#clip260)" d="M 0 0 M17.8739 58.7132 L19.3062 58.7132 L19.3062 53.7696 L17.748 54.0821 L17.748 53.2835 L19.2975 52.971 L20.1742 52.971 L20.1742 58.7132 L21.6065 58.7132 L21.6065 59.451 L17.8739 59.451 L17.8739 58.7132 Z" fill="#000000" fill-rule="evenodd" fill-opacity="1" /><path clip-path="url(#clip260)" d="M 0 0 M22.5657 52.971 L26.0075 52.971 L26.0075 53.7089 L23.3687 53.7089 L23.3687 55.2974 Q23.5596 55.2323 23.7506 55.2019 Q23.9416 55.1672 24.1325 55.1672 Q25.2176 55.1672 25.8513 55.7618 Q26.485 56.3564 26.485 57.3721 Q26.485 58.4181 25.8339 58.9996 Q25.1829 59.5769 23.998 59.5769 Q23.59 59.5769 23.1647 59.5075 Q22.7437 59.438 22.2923 59.2991 L22.2923 58.4181 Q22.6829 58.6307 23.0996 58.7349 Q23.5162 58.8391 23.9806 58.8391 Q24.7315 58.8391 25.1699 58.4441 Q25.6082 58.0491 25.6082 57.3721 Q25.6082 56.695 25.1699 56.3 Q24.7315 55.905 23.9806 55.905 Q23.6291 55.905 23.2775 55.9832 Q22.9303 56.0613 22.5657 56.2262 L22.5657 52.971 Z" fill="#000000" fill-rule="evenodd" fill-opacity="1" /><path clip-path="url(#clip260)" d="M 0 0 M103.094 21.3002 L104.527 21.3002 L104.527 16.3567 L102.969 16.6692 L102.969 15.8706 L104.518 15.5581 L105.395 15.5581 L105.395 21.3002 L106.827 21.3002 L106.827 22.0381 L103.094 22.0381 L103.094 21.3002 Z" fill="#000000" fill-rule="evenodd" fill-opacity="1" /><path clip-path="url(#clip260)" d="M 0 0 M107.556 15.5581 L111.723 15.5581 L111.723 15.9313 L109.37 22.0381 L108.455 22.0381 L110.668 16.2959 L107.556 16.2959 L107.556 15.5581 Z" fill="#000000" fill-rule="evenodd" fill-opacity="1" /><path clip-path="url(#clip260)" d="M 0 0 M86.0503 58.7132 L87.4826 58.7132 L87.4826 53.7696 L85.9244 54.0821 L85.9244 53.2835 L87.4739 52.971 L88.3506 52.971 L88.3506 58.7132 L89.7829 58.7132 L89.7829 59.451 L86.0503 59.451 L86.0503 58.7132 Z" fill="#000000" fill-rule="evenodd" fill-opacity="1" /><path clip-path="url(#clip260)" d="M 0 0 M90.7595 59.3165 L90.7595 58.5179 Q91.0893 58.6741 91.4279 58.7566 Q91.7664 58.8391 92.0919 58.8391 Q92.96 58.8391 93.4157 58.2575 Q93.8758 57.6715 93.9409 56.4823 Q93.6891 56.8556 93.3028 57.0552 Q92.9166 57.2549 92.4478 57.2549 Q91.4756 57.2549 90.907 56.6689 Q90.3428 56.0787 90.3428 55.0587 Q90.3428 54.0604 90.9331 53.4571 Q91.5233 52.8538 92.5042 52.8538 Q93.6284 52.8538 94.2186 53.7176 Q94.8133 54.5769 94.8133 56.2175 Q94.8133 57.7497 94.0841 58.6654 Q93.3593 59.5769 92.131 59.5769 Q91.8011 59.5769 91.4626 59.5118 Q91.124 59.4467 90.7595 59.3165 M92.5042 56.5691 Q93.0945 56.5691 93.4374 56.1655 Q93.7846 55.7618 93.7846 55.0587 Q93.7846 54.3599 93.4374 53.9563 Q93.0945 53.5483 92.5042 53.5483 Q91.914 53.5483 91.5667 53.9563 Q91.2239 54.3599 91.2239 55.0587 Q91.2239 55.7618 91.5667 56.1655 Q91.914 56.5691 92.5042 56.5691 Z" fill="#000000" fill-rule="evenodd" fill-opacity="1" /><path clip-path="url(#clip260)" d="M 0 0 M104.023 71.1842 L107.083 71.1842 L107.083 71.922 L102.969 71.922 L102.969 71.1842 Q103.468 70.6677 104.327 69.7996 Q105.191 68.9273 105.412 68.6755 Q105.833 68.2024 105.998 67.8769 Q106.167 67.5471 106.167 67.2302 Q106.167 66.7137 105.803 66.3882 Q105.442 66.0627 104.861 66.0627 Q104.449 66.0627 103.988 66.2059 Q103.533 66.3491 103.012 66.6399 L103.012 65.7545 Q103.541 65.5419 104.001 65.4333 Q104.462 65.3248 104.843 65.3248 Q105.85 65.3248 106.449 65.8283 Q107.048 66.3318 107.048 67.1738 Q107.048 67.5731 106.896 67.9333 Q106.749 68.2892 106.354 68.7753 Q106.245 68.9012 105.664 69.5045 Q105.082 70.1035 104.023 71.1842 Z" fill="#000000" fill-rule="evenodd" fill-opacity="1" /><path clip-path="url(#clip260)" d="M 0 0 M109.909 66.0193 Q109.231 66.0193 108.889 66.6877 Q108.55 67.3517 108.55 68.6885 Q108.55 70.021 108.889 70.6894 Q109.231 71.3535 109.909 71.3535 Q110.59 71.3535 110.929 70.6894 Q111.271 70.021 111.271 68.6885 Q111.271 67.3517 110.929 66.6877 Q110.59 66.0193 109.909 66.0193 M109.909 65.3248 Q110.998 65.3248 111.571 66.1886 Q112.148 67.0479 112.148 68.6885 Q112.148 70.3248 111.571 71.1885 Q110.998 72.0479 109.909 72.0479 Q108.819 72.0479 108.242 71.1885 Q107.669 70.3248 107.669 68.6885 Q107.669 67.0479 108.242 66.1886 Q108.819 65.3248 109.909 65.3248 Z" fill="#000000" fill-rule="evenodd" fill-opacity="1" /><path clip-path="url(#clip260)" d="M 0 0 M69.935 96.1262 L72.9949 96.1262 L72.9949 96.864 L68.8803 96.864 L68.8803 96.1262 Q69.3794 95.6097 70.2388 94.7416 Q71.1025 93.8692 71.3239 93.6175 Q71.7449 93.1444 71.9098 92.8189 Q72.0791 92.489 72.0791 92.1722 Q72.0791 91.6557 71.7145 91.3302 Q71.3543 91.0047 70.7727 91.0047 Q70.3603 91.0047 69.9003 91.1479 Q69.4445 91.2911 68.9237 91.5819 L68.9237 90.6965 Q69.4532 90.4838 69.9133 90.3753 Q70.3734 90.2668 70.7553 90.2668 Q71.7622 90.2668 72.3612 90.7703 Q72.9602 91.2738 72.9602 92.1158 Q72.9602 92.5151 72.8082 92.8753 Q72.6607 93.2312 72.2657 93.7173 Q72.1572 93.8432 71.5756 94.4465 Q70.994 95.0454 69.935 96.1262 Z" fill="#000000" fill-rule="evenodd" fill-opacity="1" /><path clip-path="url(#clip260)" d="M 0 0 M74.0973 96.1262 L75.5296 96.1262 L75.5296 91.1826 L73.9714 91.4951 L73.9714 90.6965 L75.5209 90.384 L76.3976 90.384 L76.3976 96.1262 L77.8299 96.1262 L77.8299 96.864 L74.0973 96.864 L74.0973 96.1262 Z" fill="#000000" fill-rule="evenodd" fill-opacity="1" /><circle clip-path="url(#clip262)" cx="188.189" cy="211.047" r="3" fill="#0000ff" fill-rule="evenodd" fill-opacity="1" stroke="none"/>
<circle clip-path="url(#clip262)" cx="137.057" cy="173.634" r="3" fill="#0000ff" fill-rule="evenodd" fill-opacity="1" stroke="none"/>
<circle clip-path="url(#clip262)" cx="154.101" cy="186.105" r="3" fill="#0000ff" fill-rule="evenodd" fill-opacity="1" stroke="none"/>
<circle clip-path="url(#clip262)" cx="120.013" cy="211.047" r="3" fill="#0000ff" fill-rule="evenodd" fill-opacity="1" stroke="none"/>
<circle clip-path="url(#clip262)" cx="137.057" cy="223.518" r="3" fill="#0000ff" fill-rule="evenodd" fill-opacity="1" stroke="none"/>
<circle clip-path="url(#clip262)" cx="137.057" cy="148.692" r="3" fill="#0000ff" fill-rule="evenodd" fill-opacity="1" stroke="none"/>
<circle clip-path="url(#clip262)" cx="120.013" cy="186.105" r="3" fill="#0000ff" fill-rule="evenodd" fill-opacity="1" stroke="none"/>
<circle clip-path="url(#clip262)" cx="188.189" cy="186.105" r="3" fill="#0000ff" fill-rule="evenodd" fill-opacity="1" stroke="none"/>
<circle clip-path="url(#clip262)" cx="154.101" cy="211.047" r="3" fill="#0000ff" fill-rule="evenodd" fill-opacity="1" stroke="none"/>
<circle clip-path="url(#clip262)" cx="171.145" cy="223.518" r="3" fill="#0000ff" fill-rule="evenodd" fill-opacity="1" stroke="none"/>
<path clip-path="url(#clip260)" d="M 0 0 M188.315 208.365 L189.747 208.365 L189.747 203.422 L188.189 203.734 L188.189 202.935 L189.738 202.623 L190.615 202.623 L190.615 208.365 L192.047 208.365 L192.047 209.103 L188.315 209.103 L188.315 208.365 Z" fill="#000000" fill-rule="evenodd" fill-opacity="1" /><path clip-path="url(#clip260)" d="M 0 0 M137.057 165.21 L141.223 165.21 L141.223 165.583 L138.871 171.69 L137.955 171.69 L140.169 165.948 L137.057 165.948 L137.057 165.21 Z" fill="#000000" fill-rule="evenodd" fill-opacity="1" /><path clip-path="url(#clip260)" d="M 0 0 M156.323 181.084 Q155.698 181.084 155.338 181.418 Q154.982 181.752 154.982 182.338 Q154.982 182.924 155.338 183.258 Q155.698 183.592 156.323 183.592 Q156.948 183.592 157.308 183.258 Q157.668 182.92 157.668 182.338 Q157.668 181.752 157.308 181.418 Q156.952 181.084 156.323 181.084 M155.446 180.71 Q154.882 180.572 154.565 180.185 Q154.253 179.799 154.253 179.243 Q154.253 178.467 154.804 178.015 Q155.359 177.564 156.323 177.564 Q157.291 177.564 157.842 178.015 Q158.393 178.467 158.393 179.243 Q158.393 179.799 158.076 180.185 Q157.764 180.572 157.204 180.71 Q157.838 180.858 158.189 181.288 Q158.545 181.717 158.545 182.338 Q158.545 183.28 157.968 183.783 Q157.395 184.287 156.323 184.287 Q155.251 184.287 154.674 183.783 Q154.101 183.28 154.101 182.338 Q154.101 181.717 154.457 181.288 Q154.813 180.858 155.446 180.71 M155.125 179.326 Q155.125 179.829 155.438 180.112 Q155.754 180.394 156.323 180.394 Q156.887 180.394 157.204 180.112 Q157.525 179.829 157.525 179.326 Q157.525 178.822 157.204 178.54 Q156.887 178.258 156.323 178.258 Q155.754 178.258 155.438 178.54 Q155.125 178.822 155.125 179.326 Z" fill="#000000" fill-rule="evenodd" fill-opacity="1" /><path clip-path="url(#clip260)" d="M 0 0 M120.429 208.968 L120.429 208.17 Q120.759 208.326 121.098 208.409 Q121.436 208.491 121.762 208.491 Q122.63 208.491 123.085 207.909 Q123.546 207.323 123.611 206.134 Q123.359 206.507 122.973 206.707 Q122.586 206.907 122.118 206.907 Q121.145 206.907 120.577 206.321 Q120.013 205.731 120.013 204.711 Q120.013 203.712 120.603 203.109 Q121.193 202.506 122.174 202.506 Q123.298 202.506 123.888 203.369 Q124.483 204.229 124.483 205.869 Q124.483 207.402 123.754 208.317 Q123.029 209.229 121.801 209.229 Q121.471 209.229 121.132 209.164 Q120.794 209.099 120.429 208.968 M122.174 206.221 Q122.764 206.221 123.107 205.817 Q123.454 205.414 123.454 204.711 Q123.454 204.012 123.107 203.608 Q122.764 203.2 122.174 203.2 Q121.584 203.2 121.237 203.608 Q120.894 204.012 120.894 204.711 Q120.894 205.414 121.237 205.817 Q121.584 206.221 122.174 206.221 Z" fill="#000000" fill-rule="evenodd" fill-opacity="1" /><path clip-path="url(#clip260)" d="M 0 0 M137.183 220.836 L138.615 220.836 L138.615 215.893 L137.057 216.205 L137.057 215.406 L138.606 215.094 L139.483 215.094 L139.483 220.836 L140.915 220.836 L140.915 221.574 L137.183 221.574 L137.183 220.836 Z" fill="#000000" fill-rule="evenodd" fill-opacity="1" /><path clip-path="url(#clip260)" d="M 0 0 M143.741 215.671 Q143.064 215.671 142.721 216.34 Q142.382 217.004 142.382 218.34 Q142.382 219.673 142.721 220.341 Q143.064 221.005 143.741 221.005 Q144.422 221.005 144.761 220.341 Q145.104 219.673 145.104 218.34 Q145.104 217.004 144.761 216.34 Q144.422 215.671 143.741 215.671 M143.741 214.977 Q144.83 214.977 145.403 215.84 Q145.98 216.7 145.98 218.34 Q145.98 219.977 145.403 220.84 Q144.83 221.7 143.741 221.7 Q142.651 221.7 142.074 220.84 Q141.501 219.977 141.501 218.34 Q141.501 216.7 142.074 215.84 Q142.651 214.977 143.741 214.977 Z" fill="#000000" fill-rule="evenodd" fill-opacity="1" /><path clip-path="url(#clip260)" d="M 0 0 M137.183 146.01 L138.615 146.01 L138.615 141.067 L137.057 141.379 L137.057 140.58 L138.606 140.268 L139.483 140.268 L139.483 146.01 L140.915 146.01 L140.915 146.748 L137.183 146.748 L137.183 146.01 Z" fill="#000000" fill-rule="evenodd" fill-opacity="1" /><path clip-path="url(#clip260)" d="M 0 0 M143.849 143.159 Q143.259 143.159 142.912 143.562 Q142.569 143.966 142.569 144.669 Q142.569 145.368 142.912 145.776 Q143.259 146.179 143.849 146.179 Q144.439 146.179 144.782 145.776 Q145.13 145.368 145.13 144.669 Q145.13 143.966 144.782 143.562 Q144.439 143.159 143.849 143.159 M145.59 140.411 L145.59 141.21 Q145.26 141.054 144.921 140.971 Q144.587 140.889 144.257 140.889 Q143.389 140.889 142.929 141.475 Q142.473 142.061 142.408 143.245 Q142.664 142.868 143.051 142.668 Q143.437 142.464 143.901 142.464 Q144.878 142.464 145.442 143.059 Q146.011 143.649 146.011 144.669 Q146.011 145.667 145.42 146.271 Q144.83 146.874 143.849 146.874 Q142.725 146.874 142.13 146.014 Q141.536 145.151 141.536 143.514 Q141.536 141.978 142.265 141.067 Q142.994 140.151 144.222 140.151 Q144.552 140.151 144.887 140.216 Q145.225 140.281 145.59 140.411 Z" fill="#000000" fill-rule="evenodd" fill-opacity="1" /><path clip-path="url(#clip260)" d="M 0 0 M120.138 183.423 L121.571 183.423 L121.571 178.48 L120.013 178.792 L120.013 177.993 L121.562 177.681 L122.439 177.681 L122.439 183.423 L123.871 183.423 L123.871 184.161 L120.138 184.161 L120.138 183.423 Z" fill="#000000" fill-rule="evenodd" fill-opacity="1" /><path clip-path="url(#clip260)" d="M 0 0 M126.697 181.084 Q126.072 181.084 125.711 181.418 Q125.355 181.752 125.355 182.338 Q125.355 182.924 125.711 183.258 Q126.072 183.592 126.697 183.592 Q127.322 183.592 127.682 183.258 Q128.042 182.92 128.042 182.338 Q128.042 181.752 127.682 181.418 Q127.326 181.084 126.697 181.084 M125.82 180.71 Q125.256 180.572 124.939 180.185 Q124.626 179.799 124.626 179.243 Q124.626 178.467 125.178 178.015 Q125.733 177.564 126.697 177.564 Q127.664 177.564 128.216 178.015 Q128.767 178.467 128.767 179.243 Q128.767 179.799 128.45 180.185 Q128.138 180.572 127.578 180.71 Q128.211 180.858 128.563 181.288 Q128.919 181.717 128.919 182.338 Q128.919 183.28 128.342 183.783 Q127.769 184.287 126.697 184.287 Q125.625 184.287 125.047 183.783 Q124.474 183.28 124.474 182.338 Q124.474 181.717 124.83 181.288 Q125.186 180.858 125.82 180.71 M125.499 179.326 Q125.499 179.829 125.811 180.112 Q126.128 180.394 126.697 180.394 Q127.261 180.394 127.578 180.112 Q127.899 179.829 127.899 179.326 Q127.899 178.822 127.578 178.54 Q127.261 178.258 126.697 178.258 Q126.128 178.258 125.811 178.54 Q125.499 178.822 125.499 179.326 Z" fill="#000000" fill-rule="evenodd" fill-opacity="1" /><path clip-path="url(#clip260)" d="M 0 0 M189.244 183.423 L192.304 183.423 L192.304 184.161 L188.189 184.161 L188.189 183.423 Q188.688 182.907 189.547 182.039 Q190.411 181.166 190.633 180.914 Q191.054 180.441 191.218 180.116 Q191.388 179.786 191.388 179.469 Q191.388 178.953 191.023 178.627 Q190.663 178.302 190.081 178.302 Q189.669 178.302 189.209 178.445 Q188.753 178.588 188.232 178.879 L188.232 177.993 Q188.762 177.781 189.222 177.672 Q189.682 177.564 190.064 177.564 Q191.071 177.564 191.67 178.067 Q192.269 178.571 192.269 179.413 Q192.269 179.812 192.117 180.172 Q191.969 180.528 191.574 181.014 Q191.466 181.14 190.884 181.743 Q190.303 182.342 189.244 183.423 Z" fill="#000000" fill-rule="evenodd" fill-opacity="1" /><path clip-path="url(#clip260)" d="M 0 0 M194.009 183.423 L197.069 183.423 L197.069 184.161 L192.955 184.161 L192.955 183.423 Q193.454 182.907 194.313 182.039 Q195.177 181.166 195.398 180.914 Q195.819 180.441 195.984 180.116 Q196.153 179.786 196.153 179.469 Q196.153 178.953 195.789 178.627 Q195.429 178.302 194.847 178.302 Q194.435 178.302 193.975 178.445 Q193.519 178.588 192.998 178.879 L192.998 177.993 Q193.527 177.781 193.988 177.672 Q194.448 177.564 194.83 177.564 Q195.837 177.564 196.435 178.067 Q197.034 178.571 197.034 179.413 Q197.034 179.812 196.883 180.172 Q196.735 180.528 196.34 181.014 Q196.231 181.14 195.65 181.743 Q195.068 182.342 194.009 183.423 Z" fill="#000000" fill-rule="evenodd" fill-opacity="1" /><path clip-path="url(#clip260)" d="M 0 0 M155.155 208.365 L158.215 208.365 L158.215 209.103 L154.101 209.103 L154.101 208.365 Q154.6 207.849 155.459 206.981 Q156.323 206.108 156.544 205.856 Q156.965 205.383 157.13 205.058 Q157.3 204.728 157.3 204.411 Q157.3 203.895 156.935 203.569 Q156.575 203.244 155.993 203.244 Q155.581 203.244 155.121 203.387 Q154.665 203.53 154.144 203.821 L154.144 202.935 Q154.674 202.723 155.134 202.614 Q155.594 202.506 155.976 202.506 Q156.983 202.506 157.582 203.009 Q158.181 203.513 158.181 204.355 Q158.181 204.754 158.029 205.114 Q157.881 205.47 157.486 205.956 Q157.378 206.082 156.796 206.685 Q156.214 207.284 155.155 208.365 Z" fill="#000000" fill-rule="evenodd" fill-opacity="1" /><path clip-path="url(#clip260)" d="M 0 0 M161.822 205.609 Q162.451 205.744 162.803 206.169 Q163.159 206.594 163.159 207.219 Q163.159 208.178 162.499 208.704 Q161.839 209.229 160.624 209.229 Q160.216 209.229 159.782 209.146 Q159.352 209.068 158.892 208.908 L158.892 208.061 Q159.257 208.274 159.691 208.382 Q160.125 208.491 160.598 208.491 Q161.423 208.491 161.852 208.165 Q162.287 207.84 162.287 207.219 Q162.287 206.646 161.883 206.325 Q161.484 206 160.767 206 L160.012 206 L160.012 205.279 L160.802 205.279 Q161.449 205.279 161.792 205.023 Q162.135 204.763 162.135 204.277 Q162.135 203.777 161.779 203.513 Q161.427 203.244 160.767 203.244 Q160.407 203.244 159.995 203.322 Q159.583 203.4 159.088 203.565 L159.088 202.784 Q159.587 202.645 160.021 202.575 Q160.459 202.506 160.846 202.506 Q161.844 202.506 162.425 202.961 Q163.007 203.413 163.007 204.185 Q163.007 204.724 162.699 205.097 Q162.391 205.466 161.822 205.609 Z" fill="#000000" fill-rule="evenodd" fill-opacity="1" /><path clip-path="url(#clip260)" d="M 0 0 M172.2 220.836 L175.259 220.836 L175.259 221.574 L171.145 221.574 L171.145 220.836 Q171.644 220.32 172.503 219.452 Q173.367 218.579 173.588 218.327 Q174.009 217.854 174.174 217.529 Q174.344 217.199 174.344 216.882 Q174.344 216.366 173.979 216.04 Q173.619 215.715 173.037 215.715 Q172.625 215.715 172.165 215.858 Q171.709 216.001 171.188 216.292 L171.188 215.406 Q171.718 215.194 172.178 215.085 Q172.638 214.977 173.02 214.977 Q174.027 214.977 174.626 215.48 Q175.225 215.984 175.225 216.826 Q175.225 217.225 175.073 217.585 Q174.925 217.941 174.53 218.427 Q174.422 218.553 173.84 219.156 Q173.259 219.755 172.2 220.836 Z" fill="#000000" fill-rule="evenodd" fill-opacity="1" /><path clip-path="url(#clip260)" d="M 0 0 M178.619 215.858 L176.405 219.317 L178.619 219.317 L178.619 215.858 M178.389 215.094 L179.491 215.094 L179.491 219.317 L180.416 219.317 L180.416 220.046 L179.491 220.046 L179.491 221.574 L178.619 221.574 L178.619 220.046 L175.693 220.046 L175.693 219.2 L178.389 215.094 Z" fill="#000000" fill-rule="evenodd" fill-opacity="1" /><circle clip-path="url(#clip262)" cx="188.189" cy="61.395" r="3" fill="#0000ff" fill-rule="evenodd" fill-opacity="1" stroke="none"/>
<circle clip-path="url(#clip262)" cx="171.145" cy="98.808" r="3" fill="#0000ff" fill-rule="evenodd" fill-opacity="1" stroke="none"/>
<circle clip-path="url(#clip262)" cx="188.189" cy="111.279" r="3" fill="#0000ff" fill-rule="evenodd" fill-opacity="1" stroke="none"/>
<circle clip-path="url(#clip262)" cx="154.101" cy="136.221" r="3" fill="#0000ff" fill-rule="evenodd" fill-opacity="1" stroke="none"/>
<circle clip-path="url(#clip262)" cx="171.145" cy="148.692" r="3" fill="#0000ff" fill-rule="evenodd" fill-opacity="1" stroke="none"/>
<circle clip-path="url(#clip262)" cx="137.057" cy="23.9821" r="3" fill="#0000ff" fill-rule="evenodd" fill-opacity="1" stroke="none"/>
<circle clip-path="url(#clip262)" cx="154.101" cy="36.453" r="3" fill="#0000ff" fill-rule="evenodd" fill-opacity="1" stroke="none"/>
<circle clip-path="url(#clip262)" cx="120.013" cy="61.395" r="3" fill="#0000ff" fill-rule="evenodd" fill-opacity="1" stroke="none"/>
<circle clip-path="url(#clip262)" cx="137.057" cy="73.866" r="3" fill="#0000ff" fill-rule="evenodd" fill-opacity="1" stroke="none"/>
<circle clip-path="url(#clip262)" cx="120.013" cy="111.279" r="3" fill="#0000ff" fill-rule="evenodd" fill-opacity="1" stroke="none"/>
<circle clip-path="url(#clip262)" cx="137.057" cy="98.808" r="3" fill="#0000ff" fill-rule="evenodd" fill-opacity="1" stroke="none"/>
<circle clip-path="url(#clip262)" cx="154.101" cy="111.279" r="3" fill="#0000ff" fill-rule="evenodd" fill-opacity="1" stroke="none"/>
<circle clip-path="url(#clip262)" cx="120.013" cy="136.221" r="3" fill="#0000ff" fill-rule="evenodd" fill-opacity="1" stroke="none"/>
<circle clip-path="url(#clip262)" cx="120.013" cy="36.453" r="3" fill="#0000ff" fill-rule="evenodd" fill-opacity="1" stroke="none"/>
<circle clip-path="url(#clip262)" cx="188.189" cy="136.221" r="3" fill="#0000ff" fill-rule="evenodd" fill-opacity="1" stroke="none"/>
<circle clip-path="url(#clip262)" cx="171.145" cy="173.634" r="3" fill="#0000ff" fill-rule="evenodd" fill-opacity="1" stroke="none"/>
<circle clip-path="url(#clip262)" cx="188.189" cy="36.453" r="3" fill="#0000ff" fill-rule="evenodd" fill-opacity="1" stroke="none"/>
<circle clip-path="url(#clip262)" cx="154.101" cy="61.395" r="3" fill="#0000ff" fill-rule="evenodd" fill-opacity="1" stroke="none"/>
<circle clip-path="url(#clip262)" cx="171.145" cy="73.866" r="3" fill="#0000ff" fill-rule="evenodd" fill-opacity="1" stroke="none"/>
<path clip-path="url(#clip260)" d="M 0 0 M188.315 58.7132 L189.747 58.7132 L189.747 53.7696 L188.189 54.0821 L188.189 53.2835 L189.738 52.971 L190.615 52.971 L190.615 58.7132 L192.047 58.7132 L192.047 59.451 L188.315 59.451 L188.315 58.7132 Z" fill="#000000" fill-rule="evenodd" fill-opacity="1" /><path clip-path="url(#clip260)" d="M 0 0 M174.075 93.3701 Q174.704 93.5047 175.055 93.93 Q175.411 94.3553 175.411 94.9803 Q175.411 95.9395 174.752 96.4647 Q174.092 96.9899 172.877 96.9899 Q172.469 96.9899 172.035 96.9074 Q171.605 96.8293 171.145 96.6687 L171.145 95.8224 Q171.509 96.035 171.943 96.1435 Q172.378 96.252 172.851 96.252 Q173.675 96.252 174.105 95.9265 Q174.539 95.601 174.539 94.9803 Q174.539 94.4074 174.135 94.0863 Q173.736 93.7607 173.02 93.7607 L172.265 93.7607 L172.265 93.0402 L173.055 93.0402 Q173.701 93.0402 174.044 92.7842 Q174.387 92.5238 174.387 92.0377 Q174.387 91.5385 174.031 91.2738 Q173.68 91.0047 173.02 91.0047 Q172.66 91.0047 172.247 91.0828 Q171.835 91.1609 171.34 91.3258 L171.34 90.5446 Q171.839 90.4057 172.273 90.3363 Q172.712 90.2668 173.098 90.2668 Q174.096 90.2668 174.678 90.7226 Q175.259 91.1739 175.259 91.9465 Q175.259 92.4847 174.951 92.858 Q174.643 93.2269 174.075 93.3701 Z" fill="#000000" fill-rule="evenodd" fill-opacity="1" /><path clip-path="url(#clip260)" d="M 0 0 M191.114 103.619 L188.901 107.078 L191.114 107.078 L191.114 103.619 M190.884 102.855 L191.987 102.855 L191.987 107.078 L192.911 107.078 L192.911 107.807 L191.987 107.807 L191.987 109.335 L191.114 109.335 L191.114 107.807 L188.189 107.807 L188.189 106.961 L190.884 102.855 Z" fill="#000000" fill-rule="evenodd" fill-opacity="1" /><path clip-path="url(#clip260)" d="M 0 0 M154.374 127.797 L157.816 127.797 L157.816 128.535 L155.177 128.535 L155.177 130.123 Q155.368 130.058 155.559 130.028 Q155.75 129.993 155.941 129.993 Q157.026 129.993 157.66 130.588 Q158.293 131.182 158.293 132.198 Q158.293 133.244 157.642 133.826 Q156.991 134.403 155.807 134.403 Q155.399 134.403 154.973 134.333 Q154.552 134.264 154.101 134.125 L154.101 133.244 Q154.491 133.457 154.908 133.561 Q155.325 133.665 155.789 133.665 Q156.54 133.665 156.978 133.27 Q157.417 132.875 157.417 132.198 Q157.417 131.521 156.978 131.126 Q156.54 130.731 155.789 130.731 Q155.438 130.731 155.086 130.809 Q154.739 130.887 154.374 131.052 L154.374 127.797 Z" fill="#000000" fill-rule="evenodd" fill-opacity="1" /><path clip-path="url(#clip260)" d="M 0 0 M173.458 143.159 Q172.868 143.159 172.521 143.562 Q172.178 143.966 172.178 144.669 Q172.178 145.368 172.521 145.776 Q172.868 146.179 173.458 146.179 Q174.049 146.179 174.391 145.776 Q174.739 145.368 174.739 144.669 Q174.739 143.966 174.391 143.562 Q174.049 143.159 173.458 143.159 M175.199 140.411 L175.199 141.21 Q174.869 141.054 174.53 140.971 Q174.196 140.889 173.866 140.889 Q172.998 140.889 172.538 141.475 Q172.082 142.061 172.017 143.245 Q172.273 142.868 172.66 142.668 Q173.046 142.464 173.51 142.464 Q174.487 142.464 175.051 143.059 Q175.62 143.649 175.62 144.669 Q175.62 145.667 175.029 146.271 Q174.439 146.874 173.458 146.874 Q172.334 146.874 171.739 146.014 Q171.145 145.151 171.145 143.514 Q171.145 141.978 171.874 141.067 Q172.603 140.151 173.831 140.151 Q174.161 140.151 174.496 140.216 Q174.834 140.281 175.199 140.411 Z" fill="#000000" fill-rule="evenodd" fill-opacity="1" /><path clip-path="url(#clip260)" d="M 0 0 M137.057 15.5581 L141.223 15.5581 L141.223 15.9313 L138.871 22.0381 L137.955 22.0381 L140.169 16.2959 L137.057 16.2959 L137.057 15.5581 Z" fill="#000000" fill-rule="evenodd" fill-opacity="1" /><path clip-path="url(#clip260)" d="M 0 0 M156.323 31.4318 Q155.698 31.4318 155.338 31.766 Q154.982 32.1002 154.982 32.6861 Q154.982 33.2721 155.338 33.6063 Q155.698 33.9405 156.323 33.9405 Q156.948 33.9405 157.308 33.6063 Q157.668 33.2677 157.668 32.6861 Q157.668 32.1002 157.308 31.766 Q156.952 31.4318 156.323 31.4318 M155.446 31.0585 Q154.882 30.9197 154.565 30.5334 Q154.253 30.1471 154.253 29.5915 Q154.253 28.8146 154.804 28.3632 Q155.359 27.9119 156.323 27.9119 Q157.291 27.9119 157.842 28.3632 Q158.393 28.8146 158.393 29.5915 Q158.393 30.1471 158.076 30.5334 Q157.764 30.9197 157.204 31.0585 Q157.838 31.2061 158.189 31.6358 Q158.545 32.0655 158.545 32.6861 Q158.545 33.628 157.968 34.1314 Q157.395 34.6349 156.323 34.6349 Q155.251 34.6349 154.674 34.1314 Q154.101 33.628 154.101 32.6861 Q154.101 32.0655 154.457 31.6358 Q154.813 31.2061 155.446 31.0585 M155.125 29.674 Q155.125 30.1775 155.438 30.4596 Q155.754 30.7417 156.323 30.7417 Q156.887 30.7417 157.204 30.4596 Q157.525 30.1775 157.525 29.674 Q157.525 29.1705 157.204 28.8884 Q156.887 28.6063 156.323 28.6063 Q155.754 28.6063 155.438 28.8884 Q155.125 29.1705 155.125 29.674 Z" fill="#000000" fill-rule="evenodd" fill-opacity="1" /><path clip-path="url(#clip260)" d="M 0 0 M120.429 59.3165 L120.429 58.5179 Q120.759 58.6741 121.098 58.7566 Q121.436 58.8391 121.762 58.8391 Q122.63 58.8391 123.085 58.2575 Q123.546 57.6715 123.611 56.4823 Q123.359 56.8556 122.973 57.0552 Q122.586 57.2549 122.118 57.2549 Q121.145 57.2549 120.577 56.6689 Q120.013 56.0787 120.013 55.0587 Q120.013 54.0604 120.603 53.4571 Q121.193 52.8538 122.174 52.8538 Q123.298 52.8538 123.888 53.7176 Q124.483 54.5769 124.483 56.2175 Q124.483 57.7497 123.754 58.6654 Q123.029 59.5769 121.801 59.5769 Q121.471 59.5769 121.132 59.5118 Q120.794 59.4467 120.429 59.3165 M122.174 56.5691 Q122.764 56.5691 123.107 56.1655 Q123.454 55.7618 123.454 55.0587 Q123.454 54.3599 123.107 53.9563 Q122.764 53.5483 122.174 53.5483 Q121.584 53.5483 121.237 53.9563 Q120.894 54.3599 120.894 55.0587 Q120.894 55.7618 121.237 56.1655 Q121.584 56.5691 122.174 56.5691 Z" fill="#000000" fill-rule="evenodd" fill-opacity="1" /><path clip-path="url(#clip260)" d="M 0 0 M137.183 71.1842 L138.615 71.1842 L138.615 66.2406 L137.057 66.5531 L137.057 65.7545 L138.606 65.442 L139.483 65.442 L139.483 71.1842 L140.915 71.1842 L140.915 71.922 L137.183 71.922 L137.183 71.1842 Z" fill="#000000" fill-rule="evenodd" fill-opacity="1" /><path clip-path="url(#clip260)" d="M 0 0 M143.741 66.0193 Q143.064 66.0193 142.721 66.6877 Q142.382 67.3517 142.382 68.6885 Q142.382 70.021 142.721 70.6894 Q143.064 71.3535 143.741 71.3535 Q144.422 71.3535 144.761 70.6894 Q145.104 70.021 145.104 68.6885 Q145.104 67.3517 144.761 66.6877 Q144.422 66.0193 143.741 66.0193 M143.741 65.3248 Q144.83 65.3248 145.403 66.1886 Q145.98 67.0479 145.98 68.6885 Q145.98 70.3248 145.403 71.1885 Q144.83 72.0479 143.741 72.0479 Q142.651 72.0479 142.074 71.1885 Q141.501 70.3248 141.501 68.6885 Q141.501 67.0479 142.074 66.1886 Q142.651 65.3248 143.741 65.3248 Z" fill="#000000" fill-rule="evenodd" fill-opacity="1" /><path clip-path="url(#clip260)" d="M 0 0 M120.138 108.597 L121.571 108.597 L121.571 103.654 L120.013 103.966 L120.013 103.168 L121.562 102.855 L122.439 102.855 L122.439 108.597 L123.871 108.597 L123.871 109.335 L120.138 109.335 L120.138 108.597 Z" fill="#000000" fill-rule="evenodd" fill-opacity="1" /><path clip-path="url(#clip260)" d="M 0 0 M125.577 108.597 L128.637 108.597 L128.637 109.335 L124.522 109.335 L124.522 108.597 Q125.021 108.081 125.881 107.213 Q126.744 106.34 126.966 106.088 Q127.387 105.615 127.552 105.29 Q127.721 104.96 127.721 104.643 Q127.721 104.127 127.356 103.801 Q126.996 103.476 126.414 103.476 Q126.002 103.476 125.542 103.619 Q125.086 103.762 124.566 104.053 L124.566 103.168 Q125.095 102.955 125.555 102.846 Q126.015 102.738 126.397 102.738 Q127.404 102.738 128.003 103.241 Q128.602 103.745 128.602 104.587 Q128.602 104.986 128.45 105.346 Q128.302 105.702 127.908 106.188 Q127.799 106.314 127.217 106.917 Q126.636 107.516 125.577 108.597 Z" fill="#000000" fill-rule="evenodd" fill-opacity="1" /><path clip-path="url(#clip260)" d="M 0 0 M137.183 96.1262 L138.615 96.1262 L138.615 91.1826 L137.057 91.4951 L137.057 90.6965 L138.606 90.384 L139.483 90.384 L139.483 96.1262 L140.915 96.1262 L140.915 96.864 L137.183 96.864 L137.183 96.1262 Z" fill="#000000" fill-rule="evenodd" fill-opacity="1" /><path clip-path="url(#clip260)" d="M 0 0 M144.522 93.3701 Q145.151 93.5047 145.503 93.93 Q145.859 94.3553 145.859 94.9803 Q145.859 95.9395 145.199 96.4647 Q144.539 96.9899 143.324 96.9899 Q142.916 96.9899 142.482 96.9074 Q142.052 96.8293 141.592 96.6687 L141.592 95.8224 Q141.957 96.035 142.391 96.1435 Q142.825 96.252 143.298 96.252 Q144.123 96.252 144.552 95.9265 Q144.986 95.601 144.986 94.9803 Q144.986 94.4074 144.583 94.0863 Q144.183 93.7607 143.467 93.7607 L142.712 93.7607 L142.712 93.0402 L143.502 93.0402 Q144.149 93.0402 144.492 92.7842 Q144.834 92.5238 144.834 92.0377 Q144.834 91.5385 144.479 91.2738 Q144.127 91.0047 143.467 91.0047 Q143.107 91.0047 142.695 91.0828 Q142.282 91.1609 141.788 91.3258 L141.788 90.5446 Q142.287 90.4057 142.721 90.3363 Q143.159 90.2668 143.545 90.2668 Q144.544 90.2668 145.125 90.7226 Q145.707 91.1739 145.707 91.9465 Q145.707 92.4847 145.399 92.858 Q145.091 93.2269 144.522 93.3701 Z" fill="#000000" fill-rule="evenodd" fill-opacity="1" /><path clip-path="url(#clip260)" d="M 0 0 M154.227 108.597 L155.659 108.597 L155.659 103.654 L154.101 103.966 L154.101 103.168 L155.65 102.855 L156.527 102.855 L156.527 108.597 L157.959 108.597 L157.959 109.335 L154.227 109.335 L154.227 108.597 Z" fill="#000000" fill-rule="evenodd" fill-opacity="1" /><path clip-path="url(#clip260)" d="M 0 0 M161.319 103.619 L159.105 107.078 L161.319 107.078 L161.319 103.619 M161.089 102.855 L162.191 102.855 L162.191 107.078 L163.115 107.078 L163.115 107.807 L162.191 107.807 L162.191 109.335 L161.319 109.335 L161.319 107.807 L158.393 107.807 L158.393 106.961 L161.089 102.855 Z" fill="#000000" fill-rule="evenodd" fill-opacity="1" /><path clip-path="url(#clip260)" d="M 0 0 M120.138 133.539 L121.571 133.539 L121.571 128.596 L120.013 128.908 L120.013 128.109 L121.562 127.797 L122.439 127.797 L122.439 133.539 L123.871 133.539 L123.871 134.277 L120.138 134.277 L120.138 133.539 Z" fill="#000000" fill-rule="evenodd" fill-opacity="1" /><path clip-path="url(#clip260)" d="M 0 0 M124.83 127.797 L128.272 127.797 L128.272 128.535 L125.633 128.535 L125.633 130.123 Q125.824 130.058 126.015 130.028 Q126.206 129.993 126.397 129.993 Q127.482 129.993 128.116 130.588 Q128.75 131.182 128.75 132.198 Q128.75 133.244 128.098 133.826 Q127.447 134.403 126.263 134.403 Q125.855 134.403 125.429 134.333 Q125.008 134.264 124.557 134.125 L124.557 133.244 Q124.947 133.457 125.364 133.561 Q125.781 133.665 126.245 133.665 Q126.996 133.665 127.434 133.27 Q127.873 132.875 127.873 132.198 Q127.873 131.521 127.434 131.126 Q126.996 130.731 126.245 130.731 Q125.894 130.731 125.542 130.809 Q125.195 130.887 124.83 131.052 L124.83 127.797 Z" fill="#000000" fill-rule="evenodd" fill-opacity="1" /><path clip-path="url(#clip260)" d="M 0 0 M120.138 33.7712 L121.571 33.7712 L121.571 28.8277 L120.013 29.1402 L120.013 28.3415 L121.562 28.029 L122.439 28.029 L122.439 33.7712 L123.871 33.7712 L123.871 34.509 L120.138 34.509 L120.138 33.7712 Z" fill="#000000" fill-rule="evenodd" fill-opacity="1" /><path clip-path="url(#clip260)" d="M 0 0 M126.697 31.4318 Q126.072 31.4318 125.711 31.766 Q125.355 32.1002 125.355 32.6861 Q125.355 33.2721 125.711 33.6063 Q126.072 33.9405 126.697 33.9405 Q127.322 33.9405 127.682 33.6063 Q128.042 33.2677 128.042 32.6861 Q128.042 32.1002 127.682 31.766 Q127.326 31.4318 126.697 31.4318 M125.82 31.0585 Q125.256 30.9197 124.939 30.5334 Q124.626 30.1471 124.626 29.5915 Q124.626 28.8146 125.178 28.3632 Q125.733 27.9119 126.697 27.9119 Q127.664 27.9119 128.216 28.3632 Q128.767 28.8146 128.767 29.5915 Q128.767 30.1471 128.45 30.5334 Q128.138 30.9197 127.578 31.0585 Q128.211 31.2061 128.563 31.6358 Q128.919 32.0655 128.919 32.6861 Q128.919 33.628 128.342 34.1314 Q127.769 34.6349 126.697 34.6349 Q125.625 34.6349 125.047 34.1314 Q124.474 33.628 124.474 32.6861 Q124.474 32.0655 124.83 31.6358 Q125.186 31.2061 125.82 31.0585 M125.499 29.674 Q125.499 30.1775 125.811 30.4596 Q126.128 30.7417 126.697 30.7417 Q127.261 30.7417 127.578 30.4596 Q127.899 30.1775 127.899 29.674 Q127.899 29.1705 127.578 28.8884 Q127.261 28.6063 126.697 28.6063 Q126.128 28.6063 125.811 28.8884 Q125.499 29.1705 125.499 29.674 Z" fill="#000000" fill-rule="evenodd" fill-opacity="1" /><path clip-path="url(#clip260)" d="M 0 0 M188.315 133.539 L189.747 133.539 L189.747 128.596 L188.189 128.908 L188.189 128.109 L189.738 127.797 L190.615 127.797 L190.615 133.539 L192.047 133.539 L192.047 134.277 L188.315 134.277 L188.315 133.539 Z" fill="#000000" fill-rule="evenodd" fill-opacity="1" /><path clip-path="url(#clip260)" d="M 0 0 M193.024 134.142 L193.024 133.344 Q193.354 133.5 193.692 133.583 Q194.031 133.665 194.356 133.665 Q195.225 133.665 195.68 133.083 Q196.14 132.497 196.205 131.308 Q195.954 131.682 195.567 131.881 Q195.181 132.081 194.712 132.081 Q193.74 132.081 193.172 131.495 Q192.607 130.905 192.607 129.885 Q192.607 128.886 193.198 128.283 Q193.788 127.68 194.769 127.68 Q195.893 127.68 196.483 128.544 Q197.078 129.403 197.078 131.044 Q197.078 132.576 196.349 133.491 Q195.624 134.403 194.396 134.403 Q194.066 134.403 193.727 134.338 Q193.389 134.273 193.024 134.142 M194.769 131.395 Q195.359 131.395 195.702 130.991 Q196.049 130.588 196.049 129.885 Q196.049 129.186 195.702 128.782 Q195.359 128.374 194.769 128.374 Q194.179 128.374 193.831 128.782 Q193.488 129.186 193.488 129.885 Q193.488 130.588 193.831 130.991 Q194.179 131.395 194.769 131.395 Z" fill="#000000" fill-rule="evenodd" fill-opacity="1" /><path clip-path="url(#clip260)" d="M 0 0 M172.2 170.952 L175.259 170.952 L175.259 171.69 L171.145 171.69 L171.145 170.952 Q171.644 170.436 172.503 169.568 Q173.367 168.695 173.588 168.443 Q174.009 167.97 174.174 167.645 Q174.344 167.315 174.344 166.998 Q174.344 166.482 173.979 166.156 Q173.619 165.831 173.037 165.831 Q172.625 165.831 172.165 165.974 Q171.709 166.117 171.188 166.408 L171.188 165.522 Q171.718 165.31 172.178 165.201 Q172.638 165.093 173.02 165.093 Q174.027 165.093 174.626 165.596 Q175.225 166.1 175.225 166.942 Q175.225 167.341 175.073 167.701 Q174.925 168.057 174.53 168.543 Q174.422 168.669 173.84 169.272 Q173.259 169.871 172.2 170.952 Z" fill="#000000" fill-rule="evenodd" fill-opacity="1" /><path clip-path="url(#clip260)" d="M 0 0 M176.362 170.952 L177.794 170.952 L177.794 166.009 L176.236 166.321 L176.236 165.522 L177.785 165.21 L178.662 165.21 L178.662 170.952 L180.094 170.952 L180.094 171.69 L176.362 171.69 L176.362 170.952 Z" fill="#000000" fill-rule="evenodd" fill-opacity="1" /><path clip-path="url(#clip260)" d="M 0 0 M189.244 33.7712 L192.304 33.7712 L192.304 34.509 L188.189 34.509 L188.189 33.7712 Q188.688 33.2547 189.547 32.3867 Q190.411 31.5143 190.633 31.2625 Q191.054 30.7895 191.218 30.4639 Q191.388 30.1341 191.388 29.8172 Q191.388 29.3007 191.023 28.9752 Q190.663 28.6497 190.081 28.6497 Q189.669 28.6497 189.209 28.7929 Q188.753 28.9362 188.232 29.227 L188.232 28.3415 Q188.762 28.1289 189.222 28.0204 Q189.682 27.9119 190.064 27.9119 Q191.071 27.9119 191.67 28.4153 Q192.269 28.9188 192.269 29.7608 Q192.269 30.1601 192.117 30.5204 Q191.969 30.8763 191.574 31.3624 Q191.466 31.4882 190.884 32.0915 Q190.303 32.6905 189.244 33.7712 Z" fill="#000000" fill-rule="evenodd" fill-opacity="1" /><path clip-path="url(#clip260)" d="M 0 0 M194.009 33.7712 L197.069 33.7712 L197.069 34.509 L192.955 34.509 L192.955 33.7712 Q193.454 33.2547 194.313 32.3867 Q195.177 31.5143 195.398 31.2625 Q195.819 30.7895 195.984 30.4639 Q196.153 30.1341 196.153 29.8172 Q196.153 29.3007 195.789 28.9752 Q195.429 28.6497 194.847 28.6497 Q194.435 28.6497 193.975 28.7929 Q193.519 28.9362 192.998 29.227 L192.998 28.3415 Q193.527 28.1289 193.988 28.0204 Q194.448 27.9119 194.83 27.9119 Q195.837 27.9119 196.435 28.4153 Q197.034 28.9188 197.034 29.7608 Q197.034 30.1601 196.883 30.5204 Q196.735 30.8763 196.34 31.3624 Q196.231 31.4882 195.65 32.0915 Q195.068 32.6905 194.009 33.7712 Z" fill="#000000" fill-rule="evenodd" fill-opacity="1" /><path clip-path="url(#clip260)" d="M 0 0 M155.155 58.7132 L158.215 58.7132 L158.215 59.451 L154.101 59.451 L154.101 58.7132 Q154.6 58.1967 155.459 57.3286 Q156.323 56.4563 156.544 56.2045 Q156.965 55.7314 157.13 55.4059 Q157.3 55.0761 157.3 54.7592 Q157.3 54.2427 156.935 53.9172 Q156.575 53.5917 155.993 53.5917 Q155.581 53.5917 155.121 53.7349 Q154.665 53.8781 154.144 54.1689 L154.144 53.2835 Q154.674 53.0709 155.134 52.9624 Q155.594 52.8538 155.976 52.8538 Q156.983 52.8538 157.582 53.3573 Q158.181 53.8608 158.181 54.7028 Q158.181 55.1021 158.029 55.4623 Q157.881 55.8182 157.486 56.3043 Q157.378 56.4302 156.796 57.0335 Q156.214 57.6325 155.155 58.7132 Z" fill="#000000" fill-rule="evenodd" fill-opacity="1" /><path clip-path="url(#clip260)" d="M 0 0 M161.822 55.9571 Q162.451 56.0917 162.803 56.517 Q163.159 56.9424 163.159 57.5674 Q163.159 58.5266 162.499 59.0517 Q161.839 59.5769 160.624 59.5769 Q160.216 59.5769 159.782 59.4944 Q159.352 59.4163 158.892 59.2557 L158.892 58.4094 Q159.257 58.622 159.691 58.7306 Q160.125 58.8391 160.598 58.8391 Q161.423 58.8391 161.852 58.5135 Q162.287 58.188 162.287 57.5674 Q162.287 56.9945 161.883 56.6733 Q161.484 56.3478 160.767 56.3478 L160.012 56.3478 L160.012 55.6273 L160.802 55.6273 Q161.449 55.6273 161.792 55.3712 Q162.135 55.1108 162.135 54.6247 Q162.135 54.1255 161.779 53.8608 Q161.427 53.5917 160.767 53.5917 Q160.407 53.5917 159.995 53.6698 Q159.583 53.7479 159.088 53.9129 L159.088 53.1316 Q159.587 52.9927 160.021 52.9233 Q160.459 52.8538 160.846 52.8538 Q161.844 52.8538 162.425 53.3096 Q163.007 53.761 163.007 54.5335 Q163.007 55.0717 162.699 55.445 Q162.391 55.8139 161.822 55.9571 Z" fill="#000000" fill-rule="evenodd" fill-opacity="1" /><path clip-path="url(#clip260)" d="M 0 0 M172.2 71.1842 L175.259 71.1842 L175.259 71.922 L171.145 71.922 L171.145 71.1842 Q171.644 70.6677 172.503 69.7996 Q173.367 68.9273 173.588 68.6755 Q174.009 68.2024 174.174 67.8769 Q174.344 67.5471 174.344 67.2302 Q174.344 66.7137 173.979 66.3882 Q173.619 66.0627 173.037 66.0627 Q172.625 66.0627 172.165 66.2059 Q171.709 66.3491 171.188 66.6399 L171.188 65.7545 Q171.718 65.5419 172.178 65.4333 Q172.638 65.3248 173.02 65.3248 Q174.027 65.3248 174.626 65.8283 Q175.225 66.3318 175.225 67.1738 Q175.225 67.5731 175.073 67.9333 Q174.925 68.2892 174.53 68.7753 Q174.422 68.9012 173.84 69.5045 Q173.259 70.1035 172.2 71.1842 Z" fill="#000000" fill-rule="evenodd" fill-opacity="1" /><path clip-path="url(#clip260)" d="M 0 0 M178.619 66.2059 L176.405 69.6651 L178.619 69.6651 L178.619 66.2059 M178.389 65.442 L179.491 65.442 L179.491 69.6651 L180.416 69.6651 L180.416 70.3943 L179.491 70.3943 L179.491 71.922 L178.619 71.922 L178.619 70.3943 L175.693 70.3943 L175.693 69.5479 L178.389 65.442 Z" fill="#000000" fill-rule="evenodd" fill-opacity="1" /><circle clip-path="url(#clip262)" cx="171.145" cy="23.9821" r="3" fill="#0000ff" fill-rule="evenodd" fill-opacity="1" stroke="none"/>
<path clip-path="url(#clip260)" d="M 0 0 M172.2 21.3002 L175.259 21.3002 L175.259 22.0381 L171.145 22.0381 L171.145 21.3002 Q171.644 20.7837 172.503 19.9157 Q173.367 19.0433 173.588 18.7915 Q174.009 18.3185 174.174 17.9929 Q174.344 17.6631 174.344 17.3462 Q174.344 16.8297 173.979 16.5042 Q173.619 16.1787 173.037 16.1787 Q172.625 16.1787 172.165 16.3219 Q171.709 16.4652 171.188 16.756 L171.188 15.8706 Q171.718 15.6579 172.178 15.5494 Q172.638 15.4409 173.02 15.4409 Q174.027 15.4409 174.626 15.9443 Q175.225 16.4478 175.225 17.2898 Q175.225 17.6891 175.073 18.0494 Q174.925 18.4053 174.53 18.8914 Q174.422 19.0172 173.84 19.6205 Q173.259 20.2195 172.2 21.3002 Z" fill="#000000" fill-rule="evenodd" fill-opacity="1" /><path clip-path="url(#clip260)" d="M 0 0 M176.362 21.3002 L177.794 21.3002 L177.794 16.3567 L176.236 16.6692 L176.236 15.8706 L177.785 15.5581 L178.662 15.5581 L178.662 21.3002 L180.094 21.3002 L180.094 22.0381 L176.362 22.0381 L176.362 21.3002 Z" fill="#000000" fill-rule="evenodd" fill-opacity="1" /></svg>
