<?xml version="1.0" encoding="utf-8"?>
<svg xmlns="http://www.w3.org/2000/svg" xmlns:xlink="http://www.w3.org/1999/xlink" width="50" height="62.5" viewBox="0 0 200 250">
<defs>
  <clipPath id="clip020">
    <rect x="0" y="0" width="200" height="250"/>
  </clipPath>
</defs>
<path clip-path="url(#clip020)" d="
M0 250 L200 250 L200 0 L0 0  Z
  " fill="#ffffff" fill-rule="evenodd" fill-opacity="1"/>
<defs>
  <clipPath id="clip021">
    <rect x="50" y="25" width="176" height="176"/>
  </clipPath>
</defs>
<path clip-path="url(#clip020)" d="
M17.748 231.752 L188.189 231.752 L188.189 15.748 L17.748 15.748  Z
  " fill="#ffffff" fill-rule="evenodd" fill-opacity="1"/>
<defs>
  <clipPath id="clip022">
    <rect x="17" y="15" width="171" height="217"/>
  </clipPath>
</defs>
<polyline clip-path="url(#clip020)" style="stroke:#000000; stroke-width:1; stroke-opacity:1; fill:none" points="
  17.748,231.752 188.189,231.752 
  "/>
<polyline clip-path="url(#clip020)" style="stroke:#000000; stroke-width:1; stroke-opacity:1; fill:none" points="
  34.7921,231.752 34.7921,229.16 
  "/>
<polyline clip-path="url(#clip020)" style="stroke:#000000; stroke-width:1; stroke-opacity:1; fill:none" points="
  68.8803,231.752 68.8803,229.16 
  "/>
<polyline clip-path="url(#clip020)" style="stroke:#000000; stroke-width:1; stroke-opacity:1; fill:none" points="
  102.969,231.752 102.969,229.16 
  "/>
<polyline clip-path="url(#clip020)" style="stroke:#000000; stroke-width:1; stroke-opacity:1; fill:none" points="
  137.057,231.752 137.057,229.16 
  "/>
<polyline clip-path="url(#clip020)" style="stroke:#000000; stroke-width:1; stroke-opacity:1; fill:none" points="
  171.145,231.752 171.145,229.16 
  "/>
<path clip-path="url(#clip020)" d="M 0 0 M27.9056 239.913 L35.3245 239.913 L35.3245 240.897 L27.9056 240.897 L27.9056 239.913 Z" fill="#000000" fill-rule="evenodd" fill-opacity="1" /><path clip-path="url(#clip020)" d="M 0 0 M37.5988 243.136 L41.6787 243.136 L41.6787 244.12 L36.1926 244.12 L36.1926 243.136 Q36.8581 242.448 38.0039 241.29 Q39.1555 240.127 39.4507 239.791 Q40.012 239.161 40.2319 238.726 Q40.4576 238.287 40.4576 237.864 Q40.4576 237.176 39.9715 236.742 Q39.4912 236.308 38.7157 236.308 Q38.166 236.308 37.5525 236.498 Q36.9449 236.689 36.2505 237.077 L36.2505 235.897 Q36.9565 235.613 37.5699 235.468 Q38.1833 235.324 38.6926 235.324 Q40.0352 235.324 40.8338 235.995 Q41.6324 236.666 41.6324 237.789 Q41.6324 238.321 41.4298 238.802 Q41.2331 239.276 40.7064 239.924 Q40.5618 240.092 39.7863 240.897 Q39.0109 241.695 37.5988 243.136 Z" fill="#000000" fill-rule="evenodd" fill-opacity="1" /><path clip-path="url(#clip020)" d="M 0 0 M61.9475 239.913 L69.3664 239.913 L69.3664 240.897 L61.9475 240.897 L61.9475 239.913 Z" fill="#000000" fill-rule="evenodd" fill-opacity="1" /><path clip-path="url(#clip020)" d="M 0 0 M70.8363 243.136 L72.746 243.136 L72.746 236.545 L70.6685 236.961 L70.6685 235.897 L72.7345 235.48 L73.9034 235.48 L73.9034 243.136 L75.8131 243.136 L75.8131 244.12 L70.8363 244.12 L70.8363 243.136 Z" fill="#000000" fill-rule="evenodd" fill-opacity="1" /><path clip-path="url(#clip020)" d="M 0 0 M102.969 236.25 Q102.066 236.25 101.609 237.141 Q101.157 238.026 101.157 239.809 Q101.157 241.585 101.609 242.476 Q102.066 243.362 102.969 243.362 Q103.877 243.362 104.328 242.476 Q104.786 241.585 104.786 239.809 Q104.786 238.026 104.328 237.141 Q103.877 236.25 102.969 236.25 M102.969 235.324 Q104.421 235.324 105.185 236.475 Q105.955 237.621 105.955 239.809 Q105.955 241.99 105.185 243.142 Q104.421 244.288 102.969 244.288 Q101.516 244.288 100.746 243.142 Q99.9824 241.99 99.9824 239.809 Q99.9824 237.621 100.746 236.475 Q101.516 235.324 102.969 235.324 Z" fill="#000000" fill-rule="evenodd" fill-opacity="1" /><path clip-path="url(#clip020)" d="M 0 0 M134.652 243.136 L136.562 243.136 L136.562 236.545 L134.484 236.961 L134.484 235.897 L136.55 235.48 L137.719 235.48 L137.719 243.136 L139.629 243.136 L139.629 244.12 L134.652 244.12 L134.652 243.136 Z" fill="#000000" fill-rule="evenodd" fill-opacity="1" /><path clip-path="url(#clip020)" d="M 0 0 M169.808 243.136 L173.888 243.136 L173.888 244.12 L168.402 244.12 L168.402 243.136 Q169.067 242.448 170.213 241.29 Q171.365 240.127 171.66 239.791 Q172.221 239.161 172.441 238.726 Q172.667 238.287 172.667 237.864 Q172.667 237.176 172.181 236.742 Q171.7 236.308 170.925 236.308 Q170.375 236.308 169.762 236.498 Q169.154 236.689 168.46 237.077 L168.46 235.897 Q169.166 235.613 169.779 235.468 Q170.393 235.324 170.902 235.324 Q172.244 235.324 173.043 235.995 Q173.842 236.666 173.842 237.789 Q173.842 238.321 173.639 238.802 Q173.442 239.276 172.916 239.924 Q172.771 240.092 171.996 240.897 Q171.22 241.695 169.808 243.136 Z" fill="#000000" fill-rule="evenodd" fill-opacity="1" /><polyline clip-path="url(#clip020)" style="stroke:#000000; stroke-width:1; stroke-opacity:1; fill:none" points="
  17.748,231.752 17.748,15.748 
  "/>
<polyline clip-path="url(#clip020)" style="stroke:#000000; stroke-width:1; stroke-opacity:1; fill:none" points="
  17.748,210.152 19.7933,210.152 
  "/>
<polyline clip-path="url(#clip020)" style="stroke:#000000; stroke-width:1; stroke-opacity:1; fill:none" points="
  17.748,166.951 19.7933,166.951 
  "/>
<polyline clip-path="url(#clip020)" style="stroke:#000000; stroke-width:1; stroke-opacity:1; fill:none" points="
  17.748,123.75 19.7933,123.75 
  "/>
<polyline clip-path="url(#clip020)" style="stroke:#000000; stroke-width:1; stroke-opacity:1; fill:none" points="
  17.748,80.5492 19.7933,80.5492 
  "/>
<polyline clip-path="url(#clip020)" style="stroke:#000000; stroke-width:1; stroke-opacity:1; fill:none" points="
  17.748,37.3484 19.7933,37.3484 
  "/>
<path clip-path="url(#clip020)" d="M 0 0 M0.224957 210.264 L7.6439 210.264 L7.6439 211.248 L0.224957 211.248 L0.224957 210.264 Z" fill="#000000" fill-rule="evenodd" fill-opacity="1" /><path clip-path="url(#clip020)" d="M 0 0 M9.91819 213.488 L13.998 213.488 L13.998 214.472 L8.51195 214.472 L8.51195 213.488 Q9.17746 212.799 10.3233 211.642 Q11.4749 210.479 11.77 210.143 Q12.3314 209.512 12.5513 209.078 Q12.777 208.638 12.777 208.216 Q12.777 207.527 12.2909 207.093 Q11.8105 206.659 11.0351 206.659 Q10.4853 206.659 9.8719 206.85 Q9.26426 207.041 8.56982 207.429 L8.56982 206.248 Q9.27583 205.965 9.88926 205.82 Q10.5027 205.675 11.0119 205.675 Q12.3545 205.675 13.1531 206.347 Q13.9517 207.018 13.9517 208.141 Q13.9517 208.673 13.7492 209.153 Q13.5524 209.628 13.0258 210.276 Q12.8811 210.444 12.1057 211.248 Q11.3302 212.047 9.91819 213.488 Z" fill="#000000" fill-rule="evenodd" fill-opacity="1" /><path clip-path="url(#clip020)" d="M 0 0 M0.132365 167.064 L7.55131 167.064 L7.55131 168.047 L0.132365 168.047 L0.132365 167.064 Z" fill="#000000" fill-rule="evenodd" fill-opacity="1" /><path clip-path="url(#clip020)" d="M 0 0 M9.02121 170.287 L10.9309 170.287 L10.9309 163.696 L8.85338 164.112 L8.85338 163.047 L10.9193 162.631 L12.0883 162.631 L12.0883 170.287 L13.998 170.287 L13.998 171.271 L9.02121 171.271 L9.02121 170.287 Z" fill="#000000" fill-rule="evenodd" fill-opacity="1" /><path clip-path="url(#clip020)" d="M 0 0 M11.0119 120.2 Q10.1092 120.2 9.65199 121.091 Q9.2006 121.976 9.2006 123.759 Q9.2006 125.535 9.65199 126.426 Q10.1092 127.312 11.0119 127.312 Q11.9205 127.312 12.3719 126.426 Q12.8291 125.535 12.8291 123.759 Q12.8291 121.976 12.3719 121.091 Q11.9205 120.2 11.0119 120.2 M11.0119 119.274 Q12.4645 119.274 13.2284 120.425 Q13.998 121.571 13.998 123.759 Q13.998 125.94 13.2284 127.092 Q12.4645 128.238 11.0119 128.238 Q9.5594 128.238 8.78973 127.092 Q8.02584 125.94 8.02584 123.759 Q8.02584 121.571 8.78973 120.425 Q9.5594 119.274 11.0119 119.274 Z" fill="#000000" fill-rule="evenodd" fill-opacity="1" /><path clip-path="url(#clip020)" d="M 0 0 M9.02121 83.8854 L10.9309 83.8854 L10.9309 77.294 L8.85338 77.7107 L8.85338 76.6459 L10.9193 76.2292 L12.0883 76.2292 L12.0883 83.8854 L13.998 83.8854 L13.998 84.8692 L9.02121 84.8692 L9.02121 83.8854 Z" fill="#000000" fill-rule="evenodd" fill-opacity="1" /><path clip-path="url(#clip020)" d="M 0 0 M9.91819 40.6846 L13.998 40.6846 L13.998 41.6684 L8.51195 41.6684 L8.51195 40.6846 Q9.17746 39.996 10.3233 38.8386 Q11.4749 37.6754 11.77 37.3397 Q12.3314 36.709 12.5513 36.2749 Q12.777 35.8351 12.777 35.4127 Q12.777 34.724 12.2909 34.29 Q11.8105 33.856 11.0351 33.856 Q10.4853 33.856 9.8719 34.0469 Q9.26426 34.2379 8.56982 34.6256 L8.56982 33.4451 Q9.27583 33.1615 9.88926 33.0169 Q10.5027 32.8722 11.0119 32.8722 Q12.3545 32.8722 13.1531 33.5435 Q13.9517 34.2148 13.9517 35.3374 Q13.9517 35.8698 13.7492 36.3502 Q13.5524 36.8247 13.0258 37.4728 Q12.8811 37.6407 12.1057 38.4451 Q11.3302 39.2437 9.91819 40.6846 Z" fill="#000000" fill-rule="evenodd" fill-opacity="1" /><path clip-path="url(#clip020)" d="M 0 0 M88.1162 9.38421 L92.196 9.38421 L92.196 10.368 L86.7099 10.368 L86.7099 9.38421 Q87.3754 8.69556 88.5212 7.53815 Q89.6729 6.37497 89.968 6.03932 Q90.5293 5.40854 90.7492 4.97451 Q90.9749 4.5347 90.9749 4.11225 Q90.9749 3.42359 90.4888 2.98957 Q90.0085 2.55554 89.233 2.55554 Q88.6833 2.55554 88.0699 2.74651 Q87.4622 2.93748 86.7678 3.32521 L86.7678 2.14466 Q87.4738 1.8611 88.0872 1.71643 Q88.7006 1.57175 89.2099 1.57175 Q90.5525 1.57175 91.3511 2.24304 Q92.1497 2.91434 92.1497 4.03702 Q92.1497 4.56942 91.9472 5.04974 Q91.7504 5.52428 91.2238 6.17242 Q91.0791 6.34024 90.3036 7.14464 Q89.5282 7.94324 88.1162 9.38421 Z" fill="#000000" fill-rule="evenodd" fill-opacity="1" /><path clip-path="url(#clip020)" d="M 0 0 M93.2145 1.36342 L95.6682 1.36342 L95.6682 2.19096 L94.2793 2.19096 L94.2793 11.1029 L95.6682 11.1029 L95.6682 11.9305 L93.2145 11.9305 L93.2145 1.36342 Z" fill="#000000" fill-rule="evenodd" fill-opacity="1" /><path clip-path="url(#clip020)" d="M 0 0 M99.4355 2.49767 Q98.5328 2.49767 98.0756 3.38887 Q97.6242 4.27428 97.6242 6.05668 Q97.6242 7.83329 98.0756 8.72449 Q98.5328 9.6099 99.4355 9.6099 Q100.344 9.6099 100.795 8.72449 Q101.253 7.83329 101.253 6.05668 Q101.253 4.27428 100.795 3.38887 Q100.344 2.49767 99.4355 2.49767 M99.4355 1.57175 Q100.888 1.57175 101.652 2.72337 Q102.422 3.86919 102.422 6.05668 Q102.422 8.23838 101.652 9.39 Q100.888 10.5358 99.4355 10.5358 Q97.983 10.5358 97.2133 9.39 Q96.4494 8.23838 96.4494 6.05668 Q96.4494 3.86919 97.2133 2.72337 Q97.983 1.57175 99.4355 1.57175 Z" fill="#000000" fill-rule="evenodd" fill-opacity="1" /><path clip-path="url(#clip020)" d="M 0 0 M106.189 2.49767 Q105.286 2.49767 104.829 3.38887 Q104.378 4.27428 104.378 6.05668 Q104.378 7.83329 104.829 8.72449 Q105.286 9.6099 106.189 9.6099 Q107.098 9.6099 107.549 8.72449 Q108.006 7.83329 108.006 6.05668 Q108.006 4.27428 107.549 3.38887 Q107.098 2.49767 106.189 2.49767 M106.189 1.57175 Q107.642 1.57175 108.405 2.72337 Q109.175 3.86919 109.175 6.05668 Q109.175 8.23838 108.405 9.39 Q107.642 10.5358 106.189 10.5358 Q104.736 10.5358 103.967 9.39 Q103.203 8.23838 103.203 6.05668 Q103.203 3.86919 103.967 2.72337 Q104.736 1.57175 106.189 1.57175 Z" fill="#000000" fill-rule="evenodd" fill-opacity="1" /><path clip-path="url(#clip020)" d="M 0 0 M110.645 9.38421 L112.555 9.38421 L112.555 2.79281 L110.477 3.20947 L110.477 2.14466 L112.543 1.728 L113.712 1.728 L113.712 9.38421 L115.622 9.38421 L115.622 10.368 L110.645 10.368 L110.645 9.38421 Z" fill="#000000" fill-rule="evenodd" fill-opacity="1" /><path clip-path="url(#clip020)" d="M 0 0 M119.227 1.36342 L119.227 11.9305 L116.773 11.9305 L116.773 11.1029 L118.157 11.1029 L118.157 2.19096 L116.773 2.19096 L116.773 1.36342 L119.227 1.36342 Z" fill="#000000" fill-rule="evenodd" fill-opacity="1" /><circle clip-path="url(#clip022)" cx="34.7921" cy="223.518" r="3" fill="#0000ff" fill-rule="evenodd" fill-opacity="1" stroke="none"/>
<path clip-path="url(#clip020)" d="M 0 0 M35.8468 220.836 L38.9067 220.836 L38.9067 221.574 L34.7921 221.574 L34.7921 220.836 Q35.2913 220.32 36.1506 219.452 Q37.0143 218.579 37.2357 218.327 Q37.6567 217.854 37.8216 217.529 Q37.9909 217.199 37.9909 216.882 Q37.9909 216.366 37.6263 216.04 Q37.2661 215.715 36.6845 215.715 Q36.2722 215.715 35.8121 215.858 Q35.3564 216.001 34.8355 216.292 L34.8355 215.406 Q35.365 215.194 35.8251 215.085 Q36.2852 214.977 36.6671 214.977 Q37.6741 214.977 38.273 215.48 Q38.872 215.984 38.872 216.826 Q38.872 217.225 38.7201 217.585 Q38.5725 217.941 38.1775 218.427 Q38.069 218.553 37.4874 219.156 Q36.9058 219.755 35.8468 220.836 Z" fill="#000000" fill-rule="evenodd" fill-opacity="1" /><path clip-path="url(#clip020)" d="M 0 0 M41.7322 215.671 Q41.0551 215.671 40.7122 216.34 Q40.3737 217.004 40.3737 218.34 Q40.3737 219.673 40.7122 220.341 Q41.0551 221.005 41.7322 221.005 Q42.4136 221.005 42.7522 220.341 Q43.095 219.673 43.095 218.34 Q43.095 217.004 42.7522 216.34 Q42.4136 215.671 41.7322 215.671 M41.7322 214.977 Q42.8216 214.977 43.3945 215.84 Q43.9718 216.7 43.9718 218.34 Q43.9718 219.977 43.3945 220.84 Q42.8216 221.7 41.7322 221.7 Q40.6428 221.7 40.0655 220.84 Q39.4926 219.977 39.4926 218.34 Q39.4926 216.7 40.0655 215.84 Q40.6428 214.977 41.7322 214.977 Z" fill="#000000" fill-rule="evenodd" fill-opacity="1" /><circle clip-path="url(#clip022)" cx="85.9244" cy="136.221" r="3" fill="#0000ff" fill-rule="evenodd" fill-opacity="1" stroke="none"/>
<circle clip-path="url(#clip022)" cx="85.9244" cy="111.279" r="3" fill="#0000ff" fill-rule="evenodd" fill-opacity="1" stroke="none"/>
<circle clip-path="url(#clip022)" cx="51.8362" cy="136.221" r="3" fill="#0000ff" fill-rule="evenodd" fill-opacity="1" stroke="none"/>
<circle clip-path="url(#clip022)" cx="51.8362" cy="111.279" r="3" fill="#0000ff" fill-rule="evenodd" fill-opacity="1" stroke="none"/>
<circle clip-path="url(#clip022)" cx="17.748" cy="136.221" r="3" fill="#0000ff" fill-rule="evenodd" fill-opacity="1" stroke="none"/>
<circle clip-path="url(#clip022)" cx="17.748" cy="111.279" r="3" fill="#0000ff" fill-rule="evenodd" fill-opacity="1" stroke="none"/>
<circle clip-path="url(#clip022)" cx="85.9244" cy="211.047" r="3" fill="#0000ff" fill-rule="evenodd" fill-opacity="1" stroke="none"/>
<circle clip-path="url(#clip022)" cx="85.9244" cy="186.105" r="3" fill="#0000ff" fill-rule="evenodd" fill-opacity="1" stroke="none"/>
<circle clip-path="url(#clip022)" cx="51.8362" cy="211.047" r="3" fill="#0000ff" fill-rule="evenodd" fill-opacity="1" stroke="none"/>
<circle clip-path="url(#clip022)" cx="51.8362" cy="186.105" r="3" fill="#0000ff" fill-rule="evenodd" fill-opacity="1" stroke="none"/>
<circle clip-path="url(#clip022)" cx="17.748" cy="211.047" r="3" fill="#0000ff" fill-rule="evenodd" fill-opacity="1" stroke="none"/>
<circle clip-path="url(#clip022)" cx="17.748" cy="186.105" r="3" fill="#0000ff" fill-rule="evenodd" fill-opacity="1" stroke="none"/>
<circle clip-path="url(#clip022)" cx="34.7921" cy="173.634" r="3" fill="#0000ff" fill-rule="evenodd" fill-opacity="1" stroke="none"/>
<circle clip-path="url(#clip022)" cx="34.7921" cy="148.692" r="3" fill="#0000ff" fill-rule="evenodd" fill-opacity="1" stroke="none"/>
<circle clip-path="url(#clip022)" cx="102.969" cy="223.518" r="3" fill="#0000ff" fill-rule="evenodd" fill-opacity="1" stroke="none"/>
<circle clip-path="url(#clip022)" cx="68.8803" cy="223.518" r="3" fill="#0000ff" fill-rule="evenodd" fill-opacity="1" stroke="none"/>
<circle clip-path="url(#clip022)" cx="34.7921" cy="98.808" r="3" fill="#0000ff" fill-rule="evenodd" fill-opacity="1" stroke="none"/>
<circle clip-path="url(#clip022)" cx="34.7921" cy="73.866" r="3" fill="#0000ff" fill-rule="evenodd" fill-opacity="1" stroke="none"/>
<circle clip-path="url(#clip022)" cx="102.969" cy="173.634" r="3" fill="#0000ff" fill-rule="evenodd" fill-opacity="1" stroke="none"/>
<circle clip-path="url(#clip022)" cx="102.969" cy="148.692" r="3" fill="#0000ff" fill-rule="evenodd" fill-opacity="1" stroke="none"/>
<circle clip-path="url(#clip022)" cx="68.8803" cy="173.634" r="3" fill="#0000ff" fill-rule="evenodd" fill-opacity="1" stroke="none"/>
<circle clip-path="url(#clip022)" cx="68.8803" cy="148.692" r="3" fill="#0000ff" fill-rule="evenodd" fill-opacity="1" stroke="none"/>
<path clip-path="url(#clip020)" d="M 0 0 M86.0503 133.539 L87.4826 133.539 L87.4826 128.596 L85.9244 128.908 L85.9244 128.109 L87.4739 127.797 L88.3506 127.797 L88.3506 133.539 L89.7829 133.539 L89.7829 134.277 L86.0503 134.277 L86.0503 133.539 Z" fill="#000000" fill-rule="evenodd" fill-opacity="1" /><path clip-path="url(#clip020)" d="M 0 0 M86.9791 108.597 L90.039 108.597 L90.039 109.335 L85.9244 109.335 L85.9244 108.597 Q86.4235 108.081 87.2829 107.213 Q88.1466 106.34 88.368 106.088 Q88.789 105.615 88.9539 105.29 Q89.1232 104.96 89.1232 104.643 Q89.1232 104.127 88.7586 103.801 Q88.3984 103.476 87.8168 103.476 Q87.4044 103.476 86.9444 103.619 Q86.4886 103.762 85.9678 104.053 L85.9678 103.168 Q86.4973 102.955 86.9574 102.846 Q87.4175 102.738 87.7994 102.738 Q88.8063 102.738 89.4053 103.241 Q90.0042 103.745 90.0042 104.587 Q90.0042 104.986 89.8523 105.346 Q89.7048 105.702 89.3098 106.188 Q89.2013 106.314 88.6197 106.917 Q88.0381 107.516 86.9791 108.597 Z" fill="#000000" fill-rule="evenodd" fill-opacity="1" /><path clip-path="url(#clip020)" d="M 0 0 M54.7659 130.783 Q55.3952 130.918 55.7468 131.343 Q56.1027 131.768 56.1027 132.393 Q56.1027 133.353 55.443 133.878 Q54.7833 134.403 53.568 134.403 Q53.16 134.403 52.726 134.32 Q52.2963 134.242 51.8362 134.082 L51.8362 133.235 Q52.2008 133.448 52.6348 133.557 Q53.0689 133.665 53.5419 133.665 Q54.3666 133.665 54.7963 133.339 Q55.2303 133.014 55.2303 132.393 Q55.2303 131.82 54.8267 131.499 Q54.4274 131.174 53.7112 131.174 L52.956 131.174 L52.956 130.453 L53.7459 130.453 Q54.3926 130.453 54.7355 130.197 Q55.0784 129.937 55.0784 129.451 Q55.0784 128.952 54.7225 128.687 Q54.3709 128.418 53.7112 128.418 Q53.351 128.418 52.9386 128.496 Q52.5263 128.574 52.0315 128.739 L52.0315 127.958 Q52.5307 127.819 52.9647 127.749 Q53.4031 127.68 53.7893 127.68 Q54.7876 127.68 55.3692 128.136 Q55.9508 128.587 55.9508 129.359 Q55.9508 129.898 55.6426 130.271 Q55.3345 130.64 54.7659 130.783 Z" fill="#000000" fill-rule="evenodd" fill-opacity="1" /><path clip-path="url(#clip020)" d="M 0 0 M54.7616 103.619 L52.548 107.078 L54.7616 107.078 L54.7616 103.619 M54.5315 102.855 L55.6339 102.855 L55.6339 107.078 L56.5584 107.078 L56.5584 107.807 L55.6339 107.807 L55.6339 109.335 L54.7616 109.335 L54.7616 107.807 L51.8362 107.807 L51.8362 106.961 L54.5315 102.855 Z" fill="#000000" fill-rule="evenodd" fill-opacity="1" /><path clip-path="url(#clip020)" d="M 0 0 M18.0215 127.797 L21.4633 127.797 L21.4633 128.535 L18.8244 128.535 L18.8244 130.123 Q19.0154 130.058 19.2064 130.028 Q19.3973 129.993 19.5883 129.993 Q20.6734 129.993 21.307 130.588 Q21.9407 131.182 21.9407 132.198 Q21.9407 133.244 21.2897 133.826 Q20.6386 134.403 19.4538 134.403 Q19.0458 134.403 18.6204 134.333 Q18.1994 134.264 17.748 134.125 L17.748 133.244 Q18.1387 133.457 18.5553 133.561 Q18.972 133.665 19.4364 133.665 Q20.1873 133.665 20.6256 133.27 Q21.064 132.875 21.064 132.198 Q21.064 131.521 20.6256 131.126 Q20.1873 130.731 19.4364 130.731 Q19.0848 130.731 18.7333 130.809 Q18.386 130.887 18.0215 131.052 L18.0215 127.797 Z" fill="#000000" fill-rule="evenodd" fill-opacity="1" /><path clip-path="url(#clip020)" d="M 0 0 M20.0614 105.746 Q19.4711 105.746 19.1239 106.149 Q18.781 106.553 18.781 107.256 Q18.781 107.955 19.1239 108.363 Q19.4711 108.766 20.0614 108.766 Q20.6517 108.766 20.9945 108.363 Q21.3418 107.955 21.3418 107.256 Q21.3418 106.553 20.9945 106.149 Q20.6517 105.746 20.0614 105.746 M21.8018 102.998 L21.8018 103.797 Q21.472 103.641 21.1334 103.558 Q20.7992 103.476 20.4694 103.476 Q19.6013 103.476 19.1413 104.062 Q18.6855 104.648 18.6204 105.832 Q18.8765 105.455 19.2628 105.255 Q19.6491 105.051 20.1135 105.051 Q21.09 105.051 21.6543 105.646 Q22.2228 106.236 22.2228 107.256 Q22.2228 108.254 21.6326 108.858 Q21.0423 109.461 20.0614 109.461 Q18.9373 109.461 18.3426 108.602 Q17.748 107.738 17.748 106.102 Q17.748 104.565 18.4772 103.654 Q19.2064 102.738 20.4346 102.738 Q20.7645 102.738 21.0987 102.803 Q21.4372 102.868 21.8018 102.998 Z" fill="#000000" fill-rule="evenodd" fill-opacity="1" /><path clip-path="url(#clip020)" d="M 0 0 M85.9244 202.623 L90.0911 202.623 L90.0911 202.996 L87.7386 209.103 L86.8228 209.103 L89.0364 203.361 L85.9244 203.361 L85.9244 202.623 Z" fill="#000000" fill-rule="evenodd" fill-opacity="1" /><path clip-path="url(#clip020)" d="M 0 0 M88.1466 181.084 Q87.5216 181.084 87.1614 181.418 Q86.8055 181.752 86.8055 182.338 Q86.8055 182.924 87.1614 183.258 Q87.5216 183.592 88.1466 183.592 Q88.7716 183.592 89.1319 183.258 Q89.4921 182.92 89.4921 182.338 Q89.4921 181.752 89.1319 181.418 Q88.776 181.084 88.1466 181.084 M87.2699 180.71 Q86.7057 180.572 86.3888 180.185 Q86.0763 179.799 86.0763 179.243 Q86.0763 178.467 86.6275 178.015 Q87.1831 177.564 88.1466 177.564 Q89.1145 177.564 89.6657 178.015 Q90.2169 178.467 90.2169 179.243 Q90.2169 179.799 89.9001 180.185 Q89.5876 180.572 89.0277 180.71 Q89.6614 180.858 90.0129 181.288 Q90.3688 181.717 90.3688 182.338 Q90.3688 183.28 89.7916 183.783 Q89.2187 184.287 88.1466 184.287 Q87.0746 184.287 86.4973 183.783 Q85.9244 183.28 85.9244 182.338 Q85.9244 181.717 86.2803 181.288 Q86.6362 180.858 87.2699 180.71 M86.9487 179.326 Q86.9487 179.829 87.2612 180.112 Q87.578 180.394 88.1466 180.394 Q88.7109 180.394 89.0277 180.112 Q89.3489 179.829 89.3489 179.326 Q89.3489 178.822 89.0277 178.54 Q88.7109 178.258 88.1466 178.258 Q87.578 178.258 87.2612 178.54 Q86.9487 178.822 86.9487 179.326 Z" fill="#000000" fill-rule="evenodd" fill-opacity="1" /><path clip-path="url(#clip020)" d="M 0 0 M52.2529 208.968 L52.2529 208.17 Q52.5827 208.326 52.9213 208.409 Q53.2598 208.491 53.5853 208.491 Q54.4534 208.491 54.9091 207.909 Q55.3692 207.323 55.4343 206.134 Q55.1826 206.507 54.7963 206.707 Q54.41 206.907 53.9412 206.907 Q52.969 206.907 52.4005 206.321 Q51.8362 205.731 51.8362 204.711 Q51.8362 203.712 52.4265 203.109 Q53.0168 202.506 53.9977 202.506 Q55.1218 202.506 55.7121 203.369 Q56.3067 204.229 56.3067 205.869 Q56.3067 207.402 55.5775 208.317 Q54.8527 209.229 53.6244 209.229 Q53.2945 209.229 52.956 209.164 Q52.6175 209.099 52.2529 208.968 M53.9977 206.221 Q54.5879 206.221 54.9308 205.817 Q55.278 205.414 55.278 204.711 Q55.278 204.012 54.9308 203.608 Q54.5879 203.2 53.9977 203.2 Q53.4074 203.2 53.0602 203.608 Q52.7173 204.012 52.7173 204.711 Q52.7173 205.414 53.0602 205.817 Q53.4074 206.221 53.9977 206.221 Z" fill="#000000" fill-rule="evenodd" fill-opacity="1" /><path clip-path="url(#clip020)" d="M 0 0 M51.9621 183.423 L53.3944 183.423 L53.3944 178.48 L51.8362 178.792 L51.8362 177.993 L53.3857 177.681 L54.2624 177.681 L54.2624 183.423 L55.6947 183.423 L55.6947 184.161 L51.9621 184.161 L51.9621 183.423 Z" fill="#000000" fill-rule="evenodd" fill-opacity="1" /><path clip-path="url(#clip020)" d="M 0 0 M58.5202 178.258 Q57.8431 178.258 57.5003 178.927 Q57.1617 179.591 57.1617 180.927 Q57.1617 182.26 57.5003 182.928 Q57.8431 183.592 58.5202 183.592 Q59.2016 183.592 59.5402 182.928 Q59.8831 182.26 59.8831 180.927 Q59.8831 179.591 59.5402 178.927 Q59.2016 178.258 58.5202 178.258 M58.5202 177.564 Q59.6096 177.564 60.1825 178.427 Q60.7598 179.287 60.7598 180.927 Q60.7598 182.564 60.1825 183.427 Q59.6096 184.287 58.5202 184.287 Q57.4308 184.287 56.8536 183.427 Q56.2806 182.564 56.2806 180.927 Q56.2806 179.287 56.8536 178.427 Q57.4308 177.564 58.5202 177.564 Z" fill="#000000" fill-rule="evenodd" fill-opacity="1" /><path clip-path="url(#clip020)" d="M 0 0 M17.8739 208.365 L19.3062 208.365 L19.3062 203.422 L17.748 203.734 L17.748 202.935 L19.2975 202.623 L20.1742 202.623 L20.1742 208.365 L21.6065 208.365 L21.6065 209.103 L17.8739 209.103 L17.8739 208.365 Z" fill="#000000" fill-rule="evenodd" fill-opacity="1" /><path clip-path="url(#clip020)" d="M 0 0 M22.7089 208.365 L24.1412 208.365 L24.1412 203.422 L22.5831 203.734 L22.5831 202.935 L24.1325 202.623 L25.0093 202.623 L25.0093 208.365 L26.4416 208.365 L26.4416 209.103 L22.7089 209.103 L22.7089 208.365 Z" fill="#000000" fill-rule="evenodd" fill-opacity="1" /><path clip-path="url(#clip020)" d="M 0 0 M17.8739 183.423 L19.3062 183.423 L19.3062 178.48 L17.748 178.792 L17.748 177.993 L19.2975 177.681 L20.1742 177.681 L20.1742 183.423 L21.6065 183.423 L21.6065 184.161 L17.8739 184.161 L17.8739 183.423 Z" fill="#000000" fill-rule="evenodd" fill-opacity="1" /><path clip-path="url(#clip020)" d="M 0 0 M23.3122 183.423 L26.3721 183.423 L26.3721 184.161 L22.2576 184.161 L22.2576 183.423 Q22.7567 182.907 23.6161 182.039 Q24.4798 181.166 24.7011 180.914 Q25.1221 180.441 25.2871 180.116 Q25.4563 179.786 25.4563 179.469 Q25.4563 178.953 25.0917 178.627 Q24.7315 178.302 24.1499 178.302 Q23.7376 178.302 23.2775 178.445 Q22.8218 178.588 22.301 178.879 L22.301 177.993 Q22.8305 177.781 23.2905 177.672 Q23.7506 177.564 24.1325 177.564 Q25.1395 177.564 25.7384 178.067 Q26.3374 178.571 26.3374 179.413 Q26.3374 179.812 26.1855 180.172 Q26.0379 180.528 25.643 181.014 Q25.5344 181.14 24.9529 181.743 Q24.3713 182.342 23.3122 183.423 Z" fill="#000000" fill-rule="evenodd" fill-opacity="1" /><path clip-path="url(#clip020)" d="M 0 0 M34.918 170.952 L36.3503 170.952 L36.3503 166.009 L34.7921 166.321 L34.7921 165.522 L36.3416 165.21 L37.2183 165.21 L37.2183 170.952 L38.6506 170.952 L38.6506 171.69 L34.918 171.69 L34.918 170.952 Z" fill="#000000" fill-rule="evenodd" fill-opacity="1" /><path clip-path="url(#clip020)" d="M 0 0 M42.2574 168.196 Q42.8867 168.331 43.2383 168.756 Q43.5942 169.181 43.5942 169.806 Q43.5942 170.765 42.9344 171.291 Q42.2747 171.816 41.0595 171.816 Q40.6515 171.816 40.2174 171.733 Q39.7878 171.655 39.3277 171.495 L39.3277 170.648 Q39.6923 170.861 40.1263 170.969 Q40.5603 171.078 41.0334 171.078 Q41.8581 171.078 42.2877 170.752 Q42.7218 170.427 42.7218 169.806 Q42.7218 169.233 42.3181 168.912 Q41.9188 168.587 41.2027 168.587 L40.4475 168.587 L40.4475 167.866 L41.2374 167.866 Q41.8841 167.866 42.227 167.61 Q42.5699 167.35 42.5699 166.864 Q42.5699 166.364 42.214 166.1 Q41.8624 165.831 41.2027 165.831 Q40.8424 165.831 40.4301 165.909 Q40.0178 165.987 39.523 166.152 L39.523 165.371 Q40.0221 165.232 40.4562 165.162 Q40.8945 165.093 41.2808 165.093 Q42.2791 165.093 42.8607 165.549 Q43.4423 166 43.4423 166.772 Q43.4423 167.311 43.1341 167.684 Q42.8259 168.053 42.2574 168.196 Z" fill="#000000" fill-rule="evenodd" fill-opacity="1" /><path clip-path="url(#clip020)" d="M 0 0 M34.918 146.01 L36.3503 146.01 L36.3503 141.067 L34.7921 141.379 L34.7921 140.58 L36.3416 140.268 L37.2183 140.268 L37.2183 146.01 L38.6506 146.01 L38.6506 146.748 L34.918 146.748 L34.918 146.01 Z" fill="#000000" fill-rule="evenodd" fill-opacity="1" /><path clip-path="url(#clip020)" d="M 0 0 M42.01 141.032 L39.7964 144.491 L42.01 144.491 L42.01 141.032 M41.7799 140.268 L42.8824 140.268 L42.8824 144.491 L43.8068 144.491 L43.8068 145.22 L42.8824 145.22 L42.8824 146.748 L42.01 146.748 L42.01 145.22 L39.0846 145.22 L39.0846 144.374 L41.7799 140.268 Z" fill="#000000" fill-rule="evenodd" fill-opacity="1" /><path clip-path="url(#clip020)" d="M 0 0 M103.094 220.836 L104.527 220.836 L104.527 215.893 L102.969 216.205 L102.969 215.406 L104.518 215.094 L105.395 215.094 L105.395 220.836 L106.827 220.836 L106.827 221.574 L103.094 221.574 L103.094 220.836 Z" fill="#000000" fill-rule="evenodd" fill-opacity="1" /><path clip-path="url(#clip020)" d="M 0 0 M109.761 217.985 Q109.171 217.985 108.824 218.388 Q108.481 218.792 108.481 219.495 Q108.481 220.194 108.824 220.602 Q109.171 221.005 109.761 221.005 Q110.351 221.005 110.694 220.602 Q111.041 220.194 111.041 219.495 Q111.041 218.792 110.694 218.388 Q110.351 217.985 109.761 217.985 M111.501 215.237 L111.501 216.036 Q111.172 215.88 110.833 215.797 Q110.499 215.715 110.169 215.715 Q109.301 215.715 108.841 216.301 Q108.385 216.886 108.32 218.071 Q108.576 217.694 108.962 217.494 Q109.349 217.29 109.813 217.29 Q110.79 217.29 111.354 217.885 Q111.922 218.475 111.922 219.495 Q111.922 220.493 111.332 221.097 Q110.742 221.7 109.761 221.7 Q108.637 221.7 108.042 220.84 Q107.448 219.977 107.448 218.34 Q107.448 216.804 108.177 215.893 Q108.906 214.977 110.134 214.977 Q110.464 214.977 110.798 215.042 Q111.137 215.107 111.501 215.237 Z" fill="#000000" fill-rule="evenodd" fill-opacity="1" /><path clip-path="url(#clip020)" d="M 0 0 M69.0062 220.836 L70.4385 220.836 L70.4385 215.893 L68.8803 216.205 L68.8803 215.406 L70.4298 215.094 L71.3065 215.094 L71.3065 220.836 L72.7388 220.836 L72.7388 221.574 L69.0062 221.574 L69.0062 220.836 Z" fill="#000000" fill-rule="evenodd" fill-opacity="1" /><path clip-path="url(#clip020)" d="M 0 0 M75.5643 218.497 Q74.9393 218.497 74.5791 218.831 Q74.2232 219.165 74.2232 219.751 Q74.2232 220.337 74.5791 220.671 Q74.9393 221.005 75.5643 221.005 Q76.1893 221.005 76.5495 220.671 Q76.9098 220.333 76.9098 219.751 Q76.9098 219.165 76.5495 218.831 Q76.1936 218.497 75.5643 218.497 M74.6876 218.123 Q74.1233 217.985 73.8065 217.598 Q73.494 217.212 73.494 216.656 Q73.494 215.88 74.0452 215.428 Q74.6008 214.977 75.5643 214.977 Q76.5322 214.977 77.0834 215.428 Q77.6346 215.88 77.6346 216.656 Q77.6346 217.212 77.3178 217.598 Q77.0053 217.985 76.4454 218.123 Q77.0791 218.271 77.4306 218.701 Q77.7865 219.13 77.7865 219.751 Q77.7865 220.693 77.2093 221.196 Q76.6363 221.7 75.5643 221.7 Q74.4923 221.7 73.915 221.196 Q73.3421 220.693 73.3421 219.751 Q73.3421 219.13 73.698 218.701 Q74.0539 218.271 74.6876 218.123 M74.3664 216.739 Q74.3664 217.242 74.6789 217.524 Q74.9957 217.807 75.5643 217.807 Q76.1285 217.807 76.4454 217.524 Q76.7666 217.242 76.7666 216.739 Q76.7666 216.235 76.4454 215.953 Q76.1285 215.671 75.5643 215.671 Q74.9957 215.671 74.6789 215.953 Q74.3664 216.235 74.3664 216.739 Z" fill="#000000" fill-rule="evenodd" fill-opacity="1" /><path clip-path="url(#clip020)" d="M 0 0 M34.918 96.1262 L36.3503 96.1262 L36.3503 91.1826 L34.7921 91.4951 L34.7921 90.6965 L36.3416 90.384 L37.2183 90.384 L37.2183 96.1262 L38.6506 96.1262 L38.6506 96.864 L34.918 96.864 L34.918 96.1262 Z" fill="#000000" fill-rule="evenodd" fill-opacity="1" /><path clip-path="url(#clip020)" d="M 0 0 M39.6272 96.7295 L39.6272 95.9309 Q39.957 96.0871 40.2956 96.1696 Q40.6341 96.252 40.9596 96.252 Q41.8277 96.252 42.2834 95.6704 Q42.7435 95.0845 42.8086 93.8953 Q42.5568 94.2685 42.1706 94.4682 Q41.7843 94.6678 41.3155 94.6678 Q40.3433 94.6678 39.7747 94.0819 Q39.2105 93.4916 39.2105 92.4717 Q39.2105 91.4734 39.8008 90.8701 Q40.3911 90.2668 41.372 90.2668 Q42.4961 90.2668 43.0864 91.1305 Q43.681 91.9899 43.681 93.6305 Q43.681 95.1626 42.9518 96.0784 Q42.227 96.9899 40.9987 96.9899 Q40.6688 96.9899 40.3303 96.9248 Q39.9918 96.8597 39.6272 96.7295 M41.372 93.9821 Q41.9622 93.9821 42.3051 93.5784 Q42.6523 93.1748 42.6523 92.4717 Q42.6523 91.7729 42.3051 91.3693 Q41.9622 90.9613 41.372 90.9613 Q40.7817 90.9613 40.4345 91.3693 Q40.0916 91.7729 40.0916 92.4717 Q40.0916 93.1748 40.4345 93.5784 Q40.7817 93.9821 41.372 93.9821 Z" fill="#000000" fill-rule="evenodd" fill-opacity="1" /><path clip-path="url(#clip020)" d="M 0 0 M35.8468 71.1842 L38.9067 71.1842 L38.9067 71.922 L34.7921 71.922 L34.7921 71.1842 Q35.2913 70.6677 36.1506 69.7996 Q37.0143 68.9273 37.2357 68.6755 Q37.6567 68.2024 37.8216 67.8769 Q37.9909 67.5471 37.9909 67.2302 Q37.9909 66.7137 37.6263 66.3882 Q37.2661 66.0627 36.6845 66.0627 Q36.2722 66.0627 35.8121 66.2059 Q35.3564 66.3491 34.8355 66.6399 L34.8355 65.7545 Q35.365 65.5419 35.8251 65.4333 Q36.2852 65.3248 36.6671 65.3248 Q37.6741 65.3248 38.273 65.8283 Q38.872 66.3318 38.872 67.1738 Q38.872 67.5731 38.7201 67.9333 Q38.5725 68.2892 38.1775 68.7753 Q38.069 68.9012 37.4874 69.5045 Q36.9058 70.1035 35.8468 71.1842 Z" fill="#000000" fill-rule="evenodd" fill-opacity="1" /><path clip-path="url(#clip020)" d="M 0 0 M41.7322 66.0193 Q41.0551 66.0193 40.7122 66.6877 Q40.3737 67.3517 40.3737 68.6885 Q40.3737 70.021 40.7122 70.6894 Q41.0551 71.3535 41.7322 71.3535 Q42.4136 71.3535 42.7522 70.6894 Q43.095 70.021 43.095 68.6885 Q43.095 67.3517 42.7522 66.6877 Q42.4136 66.0193 41.7322 66.0193 M41.7322 65.3248 Q42.8216 65.3248 43.3945 66.1886 Q43.9718 67.0479 43.9718 68.6885 Q43.9718 70.3248 43.3945 71.1885 Q42.8216 72.0479 41.7322 72.0479 Q40.6428 72.0479 40.0655 71.1885 Q39.4926 70.3248 39.4926 68.6885 Q39.4926 67.0479 40.0655 66.1886 Q40.6428 65.3248 41.7322 65.3248 Z" fill="#000000" fill-rule="evenodd" fill-opacity="1" /><path clip-path="url(#clip020)" d="M 0 0 M104.023 170.952 L107.083 170.952 L107.083 171.69 L102.969 171.69 L102.969 170.952 Q103.468 170.436 104.327 169.568 Q105.191 168.695 105.412 168.443 Q105.833 167.97 105.998 167.645 Q106.167 167.315 106.167 166.998 Q106.167 166.482 105.803 166.156 Q105.442 165.831 104.861 165.831 Q104.449 165.831 103.988 165.974 Q103.533 166.117 103.012 166.408 L103.012 165.522 Q103.541 165.31 104.001 165.201 Q104.462 165.093 104.843 165.093 Q105.85 165.093 106.449 165.596 Q107.048 166.1 107.048 166.942 Q107.048 167.341 106.896 167.701 Q106.749 168.057 106.354 168.543 Q106.245 168.669 105.664 169.272 Q105.082 169.871 104.023 170.952 Z" fill="#000000" fill-rule="evenodd" fill-opacity="1" /><path clip-path="url(#clip020)" d="M 0 0 M108.185 170.952 L109.618 170.952 L109.618 166.009 L108.06 166.321 L108.06 165.522 L109.609 165.21 L110.486 165.21 L110.486 170.952 L111.918 170.952 L111.918 171.69 L108.185 171.69 L108.185 170.952 Z" fill="#000000" fill-rule="evenodd" fill-opacity="1" /><path clip-path="url(#clip020)" d="M 0 0 M104.023 146.01 L107.083 146.01 L107.083 146.748 L102.969 146.748 L102.969 146.01 Q103.468 145.494 104.327 144.626 Q105.191 143.753 105.412 143.501 Q105.833 143.028 105.998 142.703 Q106.167 142.373 106.167 142.056 Q106.167 141.54 105.803 141.214 Q105.442 140.889 104.861 140.889 Q104.449 140.889 103.988 141.032 Q103.533 141.175 103.012 141.466 L103.012 140.58 Q103.541 140.368 104.001 140.259 Q104.462 140.151 104.843 140.151 Q105.85 140.151 106.449 140.654 Q107.048 141.158 107.048 142 Q107.048 142.399 106.896 142.759 Q106.749 143.115 106.354 143.601 Q106.245 143.727 105.664 144.33 Q105.082 144.929 104.023 146.01 Z" fill="#000000" fill-rule="evenodd" fill-opacity="1" /><path clip-path="url(#clip020)" d="M 0 0 M108.789 146.01 L111.849 146.01 L111.849 146.748 L107.734 146.748 L107.734 146.01 Q108.233 145.494 109.093 144.626 Q109.956 143.753 110.178 143.501 Q110.599 143.028 110.764 142.703 Q110.933 142.373 110.933 142.056 Q110.933 141.54 110.568 141.214 Q110.208 140.889 109.626 140.889 Q109.214 140.889 108.754 141.032 Q108.298 141.175 107.778 141.466 L107.778 140.58 Q108.307 140.368 108.767 140.259 Q109.227 140.151 109.609 140.151 Q110.616 140.151 111.215 140.654 Q111.814 141.158 111.814 142 Q111.814 142.399 111.662 142.759 Q111.514 143.115 111.12 143.601 Q111.011 143.727 110.429 144.33 Q109.848 144.929 108.789 146.01 Z" fill="#000000" fill-rule="evenodd" fill-opacity="1" /><path clip-path="url(#clip020)" d="M 0 0 M69.935 170.952 L72.9949 170.952 L72.9949 171.69 L68.8803 171.69 L68.8803 170.952 Q69.3794 170.436 70.2388 169.568 Q71.1025 168.695 71.3239 168.443 Q71.7449 167.97 71.9098 167.645 Q72.0791 167.315 72.0791 166.998 Q72.0791 166.482 71.7145 166.156 Q71.3543 165.831 70.7727 165.831 Q70.3603 165.831 69.9003 165.974 Q69.4445 166.117 68.9237 166.408 L68.9237 165.522 Q69.4532 165.31 69.9133 165.201 Q70.3734 165.093 70.7553 165.093 Q71.7622 165.093 72.3612 165.596 Q72.9602 166.1 72.9602 166.942 Q72.9602 167.341 72.8082 167.701 Q72.6607 168.057 72.2657 168.543 Q72.1572 168.669 71.5756 169.272 Q70.994 169.871 69.935 170.952 Z" fill="#000000" fill-rule="evenodd" fill-opacity="1" /><path clip-path="url(#clip020)" d="M 0 0 M76.6016 168.196 Q77.231 168.331 77.5825 168.756 Q77.9384 169.181 77.9384 169.806 Q77.9384 170.765 77.2787 171.291 Q76.619 171.816 75.4037 171.816 Q74.9957 171.816 74.5617 171.733 Q74.132 171.655 73.672 171.495 L73.672 170.648 Q74.0365 170.861 74.4706 170.969 Q74.9046 171.078 75.3777 171.078 Q76.2023 171.078 76.632 170.752 Q77.066 170.427 77.066 169.806 Q77.066 169.233 76.6624 168.912 Q76.2631 168.587 75.5469 168.587 L74.7917 168.587 L74.7917 167.866 L75.5817 167.866 Q76.2284 167.866 76.5712 167.61 Q76.9141 167.35 76.9141 166.864 Q76.9141 166.364 76.5582 166.1 Q76.2067 165.831 75.5469 165.831 Q75.1867 165.831 74.7744 165.909 Q74.3621 165.987 73.8673 166.152 L73.8673 165.371 Q74.3664 165.232 74.8004 165.162 Q75.2388 165.093 75.6251 165.093 Q76.6233 165.093 77.2049 165.549 Q77.7865 166 77.7865 166.772 Q77.7865 167.311 77.4784 167.684 Q77.1702 168.053 76.6016 168.196 Z" fill="#000000" fill-rule="evenodd" fill-opacity="1" /><path clip-path="url(#clip020)" d="M 0 0 M69.935 146.01 L72.9949 146.01 L72.9949 146.748 L68.8803 146.748 L68.8803 146.01 Q69.3794 145.494 70.2388 144.626 Q71.1025 143.753 71.3239 143.501 Q71.7449 143.028 71.9098 142.703 Q72.0791 142.373 72.0791 142.056 Q72.0791 141.54 71.7145 141.214 Q71.3543 140.889 70.7727 140.889 Q70.3603 140.889 69.9003 141.032 Q69.4445 141.175 68.9237 141.466 L68.9237 140.58 Q69.4532 140.368 69.9133 140.259 Q70.3734 140.151 70.7553 140.151 Q71.7622 140.151 72.3612 140.654 Q72.9602 141.158 72.9602 142 Q72.9602 142.399 72.8082 142.759 Q72.6607 143.115 72.2657 143.601 Q72.1572 143.727 71.5756 144.33 Q70.994 144.929 69.935 146.01 Z" fill="#000000" fill-rule="evenodd" fill-opacity="1" /><path clip-path="url(#clip020)" d="M 0 0 M76.3542 141.032 L74.1407 144.491 L76.3542 144.491 L76.3542 141.032 M76.1242 140.268 L77.2266 140.268 L77.2266 144.491 L78.1511 144.491 L78.1511 145.22 L77.2266 145.22 L77.2266 146.748 L76.3542 146.748 L76.3542 145.22 L73.4289 145.22 L73.4289 144.374 L76.1242 140.268 Z" fill="#000000" fill-rule="evenodd" fill-opacity="1" /><circle clip-path="url(#clip022)" cx="85.9244" cy="61.395" r="3" fill="#0000ff" fill-rule="evenodd" fill-opacity="1" stroke="none"/>
<circle clip-path="url(#clip022)" cx="85.9244" cy="36.453" r="3" fill="#0000ff" fill-rule="evenodd" fill-opacity="1" stroke="none"/>
<circle clip-path="url(#clip022)" cx="51.8362" cy="61.395" r="3" fill="#0000ff" fill-rule="evenodd" fill-opacity="1" stroke="none"/>
<circle clip-path="url(#clip022)" cx="51.8362" cy="36.453" r="3" fill="#0000ff" fill-rule="evenodd" fill-opacity="1" stroke="none"/>
<circle clip-path="url(#clip022)" cx="17.748" cy="61.395" r="3" fill="#0000ff" fill-rule="evenodd" fill-opacity="1" stroke="none"/>
<circle clip-path="url(#clip022)" cx="17.748" cy="36.453" r="3" fill="#0000ff" fill-rule="evenodd" fill-opacity="1" stroke="none"/>
<circle clip-path="url(#clip022)" cx="34.7921" cy="23.9821" r="3" fill="#0000ff" fill-rule="evenodd" fill-opacity="1" stroke="none"/>
<circle clip-path="url(#clip022)" cx="102.969" cy="98.808" r="3" fill="#0000ff" fill-rule="evenodd" fill-opacity="1" stroke="none"/>
<circle clip-path="url(#clip022)" cx="102.969" cy="73.866" r="3" fill="#0000ff" fill-rule="evenodd" fill-opacity="1" stroke="none"/>
<circle clip-path="url(#clip022)" cx="68.8803" cy="98.808" r="3" fill="#0000ff" fill-rule="evenodd" fill-opacity="1" stroke="none"/>
<circle clip-path="url(#clip022)" cx="68.8803" cy="73.866" r="3" fill="#0000ff" fill-rule="evenodd" fill-opacity="1" stroke="none"/>
<circle clip-path="url(#clip022)" cx="102.969" cy="23.9821" r="3" fill="#0000ff" fill-rule="evenodd" fill-opacity="1" stroke="none"/>
<circle clip-path="url(#clip022)" cx="68.8803" cy="23.9821" r="3" fill="#0000ff" fill-rule="evenodd" fill-opacity="1" stroke="none"/>
<path clip-path="url(#clip020)" d="M 0 0 M85.9244 52.971 L90.0911 52.971 L90.0911 53.3443 L87.7386 59.451 L86.8228 59.451 L89.0364 53.7089 L85.9244 53.7089 L85.9244 52.971 Z" fill="#000000" fill-rule="evenodd" fill-opacity="1" /><path clip-path="url(#clip020)" d="M 0 0 M88.1466 31.4318 Q87.5216 31.4318 87.1614 31.766 Q86.8055 32.1002 86.8055 32.6861 Q86.8055 33.2721 87.1614 33.6063 Q87.5216 33.9405 88.1466 33.9405 Q88.7716 33.9405 89.1319 33.6063 Q89.4921 33.2677 89.4921 32.6861 Q89.4921 32.1002 89.1319 31.766 Q88.776 31.4318 88.1466 31.4318 M87.2699 31.0585 Q86.7057 30.9197 86.3888 30.5334 Q86.0763 30.1471 86.0763 29.5915 Q86.0763 28.8146 86.6275 28.3632 Q87.1831 27.9119 88.1466 27.9119 Q89.1145 27.9119 89.6657 28.3632 Q90.2169 28.8146 90.2169 29.5915 Q90.2169 30.1471 89.9001 30.5334 Q89.5876 30.9197 89.0277 31.0585 Q89.6614 31.2061 90.0129 31.6358 Q90.3688 32.0655 90.3688 32.6861 Q90.3688 33.628 89.7916 34.1314 Q89.2187 34.6349 88.1466 34.6349 Q87.0746 34.6349 86.4973 34.1314 Q85.9244 33.628 85.9244 32.6861 Q85.9244 32.0655 86.2803 31.6358 Q86.6362 31.2061 87.2699 31.0585 M86.9487 29.674 Q86.9487 30.1775 87.2612 30.4596 Q87.578 30.7417 88.1466 30.7417 Q88.7109 30.7417 89.0277 30.4596 Q89.3489 30.1775 89.3489 29.674 Q89.3489 29.1705 89.0277 28.8884 Q88.7109 28.6063 88.1466 28.6063 Q87.578 28.6063 87.2612 28.8884 Q86.9487 29.1705 86.9487 29.674 Z" fill="#000000" fill-rule="evenodd" fill-opacity="1" /><path clip-path="url(#clip020)" d="M 0 0 M52.2529 59.3165 L52.2529 58.5179 Q52.5827 58.6741 52.9213 58.7566 Q53.2598 58.8391 53.5853 58.8391 Q54.4534 58.8391 54.9091 58.2575 Q55.3692 57.6715 55.4343 56.4823 Q55.1826 56.8556 54.7963 57.0552 Q54.41 57.2549 53.9412 57.2549 Q52.969 57.2549 52.4005 56.6689 Q51.8362 56.0787 51.8362 55.0587 Q51.8362 54.0604 52.4265 53.4571 Q53.0168 52.8538 53.9977 52.8538 Q55.1218 52.8538 55.7121 53.7176 Q56.3067 54.5769 56.3067 56.2175 Q56.3067 57.7497 55.5775 58.6654 Q54.8527 59.5769 53.6244 59.5769 Q53.2945 59.5769 52.956 59.5118 Q52.6175 59.4467 52.2529 59.3165 M53.9977 56.5691 Q54.5879 56.5691 54.9308 56.1655 Q55.278 55.7618 55.278 55.0587 Q55.278 54.3599 54.9308 53.9563 Q54.5879 53.5483 53.9977 53.5483 Q53.4074 53.5483 53.0602 53.9563 Q52.7173 54.3599 52.7173 55.0587 Q52.7173 55.7618 53.0602 56.1655 Q53.4074 56.5691 53.9977 56.5691 Z" fill="#000000" fill-rule="evenodd" fill-opacity="1" /><path clip-path="url(#clip020)" d="M 0 0 M51.9621 33.7712 L53.3944 33.7712 L53.3944 28.8277 L51.8362 29.1402 L51.8362 28.3415 L53.3857 28.029 L54.2624 28.029 L54.2624 33.7712 L55.6947 33.7712 L55.6947 34.509 L51.9621 34.509 L51.9621 33.7712 Z" fill="#000000" fill-rule="evenodd" fill-opacity="1" /><path clip-path="url(#clip020)" d="M 0 0 M58.5202 28.6063 Q57.8431 28.6063 57.5003 29.2747 Q57.1617 29.9388 57.1617 31.2756 Q57.1617 32.608 57.5003 33.2764 Q57.8431 33.9405 58.5202 33.9405 Q59.2016 33.9405 59.5402 33.2764 Q59.8831 32.608 59.8831 31.2756 Q59.8831 29.9388 59.5402 29.2747 Q59.2016 28.6063 58.5202 28.6063 M58.5202 27.9119 Q59.6096 27.9119 60.1825 28.7756 Q60.7598 29.6349 60.7598 31.2756 Q60.7598 32.9118 60.1825 33.7755 Q59.6096 34.6349 58.5202 34.6349 Q57.4308 34.6349 56.8536 33.7755 Q56.2806 32.9118 56.2806 31.2756 Q56.2806 29.6349 56.8536 28.7756 Q57.4308 27.9119 58.5202 27.9119 Z" fill="#000000" fill-rule="evenodd" fill-opacity="1" /><path clip-path="url(#clip020)" d="M 0 0 M17.8739 58.7132 L19.3062 58.7132 L19.3062 53.7696 L17.748 54.0821 L17.748 53.2835 L19.2975 52.971 L20.1742 52.971 L20.1742 58.7132 L21.6065 58.7132 L21.6065 59.451 L17.8739 59.451 L17.8739 58.7132 Z" fill="#000000" fill-rule="evenodd" fill-opacity="1" /><path clip-path="url(#clip020)" d="M 0 0 M22.7089 58.7132 L24.1412 58.7132 L24.1412 53.7696 L22.5831 54.0821 L22.5831 53.2835 L24.1325 52.971 L25.0093 52.971 L25.0093 58.7132 L26.4416 58.7132 L26.4416 59.451 L22.7089 59.451 L22.7089 58.7132 Z" fill="#000000" fill-rule="evenodd" fill-opacity="1" /><path clip-path="url(#clip020)" d="M 0 0 M17.8739 33.7712 L19.3062 33.7712 L19.3062 28.8277 L17.748 29.1402 L17.748 28.3415 L19.2975 28.029 L20.1742 28.029 L20.1742 33.7712 L21.6065 33.7712 L21.6065 34.509 L17.8739 34.509 L17.8739 33.7712 Z" fill="#000000" fill-rule="evenodd" fill-opacity="1" /><path clip-path="url(#clip020)" d="M 0 0 M23.3122 33.7712 L26.3721 33.7712 L26.3721 34.509 L22.2576 34.509 L22.2576 33.7712 Q22.7567 33.2547 23.6161 32.3867 Q24.4798 31.5143 24.7011 31.2625 Q25.1221 30.7895 25.2871 30.4639 Q25.4563 30.1341 25.4563 29.8172 Q25.4563 29.3007 25.0917 28.9752 Q24.7315 28.6497 24.1499 28.6497 Q23.7376 28.6497 23.2775 28.7929 Q22.8218 28.9362 22.301 29.227 L22.301 28.3415 Q22.8305 28.1289 23.2905 28.0204 Q23.7506 27.9119 24.1325 27.9119 Q25.1395 27.9119 25.7384 28.4153 Q26.3374 28.9188 26.3374 29.7608 Q26.3374 30.1601 26.1855 30.5204 Q26.0379 30.8763 25.643 31.3624 Q25.5344 31.4882 24.9529 32.0915 Q24.3713 32.6905 23.3122 33.7712 Z" fill="#000000" fill-rule="evenodd" fill-opacity="1" /><path clip-path="url(#clip020)" d="M 0 0 M34.918 21.3002 L36.3503 21.3002 L36.3503 16.3567 L34.7921 16.6692 L34.7921 15.8706 L36.3416 15.5581 L37.2183 15.5581 L37.2183 21.3002 L38.6506 21.3002 L38.6506 22.0381 L34.918 22.0381 L34.918 21.3002 Z" fill="#000000" fill-rule="evenodd" fill-opacity="1" /><path clip-path="url(#clip020)" d="M 0 0 M42.2574 18.5442 Q42.8867 18.6787 43.2383 19.104 Q43.5942 19.5294 43.5942 20.1544 Q43.5942 21.1136 42.9344 21.6388 Q42.2747 22.1639 41.0595 22.1639 Q40.6515 22.1639 40.2174 22.0815 Q39.7878 22.0033 39.3277 21.8427 L39.3277 20.9964 Q39.6923 21.2091 40.1263 21.3176 Q40.5603 21.4261 41.0334 21.4261 Q41.8581 21.4261 42.2877 21.1006 Q42.7218 20.775 42.7218 20.1544 Q42.7218 19.5815 42.3181 19.2603 Q41.9188 18.9348 41.2027 18.9348 L40.4475 18.9348 L40.4475 18.2143 L41.2374 18.2143 Q41.8841 18.2143 42.227 17.9582 Q42.5699 17.6978 42.5699 17.2117 Q42.5699 16.7126 42.214 16.4478 Q41.8624 16.1787 41.2027 16.1787 Q40.8424 16.1787 40.4301 16.2568 Q40.0178 16.335 39.523 16.4999 L39.523 15.7186 Q40.0221 15.5798 40.4562 15.5103 Q40.8945 15.4409 41.2808 15.4409 Q42.2791 15.4409 42.8607 15.8966 Q43.4423 16.348 43.4423 17.1205 Q43.4423 17.6587 43.1341 18.032 Q42.8259 18.4009 42.2574 18.5442 Z" fill="#000000" fill-rule="evenodd" fill-opacity="1" /><path clip-path="url(#clip020)" d="M 0 0 M103.094 96.1262 L104.527 96.1262 L104.527 91.1826 L102.969 91.4951 L102.969 90.6965 L104.518 90.384 L105.395 90.384 L105.395 96.1262 L106.827 96.1262 L106.827 96.864 L103.094 96.864 L103.094 96.1262 Z" fill="#000000" fill-rule="evenodd" fill-opacity="1" /><path clip-path="url(#clip020)" d="M 0 0 M107.786 90.384 L111.228 90.384 L111.228 91.1219 L108.589 91.1219 L108.589 92.7104 Q108.78 92.6453 108.971 92.6149 Q109.162 92.5802 109.353 92.5802 Q110.438 92.5802 111.072 93.1748 Q111.705 93.7694 111.705 94.785 Q111.705 95.831 111.054 96.4126 Q110.403 96.9899 109.218 96.9899 Q108.81 96.9899 108.385 96.9204 Q107.964 96.851 107.513 96.7121 L107.513 95.831 Q107.903 96.0437 108.32 96.1479 Q108.737 96.252 109.201 96.252 Q109.952 96.252 110.39 95.8571 Q110.829 95.4621 110.829 94.785 Q110.829 94.108 110.39 93.713 Q109.952 93.318 109.201 93.318 Q108.85 93.318 108.498 93.3962 Q108.151 93.4743 107.786 93.6392 L107.786 90.384 Z" fill="#000000" fill-rule="evenodd" fill-opacity="1" /><path clip-path="url(#clip020)" d="M 0 0 M103.094 71.1842 L104.527 71.1842 L104.527 66.2406 L102.969 66.5531 L102.969 65.7545 L104.518 65.442 L105.395 65.442 L105.395 71.1842 L106.827 71.1842 L106.827 71.922 L103.094 71.922 L103.094 71.1842 Z" fill="#000000" fill-rule="evenodd" fill-opacity="1" /><path clip-path="url(#clip020)" d="M 0 0 M109.761 68.3326 Q109.171 68.3326 108.824 68.7363 Q108.481 69.1399 108.481 69.843 Q108.481 70.5418 108.824 70.9498 Q109.171 71.3535 109.761 71.3535 Q110.351 71.3535 110.694 70.9498 Q111.041 70.5418 111.041 69.843 Q111.041 69.1399 110.694 68.7363 Q110.351 68.3326 109.761 68.3326 M111.501 65.5853 L111.501 66.3839 Q111.172 66.2276 110.833 66.1451 Q110.499 66.0627 110.169 66.0627 Q109.301 66.0627 108.841 66.6486 Q108.385 67.2346 108.32 68.4194 Q108.576 68.0418 108.962 67.8422 Q109.349 67.6382 109.813 67.6382 Q110.79 67.6382 111.354 68.2328 Q111.922 68.8231 111.922 69.843 Q111.922 70.8413 111.332 71.4446 Q110.742 72.0479 109.761 72.0479 Q108.637 72.0479 108.042 71.1885 Q107.448 70.3248 107.448 68.6885 Q107.448 67.1521 108.177 66.2406 Q108.906 65.3248 110.134 65.3248 Q110.464 65.3248 110.798 65.3899 Q111.137 65.455 111.501 65.5853 Z" fill="#000000" fill-rule="evenodd" fill-opacity="1" /><path clip-path="url(#clip020)" d="M 0 0 M69.0062 96.1262 L70.4385 96.1262 L70.4385 91.1826 L68.8803 91.4951 L68.8803 90.6965 L70.4298 90.384 L71.3065 90.384 L71.3065 96.1262 L72.7388 96.1262 L72.7388 96.864 L69.0062 96.864 L69.0062 96.1262 Z" fill="#000000" fill-rule="evenodd" fill-opacity="1" /><path clip-path="url(#clip020)" d="M 0 0 M73.468 90.384 L77.6346 90.384 L77.6346 90.7573 L75.2822 96.864 L74.3664 96.864 L76.5799 91.1219 L73.468 91.1219 L73.468 90.384 Z" fill="#000000" fill-rule="evenodd" fill-opacity="1" /><path clip-path="url(#clip020)" d="M 0 0 M69.0062 71.1842 L70.4385 71.1842 L70.4385 66.2406 L68.8803 66.5531 L68.8803 65.7545 L70.4298 65.442 L71.3065 65.442 L71.3065 71.1842 L72.7388 71.1842 L72.7388 71.922 L69.0062 71.922 L69.0062 71.1842 Z" fill="#000000" fill-rule="evenodd" fill-opacity="1" /><path clip-path="url(#clip020)" d="M 0 0 M75.5643 68.8448 Q74.9393 68.8448 74.5791 69.179 Q74.2232 69.5132 74.2232 70.0991 Q74.2232 70.6851 74.5791 71.0193 Q74.9393 71.3535 75.5643 71.3535 Q76.1893 71.3535 76.5495 71.0193 Q76.9098 70.6807 76.9098 70.0991 Q76.9098 69.5132 76.5495 69.179 Q76.1936 68.8448 75.5643 68.8448 M74.6876 68.4715 Q74.1233 68.3326 73.8065 67.9464 Q73.494 67.5601 73.494 67.0045 Q73.494 66.2276 74.0452 65.7762 Q74.6008 65.3248 75.5643 65.3248 Q76.5322 65.3248 77.0834 65.7762 Q77.6346 66.2276 77.6346 67.0045 Q77.6346 67.5601 77.3178 67.9464 Q77.0053 68.3326 76.4454 68.4715 Q77.0791 68.6191 77.4306 69.0488 Q77.7865 69.4785 77.7865 70.0991 Q77.7865 71.041 77.2093 71.5444 Q76.6363 72.0479 75.5643 72.0479 Q74.4923 72.0479 73.915 71.5444 Q73.3421 71.041 73.3421 70.0991 Q73.3421 69.4785 73.698 69.0488 Q74.0539 68.6191 74.6876 68.4715 M74.3664 67.087 Q74.3664 67.5905 74.6789 67.8726 Q74.9957 68.1547 75.5643 68.1547 Q76.1285 68.1547 76.4454 67.8726 Q76.7666 67.5905 76.7666 67.087 Q76.7666 66.5835 76.4454 66.3014 Q76.1285 66.0193 75.5643 66.0193 Q74.9957 66.0193 74.6789 66.3014 Q74.3664 66.5835 74.3664 67.087 Z" fill="#000000" fill-rule="evenodd" fill-opacity="1" /><path clip-path="url(#clip020)" d="M 0 0 M104.023 21.3002 L107.083 21.3002 L107.083 22.0381 L102.969 22.0381 L102.969 21.3002 Q103.468 20.7837 104.327 19.9157 Q105.191 19.0433 105.412 18.7915 Q105.833 18.3185 105.998 17.9929 Q106.167 17.6631 106.167 17.3462 Q106.167 16.8297 105.803 16.5042 Q105.442 16.1787 104.861 16.1787 Q104.449 16.1787 103.988 16.3219 Q103.533 16.4652 103.012 16.756 L103.012 15.8706 Q103.541 15.6579 104.001 15.5494 Q104.462 15.4409 104.843 15.4409 Q105.85 15.4409 106.449 15.9443 Q107.048 16.4478 107.048 17.2898 Q107.048 17.6891 106.896 18.0494 Q106.749 18.4053 106.354 18.8914 Q106.245 19.0172 105.664 19.6205 Q105.082 20.2195 104.023 21.3002 Z" fill="#000000" fill-rule="evenodd" fill-opacity="1" /><path clip-path="url(#clip020)" d="M 0 0 M108.185 21.3002 L109.618 21.3002 L109.618 16.3567 L108.06 16.6692 L108.06 15.8706 L109.609 15.5581 L110.486 15.5581 L110.486 21.3002 L111.918 21.3002 L111.918 22.0381 L108.185 22.0381 L108.185 21.3002 Z" fill="#000000" fill-rule="evenodd" fill-opacity="1" /><path clip-path="url(#clip020)" d="M 0 0 M69.935 21.3002 L72.9949 21.3002 L72.9949 22.0381 L68.8803 22.0381 L68.8803 21.3002 Q69.3794 20.7837 70.2388 19.9157 Q71.1025 19.0433 71.3239 18.7915 Q71.7449 18.3185 71.9098 17.9929 Q72.0791 17.6631 72.0791 17.3462 Q72.0791 16.8297 71.7145 16.5042 Q71.3543 16.1787 70.7727 16.1787 Q70.3603 16.1787 69.9003 16.3219 Q69.4445 16.4652 68.9237 16.756 L68.9237 15.8706 Q69.4532 15.6579 69.9133 15.5494 Q70.3734 15.4409 70.7553 15.4409 Q71.7622 15.4409 72.3612 15.9443 Q72.9602 16.4478 72.9602 17.2898 Q72.9602 17.6891 72.8082 18.0494 Q72.6607 18.4053 72.2657 18.8914 Q72.1572 19.0172 71.5756 19.6205 Q70.994 20.2195 69.935 21.3002 Z" fill="#000000" fill-rule="evenodd" fill-opacity="1" /><path clip-path="url(#clip020)" d="M 0 0 M76.6016 18.5442 Q77.231 18.6787 77.5825 19.104 Q77.9384 19.5294 77.9384 20.1544 Q77.9384 21.1136 77.2787 21.6388 Q76.619 22.1639 75.4037 22.1639 Q74.9957 22.1639 74.5617 22.0815 Q74.132 22.0033 73.672 21.8427 L73.672 20.9964 Q74.0365 21.2091 74.4706 21.3176 Q74.9046 21.4261 75.3777 21.4261 Q76.2023 21.4261 76.632 21.1006 Q77.066 20.775 77.066 20.1544 Q77.066 19.5815 76.6624 19.2603 Q76.2631 18.9348 75.5469 18.9348 L74.7917 18.9348 L74.7917 18.2143 L75.5817 18.2143 Q76.2284 18.2143 76.5712 17.9582 Q76.9141 17.6978 76.9141 17.2117 Q76.9141 16.7126 76.5582 16.4478 Q76.2067 16.1787 75.5469 16.1787 Q75.1867 16.1787 74.7744 16.2568 Q74.3621 16.335 73.8673 16.4999 L73.8673 15.7186 Q74.3664 15.5798 74.8004 15.5103 Q75.2388 15.4409 75.6251 15.4409 Q76.6233 15.4409 77.2049 15.8966 Q77.7865 16.348 77.7865 17.1205 Q77.7865 17.6587 77.4784 18.032 Q77.1702 18.4009 76.6016 18.5442 Z" fill="#000000" fill-rule="evenodd" fill-opacity="1" /><circle clip-path="url(#clip022)" cx="188.189" cy="211.047" r="3" fill="#0000ff" fill-rule="evenodd" fill-opacity="1" stroke="none"/>
<circle clip-path="url(#clip022)" cx="188.189" cy="186.105" r="3" fill="#0000ff" fill-rule="evenodd" fill-opacity="1" stroke="none"/>
<circle clip-path="url(#clip022)" cx="154.101" cy="211.047" r="3" fill="#0000ff" fill-rule="evenodd" fill-opacity="1" stroke="none"/>
<circle clip-path="url(#clip022)" cx="154.101" cy="186.105" r="3" fill="#0000ff" fill-rule="evenodd" fill-opacity="1" stroke="none"/>
<circle clip-path="url(#clip022)" cx="120.013" cy="211.047" r="3" fill="#0000ff" fill-rule="evenodd" fill-opacity="1" stroke="none"/>
<circle clip-path="url(#clip022)" cx="120.013" cy="186.105" r="3" fill="#0000ff" fill-rule="evenodd" fill-opacity="1" stroke="none"/>
<circle clip-path="url(#clip022)" cx="137.057" cy="223.518" r="3" fill="#0000ff" fill-rule="evenodd" fill-opacity="1" stroke="none"/>
<circle clip-path="url(#clip022)" cx="137.057" cy="173.634" r="3" fill="#0000ff" fill-rule="evenodd" fill-opacity="1" stroke="none"/>
<circle clip-path="url(#clip022)" cx="137.057" cy="148.692" r="3" fill="#0000ff" fill-rule="evenodd" fill-opacity="1" stroke="none"/>
<circle clip-path="url(#clip022)" cx="171.145" cy="223.518" r="3" fill="#0000ff" fill-rule="evenodd" fill-opacity="1" stroke="none"/>
<path clip-path="url(#clip020)" d="M 0 0 M188.315 208.365 L189.747 208.365 L189.747 203.422 L188.189 203.734 L188.189 202.935 L189.738 202.623 L190.615 202.623 L190.615 208.365 L192.047 208.365 L192.047 209.103 L188.315 209.103 L188.315 208.365 Z" fill="#000000" fill-rule="evenodd" fill-opacity="1" /><path clip-path="url(#clip020)" d="M 0 0 M189.244 183.423 L192.304 183.423 L192.304 184.161 L188.189 184.161 L188.189 183.423 Q188.688 182.907 189.547 182.039 Q190.411 181.166 190.633 180.914 Q191.054 180.441 191.218 180.116 Q191.388 179.786 191.388 179.469 Q191.388 178.953 191.023 178.627 Q190.663 178.302 190.081 178.302 Q189.669 178.302 189.209 178.445 Q188.753 178.588 188.232 178.879 L188.232 177.993 Q188.762 177.781 189.222 177.672 Q189.682 177.564 190.064 177.564 Q191.071 177.564 191.67 178.067 Q192.269 178.571 192.269 179.413 Q192.269 179.812 192.117 180.172 Q191.969 180.528 191.574 181.014 Q191.466 181.14 190.884 181.743 Q190.303 182.342 189.244 183.423 Z" fill="#000000" fill-rule="evenodd" fill-opacity="1" /><path clip-path="url(#clip020)" d="M 0 0 M157.03 205.609 Q157.66 205.744 158.011 206.169 Q158.367 206.594 158.367 207.219 Q158.367 208.178 157.708 208.704 Q157.048 209.229 155.833 209.229 Q155.425 209.229 154.991 209.146 Q154.561 209.068 154.101 208.908 L154.101 208.061 Q154.465 208.274 154.899 208.382 Q155.333 208.491 155.807 208.491 Q156.631 208.491 157.061 208.165 Q157.495 207.84 157.495 207.219 Q157.495 206.646 157.091 206.325 Q156.692 206 155.976 206 L155.221 206 L155.221 205.279 L156.01 205.279 Q156.657 205.279 157 205.023 Q157.343 204.763 157.343 204.277 Q157.343 203.777 156.987 203.513 Q156.635 203.244 155.976 203.244 Q155.616 203.244 155.203 203.322 Q154.791 203.4 154.296 203.565 L154.296 202.784 Q154.795 202.645 155.229 202.575 Q155.668 202.506 156.054 202.506 Q157.052 202.506 157.634 202.961 Q158.215 203.413 158.215 204.185 Q158.215 204.724 157.907 205.097 Q157.599 205.466 157.03 205.609 Z" fill="#000000" fill-rule="evenodd" fill-opacity="1" /><path clip-path="url(#clip020)" d="M 0 0 M157.026 178.445 L154.813 181.904 L157.026 181.904 L157.026 178.445 M156.796 177.681 L157.899 177.681 L157.899 181.904 L158.823 181.904 L158.823 182.633 L157.899 182.633 L157.899 184.161 L157.026 184.161 L157.026 182.633 L154.101 182.633 L154.101 181.787 L156.796 177.681 Z" fill="#000000" fill-rule="evenodd" fill-opacity="1" /><path clip-path="url(#clip020)" d="M 0 0 M120.286 202.623 L123.728 202.623 L123.728 203.361 L121.089 203.361 L121.089 204.949 Q121.28 204.884 121.471 204.854 Q121.662 204.819 121.853 204.819 Q122.938 204.819 123.572 205.414 Q124.205 206.008 124.205 207.024 Q124.205 208.07 123.554 208.652 Q122.903 209.229 121.718 209.229 Q121.31 209.229 120.885 209.159 Q120.464 209.09 120.013 208.951 L120.013 208.07 Q120.403 208.283 120.82 208.387 Q121.237 208.491 121.701 208.491 Q122.452 208.491 122.89 208.096 Q123.329 207.701 123.329 207.024 Q123.329 206.347 122.89 205.952 Q122.452 205.557 121.701 205.557 Q121.349 205.557 120.998 205.635 Q120.651 205.713 120.286 205.878 L120.286 202.623 Z" fill="#000000" fill-rule="evenodd" fill-opacity="1" /><path clip-path="url(#clip020)" d="M 0 0 M122.326 180.572 Q121.736 180.572 121.388 180.975 Q121.046 181.379 121.046 182.082 Q121.046 182.781 121.388 183.189 Q121.736 183.592 122.326 183.592 Q122.916 183.592 123.259 183.189 Q123.606 182.781 123.606 182.082 Q123.606 181.379 123.259 180.975 Q122.916 180.572 122.326 180.572 M124.066 177.824 L124.066 178.623 Q123.737 178.467 123.398 178.384 Q123.064 178.302 122.734 178.302 Q121.866 178.302 121.406 178.888 Q120.95 179.473 120.885 180.658 Q121.141 180.281 121.527 180.081 Q121.914 179.877 122.378 179.877 Q123.355 179.877 123.919 180.472 Q124.487 181.062 124.487 182.082 Q124.487 183.08 123.897 183.684 Q123.307 184.287 122.326 184.287 Q121.202 184.287 120.607 183.427 Q120.013 182.564 120.013 180.927 Q120.013 179.391 120.742 178.48 Q121.471 177.564 122.699 177.564 Q123.029 177.564 123.363 177.629 Q123.702 177.694 124.066 177.824 Z" fill="#000000" fill-rule="evenodd" fill-opacity="1" /><path clip-path="url(#clip020)" d="M 0 0 M137.183 220.836 L138.615 220.836 L138.615 215.893 L137.057 216.205 L137.057 215.406 L138.606 215.094 L139.483 215.094 L139.483 220.836 L140.915 220.836 L140.915 221.574 L137.183 221.574 L137.183 220.836 Z" fill="#000000" fill-rule="evenodd" fill-opacity="1" /><path clip-path="url(#clip020)" d="M 0 0 M144.275 215.858 L142.061 219.317 L144.275 219.317 L144.275 215.858 M144.045 215.094 L145.147 215.094 L145.147 219.317 L146.071 219.317 L146.071 220.046 L145.147 220.046 L145.147 221.574 L144.275 221.574 L144.275 220.046 L141.349 220.046 L141.349 219.2 L144.045 215.094 Z" fill="#000000" fill-rule="evenodd" fill-opacity="1" /><path clip-path="url(#clip020)" d="M 0 0 M137.183 170.952 L138.615 170.952 L138.615 166.009 L137.057 166.321 L137.057 165.522 L138.606 165.21 L139.483 165.21 L139.483 170.952 L140.915 170.952 L140.915 171.69 L137.183 171.69 L137.183 170.952 Z" fill="#000000" fill-rule="evenodd" fill-opacity="1" /><path clip-path="url(#clip020)" d="M 0 0 M141.892 171.555 L141.892 170.757 Q142.222 170.913 142.56 170.996 Q142.899 171.078 143.224 171.078 Q144.092 171.078 144.548 170.496 Q145.008 169.91 145.073 168.721 Q144.821 169.095 144.435 169.294 Q144.049 169.494 143.58 169.494 Q142.608 169.494 142.039 168.908 Q141.475 168.318 141.475 167.298 Q141.475 166.299 142.065 165.696 Q142.656 165.093 143.637 165.093 Q144.761 165.093 145.351 165.956 Q145.946 166.816 145.946 168.456 Q145.946 169.989 145.216 170.904 Q144.492 171.816 143.263 171.816 Q142.933 171.816 142.595 171.751 Q142.256 171.686 141.892 171.555 M143.637 168.808 Q144.227 168.808 144.57 168.404 Q144.917 168.001 144.917 167.298 Q144.917 166.599 144.57 166.195 Q144.227 165.787 143.637 165.787 Q143.046 165.787 142.699 166.195 Q142.356 166.599 142.356 167.298 Q142.356 168.001 142.699 168.404 Q143.046 168.808 143.637 168.808 Z" fill="#000000" fill-rule="evenodd" fill-opacity="1" /><path clip-path="url(#clip020)" d="M 0 0 M138.111 146.01 L141.171 146.01 L141.171 146.748 L137.057 146.748 L137.057 146.01 Q137.556 145.494 138.415 144.626 Q139.279 143.753 139.5 143.501 Q139.921 143.028 140.086 142.703 Q140.255 142.373 140.255 142.056 Q140.255 141.54 139.891 141.214 Q139.531 140.889 138.949 140.889 Q138.537 140.889 138.077 141.032 Q137.621 141.175 137.1 141.466 L137.1 140.58 Q137.63 140.368 138.09 140.259 Q138.55 140.151 138.932 140.151 Q139.939 140.151 140.538 140.654 Q141.137 141.158 141.137 142 Q141.137 142.399 140.985 142.759 Q140.837 143.115 140.442 143.601 Q140.334 143.727 139.752 144.33 Q139.17 144.929 138.111 146.01 Z" fill="#000000" fill-rule="evenodd" fill-opacity="1" /><path clip-path="url(#clip020)" d="M 0 0 M143.997 140.845 Q143.32 140.845 142.977 141.514 Q142.638 142.178 142.638 143.514 Q142.638 144.847 142.977 145.515 Q143.32 146.179 143.997 146.179 Q144.678 146.179 145.017 145.515 Q145.36 144.847 145.36 143.514 Q145.36 142.178 145.017 141.514 Q144.678 140.845 143.997 140.845 M143.997 140.151 Q145.086 140.151 145.659 141.015 Q146.236 141.874 146.236 143.514 Q146.236 145.151 145.659 146.014 Q145.086 146.874 143.997 146.874 Q142.907 146.874 142.33 146.014 Q141.757 145.151 141.757 143.514 Q141.757 141.874 142.33 141.015 Q142.907 140.151 143.997 140.151 Z" fill="#000000" fill-rule="evenodd" fill-opacity="1" /><path clip-path="url(#clip020)" d="M 0 0 M172.2 220.836 L175.259 220.836 L175.259 221.574 L171.145 221.574 L171.145 220.836 Q171.644 220.32 172.503 219.452 Q173.367 218.579 173.588 218.327 Q174.009 217.854 174.174 217.529 Q174.344 217.199 174.344 216.882 Q174.344 216.366 173.979 216.04 Q173.619 215.715 173.037 215.715 Q172.625 215.715 172.165 215.858 Q171.709 216.001 171.188 216.292 L171.188 215.406 Q171.718 215.194 172.178 215.085 Q172.638 214.977 173.02 214.977 Q174.027 214.977 174.626 215.48 Q175.225 215.984 175.225 216.826 Q175.225 217.225 175.073 217.585 Q174.925 217.941 174.53 218.427 Q174.422 218.553 173.84 219.156 Q173.259 219.755 172.2 220.836 Z" fill="#000000" fill-rule="evenodd" fill-opacity="1" /><path clip-path="url(#clip020)" d="M 0 0 M178.619 215.858 L176.405 219.317 L178.619 219.317 L178.619 215.858 M178.389 215.094 L179.491 215.094 L179.491 219.317 L180.416 219.317 L180.416 220.046 L179.491 220.046 L179.491 221.574 L178.619 221.574 L178.619 220.046 L175.693 220.046 L175.693 219.2 L178.389 215.094 Z" fill="#000000" fill-rule="evenodd" fill-opacity="1" /><circle clip-path="url(#clip022)" cx="188.189" cy="61.395" r="3" fill="#0000ff" fill-rule="evenodd" fill-opacity="1" stroke="none"/>
<circle clip-path="url(#clip022)" cx="188.189" cy="36.453" r="3" fill="#0000ff" fill-rule="evenodd" fill-opacity="1" stroke="none"/>
<circle clip-path="url(#clip022)" cx="154.101" cy="61.395" r="3" fill="#0000ff" fill-rule="evenodd" fill-opacity="1" stroke="none"/>
<circle clip-path="url(#clip022)" cx="154.101" cy="36.453" r="3" fill="#0000ff" fill-rule="evenodd" fill-opacity="1" stroke="none"/>
<circle clip-path="url(#clip022)" cx="120.013" cy="61.395" r="3" fill="#0000ff" fill-rule="evenodd" fill-opacity="1" stroke="none"/>
<circle clip-path="url(#clip022)" cx="120.013" cy="36.453" r="3" fill="#0000ff" fill-rule="evenodd" fill-opacity="1" stroke="none"/>
<circle clip-path="url(#clip022)" cx="188.189" cy="136.221" r="3" fill="#0000ff" fill-rule="evenodd" fill-opacity="1" stroke="none"/>
<circle clip-path="url(#clip022)" cx="188.189" cy="111.279" r="3" fill="#0000ff" fill-rule="evenodd" fill-opacity="1" stroke="none"/>
<circle clip-path="url(#clip022)" cx="154.101" cy="136.221" r="3" fill="#0000ff" fill-rule="evenodd" fill-opacity="1" stroke="none"/>
<circle clip-path="url(#clip022)" cx="154.101" cy="111.279" r="3" fill="#0000ff" fill-rule="evenodd" fill-opacity="1" stroke="none"/>
<circle clip-path="url(#clip022)" cx="120.013" cy="136.221" r="3" fill="#0000ff" fill-rule="evenodd" fill-opacity="1" stroke="none"/>
<circle clip-path="url(#clip022)" cx="120.013" cy="111.279" r="3" fill="#0000ff" fill-rule="evenodd" fill-opacity="1" stroke="none"/>
<circle clip-path="url(#clip022)" cx="137.057" cy="98.808" r="3" fill="#0000ff" fill-rule="evenodd" fill-opacity="1" stroke="none"/>
<circle clip-path="url(#clip022)" cx="137.057" cy="73.866" r="3" fill="#0000ff" fill-rule="evenodd" fill-opacity="1" stroke="none"/>
<circle clip-path="url(#clip022)" cx="171.145" cy="173.634" r="3" fill="#0000ff" fill-rule="evenodd" fill-opacity="1" stroke="none"/>
<circle clip-path="url(#clip022)" cx="171.145" cy="148.692" r="3" fill="#0000ff" fill-rule="evenodd" fill-opacity="1" stroke="none"/>
<circle clip-path="url(#clip022)" cx="137.057" cy="23.9821" r="3" fill="#0000ff" fill-rule="evenodd" fill-opacity="1" stroke="none"/>
<circle clip-path="url(#clip022)" cx="171.145" cy="98.808" r="3" fill="#0000ff" fill-rule="evenodd" fill-opacity="1" stroke="none"/>
<circle clip-path="url(#clip022)" cx="171.145" cy="73.866" r="3" fill="#0000ff" fill-rule="evenodd" fill-opacity="1" stroke="none"/>
<path clip-path="url(#clip020)" d="M 0 0 M188.315 58.7132 L189.747 58.7132 L189.747 53.7696 L188.189 54.0821 L188.189 53.2835 L189.738 52.971 L190.615 52.971 L190.615 58.7132 L192.047 58.7132 L192.047 59.451 L188.315 59.451 L188.315 58.7132 Z" fill="#000000" fill-rule="evenodd" fill-opacity="1" /><path clip-path="url(#clip020)" d="M 0 0 M189.244 33.7712 L192.304 33.7712 L192.304 34.509 L188.189 34.509 L188.189 33.7712 Q188.688 33.2547 189.547 32.3867 Q190.411 31.5143 190.633 31.2625 Q191.054 30.7895 191.218 30.4639 Q191.388 30.1341 191.388 29.8172 Q191.388 29.3007 191.023 28.9752 Q190.663 28.6497 190.081 28.6497 Q189.669 28.6497 189.209 28.7929 Q188.753 28.9362 188.232 29.227 L188.232 28.3415 Q188.762 28.1289 189.222 28.0204 Q189.682 27.9119 190.064 27.9119 Q191.071 27.9119 191.67 28.4153 Q192.269 28.9188 192.269 29.7608 Q192.269 30.1601 192.117 30.5204 Q191.969 30.8763 191.574 31.3624 Q191.466 31.4882 190.884 32.0915 Q190.303 32.6905 189.244 33.7712 Z" fill="#000000" fill-rule="evenodd" fill-opacity="1" /><path clip-path="url(#clip020)" d="M 0 0 M157.03 55.9571 Q157.66 56.0917 158.011 56.517 Q158.367 56.9424 158.367 57.5674 Q158.367 58.5266 157.708 59.0517 Q157.048 59.5769 155.833 59.5769 Q155.425 59.5769 154.991 59.4944 Q154.561 59.4163 154.101 59.2557 L154.101 58.4094 Q154.465 58.622 154.899 58.7306 Q155.333 58.8391 155.807 58.8391 Q156.631 58.8391 157.061 58.5135 Q157.495 58.188 157.495 57.5674 Q157.495 56.9945 157.091 56.6733 Q156.692 56.3478 155.976 56.3478 L155.221 56.3478 L155.221 55.6273 L156.01 55.6273 Q156.657 55.6273 157 55.3712 Q157.343 55.1108 157.343 54.6247 Q157.343 54.1255 156.987 53.8608 Q156.635 53.5917 155.976 53.5917 Q155.616 53.5917 155.203 53.6698 Q154.791 53.7479 154.296 53.9129 L154.296 53.1316 Q154.795 52.9927 155.229 52.9233 Q155.668 52.8538 156.054 52.8538 Q157.052 52.8538 157.634 53.3096 Q158.215 53.761 158.215 54.5335 Q158.215 55.0717 157.907 55.445 Q157.599 55.8139 157.03 55.9571 Z" fill="#000000" fill-rule="evenodd" fill-opacity="1" /><path clip-path="url(#clip020)" d="M 0 0 M157.026 28.7929 L154.813 32.2521 L157.026 32.2521 L157.026 28.7929 M156.796 28.029 L157.899 28.029 L157.899 32.2521 L158.823 32.2521 L158.823 32.9813 L157.899 32.9813 L157.899 34.509 L157.026 34.509 L157.026 32.9813 L154.101 32.9813 L154.101 32.1349 L156.796 28.029 Z" fill="#000000" fill-rule="evenodd" fill-opacity="1" /><path clip-path="url(#clip020)" d="M 0 0 M120.286 52.971 L123.728 52.971 L123.728 53.7089 L121.089 53.7089 L121.089 55.2974 Q121.28 55.2323 121.471 55.2019 Q121.662 55.1672 121.853 55.1672 Q122.938 55.1672 123.572 55.7618 Q124.205 56.3564 124.205 57.3721 Q124.205 58.4181 123.554 58.9996 Q122.903 59.5769 121.718 59.5769 Q121.31 59.5769 120.885 59.5075 Q120.464 59.438 120.013 59.2991 L120.013 58.4181 Q120.403 58.6307 120.82 58.7349 Q121.237 58.8391 121.701 58.8391 Q122.452 58.8391 122.89 58.4441 Q123.329 58.0491 123.329 57.3721 Q123.329 56.695 122.89 56.3 Q122.452 55.905 121.701 55.905 Q121.349 55.905 120.998 55.9832 Q120.651 56.0613 120.286 56.2262 L120.286 52.971 Z" fill="#000000" fill-rule="evenodd" fill-opacity="1" /><path clip-path="url(#clip020)" d="M 0 0 M122.326 30.9197 Q121.736 30.9197 121.388 31.3233 Q121.046 31.7269 121.046 32.4301 Q121.046 33.1288 121.388 33.5368 Q121.736 33.9405 122.326 33.9405 Q122.916 33.9405 123.259 33.5368 Q123.606 33.1288 123.606 32.4301 Q123.606 31.7269 123.259 31.3233 Q122.916 30.9197 122.326 30.9197 M124.066 28.1723 L124.066 28.9709 Q123.737 28.8146 123.398 28.7322 Q123.064 28.6497 122.734 28.6497 Q121.866 28.6497 121.406 29.2356 Q120.95 29.8216 120.885 31.0065 Q121.141 30.6289 121.527 30.4292 Q121.914 30.2252 122.378 30.2252 Q123.355 30.2252 123.919 30.8198 Q124.487 31.4101 124.487 32.4301 Q124.487 33.4283 123.897 34.0316 Q123.307 34.6349 122.326 34.6349 Q121.202 34.6349 120.607 33.7755 Q120.013 32.9118 120.013 31.2756 Q120.013 29.7391 120.742 28.8277 Q121.471 27.9119 122.699 27.9119 Q123.029 27.9119 123.363 27.977 Q123.702 28.0421 124.066 28.1723 Z" fill="#000000" fill-rule="evenodd" fill-opacity="1" /><path clip-path="url(#clip020)" d="M 0 0 M188.189 127.797 L192.356 127.797 L192.356 128.17 L190.003 134.277 L189.087 134.277 L191.301 128.535 L188.189 128.535 L188.189 127.797 Z" fill="#000000" fill-rule="evenodd" fill-opacity="1" /><path clip-path="url(#clip020)" d="M 0 0 M190.411 106.258 Q189.786 106.258 189.426 106.592 Q189.07 106.926 189.07 107.512 Q189.07 108.098 189.426 108.432 Q189.786 108.766 190.411 108.766 Q191.036 108.766 191.396 108.432 Q191.757 108.094 191.757 107.512 Q191.757 106.926 191.396 106.592 Q191.041 106.258 190.411 106.258 M189.534 105.885 Q188.97 105.746 188.653 105.359 Q188.341 104.973 188.341 104.417 Q188.341 103.641 188.892 103.189 Q189.448 102.738 190.411 102.738 Q191.379 102.738 191.93 103.189 Q192.481 103.641 192.481 104.417 Q192.481 104.973 192.165 105.359 Q191.852 105.746 191.292 105.885 Q191.926 106.032 192.277 106.462 Q192.633 106.891 192.633 107.512 Q192.633 108.454 192.056 108.957 Q191.483 109.461 190.411 109.461 Q189.339 109.461 188.762 108.957 Q188.189 108.454 188.189 107.512 Q188.189 106.891 188.545 106.462 Q188.901 106.032 189.534 105.885 M189.213 104.5 Q189.213 105.003 189.526 105.286 Q189.843 105.568 190.411 105.568 Q190.975 105.568 191.292 105.286 Q191.613 105.003 191.613 104.5 Q191.613 103.996 191.292 103.714 Q190.975 103.432 190.411 103.432 Q189.843 103.432 189.526 103.714 Q189.213 103.996 189.213 104.5 Z" fill="#000000" fill-rule="evenodd" fill-opacity="1" /><path clip-path="url(#clip020)" d="M 0 0 M154.517 134.142 L154.517 133.344 Q154.847 133.5 155.186 133.583 Q155.524 133.665 155.85 133.665 Q156.718 133.665 157.174 133.083 Q157.634 132.497 157.699 131.308 Q157.447 131.682 157.061 131.881 Q156.675 132.081 156.206 132.081 Q155.234 132.081 154.665 131.495 Q154.101 130.905 154.101 129.885 Q154.101 128.886 154.691 128.283 Q155.281 127.68 156.262 127.68 Q157.386 127.68 157.977 128.544 Q158.571 129.403 158.571 131.044 Q158.571 132.576 157.842 133.491 Q157.117 134.403 155.889 134.403 Q155.559 134.403 155.221 134.338 Q154.882 134.273 154.517 134.142 M156.262 131.395 Q156.853 131.395 157.195 130.991 Q157.543 130.588 157.543 129.885 Q157.543 129.186 157.195 128.782 Q156.853 128.374 156.262 128.374 Q155.672 128.374 155.325 128.782 Q154.982 129.186 154.982 129.885 Q154.982 130.588 155.325 130.991 Q155.672 131.395 156.262 131.395 Z" fill="#000000" fill-rule="evenodd" fill-opacity="1" /><path clip-path="url(#clip020)" d="M 0 0 M154.227 108.597 L155.659 108.597 L155.659 103.654 L154.101 103.966 L154.101 103.168 L155.65 102.855 L156.527 102.855 L156.527 108.597 L157.959 108.597 L157.959 109.335 L154.227 109.335 L154.227 108.597 Z" fill="#000000" fill-rule="evenodd" fill-opacity="1" /><path clip-path="url(#clip020)" d="M 0 0 M160.785 103.432 Q160.108 103.432 159.765 104.101 Q159.426 104.765 159.426 106.102 Q159.426 107.434 159.765 108.102 Q160.108 108.766 160.785 108.766 Q161.466 108.766 161.805 108.102 Q162.148 107.434 162.148 106.102 Q162.148 104.765 161.805 104.101 Q161.466 103.432 160.785 103.432 M160.785 102.738 Q161.874 102.738 162.447 103.602 Q163.024 104.461 163.024 106.102 Q163.024 107.738 162.447 108.602 Q161.874 109.461 160.785 109.461 Q159.695 109.461 159.118 108.602 Q158.545 107.738 158.545 106.102 Q158.545 104.461 159.118 103.602 Q159.695 102.738 160.785 102.738 Z" fill="#000000" fill-rule="evenodd" fill-opacity="1" /><path clip-path="url(#clip020)" d="M 0 0 M120.138 133.539 L121.571 133.539 L121.571 128.596 L120.013 128.908 L120.013 128.109 L121.562 127.797 L122.439 127.797 L122.439 133.539 L123.871 133.539 L123.871 134.277 L120.138 134.277 L120.138 133.539 Z" fill="#000000" fill-rule="evenodd" fill-opacity="1" /><path clip-path="url(#clip020)" d="M 0 0 M124.974 133.539 L126.406 133.539 L126.406 128.596 L124.848 128.908 L124.848 128.109 L126.397 127.797 L127.274 127.797 L127.274 133.539 L128.706 133.539 L128.706 134.277 L124.974 134.277 L124.974 133.539 Z" fill="#000000" fill-rule="evenodd" fill-opacity="1" /><path clip-path="url(#clip020)" d="M 0 0 M120.138 108.597 L121.571 108.597 L121.571 103.654 L120.013 103.966 L120.013 103.168 L121.562 102.855 L122.439 102.855 L122.439 108.597 L123.871 108.597 L123.871 109.335 L120.138 109.335 L120.138 108.597 Z" fill="#000000" fill-rule="evenodd" fill-opacity="1" /><path clip-path="url(#clip020)" d="M 0 0 M125.577 108.597 L128.637 108.597 L128.637 109.335 L124.522 109.335 L124.522 108.597 Q125.021 108.081 125.881 107.213 Q126.744 106.34 126.966 106.088 Q127.387 105.615 127.552 105.29 Q127.721 104.96 127.721 104.643 Q127.721 104.127 127.356 103.801 Q126.996 103.476 126.414 103.476 Q126.002 103.476 125.542 103.619 Q125.086 103.762 124.566 104.053 L124.566 103.168 Q125.095 102.955 125.555 102.846 Q126.015 102.738 126.397 102.738 Q127.404 102.738 128.003 103.241 Q128.602 103.745 128.602 104.587 Q128.602 104.986 128.45 105.346 Q128.302 105.702 127.908 106.188 Q127.799 106.314 127.217 106.917 Q126.636 107.516 125.577 108.597 Z" fill="#000000" fill-rule="evenodd" fill-opacity="1" /><path clip-path="url(#clip020)" d="M 0 0 M137.183 96.1262 L138.615 96.1262 L138.615 91.1826 L137.057 91.4951 L137.057 90.6965 L138.606 90.384 L139.483 90.384 L139.483 96.1262 L140.915 96.1262 L140.915 96.864 L137.183 96.864 L137.183 96.1262 Z" fill="#000000" fill-rule="evenodd" fill-opacity="1" /><path clip-path="url(#clip020)" d="M 0 0 M144.522 93.3701 Q145.151 93.5047 145.503 93.93 Q145.859 94.3553 145.859 94.9803 Q145.859 95.9395 145.199 96.4647 Q144.539 96.9899 143.324 96.9899 Q142.916 96.9899 142.482 96.9074 Q142.052 96.8293 141.592 96.6687 L141.592 95.8224 Q141.957 96.035 142.391 96.1435 Q142.825 96.252 143.298 96.252 Q144.123 96.252 144.552 95.9265 Q144.986 95.601 144.986 94.9803 Q144.986 94.4074 144.583 94.0863 Q144.183 93.7607 143.467 93.7607 L142.712 93.7607 L142.712 93.0402 L143.502 93.0402 Q144.149 93.0402 144.492 92.7842 Q144.834 92.5238 144.834 92.0377 Q144.834 91.5385 144.479 91.2738 Q144.127 91.0047 143.467 91.0047 Q143.107 91.0047 142.695 91.0828 Q142.282 91.1609 141.788 91.3258 L141.788 90.5446 Q142.287 90.4057 142.721 90.3363 Q143.159 90.2668 143.545 90.2668 Q144.544 90.2668 145.125 90.7226 Q145.707 91.1739 145.707 91.9465 Q145.707 92.4847 145.399 92.858 Q145.091 93.2269 144.522 93.3701 Z" fill="#000000" fill-rule="evenodd" fill-opacity="1" /><path clip-path="url(#clip020)" d="M 0 0 M137.183 71.1842 L138.615 71.1842 L138.615 66.2406 L137.057 66.5531 L137.057 65.7545 L138.606 65.442 L139.483 65.442 L139.483 71.1842 L140.915 71.1842 L140.915 71.922 L137.183 71.922 L137.183 71.1842 Z" fill="#000000" fill-rule="evenodd" fill-opacity="1" /><path clip-path="url(#clip020)" d="M 0 0 M144.275 66.2059 L142.061 69.6651 L144.275 69.6651 L144.275 66.2059 M144.045 65.442 L145.147 65.442 L145.147 69.6651 L146.071 69.6651 L146.071 70.3943 L145.147 70.3943 L145.147 71.922 L144.275 71.922 L144.275 70.3943 L141.349 70.3943 L141.349 69.5479 L144.045 65.442 Z" fill="#000000" fill-rule="evenodd" fill-opacity="1" /><path clip-path="url(#clip020)" d="M 0 0 M171.271 170.952 L172.703 170.952 L172.703 166.009 L171.145 166.321 L171.145 165.522 L172.694 165.21 L173.571 165.21 L173.571 170.952 L175.003 170.952 L175.003 171.69 L171.271 171.69 L171.271 170.952 Z" fill="#000000" fill-rule="evenodd" fill-opacity="1" /><path clip-path="url(#clip020)" d="M 0 0 M175.733 165.21 L179.899 165.21 L179.899 165.583 L177.547 171.69 L176.631 171.69 L178.844 165.948 L175.733 165.948 L175.733 165.21 Z" fill="#000000" fill-rule="evenodd" fill-opacity="1" /><path clip-path="url(#clip020)" d="M 0 0 M171.271 146.01 L172.703 146.01 L172.703 141.067 L171.145 141.379 L171.145 140.58 L172.694 140.268 L173.571 140.268 L173.571 146.01 L175.003 146.01 L175.003 146.748 L171.271 146.748 L171.271 146.01 Z" fill="#000000" fill-rule="evenodd" fill-opacity="1" /><path clip-path="url(#clip020)" d="M 0 0 M177.829 143.671 Q177.204 143.671 176.844 144.005 Q176.488 144.339 176.488 144.925 Q176.488 145.511 176.844 145.845 Q177.204 146.179 177.829 146.179 Q178.454 146.179 178.814 145.845 Q179.174 145.507 179.174 144.925 Q179.174 144.339 178.814 144.005 Q178.458 143.671 177.829 143.671 M176.952 143.297 Q176.388 143.159 176.071 142.772 Q175.759 142.386 175.759 141.83 Q175.759 141.054 176.31 140.602 Q176.865 140.151 177.829 140.151 Q178.797 140.151 179.348 140.602 Q179.899 141.054 179.899 141.83 Q179.899 142.386 179.582 142.772 Q179.27 143.159 178.71 143.297 Q179.344 143.445 179.695 143.875 Q180.051 144.304 180.051 144.925 Q180.051 145.867 179.474 146.37 Q178.901 146.874 177.829 146.874 Q176.757 146.874 176.18 146.37 Q175.607 145.867 175.607 144.925 Q175.607 144.304 175.963 143.875 Q176.318 143.445 176.952 143.297 M176.631 141.913 Q176.631 142.416 176.943 142.699 Q177.26 142.981 177.829 142.981 Q178.393 142.981 178.71 142.699 Q179.031 142.416 179.031 141.913 Q179.031 141.409 178.71 141.127 Q178.393 140.845 177.829 140.845 Q177.26 140.845 176.943 141.127 Q176.631 141.409 176.631 141.913 Z" fill="#000000" fill-rule="evenodd" fill-opacity="1" /><path clip-path="url(#clip020)" d="M 0 0 M137.183 21.3002 L138.615 21.3002 L138.615 16.3567 L137.057 16.6692 L137.057 15.8706 L138.606 15.5581 L139.483 15.5581 L139.483 21.3002 L140.915 21.3002 L140.915 22.0381 L137.183 22.0381 L137.183 21.3002 Z" fill="#000000" fill-rule="evenodd" fill-opacity="1" /><path clip-path="url(#clip020)" d="M 0 0 M141.892 21.9035 L141.892 21.1049 Q142.222 21.2611 142.56 21.3436 Q142.899 21.4261 143.224 21.4261 Q144.092 21.4261 144.548 20.8445 Q145.008 20.2586 145.073 19.0693 Q144.821 19.4426 144.435 19.6422 Q144.049 19.8419 143.58 19.8419 Q142.608 19.8419 142.039 19.256 Q141.475 18.6657 141.475 17.6457 Q141.475 16.6475 142.065 16.0442 Q142.656 15.4409 143.637 15.4409 Q144.761 15.4409 145.351 16.3046 Q145.946 17.1639 145.946 18.8046 Q145.946 20.3367 145.216 21.2525 Q144.492 22.1639 143.263 22.1639 Q142.933 22.1639 142.595 22.0988 Q142.256 22.0337 141.892 21.9035 M143.637 19.1561 Q144.227 19.1561 144.57 18.7525 Q144.917 18.3488 144.917 17.6457 Q144.917 16.9469 144.57 16.5433 Q144.227 16.1353 143.637 16.1353 Q143.046 16.1353 142.699 16.5433 Q142.356 16.9469 142.356 17.6457 Q142.356 18.3488 142.699 18.7525 Q143.046 19.1561 143.637 19.1561 Z" fill="#000000" fill-rule="evenodd" fill-opacity="1" /><path clip-path="url(#clip020)" d="M 0 0 M172.2 96.1262 L175.259 96.1262 L175.259 96.864 L171.145 96.864 L171.145 96.1262 Q171.644 95.6097 172.503 94.7416 Q173.367 93.8692 173.588 93.6175 Q174.009 93.1444 174.174 92.8189 Q174.344 92.489 174.344 92.1722 Q174.344 91.6557 173.979 91.3302 Q173.619 91.0047 173.037 91.0047 Q172.625 91.0047 172.165 91.1479 Q171.709 91.2911 171.188 91.5819 L171.188 90.6965 Q171.718 90.4838 172.178 90.3753 Q172.638 90.2668 173.02 90.2668 Q174.027 90.2668 174.626 90.7703 Q175.225 91.2738 175.225 92.1158 Q175.225 92.5151 175.073 92.8753 Q174.925 93.2312 174.53 93.7173 Q174.422 93.8432 173.84 94.4465 Q173.259 95.0454 172.2 96.1262 Z" fill="#000000" fill-rule="evenodd" fill-opacity="1" /><path clip-path="url(#clip020)" d="M 0 0 M178.866 93.3701 Q179.496 93.5047 179.847 93.93 Q180.203 94.3553 180.203 94.9803 Q180.203 95.9395 179.543 96.4647 Q178.884 96.9899 177.668 96.9899 Q177.26 96.9899 176.826 96.9074 Q176.397 96.8293 175.937 96.6687 L175.937 95.8224 Q176.301 96.035 176.735 96.1435 Q177.169 96.252 177.642 96.252 Q178.467 96.252 178.897 95.9265 Q179.331 95.601 179.331 94.9803 Q179.331 94.4074 178.927 94.0863 Q178.528 93.7607 177.812 93.7607 L177.056 93.7607 L177.056 93.0402 L177.846 93.0402 Q178.493 93.0402 178.836 92.7842 Q179.179 92.5238 179.179 92.0377 Q179.179 91.5385 178.823 91.2738 Q178.471 91.0047 177.812 91.0047 Q177.451 91.0047 177.039 91.0828 Q176.627 91.1609 176.132 91.3258 L176.132 90.5446 Q176.631 90.4057 177.065 90.3363 Q177.503 90.2668 177.89 90.2668 Q178.888 90.2668 179.469 90.7226 Q180.051 91.1739 180.051 91.9465 Q180.051 92.4847 179.743 92.858 Q179.435 93.2269 178.866 93.3701 Z" fill="#000000" fill-rule="evenodd" fill-opacity="1" /><path clip-path="url(#clip020)" d="M 0 0 M172.2 71.1842 L175.259 71.1842 L175.259 71.922 L171.145 71.922 L171.145 71.1842 Q171.644 70.6677 172.503 69.7996 Q173.367 68.9273 173.588 68.6755 Q174.009 68.2024 174.174 67.8769 Q174.344 67.5471 174.344 67.2302 Q174.344 66.7137 173.979 66.3882 Q173.619 66.0627 173.037 66.0627 Q172.625 66.0627 172.165 66.2059 Q171.709 66.3491 171.188 66.6399 L171.188 65.7545 Q171.718 65.5419 172.178 65.4333 Q172.638 65.3248 173.02 65.3248 Q174.027 65.3248 174.626 65.8283 Q175.225 66.3318 175.225 67.1738 Q175.225 67.5731 175.073 67.9333 Q174.925 68.2892 174.53 68.7753 Q174.422 68.9012 173.84 69.5045 Q173.259 70.1035 172.2 71.1842 Z" fill="#000000" fill-rule="evenodd" fill-opacity="1" /><path clip-path="url(#clip020)" d="M 0 0 M178.619 66.2059 L176.405 69.6651 L178.619 69.6651 L178.619 66.2059 M178.389 65.442 L179.491 65.442 L179.491 69.6651 L180.416 69.6651 L180.416 70.3943 L179.491 70.3943 L179.491 71.922 L178.619 71.922 L178.619 70.3943 L175.693 70.3943 L175.693 69.5479 L178.389 65.442 Z" fill="#000000" fill-rule="evenodd" fill-opacity="1" /><circle clip-path="url(#clip022)" cx="171.145" cy="23.9821" r="3" fill="#0000ff" fill-rule="evenodd" fill-opacity="1" stroke="none"/>
<path clip-path="url(#clip020)" d="M 0 0 M171.271 21.3002 L172.703 21.3002 L172.703 16.3567 L171.145 16.6692 L171.145 15.8706 L172.694 15.5581 L173.571 15.5581 L173.571 21.3002 L175.003 21.3002 L175.003 22.0381 L171.271 22.0381 L171.271 21.3002 Z" fill="#000000" fill-rule="evenodd" fill-opacity="1" /><path clip-path="url(#clip020)" d="M 0 0 M175.733 15.5581 L179.899 15.5581 L179.899 15.9313 L177.547 22.0381 L176.631 22.0381 L178.844 16.2959 L175.733 16.2959 L175.733 15.5581 Z" fill="#000000" fill-rule="evenodd" fill-opacity="1" /></svg>
