<?xml version="1.0" encoding="utf-8"?>
<svg xmlns="http://www.w3.org/2000/svg" xmlns:xlink="http://www.w3.org/1999/xlink" width="50" height="62.5" viewBox="0 0 200 250">
<defs>
  <clipPath id="clip170">
    <rect x="0" y="0" width="200" height="250"/>
  </clipPath>
</defs>
<path clip-path="url(#clip170)" d="
M0 250 L200 250 L200 0 L0 0  Z
  " fill="#ffffff" fill-rule="evenodd" fill-opacity="1"/>
<defs>
  <clipPath id="clip171">
    <rect x="50" y="25" width="176" height="176"/>
  </clipPath>
</defs>
<path clip-path="url(#clip170)" d="
M17.748 231.752 L188.189 231.752 L188.189 15.748 L17.748 15.748  Z
  " fill="#ffffff" fill-rule="evenodd" fill-opacity="1"/>
<defs>
  <clipPath id="clip172">
    <rect x="17" y="15" width="171" height="217"/>
  </clipPath>
</defs>
<polyline clip-path="url(#clip170)" style="stroke:#000000; stroke-width:1; stroke-opacity:1; fill:none" points="
  17.748,231.752 188.189,231.752 
  "/>
<polyline clip-path="url(#clip170)" style="stroke:#000000; stroke-width:1; stroke-opacity:1; fill:none" points="
  34.7921,231.752 34.7921,229.16 
  "/>
<polyline clip-path="url(#clip170)" style="stroke:#000000; stroke-width:1; stroke-opacity:1; fill:none" points="
  68.8803,231.752 68.8803,229.16 
  "/>
<polyline clip-path="url(#clip170)" style="stroke:#000000; stroke-width:1; stroke-opacity:1; fill:none" points="
  102.969,231.752 102.969,229.16 
  "/>
<polyline clip-path="url(#clip170)" style="stroke:#000000; stroke-width:1; stroke-opacity:1; fill:none" points="
  137.057,231.752 137.057,229.16 
  "/>
<polyline clip-path="url(#clip170)" style="stroke:#000000; stroke-width:1; stroke-opacity:1; fill:none" points="
  171.145,231.752 171.145,229.16 
  "/>
<path clip-path="url(#clip170)" d="M 0 0 M27.9056 239.913 L35.3245 239.913 L35.3245 240.897 L27.9056 240.897 L27.9056 239.913 Z" fill="#000000" fill-rule="evenodd" fill-opacity="1" /><path clip-path="url(#clip170)" d="M 0 0 M37.5988 243.136 L41.6787 243.136 L41.6787 244.12 L36.1926 244.12 L36.1926 243.136 Q36.8581 242.448 38.0039 241.29 Q39.1555 240.127 39.4507 239.791 Q40.012 239.161 40.2319 238.726 Q40.4576 238.287 40.4576 237.864 Q40.4576 237.176 39.9715 236.742 Q39.4912 236.308 38.7157 236.308 Q38.166 236.308 37.5525 236.498 Q36.9449 236.689 36.2505 237.077 L36.2505 235.897 Q36.9565 235.613 37.5699 235.468 Q38.1833 235.324 38.6926 235.324 Q40.0352 235.324 40.8338 235.995 Q41.6324 236.666 41.6324 237.789 Q41.6324 238.321 41.4298 238.802 Q41.2331 239.276 40.7064 239.924 Q40.5618 240.092 39.7863 240.897 Q39.0109 241.695 37.5988 243.136 Z" fill="#000000" fill-rule="evenodd" fill-opacity="1" /><path clip-path="url(#clip170)" d="M 0 0 M61.9475 239.913 L69.3664 239.913 L69.3664 240.897 L61.9475 240.897 L61.9475 239.913 Z" fill="#000000" fill-rule="evenodd" fill-opacity="1" /><path clip-path="url(#clip170)" d="M 0 0 M70.8363 243.136 L72.746 243.136 L72.746 236.545 L70.6685 236.961 L70.6685 235.897 L72.7345 235.48 L73.9034 235.48 L73.9034 243.136 L75.8131 243.136 L75.8131 244.12 L70.8363 244.12 L70.8363 243.136 Z" fill="#000000" fill-rule="evenodd" fill-opacity="1" /><path clip-path="url(#clip170)" d="M 0 0 M102.969 236.25 Q102.066 236.25 101.609 237.141 Q101.157 238.026 101.157 239.809 Q101.157 241.585 101.609 242.476 Q102.066 243.362 102.969 243.362 Q103.877 243.362 104.328 242.476 Q104.786 241.585 104.786 239.809 Q104.786 238.026 104.328 237.141 Q103.877 236.25 102.969 236.25 M102.969 235.324 Q104.421 235.324 105.185 236.475 Q105.955 237.621 105.955 239.809 Q105.955 241.99 105.185 243.142 Q104.421 244.288 102.969 244.288 Q101.516 244.288 100.746 243.142 Q99.9824 241.99 99.9824 239.809 Q99.9824 237.621 100.746 236.475 Q101.516 235.324 102.969 235.324 Z" fill="#000000" fill-rule="evenodd" fill-opacity="1" /><path clip-path="url(#clip170)" d="M 0 0 M134.652 243.136 L136.562 243.136 L136.562 236.545 L134.484 236.961 L134.484 235.897 L136.55 235.48 L137.719 235.48 L137.719 243.136 L139.629 243.136 L139.629 244.12 L134.652 244.12 L134.652 243.136 Z" fill="#000000" fill-rule="evenodd" fill-opacity="1" /><path clip-path="url(#clip170)" d="M 0 0 M169.808 243.136 L173.888 243.136 L173.888 244.12 L168.402 244.12 L168.402 243.136 Q169.067 242.448 170.213 241.29 Q171.365 240.127 171.66 239.791 Q172.221 239.161 172.441 238.726 Q172.667 238.287 172.667 237.864 Q172.667 237.176 172.181 236.742 Q171.7 236.308 170.925 236.308 Q170.375 236.308 169.762 236.498 Q169.154 236.689 168.46 237.077 L168.46 235.897 Q169.166 235.613 169.779 235.468 Q170.393 235.324 170.902 235.324 Q172.244 235.324 173.043 235.995 Q173.842 236.666 173.842 237.789 Q173.842 238.321 173.639 238.802 Q173.442 239.276 172.916 239.924 Q172.771 240.092 171.996 240.897 Q171.22 241.695 169.808 243.136 Z" fill="#000000" fill-rule="evenodd" fill-opacity="1" /><polyline clip-path="url(#clip170)" style="stroke:#000000; stroke-width:1; stroke-opacity:1; fill:none" points="
  17.748,231.752 17.748,15.748 
  "/>
<polyline clip-path="url(#clip170)" style="stroke:#000000; stroke-width:1; stroke-opacity:1; fill:none" points="
  17.748,210.152 19.7933,210.152 
  "/>
<polyline clip-path="url(#clip170)" style="stroke:#000000; stroke-width:1; stroke-opacity:1; fill:none" points="
  17.748,166.951 19.7933,166.951 
  "/>
<polyline clip-path="url(#clip170)" style="stroke:#000000; stroke-width:1; stroke-opacity:1; fill:none" points="
  17.748,123.75 19.7933,123.75 
  "/>
<polyline clip-path="url(#clip170)" style="stroke:#000000; stroke-width:1; stroke-opacity:1; fill:none" points="
  17.748,80.5492 19.7933,80.5492 
  "/>
<polyline clip-path="url(#clip170)" style="stroke:#000000; stroke-width:1; stroke-opacity:1; fill:none" points="
  17.748,37.3484 19.7933,37.3484 
  "/>
<path clip-path="url(#clip170)" d="M 0 0 M0.224957 210.264 L7.6439 210.264 L7.6439 211.248 L0.224957 211.248 L0.224957 210.264 Z" fill="#000000" fill-rule="evenodd" fill-opacity="1" /><path clip-path="url(#clip170)" d="M 0 0 M9.91819 213.488 L13.998 213.488 L13.998 214.472 L8.51195 214.472 L8.51195 213.488 Q9.17746 212.799 10.3233 211.642 Q11.4749 210.479 11.77 210.143 Q12.3314 209.512 12.5513 209.078 Q12.777 208.638 12.777 208.216 Q12.777 207.527 12.2909 207.093 Q11.8105 206.659 11.0351 206.659 Q10.4853 206.659 9.8719 206.85 Q9.26426 207.041 8.56982 207.429 L8.56982 206.248 Q9.27583 205.965 9.88926 205.82 Q10.5027 205.675 11.0119 205.675 Q12.3545 205.675 13.1531 206.347 Q13.9517 207.018 13.9517 208.141 Q13.9517 208.673 13.7492 209.153 Q13.5524 209.628 13.0258 210.276 Q12.8811 210.444 12.1057 211.248 Q11.3302 212.047 9.91819 213.488 Z" fill="#000000" fill-rule="evenodd" fill-opacity="1" /><path clip-path="url(#clip170)" d="M 0 0 M0.132365 167.064 L7.55131 167.064 L7.55131 168.047 L0.132365 168.047 L0.132365 167.064 Z" fill="#000000" fill-rule="evenodd" fill-opacity="1" /><path clip-path="url(#clip170)" d="M 0 0 M9.02121 170.287 L10.9309 170.287 L10.9309 163.696 L8.85338 164.112 L8.85338 163.047 L10.9193 162.631 L12.0883 162.631 L12.0883 170.287 L13.998 170.287 L13.998 171.271 L9.02121 171.271 L9.02121 170.287 Z" fill="#000000" fill-rule="evenodd" fill-opacity="1" /><path clip-path="url(#clip170)" d="M 0 0 M11.0119 120.2 Q10.1092 120.2 9.65199 121.091 Q9.2006 121.976 9.2006 123.759 Q9.2006 125.535 9.65199 126.426 Q10.1092 127.312 11.0119 127.312 Q11.9205 127.312 12.3719 126.426 Q12.8291 125.535 12.8291 123.759 Q12.8291 121.976 12.3719 121.091 Q11.9205 120.2 11.0119 120.2 M11.0119 119.274 Q12.4645 119.274 13.2284 120.425 Q13.998 121.571 13.998 123.759 Q13.998 125.94 13.2284 127.092 Q12.4645 128.238 11.0119 128.238 Q9.5594 128.238 8.78973 127.092 Q8.02584 125.94 8.02584 123.759 Q8.02584 121.571 8.78973 120.425 Q9.5594 119.274 11.0119 119.274 Z" fill="#000000" fill-rule="evenodd" fill-opacity="1" /><path clip-path="url(#clip170)" d="M 0 0 M9.02121 83.8854 L10.9309 83.8854 L10.9309 77.294 L8.85338 77.7107 L8.85338 76.6459 L10.9193 76.2292 L12.0883 76.2292 L12.0883 83.8854 L13.998 83.8854 L13.998 84.8692 L9.02121 84.8692 L9.02121 83.8854 Z" fill="#000000" fill-rule="evenodd" fill-opacity="1" /><path clip-path="url(#clip170)" d="M 0 0 M9.91819 40.6846 L13.998 40.6846 L13.998 41.6684 L8.51195 41.6684 L8.51195 40.6846 Q9.17746 39.996 10.3233 38.8386 Q11.4749 37.6754 11.77 37.3397 Q12.3314 36.709 12.5513 36.2749 Q12.777 35.8351 12.777 35.4127 Q12.777 34.724 12.2909 34.29 Q11.8105 33.856 11.0351 33.856 Q10.4853 33.856 9.8719 34.0469 Q9.26426 34.2379 8.56982 34.6256 L8.56982 33.4451 Q9.27583 33.1615 9.88926 33.0169 Q10.5027 32.8722 11.0119 32.8722 Q12.3545 32.8722 13.1531 33.5435 Q13.9517 34.2148 13.9517 35.3374 Q13.9517 35.8698 13.7492 36.3502 Q13.5524 36.8247 13.0258 37.4728 Q12.8811 37.6407 12.1057 38.4451 Q11.3302 39.2437 9.91819 40.6846 Z" fill="#000000" fill-rule="evenodd" fill-opacity="1" /><path clip-path="url(#clip170)" d="M 0 0 M89.8089 5.13076 Q90.2082 4.41317 90.7637 4.07174 Q91.3193 3.7303 92.0716 3.7303 Q93.0843 3.7303 93.6341 4.44211 Q94.1838 5.14812 94.1838 6.45598 L94.1838 10.368 L93.1132 10.368 L93.1132 6.49071 Q93.1132 5.559 92.7834 5.10761 Q92.4535 4.65623 91.7764 4.65623 Q90.9489 4.65623 90.4686 5.20599 Q89.9882 5.75576 89.9882 6.70483 L89.9882 10.368 L88.9177 10.368 L88.9177 6.49071 Q88.9177 5.55321 88.5878 5.10761 Q88.2579 4.65623 87.5693 4.65623 Q86.7533 4.65623 86.273 5.21178 Q85.7927 5.76154 85.7927 6.70483 L85.7927 10.368 L84.7221 10.368 L84.7221 3.88655 L85.7927 3.88655 L85.7927 4.89349 Q86.1573 4.29743 86.6665 4.01387 Q87.1758 3.7303 87.876 3.7303 Q88.582 3.7303 89.0739 4.0891 Q89.5716 4.44789 89.8089 5.13076 Z" fill="#000000" fill-rule="evenodd" fill-opacity="1" /><path clip-path="url(#clip170)" d="M 0 0 M95.2023 1.36342 L97.656 1.36342 L97.656 2.19096 L96.2672 2.19096 L96.2672 11.1029 L97.656 11.1029 L97.656 11.9305 L95.2023 11.9305 L95.2023 1.36342 Z" fill="#000000" fill-rule="evenodd" fill-opacity="1" /><path clip-path="url(#clip170)" d="M 0 0 M101.423 2.49767 Q100.521 2.49767 100.063 3.38887 Q99.612 4.27428 99.612 6.05668 Q99.612 7.83329 100.063 8.72449 Q100.521 9.6099 101.423 9.6099 Q102.332 9.6099 102.783 8.72449 Q103.24 7.83329 103.24 6.05668 Q103.24 4.27428 102.783 3.38887 Q102.332 2.49767 101.423 2.49767 M101.423 1.57175 Q102.876 1.57175 103.64 2.72337 Q104.409 3.86919 104.409 6.05668 Q104.409 8.23838 103.64 9.39 Q102.876 10.5358 101.423 10.5358 Q99.9708 10.5358 99.2012 9.39 Q98.4373 8.23838 98.4373 6.05668 Q98.4373 3.86919 99.2012 2.72337 Q99.9708 1.57175 101.423 1.57175 Z" fill="#000000" fill-rule="evenodd" fill-opacity="1" /><path clip-path="url(#clip170)" d="M 0 0 M105.879 9.38421 L107.789 9.38421 L107.789 2.79281 L105.712 3.20947 L105.712 2.14466 L107.778 1.728 L108.946 1.728 L108.946 9.38421 L110.856 9.38421 L110.856 10.368 L105.879 10.368 L105.879 9.38421 Z" fill="#000000" fill-rule="evenodd" fill-opacity="1" /><path clip-path="url(#clip170)" d="M 0 0 M114.624 2.49767 Q113.721 2.49767 113.264 3.38887 Q112.812 4.27428 112.812 6.05668 Q112.812 7.83329 113.264 8.72449 Q113.721 9.6099 114.624 9.6099 Q115.532 9.6099 115.983 8.72449 Q116.441 7.83329 116.441 6.05668 Q116.441 4.27428 115.983 3.38887 Q115.532 2.49767 114.624 2.49767 M114.624 1.57175 Q116.076 1.57175 116.84 2.72337 Q117.61 3.86919 117.61 6.05668 Q117.61 8.23838 116.84 9.39 Q116.076 10.5358 114.624 10.5358 Q113.171 10.5358 112.401 9.39 Q111.637 8.23838 111.637 6.05668 Q111.637 3.86919 112.401 2.72337 Q113.171 1.57175 114.624 1.57175 Z" fill="#000000" fill-rule="evenodd" fill-opacity="1" /><path clip-path="url(#clip170)" d="M 0 0 M121.215 1.36342 L121.215 11.9305 L118.761 11.9305 L118.761 11.1029 L120.144 11.1029 L120.144 2.19096 L118.761 2.19096 L118.761 1.36342 L121.215 1.36342 Z" fill="#000000" fill-rule="evenodd" fill-opacity="1" /><circle clip-path="url(#clip172)" cx="34.7921" cy="223.518" r="3" fill="#0000ff" fill-rule="evenodd" fill-opacity="1" stroke="none"/>
<path clip-path="url(#clip170)" d="M 0 0 M35.8468 220.836 L38.9067 220.836 L38.9067 221.574 L34.7921 221.574 L34.7921 220.836 Q35.2913 220.32 36.1506 219.452 Q37.0143 218.579 37.2357 218.327 Q37.6567 217.854 37.8216 217.529 Q37.9909 217.199 37.9909 216.882 Q37.9909 216.366 37.6263 216.04 Q37.2661 215.715 36.6845 215.715 Q36.2722 215.715 35.8121 215.858 Q35.3564 216.001 34.8355 216.292 L34.8355 215.406 Q35.365 215.194 35.8251 215.085 Q36.2852 214.977 36.6671 214.977 Q37.6741 214.977 38.273 215.48 Q38.872 215.984 38.872 216.826 Q38.872 217.225 38.7201 217.585 Q38.5725 217.941 38.1775 218.427 Q38.069 218.553 37.4874 219.156 Q36.9058 219.755 35.8468 220.836 Z" fill="#000000" fill-rule="evenodd" fill-opacity="1" /><path clip-path="url(#clip170)" d="M 0 0 M40.0091 220.836 L41.4414 220.836 L41.4414 215.893 L39.8832 216.205 L39.8832 215.406 L41.4327 215.094 L42.3094 215.094 L42.3094 220.836 L43.7417 220.836 L43.7417 221.574 L40.0091 221.574 L40.0091 220.836 Z" fill="#000000" fill-rule="evenodd" fill-opacity="1" /><circle clip-path="url(#clip172)" cx="17.748" cy="186.105" r="3" fill="#0000ff" fill-rule="evenodd" fill-opacity="1" stroke="none"/>
<circle clip-path="url(#clip172)" cx="34.7921" cy="148.692" r="3" fill="#0000ff" fill-rule="evenodd" fill-opacity="1" stroke="none"/>
<circle clip-path="url(#clip172)" cx="17.748" cy="136.221" r="3" fill="#0000ff" fill-rule="evenodd" fill-opacity="1" stroke="none"/>
<circle clip-path="url(#clip172)" cx="51.8362" cy="111.279" r="3" fill="#0000ff" fill-rule="evenodd" fill-opacity="1" stroke="none"/>
<circle clip-path="url(#clip172)" cx="34.7921" cy="98.808" r="3" fill="#0000ff" fill-rule="evenodd" fill-opacity="1" stroke="none"/>
<circle clip-path="url(#clip172)" cx="68.8803" cy="223.518" r="3" fill="#0000ff" fill-rule="evenodd" fill-opacity="1" stroke="none"/>
<circle clip-path="url(#clip172)" cx="51.8362" cy="211.047" r="3" fill="#0000ff" fill-rule="evenodd" fill-opacity="1" stroke="none"/>
<circle clip-path="url(#clip172)" cx="85.9244" cy="186.105" r="3" fill="#0000ff" fill-rule="evenodd" fill-opacity="1" stroke="none"/>
<circle clip-path="url(#clip172)" cx="68.8803" cy="173.634" r="3" fill="#0000ff" fill-rule="evenodd" fill-opacity="1" stroke="none"/>
<circle clip-path="url(#clip172)" cx="102.969" cy="148.692" r="3" fill="#0000ff" fill-rule="evenodd" fill-opacity="1" stroke="none"/>
<circle clip-path="url(#clip172)" cx="85.9244" cy="136.221" r="3" fill="#0000ff" fill-rule="evenodd" fill-opacity="1" stroke="none"/>
<circle clip-path="url(#clip172)" cx="68.8803" cy="148.692" r="3" fill="#0000ff" fill-rule="evenodd" fill-opacity="1" stroke="none"/>
<circle clip-path="url(#clip172)" cx="51.8362" cy="136.221" r="3" fill="#0000ff" fill-rule="evenodd" fill-opacity="1" stroke="none"/>
<circle clip-path="url(#clip172)" cx="85.9244" cy="111.279" r="3" fill="#0000ff" fill-rule="evenodd" fill-opacity="1" stroke="none"/>
<circle clip-path="url(#clip172)" cx="102.969" cy="223.518" r="3" fill="#0000ff" fill-rule="evenodd" fill-opacity="1" stroke="none"/>
<circle clip-path="url(#clip172)" cx="85.9244" cy="211.047" r="3" fill="#0000ff" fill-rule="evenodd" fill-opacity="1" stroke="none"/>
<circle clip-path="url(#clip172)" cx="17.748" cy="111.279" r="3" fill="#0000ff" fill-rule="evenodd" fill-opacity="1" stroke="none"/>
<circle clip-path="url(#clip172)" cx="102.969" cy="173.634" r="3" fill="#0000ff" fill-rule="evenodd" fill-opacity="1" stroke="none"/>
<circle clip-path="url(#clip172)" cx="34.7921" cy="73.866" r="3" fill="#0000ff" fill-rule="evenodd" fill-opacity="1" stroke="none"/>
<circle clip-path="url(#clip172)" cx="17.748" cy="211.047" r="3" fill="#0000ff" fill-rule="evenodd" fill-opacity="1" stroke="none"/>
<circle clip-path="url(#clip172)" cx="51.8362" cy="186.105" r="3" fill="#0000ff" fill-rule="evenodd" fill-opacity="1" stroke="none"/>
<circle clip-path="url(#clip172)" cx="34.7921" cy="173.634" r="3" fill="#0000ff" fill-rule="evenodd" fill-opacity="1" stroke="none"/>
<path clip-path="url(#clip170)" d="M 0 0 M17.8739 183.423 L19.3062 183.423 L19.3062 178.48 L17.748 178.792 L17.748 177.993 L19.2975 177.681 L20.1742 177.681 L20.1742 183.423 L21.6065 183.423 L21.6065 184.161 L17.8739 184.161 L17.8739 183.423 Z" fill="#000000" fill-rule="evenodd" fill-opacity="1" /><path clip-path="url(#clip170)" d="M 0 0 M37.7218 143.254 Q38.3511 143.389 38.7027 143.814 Q39.0586 144.239 39.0586 144.864 Q39.0586 145.824 38.3989 146.349 Q37.7392 146.874 36.5239 146.874 Q36.1159 146.874 35.6819 146.791 Q35.2522 146.713 34.7921 146.553 L34.7921 145.706 Q35.1567 145.919 35.5907 146.028 Q36.0248 146.136 36.4978 146.136 Q37.3225 146.136 37.7522 145.81 Q38.1862 145.485 38.1862 144.864 Q38.1862 144.291 37.7826 143.97 Q37.3833 143.645 36.6671 143.645 L35.9119 143.645 L35.9119 142.924 L36.7018 142.924 Q37.3485 142.924 37.6914 142.668 Q38.0343 142.408 38.0343 141.922 Q38.0343 141.422 37.6784 141.158 Q37.3268 140.889 36.6671 140.889 Q36.3069 140.889 35.8946 140.967 Q35.4822 141.045 34.9874 141.21 L34.9874 140.429 Q35.4866 140.29 35.9206 140.22 Q36.359 140.151 36.7452 140.151 Q37.7435 140.151 38.3251 140.607 Q38.9067 141.058 38.9067 141.83 Q38.9067 142.369 38.5985 142.742 Q38.2904 143.111 37.7218 143.254 Z" fill="#000000" fill-rule="evenodd" fill-opacity="1" /><path clip-path="url(#clip170)" d="M 0 0 M20.6734 128.561 L18.4598 132.02 L20.6734 132.02 L20.6734 128.561 M20.4433 127.797 L21.5458 127.797 L21.5458 132.02 L22.4702 132.02 L22.4702 132.749 L21.5458 132.749 L21.5458 134.277 L20.6734 134.277 L20.6734 132.749 L17.748 132.749 L17.748 131.903 L20.4433 127.797 Z" fill="#000000" fill-rule="evenodd" fill-opacity="1" /><path clip-path="url(#clip170)" d="M 0 0 M52.1097 102.855 L55.5515 102.855 L55.5515 103.593 L52.9126 103.593 L52.9126 105.181 Q53.1036 105.116 53.2945 105.086 Q53.4855 105.051 53.6765 105.051 Q54.7616 105.051 55.3952 105.646 Q56.0289 106.24 56.0289 107.256 Q56.0289 108.302 55.3779 108.884 Q54.7268 109.461 53.5419 109.461 Q53.134 109.461 52.7086 109.391 Q52.2876 109.322 51.8362 109.183 L51.8362 108.302 Q52.2268 108.515 52.6435 108.619 Q53.0602 108.723 53.5246 108.723 Q54.2754 108.723 54.7138 108.328 Q55.1522 107.933 55.1522 107.256 Q55.1522 106.579 54.7138 106.184 Q54.2754 105.789 53.5246 105.789 Q53.173 105.789 52.8215 105.867 Q52.4742 105.945 52.1097 106.11 L52.1097 102.855 Z" fill="#000000" fill-rule="evenodd" fill-opacity="1" /><path clip-path="url(#clip170)" d="M 0 0 M37.1055 93.2746 Q36.5152 93.2746 36.168 93.6783 Q35.8251 94.0819 35.8251 94.785 Q35.8251 95.4838 36.168 95.8918 Q36.5152 96.2954 37.1055 96.2954 Q37.6958 96.2954 38.0386 95.8918 Q38.3859 95.4838 38.3859 94.785 Q38.3859 94.0819 38.0386 93.6783 Q37.6958 93.2746 37.1055 93.2746 M38.8459 90.5272 L38.8459 91.3258 Q38.5161 91.1696 38.1775 91.0871 Q37.8433 91.0047 37.5135 91.0047 Q36.6454 91.0047 36.1853 91.5906 Q35.7296 92.1765 35.6645 93.3614 Q35.9206 92.9838 36.3069 92.7842 Q36.6932 92.5802 37.1576 92.5802 Q38.1341 92.5802 38.6984 93.1748 Q39.2669 93.7651 39.2669 94.785 Q39.2669 95.7833 38.6767 96.3866 Q38.0864 96.9899 37.1055 96.9899 Q35.9814 96.9899 35.3867 96.1305 Q34.7921 95.2668 34.7921 93.6305 Q34.7921 92.0941 35.5213 91.1826 Q36.2505 90.2668 37.4787 90.2668 Q37.8086 90.2668 38.1428 90.3319 Q38.4813 90.397 38.8459 90.5272 Z" fill="#000000" fill-rule="evenodd" fill-opacity="1" /><path clip-path="url(#clip170)" d="M 0 0 M68.8803 215.094 L73.047 215.094 L73.047 215.467 L70.6945 221.574 L69.7787 221.574 L71.9923 215.832 L68.8803 215.832 L68.8803 215.094 Z" fill="#000000" fill-rule="evenodd" fill-opacity="1" /><path clip-path="url(#clip170)" d="M 0 0 M54.0584 206.026 Q53.4334 206.026 53.0732 206.36 Q52.7173 206.694 52.7173 207.28 Q52.7173 207.866 53.0732 208.2 Q53.4334 208.534 54.0584 208.534 Q54.6834 208.534 55.0437 208.2 Q55.4039 207.862 55.4039 207.28 Q55.4039 206.694 55.0437 206.36 Q54.6878 206.026 54.0584 206.026 M53.1817 205.652 Q52.6175 205.514 52.3006 205.127 Q51.9881 204.741 51.9881 204.185 Q51.9881 203.409 52.5393 202.957 Q53.0949 202.506 54.0584 202.506 Q55.0263 202.506 55.5775 202.957 Q56.1287 203.409 56.1287 204.185 Q56.1287 204.741 55.8119 205.127 Q55.4994 205.514 54.9395 205.652 Q55.5732 205.8 55.9247 206.23 Q56.2806 206.659 56.2806 207.28 Q56.2806 208.222 55.7034 208.725 Q55.1305 209.229 54.0584 209.229 Q52.9864 209.229 52.4091 208.725 Q51.8362 208.222 51.8362 207.28 Q51.8362 206.659 52.1921 206.23 Q52.548 205.8 53.1817 205.652 M52.8605 204.268 Q52.8605 204.771 53.173 205.053 Q53.4899 205.336 54.0584 205.336 Q54.6227 205.336 54.9395 205.053 Q55.2607 204.771 55.2607 204.268 Q55.2607 203.764 54.9395 203.482 Q54.6227 203.2 54.0584 203.2 Q53.4899 203.2 53.173 203.482 Q52.8605 203.764 52.8605 204.268 Z" fill="#000000" fill-rule="evenodd" fill-opacity="1" /><path clip-path="url(#clip170)" d="M 0 0 M86.3411 184.026 L86.3411 183.228 Q86.6709 183.384 87.0095 183.467 Q87.348 183.549 87.6735 183.549 Q88.5416 183.549 88.9973 182.967 Q89.4574 182.381 89.5225 181.192 Q89.2707 181.565 88.8845 181.765 Q88.4982 181.965 88.0294 181.965 Q87.0572 181.965 86.4886 181.379 Q85.9244 180.789 85.9244 179.769 Q85.9244 178.77 86.5147 178.167 Q87.105 177.564 88.0859 177.564 Q89.21 177.564 89.8003 178.427 Q90.3949 179.287 90.3949 180.927 Q90.3949 182.46 89.6657 183.375 Q88.9409 184.287 87.7126 184.287 Q87.3827 184.287 87.0442 184.222 Q86.7057 184.157 86.3411 184.026 M88.0859 181.279 Q88.6761 181.279 89.019 180.875 Q89.3662 180.472 89.3662 179.769 Q89.3662 179.07 89.019 178.666 Q88.6761 178.258 88.0859 178.258 Q87.4956 178.258 87.1484 178.666 Q86.8055 179.07 86.8055 179.769 Q86.8055 180.472 87.1484 180.875 Q87.4956 181.279 88.0859 181.279 Z" fill="#000000" fill-rule="evenodd" fill-opacity="1" /><path clip-path="url(#clip170)" d="M 0 0 M69.0062 170.952 L70.4385 170.952 L70.4385 166.009 L68.8803 166.321 L68.8803 165.522 L70.4298 165.21 L71.3065 165.21 L71.3065 170.952 L72.7388 170.952 L72.7388 171.69 L69.0062 171.69 L69.0062 170.952 Z" fill="#000000" fill-rule="evenodd" fill-opacity="1" /><path clip-path="url(#clip170)" d="M 0 0 M75.5643 165.787 Q74.8872 165.787 74.5443 166.456 Q74.2058 167.12 74.2058 168.456 Q74.2058 169.789 74.5443 170.457 Q74.8872 171.121 75.5643 171.121 Q76.2457 171.121 76.5843 170.457 Q76.9271 169.789 76.9271 168.456 Q76.9271 167.12 76.5843 166.456 Q76.2457 165.787 75.5643 165.787 M75.5643 165.093 Q76.6537 165.093 77.2266 165.956 Q77.8039 166.816 77.8039 168.456 Q77.8039 170.093 77.2266 170.956 Q76.6537 171.816 75.5643 171.816 Q74.4749 171.816 73.8976 170.956 Q73.3247 170.093 73.3247 168.456 Q73.3247 166.816 73.8976 165.956 Q74.4749 165.093 75.5643 165.093 Z" fill="#000000" fill-rule="evenodd" fill-opacity="1" /><path clip-path="url(#clip170)" d="M 0 0 M103.094 146.01 L104.527 146.01 L104.527 141.067 L102.969 141.379 L102.969 140.58 L104.518 140.268 L105.395 140.268 L105.395 146.01 L106.827 146.01 L106.827 146.748 L103.094 146.748 L103.094 146.01 Z" fill="#000000" fill-rule="evenodd" fill-opacity="1" /><path clip-path="url(#clip170)" d="M 0 0 M107.929 146.01 L109.362 146.01 L109.362 141.067 L107.804 141.379 L107.804 140.58 L109.353 140.268 L110.23 140.268 L110.23 146.01 L111.662 146.01 L111.662 146.748 L107.929 146.748 L107.929 146.01 Z" fill="#000000" fill-rule="evenodd" fill-opacity="1" /><path clip-path="url(#clip170)" d="M 0 0 M86.0503 133.539 L87.4826 133.539 L87.4826 128.596 L85.9244 128.908 L85.9244 128.109 L87.4739 127.797 L88.3506 127.797 L88.3506 133.539 L89.7829 133.539 L89.7829 134.277 L86.0503 134.277 L86.0503 133.539 Z" fill="#000000" fill-rule="evenodd" fill-opacity="1" /><path clip-path="url(#clip170)" d="M 0 0 M91.4886 133.539 L94.5485 133.539 L94.5485 134.277 L90.4339 134.277 L90.4339 133.539 Q90.9331 133.023 91.7924 132.155 Q92.6561 131.282 92.8775 131.03 Q93.2985 130.557 93.4634 130.232 Q93.6327 129.902 93.6327 129.585 Q93.6327 129.069 93.2681 128.743 Q92.9079 128.418 92.3263 128.418 Q91.914 128.418 91.4539 128.561 Q90.9982 128.704 90.4773 128.995 L90.4773 128.109 Q91.0068 127.897 91.4669 127.788 Q91.927 127.68 92.3089 127.68 Q93.3159 127.68 93.9148 128.183 Q94.5138 128.687 94.5138 129.529 Q94.5138 129.928 94.3619 130.288 Q94.2143 130.644 93.8193 131.13 Q93.7108 131.256 93.1292 131.859 Q92.5476 132.458 91.4886 133.539 Z" fill="#000000" fill-rule="evenodd" fill-opacity="1" /><path clip-path="url(#clip170)" d="M 0 0 M69.0062 146.01 L70.4385 146.01 L70.4385 141.067 L68.8803 141.379 L68.8803 140.58 L70.4298 140.268 L71.3065 140.268 L71.3065 146.01 L72.7388 146.01 L72.7388 146.748 L69.0062 146.748 L69.0062 146.01 Z" fill="#000000" fill-rule="evenodd" fill-opacity="1" /><path clip-path="url(#clip170)" d="M 0 0 M76.3456 143.254 Q76.9749 143.389 77.3265 143.814 Q77.6824 144.239 77.6824 144.864 Q77.6824 145.824 77.0226 146.349 Q76.3629 146.874 75.1476 146.874 Q74.7397 146.874 74.3056 146.791 Q73.8759 146.713 73.4159 146.553 L73.4159 145.706 Q73.7805 145.919 74.2145 146.028 Q74.6485 146.136 75.1216 146.136 Q75.9462 146.136 76.3759 145.81 Q76.81 145.485 76.81 144.864 Q76.81 144.291 76.4063 143.97 Q76.007 143.645 75.2909 143.645 L74.5357 143.645 L74.5357 142.924 L75.3256 142.924 Q75.9723 142.924 76.3152 142.668 Q76.6581 142.408 76.6581 141.922 Q76.6581 141.422 76.3022 141.158 Q75.9506 140.889 75.2909 140.889 Q74.9306 140.889 74.5183 140.967 Q74.106 141.045 73.6112 141.21 L73.6112 140.429 Q74.1103 140.29 74.5443 140.22 Q74.9827 140.151 75.369 140.151 Q76.3673 140.151 76.9488 140.607 Q77.5304 141.058 77.5304 141.83 Q77.5304 142.369 77.2223 142.742 Q76.9141 143.111 76.3456 143.254 Z" fill="#000000" fill-rule="evenodd" fill-opacity="1" /><path clip-path="url(#clip170)" d="M 0 0 M51.9621 133.539 L53.3944 133.539 L53.3944 128.596 L51.8362 128.908 L51.8362 128.109 L53.3857 127.797 L54.2624 127.797 L54.2624 133.539 L55.6947 133.539 L55.6947 134.277 L51.9621 134.277 L51.9621 133.539 Z" fill="#000000" fill-rule="evenodd" fill-opacity="1" /><path clip-path="url(#clip170)" d="M 0 0 M59.0541 128.561 L56.8405 132.02 L59.0541 132.02 L59.0541 128.561 M58.824 127.797 L59.9265 127.797 L59.9265 132.02 L60.8509 132.02 L60.8509 132.749 L59.9265 132.749 L59.9265 134.277 L59.0541 134.277 L59.0541 132.749 L56.1287 132.749 L56.1287 131.903 L58.824 127.797 Z" fill="#000000" fill-rule="evenodd" fill-opacity="1" /><path clip-path="url(#clip170)" d="M 0 0 M86.0503 108.597 L87.4826 108.597 L87.4826 103.654 L85.9244 103.966 L85.9244 103.168 L87.4739 102.855 L88.3506 102.855 L88.3506 108.597 L89.7829 108.597 L89.7829 109.335 L86.0503 109.335 L86.0503 108.597 Z" fill="#000000" fill-rule="evenodd" fill-opacity="1" /><path clip-path="url(#clip170)" d="M 0 0 M90.7421 102.855 L94.1839 102.855 L94.1839 103.593 L91.545 103.593 L91.545 105.181 Q91.736 105.116 91.927 105.086 Q92.118 105.051 92.3089 105.051 Q93.394 105.051 94.0277 105.646 Q94.6613 106.24 94.6613 107.256 Q94.6613 108.302 94.0103 108.884 Q93.3593 109.461 92.1744 109.461 Q91.7664 109.461 91.341 109.391 Q90.92 109.322 90.4687 109.183 L90.4687 108.302 Q90.8593 108.515 91.2759 108.619 Q91.6926 108.723 92.157 108.723 Q92.9079 108.723 93.3462 108.328 Q93.7846 107.933 93.7846 107.256 Q93.7846 106.579 93.3462 106.184 Q92.9079 105.789 92.157 105.789 Q91.8055 105.789 91.4539 105.867 Q91.1067 105.945 90.7421 106.11 L90.7421 102.855 Z" fill="#000000" fill-rule="evenodd" fill-opacity="1" /><path clip-path="url(#clip170)" d="M 0 0 M103.094 220.836 L104.527 220.836 L104.527 215.893 L102.969 216.205 L102.969 215.406 L104.518 215.094 L105.395 215.094 L105.395 220.836 L106.827 220.836 L106.827 221.574 L103.094 221.574 L103.094 220.836 Z" fill="#000000" fill-rule="evenodd" fill-opacity="1" /><path clip-path="url(#clip170)" d="M 0 0 M107.556 215.094 L111.723 215.094 L111.723 215.467 L109.37 221.574 L108.455 221.574 L110.668 215.832 L107.556 215.832 L107.556 215.094 Z" fill="#000000" fill-rule="evenodd" fill-opacity="1" /><path clip-path="url(#clip170)" d="M 0 0 M86.0503 208.365 L87.4826 208.365 L87.4826 203.422 L85.9244 203.734 L85.9244 202.935 L87.4739 202.623 L88.3506 202.623 L88.3506 208.365 L89.7829 208.365 L89.7829 209.103 L86.0503 209.103 L86.0503 208.365 Z" fill="#000000" fill-rule="evenodd" fill-opacity="1" /><path clip-path="url(#clip170)" d="M 0 0 M92.6084 206.026 Q91.9834 206.026 91.6232 206.36 Q91.2673 206.694 91.2673 207.28 Q91.2673 207.866 91.6232 208.2 Q91.9834 208.534 92.6084 208.534 Q93.2334 208.534 93.5936 208.2 Q93.9539 207.862 93.9539 207.28 Q93.9539 206.694 93.5936 206.36 Q93.2377 206.026 92.6084 206.026 M91.7317 205.652 Q91.1674 205.514 90.8506 205.127 Q90.5381 204.741 90.5381 204.185 Q90.5381 203.409 91.0893 202.957 Q91.6449 202.506 92.6084 202.506 Q93.5763 202.506 94.1275 202.957 Q94.6787 203.409 94.6787 204.185 Q94.6787 204.741 94.3619 205.127 Q94.0494 205.514 93.4895 205.652 Q94.1232 205.8 94.4747 206.23 Q94.8306 206.659 94.8306 207.28 Q94.8306 208.222 94.2534 208.725 Q93.6804 209.229 92.6084 209.229 Q91.5364 209.229 90.9591 208.725 Q90.3862 208.222 90.3862 207.28 Q90.3862 206.659 90.7421 206.23 Q91.098 205.8 91.7317 205.652 M91.4105 204.268 Q91.4105 204.771 91.723 205.053 Q92.0398 205.336 92.6084 205.336 Q93.1726 205.336 93.4895 205.053 Q93.8107 204.771 93.8107 204.268 Q93.8107 203.764 93.4895 203.482 Q93.1726 203.2 92.6084 203.2 Q92.0398 203.2 91.723 203.482 Q91.4105 203.764 91.4105 204.268 Z" fill="#000000" fill-rule="evenodd" fill-opacity="1" /><path clip-path="url(#clip170)" d="M 0 0 M17.8739 108.597 L19.3062 108.597 L19.3062 103.654 L17.748 103.966 L17.748 103.168 L19.2975 102.855 L20.1742 102.855 L20.1742 108.597 L21.6065 108.597 L21.6065 109.335 L17.8739 109.335 L17.8739 108.597 Z" fill="#000000" fill-rule="evenodd" fill-opacity="1" /><path clip-path="url(#clip170)" d="M 0 0 M22.5831 109.2 L22.5831 108.402 Q22.9129 108.558 23.2515 108.641 Q23.59 108.723 23.9155 108.723 Q24.7836 108.723 25.2393 108.141 Q25.6994 107.556 25.7645 106.366 Q25.5127 106.74 25.1265 106.939 Q24.7402 107.139 24.2714 107.139 Q23.2992 107.139 22.7306 106.553 Q22.1664 105.963 22.1664 104.943 Q22.1664 103.944 22.7567 103.341 Q23.347 102.738 24.3279 102.738 Q25.452 102.738 26.0423 103.602 Q26.6369 104.461 26.6369 106.102 Q26.6369 107.634 25.9077 108.549 Q25.1829 109.461 23.9546 109.461 Q23.6247 109.461 23.2862 109.396 Q22.9477 109.331 22.5831 109.2 M24.3279 106.453 Q24.9181 106.453 25.261 106.049 Q25.6082 105.646 25.6082 104.943 Q25.6082 104.244 25.261 103.84 Q24.9181 103.432 24.3279 103.432 Q23.7376 103.432 23.3904 103.84 Q23.0475 104.244 23.0475 104.943 Q23.0475 105.646 23.3904 106.049 Q23.7376 106.453 24.3279 106.453 Z" fill="#000000" fill-rule="evenodd" fill-opacity="1" /><path clip-path="url(#clip170)" d="M 0 0 M104.023 170.952 L107.083 170.952 L107.083 171.69 L102.969 171.69 L102.969 170.952 Q103.468 170.436 104.327 169.568 Q105.191 168.695 105.412 168.443 Q105.833 167.97 105.998 167.645 Q106.167 167.315 106.167 166.998 Q106.167 166.482 105.803 166.156 Q105.442 165.831 104.861 165.831 Q104.449 165.831 103.988 165.974 Q103.533 166.117 103.012 166.408 L103.012 165.522 Q103.541 165.31 104.001 165.201 Q104.462 165.093 104.843 165.093 Q105.85 165.093 106.449 165.596 Q107.048 166.1 107.048 166.942 Q107.048 167.341 106.896 167.701 Q106.749 168.057 106.354 168.543 Q106.245 168.669 105.664 169.272 Q105.082 169.871 104.023 170.952 Z" fill="#000000" fill-rule="evenodd" fill-opacity="1" /><path clip-path="url(#clip170)" d="M 0 0 M109.909 165.787 Q109.231 165.787 108.889 166.456 Q108.55 167.12 108.55 168.456 Q108.55 169.789 108.889 170.457 Q109.231 171.121 109.909 171.121 Q110.59 171.121 110.929 170.457 Q111.271 169.789 111.271 168.456 Q111.271 167.12 110.929 166.456 Q110.59 165.787 109.909 165.787 M109.909 165.093 Q110.998 165.093 111.571 165.956 Q112.148 166.816 112.148 168.456 Q112.148 170.093 111.571 170.956 Q110.998 171.816 109.909 171.816 Q108.819 171.816 108.242 170.956 Q107.669 170.093 107.669 168.456 Q107.669 166.816 108.242 165.956 Q108.819 165.093 109.909 165.093 Z" fill="#000000" fill-rule="evenodd" fill-opacity="1" /><path clip-path="url(#clip170)" d="M 0 0 M35.8468 71.1842 L38.9067 71.1842 L38.9067 71.922 L34.7921 71.922 L34.7921 71.1842 Q35.2913 70.6677 36.1506 69.7996 Q37.0143 68.9273 37.2357 68.6755 Q37.6567 68.2024 37.8216 67.8769 Q37.9909 67.5471 37.9909 67.2302 Q37.9909 66.7137 37.6263 66.3882 Q37.2661 66.0627 36.6845 66.0627 Q36.2722 66.0627 35.8121 66.2059 Q35.3564 66.3491 34.8355 66.6399 L34.8355 65.7545 Q35.365 65.5419 35.8251 65.4333 Q36.2852 65.3248 36.6671 65.3248 Q37.6741 65.3248 38.273 65.8283 Q38.872 66.3318 38.872 67.1738 Q38.872 67.5731 38.7201 67.9333 Q38.5725 68.2892 38.1775 68.7753 Q38.069 68.9012 37.4874 69.5045 Q36.9058 70.1035 35.8468 71.1842 Z" fill="#000000" fill-rule="evenodd" fill-opacity="1" /><path clip-path="url(#clip170)" d="M 0 0 M40.0091 71.1842 L41.4414 71.1842 L41.4414 66.2406 L39.8832 66.5531 L39.8832 65.7545 L41.4327 65.442 L42.3094 65.442 L42.3094 71.1842 L43.7417 71.1842 L43.7417 71.922 L40.0091 71.922 L40.0091 71.1842 Z" fill="#000000" fill-rule="evenodd" fill-opacity="1" /><path clip-path="url(#clip170)" d="M 0 0 M18.8027 208.365 L21.8626 208.365 L21.8626 209.103 L17.748 209.103 L17.748 208.365 Q18.2472 207.849 19.1065 206.981 Q19.9702 206.108 20.1916 205.856 Q20.6126 205.383 20.7775 205.058 Q20.9468 204.728 20.9468 204.411 Q20.9468 203.895 20.5822 203.569 Q20.222 203.244 19.6404 203.244 Q19.2281 203.244 18.768 203.387 Q18.3123 203.53 17.7914 203.821 L17.7914 202.935 Q18.3209 202.723 18.781 202.614 Q19.2411 202.506 19.623 202.506 Q20.63 202.506 21.2289 203.009 Q21.8279 203.513 21.8279 204.355 Q21.8279 204.754 21.676 205.114 Q21.5284 205.47 21.1334 205.956 Q21.0249 206.082 20.4433 206.685 Q19.8617 207.284 18.8027 208.365 Z" fill="#000000" fill-rule="evenodd" fill-opacity="1" /><path clip-path="url(#clip170)" d="M 0 0 M23.5683 208.365 L26.6282 208.365 L26.6282 209.103 L22.5136 209.103 L22.5136 208.365 Q23.0128 207.849 23.8721 206.981 Q24.7358 206.108 24.9572 205.856 Q25.3782 205.383 25.5431 205.058 Q25.7124 204.728 25.7124 204.411 Q25.7124 203.895 25.3478 203.569 Q24.9876 203.244 24.406 203.244 Q23.9937 203.244 23.5336 203.387 Q23.0779 203.53 22.557 203.821 L22.557 202.935 Q23.0865 202.723 23.5466 202.614 Q24.0067 202.506 24.3886 202.506 Q25.3956 202.506 25.9945 203.009 Q26.5935 203.513 26.5935 204.355 Q26.5935 204.754 26.4416 205.114 Q26.294 205.47 25.899 205.956 Q25.7905 206.082 25.2089 206.685 Q24.6273 207.284 23.5683 208.365 Z" fill="#000000" fill-rule="evenodd" fill-opacity="1" /><path clip-path="url(#clip170)" d="M 0 0 M52.8909 183.423 L55.9508 183.423 L55.9508 184.161 L51.8362 184.161 L51.8362 183.423 Q52.3353 182.907 53.1947 182.039 Q54.0584 181.166 54.2798 180.914 Q54.7008 180.441 54.8657 180.116 Q55.035 179.786 55.035 179.469 Q55.035 178.953 54.6704 178.627 Q54.3102 178.302 53.7286 178.302 Q53.3162 178.302 52.8562 178.445 Q52.4005 178.588 51.8796 178.879 L51.8796 177.993 Q52.4091 177.781 52.8692 177.672 Q53.3293 177.564 53.7112 177.564 Q54.7181 177.564 55.3171 178.067 Q55.9161 178.571 55.9161 179.413 Q55.9161 179.812 55.7642 180.172 Q55.6166 180.528 55.2216 181.014 Q55.1131 181.14 54.5315 181.743 Q53.9499 182.342 52.8909 183.423 Z" fill="#000000" fill-rule="evenodd" fill-opacity="1" /><path clip-path="url(#clip170)" d="M 0 0 M59.5575 180.667 Q60.1869 180.802 60.5384 181.227 Q60.8943 181.652 60.8943 182.277 Q60.8943 183.236 60.2346 183.762 Q59.5749 184.287 58.3596 184.287 Q57.9516 184.287 57.5176 184.204 Q57.0879 184.126 56.6279 183.966 L56.6279 183.119 Q56.9924 183.332 57.4265 183.44 Q57.8605 183.549 58.3336 183.549 Q59.1582 183.549 59.5879 183.223 Q60.0219 182.898 60.0219 182.277 Q60.0219 181.704 59.6183 181.383 Q59.219 181.058 58.5029 181.058 L57.7476 181.058 L57.7476 180.337 L58.5376 180.337 Q59.1843 180.337 59.5272 180.081 Q59.87 179.821 59.87 179.335 Q59.87 178.835 59.5141 178.571 Q59.1626 178.302 58.5029 178.302 Q58.1426 178.302 57.7303 178.38 Q57.318 178.458 56.8232 178.623 L56.8232 177.842 Q57.3223 177.703 57.7563 177.633 Q58.1947 177.564 58.581 177.564 Q59.5792 177.564 60.1608 178.02 Q60.7424 178.471 60.7424 179.243 Q60.7424 179.782 60.4343 180.155 Q60.1261 180.524 59.5575 180.667 Z" fill="#000000" fill-rule="evenodd" fill-opacity="1" /><path clip-path="url(#clip170)" d="M 0 0 M35.8468 170.952 L38.9067 170.952 L38.9067 171.69 L34.7921 171.69 L34.7921 170.952 Q35.2913 170.436 36.1506 169.568 Q37.0143 168.695 37.2357 168.443 Q37.6567 167.97 37.8216 167.645 Q37.9909 167.315 37.9909 166.998 Q37.9909 166.482 37.6263 166.156 Q37.2661 165.831 36.6845 165.831 Q36.2722 165.831 35.8121 165.974 Q35.3564 166.117 34.8355 166.408 L34.8355 165.522 Q35.365 165.31 35.8251 165.201 Q36.2852 165.093 36.6671 165.093 Q37.6741 165.093 38.273 165.596 Q38.872 166.1 38.872 166.942 Q38.872 167.341 38.7201 167.701 Q38.5725 168.057 38.1775 168.543 Q38.069 168.669 37.4874 169.272 Q36.9058 169.871 35.8468 170.952 Z" fill="#000000" fill-rule="evenodd" fill-opacity="1" /><path clip-path="url(#clip170)" d="M 0 0 M42.266 165.974 L40.0525 169.433 L42.266 169.433 L42.266 165.974 M42.036 165.21 L43.1384 165.21 L43.1384 169.433 L44.0629 169.433 L44.0629 170.162 L43.1384 170.162 L43.1384 171.69 L42.266 171.69 L42.266 170.162 L39.3407 170.162 L39.3407 169.316 L42.036 165.21 Z" fill="#000000" fill-rule="evenodd" fill-opacity="1" /><circle clip-path="url(#clip172)" cx="17.748" cy="36.453" r="3" fill="#0000ff" fill-rule="evenodd" fill-opacity="1" stroke="none"/>
<circle clip-path="url(#clip172)" cx="102.969" cy="98.808" r="3" fill="#0000ff" fill-rule="evenodd" fill-opacity="1" stroke="none"/>
<circle clip-path="url(#clip172)" cx="68.8803" cy="73.866" r="3" fill="#0000ff" fill-rule="evenodd" fill-opacity="1" stroke="none"/>
<circle clip-path="url(#clip172)" cx="51.8362" cy="61.395" r="3" fill="#0000ff" fill-rule="evenodd" fill-opacity="1" stroke="none"/>
<circle clip-path="url(#clip172)" cx="85.9244" cy="36.453" r="3" fill="#0000ff" fill-rule="evenodd" fill-opacity="1" stroke="none"/>
<circle clip-path="url(#clip172)" cx="68.8803" cy="23.9821" r="3" fill="#0000ff" fill-rule="evenodd" fill-opacity="1" stroke="none"/>
<circle clip-path="url(#clip172)" cx="68.8803" cy="98.808" r="3" fill="#0000ff" fill-rule="evenodd" fill-opacity="1" stroke="none"/>
<circle clip-path="url(#clip172)" cx="102.969" cy="73.866" r="3" fill="#0000ff" fill-rule="evenodd" fill-opacity="1" stroke="none"/>
<circle clip-path="url(#clip172)" cx="85.9244" cy="61.395" r="3" fill="#0000ff" fill-rule="evenodd" fill-opacity="1" stroke="none"/>
<circle clip-path="url(#clip172)" cx="102.969" cy="23.9821" r="3" fill="#0000ff" fill-rule="evenodd" fill-opacity="1" stroke="none"/>
<circle clip-path="url(#clip172)" cx="17.748" cy="61.395" r="3" fill="#0000ff" fill-rule="evenodd" fill-opacity="1" stroke="none"/>
<circle clip-path="url(#clip172)" cx="51.8362" cy="36.453" r="3" fill="#0000ff" fill-rule="evenodd" fill-opacity="1" stroke="none"/>
<circle clip-path="url(#clip172)" cx="34.7921" cy="23.9821" r="3" fill="#0000ff" fill-rule="evenodd" fill-opacity="1" stroke="none"/>
<path clip-path="url(#clip170)" d="M 0 0 M17.8739 33.7712 L19.3062 33.7712 L19.3062 28.8277 L17.748 29.1402 L17.748 28.3415 L19.2975 28.029 L20.1742 28.029 L20.1742 33.7712 L21.6065 33.7712 L21.6065 34.509 L17.8739 34.509 L17.8739 33.7712 Z" fill="#000000" fill-rule="evenodd" fill-opacity="1" /><path clip-path="url(#clip170)" d="M 0 0 M104.023 96.1262 L107.083 96.1262 L107.083 96.864 L102.969 96.864 L102.969 96.1262 Q103.468 95.6097 104.327 94.7416 Q105.191 93.8692 105.412 93.6175 Q105.833 93.1444 105.998 92.8189 Q106.167 92.489 106.167 92.1722 Q106.167 91.6557 105.803 91.3302 Q105.442 91.0047 104.861 91.0047 Q104.449 91.0047 103.988 91.1479 Q103.533 91.2911 103.012 91.5819 L103.012 90.6965 Q103.541 90.4838 104.001 90.3753 Q104.462 90.2668 104.843 90.2668 Q105.85 90.2668 106.449 90.7703 Q107.048 91.2738 107.048 92.1158 Q107.048 92.5151 106.896 92.8753 Q106.749 93.2312 106.354 93.7173 Q106.245 93.8432 105.664 94.4465 Q105.082 95.0454 104.023 96.1262 Z" fill="#000000" fill-rule="evenodd" fill-opacity="1" /><path clip-path="url(#clip170)" d="M 0 0 M68.8803 65.442 L73.047 65.442 L73.047 65.8153 L70.6945 71.922 L69.7787 71.922 L71.9923 66.1799 L68.8803 66.1799 L68.8803 65.442 Z" fill="#000000" fill-rule="evenodd" fill-opacity="1" /><path clip-path="url(#clip170)" d="M 0 0 M54.0584 56.3738 Q53.4334 56.3738 53.0732 56.708 Q52.7173 57.0422 52.7173 57.6281 Q52.7173 58.2141 53.0732 58.5483 Q53.4334 58.8825 54.0584 58.8825 Q54.6834 58.8825 55.0437 58.5483 Q55.4039 58.2097 55.4039 57.6281 Q55.4039 57.0422 55.0437 56.708 Q54.6878 56.3738 54.0584 56.3738 M53.1817 56.0005 Q52.6175 55.8616 52.3006 55.4754 Q51.9881 55.0891 51.9881 54.5335 Q51.9881 53.7566 52.5393 53.3052 Q53.0949 52.8538 54.0584 52.8538 Q55.0263 52.8538 55.5775 53.3052 Q56.1287 53.7566 56.1287 54.5335 Q56.1287 55.0891 55.8119 55.4754 Q55.4994 55.8616 54.9395 56.0005 Q55.5732 56.1481 55.9247 56.5778 Q56.2806 57.0075 56.2806 57.6281 Q56.2806 58.57 55.7034 59.0734 Q55.1305 59.5769 54.0584 59.5769 Q52.9864 59.5769 52.4091 59.0734 Q51.8362 58.57 51.8362 57.6281 Q51.8362 57.0075 52.1921 56.5778 Q52.548 56.1481 53.1817 56.0005 M52.8605 54.616 Q52.8605 55.1195 53.173 55.4016 Q53.4899 55.6837 54.0584 55.6837 Q54.6227 55.6837 54.9395 55.4016 Q55.2607 55.1195 55.2607 54.616 Q55.2607 54.1125 54.9395 53.8304 Q54.6227 53.5483 54.0584 53.5483 Q53.4899 53.5483 53.173 53.8304 Q52.8605 54.1125 52.8605 54.616 Z" fill="#000000" fill-rule="evenodd" fill-opacity="1" /><path clip-path="url(#clip170)" d="M 0 0 M86.3411 34.3745 L86.3411 33.5759 Q86.6709 33.7321 87.0095 33.8146 Q87.348 33.8971 87.6735 33.8971 Q88.5416 33.8971 88.9973 33.3155 Q89.4574 32.7295 89.5225 31.5403 Q89.2707 31.9136 88.8845 32.1132 Q88.4982 32.3129 88.0294 32.3129 Q87.0572 32.3129 86.4886 31.7269 Q85.9244 31.1367 85.9244 30.1167 Q85.9244 29.1185 86.5147 28.5152 Q87.105 27.9119 88.0859 27.9119 Q89.21 27.9119 89.8003 28.7756 Q90.3949 29.6349 90.3949 31.2756 Q90.3949 32.8077 89.6657 33.7235 Q88.9409 34.6349 87.7126 34.6349 Q87.3827 34.6349 87.0442 34.5698 Q86.7057 34.5047 86.3411 34.3745 M88.0859 31.6271 Q88.6761 31.6271 89.019 31.2235 Q89.3662 30.8198 89.3662 30.1167 Q89.3662 29.4179 89.019 29.0143 Q88.6761 28.6063 88.0859 28.6063 Q87.4956 28.6063 87.1484 29.0143 Q86.8055 29.4179 86.8055 30.1167 Q86.8055 30.8198 87.1484 31.2235 Q87.4956 31.6271 88.0859 31.6271 Z" fill="#000000" fill-rule="evenodd" fill-opacity="1" /><path clip-path="url(#clip170)" d="M 0 0 M69.0062 21.3002 L70.4385 21.3002 L70.4385 16.3567 L68.8803 16.6692 L68.8803 15.8706 L70.4298 15.5581 L71.3065 15.5581 L71.3065 21.3002 L72.7388 21.3002 L72.7388 22.0381 L69.0062 22.0381 L69.0062 21.3002 Z" fill="#000000" fill-rule="evenodd" fill-opacity="1" /><path clip-path="url(#clip170)" d="M 0 0 M75.5643 16.1353 Q74.8872 16.1353 74.5443 16.8037 Q74.2058 17.4678 74.2058 18.8046 Q74.2058 20.137 74.5443 20.8054 Q74.8872 21.4695 75.5643 21.4695 Q76.2457 21.4695 76.5843 20.8054 Q76.9271 20.137 76.9271 18.8046 Q76.9271 17.4678 76.5843 16.8037 Q76.2457 16.1353 75.5643 16.1353 M75.5643 15.4409 Q76.6537 15.4409 77.2266 16.3046 Q77.8039 17.1639 77.8039 18.8046 Q77.8039 20.4408 77.2266 21.3046 Q76.6537 22.1639 75.5643 22.1639 Q74.4749 22.1639 73.8976 21.3046 Q73.3247 20.4408 73.3247 18.8046 Q73.3247 17.1639 73.8976 16.3046 Q74.4749 15.4409 75.5643 15.4409 Z" fill="#000000" fill-rule="evenodd" fill-opacity="1" /><path clip-path="url(#clip170)" d="M 0 0 M69.0062 96.1262 L70.4385 96.1262 L70.4385 91.1826 L68.8803 91.4951 L68.8803 90.6965 L70.4298 90.384 L71.3065 90.384 L71.3065 96.1262 L72.7388 96.1262 L72.7388 96.864 L69.0062 96.864 L69.0062 96.1262 Z" fill="#000000" fill-rule="evenodd" fill-opacity="1" /><path clip-path="url(#clip170)" d="M 0 0 M75.6728 93.2746 Q75.0825 93.2746 74.7353 93.6783 Q74.3924 94.0819 74.3924 94.785 Q74.3924 95.4838 74.7353 95.8918 Q75.0825 96.2954 75.6728 96.2954 Q76.2631 96.2954 76.606 95.8918 Q76.9532 95.4838 76.9532 94.785 Q76.9532 94.0819 76.606 93.6783 Q76.2631 93.2746 75.6728 93.2746 M77.4133 90.5272 L77.4133 91.3258 Q77.0834 91.1696 76.7449 91.0871 Q76.4107 91.0047 76.0808 91.0047 Q75.2127 91.0047 74.7527 91.5906 Q74.297 92.1765 74.2318 93.3614 Q74.4879 92.9838 74.8742 92.7842 Q75.2605 92.5802 75.7249 92.5802 Q76.7015 92.5802 77.2657 93.1748 Q77.8343 93.7651 77.8343 94.785 Q77.8343 95.7833 77.244 96.3866 Q76.6537 96.9899 75.6728 96.9899 Q74.5487 96.9899 73.9541 96.1305 Q73.3595 95.2668 73.3595 93.6305 Q73.3595 92.0941 74.0886 91.1826 Q74.8178 90.2668 76.0461 90.2668 Q76.3759 90.2668 76.7101 90.3319 Q77.0487 90.397 77.4133 90.5272 Z" fill="#000000" fill-rule="evenodd" fill-opacity="1" /><path clip-path="url(#clip170)" d="M 0 0 M103.094 71.1842 L104.527 71.1842 L104.527 66.2406 L102.969 66.5531 L102.969 65.7545 L104.518 65.442 L105.395 65.442 L105.395 71.1842 L106.827 71.1842 L106.827 71.922 L103.094 71.922 L103.094 71.1842 Z" fill="#000000" fill-rule="evenodd" fill-opacity="1" /><path clip-path="url(#clip170)" d="M 0 0 M107.556 65.442 L111.723 65.442 L111.723 65.8153 L109.37 71.922 L108.455 71.922 L110.668 66.1799 L107.556 66.1799 L107.556 65.442 Z" fill="#000000" fill-rule="evenodd" fill-opacity="1" /><path clip-path="url(#clip170)" d="M 0 0 M86.0503 58.7132 L87.4826 58.7132 L87.4826 53.7696 L85.9244 54.0821 L85.9244 53.2835 L87.4739 52.971 L88.3506 52.971 L88.3506 58.7132 L89.7829 58.7132 L89.7829 59.451 L86.0503 59.451 L86.0503 58.7132 Z" fill="#000000" fill-rule="evenodd" fill-opacity="1" /><path clip-path="url(#clip170)" d="M 0 0 M92.6084 56.3738 Q91.9834 56.3738 91.6232 56.708 Q91.2673 57.0422 91.2673 57.6281 Q91.2673 58.2141 91.6232 58.5483 Q91.9834 58.8825 92.6084 58.8825 Q93.2334 58.8825 93.5936 58.5483 Q93.9539 58.2097 93.9539 57.6281 Q93.9539 57.0422 93.5936 56.708 Q93.2377 56.3738 92.6084 56.3738 M91.7317 56.0005 Q91.1674 55.8616 90.8506 55.4754 Q90.5381 55.0891 90.5381 54.5335 Q90.5381 53.7566 91.0893 53.3052 Q91.6449 52.8538 92.6084 52.8538 Q93.5763 52.8538 94.1275 53.3052 Q94.6787 53.7566 94.6787 54.5335 Q94.6787 55.0891 94.3619 55.4754 Q94.0494 55.8616 93.4895 56.0005 Q94.1232 56.1481 94.4747 56.5778 Q94.8306 57.0075 94.8306 57.6281 Q94.8306 58.57 94.2534 59.0734 Q93.6804 59.5769 92.6084 59.5769 Q91.5364 59.5769 90.9591 59.0734 Q90.3862 58.57 90.3862 57.6281 Q90.3862 57.0075 90.7421 56.5778 Q91.098 56.1481 91.7317 56.0005 M91.4105 54.616 Q91.4105 55.1195 91.723 55.4016 Q92.0398 55.6837 92.6084 55.6837 Q93.1726 55.6837 93.4895 55.4016 Q93.8107 55.1195 93.8107 54.616 Q93.8107 54.1125 93.4895 53.8304 Q93.1726 53.5483 92.6084 53.5483 Q92.0398 53.5483 91.723 53.8304 Q91.4105 54.1125 91.4105 54.616 Z" fill="#000000" fill-rule="evenodd" fill-opacity="1" /><path clip-path="url(#clip170)" d="M 0 0 M104.023 21.3002 L107.083 21.3002 L107.083 22.0381 L102.969 22.0381 L102.969 21.3002 Q103.468 20.7837 104.327 19.9157 Q105.191 19.0433 105.412 18.7915 Q105.833 18.3185 105.998 17.9929 Q106.167 17.6631 106.167 17.3462 Q106.167 16.8297 105.803 16.5042 Q105.442 16.1787 104.861 16.1787 Q104.449 16.1787 103.988 16.3219 Q103.533 16.4652 103.012 16.756 L103.012 15.8706 Q103.541 15.6579 104.001 15.5494 Q104.462 15.4409 104.843 15.4409 Q105.85 15.4409 106.449 15.9443 Q107.048 16.4478 107.048 17.2898 Q107.048 17.6891 106.896 18.0494 Q106.749 18.4053 106.354 18.8914 Q106.245 19.0172 105.664 19.6205 Q105.082 20.2195 104.023 21.3002 Z" fill="#000000" fill-rule="evenodd" fill-opacity="1" /><path clip-path="url(#clip170)" d="M 0 0 M109.909 16.1353 Q109.231 16.1353 108.889 16.8037 Q108.55 17.4678 108.55 18.8046 Q108.55 20.137 108.889 20.8054 Q109.231 21.4695 109.909 21.4695 Q110.59 21.4695 110.929 20.8054 Q111.271 20.137 111.271 18.8046 Q111.271 17.4678 110.929 16.8037 Q110.59 16.1353 109.909 16.1353 M109.909 15.4409 Q110.998 15.4409 111.571 16.3046 Q112.148 17.1639 112.148 18.8046 Q112.148 20.4408 111.571 21.3046 Q110.998 22.1639 109.909 22.1639 Q108.819 22.1639 108.242 21.3046 Q107.669 20.4408 107.669 18.8046 Q107.669 17.1639 108.242 16.3046 Q108.819 15.4409 109.909 15.4409 Z" fill="#000000" fill-rule="evenodd" fill-opacity="1" /><path clip-path="url(#clip170)" d="M 0 0 M18.8027 58.7132 L21.8626 58.7132 L21.8626 59.451 L17.748 59.451 L17.748 58.7132 Q18.2472 58.1967 19.1065 57.3286 Q19.9702 56.4563 20.1916 56.2045 Q20.6126 55.7314 20.7775 55.4059 Q20.9468 55.0761 20.9468 54.7592 Q20.9468 54.2427 20.5822 53.9172 Q20.222 53.5917 19.6404 53.5917 Q19.2281 53.5917 18.768 53.7349 Q18.3123 53.8781 17.7914 54.1689 L17.7914 53.2835 Q18.3209 53.0709 18.781 52.9624 Q19.2411 52.8538 19.623 52.8538 Q20.63 52.8538 21.2289 53.3573 Q21.8279 53.8608 21.8279 54.7028 Q21.8279 55.1021 21.676 55.4623 Q21.5284 55.8182 21.1334 56.3043 Q21.0249 56.4302 20.4433 57.0335 Q19.8617 57.6325 18.8027 58.7132 Z" fill="#000000" fill-rule="evenodd" fill-opacity="1" /><path clip-path="url(#clip170)" d="M 0 0 M23.5683 58.7132 L26.6282 58.7132 L26.6282 59.451 L22.5136 59.451 L22.5136 58.7132 Q23.0128 58.1967 23.8721 57.3286 Q24.7358 56.4563 24.9572 56.2045 Q25.3782 55.7314 25.5431 55.4059 Q25.7124 55.0761 25.7124 54.7592 Q25.7124 54.2427 25.3478 53.9172 Q24.9876 53.5917 24.406 53.5917 Q23.9937 53.5917 23.5336 53.7349 Q23.0779 53.8781 22.557 54.1689 L22.557 53.2835 Q23.0865 53.0709 23.5466 52.9624 Q24.0067 52.8538 24.3886 52.8538 Q25.3956 52.8538 25.9945 53.3573 Q26.5935 53.8608 26.5935 54.7028 Q26.5935 55.1021 26.4416 55.4623 Q26.294 55.8182 25.899 56.3043 Q25.7905 56.4302 25.2089 57.0335 Q24.6273 57.6325 23.5683 58.7132 Z" fill="#000000" fill-rule="evenodd" fill-opacity="1" /><path clip-path="url(#clip170)" d="M 0 0 M52.8909 33.7712 L55.9508 33.7712 L55.9508 34.509 L51.8362 34.509 L51.8362 33.7712 Q52.3353 33.2547 53.1947 32.3867 Q54.0584 31.5143 54.2798 31.2625 Q54.7008 30.7895 54.8657 30.4639 Q55.035 30.1341 55.035 29.8172 Q55.035 29.3007 54.6704 28.9752 Q54.3102 28.6497 53.7286 28.6497 Q53.3162 28.6497 52.8562 28.7929 Q52.4005 28.9362 51.8796 29.227 L51.8796 28.3415 Q52.4091 28.1289 52.8692 28.0204 Q53.3293 27.9119 53.7112 27.9119 Q54.7181 27.9119 55.3171 28.4153 Q55.9161 28.9188 55.9161 29.7608 Q55.9161 30.1601 55.7642 30.5204 Q55.6166 30.8763 55.2216 31.3624 Q55.1131 31.4882 54.5315 32.0915 Q53.9499 32.6905 52.8909 33.7712 Z" fill="#000000" fill-rule="evenodd" fill-opacity="1" /><path clip-path="url(#clip170)" d="M 0 0 M59.5575 31.0151 Q60.1869 31.1497 60.5384 31.575 Q60.8943 32.0004 60.8943 32.6254 Q60.8943 33.5846 60.2346 34.1097 Q59.5749 34.6349 58.3596 34.6349 Q57.9516 34.6349 57.5176 34.5525 Q57.0879 34.4743 56.6279 34.3137 L56.6279 33.4674 Q56.9924 33.6801 57.4265 33.7886 Q57.8605 33.8971 58.3336 33.8971 Q59.1582 33.8971 59.5879 33.5716 Q60.0219 33.246 60.0219 32.6254 Q60.0219 32.0525 59.6183 31.7313 Q59.219 31.4058 58.5029 31.4058 L57.7476 31.4058 L57.7476 30.6853 L58.5376 30.6853 Q59.1843 30.6853 59.5272 30.4292 Q59.87 30.1688 59.87 29.6827 Q59.87 29.1836 59.5141 28.9188 Q59.1626 28.6497 58.5029 28.6497 Q58.1426 28.6497 57.7303 28.7278 Q57.318 28.806 56.8232 28.9709 L56.8232 28.1896 Q57.3223 28.0507 57.7563 27.9813 Q58.1947 27.9119 58.581 27.9119 Q59.5792 27.9119 60.1608 28.3676 Q60.7424 28.819 60.7424 29.5915 Q60.7424 30.1297 60.4343 30.503 Q60.1261 30.8719 59.5575 31.0151 Z" fill="#000000" fill-rule="evenodd" fill-opacity="1" /><path clip-path="url(#clip170)" d="M 0 0 M35.8468 21.3002 L38.9067 21.3002 L38.9067 22.0381 L34.7921 22.0381 L34.7921 21.3002 Q35.2913 20.7837 36.1506 19.9157 Q37.0143 19.0433 37.2357 18.7915 Q37.6567 18.3185 37.8216 17.9929 Q37.9909 17.6631 37.9909 17.3462 Q37.9909 16.8297 37.6263 16.5042 Q37.2661 16.1787 36.6845 16.1787 Q36.2722 16.1787 35.8121 16.3219 Q35.3564 16.4652 34.8355 16.756 L34.8355 15.8706 Q35.365 15.6579 35.8251 15.5494 Q36.2852 15.4409 36.6671 15.4409 Q37.6741 15.4409 38.273 15.9443 Q38.872 16.4478 38.872 17.2898 Q38.872 17.6891 38.7201 18.0494 Q38.5725 18.4053 38.1775 18.8914 Q38.069 19.0172 37.4874 19.6205 Q36.9058 20.2195 35.8468 21.3002 Z" fill="#000000" fill-rule="evenodd" fill-opacity="1" /><path clip-path="url(#clip170)" d="M 0 0 M42.266 16.3219 L40.0525 19.7811 L42.266 19.7811 L42.266 16.3219 M42.036 15.5581 L43.1384 15.5581 L43.1384 19.7811 L44.0629 19.7811 L44.0629 20.5103 L43.1384 20.5103 L43.1384 22.0381 L42.266 22.0381 L42.266 20.5103 L39.3407 20.5103 L39.3407 19.6639 L42.036 15.5581 Z" fill="#000000" fill-rule="evenodd" fill-opacity="1" /><circle clip-path="url(#clip172)" cx="137.057" cy="223.518" r="3" fill="#0000ff" fill-rule="evenodd" fill-opacity="1" stroke="none"/>
<circle clip-path="url(#clip172)" cx="120.013" cy="211.047" r="3" fill="#0000ff" fill-rule="evenodd" fill-opacity="1" stroke="none"/>
<circle clip-path="url(#clip172)" cx="154.101" cy="186.105" r="3" fill="#0000ff" fill-rule="evenodd" fill-opacity="1" stroke="none"/>
<circle clip-path="url(#clip172)" cx="137.057" cy="173.634" r="3" fill="#0000ff" fill-rule="evenodd" fill-opacity="1" stroke="none"/>
<circle clip-path="url(#clip172)" cx="188.189" cy="211.047" r="3" fill="#0000ff" fill-rule="evenodd" fill-opacity="1" stroke="none"/>
<circle clip-path="url(#clip172)" cx="171.145" cy="223.518" r="3" fill="#0000ff" fill-rule="evenodd" fill-opacity="1" stroke="none"/>
<circle clip-path="url(#clip172)" cx="154.101" cy="211.047" r="3" fill="#0000ff" fill-rule="evenodd" fill-opacity="1" stroke="none"/>
<circle clip-path="url(#clip172)" cx="188.189" cy="186.105" r="3" fill="#0000ff" fill-rule="evenodd" fill-opacity="1" stroke="none"/>
<circle clip-path="url(#clip172)" cx="120.013" cy="186.105" r="3" fill="#0000ff" fill-rule="evenodd" fill-opacity="1" stroke="none"/>
<circle clip-path="url(#clip172)" cx="137.057" cy="148.692" r="3" fill="#0000ff" fill-rule="evenodd" fill-opacity="1" stroke="none"/>
<path clip-path="url(#clip170)" d="M 0 0 M139.986 218.08 Q140.616 218.215 140.967 218.64 Q141.323 219.065 141.323 219.69 Q141.323 220.649 140.663 221.175 Q140.004 221.7 138.788 221.7 Q138.38 221.7 137.946 221.617 Q137.517 221.539 137.057 221.379 L137.057 220.532 Q137.421 220.745 137.855 220.853 Q138.289 220.962 138.762 220.962 Q139.587 220.962 140.017 220.636 Q140.451 220.311 140.451 219.69 Q140.451 219.117 140.047 218.796 Q139.648 218.471 138.932 218.471 L138.176 218.471 L138.176 217.75 L138.966 217.75 Q139.613 217.75 139.956 217.494 Q140.299 217.234 140.299 216.748 Q140.299 216.248 139.943 215.984 Q139.591 215.715 138.932 215.715 Q138.571 215.715 138.159 215.793 Q137.747 215.871 137.252 216.036 L137.252 215.255 Q137.751 215.116 138.185 215.046 Q138.624 214.977 139.01 214.977 Q140.008 214.977 140.59 215.432 Q141.171 215.884 141.171 216.656 Q141.171 217.195 140.863 217.568 Q140.555 217.937 139.986 218.08 Z" fill="#000000" fill-rule="evenodd" fill-opacity="1" /><path clip-path="url(#clip170)" d="M 0 0 M122.938 203.387 L120.724 206.846 L122.938 206.846 L122.938 203.387 M122.708 202.623 L123.81 202.623 L123.81 206.846 L124.735 206.846 L124.735 207.575 L123.81 207.575 L123.81 209.103 L122.938 209.103 L122.938 207.575 L120.013 207.575 L120.013 206.729 L122.708 202.623 Z" fill="#000000" fill-rule="evenodd" fill-opacity="1" /><path clip-path="url(#clip170)" d="M 0 0 M154.374 177.681 L157.816 177.681 L157.816 178.419 L155.177 178.419 L155.177 180.007 Q155.368 179.942 155.559 179.912 Q155.75 179.877 155.941 179.877 Q157.026 179.877 157.66 180.472 Q158.293 181.066 158.293 182.082 Q158.293 183.128 157.642 183.71 Q156.991 184.287 155.807 184.287 Q155.399 184.287 154.973 184.217 Q154.552 184.148 154.101 184.009 L154.101 183.128 Q154.491 183.341 154.908 183.445 Q155.325 183.549 155.789 183.549 Q156.54 183.549 156.978 183.154 Q157.417 182.759 157.417 182.082 Q157.417 181.405 156.978 181.01 Q156.54 180.615 155.789 180.615 Q155.438 180.615 155.086 180.693 Q154.739 180.771 154.374 180.936 L154.374 177.681 Z" fill="#000000" fill-rule="evenodd" fill-opacity="1" /><path clip-path="url(#clip170)" d="M 0 0 M139.37 168.101 Q138.78 168.101 138.433 168.504 Q138.09 168.908 138.09 169.611 Q138.09 170.31 138.433 170.718 Q138.78 171.121 139.37 171.121 Q139.96 171.121 140.303 170.718 Q140.65 170.31 140.65 169.611 Q140.65 168.908 140.303 168.504 Q139.96 168.101 139.37 168.101 M141.11 165.353 L141.11 166.152 Q140.781 165.996 140.442 165.913 Q140.108 165.831 139.778 165.831 Q138.91 165.831 138.45 166.417 Q137.994 167.002 137.929 168.187 Q138.185 167.81 138.571 167.61 Q138.958 167.406 139.422 167.406 Q140.399 167.406 140.963 168.001 Q141.531 168.591 141.531 169.611 Q141.531 170.609 140.941 171.213 Q140.351 171.816 139.37 171.816 Q138.246 171.816 137.651 170.956 Q137.057 170.093 137.057 168.456 Q137.057 166.92 137.786 166.009 Q138.515 165.093 139.743 165.093 Q140.073 165.093 140.407 165.158 Q140.746 165.223 141.11 165.353 Z" fill="#000000" fill-rule="evenodd" fill-opacity="1" /><path clip-path="url(#clip170)" d="M 0 0 M188.315 208.365 L189.747 208.365 L189.747 203.422 L188.189 203.734 L188.189 202.935 L189.738 202.623 L190.615 202.623 L190.615 208.365 L192.047 208.365 L192.047 209.103 L188.315 209.103 L188.315 208.365 Z" fill="#000000" fill-rule="evenodd" fill-opacity="1" /><path clip-path="url(#clip170)" d="M 0 0 M193.753 208.365 L196.813 208.365 L196.813 209.103 L192.699 209.103 L192.699 208.365 Q193.198 207.849 194.057 206.981 Q194.921 206.108 195.142 205.856 Q195.563 205.383 195.728 205.058 Q195.897 204.728 195.897 204.411 Q195.897 203.895 195.533 203.569 Q195.172 203.244 194.591 203.244 Q194.179 203.244 193.718 203.387 Q193.263 203.53 192.742 203.821 L192.742 202.935 Q193.271 202.723 193.731 202.614 Q194.192 202.506 194.573 202.506 Q195.58 202.506 196.179 203.009 Q196.778 203.513 196.778 204.355 Q196.778 204.754 196.626 205.114 Q196.479 205.47 196.084 205.956 Q195.975 206.082 195.394 206.685 Q194.812 207.284 193.753 208.365 Z" fill="#000000" fill-rule="evenodd" fill-opacity="1" /><path clip-path="url(#clip170)" d="M 0 0 M171.271 220.836 L172.703 220.836 L172.703 215.893 L171.145 216.205 L171.145 215.406 L172.694 215.094 L173.571 215.094 L173.571 220.836 L175.003 220.836 L175.003 221.574 L171.271 221.574 L171.271 220.836 Z" fill="#000000" fill-rule="evenodd" fill-opacity="1" /><path clip-path="url(#clip170)" d="M 0 0 M178.61 218.08 Q179.239 218.215 179.591 218.64 Q179.947 219.065 179.947 219.69 Q179.947 220.649 179.287 221.175 Q178.627 221.7 177.412 221.7 Q177.004 221.7 176.57 221.617 Q176.141 221.539 175.68 221.379 L175.68 220.532 Q176.045 220.745 176.479 220.853 Q176.913 220.962 177.386 220.962 Q178.211 220.962 178.641 220.636 Q179.075 220.311 179.075 219.69 Q179.075 219.117 178.671 218.796 Q178.272 218.471 177.555 218.471 L176.8 218.471 L176.8 217.75 L177.59 217.75 Q178.237 217.75 178.58 217.494 Q178.923 217.234 178.923 216.748 Q178.923 216.248 178.567 215.984 Q178.215 215.715 177.555 215.715 Q177.195 215.715 176.783 215.793 Q176.371 215.871 175.876 216.036 L175.876 215.255 Q176.375 215.116 176.809 215.046 Q177.247 214.977 177.634 214.977 Q178.632 214.977 179.213 215.432 Q179.795 215.884 179.795 216.656 Q179.795 217.195 179.487 217.568 Q179.179 217.937 178.61 218.08 Z" fill="#000000" fill-rule="evenodd" fill-opacity="1" /><path clip-path="url(#clip170)" d="M 0 0 M154.227 208.365 L155.659 208.365 L155.659 203.422 L154.101 203.734 L154.101 202.935 L155.65 202.623 L156.527 202.623 L156.527 208.365 L157.959 208.365 L157.959 209.103 L154.227 209.103 L154.227 208.365 Z" fill="#000000" fill-rule="evenodd" fill-opacity="1" /><path clip-path="url(#clip170)" d="M 0 0 M161.319 203.387 L159.105 206.846 L161.319 206.846 L161.319 203.387 M161.089 202.623 L162.191 202.623 L162.191 206.846 L163.115 206.846 L163.115 207.575 L162.191 207.575 L162.191 209.103 L161.319 209.103 L161.319 207.575 L158.393 207.575 L158.393 206.729 L161.089 202.623 Z" fill="#000000" fill-rule="evenodd" fill-opacity="1" /><path clip-path="url(#clip170)" d="M 0 0 M188.315 183.423 L189.747 183.423 L189.747 178.48 L188.189 178.792 L188.189 177.993 L189.738 177.681 L190.615 177.681 L190.615 183.423 L192.047 183.423 L192.047 184.161 L188.315 184.161 L188.315 183.423 Z" fill="#000000" fill-rule="evenodd" fill-opacity="1" /><path clip-path="url(#clip170)" d="M 0 0 M193.007 177.681 L196.448 177.681 L196.448 178.419 L193.81 178.419 L193.81 180.007 Q194.001 179.942 194.192 179.912 Q194.383 179.877 194.573 179.877 Q195.659 179.877 196.292 180.472 Q196.926 181.066 196.926 182.082 Q196.926 183.128 196.275 183.71 Q195.624 184.287 194.439 184.287 Q194.031 184.287 193.606 184.217 Q193.185 184.148 192.733 184.009 L192.733 183.128 Q193.124 183.341 193.541 183.445 Q193.957 183.549 194.422 183.549 Q195.172 183.549 195.611 183.154 Q196.049 182.759 196.049 182.082 Q196.049 181.405 195.611 181.01 Q195.172 180.615 194.422 180.615 Q194.07 180.615 193.718 180.693 Q193.371 180.771 193.007 180.936 L193.007 177.681 Z" fill="#000000" fill-rule="evenodd" fill-opacity="1" /><path clip-path="url(#clip170)" d="M 0 0 M120.138 183.423 L121.571 183.423 L121.571 178.48 L120.013 178.792 L120.013 177.993 L121.562 177.681 L122.439 177.681 L122.439 183.423 L123.871 183.423 L123.871 184.161 L120.138 184.161 L120.138 183.423 Z" fill="#000000" fill-rule="evenodd" fill-opacity="1" /><path clip-path="url(#clip170)" d="M 0 0 M124.848 184.026 L124.848 183.228 Q125.178 183.384 125.516 183.467 Q125.855 183.549 126.18 183.549 Q127.048 183.549 127.504 182.967 Q127.964 182.381 128.029 181.192 Q127.777 181.565 127.391 181.765 Q127.005 181.965 126.536 181.965 Q125.564 181.965 124.995 181.379 Q124.431 180.789 124.431 179.769 Q124.431 178.77 125.021 178.167 Q125.612 177.564 126.592 177.564 Q127.717 177.564 128.307 178.427 Q128.901 179.287 128.901 180.927 Q128.901 182.46 128.172 183.375 Q127.447 184.287 126.219 184.287 Q125.889 184.287 125.551 184.222 Q125.212 184.157 124.848 184.026 M126.592 181.279 Q127.183 181.279 127.526 180.875 Q127.873 180.472 127.873 179.769 Q127.873 179.07 127.526 178.666 Q127.183 178.258 126.592 178.258 Q126.002 178.258 125.655 178.666 Q125.312 179.07 125.312 179.769 Q125.312 180.472 125.655 180.875 Q126.002 181.279 126.592 181.279 Z" fill="#000000" fill-rule="evenodd" fill-opacity="1" /><path clip-path="url(#clip170)" d="M 0 0 M138.111 146.01 L141.171 146.01 L141.171 146.748 L137.057 146.748 L137.057 146.01 Q137.556 145.494 138.415 144.626 Q139.279 143.753 139.5 143.501 Q139.921 143.028 140.086 142.703 Q140.255 142.373 140.255 142.056 Q140.255 141.54 139.891 141.214 Q139.531 140.889 138.949 140.889 Q138.537 140.889 138.077 141.032 Q137.621 141.175 137.1 141.466 L137.1 140.58 Q137.63 140.368 138.09 140.259 Q138.55 140.151 138.932 140.151 Q139.939 140.151 140.538 140.654 Q141.137 141.158 141.137 142 Q141.137 142.399 140.985 142.759 Q140.837 143.115 140.442 143.601 Q140.334 143.727 139.752 144.33 Q139.17 144.929 138.111 146.01 Z" fill="#000000" fill-rule="evenodd" fill-opacity="1" /><path clip-path="url(#clip170)" d="M 0 0 M142.274 146.01 L143.706 146.01 L143.706 141.067 L142.148 141.379 L142.148 140.58 L143.697 140.268 L144.574 140.268 L144.574 146.01 L146.006 146.01 L146.006 146.748 L142.274 146.748 L142.274 146.01 Z" fill="#000000" fill-rule="evenodd" fill-opacity="1" /><circle clip-path="url(#clip172)" cx="120.013" cy="111.279" r="3" fill="#0000ff" fill-rule="evenodd" fill-opacity="1" stroke="none"/>
<circle clip-path="url(#clip172)" cx="137.057" cy="73.866" r="3" fill="#0000ff" fill-rule="evenodd" fill-opacity="1" stroke="none"/>
<circle clip-path="url(#clip172)" cx="120.013" cy="61.395" r="3" fill="#0000ff" fill-rule="evenodd" fill-opacity="1" stroke="none"/>
<circle clip-path="url(#clip172)" cx="154.101" cy="36.453" r="3" fill="#0000ff" fill-rule="evenodd" fill-opacity="1" stroke="none"/>
<circle clip-path="url(#clip172)" cx="137.057" cy="23.9821" r="3" fill="#0000ff" fill-rule="evenodd" fill-opacity="1" stroke="none"/>
<circle clip-path="url(#clip172)" cx="171.145" cy="148.692" r="3" fill="#0000ff" fill-rule="evenodd" fill-opacity="1" stroke="none"/>
<circle clip-path="url(#clip172)" cx="154.101" cy="136.221" r="3" fill="#0000ff" fill-rule="evenodd" fill-opacity="1" stroke="none"/>
<circle clip-path="url(#clip172)" cx="188.189" cy="111.279" r="3" fill="#0000ff" fill-rule="evenodd" fill-opacity="1" stroke="none"/>
<circle clip-path="url(#clip172)" cx="171.145" cy="98.808" r="3" fill="#0000ff" fill-rule="evenodd" fill-opacity="1" stroke="none"/>
<circle clip-path="url(#clip172)" cx="188.189" cy="61.395" r="3" fill="#0000ff" fill-rule="evenodd" fill-opacity="1" stroke="none"/>
<circle clip-path="url(#clip172)" cx="171.145" cy="73.866" r="3" fill="#0000ff" fill-rule="evenodd" fill-opacity="1" stroke="none"/>
<circle clip-path="url(#clip172)" cx="154.101" cy="61.395" r="3" fill="#0000ff" fill-rule="evenodd" fill-opacity="1" stroke="none"/>
<circle clip-path="url(#clip172)" cx="188.189" cy="36.453" r="3" fill="#0000ff" fill-rule="evenodd" fill-opacity="1" stroke="none"/>
<circle clip-path="url(#clip172)" cx="171.145" cy="173.634" r="3" fill="#0000ff" fill-rule="evenodd" fill-opacity="1" stroke="none"/>
<circle clip-path="url(#clip172)" cx="188.189" cy="136.221" r="3" fill="#0000ff" fill-rule="evenodd" fill-opacity="1" stroke="none"/>
<circle clip-path="url(#clip172)" cx="120.013" cy="36.453" r="3" fill="#0000ff" fill-rule="evenodd" fill-opacity="1" stroke="none"/>
<circle clip-path="url(#clip172)" cx="120.013" cy="136.221" r="3" fill="#0000ff" fill-rule="evenodd" fill-opacity="1" stroke="none"/>
<circle clip-path="url(#clip172)" cx="154.101" cy="111.279" r="3" fill="#0000ff" fill-rule="evenodd" fill-opacity="1" stroke="none"/>
<circle clip-path="url(#clip172)" cx="137.057" cy="98.808" r="3" fill="#0000ff" fill-rule="evenodd" fill-opacity="1" stroke="none"/>
<path clip-path="url(#clip170)" d="M 0 0 M120.138 108.597 L121.571 108.597 L121.571 103.654 L120.013 103.966 L120.013 103.168 L121.562 102.855 L122.439 102.855 L122.439 108.597 L123.871 108.597 L123.871 109.335 L120.138 109.335 L120.138 108.597 Z" fill="#000000" fill-rule="evenodd" fill-opacity="1" /><path clip-path="url(#clip170)" d="M 0 0 M139.986 68.4281 Q140.616 68.5627 140.967 68.988 Q141.323 69.4134 141.323 70.0384 Q141.323 70.9976 140.663 71.5227 Q140.004 72.0479 138.788 72.0479 Q138.38 72.0479 137.946 71.9654 Q137.517 71.8873 137.057 71.7267 L137.057 70.8804 Q137.421 71.093 137.855 71.2015 Q138.289 71.3101 138.762 71.3101 Q139.587 71.3101 140.017 70.9845 Q140.451 70.659 140.451 70.0384 Q140.451 69.4654 140.047 69.1443 Q139.648 68.8187 138.932 68.8187 L138.176 68.8187 L138.176 68.0983 L138.966 68.0983 Q139.613 68.0983 139.956 67.8422 Q140.299 67.5818 140.299 67.0957 Q140.299 66.5965 139.943 66.3318 Q139.591 66.0627 138.932 66.0627 Q138.571 66.0627 138.159 66.1408 Q137.747 66.2189 137.252 66.3839 L137.252 65.6026 Q137.751 65.4637 138.185 65.3943 Q138.624 65.3248 139.01 65.3248 Q140.008 65.3248 140.59 65.7806 Q141.171 66.232 141.171 67.0045 Q141.171 67.5427 140.863 67.916 Q140.555 68.2849 139.986 68.4281 Z" fill="#000000" fill-rule="evenodd" fill-opacity="1" /><path clip-path="url(#clip170)" d="M 0 0 M122.938 53.7349 L120.724 57.1941 L122.938 57.1941 L122.938 53.7349 M122.708 52.971 L123.81 52.971 L123.81 57.1941 L124.735 57.1941 L124.735 57.9233 L123.81 57.9233 L123.81 59.451 L122.938 59.451 L122.938 57.9233 L120.013 57.9233 L120.013 57.0769 L122.708 52.971 Z" fill="#000000" fill-rule="evenodd" fill-opacity="1" /><path clip-path="url(#clip170)" d="M 0 0 M154.374 28.029 L157.816 28.029 L157.816 28.7669 L155.177 28.7669 L155.177 30.3554 Q155.368 30.2903 155.559 30.2599 Q155.75 30.2252 155.941 30.2252 Q157.026 30.2252 157.66 30.8198 Q158.293 31.4144 158.293 32.4301 Q158.293 33.4761 157.642 34.0577 Q156.991 34.6349 155.807 34.6349 Q155.399 34.6349 154.973 34.5655 Q154.552 34.496 154.101 34.3571 L154.101 33.4761 Q154.491 33.6887 154.908 33.7929 Q155.325 33.8971 155.789 33.8971 Q156.54 33.8971 156.978 33.5021 Q157.417 33.1071 157.417 32.4301 Q157.417 31.753 156.978 31.358 Q156.54 30.9631 155.789 30.9631 Q155.438 30.9631 155.086 31.0412 Q154.739 31.1193 154.374 31.2842 L154.374 28.029 Z" fill="#000000" fill-rule="evenodd" fill-opacity="1" /><path clip-path="url(#clip170)" d="M 0 0 M139.37 18.4487 Q138.78 18.4487 138.433 18.8523 Q138.09 19.256 138.09 19.9591 Q138.09 20.6579 138.433 21.0658 Q138.78 21.4695 139.37 21.4695 Q139.96 21.4695 140.303 21.0658 Q140.65 20.6579 140.65 19.9591 Q140.65 19.256 140.303 18.8523 Q139.96 18.4487 139.37 18.4487 M141.11 15.7013 L141.11 16.4999 Q140.781 16.3436 140.442 16.2612 Q140.108 16.1787 139.778 16.1787 Q138.91 16.1787 138.45 16.7646 Q137.994 17.3506 137.929 18.5355 Q138.185 18.1579 138.571 17.9582 Q138.958 17.7542 139.422 17.7542 Q140.399 17.7542 140.963 18.3488 Q141.531 18.9391 141.531 19.9591 Q141.531 20.9573 140.941 21.5606 Q140.351 22.1639 139.37 22.1639 Q138.246 22.1639 137.651 21.3046 Q137.057 20.4408 137.057 18.8046 Q137.057 17.2681 137.786 16.3567 Q138.515 15.4409 139.743 15.4409 Q140.073 15.4409 140.407 15.506 Q140.746 15.5711 141.11 15.7013 Z" fill="#000000" fill-rule="evenodd" fill-opacity="1" /><path clip-path="url(#clip170)" d="M 0 0 M171.145 140.268 L175.312 140.268 L175.312 140.641 L172.959 146.748 L172.043 146.748 L174.257 141.006 L171.145 141.006 L171.145 140.268 Z" fill="#000000" fill-rule="evenodd" fill-opacity="1" /><path clip-path="url(#clip170)" d="M 0 0 M156.323 131.2 Q155.698 131.2 155.338 131.534 Q154.982 131.868 154.982 132.454 Q154.982 133.04 155.338 133.374 Q155.698 133.708 156.323 133.708 Q156.948 133.708 157.308 133.374 Q157.668 133.036 157.668 132.454 Q157.668 131.868 157.308 131.534 Q156.952 131.2 156.323 131.2 M155.446 130.826 Q154.882 130.688 154.565 130.301 Q154.253 129.915 154.253 129.359 Q154.253 128.583 154.804 128.131 Q155.359 127.68 156.323 127.68 Q157.291 127.68 157.842 128.131 Q158.393 128.583 158.393 129.359 Q158.393 129.915 158.076 130.301 Q157.764 130.688 157.204 130.826 Q157.838 130.974 158.189 131.404 Q158.545 131.833 158.545 132.454 Q158.545 133.396 157.968 133.899 Q157.395 134.403 156.323 134.403 Q155.251 134.403 154.674 133.899 Q154.101 133.396 154.101 132.454 Q154.101 131.833 154.457 131.404 Q154.813 130.974 155.446 130.826 M155.125 129.442 Q155.125 129.945 155.438 130.228 Q155.754 130.51 156.323 130.51 Q156.887 130.51 157.204 130.228 Q157.525 129.945 157.525 129.442 Q157.525 128.938 157.204 128.656 Q156.887 128.374 156.323 128.374 Q155.754 128.374 155.438 128.656 Q155.125 128.938 155.125 129.442 Z" fill="#000000" fill-rule="evenodd" fill-opacity="1" /><path clip-path="url(#clip170)" d="M 0 0 M188.606 109.2 L188.606 108.402 Q188.936 108.558 189.274 108.641 Q189.613 108.723 189.938 108.723 Q190.806 108.723 191.262 108.141 Q191.722 107.556 191.787 106.366 Q191.535 106.74 191.149 106.939 Q190.763 107.139 190.294 107.139 Q189.322 107.139 188.753 106.553 Q188.189 105.963 188.189 104.943 Q188.189 103.944 188.779 103.341 Q189.37 102.738 190.35 102.738 Q191.475 102.738 192.065 103.602 Q192.659 104.461 192.659 106.102 Q192.659 107.634 191.93 108.549 Q191.205 109.461 189.977 109.461 Q189.647 109.461 189.309 109.396 Q188.97 109.331 188.606 109.2 M190.35 106.453 Q190.941 106.453 191.284 106.049 Q191.631 105.646 191.631 104.943 Q191.631 104.244 191.284 103.84 Q190.941 103.432 190.35 103.432 Q189.76 103.432 189.413 103.84 Q189.07 104.244 189.07 104.943 Q189.07 105.646 189.413 106.049 Q189.76 106.453 190.35 106.453 Z" fill="#000000" fill-rule="evenodd" fill-opacity="1" /><path clip-path="url(#clip170)" d="M 0 0 M171.271 96.1262 L172.703 96.1262 L172.703 91.1826 L171.145 91.4951 L171.145 90.6965 L172.694 90.384 L173.571 90.384 L173.571 96.1262 L175.003 96.1262 L175.003 96.864 L171.271 96.864 L171.271 96.1262 Z" fill="#000000" fill-rule="evenodd" fill-opacity="1" /><path clip-path="url(#clip170)" d="M 0 0 M177.829 90.9613 Q177.152 90.9613 176.809 91.6297 Q176.47 92.2937 176.47 93.6305 Q176.47 94.963 176.809 95.6314 Q177.152 96.2954 177.829 96.2954 Q178.51 96.2954 178.849 95.6314 Q179.192 94.963 179.192 93.6305 Q179.192 92.2937 178.849 91.6297 Q178.51 90.9613 177.829 90.9613 M177.829 90.2668 Q178.918 90.2668 179.491 91.1305 Q180.068 91.9899 180.068 93.6305 Q180.068 95.2668 179.491 96.1305 Q178.918 96.9899 177.829 96.9899 Q176.739 96.9899 176.162 96.1305 Q175.589 95.2668 175.589 93.6305 Q175.589 91.9899 176.162 91.1305 Q176.739 90.2668 177.829 90.2668 Z" fill="#000000" fill-rule="evenodd" fill-opacity="1" /><path clip-path="url(#clip170)" d="M 0 0 M188.315 58.7132 L189.747 58.7132 L189.747 53.7696 L188.189 54.0821 L188.189 53.2835 L189.738 52.971 L190.615 52.971 L190.615 58.7132 L192.047 58.7132 L192.047 59.451 L188.315 59.451 L188.315 58.7132 Z" fill="#000000" fill-rule="evenodd" fill-opacity="1" /><path clip-path="url(#clip170)" d="M 0 0 M193.753 58.7132 L196.813 58.7132 L196.813 59.451 L192.699 59.451 L192.699 58.7132 Q193.198 58.1967 194.057 57.3286 Q194.921 56.4563 195.142 56.2045 Q195.563 55.7314 195.728 55.4059 Q195.897 55.0761 195.897 54.7592 Q195.897 54.2427 195.533 53.9172 Q195.172 53.5917 194.591 53.5917 Q194.179 53.5917 193.718 53.7349 Q193.263 53.8781 192.742 54.1689 L192.742 53.2835 Q193.271 53.0709 193.731 52.9624 Q194.192 52.8538 194.573 52.8538 Q195.58 52.8538 196.179 53.3573 Q196.778 53.8608 196.778 54.7028 Q196.778 55.1021 196.626 55.4623 Q196.479 55.8182 196.084 56.3043 Q195.975 56.4302 195.394 57.0335 Q194.812 57.6325 193.753 58.7132 Z" fill="#000000" fill-rule="evenodd" fill-opacity="1" /><path clip-path="url(#clip170)" d="M 0 0 M171.271 71.1842 L172.703 71.1842 L172.703 66.2406 L171.145 66.5531 L171.145 65.7545 L172.694 65.442 L173.571 65.442 L173.571 71.1842 L175.003 71.1842 L175.003 71.922 L171.271 71.922 L171.271 71.1842 Z" fill="#000000" fill-rule="evenodd" fill-opacity="1" /><path clip-path="url(#clip170)" d="M 0 0 M178.61 68.4281 Q179.239 68.5627 179.591 68.988 Q179.947 69.4134 179.947 70.0384 Q179.947 70.9976 179.287 71.5227 Q178.627 72.0479 177.412 72.0479 Q177.004 72.0479 176.57 71.9654 Q176.141 71.8873 175.68 71.7267 L175.68 70.8804 Q176.045 71.093 176.479 71.2015 Q176.913 71.3101 177.386 71.3101 Q178.211 71.3101 178.641 70.9845 Q179.075 70.659 179.075 70.0384 Q179.075 69.4654 178.671 69.1443 Q178.272 68.8187 177.555 68.8187 L176.8 68.8187 L176.8 68.0983 L177.59 68.0983 Q178.237 68.0983 178.58 67.8422 Q178.923 67.5818 178.923 67.0957 Q178.923 66.5965 178.567 66.3318 Q178.215 66.0627 177.555 66.0627 Q177.195 66.0627 176.783 66.1408 Q176.371 66.2189 175.876 66.3839 L175.876 65.6026 Q176.375 65.4637 176.809 65.3943 Q177.247 65.3248 177.634 65.3248 Q178.632 65.3248 179.213 65.7806 Q179.795 66.232 179.795 67.0045 Q179.795 67.5427 179.487 67.916 Q179.179 68.2849 178.61 68.4281 Z" fill="#000000" fill-rule="evenodd" fill-opacity="1" /><path clip-path="url(#clip170)" d="M 0 0 M154.227 58.7132 L155.659 58.7132 L155.659 53.7696 L154.101 54.0821 L154.101 53.2835 L155.65 52.971 L156.527 52.971 L156.527 58.7132 L157.959 58.7132 L157.959 59.451 L154.227 59.451 L154.227 58.7132 Z" fill="#000000" fill-rule="evenodd" fill-opacity="1" /><path clip-path="url(#clip170)" d="M 0 0 M161.319 53.7349 L159.105 57.1941 L161.319 57.1941 L161.319 53.7349 M161.089 52.971 L162.191 52.971 L162.191 57.1941 L163.115 57.1941 L163.115 57.9233 L162.191 57.9233 L162.191 59.451 L161.319 59.451 L161.319 57.9233 L158.393 57.9233 L158.393 57.0769 L161.089 52.971 Z" fill="#000000" fill-rule="evenodd" fill-opacity="1" /><path clip-path="url(#clip170)" d="M 0 0 M188.315 33.7712 L189.747 33.7712 L189.747 28.8277 L188.189 29.1402 L188.189 28.3415 L189.738 28.029 L190.615 28.029 L190.615 33.7712 L192.047 33.7712 L192.047 34.509 L188.315 34.509 L188.315 33.7712 Z" fill="#000000" fill-rule="evenodd" fill-opacity="1" /><path clip-path="url(#clip170)" d="M 0 0 M193.007 28.029 L196.448 28.029 L196.448 28.7669 L193.81 28.7669 L193.81 30.3554 Q194.001 30.2903 194.192 30.2599 Q194.383 30.2252 194.573 30.2252 Q195.659 30.2252 196.292 30.8198 Q196.926 31.4144 196.926 32.4301 Q196.926 33.4761 196.275 34.0577 Q195.624 34.6349 194.439 34.6349 Q194.031 34.6349 193.606 34.5655 Q193.185 34.496 192.733 34.3571 L192.733 33.4761 Q193.124 33.6887 193.541 33.7929 Q193.957 33.8971 194.422 33.8971 Q195.172 33.8971 195.611 33.5021 Q196.049 33.1071 196.049 32.4301 Q196.049 31.753 195.611 31.358 Q195.172 30.9631 194.422 30.9631 Q194.07 30.9631 193.718 31.0412 Q193.371 31.1193 193.007 31.2842 L193.007 28.029 Z" fill="#000000" fill-rule="evenodd" fill-opacity="1" /><path clip-path="url(#clip170)" d="M 0 0 M171.271 170.952 L172.703 170.952 L172.703 166.009 L171.145 166.321 L171.145 165.522 L172.694 165.21 L173.571 165.21 L173.571 170.952 L175.003 170.952 L175.003 171.69 L171.271 171.69 L171.271 170.952 Z" fill="#000000" fill-rule="evenodd" fill-opacity="1" /><path clip-path="url(#clip170)" d="M 0 0 M177.937 168.101 Q177.347 168.101 177 168.504 Q176.657 168.908 176.657 169.611 Q176.657 170.31 177 170.718 Q177.347 171.121 177.937 171.121 Q178.528 171.121 178.871 170.718 Q179.218 170.31 179.218 169.611 Q179.218 168.908 178.871 168.504 Q178.528 168.101 177.937 168.101 M179.678 165.353 L179.678 166.152 Q179.348 165.996 179.009 165.913 Q178.675 165.831 178.345 165.831 Q177.477 165.831 177.017 166.417 Q176.562 167.002 176.496 168.187 Q176.752 167.81 177.139 167.61 Q177.525 167.406 177.989 167.406 Q178.966 167.406 179.53 168.001 Q180.099 168.591 180.099 169.611 Q180.099 170.609 179.509 171.213 Q178.918 171.816 177.937 171.816 Q176.813 171.816 176.219 170.956 Q175.624 170.093 175.624 168.456 Q175.624 166.92 176.353 166.009 Q177.082 165.093 178.311 165.093 Q178.641 165.093 178.975 165.158 Q179.313 165.223 179.678 165.353 Z" fill="#000000" fill-rule="evenodd" fill-opacity="1" /><path clip-path="url(#clip170)" d="M 0 0 M188.315 133.539 L189.747 133.539 L189.747 128.596 L188.189 128.908 L188.189 128.109 L189.738 127.797 L190.615 127.797 L190.615 133.539 L192.047 133.539 L192.047 134.277 L188.315 134.277 L188.315 133.539 Z" fill="#000000" fill-rule="evenodd" fill-opacity="1" /><path clip-path="url(#clip170)" d="M 0 0 M194.873 131.2 Q194.248 131.2 193.888 131.534 Q193.532 131.868 193.532 132.454 Q193.532 133.04 193.888 133.374 Q194.248 133.708 194.873 133.708 Q195.498 133.708 195.858 133.374 Q196.218 133.036 196.218 132.454 Q196.218 131.868 195.858 131.534 Q195.502 131.2 194.873 131.2 M193.996 130.826 Q193.432 130.688 193.115 130.301 Q192.803 129.915 192.803 129.359 Q192.803 128.583 193.354 128.131 Q193.909 127.68 194.873 127.68 Q195.841 127.68 196.392 128.131 Q196.943 128.583 196.943 129.359 Q196.943 129.915 196.626 130.301 Q196.314 130.688 195.754 130.826 Q196.388 130.974 196.739 131.404 Q197.095 131.833 197.095 132.454 Q197.095 133.396 196.518 133.899 Q195.945 134.403 194.873 134.403 Q193.801 134.403 193.224 133.899 Q192.651 133.396 192.651 132.454 Q192.651 131.833 193.007 131.404 Q193.363 130.974 193.996 130.826 M193.675 129.442 Q193.675 129.945 193.988 130.228 Q194.304 130.51 194.873 130.51 Q195.437 130.51 195.754 130.228 Q196.075 129.945 196.075 129.442 Q196.075 128.938 195.754 128.656 Q195.437 128.374 194.873 128.374 Q194.304 128.374 193.988 128.656 Q193.675 128.938 193.675 129.442 Z" fill="#000000" fill-rule="evenodd" fill-opacity="1" /><path clip-path="url(#clip170)" d="M 0 0 M120.138 33.7712 L121.571 33.7712 L121.571 28.8277 L120.013 29.1402 L120.013 28.3415 L121.562 28.029 L122.439 28.029 L122.439 33.7712 L123.871 33.7712 L123.871 34.509 L120.138 34.509 L120.138 33.7712 Z" fill="#000000" fill-rule="evenodd" fill-opacity="1" /><path clip-path="url(#clip170)" d="M 0 0 M124.848 34.3745 L124.848 33.5759 Q125.178 33.7321 125.516 33.8146 Q125.855 33.8971 126.18 33.8971 Q127.048 33.8971 127.504 33.3155 Q127.964 32.7295 128.029 31.5403 Q127.777 31.9136 127.391 32.1132 Q127.005 32.3129 126.536 32.3129 Q125.564 32.3129 124.995 31.7269 Q124.431 31.1367 124.431 30.1167 Q124.431 29.1185 125.021 28.5152 Q125.612 27.9119 126.592 27.9119 Q127.717 27.9119 128.307 28.7756 Q128.901 29.6349 128.901 31.2756 Q128.901 32.8077 128.172 33.7235 Q127.447 34.6349 126.219 34.6349 Q125.889 34.6349 125.551 34.5698 Q125.212 34.5047 124.848 34.3745 M126.592 31.6271 Q127.183 31.6271 127.526 31.2235 Q127.873 30.8198 127.873 30.1167 Q127.873 29.4179 127.526 29.0143 Q127.183 28.6063 126.592 28.6063 Q126.002 28.6063 125.655 29.0143 Q125.312 29.4179 125.312 30.1167 Q125.312 30.8198 125.655 31.2235 Q126.002 31.6271 126.592 31.6271 Z" fill="#000000" fill-rule="evenodd" fill-opacity="1" /><path clip-path="url(#clip170)" d="M 0 0 M121.067 133.539 L124.127 133.539 L124.127 134.277 L120.013 134.277 L120.013 133.539 Q120.512 133.023 121.371 132.155 Q122.235 131.282 122.456 131.03 Q122.877 130.557 123.042 130.232 Q123.211 129.902 123.211 129.585 Q123.211 129.069 122.847 128.743 Q122.487 128.418 121.905 128.418 Q121.493 128.418 121.033 128.561 Q120.577 128.704 120.056 128.995 L120.056 128.109 Q120.586 127.897 121.046 127.788 Q121.506 127.68 121.888 127.68 Q122.895 127.68 123.493 128.183 Q124.092 128.687 124.092 129.529 Q124.092 129.928 123.941 130.288 Q123.793 130.644 123.398 131.13 Q123.289 131.256 122.708 131.859 Q122.126 132.458 121.067 133.539 Z" fill="#000000" fill-rule="evenodd" fill-opacity="1" /><path clip-path="url(#clip170)" d="M 0 0 M125.833 133.539 L128.893 133.539 L128.893 134.277 L124.778 134.277 L124.778 133.539 Q125.277 133.023 126.137 132.155 Q127 131.282 127.222 131.03 Q127.643 130.557 127.808 130.232 Q127.977 129.902 127.977 129.585 Q127.977 129.069 127.612 128.743 Q127.252 128.418 126.671 128.418 Q126.258 128.418 125.798 128.561 Q125.342 128.704 124.822 128.995 L124.822 128.109 Q125.351 127.897 125.811 127.788 Q126.271 127.68 126.653 127.68 Q127.66 127.68 128.259 128.183 Q128.858 128.687 128.858 129.529 Q128.858 129.928 128.706 130.288 Q128.559 130.644 128.164 131.13 Q128.055 131.256 127.473 131.859 Q126.892 132.458 125.833 133.539 Z" fill="#000000" fill-rule="evenodd" fill-opacity="1" /><path clip-path="url(#clip170)" d="M 0 0 M155.155 108.597 L158.215 108.597 L158.215 109.335 L154.101 109.335 L154.101 108.597 Q154.6 108.081 155.459 107.213 Q156.323 106.34 156.544 106.088 Q156.965 105.615 157.13 105.29 Q157.3 104.96 157.3 104.643 Q157.3 104.127 156.935 103.801 Q156.575 103.476 155.993 103.476 Q155.581 103.476 155.121 103.619 Q154.665 103.762 154.144 104.053 L154.144 103.168 Q154.674 102.955 155.134 102.846 Q155.594 102.738 155.976 102.738 Q156.983 102.738 157.582 103.241 Q158.181 103.745 158.181 104.587 Q158.181 104.986 158.029 105.346 Q157.881 105.702 157.486 106.188 Q157.378 106.314 156.796 106.917 Q156.214 107.516 155.155 108.597 Z" fill="#000000" fill-rule="evenodd" fill-opacity="1" /><path clip-path="url(#clip170)" d="M 0 0 M161.822 105.841 Q162.451 105.976 162.803 106.401 Q163.159 106.826 163.159 107.451 Q163.159 108.411 162.499 108.936 Q161.839 109.461 160.624 109.461 Q160.216 109.461 159.782 109.378 Q159.352 109.3 158.892 109.14 L158.892 108.293 Q159.257 108.506 159.691 108.615 Q160.125 108.723 160.598 108.723 Q161.423 108.723 161.852 108.398 Q162.287 108.072 162.287 107.451 Q162.287 106.878 161.883 106.557 Q161.484 106.232 160.767 106.232 L160.012 106.232 L160.012 105.511 L160.802 105.511 Q161.449 105.511 161.792 105.255 Q162.135 104.995 162.135 104.509 Q162.135 104.01 161.779 103.745 Q161.427 103.476 160.767 103.476 Q160.407 103.476 159.995 103.554 Q159.583 103.632 159.088 103.797 L159.088 103.016 Q159.587 102.877 160.021 102.807 Q160.459 102.738 160.846 102.738 Q161.844 102.738 162.425 103.194 Q163.007 103.645 163.007 104.417 Q163.007 104.956 162.699 105.329 Q162.391 105.698 161.822 105.841 Z" fill="#000000" fill-rule="evenodd" fill-opacity="1" /><path clip-path="url(#clip170)" d="M 0 0 M138.111 96.1262 L141.171 96.1262 L141.171 96.864 L137.057 96.864 L137.057 96.1262 Q137.556 95.6097 138.415 94.7416 Q139.279 93.8692 139.5 93.6175 Q139.921 93.1444 140.086 92.8189 Q140.255 92.489 140.255 92.1722 Q140.255 91.6557 139.891 91.3302 Q139.531 91.0047 138.949 91.0047 Q138.537 91.0047 138.077 91.1479 Q137.621 91.2911 137.1 91.5819 L137.1 90.6965 Q137.63 90.4838 138.09 90.3753 Q138.55 90.2668 138.932 90.2668 Q139.939 90.2668 140.538 90.7703 Q141.137 91.2738 141.137 92.1158 Q141.137 92.5151 140.985 92.8753 Q140.837 93.2312 140.442 93.7173 Q140.334 93.8432 139.752 94.4465 Q139.17 95.0454 138.111 96.1262 Z" fill="#000000" fill-rule="evenodd" fill-opacity="1" /><path clip-path="url(#clip170)" d="M 0 0 M144.531 91.1479 L142.317 94.6071 L144.531 94.6071 L144.531 91.1479 M144.301 90.384 L145.403 90.384 L145.403 94.6071 L146.327 94.6071 L146.327 95.3362 L145.403 95.3362 L145.403 96.864 L144.531 96.864 L144.531 95.3362 L141.605 95.3362 L141.605 94.4899 L144.301 90.384 Z" fill="#000000" fill-rule="evenodd" fill-opacity="1" /><circle clip-path="url(#clip172)" cx="171.145" cy="23.9821" r="3" fill="#0000ff" fill-rule="evenodd" fill-opacity="1" stroke="none"/>
<path clip-path="url(#clip170)" d="M 0 0 M171.271 21.3002 L172.703 21.3002 L172.703 16.3567 L171.145 16.6692 L171.145 15.8706 L172.694 15.5581 L173.571 15.5581 L173.571 21.3002 L175.003 21.3002 L175.003 22.0381 L171.271 22.0381 L171.271 21.3002 Z" fill="#000000" fill-rule="evenodd" fill-opacity="1" /><path clip-path="url(#clip170)" d="M 0 0 M177.937 18.4487 Q177.347 18.4487 177 18.8523 Q176.657 19.256 176.657 19.9591 Q176.657 20.6579 177 21.0658 Q177.347 21.4695 177.937 21.4695 Q178.528 21.4695 178.871 21.0658 Q179.218 20.6579 179.218 19.9591 Q179.218 19.256 178.871 18.8523 Q178.528 18.4487 177.937 18.4487 M179.678 15.7013 L179.678 16.4999 Q179.348 16.3436 179.009 16.2612 Q178.675 16.1787 178.345 16.1787 Q177.477 16.1787 177.017 16.7646 Q176.562 17.3506 176.496 18.5355 Q176.752 18.1579 177.139 17.9582 Q177.525 17.7542 177.989 17.7542 Q178.966 17.7542 179.53 18.3488 Q180.099 18.9391 180.099 19.9591 Q180.099 20.9573 179.509 21.5606 Q178.918 22.1639 177.937 22.1639 Q176.813 22.1639 176.219 21.3046 Q175.624 20.4408 175.624 18.8046 Q175.624 17.2681 176.353 16.3567 Q177.082 15.4409 178.311 15.4409 Q178.641 15.4409 178.975 15.506 Q179.313 15.5711 179.678 15.7013 Z" fill="#000000" fill-rule="evenodd" fill-opacity="1" /></svg>
