<?xml version="1.0" encoding="utf-8"?>
<svg xmlns="http://www.w3.org/2000/svg" xmlns:xlink="http://www.w3.org/1999/xlink" width="50" height="62.5" viewBox="0 0 200 250">
<defs>
  <clipPath id="clip080">
    <rect x="0" y="0" width="200" height="250"/>
  </clipPath>
</defs>
<path clip-path="url(#clip080)" d="
M0 250 L200 250 L200 0 L0 0  Z
  " fill="#ffffff" fill-rule="evenodd" fill-opacity="1"/>
<defs>
  <clipPath id="clip081">
    <rect x="50" y="25" width="176" height="176"/>
  </clipPath>
</defs>
<path clip-path="url(#clip080)" d="
M17.748 231.752 L188.189 231.752 L188.189 15.748 L17.748 15.748  Z
  " fill="#ffffff" fill-rule="evenodd" fill-opacity="1"/>
<defs>
  <clipPath id="clip082">
    <rect x="17" y="15" width="171" height="217"/>
  </clipPath>
</defs>
<polyline clip-path="url(#clip080)" style="stroke:#000000; stroke-width:1; stroke-opacity:1; fill:none" points="
  17.748,231.752 188.189,231.752 
  "/>
<polyline clip-path="url(#clip080)" style="stroke:#000000; stroke-width:1; stroke-opacity:1; fill:none" points="
  34.7921,231.752 34.7921,229.16 
  "/>
<polyline clip-path="url(#clip080)" style="stroke:#000000; stroke-width:1; stroke-opacity:1; fill:none" points="
  68.8803,231.752 68.8803,229.16 
  "/>
<polyline clip-path="url(#clip080)" style="stroke:#000000; stroke-width:1; stroke-opacity:1; fill:none" points="
  102.969,231.752 102.969,229.16 
  "/>
<polyline clip-path="url(#clip080)" style="stroke:#000000; stroke-width:1; stroke-opacity:1; fill:none" points="
  137.057,231.752 137.057,229.16 
  "/>
<polyline clip-path="url(#clip080)" style="stroke:#000000; stroke-width:1; stroke-opacity:1; fill:none" points="
  171.145,231.752 171.145,229.16 
  "/>
<path clip-path="url(#clip080)" d="M 0 0 M27.9056 239.913 L35.3245 239.913 L35.3245 240.897 L27.9056 240.897 L27.9056 239.913 Z" fill="#000000" fill-rule="evenodd" fill-opacity="1" /><path clip-path="url(#clip080)" d="M 0 0 M37.5988 243.136 L41.6787 243.136 L41.6787 244.12 L36.1926 244.12 L36.1926 243.136 Q36.8581 242.448 38.0039 241.29 Q39.1555 240.127 39.4507 239.791 Q40.012 239.161 40.2319 238.726 Q40.4576 238.287 40.4576 237.864 Q40.4576 237.176 39.9715 236.742 Q39.4912 236.308 38.7157 236.308 Q38.166 236.308 37.5525 236.498 Q36.9449 236.689 36.2505 237.077 L36.2505 235.897 Q36.9565 235.613 37.5699 235.468 Q38.1833 235.324 38.6926 235.324 Q40.0352 235.324 40.8338 235.995 Q41.6324 236.666 41.6324 237.789 Q41.6324 238.321 41.4298 238.802 Q41.2331 239.276 40.7064 239.924 Q40.5618 240.092 39.7863 240.897 Q39.0109 241.695 37.5988 243.136 Z" fill="#000000" fill-rule="evenodd" fill-opacity="1" /><path clip-path="url(#clip080)" d="M 0 0 M61.9475 239.913 L69.3664 239.913 L69.3664 240.897 L61.9475 240.897 L61.9475 239.913 Z" fill="#000000" fill-rule="evenodd" fill-opacity="1" /><path clip-path="url(#clip080)" d="M 0 0 M70.8363 243.136 L72.746 243.136 L72.746 236.545 L70.6685 236.961 L70.6685 235.897 L72.7345 235.48 L73.9034 235.48 L73.9034 243.136 L75.8131 243.136 L75.8131 244.12 L70.8363 244.12 L70.8363 243.136 Z" fill="#000000" fill-rule="evenodd" fill-opacity="1" /><path clip-path="url(#clip080)" d="M 0 0 M102.969 236.25 Q102.066 236.25 101.609 237.141 Q101.157 238.026 101.157 239.809 Q101.157 241.585 101.609 242.476 Q102.066 243.362 102.969 243.362 Q103.877 243.362 104.328 242.476 Q104.786 241.585 104.786 239.809 Q104.786 238.026 104.328 237.141 Q103.877 236.25 102.969 236.25 M102.969 235.324 Q104.421 235.324 105.185 236.475 Q105.955 237.621 105.955 239.809 Q105.955 241.99 105.185 243.142 Q104.421 244.288 102.969 244.288 Q101.516 244.288 100.746 243.142 Q99.9824 241.99 99.9824 239.809 Q99.9824 237.621 100.746 236.475 Q101.516 235.324 102.969 235.324 Z" fill="#000000" fill-rule="evenodd" fill-opacity="1" /><path clip-path="url(#clip080)" d="M 0 0 M134.652 243.136 L136.562 243.136 L136.562 236.545 L134.484 236.961 L134.484 235.897 L136.55 235.48 L137.719 235.48 L137.719 243.136 L139.629 243.136 L139.629 244.12 L134.652 244.12 L134.652 243.136 Z" fill="#000000" fill-rule="evenodd" fill-opacity="1" /><path clip-path="url(#clip080)" d="M 0 0 M169.808 243.136 L173.888 243.136 L173.888 244.12 L168.402 244.12 L168.402 243.136 Q169.067 242.448 170.213 241.29 Q171.365 240.127 171.66 239.791 Q172.221 239.161 172.441 238.726 Q172.667 238.287 172.667 237.864 Q172.667 237.176 172.181 236.742 Q171.7 236.308 170.925 236.308 Q170.375 236.308 169.762 236.498 Q169.154 236.689 168.46 237.077 L168.46 235.897 Q169.166 235.613 169.779 235.468 Q170.393 235.324 170.902 235.324 Q172.244 235.324 173.043 235.995 Q173.842 236.666 173.842 237.789 Q173.842 238.321 173.639 238.802 Q173.442 239.276 172.916 239.924 Q172.771 240.092 171.996 240.897 Q171.22 241.695 169.808 243.136 Z" fill="#000000" fill-rule="evenodd" fill-opacity="1" /><polyline clip-path="url(#clip080)" style="stroke:#000000; stroke-width:1; stroke-opacity:1; fill:none" points="
  17.748,231.752 17.748,15.748 
  "/>
<polyline clip-path="url(#clip080)" style="stroke:#000000; stroke-width:1; stroke-opacity:1; fill:none" points="
  17.748,210.152 19.7933,210.152 
  "/>
<polyline clip-path="url(#clip080)" style="stroke:#000000; stroke-width:1; stroke-opacity:1; fill:none" points="
  17.748,166.951 19.7933,166.951 
  "/>
<polyline clip-path="url(#clip080)" style="stroke:#000000; stroke-width:1; stroke-opacity:1; fill:none" points="
  17.748,123.75 19.7933,123.75 
  "/>
<polyline clip-path="url(#clip080)" style="stroke:#000000; stroke-width:1; stroke-opacity:1; fill:none" points="
  17.748,80.5492 19.7933,80.5492 
  "/>
<polyline clip-path="url(#clip080)" style="stroke:#000000; stroke-width:1; stroke-opacity:1; fill:none" points="
  17.748,37.3484 19.7933,37.3484 
  "/>
<path clip-path="url(#clip080)" d="M 0 0 M0.224957 210.264 L7.6439 210.264 L7.6439 211.248 L0.224957 211.248 L0.224957 210.264 Z" fill="#000000" fill-rule="evenodd" fill-opacity="1" /><path clip-path="url(#clip080)" d="M 0 0 M9.91819 213.488 L13.998 213.488 L13.998 214.472 L8.51195 214.472 L8.51195 213.488 Q9.17746 212.799 10.3233 211.642 Q11.4749 210.479 11.77 210.143 Q12.3314 209.512 12.5513 209.078 Q12.777 208.638 12.777 208.216 Q12.777 207.527 12.2909 207.093 Q11.8105 206.659 11.0351 206.659 Q10.4853 206.659 9.8719 206.85 Q9.26426 207.041 8.56982 207.429 L8.56982 206.248 Q9.27583 205.965 9.88926 205.82 Q10.5027 205.675 11.0119 205.675 Q12.3545 205.675 13.1531 206.347 Q13.9517 207.018 13.9517 208.141 Q13.9517 208.673 13.7492 209.153 Q13.5524 209.628 13.0258 210.276 Q12.8811 210.444 12.1057 211.248 Q11.3302 212.047 9.91819 213.488 Z" fill="#000000" fill-rule="evenodd" fill-opacity="1" /><path clip-path="url(#clip080)" d="M 0 0 M0.132365 167.064 L7.55131 167.064 L7.55131 168.047 L0.132365 168.047 L0.132365 167.064 Z" fill="#000000" fill-rule="evenodd" fill-opacity="1" /><path clip-path="url(#clip080)" d="M 0 0 M9.02121 170.287 L10.9309 170.287 L10.9309 163.696 L8.85338 164.112 L8.85338 163.047 L10.9193 162.631 L12.0883 162.631 L12.0883 170.287 L13.998 170.287 L13.998 171.271 L9.02121 171.271 L9.02121 170.287 Z" fill="#000000" fill-rule="evenodd" fill-opacity="1" /><path clip-path="url(#clip080)" d="M 0 0 M11.0119 120.2 Q10.1092 120.2 9.65199 121.091 Q9.2006 121.976 9.2006 123.759 Q9.2006 125.535 9.65199 126.426 Q10.1092 127.312 11.0119 127.312 Q11.9205 127.312 12.3719 126.426 Q12.8291 125.535 12.8291 123.759 Q12.8291 121.976 12.3719 121.091 Q11.9205 120.2 11.0119 120.2 M11.0119 119.274 Q12.4645 119.274 13.2284 120.425 Q13.998 121.571 13.998 123.759 Q13.998 125.94 13.2284 127.092 Q12.4645 128.238 11.0119 128.238 Q9.5594 128.238 8.78973 127.092 Q8.02584 125.94 8.02584 123.759 Q8.02584 121.571 8.78973 120.425 Q9.5594 119.274 11.0119 119.274 Z" fill="#000000" fill-rule="evenodd" fill-opacity="1" /><path clip-path="url(#clip080)" d="M 0 0 M9.02121 83.8854 L10.9309 83.8854 L10.9309 77.294 L8.85338 77.7107 L8.85338 76.6459 L10.9193 76.2292 L12.0883 76.2292 L12.0883 83.8854 L13.998 83.8854 L13.998 84.8692 L9.02121 84.8692 L9.02121 83.8854 Z" fill="#000000" fill-rule="evenodd" fill-opacity="1" /><path clip-path="url(#clip080)" d="M 0 0 M9.91819 40.6846 L13.998 40.6846 L13.998 41.6684 L8.51195 41.6684 L8.51195 40.6846 Q9.17746 39.996 10.3233 38.8386 Q11.4749 37.6754 11.77 37.3397 Q12.3314 36.709 12.5513 36.2749 Q12.777 35.8351 12.777 35.4127 Q12.777 34.724 12.2909 34.29 Q11.8105 33.856 11.0351 33.856 Q10.4853 33.856 9.8719 34.0469 Q9.26426 34.2379 8.56982 34.6256 L8.56982 33.4451 Q9.27583 33.1615 9.88926 33.0169 Q10.5027 32.8722 11.0119 32.8722 Q12.3545 32.8722 13.1531 33.5435 Q13.9517 34.2148 13.9517 35.3374 Q13.9517 35.8698 13.7492 36.3502 Q13.5524 36.8247 13.0258 37.4728 Q12.8811 37.6407 12.1057 38.4451 Q11.3302 39.2437 9.91819 40.6846 Z" fill="#000000" fill-rule="evenodd" fill-opacity="1" /><path clip-path="url(#clip080)" d="M 0 0 M85.2169 5.58215 Q84.4298 5.58215 83.9669 6.12034 Q83.5097 6.65853 83.5097 7.59602 Q83.5097 8.52773 83.9669 9.07171 Q84.4298 9.6099 85.2169 9.6099 Q86.0039 9.6099 86.4611 9.07171 Q86.924 8.52773 86.924 7.59602 Q86.924 6.65853 86.4611 6.12034 Q86.0039 5.58215 85.2169 5.58215 M87.5375 1.91897 L87.5375 2.98378 Q87.0976 2.77545 86.6463 2.66549 Q86.2007 2.55554 85.7608 2.55554 Q84.6034 2.55554 83.99 3.33679 Q83.3824 4.11803 83.2956 5.69789 Q83.637 5.19442 84.1521 4.92821 Q84.6671 4.65623 85.2863 4.65623 Q86.5884 4.65623 87.3407 5.44904 Q88.0988 6.23608 88.0988 7.59602 Q88.0988 8.92704 87.3118 9.73143 Q86.5247 10.5358 85.2169 10.5358 Q83.718 10.5358 82.9252 9.39 Q82.1324 8.23838 82.1324 6.05668 Q82.1324 4.00808 83.1046 2.79281 Q84.0768 1.57175 85.7145 1.57175 Q86.1544 1.57175 86.6 1.65856 Q87.0513 1.74536 87.5375 1.91897 Z" fill="#000000" fill-rule="evenodd" fill-opacity="1" /><path clip-path="url(#clip080)" d="M 0 0 M93.5502 2.93748 L93.5502 6.16085 L96.7735 6.16085 L96.7735 7.14464 L93.5502 7.14464 L93.5502 10.368 L92.5779 10.368 L92.5779 7.14464 L89.3546 7.14464 L89.3546 6.16085 L92.5779 6.16085 L92.5779 2.93748 L93.5502 2.93748 Z" fill="#000000" fill-rule="evenodd" fill-opacity="1" /><path clip-path="url(#clip080)" d="M 0 0 M97.792 1.36342 L100.246 1.36342 L100.246 2.19096 L98.8568 2.19096 L98.8568 11.1029 L100.246 11.1029 L100.246 11.9305 L97.792 11.9305 L97.792 1.36342 Z" fill="#000000" fill-rule="evenodd" fill-opacity="1" /><path clip-path="url(#clip080)" d="M 0 0 M104.013 2.49767 Q103.11 2.49767 102.653 3.38887 Q102.202 4.27428 102.202 6.05668 Q102.202 7.83329 102.653 8.72449 Q103.11 9.6099 104.013 9.6099 Q104.922 9.6099 105.373 8.72449 Q105.83 7.83329 105.83 6.05668 Q105.83 4.27428 105.373 3.38887 Q104.922 2.49767 104.013 2.49767 M104.013 1.57175 Q105.466 1.57175 106.229 2.72337 Q106.999 3.86919 106.999 6.05668 Q106.999 8.23838 106.229 9.39 Q105.466 10.5358 104.013 10.5358 Q102.561 10.5358 101.791 9.39 Q101.027 8.23838 101.027 6.05668 Q101.027 3.86919 101.791 2.72337 Q102.561 1.57175 104.013 1.57175 Z" fill="#000000" fill-rule="evenodd" fill-opacity="1" /><path clip-path="url(#clip080)" d="M 0 0 M110.766 2.49767 Q109.864 2.49767 109.407 3.38887 Q108.955 4.27428 108.955 6.05668 Q108.955 7.83329 109.407 8.72449 Q109.864 9.6099 110.766 9.6099 Q111.675 9.6099 112.126 8.72449 Q112.584 7.83329 112.584 6.05668 Q112.584 4.27428 112.126 3.38887 Q111.675 2.49767 110.766 2.49767 M110.766 1.57175 Q112.219 1.57175 112.983 2.72337 Q113.753 3.86919 113.753 6.05668 Q113.753 8.23838 112.983 9.39 Q112.219 10.5358 110.766 10.5358 Q109.314 10.5358 108.544 9.39 Q107.78 8.23838 107.78 6.05668 Q107.78 3.86919 108.544 2.72337 Q109.314 1.57175 110.766 1.57175 Z" fill="#000000" fill-rule="evenodd" fill-opacity="1" /><path clip-path="url(#clip080)" d="M 0 0 M115.222 9.38421 L117.132 9.38421 L117.132 2.79281 L115.055 3.20947 L115.055 2.14466 L117.121 1.728 L118.29 1.728 L118.29 9.38421 L120.199 9.38421 L120.199 10.368 L115.222 10.368 L115.222 9.38421 Z" fill="#000000" fill-rule="evenodd" fill-opacity="1" /><path clip-path="url(#clip080)" d="M 0 0 M123.805 1.36342 L123.805 11.9305 L121.351 11.9305 L121.351 11.1029 L122.734 11.1029 L122.734 2.19096 L121.351 2.19096 L121.351 1.36342 L123.805 1.36342 Z" fill="#000000" fill-rule="evenodd" fill-opacity="1" /><circle clip-path="url(#clip082)" cx="34.7921" cy="223.518" r="3" fill="#0000ff" fill-rule="evenodd" fill-opacity="1" stroke="none"/>
<path clip-path="url(#clip080)" d="M 0 0 M34.918 220.836 L36.3503 220.836 L36.3503 215.893 L34.7921 216.205 L34.7921 215.406 L36.3416 215.094 L37.2183 215.094 L37.2183 220.836 L38.6506 220.836 L38.6506 221.574 L34.918 221.574 L34.918 220.836 Z" fill="#000000" fill-rule="evenodd" fill-opacity="1" /><path clip-path="url(#clip080)" d="M 0 0 M41.5846 217.985 Q40.9943 217.985 40.6471 218.388 Q40.3042 218.792 40.3042 219.495 Q40.3042 220.194 40.6471 220.602 Q40.9943 221.005 41.5846 221.005 Q42.1749 221.005 42.5178 220.602 Q42.865 220.194 42.865 219.495 Q42.865 218.792 42.5178 218.388 Q42.1749 217.985 41.5846 217.985 M43.3251 215.237 L43.3251 216.036 Q42.9952 215.88 42.6567 215.797 Q42.3225 215.715 41.9926 215.715 Q41.1246 215.715 40.6645 216.301 Q40.2088 216.886 40.1437 218.071 Q40.3997 217.694 40.786 217.494 Q41.1723 217.29 41.6367 217.29 Q42.6133 217.29 43.1775 217.885 Q43.7461 218.475 43.7461 219.495 Q43.7461 220.493 43.1558 221.097 Q42.5655 221.7 41.5846 221.7 Q40.4605 221.7 39.8659 220.84 Q39.2713 219.977 39.2713 218.34 Q39.2713 216.804 40.0004 215.893 Q40.7296 214.977 41.9579 214.977 Q42.2877 214.977 42.6219 215.042 Q42.9605 215.107 43.3251 215.237 Z" fill="#000000" fill-rule="evenodd" fill-opacity="1" /><circle clip-path="url(#clip082)" cx="17.748" cy="186.105" r="3" fill="#0000ff" fill-rule="evenodd" fill-opacity="1" stroke="none"/>
<circle clip-path="url(#clip082)" cx="17.748" cy="136.221" r="3" fill="#0000ff" fill-rule="evenodd" fill-opacity="1" stroke="none"/>
<circle clip-path="url(#clip082)" cx="34.7921" cy="148.692" r="3" fill="#0000ff" fill-rule="evenodd" fill-opacity="1" stroke="none"/>
<circle clip-path="url(#clip082)" cx="34.7921" cy="98.808" r="3" fill="#0000ff" fill-rule="evenodd" fill-opacity="1" stroke="none"/>
<circle clip-path="url(#clip082)" cx="51.8362" cy="111.279" r="3" fill="#0000ff" fill-rule="evenodd" fill-opacity="1" stroke="none"/>
<circle clip-path="url(#clip082)" cx="51.8362" cy="211.047" r="3" fill="#0000ff" fill-rule="evenodd" fill-opacity="1" stroke="none"/>
<circle clip-path="url(#clip082)" cx="68.8803" cy="223.518" r="3" fill="#0000ff" fill-rule="evenodd" fill-opacity="1" stroke="none"/>
<circle clip-path="url(#clip082)" cx="68.8803" cy="173.634" r="3" fill="#0000ff" fill-rule="evenodd" fill-opacity="1" stroke="none"/>
<circle clip-path="url(#clip082)" cx="85.9244" cy="186.105" r="3" fill="#0000ff" fill-rule="evenodd" fill-opacity="1" stroke="none"/>
<circle clip-path="url(#clip082)" cx="85.9244" cy="136.221" r="3" fill="#0000ff" fill-rule="evenodd" fill-opacity="1" stroke="none"/>
<circle clip-path="url(#clip082)" cx="102.969" cy="148.692" r="3" fill="#0000ff" fill-rule="evenodd" fill-opacity="1" stroke="none"/>
<circle clip-path="url(#clip082)" cx="102.969" cy="173.634" r="3" fill="#0000ff" fill-rule="evenodd" fill-opacity="1" stroke="none"/>
<circle clip-path="url(#clip082)" cx="17.748" cy="111.279" r="3" fill="#0000ff" fill-rule="evenodd" fill-opacity="1" stroke="none"/>
<circle clip-path="url(#clip082)" cx="17.748" cy="211.047" r="3" fill="#0000ff" fill-rule="evenodd" fill-opacity="1" stroke="none"/>
<circle clip-path="url(#clip082)" cx="34.7921" cy="73.866" r="3" fill="#0000ff" fill-rule="evenodd" fill-opacity="1" stroke="none"/>
<circle clip-path="url(#clip082)" cx="34.7921" cy="173.634" r="3" fill="#0000ff" fill-rule="evenodd" fill-opacity="1" stroke="none"/>
<circle clip-path="url(#clip082)" cx="51.8362" cy="186.105" r="3" fill="#0000ff" fill-rule="evenodd" fill-opacity="1" stroke="none"/>
<circle clip-path="url(#clip082)" cx="51.8362" cy="136.221" r="3" fill="#0000ff" fill-rule="evenodd" fill-opacity="1" stroke="none"/>
<circle clip-path="url(#clip082)" cx="68.8803" cy="148.692" r="3" fill="#0000ff" fill-rule="evenodd" fill-opacity="1" stroke="none"/>
<circle clip-path="url(#clip082)" cx="85.9244" cy="111.279" r="3" fill="#0000ff" fill-rule="evenodd" fill-opacity="1" stroke="none"/>
<circle clip-path="url(#clip082)" cx="85.9244" cy="211.047" r="3" fill="#0000ff" fill-rule="evenodd" fill-opacity="1" stroke="none"/>
<circle clip-path="url(#clip082)" cx="102.969" cy="223.518" r="3" fill="#0000ff" fill-rule="evenodd" fill-opacity="1" stroke="none"/>
<path clip-path="url(#clip080)" d="M 0 0 M18.8027 183.423 L21.8626 183.423 L21.8626 184.161 L17.748 184.161 L17.748 183.423 Q18.2472 182.907 19.1065 182.039 Q19.9702 181.166 20.1916 180.914 Q20.6126 180.441 20.7775 180.116 Q20.9468 179.786 20.9468 179.469 Q20.9468 178.953 20.5822 178.627 Q20.222 178.302 19.6404 178.302 Q19.2281 178.302 18.768 178.445 Q18.3123 178.588 17.7914 178.879 L17.7914 177.993 Q18.3209 177.781 18.781 177.672 Q19.2411 177.564 19.623 177.564 Q20.63 177.564 21.2289 178.067 Q21.8279 178.571 21.8279 179.413 Q21.8279 179.812 21.676 180.172 Q21.5284 180.528 21.1334 181.014 Q21.0249 181.14 20.4433 181.743 Q19.8617 182.342 18.8027 183.423 Z" fill="#000000" fill-rule="evenodd" fill-opacity="1" /><path clip-path="url(#clip080)" d="M 0 0 M20.6777 130.783 Q21.307 130.918 21.6586 131.343 Q22.0145 131.768 22.0145 132.393 Q22.0145 133.353 21.3548 133.878 Q20.6951 134.403 19.4798 134.403 Q19.0718 134.403 18.6378 134.32 Q18.2081 134.242 17.748 134.082 L17.748 133.235 Q18.1126 133.448 18.5466 133.557 Q18.9807 133.665 19.4538 133.665 Q20.2784 133.665 20.7081 133.339 Q21.1421 133.014 21.1421 132.393 Q21.1421 131.82 20.7385 131.499 Q20.3392 131.174 19.623 131.174 L18.8678 131.174 L18.8678 130.453 L19.6577 130.453 Q20.3044 130.453 20.6473 130.197 Q20.9902 129.937 20.9902 129.451 Q20.9902 128.952 20.6343 128.687 Q20.2827 128.418 19.623 128.418 Q19.2628 128.418 18.8505 128.496 Q18.4381 128.574 17.9433 128.739 L17.9433 127.958 Q18.4425 127.819 18.8765 127.749 Q19.3149 127.68 19.7011 127.68 Q20.6994 127.68 21.281 128.136 Q21.8626 128.587 21.8626 129.359 Q21.8626 129.898 21.5544 130.271 Q21.2463 130.64 20.6777 130.783 Z" fill="#000000" fill-rule="evenodd" fill-opacity="1" /><path clip-path="url(#clip080)" d="M 0 0 M37.7175 141.032 L35.5039 144.491 L37.7175 144.491 L37.7175 141.032 M37.4874 140.268 L38.5898 140.268 L38.5898 144.491 L39.5143 144.491 L39.5143 145.22 L38.5898 145.22 L38.5898 146.748 L37.7175 146.748 L37.7175 145.22 L34.7921 145.22 L34.7921 144.374 L37.4874 140.268 Z" fill="#000000" fill-rule="evenodd" fill-opacity="1" /><path clip-path="url(#clip080)" d="M 0 0 M35.0656 90.384 L38.5074 90.384 L38.5074 91.1219 L35.8685 91.1219 L35.8685 92.7104 Q36.0595 92.6453 36.2505 92.6149 Q36.4414 92.5802 36.6324 92.5802 Q37.7175 92.5802 38.3511 93.1748 Q38.9848 93.7694 38.9848 94.785 Q38.9848 95.831 38.3338 96.4126 Q37.6827 96.9899 36.4978 96.9899 Q36.0899 96.9899 35.6645 96.9204 Q35.2435 96.851 34.7921 96.7121 L34.7921 95.831 Q35.1827 96.0437 35.5994 96.1479 Q36.0161 96.252 36.4805 96.252 Q37.2313 96.252 37.6697 95.8571 Q38.1081 95.4621 38.1081 94.785 Q38.1081 94.108 37.6697 93.713 Q37.2313 93.318 36.4805 93.318 Q36.1289 93.318 35.7774 93.3962 Q35.4301 93.4743 35.0656 93.6392 L35.0656 90.384 Z" fill="#000000" fill-rule="evenodd" fill-opacity="1" /><path clip-path="url(#clip080)" d="M 0 0 M54.1496 105.746 Q53.5593 105.746 53.2121 106.149 Q52.8692 106.553 52.8692 107.256 Q52.8692 107.955 53.2121 108.363 Q53.5593 108.766 54.1496 108.766 Q54.7399 108.766 55.0827 108.363 Q55.43 107.955 55.43 107.256 Q55.43 106.553 55.0827 106.149 Q54.7399 105.746 54.1496 105.746 M55.89 102.998 L55.89 103.797 Q55.5602 103.641 55.2216 103.558 Q54.8874 103.476 54.5576 103.476 Q53.6895 103.476 53.2294 104.062 Q52.7737 104.648 52.7086 105.832 Q52.9647 105.455 53.351 105.255 Q53.7373 105.051 54.2017 105.051 Q55.1782 105.051 55.7424 105.646 Q56.311 106.236 56.311 107.256 Q56.311 108.254 55.7207 108.858 Q55.1305 109.461 54.1496 109.461 Q53.0255 109.461 52.4308 108.602 Q51.8362 107.738 51.8362 106.102 Q51.8362 104.565 52.5654 103.654 Q53.2945 102.738 54.5228 102.738 Q54.8527 102.738 55.1869 102.803 Q55.5254 102.868 55.89 102.998 Z" fill="#000000" fill-rule="evenodd" fill-opacity="1" /><path clip-path="url(#clip080)" d="M 0 0 M51.8362 202.623 L56.0029 202.623 L56.0029 202.996 L53.6504 209.103 L52.7347 209.103 L54.9482 203.361 L51.8362 203.361 L51.8362 202.623 Z" fill="#000000" fill-rule="evenodd" fill-opacity="1" /><path clip-path="url(#clip080)" d="M 0 0 M71.1025 218.497 Q70.4775 218.497 70.1173 218.831 Q69.7614 219.165 69.7614 219.751 Q69.7614 220.337 70.1173 220.671 Q70.4775 221.005 71.1025 221.005 Q71.7275 221.005 72.0878 220.671 Q72.448 220.333 72.448 219.751 Q72.448 219.165 72.0878 218.831 Q71.7319 218.497 71.1025 218.497 M70.2258 218.123 Q69.6616 217.985 69.3447 217.598 Q69.0322 217.212 69.0322 216.656 Q69.0322 215.88 69.5834 215.428 Q70.139 214.977 71.1025 214.977 Q72.0704 214.977 72.6216 215.428 Q73.1728 215.88 73.1728 216.656 Q73.1728 217.212 72.856 217.598 Q72.5435 217.985 71.9836 218.123 Q72.6173 218.271 72.9688 218.701 Q73.3247 219.13 73.3247 219.751 Q73.3247 220.693 72.7475 221.196 Q72.1746 221.7 71.1025 221.7 Q70.0305 221.7 69.4532 221.196 Q68.8803 220.693 68.8803 219.751 Q68.8803 219.13 69.2362 218.701 Q69.5921 218.271 70.2258 218.123 M69.9046 216.739 Q69.9046 217.242 70.2171 217.524 Q70.534 217.807 71.1025 217.807 Q71.6668 217.807 71.9836 217.524 Q72.3048 217.242 72.3048 216.739 Q72.3048 216.235 71.9836 215.953 Q71.6668 215.671 71.1025 215.671 Q70.534 215.671 70.2171 215.953 Q69.9046 216.235 69.9046 216.739 Z" fill="#000000" fill-rule="evenodd" fill-opacity="1" /><path clip-path="url(#clip080)" d="M 0 0 M69.297 171.555 L69.297 170.757 Q69.6268 170.913 69.9654 170.996 Q70.3039 171.078 70.6294 171.078 Q71.4975 171.078 71.9532 170.496 Q72.4133 169.91 72.4784 168.721 Q72.2267 169.095 71.8404 169.294 Q71.4541 169.494 70.9853 169.494 Q70.0131 169.494 69.4445 168.908 Q68.8803 168.318 68.8803 167.298 Q68.8803 166.299 69.4706 165.696 Q70.0609 165.093 71.0418 165.093 Q72.1659 165.093 72.7562 165.956 Q73.3508 166.816 73.3508 168.456 Q73.3508 169.989 72.6216 170.904 Q71.8968 171.816 70.6685 171.816 Q70.3386 171.816 70.0001 171.751 Q69.6616 171.686 69.297 171.555 M71.0418 168.808 Q71.632 168.808 71.9749 168.404 Q72.3221 168.001 72.3221 167.298 Q72.3221 166.599 71.9749 166.195 Q71.632 165.787 71.0418 165.787 Q70.4515 165.787 70.1043 166.195 Q69.7614 166.599 69.7614 167.298 Q69.7614 168.001 70.1043 168.404 Q70.4515 168.808 71.0418 168.808 Z" fill="#000000" fill-rule="evenodd" fill-opacity="1" /><path clip-path="url(#clip080)" d="M 0 0 M86.0503 183.423 L87.4826 183.423 L87.4826 178.48 L85.9244 178.792 L85.9244 177.993 L87.4739 177.681 L88.3506 177.681 L88.3506 183.423 L89.7829 183.423 L89.7829 184.161 L86.0503 184.161 L86.0503 183.423 Z" fill="#000000" fill-rule="evenodd" fill-opacity="1" /><path clip-path="url(#clip080)" d="M 0 0 M92.6084 178.258 Q91.9313 178.258 91.5884 178.927 Q91.2499 179.591 91.2499 180.927 Q91.2499 182.26 91.5884 182.928 Q91.9313 183.592 92.6084 183.592 Q93.2898 183.592 93.6284 182.928 Q93.9712 182.26 93.9712 180.927 Q93.9712 179.591 93.6284 178.927 Q93.2898 178.258 92.6084 178.258 M92.6084 177.564 Q93.6978 177.564 94.2707 178.427 Q94.848 179.287 94.848 180.927 Q94.848 182.564 94.2707 183.427 Q93.6978 184.287 92.6084 184.287 Q91.519 184.287 90.9417 183.427 Q90.3688 182.564 90.3688 180.927 Q90.3688 179.287 90.9417 178.427 Q91.519 177.564 92.6084 177.564 Z" fill="#000000" fill-rule="evenodd" fill-opacity="1" /><path clip-path="url(#clip080)" d="M 0 0 M86.0503 133.539 L87.4826 133.539 L87.4826 128.596 L85.9244 128.908 L85.9244 128.109 L87.4739 127.797 L88.3506 127.797 L88.3506 133.539 L89.7829 133.539 L89.7829 134.277 L86.0503 134.277 L86.0503 133.539 Z" fill="#000000" fill-rule="evenodd" fill-opacity="1" /><path clip-path="url(#clip080)" d="M 0 0 M90.8853 133.539 L92.3176 133.539 L92.3176 128.596 L90.7595 128.908 L90.7595 128.109 L92.3089 127.797 L93.1857 127.797 L93.1857 133.539 L94.6179 133.539 L94.6179 134.277 L90.8853 134.277 L90.8853 133.539 Z" fill="#000000" fill-rule="evenodd" fill-opacity="1" /><path clip-path="url(#clip080)" d="M 0 0 M103.094 146.01 L104.527 146.01 L104.527 141.067 L102.969 141.379 L102.969 140.58 L104.518 140.268 L105.395 140.268 L105.395 146.01 L106.827 146.01 L106.827 146.748 L103.094 146.748 L103.094 146.01 Z" fill="#000000" fill-rule="evenodd" fill-opacity="1" /><path clip-path="url(#clip080)" d="M 0 0 M108.533 146.01 L111.593 146.01 L111.593 146.748 L107.478 146.748 L107.478 146.01 Q107.977 145.494 108.837 144.626 Q109.7 143.753 109.922 143.501 Q110.343 143.028 110.508 142.703 Q110.677 142.373 110.677 142.056 Q110.677 141.54 110.312 141.214 Q109.952 140.889 109.37 140.889 Q108.958 140.889 108.498 141.032 Q108.042 141.175 107.521 141.466 L107.521 140.58 Q108.051 140.368 108.511 140.259 Q108.971 140.151 109.353 140.151 Q110.36 140.151 110.959 140.654 Q111.558 141.158 111.558 142 Q111.558 142.399 111.406 142.759 Q111.258 143.115 110.863 143.601 Q110.755 143.727 110.173 144.33 Q109.592 144.929 108.533 146.01 Z" fill="#000000" fill-rule="evenodd" fill-opacity="1" /><path clip-path="url(#clip080)" d="M 0 0 M103.094 170.952 L104.527 170.952 L104.527 166.009 L102.969 166.321 L102.969 165.522 L104.518 165.21 L105.395 165.21 L105.395 170.952 L106.827 170.952 L106.827 171.69 L103.094 171.69 L103.094 170.952 Z" fill="#000000" fill-rule="evenodd" fill-opacity="1" /><path clip-path="url(#clip080)" d="M 0 0 M110.434 168.196 Q111.063 168.331 111.415 168.756 Q111.771 169.181 111.771 169.806 Q111.771 170.765 111.111 171.291 Q110.451 171.816 109.236 171.816 Q108.828 171.816 108.394 171.733 Q107.964 171.655 107.504 171.495 L107.504 170.648 Q107.869 170.861 108.303 170.969 Q108.737 171.078 109.21 171.078 Q110.034 171.078 110.464 170.752 Q110.898 170.427 110.898 169.806 Q110.898 169.233 110.495 168.912 Q110.095 168.587 109.379 168.587 L108.624 168.587 L108.624 167.866 L109.414 167.866 Q110.06 167.866 110.403 167.61 Q110.746 167.35 110.746 166.864 Q110.746 166.364 110.39 166.1 Q110.039 165.831 109.379 165.831 Q109.019 165.831 108.606 165.909 Q108.194 165.987 107.699 166.152 L107.699 165.371 Q108.199 165.232 108.633 165.162 Q109.071 165.093 109.457 165.093 Q110.455 165.093 111.037 165.549 Q111.619 166 111.619 166.772 Q111.619 167.311 111.31 167.684 Q111.002 168.053 110.434 168.196 Z" fill="#000000" fill-rule="evenodd" fill-opacity="1" /><path clip-path="url(#clip080)" d="M 0 0 M17.8739 108.597 L19.3062 108.597 L19.3062 103.654 L17.748 103.966 L17.748 103.168 L19.2975 102.855 L20.1742 102.855 L20.1742 108.597 L21.6065 108.597 L21.6065 109.335 L17.8739 109.335 L17.8739 108.597 Z" fill="#000000" fill-rule="evenodd" fill-opacity="1" /><path clip-path="url(#clip080)" d="M 0 0 M24.9659 103.619 L22.7523 107.078 L24.9659 107.078 L24.9659 103.619 M24.7358 102.855 L25.8383 102.855 L25.8383 107.078 L26.7627 107.078 L26.7627 107.807 L25.8383 107.807 L25.8383 109.335 L24.9659 109.335 L24.9659 107.807 L22.0405 107.807 L22.0405 106.961 L24.7358 102.855 Z" fill="#000000" fill-rule="evenodd" fill-opacity="1" /><path clip-path="url(#clip080)" d="M 0 0 M17.8739 208.365 L19.3062 208.365 L19.3062 203.422 L17.748 203.734 L17.748 202.935 L19.2975 202.623 L20.1742 202.623 L20.1742 208.365 L21.6065 208.365 L21.6065 209.103 L17.8739 209.103 L17.8739 208.365 Z" fill="#000000" fill-rule="evenodd" fill-opacity="1" /><path clip-path="url(#clip080)" d="M 0 0 M22.5657 202.623 L26.0075 202.623 L26.0075 203.361 L23.3687 203.361 L23.3687 204.949 Q23.5596 204.884 23.7506 204.854 Q23.9416 204.819 24.1325 204.819 Q25.2176 204.819 25.8513 205.414 Q26.485 206.008 26.485 207.024 Q26.485 208.07 25.8339 208.652 Q25.1829 209.229 23.998 209.229 Q23.59 209.229 23.1647 209.159 Q22.7437 209.09 22.2923 208.951 L22.2923 208.07 Q22.6829 208.283 23.0996 208.387 Q23.5162 208.491 23.9806 208.491 Q24.7315 208.491 25.1699 208.096 Q25.6082 207.701 25.6082 207.024 Q25.6082 206.347 25.1699 205.952 Q24.7315 205.557 23.9806 205.557 Q23.6291 205.557 23.2775 205.635 Q22.9303 205.713 22.5657 205.878 L22.5657 202.623 Z" fill="#000000" fill-rule="evenodd" fill-opacity="1" /><path clip-path="url(#clip080)" d="M 0 0 M34.918 71.1842 L36.3503 71.1842 L36.3503 66.2406 L34.7921 66.5531 L34.7921 65.7545 L36.3416 65.442 L37.2183 65.442 L37.2183 71.1842 L38.6506 71.1842 L38.6506 71.922 L34.918 71.922 L34.918 71.1842 Z" fill="#000000" fill-rule="evenodd" fill-opacity="1" /><path clip-path="url(#clip080)" d="M 0 0 M41.5846 68.3326 Q40.9943 68.3326 40.6471 68.7363 Q40.3042 69.1399 40.3042 69.843 Q40.3042 70.5418 40.6471 70.9498 Q40.9943 71.3535 41.5846 71.3535 Q42.1749 71.3535 42.5178 70.9498 Q42.865 70.5418 42.865 69.843 Q42.865 69.1399 42.5178 68.7363 Q42.1749 68.3326 41.5846 68.3326 M43.3251 65.5853 L43.3251 66.3839 Q42.9952 66.2276 42.6567 66.1451 Q42.3225 66.0627 41.9926 66.0627 Q41.1246 66.0627 40.6645 66.6486 Q40.2088 67.2346 40.1437 68.4194 Q40.3997 68.0418 40.786 67.8422 Q41.1723 67.6382 41.6367 67.6382 Q42.6133 67.6382 43.1775 68.2328 Q43.7461 68.8231 43.7461 69.843 Q43.7461 70.8413 43.1558 71.4446 Q42.5655 72.0479 41.5846 72.0479 Q40.4605 72.0479 39.8659 71.1885 Q39.2713 70.3248 39.2713 68.6885 Q39.2713 67.1521 40.0004 66.2406 Q40.7296 65.3248 41.9579 65.3248 Q42.2877 65.3248 42.6219 65.3899 Q42.9605 65.455 43.3251 65.5853 Z" fill="#000000" fill-rule="evenodd" fill-opacity="1" /><path clip-path="url(#clip080)" d="M 0 0 M34.918 170.952 L36.3503 170.952 L36.3503 166.009 L34.7921 166.321 L34.7921 165.522 L36.3416 165.21 L37.2183 165.21 L37.2183 170.952 L38.6506 170.952 L38.6506 171.69 L34.918 171.69 L34.918 170.952 Z" fill="#000000" fill-rule="evenodd" fill-opacity="1" /><path clip-path="url(#clip080)" d="M 0 0 M39.3798 165.21 L43.5464 165.21 L43.5464 165.583 L41.194 171.69 L40.2782 171.69 L42.4917 165.948 L39.3798 165.948 L39.3798 165.21 Z" fill="#000000" fill-rule="evenodd" fill-opacity="1" /><path clip-path="url(#clip080)" d="M 0 0 M51.9621 183.423 L53.3944 183.423 L53.3944 178.48 L51.8362 178.792 L51.8362 177.993 L53.3857 177.681 L54.2624 177.681 L54.2624 183.423 L55.6947 183.423 L55.6947 184.161 L51.9621 184.161 L51.9621 183.423 Z" fill="#000000" fill-rule="evenodd" fill-opacity="1" /><path clip-path="url(#clip080)" d="M 0 0 M58.5202 181.084 Q57.8952 181.084 57.535 181.418 Q57.1791 181.752 57.1791 182.338 Q57.1791 182.924 57.535 183.258 Q57.8952 183.592 58.5202 183.592 Q59.1452 183.592 59.5055 183.258 Q59.8657 182.92 59.8657 182.338 Q59.8657 181.752 59.5055 181.418 Q59.1495 181.084 58.5202 181.084 M57.6435 180.71 Q57.0792 180.572 56.7624 180.185 Q56.4499 179.799 56.4499 179.243 Q56.4499 178.467 57.0011 178.015 Q57.5567 177.564 58.5202 177.564 Q59.4881 177.564 60.0393 178.015 Q60.5905 178.467 60.5905 179.243 Q60.5905 179.799 60.2737 180.185 Q59.9612 180.572 59.4013 180.71 Q60.035 180.858 60.3865 181.288 Q60.7424 181.717 60.7424 182.338 Q60.7424 183.28 60.1652 183.783 Q59.5923 184.287 58.5202 184.287 Q57.4482 184.287 56.8709 183.783 Q56.298 183.28 56.298 182.338 Q56.298 181.717 56.6539 181.288 Q57.0098 180.858 57.6435 180.71 M57.3223 179.326 Q57.3223 179.829 57.6348 180.112 Q57.9516 180.394 58.5202 180.394 Q59.0844 180.394 59.4013 180.112 Q59.7225 179.829 59.7225 179.326 Q59.7225 178.822 59.4013 178.54 Q59.0844 178.258 58.5202 178.258 Q57.9516 178.258 57.6348 178.54 Q57.3223 178.822 57.3223 179.326 Z" fill="#000000" fill-rule="evenodd" fill-opacity="1" /><path clip-path="url(#clip080)" d="M 0 0 M51.9621 133.539 L53.3944 133.539 L53.3944 128.596 L51.8362 128.908 L51.8362 128.109 L53.3857 127.797 L54.2624 127.797 L54.2624 133.539 L55.6947 133.539 L55.6947 134.277 L51.9621 134.277 L51.9621 133.539 Z" fill="#000000" fill-rule="evenodd" fill-opacity="1" /><path clip-path="url(#clip080)" d="M 0 0 M56.6713 134.142 L56.6713 133.344 Q57.0011 133.5 57.3397 133.583 Q57.6782 133.665 58.0037 133.665 Q58.8718 133.665 59.3275 133.083 Q59.7876 132.497 59.8527 131.308 Q59.6009 131.682 59.2147 131.881 Q58.8284 132.081 58.3596 132.081 Q57.3874 132.081 56.8188 131.495 Q56.2546 130.905 56.2546 129.885 Q56.2546 128.886 56.8449 128.283 Q57.4351 127.68 58.416 127.68 Q59.5402 127.68 60.1304 128.544 Q60.7251 129.403 60.7251 131.044 Q60.7251 132.576 59.9959 133.491 Q59.2711 134.403 58.0428 134.403 Q57.7129 134.403 57.3744 134.338 Q57.0358 134.273 56.6713 134.142 M58.416 131.395 Q59.0063 131.395 59.3492 130.991 Q59.6964 130.588 59.6964 129.885 Q59.6964 129.186 59.3492 128.782 Q59.0063 128.374 58.416 128.374 Q57.8258 128.374 57.4786 128.782 Q57.1357 129.186 57.1357 129.885 Q57.1357 130.588 57.4786 130.991 Q57.8258 131.395 58.416 131.395 Z" fill="#000000" fill-rule="evenodd" fill-opacity="1" /><path clip-path="url(#clip080)" d="M 0 0 M69.935 146.01 L72.9949 146.01 L72.9949 146.748 L68.8803 146.748 L68.8803 146.01 Q69.3794 145.494 70.2388 144.626 Q71.1025 143.753 71.3239 143.501 Q71.7449 143.028 71.9098 142.703 Q72.0791 142.373 72.0791 142.056 Q72.0791 141.54 71.7145 141.214 Q71.3543 140.889 70.7727 140.889 Q70.3603 140.889 69.9003 141.032 Q69.4445 141.175 68.9237 141.466 L68.9237 140.58 Q69.4532 140.368 69.9133 140.259 Q70.3734 140.151 70.7553 140.151 Q71.7622 140.151 72.3612 140.654 Q72.9602 141.158 72.9602 142 Q72.9602 142.399 72.8082 142.759 Q72.6607 143.115 72.2657 143.601 Q72.1572 143.727 71.5756 144.33 Q70.994 144.929 69.935 146.01 Z" fill="#000000" fill-rule="evenodd" fill-opacity="1" /><path clip-path="url(#clip080)" d="M 0 0 M75.8204 140.845 Q75.1433 140.845 74.8004 141.514 Q74.4619 142.178 74.4619 143.514 Q74.4619 144.847 74.8004 145.515 Q75.1433 146.179 75.8204 146.179 Q76.5018 146.179 76.8403 145.515 Q77.1832 144.847 77.1832 143.514 Q77.1832 142.178 76.8403 141.514 Q76.5018 140.845 75.8204 140.845 M75.8204 140.151 Q76.9098 140.151 77.4827 141.015 Q78.06 141.874 78.06 143.514 Q78.06 145.151 77.4827 146.014 Q76.9098 146.874 75.8204 146.874 Q74.731 146.874 74.1537 146.014 Q73.5808 145.151 73.5808 143.514 Q73.5808 141.874 74.1537 141.015 Q74.731 140.151 75.8204 140.151 Z" fill="#000000" fill-rule="evenodd" fill-opacity="1" /><path clip-path="url(#clip080)" d="M 0 0 M86.9791 108.597 L90.039 108.597 L90.039 109.335 L85.9244 109.335 L85.9244 108.597 Q86.4235 108.081 87.2829 107.213 Q88.1466 106.34 88.368 106.088 Q88.789 105.615 88.9539 105.29 Q89.1232 104.96 89.1232 104.643 Q89.1232 104.127 88.7586 103.801 Q88.3984 103.476 87.8168 103.476 Q87.4044 103.476 86.9444 103.619 Q86.4886 103.762 85.9678 104.053 L85.9678 103.168 Q86.4973 102.955 86.9574 102.846 Q87.4175 102.738 87.7994 102.738 Q88.8063 102.738 89.4053 103.241 Q90.0042 103.745 90.0042 104.587 Q90.0042 104.986 89.8523 105.346 Q89.7048 105.702 89.3098 106.188 Q89.2013 106.314 88.6197 106.917 Q88.0381 107.516 86.9791 108.597 Z" fill="#000000" fill-rule="evenodd" fill-opacity="1" /><path clip-path="url(#clip080)" d="M 0 0 M91.7447 108.597 L94.8046 108.597 L94.8046 109.335 L90.69 109.335 L90.69 108.597 Q91.1891 108.081 92.0485 107.213 Q92.9122 106.34 93.1336 106.088 Q93.5546 105.615 93.7195 105.29 Q93.8888 104.96 93.8888 104.643 Q93.8888 104.127 93.5242 103.801 Q93.164 103.476 92.5824 103.476 Q92.17 103.476 91.71 103.619 Q91.2542 103.762 90.7334 104.053 L90.7334 103.168 Q91.2629 102.955 91.723 102.846 Q92.1831 102.738 92.565 102.738 Q93.5719 102.738 94.1709 103.241 Q94.7698 103.745 94.7698 104.587 Q94.7698 104.986 94.6179 105.346 Q94.4704 105.702 94.0754 106.188 Q93.9669 106.314 93.3853 106.917 Q92.8037 107.516 91.7447 108.597 Z" fill="#000000" fill-rule="evenodd" fill-opacity="1" /><path clip-path="url(#clip080)" d="M 0 0 M86.9791 208.365 L90.039 208.365 L90.039 209.103 L85.9244 209.103 L85.9244 208.365 Q86.4235 207.849 87.2829 206.981 Q88.1466 206.108 88.368 205.856 Q88.789 205.383 88.9539 205.058 Q89.1232 204.728 89.1232 204.411 Q89.1232 203.895 88.7586 203.569 Q88.3984 203.244 87.8168 203.244 Q87.4044 203.244 86.9444 203.387 Q86.4886 203.53 85.9678 203.821 L85.9678 202.935 Q86.4973 202.723 86.9574 202.614 Q87.4175 202.506 87.7994 202.506 Q88.8063 202.506 89.4053 203.009 Q90.0042 203.513 90.0042 204.355 Q90.0042 204.754 89.8523 205.114 Q89.7048 205.47 89.3098 205.956 Q89.2013 206.082 88.6197 206.685 Q88.0381 207.284 86.9791 208.365 Z" fill="#000000" fill-rule="evenodd" fill-opacity="1" /><path clip-path="url(#clip080)" d="M 0 0 M93.6457 205.609 Q94.2751 205.744 94.6266 206.169 Q94.9825 206.594 94.9825 207.219 Q94.9825 208.178 94.3228 208.704 Q93.6631 209.229 92.4478 209.229 Q92.0398 209.229 91.6058 209.146 Q91.1761 209.068 90.7161 208.908 L90.7161 208.061 Q91.0806 208.274 91.5147 208.382 Q91.9487 208.491 92.4218 208.491 Q93.2464 208.491 93.6761 208.165 Q94.1101 207.84 94.1101 207.219 Q94.1101 206.646 93.7065 206.325 Q93.3072 206 92.591 206 L91.8358 206 L91.8358 205.279 L92.6258 205.279 Q93.2725 205.279 93.6153 205.023 Q93.9582 204.763 93.9582 204.277 Q93.9582 203.777 93.6023 203.513 Q93.2508 203.244 92.591 203.244 Q92.2308 203.244 91.8185 203.322 Q91.4062 203.4 90.9114 203.565 L90.9114 202.784 Q91.4105 202.645 91.8445 202.575 Q92.2829 202.506 92.6692 202.506 Q93.6674 202.506 94.249 202.961 Q94.8306 203.413 94.8306 204.185 Q94.8306 204.724 94.5225 205.097 Q94.2143 205.466 93.6457 205.609 Z" fill="#000000" fill-rule="evenodd" fill-opacity="1" /><path clip-path="url(#clip080)" d="M 0 0 M104.023 220.836 L107.083 220.836 L107.083 221.574 L102.969 221.574 L102.969 220.836 Q103.468 220.32 104.327 219.452 Q105.191 218.579 105.412 218.327 Q105.833 217.854 105.998 217.529 Q106.167 217.199 106.167 216.882 Q106.167 216.366 105.803 216.04 Q105.442 215.715 104.861 215.715 Q104.449 215.715 103.988 215.858 Q103.533 216.001 103.012 216.292 L103.012 215.406 Q103.541 215.194 104.001 215.085 Q104.462 214.977 104.843 214.977 Q105.85 214.977 106.449 215.48 Q107.048 215.984 107.048 216.826 Q107.048 217.225 106.896 217.585 Q106.749 217.941 106.354 218.427 Q106.245 218.553 105.664 219.156 Q105.082 219.755 104.023 220.836 Z" fill="#000000" fill-rule="evenodd" fill-opacity="1" /><path clip-path="url(#clip080)" d="M 0 0 M110.442 215.858 L108.229 219.317 L110.442 219.317 L110.442 215.858 M110.212 215.094 L111.315 215.094 L111.315 219.317 L112.239 219.317 L112.239 220.046 L111.315 220.046 L111.315 221.574 L110.442 221.574 L110.442 220.046 L107.517 220.046 L107.517 219.2 L110.212 215.094 Z" fill="#000000" fill-rule="evenodd" fill-opacity="1" /><circle clip-path="url(#clip082)" cx="102.969" cy="98.808" r="3" fill="#0000ff" fill-rule="evenodd" fill-opacity="1" stroke="none"/>
<circle clip-path="url(#clip082)" cx="17.748" cy="36.453" r="3" fill="#0000ff" fill-rule="evenodd" fill-opacity="1" stroke="none"/>
<circle clip-path="url(#clip082)" cx="51.8362" cy="61.395" r="3" fill="#0000ff" fill-rule="evenodd" fill-opacity="1" stroke="none"/>
<circle clip-path="url(#clip082)" cx="68.8803" cy="73.866" r="3" fill="#0000ff" fill-rule="evenodd" fill-opacity="1" stroke="none"/>
<circle clip-path="url(#clip082)" cx="68.8803" cy="23.9821" r="3" fill="#0000ff" fill-rule="evenodd" fill-opacity="1" stroke="none"/>
<circle clip-path="url(#clip082)" cx="85.9244" cy="36.453" r="3" fill="#0000ff" fill-rule="evenodd" fill-opacity="1" stroke="none"/>
<circle clip-path="url(#clip082)" cx="102.969" cy="23.9821" r="3" fill="#0000ff" fill-rule="evenodd" fill-opacity="1" stroke="none"/>
<circle clip-path="url(#clip082)" cx="17.748" cy="61.395" r="3" fill="#0000ff" fill-rule="evenodd" fill-opacity="1" stroke="none"/>
<circle clip-path="url(#clip082)" cx="34.7921" cy="23.9821" r="3" fill="#0000ff" fill-rule="evenodd" fill-opacity="1" stroke="none"/>
<circle clip-path="url(#clip082)" cx="51.8362" cy="36.453" r="3" fill="#0000ff" fill-rule="evenodd" fill-opacity="1" stroke="none"/>
<circle clip-path="url(#clip082)" cx="68.8803" cy="98.808" r="3" fill="#0000ff" fill-rule="evenodd" fill-opacity="1" stroke="none"/>
<circle clip-path="url(#clip082)" cx="85.9244" cy="61.395" r="3" fill="#0000ff" fill-rule="evenodd" fill-opacity="1" stroke="none"/>
<circle clip-path="url(#clip082)" cx="102.969" cy="73.866" r="3" fill="#0000ff" fill-rule="evenodd" fill-opacity="1" stroke="none"/>
<path clip-path="url(#clip080)" d="M 0 0 M103.094 96.1262 L104.527 96.1262 L104.527 91.1826 L102.969 91.4951 L102.969 90.6965 L104.518 90.384 L105.395 90.384 L105.395 96.1262 L106.827 96.1262 L106.827 96.864 L103.094 96.864 L103.094 96.1262 Z" fill="#000000" fill-rule="evenodd" fill-opacity="1" /><path clip-path="url(#clip080)" d="M 0 0 M18.8027 33.7712 L21.8626 33.7712 L21.8626 34.509 L17.748 34.509 L17.748 33.7712 Q18.2472 33.2547 19.1065 32.3867 Q19.9702 31.5143 20.1916 31.2625 Q20.6126 30.7895 20.7775 30.4639 Q20.9468 30.1341 20.9468 29.8172 Q20.9468 29.3007 20.5822 28.9752 Q20.222 28.6497 19.6404 28.6497 Q19.2281 28.6497 18.768 28.7929 Q18.3123 28.9362 17.7914 29.227 L17.7914 28.3415 Q18.3209 28.1289 18.781 28.0204 Q19.2411 27.9119 19.623 27.9119 Q20.63 27.9119 21.2289 28.4153 Q21.8279 28.9188 21.8279 29.7608 Q21.8279 30.1601 21.676 30.5204 Q21.5284 30.8763 21.1334 31.3624 Q21.0249 31.4882 20.4433 32.0915 Q19.8617 32.6905 18.8027 33.7712 Z" fill="#000000" fill-rule="evenodd" fill-opacity="1" /><path clip-path="url(#clip080)" d="M 0 0 M51.8362 52.971 L56.0029 52.971 L56.0029 53.3443 L53.6504 59.451 L52.7347 59.451 L54.9482 53.7089 L51.8362 53.7089 L51.8362 52.971 Z" fill="#000000" fill-rule="evenodd" fill-opacity="1" /><path clip-path="url(#clip080)" d="M 0 0 M71.1025 68.8448 Q70.4775 68.8448 70.1173 69.179 Q69.7614 69.5132 69.7614 70.0991 Q69.7614 70.6851 70.1173 71.0193 Q70.4775 71.3535 71.1025 71.3535 Q71.7275 71.3535 72.0878 71.0193 Q72.448 70.6807 72.448 70.0991 Q72.448 69.5132 72.0878 69.179 Q71.7319 68.8448 71.1025 68.8448 M70.2258 68.4715 Q69.6616 68.3326 69.3447 67.9464 Q69.0322 67.5601 69.0322 67.0045 Q69.0322 66.2276 69.5834 65.7762 Q70.139 65.3248 71.1025 65.3248 Q72.0704 65.3248 72.6216 65.7762 Q73.1728 66.2276 73.1728 67.0045 Q73.1728 67.5601 72.856 67.9464 Q72.5435 68.3326 71.9836 68.4715 Q72.6173 68.6191 72.9688 69.0488 Q73.3247 69.4785 73.3247 70.0991 Q73.3247 71.041 72.7475 71.5444 Q72.1746 72.0479 71.1025 72.0479 Q70.0305 72.0479 69.4532 71.5444 Q68.8803 71.041 68.8803 70.0991 Q68.8803 69.4785 69.2362 69.0488 Q69.5921 68.6191 70.2258 68.4715 M69.9046 67.087 Q69.9046 67.5905 70.2171 67.8726 Q70.534 68.1547 71.1025 68.1547 Q71.6668 68.1547 71.9836 67.8726 Q72.3048 67.5905 72.3048 67.087 Q72.3048 66.5835 71.9836 66.3014 Q71.6668 66.0193 71.1025 66.0193 Q70.534 66.0193 70.2171 66.3014 Q69.9046 66.5835 69.9046 67.087 Z" fill="#000000" fill-rule="evenodd" fill-opacity="1" /><path clip-path="url(#clip080)" d="M 0 0 M69.297 21.9035 L69.297 21.1049 Q69.6268 21.2611 69.9654 21.3436 Q70.3039 21.4261 70.6294 21.4261 Q71.4975 21.4261 71.9532 20.8445 Q72.4133 20.2586 72.4784 19.0693 Q72.2267 19.4426 71.8404 19.6422 Q71.4541 19.8419 70.9853 19.8419 Q70.0131 19.8419 69.4445 19.256 Q68.8803 18.6657 68.8803 17.6457 Q68.8803 16.6475 69.4706 16.0442 Q70.0609 15.4409 71.0418 15.4409 Q72.1659 15.4409 72.7562 16.3046 Q73.3508 17.1639 73.3508 18.8046 Q73.3508 20.3367 72.6216 21.2525 Q71.8968 22.1639 70.6685 22.1639 Q70.3386 22.1639 70.0001 22.0988 Q69.6616 22.0337 69.297 21.9035 M71.0418 19.1561 Q71.632 19.1561 71.9749 18.7525 Q72.3221 18.3488 72.3221 17.6457 Q72.3221 16.9469 71.9749 16.5433 Q71.632 16.1353 71.0418 16.1353 Q70.4515 16.1353 70.1043 16.5433 Q69.7614 16.9469 69.7614 17.6457 Q69.7614 18.3488 70.1043 18.7525 Q70.4515 19.1561 71.0418 19.1561 Z" fill="#000000" fill-rule="evenodd" fill-opacity="1" /><path clip-path="url(#clip080)" d="M 0 0 M86.0503 33.7712 L87.4826 33.7712 L87.4826 28.8277 L85.9244 29.1402 L85.9244 28.3415 L87.4739 28.029 L88.3506 28.029 L88.3506 33.7712 L89.7829 33.7712 L89.7829 34.509 L86.0503 34.509 L86.0503 33.7712 Z" fill="#000000" fill-rule="evenodd" fill-opacity="1" /><path clip-path="url(#clip080)" d="M 0 0 M92.6084 28.6063 Q91.9313 28.6063 91.5884 29.2747 Q91.2499 29.9388 91.2499 31.2756 Q91.2499 32.608 91.5884 33.2764 Q91.9313 33.9405 92.6084 33.9405 Q93.2898 33.9405 93.6284 33.2764 Q93.9712 32.608 93.9712 31.2756 Q93.9712 29.9388 93.6284 29.2747 Q93.2898 28.6063 92.6084 28.6063 M92.6084 27.9119 Q93.6978 27.9119 94.2707 28.7756 Q94.848 29.6349 94.848 31.2756 Q94.848 32.9118 94.2707 33.7755 Q93.6978 34.6349 92.6084 34.6349 Q91.519 34.6349 90.9417 33.7755 Q90.3688 32.9118 90.3688 31.2756 Q90.3688 29.6349 90.9417 28.7756 Q91.519 27.9119 92.6084 27.9119 Z" fill="#000000" fill-rule="evenodd" fill-opacity="1" /><path clip-path="url(#clip080)" d="M 0 0 M103.094 21.3002 L104.527 21.3002 L104.527 16.3567 L102.969 16.6692 L102.969 15.8706 L104.518 15.5581 L105.395 15.5581 L105.395 21.3002 L106.827 21.3002 L106.827 22.0381 L103.094 22.0381 L103.094 21.3002 Z" fill="#000000" fill-rule="evenodd" fill-opacity="1" /><path clip-path="url(#clip080)" d="M 0 0 M110.434 18.5442 Q111.063 18.6787 111.415 19.104 Q111.771 19.5294 111.771 20.1544 Q111.771 21.1136 111.111 21.6388 Q110.451 22.1639 109.236 22.1639 Q108.828 22.1639 108.394 22.0815 Q107.964 22.0033 107.504 21.8427 L107.504 20.9964 Q107.869 21.2091 108.303 21.3176 Q108.737 21.4261 109.21 21.4261 Q110.034 21.4261 110.464 21.1006 Q110.898 20.775 110.898 20.1544 Q110.898 19.5815 110.495 19.2603 Q110.095 18.9348 109.379 18.9348 L108.624 18.9348 L108.624 18.2143 L109.414 18.2143 Q110.06 18.2143 110.403 17.9582 Q110.746 17.6978 110.746 17.2117 Q110.746 16.7126 110.39 16.4478 Q110.039 16.1787 109.379 16.1787 Q109.019 16.1787 108.606 16.2568 Q108.194 16.335 107.699 16.4999 L107.699 15.7186 Q108.199 15.5798 108.633 15.5103 Q109.071 15.4409 109.457 15.4409 Q110.455 15.4409 111.037 15.8966 Q111.619 16.348 111.619 17.1205 Q111.619 17.6587 111.31 18.032 Q111.002 18.4009 110.434 18.5442 Z" fill="#000000" fill-rule="evenodd" fill-opacity="1" /><path clip-path="url(#clip080)" d="M 0 0 M17.8739 58.7132 L19.3062 58.7132 L19.3062 53.7696 L17.748 54.0821 L17.748 53.2835 L19.2975 52.971 L20.1742 52.971 L20.1742 58.7132 L21.6065 58.7132 L21.6065 59.451 L17.8739 59.451 L17.8739 58.7132 Z" fill="#000000" fill-rule="evenodd" fill-opacity="1" /><path clip-path="url(#clip080)" d="M 0 0 M22.5657 52.971 L26.0075 52.971 L26.0075 53.7089 L23.3687 53.7089 L23.3687 55.2974 Q23.5596 55.2323 23.7506 55.2019 Q23.9416 55.1672 24.1325 55.1672 Q25.2176 55.1672 25.8513 55.7618 Q26.485 56.3564 26.485 57.3721 Q26.485 58.4181 25.8339 58.9996 Q25.1829 59.5769 23.998 59.5769 Q23.59 59.5769 23.1647 59.5075 Q22.7437 59.438 22.2923 59.2991 L22.2923 58.4181 Q22.6829 58.6307 23.0996 58.7349 Q23.5162 58.8391 23.9806 58.8391 Q24.7315 58.8391 25.1699 58.4441 Q25.6082 58.0491 25.6082 57.3721 Q25.6082 56.695 25.1699 56.3 Q24.7315 55.905 23.9806 55.905 Q23.6291 55.905 23.2775 55.9832 Q22.9303 56.0613 22.5657 56.2262 L22.5657 52.971 Z" fill="#000000" fill-rule="evenodd" fill-opacity="1" /><path clip-path="url(#clip080)" d="M 0 0 M34.918 21.3002 L36.3503 21.3002 L36.3503 16.3567 L34.7921 16.6692 L34.7921 15.8706 L36.3416 15.5581 L37.2183 15.5581 L37.2183 21.3002 L38.6506 21.3002 L38.6506 22.0381 L34.918 22.0381 L34.918 21.3002 Z" fill="#000000" fill-rule="evenodd" fill-opacity="1" /><path clip-path="url(#clip080)" d="M 0 0 M39.3798 15.5581 L43.5464 15.5581 L43.5464 15.9313 L41.194 22.0381 L40.2782 22.0381 L42.4917 16.2959 L39.3798 16.2959 L39.3798 15.5581 Z" fill="#000000" fill-rule="evenodd" fill-opacity="1" /><path clip-path="url(#clip080)" d="M 0 0 M51.9621 33.7712 L53.3944 33.7712 L53.3944 28.8277 L51.8362 29.1402 L51.8362 28.3415 L53.3857 28.029 L54.2624 28.029 L54.2624 33.7712 L55.6947 33.7712 L55.6947 34.509 L51.9621 34.509 L51.9621 33.7712 Z" fill="#000000" fill-rule="evenodd" fill-opacity="1" /><path clip-path="url(#clip080)" d="M 0 0 M58.5202 31.4318 Q57.8952 31.4318 57.535 31.766 Q57.1791 32.1002 57.1791 32.6861 Q57.1791 33.2721 57.535 33.6063 Q57.8952 33.9405 58.5202 33.9405 Q59.1452 33.9405 59.5055 33.6063 Q59.8657 33.2677 59.8657 32.6861 Q59.8657 32.1002 59.5055 31.766 Q59.1495 31.4318 58.5202 31.4318 M57.6435 31.0585 Q57.0792 30.9197 56.7624 30.5334 Q56.4499 30.1471 56.4499 29.5915 Q56.4499 28.8146 57.0011 28.3632 Q57.5567 27.9119 58.5202 27.9119 Q59.4881 27.9119 60.0393 28.3632 Q60.5905 28.8146 60.5905 29.5915 Q60.5905 30.1471 60.2737 30.5334 Q59.9612 30.9197 59.4013 31.0585 Q60.035 31.2061 60.3865 31.6358 Q60.7424 32.0655 60.7424 32.6861 Q60.7424 33.628 60.1652 34.1314 Q59.5923 34.6349 58.5202 34.6349 Q57.4482 34.6349 56.8709 34.1314 Q56.298 33.628 56.298 32.6861 Q56.298 32.0655 56.6539 31.6358 Q57.0098 31.2061 57.6435 31.0585 M57.3223 29.674 Q57.3223 30.1775 57.6348 30.4596 Q57.9516 30.7417 58.5202 30.7417 Q59.0844 30.7417 59.4013 30.4596 Q59.7225 30.1775 59.7225 29.674 Q59.7225 29.1705 59.4013 28.8884 Q59.0844 28.6063 58.5202 28.6063 Q57.9516 28.6063 57.6348 28.8884 Q57.3223 29.1705 57.3223 29.674 Z" fill="#000000" fill-rule="evenodd" fill-opacity="1" /><path clip-path="url(#clip080)" d="M 0 0 M69.935 96.1262 L72.9949 96.1262 L72.9949 96.864 L68.8803 96.864 L68.8803 96.1262 Q69.3794 95.6097 70.2388 94.7416 Q71.1025 93.8692 71.3239 93.6175 Q71.7449 93.1444 71.9098 92.8189 Q72.0791 92.489 72.0791 92.1722 Q72.0791 91.6557 71.7145 91.3302 Q71.3543 91.0047 70.7727 91.0047 Q70.3603 91.0047 69.9003 91.1479 Q69.4445 91.2911 68.9237 91.5819 L68.9237 90.6965 Q69.4532 90.4838 69.9133 90.3753 Q70.3734 90.2668 70.7553 90.2668 Q71.7622 90.2668 72.3612 90.7703 Q72.9602 91.2738 72.9602 92.1158 Q72.9602 92.5151 72.8082 92.8753 Q72.6607 93.2312 72.2657 93.7173 Q72.1572 93.8432 71.5756 94.4465 Q70.994 95.0454 69.935 96.1262 Z" fill="#000000" fill-rule="evenodd" fill-opacity="1" /><path clip-path="url(#clip080)" d="M 0 0 M74.0973 96.1262 L75.5296 96.1262 L75.5296 91.1826 L73.9714 91.4951 L73.9714 90.6965 L75.5209 90.384 L76.3976 90.384 L76.3976 96.1262 L77.8299 96.1262 L77.8299 96.864 L74.0973 96.864 L74.0973 96.1262 Z" fill="#000000" fill-rule="evenodd" fill-opacity="1" /><path clip-path="url(#clip080)" d="M 0 0 M86.9791 58.7132 L90.039 58.7132 L90.039 59.451 L85.9244 59.451 L85.9244 58.7132 Q86.4235 58.1967 87.2829 57.3286 Q88.1466 56.4563 88.368 56.2045 Q88.789 55.7314 88.9539 55.4059 Q89.1232 55.0761 89.1232 54.7592 Q89.1232 54.2427 88.7586 53.9172 Q88.3984 53.5917 87.8168 53.5917 Q87.4044 53.5917 86.9444 53.7349 Q86.4886 53.8781 85.9678 54.1689 L85.9678 53.2835 Q86.4973 53.0709 86.9574 52.9624 Q87.4175 52.8538 87.7994 52.8538 Q88.8063 52.8538 89.4053 53.3573 Q90.0042 53.8608 90.0042 54.7028 Q90.0042 55.1021 89.8523 55.4623 Q89.7048 55.8182 89.3098 56.3043 Q89.2013 56.4302 88.6197 57.0335 Q88.0381 57.6325 86.9791 58.7132 Z" fill="#000000" fill-rule="evenodd" fill-opacity="1" /><path clip-path="url(#clip080)" d="M 0 0 M93.6457 55.9571 Q94.2751 56.0917 94.6266 56.517 Q94.9825 56.9424 94.9825 57.5674 Q94.9825 58.5266 94.3228 59.0517 Q93.6631 59.5769 92.4478 59.5769 Q92.0398 59.5769 91.6058 59.4944 Q91.1761 59.4163 90.7161 59.2557 L90.7161 58.4094 Q91.0806 58.622 91.5147 58.7306 Q91.9487 58.8391 92.4218 58.8391 Q93.2464 58.8391 93.6761 58.5135 Q94.1101 58.188 94.1101 57.5674 Q94.1101 56.9945 93.7065 56.6733 Q93.3072 56.3478 92.591 56.3478 L91.8358 56.3478 L91.8358 55.6273 L92.6258 55.6273 Q93.2725 55.6273 93.6153 55.3712 Q93.9582 55.1108 93.9582 54.6247 Q93.9582 54.1255 93.6023 53.8608 Q93.2508 53.5917 92.591 53.5917 Q92.2308 53.5917 91.8185 53.6698 Q91.4062 53.7479 90.9114 53.9129 L90.9114 53.1316 Q91.4105 52.9927 91.8445 52.9233 Q92.2829 52.8538 92.6692 52.8538 Q93.6674 52.8538 94.249 53.3096 Q94.8306 53.761 94.8306 54.5335 Q94.8306 55.0717 94.5225 55.445 Q94.2143 55.8139 93.6457 55.9571 Z" fill="#000000" fill-rule="evenodd" fill-opacity="1" /><path clip-path="url(#clip080)" d="M 0 0 M104.023 71.1842 L107.083 71.1842 L107.083 71.922 L102.969 71.922 L102.969 71.1842 Q103.468 70.6677 104.327 69.7996 Q105.191 68.9273 105.412 68.6755 Q105.833 68.2024 105.998 67.8769 Q106.167 67.5471 106.167 67.2302 Q106.167 66.7137 105.803 66.3882 Q105.442 66.0627 104.861 66.0627 Q104.449 66.0627 103.988 66.2059 Q103.533 66.3491 103.012 66.6399 L103.012 65.7545 Q103.541 65.5419 104.001 65.4333 Q104.462 65.3248 104.843 65.3248 Q105.85 65.3248 106.449 65.8283 Q107.048 66.3318 107.048 67.1738 Q107.048 67.5731 106.896 67.9333 Q106.749 68.2892 106.354 68.7753 Q106.245 68.9012 105.664 69.5045 Q105.082 70.1035 104.023 71.1842 Z" fill="#000000" fill-rule="evenodd" fill-opacity="1" /><path clip-path="url(#clip080)" d="M 0 0 M110.442 66.2059 L108.229 69.6651 L110.442 69.6651 L110.442 66.2059 M110.212 65.442 L111.315 65.442 L111.315 69.6651 L112.239 69.6651 L112.239 70.3943 L111.315 70.3943 L111.315 71.922 L110.442 71.922 L110.442 70.3943 L107.517 70.3943 L107.517 69.5479 L110.212 65.442 Z" fill="#000000" fill-rule="evenodd" fill-opacity="1" /><circle clip-path="url(#clip082)" cx="120.013" cy="211.047" r="3" fill="#0000ff" fill-rule="evenodd" fill-opacity="1" stroke="none"/>
<circle clip-path="url(#clip082)" cx="137.057" cy="223.518" r="3" fill="#0000ff" fill-rule="evenodd" fill-opacity="1" stroke="none"/>
<circle clip-path="url(#clip082)" cx="137.057" cy="173.634" r="3" fill="#0000ff" fill-rule="evenodd" fill-opacity="1" stroke="none"/>
<circle clip-path="url(#clip082)" cx="154.101" cy="186.105" r="3" fill="#0000ff" fill-rule="evenodd" fill-opacity="1" stroke="none"/>
<circle clip-path="url(#clip082)" cx="188.189" cy="211.047" r="3" fill="#0000ff" fill-rule="evenodd" fill-opacity="1" stroke="none"/>
<circle clip-path="url(#clip082)" cx="120.013" cy="186.105" r="3" fill="#0000ff" fill-rule="evenodd" fill-opacity="1" stroke="none"/>
<circle clip-path="url(#clip082)" cx="137.057" cy="148.692" r="3" fill="#0000ff" fill-rule="evenodd" fill-opacity="1" stroke="none"/>
<circle clip-path="url(#clip082)" cx="154.101" cy="211.047" r="3" fill="#0000ff" fill-rule="evenodd" fill-opacity="1" stroke="none"/>
<circle clip-path="url(#clip082)" cx="171.145" cy="223.518" r="3" fill="#0000ff" fill-rule="evenodd" fill-opacity="1" stroke="none"/>
<circle clip-path="url(#clip082)" cx="188.189" cy="186.105" r="3" fill="#0000ff" fill-rule="evenodd" fill-opacity="1" stroke="none"/>
<path clip-path="url(#clip080)" d="M 0 0 M122.942 205.609 Q123.572 205.744 123.923 206.169 Q124.279 206.594 124.279 207.219 Q124.279 208.178 123.619 208.704 Q122.96 209.229 121.744 209.229 Q121.336 209.229 120.902 209.146 Q120.473 209.068 120.013 208.908 L120.013 208.061 Q120.377 208.274 120.811 208.382 Q121.245 208.491 121.718 208.491 Q122.543 208.491 122.973 208.165 Q123.407 207.84 123.407 207.219 Q123.407 206.646 123.003 206.325 Q122.604 206 121.888 206 L121.132 206 L121.132 205.279 L121.922 205.279 Q122.569 205.279 122.912 205.023 Q123.255 204.763 123.255 204.277 Q123.255 203.777 122.899 203.513 Q122.547 203.244 121.888 203.244 Q121.527 203.244 121.115 203.322 Q120.703 203.4 120.208 203.565 L120.208 202.784 Q120.707 202.645 121.141 202.575 Q121.579 202.506 121.966 202.506 Q122.964 202.506 123.546 202.961 Q124.127 203.413 124.127 204.185 Q124.127 204.724 123.819 205.097 Q123.511 205.466 122.942 205.609 Z" fill="#000000" fill-rule="evenodd" fill-opacity="1" /><path clip-path="url(#clip080)" d="M 0 0 M139.982 215.858 L137.768 219.317 L139.982 219.317 L139.982 215.858 M139.752 215.094 L140.854 215.094 L140.854 219.317 L141.779 219.317 L141.779 220.046 L140.854 220.046 L140.854 221.574 L139.982 221.574 L139.982 220.046 L137.057 220.046 L137.057 219.2 L139.752 215.094 Z" fill="#000000" fill-rule="evenodd" fill-opacity="1" /><path clip-path="url(#clip080)" d="M 0 0 M137.33 165.21 L140.772 165.21 L140.772 165.948 L138.133 165.948 L138.133 167.536 Q138.324 167.471 138.515 167.441 Q138.706 167.406 138.897 167.406 Q139.982 167.406 140.616 168.001 Q141.249 168.595 141.249 169.611 Q141.249 170.657 140.598 171.239 Q139.947 171.816 138.762 171.816 Q138.354 171.816 137.929 171.746 Q137.508 171.677 137.057 171.538 L137.057 170.657 Q137.447 170.87 137.864 170.974 Q138.281 171.078 138.745 171.078 Q139.496 171.078 139.934 170.683 Q140.373 170.288 140.373 169.611 Q140.373 168.934 139.934 168.539 Q139.496 168.144 138.745 168.144 Q138.393 168.144 138.042 168.222 Q137.695 168.3 137.33 168.465 L137.33 165.21 Z" fill="#000000" fill-rule="evenodd" fill-opacity="1" /><path clip-path="url(#clip080)" d="M 0 0 M156.414 180.572 Q155.824 180.572 155.477 180.975 Q155.134 181.379 155.134 182.082 Q155.134 182.781 155.477 183.189 Q155.824 183.592 156.414 183.592 Q157.004 183.592 157.347 183.189 Q157.695 182.781 157.695 182.082 Q157.695 181.379 157.347 180.975 Q157.004 180.572 156.414 180.572 M158.155 177.824 L158.155 178.623 Q157.825 178.467 157.486 178.384 Q157.152 178.302 156.822 178.302 Q155.954 178.302 155.494 178.888 Q155.038 179.473 154.973 180.658 Q155.229 180.281 155.616 180.081 Q156.002 179.877 156.466 179.877 Q157.443 179.877 158.007 180.472 Q158.576 181.062 158.576 182.082 Q158.576 183.08 157.985 183.684 Q157.395 184.287 156.414 184.287 Q155.29 184.287 154.695 183.427 Q154.101 182.564 154.101 180.927 Q154.101 179.391 154.83 178.48 Q155.559 177.564 156.787 177.564 Q157.117 177.564 157.451 177.629 Q157.79 177.694 158.155 177.824 Z" fill="#000000" fill-rule="evenodd" fill-opacity="1" /><path clip-path="url(#clip080)" d="M 0 0 M188.315 208.365 L189.747 208.365 L189.747 203.422 L188.189 203.734 L188.189 202.935 L189.738 202.623 L190.615 202.623 L190.615 208.365 L192.047 208.365 L192.047 209.103 L188.315 209.103 L188.315 208.365 Z" fill="#000000" fill-rule="evenodd" fill-opacity="1" /><path clip-path="url(#clip080)" d="M 0 0 M193.15 208.365 L194.582 208.365 L194.582 203.422 L193.024 203.734 L193.024 202.935 L194.573 202.623 L195.45 202.623 L195.45 208.365 L196.883 208.365 L196.883 209.103 L193.15 209.103 L193.15 208.365 Z" fill="#000000" fill-rule="evenodd" fill-opacity="1" /><path clip-path="url(#clip080)" d="M 0 0 M120.138 183.423 L121.571 183.423 L121.571 178.48 L120.013 178.792 L120.013 177.993 L121.562 177.681 L122.439 177.681 L122.439 183.423 L123.871 183.423 L123.871 184.161 L120.138 184.161 L120.138 183.423 Z" fill="#000000" fill-rule="evenodd" fill-opacity="1" /><path clip-path="url(#clip080)" d="M 0 0 M127.23 178.445 L125.017 181.904 L127.23 181.904 L127.23 178.445 M127 177.681 L128.103 177.681 L128.103 181.904 L129.027 181.904 L129.027 182.633 L128.103 182.633 L128.103 184.161 L127.23 184.161 L127.23 182.633 L124.305 182.633 L124.305 181.787 L127 177.681 Z" fill="#000000" fill-rule="evenodd" fill-opacity="1" /><path clip-path="url(#clip080)" d="M 0 0 M137.183 146.01 L138.615 146.01 L138.615 141.067 L137.057 141.379 L137.057 140.58 L138.606 140.268 L139.483 140.268 L139.483 146.01 L140.915 146.01 L140.915 146.748 L137.183 146.748 L137.183 146.01 Z" fill="#000000" fill-rule="evenodd" fill-opacity="1" /><path clip-path="url(#clip080)" d="M 0 0 M143.849 143.159 Q143.259 143.159 142.912 143.562 Q142.569 143.966 142.569 144.669 Q142.569 145.368 142.912 145.776 Q143.259 146.179 143.849 146.179 Q144.439 146.179 144.782 145.776 Q145.13 145.368 145.13 144.669 Q145.13 143.966 144.782 143.562 Q144.439 143.159 143.849 143.159 M145.59 140.411 L145.59 141.21 Q145.26 141.054 144.921 140.971 Q144.587 140.889 144.257 140.889 Q143.389 140.889 142.929 141.475 Q142.473 142.061 142.408 143.245 Q142.664 142.868 143.051 142.668 Q143.437 142.464 143.901 142.464 Q144.878 142.464 145.442 143.059 Q146.011 143.649 146.011 144.669 Q146.011 145.667 145.42 146.271 Q144.83 146.874 143.849 146.874 Q142.725 146.874 142.13 146.014 Q141.536 145.151 141.536 143.514 Q141.536 141.978 142.265 141.067 Q142.994 140.151 144.222 140.151 Q144.552 140.151 144.887 140.216 Q145.225 140.281 145.59 140.411 Z" fill="#000000" fill-rule="evenodd" fill-opacity="1" /><path clip-path="url(#clip080)" d="M 0 0 M154.227 208.365 L155.659 208.365 L155.659 203.422 L154.101 203.734 L154.101 202.935 L155.65 202.623 L156.527 202.623 L156.527 208.365 L157.959 208.365 L157.959 209.103 L154.227 209.103 L154.227 208.365 Z" fill="#000000" fill-rule="evenodd" fill-opacity="1" /><path clip-path="url(#clip080)" d="M 0 0 M158.936 208.968 L158.936 208.17 Q159.266 208.326 159.604 208.409 Q159.943 208.491 160.268 208.491 Q161.136 208.491 161.592 207.909 Q162.052 207.323 162.117 206.134 Q161.866 206.507 161.479 206.707 Q161.093 206.907 160.624 206.907 Q159.652 206.907 159.083 206.321 Q158.519 205.731 158.519 204.711 Q158.519 203.712 159.109 203.109 Q159.7 202.506 160.681 202.506 Q161.805 202.506 162.395 203.369 Q162.99 204.229 162.99 205.869 Q162.99 207.402 162.26 208.317 Q161.536 209.229 160.307 209.229 Q159.977 209.229 159.639 209.164 Q159.3 209.099 158.936 208.968 M160.681 206.221 Q161.271 206.221 161.614 205.817 Q161.961 205.414 161.961 204.711 Q161.961 204.012 161.614 203.608 Q161.271 203.2 160.681 203.2 Q160.09 203.2 159.743 203.608 Q159.4 204.012 159.4 204.711 Q159.4 205.414 159.743 205.817 Q160.09 206.221 160.681 206.221 Z" fill="#000000" fill-rule="evenodd" fill-opacity="1" /><path clip-path="url(#clip080)" d="M 0 0 M172.2 220.836 L175.259 220.836 L175.259 221.574 L171.145 221.574 L171.145 220.836 Q171.644 220.32 172.503 219.452 Q173.367 218.579 173.588 218.327 Q174.009 217.854 174.174 217.529 Q174.344 217.199 174.344 216.882 Q174.344 216.366 173.979 216.04 Q173.619 215.715 173.037 215.715 Q172.625 215.715 172.165 215.858 Q171.709 216.001 171.188 216.292 L171.188 215.406 Q171.718 215.194 172.178 215.085 Q172.638 214.977 173.02 214.977 Q174.027 214.977 174.626 215.48 Q175.225 215.984 175.225 216.826 Q175.225 217.225 175.073 217.585 Q174.925 217.941 174.53 218.427 Q174.422 218.553 173.84 219.156 Q173.259 219.755 172.2 220.836 Z" fill="#000000" fill-rule="evenodd" fill-opacity="1" /><path clip-path="url(#clip080)" d="M 0 0 M178.085 215.671 Q177.408 215.671 177.065 216.34 Q176.726 217.004 176.726 218.34 Q176.726 219.673 177.065 220.341 Q177.408 221.005 178.085 221.005 Q178.766 221.005 179.105 220.341 Q179.448 219.673 179.448 218.34 Q179.448 217.004 179.105 216.34 Q178.766 215.671 178.085 215.671 M178.085 214.977 Q179.174 214.977 179.747 215.84 Q180.325 216.7 180.325 218.34 Q180.325 219.977 179.747 220.84 Q179.174 221.7 178.085 221.7 Q176.996 221.7 176.418 220.84 Q175.845 219.977 175.845 218.34 Q175.845 216.7 176.418 215.84 Q176.996 214.977 178.085 214.977 Z" fill="#000000" fill-rule="evenodd" fill-opacity="1" /><path clip-path="url(#clip080)" d="M 0 0 M189.244 183.423 L192.304 183.423 L192.304 184.161 L188.189 184.161 L188.189 183.423 Q188.688 182.907 189.547 182.039 Q190.411 181.166 190.633 180.914 Q191.054 180.441 191.218 180.116 Q191.388 179.786 191.388 179.469 Q191.388 178.953 191.023 178.627 Q190.663 178.302 190.081 178.302 Q189.669 178.302 189.209 178.445 Q188.753 178.588 188.232 178.879 L188.232 177.993 Q188.762 177.781 189.222 177.672 Q189.682 177.564 190.064 177.564 Q191.071 177.564 191.67 178.067 Q192.269 178.571 192.269 179.413 Q192.269 179.812 192.117 180.172 Q191.969 180.528 191.574 181.014 Q191.466 181.14 190.884 181.743 Q190.303 182.342 189.244 183.423 Z" fill="#000000" fill-rule="evenodd" fill-opacity="1" /><path clip-path="url(#clip080)" d="M 0 0 M194.009 183.423 L197.069 183.423 L197.069 184.161 L192.955 184.161 L192.955 183.423 Q193.454 182.907 194.313 182.039 Q195.177 181.166 195.398 180.914 Q195.819 180.441 195.984 180.116 Q196.153 179.786 196.153 179.469 Q196.153 178.953 195.789 178.627 Q195.429 178.302 194.847 178.302 Q194.435 178.302 193.975 178.445 Q193.519 178.588 192.998 178.879 L192.998 177.993 Q193.527 177.781 193.988 177.672 Q194.448 177.564 194.83 177.564 Q195.837 177.564 196.435 178.067 Q197.034 178.571 197.034 179.413 Q197.034 179.812 196.883 180.172 Q196.735 180.528 196.34 181.014 Q196.231 181.14 195.65 181.743 Q195.068 182.342 194.009 183.423 Z" fill="#000000" fill-rule="evenodd" fill-opacity="1" /><circle clip-path="url(#clip082)" cx="120.013" cy="111.279" r="3" fill="#0000ff" fill-rule="evenodd" fill-opacity="1" stroke="none"/>
<circle clip-path="url(#clip082)" cx="120.013" cy="61.395" r="3" fill="#0000ff" fill-rule="evenodd" fill-opacity="1" stroke="none"/>
<circle clip-path="url(#clip082)" cx="137.057" cy="73.866" r="3" fill="#0000ff" fill-rule="evenodd" fill-opacity="1" stroke="none"/>
<circle clip-path="url(#clip082)" cx="137.057" cy="23.9821" r="3" fill="#0000ff" fill-rule="evenodd" fill-opacity="1" stroke="none"/>
<circle clip-path="url(#clip082)" cx="154.101" cy="36.453" r="3" fill="#0000ff" fill-rule="evenodd" fill-opacity="1" stroke="none"/>
<circle clip-path="url(#clip082)" cx="154.101" cy="136.221" r="3" fill="#0000ff" fill-rule="evenodd" fill-opacity="1" stroke="none"/>
<circle clip-path="url(#clip082)" cx="171.145" cy="148.692" r="3" fill="#0000ff" fill-rule="evenodd" fill-opacity="1" stroke="none"/>
<circle clip-path="url(#clip082)" cx="171.145" cy="98.808" r="3" fill="#0000ff" fill-rule="evenodd" fill-opacity="1" stroke="none"/>
<circle clip-path="url(#clip082)" cx="188.189" cy="111.279" r="3" fill="#0000ff" fill-rule="evenodd" fill-opacity="1" stroke="none"/>
<circle clip-path="url(#clip082)" cx="188.189" cy="61.395" r="3" fill="#0000ff" fill-rule="evenodd" fill-opacity="1" stroke="none"/>
<circle clip-path="url(#clip082)" cx="120.013" cy="36.453" r="3" fill="#0000ff" fill-rule="evenodd" fill-opacity="1" stroke="none"/>
<circle clip-path="url(#clip082)" cx="120.013" cy="136.221" r="3" fill="#0000ff" fill-rule="evenodd" fill-opacity="1" stroke="none"/>
<circle clip-path="url(#clip082)" cx="137.057" cy="98.808" r="3" fill="#0000ff" fill-rule="evenodd" fill-opacity="1" stroke="none"/>
<circle clip-path="url(#clip082)" cx="154.101" cy="111.279" r="3" fill="#0000ff" fill-rule="evenodd" fill-opacity="1" stroke="none"/>
<circle clip-path="url(#clip082)" cx="154.101" cy="61.395" r="3" fill="#0000ff" fill-rule="evenodd" fill-opacity="1" stroke="none"/>
<circle clip-path="url(#clip082)" cx="171.145" cy="73.866" r="3" fill="#0000ff" fill-rule="evenodd" fill-opacity="1" stroke="none"/>
<circle clip-path="url(#clip082)" cx="171.145" cy="173.634" r="3" fill="#0000ff" fill-rule="evenodd" fill-opacity="1" stroke="none"/>
<circle clip-path="url(#clip082)" cx="188.189" cy="36.453" r="3" fill="#0000ff" fill-rule="evenodd" fill-opacity="1" stroke="none"/>
<circle clip-path="url(#clip082)" cx="188.189" cy="136.221" r="3" fill="#0000ff" fill-rule="evenodd" fill-opacity="1" stroke="none"/>
<path clip-path="url(#clip080)" d="M 0 0 M121.067 108.597 L124.127 108.597 L124.127 109.335 L120.013 109.335 L120.013 108.597 Q120.512 108.081 121.371 107.213 Q122.235 106.34 122.456 106.088 Q122.877 105.615 123.042 105.29 Q123.211 104.96 123.211 104.643 Q123.211 104.127 122.847 103.801 Q122.487 103.476 121.905 103.476 Q121.493 103.476 121.033 103.619 Q120.577 103.762 120.056 104.053 L120.056 103.168 Q120.586 102.955 121.046 102.846 Q121.506 102.738 121.888 102.738 Q122.895 102.738 123.493 103.241 Q124.092 103.745 124.092 104.587 Q124.092 104.986 123.941 105.346 Q123.793 105.702 123.398 106.188 Q123.289 106.314 122.708 106.917 Q122.126 107.516 121.067 108.597 Z" fill="#000000" fill-rule="evenodd" fill-opacity="1" /><path clip-path="url(#clip080)" d="M 0 0 M122.942 55.9571 Q123.572 56.0917 123.923 56.517 Q124.279 56.9424 124.279 57.5674 Q124.279 58.5266 123.619 59.0517 Q122.96 59.5769 121.744 59.5769 Q121.336 59.5769 120.902 59.4944 Q120.473 59.4163 120.013 59.2557 L120.013 58.4094 Q120.377 58.622 120.811 58.7306 Q121.245 58.8391 121.718 58.8391 Q122.543 58.8391 122.973 58.5135 Q123.407 58.188 123.407 57.5674 Q123.407 56.9945 123.003 56.6733 Q122.604 56.3478 121.888 56.3478 L121.132 56.3478 L121.132 55.6273 L121.922 55.6273 Q122.569 55.6273 122.912 55.3712 Q123.255 55.1108 123.255 54.6247 Q123.255 54.1255 122.899 53.8608 Q122.547 53.5917 121.888 53.5917 Q121.527 53.5917 121.115 53.6698 Q120.703 53.7479 120.208 53.9129 L120.208 53.1316 Q120.707 52.9927 121.141 52.9233 Q121.579 52.8538 121.966 52.8538 Q122.964 52.8538 123.546 53.3096 Q124.127 53.761 124.127 54.5335 Q124.127 55.0717 123.819 55.445 Q123.511 55.8139 122.942 55.9571 Z" fill="#000000" fill-rule="evenodd" fill-opacity="1" /><path clip-path="url(#clip080)" d="M 0 0 M139.982 66.2059 L137.768 69.6651 L139.982 69.6651 L139.982 66.2059 M139.752 65.442 L140.854 65.442 L140.854 69.6651 L141.779 69.6651 L141.779 70.3943 L140.854 70.3943 L140.854 71.922 L139.982 71.922 L139.982 70.3943 L137.057 70.3943 L137.057 69.5479 L139.752 65.442 Z" fill="#000000" fill-rule="evenodd" fill-opacity="1" /><path clip-path="url(#clip080)" d="M 0 0 M137.33 15.5581 L140.772 15.5581 L140.772 16.2959 L138.133 16.2959 L138.133 17.8844 Q138.324 17.8193 138.515 17.7889 Q138.706 17.7542 138.897 17.7542 Q139.982 17.7542 140.616 18.3488 Q141.249 18.9435 141.249 19.9591 Q141.249 21.0051 140.598 21.5867 Q139.947 22.1639 138.762 22.1639 Q138.354 22.1639 137.929 22.0945 Q137.508 22.025 137.057 21.8861 L137.057 21.0051 Q137.447 21.2177 137.864 21.3219 Q138.281 21.4261 138.745 21.4261 Q139.496 21.4261 139.934 21.0311 Q140.373 20.6362 140.373 19.9591 Q140.373 19.282 139.934 18.887 Q139.496 18.4921 138.745 18.4921 Q138.393 18.4921 138.042 18.5702 Q137.695 18.6483 137.33 18.8132 L137.33 15.5581 Z" fill="#000000" fill-rule="evenodd" fill-opacity="1" /><path clip-path="url(#clip080)" d="M 0 0 M156.414 30.9197 Q155.824 30.9197 155.477 31.3233 Q155.134 31.7269 155.134 32.4301 Q155.134 33.1288 155.477 33.5368 Q155.824 33.9405 156.414 33.9405 Q157.004 33.9405 157.347 33.5368 Q157.695 33.1288 157.695 32.4301 Q157.695 31.7269 157.347 31.3233 Q157.004 30.9197 156.414 30.9197 M158.155 28.1723 L158.155 28.9709 Q157.825 28.8146 157.486 28.7322 Q157.152 28.6497 156.822 28.6497 Q155.954 28.6497 155.494 29.2356 Q155.038 29.8216 154.973 31.0065 Q155.229 30.6289 155.616 30.4292 Q156.002 30.2252 156.466 30.2252 Q157.443 30.2252 158.007 30.8198 Q158.576 31.4101 158.576 32.4301 Q158.576 33.4283 157.985 34.0316 Q157.395 34.6349 156.414 34.6349 Q155.29 34.6349 154.695 33.7755 Q154.101 32.9118 154.101 31.2756 Q154.101 29.7391 154.83 28.8277 Q155.559 27.9119 156.787 27.9119 Q157.117 27.9119 157.451 27.977 Q157.79 28.0421 158.155 28.1723 Z" fill="#000000" fill-rule="evenodd" fill-opacity="1" /><path clip-path="url(#clip080)" d="M 0 0 M154.101 127.797 L158.267 127.797 L158.267 128.17 L155.915 134.277 L154.999 134.277 L157.213 128.535 L154.101 128.535 L154.101 127.797 Z" fill="#000000" fill-rule="evenodd" fill-opacity="1" /><path clip-path="url(#clip080)" d="M 0 0 M173.367 143.671 Q172.742 143.671 172.382 144.005 Q172.026 144.339 172.026 144.925 Q172.026 145.511 172.382 145.845 Q172.742 146.179 173.367 146.179 Q173.992 146.179 174.352 145.845 Q174.713 145.507 174.713 144.925 Q174.713 144.339 174.352 144.005 Q173.996 143.671 173.367 143.671 M172.49 143.297 Q171.926 143.159 171.609 142.772 Q171.297 142.386 171.297 141.83 Q171.297 141.054 171.848 140.602 Q172.404 140.151 173.367 140.151 Q174.335 140.151 174.886 140.602 Q175.437 141.054 175.437 141.83 Q175.437 142.386 175.121 142.772 Q174.808 143.159 174.248 143.297 Q174.882 143.445 175.233 143.875 Q175.589 144.304 175.589 144.925 Q175.589 145.867 175.012 146.37 Q174.439 146.874 173.367 146.874 Q172.295 146.874 171.718 146.37 Q171.145 145.867 171.145 144.925 Q171.145 144.304 171.501 143.875 Q171.857 143.445 172.49 143.297 M172.169 141.913 Q172.169 142.416 172.482 142.699 Q172.799 142.981 173.367 142.981 Q173.931 142.981 174.248 142.699 Q174.569 142.416 174.569 141.913 Q174.569 141.409 174.248 141.127 Q173.931 140.845 173.367 140.845 Q172.799 140.845 172.482 141.127 Q172.169 141.409 172.169 141.913 Z" fill="#000000" fill-rule="evenodd" fill-opacity="1" /><path clip-path="url(#clip080)" d="M 0 0 M171.562 96.7295 L171.562 95.9309 Q171.891 96.0871 172.23 96.1696 Q172.568 96.252 172.894 96.252 Q173.762 96.252 174.218 95.6704 Q174.678 95.0845 174.743 93.8953 Q174.491 94.2685 174.105 94.4682 Q173.719 94.6678 173.25 94.6678 Q172.278 94.6678 171.709 94.0819 Q171.145 93.4916 171.145 92.4717 Q171.145 91.4734 171.735 90.8701 Q172.325 90.2668 173.306 90.2668 Q174.43 90.2668 175.021 91.1305 Q175.615 91.9899 175.615 93.6305 Q175.615 95.1626 174.886 96.0784 Q174.161 96.9899 172.933 96.9899 Q172.603 96.9899 172.265 96.9248 Q171.926 96.8597 171.562 96.7295 M173.306 93.9821 Q173.897 93.9821 174.239 93.5784 Q174.587 93.1748 174.587 92.4717 Q174.587 91.7729 174.239 91.3693 Q173.897 90.9613 173.306 90.9613 Q172.716 90.9613 172.369 91.3693 Q172.026 91.7729 172.026 92.4717 Q172.026 93.1748 172.369 93.5784 Q172.716 93.9821 173.306 93.9821 Z" fill="#000000" fill-rule="evenodd" fill-opacity="1" /><path clip-path="url(#clip080)" d="M 0 0 M188.315 108.597 L189.747 108.597 L189.747 103.654 L188.189 103.966 L188.189 103.168 L189.738 102.855 L190.615 102.855 L190.615 108.597 L192.047 108.597 L192.047 109.335 L188.315 109.335 L188.315 108.597 Z" fill="#000000" fill-rule="evenodd" fill-opacity="1" /><path clip-path="url(#clip080)" d="M 0 0 M194.873 103.432 Q194.196 103.432 193.853 104.101 Q193.514 104.765 193.514 106.102 Q193.514 107.434 193.853 108.102 Q194.196 108.766 194.873 108.766 Q195.554 108.766 195.893 108.102 Q196.236 107.434 196.236 106.102 Q196.236 104.765 195.893 104.101 Q195.554 103.432 194.873 103.432 M194.873 102.738 Q195.962 102.738 196.535 103.602 Q197.113 104.461 197.113 106.102 Q197.113 107.738 196.535 108.602 Q195.962 109.461 194.873 109.461 Q193.784 109.461 193.206 108.602 Q192.633 107.738 192.633 106.102 Q192.633 104.461 193.206 103.602 Q193.784 102.738 194.873 102.738 Z" fill="#000000" fill-rule="evenodd" fill-opacity="1" /><path clip-path="url(#clip080)" d="M 0 0 M188.315 58.7132 L189.747 58.7132 L189.747 53.7696 L188.189 54.0821 L188.189 53.2835 L189.738 52.971 L190.615 52.971 L190.615 58.7132 L192.047 58.7132 L192.047 59.451 L188.315 59.451 L188.315 58.7132 Z" fill="#000000" fill-rule="evenodd" fill-opacity="1" /><path clip-path="url(#clip080)" d="M 0 0 M193.15 58.7132 L194.582 58.7132 L194.582 53.7696 L193.024 54.0821 L193.024 53.2835 L194.573 52.971 L195.45 52.971 L195.45 58.7132 L196.883 58.7132 L196.883 59.451 L193.15 59.451 L193.15 58.7132 Z" fill="#000000" fill-rule="evenodd" fill-opacity="1" /><path clip-path="url(#clip080)" d="M 0 0 M120.138 33.7712 L121.571 33.7712 L121.571 28.8277 L120.013 29.1402 L120.013 28.3415 L121.562 28.029 L122.439 28.029 L122.439 33.7712 L123.871 33.7712 L123.871 34.509 L120.138 34.509 L120.138 33.7712 Z" fill="#000000" fill-rule="evenodd" fill-opacity="1" /><path clip-path="url(#clip080)" d="M 0 0 M127.23 28.7929 L125.017 32.2521 L127.23 32.2521 L127.23 28.7929 M127 28.029 L128.103 28.029 L128.103 32.2521 L129.027 32.2521 L129.027 32.9813 L128.103 32.9813 L128.103 34.509 L127.23 34.509 L127.23 32.9813 L124.305 32.9813 L124.305 32.1349 L127 28.029 Z" fill="#000000" fill-rule="evenodd" fill-opacity="1" /><path clip-path="url(#clip080)" d="M 0 0 M120.138 133.539 L121.571 133.539 L121.571 128.596 L120.013 128.908 L120.013 128.109 L121.562 127.797 L122.439 127.797 L122.439 133.539 L123.871 133.539 L123.871 134.277 L120.138 134.277 L120.138 133.539 Z" fill="#000000" fill-rule="evenodd" fill-opacity="1" /><path clip-path="url(#clip080)" d="M 0 0 M124.83 127.797 L128.272 127.797 L128.272 128.535 L125.633 128.535 L125.633 130.123 Q125.824 130.058 126.015 130.028 Q126.206 129.993 126.397 129.993 Q127.482 129.993 128.116 130.588 Q128.75 131.182 128.75 132.198 Q128.75 133.244 128.098 133.826 Q127.447 134.403 126.263 134.403 Q125.855 134.403 125.429 134.333 Q125.008 134.264 124.557 134.125 L124.557 133.244 Q124.947 133.457 125.364 133.561 Q125.781 133.665 126.245 133.665 Q126.996 133.665 127.434 133.27 Q127.873 132.875 127.873 132.198 Q127.873 131.521 127.434 131.126 Q126.996 130.731 126.245 130.731 Q125.894 130.731 125.542 130.809 Q125.195 130.887 124.83 131.052 L124.83 127.797 Z" fill="#000000" fill-rule="evenodd" fill-opacity="1" /><path clip-path="url(#clip080)" d="M 0 0 M137.183 96.1262 L138.615 96.1262 L138.615 91.1826 L137.057 91.4951 L137.057 90.6965 L138.606 90.384 L139.483 90.384 L139.483 96.1262 L140.915 96.1262 L140.915 96.864 L137.183 96.864 L137.183 96.1262 Z" fill="#000000" fill-rule="evenodd" fill-opacity="1" /><path clip-path="url(#clip080)" d="M 0 0 M141.644 90.384 L145.811 90.384 L145.811 90.7573 L143.459 96.864 L142.543 96.864 L144.756 91.1219 L141.644 91.1219 L141.644 90.384 Z" fill="#000000" fill-rule="evenodd" fill-opacity="1" /><path clip-path="url(#clip080)" d="M 0 0 M154.227 108.597 L155.659 108.597 L155.659 103.654 L154.101 103.966 L154.101 103.168 L155.65 102.855 L156.527 102.855 L156.527 108.597 L157.959 108.597 L157.959 109.335 L154.227 109.335 L154.227 108.597 Z" fill="#000000" fill-rule="evenodd" fill-opacity="1" /><path clip-path="url(#clip080)" d="M 0 0 M160.785 106.258 Q160.16 106.258 159.8 106.592 Q159.444 106.926 159.444 107.512 Q159.444 108.098 159.8 108.432 Q160.16 108.766 160.785 108.766 Q161.41 108.766 161.77 108.432 Q162.13 108.094 162.13 107.512 Q162.13 106.926 161.77 106.592 Q161.414 106.258 160.785 106.258 M159.908 105.885 Q159.344 105.746 159.027 105.359 Q158.714 104.973 158.714 104.417 Q158.714 103.641 159.266 103.189 Q159.821 102.738 160.785 102.738 Q161.753 102.738 162.304 103.189 Q162.855 103.641 162.855 104.417 Q162.855 104.973 162.538 105.359 Q162.226 105.746 161.666 105.885 Q162.3 106.032 162.651 106.462 Q163.007 106.891 163.007 107.512 Q163.007 108.454 162.43 108.957 Q161.857 109.461 160.785 109.461 Q159.713 109.461 159.135 108.957 Q158.563 108.454 158.563 107.512 Q158.563 106.891 158.918 106.462 Q159.274 106.032 159.908 105.885 M159.587 104.5 Q159.587 105.003 159.899 105.286 Q160.216 105.568 160.785 105.568 Q161.349 105.568 161.666 105.286 Q161.987 105.003 161.987 104.5 Q161.987 103.996 161.666 103.714 Q161.349 103.432 160.785 103.432 Q160.216 103.432 159.899 103.714 Q159.587 103.996 159.587 104.5 Z" fill="#000000" fill-rule="evenodd" fill-opacity="1" /><path clip-path="url(#clip080)" d="M 0 0 M154.227 58.7132 L155.659 58.7132 L155.659 53.7696 L154.101 54.0821 L154.101 53.2835 L155.65 52.971 L156.527 52.971 L156.527 58.7132 L157.959 58.7132 L157.959 59.451 L154.227 59.451 L154.227 58.7132 Z" fill="#000000" fill-rule="evenodd" fill-opacity="1" /><path clip-path="url(#clip080)" d="M 0 0 M158.936 59.3165 L158.936 58.5179 Q159.266 58.6741 159.604 58.7566 Q159.943 58.8391 160.268 58.8391 Q161.136 58.8391 161.592 58.2575 Q162.052 57.6715 162.117 56.4823 Q161.866 56.8556 161.479 57.0552 Q161.093 57.2549 160.624 57.2549 Q159.652 57.2549 159.083 56.6689 Q158.519 56.0787 158.519 55.0587 Q158.519 54.0604 159.109 53.4571 Q159.7 52.8538 160.681 52.8538 Q161.805 52.8538 162.395 53.7176 Q162.99 54.5769 162.99 56.2175 Q162.99 57.7497 162.26 58.6654 Q161.536 59.5769 160.307 59.5769 Q159.977 59.5769 159.639 59.5118 Q159.3 59.4467 158.936 59.3165 M160.681 56.5691 Q161.271 56.5691 161.614 56.1655 Q161.961 55.7618 161.961 55.0587 Q161.961 54.3599 161.614 53.9563 Q161.271 53.5483 160.681 53.5483 Q160.09 53.5483 159.743 53.9563 Q159.4 54.3599 159.4 55.0587 Q159.4 55.7618 159.743 56.1655 Q160.09 56.5691 160.681 56.5691 Z" fill="#000000" fill-rule="evenodd" fill-opacity="1" /><path clip-path="url(#clip080)" d="M 0 0 M172.2 71.1842 L175.259 71.1842 L175.259 71.922 L171.145 71.922 L171.145 71.1842 Q171.644 70.6677 172.503 69.7996 Q173.367 68.9273 173.588 68.6755 Q174.009 68.2024 174.174 67.8769 Q174.344 67.5471 174.344 67.2302 Q174.344 66.7137 173.979 66.3882 Q173.619 66.0627 173.037 66.0627 Q172.625 66.0627 172.165 66.2059 Q171.709 66.3491 171.188 66.6399 L171.188 65.7545 Q171.718 65.5419 172.178 65.4333 Q172.638 65.3248 173.02 65.3248 Q174.027 65.3248 174.626 65.8283 Q175.225 66.3318 175.225 67.1738 Q175.225 67.5731 175.073 67.9333 Q174.925 68.2892 174.53 68.7753 Q174.422 68.9012 173.84 69.5045 Q173.259 70.1035 172.2 71.1842 Z" fill="#000000" fill-rule="evenodd" fill-opacity="1" /><path clip-path="url(#clip080)" d="M 0 0 M178.085 66.0193 Q177.408 66.0193 177.065 66.6877 Q176.726 67.3517 176.726 68.6885 Q176.726 70.021 177.065 70.6894 Q177.408 71.3535 178.085 71.3535 Q178.766 71.3535 179.105 70.6894 Q179.448 70.021 179.448 68.6885 Q179.448 67.3517 179.105 66.6877 Q178.766 66.0193 178.085 66.0193 M178.085 65.3248 Q179.174 65.3248 179.747 66.1886 Q180.325 67.0479 180.325 68.6885 Q180.325 70.3248 179.747 71.1885 Q179.174 72.0479 178.085 72.0479 Q176.996 72.0479 176.418 71.1885 Q175.845 70.3248 175.845 68.6885 Q175.845 67.0479 176.418 66.1886 Q176.996 65.3248 178.085 65.3248 Z" fill="#000000" fill-rule="evenodd" fill-opacity="1" /><path clip-path="url(#clip080)" d="M 0 0 M172.2 170.952 L175.259 170.952 L175.259 171.69 L171.145 171.69 L171.145 170.952 Q171.644 170.436 172.503 169.568 Q173.367 168.695 173.588 168.443 Q174.009 167.97 174.174 167.645 Q174.344 167.315 174.344 166.998 Q174.344 166.482 173.979 166.156 Q173.619 165.831 173.037 165.831 Q172.625 165.831 172.165 165.974 Q171.709 166.117 171.188 166.408 L171.188 165.522 Q171.718 165.31 172.178 165.201 Q172.638 165.093 173.02 165.093 Q174.027 165.093 174.626 165.596 Q175.225 166.1 175.225 166.942 Q175.225 167.341 175.073 167.701 Q174.925 168.057 174.53 168.543 Q174.422 168.669 173.84 169.272 Q173.259 169.871 172.2 170.952 Z" fill="#000000" fill-rule="evenodd" fill-opacity="1" /><path clip-path="url(#clip080)" d="M 0 0 M176.362 170.952 L177.794 170.952 L177.794 166.009 L176.236 166.321 L176.236 165.522 L177.785 165.21 L178.662 165.21 L178.662 170.952 L180.094 170.952 L180.094 171.69 L176.362 171.69 L176.362 170.952 Z" fill="#000000" fill-rule="evenodd" fill-opacity="1" /><path clip-path="url(#clip080)" d="M 0 0 M189.244 33.7712 L192.304 33.7712 L192.304 34.509 L188.189 34.509 L188.189 33.7712 Q188.688 33.2547 189.547 32.3867 Q190.411 31.5143 190.633 31.2625 Q191.054 30.7895 191.218 30.4639 Q191.388 30.1341 191.388 29.8172 Q191.388 29.3007 191.023 28.9752 Q190.663 28.6497 190.081 28.6497 Q189.669 28.6497 189.209 28.7929 Q188.753 28.9362 188.232 29.227 L188.232 28.3415 Q188.762 28.1289 189.222 28.0204 Q189.682 27.9119 190.064 27.9119 Q191.071 27.9119 191.67 28.4153 Q192.269 28.9188 192.269 29.7608 Q192.269 30.1601 192.117 30.5204 Q191.969 30.8763 191.574 31.3624 Q191.466 31.4882 190.884 32.0915 Q190.303 32.6905 189.244 33.7712 Z" fill="#000000" fill-rule="evenodd" fill-opacity="1" /><path clip-path="url(#clip080)" d="M 0 0 M194.009 33.7712 L197.069 33.7712 L197.069 34.509 L192.955 34.509 L192.955 33.7712 Q193.454 33.2547 194.313 32.3867 Q195.177 31.5143 195.398 31.2625 Q195.819 30.7895 195.984 30.4639 Q196.153 30.1341 196.153 29.8172 Q196.153 29.3007 195.789 28.9752 Q195.429 28.6497 194.847 28.6497 Q194.435 28.6497 193.975 28.7929 Q193.519 28.9362 192.998 29.227 L192.998 28.3415 Q193.527 28.1289 193.988 28.0204 Q194.448 27.9119 194.83 27.9119 Q195.837 27.9119 196.435 28.4153 Q197.034 28.9188 197.034 29.7608 Q197.034 30.1601 196.883 30.5204 Q196.735 30.8763 196.34 31.3624 Q196.231 31.4882 195.65 32.0915 Q195.068 32.6905 194.009 33.7712 Z" fill="#000000" fill-rule="evenodd" fill-opacity="1" /><path clip-path="url(#clip080)" d="M 0 0 M189.244 133.539 L192.304 133.539 L192.304 134.277 L188.189 134.277 L188.189 133.539 Q188.688 133.023 189.547 132.155 Q190.411 131.282 190.633 131.03 Q191.054 130.557 191.218 130.232 Q191.388 129.902 191.388 129.585 Q191.388 129.069 191.023 128.743 Q190.663 128.418 190.081 128.418 Q189.669 128.418 189.209 128.561 Q188.753 128.704 188.232 128.995 L188.232 128.109 Q188.762 127.897 189.222 127.788 Q189.682 127.68 190.064 127.68 Q191.071 127.68 191.67 128.183 Q192.269 128.687 192.269 129.529 Q192.269 129.928 192.117 130.288 Q191.969 130.644 191.574 131.13 Q191.466 131.256 190.884 131.859 Q190.303 132.458 189.244 133.539 Z" fill="#000000" fill-rule="evenodd" fill-opacity="1" /><path clip-path="url(#clip080)" d="M 0 0 M195.91 130.783 Q196.54 130.918 196.891 131.343 Q197.247 131.768 197.247 132.393 Q197.247 133.353 196.587 133.878 Q195.928 134.403 194.712 134.403 Q194.304 134.403 193.87 134.32 Q193.441 134.242 192.981 134.082 L192.981 133.235 Q193.345 133.448 193.779 133.557 Q194.213 133.665 194.686 133.665 Q195.511 133.665 195.941 133.339 Q196.375 133.014 196.375 132.393 Q196.375 131.82 195.971 131.499 Q195.572 131.174 194.856 131.174 L194.1 131.174 L194.1 130.453 L194.89 130.453 Q195.537 130.453 195.88 130.197 Q196.223 129.937 196.223 129.451 Q196.223 128.952 195.867 128.687 Q195.515 128.418 194.856 128.418 Q194.495 128.418 194.083 128.496 Q193.671 128.574 193.176 128.739 L193.176 127.958 Q193.675 127.819 194.109 127.749 Q194.547 127.68 194.934 127.68 Q195.932 127.68 196.514 128.136 Q197.095 128.587 197.095 129.359 Q197.095 129.898 196.787 130.271 Q196.479 130.64 195.91 130.783 Z" fill="#000000" fill-rule="evenodd" fill-opacity="1" /><circle clip-path="url(#clip082)" cx="171.145" cy="23.9821" r="3" fill="#0000ff" fill-rule="evenodd" fill-opacity="1" stroke="none"/>
<path clip-path="url(#clip080)" d="M 0 0 M172.2 21.3002 L175.259 21.3002 L175.259 22.0381 L171.145 22.0381 L171.145 21.3002 Q171.644 20.7837 172.503 19.9157 Q173.367 19.0433 173.588 18.7915 Q174.009 18.3185 174.174 17.9929 Q174.344 17.6631 174.344 17.3462 Q174.344 16.8297 173.979 16.5042 Q173.619 16.1787 173.037 16.1787 Q172.625 16.1787 172.165 16.3219 Q171.709 16.4652 171.188 16.756 L171.188 15.8706 Q171.718 15.6579 172.178 15.5494 Q172.638 15.4409 173.02 15.4409 Q174.027 15.4409 174.626 15.9443 Q175.225 16.4478 175.225 17.2898 Q175.225 17.6891 175.073 18.0494 Q174.925 18.4053 174.53 18.8914 Q174.422 19.0172 173.84 19.6205 Q173.259 20.2195 172.2 21.3002 Z" fill="#000000" fill-rule="evenodd" fill-opacity="1" /><path clip-path="url(#clip080)" d="M 0 0 M176.362 21.3002 L177.794 21.3002 L177.794 16.3567 L176.236 16.6692 L176.236 15.8706 L177.785 15.5581 L178.662 15.5581 L178.662 21.3002 L180.094 21.3002 L180.094 22.0381 L176.362 22.0381 L176.362 21.3002 Z" fill="#000000" fill-rule="evenodd" fill-opacity="1" /></svg>
