<?xml version="1.0" encoding="utf-8"?>
<svg xmlns="http://www.w3.org/2000/svg" xmlns:xlink="http://www.w3.org/1999/xlink" width="50" height="62.5" viewBox="0 0 200 250">
<defs>
  <clipPath id="clip140">
    <rect x="0" y="0" width="200" height="250"/>
  </clipPath>
</defs>
<path clip-path="url(#clip140)" d="
M0 250 L200 250 L200 0 L0 0  Z
  " fill="#ffffff" fill-rule="evenodd" fill-opacity="1"/>
<defs>
  <clipPath id="clip141">
    <rect x="50" y="25" width="176" height="176"/>
  </clipPath>
</defs>
<path clip-path="url(#clip140)" d="
M17.748 231.752 L188.189 231.752 L188.189 15.748 L17.748 15.748  Z
  " fill="#ffffff" fill-rule="evenodd" fill-opacity="1"/>
<defs>
  <clipPath id="clip142">
    <rect x="17" y="15" width="171" height="217"/>
  </clipPath>
</defs>
<polyline clip-path="url(#clip140)" style="stroke:#000000; stroke-width:1; stroke-opacity:1; fill:none" points="
  17.748,231.752 188.189,231.752 
  "/>
<polyline clip-path="url(#clip140)" style="stroke:#000000; stroke-width:1; stroke-opacity:1; fill:none" points="
  34.7921,231.752 34.7921,229.16 
  "/>
<polyline clip-path="url(#clip140)" style="stroke:#000000; stroke-width:1; stroke-opacity:1; fill:none" points="
  68.8803,231.752 68.8803,229.16 
  "/>
<polyline clip-path="url(#clip140)" style="stroke:#000000; stroke-width:1; stroke-opacity:1; fill:none" points="
  102.969,231.752 102.969,229.16 
  "/>
<polyline clip-path="url(#clip140)" style="stroke:#000000; stroke-width:1; stroke-opacity:1; fill:none" points="
  137.057,231.752 137.057,229.16 
  "/>
<polyline clip-path="url(#clip140)" style="stroke:#000000; stroke-width:1; stroke-opacity:1; fill:none" points="
  171.145,231.752 171.145,229.16 
  "/>
<path clip-path="url(#clip140)" d="M 0 0 M27.9056 239.913 L35.3245 239.913 L35.3245 240.897 L27.9056 240.897 L27.9056 239.913 Z" fill="#000000" fill-rule="evenodd" fill-opacity="1" /><path clip-path="url(#clip140)" d="M 0 0 M37.5988 243.136 L41.6787 243.136 L41.6787 244.12 L36.1926 244.12 L36.1926 243.136 Q36.8581 242.448 38.0039 241.29 Q39.1555 240.127 39.4507 239.791 Q40.012 239.161 40.2319 238.726 Q40.4576 238.287 40.4576 237.864 Q40.4576 237.176 39.9715 236.742 Q39.4912 236.308 38.7157 236.308 Q38.166 236.308 37.5525 236.498 Q36.9449 236.689 36.2505 237.077 L36.2505 235.897 Q36.9565 235.613 37.5699 235.468 Q38.1833 235.324 38.6926 235.324 Q40.0352 235.324 40.8338 235.995 Q41.6324 236.666 41.6324 237.789 Q41.6324 238.321 41.4298 238.802 Q41.2331 239.276 40.7064 239.924 Q40.5618 240.092 39.7863 240.897 Q39.0109 241.695 37.5988 243.136 Z" fill="#000000" fill-rule="evenodd" fill-opacity="1" /><path clip-path="url(#clip140)" d="M 0 0 M61.9475 239.913 L69.3664 239.913 L69.3664 240.897 L61.9475 240.897 L61.9475 239.913 Z" fill="#000000" fill-rule="evenodd" fill-opacity="1" /><path clip-path="url(#clip140)" d="M 0 0 M70.8363 243.136 L72.746 243.136 L72.746 236.545 L70.6685 236.961 L70.6685 235.897 L72.7345 235.48 L73.9034 235.48 L73.9034 243.136 L75.8131 243.136 L75.8131 244.12 L70.8363 244.12 L70.8363 243.136 Z" fill="#000000" fill-rule="evenodd" fill-opacity="1" /><path clip-path="url(#clip140)" d="M 0 0 M102.969 236.25 Q102.066 236.25 101.609 237.141 Q101.157 238.026 101.157 239.809 Q101.157 241.585 101.609 242.476 Q102.066 243.362 102.969 243.362 Q103.877 243.362 104.328 242.476 Q104.786 241.585 104.786 239.809 Q104.786 238.026 104.328 237.141 Q103.877 236.25 102.969 236.25 M102.969 235.324 Q104.421 235.324 105.185 236.475 Q105.955 237.621 105.955 239.809 Q105.955 241.99 105.185 243.142 Q104.421 244.288 102.969 244.288 Q101.516 244.288 100.746 243.142 Q99.9824 241.99 99.9824 239.809 Q99.9824 237.621 100.746 236.475 Q101.516 235.324 102.969 235.324 Z" fill="#000000" fill-rule="evenodd" fill-opacity="1" /><path clip-path="url(#clip140)" d="M 0 0 M134.652 243.136 L136.562 243.136 L136.562 236.545 L134.484 236.961 L134.484 235.897 L136.55 235.48 L137.719 235.48 L137.719 243.136 L139.629 243.136 L139.629 244.12 L134.652 244.12 L134.652 243.136 Z" fill="#000000" fill-rule="evenodd" fill-opacity="1" /><path clip-path="url(#clip140)" d="M 0 0 M169.808 243.136 L173.888 243.136 L173.888 244.12 L168.402 244.12 L168.402 243.136 Q169.067 242.448 170.213 241.29 Q171.365 240.127 171.66 239.791 Q172.221 239.161 172.441 238.726 Q172.667 238.287 172.667 237.864 Q172.667 237.176 172.181 236.742 Q171.7 236.308 170.925 236.308 Q170.375 236.308 169.762 236.498 Q169.154 236.689 168.46 237.077 L168.46 235.897 Q169.166 235.613 169.779 235.468 Q170.393 235.324 170.902 235.324 Q172.244 235.324 173.043 235.995 Q173.842 236.666 173.842 237.789 Q173.842 238.321 173.639 238.802 Q173.442 239.276 172.916 239.924 Q172.771 240.092 171.996 240.897 Q171.22 241.695 169.808 243.136 Z" fill="#000000" fill-rule="evenodd" fill-opacity="1" /><polyline clip-path="url(#clip140)" style="stroke:#000000; stroke-width:1; stroke-opacity:1; fill:none" points="
  17.748,231.752 17.748,15.748 
  "/>
<polyline clip-path="url(#clip140)" style="stroke:#000000; stroke-width:1; stroke-opacity:1; fill:none" points="
  17.748,210.152 19.7933,210.152 
  "/>
<polyline clip-path="url(#clip140)" style="stroke:#000000; stroke-width:1; stroke-opacity:1; fill:none" points="
  17.748,166.951 19.7933,166.951 
  "/>
<polyline clip-path="url(#clip140)" style="stroke:#000000; stroke-width:1; stroke-opacity:1; fill:none" points="
  17.748,123.75 19.7933,123.75 
  "/>
<polyline clip-path="url(#clip140)" style="stroke:#000000; stroke-width:1; stroke-opacity:1; fill:none" points="
  17.748,80.5492 19.7933,80.5492 
  "/>
<polyline clip-path="url(#clip140)" style="stroke:#000000; stroke-width:1; stroke-opacity:1; fill:none" points="
  17.748,37.3484 19.7933,37.3484 
  "/>
<path clip-path="url(#clip140)" d="M 0 0 M0.224957 210.264 L7.6439 210.264 L7.6439 211.248 L0.224957 211.248 L0.224957 210.264 Z" fill="#000000" fill-rule="evenodd" fill-opacity="1" /><path clip-path="url(#clip140)" d="M 0 0 M9.91819 213.488 L13.998 213.488 L13.998 214.472 L8.51195 214.472 L8.51195 213.488 Q9.17746 212.799 10.3233 211.642 Q11.4749 210.479 11.77 210.143 Q12.3314 209.512 12.5513 209.078 Q12.777 208.638 12.777 208.216 Q12.777 207.527 12.2909 207.093 Q11.8105 206.659 11.0351 206.659 Q10.4853 206.659 9.8719 206.85 Q9.26426 207.041 8.56982 207.429 L8.56982 206.248 Q9.27583 205.965 9.88926 205.82 Q10.5027 205.675 11.0119 205.675 Q12.3545 205.675 13.1531 206.347 Q13.9517 207.018 13.9517 208.141 Q13.9517 208.673 13.7492 209.153 Q13.5524 209.628 13.0258 210.276 Q12.8811 210.444 12.1057 211.248 Q11.3302 212.047 9.91819 213.488 Z" fill="#000000" fill-rule="evenodd" fill-opacity="1" /><path clip-path="url(#clip140)" d="M 0 0 M0.132365 167.064 L7.55131 167.064 L7.55131 168.047 L0.132365 168.047 L0.132365 167.064 Z" fill="#000000" fill-rule="evenodd" fill-opacity="1" /><path clip-path="url(#clip140)" d="M 0 0 M9.02121 170.287 L10.9309 170.287 L10.9309 163.696 L8.85338 164.112 L8.85338 163.047 L10.9193 162.631 L12.0883 162.631 L12.0883 170.287 L13.998 170.287 L13.998 171.271 L9.02121 171.271 L9.02121 170.287 Z" fill="#000000" fill-rule="evenodd" fill-opacity="1" /><path clip-path="url(#clip140)" d="M 0 0 M11.0119 120.2 Q10.1092 120.2 9.65199 121.091 Q9.2006 121.976 9.2006 123.759 Q9.2006 125.535 9.65199 126.426 Q10.1092 127.312 11.0119 127.312 Q11.9205 127.312 12.3719 126.426 Q12.8291 125.535 12.8291 123.759 Q12.8291 121.976 12.3719 121.091 Q11.9205 120.2 11.0119 120.2 M11.0119 119.274 Q12.4645 119.274 13.2284 120.425 Q13.998 121.571 13.998 123.759 Q13.998 125.94 13.2284 127.092 Q12.4645 128.238 11.0119 128.238 Q9.5594 128.238 8.78973 127.092 Q8.02584 125.94 8.02584 123.759 Q8.02584 121.571 8.78973 120.425 Q9.5594 119.274 11.0119 119.274 Z" fill="#000000" fill-rule="evenodd" fill-opacity="1" /><path clip-path="url(#clip140)" d="M 0 0 M9.02121 83.8854 L10.9309 83.8854 L10.9309 77.294 L8.85338 77.7107 L8.85338 76.6459 L10.9193 76.2292 L12.0883 76.2292 L12.0883 83.8854 L13.998 83.8854 L13.998 84.8692 L9.02121 84.8692 L9.02121 83.8854 Z" fill="#000000" fill-rule="evenodd" fill-opacity="1" /><path clip-path="url(#clip140)" d="M 0 0 M9.91819 40.6846 L13.998 40.6846 L13.998 41.6684 L8.51195 41.6684 L8.51195 40.6846 Q9.17746 39.996 10.3233 38.8386 Q11.4749 37.6754 11.77 37.3397 Q12.3314 36.709 12.5513 36.2749 Q12.777 35.8351 12.777 35.4127 Q12.777 34.724 12.2909 34.29 Q11.8105 33.856 11.0351 33.856 Q10.4853 33.856 9.8719 34.0469 Q9.26426 34.2379 8.56982 34.6256 L8.56982 33.4451 Q9.27583 33.1615 9.88926 33.0169 Q10.5027 32.8722 11.0119 32.8722 Q12.3545 32.8722 13.1531 33.5435 Q13.9517 34.2148 13.9517 35.3374 Q13.9517 35.8698 13.7492 36.3502 Q13.5524 36.8247 13.0258 37.4728 Q12.8811 37.6407 12.1057 38.4451 Q11.3302 39.2437 9.91819 40.6846 Z" fill="#000000" fill-rule="evenodd" fill-opacity="1" /><path clip-path="url(#clip140)" d="M 0 0 M89.8089 5.13076 Q90.2082 4.41317 90.7637 4.07174 Q91.3193 3.7303 92.0716 3.7303 Q93.0843 3.7303 93.6341 4.44211 Q94.1838 5.14812 94.1838 6.45598 L94.1838 10.368 L93.1132 10.368 L93.1132 6.49071 Q93.1132 5.559 92.7834 5.10761 Q92.4535 4.65623 91.7764 4.65623 Q90.9489 4.65623 90.4686 5.20599 Q89.9882 5.75576 89.9882 6.70483 L89.9882 10.368 L88.9177 10.368 L88.9177 6.49071 Q88.9177 5.55321 88.5878 5.10761 Q88.2579 4.65623 87.5693 4.65623 Q86.7533 4.65623 86.273 5.21178 Q85.7927 5.76154 85.7927 6.70483 L85.7927 10.368 L84.7221 10.368 L84.7221 3.88655 L85.7927 3.88655 L85.7927 4.89349 Q86.1573 4.29743 86.6665 4.01387 Q87.1758 3.7303 87.876 3.7303 Q88.582 3.7303 89.0739 4.0891 Q89.5716 4.44789 89.8089 5.13076 Z" fill="#000000" fill-rule="evenodd" fill-opacity="1" /><path clip-path="url(#clip140)" d="M 0 0 M95.2023 1.36342 L97.656 1.36342 L97.656 2.19096 L96.2672 2.19096 L96.2672 11.1029 L97.656 11.1029 L97.656 11.9305 L95.2023 11.9305 L95.2023 1.36342 Z" fill="#000000" fill-rule="evenodd" fill-opacity="1" /><path clip-path="url(#clip140)" d="M 0 0 M99.1259 9.38421 L101.036 9.38421 L101.036 2.79281 L98.9581 3.20947 L98.9581 2.14466 L101.024 1.728 L102.193 1.728 L102.193 9.38421 L104.103 9.38421 L104.103 10.368 L99.1259 10.368 L99.1259 9.38421 Z" fill="#000000" fill-rule="evenodd" fill-opacity="1" /><path clip-path="url(#clip140)" d="M 0 0 M107.87 2.49767 Q106.967 2.49767 106.51 3.38887 Q106.059 4.27428 106.059 6.05668 Q106.059 7.83329 106.51 8.72449 Q106.967 9.6099 107.87 9.6099 Q108.779 9.6099 109.23 8.72449 Q109.687 7.83329 109.687 6.05668 Q109.687 4.27428 109.23 3.38887 Q108.779 2.49767 107.87 2.49767 M107.87 1.57175 Q109.323 1.57175 110.087 2.72337 Q110.856 3.86919 110.856 6.05668 Q110.856 8.23838 110.087 9.39 Q109.323 10.5358 107.87 10.5358 Q106.418 10.5358 105.648 9.39 Q104.884 8.23838 104.884 6.05668 Q104.884 3.86919 105.648 2.72337 Q106.418 1.57175 107.87 1.57175 Z" fill="#000000" fill-rule="evenodd" fill-opacity="1" /><path clip-path="url(#clip140)" d="M 0 0 M114.624 2.49767 Q113.721 2.49767 113.264 3.38887 Q112.812 4.27428 112.812 6.05668 Q112.812 7.83329 113.264 8.72449 Q113.721 9.6099 114.624 9.6099 Q115.532 9.6099 115.983 8.72449 Q116.441 7.83329 116.441 6.05668 Q116.441 4.27428 115.983 3.38887 Q115.532 2.49767 114.624 2.49767 M114.624 1.57175 Q116.076 1.57175 116.84 2.72337 Q117.61 3.86919 117.61 6.05668 Q117.61 8.23838 116.84 9.39 Q116.076 10.5358 114.624 10.5358 Q113.171 10.5358 112.401 9.39 Q111.637 8.23838 111.637 6.05668 Q111.637 3.86919 112.401 2.72337 Q113.171 1.57175 114.624 1.57175 Z" fill="#000000" fill-rule="evenodd" fill-opacity="1" /><path clip-path="url(#clip140)" d="M 0 0 M121.215 1.36342 L121.215 11.9305 L118.761 11.9305 L118.761 11.1029 L120.144 11.1029 L120.144 2.19096 L118.761 2.19096 L118.761 1.36342 L121.215 1.36342 Z" fill="#000000" fill-rule="evenodd" fill-opacity="1" /><circle clip-path="url(#clip142)" cx="34.7921" cy="223.518" r="3" fill="#0000ff" fill-rule="evenodd" fill-opacity="1" stroke="none"/>
<path clip-path="url(#clip140)" d="M 0 0 M34.918 220.836 L36.3503 220.836 L36.3503 215.893 L34.7921 216.205 L34.7921 215.406 L36.3416 215.094 L37.2183 215.094 L37.2183 220.836 L38.6506 220.836 L38.6506 221.574 L34.918 221.574 L34.918 220.836 Z" fill="#000000" fill-rule="evenodd" fill-opacity="1" /><path clip-path="url(#clip140)" d="M 0 0 M42.2574 218.08 Q42.8867 218.215 43.2383 218.64 Q43.5942 219.065 43.5942 219.69 Q43.5942 220.649 42.9344 221.175 Q42.2747 221.7 41.0595 221.7 Q40.6515 221.7 40.2174 221.617 Q39.7878 221.539 39.3277 221.379 L39.3277 220.532 Q39.6923 220.745 40.1263 220.853 Q40.5603 220.962 41.0334 220.962 Q41.8581 220.962 42.2877 220.636 Q42.7218 220.311 42.7218 219.69 Q42.7218 219.117 42.3181 218.796 Q41.9188 218.471 41.2027 218.471 L40.4475 218.471 L40.4475 217.75 L41.2374 217.75 Q41.8841 217.75 42.227 217.494 Q42.5699 217.234 42.5699 216.748 Q42.5699 216.248 42.214 215.984 Q41.8624 215.715 41.2027 215.715 Q40.8424 215.715 40.4301 215.793 Q40.0178 215.871 39.523 216.036 L39.523 215.255 Q40.0221 215.116 40.4562 215.046 Q40.8945 214.977 41.2808 214.977 Q42.2791 214.977 42.8607 215.432 Q43.4423 215.884 43.4423 216.656 Q43.4423 217.195 43.1341 217.568 Q42.8259 217.937 42.2574 218.08 Z" fill="#000000" fill-rule="evenodd" fill-opacity="1" /><circle clip-path="url(#clip142)" cx="85.9244" cy="111.279" r="3" fill="#0000ff" fill-rule="evenodd" fill-opacity="1" stroke="none"/>
<circle clip-path="url(#clip142)" cx="85.9244" cy="136.221" r="3" fill="#0000ff" fill-rule="evenodd" fill-opacity="1" stroke="none"/>
<circle clip-path="url(#clip142)" cx="51.8362" cy="111.279" r="3" fill="#0000ff" fill-rule="evenodd" fill-opacity="1" stroke="none"/>
<circle clip-path="url(#clip142)" cx="51.8362" cy="136.221" r="3" fill="#0000ff" fill-rule="evenodd" fill-opacity="1" stroke="none"/>
<circle clip-path="url(#clip142)" cx="17.748" cy="111.279" r="3" fill="#0000ff" fill-rule="evenodd" fill-opacity="1" stroke="none"/>
<circle clip-path="url(#clip142)" cx="17.748" cy="136.221" r="3" fill="#0000ff" fill-rule="evenodd" fill-opacity="1" stroke="none"/>
<circle clip-path="url(#clip142)" cx="85.9244" cy="186.105" r="3" fill="#0000ff" fill-rule="evenodd" fill-opacity="1" stroke="none"/>
<circle clip-path="url(#clip142)" cx="85.9244" cy="211.047" r="3" fill="#0000ff" fill-rule="evenodd" fill-opacity="1" stroke="none"/>
<circle clip-path="url(#clip142)" cx="51.8362" cy="186.105" r="3" fill="#0000ff" fill-rule="evenodd" fill-opacity="1" stroke="none"/>
<circle clip-path="url(#clip142)" cx="51.8362" cy="211.047" r="3" fill="#0000ff" fill-rule="evenodd" fill-opacity="1" stroke="none"/>
<circle clip-path="url(#clip142)" cx="17.748" cy="186.105" r="3" fill="#0000ff" fill-rule="evenodd" fill-opacity="1" stroke="none"/>
<circle clip-path="url(#clip142)" cx="17.748" cy="211.047" r="3" fill="#0000ff" fill-rule="evenodd" fill-opacity="1" stroke="none"/>
<circle clip-path="url(#clip142)" cx="34.7921" cy="73.866" r="3" fill="#0000ff" fill-rule="evenodd" fill-opacity="1" stroke="none"/>
<circle clip-path="url(#clip142)" cx="34.7921" cy="98.808" r="3" fill="#0000ff" fill-rule="evenodd" fill-opacity="1" stroke="none"/>
<circle clip-path="url(#clip142)" cx="102.969" cy="148.692" r="3" fill="#0000ff" fill-rule="evenodd" fill-opacity="1" stroke="none"/>
<circle clip-path="url(#clip142)" cx="102.969" cy="173.634" r="3" fill="#0000ff" fill-rule="evenodd" fill-opacity="1" stroke="none"/>
<circle clip-path="url(#clip142)" cx="68.8803" cy="148.692" r="3" fill="#0000ff" fill-rule="evenodd" fill-opacity="1" stroke="none"/>
<circle clip-path="url(#clip142)" cx="68.8803" cy="173.634" r="3" fill="#0000ff" fill-rule="evenodd" fill-opacity="1" stroke="none"/>
<circle clip-path="url(#clip142)" cx="34.7921" cy="148.692" r="3" fill="#0000ff" fill-rule="evenodd" fill-opacity="1" stroke="none"/>
<circle clip-path="url(#clip142)" cx="34.7921" cy="173.634" r="3" fill="#0000ff" fill-rule="evenodd" fill-opacity="1" stroke="none"/>
<circle clip-path="url(#clip142)" cx="102.969" cy="223.518" r="3" fill="#0000ff" fill-rule="evenodd" fill-opacity="1" stroke="none"/>
<circle clip-path="url(#clip142)" cx="68.8803" cy="223.518" r="3" fill="#0000ff" fill-rule="evenodd" fill-opacity="1" stroke="none"/>
<path clip-path="url(#clip140)" d="M 0 0 M86.0503 108.597 L87.4826 108.597 L87.4826 103.654 L85.9244 103.966 L85.9244 103.168 L87.4739 102.855 L88.3506 102.855 L88.3506 108.597 L89.7829 108.597 L89.7829 109.335 L86.0503 109.335 L86.0503 108.597 Z" fill="#000000" fill-rule="evenodd" fill-opacity="1" /><path clip-path="url(#clip140)" d="M 0 0 M86.9791 133.539 L90.039 133.539 L90.039 134.277 L85.9244 134.277 L85.9244 133.539 Q86.4235 133.023 87.2829 132.155 Q88.1466 131.282 88.368 131.03 Q88.789 130.557 88.9539 130.232 Q89.1232 129.902 89.1232 129.585 Q89.1232 129.069 88.7586 128.743 Q88.3984 128.418 87.8168 128.418 Q87.4044 128.418 86.9444 128.561 Q86.4886 128.704 85.9678 128.995 L85.9678 128.109 Q86.4973 127.897 86.9574 127.788 Q87.4175 127.68 87.7994 127.68 Q88.8063 127.68 89.4053 128.183 Q90.0042 128.687 90.0042 129.529 Q90.0042 129.928 89.8523 130.288 Q89.7048 130.644 89.3098 131.13 Q89.2013 131.256 88.6197 131.859 Q88.0381 132.458 86.9791 133.539 Z" fill="#000000" fill-rule="evenodd" fill-opacity="1" /><path clip-path="url(#clip140)" d="M 0 0 M54.7659 105.841 Q55.3952 105.976 55.7468 106.401 Q56.1027 106.826 56.1027 107.451 Q56.1027 108.411 55.443 108.936 Q54.7833 109.461 53.568 109.461 Q53.16 109.461 52.726 109.378 Q52.2963 109.3 51.8362 109.14 L51.8362 108.293 Q52.2008 108.506 52.6348 108.615 Q53.0689 108.723 53.5419 108.723 Q54.3666 108.723 54.7963 108.398 Q55.2303 108.072 55.2303 107.451 Q55.2303 106.878 54.8267 106.557 Q54.4274 106.232 53.7112 106.232 L52.956 106.232 L52.956 105.511 L53.7459 105.511 Q54.3926 105.511 54.7355 105.255 Q55.0784 104.995 55.0784 104.509 Q55.0784 104.01 54.7225 103.745 Q54.3709 103.476 53.7112 103.476 Q53.351 103.476 52.9386 103.554 Q52.5263 103.632 52.0315 103.797 L52.0315 103.016 Q52.5307 102.877 52.9647 102.807 Q53.4031 102.738 53.7893 102.738 Q54.7876 102.738 55.3692 103.194 Q55.9508 103.645 55.9508 104.417 Q55.9508 104.956 55.6426 105.329 Q55.3345 105.698 54.7659 105.841 Z" fill="#000000" fill-rule="evenodd" fill-opacity="1" /><path clip-path="url(#clip140)" d="M 0 0 M54.7616 128.561 L52.548 132.02 L54.7616 132.02 L54.7616 128.561 M54.5315 127.797 L55.6339 127.797 L55.6339 132.02 L56.5584 132.02 L56.5584 132.749 L55.6339 132.749 L55.6339 134.277 L54.7616 134.277 L54.7616 132.749 L51.8362 132.749 L51.8362 131.903 L54.5315 127.797 Z" fill="#000000" fill-rule="evenodd" fill-opacity="1" /><path clip-path="url(#clip140)" d="M 0 0 M18.0215 102.855 L21.4633 102.855 L21.4633 103.593 L18.8244 103.593 L18.8244 105.181 Q19.0154 105.116 19.2064 105.086 Q19.3973 105.051 19.5883 105.051 Q20.6734 105.051 21.307 105.646 Q21.9407 106.24 21.9407 107.256 Q21.9407 108.302 21.2897 108.884 Q20.6386 109.461 19.4538 109.461 Q19.0458 109.461 18.6204 109.391 Q18.1994 109.322 17.748 109.183 L17.748 108.302 Q18.1387 108.515 18.5553 108.619 Q18.972 108.723 19.4364 108.723 Q20.1873 108.723 20.6256 108.328 Q21.064 107.933 21.064 107.256 Q21.064 106.579 20.6256 106.184 Q20.1873 105.789 19.4364 105.789 Q19.0848 105.789 18.7333 105.867 Q18.386 105.945 18.0215 106.11 L18.0215 102.855 Z" fill="#000000" fill-rule="evenodd" fill-opacity="1" /><path clip-path="url(#clip140)" d="M 0 0 M20.0614 130.688 Q19.4711 130.688 19.1239 131.091 Q18.781 131.495 18.781 132.198 Q18.781 132.897 19.1239 133.305 Q19.4711 133.708 20.0614 133.708 Q20.6517 133.708 20.9945 133.305 Q21.3418 132.897 21.3418 132.198 Q21.3418 131.495 20.9945 131.091 Q20.6517 130.688 20.0614 130.688 M21.8018 127.94 L21.8018 128.739 Q21.472 128.583 21.1334 128.5 Q20.7992 128.418 20.4694 128.418 Q19.6013 128.418 19.1413 129.004 Q18.6855 129.59 18.6204 130.774 Q18.8765 130.397 19.2628 130.197 Q19.6491 129.993 20.1135 129.993 Q21.09 129.993 21.6543 130.588 Q22.2228 131.178 22.2228 132.198 Q22.2228 133.196 21.6326 133.8 Q21.0423 134.403 20.0614 134.403 Q18.9373 134.403 18.3426 133.543 Q17.748 132.68 17.748 131.044 Q17.748 129.507 18.4772 128.596 Q19.2064 127.68 20.4346 127.68 Q20.7645 127.68 21.0987 127.745 Q21.4372 127.81 21.8018 127.94 Z" fill="#000000" fill-rule="evenodd" fill-opacity="1" /><path clip-path="url(#clip140)" d="M 0 0 M85.9244 177.681 L90.0911 177.681 L90.0911 178.054 L87.7386 184.161 L86.8228 184.161 L89.0364 178.419 L85.9244 178.419 L85.9244 177.681 Z" fill="#000000" fill-rule="evenodd" fill-opacity="1" /><path clip-path="url(#clip140)" d="M 0 0 M88.1466 206.026 Q87.5216 206.026 87.1614 206.36 Q86.8055 206.694 86.8055 207.28 Q86.8055 207.866 87.1614 208.2 Q87.5216 208.534 88.1466 208.534 Q88.7716 208.534 89.1319 208.2 Q89.4921 207.862 89.4921 207.28 Q89.4921 206.694 89.1319 206.36 Q88.776 206.026 88.1466 206.026 M87.2699 205.652 Q86.7057 205.514 86.3888 205.127 Q86.0763 204.741 86.0763 204.185 Q86.0763 203.409 86.6275 202.957 Q87.1831 202.506 88.1466 202.506 Q89.1145 202.506 89.6657 202.957 Q90.2169 203.409 90.2169 204.185 Q90.2169 204.741 89.9001 205.127 Q89.5876 205.514 89.0277 205.652 Q89.6614 205.8 90.0129 206.23 Q90.3688 206.659 90.3688 207.28 Q90.3688 208.222 89.7916 208.725 Q89.2187 209.229 88.1466 209.229 Q87.0746 209.229 86.4973 208.725 Q85.9244 208.222 85.9244 207.28 Q85.9244 206.659 86.2803 206.23 Q86.6362 205.8 87.2699 205.652 M86.9487 204.268 Q86.9487 204.771 87.2612 205.053 Q87.578 205.336 88.1466 205.336 Q88.7109 205.336 89.0277 205.053 Q89.3489 204.771 89.3489 204.268 Q89.3489 203.764 89.0277 203.482 Q88.7109 203.2 88.1466 203.2 Q87.578 203.2 87.2612 203.482 Q86.9487 203.764 86.9487 204.268 Z" fill="#000000" fill-rule="evenodd" fill-opacity="1" /><path clip-path="url(#clip140)" d="M 0 0 M52.2529 184.026 L52.2529 183.228 Q52.5827 183.384 52.9213 183.467 Q53.2598 183.549 53.5853 183.549 Q54.4534 183.549 54.9091 182.967 Q55.3692 182.381 55.4343 181.192 Q55.1826 181.565 54.7963 181.765 Q54.41 181.965 53.9412 181.965 Q52.969 181.965 52.4005 181.379 Q51.8362 180.789 51.8362 179.769 Q51.8362 178.77 52.4265 178.167 Q53.0168 177.564 53.9977 177.564 Q55.1218 177.564 55.7121 178.427 Q56.3067 179.287 56.3067 180.927 Q56.3067 182.46 55.5775 183.375 Q54.8527 184.287 53.6244 184.287 Q53.2945 184.287 52.956 184.222 Q52.6175 184.157 52.2529 184.026 M53.9977 181.279 Q54.5879 181.279 54.9308 180.875 Q55.278 180.472 55.278 179.769 Q55.278 179.07 54.9308 178.666 Q54.5879 178.258 53.9977 178.258 Q53.4074 178.258 53.0602 178.666 Q52.7173 179.07 52.7173 179.769 Q52.7173 180.472 53.0602 180.875 Q53.4074 181.279 53.9977 181.279 Z" fill="#000000" fill-rule="evenodd" fill-opacity="1" /><path clip-path="url(#clip140)" d="M 0 0 M51.9621 208.365 L53.3944 208.365 L53.3944 203.422 L51.8362 203.734 L51.8362 202.935 L53.3857 202.623 L54.2624 202.623 L54.2624 208.365 L55.6947 208.365 L55.6947 209.103 L51.9621 209.103 L51.9621 208.365 Z" fill="#000000" fill-rule="evenodd" fill-opacity="1" /><path clip-path="url(#clip140)" d="M 0 0 M58.5202 203.2 Q57.8431 203.2 57.5003 203.869 Q57.1617 204.533 57.1617 205.869 Q57.1617 207.202 57.5003 207.87 Q57.8431 208.534 58.5202 208.534 Q59.2016 208.534 59.5402 207.87 Q59.8831 207.202 59.8831 205.869 Q59.8831 204.533 59.5402 203.869 Q59.2016 203.2 58.5202 203.2 M58.5202 202.506 Q59.6096 202.506 60.1825 203.369 Q60.7598 204.229 60.7598 205.869 Q60.7598 207.506 60.1825 208.369 Q59.6096 209.229 58.5202 209.229 Q57.4308 209.229 56.8536 208.369 Q56.2806 207.506 56.2806 205.869 Q56.2806 204.229 56.8536 203.369 Q57.4308 202.506 58.5202 202.506 Z" fill="#000000" fill-rule="evenodd" fill-opacity="1" /><path clip-path="url(#clip140)" d="M 0 0 M17.8739 183.423 L19.3062 183.423 L19.3062 178.48 L17.748 178.792 L17.748 177.993 L19.2975 177.681 L20.1742 177.681 L20.1742 183.423 L21.6065 183.423 L21.6065 184.161 L17.8739 184.161 L17.8739 183.423 Z" fill="#000000" fill-rule="evenodd" fill-opacity="1" /><path clip-path="url(#clip140)" d="M 0 0 M22.7089 183.423 L24.1412 183.423 L24.1412 178.48 L22.5831 178.792 L22.5831 177.993 L24.1325 177.681 L25.0093 177.681 L25.0093 183.423 L26.4416 183.423 L26.4416 184.161 L22.7089 184.161 L22.7089 183.423 Z" fill="#000000" fill-rule="evenodd" fill-opacity="1" /><path clip-path="url(#clip140)" d="M 0 0 M17.8739 208.365 L19.3062 208.365 L19.3062 203.422 L17.748 203.734 L17.748 202.935 L19.2975 202.623 L20.1742 202.623 L20.1742 208.365 L21.6065 208.365 L21.6065 209.103 L17.8739 209.103 L17.8739 208.365 Z" fill="#000000" fill-rule="evenodd" fill-opacity="1" /><path clip-path="url(#clip140)" d="M 0 0 M23.3122 208.365 L26.3721 208.365 L26.3721 209.103 L22.2576 209.103 L22.2576 208.365 Q22.7567 207.849 23.6161 206.981 Q24.4798 206.108 24.7011 205.856 Q25.1221 205.383 25.2871 205.058 Q25.4563 204.728 25.4563 204.411 Q25.4563 203.895 25.0917 203.569 Q24.7315 203.244 24.1499 203.244 Q23.7376 203.244 23.2775 203.387 Q22.8218 203.53 22.301 203.821 L22.301 202.935 Q22.8305 202.723 23.2905 202.614 Q23.7506 202.506 24.1325 202.506 Q25.1395 202.506 25.7384 203.009 Q26.3374 203.513 26.3374 204.355 Q26.3374 204.754 26.1855 205.114 Q26.0379 205.47 25.643 205.956 Q25.5344 206.082 24.9529 206.685 Q24.3713 207.284 23.3122 208.365 Z" fill="#000000" fill-rule="evenodd" fill-opacity="1" /><path clip-path="url(#clip140)" d="M 0 0 M34.918 71.1842 L36.3503 71.1842 L36.3503 66.2406 L34.7921 66.5531 L34.7921 65.7545 L36.3416 65.442 L37.2183 65.442 L37.2183 71.1842 L38.6506 71.1842 L38.6506 71.922 L34.918 71.922 L34.918 71.1842 Z" fill="#000000" fill-rule="evenodd" fill-opacity="1" /><path clip-path="url(#clip140)" d="M 0 0 M42.2574 68.4281 Q42.8867 68.5627 43.2383 68.988 Q43.5942 69.4134 43.5942 70.0384 Q43.5942 70.9976 42.9344 71.5227 Q42.2747 72.0479 41.0595 72.0479 Q40.6515 72.0479 40.2174 71.9654 Q39.7878 71.8873 39.3277 71.7267 L39.3277 70.8804 Q39.6923 71.093 40.1263 71.2015 Q40.5603 71.3101 41.0334 71.3101 Q41.8581 71.3101 42.2877 70.9845 Q42.7218 70.659 42.7218 70.0384 Q42.7218 69.4654 42.3181 69.1443 Q41.9188 68.8187 41.2027 68.8187 L40.4475 68.8187 L40.4475 68.0983 L41.2374 68.0983 Q41.8841 68.0983 42.227 67.8422 Q42.5699 67.5818 42.5699 67.0957 Q42.5699 66.5965 42.214 66.3318 Q41.8624 66.0627 41.2027 66.0627 Q40.8424 66.0627 40.4301 66.1408 Q40.0178 66.2189 39.523 66.3839 L39.523 65.6026 Q40.0221 65.4637 40.4562 65.3943 Q40.8945 65.3248 41.2808 65.3248 Q42.2791 65.3248 42.8607 65.7806 Q43.4423 66.232 43.4423 67.0045 Q43.4423 67.5427 43.1341 67.916 Q42.8259 68.2849 42.2574 68.4281 Z" fill="#000000" fill-rule="evenodd" fill-opacity="1" /><path clip-path="url(#clip140)" d="M 0 0 M34.918 96.1262 L36.3503 96.1262 L36.3503 91.1826 L34.7921 91.4951 L34.7921 90.6965 L36.3416 90.384 L37.2183 90.384 L37.2183 96.1262 L38.6506 96.1262 L38.6506 96.864 L34.918 96.864 L34.918 96.1262 Z" fill="#000000" fill-rule="evenodd" fill-opacity="1" /><path clip-path="url(#clip140)" d="M 0 0 M42.01 91.1479 L39.7964 94.6071 L42.01 94.6071 L42.01 91.1479 M41.7799 90.384 L42.8824 90.384 L42.8824 94.6071 L43.8068 94.6071 L43.8068 95.3362 L42.8824 95.3362 L42.8824 96.864 L42.01 96.864 L42.01 95.3362 L39.0846 95.3362 L39.0846 94.4899 L41.7799 90.384 Z" fill="#000000" fill-rule="evenodd" fill-opacity="1" /><path clip-path="url(#clip140)" d="M 0 0 M103.094 146.01 L104.527 146.01 L104.527 141.067 L102.969 141.379 L102.969 140.58 L104.518 140.268 L105.395 140.268 L105.395 146.01 L106.827 146.01 L106.827 146.748 L103.094 146.748 L103.094 146.01 Z" fill="#000000" fill-rule="evenodd" fill-opacity="1" /><path clip-path="url(#clip140)" d="M 0 0 M107.786 140.268 L111.228 140.268 L111.228 141.006 L108.589 141.006 L108.589 142.594 Q108.78 142.529 108.971 142.499 Q109.162 142.464 109.353 142.464 Q110.438 142.464 111.072 143.059 Q111.705 143.653 111.705 144.669 Q111.705 145.715 111.054 146.297 Q110.403 146.874 109.218 146.874 Q108.81 146.874 108.385 146.804 Q107.964 146.735 107.513 146.596 L107.513 145.715 Q107.903 145.928 108.32 146.032 Q108.737 146.136 109.201 146.136 Q109.952 146.136 110.39 145.741 Q110.829 145.346 110.829 144.669 Q110.829 143.992 110.39 143.597 Q109.952 143.202 109.201 143.202 Q108.85 143.202 108.498 143.28 Q108.151 143.358 107.786 143.523 L107.786 140.268 Z" fill="#000000" fill-rule="evenodd" fill-opacity="1" /><path clip-path="url(#clip140)" d="M 0 0 M103.094 170.952 L104.527 170.952 L104.527 166.009 L102.969 166.321 L102.969 165.522 L104.518 165.21 L105.395 165.21 L105.395 170.952 L106.827 170.952 L106.827 171.69 L103.094 171.69 L103.094 170.952 Z" fill="#000000" fill-rule="evenodd" fill-opacity="1" /><path clip-path="url(#clip140)" d="M 0 0 M109.761 168.101 Q109.171 168.101 108.824 168.504 Q108.481 168.908 108.481 169.611 Q108.481 170.31 108.824 170.718 Q109.171 171.121 109.761 171.121 Q110.351 171.121 110.694 170.718 Q111.041 170.31 111.041 169.611 Q111.041 168.908 110.694 168.504 Q110.351 168.101 109.761 168.101 M111.501 165.353 L111.501 166.152 Q111.172 165.996 110.833 165.913 Q110.499 165.831 110.169 165.831 Q109.301 165.831 108.841 166.417 Q108.385 167.002 108.32 168.187 Q108.576 167.81 108.962 167.61 Q109.349 167.406 109.813 167.406 Q110.79 167.406 111.354 168.001 Q111.922 168.591 111.922 169.611 Q111.922 170.609 111.332 171.213 Q110.742 171.816 109.761 171.816 Q108.637 171.816 108.042 170.956 Q107.448 170.093 107.448 168.456 Q107.448 166.92 108.177 166.009 Q108.906 165.093 110.134 165.093 Q110.464 165.093 110.798 165.158 Q111.137 165.223 111.501 165.353 Z" fill="#000000" fill-rule="evenodd" fill-opacity="1" /><path clip-path="url(#clip140)" d="M 0 0 M69.0062 146.01 L70.4385 146.01 L70.4385 141.067 L68.8803 141.379 L68.8803 140.58 L70.4298 140.268 L71.3065 140.268 L71.3065 146.01 L72.7388 146.01 L72.7388 146.748 L69.0062 146.748 L69.0062 146.01 Z" fill="#000000" fill-rule="evenodd" fill-opacity="1" /><path clip-path="url(#clip140)" d="M 0 0 M73.468 140.268 L77.6346 140.268 L77.6346 140.641 L75.2822 146.748 L74.3664 146.748 L76.5799 141.006 L73.468 141.006 L73.468 140.268 Z" fill="#000000" fill-rule="evenodd" fill-opacity="1" /><path clip-path="url(#clip140)" d="M 0 0 M69.0062 170.952 L70.4385 170.952 L70.4385 166.009 L68.8803 166.321 L68.8803 165.522 L70.4298 165.21 L71.3065 165.21 L71.3065 170.952 L72.7388 170.952 L72.7388 171.69 L69.0062 171.69 L69.0062 170.952 Z" fill="#000000" fill-rule="evenodd" fill-opacity="1" /><path clip-path="url(#clip140)" d="M 0 0 M75.5643 168.613 Q74.9393 168.613 74.5791 168.947 Q74.2232 169.281 74.2232 169.867 Q74.2232 170.453 74.5791 170.787 Q74.9393 171.121 75.5643 171.121 Q76.1893 171.121 76.5495 170.787 Q76.9098 170.449 76.9098 169.867 Q76.9098 169.281 76.5495 168.947 Q76.1936 168.613 75.5643 168.613 M74.6876 168.239 Q74.1233 168.101 73.8065 167.714 Q73.494 167.328 73.494 166.772 Q73.494 165.996 74.0452 165.544 Q74.6008 165.093 75.5643 165.093 Q76.5322 165.093 77.0834 165.544 Q77.6346 165.996 77.6346 166.772 Q77.6346 167.328 77.3178 167.714 Q77.0053 168.101 76.4454 168.239 Q77.0791 168.387 77.4306 168.817 Q77.7865 169.246 77.7865 169.867 Q77.7865 170.809 77.2093 171.312 Q76.6363 171.816 75.5643 171.816 Q74.4923 171.816 73.915 171.312 Q73.3421 170.809 73.3421 169.867 Q73.3421 169.246 73.698 168.817 Q74.0539 168.387 74.6876 168.239 M74.3664 166.855 Q74.3664 167.358 74.6789 167.641 Q74.9957 167.923 75.5643 167.923 Q76.1285 167.923 76.4454 167.641 Q76.7666 167.358 76.7666 166.855 Q76.7666 166.351 76.4454 166.069 Q76.1285 165.787 75.5643 165.787 Q74.9957 165.787 74.6789 166.069 Q74.3664 166.351 74.3664 166.855 Z" fill="#000000" fill-rule="evenodd" fill-opacity="1" /><path clip-path="url(#clip140)" d="M 0 0 M34.918 146.01 L36.3503 146.01 L36.3503 141.067 L34.7921 141.379 L34.7921 140.58 L36.3416 140.268 L37.2183 140.268 L37.2183 146.01 L38.6506 146.01 L38.6506 146.748 L34.918 146.748 L34.918 146.01 Z" fill="#000000" fill-rule="evenodd" fill-opacity="1" /><path clip-path="url(#clip140)" d="M 0 0 M39.6272 146.613 L39.6272 145.815 Q39.957 145.971 40.2956 146.054 Q40.6341 146.136 40.9596 146.136 Q41.8277 146.136 42.2834 145.554 Q42.7435 144.968 42.8086 143.779 Q42.5568 144.153 42.1706 144.352 Q41.7843 144.552 41.3155 144.552 Q40.3433 144.552 39.7747 143.966 Q39.2105 143.376 39.2105 142.356 Q39.2105 141.357 39.8008 140.754 Q40.3911 140.151 41.372 140.151 Q42.4961 140.151 43.0864 141.015 Q43.681 141.874 43.681 143.514 Q43.681 145.047 42.9518 145.962 Q42.227 146.874 40.9987 146.874 Q40.6688 146.874 40.3303 146.809 Q39.9918 146.744 39.6272 146.613 M41.372 143.866 Q41.9622 143.866 42.3051 143.462 Q42.6523 143.059 42.6523 142.356 Q42.6523 141.657 42.3051 141.253 Q41.9622 140.845 41.372 140.845 Q40.7817 140.845 40.4345 141.253 Q40.0916 141.657 40.0916 142.356 Q40.0916 143.059 40.4345 143.462 Q40.7817 143.866 41.372 143.866 Z" fill="#000000" fill-rule="evenodd" fill-opacity="1" /><path clip-path="url(#clip140)" d="M 0 0 M35.8468 170.952 L38.9067 170.952 L38.9067 171.69 L34.7921 171.69 L34.7921 170.952 Q35.2913 170.436 36.1506 169.568 Q37.0143 168.695 37.2357 168.443 Q37.6567 167.97 37.8216 167.645 Q37.9909 167.315 37.9909 166.998 Q37.9909 166.482 37.6263 166.156 Q37.2661 165.831 36.6845 165.831 Q36.2722 165.831 35.8121 165.974 Q35.3564 166.117 34.8355 166.408 L34.8355 165.522 Q35.365 165.31 35.8251 165.201 Q36.2852 165.093 36.6671 165.093 Q37.6741 165.093 38.273 165.596 Q38.872 166.1 38.872 166.942 Q38.872 167.341 38.7201 167.701 Q38.5725 168.057 38.1775 168.543 Q38.069 168.669 37.4874 169.272 Q36.9058 169.871 35.8468 170.952 Z" fill="#000000" fill-rule="evenodd" fill-opacity="1" /><path clip-path="url(#clip140)" d="M 0 0 M41.7322 165.787 Q41.0551 165.787 40.7122 166.456 Q40.3737 167.12 40.3737 168.456 Q40.3737 169.789 40.7122 170.457 Q41.0551 171.121 41.7322 171.121 Q42.4136 171.121 42.7522 170.457 Q43.095 169.789 43.095 168.456 Q43.095 167.12 42.7522 166.456 Q42.4136 165.787 41.7322 165.787 M41.7322 165.093 Q42.8216 165.093 43.3945 165.956 Q43.9718 166.816 43.9718 168.456 Q43.9718 170.093 43.3945 170.956 Q42.8216 171.816 41.7322 171.816 Q40.6428 171.816 40.0655 170.956 Q39.4926 170.093 39.4926 168.456 Q39.4926 166.816 40.0655 165.956 Q40.6428 165.093 41.7322 165.093 Z" fill="#000000" fill-rule="evenodd" fill-opacity="1" /><path clip-path="url(#clip140)" d="M 0 0 M104.023 220.836 L107.083 220.836 L107.083 221.574 L102.969 221.574 L102.969 220.836 Q103.468 220.32 104.327 219.452 Q105.191 218.579 105.412 218.327 Q105.833 217.854 105.998 217.529 Q106.167 217.199 106.167 216.882 Q106.167 216.366 105.803 216.04 Q105.442 215.715 104.861 215.715 Q104.449 215.715 103.988 215.858 Q103.533 216.001 103.012 216.292 L103.012 215.406 Q103.541 215.194 104.001 215.085 Q104.462 214.977 104.843 214.977 Q105.85 214.977 106.449 215.48 Q107.048 215.984 107.048 216.826 Q107.048 217.225 106.896 217.585 Q106.749 217.941 106.354 218.427 Q106.245 218.553 105.664 219.156 Q105.082 219.755 104.023 220.836 Z" fill="#000000" fill-rule="evenodd" fill-opacity="1" /><path clip-path="url(#clip140)" d="M 0 0 M108.185 220.836 L109.618 220.836 L109.618 215.893 L108.06 216.205 L108.06 215.406 L109.609 215.094 L110.486 215.094 L110.486 220.836 L111.918 220.836 L111.918 221.574 L108.185 221.574 L108.185 220.836 Z" fill="#000000" fill-rule="evenodd" fill-opacity="1" /><path clip-path="url(#clip140)" d="M 0 0 M69.935 220.836 L72.9949 220.836 L72.9949 221.574 L68.8803 221.574 L68.8803 220.836 Q69.3794 220.32 70.2388 219.452 Q71.1025 218.579 71.3239 218.327 Q71.7449 217.854 71.9098 217.529 Q72.0791 217.199 72.0791 216.882 Q72.0791 216.366 71.7145 216.04 Q71.3543 215.715 70.7727 215.715 Q70.3603 215.715 69.9003 215.858 Q69.4445 216.001 68.9237 216.292 L68.9237 215.406 Q69.4532 215.194 69.9133 215.085 Q70.3734 214.977 70.7553 214.977 Q71.7622 214.977 72.3612 215.48 Q72.9602 215.984 72.9602 216.826 Q72.9602 217.225 72.8082 217.585 Q72.6607 217.941 72.2657 218.427 Q72.1572 218.553 71.5756 219.156 Q70.994 219.755 69.935 220.836 Z" fill="#000000" fill-rule="evenodd" fill-opacity="1" /><path clip-path="url(#clip140)" d="M 0 0 M76.6016 218.08 Q77.231 218.215 77.5825 218.64 Q77.9384 219.065 77.9384 219.69 Q77.9384 220.649 77.2787 221.175 Q76.619 221.7 75.4037 221.7 Q74.9957 221.7 74.5617 221.617 Q74.132 221.539 73.672 221.379 L73.672 220.532 Q74.0365 220.745 74.4706 220.853 Q74.9046 220.962 75.3777 220.962 Q76.2023 220.962 76.632 220.636 Q77.066 220.311 77.066 219.69 Q77.066 219.117 76.6624 218.796 Q76.2631 218.471 75.5469 218.471 L74.7917 218.471 L74.7917 217.75 L75.5817 217.75 Q76.2284 217.75 76.5712 217.494 Q76.9141 217.234 76.9141 216.748 Q76.9141 216.248 76.5582 215.984 Q76.2067 215.715 75.5469 215.715 Q75.1867 215.715 74.7744 215.793 Q74.3621 215.871 73.8673 216.036 L73.8673 215.255 Q74.3664 215.116 74.8004 215.046 Q75.2388 214.977 75.6251 214.977 Q76.6233 214.977 77.2049 215.432 Q77.7865 215.884 77.7865 216.656 Q77.7865 217.195 77.4784 217.568 Q77.1702 217.937 76.6016 218.08 Z" fill="#000000" fill-rule="evenodd" fill-opacity="1" /><circle clip-path="url(#clip142)" cx="85.9244" cy="36.453" r="3" fill="#0000ff" fill-rule="evenodd" fill-opacity="1" stroke="none"/>
<circle clip-path="url(#clip142)" cx="85.9244" cy="61.395" r="3" fill="#0000ff" fill-rule="evenodd" fill-opacity="1" stroke="none"/>
<circle clip-path="url(#clip142)" cx="51.8362" cy="36.453" r="3" fill="#0000ff" fill-rule="evenodd" fill-opacity="1" stroke="none"/>
<circle clip-path="url(#clip142)" cx="51.8362" cy="61.395" r="3" fill="#0000ff" fill-rule="evenodd" fill-opacity="1" stroke="none"/>
<circle clip-path="url(#clip142)" cx="17.748" cy="36.453" r="3" fill="#0000ff" fill-rule="evenodd" fill-opacity="1" stroke="none"/>
<circle clip-path="url(#clip142)" cx="17.748" cy="61.395" r="3" fill="#0000ff" fill-rule="evenodd" fill-opacity="1" stroke="none"/>
<circle clip-path="url(#clip142)" cx="102.969" cy="23.9821" r="3" fill="#0000ff" fill-rule="evenodd" fill-opacity="1" stroke="none"/>
<circle clip-path="url(#clip142)" cx="68.8803" cy="23.9821" r="3" fill="#0000ff" fill-rule="evenodd" fill-opacity="1" stroke="none"/>
<circle clip-path="url(#clip142)" cx="34.7921" cy="23.9821" r="3" fill="#0000ff" fill-rule="evenodd" fill-opacity="1" stroke="none"/>
<circle clip-path="url(#clip142)" cx="102.969" cy="73.866" r="3" fill="#0000ff" fill-rule="evenodd" fill-opacity="1" stroke="none"/>
<circle clip-path="url(#clip142)" cx="102.969" cy="98.808" r="3" fill="#0000ff" fill-rule="evenodd" fill-opacity="1" stroke="none"/>
<circle clip-path="url(#clip142)" cx="68.8803" cy="73.866" r="3" fill="#0000ff" fill-rule="evenodd" fill-opacity="1" stroke="none"/>
<circle clip-path="url(#clip142)" cx="68.8803" cy="98.808" r="3" fill="#0000ff" fill-rule="evenodd" fill-opacity="1" stroke="none"/>
<path clip-path="url(#clip140)" d="M 0 0 M85.9244 28.029 L90.0911 28.029 L90.0911 28.4023 L87.7386 34.509 L86.8228 34.509 L89.0364 28.7669 L85.9244 28.7669 L85.9244 28.029 Z" fill="#000000" fill-rule="evenodd" fill-opacity="1" /><path clip-path="url(#clip140)" d="M 0 0 M88.1466 56.3738 Q87.5216 56.3738 87.1614 56.708 Q86.8055 57.0422 86.8055 57.6281 Q86.8055 58.2141 87.1614 58.5483 Q87.5216 58.8825 88.1466 58.8825 Q88.7716 58.8825 89.1319 58.5483 Q89.4921 58.2097 89.4921 57.6281 Q89.4921 57.0422 89.1319 56.708 Q88.776 56.3738 88.1466 56.3738 M87.2699 56.0005 Q86.7057 55.8616 86.3888 55.4754 Q86.0763 55.0891 86.0763 54.5335 Q86.0763 53.7566 86.6275 53.3052 Q87.1831 52.8538 88.1466 52.8538 Q89.1145 52.8538 89.6657 53.3052 Q90.2169 53.7566 90.2169 54.5335 Q90.2169 55.0891 89.9001 55.4754 Q89.5876 55.8616 89.0277 56.0005 Q89.6614 56.1481 90.0129 56.5778 Q90.3688 57.0075 90.3688 57.6281 Q90.3688 58.57 89.7916 59.0734 Q89.2187 59.5769 88.1466 59.5769 Q87.0746 59.5769 86.4973 59.0734 Q85.9244 58.57 85.9244 57.6281 Q85.9244 57.0075 86.2803 56.5778 Q86.6362 56.1481 87.2699 56.0005 M86.9487 54.616 Q86.9487 55.1195 87.2612 55.4016 Q87.578 55.6837 88.1466 55.6837 Q88.7109 55.6837 89.0277 55.4016 Q89.3489 55.1195 89.3489 54.616 Q89.3489 54.1125 89.0277 53.8304 Q88.7109 53.5483 88.1466 53.5483 Q87.578 53.5483 87.2612 53.8304 Q86.9487 54.1125 86.9487 54.616 Z" fill="#000000" fill-rule="evenodd" fill-opacity="1" /><path clip-path="url(#clip140)" d="M 0 0 M52.2529 34.3745 L52.2529 33.5759 Q52.5827 33.7321 52.9213 33.8146 Q53.2598 33.8971 53.5853 33.8971 Q54.4534 33.8971 54.9091 33.3155 Q55.3692 32.7295 55.4343 31.5403 Q55.1826 31.9136 54.7963 32.1132 Q54.41 32.3129 53.9412 32.3129 Q52.969 32.3129 52.4005 31.7269 Q51.8362 31.1367 51.8362 30.1167 Q51.8362 29.1185 52.4265 28.5152 Q53.0168 27.9119 53.9977 27.9119 Q55.1218 27.9119 55.7121 28.7756 Q56.3067 29.6349 56.3067 31.2756 Q56.3067 32.8077 55.5775 33.7235 Q54.8527 34.6349 53.6244 34.6349 Q53.2945 34.6349 52.956 34.5698 Q52.6175 34.5047 52.2529 34.3745 M53.9977 31.6271 Q54.5879 31.6271 54.9308 31.2235 Q55.278 30.8198 55.278 30.1167 Q55.278 29.4179 54.9308 29.0143 Q54.5879 28.6063 53.9977 28.6063 Q53.4074 28.6063 53.0602 29.0143 Q52.7173 29.4179 52.7173 30.1167 Q52.7173 30.8198 53.0602 31.2235 Q53.4074 31.6271 53.9977 31.6271 Z" fill="#000000" fill-rule="evenodd" fill-opacity="1" /><path clip-path="url(#clip140)" d="M 0 0 M51.9621 58.7132 L53.3944 58.7132 L53.3944 53.7696 L51.8362 54.0821 L51.8362 53.2835 L53.3857 52.971 L54.2624 52.971 L54.2624 58.7132 L55.6947 58.7132 L55.6947 59.451 L51.9621 59.451 L51.9621 58.7132 Z" fill="#000000" fill-rule="evenodd" fill-opacity="1" /><path clip-path="url(#clip140)" d="M 0 0 M58.5202 53.5483 Q57.8431 53.5483 57.5003 54.2167 Q57.1617 54.8807 57.1617 56.2175 Q57.1617 57.55 57.5003 58.2184 Q57.8431 58.8825 58.5202 58.8825 Q59.2016 58.8825 59.5402 58.2184 Q59.8831 57.55 59.8831 56.2175 Q59.8831 54.8807 59.5402 54.2167 Q59.2016 53.5483 58.5202 53.5483 M58.5202 52.8538 Q59.6096 52.8538 60.1825 53.7176 Q60.7598 54.5769 60.7598 56.2175 Q60.7598 57.8538 60.1825 58.7175 Q59.6096 59.5769 58.5202 59.5769 Q57.4308 59.5769 56.8536 58.7175 Q56.2806 57.8538 56.2806 56.2175 Q56.2806 54.5769 56.8536 53.7176 Q57.4308 52.8538 58.5202 52.8538 Z" fill="#000000" fill-rule="evenodd" fill-opacity="1" /><path clip-path="url(#clip140)" d="M 0 0 M17.8739 33.7712 L19.3062 33.7712 L19.3062 28.8277 L17.748 29.1402 L17.748 28.3415 L19.2975 28.029 L20.1742 28.029 L20.1742 33.7712 L21.6065 33.7712 L21.6065 34.509 L17.8739 34.509 L17.8739 33.7712 Z" fill="#000000" fill-rule="evenodd" fill-opacity="1" /><path clip-path="url(#clip140)" d="M 0 0 M22.7089 33.7712 L24.1412 33.7712 L24.1412 28.8277 L22.5831 29.1402 L22.5831 28.3415 L24.1325 28.029 L25.0093 28.029 L25.0093 33.7712 L26.4416 33.7712 L26.4416 34.509 L22.7089 34.509 L22.7089 33.7712 Z" fill="#000000" fill-rule="evenodd" fill-opacity="1" /><path clip-path="url(#clip140)" d="M 0 0 M17.8739 58.7132 L19.3062 58.7132 L19.3062 53.7696 L17.748 54.0821 L17.748 53.2835 L19.2975 52.971 L20.1742 52.971 L20.1742 58.7132 L21.6065 58.7132 L21.6065 59.451 L17.8739 59.451 L17.8739 58.7132 Z" fill="#000000" fill-rule="evenodd" fill-opacity="1" /><path clip-path="url(#clip140)" d="M 0 0 M23.3122 58.7132 L26.3721 58.7132 L26.3721 59.451 L22.2576 59.451 L22.2576 58.7132 Q22.7567 58.1967 23.6161 57.3286 Q24.4798 56.4563 24.7011 56.2045 Q25.1221 55.7314 25.2871 55.4059 Q25.4563 55.0761 25.4563 54.7592 Q25.4563 54.2427 25.0917 53.9172 Q24.7315 53.5917 24.1499 53.5917 Q23.7376 53.5917 23.2775 53.7349 Q22.8218 53.8781 22.301 54.1689 L22.301 53.2835 Q22.8305 53.0709 23.2905 52.9624 Q23.7506 52.8538 24.1325 52.8538 Q25.1395 52.8538 25.7384 53.3573 Q26.3374 53.8608 26.3374 54.7028 Q26.3374 55.1021 26.1855 55.4623 Q26.0379 55.8182 25.643 56.3043 Q25.5344 56.4302 24.9529 57.0335 Q24.3713 57.6325 23.3122 58.7132 Z" fill="#000000" fill-rule="evenodd" fill-opacity="1" /><path clip-path="url(#clip140)" d="M 0 0 M103.094 21.3002 L104.527 21.3002 L104.527 16.3567 L102.969 16.6692 L102.969 15.8706 L104.518 15.5581 L105.395 15.5581 L105.395 21.3002 L106.827 21.3002 L106.827 22.0381 L103.094 22.0381 L103.094 21.3002 Z" fill="#000000" fill-rule="evenodd" fill-opacity="1" /><path clip-path="url(#clip140)" d="M 0 0 M109.761 18.4487 Q109.171 18.4487 108.824 18.8523 Q108.481 19.256 108.481 19.9591 Q108.481 20.6579 108.824 21.0658 Q109.171 21.4695 109.761 21.4695 Q110.351 21.4695 110.694 21.0658 Q111.041 20.6579 111.041 19.9591 Q111.041 19.256 110.694 18.8523 Q110.351 18.4487 109.761 18.4487 M111.501 15.7013 L111.501 16.4999 Q111.172 16.3436 110.833 16.2612 Q110.499 16.1787 110.169 16.1787 Q109.301 16.1787 108.841 16.7646 Q108.385 17.3506 108.32 18.5355 Q108.576 18.1579 108.962 17.9582 Q109.349 17.7542 109.813 17.7542 Q110.79 17.7542 111.354 18.3488 Q111.922 18.9391 111.922 19.9591 Q111.922 20.9573 111.332 21.5606 Q110.742 22.1639 109.761 22.1639 Q108.637 22.1639 108.042 21.3046 Q107.448 20.4408 107.448 18.8046 Q107.448 17.2681 108.177 16.3567 Q108.906 15.4409 110.134 15.4409 Q110.464 15.4409 110.798 15.506 Q111.137 15.5711 111.501 15.7013 Z" fill="#000000" fill-rule="evenodd" fill-opacity="1" /><path clip-path="url(#clip140)" d="M 0 0 M69.0062 21.3002 L70.4385 21.3002 L70.4385 16.3567 L68.8803 16.6692 L68.8803 15.8706 L70.4298 15.5581 L71.3065 15.5581 L71.3065 21.3002 L72.7388 21.3002 L72.7388 22.0381 L69.0062 22.0381 L69.0062 21.3002 Z" fill="#000000" fill-rule="evenodd" fill-opacity="1" /><path clip-path="url(#clip140)" d="M 0 0 M75.5643 18.9608 Q74.9393 18.9608 74.5791 19.295 Q74.2232 19.6292 74.2232 20.2151 Q74.2232 20.8011 74.5791 21.1353 Q74.9393 21.4695 75.5643 21.4695 Q76.1893 21.4695 76.5495 21.1353 Q76.9098 20.7967 76.9098 20.2151 Q76.9098 19.6292 76.5495 19.295 Q76.1936 18.9608 75.5643 18.9608 M74.6876 18.5876 Q74.1233 18.4487 73.8065 18.0624 Q73.494 17.6761 73.494 17.1205 Q73.494 16.3436 74.0452 15.8923 Q74.6008 15.4409 75.5643 15.4409 Q76.5322 15.4409 77.0834 15.8923 Q77.6346 16.3436 77.6346 17.1205 Q77.6346 17.6761 77.3178 18.0624 Q77.0053 18.4487 76.4454 18.5876 Q77.0791 18.7351 77.4306 19.1648 Q77.7865 19.5945 77.7865 20.2151 Q77.7865 21.157 77.2093 21.6605 Q76.6363 22.1639 75.5643 22.1639 Q74.4923 22.1639 73.915 21.6605 Q73.3421 21.157 73.3421 20.2151 Q73.3421 19.5945 73.698 19.1648 Q74.0539 18.7351 74.6876 18.5876 M74.3664 17.203 Q74.3664 17.7065 74.6789 17.9886 Q74.9957 18.2707 75.5643 18.2707 Q76.1285 18.2707 76.4454 17.9886 Q76.7666 17.7065 76.7666 17.203 Q76.7666 16.6995 76.4454 16.4174 Q76.1285 16.1353 75.5643 16.1353 Q74.9957 16.1353 74.6789 16.4174 Q74.3664 16.6995 74.3664 17.203 Z" fill="#000000" fill-rule="evenodd" fill-opacity="1" /><path clip-path="url(#clip140)" d="M 0 0 M35.8468 21.3002 L38.9067 21.3002 L38.9067 22.0381 L34.7921 22.0381 L34.7921 21.3002 Q35.2913 20.7837 36.1506 19.9157 Q37.0143 19.0433 37.2357 18.7915 Q37.6567 18.3185 37.8216 17.9929 Q37.9909 17.6631 37.9909 17.3462 Q37.9909 16.8297 37.6263 16.5042 Q37.2661 16.1787 36.6845 16.1787 Q36.2722 16.1787 35.8121 16.3219 Q35.3564 16.4652 34.8355 16.756 L34.8355 15.8706 Q35.365 15.6579 35.8251 15.5494 Q36.2852 15.4409 36.6671 15.4409 Q37.6741 15.4409 38.273 15.9443 Q38.872 16.4478 38.872 17.2898 Q38.872 17.6891 38.7201 18.0494 Q38.5725 18.4053 38.1775 18.8914 Q38.069 19.0172 37.4874 19.6205 Q36.9058 20.2195 35.8468 21.3002 Z" fill="#000000" fill-rule="evenodd" fill-opacity="1" /><path clip-path="url(#clip140)" d="M 0 0 M41.7322 16.1353 Q41.0551 16.1353 40.7122 16.8037 Q40.3737 17.4678 40.3737 18.8046 Q40.3737 20.137 40.7122 20.8054 Q41.0551 21.4695 41.7322 21.4695 Q42.4136 21.4695 42.7522 20.8054 Q43.095 20.137 43.095 18.8046 Q43.095 17.4678 42.7522 16.8037 Q42.4136 16.1353 41.7322 16.1353 M41.7322 15.4409 Q42.8216 15.4409 43.3945 16.3046 Q43.9718 17.1639 43.9718 18.8046 Q43.9718 20.4408 43.3945 21.3046 Q42.8216 22.1639 41.7322 22.1639 Q40.6428 22.1639 40.0655 21.3046 Q39.4926 20.4408 39.4926 18.8046 Q39.4926 17.1639 40.0655 16.3046 Q40.6428 15.4409 41.7322 15.4409 Z" fill="#000000" fill-rule="evenodd" fill-opacity="1" /><path clip-path="url(#clip140)" d="M 0 0 M104.023 71.1842 L107.083 71.1842 L107.083 71.922 L102.969 71.922 L102.969 71.1842 Q103.468 70.6677 104.327 69.7996 Q105.191 68.9273 105.412 68.6755 Q105.833 68.2024 105.998 67.8769 Q106.167 67.5471 106.167 67.2302 Q106.167 66.7137 105.803 66.3882 Q105.442 66.0627 104.861 66.0627 Q104.449 66.0627 103.988 66.2059 Q103.533 66.3491 103.012 66.6399 L103.012 65.7545 Q103.541 65.5419 104.001 65.4333 Q104.462 65.3248 104.843 65.3248 Q105.85 65.3248 106.449 65.8283 Q107.048 66.3318 107.048 67.1738 Q107.048 67.5731 106.896 67.9333 Q106.749 68.2892 106.354 68.7753 Q106.245 68.9012 105.664 69.5045 Q105.082 70.1035 104.023 71.1842 Z" fill="#000000" fill-rule="evenodd" fill-opacity="1" /><path clip-path="url(#clip140)" d="M 0 0 M108.185 71.1842 L109.618 71.1842 L109.618 66.2406 L108.06 66.5531 L108.06 65.7545 L109.609 65.442 L110.486 65.442 L110.486 71.1842 L111.918 71.1842 L111.918 71.922 L108.185 71.922 L108.185 71.1842 Z" fill="#000000" fill-rule="evenodd" fill-opacity="1" /><path clip-path="url(#clip140)" d="M 0 0 M104.023 96.1262 L107.083 96.1262 L107.083 96.864 L102.969 96.864 L102.969 96.1262 Q103.468 95.6097 104.327 94.7416 Q105.191 93.8692 105.412 93.6175 Q105.833 93.1444 105.998 92.8189 Q106.167 92.489 106.167 92.1722 Q106.167 91.6557 105.803 91.3302 Q105.442 91.0047 104.861 91.0047 Q104.449 91.0047 103.988 91.1479 Q103.533 91.2911 103.012 91.5819 L103.012 90.6965 Q103.541 90.4838 104.001 90.3753 Q104.462 90.2668 104.843 90.2668 Q105.85 90.2668 106.449 90.7703 Q107.048 91.2738 107.048 92.1158 Q107.048 92.5151 106.896 92.8753 Q106.749 93.2312 106.354 93.7173 Q106.245 93.8432 105.664 94.4465 Q105.082 95.0454 104.023 96.1262 Z" fill="#000000" fill-rule="evenodd" fill-opacity="1" /><path clip-path="url(#clip140)" d="M 0 0 M108.789 96.1262 L111.849 96.1262 L111.849 96.864 L107.734 96.864 L107.734 96.1262 Q108.233 95.6097 109.093 94.7416 Q109.956 93.8692 110.178 93.6175 Q110.599 93.1444 110.764 92.8189 Q110.933 92.489 110.933 92.1722 Q110.933 91.6557 110.568 91.3302 Q110.208 91.0047 109.626 91.0047 Q109.214 91.0047 108.754 91.1479 Q108.298 91.2911 107.778 91.5819 L107.778 90.6965 Q108.307 90.4838 108.767 90.3753 Q109.227 90.2668 109.609 90.2668 Q110.616 90.2668 111.215 90.7703 Q111.814 91.2738 111.814 92.1158 Q111.814 92.5151 111.662 92.8753 Q111.514 93.2312 111.12 93.7173 Q111.011 93.8432 110.429 94.4465 Q109.848 95.0454 108.789 96.1262 Z" fill="#000000" fill-rule="evenodd" fill-opacity="1" /><path clip-path="url(#clip140)" d="M 0 0 M69.935 71.1842 L72.9949 71.1842 L72.9949 71.922 L68.8803 71.922 L68.8803 71.1842 Q69.3794 70.6677 70.2388 69.7996 Q71.1025 68.9273 71.3239 68.6755 Q71.7449 68.2024 71.9098 67.8769 Q72.0791 67.5471 72.0791 67.2302 Q72.0791 66.7137 71.7145 66.3882 Q71.3543 66.0627 70.7727 66.0627 Q70.3603 66.0627 69.9003 66.2059 Q69.4445 66.3491 68.9237 66.6399 L68.9237 65.7545 Q69.4532 65.5419 69.9133 65.4333 Q70.3734 65.3248 70.7553 65.3248 Q71.7622 65.3248 72.3612 65.8283 Q72.9602 66.3318 72.9602 67.1738 Q72.9602 67.5731 72.8082 67.9333 Q72.6607 68.2892 72.2657 68.7753 Q72.1572 68.9012 71.5756 69.5045 Q70.994 70.1035 69.935 71.1842 Z" fill="#000000" fill-rule="evenodd" fill-opacity="1" /><path clip-path="url(#clip140)" d="M 0 0 M76.6016 68.4281 Q77.231 68.5627 77.5825 68.988 Q77.9384 69.4134 77.9384 70.0384 Q77.9384 70.9976 77.2787 71.5227 Q76.619 72.0479 75.4037 72.0479 Q74.9957 72.0479 74.5617 71.9654 Q74.132 71.8873 73.672 71.7267 L73.672 70.8804 Q74.0365 71.093 74.4706 71.2015 Q74.9046 71.3101 75.3777 71.3101 Q76.2023 71.3101 76.632 70.9845 Q77.066 70.659 77.066 70.0384 Q77.066 69.4654 76.6624 69.1443 Q76.2631 68.8187 75.5469 68.8187 L74.7917 68.8187 L74.7917 68.0983 L75.5817 68.0983 Q76.2284 68.0983 76.5712 67.8422 Q76.9141 67.5818 76.9141 67.0957 Q76.9141 66.5965 76.5582 66.3318 Q76.2067 66.0627 75.5469 66.0627 Q75.1867 66.0627 74.7744 66.1408 Q74.3621 66.2189 73.8673 66.3839 L73.8673 65.6026 Q74.3664 65.4637 74.8004 65.3943 Q75.2388 65.3248 75.6251 65.3248 Q76.6233 65.3248 77.2049 65.7806 Q77.7865 66.232 77.7865 67.0045 Q77.7865 67.5427 77.4784 67.916 Q77.1702 68.2849 76.6016 68.4281 Z" fill="#000000" fill-rule="evenodd" fill-opacity="1" /><path clip-path="url(#clip140)" d="M 0 0 M69.935 96.1262 L72.9949 96.1262 L72.9949 96.864 L68.8803 96.864 L68.8803 96.1262 Q69.3794 95.6097 70.2388 94.7416 Q71.1025 93.8692 71.3239 93.6175 Q71.7449 93.1444 71.9098 92.8189 Q72.0791 92.489 72.0791 92.1722 Q72.0791 91.6557 71.7145 91.3302 Q71.3543 91.0047 70.7727 91.0047 Q70.3603 91.0047 69.9003 91.1479 Q69.4445 91.2911 68.9237 91.5819 L68.9237 90.6965 Q69.4532 90.4838 69.9133 90.3753 Q70.3734 90.2668 70.7553 90.2668 Q71.7622 90.2668 72.3612 90.7703 Q72.9602 91.2738 72.9602 92.1158 Q72.9602 92.5151 72.8082 92.8753 Q72.6607 93.2312 72.2657 93.7173 Q72.1572 93.8432 71.5756 94.4465 Q70.994 95.0454 69.935 96.1262 Z" fill="#000000" fill-rule="evenodd" fill-opacity="1" /><path clip-path="url(#clip140)" d="M 0 0 M76.3542 91.1479 L74.1407 94.6071 L76.3542 94.6071 L76.3542 91.1479 M76.1242 90.384 L77.2266 90.384 L77.2266 94.6071 L78.1511 94.6071 L78.1511 95.3362 L77.2266 95.3362 L77.2266 96.864 L76.3542 96.864 L76.3542 95.3362 L73.4289 95.3362 L73.4289 94.4899 L76.1242 90.384 Z" fill="#000000" fill-rule="evenodd" fill-opacity="1" /><circle clip-path="url(#clip142)" cx="188.189" cy="186.105" r="3" fill="#0000ff" fill-rule="evenodd" fill-opacity="1" stroke="none"/>
<circle clip-path="url(#clip142)" cx="188.189" cy="211.047" r="3" fill="#0000ff" fill-rule="evenodd" fill-opacity="1" stroke="none"/>
<circle clip-path="url(#clip142)" cx="154.101" cy="186.105" r="3" fill="#0000ff" fill-rule="evenodd" fill-opacity="1" stroke="none"/>
<circle clip-path="url(#clip142)" cx="154.101" cy="211.047" r="3" fill="#0000ff" fill-rule="evenodd" fill-opacity="1" stroke="none"/>
<circle clip-path="url(#clip142)" cx="120.013" cy="186.105" r="3" fill="#0000ff" fill-rule="evenodd" fill-opacity="1" stroke="none"/>
<circle clip-path="url(#clip142)" cx="120.013" cy="211.047" r="3" fill="#0000ff" fill-rule="evenodd" fill-opacity="1" stroke="none"/>
<circle clip-path="url(#clip142)" cx="137.057" cy="148.692" r="3" fill="#0000ff" fill-rule="evenodd" fill-opacity="1" stroke="none"/>
<circle clip-path="url(#clip142)" cx="137.057" cy="173.634" r="3" fill="#0000ff" fill-rule="evenodd" fill-opacity="1" stroke="none"/>
<circle clip-path="url(#clip142)" cx="171.145" cy="223.518" r="3" fill="#0000ff" fill-rule="evenodd" fill-opacity="1" stroke="none"/>
<circle clip-path="url(#clip142)" cx="137.057" cy="223.518" r="3" fill="#0000ff" fill-rule="evenodd" fill-opacity="1" stroke="none"/>
<path clip-path="url(#clip140)" d="M 0 0 M188.315 183.423 L189.747 183.423 L189.747 178.48 L188.189 178.792 L188.189 177.993 L189.738 177.681 L190.615 177.681 L190.615 183.423 L192.047 183.423 L192.047 184.161 L188.315 184.161 L188.315 183.423 Z" fill="#000000" fill-rule="evenodd" fill-opacity="1" /><path clip-path="url(#clip140)" d="M 0 0 M189.244 208.365 L192.304 208.365 L192.304 209.103 L188.189 209.103 L188.189 208.365 Q188.688 207.849 189.547 206.981 Q190.411 206.108 190.633 205.856 Q191.054 205.383 191.218 205.058 Q191.388 204.728 191.388 204.411 Q191.388 203.895 191.023 203.569 Q190.663 203.244 190.081 203.244 Q189.669 203.244 189.209 203.387 Q188.753 203.53 188.232 203.821 L188.232 202.935 Q188.762 202.723 189.222 202.614 Q189.682 202.506 190.064 202.506 Q191.071 202.506 191.67 203.009 Q192.269 203.513 192.269 204.355 Q192.269 204.754 192.117 205.114 Q191.969 205.47 191.574 205.956 Q191.466 206.082 190.884 206.685 Q190.303 207.284 189.244 208.365 Z" fill="#000000" fill-rule="evenodd" fill-opacity="1" /><path clip-path="url(#clip140)" d="M 0 0 M157.03 180.667 Q157.66 180.802 158.011 181.227 Q158.367 181.652 158.367 182.277 Q158.367 183.236 157.708 183.762 Q157.048 184.287 155.833 184.287 Q155.425 184.287 154.991 184.204 Q154.561 184.126 154.101 183.966 L154.101 183.119 Q154.465 183.332 154.899 183.44 Q155.333 183.549 155.807 183.549 Q156.631 183.549 157.061 183.223 Q157.495 182.898 157.495 182.277 Q157.495 181.704 157.091 181.383 Q156.692 181.058 155.976 181.058 L155.221 181.058 L155.221 180.337 L156.01 180.337 Q156.657 180.337 157 180.081 Q157.343 179.821 157.343 179.335 Q157.343 178.835 156.987 178.571 Q156.635 178.302 155.976 178.302 Q155.616 178.302 155.203 178.38 Q154.791 178.458 154.296 178.623 L154.296 177.842 Q154.795 177.703 155.229 177.633 Q155.668 177.564 156.054 177.564 Q157.052 177.564 157.634 178.02 Q158.215 178.471 158.215 179.243 Q158.215 179.782 157.907 180.155 Q157.599 180.524 157.03 180.667 Z" fill="#000000" fill-rule="evenodd" fill-opacity="1" /><path clip-path="url(#clip140)" d="M 0 0 M157.026 203.387 L154.813 206.846 L157.026 206.846 L157.026 203.387 M156.796 202.623 L157.899 202.623 L157.899 206.846 L158.823 206.846 L158.823 207.575 L157.899 207.575 L157.899 209.103 L157.026 209.103 L157.026 207.575 L154.101 207.575 L154.101 206.729 L156.796 202.623 Z" fill="#000000" fill-rule="evenodd" fill-opacity="1" /><path clip-path="url(#clip140)" d="M 0 0 M120.286 177.681 L123.728 177.681 L123.728 178.419 L121.089 178.419 L121.089 180.007 Q121.28 179.942 121.471 179.912 Q121.662 179.877 121.853 179.877 Q122.938 179.877 123.572 180.472 Q124.205 181.066 124.205 182.082 Q124.205 183.128 123.554 183.71 Q122.903 184.287 121.718 184.287 Q121.31 184.287 120.885 184.217 Q120.464 184.148 120.013 184.009 L120.013 183.128 Q120.403 183.341 120.82 183.445 Q121.237 183.549 121.701 183.549 Q122.452 183.549 122.89 183.154 Q123.329 182.759 123.329 182.082 Q123.329 181.405 122.89 181.01 Q122.452 180.615 121.701 180.615 Q121.349 180.615 120.998 180.693 Q120.651 180.771 120.286 180.936 L120.286 177.681 Z" fill="#000000" fill-rule="evenodd" fill-opacity="1" /><path clip-path="url(#clip140)" d="M 0 0 M122.326 205.514 Q121.736 205.514 121.388 205.917 Q121.046 206.321 121.046 207.024 Q121.046 207.723 121.388 208.131 Q121.736 208.534 122.326 208.534 Q122.916 208.534 123.259 208.131 Q123.606 207.723 123.606 207.024 Q123.606 206.321 123.259 205.917 Q122.916 205.514 122.326 205.514 M124.066 202.766 L124.066 203.565 Q123.737 203.409 123.398 203.326 Q123.064 203.244 122.734 203.244 Q121.866 203.244 121.406 203.83 Q120.95 204.415 120.885 205.6 Q121.141 205.223 121.527 205.023 Q121.914 204.819 122.378 204.819 Q123.355 204.819 123.919 205.414 Q124.487 206.004 124.487 207.024 Q124.487 208.022 123.897 208.626 Q123.307 209.229 122.326 209.229 Q121.202 209.229 120.607 208.369 Q120.013 207.506 120.013 205.869 Q120.013 204.333 120.742 203.422 Q121.471 202.506 122.699 202.506 Q123.029 202.506 123.363 202.571 Q123.702 202.636 124.066 202.766 Z" fill="#000000" fill-rule="evenodd" fill-opacity="1" /><path clip-path="url(#clip140)" d="M 0 0 M137.183 146.01 L138.615 146.01 L138.615 141.067 L137.057 141.379 L137.057 140.58 L138.606 140.268 L139.483 140.268 L139.483 146.01 L140.915 146.01 L140.915 146.748 L137.183 146.748 L137.183 146.01 Z" fill="#000000" fill-rule="evenodd" fill-opacity="1" /><path clip-path="url(#clip140)" d="M 0 0 M144.522 143.254 Q145.151 143.389 145.503 143.814 Q145.859 144.239 145.859 144.864 Q145.859 145.824 145.199 146.349 Q144.539 146.874 143.324 146.874 Q142.916 146.874 142.482 146.791 Q142.052 146.713 141.592 146.553 L141.592 145.706 Q141.957 145.919 142.391 146.028 Q142.825 146.136 143.298 146.136 Q144.123 146.136 144.552 145.81 Q144.986 145.485 144.986 144.864 Q144.986 144.291 144.583 143.97 Q144.183 143.645 143.467 143.645 L142.712 143.645 L142.712 142.924 L143.502 142.924 Q144.149 142.924 144.492 142.668 Q144.834 142.408 144.834 141.922 Q144.834 141.422 144.479 141.158 Q144.127 140.889 143.467 140.889 Q143.107 140.889 142.695 140.967 Q142.282 141.045 141.788 141.21 L141.788 140.429 Q142.287 140.29 142.721 140.22 Q143.159 140.151 143.545 140.151 Q144.544 140.151 145.125 140.607 Q145.707 141.058 145.707 141.83 Q145.707 142.369 145.399 142.742 Q145.091 143.111 144.522 143.254 Z" fill="#000000" fill-rule="evenodd" fill-opacity="1" /><path clip-path="url(#clip140)" d="M 0 0 M137.183 170.952 L138.615 170.952 L138.615 166.009 L137.057 166.321 L137.057 165.522 L138.606 165.21 L139.483 165.21 L139.483 170.952 L140.915 170.952 L140.915 171.69 L137.183 171.69 L137.183 170.952 Z" fill="#000000" fill-rule="evenodd" fill-opacity="1" /><path clip-path="url(#clip140)" d="M 0 0 M144.275 165.974 L142.061 169.433 L144.275 169.433 L144.275 165.974 M144.045 165.21 L145.147 165.21 L145.147 169.433 L146.071 169.433 L146.071 170.162 L145.147 170.162 L145.147 171.69 L144.275 171.69 L144.275 170.162 L141.349 170.162 L141.349 169.316 L144.045 165.21 Z" fill="#000000" fill-rule="evenodd" fill-opacity="1" /><path clip-path="url(#clip140)" d="M 0 0 M171.271 220.836 L172.703 220.836 L172.703 215.893 L171.145 216.205 L171.145 215.406 L172.694 215.094 L173.571 215.094 L173.571 220.836 L175.003 220.836 L175.003 221.574 L171.271 221.574 L171.271 220.836 Z" fill="#000000" fill-rule="evenodd" fill-opacity="1" /><path clip-path="url(#clip140)" d="M 0 0 M175.733 215.094 L179.899 215.094 L179.899 215.467 L177.547 221.574 L176.631 221.574 L178.844 215.832 L175.733 215.832 L175.733 215.094 Z" fill="#000000" fill-rule="evenodd" fill-opacity="1" /><path clip-path="url(#clip140)" d="M 0 0 M137.183 220.836 L138.615 220.836 L138.615 215.893 L137.057 216.205 L137.057 215.406 L138.606 215.094 L139.483 215.094 L139.483 220.836 L140.915 220.836 L140.915 221.574 L137.183 221.574 L137.183 220.836 Z" fill="#000000" fill-rule="evenodd" fill-opacity="1" /><path clip-path="url(#clip140)" d="M 0 0 M141.892 221.439 L141.892 220.641 Q142.222 220.797 142.56 220.88 Q142.899 220.962 143.224 220.962 Q144.092 220.962 144.548 220.38 Q145.008 219.794 145.073 218.605 Q144.821 218.978 144.435 219.178 Q144.049 219.378 143.58 219.378 Q142.608 219.378 142.039 218.792 Q141.475 218.202 141.475 217.182 Q141.475 216.183 142.065 215.58 Q142.656 214.977 143.637 214.977 Q144.761 214.977 145.351 215.84 Q145.946 216.7 145.946 218.34 Q145.946 219.873 145.216 220.788 Q144.492 221.7 143.263 221.7 Q142.933 221.7 142.595 221.635 Q142.256 221.57 141.892 221.439 M143.637 218.692 Q144.227 218.692 144.57 218.288 Q144.917 217.885 144.917 217.182 Q144.917 216.483 144.57 216.079 Q144.227 215.671 143.637 215.671 Q143.046 215.671 142.699 216.079 Q142.356 216.483 142.356 217.182 Q142.356 217.885 142.699 218.288 Q143.046 218.692 143.637 218.692 Z" fill="#000000" fill-rule="evenodd" fill-opacity="1" /><circle clip-path="url(#clip142)" cx="188.189" cy="36.453" r="3" fill="#0000ff" fill-rule="evenodd" fill-opacity="1" stroke="none"/>
<circle clip-path="url(#clip142)" cx="188.189" cy="61.395" r="3" fill="#0000ff" fill-rule="evenodd" fill-opacity="1" stroke="none"/>
<circle clip-path="url(#clip142)" cx="154.101" cy="36.453" r="3" fill="#0000ff" fill-rule="evenodd" fill-opacity="1" stroke="none"/>
<circle clip-path="url(#clip142)" cx="154.101" cy="61.395" r="3" fill="#0000ff" fill-rule="evenodd" fill-opacity="1" stroke="none"/>
<circle clip-path="url(#clip142)" cx="120.013" cy="36.453" r="3" fill="#0000ff" fill-rule="evenodd" fill-opacity="1" stroke="none"/>
<circle clip-path="url(#clip142)" cx="120.013" cy="61.395" r="3" fill="#0000ff" fill-rule="evenodd" fill-opacity="1" stroke="none"/>
<circle clip-path="url(#clip142)" cx="188.189" cy="111.279" r="3" fill="#0000ff" fill-rule="evenodd" fill-opacity="1" stroke="none"/>
<circle clip-path="url(#clip142)" cx="188.189" cy="136.221" r="3" fill="#0000ff" fill-rule="evenodd" fill-opacity="1" stroke="none"/>
<circle clip-path="url(#clip142)" cx="154.101" cy="111.279" r="3" fill="#0000ff" fill-rule="evenodd" fill-opacity="1" stroke="none"/>
<circle clip-path="url(#clip142)" cx="154.101" cy="136.221" r="3" fill="#0000ff" fill-rule="evenodd" fill-opacity="1" stroke="none"/>
<circle clip-path="url(#clip142)" cx="120.013" cy="111.279" r="3" fill="#0000ff" fill-rule="evenodd" fill-opacity="1" stroke="none"/>
<circle clip-path="url(#clip142)" cx="120.013" cy="136.221" r="3" fill="#0000ff" fill-rule="evenodd" fill-opacity="1" stroke="none"/>
<circle clip-path="url(#clip142)" cx="137.057" cy="23.9821" r="3" fill="#0000ff" fill-rule="evenodd" fill-opacity="1" stroke="none"/>
<circle clip-path="url(#clip142)" cx="171.145" cy="73.866" r="3" fill="#0000ff" fill-rule="evenodd" fill-opacity="1" stroke="none"/>
<circle clip-path="url(#clip142)" cx="171.145" cy="98.808" r="3" fill="#0000ff" fill-rule="evenodd" fill-opacity="1" stroke="none"/>
<circle clip-path="url(#clip142)" cx="137.057" cy="73.866" r="3" fill="#0000ff" fill-rule="evenodd" fill-opacity="1" stroke="none"/>
<circle clip-path="url(#clip142)" cx="137.057" cy="98.808" r="3" fill="#0000ff" fill-rule="evenodd" fill-opacity="1" stroke="none"/>
<circle clip-path="url(#clip142)" cx="171.145" cy="148.692" r="3" fill="#0000ff" fill-rule="evenodd" fill-opacity="1" stroke="none"/>
<circle clip-path="url(#clip142)" cx="171.145" cy="173.634" r="3" fill="#0000ff" fill-rule="evenodd" fill-opacity="1" stroke="none"/>
<path clip-path="url(#clip140)" d="M 0 0 M188.315 33.7712 L189.747 33.7712 L189.747 28.8277 L188.189 29.1402 L188.189 28.3415 L189.738 28.029 L190.615 28.029 L190.615 33.7712 L192.047 33.7712 L192.047 34.509 L188.315 34.509 L188.315 33.7712 Z" fill="#000000" fill-rule="evenodd" fill-opacity="1" /><path clip-path="url(#clip140)" d="M 0 0 M189.244 58.7132 L192.304 58.7132 L192.304 59.451 L188.189 59.451 L188.189 58.7132 Q188.688 58.1967 189.547 57.3286 Q190.411 56.4563 190.633 56.2045 Q191.054 55.7314 191.218 55.4059 Q191.388 55.0761 191.388 54.7592 Q191.388 54.2427 191.023 53.9172 Q190.663 53.5917 190.081 53.5917 Q189.669 53.5917 189.209 53.7349 Q188.753 53.8781 188.232 54.1689 L188.232 53.2835 Q188.762 53.0709 189.222 52.9624 Q189.682 52.8538 190.064 52.8538 Q191.071 52.8538 191.67 53.3573 Q192.269 53.8608 192.269 54.7028 Q192.269 55.1021 192.117 55.4623 Q191.969 55.8182 191.574 56.3043 Q191.466 56.4302 190.884 57.0335 Q190.303 57.6325 189.244 58.7132 Z" fill="#000000" fill-rule="evenodd" fill-opacity="1" /><path clip-path="url(#clip140)" d="M 0 0 M157.03 31.0151 Q157.66 31.1497 158.011 31.575 Q158.367 32.0004 158.367 32.6254 Q158.367 33.5846 157.708 34.1097 Q157.048 34.6349 155.833 34.6349 Q155.425 34.6349 154.991 34.5525 Q154.561 34.4743 154.101 34.3137 L154.101 33.4674 Q154.465 33.6801 154.899 33.7886 Q155.333 33.8971 155.807 33.8971 Q156.631 33.8971 157.061 33.5716 Q157.495 33.246 157.495 32.6254 Q157.495 32.0525 157.091 31.7313 Q156.692 31.4058 155.976 31.4058 L155.221 31.4058 L155.221 30.6853 L156.01 30.6853 Q156.657 30.6853 157 30.4292 Q157.343 30.1688 157.343 29.6827 Q157.343 29.1836 156.987 28.9188 Q156.635 28.6497 155.976 28.6497 Q155.616 28.6497 155.203 28.7278 Q154.791 28.806 154.296 28.9709 L154.296 28.1896 Q154.795 28.0507 155.229 27.9813 Q155.668 27.9119 156.054 27.9119 Q157.052 27.9119 157.634 28.3676 Q158.215 28.819 158.215 29.5915 Q158.215 30.1297 157.907 30.503 Q157.599 30.8719 157.03 31.0151 Z" fill="#000000" fill-rule="evenodd" fill-opacity="1" /><path clip-path="url(#clip140)" d="M 0 0 M157.026 53.7349 L154.813 57.1941 L157.026 57.1941 L157.026 53.7349 M156.796 52.971 L157.899 52.971 L157.899 57.1941 L158.823 57.1941 L158.823 57.9233 L157.899 57.9233 L157.899 59.451 L157.026 59.451 L157.026 57.9233 L154.101 57.9233 L154.101 57.0769 L156.796 52.971 Z" fill="#000000" fill-rule="evenodd" fill-opacity="1" /><path clip-path="url(#clip140)" d="M 0 0 M120.286 28.029 L123.728 28.029 L123.728 28.7669 L121.089 28.7669 L121.089 30.3554 Q121.28 30.2903 121.471 30.2599 Q121.662 30.2252 121.853 30.2252 Q122.938 30.2252 123.572 30.8198 Q124.205 31.4144 124.205 32.4301 Q124.205 33.4761 123.554 34.0577 Q122.903 34.6349 121.718 34.6349 Q121.31 34.6349 120.885 34.5655 Q120.464 34.496 120.013 34.3571 L120.013 33.4761 Q120.403 33.6887 120.82 33.7929 Q121.237 33.8971 121.701 33.8971 Q122.452 33.8971 122.89 33.5021 Q123.329 33.1071 123.329 32.4301 Q123.329 31.753 122.89 31.358 Q122.452 30.9631 121.701 30.9631 Q121.349 30.9631 120.998 31.0412 Q120.651 31.1193 120.286 31.2842 L120.286 28.029 Z" fill="#000000" fill-rule="evenodd" fill-opacity="1" /><path clip-path="url(#clip140)" d="M 0 0 M122.326 55.8616 Q121.736 55.8616 121.388 56.2653 Q121.046 56.6689 121.046 57.3721 Q121.046 58.0708 121.388 58.4788 Q121.736 58.8825 122.326 58.8825 Q122.916 58.8825 123.259 58.4788 Q123.606 58.0708 123.606 57.3721 Q123.606 56.6689 123.259 56.2653 Q122.916 55.8616 122.326 55.8616 M124.066 53.1143 L124.066 53.9129 Q123.737 53.7566 123.398 53.6742 Q123.064 53.5917 122.734 53.5917 Q121.866 53.5917 121.406 54.1776 Q120.95 54.7636 120.885 55.9484 Q121.141 55.5708 121.527 55.3712 Q121.914 55.1672 122.378 55.1672 Q123.355 55.1672 123.919 55.7618 Q124.487 56.3521 124.487 57.3721 Q124.487 58.3703 123.897 58.9736 Q123.307 59.5769 122.326 59.5769 Q121.202 59.5769 120.607 58.7175 Q120.013 57.8538 120.013 56.2175 Q120.013 54.6811 120.742 53.7696 Q121.471 52.8538 122.699 52.8538 Q123.029 52.8538 123.363 52.919 Q123.702 52.9841 124.066 53.1143 Z" fill="#000000" fill-rule="evenodd" fill-opacity="1" /><path clip-path="url(#clip140)" d="M 0 0 M188.189 102.855 L192.356 102.855 L192.356 103.228 L190.003 109.335 L189.087 109.335 L191.301 103.593 L188.189 103.593 L188.189 102.855 Z" fill="#000000" fill-rule="evenodd" fill-opacity="1" /><path clip-path="url(#clip140)" d="M 0 0 M190.411 131.2 Q189.786 131.2 189.426 131.534 Q189.07 131.868 189.07 132.454 Q189.07 133.04 189.426 133.374 Q189.786 133.708 190.411 133.708 Q191.036 133.708 191.396 133.374 Q191.757 133.036 191.757 132.454 Q191.757 131.868 191.396 131.534 Q191.041 131.2 190.411 131.2 M189.534 130.826 Q188.97 130.688 188.653 130.301 Q188.341 129.915 188.341 129.359 Q188.341 128.583 188.892 128.131 Q189.448 127.68 190.411 127.68 Q191.379 127.68 191.93 128.131 Q192.481 128.583 192.481 129.359 Q192.481 129.915 192.165 130.301 Q191.852 130.688 191.292 130.826 Q191.926 130.974 192.277 131.404 Q192.633 131.833 192.633 132.454 Q192.633 133.396 192.056 133.899 Q191.483 134.403 190.411 134.403 Q189.339 134.403 188.762 133.899 Q188.189 133.396 188.189 132.454 Q188.189 131.833 188.545 131.404 Q188.901 130.974 189.534 130.826 M189.213 129.442 Q189.213 129.945 189.526 130.228 Q189.843 130.51 190.411 130.51 Q190.975 130.51 191.292 130.228 Q191.613 129.945 191.613 129.442 Q191.613 128.938 191.292 128.656 Q190.975 128.374 190.411 128.374 Q189.843 128.374 189.526 128.656 Q189.213 128.938 189.213 129.442 Z" fill="#000000" fill-rule="evenodd" fill-opacity="1" /><path clip-path="url(#clip140)" d="M 0 0 M154.517 109.2 L154.517 108.402 Q154.847 108.558 155.186 108.641 Q155.524 108.723 155.85 108.723 Q156.718 108.723 157.174 108.141 Q157.634 107.556 157.699 106.366 Q157.447 106.74 157.061 106.939 Q156.675 107.139 156.206 107.139 Q155.234 107.139 154.665 106.553 Q154.101 105.963 154.101 104.943 Q154.101 103.944 154.691 103.341 Q155.281 102.738 156.262 102.738 Q157.386 102.738 157.977 103.602 Q158.571 104.461 158.571 106.102 Q158.571 107.634 157.842 108.549 Q157.117 109.461 155.889 109.461 Q155.559 109.461 155.221 109.396 Q154.882 109.331 154.517 109.2 M156.262 106.453 Q156.853 106.453 157.195 106.049 Q157.543 105.646 157.543 104.943 Q157.543 104.244 157.195 103.84 Q156.853 103.432 156.262 103.432 Q155.672 103.432 155.325 103.84 Q154.982 104.244 154.982 104.943 Q154.982 105.646 155.325 106.049 Q155.672 106.453 156.262 106.453 Z" fill="#000000" fill-rule="evenodd" fill-opacity="1" /><path clip-path="url(#clip140)" d="M 0 0 M154.227 133.539 L155.659 133.539 L155.659 128.596 L154.101 128.908 L154.101 128.109 L155.65 127.797 L156.527 127.797 L156.527 133.539 L157.959 133.539 L157.959 134.277 L154.227 134.277 L154.227 133.539 Z" fill="#000000" fill-rule="evenodd" fill-opacity="1" /><path clip-path="url(#clip140)" d="M 0 0 M160.785 128.374 Q160.108 128.374 159.765 129.043 Q159.426 129.707 159.426 131.044 Q159.426 132.376 159.765 133.044 Q160.108 133.708 160.785 133.708 Q161.466 133.708 161.805 133.044 Q162.148 132.376 162.148 131.044 Q162.148 129.707 161.805 129.043 Q161.466 128.374 160.785 128.374 M160.785 127.68 Q161.874 127.68 162.447 128.544 Q163.024 129.403 163.024 131.044 Q163.024 132.68 162.447 133.543 Q161.874 134.403 160.785 134.403 Q159.695 134.403 159.118 133.543 Q158.545 132.68 158.545 131.044 Q158.545 129.403 159.118 128.544 Q159.695 127.68 160.785 127.68 Z" fill="#000000" fill-rule="evenodd" fill-opacity="1" /><path clip-path="url(#clip140)" d="M 0 0 M120.138 108.597 L121.571 108.597 L121.571 103.654 L120.013 103.966 L120.013 103.168 L121.562 102.855 L122.439 102.855 L122.439 108.597 L123.871 108.597 L123.871 109.335 L120.138 109.335 L120.138 108.597 Z" fill="#000000" fill-rule="evenodd" fill-opacity="1" /><path clip-path="url(#clip140)" d="M 0 0 M124.974 108.597 L126.406 108.597 L126.406 103.654 L124.848 103.966 L124.848 103.168 L126.397 102.855 L127.274 102.855 L127.274 108.597 L128.706 108.597 L128.706 109.335 L124.974 109.335 L124.974 108.597 Z" fill="#000000" fill-rule="evenodd" fill-opacity="1" /><path clip-path="url(#clip140)" d="M 0 0 M120.138 133.539 L121.571 133.539 L121.571 128.596 L120.013 128.908 L120.013 128.109 L121.562 127.797 L122.439 127.797 L122.439 133.539 L123.871 133.539 L123.871 134.277 L120.138 134.277 L120.138 133.539 Z" fill="#000000" fill-rule="evenodd" fill-opacity="1" /><path clip-path="url(#clip140)" d="M 0 0 M125.577 133.539 L128.637 133.539 L128.637 134.277 L124.522 134.277 L124.522 133.539 Q125.021 133.023 125.881 132.155 Q126.744 131.282 126.966 131.03 Q127.387 130.557 127.552 130.232 Q127.721 129.902 127.721 129.585 Q127.721 129.069 127.356 128.743 Q126.996 128.418 126.414 128.418 Q126.002 128.418 125.542 128.561 Q125.086 128.704 124.566 128.995 L124.566 128.109 Q125.095 127.897 125.555 127.788 Q126.015 127.68 126.397 127.68 Q127.404 127.68 128.003 128.183 Q128.602 128.687 128.602 129.529 Q128.602 129.928 128.45 130.288 Q128.302 130.644 127.908 131.13 Q127.799 131.256 127.217 131.859 Q126.636 132.458 125.577 133.539 Z" fill="#000000" fill-rule="evenodd" fill-opacity="1" /><path clip-path="url(#clip140)" d="M 0 0 M137.183 21.3002 L138.615 21.3002 L138.615 16.3567 L137.057 16.6692 L137.057 15.8706 L138.606 15.5581 L139.483 15.5581 L139.483 21.3002 L140.915 21.3002 L140.915 22.0381 L137.183 22.0381 L137.183 21.3002 Z" fill="#000000" fill-rule="evenodd" fill-opacity="1" /><path clip-path="url(#clip140)" d="M 0 0 M144.275 16.3219 L142.061 19.7811 L144.275 19.7811 L144.275 16.3219 M144.045 15.5581 L145.147 15.5581 L145.147 19.7811 L146.071 19.7811 L146.071 20.5103 L145.147 20.5103 L145.147 22.0381 L144.275 22.0381 L144.275 20.5103 L141.349 20.5103 L141.349 19.6639 L144.045 15.5581 Z" fill="#000000" fill-rule="evenodd" fill-opacity="1" /><path clip-path="url(#clip140)" d="M 0 0 M171.271 71.1842 L172.703 71.1842 L172.703 66.2406 L171.145 66.5531 L171.145 65.7545 L172.694 65.442 L173.571 65.442 L173.571 71.1842 L175.003 71.1842 L175.003 71.922 L171.271 71.922 L171.271 71.1842 Z" fill="#000000" fill-rule="evenodd" fill-opacity="1" /><path clip-path="url(#clip140)" d="M 0 0 M175.733 65.442 L179.899 65.442 L179.899 65.8153 L177.547 71.922 L176.631 71.922 L178.844 66.1799 L175.733 66.1799 L175.733 65.442 Z" fill="#000000" fill-rule="evenodd" fill-opacity="1" /><path clip-path="url(#clip140)" d="M 0 0 M171.271 96.1262 L172.703 96.1262 L172.703 91.1826 L171.145 91.4951 L171.145 90.6965 L172.694 90.384 L173.571 90.384 L173.571 96.1262 L175.003 96.1262 L175.003 96.864 L171.271 96.864 L171.271 96.1262 Z" fill="#000000" fill-rule="evenodd" fill-opacity="1" /><path clip-path="url(#clip140)" d="M 0 0 M177.829 93.7868 Q177.204 93.7868 176.844 94.121 Q176.488 94.4552 176.488 95.0411 Q176.488 95.627 176.844 95.9612 Q177.204 96.2954 177.829 96.2954 Q178.454 96.2954 178.814 95.9612 Q179.174 95.6227 179.174 95.0411 Q179.174 94.4552 178.814 94.121 Q178.458 93.7868 177.829 93.7868 M176.952 93.4135 Q176.388 93.2746 176.071 92.8883 Q175.759 92.5021 175.759 91.9465 Q175.759 91.1696 176.31 90.7182 Q176.865 90.2668 177.829 90.2668 Q178.797 90.2668 179.348 90.7182 Q179.899 91.1696 179.899 91.9465 Q179.899 92.5021 179.582 92.8883 Q179.27 93.2746 178.71 93.4135 Q179.344 93.5611 179.695 93.9908 Q180.051 94.4205 180.051 95.0411 Q180.051 95.9829 179.474 96.4864 Q178.901 96.9899 177.829 96.9899 Q176.757 96.9899 176.18 96.4864 Q175.607 95.9829 175.607 95.0411 Q175.607 94.4205 175.963 93.9908 Q176.318 93.5611 176.952 93.4135 M176.631 92.029 Q176.631 92.5324 176.943 92.8146 Q177.26 93.0967 177.829 93.0967 Q178.393 93.0967 178.71 92.8146 Q179.031 92.5324 179.031 92.029 Q179.031 91.5255 178.71 91.2434 Q178.393 90.9613 177.829 90.9613 Q177.26 90.9613 176.943 91.2434 Q176.631 91.5255 176.631 92.029 Z" fill="#000000" fill-rule="evenodd" fill-opacity="1" /><path clip-path="url(#clip140)" d="M 0 0 M137.183 71.1842 L138.615 71.1842 L138.615 66.2406 L137.057 66.5531 L137.057 65.7545 L138.606 65.442 L139.483 65.442 L139.483 71.1842 L140.915 71.1842 L140.915 71.922 L137.183 71.922 L137.183 71.1842 Z" fill="#000000" fill-rule="evenodd" fill-opacity="1" /><path clip-path="url(#clip140)" d="M 0 0 M141.892 71.7875 L141.892 70.9889 Q142.222 71.1451 142.56 71.2276 Q142.899 71.3101 143.224 71.3101 Q144.092 71.3101 144.548 70.7285 Q145.008 70.1425 145.073 68.9533 Q144.821 69.3266 144.435 69.5262 Q144.049 69.7259 143.58 69.7259 Q142.608 69.7259 142.039 69.1399 Q141.475 68.5496 141.475 67.5297 Q141.475 66.5314 142.065 65.9281 Q142.656 65.3248 143.637 65.3248 Q144.761 65.3248 145.351 66.1886 Q145.946 67.0479 145.946 68.6885 Q145.946 70.2206 145.216 71.1364 Q144.492 72.0479 143.263 72.0479 Q142.933 72.0479 142.595 71.9828 Q142.256 71.9177 141.892 71.7875 M143.637 69.0401 Q144.227 69.0401 144.57 68.6365 Q144.917 68.2328 144.917 67.5297 Q144.917 66.8309 144.57 66.4273 Q144.227 66.0193 143.637 66.0193 Q143.046 66.0193 142.699 66.4273 Q142.356 66.8309 142.356 67.5297 Q142.356 68.2328 142.699 68.6365 Q143.046 69.0401 143.637 69.0401 Z" fill="#000000" fill-rule="evenodd" fill-opacity="1" /><path clip-path="url(#clip140)" d="M 0 0 M138.111 96.1262 L141.171 96.1262 L141.171 96.864 L137.057 96.864 L137.057 96.1262 Q137.556 95.6097 138.415 94.7416 Q139.279 93.8692 139.5 93.6175 Q139.921 93.1444 140.086 92.8189 Q140.255 92.489 140.255 92.1722 Q140.255 91.6557 139.891 91.3302 Q139.531 91.0047 138.949 91.0047 Q138.537 91.0047 138.077 91.1479 Q137.621 91.2911 137.1 91.5819 L137.1 90.6965 Q137.63 90.4838 138.09 90.3753 Q138.55 90.2668 138.932 90.2668 Q139.939 90.2668 140.538 90.7703 Q141.137 91.2738 141.137 92.1158 Q141.137 92.5151 140.985 92.8753 Q140.837 93.2312 140.442 93.7173 Q140.334 93.8432 139.752 94.4465 Q139.17 95.0454 138.111 96.1262 Z" fill="#000000" fill-rule="evenodd" fill-opacity="1" /><path clip-path="url(#clip140)" d="M 0 0 M143.997 90.9613 Q143.32 90.9613 142.977 91.6297 Q142.638 92.2937 142.638 93.6305 Q142.638 94.963 142.977 95.6314 Q143.32 96.2954 143.997 96.2954 Q144.678 96.2954 145.017 95.6314 Q145.36 94.963 145.36 93.6305 Q145.36 92.2937 145.017 91.6297 Q144.678 90.9613 143.997 90.9613 M143.997 90.2668 Q145.086 90.2668 145.659 91.1305 Q146.236 91.9899 146.236 93.6305 Q146.236 95.2668 145.659 96.1305 Q145.086 96.9899 143.997 96.9899 Q142.907 96.9899 142.33 96.1305 Q141.757 95.2668 141.757 93.6305 Q141.757 91.9899 142.33 91.1305 Q142.907 90.2668 143.997 90.2668 Z" fill="#000000" fill-rule="evenodd" fill-opacity="1" /><path clip-path="url(#clip140)" d="M 0 0 M172.2 146.01 L175.259 146.01 L175.259 146.748 L171.145 146.748 L171.145 146.01 Q171.644 145.494 172.503 144.626 Q173.367 143.753 173.588 143.501 Q174.009 143.028 174.174 142.703 Q174.344 142.373 174.344 142.056 Q174.344 141.54 173.979 141.214 Q173.619 140.889 173.037 140.889 Q172.625 140.889 172.165 141.032 Q171.709 141.175 171.188 141.466 L171.188 140.58 Q171.718 140.368 172.178 140.259 Q172.638 140.151 173.02 140.151 Q174.027 140.151 174.626 140.654 Q175.225 141.158 175.225 142 Q175.225 142.399 175.073 142.759 Q174.925 143.115 174.53 143.601 Q174.422 143.727 173.84 144.33 Q173.259 144.929 172.2 146.01 Z" fill="#000000" fill-rule="evenodd" fill-opacity="1" /><path clip-path="url(#clip140)" d="M 0 0 M178.866 143.254 Q179.496 143.389 179.847 143.814 Q180.203 144.239 180.203 144.864 Q180.203 145.824 179.543 146.349 Q178.884 146.874 177.668 146.874 Q177.26 146.874 176.826 146.791 Q176.397 146.713 175.937 146.553 L175.937 145.706 Q176.301 145.919 176.735 146.028 Q177.169 146.136 177.642 146.136 Q178.467 146.136 178.897 145.81 Q179.331 145.485 179.331 144.864 Q179.331 144.291 178.927 143.97 Q178.528 143.645 177.812 143.645 L177.056 143.645 L177.056 142.924 L177.846 142.924 Q178.493 142.924 178.836 142.668 Q179.179 142.408 179.179 141.922 Q179.179 141.422 178.823 141.158 Q178.471 140.889 177.812 140.889 Q177.451 140.889 177.039 140.967 Q176.627 141.045 176.132 141.21 L176.132 140.429 Q176.631 140.29 177.065 140.22 Q177.503 140.151 177.89 140.151 Q178.888 140.151 179.469 140.607 Q180.051 141.058 180.051 141.83 Q180.051 142.369 179.743 142.742 Q179.435 143.111 178.866 143.254 Z" fill="#000000" fill-rule="evenodd" fill-opacity="1" /><path clip-path="url(#clip140)" d="M 0 0 M172.2 170.952 L175.259 170.952 L175.259 171.69 L171.145 171.69 L171.145 170.952 Q171.644 170.436 172.503 169.568 Q173.367 168.695 173.588 168.443 Q174.009 167.97 174.174 167.645 Q174.344 167.315 174.344 166.998 Q174.344 166.482 173.979 166.156 Q173.619 165.831 173.037 165.831 Q172.625 165.831 172.165 165.974 Q171.709 166.117 171.188 166.408 L171.188 165.522 Q171.718 165.31 172.178 165.201 Q172.638 165.093 173.02 165.093 Q174.027 165.093 174.626 165.596 Q175.225 166.1 175.225 166.942 Q175.225 167.341 175.073 167.701 Q174.925 168.057 174.53 168.543 Q174.422 168.669 173.84 169.272 Q173.259 169.871 172.2 170.952 Z" fill="#000000" fill-rule="evenodd" fill-opacity="1" /><path clip-path="url(#clip140)" d="M 0 0 M178.619 165.974 L176.405 169.433 L178.619 169.433 L178.619 165.974 M178.389 165.21 L179.491 165.21 L179.491 169.433 L180.416 169.433 L180.416 170.162 L179.491 170.162 L179.491 171.69 L178.619 171.69 L178.619 170.162 L175.693 170.162 L175.693 169.316 L178.389 165.21 Z" fill="#000000" fill-rule="evenodd" fill-opacity="1" /><circle clip-path="url(#clip142)" cx="171.145" cy="23.9821" r="3" fill="#0000ff" fill-rule="evenodd" fill-opacity="1" stroke="none"/>
<path clip-path="url(#clip140)" d="M 0 0 M172.2 21.3002 L175.259 21.3002 L175.259 22.0381 L171.145 22.0381 L171.145 21.3002 Q171.644 20.7837 172.503 19.9157 Q173.367 19.0433 173.588 18.7915 Q174.009 18.3185 174.174 17.9929 Q174.344 17.6631 174.344 17.3462 Q174.344 16.8297 173.979 16.5042 Q173.619 16.1787 173.037 16.1787 Q172.625 16.1787 172.165 16.3219 Q171.709 16.4652 171.188 16.756 L171.188 15.8706 Q171.718 15.6579 172.178 15.5494 Q172.638 15.4409 173.02 15.4409 Q174.027 15.4409 174.626 15.9443 Q175.225 16.4478 175.225 17.2898 Q175.225 17.6891 175.073 18.0494 Q174.925 18.4053 174.53 18.8914 Q174.422 19.0172 173.84 19.6205 Q173.259 20.2195 172.2 21.3002 Z" fill="#000000" fill-rule="evenodd" fill-opacity="1" /><path clip-path="url(#clip140)" d="M 0 0 M178.619 16.3219 L176.405 19.7811 L178.619 19.7811 L178.619 16.3219 M178.389 15.5581 L179.491 15.5581 L179.491 19.7811 L180.416 19.7811 L180.416 20.5103 L179.491 20.5103 L179.491 22.0381 L178.619 22.0381 L178.619 20.5103 L175.693 20.5103 L175.693 19.6639 L178.389 15.5581 Z" fill="#000000" fill-rule="evenodd" fill-opacity="1" /></svg>
