<?xml version="1.0" encoding="utf-8"?>
<svg xmlns="http://www.w3.org/2000/svg" xmlns:xlink="http://www.w3.org/1999/xlink" width="50" height="62.5" viewBox="0 0 200 250">
<defs>
  <clipPath id="clip050">
    <rect x="0" y="0" width="200" height="250"/>
  </clipPath>
</defs>
<path clip-path="url(#clip050)" d="
M0 250 L200 250 L200 0 L0 0  Z
  " fill="#ffffff" fill-rule="evenodd" fill-opacity="1"/>
<defs>
  <clipPath id="clip051">
    <rect x="50" y="25" width="176" height="176"/>
  </clipPath>
</defs>
<path clip-path="url(#clip050)" d="
M17.748 231.752 L188.189 231.752 L188.189 15.748 L17.748 15.748  Z
  " fill="#ffffff" fill-rule="evenodd" fill-opacity="1"/>
<defs>
  <clipPath id="clip052">
    <rect x="17" y="15" width="171" height="217"/>
  </clipPath>
</defs>
<polyline clip-path="url(#clip050)" style="stroke:#000000; stroke-width:1; stroke-opacity:1; fill:none" points="
  17.748,231.752 188.189,231.752 
  "/>
<polyline clip-path="url(#clip050)" style="stroke:#000000; stroke-width:1; stroke-opacity:1; fill:none" points="
  34.7921,231.752 34.7921,229.16 
  "/>
<polyline clip-path="url(#clip050)" style="stroke:#000000; stroke-width:1; stroke-opacity:1; fill:none" points="
  68.8803,231.752 68.8803,229.16 
  "/>
<polyline clip-path="url(#clip050)" style="stroke:#000000; stroke-width:1; stroke-opacity:1; fill:none" points="
  102.969,231.752 102.969,229.16 
  "/>
<polyline clip-path="url(#clip050)" style="stroke:#000000; stroke-width:1; stroke-opacity:1; fill:none" points="
  137.057,231.752 137.057,229.16 
  "/>
<polyline clip-path="url(#clip050)" style="stroke:#000000; stroke-width:1; stroke-opacity:1; fill:none" points="
  171.145,231.752 171.145,229.16 
  "/>
<path clip-path="url(#clip050)" d="M 0 0 M27.9056 239.913 L35.3245 239.913 L35.3245 240.897 L27.9056 240.897 L27.9056 239.913 Z" fill="#000000" fill-rule="evenodd" fill-opacity="1" /><path clip-path="url(#clip050)" d="M 0 0 M37.5988 243.136 L41.6787 243.136 L41.6787 244.12 L36.1926 244.12 L36.1926 243.136 Q36.8581 242.448 38.0039 241.29 Q39.1555 240.127 39.4507 239.791 Q40.012 239.161 40.2319 238.726 Q40.4576 238.287 40.4576 237.864 Q40.4576 237.176 39.9715 236.742 Q39.4912 236.308 38.7157 236.308 Q38.166 236.308 37.5525 236.498 Q36.9449 236.689 36.2505 237.077 L36.2505 235.897 Q36.9565 235.613 37.5699 235.468 Q38.1833 235.324 38.6926 235.324 Q40.0352 235.324 40.8338 235.995 Q41.6324 236.666 41.6324 237.789 Q41.6324 238.321 41.4298 238.802 Q41.2331 239.276 40.7064 239.924 Q40.5618 240.092 39.7863 240.897 Q39.0109 241.695 37.5988 243.136 Z" fill="#000000" fill-rule="evenodd" fill-opacity="1" /><path clip-path="url(#clip050)" d="M 0 0 M61.9475 239.913 L69.3664 239.913 L69.3664 240.897 L61.9475 240.897 L61.9475 239.913 Z" fill="#000000" fill-rule="evenodd" fill-opacity="1" /><path clip-path="url(#clip050)" d="M 0 0 M70.8363 243.136 L72.746 243.136 L72.746 236.545 L70.6685 236.961 L70.6685 235.897 L72.7345 235.48 L73.9034 235.48 L73.9034 243.136 L75.8131 243.136 L75.8131 244.12 L70.8363 244.12 L70.8363 243.136 Z" fill="#000000" fill-rule="evenodd" fill-opacity="1" /><path clip-path="url(#clip050)" d="M 0 0 M102.969 236.25 Q102.066 236.25 101.609 237.141 Q101.157 238.026 101.157 239.809 Q101.157 241.585 101.609 242.476 Q102.066 243.362 102.969 243.362 Q103.877 243.362 104.328 242.476 Q104.786 241.585 104.786 239.809 Q104.786 238.026 104.328 237.141 Q103.877 236.25 102.969 236.25 M102.969 235.324 Q104.421 235.324 105.185 236.475 Q105.955 237.621 105.955 239.809 Q105.955 241.99 105.185 243.142 Q104.421 244.288 102.969 244.288 Q101.516 244.288 100.746 243.142 Q99.9824 241.99 99.9824 239.809 Q99.9824 237.621 100.746 236.475 Q101.516 235.324 102.969 235.324 Z" fill="#000000" fill-rule="evenodd" fill-opacity="1" /><path clip-path="url(#clip050)" d="M 0 0 M134.652 243.136 L136.562 243.136 L136.562 236.545 L134.484 236.961 L134.484 235.897 L136.55 235.48 L137.719 235.48 L137.719 243.136 L139.629 243.136 L139.629 244.12 L134.652 244.12 L134.652 243.136 Z" fill="#000000" fill-rule="evenodd" fill-opacity="1" /><path clip-path="url(#clip050)" d="M 0 0 M169.808 243.136 L173.888 243.136 L173.888 244.12 L168.402 244.12 L168.402 243.136 Q169.067 242.448 170.213 241.29 Q171.365 240.127 171.66 239.791 Q172.221 239.161 172.441 238.726 Q172.667 238.287 172.667 237.864 Q172.667 237.176 172.181 236.742 Q171.7 236.308 170.925 236.308 Q170.375 236.308 169.762 236.498 Q169.154 236.689 168.46 237.077 L168.46 235.897 Q169.166 235.613 169.779 235.468 Q170.393 235.324 170.902 235.324 Q172.244 235.324 173.043 235.995 Q173.842 236.666 173.842 237.789 Q173.842 238.321 173.639 238.802 Q173.442 239.276 172.916 239.924 Q172.771 240.092 171.996 240.897 Q171.22 241.695 169.808 243.136 Z" fill="#000000" fill-rule="evenodd" fill-opacity="1" /><polyline clip-path="url(#clip050)" style="stroke:#000000; stroke-width:1; stroke-opacity:1; fill:none" points="
  17.748,231.752 17.748,15.748 
  "/>
<polyline clip-path="url(#clip050)" style="stroke:#000000; stroke-width:1; stroke-opacity:1; fill:none" points="
  17.748,210.152 19.7933,210.152 
  "/>
<polyline clip-path="url(#clip050)" style="stroke:#000000; stroke-width:1; stroke-opacity:1; fill:none" points="
  17.748,166.951 19.7933,166.951 
  "/>
<polyline clip-path="url(#clip050)" style="stroke:#000000; stroke-width:1; stroke-opacity:1; fill:none" points="
  17.748,123.75 19.7933,123.75 
  "/>
<polyline clip-path="url(#clip050)" style="stroke:#000000; stroke-width:1; stroke-opacity:1; fill:none" points="
  17.748,80.5492 19.7933,80.5492 
  "/>
<polyline clip-path="url(#clip050)" style="stroke:#000000; stroke-width:1; stroke-opacity:1; fill:none" points="
  17.748,37.3484 19.7933,37.3484 
  "/>
<path clip-path="url(#clip050)" d="M 0 0 M0.224957 210.264 L7.6439 210.264 L7.6439 211.248 L0.224957 211.248 L0.224957 210.264 Z" fill="#000000" fill-rule="evenodd" fill-opacity="1" /><path clip-path="url(#clip050)" d="M 0 0 M9.91819 213.488 L13.998 213.488 L13.998 214.472 L8.51195 214.472 L8.51195 213.488 Q9.17746 212.799 10.3233 211.642 Q11.4749 210.479 11.77 210.143 Q12.3314 209.512 12.5513 209.078 Q12.777 208.638 12.777 208.216 Q12.777 207.527 12.2909 207.093 Q11.8105 206.659 11.0351 206.659 Q10.4853 206.659 9.8719 206.85 Q9.26426 207.041 8.56982 207.429 L8.56982 206.248 Q9.27583 205.965 9.88926 205.82 Q10.5027 205.675 11.0119 205.675 Q12.3545 205.675 13.1531 206.347 Q13.9517 207.018 13.9517 208.141 Q13.9517 208.673 13.7492 209.153 Q13.5524 209.628 13.0258 210.276 Q12.8811 210.444 12.1057 211.248 Q11.3302 212.047 9.91819 213.488 Z" fill="#000000" fill-rule="evenodd" fill-opacity="1" /><path clip-path="url(#clip050)" d="M 0 0 M0.132365 167.064 L7.55131 167.064 L7.55131 168.047 L0.132365 168.047 L0.132365 167.064 Z" fill="#000000" fill-rule="evenodd" fill-opacity="1" /><path clip-path="url(#clip050)" d="M 0 0 M9.02121 170.287 L10.9309 170.287 L10.9309 163.696 L8.85338 164.112 L8.85338 163.047 L10.9193 162.631 L12.0883 162.631 L12.0883 170.287 L13.998 170.287 L13.998 171.271 L9.02121 171.271 L9.02121 170.287 Z" fill="#000000" fill-rule="evenodd" fill-opacity="1" /><path clip-path="url(#clip050)" d="M 0 0 M11.0119 120.2 Q10.1092 120.2 9.65199 121.091 Q9.2006 121.976 9.2006 123.759 Q9.2006 125.535 9.65199 126.426 Q10.1092 127.312 11.0119 127.312 Q11.9205 127.312 12.3719 126.426 Q12.8291 125.535 12.8291 123.759 Q12.8291 121.976 12.3719 121.091 Q11.9205 120.2 11.0119 120.2 M11.0119 119.274 Q12.4645 119.274 13.2284 120.425 Q13.998 121.571 13.998 123.759 Q13.998 125.94 13.2284 127.092 Q12.4645 128.238 11.0119 128.238 Q9.5594 128.238 8.78973 127.092 Q8.02584 125.94 8.02584 123.759 Q8.02584 121.571 8.78973 120.425 Q9.5594 119.274 11.0119 119.274 Z" fill="#000000" fill-rule="evenodd" fill-opacity="1" /><path clip-path="url(#clip050)" d="M 0 0 M9.02121 83.8854 L10.9309 83.8854 L10.9309 77.294 L8.85338 77.7107 L8.85338 76.6459 L10.9193 76.2292 L12.0883 76.2292 L12.0883 83.8854 L13.998 83.8854 L13.998 84.8692 L9.02121 84.8692 L9.02121 83.8854 Z" fill="#000000" fill-rule="evenodd" fill-opacity="1" /><path clip-path="url(#clip050)" d="M 0 0 M9.91819 40.6846 L13.998 40.6846 L13.998 41.6684 L8.51195 41.6684 L8.51195 40.6846 Q9.17746 39.996 10.3233 38.8386 Q11.4749 37.6754 11.77 37.3397 Q12.3314 36.709 12.5513 36.2749 Q12.777 35.8351 12.777 35.4127 Q12.777 34.724 12.2909 34.29 Q11.8105 33.856 11.0351 33.856 Q10.4853 33.856 9.8719 34.0469 Q9.26426 34.2379 8.56982 34.6256 L8.56982 33.4451 Q9.27583 33.1615 9.88926 33.0169 Q10.5027 32.8722 11.0119 32.8722 Q12.3545 32.8722 13.1531 33.5435 Q13.9517 34.2148 13.9517 35.3374 Q13.9517 35.8698 13.7492 36.3502 Q13.5524 36.8247 13.0258 37.4728 Q12.8811 37.6407 12.1057 38.4451 Q11.3302 39.2437 9.91819 40.6846 Z" fill="#000000" fill-rule="evenodd" fill-opacity="1" /><path clip-path="url(#clip050)" d="M 0 0 M87.7053 5.58215 Q86.9182 5.58215 86.4553 6.12034 Q85.9981 6.65853 85.9981 7.59602 Q85.9981 8.52773 86.4553 9.07171 Q86.9182 9.6099 87.7053 9.6099 Q88.4923 9.6099 88.9495 9.07171 Q89.4124 8.52773 89.4124 7.59602 Q89.4124 6.65853 88.9495 6.12034 Q88.4923 5.58215 87.7053 5.58215 M90.0259 1.91897 L90.0259 2.98378 Q89.5861 2.77545 89.1347 2.66549 Q88.6891 2.55554 88.2493 2.55554 Q87.0919 2.55554 86.4784 3.33679 Q85.8708 4.11803 85.784 5.69789 Q86.1254 5.19442 86.6405 4.92821 Q87.1555 4.65623 87.7747 4.65623 Q89.0768 4.65623 89.8291 5.44904 Q90.5872 6.23608 90.5872 7.59602 Q90.5872 8.92704 89.8002 9.73143 Q89.0131 10.5358 87.7053 10.5358 Q86.2064 10.5358 85.4136 9.39 Q84.6208 8.23838 84.6208 6.05668 Q84.6208 4.00808 85.593 2.79281 Q86.5652 1.57175 88.203 1.57175 Q88.6428 1.57175 89.0884 1.65856 Q89.5398 1.74536 90.0259 1.91897 Z" fill="#000000" fill-rule="evenodd" fill-opacity="1" /><path clip-path="url(#clip050)" d="M 0 0 M91.1659 6.64696 L94.2851 6.64696 L94.2851 7.59602 L91.1659 7.59602 L91.1659 6.64696 Z" fill="#000000" fill-rule="evenodd" fill-opacity="1" /><path clip-path="url(#clip050)" d="M 0 0 M95.3036 1.36342 L97.7573 1.36342 L97.7573 2.19096 L96.3684 2.19096 L96.3684 11.1029 L97.7573 11.1029 L97.7573 11.9305 L95.3036 11.9305 L95.3036 1.36342 Z" fill="#000000" fill-rule="evenodd" fill-opacity="1" /><path clip-path="url(#clip050)" d="M 0 0 M101.525 2.49767 Q100.622 2.49767 100.165 3.38887 Q99.7133 4.27428 99.7133 6.05668 Q99.7133 7.83329 100.165 8.72449 Q100.622 9.6099 101.525 9.6099 Q102.433 9.6099 102.885 8.72449 Q103.342 7.83329 103.342 6.05668 Q103.342 4.27428 102.885 3.38887 Q102.433 2.49767 101.525 2.49767 M101.525 1.57175 Q102.977 1.57175 103.741 2.72337 Q104.511 3.86919 104.511 6.05668 Q104.511 8.23838 103.741 9.39 Q102.977 10.5358 101.525 10.5358 Q100.072 10.5358 99.3024 9.39 Q98.5386 8.23838 98.5386 6.05668 Q98.5386 3.86919 99.3024 2.72337 Q100.072 1.57175 101.525 1.57175 Z" fill="#000000" fill-rule="evenodd" fill-opacity="1" /><path clip-path="url(#clip050)" d="M 0 0 M108.278 2.49767 Q107.375 2.49767 106.918 3.38887 Q106.467 4.27428 106.467 6.05668 Q106.467 7.83329 106.918 8.72449 Q107.375 9.6099 108.278 9.6099 Q109.187 9.6099 109.638 8.72449 Q110.095 7.83329 110.095 6.05668 Q110.095 4.27428 109.638 3.38887 Q109.187 2.49767 108.278 2.49767 M108.278 1.57175 Q109.731 1.57175 110.495 2.72337 Q111.264 3.86919 111.264 6.05668 Q111.264 8.23838 110.495 9.39 Q109.731 10.5358 108.278 10.5358 Q106.826 10.5358 106.056 9.39 Q105.292 8.23838 105.292 6.05668 Q105.292 3.86919 106.056 2.72337 Q106.826 1.57175 108.278 1.57175 Z" fill="#000000" fill-rule="evenodd" fill-opacity="1" /><path clip-path="url(#clip050)" d="M 0 0 M112.734 9.38421 L114.644 9.38421 L114.644 2.79281 L112.566 3.20947 L112.566 2.14466 L114.632 1.728 L115.801 1.728 L115.801 9.38421 L117.711 9.38421 L117.711 10.368 L112.734 10.368 L112.734 9.38421 Z" fill="#000000" fill-rule="evenodd" fill-opacity="1" /><path clip-path="url(#clip050)" d="M 0 0 M121.316 1.36342 L121.316 11.9305 L118.863 11.9305 L118.863 11.1029 L120.246 11.1029 L120.246 2.19096 L118.863 2.19096 L118.863 1.36342 L121.316 1.36342 Z" fill="#000000" fill-rule="evenodd" fill-opacity="1" /><circle clip-path="url(#clip052)" cx="34.7921" cy="223.518" r="3" fill="#0000ff" fill-rule="evenodd" fill-opacity="1" stroke="none"/>
<path clip-path="url(#clip050)" d="M 0 0 M35.8468 220.836 L38.9067 220.836 L38.9067 221.574 L34.7921 221.574 L34.7921 220.836 Q35.2913 220.32 36.1506 219.452 Q37.0143 218.579 37.2357 218.327 Q37.6567 217.854 37.8216 217.529 Q37.9909 217.199 37.9909 216.882 Q37.9909 216.366 37.6263 216.04 Q37.2661 215.715 36.6845 215.715 Q36.2722 215.715 35.8121 215.858 Q35.3564 216.001 34.8355 216.292 L34.8355 215.406 Q35.365 215.194 35.8251 215.085 Q36.2852 214.977 36.6671 214.977 Q37.6741 214.977 38.273 215.48 Q38.872 215.984 38.872 216.826 Q38.872 217.225 38.7201 217.585 Q38.5725 217.941 38.1775 218.427 Q38.069 218.553 37.4874 219.156 Q36.9058 219.755 35.8468 220.836 Z" fill="#000000" fill-rule="evenodd" fill-opacity="1" /><path clip-path="url(#clip050)" d="M 0 0 M42.266 215.858 L40.0525 219.317 L42.266 219.317 L42.266 215.858 M42.036 215.094 L43.1384 215.094 L43.1384 219.317 L44.0629 219.317 L44.0629 220.046 L43.1384 220.046 L43.1384 221.574 L42.266 221.574 L42.266 220.046 L39.3407 220.046 L39.3407 219.2 L42.036 215.094 Z" fill="#000000" fill-rule="evenodd" fill-opacity="1" /><circle clip-path="url(#clip052)" cx="17.748" cy="211.047" r="3" fill="#0000ff" fill-rule="evenodd" fill-opacity="1" stroke="none"/>
<circle clip-path="url(#clip052)" cx="102.969" cy="148.692" r="3" fill="#0000ff" fill-rule="evenodd" fill-opacity="1" stroke="none"/>
<circle clip-path="url(#clip052)" cx="34.7921" cy="98.808" r="3" fill="#0000ff" fill-rule="evenodd" fill-opacity="1" stroke="none"/>
<circle clip-path="url(#clip052)" cx="17.748" cy="111.279" r="3" fill="#0000ff" fill-rule="evenodd" fill-opacity="1" stroke="none"/>
<circle clip-path="url(#clip052)" cx="51.8362" cy="136.221" r="3" fill="#0000ff" fill-rule="evenodd" fill-opacity="1" stroke="none"/>
<circle clip-path="url(#clip052)" cx="34.7921" cy="148.692" r="3" fill="#0000ff" fill-rule="evenodd" fill-opacity="1" stroke="none"/>
<circle clip-path="url(#clip052)" cx="68.8803" cy="173.634" r="3" fill="#0000ff" fill-rule="evenodd" fill-opacity="1" stroke="none"/>
<circle clip-path="url(#clip052)" cx="51.8362" cy="186.105" r="3" fill="#0000ff" fill-rule="evenodd" fill-opacity="1" stroke="none"/>
<circle clip-path="url(#clip052)" cx="85.9244" cy="211.047" r="3" fill="#0000ff" fill-rule="evenodd" fill-opacity="1" stroke="none"/>
<circle clip-path="url(#clip052)" cx="68.8803" cy="223.518" r="3" fill="#0000ff" fill-rule="evenodd" fill-opacity="1" stroke="none"/>
<circle clip-path="url(#clip052)" cx="85.9244" cy="111.279" r="3" fill="#0000ff" fill-rule="evenodd" fill-opacity="1" stroke="none"/>
<circle clip-path="url(#clip052)" cx="51.8362" cy="111.279" r="3" fill="#0000ff" fill-rule="evenodd" fill-opacity="1" stroke="none"/>
<circle clip-path="url(#clip052)" cx="85.9244" cy="136.221" r="3" fill="#0000ff" fill-rule="evenodd" fill-opacity="1" stroke="none"/>
<circle clip-path="url(#clip052)" cx="68.8803" cy="148.692" r="3" fill="#0000ff" fill-rule="evenodd" fill-opacity="1" stroke="none"/>
<circle clip-path="url(#clip052)" cx="102.969" cy="173.634" r="3" fill="#0000ff" fill-rule="evenodd" fill-opacity="1" stroke="none"/>
<circle clip-path="url(#clip052)" cx="85.9244" cy="186.105" r="3" fill="#0000ff" fill-rule="evenodd" fill-opacity="1" stroke="none"/>
<circle clip-path="url(#clip052)" cx="17.748" cy="136.221" r="3" fill="#0000ff" fill-rule="evenodd" fill-opacity="1" stroke="none"/>
<circle clip-path="url(#clip052)" cx="102.969" cy="223.518" r="3" fill="#0000ff" fill-rule="evenodd" fill-opacity="1" stroke="none"/>
<circle clip-path="url(#clip052)" cx="34.7921" cy="173.634" r="3" fill="#0000ff" fill-rule="evenodd" fill-opacity="1" stroke="none"/>
<circle clip-path="url(#clip052)" cx="17.748" cy="186.105" r="3" fill="#0000ff" fill-rule="evenodd" fill-opacity="1" stroke="none"/>
<circle clip-path="url(#clip052)" cx="51.8362" cy="211.047" r="3" fill="#0000ff" fill-rule="evenodd" fill-opacity="1" stroke="none"/>
<circle clip-path="url(#clip052)" cx="34.7921" cy="73.866" r="3" fill="#0000ff" fill-rule="evenodd" fill-opacity="1" stroke="none"/>
<path clip-path="url(#clip050)" d="M 0 0 M17.8739 208.365 L19.3062 208.365 L19.3062 203.422 L17.748 203.734 L17.748 202.935 L19.2975 202.623 L20.1742 202.623 L20.1742 208.365 L21.6065 208.365 L21.6065 209.103 L17.8739 209.103 L17.8739 208.365 Z" fill="#000000" fill-rule="evenodd" fill-opacity="1" /><path clip-path="url(#clip050)" d="M 0 0 M104.023 146.01 L107.083 146.01 L107.083 146.748 L102.969 146.748 L102.969 146.01 Q103.468 145.494 104.327 144.626 Q105.191 143.753 105.412 143.501 Q105.833 143.028 105.998 142.703 Q106.167 142.373 106.167 142.056 Q106.167 141.54 105.803 141.214 Q105.442 140.889 104.861 140.889 Q104.449 140.889 103.988 141.032 Q103.533 141.175 103.012 141.466 L103.012 140.58 Q103.541 140.368 104.001 140.259 Q104.462 140.151 104.843 140.151 Q105.85 140.151 106.449 140.654 Q107.048 141.158 107.048 142 Q107.048 142.399 106.896 142.759 Q106.749 143.115 106.354 143.601 Q106.245 143.727 105.664 144.33 Q105.082 144.929 104.023 146.01 Z" fill="#000000" fill-rule="evenodd" fill-opacity="1" /><path clip-path="url(#clip050)" d="M 0 0 M37.7218 93.3701 Q38.3511 93.5047 38.7027 93.93 Q39.0586 94.3553 39.0586 94.9803 Q39.0586 95.9395 38.3989 96.4647 Q37.7392 96.9899 36.5239 96.9899 Q36.1159 96.9899 35.6819 96.9074 Q35.2522 96.8293 34.7921 96.6687 L34.7921 95.8224 Q35.1567 96.035 35.5907 96.1435 Q36.0248 96.252 36.4978 96.252 Q37.3225 96.252 37.7522 95.9265 Q38.1862 95.601 38.1862 94.9803 Q38.1862 94.4074 37.7826 94.0863 Q37.3833 93.7607 36.6671 93.7607 L35.9119 93.7607 L35.9119 93.0402 L36.7018 93.0402 Q37.3485 93.0402 37.6914 92.7842 Q38.0343 92.5238 38.0343 92.0377 Q38.0343 91.5385 37.6784 91.2738 Q37.3268 91.0047 36.6671 91.0047 Q36.3069 91.0047 35.8946 91.0828 Q35.4822 91.1609 34.9874 91.3258 L34.9874 90.5446 Q35.4866 90.4057 35.9206 90.3363 Q36.359 90.2668 36.7452 90.2668 Q37.7435 90.2668 38.3251 90.7226 Q38.9067 91.1739 38.9067 91.9465 Q38.9067 92.4847 38.5985 92.858 Q38.2904 93.2269 37.7218 93.3701 Z" fill="#000000" fill-rule="evenodd" fill-opacity="1" /><path clip-path="url(#clip050)" d="M 0 0 M20.6734 103.619 L18.4598 107.078 L20.6734 107.078 L20.6734 103.619 M20.4433 102.855 L21.5458 102.855 L21.5458 107.078 L22.4702 107.078 L22.4702 107.807 L21.5458 107.807 L21.5458 109.335 L20.6734 109.335 L20.6734 107.807 L17.748 107.807 L17.748 106.961 L20.4433 102.855 Z" fill="#000000" fill-rule="evenodd" fill-opacity="1" /><path clip-path="url(#clip050)" d="M 0 0 M52.1097 127.797 L55.5515 127.797 L55.5515 128.535 L52.9126 128.535 L52.9126 130.123 Q53.1036 130.058 53.2945 130.028 Q53.4855 129.993 53.6765 129.993 Q54.7616 129.993 55.3952 130.588 Q56.0289 131.182 56.0289 132.198 Q56.0289 133.244 55.3779 133.826 Q54.7268 134.403 53.5419 134.403 Q53.134 134.403 52.7086 134.333 Q52.2876 134.264 51.8362 134.125 L51.8362 133.244 Q52.2268 133.457 52.6435 133.561 Q53.0602 133.665 53.5246 133.665 Q54.2754 133.665 54.7138 133.27 Q55.1522 132.875 55.1522 132.198 Q55.1522 131.521 54.7138 131.126 Q54.2754 130.731 53.5246 130.731 Q53.173 130.731 52.8215 130.809 Q52.4742 130.887 52.1097 131.052 L52.1097 127.797 Z" fill="#000000" fill-rule="evenodd" fill-opacity="1" /><path clip-path="url(#clip050)" d="M 0 0 M37.1055 143.159 Q36.5152 143.159 36.168 143.562 Q35.8251 143.966 35.8251 144.669 Q35.8251 145.368 36.168 145.776 Q36.5152 146.179 37.1055 146.179 Q37.6958 146.179 38.0386 145.776 Q38.3859 145.368 38.3859 144.669 Q38.3859 143.966 38.0386 143.562 Q37.6958 143.159 37.1055 143.159 M38.8459 140.411 L38.8459 141.21 Q38.5161 141.054 38.1775 140.971 Q37.8433 140.889 37.5135 140.889 Q36.6454 140.889 36.1853 141.475 Q35.7296 142.061 35.6645 143.245 Q35.9206 142.868 36.3069 142.668 Q36.6932 142.464 37.1576 142.464 Q38.1341 142.464 38.6984 143.059 Q39.2669 143.649 39.2669 144.669 Q39.2669 145.667 38.6767 146.271 Q38.0864 146.874 37.1055 146.874 Q35.9814 146.874 35.3867 146.014 Q34.7921 145.151 34.7921 143.514 Q34.7921 141.978 35.5213 141.067 Q36.2505 140.151 37.4787 140.151 Q37.8086 140.151 38.1428 140.216 Q38.4813 140.281 38.8459 140.411 Z" fill="#000000" fill-rule="evenodd" fill-opacity="1" /><path clip-path="url(#clip050)" d="M 0 0 M68.8803 165.21 L73.047 165.21 L73.047 165.583 L70.6945 171.69 L69.7787 171.69 L71.9923 165.948 L68.8803 165.948 L68.8803 165.21 Z" fill="#000000" fill-rule="evenodd" fill-opacity="1" /><path clip-path="url(#clip050)" d="M 0 0 M54.0584 181.084 Q53.4334 181.084 53.0732 181.418 Q52.7173 181.752 52.7173 182.338 Q52.7173 182.924 53.0732 183.258 Q53.4334 183.592 54.0584 183.592 Q54.6834 183.592 55.0437 183.258 Q55.4039 182.92 55.4039 182.338 Q55.4039 181.752 55.0437 181.418 Q54.6878 181.084 54.0584 181.084 M53.1817 180.71 Q52.6175 180.572 52.3006 180.185 Q51.9881 179.799 51.9881 179.243 Q51.9881 178.467 52.5393 178.015 Q53.0949 177.564 54.0584 177.564 Q55.0263 177.564 55.5775 178.015 Q56.1287 178.467 56.1287 179.243 Q56.1287 179.799 55.8119 180.185 Q55.4994 180.572 54.9395 180.71 Q55.5732 180.858 55.9247 181.288 Q56.2806 181.717 56.2806 182.338 Q56.2806 183.28 55.7034 183.783 Q55.1305 184.287 54.0584 184.287 Q52.9864 184.287 52.4091 183.783 Q51.8362 183.28 51.8362 182.338 Q51.8362 181.717 52.1921 181.288 Q52.548 180.858 53.1817 180.71 M52.8605 179.326 Q52.8605 179.829 53.173 180.112 Q53.4899 180.394 54.0584 180.394 Q54.6227 180.394 54.9395 180.112 Q55.2607 179.829 55.2607 179.326 Q55.2607 178.822 54.9395 178.54 Q54.6227 178.258 54.0584 178.258 Q53.4899 178.258 53.173 178.54 Q52.8605 178.822 52.8605 179.326 Z" fill="#000000" fill-rule="evenodd" fill-opacity="1" /><path clip-path="url(#clip050)" d="M 0 0 M86.3411 208.968 L86.3411 208.17 Q86.6709 208.326 87.0095 208.409 Q87.348 208.491 87.6735 208.491 Q88.5416 208.491 88.9973 207.909 Q89.4574 207.323 89.5225 206.134 Q89.2707 206.507 88.8845 206.707 Q88.4982 206.907 88.0294 206.907 Q87.0572 206.907 86.4886 206.321 Q85.9244 205.731 85.9244 204.711 Q85.9244 203.712 86.5147 203.109 Q87.105 202.506 88.0859 202.506 Q89.21 202.506 89.8003 203.369 Q90.3949 204.229 90.3949 205.869 Q90.3949 207.402 89.6657 208.317 Q88.9409 209.229 87.7126 209.229 Q87.3827 209.229 87.0442 209.164 Q86.7057 209.099 86.3411 208.968 M88.0859 206.221 Q88.6761 206.221 89.019 205.817 Q89.3662 205.414 89.3662 204.711 Q89.3662 204.012 89.019 203.608 Q88.6761 203.2 88.0859 203.2 Q87.4956 203.2 87.1484 203.608 Q86.8055 204.012 86.8055 204.711 Q86.8055 205.414 87.1484 205.817 Q87.4956 206.221 88.0859 206.221 Z" fill="#000000" fill-rule="evenodd" fill-opacity="1" /><path clip-path="url(#clip050)" d="M 0 0 M69.0062 220.836 L70.4385 220.836 L70.4385 215.893 L68.8803 216.205 L68.8803 215.406 L70.4298 215.094 L71.3065 215.094 L71.3065 220.836 L72.7388 220.836 L72.7388 221.574 L69.0062 221.574 L69.0062 220.836 Z" fill="#000000" fill-rule="evenodd" fill-opacity="1" /><path clip-path="url(#clip050)" d="M 0 0 M75.5643 215.671 Q74.8872 215.671 74.5443 216.34 Q74.2058 217.004 74.2058 218.34 Q74.2058 219.673 74.5443 220.341 Q74.8872 221.005 75.5643 221.005 Q76.2457 221.005 76.5843 220.341 Q76.9271 219.673 76.9271 218.34 Q76.9271 217.004 76.5843 216.34 Q76.2457 215.671 75.5643 215.671 M75.5643 214.977 Q76.6537 214.977 77.2266 215.84 Q77.8039 216.7 77.8039 218.34 Q77.8039 219.977 77.2266 220.84 Q76.6537 221.7 75.5643 221.7 Q74.4749 221.7 73.8976 220.84 Q73.3247 219.977 73.3247 218.34 Q73.3247 216.7 73.8976 215.84 Q74.4749 214.977 75.5643 214.977 Z" fill="#000000" fill-rule="evenodd" fill-opacity="1" /><path clip-path="url(#clip050)" d="M 0 0 M86.0503 108.597 L87.4826 108.597 L87.4826 103.654 L85.9244 103.966 L85.9244 103.168 L87.4739 102.855 L88.3506 102.855 L88.3506 108.597 L89.7829 108.597 L89.7829 109.335 L86.0503 109.335 L86.0503 108.597 Z" fill="#000000" fill-rule="evenodd" fill-opacity="1" /><path clip-path="url(#clip050)" d="M 0 0 M91.4886 108.597 L94.5485 108.597 L94.5485 109.335 L90.4339 109.335 L90.4339 108.597 Q90.9331 108.081 91.7924 107.213 Q92.6561 106.34 92.8775 106.088 Q93.2985 105.615 93.4634 105.29 Q93.6327 104.96 93.6327 104.643 Q93.6327 104.127 93.2681 103.801 Q92.9079 103.476 92.3263 103.476 Q91.914 103.476 91.4539 103.619 Q90.9982 103.762 90.4773 104.053 L90.4773 103.168 Q91.0068 102.955 91.4669 102.846 Q91.927 102.738 92.3089 102.738 Q93.3159 102.738 93.9148 103.241 Q94.5138 103.745 94.5138 104.587 Q94.5138 104.986 94.3619 105.346 Q94.2143 105.702 93.8193 106.188 Q93.7108 106.314 93.1292 106.917 Q92.5476 107.516 91.4886 108.597 Z" fill="#000000" fill-rule="evenodd" fill-opacity="1" /><path clip-path="url(#clip050)" d="M 0 0 M51.9621 108.597 L53.3944 108.597 L53.3944 103.654 L51.8362 103.966 L51.8362 103.168 L53.3857 102.855 L54.2624 102.855 L54.2624 108.597 L55.6947 108.597 L55.6947 109.335 L51.9621 109.335 L51.9621 108.597 Z" fill="#000000" fill-rule="evenodd" fill-opacity="1" /><path clip-path="url(#clip050)" d="M 0 0 M59.0541 103.619 L56.8405 107.078 L59.0541 107.078 L59.0541 103.619 M58.824 102.855 L59.9265 102.855 L59.9265 107.078 L60.8509 107.078 L60.8509 107.807 L59.9265 107.807 L59.9265 109.335 L59.0541 109.335 L59.0541 107.807 L56.1287 107.807 L56.1287 106.961 L58.824 102.855 Z" fill="#000000" fill-rule="evenodd" fill-opacity="1" /><path clip-path="url(#clip050)" d="M 0 0 M86.0503 133.539 L87.4826 133.539 L87.4826 128.596 L85.9244 128.908 L85.9244 128.109 L87.4739 127.797 L88.3506 127.797 L88.3506 133.539 L89.7829 133.539 L89.7829 134.277 L86.0503 134.277 L86.0503 133.539 Z" fill="#000000" fill-rule="evenodd" fill-opacity="1" /><path clip-path="url(#clip050)" d="M 0 0 M90.7421 127.797 L94.1839 127.797 L94.1839 128.535 L91.545 128.535 L91.545 130.123 Q91.736 130.058 91.927 130.028 Q92.118 129.993 92.3089 129.993 Q93.394 129.993 94.0277 130.588 Q94.6613 131.182 94.6613 132.198 Q94.6613 133.244 94.0103 133.826 Q93.3593 134.403 92.1744 134.403 Q91.7664 134.403 91.341 134.333 Q90.92 134.264 90.4687 134.125 L90.4687 133.244 Q90.8593 133.457 91.2759 133.561 Q91.6926 133.665 92.157 133.665 Q92.9079 133.665 93.3462 133.27 Q93.7846 132.875 93.7846 132.198 Q93.7846 131.521 93.3462 131.126 Q92.9079 130.731 92.157 130.731 Q91.8055 130.731 91.4539 130.809 Q91.1067 130.887 90.7421 131.052 L90.7421 127.797 Z" fill="#000000" fill-rule="evenodd" fill-opacity="1" /><path clip-path="url(#clip050)" d="M 0 0 M69.0062 146.01 L70.4385 146.01 L70.4385 141.067 L68.8803 141.379 L68.8803 140.58 L70.4298 140.268 L71.3065 140.268 L71.3065 146.01 L72.7388 146.01 L72.7388 146.748 L69.0062 146.748 L69.0062 146.01 Z" fill="#000000" fill-rule="evenodd" fill-opacity="1" /><path clip-path="url(#clip050)" d="M 0 0 M75.6728 143.159 Q75.0825 143.159 74.7353 143.562 Q74.3924 143.966 74.3924 144.669 Q74.3924 145.368 74.7353 145.776 Q75.0825 146.179 75.6728 146.179 Q76.2631 146.179 76.606 145.776 Q76.9532 145.368 76.9532 144.669 Q76.9532 143.966 76.606 143.562 Q76.2631 143.159 75.6728 143.159 M77.4133 140.411 L77.4133 141.21 Q77.0834 141.054 76.7449 140.971 Q76.4107 140.889 76.0808 140.889 Q75.2127 140.889 74.7527 141.475 Q74.297 142.061 74.2318 143.245 Q74.4879 142.868 74.8742 142.668 Q75.2605 142.464 75.7249 142.464 Q76.7015 142.464 77.2657 143.059 Q77.8343 143.649 77.8343 144.669 Q77.8343 145.667 77.244 146.271 Q76.6537 146.874 75.6728 146.874 Q74.5487 146.874 73.9541 146.014 Q73.3595 145.151 73.3595 143.514 Q73.3595 141.978 74.0886 141.067 Q74.8178 140.151 76.0461 140.151 Q76.3759 140.151 76.7101 140.216 Q77.0487 140.281 77.4133 140.411 Z" fill="#000000" fill-rule="evenodd" fill-opacity="1" /><path clip-path="url(#clip050)" d="M 0 0 M103.094 170.952 L104.527 170.952 L104.527 166.009 L102.969 166.321 L102.969 165.522 L104.518 165.21 L105.395 165.21 L105.395 170.952 L106.827 170.952 L106.827 171.69 L103.094 171.69 L103.094 170.952 Z" fill="#000000" fill-rule="evenodd" fill-opacity="1" /><path clip-path="url(#clip050)" d="M 0 0 M107.556 165.21 L111.723 165.21 L111.723 165.583 L109.37 171.69 L108.455 171.69 L110.668 165.948 L107.556 165.948 L107.556 165.21 Z" fill="#000000" fill-rule="evenodd" fill-opacity="1" /><path clip-path="url(#clip050)" d="M 0 0 M86.0503 183.423 L87.4826 183.423 L87.4826 178.48 L85.9244 178.792 L85.9244 177.993 L87.4739 177.681 L88.3506 177.681 L88.3506 183.423 L89.7829 183.423 L89.7829 184.161 L86.0503 184.161 L86.0503 183.423 Z" fill="#000000" fill-rule="evenodd" fill-opacity="1" /><path clip-path="url(#clip050)" d="M 0 0 M92.6084 181.084 Q91.9834 181.084 91.6232 181.418 Q91.2673 181.752 91.2673 182.338 Q91.2673 182.924 91.6232 183.258 Q91.9834 183.592 92.6084 183.592 Q93.2334 183.592 93.5936 183.258 Q93.9539 182.92 93.9539 182.338 Q93.9539 181.752 93.5936 181.418 Q93.2377 181.084 92.6084 181.084 M91.7317 180.71 Q91.1674 180.572 90.8506 180.185 Q90.5381 179.799 90.5381 179.243 Q90.5381 178.467 91.0893 178.015 Q91.6449 177.564 92.6084 177.564 Q93.5763 177.564 94.1275 178.015 Q94.6787 178.467 94.6787 179.243 Q94.6787 179.799 94.3619 180.185 Q94.0494 180.572 93.4895 180.71 Q94.1232 180.858 94.4747 181.288 Q94.8306 181.717 94.8306 182.338 Q94.8306 183.28 94.2534 183.783 Q93.6804 184.287 92.6084 184.287 Q91.5364 184.287 90.9591 183.783 Q90.3862 183.28 90.3862 182.338 Q90.3862 181.717 90.7421 181.288 Q91.098 180.858 91.7317 180.71 M91.4105 179.326 Q91.4105 179.829 91.723 180.112 Q92.0398 180.394 92.6084 180.394 Q93.1726 180.394 93.4895 180.112 Q93.8107 179.829 93.8107 179.326 Q93.8107 178.822 93.4895 178.54 Q93.1726 178.258 92.6084 178.258 Q92.0398 178.258 91.723 178.54 Q91.4105 178.822 91.4105 179.326 Z" fill="#000000" fill-rule="evenodd" fill-opacity="1" /><path clip-path="url(#clip050)" d="M 0 0 M17.8739 133.539 L19.3062 133.539 L19.3062 128.596 L17.748 128.908 L17.748 128.109 L19.2975 127.797 L20.1742 127.797 L20.1742 133.539 L21.6065 133.539 L21.6065 134.277 L17.8739 134.277 L17.8739 133.539 Z" fill="#000000" fill-rule="evenodd" fill-opacity="1" /><path clip-path="url(#clip050)" d="M 0 0 M22.5831 134.142 L22.5831 133.344 Q22.9129 133.5 23.2515 133.583 Q23.59 133.665 23.9155 133.665 Q24.7836 133.665 25.2393 133.083 Q25.6994 132.497 25.7645 131.308 Q25.5127 131.682 25.1265 131.881 Q24.7402 132.081 24.2714 132.081 Q23.2992 132.081 22.7306 131.495 Q22.1664 130.905 22.1664 129.885 Q22.1664 128.886 22.7567 128.283 Q23.347 127.68 24.3279 127.68 Q25.452 127.68 26.0423 128.544 Q26.6369 129.403 26.6369 131.044 Q26.6369 132.576 25.9077 133.491 Q25.1829 134.403 23.9546 134.403 Q23.6247 134.403 23.2862 134.338 Q22.9477 134.273 22.5831 134.142 M24.3279 131.395 Q24.9181 131.395 25.261 130.991 Q25.6082 130.588 25.6082 129.885 Q25.6082 129.186 25.261 128.782 Q24.9181 128.374 24.3279 128.374 Q23.7376 128.374 23.3904 128.782 Q23.0475 129.186 23.0475 129.885 Q23.0475 130.588 23.3904 130.991 Q23.7376 131.395 24.3279 131.395 Z" fill="#000000" fill-rule="evenodd" fill-opacity="1" /><path clip-path="url(#clip050)" d="M 0 0 M104.023 220.836 L107.083 220.836 L107.083 221.574 L102.969 221.574 L102.969 220.836 Q103.468 220.32 104.327 219.452 Q105.191 218.579 105.412 218.327 Q105.833 217.854 105.998 217.529 Q106.167 217.199 106.167 216.882 Q106.167 216.366 105.803 216.04 Q105.442 215.715 104.861 215.715 Q104.449 215.715 103.988 215.858 Q103.533 216.001 103.012 216.292 L103.012 215.406 Q103.541 215.194 104.001 215.085 Q104.462 214.977 104.843 214.977 Q105.85 214.977 106.449 215.48 Q107.048 215.984 107.048 216.826 Q107.048 217.225 106.896 217.585 Q106.749 217.941 106.354 218.427 Q106.245 218.553 105.664 219.156 Q105.082 219.755 104.023 220.836 Z" fill="#000000" fill-rule="evenodd" fill-opacity="1" /><path clip-path="url(#clip050)" d="M 0 0 M109.909 215.671 Q109.231 215.671 108.889 216.34 Q108.55 217.004 108.55 218.34 Q108.55 219.673 108.889 220.341 Q109.231 221.005 109.909 221.005 Q110.59 221.005 110.929 220.341 Q111.271 219.673 111.271 218.34 Q111.271 217.004 110.929 216.34 Q110.59 215.671 109.909 215.671 M109.909 214.977 Q110.998 214.977 111.571 215.84 Q112.148 216.7 112.148 218.34 Q112.148 219.977 111.571 220.84 Q110.998 221.7 109.909 221.7 Q108.819 221.7 108.242 220.84 Q107.669 219.977 107.669 218.34 Q107.669 216.7 108.242 215.84 Q108.819 214.977 109.909 214.977 Z" fill="#000000" fill-rule="evenodd" fill-opacity="1" /><path clip-path="url(#clip050)" d="M 0 0 M35.8468 170.952 L38.9067 170.952 L38.9067 171.69 L34.7921 171.69 L34.7921 170.952 Q35.2913 170.436 36.1506 169.568 Q37.0143 168.695 37.2357 168.443 Q37.6567 167.97 37.8216 167.645 Q37.9909 167.315 37.9909 166.998 Q37.9909 166.482 37.6263 166.156 Q37.2661 165.831 36.6845 165.831 Q36.2722 165.831 35.8121 165.974 Q35.3564 166.117 34.8355 166.408 L34.8355 165.522 Q35.365 165.31 35.8251 165.201 Q36.2852 165.093 36.6671 165.093 Q37.6741 165.093 38.273 165.596 Q38.872 166.1 38.872 166.942 Q38.872 167.341 38.7201 167.701 Q38.5725 168.057 38.1775 168.543 Q38.069 168.669 37.4874 169.272 Q36.9058 169.871 35.8468 170.952 Z" fill="#000000" fill-rule="evenodd" fill-opacity="1" /><path clip-path="url(#clip050)" d="M 0 0 M40.0091 170.952 L41.4414 170.952 L41.4414 166.009 L39.8832 166.321 L39.8832 165.522 L41.4327 165.21 L42.3094 165.21 L42.3094 170.952 L43.7417 170.952 L43.7417 171.69 L40.0091 171.69 L40.0091 170.952 Z" fill="#000000" fill-rule="evenodd" fill-opacity="1" /><path clip-path="url(#clip050)" d="M 0 0 M18.8027 183.423 L21.8626 183.423 L21.8626 184.161 L17.748 184.161 L17.748 183.423 Q18.2472 182.907 19.1065 182.039 Q19.9702 181.166 20.1916 180.914 Q20.6126 180.441 20.7775 180.116 Q20.9468 179.786 20.9468 179.469 Q20.9468 178.953 20.5822 178.627 Q20.222 178.302 19.6404 178.302 Q19.2281 178.302 18.768 178.445 Q18.3123 178.588 17.7914 178.879 L17.7914 177.993 Q18.3209 177.781 18.781 177.672 Q19.2411 177.564 19.623 177.564 Q20.63 177.564 21.2289 178.067 Q21.8279 178.571 21.8279 179.413 Q21.8279 179.812 21.676 180.172 Q21.5284 180.528 21.1334 181.014 Q21.0249 181.14 20.4433 181.743 Q19.8617 182.342 18.8027 183.423 Z" fill="#000000" fill-rule="evenodd" fill-opacity="1" /><path clip-path="url(#clip050)" d="M 0 0 M23.5683 183.423 L26.6282 183.423 L26.6282 184.161 L22.5136 184.161 L22.5136 183.423 Q23.0128 182.907 23.8721 182.039 Q24.7358 181.166 24.9572 180.914 Q25.3782 180.441 25.5431 180.116 Q25.7124 179.786 25.7124 179.469 Q25.7124 178.953 25.3478 178.627 Q24.9876 178.302 24.406 178.302 Q23.9937 178.302 23.5336 178.445 Q23.0779 178.588 22.557 178.879 L22.557 177.993 Q23.0865 177.781 23.5466 177.672 Q24.0067 177.564 24.3886 177.564 Q25.3956 177.564 25.9945 178.067 Q26.5935 178.571 26.5935 179.413 Q26.5935 179.812 26.4416 180.172 Q26.294 180.528 25.899 181.014 Q25.7905 181.14 25.2089 181.743 Q24.6273 182.342 23.5683 183.423 Z" fill="#000000" fill-rule="evenodd" fill-opacity="1" /><path clip-path="url(#clip050)" d="M 0 0 M52.8909 208.365 L55.9508 208.365 L55.9508 209.103 L51.8362 209.103 L51.8362 208.365 Q52.3353 207.849 53.1947 206.981 Q54.0584 206.108 54.2798 205.856 Q54.7008 205.383 54.8657 205.058 Q55.035 204.728 55.035 204.411 Q55.035 203.895 54.6704 203.569 Q54.3102 203.244 53.7286 203.244 Q53.3162 203.244 52.8562 203.387 Q52.4005 203.53 51.8796 203.821 L51.8796 202.935 Q52.4091 202.723 52.8692 202.614 Q53.3293 202.506 53.7112 202.506 Q54.7181 202.506 55.3171 203.009 Q55.9161 203.513 55.9161 204.355 Q55.9161 204.754 55.7642 205.114 Q55.6166 205.47 55.2216 205.956 Q55.1131 206.082 54.5315 206.685 Q53.9499 207.284 52.8909 208.365 Z" fill="#000000" fill-rule="evenodd" fill-opacity="1" /><path clip-path="url(#clip050)" d="M 0 0 M59.5575 205.609 Q60.1869 205.744 60.5384 206.169 Q60.8943 206.594 60.8943 207.219 Q60.8943 208.178 60.2346 208.704 Q59.5749 209.229 58.3596 209.229 Q57.9516 209.229 57.5176 209.146 Q57.0879 209.068 56.6279 208.908 L56.6279 208.061 Q56.9924 208.274 57.4265 208.382 Q57.8605 208.491 58.3336 208.491 Q59.1582 208.491 59.5879 208.165 Q60.0219 207.84 60.0219 207.219 Q60.0219 206.646 59.6183 206.325 Q59.219 206 58.5029 206 L57.7476 206 L57.7476 205.279 L58.5376 205.279 Q59.1843 205.279 59.5272 205.023 Q59.87 204.763 59.87 204.277 Q59.87 203.777 59.5141 203.513 Q59.1626 203.244 58.5029 203.244 Q58.1426 203.244 57.7303 203.322 Q57.318 203.4 56.8232 203.565 L56.8232 202.784 Q57.3223 202.645 57.7563 202.575 Q58.1947 202.506 58.581 202.506 Q59.5792 202.506 60.1608 202.961 Q60.7424 203.413 60.7424 204.185 Q60.7424 204.724 60.4343 205.097 Q60.1261 205.466 59.5575 205.609 Z" fill="#000000" fill-rule="evenodd" fill-opacity="1" /><path clip-path="url(#clip050)" d="M 0 0 M35.8468 71.1842 L38.9067 71.1842 L38.9067 71.922 L34.7921 71.922 L34.7921 71.1842 Q35.2913 70.6677 36.1506 69.7996 Q37.0143 68.9273 37.2357 68.6755 Q37.6567 68.2024 37.8216 67.8769 Q37.9909 67.5471 37.9909 67.2302 Q37.9909 66.7137 37.6263 66.3882 Q37.2661 66.0627 36.6845 66.0627 Q36.2722 66.0627 35.8121 66.2059 Q35.3564 66.3491 34.8355 66.6399 L34.8355 65.7545 Q35.365 65.5419 35.8251 65.4333 Q36.2852 65.3248 36.6671 65.3248 Q37.6741 65.3248 38.273 65.8283 Q38.872 66.3318 38.872 67.1738 Q38.872 67.5731 38.7201 67.9333 Q38.5725 68.2892 38.1775 68.7753 Q38.069 68.9012 37.4874 69.5045 Q36.9058 70.1035 35.8468 71.1842 Z" fill="#000000" fill-rule="evenodd" fill-opacity="1" /><path clip-path="url(#clip050)" d="M 0 0 M42.266 66.2059 L40.0525 69.6651 L42.266 69.6651 L42.266 66.2059 M42.036 65.442 L43.1384 65.442 L43.1384 69.6651 L44.0629 69.6651 L44.0629 70.3943 L43.1384 70.3943 L43.1384 71.922 L42.266 71.922 L42.266 70.3943 L39.3407 70.3943 L39.3407 69.5479 L42.036 65.442 Z" fill="#000000" fill-rule="evenodd" fill-opacity="1" /><circle clip-path="url(#clip052)" cx="17.748" cy="61.395" r="3" fill="#0000ff" fill-rule="evenodd" fill-opacity="1" stroke="none"/>
<circle clip-path="url(#clip052)" cx="68.8803" cy="23.9821" r="3" fill="#0000ff" fill-rule="evenodd" fill-opacity="1" stroke="none"/>
<circle clip-path="url(#clip052)" cx="51.8362" cy="36.453" r="3" fill="#0000ff" fill-rule="evenodd" fill-opacity="1" stroke="none"/>
<circle clip-path="url(#clip052)" cx="85.9244" cy="61.395" r="3" fill="#0000ff" fill-rule="evenodd" fill-opacity="1" stroke="none"/>
<circle clip-path="url(#clip052)" cx="68.8803" cy="73.866" r="3" fill="#0000ff" fill-rule="evenodd" fill-opacity="1" stroke="none"/>
<circle clip-path="url(#clip052)" cx="102.969" cy="98.808" r="3" fill="#0000ff" fill-rule="evenodd" fill-opacity="1" stroke="none"/>
<circle clip-path="url(#clip052)" cx="68.8803" cy="98.808" r="3" fill="#0000ff" fill-rule="evenodd" fill-opacity="1" stroke="none"/>
<circle clip-path="url(#clip052)" cx="102.969" cy="23.9821" r="3" fill="#0000ff" fill-rule="evenodd" fill-opacity="1" stroke="none"/>
<circle clip-path="url(#clip052)" cx="85.9244" cy="36.453" r="3" fill="#0000ff" fill-rule="evenodd" fill-opacity="1" stroke="none"/>
<circle clip-path="url(#clip052)" cx="102.969" cy="73.866" r="3" fill="#0000ff" fill-rule="evenodd" fill-opacity="1" stroke="none"/>
<circle clip-path="url(#clip052)" cx="34.7921" cy="23.9821" r="3" fill="#0000ff" fill-rule="evenodd" fill-opacity="1" stroke="none"/>
<circle clip-path="url(#clip052)" cx="17.748" cy="36.453" r="3" fill="#0000ff" fill-rule="evenodd" fill-opacity="1" stroke="none"/>
<circle clip-path="url(#clip052)" cx="51.8362" cy="61.395" r="3" fill="#0000ff" fill-rule="evenodd" fill-opacity="1" stroke="none"/>
<path clip-path="url(#clip050)" d="M 0 0 M17.8739 58.7132 L19.3062 58.7132 L19.3062 53.7696 L17.748 54.0821 L17.748 53.2835 L19.2975 52.971 L20.1742 52.971 L20.1742 58.7132 L21.6065 58.7132 L21.6065 59.451 L17.8739 59.451 L17.8739 58.7132 Z" fill="#000000" fill-rule="evenodd" fill-opacity="1" /><path clip-path="url(#clip050)" d="M 0 0 M68.8803 15.5581 L73.047 15.5581 L73.047 15.9313 L70.6945 22.0381 L69.7787 22.0381 L71.9923 16.2959 L68.8803 16.2959 L68.8803 15.5581 Z" fill="#000000" fill-rule="evenodd" fill-opacity="1" /><path clip-path="url(#clip050)" d="M 0 0 M54.0584 31.4318 Q53.4334 31.4318 53.0732 31.766 Q52.7173 32.1002 52.7173 32.6861 Q52.7173 33.2721 53.0732 33.6063 Q53.4334 33.9405 54.0584 33.9405 Q54.6834 33.9405 55.0437 33.6063 Q55.4039 33.2677 55.4039 32.6861 Q55.4039 32.1002 55.0437 31.766 Q54.6878 31.4318 54.0584 31.4318 M53.1817 31.0585 Q52.6175 30.9197 52.3006 30.5334 Q51.9881 30.1471 51.9881 29.5915 Q51.9881 28.8146 52.5393 28.3632 Q53.0949 27.9119 54.0584 27.9119 Q55.0263 27.9119 55.5775 28.3632 Q56.1287 28.8146 56.1287 29.5915 Q56.1287 30.1471 55.8119 30.5334 Q55.4994 30.9197 54.9395 31.0585 Q55.5732 31.2061 55.9247 31.6358 Q56.2806 32.0655 56.2806 32.6861 Q56.2806 33.628 55.7034 34.1314 Q55.1305 34.6349 54.0584 34.6349 Q52.9864 34.6349 52.4091 34.1314 Q51.8362 33.628 51.8362 32.6861 Q51.8362 32.0655 52.1921 31.6358 Q52.548 31.2061 53.1817 31.0585 M52.8605 29.674 Q52.8605 30.1775 53.173 30.4596 Q53.4899 30.7417 54.0584 30.7417 Q54.6227 30.7417 54.9395 30.4596 Q55.2607 30.1775 55.2607 29.674 Q55.2607 29.1705 54.9395 28.8884 Q54.6227 28.6063 54.0584 28.6063 Q53.4899 28.6063 53.173 28.8884 Q52.8605 29.1705 52.8605 29.674 Z" fill="#000000" fill-rule="evenodd" fill-opacity="1" /><path clip-path="url(#clip050)" d="M 0 0 M86.3411 59.3165 L86.3411 58.5179 Q86.6709 58.6741 87.0095 58.7566 Q87.348 58.8391 87.6735 58.8391 Q88.5416 58.8391 88.9973 58.2575 Q89.4574 57.6715 89.5225 56.4823 Q89.2707 56.8556 88.8845 57.0552 Q88.4982 57.2549 88.0294 57.2549 Q87.0572 57.2549 86.4886 56.6689 Q85.9244 56.0787 85.9244 55.0587 Q85.9244 54.0604 86.5147 53.4571 Q87.105 52.8538 88.0859 52.8538 Q89.21 52.8538 89.8003 53.7176 Q90.3949 54.5769 90.3949 56.2175 Q90.3949 57.7497 89.6657 58.6654 Q88.9409 59.5769 87.7126 59.5769 Q87.3827 59.5769 87.0442 59.5118 Q86.7057 59.4467 86.3411 59.3165 M88.0859 56.5691 Q88.6761 56.5691 89.019 56.1655 Q89.3662 55.7618 89.3662 55.0587 Q89.3662 54.3599 89.019 53.9563 Q88.6761 53.5483 88.0859 53.5483 Q87.4956 53.5483 87.1484 53.9563 Q86.8055 54.3599 86.8055 55.0587 Q86.8055 55.7618 87.1484 56.1655 Q87.4956 56.5691 88.0859 56.5691 Z" fill="#000000" fill-rule="evenodd" fill-opacity="1" /><path clip-path="url(#clip050)" d="M 0 0 M69.0062 71.1842 L70.4385 71.1842 L70.4385 66.2406 L68.8803 66.5531 L68.8803 65.7545 L70.4298 65.442 L71.3065 65.442 L71.3065 71.1842 L72.7388 71.1842 L72.7388 71.922 L69.0062 71.922 L69.0062 71.1842 Z" fill="#000000" fill-rule="evenodd" fill-opacity="1" /><path clip-path="url(#clip050)" d="M 0 0 M75.5643 66.0193 Q74.8872 66.0193 74.5443 66.6877 Q74.2058 67.3517 74.2058 68.6885 Q74.2058 70.021 74.5443 70.6894 Q74.8872 71.3535 75.5643 71.3535 Q76.2457 71.3535 76.5843 70.6894 Q76.9271 70.021 76.9271 68.6885 Q76.9271 67.3517 76.5843 66.6877 Q76.2457 66.0193 75.5643 66.0193 M75.5643 65.3248 Q76.6537 65.3248 77.2266 66.1886 Q77.8039 67.0479 77.8039 68.6885 Q77.8039 70.3248 77.2266 71.1885 Q76.6537 72.0479 75.5643 72.0479 Q74.4749 72.0479 73.8976 71.1885 Q73.3247 70.3248 73.3247 68.6885 Q73.3247 67.0479 73.8976 66.1886 Q74.4749 65.3248 75.5643 65.3248 Z" fill="#000000" fill-rule="evenodd" fill-opacity="1" /><path clip-path="url(#clip050)" d="M 0 0 M103.094 96.1262 L104.527 96.1262 L104.527 91.1826 L102.969 91.4951 L102.969 90.6965 L104.518 90.384 L105.395 90.384 L105.395 96.1262 L106.827 96.1262 L106.827 96.864 L103.094 96.864 L103.094 96.1262 Z" fill="#000000" fill-rule="evenodd" fill-opacity="1" /><path clip-path="url(#clip050)" d="M 0 0 M107.929 96.1262 L109.362 96.1262 L109.362 91.1826 L107.804 91.4951 L107.804 90.6965 L109.353 90.384 L110.23 90.384 L110.23 96.1262 L111.662 96.1262 L111.662 96.864 L107.929 96.864 L107.929 96.1262 Z" fill="#000000" fill-rule="evenodd" fill-opacity="1" /><path clip-path="url(#clip050)" d="M 0 0 M69.0062 96.1262 L70.4385 96.1262 L70.4385 91.1826 L68.8803 91.4951 L68.8803 90.6965 L70.4298 90.384 L71.3065 90.384 L71.3065 96.1262 L72.7388 96.1262 L72.7388 96.864 L69.0062 96.864 L69.0062 96.1262 Z" fill="#000000" fill-rule="evenodd" fill-opacity="1" /><path clip-path="url(#clip050)" d="M 0 0 M76.3456 93.3701 Q76.9749 93.5047 77.3265 93.93 Q77.6824 94.3553 77.6824 94.9803 Q77.6824 95.9395 77.0226 96.4647 Q76.3629 96.9899 75.1476 96.9899 Q74.7397 96.9899 74.3056 96.9074 Q73.8759 96.8293 73.4159 96.6687 L73.4159 95.8224 Q73.7805 96.035 74.2145 96.1435 Q74.6485 96.252 75.1216 96.252 Q75.9462 96.252 76.3759 95.9265 Q76.81 95.601 76.81 94.9803 Q76.81 94.4074 76.4063 94.0863 Q76.007 93.7607 75.2909 93.7607 L74.5357 93.7607 L74.5357 93.0402 L75.3256 93.0402 Q75.9723 93.0402 76.3152 92.7842 Q76.6581 92.5238 76.6581 92.0377 Q76.6581 91.5385 76.3022 91.2738 Q75.9506 91.0047 75.2909 91.0047 Q74.9306 91.0047 74.5183 91.0828 Q74.106 91.1609 73.6112 91.3258 L73.6112 90.5446 Q74.1103 90.4057 74.5443 90.3363 Q74.9827 90.2668 75.369 90.2668 Q76.3673 90.2668 76.9488 90.7226 Q77.5304 91.1739 77.5304 91.9465 Q77.5304 92.4847 77.2223 92.858 Q76.9141 93.2269 76.3456 93.3701 Z" fill="#000000" fill-rule="evenodd" fill-opacity="1" /><path clip-path="url(#clip050)" d="M 0 0 M103.094 21.3002 L104.527 21.3002 L104.527 16.3567 L102.969 16.6692 L102.969 15.8706 L104.518 15.5581 L105.395 15.5581 L105.395 21.3002 L106.827 21.3002 L106.827 22.0381 L103.094 22.0381 L103.094 21.3002 Z" fill="#000000" fill-rule="evenodd" fill-opacity="1" /><path clip-path="url(#clip050)" d="M 0 0 M107.556 15.5581 L111.723 15.5581 L111.723 15.9313 L109.37 22.0381 L108.455 22.0381 L110.668 16.2959 L107.556 16.2959 L107.556 15.5581 Z" fill="#000000" fill-rule="evenodd" fill-opacity="1" /><path clip-path="url(#clip050)" d="M 0 0 M86.0503 33.7712 L87.4826 33.7712 L87.4826 28.8277 L85.9244 29.1402 L85.9244 28.3415 L87.4739 28.029 L88.3506 28.029 L88.3506 33.7712 L89.7829 33.7712 L89.7829 34.509 L86.0503 34.509 L86.0503 33.7712 Z" fill="#000000" fill-rule="evenodd" fill-opacity="1" /><path clip-path="url(#clip050)" d="M 0 0 M92.6084 31.4318 Q91.9834 31.4318 91.6232 31.766 Q91.2673 32.1002 91.2673 32.6861 Q91.2673 33.2721 91.6232 33.6063 Q91.9834 33.9405 92.6084 33.9405 Q93.2334 33.9405 93.5936 33.6063 Q93.9539 33.2677 93.9539 32.6861 Q93.9539 32.1002 93.5936 31.766 Q93.2377 31.4318 92.6084 31.4318 M91.7317 31.0585 Q91.1674 30.9197 90.8506 30.5334 Q90.5381 30.1471 90.5381 29.5915 Q90.5381 28.8146 91.0893 28.3632 Q91.6449 27.9119 92.6084 27.9119 Q93.5763 27.9119 94.1275 28.3632 Q94.6787 28.8146 94.6787 29.5915 Q94.6787 30.1471 94.3619 30.5334 Q94.0494 30.9197 93.4895 31.0585 Q94.1232 31.2061 94.4747 31.6358 Q94.8306 32.0655 94.8306 32.6861 Q94.8306 33.628 94.2534 34.1314 Q93.6804 34.6349 92.6084 34.6349 Q91.5364 34.6349 90.9591 34.1314 Q90.3862 33.628 90.3862 32.6861 Q90.3862 32.0655 90.7421 31.6358 Q91.098 31.2061 91.7317 31.0585 M91.4105 29.674 Q91.4105 30.1775 91.723 30.4596 Q92.0398 30.7417 92.6084 30.7417 Q93.1726 30.7417 93.4895 30.4596 Q93.8107 30.1775 93.8107 29.674 Q93.8107 29.1705 93.4895 28.8884 Q93.1726 28.6063 92.6084 28.6063 Q92.0398 28.6063 91.723 28.8884 Q91.4105 29.1705 91.4105 29.674 Z" fill="#000000" fill-rule="evenodd" fill-opacity="1" /><path clip-path="url(#clip050)" d="M 0 0 M104.023 71.1842 L107.083 71.1842 L107.083 71.922 L102.969 71.922 L102.969 71.1842 Q103.468 70.6677 104.327 69.7996 Q105.191 68.9273 105.412 68.6755 Q105.833 68.2024 105.998 67.8769 Q106.167 67.5471 106.167 67.2302 Q106.167 66.7137 105.803 66.3882 Q105.442 66.0627 104.861 66.0627 Q104.449 66.0627 103.988 66.2059 Q103.533 66.3491 103.012 66.6399 L103.012 65.7545 Q103.541 65.5419 104.001 65.4333 Q104.462 65.3248 104.843 65.3248 Q105.85 65.3248 106.449 65.8283 Q107.048 66.3318 107.048 67.1738 Q107.048 67.5731 106.896 67.9333 Q106.749 68.2892 106.354 68.7753 Q106.245 68.9012 105.664 69.5045 Q105.082 70.1035 104.023 71.1842 Z" fill="#000000" fill-rule="evenodd" fill-opacity="1" /><path clip-path="url(#clip050)" d="M 0 0 M109.909 66.0193 Q109.231 66.0193 108.889 66.6877 Q108.55 67.3517 108.55 68.6885 Q108.55 70.021 108.889 70.6894 Q109.231 71.3535 109.909 71.3535 Q110.59 71.3535 110.929 70.6894 Q111.271 70.021 111.271 68.6885 Q111.271 67.3517 110.929 66.6877 Q110.59 66.0193 109.909 66.0193 M109.909 65.3248 Q110.998 65.3248 111.571 66.1886 Q112.148 67.0479 112.148 68.6885 Q112.148 70.3248 111.571 71.1885 Q110.998 72.0479 109.909 72.0479 Q108.819 72.0479 108.242 71.1885 Q107.669 70.3248 107.669 68.6885 Q107.669 67.0479 108.242 66.1886 Q108.819 65.3248 109.909 65.3248 Z" fill="#000000" fill-rule="evenodd" fill-opacity="1" /><path clip-path="url(#clip050)" d="M 0 0 M35.8468 21.3002 L38.9067 21.3002 L38.9067 22.0381 L34.7921 22.0381 L34.7921 21.3002 Q35.2913 20.7837 36.1506 19.9157 Q37.0143 19.0433 37.2357 18.7915 Q37.6567 18.3185 37.8216 17.9929 Q37.9909 17.6631 37.9909 17.3462 Q37.9909 16.8297 37.6263 16.5042 Q37.2661 16.1787 36.6845 16.1787 Q36.2722 16.1787 35.8121 16.3219 Q35.3564 16.4652 34.8355 16.756 L34.8355 15.8706 Q35.365 15.6579 35.8251 15.5494 Q36.2852 15.4409 36.6671 15.4409 Q37.6741 15.4409 38.273 15.9443 Q38.872 16.4478 38.872 17.2898 Q38.872 17.6891 38.7201 18.0494 Q38.5725 18.4053 38.1775 18.8914 Q38.069 19.0172 37.4874 19.6205 Q36.9058 20.2195 35.8468 21.3002 Z" fill="#000000" fill-rule="evenodd" fill-opacity="1" /><path clip-path="url(#clip050)" d="M 0 0 M40.0091 21.3002 L41.4414 21.3002 L41.4414 16.3567 L39.8832 16.6692 L39.8832 15.8706 L41.4327 15.5581 L42.3094 15.5581 L42.3094 21.3002 L43.7417 21.3002 L43.7417 22.0381 L40.0091 22.0381 L40.0091 21.3002 Z" fill="#000000" fill-rule="evenodd" fill-opacity="1" /><path clip-path="url(#clip050)" d="M 0 0 M18.8027 33.7712 L21.8626 33.7712 L21.8626 34.509 L17.748 34.509 L17.748 33.7712 Q18.2472 33.2547 19.1065 32.3867 Q19.9702 31.5143 20.1916 31.2625 Q20.6126 30.7895 20.7775 30.4639 Q20.9468 30.1341 20.9468 29.8172 Q20.9468 29.3007 20.5822 28.9752 Q20.222 28.6497 19.6404 28.6497 Q19.2281 28.6497 18.768 28.7929 Q18.3123 28.9362 17.7914 29.227 L17.7914 28.3415 Q18.3209 28.1289 18.781 28.0204 Q19.2411 27.9119 19.623 27.9119 Q20.63 27.9119 21.2289 28.4153 Q21.8279 28.9188 21.8279 29.7608 Q21.8279 30.1601 21.676 30.5204 Q21.5284 30.8763 21.1334 31.3624 Q21.0249 31.4882 20.4433 32.0915 Q19.8617 32.6905 18.8027 33.7712 Z" fill="#000000" fill-rule="evenodd" fill-opacity="1" /><path clip-path="url(#clip050)" d="M 0 0 M23.5683 33.7712 L26.6282 33.7712 L26.6282 34.509 L22.5136 34.509 L22.5136 33.7712 Q23.0128 33.2547 23.8721 32.3867 Q24.7358 31.5143 24.9572 31.2625 Q25.3782 30.7895 25.5431 30.4639 Q25.7124 30.1341 25.7124 29.8172 Q25.7124 29.3007 25.3478 28.9752 Q24.9876 28.6497 24.406 28.6497 Q23.9937 28.6497 23.5336 28.7929 Q23.0779 28.9362 22.557 29.227 L22.557 28.3415 Q23.0865 28.1289 23.5466 28.0204 Q24.0067 27.9119 24.3886 27.9119 Q25.3956 27.9119 25.9945 28.4153 Q26.5935 28.9188 26.5935 29.7608 Q26.5935 30.1601 26.4416 30.5204 Q26.294 30.8763 25.899 31.3624 Q25.7905 31.4882 25.2089 32.0915 Q24.6273 32.6905 23.5683 33.7712 Z" fill="#000000" fill-rule="evenodd" fill-opacity="1" /><path clip-path="url(#clip050)" d="M 0 0 M52.8909 58.7132 L55.9508 58.7132 L55.9508 59.451 L51.8362 59.451 L51.8362 58.7132 Q52.3353 58.1967 53.1947 57.3286 Q54.0584 56.4563 54.2798 56.2045 Q54.7008 55.7314 54.8657 55.4059 Q55.035 55.0761 55.035 54.7592 Q55.035 54.2427 54.6704 53.9172 Q54.3102 53.5917 53.7286 53.5917 Q53.3162 53.5917 52.8562 53.7349 Q52.4005 53.8781 51.8796 54.1689 L51.8796 53.2835 Q52.4091 53.0709 52.8692 52.9624 Q53.3293 52.8538 53.7112 52.8538 Q54.7181 52.8538 55.3171 53.3573 Q55.9161 53.8608 55.9161 54.7028 Q55.9161 55.1021 55.7642 55.4623 Q55.6166 55.8182 55.2216 56.3043 Q55.1131 56.4302 54.5315 57.0335 Q53.9499 57.6325 52.8909 58.7132 Z" fill="#000000" fill-rule="evenodd" fill-opacity="1" /><path clip-path="url(#clip050)" d="M 0 0 M59.5575 55.9571 Q60.1869 56.0917 60.5384 56.517 Q60.8943 56.9424 60.8943 57.5674 Q60.8943 58.5266 60.2346 59.0517 Q59.5749 59.5769 58.3596 59.5769 Q57.9516 59.5769 57.5176 59.4944 Q57.0879 59.4163 56.6279 59.2557 L56.6279 58.4094 Q56.9924 58.622 57.4265 58.7306 Q57.8605 58.8391 58.3336 58.8391 Q59.1582 58.8391 59.5879 58.5135 Q60.0219 58.188 60.0219 57.5674 Q60.0219 56.9945 59.6183 56.6733 Q59.219 56.3478 58.5029 56.3478 L57.7476 56.3478 L57.7476 55.6273 L58.5376 55.6273 Q59.1843 55.6273 59.5272 55.3712 Q59.87 55.1108 59.87 54.6247 Q59.87 54.1255 59.5141 53.8608 Q59.1626 53.5917 58.5029 53.5917 Q58.1426 53.5917 57.7303 53.6698 Q57.318 53.7479 56.8232 53.9129 L56.8232 53.1316 Q57.3223 52.9927 57.7563 52.9233 Q58.1947 52.8538 58.581 52.8538 Q59.5792 52.8538 60.1608 53.3096 Q60.7424 53.761 60.7424 54.5335 Q60.7424 55.0717 60.4343 55.445 Q60.1261 55.8139 59.5575 55.9571 Z" fill="#000000" fill-rule="evenodd" fill-opacity="1" /><circle clip-path="url(#clip052)" cx="137.057" cy="173.634" r="3" fill="#0000ff" fill-rule="evenodd" fill-opacity="1" stroke="none"/>
<circle clip-path="url(#clip052)" cx="120.013" cy="186.105" r="3" fill="#0000ff" fill-rule="evenodd" fill-opacity="1" stroke="none"/>
<circle clip-path="url(#clip052)" cx="154.101" cy="211.047" r="3" fill="#0000ff" fill-rule="evenodd" fill-opacity="1" stroke="none"/>
<circle clip-path="url(#clip052)" cx="137.057" cy="223.518" r="3" fill="#0000ff" fill-rule="evenodd" fill-opacity="1" stroke="none"/>
<circle clip-path="url(#clip052)" cx="188.189" cy="186.105" r="3" fill="#0000ff" fill-rule="evenodd" fill-opacity="1" stroke="none"/>
<circle clip-path="url(#clip052)" cx="154.101" cy="186.105" r="3" fill="#0000ff" fill-rule="evenodd" fill-opacity="1" stroke="none"/>
<circle clip-path="url(#clip052)" cx="188.189" cy="211.047" r="3" fill="#0000ff" fill-rule="evenodd" fill-opacity="1" stroke="none"/>
<circle clip-path="url(#clip052)" cx="171.145" cy="223.518" r="3" fill="#0000ff" fill-rule="evenodd" fill-opacity="1" stroke="none"/>
<circle clip-path="url(#clip052)" cx="120.013" cy="211.047" r="3" fill="#0000ff" fill-rule="evenodd" fill-opacity="1" stroke="none"/>
<circle clip-path="url(#clip052)" cx="137.057" cy="148.692" r="3" fill="#0000ff" fill-rule="evenodd" fill-opacity="1" stroke="none"/>
<path clip-path="url(#clip050)" d="M 0 0 M139.986 168.196 Q140.616 168.331 140.967 168.756 Q141.323 169.181 141.323 169.806 Q141.323 170.765 140.663 171.291 Q140.004 171.816 138.788 171.816 Q138.38 171.816 137.946 171.733 Q137.517 171.655 137.057 171.495 L137.057 170.648 Q137.421 170.861 137.855 170.969 Q138.289 171.078 138.762 171.078 Q139.587 171.078 140.017 170.752 Q140.451 170.427 140.451 169.806 Q140.451 169.233 140.047 168.912 Q139.648 168.587 138.932 168.587 L138.176 168.587 L138.176 167.866 L138.966 167.866 Q139.613 167.866 139.956 167.61 Q140.299 167.35 140.299 166.864 Q140.299 166.364 139.943 166.1 Q139.591 165.831 138.932 165.831 Q138.571 165.831 138.159 165.909 Q137.747 165.987 137.252 166.152 L137.252 165.371 Q137.751 165.232 138.185 165.162 Q138.624 165.093 139.01 165.093 Q140.008 165.093 140.59 165.549 Q141.171 166 141.171 166.772 Q141.171 167.311 140.863 167.684 Q140.555 168.053 139.986 168.196 Z" fill="#000000" fill-rule="evenodd" fill-opacity="1" /><path clip-path="url(#clip050)" d="M 0 0 M122.938 178.445 L120.724 181.904 L122.938 181.904 L122.938 178.445 M122.708 177.681 L123.81 177.681 L123.81 181.904 L124.735 181.904 L124.735 182.633 L123.81 182.633 L123.81 184.161 L122.938 184.161 L122.938 182.633 L120.013 182.633 L120.013 181.787 L122.708 177.681 Z" fill="#000000" fill-rule="evenodd" fill-opacity="1" /><path clip-path="url(#clip050)" d="M 0 0 M154.374 202.623 L157.816 202.623 L157.816 203.361 L155.177 203.361 L155.177 204.949 Q155.368 204.884 155.559 204.854 Q155.75 204.819 155.941 204.819 Q157.026 204.819 157.66 205.414 Q158.293 206.008 158.293 207.024 Q158.293 208.07 157.642 208.652 Q156.991 209.229 155.807 209.229 Q155.399 209.229 154.973 209.159 Q154.552 209.09 154.101 208.951 L154.101 208.07 Q154.491 208.283 154.908 208.387 Q155.325 208.491 155.789 208.491 Q156.54 208.491 156.978 208.096 Q157.417 207.701 157.417 207.024 Q157.417 206.347 156.978 205.952 Q156.54 205.557 155.789 205.557 Q155.438 205.557 155.086 205.635 Q154.739 205.713 154.374 205.878 L154.374 202.623 Z" fill="#000000" fill-rule="evenodd" fill-opacity="1" /><path clip-path="url(#clip050)" d="M 0 0 M139.37 217.985 Q138.78 217.985 138.433 218.388 Q138.09 218.792 138.09 219.495 Q138.09 220.194 138.433 220.602 Q138.78 221.005 139.37 221.005 Q139.96 221.005 140.303 220.602 Q140.65 220.194 140.65 219.495 Q140.65 218.792 140.303 218.388 Q139.96 217.985 139.37 217.985 M141.11 215.237 L141.11 216.036 Q140.781 215.88 140.442 215.797 Q140.108 215.715 139.778 215.715 Q138.91 215.715 138.45 216.301 Q137.994 216.886 137.929 218.071 Q138.185 217.694 138.571 217.494 Q138.958 217.29 139.422 217.29 Q140.399 217.29 140.963 217.885 Q141.531 218.475 141.531 219.495 Q141.531 220.493 140.941 221.097 Q140.351 221.7 139.37 221.7 Q138.246 221.7 137.651 220.84 Q137.057 219.977 137.057 218.34 Q137.057 216.804 137.786 215.893 Q138.515 214.977 139.743 214.977 Q140.073 214.977 140.407 215.042 Q140.746 215.107 141.11 215.237 Z" fill="#000000" fill-rule="evenodd" fill-opacity="1" /><path clip-path="url(#clip050)" d="M 0 0 M188.315 183.423 L189.747 183.423 L189.747 178.48 L188.189 178.792 L188.189 177.993 L189.738 177.681 L190.615 177.681 L190.615 183.423 L192.047 183.423 L192.047 184.161 L188.315 184.161 L188.315 183.423 Z" fill="#000000" fill-rule="evenodd" fill-opacity="1" /><path clip-path="url(#clip050)" d="M 0 0 M193.753 183.423 L196.813 183.423 L196.813 184.161 L192.699 184.161 L192.699 183.423 Q193.198 182.907 194.057 182.039 Q194.921 181.166 195.142 180.914 Q195.563 180.441 195.728 180.116 Q195.897 179.786 195.897 179.469 Q195.897 178.953 195.533 178.627 Q195.172 178.302 194.591 178.302 Q194.179 178.302 193.718 178.445 Q193.263 178.588 192.742 178.879 L192.742 177.993 Q193.271 177.781 193.731 177.672 Q194.192 177.564 194.573 177.564 Q195.58 177.564 196.179 178.067 Q196.778 178.571 196.778 179.413 Q196.778 179.812 196.626 180.172 Q196.479 180.528 196.084 181.014 Q195.975 181.14 195.394 181.743 Q194.812 182.342 193.753 183.423 Z" fill="#000000" fill-rule="evenodd" fill-opacity="1" /><path clip-path="url(#clip050)" d="M 0 0 M154.227 183.423 L155.659 183.423 L155.659 178.48 L154.101 178.792 L154.101 177.993 L155.65 177.681 L156.527 177.681 L156.527 183.423 L157.959 183.423 L157.959 184.161 L154.227 184.161 L154.227 183.423 Z" fill="#000000" fill-rule="evenodd" fill-opacity="1" /><path clip-path="url(#clip050)" d="M 0 0 M161.319 178.445 L159.105 181.904 L161.319 181.904 L161.319 178.445 M161.089 177.681 L162.191 177.681 L162.191 181.904 L163.115 181.904 L163.115 182.633 L162.191 182.633 L162.191 184.161 L161.319 184.161 L161.319 182.633 L158.393 182.633 L158.393 181.787 L161.089 177.681 Z" fill="#000000" fill-rule="evenodd" fill-opacity="1" /><path clip-path="url(#clip050)" d="M 0 0 M188.315 208.365 L189.747 208.365 L189.747 203.422 L188.189 203.734 L188.189 202.935 L189.738 202.623 L190.615 202.623 L190.615 208.365 L192.047 208.365 L192.047 209.103 L188.315 209.103 L188.315 208.365 Z" fill="#000000" fill-rule="evenodd" fill-opacity="1" /><path clip-path="url(#clip050)" d="M 0 0 M193.007 202.623 L196.448 202.623 L196.448 203.361 L193.81 203.361 L193.81 204.949 Q194.001 204.884 194.192 204.854 Q194.383 204.819 194.573 204.819 Q195.659 204.819 196.292 205.414 Q196.926 206.008 196.926 207.024 Q196.926 208.07 196.275 208.652 Q195.624 209.229 194.439 209.229 Q194.031 209.229 193.606 209.159 Q193.185 209.09 192.733 208.951 L192.733 208.07 Q193.124 208.283 193.541 208.387 Q193.957 208.491 194.422 208.491 Q195.172 208.491 195.611 208.096 Q196.049 207.701 196.049 207.024 Q196.049 206.347 195.611 205.952 Q195.172 205.557 194.422 205.557 Q194.07 205.557 193.718 205.635 Q193.371 205.713 193.007 205.878 L193.007 202.623 Z" fill="#000000" fill-rule="evenodd" fill-opacity="1" /><path clip-path="url(#clip050)" d="M 0 0 M171.271 220.836 L172.703 220.836 L172.703 215.893 L171.145 216.205 L171.145 215.406 L172.694 215.094 L173.571 215.094 L173.571 220.836 L175.003 220.836 L175.003 221.574 L171.271 221.574 L171.271 220.836 Z" fill="#000000" fill-rule="evenodd" fill-opacity="1" /><path clip-path="url(#clip050)" d="M 0 0 M177.937 217.985 Q177.347 217.985 177 218.388 Q176.657 218.792 176.657 219.495 Q176.657 220.194 177 220.602 Q177.347 221.005 177.937 221.005 Q178.528 221.005 178.871 220.602 Q179.218 220.194 179.218 219.495 Q179.218 218.792 178.871 218.388 Q178.528 217.985 177.937 217.985 M179.678 215.237 L179.678 216.036 Q179.348 215.88 179.009 215.797 Q178.675 215.715 178.345 215.715 Q177.477 215.715 177.017 216.301 Q176.562 216.886 176.496 218.071 Q176.752 217.694 177.139 217.494 Q177.525 217.29 177.989 217.29 Q178.966 217.29 179.53 217.885 Q180.099 218.475 180.099 219.495 Q180.099 220.493 179.509 221.097 Q178.918 221.7 177.937 221.7 Q176.813 221.7 176.219 220.84 Q175.624 219.977 175.624 218.34 Q175.624 216.804 176.353 215.893 Q177.082 214.977 178.311 214.977 Q178.641 214.977 178.975 215.042 Q179.313 215.107 179.678 215.237 Z" fill="#000000" fill-rule="evenodd" fill-opacity="1" /><path clip-path="url(#clip050)" d="M 0 0 M120.138 208.365 L121.571 208.365 L121.571 203.422 L120.013 203.734 L120.013 202.935 L121.562 202.623 L122.439 202.623 L122.439 208.365 L123.871 208.365 L123.871 209.103 L120.138 209.103 L120.138 208.365 Z" fill="#000000" fill-rule="evenodd" fill-opacity="1" /><path clip-path="url(#clip050)" d="M 0 0 M124.848 208.968 L124.848 208.17 Q125.178 208.326 125.516 208.409 Q125.855 208.491 126.18 208.491 Q127.048 208.491 127.504 207.909 Q127.964 207.323 128.029 206.134 Q127.777 206.507 127.391 206.707 Q127.005 206.907 126.536 206.907 Q125.564 206.907 124.995 206.321 Q124.431 205.731 124.431 204.711 Q124.431 203.712 125.021 203.109 Q125.612 202.506 126.592 202.506 Q127.717 202.506 128.307 203.369 Q128.901 204.229 128.901 205.869 Q128.901 207.402 128.172 208.317 Q127.447 209.229 126.219 209.229 Q125.889 209.229 125.551 209.164 Q125.212 209.099 124.848 208.968 M126.592 206.221 Q127.183 206.221 127.526 205.817 Q127.873 205.414 127.873 204.711 Q127.873 204.012 127.526 203.608 Q127.183 203.2 126.592 203.2 Q126.002 203.2 125.655 203.608 Q125.312 204.012 125.312 204.711 Q125.312 205.414 125.655 205.817 Q126.002 206.221 126.592 206.221 Z" fill="#000000" fill-rule="evenodd" fill-opacity="1" /><path clip-path="url(#clip050)" d="M 0 0 M138.111 146.01 L141.171 146.01 L141.171 146.748 L137.057 146.748 L137.057 146.01 Q137.556 145.494 138.415 144.626 Q139.279 143.753 139.5 143.501 Q139.921 143.028 140.086 142.703 Q140.255 142.373 140.255 142.056 Q140.255 141.54 139.891 141.214 Q139.531 140.889 138.949 140.889 Q138.537 140.889 138.077 141.032 Q137.621 141.175 137.1 141.466 L137.1 140.58 Q137.63 140.368 138.09 140.259 Q138.55 140.151 138.932 140.151 Q139.939 140.151 140.538 140.654 Q141.137 141.158 141.137 142 Q141.137 142.399 140.985 142.759 Q140.837 143.115 140.442 143.601 Q140.334 143.727 139.752 144.33 Q139.17 144.929 138.111 146.01 Z" fill="#000000" fill-rule="evenodd" fill-opacity="1" /><path clip-path="url(#clip050)" d="M 0 0 M144.531 141.032 L142.317 144.491 L144.531 144.491 L144.531 141.032 M144.301 140.268 L145.403 140.268 L145.403 144.491 L146.327 144.491 L146.327 145.22 L145.403 145.22 L145.403 146.748 L144.531 146.748 L144.531 145.22 L141.605 145.22 L141.605 144.374 L144.301 140.268 Z" fill="#000000" fill-rule="evenodd" fill-opacity="1" /><circle clip-path="url(#clip052)" cx="120.013" cy="136.221" r="3" fill="#0000ff" fill-rule="evenodd" fill-opacity="1" stroke="none"/>
<circle clip-path="url(#clip052)" cx="137.057" cy="23.9821" r="3" fill="#0000ff" fill-rule="evenodd" fill-opacity="1" stroke="none"/>
<circle clip-path="url(#clip052)" cx="120.013" cy="36.453" r="3" fill="#0000ff" fill-rule="evenodd" fill-opacity="1" stroke="none"/>
<circle clip-path="url(#clip052)" cx="154.101" cy="61.395" r="3" fill="#0000ff" fill-rule="evenodd" fill-opacity="1" stroke="none"/>
<circle clip-path="url(#clip052)" cx="137.057" cy="73.866" r="3" fill="#0000ff" fill-rule="evenodd" fill-opacity="1" stroke="none"/>
<circle clip-path="url(#clip052)" cx="171.145" cy="98.808" r="3" fill="#0000ff" fill-rule="evenodd" fill-opacity="1" stroke="none"/>
<circle clip-path="url(#clip052)" cx="154.101" cy="111.279" r="3" fill="#0000ff" fill-rule="evenodd" fill-opacity="1" stroke="none"/>
<circle clip-path="url(#clip052)" cx="188.189" cy="136.221" r="3" fill="#0000ff" fill-rule="evenodd" fill-opacity="1" stroke="none"/>
<circle clip-path="url(#clip052)" cx="171.145" cy="148.692" r="3" fill="#0000ff" fill-rule="evenodd" fill-opacity="1" stroke="none"/>
<circle clip-path="url(#clip052)" cx="188.189" cy="36.453" r="3" fill="#0000ff" fill-rule="evenodd" fill-opacity="1" stroke="none"/>
<circle clip-path="url(#clip052)" cx="171.145" cy="173.634" r="3" fill="#0000ff" fill-rule="evenodd" fill-opacity="1" stroke="none"/>
<circle clip-path="url(#clip052)" cx="154.101" cy="36.453" r="3" fill="#0000ff" fill-rule="evenodd" fill-opacity="1" stroke="none"/>
<circle clip-path="url(#clip052)" cx="188.189" cy="61.395" r="3" fill="#0000ff" fill-rule="evenodd" fill-opacity="1" stroke="none"/>
<circle clip-path="url(#clip052)" cx="171.145" cy="73.866" r="3" fill="#0000ff" fill-rule="evenodd" fill-opacity="1" stroke="none"/>
<circle clip-path="url(#clip052)" cx="188.189" cy="111.279" r="3" fill="#0000ff" fill-rule="evenodd" fill-opacity="1" stroke="none"/>
<circle clip-path="url(#clip052)" cx="120.013" cy="61.395" r="3" fill="#0000ff" fill-rule="evenodd" fill-opacity="1" stroke="none"/>
<circle clip-path="url(#clip052)" cx="137.057" cy="98.808" r="3" fill="#0000ff" fill-rule="evenodd" fill-opacity="1" stroke="none"/>
<circle clip-path="url(#clip052)" cx="120.013" cy="111.279" r="3" fill="#0000ff" fill-rule="evenodd" fill-opacity="1" stroke="none"/>
<circle clip-path="url(#clip052)" cx="154.101" cy="136.221" r="3" fill="#0000ff" fill-rule="evenodd" fill-opacity="1" stroke="none"/>
<path clip-path="url(#clip050)" d="M 0 0 M120.138 133.539 L121.571 133.539 L121.571 128.596 L120.013 128.908 L120.013 128.109 L121.562 127.797 L122.439 127.797 L122.439 133.539 L123.871 133.539 L123.871 134.277 L120.138 134.277 L120.138 133.539 Z" fill="#000000" fill-rule="evenodd" fill-opacity="1" /><path clip-path="url(#clip050)" d="M 0 0 M139.986 18.5442 Q140.616 18.6787 140.967 19.104 Q141.323 19.5294 141.323 20.1544 Q141.323 21.1136 140.663 21.6388 Q140.004 22.1639 138.788 22.1639 Q138.38 22.1639 137.946 22.0815 Q137.517 22.0033 137.057 21.8427 L137.057 20.9964 Q137.421 21.2091 137.855 21.3176 Q138.289 21.4261 138.762 21.4261 Q139.587 21.4261 140.017 21.1006 Q140.451 20.775 140.451 20.1544 Q140.451 19.5815 140.047 19.2603 Q139.648 18.9348 138.932 18.9348 L138.176 18.9348 L138.176 18.2143 L138.966 18.2143 Q139.613 18.2143 139.956 17.9582 Q140.299 17.6978 140.299 17.2117 Q140.299 16.7126 139.943 16.4478 Q139.591 16.1787 138.932 16.1787 Q138.571 16.1787 138.159 16.2568 Q137.747 16.335 137.252 16.4999 L137.252 15.7186 Q137.751 15.5798 138.185 15.5103 Q138.624 15.4409 139.01 15.4409 Q140.008 15.4409 140.59 15.8966 Q141.171 16.348 141.171 17.1205 Q141.171 17.6587 140.863 18.032 Q140.555 18.4009 139.986 18.5442 Z" fill="#000000" fill-rule="evenodd" fill-opacity="1" /><path clip-path="url(#clip050)" d="M 0 0 M122.938 28.7929 L120.724 32.2521 L122.938 32.2521 L122.938 28.7929 M122.708 28.029 L123.81 28.029 L123.81 32.2521 L124.735 32.2521 L124.735 32.9813 L123.81 32.9813 L123.81 34.509 L122.938 34.509 L122.938 32.9813 L120.013 32.9813 L120.013 32.1349 L122.708 28.029 Z" fill="#000000" fill-rule="evenodd" fill-opacity="1" /><path clip-path="url(#clip050)" d="M 0 0 M154.374 52.971 L157.816 52.971 L157.816 53.7089 L155.177 53.7089 L155.177 55.2974 Q155.368 55.2323 155.559 55.2019 Q155.75 55.1672 155.941 55.1672 Q157.026 55.1672 157.66 55.7618 Q158.293 56.3564 158.293 57.3721 Q158.293 58.4181 157.642 58.9996 Q156.991 59.5769 155.807 59.5769 Q155.399 59.5769 154.973 59.5075 Q154.552 59.438 154.101 59.2991 L154.101 58.4181 Q154.491 58.6307 154.908 58.7349 Q155.325 58.8391 155.789 58.8391 Q156.54 58.8391 156.978 58.4441 Q157.417 58.0491 157.417 57.3721 Q157.417 56.695 156.978 56.3 Q156.54 55.905 155.789 55.905 Q155.438 55.905 155.086 55.9832 Q154.739 56.0613 154.374 56.2262 L154.374 52.971 Z" fill="#000000" fill-rule="evenodd" fill-opacity="1" /><path clip-path="url(#clip050)" d="M 0 0 M139.37 68.3326 Q138.78 68.3326 138.433 68.7363 Q138.09 69.1399 138.09 69.843 Q138.09 70.5418 138.433 70.9498 Q138.78 71.3535 139.37 71.3535 Q139.96 71.3535 140.303 70.9498 Q140.65 70.5418 140.65 69.843 Q140.65 69.1399 140.303 68.7363 Q139.96 68.3326 139.37 68.3326 M141.11 65.5853 L141.11 66.3839 Q140.781 66.2276 140.442 66.1451 Q140.108 66.0627 139.778 66.0627 Q138.91 66.0627 138.45 66.6486 Q137.994 67.2346 137.929 68.4194 Q138.185 68.0418 138.571 67.8422 Q138.958 67.6382 139.422 67.6382 Q140.399 67.6382 140.963 68.2328 Q141.531 68.8231 141.531 69.843 Q141.531 70.8413 140.941 71.4446 Q140.351 72.0479 139.37 72.0479 Q138.246 72.0479 137.651 71.1885 Q137.057 70.3248 137.057 68.6885 Q137.057 67.1521 137.786 66.2406 Q138.515 65.3248 139.743 65.3248 Q140.073 65.3248 140.407 65.3899 Q140.746 65.455 141.11 65.5853 Z" fill="#000000" fill-rule="evenodd" fill-opacity="1" /><path clip-path="url(#clip050)" d="M 0 0 M171.145 90.384 L175.312 90.384 L175.312 90.7573 L172.959 96.864 L172.043 96.864 L174.257 91.1219 L171.145 91.1219 L171.145 90.384 Z" fill="#000000" fill-rule="evenodd" fill-opacity="1" /><path clip-path="url(#clip050)" d="M 0 0 M156.323 106.258 Q155.698 106.258 155.338 106.592 Q154.982 106.926 154.982 107.512 Q154.982 108.098 155.338 108.432 Q155.698 108.766 156.323 108.766 Q156.948 108.766 157.308 108.432 Q157.668 108.094 157.668 107.512 Q157.668 106.926 157.308 106.592 Q156.952 106.258 156.323 106.258 M155.446 105.885 Q154.882 105.746 154.565 105.359 Q154.253 104.973 154.253 104.417 Q154.253 103.641 154.804 103.189 Q155.359 102.738 156.323 102.738 Q157.291 102.738 157.842 103.189 Q158.393 103.641 158.393 104.417 Q158.393 104.973 158.076 105.359 Q157.764 105.746 157.204 105.885 Q157.838 106.032 158.189 106.462 Q158.545 106.891 158.545 107.512 Q158.545 108.454 157.968 108.957 Q157.395 109.461 156.323 109.461 Q155.251 109.461 154.674 108.957 Q154.101 108.454 154.101 107.512 Q154.101 106.891 154.457 106.462 Q154.813 106.032 155.446 105.885 M155.125 104.5 Q155.125 105.003 155.438 105.286 Q155.754 105.568 156.323 105.568 Q156.887 105.568 157.204 105.286 Q157.525 105.003 157.525 104.5 Q157.525 103.996 157.204 103.714 Q156.887 103.432 156.323 103.432 Q155.754 103.432 155.438 103.714 Q155.125 103.996 155.125 104.5 Z" fill="#000000" fill-rule="evenodd" fill-opacity="1" /><path clip-path="url(#clip050)" d="M 0 0 M188.606 134.142 L188.606 133.344 Q188.936 133.5 189.274 133.583 Q189.613 133.665 189.938 133.665 Q190.806 133.665 191.262 133.083 Q191.722 132.497 191.787 131.308 Q191.535 131.682 191.149 131.881 Q190.763 132.081 190.294 132.081 Q189.322 132.081 188.753 131.495 Q188.189 130.905 188.189 129.885 Q188.189 128.886 188.779 128.283 Q189.37 127.68 190.35 127.68 Q191.475 127.68 192.065 128.544 Q192.659 129.403 192.659 131.044 Q192.659 132.576 191.93 133.491 Q191.205 134.403 189.977 134.403 Q189.647 134.403 189.309 134.338 Q188.97 134.273 188.606 134.142 M190.35 131.395 Q190.941 131.395 191.284 130.991 Q191.631 130.588 191.631 129.885 Q191.631 129.186 191.284 128.782 Q190.941 128.374 190.35 128.374 Q189.76 128.374 189.413 128.782 Q189.07 129.186 189.07 129.885 Q189.07 130.588 189.413 130.991 Q189.76 131.395 190.35 131.395 Z" fill="#000000" fill-rule="evenodd" fill-opacity="1" /><path clip-path="url(#clip050)" d="M 0 0 M171.271 146.01 L172.703 146.01 L172.703 141.067 L171.145 141.379 L171.145 140.58 L172.694 140.268 L173.571 140.268 L173.571 146.01 L175.003 146.01 L175.003 146.748 L171.271 146.748 L171.271 146.01 Z" fill="#000000" fill-rule="evenodd" fill-opacity="1" /><path clip-path="url(#clip050)" d="M 0 0 M177.829 140.845 Q177.152 140.845 176.809 141.514 Q176.47 142.178 176.47 143.514 Q176.47 144.847 176.809 145.515 Q177.152 146.179 177.829 146.179 Q178.51 146.179 178.849 145.515 Q179.192 144.847 179.192 143.514 Q179.192 142.178 178.849 141.514 Q178.51 140.845 177.829 140.845 M177.829 140.151 Q178.918 140.151 179.491 141.015 Q180.068 141.874 180.068 143.514 Q180.068 145.151 179.491 146.014 Q178.918 146.874 177.829 146.874 Q176.739 146.874 176.162 146.014 Q175.589 145.151 175.589 143.514 Q175.589 141.874 176.162 141.015 Q176.739 140.151 177.829 140.151 Z" fill="#000000" fill-rule="evenodd" fill-opacity="1" /><path clip-path="url(#clip050)" d="M 0 0 M188.315 33.7712 L189.747 33.7712 L189.747 28.8277 L188.189 29.1402 L188.189 28.3415 L189.738 28.029 L190.615 28.029 L190.615 33.7712 L192.047 33.7712 L192.047 34.509 L188.315 34.509 L188.315 33.7712 Z" fill="#000000" fill-rule="evenodd" fill-opacity="1" /><path clip-path="url(#clip050)" d="M 0 0 M193.753 33.7712 L196.813 33.7712 L196.813 34.509 L192.699 34.509 L192.699 33.7712 Q193.198 33.2547 194.057 32.3867 Q194.921 31.5143 195.142 31.2625 Q195.563 30.7895 195.728 30.4639 Q195.897 30.1341 195.897 29.8172 Q195.897 29.3007 195.533 28.9752 Q195.172 28.6497 194.591 28.6497 Q194.179 28.6497 193.718 28.7929 Q193.263 28.9362 192.742 29.227 L192.742 28.3415 Q193.271 28.1289 193.731 28.0204 Q194.192 27.9119 194.573 27.9119 Q195.58 27.9119 196.179 28.4153 Q196.778 28.9188 196.778 29.7608 Q196.778 30.1601 196.626 30.5204 Q196.479 30.8763 196.084 31.3624 Q195.975 31.4882 195.394 32.0915 Q194.812 32.6905 193.753 33.7712 Z" fill="#000000" fill-rule="evenodd" fill-opacity="1" /><path clip-path="url(#clip050)" d="M 0 0 M171.271 170.952 L172.703 170.952 L172.703 166.009 L171.145 166.321 L171.145 165.522 L172.694 165.21 L173.571 165.21 L173.571 170.952 L175.003 170.952 L175.003 171.69 L171.271 171.69 L171.271 170.952 Z" fill="#000000" fill-rule="evenodd" fill-opacity="1" /><path clip-path="url(#clip050)" d="M 0 0 M178.61 168.196 Q179.239 168.331 179.591 168.756 Q179.947 169.181 179.947 169.806 Q179.947 170.765 179.287 171.291 Q178.627 171.816 177.412 171.816 Q177.004 171.816 176.57 171.733 Q176.141 171.655 175.68 171.495 L175.68 170.648 Q176.045 170.861 176.479 170.969 Q176.913 171.078 177.386 171.078 Q178.211 171.078 178.641 170.752 Q179.075 170.427 179.075 169.806 Q179.075 169.233 178.671 168.912 Q178.272 168.587 177.555 168.587 L176.8 168.587 L176.8 167.866 L177.59 167.866 Q178.237 167.866 178.58 167.61 Q178.923 167.35 178.923 166.864 Q178.923 166.364 178.567 166.1 Q178.215 165.831 177.555 165.831 Q177.195 165.831 176.783 165.909 Q176.371 165.987 175.876 166.152 L175.876 165.371 Q176.375 165.232 176.809 165.162 Q177.247 165.093 177.634 165.093 Q178.632 165.093 179.213 165.549 Q179.795 166 179.795 166.772 Q179.795 167.311 179.487 167.684 Q179.179 168.053 178.61 168.196 Z" fill="#000000" fill-rule="evenodd" fill-opacity="1" /><path clip-path="url(#clip050)" d="M 0 0 M154.227 33.7712 L155.659 33.7712 L155.659 28.8277 L154.101 29.1402 L154.101 28.3415 L155.65 28.029 L156.527 28.029 L156.527 33.7712 L157.959 33.7712 L157.959 34.509 L154.227 34.509 L154.227 33.7712 Z" fill="#000000" fill-rule="evenodd" fill-opacity="1" /><path clip-path="url(#clip050)" d="M 0 0 M161.319 28.7929 L159.105 32.2521 L161.319 32.2521 L161.319 28.7929 M161.089 28.029 L162.191 28.029 L162.191 32.2521 L163.115 32.2521 L163.115 32.9813 L162.191 32.9813 L162.191 34.509 L161.319 34.509 L161.319 32.9813 L158.393 32.9813 L158.393 32.1349 L161.089 28.029 Z" fill="#000000" fill-rule="evenodd" fill-opacity="1" /><path clip-path="url(#clip050)" d="M 0 0 M188.315 58.7132 L189.747 58.7132 L189.747 53.7696 L188.189 54.0821 L188.189 53.2835 L189.738 52.971 L190.615 52.971 L190.615 58.7132 L192.047 58.7132 L192.047 59.451 L188.315 59.451 L188.315 58.7132 Z" fill="#000000" fill-rule="evenodd" fill-opacity="1" /><path clip-path="url(#clip050)" d="M 0 0 M193.007 52.971 L196.448 52.971 L196.448 53.7089 L193.81 53.7089 L193.81 55.2974 Q194.001 55.2323 194.192 55.2019 Q194.383 55.1672 194.573 55.1672 Q195.659 55.1672 196.292 55.7618 Q196.926 56.3564 196.926 57.3721 Q196.926 58.4181 196.275 58.9996 Q195.624 59.5769 194.439 59.5769 Q194.031 59.5769 193.606 59.5075 Q193.185 59.438 192.733 59.2991 L192.733 58.4181 Q193.124 58.6307 193.541 58.7349 Q193.957 58.8391 194.422 58.8391 Q195.172 58.8391 195.611 58.4441 Q196.049 58.0491 196.049 57.3721 Q196.049 56.695 195.611 56.3 Q195.172 55.905 194.422 55.905 Q194.07 55.905 193.718 55.9832 Q193.371 56.0613 193.007 56.2262 L193.007 52.971 Z" fill="#000000" fill-rule="evenodd" fill-opacity="1" /><path clip-path="url(#clip050)" d="M 0 0 M171.271 71.1842 L172.703 71.1842 L172.703 66.2406 L171.145 66.5531 L171.145 65.7545 L172.694 65.442 L173.571 65.442 L173.571 71.1842 L175.003 71.1842 L175.003 71.922 L171.271 71.922 L171.271 71.1842 Z" fill="#000000" fill-rule="evenodd" fill-opacity="1" /><path clip-path="url(#clip050)" d="M 0 0 M177.937 68.3326 Q177.347 68.3326 177 68.7363 Q176.657 69.1399 176.657 69.843 Q176.657 70.5418 177 70.9498 Q177.347 71.3535 177.937 71.3535 Q178.528 71.3535 178.871 70.9498 Q179.218 70.5418 179.218 69.843 Q179.218 69.1399 178.871 68.7363 Q178.528 68.3326 177.937 68.3326 M179.678 65.5853 L179.678 66.3839 Q179.348 66.2276 179.009 66.1451 Q178.675 66.0627 178.345 66.0627 Q177.477 66.0627 177.017 66.6486 Q176.562 67.2346 176.496 68.4194 Q176.752 68.0418 177.139 67.8422 Q177.525 67.6382 177.989 67.6382 Q178.966 67.6382 179.53 68.2328 Q180.099 68.8231 180.099 69.843 Q180.099 70.8413 179.509 71.4446 Q178.918 72.0479 177.937 72.0479 Q176.813 72.0479 176.219 71.1885 Q175.624 70.3248 175.624 68.6885 Q175.624 67.1521 176.353 66.2406 Q177.082 65.3248 178.311 65.3248 Q178.641 65.3248 178.975 65.3899 Q179.313 65.455 179.678 65.5853 Z" fill="#000000" fill-rule="evenodd" fill-opacity="1" /><path clip-path="url(#clip050)" d="M 0 0 M188.315 108.597 L189.747 108.597 L189.747 103.654 L188.189 103.966 L188.189 103.168 L189.738 102.855 L190.615 102.855 L190.615 108.597 L192.047 108.597 L192.047 109.335 L188.315 109.335 L188.315 108.597 Z" fill="#000000" fill-rule="evenodd" fill-opacity="1" /><path clip-path="url(#clip050)" d="M 0 0 M194.873 106.258 Q194.248 106.258 193.888 106.592 Q193.532 106.926 193.532 107.512 Q193.532 108.098 193.888 108.432 Q194.248 108.766 194.873 108.766 Q195.498 108.766 195.858 108.432 Q196.218 108.094 196.218 107.512 Q196.218 106.926 195.858 106.592 Q195.502 106.258 194.873 106.258 M193.996 105.885 Q193.432 105.746 193.115 105.359 Q192.803 104.973 192.803 104.417 Q192.803 103.641 193.354 103.189 Q193.909 102.738 194.873 102.738 Q195.841 102.738 196.392 103.189 Q196.943 103.641 196.943 104.417 Q196.943 104.973 196.626 105.359 Q196.314 105.746 195.754 105.885 Q196.388 106.032 196.739 106.462 Q197.095 106.891 197.095 107.512 Q197.095 108.454 196.518 108.957 Q195.945 109.461 194.873 109.461 Q193.801 109.461 193.224 108.957 Q192.651 108.454 192.651 107.512 Q192.651 106.891 193.007 106.462 Q193.363 106.032 193.996 105.885 M193.675 104.5 Q193.675 105.003 193.988 105.286 Q194.304 105.568 194.873 105.568 Q195.437 105.568 195.754 105.286 Q196.075 105.003 196.075 104.5 Q196.075 103.996 195.754 103.714 Q195.437 103.432 194.873 103.432 Q194.304 103.432 193.988 103.714 Q193.675 103.996 193.675 104.5 Z" fill="#000000" fill-rule="evenodd" fill-opacity="1" /><path clip-path="url(#clip050)" d="M 0 0 M120.138 58.7132 L121.571 58.7132 L121.571 53.7696 L120.013 54.0821 L120.013 53.2835 L121.562 52.971 L122.439 52.971 L122.439 58.7132 L123.871 58.7132 L123.871 59.451 L120.138 59.451 L120.138 58.7132 Z" fill="#000000" fill-rule="evenodd" fill-opacity="1" /><path clip-path="url(#clip050)" d="M 0 0 M124.848 59.3165 L124.848 58.5179 Q125.178 58.6741 125.516 58.7566 Q125.855 58.8391 126.18 58.8391 Q127.048 58.8391 127.504 58.2575 Q127.964 57.6715 128.029 56.4823 Q127.777 56.8556 127.391 57.0552 Q127.005 57.2549 126.536 57.2549 Q125.564 57.2549 124.995 56.6689 Q124.431 56.0787 124.431 55.0587 Q124.431 54.0604 125.021 53.4571 Q125.612 52.8538 126.592 52.8538 Q127.717 52.8538 128.307 53.7176 Q128.901 54.5769 128.901 56.2175 Q128.901 57.7497 128.172 58.6654 Q127.447 59.5769 126.219 59.5769 Q125.889 59.5769 125.551 59.5118 Q125.212 59.4467 124.848 59.3165 M126.592 56.5691 Q127.183 56.5691 127.526 56.1655 Q127.873 55.7618 127.873 55.0587 Q127.873 54.3599 127.526 53.9563 Q127.183 53.5483 126.592 53.5483 Q126.002 53.5483 125.655 53.9563 Q125.312 54.3599 125.312 55.0587 Q125.312 55.7618 125.655 56.1655 Q126.002 56.5691 126.592 56.5691 Z" fill="#000000" fill-rule="evenodd" fill-opacity="1" /><path clip-path="url(#clip050)" d="M 0 0 M138.111 96.1262 L141.171 96.1262 L141.171 96.864 L137.057 96.864 L137.057 96.1262 Q137.556 95.6097 138.415 94.7416 Q139.279 93.8692 139.5 93.6175 Q139.921 93.1444 140.086 92.8189 Q140.255 92.489 140.255 92.1722 Q140.255 91.6557 139.891 91.3302 Q139.531 91.0047 138.949 91.0047 Q138.537 91.0047 138.077 91.1479 Q137.621 91.2911 137.1 91.5819 L137.1 90.6965 Q137.63 90.4838 138.09 90.3753 Q138.55 90.2668 138.932 90.2668 Q139.939 90.2668 140.538 90.7703 Q141.137 91.2738 141.137 92.1158 Q141.137 92.5151 140.985 92.8753 Q140.837 93.2312 140.442 93.7173 Q140.334 93.8432 139.752 94.4465 Q139.17 95.0454 138.111 96.1262 Z" fill="#000000" fill-rule="evenodd" fill-opacity="1" /><path clip-path="url(#clip050)" d="M 0 0 M142.274 96.1262 L143.706 96.1262 L143.706 91.1826 L142.148 91.4951 L142.148 90.6965 L143.697 90.384 L144.574 90.384 L144.574 96.1262 L146.006 96.1262 L146.006 96.864 L142.274 96.864 L142.274 96.1262 Z" fill="#000000" fill-rule="evenodd" fill-opacity="1" /><path clip-path="url(#clip050)" d="M 0 0 M121.067 108.597 L124.127 108.597 L124.127 109.335 L120.013 109.335 L120.013 108.597 Q120.512 108.081 121.371 107.213 Q122.235 106.34 122.456 106.088 Q122.877 105.615 123.042 105.29 Q123.211 104.96 123.211 104.643 Q123.211 104.127 122.847 103.801 Q122.487 103.476 121.905 103.476 Q121.493 103.476 121.033 103.619 Q120.577 103.762 120.056 104.053 L120.056 103.168 Q120.586 102.955 121.046 102.846 Q121.506 102.738 121.888 102.738 Q122.895 102.738 123.493 103.241 Q124.092 103.745 124.092 104.587 Q124.092 104.986 123.941 105.346 Q123.793 105.702 123.398 106.188 Q123.289 106.314 122.708 106.917 Q122.126 107.516 121.067 108.597 Z" fill="#000000" fill-rule="evenodd" fill-opacity="1" /><path clip-path="url(#clip050)" d="M 0 0 M125.833 108.597 L128.893 108.597 L128.893 109.335 L124.778 109.335 L124.778 108.597 Q125.277 108.081 126.137 107.213 Q127 106.34 127.222 106.088 Q127.643 105.615 127.808 105.29 Q127.977 104.96 127.977 104.643 Q127.977 104.127 127.612 103.801 Q127.252 103.476 126.671 103.476 Q126.258 103.476 125.798 103.619 Q125.342 103.762 124.822 104.053 L124.822 103.168 Q125.351 102.955 125.811 102.846 Q126.271 102.738 126.653 102.738 Q127.66 102.738 128.259 103.241 Q128.858 103.745 128.858 104.587 Q128.858 104.986 128.706 105.346 Q128.559 105.702 128.164 106.188 Q128.055 106.314 127.473 106.917 Q126.892 107.516 125.833 108.597 Z" fill="#000000" fill-rule="evenodd" fill-opacity="1" /><path clip-path="url(#clip050)" d="M 0 0 M155.155 133.539 L158.215 133.539 L158.215 134.277 L154.101 134.277 L154.101 133.539 Q154.6 133.023 155.459 132.155 Q156.323 131.282 156.544 131.03 Q156.965 130.557 157.13 130.232 Q157.3 129.902 157.3 129.585 Q157.3 129.069 156.935 128.743 Q156.575 128.418 155.993 128.418 Q155.581 128.418 155.121 128.561 Q154.665 128.704 154.144 128.995 L154.144 128.109 Q154.674 127.897 155.134 127.788 Q155.594 127.68 155.976 127.68 Q156.983 127.68 157.582 128.183 Q158.181 128.687 158.181 129.529 Q158.181 129.928 158.029 130.288 Q157.881 130.644 157.486 131.13 Q157.378 131.256 156.796 131.859 Q156.214 132.458 155.155 133.539 Z" fill="#000000" fill-rule="evenodd" fill-opacity="1" /><path clip-path="url(#clip050)" d="M 0 0 M161.822 130.783 Q162.451 130.918 162.803 131.343 Q163.159 131.768 163.159 132.393 Q163.159 133.353 162.499 133.878 Q161.839 134.403 160.624 134.403 Q160.216 134.403 159.782 134.32 Q159.352 134.242 158.892 134.082 L158.892 133.235 Q159.257 133.448 159.691 133.557 Q160.125 133.665 160.598 133.665 Q161.423 133.665 161.852 133.339 Q162.287 133.014 162.287 132.393 Q162.287 131.82 161.883 131.499 Q161.484 131.174 160.767 131.174 L160.012 131.174 L160.012 130.453 L160.802 130.453 Q161.449 130.453 161.792 130.197 Q162.135 129.937 162.135 129.451 Q162.135 128.952 161.779 128.687 Q161.427 128.418 160.767 128.418 Q160.407 128.418 159.995 128.496 Q159.583 128.574 159.088 128.739 L159.088 127.958 Q159.587 127.819 160.021 127.749 Q160.459 127.68 160.846 127.68 Q161.844 127.68 162.425 128.136 Q163.007 128.587 163.007 129.359 Q163.007 129.898 162.699 130.271 Q162.391 130.64 161.822 130.783 Z" fill="#000000" fill-rule="evenodd" fill-opacity="1" /><circle clip-path="url(#clip052)" cx="171.145" cy="23.9821" r="3" fill="#0000ff" fill-rule="evenodd" fill-opacity="1" stroke="none"/>
<path clip-path="url(#clip050)" d="M 0 0 M171.271 21.3002 L172.703 21.3002 L172.703 16.3567 L171.145 16.6692 L171.145 15.8706 L172.694 15.5581 L173.571 15.5581 L173.571 21.3002 L175.003 21.3002 L175.003 22.0381 L171.271 22.0381 L171.271 21.3002 Z" fill="#000000" fill-rule="evenodd" fill-opacity="1" /><path clip-path="url(#clip050)" d="M 0 0 M178.61 18.5442 Q179.239 18.6787 179.591 19.104 Q179.947 19.5294 179.947 20.1544 Q179.947 21.1136 179.287 21.6388 Q178.627 22.1639 177.412 22.1639 Q177.004 22.1639 176.57 22.0815 Q176.141 22.0033 175.68 21.8427 L175.68 20.9964 Q176.045 21.2091 176.479 21.3176 Q176.913 21.4261 177.386 21.4261 Q178.211 21.4261 178.641 21.1006 Q179.075 20.775 179.075 20.1544 Q179.075 19.5815 178.671 19.2603 Q178.272 18.9348 177.555 18.9348 L176.8 18.9348 L176.8 18.2143 L177.59 18.2143 Q178.237 18.2143 178.58 17.9582 Q178.923 17.6978 178.923 17.2117 Q178.923 16.7126 178.567 16.4478 Q178.215 16.1787 177.555 16.1787 Q177.195 16.1787 176.783 16.2568 Q176.371 16.335 175.876 16.4999 L175.876 15.7186 Q176.375 15.5798 176.809 15.5103 Q177.247 15.4409 177.634 15.4409 Q178.632 15.4409 179.213 15.8966 Q179.795 16.348 179.795 17.1205 Q179.795 17.6587 179.487 18.032 Q179.179 18.4009 178.61 18.5442 Z" fill="#000000" fill-rule="evenodd" fill-opacity="1" /></svg>
