<?xml version="1.0" encoding="utf-8"?>
<svg xmlns="http://www.w3.org/2000/svg" xmlns:xlink="http://www.w3.org/1999/xlink" width="50" height="62.5" viewBox="0 0 200 250">
<defs>
  <clipPath id="clip960">
    <rect x="0" y="0" width="200" height="250"/>
  </clipPath>
</defs>
<path clip-path="url(#clip960)" d="
M0 250 L200 250 L200 0 L0 0  Z
  " fill="#ffffff" fill-rule="evenodd" fill-opacity="1"/>
<defs>
  <clipPath id="clip961">
    <rect x="50" y="25" width="176" height="176"/>
  </clipPath>
</defs>
<path clip-path="url(#clip960)" d="
M17.748 231.752 L188.189 231.752 L188.189 15.748 L17.748 15.748  Z
  " fill="#ffffff" fill-rule="evenodd" fill-opacity="1"/>
<defs>
  <clipPath id="clip962">
    <rect x="17" y="15" width="171" height="217"/>
  </clipPath>
</defs>
<polyline clip-path="url(#clip960)" style="stroke:#000000; stroke-width:1; stroke-opacity:1; fill:none" points="
  17.748,231.752 188.189,231.752 
  "/>
<polyline clip-path="url(#clip960)" style="stroke:#000000; stroke-width:1; stroke-opacity:1; fill:none" points="
  34.7921,231.752 34.7921,229.16 
  "/>
<polyline clip-path="url(#clip960)" style="stroke:#000000; stroke-width:1; stroke-opacity:1; fill:none" points="
  68.8803,231.752 68.8803,229.16 
  "/>
<polyline clip-path="url(#clip960)" style="stroke:#000000; stroke-width:1; stroke-opacity:1; fill:none" points="
  102.969,231.752 102.969,229.16 
  "/>
<polyline clip-path="url(#clip960)" style="stroke:#000000; stroke-width:1; stroke-opacity:1; fill:none" points="
  137.057,231.752 137.057,229.16 
  "/>
<polyline clip-path="url(#clip960)" style="stroke:#000000; stroke-width:1; stroke-opacity:1; fill:none" points="
  171.145,231.752 171.145,229.16 
  "/>
<path clip-path="url(#clip960)" d="M 0 0 M27.9056 239.913 L35.3245 239.913 L35.3245 240.897 L27.9056 240.897 L27.9056 239.913 Z" fill="#000000" fill-rule="evenodd" fill-opacity="1" /><path clip-path="url(#clip960)" d="M 0 0 M37.5988 243.136 L41.6787 243.136 L41.6787 244.12 L36.1926 244.12 L36.1926 243.136 Q36.8581 242.448 38.0039 241.29 Q39.1555 240.127 39.4507 239.791 Q40.012 239.161 40.2319 238.726 Q40.4576 238.287 40.4576 237.864 Q40.4576 237.176 39.9715 236.742 Q39.4912 236.308 38.7157 236.308 Q38.166 236.308 37.5525 236.498 Q36.9449 236.689 36.2505 237.077 L36.2505 235.897 Q36.9565 235.613 37.5699 235.468 Q38.1833 235.324 38.6926 235.324 Q40.0352 235.324 40.8338 235.995 Q41.6324 236.666 41.6324 237.789 Q41.6324 238.321 41.4298 238.802 Q41.2331 239.276 40.7064 239.924 Q40.5618 240.092 39.7863 240.897 Q39.0109 241.695 37.5988 243.136 Z" fill="#000000" fill-rule="evenodd" fill-opacity="1" /><path clip-path="url(#clip960)" d="M 0 0 M61.9475 239.913 L69.3664 239.913 L69.3664 240.897 L61.9475 240.897 L61.9475 239.913 Z" fill="#000000" fill-rule="evenodd" fill-opacity="1" /><path clip-path="url(#clip960)" d="M 0 0 M70.8363 243.136 L72.746 243.136 L72.746 236.545 L70.6685 236.961 L70.6685 235.897 L72.7345 235.48 L73.9034 235.48 L73.9034 243.136 L75.8131 243.136 L75.8131 244.12 L70.8363 244.12 L70.8363 243.136 Z" fill="#000000" fill-rule="evenodd" fill-opacity="1" /><path clip-path="url(#clip960)" d="M 0 0 M102.969 236.25 Q102.066 236.25 101.609 237.141 Q101.157 238.026 101.157 239.809 Q101.157 241.585 101.609 242.476 Q102.066 243.362 102.969 243.362 Q103.877 243.362 104.328 242.476 Q104.786 241.585 104.786 239.809 Q104.786 238.026 104.328 237.141 Q103.877 236.25 102.969 236.25 M102.969 235.324 Q104.421 235.324 105.185 236.475 Q105.955 237.621 105.955 239.809 Q105.955 241.99 105.185 243.142 Q104.421 244.288 102.969 244.288 Q101.516 244.288 100.746 243.142 Q99.9824 241.99 99.9824 239.809 Q99.9824 237.621 100.746 236.475 Q101.516 235.324 102.969 235.324 Z" fill="#000000" fill-rule="evenodd" fill-opacity="1" /><path clip-path="url(#clip960)" d="M 0 0 M134.652 243.136 L136.562 243.136 L136.562 236.545 L134.484 236.961 L134.484 235.897 L136.55 235.48 L137.719 235.48 L137.719 243.136 L139.629 243.136 L139.629 244.12 L134.652 244.12 L134.652 243.136 Z" fill="#000000" fill-rule="evenodd" fill-opacity="1" /><path clip-path="url(#clip960)" d="M 0 0 M169.808 243.136 L173.888 243.136 L173.888 244.12 L168.402 244.12 L168.402 243.136 Q169.067 242.448 170.213 241.29 Q171.365 240.127 171.66 239.791 Q172.221 239.161 172.441 238.726 Q172.667 238.287 172.667 237.864 Q172.667 237.176 172.181 236.742 Q171.7 236.308 170.925 236.308 Q170.375 236.308 169.762 236.498 Q169.154 236.689 168.46 237.077 L168.46 235.897 Q169.166 235.613 169.779 235.468 Q170.393 235.324 170.902 235.324 Q172.244 235.324 173.043 235.995 Q173.842 236.666 173.842 237.789 Q173.842 238.321 173.639 238.802 Q173.442 239.276 172.916 239.924 Q172.771 240.092 171.996 240.897 Q171.22 241.695 169.808 243.136 Z" fill="#000000" fill-rule="evenodd" fill-opacity="1" /><polyline clip-path="url(#clip960)" style="stroke:#000000; stroke-width:1; stroke-opacity:1; fill:none" points="
  17.748,231.752 17.748,15.748 
  "/>
<polyline clip-path="url(#clip960)" style="stroke:#000000; stroke-width:1; stroke-opacity:1; fill:none" points="
  17.748,210.152 19.7933,210.152 
  "/>
<polyline clip-path="url(#clip960)" style="stroke:#000000; stroke-width:1; stroke-opacity:1; fill:none" points="
  17.748,166.951 19.7933,166.951 
  "/>
<polyline clip-path="url(#clip960)" style="stroke:#000000; stroke-width:1; stroke-opacity:1; fill:none" points="
  17.748,123.75 19.7933,123.75 
  "/>
<polyline clip-path="url(#clip960)" style="stroke:#000000; stroke-width:1; stroke-opacity:1; fill:none" points="
  17.748,80.5492 19.7933,80.5492 
  "/>
<polyline clip-path="url(#clip960)" style="stroke:#000000; stroke-width:1; stroke-opacity:1; fill:none" points="
  17.748,37.3484 19.7933,37.3484 
  "/>
<path clip-path="url(#clip960)" d="M 0 0 M0.224957 210.264 L7.6439 210.264 L7.6439 211.248 L0.224957 211.248 L0.224957 210.264 Z" fill="#000000" fill-rule="evenodd" fill-opacity="1" /><path clip-path="url(#clip960)" d="M 0 0 M9.91819 213.488 L13.998 213.488 L13.998 214.472 L8.51195 214.472 L8.51195 213.488 Q9.17746 212.799 10.3233 211.642 Q11.4749 210.479 11.77 210.143 Q12.3314 209.512 12.5513 209.078 Q12.777 208.638 12.777 208.216 Q12.777 207.527 12.2909 207.093 Q11.8105 206.659 11.0351 206.659 Q10.4853 206.659 9.8719 206.85 Q9.26426 207.041 8.56982 207.429 L8.56982 206.248 Q9.27583 205.965 9.88926 205.82 Q10.5027 205.675 11.0119 205.675 Q12.3545 205.675 13.1531 206.347 Q13.9517 207.018 13.9517 208.141 Q13.9517 208.673 13.7492 209.153 Q13.5524 209.628 13.0258 210.276 Q12.8811 210.444 12.1057 211.248 Q11.3302 212.047 9.91819 213.488 Z" fill="#000000" fill-rule="evenodd" fill-opacity="1" /><path clip-path="url(#clip960)" d="M 0 0 M0.132365 167.064 L7.55131 167.064 L7.55131 168.047 L0.132365 168.047 L0.132365 167.064 Z" fill="#000000" fill-rule="evenodd" fill-opacity="1" /><path clip-path="url(#clip960)" d="M 0 0 M9.02121 170.287 L10.9309 170.287 L10.9309 163.696 L8.85338 164.112 L8.85338 163.047 L10.9193 162.631 L12.0883 162.631 L12.0883 170.287 L13.998 170.287 L13.998 171.271 L9.02121 171.271 L9.02121 170.287 Z" fill="#000000" fill-rule="evenodd" fill-opacity="1" /><path clip-path="url(#clip960)" d="M 0 0 M11.0119 120.2 Q10.1092 120.2 9.65199 121.091 Q9.2006 121.976 9.2006 123.759 Q9.2006 125.535 9.65199 126.426 Q10.1092 127.312 11.0119 127.312 Q11.9205 127.312 12.3719 126.426 Q12.8291 125.535 12.8291 123.759 Q12.8291 121.976 12.3719 121.091 Q11.9205 120.2 11.0119 120.2 M11.0119 119.274 Q12.4645 119.274 13.2284 120.425 Q13.998 121.571 13.998 123.759 Q13.998 125.94 13.2284 127.092 Q12.4645 128.238 11.0119 128.238 Q9.5594 128.238 8.78973 127.092 Q8.02584 125.94 8.02584 123.759 Q8.02584 121.571 8.78973 120.425 Q9.5594 119.274 11.0119 119.274 Z" fill="#000000" fill-rule="evenodd" fill-opacity="1" /><path clip-path="url(#clip960)" d="M 0 0 M9.02121 83.8854 L10.9309 83.8854 L10.9309 77.294 L8.85338 77.7107 L8.85338 76.6459 L10.9193 76.2292 L12.0883 76.2292 L12.0883 83.8854 L13.998 83.8854 L13.998 84.8692 L9.02121 84.8692 L9.02121 83.8854 Z" fill="#000000" fill-rule="evenodd" fill-opacity="1" /><path clip-path="url(#clip960)" d="M 0 0 M9.91819 40.6846 L13.998 40.6846 L13.998 41.6684 L8.51195 41.6684 L8.51195 40.6846 Q9.17746 39.996 10.3233 38.8386 Q11.4749 37.6754 11.77 37.3397 Q12.3314 36.709 12.5513 36.2749 Q12.777 35.8351 12.777 35.4127 Q12.777 34.724 12.2909 34.29 Q11.8105 33.856 11.0351 33.856 Q10.4853 33.856 9.8719 34.0469 Q9.26426 34.2379 8.56982 34.6256 L8.56982 33.4451 Q9.27583 33.1615 9.88926 33.0169 Q10.5027 32.8722 11.0119 32.8722 Q12.3545 32.8722 13.1531 33.5435 Q13.9517 34.2148 13.9517 35.3374 Q13.9517 35.8698 13.7492 36.3502 Q13.5524 36.8247 13.0258 37.4728 Q12.8811 37.6407 12.1057 38.4451 Q11.3302 39.2437 9.91819 40.6846 Z" fill="#000000" fill-rule="evenodd" fill-opacity="1" /><path clip-path="url(#clip960)" d="M 0 0 M86.1775 5.70946 Q87.0166 5.88886 87.4854 6.45598 Q87.9599 7.02311 87.9599 7.85644 Q87.9599 9.13537 87.0803 9.8356 Q86.2007 10.5358 84.5803 10.5358 Q84.0363 10.5358 83.4576 10.4259 Q82.8847 10.3217 82.2713 10.1076 L82.2713 8.97912 Q82.7574 9.26268 83.3361 9.40736 Q83.9148 9.55203 84.5456 9.55203 Q85.6451 9.55203 86.218 9.11801 Q86.7967 8.68398 86.7967 7.85644 Q86.7967 7.09255 86.2585 6.66432 Q85.7261 6.23029 84.7713 6.23029 L83.7643 6.23029 L83.7643 5.26965 L84.8176 5.26965 Q85.6798 5.26965 86.137 4.92821 Q86.5942 4.58099 86.5942 3.93285 Q86.5942 3.26734 86.1196 2.91434 Q85.6509 2.55554 84.7713 2.55554 Q84.2909 2.55554 83.7412 2.65971 Q83.1914 2.76387 82.5317 2.98378 L82.5317 1.94212 Q83.1972 1.75694 83.7759 1.66434 Q84.3604 1.57175 84.8754 1.57175 Q86.2064 1.57175 86.9819 2.17939 Q87.7574 2.78124 87.7574 3.81132 Q87.7574 4.52891 87.3465 5.02659 Q86.9356 5.51849 86.1775 5.70946 Z" fill="#000000" fill-rule="evenodd" fill-opacity="1" /><path clip-path="url(#clip960)" d="M 0 0 M93.4113 2.93748 L93.4113 6.16085 L96.6346 6.16085 L96.6346 7.14464 L93.4113 7.14464 L93.4113 10.368 L92.439 10.368 L92.439 7.14464 L89.2157 7.14464 L89.2157 6.16085 L92.439 6.16085 L92.439 2.93748 L93.4113 2.93748 Z" fill="#000000" fill-rule="evenodd" fill-opacity="1" /><path clip-path="url(#clip960)" d="M 0 0 M97.6531 1.36342 L100.107 1.36342 L100.107 2.19096 L98.7179 2.19096 L98.7179 11.1029 L100.107 11.1029 L100.107 11.9305 L97.6531 11.9305 L97.6531 1.36342 Z" fill="#000000" fill-rule="evenodd" fill-opacity="1" /><path clip-path="url(#clip960)" d="M 0 0 M103.874 2.49767 Q102.971 2.49767 102.514 3.38887 Q102.063 4.27428 102.063 6.05668 Q102.063 7.83329 102.514 8.72449 Q102.971 9.6099 103.874 9.6099 Q104.783 9.6099 105.234 8.72449 Q105.691 7.83329 105.691 6.05668 Q105.691 4.27428 105.234 3.38887 Q104.783 2.49767 103.874 2.49767 M103.874 1.57175 Q105.327 1.57175 106.091 2.72337 Q106.86 3.86919 106.86 6.05668 Q106.86 8.23838 106.091 9.39 Q105.327 10.5358 103.874 10.5358 Q102.422 10.5358 101.652 9.39 Q100.888 8.23838 100.888 6.05668 Q100.888 3.86919 101.652 2.72337 Q102.422 1.57175 103.874 1.57175 Z" fill="#000000" fill-rule="evenodd" fill-opacity="1" /><path clip-path="url(#clip960)" d="M 0 0 M110.628 2.49767 Q109.725 2.49767 109.268 3.38887 Q108.816 4.27428 108.816 6.05668 Q108.816 7.83329 109.268 8.72449 Q109.725 9.6099 110.628 9.6099 Q111.536 9.6099 111.988 8.72449 Q112.445 7.83329 112.445 6.05668 Q112.445 4.27428 111.988 3.38887 Q111.536 2.49767 110.628 2.49767 M110.628 1.57175 Q112.08 1.57175 112.844 2.72337 Q113.614 3.86919 113.614 6.05668 Q113.614 8.23838 112.844 9.39 Q112.08 10.5358 110.628 10.5358 Q109.175 10.5358 108.405 9.39 Q107.642 8.23838 107.642 6.05668 Q107.642 3.86919 108.405 2.72337 Q109.175 1.57175 110.628 1.57175 Z" fill="#000000" fill-rule="evenodd" fill-opacity="1" /><path clip-path="url(#clip960)" d="M 0 0 M115.084 9.38421 L116.993 9.38421 L116.993 2.79281 L114.916 3.20947 L114.916 2.14466 L116.982 1.728 L118.151 1.728 L118.151 9.38421 L120.06 9.38421 L120.06 10.368 L115.084 10.368 L115.084 9.38421 Z" fill="#000000" fill-rule="evenodd" fill-opacity="1" /><path clip-path="url(#clip960)" d="M 0 0 M123.666 1.36342 L123.666 11.9305 L121.212 11.9305 L121.212 11.1029 L122.595 11.1029 L122.595 2.19096 L121.212 2.19096 L121.212 1.36342 L123.666 1.36342 Z" fill="#000000" fill-rule="evenodd" fill-opacity="1" /><circle clip-path="url(#clip962)" cx="34.7921" cy="223.518" r="3" fill="#0000ff" fill-rule="evenodd" fill-opacity="1" stroke="none"/>
<path clip-path="url(#clip960)" d="M 0 0 M34.918 220.836 L36.3503 220.836 L36.3503 215.893 L34.7921 216.205 L34.7921 215.406 L36.3416 215.094 L37.2183 215.094 L37.2183 220.836 L38.6506 220.836 L38.6506 221.574 L34.918 221.574 L34.918 220.836 Z" fill="#000000" fill-rule="evenodd" fill-opacity="1" /><path clip-path="url(#clip960)" d="M 0 0 M42.2574 218.08 Q42.8867 218.215 43.2383 218.64 Q43.5942 219.065 43.5942 219.69 Q43.5942 220.649 42.9344 221.175 Q42.2747 221.7 41.0595 221.7 Q40.6515 221.7 40.2174 221.617 Q39.7878 221.539 39.3277 221.379 L39.3277 220.532 Q39.6923 220.745 40.1263 220.853 Q40.5603 220.962 41.0334 220.962 Q41.8581 220.962 42.2877 220.636 Q42.7218 220.311 42.7218 219.69 Q42.7218 219.117 42.3181 218.796 Q41.9188 218.471 41.2027 218.471 L40.4475 218.471 L40.4475 217.75 L41.2374 217.75 Q41.8841 217.75 42.227 217.494 Q42.5699 217.234 42.5699 216.748 Q42.5699 216.248 42.214 215.984 Q41.8624 215.715 41.2027 215.715 Q40.8424 215.715 40.4301 215.793 Q40.0178 215.871 39.523 216.036 L39.523 215.255 Q40.0221 215.116 40.4562 215.046 Q40.8945 214.977 41.2808 214.977 Q42.2791 214.977 42.8607 215.432 Q43.4423 215.884 43.4423 216.656 Q43.4423 217.195 43.1341 217.568 Q42.8259 217.937 42.2574 218.08 Z" fill="#000000" fill-rule="evenodd" fill-opacity="1" /><circle clip-path="url(#clip962)" cx="85.9244" cy="111.279" r="3" fill="#0000ff" fill-rule="evenodd" fill-opacity="1" stroke="none"/>
<circle clip-path="url(#clip962)" cx="68.8803" cy="223.518" r="3" fill="#0000ff" fill-rule="evenodd" fill-opacity="1" stroke="none"/>
<circle clip-path="url(#clip962)" cx="85.9244" cy="211.047" r="3" fill="#0000ff" fill-rule="evenodd" fill-opacity="1" stroke="none"/>
<circle clip-path="url(#clip962)" cx="51.8362" cy="186.105" r="3" fill="#0000ff" fill-rule="evenodd" fill-opacity="1" stroke="none"/>
<circle clip-path="url(#clip962)" cx="68.8803" cy="173.634" r="3" fill="#0000ff" fill-rule="evenodd" fill-opacity="1" stroke="none"/>
<circle clip-path="url(#clip962)" cx="34.7921" cy="148.692" r="3" fill="#0000ff" fill-rule="evenodd" fill-opacity="1" stroke="none"/>
<circle clip-path="url(#clip962)" cx="51.8362" cy="136.221" r="3" fill="#0000ff" fill-rule="evenodd" fill-opacity="1" stroke="none"/>
<circle clip-path="url(#clip962)" cx="17.748" cy="111.279" r="3" fill="#0000ff" fill-rule="evenodd" fill-opacity="1" stroke="none"/>
<circle clip-path="url(#clip962)" cx="34.7921" cy="98.808" r="3" fill="#0000ff" fill-rule="evenodd" fill-opacity="1" stroke="none"/>
<circle clip-path="url(#clip962)" cx="102.969" cy="148.692" r="3" fill="#0000ff" fill-rule="evenodd" fill-opacity="1" stroke="none"/>
<circle clip-path="url(#clip962)" cx="17.748" cy="211.047" r="3" fill="#0000ff" fill-rule="evenodd" fill-opacity="1" stroke="none"/>
<circle clip-path="url(#clip962)" cx="34.7921" cy="73.866" r="3" fill="#0000ff" fill-rule="evenodd" fill-opacity="1" stroke="none"/>
<circle clip-path="url(#clip962)" cx="51.8362" cy="211.047" r="3" fill="#0000ff" fill-rule="evenodd" fill-opacity="1" stroke="none"/>
<circle clip-path="url(#clip962)" cx="17.748" cy="186.105" r="3" fill="#0000ff" fill-rule="evenodd" fill-opacity="1" stroke="none"/>
<circle clip-path="url(#clip962)" cx="34.7921" cy="173.634" r="3" fill="#0000ff" fill-rule="evenodd" fill-opacity="1" stroke="none"/>
<circle clip-path="url(#clip962)" cx="102.969" cy="223.518" r="3" fill="#0000ff" fill-rule="evenodd" fill-opacity="1" stroke="none"/>
<circle clip-path="url(#clip962)" cx="17.748" cy="136.221" r="3" fill="#0000ff" fill-rule="evenodd" fill-opacity="1" stroke="none"/>
<circle clip-path="url(#clip962)" cx="85.9244" cy="186.105" r="3" fill="#0000ff" fill-rule="evenodd" fill-opacity="1" stroke="none"/>
<circle clip-path="url(#clip962)" cx="102.969" cy="173.634" r="3" fill="#0000ff" fill-rule="evenodd" fill-opacity="1" stroke="none"/>
<circle clip-path="url(#clip962)" cx="68.8803" cy="148.692" r="3" fill="#0000ff" fill-rule="evenodd" fill-opacity="1" stroke="none"/>
<circle clip-path="url(#clip962)" cx="85.9244" cy="136.221" r="3" fill="#0000ff" fill-rule="evenodd" fill-opacity="1" stroke="none"/>
<circle clip-path="url(#clip962)" cx="51.8362" cy="111.279" r="3" fill="#0000ff" fill-rule="evenodd" fill-opacity="1" stroke="none"/>
<path clip-path="url(#clip960)" d="M 0 0 M86.0503 108.597 L87.4826 108.597 L87.4826 103.654 L85.9244 103.966 L85.9244 103.168 L87.4739 102.855 L88.3506 102.855 L88.3506 108.597 L89.7829 108.597 L89.7829 109.335 L86.0503 109.335 L86.0503 108.597 Z" fill="#000000" fill-rule="evenodd" fill-opacity="1" /><path clip-path="url(#clip960)" d="M 0 0 M71.81 218.08 Q72.4393 218.215 72.7909 218.64 Q73.1468 219.065 73.1468 219.69 Q73.1468 220.649 72.4871 221.175 Q71.8273 221.7 70.6121 221.7 Q70.2041 221.7 69.7701 221.617 Q69.3404 221.539 68.8803 221.379 L68.8803 220.532 Q69.2449 220.745 69.6789 220.853 Q70.1129 220.962 70.586 220.962 Q71.4107 220.962 71.8404 220.636 Q72.2744 220.311 72.2744 219.69 Q72.2744 219.117 71.8708 218.796 Q71.4714 218.471 70.7553 218.471 L70.0001 218.471 L70.0001 217.75 L70.79 217.75 Q71.4367 217.75 71.7796 217.494 Q72.1225 217.234 72.1225 216.748 Q72.1225 216.248 71.7666 215.984 Q71.415 215.715 70.7553 215.715 Q70.3951 215.715 69.9827 215.793 Q69.5704 215.871 69.0756 216.036 L69.0756 215.255 Q69.5748 215.116 70.0088 215.046 Q70.4471 214.977 70.8334 214.977 Q71.8317 214.977 72.4133 215.432 Q72.9949 215.884 72.9949 216.656 Q72.9949 217.195 72.6867 217.568 Q72.3786 217.937 71.81 218.08 Z" fill="#000000" fill-rule="evenodd" fill-opacity="1" /><path clip-path="url(#clip960)" d="M 0 0 M88.8497 203.387 L86.6362 206.846 L88.8497 206.846 L88.8497 203.387 M88.6197 202.623 L89.7221 202.623 L89.7221 206.846 L90.6466 206.846 L90.6466 207.575 L89.7221 207.575 L89.7221 209.103 L88.8497 209.103 L88.8497 207.575 L85.9244 207.575 L85.9244 206.729 L88.6197 202.623 Z" fill="#000000" fill-rule="evenodd" fill-opacity="1" /><path clip-path="url(#clip960)" d="M 0 0 M52.1097 177.681 L55.5515 177.681 L55.5515 178.419 L52.9126 178.419 L52.9126 180.007 Q53.1036 179.942 53.2945 179.912 Q53.4855 179.877 53.6765 179.877 Q54.7616 179.877 55.3952 180.472 Q56.0289 181.066 56.0289 182.082 Q56.0289 183.128 55.3779 183.71 Q54.7268 184.287 53.5419 184.287 Q53.134 184.287 52.7086 184.217 Q52.2876 184.148 51.8362 184.009 L51.8362 183.128 Q52.2268 183.341 52.6435 183.445 Q53.0602 183.549 53.5246 183.549 Q54.2754 183.549 54.7138 183.154 Q55.1522 182.759 55.1522 182.082 Q55.1522 181.405 54.7138 181.01 Q54.2754 180.615 53.5246 180.615 Q53.173 180.615 52.8215 180.693 Q52.4742 180.771 52.1097 180.936 L52.1097 177.681 Z" fill="#000000" fill-rule="evenodd" fill-opacity="1" /><path clip-path="url(#clip960)" d="M 0 0 M71.1937 168.101 Q70.6034 168.101 70.2562 168.504 Q69.9133 168.908 69.9133 169.611 Q69.9133 170.31 70.2562 170.718 Q70.6034 171.121 71.1937 171.121 Q71.7839 171.121 72.1268 170.718 Q72.474 170.31 72.474 169.611 Q72.474 168.908 72.1268 168.504 Q71.7839 168.101 71.1937 168.101 M72.9341 165.353 L72.9341 166.152 Q72.6043 165.996 72.2657 165.913 Q71.9315 165.831 71.6017 165.831 Q70.7336 165.831 70.2735 166.417 Q69.8178 167.002 69.7527 168.187 Q70.0088 167.81 70.3951 167.61 Q70.7813 167.406 71.2458 167.406 Q72.2223 167.406 72.7865 168.001 Q73.3551 168.591 73.3551 169.611 Q73.3551 170.609 72.7648 171.213 Q72.1746 171.816 71.1937 171.816 Q70.0695 171.816 69.4749 170.956 Q68.8803 170.093 68.8803 168.456 Q68.8803 166.92 69.6095 166.009 Q70.3386 165.093 71.5669 165.093 Q71.8968 165.093 72.231 165.158 Q72.5695 165.223 72.9341 165.353 Z" fill="#000000" fill-rule="evenodd" fill-opacity="1" /><path clip-path="url(#clip960)" d="M 0 0 M34.7921 140.268 L38.9588 140.268 L38.9588 140.641 L36.6064 146.748 L35.6906 146.748 L37.9041 141.006 L34.7921 141.006 L34.7921 140.268 Z" fill="#000000" fill-rule="evenodd" fill-opacity="1" /><path clip-path="url(#clip960)" d="M 0 0 M54.0584 131.2 Q53.4334 131.2 53.0732 131.534 Q52.7173 131.868 52.7173 132.454 Q52.7173 133.04 53.0732 133.374 Q53.4334 133.708 54.0584 133.708 Q54.6834 133.708 55.0437 133.374 Q55.4039 133.036 55.4039 132.454 Q55.4039 131.868 55.0437 131.534 Q54.6878 131.2 54.0584 131.2 M53.1817 130.826 Q52.6175 130.688 52.3006 130.301 Q51.9881 129.915 51.9881 129.359 Q51.9881 128.583 52.5393 128.131 Q53.0949 127.68 54.0584 127.68 Q55.0263 127.68 55.5775 128.131 Q56.1287 128.583 56.1287 129.359 Q56.1287 129.915 55.8119 130.301 Q55.4994 130.688 54.9395 130.826 Q55.5732 130.974 55.9247 131.404 Q56.2806 131.833 56.2806 132.454 Q56.2806 133.396 55.7034 133.899 Q55.1305 134.403 54.0584 134.403 Q52.9864 134.403 52.4091 133.899 Q51.8362 133.396 51.8362 132.454 Q51.8362 131.833 52.1921 131.404 Q52.548 130.974 53.1817 130.826 M52.8605 129.442 Q52.8605 129.945 53.173 130.228 Q53.4899 130.51 54.0584 130.51 Q54.6227 130.51 54.9395 130.228 Q55.2607 129.945 55.2607 129.442 Q55.2607 128.938 54.9395 128.656 Q54.6227 128.374 54.0584 128.374 Q53.4899 128.374 53.173 128.656 Q52.8605 128.938 52.8605 129.442 Z" fill="#000000" fill-rule="evenodd" fill-opacity="1" /><path clip-path="url(#clip960)" d="M 0 0 M18.1647 109.2 L18.1647 108.402 Q18.4946 108.558 18.8331 108.641 Q19.1716 108.723 19.4972 108.723 Q20.3652 108.723 20.8209 108.141 Q21.281 107.556 21.3461 106.366 Q21.0944 106.74 20.7081 106.939 Q20.3218 107.139 19.8531 107.139 Q18.8808 107.139 18.3123 106.553 Q17.748 105.963 17.748 104.943 Q17.748 103.944 18.3383 103.341 Q18.9286 102.738 19.9095 102.738 Q21.0336 102.738 21.6239 103.602 Q22.2185 104.461 22.2185 106.102 Q22.2185 107.634 21.4893 108.549 Q20.7645 109.461 19.5362 109.461 Q19.2064 109.461 18.8678 109.396 Q18.5293 109.331 18.1647 109.2 M19.9095 106.453 Q20.4998 106.453 20.8426 106.049 Q21.1899 105.646 21.1899 104.943 Q21.1899 104.244 20.8426 103.84 Q20.4998 103.432 19.9095 103.432 Q19.3192 103.432 18.972 103.84 Q18.6291 104.244 18.6291 104.943 Q18.6291 105.646 18.972 106.049 Q19.3192 106.453 19.9095 106.453 Z" fill="#000000" fill-rule="evenodd" fill-opacity="1" /><path clip-path="url(#clip960)" d="M 0 0 M34.918 96.1262 L36.3503 96.1262 L36.3503 91.1826 L34.7921 91.4951 L34.7921 90.6965 L36.3416 90.384 L37.2183 90.384 L37.2183 96.1262 L38.6506 96.1262 L38.6506 96.864 L34.918 96.864 L34.918 96.1262 Z" fill="#000000" fill-rule="evenodd" fill-opacity="1" /><path clip-path="url(#clip960)" d="M 0 0 M41.4761 90.9613 Q40.799 90.9613 40.4562 91.6297 Q40.1176 92.2937 40.1176 93.6305 Q40.1176 94.963 40.4562 95.6314 Q40.799 96.2954 41.4761 96.2954 Q42.1575 96.2954 42.4961 95.6314 Q42.839 94.963 42.839 93.6305 Q42.839 92.2937 42.4961 91.6297 Q42.1575 90.9613 41.4761 90.9613 M41.4761 90.2668 Q42.5655 90.2668 43.1384 91.1305 Q43.7157 91.9899 43.7157 93.6305 Q43.7157 95.2668 43.1384 96.1305 Q42.5655 96.9899 41.4761 96.9899 Q40.3867 96.9899 39.8095 96.1305 Q39.2365 95.2668 39.2365 93.6305 Q39.2365 91.9899 39.8095 91.1305 Q40.3867 90.2668 41.4761 90.2668 Z" fill="#000000" fill-rule="evenodd" fill-opacity="1" /><path clip-path="url(#clip960)" d="M 0 0 M103.094 146.01 L104.527 146.01 L104.527 141.067 L102.969 141.379 L102.969 140.58 L104.518 140.268 L105.395 140.268 L105.395 146.01 L106.827 146.01 L106.827 146.748 L103.094 146.748 L103.094 146.01 Z" fill="#000000" fill-rule="evenodd" fill-opacity="1" /><path clip-path="url(#clip960)" d="M 0 0 M107.929 146.01 L109.362 146.01 L109.362 141.067 L107.804 141.379 L107.804 140.58 L109.353 140.268 L110.23 140.268 L110.23 146.01 L111.662 146.01 L111.662 146.748 L107.929 146.748 L107.929 146.01 Z" fill="#000000" fill-rule="evenodd" fill-opacity="1" /><path clip-path="url(#clip960)" d="M 0 0 M17.8739 208.365 L19.3062 208.365 L19.3062 203.422 L17.748 203.734 L17.748 202.935 L19.2975 202.623 L20.1742 202.623 L20.1742 208.365 L21.6065 208.365 L21.6065 209.103 L17.8739 209.103 L17.8739 208.365 Z" fill="#000000" fill-rule="evenodd" fill-opacity="1" /><path clip-path="url(#clip960)" d="M 0 0 M23.3122 208.365 L26.3721 208.365 L26.3721 209.103 L22.2576 209.103 L22.2576 208.365 Q22.7567 207.849 23.6161 206.981 Q24.4798 206.108 24.7011 205.856 Q25.1221 205.383 25.2871 205.058 Q25.4563 204.728 25.4563 204.411 Q25.4563 203.895 25.0917 203.569 Q24.7315 203.244 24.1499 203.244 Q23.7376 203.244 23.2775 203.387 Q22.8218 203.53 22.301 203.821 L22.301 202.935 Q22.8305 202.723 23.2905 202.614 Q23.7506 202.506 24.1325 202.506 Q25.1395 202.506 25.7384 203.009 Q26.3374 203.513 26.3374 204.355 Q26.3374 204.754 26.1855 205.114 Q26.0379 205.47 25.643 205.956 Q25.5344 206.082 24.9529 206.685 Q24.3713 207.284 23.3122 208.365 Z" fill="#000000" fill-rule="evenodd" fill-opacity="1" /><path clip-path="url(#clip960)" d="M 0 0 M34.918 71.1842 L36.3503 71.1842 L36.3503 66.2406 L34.7921 66.5531 L34.7921 65.7545 L36.3416 65.442 L37.2183 65.442 L37.2183 71.1842 L38.6506 71.1842 L38.6506 71.922 L34.918 71.922 L34.918 71.1842 Z" fill="#000000" fill-rule="evenodd" fill-opacity="1" /><path clip-path="url(#clip960)" d="M 0 0 M42.2574 68.4281 Q42.8867 68.5627 43.2383 68.988 Q43.5942 69.4134 43.5942 70.0384 Q43.5942 70.9976 42.9344 71.5227 Q42.2747 72.0479 41.0595 72.0479 Q40.6515 72.0479 40.2174 71.9654 Q39.7878 71.8873 39.3277 71.7267 L39.3277 70.8804 Q39.6923 71.093 40.1263 71.2015 Q40.5603 71.3101 41.0334 71.3101 Q41.8581 71.3101 42.2877 70.9845 Q42.7218 70.659 42.7218 70.0384 Q42.7218 69.4654 42.3181 69.1443 Q41.9188 68.8187 41.2027 68.8187 L40.4475 68.8187 L40.4475 68.0983 L41.2374 68.0983 Q41.8841 68.0983 42.227 67.8422 Q42.5699 67.5818 42.5699 67.0957 Q42.5699 66.5965 42.214 66.3318 Q41.8624 66.0627 41.2027 66.0627 Q40.8424 66.0627 40.4301 66.1408 Q40.0178 66.2189 39.523 66.3839 L39.523 65.6026 Q40.0221 65.4637 40.4562 65.3943 Q40.8945 65.3248 41.2808 65.3248 Q42.2791 65.3248 42.8607 65.7806 Q43.4423 66.232 43.4423 67.0045 Q43.4423 67.5427 43.1341 67.916 Q42.8259 68.2849 42.2574 68.4281 Z" fill="#000000" fill-rule="evenodd" fill-opacity="1" /><path clip-path="url(#clip960)" d="M 0 0 M51.9621 208.365 L53.3944 208.365 L53.3944 203.422 L51.8362 203.734 L51.8362 202.935 L53.3857 202.623 L54.2624 202.623 L54.2624 208.365 L55.6947 208.365 L55.6947 209.103 L51.9621 209.103 L51.9621 208.365 Z" fill="#000000" fill-rule="evenodd" fill-opacity="1" /><path clip-path="url(#clip960)" d="M 0 0 M59.0541 203.387 L56.8405 206.846 L59.0541 206.846 L59.0541 203.387 M58.824 202.623 L59.9265 202.623 L59.9265 206.846 L60.8509 206.846 L60.8509 207.575 L59.9265 207.575 L59.9265 209.103 L59.0541 209.103 L59.0541 207.575 L56.1287 207.575 L56.1287 206.729 L58.824 202.623 Z" fill="#000000" fill-rule="evenodd" fill-opacity="1" /><path clip-path="url(#clip960)" d="M 0 0 M17.8739 183.423 L19.3062 183.423 L19.3062 178.48 L17.748 178.792 L17.748 177.993 L19.2975 177.681 L20.1742 177.681 L20.1742 183.423 L21.6065 183.423 L21.6065 184.161 L17.8739 184.161 L17.8739 183.423 Z" fill="#000000" fill-rule="evenodd" fill-opacity="1" /><path clip-path="url(#clip960)" d="M 0 0 M22.5657 177.681 L26.0075 177.681 L26.0075 178.419 L23.3687 178.419 L23.3687 180.007 Q23.5596 179.942 23.7506 179.912 Q23.9416 179.877 24.1325 179.877 Q25.2176 179.877 25.8513 180.472 Q26.485 181.066 26.485 182.082 Q26.485 183.128 25.8339 183.71 Q25.1829 184.287 23.998 184.287 Q23.59 184.287 23.1647 184.217 Q22.7437 184.148 22.2923 184.009 L22.2923 183.128 Q22.6829 183.341 23.0996 183.445 Q23.5162 183.549 23.9806 183.549 Q24.7315 183.549 25.1699 183.154 Q25.6082 182.759 25.6082 182.082 Q25.6082 181.405 25.1699 181.01 Q24.7315 180.615 23.9806 180.615 Q23.6291 180.615 23.2775 180.693 Q22.9303 180.771 22.5657 180.936 L22.5657 177.681 Z" fill="#000000" fill-rule="evenodd" fill-opacity="1" /><path clip-path="url(#clip960)" d="M 0 0 M34.918 170.952 L36.3503 170.952 L36.3503 166.009 L34.7921 166.321 L34.7921 165.522 L36.3416 165.21 L37.2183 165.21 L37.2183 170.952 L38.6506 170.952 L38.6506 171.69 L34.918 171.69 L34.918 170.952 Z" fill="#000000" fill-rule="evenodd" fill-opacity="1" /><path clip-path="url(#clip960)" d="M 0 0 M41.5846 168.101 Q40.9943 168.101 40.6471 168.504 Q40.3042 168.908 40.3042 169.611 Q40.3042 170.31 40.6471 170.718 Q40.9943 171.121 41.5846 171.121 Q42.1749 171.121 42.5178 170.718 Q42.865 170.31 42.865 169.611 Q42.865 168.908 42.5178 168.504 Q42.1749 168.101 41.5846 168.101 M43.3251 165.353 L43.3251 166.152 Q42.9952 165.996 42.6567 165.913 Q42.3225 165.831 41.9926 165.831 Q41.1246 165.831 40.6645 166.417 Q40.2088 167.002 40.1437 168.187 Q40.3997 167.81 40.786 167.61 Q41.1723 167.406 41.6367 167.406 Q42.6133 167.406 43.1775 168.001 Q43.7461 168.591 43.7461 169.611 Q43.7461 170.609 43.1558 171.213 Q42.5655 171.816 41.5846 171.816 Q40.4605 171.816 39.8659 170.956 Q39.2713 170.093 39.2713 168.456 Q39.2713 166.92 40.0004 166.009 Q40.7296 165.093 41.9579 165.093 Q42.2877 165.093 42.6219 165.158 Q42.9605 165.223 43.3251 165.353 Z" fill="#000000" fill-rule="evenodd" fill-opacity="1" /><path clip-path="url(#clip960)" d="M 0 0 M103.094 220.836 L104.527 220.836 L104.527 215.893 L102.969 216.205 L102.969 215.406 L104.518 215.094 L105.395 215.094 L105.395 220.836 L106.827 220.836 L106.827 221.574 L103.094 221.574 L103.094 220.836 Z" fill="#000000" fill-rule="evenodd" fill-opacity="1" /><path clip-path="url(#clip960)" d="M 0 0 M107.556 215.094 L111.723 215.094 L111.723 215.467 L109.37 221.574 L108.455 221.574 L110.668 215.832 L107.556 215.832 L107.556 215.094 Z" fill="#000000" fill-rule="evenodd" fill-opacity="1" /><path clip-path="url(#clip960)" d="M 0 0 M17.8739 133.539 L19.3062 133.539 L19.3062 128.596 L17.748 128.908 L17.748 128.109 L19.2975 127.797 L20.1742 127.797 L20.1742 133.539 L21.6065 133.539 L21.6065 134.277 L17.8739 134.277 L17.8739 133.539 Z" fill="#000000" fill-rule="evenodd" fill-opacity="1" /><path clip-path="url(#clip960)" d="M 0 0 M24.432 131.2 Q23.807 131.2 23.4468 131.534 Q23.0909 131.868 23.0909 132.454 Q23.0909 133.04 23.4468 133.374 Q23.807 133.708 24.432 133.708 Q25.057 133.708 25.4173 133.374 Q25.7775 133.036 25.7775 132.454 Q25.7775 131.868 25.4173 131.534 Q25.0614 131.2 24.432 131.2 M23.5553 130.826 Q22.9911 130.688 22.6742 130.301 Q22.3617 129.915 22.3617 129.359 Q22.3617 128.583 22.9129 128.131 Q23.4685 127.68 24.432 127.68 Q25.3999 127.68 25.9511 128.131 Q26.5023 128.583 26.5023 129.359 Q26.5023 129.915 26.1855 130.301 Q25.873 130.688 25.3131 130.826 Q25.9468 130.974 26.2983 131.404 Q26.6542 131.833 26.6542 132.454 Q26.6542 133.396 26.077 133.899 Q25.5041 134.403 24.432 134.403 Q23.36 134.403 22.7827 133.899 Q22.2098 133.396 22.2098 132.454 Q22.2098 131.833 22.5657 131.404 Q22.9216 130.974 23.5553 130.826 M23.2341 129.442 Q23.2341 129.945 23.5466 130.228 Q23.8635 130.51 24.432 130.51 Q24.9963 130.51 25.3131 130.228 Q25.6343 129.945 25.6343 129.442 Q25.6343 128.938 25.3131 128.656 Q24.9963 128.374 24.432 128.374 Q23.8635 128.374 23.5466 128.656 Q23.2341 128.938 23.2341 129.442 Z" fill="#000000" fill-rule="evenodd" fill-opacity="1" /><path clip-path="url(#clip960)" d="M 0 0 M86.0503 183.423 L87.4826 183.423 L87.4826 178.48 L85.9244 178.792 L85.9244 177.993 L87.4739 177.681 L88.3506 177.681 L88.3506 183.423 L89.7829 183.423 L89.7829 184.161 L86.0503 184.161 L86.0503 183.423 Z" fill="#000000" fill-rule="evenodd" fill-opacity="1" /><path clip-path="url(#clip960)" d="M 0 0 M90.7595 184.026 L90.7595 183.228 Q91.0893 183.384 91.4279 183.467 Q91.7664 183.549 92.0919 183.549 Q92.96 183.549 93.4157 182.967 Q93.8758 182.381 93.9409 181.192 Q93.6891 181.565 93.3028 181.765 Q92.9166 181.965 92.4478 181.965 Q91.4756 181.965 90.907 181.379 Q90.3428 180.789 90.3428 179.769 Q90.3428 178.77 90.9331 178.167 Q91.5233 177.564 92.5042 177.564 Q93.6284 177.564 94.2186 178.427 Q94.8133 179.287 94.8133 180.927 Q94.8133 182.46 94.0841 183.375 Q93.3593 184.287 92.131 184.287 Q91.8011 184.287 91.4626 184.222 Q91.124 184.157 90.7595 184.026 M92.5042 181.279 Q93.0945 181.279 93.4374 180.875 Q93.7846 180.472 93.7846 179.769 Q93.7846 179.07 93.4374 178.666 Q93.0945 178.258 92.5042 178.258 Q91.914 178.258 91.5667 178.666 Q91.2239 179.07 91.2239 179.769 Q91.2239 180.472 91.5667 180.875 Q91.914 181.279 92.5042 181.279 Z" fill="#000000" fill-rule="evenodd" fill-opacity="1" /><path clip-path="url(#clip960)" d="M 0 0 M104.023 170.952 L107.083 170.952 L107.083 171.69 L102.969 171.69 L102.969 170.952 Q103.468 170.436 104.327 169.568 Q105.191 168.695 105.412 168.443 Q105.833 167.97 105.998 167.645 Q106.167 167.315 106.167 166.998 Q106.167 166.482 105.803 166.156 Q105.442 165.831 104.861 165.831 Q104.449 165.831 103.988 165.974 Q103.533 166.117 103.012 166.408 L103.012 165.522 Q103.541 165.31 104.001 165.201 Q104.462 165.093 104.843 165.093 Q105.85 165.093 106.449 165.596 Q107.048 166.1 107.048 166.942 Q107.048 167.341 106.896 167.701 Q106.749 168.057 106.354 168.543 Q106.245 168.669 105.664 169.272 Q105.082 169.871 104.023 170.952 Z" fill="#000000" fill-rule="evenodd" fill-opacity="1" /><path clip-path="url(#clip960)" d="M 0 0 M109.909 165.787 Q109.231 165.787 108.889 166.456 Q108.55 167.12 108.55 168.456 Q108.55 169.789 108.889 170.457 Q109.231 171.121 109.909 171.121 Q110.59 171.121 110.929 170.457 Q111.271 169.789 111.271 168.456 Q111.271 167.12 110.929 166.456 Q110.59 165.787 109.909 165.787 M109.909 165.093 Q110.998 165.093 111.571 165.956 Q112.148 166.816 112.148 168.456 Q112.148 170.093 111.571 170.956 Q110.998 171.816 109.909 171.816 Q108.819 171.816 108.242 170.956 Q107.669 170.093 107.669 168.456 Q107.669 166.816 108.242 165.956 Q108.819 165.093 109.909 165.093 Z" fill="#000000" fill-rule="evenodd" fill-opacity="1" /><path clip-path="url(#clip960)" d="M 0 0 M69.935 146.01 L72.9949 146.01 L72.9949 146.748 L68.8803 146.748 L68.8803 146.01 Q69.3794 145.494 70.2388 144.626 Q71.1025 143.753 71.3239 143.501 Q71.7449 143.028 71.9098 142.703 Q72.0791 142.373 72.0791 142.056 Q72.0791 141.54 71.7145 141.214 Q71.3543 140.889 70.7727 140.889 Q70.3603 140.889 69.9003 141.032 Q69.4445 141.175 68.9237 141.466 L68.9237 140.58 Q69.4532 140.368 69.9133 140.259 Q70.3734 140.151 70.7553 140.151 Q71.7622 140.151 72.3612 140.654 Q72.9602 141.158 72.9602 142 Q72.9602 142.399 72.8082 142.759 Q72.6607 143.115 72.2657 143.601 Q72.1572 143.727 71.5756 144.33 Q70.994 144.929 69.935 146.01 Z" fill="#000000" fill-rule="evenodd" fill-opacity="1" /><path clip-path="url(#clip960)" d="M 0 0 M74.0973 146.01 L75.5296 146.01 L75.5296 141.067 L73.9714 141.379 L73.9714 140.58 L75.5209 140.268 L76.3976 140.268 L76.3976 146.01 L77.8299 146.01 L77.8299 146.748 L74.0973 146.748 L74.0973 146.01 Z" fill="#000000" fill-rule="evenodd" fill-opacity="1" /><path clip-path="url(#clip960)" d="M 0 0 M86.9791 133.539 L90.039 133.539 L90.039 134.277 L85.9244 134.277 L85.9244 133.539 Q86.4235 133.023 87.2829 132.155 Q88.1466 131.282 88.368 131.03 Q88.789 130.557 88.9539 130.232 Q89.1232 129.902 89.1232 129.585 Q89.1232 129.069 88.7586 128.743 Q88.3984 128.418 87.8168 128.418 Q87.4044 128.418 86.9444 128.561 Q86.4886 128.704 85.9678 128.995 L85.9678 128.109 Q86.4973 127.897 86.9574 127.788 Q87.4175 127.68 87.7994 127.68 Q88.8063 127.68 89.4053 128.183 Q90.0042 128.687 90.0042 129.529 Q90.0042 129.928 89.8523 130.288 Q89.7048 130.644 89.3098 131.13 Q89.2013 131.256 88.6197 131.859 Q88.0381 132.458 86.9791 133.539 Z" fill="#000000" fill-rule="evenodd" fill-opacity="1" /><path clip-path="url(#clip960)" d="M 0 0 M91.7447 133.539 L94.8046 133.539 L94.8046 134.277 L90.69 134.277 L90.69 133.539 Q91.1891 133.023 92.0485 132.155 Q92.9122 131.282 93.1336 131.03 Q93.5546 130.557 93.7195 130.232 Q93.8888 129.902 93.8888 129.585 Q93.8888 129.069 93.5242 128.743 Q93.164 128.418 92.5824 128.418 Q92.17 128.418 91.71 128.561 Q91.2542 128.704 90.7334 128.995 L90.7334 128.109 Q91.2629 127.897 91.723 127.788 Q92.1831 127.68 92.565 127.68 Q93.5719 127.68 94.1709 128.183 Q94.7698 128.687 94.7698 129.529 Q94.7698 129.928 94.6179 130.288 Q94.4704 130.644 94.0754 131.13 Q93.9669 131.256 93.3853 131.859 Q92.8037 132.458 91.7447 133.539 Z" fill="#000000" fill-rule="evenodd" fill-opacity="1" /><path clip-path="url(#clip960)" d="M 0 0 M52.8909 108.597 L55.9508 108.597 L55.9508 109.335 L51.8362 109.335 L51.8362 108.597 Q52.3353 108.081 53.1947 107.213 Q54.0584 106.34 54.2798 106.088 Q54.7008 105.615 54.8657 105.29 Q55.035 104.96 55.035 104.643 Q55.035 104.127 54.6704 103.801 Q54.3102 103.476 53.7286 103.476 Q53.3162 103.476 52.8562 103.619 Q52.4005 103.762 51.8796 104.053 L51.8796 103.168 Q52.4091 102.955 52.8692 102.846 Q53.3293 102.738 53.7112 102.738 Q54.7181 102.738 55.3171 103.241 Q55.9161 103.745 55.9161 104.587 Q55.9161 104.986 55.7642 105.346 Q55.6166 105.702 55.2216 106.188 Q55.1131 106.314 54.5315 106.917 Q53.9499 107.516 52.8909 108.597 Z" fill="#000000" fill-rule="evenodd" fill-opacity="1" /><path clip-path="url(#clip960)" d="M 0 0 M59.5575 105.841 Q60.1869 105.976 60.5384 106.401 Q60.8943 106.826 60.8943 107.451 Q60.8943 108.411 60.2346 108.936 Q59.5749 109.461 58.3596 109.461 Q57.9516 109.461 57.5176 109.378 Q57.0879 109.3 56.6279 109.14 L56.6279 108.293 Q56.9924 108.506 57.4265 108.615 Q57.8605 108.723 58.3336 108.723 Q59.1582 108.723 59.5879 108.398 Q60.0219 108.072 60.0219 107.451 Q60.0219 106.878 59.6183 106.557 Q59.219 106.232 58.5029 106.232 L57.7476 106.232 L57.7476 105.511 L58.5376 105.511 Q59.1843 105.511 59.5272 105.255 Q59.87 104.995 59.87 104.509 Q59.87 104.01 59.5141 103.745 Q59.1626 103.476 58.5029 103.476 Q58.1426 103.476 57.7303 103.554 Q57.318 103.632 56.8232 103.797 L56.8232 103.016 Q57.3223 102.877 57.7563 102.807 Q58.1947 102.738 58.581 102.738 Q59.5792 102.738 60.1608 103.194 Q60.7424 103.645 60.7424 104.417 Q60.7424 104.956 60.4343 105.329 Q60.1261 105.698 59.5575 105.841 Z" fill="#000000" fill-rule="evenodd" fill-opacity="1" /><circle clip-path="url(#clip962)" cx="102.969" cy="98.808" r="3" fill="#0000ff" fill-rule="evenodd" fill-opacity="1" stroke="none"/>
<circle clip-path="url(#clip962)" cx="68.8803" cy="73.866" r="3" fill="#0000ff" fill-rule="evenodd" fill-opacity="1" stroke="none"/>
<circle clip-path="url(#clip962)" cx="85.9244" cy="61.395" r="3" fill="#0000ff" fill-rule="evenodd" fill-opacity="1" stroke="none"/>
<circle clip-path="url(#clip962)" cx="51.8362" cy="36.453" r="3" fill="#0000ff" fill-rule="evenodd" fill-opacity="1" stroke="none"/>
<circle clip-path="url(#clip962)" cx="68.8803" cy="23.9821" r="3" fill="#0000ff" fill-rule="evenodd" fill-opacity="1" stroke="none"/>
<circle clip-path="url(#clip962)" cx="17.748" cy="61.395" r="3" fill="#0000ff" fill-rule="evenodd" fill-opacity="1" stroke="none"/>
<circle clip-path="url(#clip962)" cx="51.8362" cy="61.395" r="3" fill="#0000ff" fill-rule="evenodd" fill-opacity="1" stroke="none"/>
<circle clip-path="url(#clip962)" cx="17.748" cy="36.453" r="3" fill="#0000ff" fill-rule="evenodd" fill-opacity="1" stroke="none"/>
<circle clip-path="url(#clip962)" cx="34.7921" cy="23.9821" r="3" fill="#0000ff" fill-rule="evenodd" fill-opacity="1" stroke="none"/>
<circle clip-path="url(#clip962)" cx="102.969" cy="73.866" r="3" fill="#0000ff" fill-rule="evenodd" fill-opacity="1" stroke="none"/>
<circle clip-path="url(#clip962)" cx="85.9244" cy="36.453" r="3" fill="#0000ff" fill-rule="evenodd" fill-opacity="1" stroke="none"/>
<circle clip-path="url(#clip962)" cx="102.969" cy="23.9821" r="3" fill="#0000ff" fill-rule="evenodd" fill-opacity="1" stroke="none"/>
<circle clip-path="url(#clip962)" cx="68.8803" cy="98.808" r="3" fill="#0000ff" fill-rule="evenodd" fill-opacity="1" stroke="none"/>
<path clip-path="url(#clip960)" d="M 0 0 M104.023 96.1262 L107.083 96.1262 L107.083 96.864 L102.969 96.864 L102.969 96.1262 Q103.468 95.6097 104.327 94.7416 Q105.191 93.8692 105.412 93.6175 Q105.833 93.1444 105.998 92.8189 Q106.167 92.489 106.167 92.1722 Q106.167 91.6557 105.803 91.3302 Q105.442 91.0047 104.861 91.0047 Q104.449 91.0047 103.988 91.1479 Q103.533 91.2911 103.012 91.5819 L103.012 90.6965 Q103.541 90.4838 104.001 90.3753 Q104.462 90.2668 104.843 90.2668 Q105.85 90.2668 106.449 90.7703 Q107.048 91.2738 107.048 92.1158 Q107.048 92.5151 106.896 92.8753 Q106.749 93.2312 106.354 93.7173 Q106.245 93.8432 105.664 94.4465 Q105.082 95.0454 104.023 96.1262 Z" fill="#000000" fill-rule="evenodd" fill-opacity="1" /><path clip-path="url(#clip960)" d="M 0 0 M71.81 68.4281 Q72.4393 68.5627 72.7909 68.988 Q73.1468 69.4134 73.1468 70.0384 Q73.1468 70.9976 72.4871 71.5227 Q71.8273 72.0479 70.6121 72.0479 Q70.2041 72.0479 69.7701 71.9654 Q69.3404 71.8873 68.8803 71.7267 L68.8803 70.8804 Q69.2449 71.093 69.6789 71.2015 Q70.1129 71.3101 70.586 71.3101 Q71.4107 71.3101 71.8404 70.9845 Q72.2744 70.659 72.2744 70.0384 Q72.2744 69.4654 71.8708 69.1443 Q71.4714 68.8187 70.7553 68.8187 L70.0001 68.8187 L70.0001 68.0983 L70.79 68.0983 Q71.4367 68.0983 71.7796 67.8422 Q72.1225 67.5818 72.1225 67.0957 Q72.1225 66.5965 71.7666 66.3318 Q71.415 66.0627 70.7553 66.0627 Q70.3951 66.0627 69.9827 66.1408 Q69.5704 66.2189 69.0756 66.3839 L69.0756 65.6026 Q69.5748 65.4637 70.0088 65.3943 Q70.4471 65.3248 70.8334 65.3248 Q71.8317 65.3248 72.4133 65.7806 Q72.9949 66.232 72.9949 67.0045 Q72.9949 67.5427 72.6867 67.916 Q72.3786 68.2849 71.81 68.4281 Z" fill="#000000" fill-rule="evenodd" fill-opacity="1" /><path clip-path="url(#clip960)" d="M 0 0 M88.8497 53.7349 L86.6362 57.1941 L88.8497 57.1941 L88.8497 53.7349 M88.6197 52.971 L89.7221 52.971 L89.7221 57.1941 L90.6466 57.1941 L90.6466 57.9233 L89.7221 57.9233 L89.7221 59.451 L88.8497 59.451 L88.8497 57.9233 L85.9244 57.9233 L85.9244 57.0769 L88.6197 52.971 Z" fill="#000000" fill-rule="evenodd" fill-opacity="1" /><path clip-path="url(#clip960)" d="M 0 0 M52.1097 28.029 L55.5515 28.029 L55.5515 28.7669 L52.9126 28.7669 L52.9126 30.3554 Q53.1036 30.2903 53.2945 30.2599 Q53.4855 30.2252 53.6765 30.2252 Q54.7616 30.2252 55.3952 30.8198 Q56.0289 31.4144 56.0289 32.4301 Q56.0289 33.4761 55.3779 34.0577 Q54.7268 34.6349 53.5419 34.6349 Q53.134 34.6349 52.7086 34.5655 Q52.2876 34.496 51.8362 34.3571 L51.8362 33.4761 Q52.2268 33.6887 52.6435 33.7929 Q53.0602 33.8971 53.5246 33.8971 Q54.2754 33.8971 54.7138 33.5021 Q55.1522 33.1071 55.1522 32.4301 Q55.1522 31.753 54.7138 31.358 Q54.2754 30.9631 53.5246 30.9631 Q53.173 30.9631 52.8215 31.0412 Q52.4742 31.1193 52.1097 31.2842 L52.1097 28.029 Z" fill="#000000" fill-rule="evenodd" fill-opacity="1" /><path clip-path="url(#clip960)" d="M 0 0 M71.1937 18.4487 Q70.6034 18.4487 70.2562 18.8523 Q69.9133 19.256 69.9133 19.9591 Q69.9133 20.6579 70.2562 21.0658 Q70.6034 21.4695 71.1937 21.4695 Q71.7839 21.4695 72.1268 21.0658 Q72.474 20.6579 72.474 19.9591 Q72.474 19.256 72.1268 18.8523 Q71.7839 18.4487 71.1937 18.4487 M72.9341 15.7013 L72.9341 16.4999 Q72.6043 16.3436 72.2657 16.2612 Q71.9315 16.1787 71.6017 16.1787 Q70.7336 16.1787 70.2735 16.7646 Q69.8178 17.3506 69.7527 18.5355 Q70.0088 18.1579 70.3951 17.9582 Q70.7813 17.7542 71.2458 17.7542 Q72.2223 17.7542 72.7865 18.3488 Q73.3551 18.9391 73.3551 19.9591 Q73.3551 20.9573 72.7648 21.5606 Q72.1746 22.1639 71.1937 22.1639 Q70.0695 22.1639 69.4749 21.3046 Q68.8803 20.4408 68.8803 18.8046 Q68.8803 17.2681 69.6095 16.3567 Q70.3386 15.4409 71.5669 15.4409 Q71.8968 15.4409 72.231 15.506 Q72.5695 15.5711 72.9341 15.7013 Z" fill="#000000" fill-rule="evenodd" fill-opacity="1" /><path clip-path="url(#clip960)" d="M 0 0 M17.8739 58.7132 L19.3062 58.7132 L19.3062 53.7696 L17.748 54.0821 L17.748 53.2835 L19.2975 52.971 L20.1742 52.971 L20.1742 58.7132 L21.6065 58.7132 L21.6065 59.451 L17.8739 59.451 L17.8739 58.7132 Z" fill="#000000" fill-rule="evenodd" fill-opacity="1" /><path clip-path="url(#clip960)" d="M 0 0 M23.3122 58.7132 L26.3721 58.7132 L26.3721 59.451 L22.2576 59.451 L22.2576 58.7132 Q22.7567 58.1967 23.6161 57.3286 Q24.4798 56.4563 24.7011 56.2045 Q25.1221 55.7314 25.2871 55.4059 Q25.4563 55.0761 25.4563 54.7592 Q25.4563 54.2427 25.0917 53.9172 Q24.7315 53.5917 24.1499 53.5917 Q23.7376 53.5917 23.2775 53.7349 Q22.8218 53.8781 22.301 54.1689 L22.301 53.2835 Q22.8305 53.0709 23.2905 52.9624 Q23.7506 52.8538 24.1325 52.8538 Q25.1395 52.8538 25.7384 53.3573 Q26.3374 53.8608 26.3374 54.7028 Q26.3374 55.1021 26.1855 55.4623 Q26.0379 55.8182 25.643 56.3043 Q25.5344 56.4302 24.9529 57.0335 Q24.3713 57.6325 23.3122 58.7132 Z" fill="#000000" fill-rule="evenodd" fill-opacity="1" /><path clip-path="url(#clip960)" d="M 0 0 M51.9621 58.7132 L53.3944 58.7132 L53.3944 53.7696 L51.8362 54.0821 L51.8362 53.2835 L53.3857 52.971 L54.2624 52.971 L54.2624 58.7132 L55.6947 58.7132 L55.6947 59.451 L51.9621 59.451 L51.9621 58.7132 Z" fill="#000000" fill-rule="evenodd" fill-opacity="1" /><path clip-path="url(#clip960)" d="M 0 0 M59.0541 53.7349 L56.8405 57.1941 L59.0541 57.1941 L59.0541 53.7349 M58.824 52.971 L59.9265 52.971 L59.9265 57.1941 L60.8509 57.1941 L60.8509 57.9233 L59.9265 57.9233 L59.9265 59.451 L59.0541 59.451 L59.0541 57.9233 L56.1287 57.9233 L56.1287 57.0769 L58.824 52.971 Z" fill="#000000" fill-rule="evenodd" fill-opacity="1" /><path clip-path="url(#clip960)" d="M 0 0 M17.8739 33.7712 L19.3062 33.7712 L19.3062 28.8277 L17.748 29.1402 L17.748 28.3415 L19.2975 28.029 L20.1742 28.029 L20.1742 33.7712 L21.6065 33.7712 L21.6065 34.509 L17.8739 34.509 L17.8739 33.7712 Z" fill="#000000" fill-rule="evenodd" fill-opacity="1" /><path clip-path="url(#clip960)" d="M 0 0 M22.5657 28.029 L26.0075 28.029 L26.0075 28.7669 L23.3687 28.7669 L23.3687 30.3554 Q23.5596 30.2903 23.7506 30.2599 Q23.9416 30.2252 24.1325 30.2252 Q25.2176 30.2252 25.8513 30.8198 Q26.485 31.4144 26.485 32.4301 Q26.485 33.4761 25.8339 34.0577 Q25.1829 34.6349 23.998 34.6349 Q23.59 34.6349 23.1647 34.5655 Q22.7437 34.496 22.2923 34.3571 L22.2923 33.4761 Q22.6829 33.6887 23.0996 33.7929 Q23.5162 33.8971 23.9806 33.8971 Q24.7315 33.8971 25.1699 33.5021 Q25.6082 33.1071 25.6082 32.4301 Q25.6082 31.753 25.1699 31.358 Q24.7315 30.9631 23.9806 30.9631 Q23.6291 30.9631 23.2775 31.0412 Q22.9303 31.1193 22.5657 31.2842 L22.5657 28.029 Z" fill="#000000" fill-rule="evenodd" fill-opacity="1" /><path clip-path="url(#clip960)" d="M 0 0 M34.918 21.3002 L36.3503 21.3002 L36.3503 16.3567 L34.7921 16.6692 L34.7921 15.8706 L36.3416 15.5581 L37.2183 15.5581 L37.2183 21.3002 L38.6506 21.3002 L38.6506 22.0381 L34.918 22.0381 L34.918 21.3002 Z" fill="#000000" fill-rule="evenodd" fill-opacity="1" /><path clip-path="url(#clip960)" d="M 0 0 M41.5846 18.4487 Q40.9943 18.4487 40.6471 18.8523 Q40.3042 19.256 40.3042 19.9591 Q40.3042 20.6579 40.6471 21.0658 Q40.9943 21.4695 41.5846 21.4695 Q42.1749 21.4695 42.5178 21.0658 Q42.865 20.6579 42.865 19.9591 Q42.865 19.256 42.5178 18.8523 Q42.1749 18.4487 41.5846 18.4487 M43.3251 15.7013 L43.3251 16.4999 Q42.9952 16.3436 42.6567 16.2612 Q42.3225 16.1787 41.9926 16.1787 Q41.1246 16.1787 40.6645 16.7646 Q40.2088 17.3506 40.1437 18.5355 Q40.3997 18.1579 40.786 17.9582 Q41.1723 17.7542 41.6367 17.7542 Q42.6133 17.7542 43.1775 18.3488 Q43.7461 18.9391 43.7461 19.9591 Q43.7461 20.9573 43.1558 21.5606 Q42.5655 22.1639 41.5846 22.1639 Q40.4605 22.1639 39.8659 21.3046 Q39.2713 20.4408 39.2713 18.8046 Q39.2713 17.2681 40.0004 16.3567 Q40.7296 15.4409 41.9579 15.4409 Q42.2877 15.4409 42.6219 15.506 Q42.9605 15.5711 43.3251 15.7013 Z" fill="#000000" fill-rule="evenodd" fill-opacity="1" /><path clip-path="url(#clip960)" d="M 0 0 M103.094 71.1842 L104.527 71.1842 L104.527 66.2406 L102.969 66.5531 L102.969 65.7545 L104.518 65.442 L105.395 65.442 L105.395 71.1842 L106.827 71.1842 L106.827 71.922 L103.094 71.922 L103.094 71.1842 Z" fill="#000000" fill-rule="evenodd" fill-opacity="1" /><path clip-path="url(#clip960)" d="M 0 0 M107.556 65.442 L111.723 65.442 L111.723 65.8153 L109.37 71.922 L108.455 71.922 L110.668 66.1799 L107.556 66.1799 L107.556 65.442 Z" fill="#000000" fill-rule="evenodd" fill-opacity="1" /><path clip-path="url(#clip960)" d="M 0 0 M86.0503 33.7712 L87.4826 33.7712 L87.4826 28.8277 L85.9244 29.1402 L85.9244 28.3415 L87.4739 28.029 L88.3506 28.029 L88.3506 33.7712 L89.7829 33.7712 L89.7829 34.509 L86.0503 34.509 L86.0503 33.7712 Z" fill="#000000" fill-rule="evenodd" fill-opacity="1" /><path clip-path="url(#clip960)" d="M 0 0 M90.7595 34.3745 L90.7595 33.5759 Q91.0893 33.7321 91.4279 33.8146 Q91.7664 33.8971 92.0919 33.8971 Q92.96 33.8971 93.4157 33.3155 Q93.8758 32.7295 93.9409 31.5403 Q93.6891 31.9136 93.3028 32.1132 Q92.9166 32.3129 92.4478 32.3129 Q91.4756 32.3129 90.907 31.7269 Q90.3428 31.1367 90.3428 30.1167 Q90.3428 29.1185 90.9331 28.5152 Q91.5233 27.9119 92.5042 27.9119 Q93.6284 27.9119 94.2186 28.7756 Q94.8133 29.6349 94.8133 31.2756 Q94.8133 32.8077 94.0841 33.7235 Q93.3593 34.6349 92.131 34.6349 Q91.8011 34.6349 91.4626 34.5698 Q91.124 34.5047 90.7595 34.3745 M92.5042 31.6271 Q93.0945 31.6271 93.4374 31.2235 Q93.7846 30.8198 93.7846 30.1167 Q93.7846 29.4179 93.4374 29.0143 Q93.0945 28.6063 92.5042 28.6063 Q91.914 28.6063 91.5667 29.0143 Q91.2239 29.4179 91.2239 30.1167 Q91.2239 30.8198 91.5667 31.2235 Q91.914 31.6271 92.5042 31.6271 Z" fill="#000000" fill-rule="evenodd" fill-opacity="1" /><path clip-path="url(#clip960)" d="M 0 0 M104.023 21.3002 L107.083 21.3002 L107.083 22.0381 L102.969 22.0381 L102.969 21.3002 Q103.468 20.7837 104.327 19.9157 Q105.191 19.0433 105.412 18.7915 Q105.833 18.3185 105.998 17.9929 Q106.167 17.6631 106.167 17.3462 Q106.167 16.8297 105.803 16.5042 Q105.442 16.1787 104.861 16.1787 Q104.449 16.1787 103.988 16.3219 Q103.533 16.4652 103.012 16.756 L103.012 15.8706 Q103.541 15.6579 104.001 15.5494 Q104.462 15.4409 104.843 15.4409 Q105.85 15.4409 106.449 15.9443 Q107.048 16.4478 107.048 17.2898 Q107.048 17.6891 106.896 18.0494 Q106.749 18.4053 106.354 18.8914 Q106.245 19.0172 105.664 19.6205 Q105.082 20.2195 104.023 21.3002 Z" fill="#000000" fill-rule="evenodd" fill-opacity="1" /><path clip-path="url(#clip960)" d="M 0 0 M109.909 16.1353 Q109.231 16.1353 108.889 16.8037 Q108.55 17.4678 108.55 18.8046 Q108.55 20.137 108.889 20.8054 Q109.231 21.4695 109.909 21.4695 Q110.59 21.4695 110.929 20.8054 Q111.271 20.137 111.271 18.8046 Q111.271 17.4678 110.929 16.8037 Q110.59 16.1353 109.909 16.1353 M109.909 15.4409 Q110.998 15.4409 111.571 16.3046 Q112.148 17.1639 112.148 18.8046 Q112.148 20.4408 111.571 21.3046 Q110.998 22.1639 109.909 22.1639 Q108.819 22.1639 108.242 21.3046 Q107.669 20.4408 107.669 18.8046 Q107.669 17.1639 108.242 16.3046 Q108.819 15.4409 109.909 15.4409 Z" fill="#000000" fill-rule="evenodd" fill-opacity="1" /><path clip-path="url(#clip960)" d="M 0 0 M69.935 96.1262 L72.9949 96.1262 L72.9949 96.864 L68.8803 96.864 L68.8803 96.1262 Q69.3794 95.6097 70.2388 94.7416 Q71.1025 93.8692 71.3239 93.6175 Q71.7449 93.1444 71.9098 92.8189 Q72.0791 92.489 72.0791 92.1722 Q72.0791 91.6557 71.7145 91.3302 Q71.3543 91.0047 70.7727 91.0047 Q70.3603 91.0047 69.9003 91.1479 Q69.4445 91.2911 68.9237 91.5819 L68.9237 90.6965 Q69.4532 90.4838 69.9133 90.3753 Q70.3734 90.2668 70.7553 90.2668 Q71.7622 90.2668 72.3612 90.7703 Q72.9602 91.2738 72.9602 92.1158 Q72.9602 92.5151 72.8082 92.8753 Q72.6607 93.2312 72.2657 93.7173 Q72.1572 93.8432 71.5756 94.4465 Q70.994 95.0454 69.935 96.1262 Z" fill="#000000" fill-rule="evenodd" fill-opacity="1" /><path clip-path="url(#clip960)" d="M 0 0 M76.3542 91.1479 L74.1407 94.6071 L76.3542 94.6071 L76.3542 91.1479 M76.1242 90.384 L77.2266 90.384 L77.2266 94.6071 L78.1511 94.6071 L78.1511 95.3362 L77.2266 95.3362 L77.2266 96.864 L76.3542 96.864 L76.3542 95.3362 L73.4289 95.3362 L73.4289 94.4899 L76.1242 90.384 Z" fill="#000000" fill-rule="evenodd" fill-opacity="1" /><circle clip-path="url(#clip962)" cx="188.189" cy="186.105" r="3" fill="#0000ff" fill-rule="evenodd" fill-opacity="1" stroke="none"/>
<circle clip-path="url(#clip962)" cx="137.057" cy="223.518" r="3" fill="#0000ff" fill-rule="evenodd" fill-opacity="1" stroke="none"/>
<circle clip-path="url(#clip962)" cx="154.101" cy="211.047" r="3" fill="#0000ff" fill-rule="evenodd" fill-opacity="1" stroke="none"/>
<circle clip-path="url(#clip962)" cx="120.013" cy="186.105" r="3" fill="#0000ff" fill-rule="evenodd" fill-opacity="1" stroke="none"/>
<circle clip-path="url(#clip962)" cx="137.057" cy="173.634" r="3" fill="#0000ff" fill-rule="evenodd" fill-opacity="1" stroke="none"/>
<circle clip-path="url(#clip962)" cx="137.057" cy="148.692" r="3" fill="#0000ff" fill-rule="evenodd" fill-opacity="1" stroke="none"/>
<circle clip-path="url(#clip962)" cx="120.013" cy="211.047" r="3" fill="#0000ff" fill-rule="evenodd" fill-opacity="1" stroke="none"/>
<circle clip-path="url(#clip962)" cx="171.145" cy="223.518" r="3" fill="#0000ff" fill-rule="evenodd" fill-opacity="1" stroke="none"/>
<circle clip-path="url(#clip962)" cx="188.189" cy="211.047" r="3" fill="#0000ff" fill-rule="evenodd" fill-opacity="1" stroke="none"/>
<circle clip-path="url(#clip962)" cx="154.101" cy="186.105" r="3" fill="#0000ff" fill-rule="evenodd" fill-opacity="1" stroke="none"/>
<path clip-path="url(#clip960)" d="M 0 0 M188.315 183.423 L189.747 183.423 L189.747 178.48 L188.189 178.792 L188.189 177.993 L189.738 177.681 L190.615 177.681 L190.615 183.423 L192.047 183.423 L192.047 184.161 L188.315 184.161 L188.315 183.423 Z" fill="#000000" fill-rule="evenodd" fill-opacity="1" /><path clip-path="url(#clip960)" d="M 0 0 M137.057 215.094 L141.223 215.094 L141.223 215.467 L138.871 221.574 L137.955 221.574 L140.169 215.832 L137.057 215.832 L137.057 215.094 Z" fill="#000000" fill-rule="evenodd" fill-opacity="1" /><path clip-path="url(#clip960)" d="M 0 0 M156.323 206.026 Q155.698 206.026 155.338 206.36 Q154.982 206.694 154.982 207.28 Q154.982 207.866 155.338 208.2 Q155.698 208.534 156.323 208.534 Q156.948 208.534 157.308 208.2 Q157.668 207.862 157.668 207.28 Q157.668 206.694 157.308 206.36 Q156.952 206.026 156.323 206.026 M155.446 205.652 Q154.882 205.514 154.565 205.127 Q154.253 204.741 154.253 204.185 Q154.253 203.409 154.804 202.957 Q155.359 202.506 156.323 202.506 Q157.291 202.506 157.842 202.957 Q158.393 203.409 158.393 204.185 Q158.393 204.741 158.076 205.127 Q157.764 205.514 157.204 205.652 Q157.838 205.8 158.189 206.23 Q158.545 206.659 158.545 207.28 Q158.545 208.222 157.968 208.725 Q157.395 209.229 156.323 209.229 Q155.251 209.229 154.674 208.725 Q154.101 208.222 154.101 207.28 Q154.101 206.659 154.457 206.23 Q154.813 205.8 155.446 205.652 M155.125 204.268 Q155.125 204.771 155.438 205.053 Q155.754 205.336 156.323 205.336 Q156.887 205.336 157.204 205.053 Q157.525 204.771 157.525 204.268 Q157.525 203.764 157.204 203.482 Q156.887 203.2 156.323 203.2 Q155.754 203.2 155.438 203.482 Q155.125 203.764 155.125 204.268 Z" fill="#000000" fill-rule="evenodd" fill-opacity="1" /><path clip-path="url(#clip960)" d="M 0 0 M120.429 184.026 L120.429 183.228 Q120.759 183.384 121.098 183.467 Q121.436 183.549 121.762 183.549 Q122.63 183.549 123.085 182.967 Q123.546 182.381 123.611 181.192 Q123.359 181.565 122.973 181.765 Q122.586 181.965 122.118 181.965 Q121.145 181.965 120.577 181.379 Q120.013 180.789 120.013 179.769 Q120.013 178.77 120.603 178.167 Q121.193 177.564 122.174 177.564 Q123.298 177.564 123.888 178.427 Q124.483 179.287 124.483 180.927 Q124.483 182.46 123.754 183.375 Q123.029 184.287 121.801 184.287 Q121.471 184.287 121.132 184.222 Q120.794 184.157 120.429 184.026 M122.174 181.279 Q122.764 181.279 123.107 180.875 Q123.454 180.472 123.454 179.769 Q123.454 179.07 123.107 178.666 Q122.764 178.258 122.174 178.258 Q121.584 178.258 121.237 178.666 Q120.894 179.07 120.894 179.769 Q120.894 180.472 121.237 180.875 Q121.584 181.279 122.174 181.279 Z" fill="#000000" fill-rule="evenodd" fill-opacity="1" /><path clip-path="url(#clip960)" d="M 0 0 M137.183 170.952 L138.615 170.952 L138.615 166.009 L137.057 166.321 L137.057 165.522 L138.606 165.21 L139.483 165.21 L139.483 170.952 L140.915 170.952 L140.915 171.69 L137.183 171.69 L137.183 170.952 Z" fill="#000000" fill-rule="evenodd" fill-opacity="1" /><path clip-path="url(#clip960)" d="M 0 0 M143.741 165.787 Q143.064 165.787 142.721 166.456 Q142.382 167.12 142.382 168.456 Q142.382 169.789 142.721 170.457 Q143.064 171.121 143.741 171.121 Q144.422 171.121 144.761 170.457 Q145.104 169.789 145.104 168.456 Q145.104 167.12 144.761 166.456 Q144.422 165.787 143.741 165.787 M143.741 165.093 Q144.83 165.093 145.403 165.956 Q145.98 166.816 145.98 168.456 Q145.98 170.093 145.403 170.956 Q144.83 171.816 143.741 171.816 Q142.651 171.816 142.074 170.956 Q141.501 170.093 141.501 168.456 Q141.501 166.816 142.074 165.956 Q142.651 165.093 143.741 165.093 Z" fill="#000000" fill-rule="evenodd" fill-opacity="1" /><path clip-path="url(#clip960)" d="M 0 0 M137.183 146.01 L138.615 146.01 L138.615 141.067 L137.057 141.379 L137.057 140.58 L138.606 140.268 L139.483 140.268 L139.483 146.01 L140.915 146.01 L140.915 146.748 L137.183 146.748 L137.183 146.01 Z" fill="#000000" fill-rule="evenodd" fill-opacity="1" /><path clip-path="url(#clip960)" d="M 0 0 M144.522 143.254 Q145.151 143.389 145.503 143.814 Q145.859 144.239 145.859 144.864 Q145.859 145.824 145.199 146.349 Q144.539 146.874 143.324 146.874 Q142.916 146.874 142.482 146.791 Q142.052 146.713 141.592 146.553 L141.592 145.706 Q141.957 145.919 142.391 146.028 Q142.825 146.136 143.298 146.136 Q144.123 146.136 144.552 145.81 Q144.986 145.485 144.986 144.864 Q144.986 144.291 144.583 143.97 Q144.183 143.645 143.467 143.645 L142.712 143.645 L142.712 142.924 L143.502 142.924 Q144.149 142.924 144.492 142.668 Q144.834 142.408 144.834 141.922 Q144.834 141.422 144.479 141.158 Q144.127 140.889 143.467 140.889 Q143.107 140.889 142.695 140.967 Q142.282 141.045 141.788 141.21 L141.788 140.429 Q142.287 140.29 142.721 140.22 Q143.159 140.151 143.545 140.151 Q144.544 140.151 145.125 140.607 Q145.707 141.058 145.707 141.83 Q145.707 142.369 145.399 142.742 Q145.091 143.111 144.522 143.254 Z" fill="#000000" fill-rule="evenodd" fill-opacity="1" /><path clip-path="url(#clip960)" d="M 0 0 M120.138 208.365 L121.571 208.365 L121.571 203.422 L120.013 203.734 L120.013 202.935 L121.562 202.623 L122.439 202.623 L122.439 208.365 L123.871 208.365 L123.871 209.103 L120.138 209.103 L120.138 208.365 Z" fill="#000000" fill-rule="evenodd" fill-opacity="1" /><path clip-path="url(#clip960)" d="M 0 0 M126.697 206.026 Q126.072 206.026 125.711 206.36 Q125.355 206.694 125.355 207.28 Q125.355 207.866 125.711 208.2 Q126.072 208.534 126.697 208.534 Q127.322 208.534 127.682 208.2 Q128.042 207.862 128.042 207.28 Q128.042 206.694 127.682 206.36 Q127.326 206.026 126.697 206.026 M125.82 205.652 Q125.256 205.514 124.939 205.127 Q124.626 204.741 124.626 204.185 Q124.626 203.409 125.178 202.957 Q125.733 202.506 126.697 202.506 Q127.664 202.506 128.216 202.957 Q128.767 203.409 128.767 204.185 Q128.767 204.741 128.45 205.127 Q128.138 205.514 127.578 205.652 Q128.211 205.8 128.563 206.23 Q128.919 206.659 128.919 207.28 Q128.919 208.222 128.342 208.725 Q127.769 209.229 126.697 209.229 Q125.625 209.229 125.047 208.725 Q124.474 208.222 124.474 207.28 Q124.474 206.659 124.83 206.23 Q125.186 205.8 125.82 205.652 M125.499 204.268 Q125.499 204.771 125.811 205.053 Q126.128 205.336 126.697 205.336 Q127.261 205.336 127.578 205.053 Q127.899 204.771 127.899 204.268 Q127.899 203.764 127.578 203.482 Q127.261 203.2 126.697 203.2 Q126.128 203.2 125.811 203.482 Q125.499 203.764 125.499 204.268 Z" fill="#000000" fill-rule="evenodd" fill-opacity="1" /><path clip-path="url(#clip960)" d="M 0 0 M172.2 220.836 L175.259 220.836 L175.259 221.574 L171.145 221.574 L171.145 220.836 Q171.644 220.32 172.503 219.452 Q173.367 218.579 173.588 218.327 Q174.009 217.854 174.174 217.529 Q174.344 217.199 174.344 216.882 Q174.344 216.366 173.979 216.04 Q173.619 215.715 173.037 215.715 Q172.625 215.715 172.165 215.858 Q171.709 216.001 171.188 216.292 L171.188 215.406 Q171.718 215.194 172.178 215.085 Q172.638 214.977 173.02 214.977 Q174.027 214.977 174.626 215.48 Q175.225 215.984 175.225 216.826 Q175.225 217.225 175.073 217.585 Q174.925 217.941 174.53 218.427 Q174.422 218.553 173.84 219.156 Q173.259 219.755 172.2 220.836 Z" fill="#000000" fill-rule="evenodd" fill-opacity="1" /><path clip-path="url(#clip960)" d="M 0 0 M176.362 220.836 L177.794 220.836 L177.794 215.893 L176.236 216.205 L176.236 215.406 L177.785 215.094 L178.662 215.094 L178.662 220.836 L180.094 220.836 L180.094 221.574 L176.362 221.574 L176.362 220.836 Z" fill="#000000" fill-rule="evenodd" fill-opacity="1" /><path clip-path="url(#clip960)" d="M 0 0 M189.244 208.365 L192.304 208.365 L192.304 209.103 L188.189 209.103 L188.189 208.365 Q188.688 207.849 189.547 206.981 Q190.411 206.108 190.633 205.856 Q191.054 205.383 191.218 205.058 Q191.388 204.728 191.388 204.411 Q191.388 203.895 191.023 203.569 Q190.663 203.244 190.081 203.244 Q189.669 203.244 189.209 203.387 Q188.753 203.53 188.232 203.821 L188.232 202.935 Q188.762 202.723 189.222 202.614 Q189.682 202.506 190.064 202.506 Q191.071 202.506 191.67 203.009 Q192.269 203.513 192.269 204.355 Q192.269 204.754 192.117 205.114 Q191.969 205.47 191.574 205.956 Q191.466 206.082 190.884 206.685 Q190.303 207.284 189.244 208.365 Z" fill="#000000" fill-rule="evenodd" fill-opacity="1" /><path clip-path="url(#clip960)" d="M 0 0 M194.009 208.365 L197.069 208.365 L197.069 209.103 L192.955 209.103 L192.955 208.365 Q193.454 207.849 194.313 206.981 Q195.177 206.108 195.398 205.856 Q195.819 205.383 195.984 205.058 Q196.153 204.728 196.153 204.411 Q196.153 203.895 195.789 203.569 Q195.429 203.244 194.847 203.244 Q194.435 203.244 193.975 203.387 Q193.519 203.53 192.998 203.821 L192.998 202.935 Q193.527 202.723 193.988 202.614 Q194.448 202.506 194.83 202.506 Q195.837 202.506 196.435 203.009 Q197.034 203.513 197.034 204.355 Q197.034 204.754 196.883 205.114 Q196.735 205.47 196.34 205.956 Q196.231 206.082 195.65 206.685 Q195.068 207.284 194.009 208.365 Z" fill="#000000" fill-rule="evenodd" fill-opacity="1" /><path clip-path="url(#clip960)" d="M 0 0 M155.155 183.423 L158.215 183.423 L158.215 184.161 L154.101 184.161 L154.101 183.423 Q154.6 182.907 155.459 182.039 Q156.323 181.166 156.544 180.914 Q156.965 180.441 157.13 180.116 Q157.3 179.786 157.3 179.469 Q157.3 178.953 156.935 178.627 Q156.575 178.302 155.993 178.302 Q155.581 178.302 155.121 178.445 Q154.665 178.588 154.144 178.879 L154.144 177.993 Q154.674 177.781 155.134 177.672 Q155.594 177.564 155.976 177.564 Q156.983 177.564 157.582 178.067 Q158.181 178.571 158.181 179.413 Q158.181 179.812 158.029 180.172 Q157.881 180.528 157.486 181.014 Q157.378 181.14 156.796 181.743 Q156.214 182.342 155.155 183.423 Z" fill="#000000" fill-rule="evenodd" fill-opacity="1" /><path clip-path="url(#clip960)" d="M 0 0 M161.822 180.667 Q162.451 180.802 162.803 181.227 Q163.159 181.652 163.159 182.277 Q163.159 183.236 162.499 183.762 Q161.839 184.287 160.624 184.287 Q160.216 184.287 159.782 184.204 Q159.352 184.126 158.892 183.966 L158.892 183.119 Q159.257 183.332 159.691 183.44 Q160.125 183.549 160.598 183.549 Q161.423 183.549 161.852 183.223 Q162.287 182.898 162.287 182.277 Q162.287 181.704 161.883 181.383 Q161.484 181.058 160.767 181.058 L160.012 181.058 L160.012 180.337 L160.802 180.337 Q161.449 180.337 161.792 180.081 Q162.135 179.821 162.135 179.335 Q162.135 178.835 161.779 178.571 Q161.427 178.302 160.767 178.302 Q160.407 178.302 159.995 178.38 Q159.583 178.458 159.088 178.623 L159.088 177.842 Q159.587 177.703 160.021 177.633 Q160.459 177.564 160.846 177.564 Q161.844 177.564 162.425 178.02 Q163.007 178.471 163.007 179.243 Q163.007 179.782 162.699 180.155 Q162.391 180.524 161.822 180.667 Z" fill="#000000" fill-rule="evenodd" fill-opacity="1" /><circle clip-path="url(#clip962)" cx="188.189" cy="36.453" r="3" fill="#0000ff" fill-rule="evenodd" fill-opacity="1" stroke="none"/>
<circle clip-path="url(#clip962)" cx="171.145" cy="148.692" r="3" fill="#0000ff" fill-rule="evenodd" fill-opacity="1" stroke="none"/>
<circle clip-path="url(#clip962)" cx="188.189" cy="136.221" r="3" fill="#0000ff" fill-rule="evenodd" fill-opacity="1" stroke="none"/>
<circle clip-path="url(#clip962)" cx="154.101" cy="111.279" r="3" fill="#0000ff" fill-rule="evenodd" fill-opacity="1" stroke="none"/>
<circle clip-path="url(#clip962)" cx="171.145" cy="98.808" r="3" fill="#0000ff" fill-rule="evenodd" fill-opacity="1" stroke="none"/>
<circle clip-path="url(#clip962)" cx="137.057" cy="73.866" r="3" fill="#0000ff" fill-rule="evenodd" fill-opacity="1" stroke="none"/>
<circle clip-path="url(#clip962)" cx="154.101" cy="61.395" r="3" fill="#0000ff" fill-rule="evenodd" fill-opacity="1" stroke="none"/>
<circle clip-path="url(#clip962)" cx="120.013" cy="36.453" r="3" fill="#0000ff" fill-rule="evenodd" fill-opacity="1" stroke="none"/>
<circle clip-path="url(#clip962)" cx="137.057" cy="23.9821" r="3" fill="#0000ff" fill-rule="evenodd" fill-opacity="1" stroke="none"/>
<circle clip-path="url(#clip962)" cx="120.013" cy="136.221" r="3" fill="#0000ff" fill-rule="evenodd" fill-opacity="1" stroke="none"/>
<circle clip-path="url(#clip962)" cx="154.101" cy="136.221" r="3" fill="#0000ff" fill-rule="evenodd" fill-opacity="1" stroke="none"/>
<circle clip-path="url(#clip962)" cx="120.013" cy="111.279" r="3" fill="#0000ff" fill-rule="evenodd" fill-opacity="1" stroke="none"/>
<circle clip-path="url(#clip962)" cx="137.057" cy="98.808" r="3" fill="#0000ff" fill-rule="evenodd" fill-opacity="1" stroke="none"/>
<circle clip-path="url(#clip962)" cx="120.013" cy="61.395" r="3" fill="#0000ff" fill-rule="evenodd" fill-opacity="1" stroke="none"/>
<circle clip-path="url(#clip962)" cx="188.189" cy="111.279" r="3" fill="#0000ff" fill-rule="evenodd" fill-opacity="1" stroke="none"/>
<circle clip-path="url(#clip962)" cx="171.145" cy="73.866" r="3" fill="#0000ff" fill-rule="evenodd" fill-opacity="1" stroke="none"/>
<circle clip-path="url(#clip962)" cx="188.189" cy="61.395" r="3" fill="#0000ff" fill-rule="evenodd" fill-opacity="1" stroke="none"/>
<circle clip-path="url(#clip962)" cx="154.101" cy="36.453" r="3" fill="#0000ff" fill-rule="evenodd" fill-opacity="1" stroke="none"/>
<circle clip-path="url(#clip962)" cx="171.145" cy="173.634" r="3" fill="#0000ff" fill-rule="evenodd" fill-opacity="1" stroke="none"/>
<path clip-path="url(#clip960)" d="M 0 0 M188.315 33.7712 L189.747 33.7712 L189.747 28.8277 L188.189 29.1402 L188.189 28.3415 L189.738 28.029 L190.615 28.029 L190.615 33.7712 L192.047 33.7712 L192.047 34.509 L188.315 34.509 L188.315 33.7712 Z" fill="#000000" fill-rule="evenodd" fill-opacity="1" /><path clip-path="url(#clip960)" d="M 0 0 M174.075 143.254 Q174.704 143.389 175.055 143.814 Q175.411 144.239 175.411 144.864 Q175.411 145.824 174.752 146.349 Q174.092 146.874 172.877 146.874 Q172.469 146.874 172.035 146.791 Q171.605 146.713 171.145 146.553 L171.145 145.706 Q171.509 145.919 171.943 146.028 Q172.378 146.136 172.851 146.136 Q173.675 146.136 174.105 145.81 Q174.539 145.485 174.539 144.864 Q174.539 144.291 174.135 143.97 Q173.736 143.645 173.02 143.645 L172.265 143.645 L172.265 142.924 L173.055 142.924 Q173.701 142.924 174.044 142.668 Q174.387 142.408 174.387 141.922 Q174.387 141.422 174.031 141.158 Q173.68 140.889 173.02 140.889 Q172.66 140.889 172.247 140.967 Q171.835 141.045 171.34 141.21 L171.34 140.429 Q171.839 140.29 172.273 140.22 Q172.712 140.151 173.098 140.151 Q174.096 140.151 174.678 140.607 Q175.259 141.058 175.259 141.83 Q175.259 142.369 174.951 142.742 Q174.643 143.111 174.075 143.254 Z" fill="#000000" fill-rule="evenodd" fill-opacity="1" /><path clip-path="url(#clip960)" d="M 0 0 M191.114 128.561 L188.901 132.02 L191.114 132.02 L191.114 128.561 M190.884 127.797 L191.987 127.797 L191.987 132.02 L192.911 132.02 L192.911 132.749 L191.987 132.749 L191.987 134.277 L191.114 134.277 L191.114 132.749 L188.189 132.749 L188.189 131.903 L190.884 127.797 Z" fill="#000000" fill-rule="evenodd" fill-opacity="1" /><path clip-path="url(#clip960)" d="M 0 0 M154.374 102.855 L157.816 102.855 L157.816 103.593 L155.177 103.593 L155.177 105.181 Q155.368 105.116 155.559 105.086 Q155.75 105.051 155.941 105.051 Q157.026 105.051 157.66 105.646 Q158.293 106.24 158.293 107.256 Q158.293 108.302 157.642 108.884 Q156.991 109.461 155.807 109.461 Q155.399 109.461 154.973 109.391 Q154.552 109.322 154.101 109.183 L154.101 108.302 Q154.491 108.515 154.908 108.619 Q155.325 108.723 155.789 108.723 Q156.54 108.723 156.978 108.328 Q157.417 107.933 157.417 107.256 Q157.417 106.579 156.978 106.184 Q156.54 105.789 155.789 105.789 Q155.438 105.789 155.086 105.867 Q154.739 105.945 154.374 106.11 L154.374 102.855 Z" fill="#000000" fill-rule="evenodd" fill-opacity="1" /><path clip-path="url(#clip960)" d="M 0 0 M173.458 93.2746 Q172.868 93.2746 172.521 93.6783 Q172.178 94.0819 172.178 94.785 Q172.178 95.4838 172.521 95.8918 Q172.868 96.2954 173.458 96.2954 Q174.049 96.2954 174.391 95.8918 Q174.739 95.4838 174.739 94.785 Q174.739 94.0819 174.391 93.6783 Q174.049 93.2746 173.458 93.2746 M175.199 90.5272 L175.199 91.3258 Q174.869 91.1696 174.53 91.0871 Q174.196 91.0047 173.866 91.0047 Q172.998 91.0047 172.538 91.5906 Q172.082 92.1765 172.017 93.3614 Q172.273 92.9838 172.66 92.7842 Q173.046 92.5802 173.51 92.5802 Q174.487 92.5802 175.051 93.1748 Q175.62 93.7651 175.62 94.785 Q175.62 95.7833 175.029 96.3866 Q174.439 96.9899 173.458 96.9899 Q172.334 96.9899 171.739 96.1305 Q171.145 95.2668 171.145 93.6305 Q171.145 92.0941 171.874 91.1826 Q172.603 90.2668 173.831 90.2668 Q174.161 90.2668 174.496 90.3319 Q174.834 90.397 175.199 90.5272 Z" fill="#000000" fill-rule="evenodd" fill-opacity="1" /><path clip-path="url(#clip960)" d="M 0 0 M137.057 65.442 L141.223 65.442 L141.223 65.8153 L138.871 71.922 L137.955 71.922 L140.169 66.1799 L137.057 66.1799 L137.057 65.442 Z" fill="#000000" fill-rule="evenodd" fill-opacity="1" /><path clip-path="url(#clip960)" d="M 0 0 M156.323 56.3738 Q155.698 56.3738 155.338 56.708 Q154.982 57.0422 154.982 57.6281 Q154.982 58.2141 155.338 58.5483 Q155.698 58.8825 156.323 58.8825 Q156.948 58.8825 157.308 58.5483 Q157.668 58.2097 157.668 57.6281 Q157.668 57.0422 157.308 56.708 Q156.952 56.3738 156.323 56.3738 M155.446 56.0005 Q154.882 55.8616 154.565 55.4754 Q154.253 55.0891 154.253 54.5335 Q154.253 53.7566 154.804 53.3052 Q155.359 52.8538 156.323 52.8538 Q157.291 52.8538 157.842 53.3052 Q158.393 53.7566 158.393 54.5335 Q158.393 55.0891 158.076 55.4754 Q157.764 55.8616 157.204 56.0005 Q157.838 56.1481 158.189 56.5778 Q158.545 57.0075 158.545 57.6281 Q158.545 58.57 157.968 59.0734 Q157.395 59.5769 156.323 59.5769 Q155.251 59.5769 154.674 59.0734 Q154.101 58.57 154.101 57.6281 Q154.101 57.0075 154.457 56.5778 Q154.813 56.1481 155.446 56.0005 M155.125 54.616 Q155.125 55.1195 155.438 55.4016 Q155.754 55.6837 156.323 55.6837 Q156.887 55.6837 157.204 55.4016 Q157.525 55.1195 157.525 54.616 Q157.525 54.1125 157.204 53.8304 Q156.887 53.5483 156.323 53.5483 Q155.754 53.5483 155.438 53.8304 Q155.125 54.1125 155.125 54.616 Z" fill="#000000" fill-rule="evenodd" fill-opacity="1" /><path clip-path="url(#clip960)" d="M 0 0 M120.429 34.3745 L120.429 33.5759 Q120.759 33.7321 121.098 33.8146 Q121.436 33.8971 121.762 33.8971 Q122.63 33.8971 123.085 33.3155 Q123.546 32.7295 123.611 31.5403 Q123.359 31.9136 122.973 32.1132 Q122.586 32.3129 122.118 32.3129 Q121.145 32.3129 120.577 31.7269 Q120.013 31.1367 120.013 30.1167 Q120.013 29.1185 120.603 28.5152 Q121.193 27.9119 122.174 27.9119 Q123.298 27.9119 123.888 28.7756 Q124.483 29.6349 124.483 31.2756 Q124.483 32.8077 123.754 33.7235 Q123.029 34.6349 121.801 34.6349 Q121.471 34.6349 121.132 34.5698 Q120.794 34.5047 120.429 34.3745 M122.174 31.6271 Q122.764 31.6271 123.107 31.2235 Q123.454 30.8198 123.454 30.1167 Q123.454 29.4179 123.107 29.0143 Q122.764 28.6063 122.174 28.6063 Q121.584 28.6063 121.237 29.0143 Q120.894 29.4179 120.894 30.1167 Q120.894 30.8198 121.237 31.2235 Q121.584 31.6271 122.174 31.6271 Z" fill="#000000" fill-rule="evenodd" fill-opacity="1" /><path clip-path="url(#clip960)" d="M 0 0 M137.183 21.3002 L138.615 21.3002 L138.615 16.3567 L137.057 16.6692 L137.057 15.8706 L138.606 15.5581 L139.483 15.5581 L139.483 21.3002 L140.915 21.3002 L140.915 22.0381 L137.183 22.0381 L137.183 21.3002 Z" fill="#000000" fill-rule="evenodd" fill-opacity="1" /><path clip-path="url(#clip960)" d="M 0 0 M143.741 16.1353 Q143.064 16.1353 142.721 16.8037 Q142.382 17.4678 142.382 18.8046 Q142.382 20.137 142.721 20.8054 Q143.064 21.4695 143.741 21.4695 Q144.422 21.4695 144.761 20.8054 Q145.104 20.137 145.104 18.8046 Q145.104 17.4678 144.761 16.8037 Q144.422 16.1353 143.741 16.1353 M143.741 15.4409 Q144.83 15.4409 145.403 16.3046 Q145.98 17.1639 145.98 18.8046 Q145.98 20.4408 145.403 21.3046 Q144.83 22.1639 143.741 22.1639 Q142.651 22.1639 142.074 21.3046 Q141.501 20.4408 141.501 18.8046 Q141.501 17.1639 142.074 16.3046 Q142.651 15.4409 143.741 15.4409 Z" fill="#000000" fill-rule="evenodd" fill-opacity="1" /><path clip-path="url(#clip960)" d="M 0 0 M120.138 133.539 L121.571 133.539 L121.571 128.596 L120.013 128.908 L120.013 128.109 L121.562 127.797 L122.439 127.797 L122.439 133.539 L123.871 133.539 L123.871 134.277 L120.138 134.277 L120.138 133.539 Z" fill="#000000" fill-rule="evenodd" fill-opacity="1" /><path clip-path="url(#clip960)" d="M 0 0 M125.577 133.539 L128.637 133.539 L128.637 134.277 L124.522 134.277 L124.522 133.539 Q125.021 133.023 125.881 132.155 Q126.744 131.282 126.966 131.03 Q127.387 130.557 127.552 130.232 Q127.721 129.902 127.721 129.585 Q127.721 129.069 127.356 128.743 Q126.996 128.418 126.414 128.418 Q126.002 128.418 125.542 128.561 Q125.086 128.704 124.566 128.995 L124.566 128.109 Q125.095 127.897 125.555 127.788 Q126.015 127.68 126.397 127.68 Q127.404 127.68 128.003 128.183 Q128.602 128.687 128.602 129.529 Q128.602 129.928 128.45 130.288 Q128.302 130.644 127.908 131.13 Q127.799 131.256 127.217 131.859 Q126.636 132.458 125.577 133.539 Z" fill="#000000" fill-rule="evenodd" fill-opacity="1" /><path clip-path="url(#clip960)" d="M 0 0 M154.227 133.539 L155.659 133.539 L155.659 128.596 L154.101 128.908 L154.101 128.109 L155.65 127.797 L156.527 127.797 L156.527 133.539 L157.959 133.539 L157.959 134.277 L154.227 134.277 L154.227 133.539 Z" fill="#000000" fill-rule="evenodd" fill-opacity="1" /><path clip-path="url(#clip960)" d="M 0 0 M161.319 128.561 L159.105 132.02 L161.319 132.02 L161.319 128.561 M161.089 127.797 L162.191 127.797 L162.191 132.02 L163.115 132.02 L163.115 132.749 L162.191 132.749 L162.191 134.277 L161.319 134.277 L161.319 132.749 L158.393 132.749 L158.393 131.903 L161.089 127.797 Z" fill="#000000" fill-rule="evenodd" fill-opacity="1" /><path clip-path="url(#clip960)" d="M 0 0 M120.138 108.597 L121.571 108.597 L121.571 103.654 L120.013 103.966 L120.013 103.168 L121.562 102.855 L122.439 102.855 L122.439 108.597 L123.871 108.597 L123.871 109.335 L120.138 109.335 L120.138 108.597 Z" fill="#000000" fill-rule="evenodd" fill-opacity="1" /><path clip-path="url(#clip960)" d="M 0 0 M124.83 102.855 L128.272 102.855 L128.272 103.593 L125.633 103.593 L125.633 105.181 Q125.824 105.116 126.015 105.086 Q126.206 105.051 126.397 105.051 Q127.482 105.051 128.116 105.646 Q128.75 106.24 128.75 107.256 Q128.75 108.302 128.098 108.884 Q127.447 109.461 126.263 109.461 Q125.855 109.461 125.429 109.391 Q125.008 109.322 124.557 109.183 L124.557 108.302 Q124.947 108.515 125.364 108.619 Q125.781 108.723 126.245 108.723 Q126.996 108.723 127.434 108.328 Q127.873 107.933 127.873 107.256 Q127.873 106.579 127.434 106.184 Q126.996 105.789 126.245 105.789 Q125.894 105.789 125.542 105.867 Q125.195 105.945 124.83 106.11 L124.83 102.855 Z" fill="#000000" fill-rule="evenodd" fill-opacity="1" /><path clip-path="url(#clip960)" d="M 0 0 M137.183 96.1262 L138.615 96.1262 L138.615 91.1826 L137.057 91.4951 L137.057 90.6965 L138.606 90.384 L139.483 90.384 L139.483 96.1262 L140.915 96.1262 L140.915 96.864 L137.183 96.864 L137.183 96.1262 Z" fill="#000000" fill-rule="evenodd" fill-opacity="1" /><path clip-path="url(#clip960)" d="M 0 0 M143.849 93.2746 Q143.259 93.2746 142.912 93.6783 Q142.569 94.0819 142.569 94.785 Q142.569 95.4838 142.912 95.8918 Q143.259 96.2954 143.849 96.2954 Q144.439 96.2954 144.782 95.8918 Q145.13 95.4838 145.13 94.785 Q145.13 94.0819 144.782 93.6783 Q144.439 93.2746 143.849 93.2746 M145.59 90.5272 L145.59 91.3258 Q145.26 91.1696 144.921 91.0871 Q144.587 91.0047 144.257 91.0047 Q143.389 91.0047 142.929 91.5906 Q142.473 92.1765 142.408 93.3614 Q142.664 92.9838 143.051 92.7842 Q143.437 92.5802 143.901 92.5802 Q144.878 92.5802 145.442 93.1748 Q146.011 93.7651 146.011 94.785 Q146.011 95.7833 145.42 96.3866 Q144.83 96.9899 143.849 96.9899 Q142.725 96.9899 142.13 96.1305 Q141.536 95.2668 141.536 93.6305 Q141.536 92.0941 142.265 91.1826 Q142.994 90.2668 144.222 90.2668 Q144.552 90.2668 144.887 90.3319 Q145.225 90.397 145.59 90.5272 Z" fill="#000000" fill-rule="evenodd" fill-opacity="1" /><path clip-path="url(#clip960)" d="M 0 0 M120.138 58.7132 L121.571 58.7132 L121.571 53.7696 L120.013 54.0821 L120.013 53.2835 L121.562 52.971 L122.439 52.971 L122.439 58.7132 L123.871 58.7132 L123.871 59.451 L120.138 59.451 L120.138 58.7132 Z" fill="#000000" fill-rule="evenodd" fill-opacity="1" /><path clip-path="url(#clip960)" d="M 0 0 M126.697 56.3738 Q126.072 56.3738 125.711 56.708 Q125.355 57.0422 125.355 57.6281 Q125.355 58.2141 125.711 58.5483 Q126.072 58.8825 126.697 58.8825 Q127.322 58.8825 127.682 58.5483 Q128.042 58.2097 128.042 57.6281 Q128.042 57.0422 127.682 56.708 Q127.326 56.3738 126.697 56.3738 M125.82 56.0005 Q125.256 55.8616 124.939 55.4754 Q124.626 55.0891 124.626 54.5335 Q124.626 53.7566 125.178 53.3052 Q125.733 52.8538 126.697 52.8538 Q127.664 52.8538 128.216 53.3052 Q128.767 53.7566 128.767 54.5335 Q128.767 55.0891 128.45 55.4754 Q128.138 55.8616 127.578 56.0005 Q128.211 56.1481 128.563 56.5778 Q128.919 57.0075 128.919 57.6281 Q128.919 58.57 128.342 59.0734 Q127.769 59.5769 126.697 59.5769 Q125.625 59.5769 125.047 59.0734 Q124.474 58.57 124.474 57.6281 Q124.474 57.0075 124.83 56.5778 Q125.186 56.1481 125.82 56.0005 M125.499 54.616 Q125.499 55.1195 125.811 55.4016 Q126.128 55.6837 126.697 55.6837 Q127.261 55.6837 127.578 55.4016 Q127.899 55.1195 127.899 54.616 Q127.899 54.1125 127.578 53.8304 Q127.261 53.5483 126.697 53.5483 Q126.128 53.5483 125.811 53.8304 Q125.499 54.1125 125.499 54.616 Z" fill="#000000" fill-rule="evenodd" fill-opacity="1" /><path clip-path="url(#clip960)" d="M 0 0 M188.315 108.597 L189.747 108.597 L189.747 103.654 L188.189 103.966 L188.189 103.168 L189.738 102.855 L190.615 102.855 L190.615 108.597 L192.047 108.597 L192.047 109.335 L188.315 109.335 L188.315 108.597 Z" fill="#000000" fill-rule="evenodd" fill-opacity="1" /><path clip-path="url(#clip960)" d="M 0 0 M193.024 109.2 L193.024 108.402 Q193.354 108.558 193.692 108.641 Q194.031 108.723 194.356 108.723 Q195.225 108.723 195.68 108.141 Q196.14 107.556 196.205 106.366 Q195.954 106.74 195.567 106.939 Q195.181 107.139 194.712 107.139 Q193.74 107.139 193.172 106.553 Q192.607 105.963 192.607 104.943 Q192.607 103.944 193.198 103.341 Q193.788 102.738 194.769 102.738 Q195.893 102.738 196.483 103.602 Q197.078 104.461 197.078 106.102 Q197.078 107.634 196.349 108.549 Q195.624 109.461 194.396 109.461 Q194.066 109.461 193.727 109.396 Q193.389 109.331 193.024 109.2 M194.769 106.453 Q195.359 106.453 195.702 106.049 Q196.049 105.646 196.049 104.943 Q196.049 104.244 195.702 103.84 Q195.359 103.432 194.769 103.432 Q194.179 103.432 193.831 103.84 Q193.488 104.244 193.488 104.943 Q193.488 105.646 193.831 106.049 Q194.179 106.453 194.769 106.453 Z" fill="#000000" fill-rule="evenodd" fill-opacity="1" /><path clip-path="url(#clip960)" d="M 0 0 M172.2 71.1842 L175.259 71.1842 L175.259 71.922 L171.145 71.922 L171.145 71.1842 Q171.644 70.6677 172.503 69.7996 Q173.367 68.9273 173.588 68.6755 Q174.009 68.2024 174.174 67.8769 Q174.344 67.5471 174.344 67.2302 Q174.344 66.7137 173.979 66.3882 Q173.619 66.0627 173.037 66.0627 Q172.625 66.0627 172.165 66.2059 Q171.709 66.3491 171.188 66.6399 L171.188 65.7545 Q171.718 65.5419 172.178 65.4333 Q172.638 65.3248 173.02 65.3248 Q174.027 65.3248 174.626 65.8283 Q175.225 66.3318 175.225 67.1738 Q175.225 67.5731 175.073 67.9333 Q174.925 68.2892 174.53 68.7753 Q174.422 68.9012 173.84 69.5045 Q173.259 70.1035 172.2 71.1842 Z" fill="#000000" fill-rule="evenodd" fill-opacity="1" /><path clip-path="url(#clip960)" d="M 0 0 M176.362 71.1842 L177.794 71.1842 L177.794 66.2406 L176.236 66.5531 L176.236 65.7545 L177.785 65.442 L178.662 65.442 L178.662 71.1842 L180.094 71.1842 L180.094 71.922 L176.362 71.922 L176.362 71.1842 Z" fill="#000000" fill-rule="evenodd" fill-opacity="1" /><path clip-path="url(#clip960)" d="M 0 0 M189.244 58.7132 L192.304 58.7132 L192.304 59.451 L188.189 59.451 L188.189 58.7132 Q188.688 58.1967 189.547 57.3286 Q190.411 56.4563 190.633 56.2045 Q191.054 55.7314 191.218 55.4059 Q191.388 55.0761 191.388 54.7592 Q191.388 54.2427 191.023 53.9172 Q190.663 53.5917 190.081 53.5917 Q189.669 53.5917 189.209 53.7349 Q188.753 53.8781 188.232 54.1689 L188.232 53.2835 Q188.762 53.0709 189.222 52.9624 Q189.682 52.8538 190.064 52.8538 Q191.071 52.8538 191.67 53.3573 Q192.269 53.8608 192.269 54.7028 Q192.269 55.1021 192.117 55.4623 Q191.969 55.8182 191.574 56.3043 Q191.466 56.4302 190.884 57.0335 Q190.303 57.6325 189.244 58.7132 Z" fill="#000000" fill-rule="evenodd" fill-opacity="1" /><path clip-path="url(#clip960)" d="M 0 0 M194.009 58.7132 L197.069 58.7132 L197.069 59.451 L192.955 59.451 L192.955 58.7132 Q193.454 58.1967 194.313 57.3286 Q195.177 56.4563 195.398 56.2045 Q195.819 55.7314 195.984 55.4059 Q196.153 55.0761 196.153 54.7592 Q196.153 54.2427 195.789 53.9172 Q195.429 53.5917 194.847 53.5917 Q194.435 53.5917 193.975 53.7349 Q193.519 53.8781 192.998 54.1689 L192.998 53.2835 Q193.527 53.0709 193.988 52.9624 Q194.448 52.8538 194.83 52.8538 Q195.837 52.8538 196.435 53.3573 Q197.034 53.8608 197.034 54.7028 Q197.034 55.1021 196.883 55.4623 Q196.735 55.8182 196.34 56.3043 Q196.231 56.4302 195.65 57.0335 Q195.068 57.6325 194.009 58.7132 Z" fill="#000000" fill-rule="evenodd" fill-opacity="1" /><path clip-path="url(#clip960)" d="M 0 0 M155.155 33.7712 L158.215 33.7712 L158.215 34.509 L154.101 34.509 L154.101 33.7712 Q154.6 33.2547 155.459 32.3867 Q156.323 31.5143 156.544 31.2625 Q156.965 30.7895 157.13 30.4639 Q157.3 30.1341 157.3 29.8172 Q157.3 29.3007 156.935 28.9752 Q156.575 28.6497 155.993 28.6497 Q155.581 28.6497 155.121 28.7929 Q154.665 28.9362 154.144 29.227 L154.144 28.3415 Q154.674 28.1289 155.134 28.0204 Q155.594 27.9119 155.976 27.9119 Q156.983 27.9119 157.582 28.4153 Q158.181 28.9188 158.181 29.7608 Q158.181 30.1601 158.029 30.5204 Q157.881 30.8763 157.486 31.3624 Q157.378 31.4882 156.796 32.0915 Q156.214 32.6905 155.155 33.7712 Z" fill="#000000" fill-rule="evenodd" fill-opacity="1" /><path clip-path="url(#clip960)" d="M 0 0 M161.822 31.0151 Q162.451 31.1497 162.803 31.575 Q163.159 32.0004 163.159 32.6254 Q163.159 33.5846 162.499 34.1097 Q161.839 34.6349 160.624 34.6349 Q160.216 34.6349 159.782 34.5525 Q159.352 34.4743 158.892 34.3137 L158.892 33.4674 Q159.257 33.6801 159.691 33.7886 Q160.125 33.8971 160.598 33.8971 Q161.423 33.8971 161.852 33.5716 Q162.287 33.246 162.287 32.6254 Q162.287 32.0525 161.883 31.7313 Q161.484 31.4058 160.767 31.4058 L160.012 31.4058 L160.012 30.6853 L160.802 30.6853 Q161.449 30.6853 161.792 30.4292 Q162.135 30.1688 162.135 29.6827 Q162.135 29.1836 161.779 28.9188 Q161.427 28.6497 160.767 28.6497 Q160.407 28.6497 159.995 28.7278 Q159.583 28.806 159.088 28.9709 L159.088 28.1896 Q159.587 28.0507 160.021 27.9813 Q160.459 27.9119 160.846 27.9119 Q161.844 27.9119 162.425 28.3676 Q163.007 28.819 163.007 29.5915 Q163.007 30.1297 162.699 30.503 Q162.391 30.8719 161.822 31.0151 Z" fill="#000000" fill-rule="evenodd" fill-opacity="1" /><path clip-path="url(#clip960)" d="M 0 0 M172.2 170.952 L175.259 170.952 L175.259 171.69 L171.145 171.69 L171.145 170.952 Q171.644 170.436 172.503 169.568 Q173.367 168.695 173.588 168.443 Q174.009 167.97 174.174 167.645 Q174.344 167.315 174.344 166.998 Q174.344 166.482 173.979 166.156 Q173.619 165.831 173.037 165.831 Q172.625 165.831 172.165 165.974 Q171.709 166.117 171.188 166.408 L171.188 165.522 Q171.718 165.31 172.178 165.201 Q172.638 165.093 173.02 165.093 Q174.027 165.093 174.626 165.596 Q175.225 166.1 175.225 166.942 Q175.225 167.341 175.073 167.701 Q174.925 168.057 174.53 168.543 Q174.422 168.669 173.84 169.272 Q173.259 169.871 172.2 170.952 Z" fill="#000000" fill-rule="evenodd" fill-opacity="1" /><path clip-path="url(#clip960)" d="M 0 0 M178.619 165.974 L176.405 169.433 L178.619 169.433 L178.619 165.974 M178.389 165.21 L179.491 165.21 L179.491 169.433 L180.416 169.433 L180.416 170.162 L179.491 170.162 L179.491 171.69 L178.619 171.69 L178.619 170.162 L175.693 170.162 L175.693 169.316 L178.389 165.21 Z" fill="#000000" fill-rule="evenodd" fill-opacity="1" /><circle clip-path="url(#clip962)" cx="171.145" cy="23.9821" r="3" fill="#0000ff" fill-rule="evenodd" fill-opacity="1" stroke="none"/>
<path clip-path="url(#clip960)" d="M 0 0 M172.2 21.3002 L175.259 21.3002 L175.259 22.0381 L171.145 22.0381 L171.145 21.3002 Q171.644 20.7837 172.503 19.9157 Q173.367 19.0433 173.588 18.7915 Q174.009 18.3185 174.174 17.9929 Q174.344 17.6631 174.344 17.3462 Q174.344 16.8297 173.979 16.5042 Q173.619 16.1787 173.037 16.1787 Q172.625 16.1787 172.165 16.3219 Q171.709 16.4652 171.188 16.756 L171.188 15.8706 Q171.718 15.6579 172.178 15.5494 Q172.638 15.4409 173.02 15.4409 Q174.027 15.4409 174.626 15.9443 Q175.225 16.4478 175.225 17.2898 Q175.225 17.6891 175.073 18.0494 Q174.925 18.4053 174.53 18.8914 Q174.422 19.0172 173.84 19.6205 Q173.259 20.2195 172.2 21.3002 Z" fill="#000000" fill-rule="evenodd" fill-opacity="1" /><path clip-path="url(#clip960)" d="M 0 0 M178.619 16.3219 L176.405 19.7811 L178.619 19.7811 L178.619 16.3219 M178.389 15.5581 L179.491 15.5581 L179.491 19.7811 L180.416 19.7811 L180.416 20.5103 L179.491 20.5103 L179.491 22.0381 L178.619 22.0381 L178.619 20.5103 L175.693 20.5103 L175.693 19.6639 L178.389 15.5581 Z" fill="#000000" fill-rule="evenodd" fill-opacity="1" /></svg>
