<?xml version="1.0" encoding="utf-8"?>
<svg xmlns="http://www.w3.org/2000/svg" xmlns:xlink="http://www.w3.org/1999/xlink" width="50" height="62.5" viewBox="0 0 200 250">
<defs>
  <clipPath id="clip570">
    <rect x="0" y="0" width="200" height="250"/>
  </clipPath>
</defs>
<path clip-path="url(#clip570)" d="
M0 250 L200 250 L200 0 L0 0  Z
  " fill="#ffffff" fill-rule="evenodd" fill-opacity="1"/>
<defs>
  <clipPath id="clip571">
    <rect x="50" y="25" width="176" height="176"/>
  </clipPath>
</defs>
<path clip-path="url(#clip570)" d="
M17.748 231.752 L188.189 231.752 L188.189 15.748 L17.748 15.748  Z
  " fill="#ffffff" fill-rule="evenodd" fill-opacity="1"/>
<defs>
  <clipPath id="clip572">
    <rect x="17" y="15" width="171" height="217"/>
  </clipPath>
</defs>
<polyline clip-path="url(#clip570)" style="stroke:#000000; stroke-width:1; stroke-opacity:1; fill:none" points="
  17.748,231.752 188.189,231.752 
  "/>
<polyline clip-path="url(#clip570)" style="stroke:#000000; stroke-width:1; stroke-opacity:1; fill:none" points="
  34.7921,231.752 34.7921,229.16 
  "/>
<polyline clip-path="url(#clip570)" style="stroke:#000000; stroke-width:1; stroke-opacity:1; fill:none" points="
  68.8803,231.752 68.8803,229.16 
  "/>
<polyline clip-path="url(#clip570)" style="stroke:#000000; stroke-width:1; stroke-opacity:1; fill:none" points="
  102.969,231.752 102.969,229.16 
  "/>
<polyline clip-path="url(#clip570)" style="stroke:#000000; stroke-width:1; stroke-opacity:1; fill:none" points="
  137.057,231.752 137.057,229.16 
  "/>
<polyline clip-path="url(#clip570)" style="stroke:#000000; stroke-width:1; stroke-opacity:1; fill:none" points="
  171.145,231.752 171.145,229.16 
  "/>
<path clip-path="url(#clip570)" d="M 0 0 M27.9056 239.913 L35.3245 239.913 L35.3245 240.897 L27.9056 240.897 L27.9056 239.913 Z" fill="#000000" fill-rule="evenodd" fill-opacity="1" /><path clip-path="url(#clip570)" d="M 0 0 M37.5988 243.136 L41.6787 243.136 L41.6787 244.12 L36.1926 244.12 L36.1926 243.136 Q36.8581 242.448 38.0039 241.29 Q39.1555 240.127 39.4507 239.791 Q40.012 239.161 40.2319 238.726 Q40.4576 238.287 40.4576 237.864 Q40.4576 237.176 39.9715 236.742 Q39.4912 236.308 38.7157 236.308 Q38.166 236.308 37.5525 236.498 Q36.9449 236.689 36.2505 237.077 L36.2505 235.897 Q36.9565 235.613 37.5699 235.468 Q38.1833 235.324 38.6926 235.324 Q40.0352 235.324 40.8338 235.995 Q41.6324 236.666 41.6324 237.789 Q41.6324 238.321 41.4298 238.802 Q41.2331 239.276 40.7064 239.924 Q40.5618 240.092 39.7863 240.897 Q39.0109 241.695 37.5988 243.136 Z" fill="#000000" fill-rule="evenodd" fill-opacity="1" /><path clip-path="url(#clip570)" d="M 0 0 M61.9475 239.913 L69.3664 239.913 L69.3664 240.897 L61.9475 240.897 L61.9475 239.913 Z" fill="#000000" fill-rule="evenodd" fill-opacity="1" /><path clip-path="url(#clip570)" d="M 0 0 M70.8363 243.136 L72.746 243.136 L72.746 236.545 L70.6685 236.961 L70.6685 235.897 L72.7345 235.48 L73.9034 235.48 L73.9034 243.136 L75.8131 243.136 L75.8131 244.12 L70.8363 244.12 L70.8363 243.136 Z" fill="#000000" fill-rule="evenodd" fill-opacity="1" /><path clip-path="url(#clip570)" d="M 0 0 M102.969 236.25 Q102.066 236.25 101.609 237.141 Q101.157 238.026 101.157 239.809 Q101.157 241.585 101.609 242.476 Q102.066 243.362 102.969 243.362 Q103.877 243.362 104.328 242.476 Q104.786 241.585 104.786 239.809 Q104.786 238.026 104.328 237.141 Q103.877 236.25 102.969 236.25 M102.969 235.324 Q104.421 235.324 105.185 236.475 Q105.955 237.621 105.955 239.809 Q105.955 241.99 105.185 243.142 Q104.421 244.288 102.969 244.288 Q101.516 244.288 100.746 243.142 Q99.9824 241.99 99.9824 239.809 Q99.9824 237.621 100.746 236.475 Q101.516 235.324 102.969 235.324 Z" fill="#000000" fill-rule="evenodd" fill-opacity="1" /><path clip-path="url(#clip570)" d="M 0 0 M134.652 243.136 L136.562 243.136 L136.562 236.545 L134.484 236.961 L134.484 235.897 L136.55 235.48 L137.719 235.48 L137.719 243.136 L139.629 243.136 L139.629 244.12 L134.652 244.12 L134.652 243.136 Z" fill="#000000" fill-rule="evenodd" fill-opacity="1" /><path clip-path="url(#clip570)" d="M 0 0 M169.808 243.136 L173.888 243.136 L173.888 244.12 L168.402 244.12 L168.402 243.136 Q169.067 242.448 170.213 241.29 Q171.365 240.127 171.66 239.791 Q172.221 239.161 172.441 238.726 Q172.667 238.287 172.667 237.864 Q172.667 237.176 172.181 236.742 Q171.7 236.308 170.925 236.308 Q170.375 236.308 169.762 236.498 Q169.154 236.689 168.46 237.077 L168.46 235.897 Q169.166 235.613 169.779 235.468 Q170.393 235.324 170.902 235.324 Q172.244 235.324 173.043 235.995 Q173.842 236.666 173.842 237.789 Q173.842 238.321 173.639 238.802 Q173.442 239.276 172.916 239.924 Q172.771 240.092 171.996 240.897 Q171.22 241.695 169.808 243.136 Z" fill="#000000" fill-rule="evenodd" fill-opacity="1" /><polyline clip-path="url(#clip570)" style="stroke:#000000; stroke-width:1; stroke-opacity:1; fill:none" points="
  17.748,231.752 17.748,15.748 
  "/>
<polyline clip-path="url(#clip570)" style="stroke:#000000; stroke-width:1; stroke-opacity:1; fill:none" points="
  17.748,210.152 19.7933,210.152 
  "/>
<polyline clip-path="url(#clip570)" style="stroke:#000000; stroke-width:1; stroke-opacity:1; fill:none" points="
  17.748,166.951 19.7933,166.951 
  "/>
<polyline clip-path="url(#clip570)" style="stroke:#000000; stroke-width:1; stroke-opacity:1; fill:none" points="
  17.748,123.75 19.7933,123.75 
  "/>
<polyline clip-path="url(#clip570)" style="stroke:#000000; stroke-width:1; stroke-opacity:1; fill:none" points="
  17.748,80.5492 19.7933,80.5492 
  "/>
<polyline clip-path="url(#clip570)" style="stroke:#000000; stroke-width:1; stroke-opacity:1; fill:none" points="
  17.748,37.3484 19.7933,37.3484 
  "/>
<path clip-path="url(#clip570)" d="M 0 0 M0.224957 210.264 L7.6439 210.264 L7.6439 211.248 L0.224957 211.248 L0.224957 210.264 Z" fill="#000000" fill-rule="evenodd" fill-opacity="1" /><path clip-path="url(#clip570)" d="M 0 0 M9.91819 213.488 L13.998 213.488 L13.998 214.472 L8.51195 214.472 L8.51195 213.488 Q9.17746 212.799 10.3233 211.642 Q11.4749 210.479 11.77 210.143 Q12.3314 209.512 12.5513 209.078 Q12.777 208.638 12.777 208.216 Q12.777 207.527 12.2909 207.093 Q11.8105 206.659 11.0351 206.659 Q10.4853 206.659 9.8719 206.85 Q9.26426 207.041 8.56982 207.429 L8.56982 206.248 Q9.27583 205.965 9.88926 205.82 Q10.5027 205.675 11.0119 205.675 Q12.3545 205.675 13.1531 206.347 Q13.9517 207.018 13.9517 208.141 Q13.9517 208.673 13.7492 209.153 Q13.5524 209.628 13.0258 210.276 Q12.8811 210.444 12.1057 211.248 Q11.3302 212.047 9.91819 213.488 Z" fill="#000000" fill-rule="evenodd" fill-opacity="1" /><path clip-path="url(#clip570)" d="M 0 0 M0.132365 167.064 L7.55131 167.064 L7.55131 168.047 L0.132365 168.047 L0.132365 167.064 Z" fill="#000000" fill-rule="evenodd" fill-opacity="1" /><path clip-path="url(#clip570)" d="M 0 0 M9.02121 170.287 L10.9309 170.287 L10.9309 163.696 L8.85338 164.112 L8.85338 163.047 L10.9193 162.631 L12.0883 162.631 L12.0883 170.287 L13.998 170.287 L13.998 171.271 L9.02121 171.271 L9.02121 170.287 Z" fill="#000000" fill-rule="evenodd" fill-opacity="1" /><path clip-path="url(#clip570)" d="M 0 0 M11.0119 120.2 Q10.1092 120.2 9.65199 121.091 Q9.2006 121.976 9.2006 123.759 Q9.2006 125.535 9.65199 126.426 Q10.1092 127.312 11.0119 127.312 Q11.9205 127.312 12.3719 126.426 Q12.8291 125.535 12.8291 123.759 Q12.8291 121.976 12.3719 121.091 Q11.9205 120.2 11.0119 120.2 M11.0119 119.274 Q12.4645 119.274 13.2284 120.425 Q13.998 121.571 13.998 123.759 Q13.998 125.94 13.2284 127.092 Q12.4645 128.238 11.0119 128.238 Q9.5594 128.238 8.78973 127.092 Q8.02584 125.94 8.02584 123.759 Q8.02584 121.571 8.78973 120.425 Q9.5594 119.274 11.0119 119.274 Z" fill="#000000" fill-rule="evenodd" fill-opacity="1" /><path clip-path="url(#clip570)" d="M 0 0 M9.02121 83.8854 L10.9309 83.8854 L10.9309 77.294 L8.85338 77.7107 L8.85338 76.6459 L10.9193 76.2292 L12.0883 76.2292 L12.0883 83.8854 L13.998 83.8854 L13.998 84.8692 L9.02121 84.8692 L9.02121 83.8854 Z" fill="#000000" fill-rule="evenodd" fill-opacity="1" /><path clip-path="url(#clip570)" d="M 0 0 M9.91819 40.6846 L13.998 40.6846 L13.998 41.6684 L8.51195 41.6684 L8.51195 40.6846 Q9.17746 39.996 10.3233 38.8386 Q11.4749 37.6754 11.77 37.3397 Q12.3314 36.709 12.5513 36.2749 Q12.777 35.8351 12.777 35.4127 Q12.777 34.724 12.2909 34.29 Q11.8105 33.856 11.0351 33.856 Q10.4853 33.856 9.8719 34.0469 Q9.26426 34.2379 8.56982 34.6256 L8.56982 33.4451 Q9.27583 33.1615 9.88926 33.0169 Q10.5027 32.8722 11.0119 32.8722 Q12.3545 32.8722 13.1531 33.5435 Q13.9517 34.2148 13.9517 35.3374 Q13.9517 35.8698 13.7492 36.3502 Q13.5524 36.8247 13.0258 37.4728 Q12.8811 37.6407 12.1057 38.4451 Q11.3302 39.2437 9.91819 40.6846 Z" fill="#000000" fill-rule="evenodd" fill-opacity="1" /><path clip-path="url(#clip570)" d="M 0 0 M89.9969 1.36342 L92.4506 1.36342 L92.4506 2.19096 L91.0617 2.19096 L91.0617 11.1029 L92.4506 11.1029 L92.4506 11.9305 L89.9969 11.9305 L89.9969 1.36342 Z" fill="#000000" fill-rule="evenodd" fill-opacity="1" /><path clip-path="url(#clip570)" d="M 0 0 M96.218 2.49767 Q95.3152 2.49767 94.858 3.38887 Q94.4066 4.27428 94.4066 6.05668 Q94.4066 7.83329 94.858 8.72449 Q95.3152 9.6099 96.218 9.6099 Q97.1265 9.6099 97.5779 8.72449 Q98.0351 7.83329 98.0351 6.05668 Q98.0351 4.27428 97.5779 3.38887 Q97.1265 2.49767 96.218 2.49767 M96.218 1.57175 Q97.6705 1.57175 98.4344 2.72337 Q99.2041 3.86919 99.2041 6.05668 Q99.2041 8.23838 98.4344 9.39 Q97.6705 10.5358 96.218 10.5358 Q94.7654 10.5358 93.9958 9.39 Q93.2319 8.23838 93.2319 6.05668 Q93.2319 3.86919 93.9958 2.72337 Q94.7654 1.57175 96.218 1.57175 Z" fill="#000000" fill-rule="evenodd" fill-opacity="1" /><path clip-path="url(#clip570)" d="M 0 0 M100.593 8.8981 L101.814 8.8981 L101.814 9.89347 L100.865 11.7453 L100.118 11.7453 L100.593 9.89347 L100.593 8.8981 Z" fill="#000000" fill-rule="evenodd" fill-opacity="1" /><path clip-path="url(#clip570)" d="M 0 0 M109.349 2.49767 Q108.446 2.49767 107.989 3.38887 Q107.537 4.27428 107.537 6.05668 Q107.537 7.83329 107.989 8.72449 Q108.446 9.6099 109.349 9.6099 Q110.257 9.6099 110.709 8.72449 Q111.166 7.83329 111.166 6.05668 Q111.166 4.27428 110.709 3.38887 Q110.257 2.49767 109.349 2.49767 M109.349 1.57175 Q110.801 1.57175 111.565 2.72337 Q112.335 3.86919 112.335 6.05668 Q112.335 8.23838 111.565 9.39 Q110.801 10.5358 109.349 10.5358 Q107.896 10.5358 107.126 9.39 Q106.363 8.23838 106.363 6.05668 Q106.363 3.86919 107.126 2.72337 Q107.896 1.57175 109.349 1.57175 Z" fill="#000000" fill-rule="evenodd" fill-opacity="1" /><path clip-path="url(#clip570)" d="M 0 0 M115.94 1.36342 L115.94 11.9305 L113.486 11.9305 L113.486 11.1029 L114.869 11.1029 L114.869 2.19096 L113.486 2.19096 L113.486 1.36342 L115.94 1.36342 Z" fill="#000000" fill-rule="evenodd" fill-opacity="1" /><circle clip-path="url(#clip572)" cx="34.7921" cy="223.518" r="3" fill="#0000ff" fill-rule="evenodd" fill-opacity="1" stroke="none"/>
<path clip-path="url(#clip570)" d="M 0 0 M34.918 220.836 L36.3503 220.836 L36.3503 215.893 L34.7921 216.205 L34.7921 215.406 L36.3416 215.094 L37.2183 215.094 L37.2183 220.836 L38.6506 220.836 L38.6506 221.574 L34.918 221.574 L34.918 220.836 Z" fill="#000000" fill-rule="evenodd" fill-opacity="1" /><path clip-path="url(#clip570)" d="M 0 0 M39.3798 215.094 L43.5464 215.094 L43.5464 215.467 L41.194 221.574 L40.2782 221.574 L42.4917 215.832 L39.3798 215.832 L39.3798 215.094 Z" fill="#000000" fill-rule="evenodd" fill-opacity="1" /><circle clip-path="url(#clip572)" cx="17.748" cy="186.105" r="3" fill="#0000ff" fill-rule="evenodd" fill-opacity="1" stroke="none"/>
<circle clip-path="url(#clip572)" cx="17.748" cy="211.047" r="3" fill="#0000ff" fill-rule="evenodd" fill-opacity="1" stroke="none"/>
<circle clip-path="url(#clip572)" cx="51.8362" cy="186.105" r="3" fill="#0000ff" fill-rule="evenodd" fill-opacity="1" stroke="none"/>
<circle clip-path="url(#clip572)" cx="51.8362" cy="211.047" r="3" fill="#0000ff" fill-rule="evenodd" fill-opacity="1" stroke="none"/>
<circle clip-path="url(#clip572)" cx="85.9244" cy="186.105" r="3" fill="#0000ff" fill-rule="evenodd" fill-opacity="1" stroke="none"/>
<circle clip-path="url(#clip572)" cx="85.9244" cy="211.047" r="3" fill="#0000ff" fill-rule="evenodd" fill-opacity="1" stroke="none"/>
<circle clip-path="url(#clip572)" cx="17.748" cy="111.279" r="3" fill="#0000ff" fill-rule="evenodd" fill-opacity="1" stroke="none"/>
<circle clip-path="url(#clip572)" cx="17.748" cy="136.221" r="3" fill="#0000ff" fill-rule="evenodd" fill-opacity="1" stroke="none"/>
<circle clip-path="url(#clip572)" cx="51.8362" cy="111.279" r="3" fill="#0000ff" fill-rule="evenodd" fill-opacity="1" stroke="none"/>
<circle clip-path="url(#clip572)" cx="51.8362" cy="136.221" r="3" fill="#0000ff" fill-rule="evenodd" fill-opacity="1" stroke="none"/>
<circle clip-path="url(#clip572)" cx="85.9244" cy="111.279" r="3" fill="#0000ff" fill-rule="evenodd" fill-opacity="1" stroke="none"/>
<circle clip-path="url(#clip572)" cx="85.9244" cy="136.221" r="3" fill="#0000ff" fill-rule="evenodd" fill-opacity="1" stroke="none"/>
<circle clip-path="url(#clip572)" cx="68.8803" cy="148.692" r="3" fill="#0000ff" fill-rule="evenodd" fill-opacity="1" stroke="none"/>
<circle clip-path="url(#clip572)" cx="68.8803" cy="173.634" r="3" fill="#0000ff" fill-rule="evenodd" fill-opacity="1" stroke="none"/>
<circle clip-path="url(#clip572)" cx="102.969" cy="148.692" r="3" fill="#0000ff" fill-rule="evenodd" fill-opacity="1" stroke="none"/>
<circle clip-path="url(#clip572)" cx="102.969" cy="173.634" r="3" fill="#0000ff" fill-rule="evenodd" fill-opacity="1" stroke="none"/>
<circle clip-path="url(#clip572)" cx="34.7921" cy="73.866" r="3" fill="#0000ff" fill-rule="evenodd" fill-opacity="1" stroke="none"/>
<circle clip-path="url(#clip572)" cx="34.7921" cy="98.808" r="3" fill="#0000ff" fill-rule="evenodd" fill-opacity="1" stroke="none"/>
<circle clip-path="url(#clip572)" cx="68.8803" cy="223.518" r="3" fill="#0000ff" fill-rule="evenodd" fill-opacity="1" stroke="none"/>
<circle clip-path="url(#clip572)" cx="102.969" cy="223.518" r="3" fill="#0000ff" fill-rule="evenodd" fill-opacity="1" stroke="none"/>
<circle clip-path="url(#clip572)" cx="34.7921" cy="148.692" r="3" fill="#0000ff" fill-rule="evenodd" fill-opacity="1" stroke="none"/>
<circle clip-path="url(#clip572)" cx="34.7921" cy="173.634" r="3" fill="#0000ff" fill-rule="evenodd" fill-opacity="1" stroke="none"/>
<path clip-path="url(#clip570)" d="M 0 0 M17.8739 183.423 L19.3062 183.423 L19.3062 178.48 L17.748 178.792 L17.748 177.993 L19.2975 177.681 L20.1742 177.681 L20.1742 183.423 L21.6065 183.423 L21.6065 184.161 L17.8739 184.161 L17.8739 183.423 Z" fill="#000000" fill-rule="evenodd" fill-opacity="1" /><path clip-path="url(#clip570)" d="M 0 0 M18.8027 208.365 L21.8626 208.365 L21.8626 209.103 L17.748 209.103 L17.748 208.365 Q18.2472 207.849 19.1065 206.981 Q19.9702 206.108 20.1916 205.856 Q20.6126 205.383 20.7775 205.058 Q20.9468 204.728 20.9468 204.411 Q20.9468 203.895 20.5822 203.569 Q20.222 203.244 19.6404 203.244 Q19.2281 203.244 18.768 203.387 Q18.3123 203.53 17.7914 203.821 L17.7914 202.935 Q18.3209 202.723 18.781 202.614 Q19.2411 202.506 19.623 202.506 Q20.63 202.506 21.2289 203.009 Q21.8279 203.513 21.8279 204.355 Q21.8279 204.754 21.676 205.114 Q21.5284 205.47 21.1334 205.956 Q21.0249 206.082 20.4433 206.685 Q19.8617 207.284 18.8027 208.365 Z" fill="#000000" fill-rule="evenodd" fill-opacity="1" /><path clip-path="url(#clip570)" d="M 0 0 M54.7659 180.667 Q55.3952 180.802 55.7468 181.227 Q56.1027 181.652 56.1027 182.277 Q56.1027 183.236 55.443 183.762 Q54.7833 184.287 53.568 184.287 Q53.16 184.287 52.726 184.204 Q52.2963 184.126 51.8362 183.966 L51.8362 183.119 Q52.2008 183.332 52.6348 183.44 Q53.0689 183.549 53.5419 183.549 Q54.3666 183.549 54.7963 183.223 Q55.2303 182.898 55.2303 182.277 Q55.2303 181.704 54.8267 181.383 Q54.4274 181.058 53.7112 181.058 L52.956 181.058 L52.956 180.337 L53.7459 180.337 Q54.3926 180.337 54.7355 180.081 Q55.0784 179.821 55.0784 179.335 Q55.0784 178.835 54.7225 178.571 Q54.3709 178.302 53.7112 178.302 Q53.351 178.302 52.9386 178.38 Q52.5263 178.458 52.0315 178.623 L52.0315 177.842 Q52.5307 177.703 52.9647 177.633 Q53.4031 177.564 53.7893 177.564 Q54.7876 177.564 55.3692 178.02 Q55.9508 178.471 55.9508 179.243 Q55.9508 179.782 55.6426 180.155 Q55.3345 180.524 54.7659 180.667 Z" fill="#000000" fill-rule="evenodd" fill-opacity="1" /><path clip-path="url(#clip570)" d="M 0 0 M54.7616 203.387 L52.548 206.846 L54.7616 206.846 L54.7616 203.387 M54.5315 202.623 L55.6339 202.623 L55.6339 206.846 L56.5584 206.846 L56.5584 207.575 L55.6339 207.575 L55.6339 209.103 L54.7616 209.103 L54.7616 207.575 L51.8362 207.575 L51.8362 206.729 L54.5315 202.623 Z" fill="#000000" fill-rule="evenodd" fill-opacity="1" /><path clip-path="url(#clip570)" d="M 0 0 M86.1978 177.681 L89.6397 177.681 L89.6397 178.419 L87.0008 178.419 L87.0008 180.007 Q87.1918 179.942 87.3827 179.912 Q87.5737 179.877 87.7647 179.877 Q88.8497 179.877 89.4834 180.472 Q90.1171 181.066 90.1171 182.082 Q90.1171 183.128 89.4661 183.71 Q88.815 184.287 87.6301 184.287 Q87.2221 184.287 86.7968 184.217 Q86.3758 184.148 85.9244 184.009 L85.9244 183.128 Q86.315 183.341 86.7317 183.445 Q87.1484 183.549 87.6128 183.549 Q88.3636 183.549 88.802 183.154 Q89.2404 182.759 89.2404 182.082 Q89.2404 181.405 88.802 181.01 Q88.3636 180.615 87.6128 180.615 Q87.2612 180.615 86.9096 180.693 Q86.5624 180.771 86.1978 180.936 L86.1978 177.681 Z" fill="#000000" fill-rule="evenodd" fill-opacity="1" /><path clip-path="url(#clip570)" d="M 0 0 M88.2378 205.514 Q87.6475 205.514 87.3003 205.917 Q86.9574 206.321 86.9574 207.024 Q86.9574 207.723 87.3003 208.131 Q87.6475 208.534 88.2378 208.534 Q88.828 208.534 89.1709 208.131 Q89.5181 207.723 89.5181 207.024 Q89.5181 206.321 89.1709 205.917 Q88.828 205.514 88.2378 205.514 M89.9782 202.766 L89.9782 203.565 Q89.6483 203.409 89.3098 203.326 Q88.9756 203.244 88.6457 203.244 Q87.7777 203.244 87.3176 203.83 Q86.8619 204.415 86.7968 205.6 Q87.0529 205.223 87.4392 205.023 Q87.8254 204.819 88.2898 204.819 Q89.2664 204.819 89.8306 205.414 Q90.3992 206.004 90.3992 207.024 Q90.3992 208.022 89.8089 208.626 Q89.2187 209.229 88.2378 209.229 Q87.1136 209.229 86.519 208.369 Q85.9244 207.506 85.9244 205.869 Q85.9244 204.333 86.6536 203.422 Q87.3827 202.506 88.611 202.506 Q88.9409 202.506 89.2751 202.571 Q89.6136 202.636 89.9782 202.766 Z" fill="#000000" fill-rule="evenodd" fill-opacity="1" /><path clip-path="url(#clip570)" d="M 0 0 M17.748 102.855 L21.9147 102.855 L21.9147 103.228 L19.5623 109.335 L18.6465 109.335 L20.86 103.593 L17.748 103.593 L17.748 102.855 Z" fill="#000000" fill-rule="evenodd" fill-opacity="1" /><path clip-path="url(#clip570)" d="M 0 0 M19.9702 131.2 Q19.3452 131.2 18.985 131.534 Q18.6291 131.868 18.6291 132.454 Q18.6291 133.04 18.985 133.374 Q19.3452 133.708 19.9702 133.708 Q20.5952 133.708 20.9555 133.374 Q21.3157 133.036 21.3157 132.454 Q21.3157 131.868 20.9555 131.534 Q20.5996 131.2 19.9702 131.2 M19.0935 130.826 Q18.5293 130.688 18.2124 130.301 Q17.8999 129.915 17.8999 129.359 Q17.8999 128.583 18.4512 128.131 Q19.0067 127.68 19.9702 127.68 Q20.9381 127.68 21.4893 128.131 Q22.0405 128.583 22.0405 129.359 Q22.0405 129.915 21.7237 130.301 Q21.4112 130.688 20.8513 130.826 Q21.485 130.974 21.8366 131.404 Q22.1925 131.833 22.1925 132.454 Q22.1925 133.396 21.6152 133.899 Q21.0423 134.403 19.9702 134.403 Q18.8982 134.403 18.3209 133.899 Q17.748 133.396 17.748 132.454 Q17.748 131.833 18.1039 131.404 Q18.4598 130.974 19.0935 130.826 M18.7723 129.442 Q18.7723 129.945 19.0848 130.228 Q19.4017 130.51 19.9702 130.51 Q20.5345 130.51 20.8513 130.228 Q21.1725 129.945 21.1725 129.442 Q21.1725 128.938 20.8513 128.656 Q20.5345 128.374 19.9702 128.374 Q19.4017 128.374 19.0848 128.656 Q18.7723 128.938 18.7723 129.442 Z" fill="#000000" fill-rule="evenodd" fill-opacity="1" /><path clip-path="url(#clip570)" d="M 0 0 M52.2529 109.2 L52.2529 108.402 Q52.5827 108.558 52.9213 108.641 Q53.2598 108.723 53.5853 108.723 Q54.4534 108.723 54.9091 108.141 Q55.3692 107.556 55.4343 106.366 Q55.1826 106.74 54.7963 106.939 Q54.41 107.139 53.9412 107.139 Q52.969 107.139 52.4005 106.553 Q51.8362 105.963 51.8362 104.943 Q51.8362 103.944 52.4265 103.341 Q53.0168 102.738 53.9977 102.738 Q55.1218 102.738 55.7121 103.602 Q56.3067 104.461 56.3067 106.102 Q56.3067 107.634 55.5775 108.549 Q54.8527 109.461 53.6244 109.461 Q53.2945 109.461 52.956 109.396 Q52.6175 109.331 52.2529 109.2 M53.9977 106.453 Q54.5879 106.453 54.9308 106.049 Q55.278 105.646 55.278 104.943 Q55.278 104.244 54.9308 103.84 Q54.5879 103.432 53.9977 103.432 Q53.4074 103.432 53.0602 103.84 Q52.7173 104.244 52.7173 104.943 Q52.7173 105.646 53.0602 106.049 Q53.4074 106.453 53.9977 106.453 Z" fill="#000000" fill-rule="evenodd" fill-opacity="1" /><path clip-path="url(#clip570)" d="M 0 0 M51.9621 133.539 L53.3944 133.539 L53.3944 128.596 L51.8362 128.908 L51.8362 128.109 L53.3857 127.797 L54.2624 127.797 L54.2624 133.539 L55.6947 133.539 L55.6947 134.277 L51.9621 134.277 L51.9621 133.539 Z" fill="#000000" fill-rule="evenodd" fill-opacity="1" /><path clip-path="url(#clip570)" d="M 0 0 M58.5202 128.374 Q57.8431 128.374 57.5003 129.043 Q57.1617 129.707 57.1617 131.044 Q57.1617 132.376 57.5003 133.044 Q57.8431 133.708 58.5202 133.708 Q59.2016 133.708 59.5402 133.044 Q59.8831 132.376 59.8831 131.044 Q59.8831 129.707 59.5402 129.043 Q59.2016 128.374 58.5202 128.374 M58.5202 127.68 Q59.6096 127.68 60.1825 128.544 Q60.7598 129.403 60.7598 131.044 Q60.7598 132.68 60.1825 133.543 Q59.6096 134.403 58.5202 134.403 Q57.4308 134.403 56.8536 133.543 Q56.2806 132.68 56.2806 131.044 Q56.2806 129.403 56.8536 128.544 Q57.4308 127.68 58.5202 127.68 Z" fill="#000000" fill-rule="evenodd" fill-opacity="1" /><path clip-path="url(#clip570)" d="M 0 0 M86.0503 108.597 L87.4826 108.597 L87.4826 103.654 L85.9244 103.966 L85.9244 103.168 L87.4739 102.855 L88.3506 102.855 L88.3506 108.597 L89.7829 108.597 L89.7829 109.335 L86.0503 109.335 L86.0503 108.597 Z" fill="#000000" fill-rule="evenodd" fill-opacity="1" /><path clip-path="url(#clip570)" d="M 0 0 M90.8853 108.597 L92.3176 108.597 L92.3176 103.654 L90.7595 103.966 L90.7595 103.168 L92.3089 102.855 L93.1857 102.855 L93.1857 108.597 L94.6179 108.597 L94.6179 109.335 L90.8853 109.335 L90.8853 108.597 Z" fill="#000000" fill-rule="evenodd" fill-opacity="1" /><path clip-path="url(#clip570)" d="M 0 0 M86.0503 133.539 L87.4826 133.539 L87.4826 128.596 L85.9244 128.908 L85.9244 128.109 L87.4739 127.797 L88.3506 127.797 L88.3506 133.539 L89.7829 133.539 L89.7829 134.277 L86.0503 134.277 L86.0503 133.539 Z" fill="#000000" fill-rule="evenodd" fill-opacity="1" /><path clip-path="url(#clip570)" d="M 0 0 M91.4886 133.539 L94.5485 133.539 L94.5485 134.277 L90.4339 134.277 L90.4339 133.539 Q90.9331 133.023 91.7924 132.155 Q92.6561 131.282 92.8775 131.03 Q93.2985 130.557 93.4634 130.232 Q93.6327 129.902 93.6327 129.585 Q93.6327 129.069 93.2681 128.743 Q92.9079 128.418 92.3263 128.418 Q91.914 128.418 91.4539 128.561 Q90.9982 128.704 90.4773 128.995 L90.4773 128.109 Q91.0068 127.897 91.4669 127.788 Q91.927 127.68 92.3089 127.68 Q93.3159 127.68 93.9148 128.183 Q94.5138 128.687 94.5138 129.529 Q94.5138 129.928 94.3619 130.288 Q94.2143 130.644 93.8193 131.13 Q93.7108 131.256 93.1292 131.859 Q92.5476 132.458 91.4886 133.539 Z" fill="#000000" fill-rule="evenodd" fill-opacity="1" /><path clip-path="url(#clip570)" d="M 0 0 M69.0062 146.01 L70.4385 146.01 L70.4385 141.067 L68.8803 141.379 L68.8803 140.58 L70.4298 140.268 L71.3065 140.268 L71.3065 146.01 L72.7388 146.01 L72.7388 146.748 L69.0062 146.748 L69.0062 146.01 Z" fill="#000000" fill-rule="evenodd" fill-opacity="1" /><path clip-path="url(#clip570)" d="M 0 0 M76.3456 143.254 Q76.9749 143.389 77.3265 143.814 Q77.6824 144.239 77.6824 144.864 Q77.6824 145.824 77.0226 146.349 Q76.3629 146.874 75.1476 146.874 Q74.7397 146.874 74.3056 146.791 Q73.8759 146.713 73.4159 146.553 L73.4159 145.706 Q73.7805 145.919 74.2145 146.028 Q74.6485 146.136 75.1216 146.136 Q75.9462 146.136 76.3759 145.81 Q76.81 145.485 76.81 144.864 Q76.81 144.291 76.4063 143.97 Q76.007 143.645 75.2909 143.645 L74.5357 143.645 L74.5357 142.924 L75.3256 142.924 Q75.9723 142.924 76.3152 142.668 Q76.6581 142.408 76.6581 141.922 Q76.6581 141.422 76.3022 141.158 Q75.9506 140.889 75.2909 140.889 Q74.9306 140.889 74.5183 140.967 Q74.106 141.045 73.6112 141.21 L73.6112 140.429 Q74.1103 140.29 74.5443 140.22 Q74.9827 140.151 75.369 140.151 Q76.3673 140.151 76.9488 140.607 Q77.5304 141.058 77.5304 141.83 Q77.5304 142.369 77.2223 142.742 Q76.9141 143.111 76.3456 143.254 Z" fill="#000000" fill-rule="evenodd" fill-opacity="1" /><path clip-path="url(#clip570)" d="M 0 0 M69.0062 170.952 L70.4385 170.952 L70.4385 166.009 L68.8803 166.321 L68.8803 165.522 L70.4298 165.21 L71.3065 165.21 L71.3065 170.952 L72.7388 170.952 L72.7388 171.69 L69.0062 171.69 L69.0062 170.952 Z" fill="#000000" fill-rule="evenodd" fill-opacity="1" /><path clip-path="url(#clip570)" d="M 0 0 M76.0982 165.974 L73.8846 169.433 L76.0982 169.433 L76.0982 165.974 M75.8681 165.21 L76.9705 165.21 L76.9705 169.433 L77.895 169.433 L77.895 170.162 L76.9705 170.162 L76.9705 171.69 L76.0982 171.69 L76.0982 170.162 L73.1728 170.162 L73.1728 169.316 L75.8681 165.21 Z" fill="#000000" fill-rule="evenodd" fill-opacity="1" /><path clip-path="url(#clip570)" d="M 0 0 M103.094 146.01 L104.527 146.01 L104.527 141.067 L102.969 141.379 L102.969 140.58 L104.518 140.268 L105.395 140.268 L105.395 146.01 L106.827 146.01 L106.827 146.748 L103.094 146.748 L103.094 146.01 Z" fill="#000000" fill-rule="evenodd" fill-opacity="1" /><path clip-path="url(#clip570)" d="M 0 0 M107.786 140.268 L111.228 140.268 L111.228 141.006 L108.589 141.006 L108.589 142.594 Q108.78 142.529 108.971 142.499 Q109.162 142.464 109.353 142.464 Q110.438 142.464 111.072 143.059 Q111.705 143.653 111.705 144.669 Q111.705 145.715 111.054 146.297 Q110.403 146.874 109.218 146.874 Q108.81 146.874 108.385 146.804 Q107.964 146.735 107.513 146.596 L107.513 145.715 Q107.903 145.928 108.32 146.032 Q108.737 146.136 109.201 146.136 Q109.952 146.136 110.39 145.741 Q110.829 145.346 110.829 144.669 Q110.829 143.992 110.39 143.597 Q109.952 143.202 109.201 143.202 Q108.85 143.202 108.498 143.28 Q108.151 143.358 107.786 143.523 L107.786 140.268 Z" fill="#000000" fill-rule="evenodd" fill-opacity="1" /><path clip-path="url(#clip570)" d="M 0 0 M103.094 170.952 L104.527 170.952 L104.527 166.009 L102.969 166.321 L102.969 165.522 L104.518 165.21 L105.395 165.21 L105.395 170.952 L106.827 170.952 L106.827 171.69 L103.094 171.69 L103.094 170.952 Z" fill="#000000" fill-rule="evenodd" fill-opacity="1" /><path clip-path="url(#clip570)" d="M 0 0 M109.761 168.101 Q109.171 168.101 108.824 168.504 Q108.481 168.908 108.481 169.611 Q108.481 170.31 108.824 170.718 Q109.171 171.121 109.761 171.121 Q110.351 171.121 110.694 170.718 Q111.041 170.31 111.041 169.611 Q111.041 168.908 110.694 168.504 Q110.351 168.101 109.761 168.101 M111.501 165.353 L111.501 166.152 Q111.172 165.996 110.833 165.913 Q110.499 165.831 110.169 165.831 Q109.301 165.831 108.841 166.417 Q108.385 167.002 108.32 168.187 Q108.576 167.81 108.962 167.61 Q109.349 167.406 109.813 167.406 Q110.79 167.406 111.354 168.001 Q111.922 168.591 111.922 169.611 Q111.922 170.609 111.332 171.213 Q110.742 171.816 109.761 171.816 Q108.637 171.816 108.042 170.956 Q107.448 170.093 107.448 168.456 Q107.448 166.92 108.177 166.009 Q108.906 165.093 110.134 165.093 Q110.464 165.093 110.798 165.158 Q111.137 165.223 111.501 165.353 Z" fill="#000000" fill-rule="evenodd" fill-opacity="1" /><path clip-path="url(#clip570)" d="M 0 0 M34.918 71.1842 L36.3503 71.1842 L36.3503 66.2406 L34.7921 66.5531 L34.7921 65.7545 L36.3416 65.442 L37.2183 65.442 L37.2183 71.1842 L38.6506 71.1842 L38.6506 71.922 L34.918 71.922 L34.918 71.1842 Z" fill="#000000" fill-rule="evenodd" fill-opacity="1" /><path clip-path="url(#clip570)" d="M 0 0 M39.3798 65.442 L43.5464 65.442 L43.5464 65.8153 L41.194 71.922 L40.2782 71.922 L42.4917 66.1799 L39.3798 66.1799 L39.3798 65.442 Z" fill="#000000" fill-rule="evenodd" fill-opacity="1" /><path clip-path="url(#clip570)" d="M 0 0 M34.918 96.1262 L36.3503 96.1262 L36.3503 91.1826 L34.7921 91.4951 L34.7921 90.6965 L36.3416 90.384 L37.2183 90.384 L37.2183 96.1262 L38.6506 96.1262 L38.6506 96.864 L34.918 96.864 L34.918 96.1262 Z" fill="#000000" fill-rule="evenodd" fill-opacity="1" /><path clip-path="url(#clip570)" d="M 0 0 M41.4761 93.7868 Q40.8511 93.7868 40.4909 94.121 Q40.135 94.4552 40.135 95.0411 Q40.135 95.627 40.4909 95.9612 Q40.8511 96.2954 41.4761 96.2954 Q42.1011 96.2954 42.4614 95.9612 Q42.8216 95.6227 42.8216 95.0411 Q42.8216 94.4552 42.4614 94.121 Q42.1055 93.7868 41.4761 93.7868 M40.5994 93.4135 Q40.0352 93.2746 39.7183 92.8883 Q39.4058 92.5021 39.4058 91.9465 Q39.4058 91.1696 39.957 90.7182 Q40.5126 90.2668 41.4761 90.2668 Q42.444 90.2668 42.9952 90.7182 Q43.5464 91.1696 43.5464 91.9465 Q43.5464 92.5021 43.2296 92.8883 Q42.9171 93.2746 42.3572 93.4135 Q42.9909 93.5611 43.3424 93.9908 Q43.6983 94.4205 43.6983 95.0411 Q43.6983 95.9829 43.1211 96.4864 Q42.5482 96.9899 41.4761 96.9899 Q40.4041 96.9899 39.8268 96.4864 Q39.2539 95.9829 39.2539 95.0411 Q39.2539 94.4205 39.6098 93.9908 Q39.9657 93.5611 40.5994 93.4135 M40.2782 92.029 Q40.2782 92.5324 40.5907 92.8146 Q40.9075 93.0967 41.4761 93.0967 Q42.0404 93.0967 42.3572 92.8146 Q42.6784 92.5324 42.6784 92.029 Q42.6784 91.5255 42.3572 91.2434 Q42.0404 90.9613 41.4761 90.9613 Q40.9075 90.9613 40.5907 91.2434 Q40.2782 91.5255 40.2782 92.029 Z" fill="#000000" fill-rule="evenodd" fill-opacity="1" /><path clip-path="url(#clip570)" d="M 0 0 M69.0062 220.836 L70.4385 220.836 L70.4385 215.893 L68.8803 216.205 L68.8803 215.406 L70.4298 215.094 L71.3065 215.094 L71.3065 220.836 L72.7388 220.836 L72.7388 221.574 L69.0062 221.574 L69.0062 220.836 Z" fill="#000000" fill-rule="evenodd" fill-opacity="1" /><path clip-path="url(#clip570)" d="M 0 0 M73.7154 221.439 L73.7154 220.641 Q74.0452 220.797 74.3838 220.88 Q74.7223 220.962 75.0478 220.962 Q75.9159 220.962 76.3716 220.38 Q76.8317 219.794 76.8968 218.605 Q76.645 218.978 76.2587 219.178 Q75.8725 219.378 75.4037 219.378 Q74.4315 219.378 73.8629 218.792 Q73.2987 218.202 73.2987 217.182 Q73.2987 216.183 73.889 215.58 Q74.4792 214.977 75.4601 214.977 Q76.5843 214.977 77.1745 215.84 Q77.7692 216.7 77.7692 218.34 Q77.7692 219.873 77.04 220.788 Q76.3152 221.7 75.0869 221.7 Q74.757 221.7 74.4185 221.635 Q74.0799 221.57 73.7154 221.439 M75.4601 218.692 Q76.0504 218.692 76.3933 218.288 Q76.7405 217.885 76.7405 217.182 Q76.7405 216.483 76.3933 216.079 Q76.0504 215.671 75.4601 215.671 Q74.8699 215.671 74.5226 216.079 Q74.1798 216.483 74.1798 217.182 Q74.1798 217.885 74.5226 218.288 Q74.8699 218.692 75.4601 218.692 Z" fill="#000000" fill-rule="evenodd" fill-opacity="1" /><path clip-path="url(#clip570)" d="M 0 0 M104.023 220.836 L107.083 220.836 L107.083 221.574 L102.969 221.574 L102.969 220.836 Q103.468 220.32 104.327 219.452 Q105.191 218.579 105.412 218.327 Q105.833 217.854 105.998 217.529 Q106.167 217.199 106.167 216.882 Q106.167 216.366 105.803 216.04 Q105.442 215.715 104.861 215.715 Q104.449 215.715 103.988 215.858 Q103.533 216.001 103.012 216.292 L103.012 215.406 Q103.541 215.194 104.001 215.085 Q104.462 214.977 104.843 214.977 Q105.85 214.977 106.449 215.48 Q107.048 215.984 107.048 216.826 Q107.048 217.225 106.896 217.585 Q106.749 217.941 106.354 218.427 Q106.245 218.553 105.664 219.156 Q105.082 219.755 104.023 220.836 Z" fill="#000000" fill-rule="evenodd" fill-opacity="1" /><path clip-path="url(#clip570)" d="M 0 0 M108.185 220.836 L109.618 220.836 L109.618 215.893 L108.06 216.205 L108.06 215.406 L109.609 215.094 L110.486 215.094 L110.486 220.836 L111.918 220.836 L111.918 221.574 L108.185 221.574 L108.185 220.836 Z" fill="#000000" fill-rule="evenodd" fill-opacity="1" /><path clip-path="url(#clip570)" d="M 0 0 M35.8468 146.01 L38.9067 146.01 L38.9067 146.748 L34.7921 146.748 L34.7921 146.01 Q35.2913 145.494 36.1506 144.626 Q37.0143 143.753 37.2357 143.501 Q37.6567 143.028 37.8216 142.703 Q37.9909 142.373 37.9909 142.056 Q37.9909 141.54 37.6263 141.214 Q37.2661 140.889 36.6845 140.889 Q36.2722 140.889 35.8121 141.032 Q35.3564 141.175 34.8355 141.466 L34.8355 140.58 Q35.365 140.368 35.8251 140.259 Q36.2852 140.151 36.6671 140.151 Q37.6741 140.151 38.273 140.654 Q38.872 141.158 38.872 142 Q38.872 142.399 38.7201 142.759 Q38.5725 143.115 38.1775 143.601 Q38.069 143.727 37.4874 144.33 Q36.9058 144.929 35.8468 146.01 Z" fill="#000000" fill-rule="evenodd" fill-opacity="1" /><path clip-path="url(#clip570)" d="M 0 0 M42.5134 143.254 Q43.1428 143.389 43.4943 143.814 Q43.8502 144.239 43.8502 144.864 Q43.8502 145.824 43.1905 146.349 Q42.5308 146.874 41.3155 146.874 Q40.9075 146.874 40.4735 146.791 Q40.0438 146.713 39.5838 146.553 L39.5838 145.706 Q39.9483 145.919 40.3824 146.028 Q40.8164 146.136 41.2895 146.136 Q42.1141 146.136 42.5438 145.81 Q42.9778 145.485 42.9778 144.864 Q42.9778 144.291 42.5742 143.97 Q42.1749 143.645 41.4588 143.645 L40.7036 143.645 L40.7036 142.924 L41.4935 142.924 Q42.1402 142.924 42.4831 142.668 Q42.8259 142.408 42.8259 141.922 Q42.8259 141.422 42.47 141.158 Q42.1185 140.889 41.4588 140.889 Q41.0985 140.889 40.6862 140.967 Q40.2739 141.045 39.7791 141.21 L39.7791 140.429 Q40.2782 140.29 40.7122 140.22 Q41.1506 140.151 41.5369 140.151 Q42.5351 140.151 43.1167 140.607 Q43.6983 141.058 43.6983 141.83 Q43.6983 142.369 43.3902 142.742 Q43.082 143.111 42.5134 143.254 Z" fill="#000000" fill-rule="evenodd" fill-opacity="1" /><path clip-path="url(#clip570)" d="M 0 0 M35.8468 170.952 L38.9067 170.952 L38.9067 171.69 L34.7921 171.69 L34.7921 170.952 Q35.2913 170.436 36.1506 169.568 Q37.0143 168.695 37.2357 168.443 Q37.6567 167.97 37.8216 167.645 Q37.9909 167.315 37.9909 166.998 Q37.9909 166.482 37.6263 166.156 Q37.2661 165.831 36.6845 165.831 Q36.2722 165.831 35.8121 165.974 Q35.3564 166.117 34.8355 166.408 L34.8355 165.522 Q35.365 165.31 35.8251 165.201 Q36.2852 165.093 36.6671 165.093 Q37.6741 165.093 38.273 165.596 Q38.872 166.1 38.872 166.942 Q38.872 167.341 38.7201 167.701 Q38.5725 168.057 38.1775 168.543 Q38.069 168.669 37.4874 169.272 Q36.9058 169.871 35.8468 170.952 Z" fill="#000000" fill-rule="evenodd" fill-opacity="1" /><path clip-path="url(#clip570)" d="M 0 0 M42.266 165.974 L40.0525 169.433 L42.266 169.433 L42.266 165.974 M42.036 165.21 L43.1384 165.21 L43.1384 169.433 L44.0629 169.433 L44.0629 170.162 L43.1384 170.162 L43.1384 171.69 L42.266 171.69 L42.266 170.162 L39.3407 170.162 L39.3407 169.316 L42.036 165.21 Z" fill="#000000" fill-rule="evenodd" fill-opacity="1" /><circle clip-path="url(#clip572)" cx="17.748" cy="36.453" r="3" fill="#0000ff" fill-rule="evenodd" fill-opacity="1" stroke="none"/>
<circle clip-path="url(#clip572)" cx="17.748" cy="61.395" r="3" fill="#0000ff" fill-rule="evenodd" fill-opacity="1" stroke="none"/>
<circle clip-path="url(#clip572)" cx="51.8362" cy="36.453" r="3" fill="#0000ff" fill-rule="evenodd" fill-opacity="1" stroke="none"/>
<circle clip-path="url(#clip572)" cx="51.8362" cy="61.395" r="3" fill="#0000ff" fill-rule="evenodd" fill-opacity="1" stroke="none"/>
<circle clip-path="url(#clip572)" cx="85.9244" cy="36.453" r="3" fill="#0000ff" fill-rule="evenodd" fill-opacity="1" stroke="none"/>
<circle clip-path="url(#clip572)" cx="85.9244" cy="61.395" r="3" fill="#0000ff" fill-rule="evenodd" fill-opacity="1" stroke="none"/>
<circle clip-path="url(#clip572)" cx="68.8803" cy="23.9821" r="3" fill="#0000ff" fill-rule="evenodd" fill-opacity="1" stroke="none"/>
<circle clip-path="url(#clip572)" cx="102.969" cy="23.9821" r="3" fill="#0000ff" fill-rule="evenodd" fill-opacity="1" stroke="none"/>
<circle clip-path="url(#clip572)" cx="68.8803" cy="73.866" r="3" fill="#0000ff" fill-rule="evenodd" fill-opacity="1" stroke="none"/>
<circle clip-path="url(#clip572)" cx="68.8803" cy="98.808" r="3" fill="#0000ff" fill-rule="evenodd" fill-opacity="1" stroke="none"/>
<circle clip-path="url(#clip572)" cx="102.969" cy="73.866" r="3" fill="#0000ff" fill-rule="evenodd" fill-opacity="1" stroke="none"/>
<circle clip-path="url(#clip572)" cx="102.969" cy="98.808" r="3" fill="#0000ff" fill-rule="evenodd" fill-opacity="1" stroke="none"/>
<circle clip-path="url(#clip572)" cx="34.7921" cy="23.9821" r="3" fill="#0000ff" fill-rule="evenodd" fill-opacity="1" stroke="none"/>
<path clip-path="url(#clip570)" d="M 0 0 M17.8739 33.7712 L19.3062 33.7712 L19.3062 28.8277 L17.748 29.1402 L17.748 28.3415 L19.2975 28.029 L20.1742 28.029 L20.1742 33.7712 L21.6065 33.7712 L21.6065 34.509 L17.8739 34.509 L17.8739 33.7712 Z" fill="#000000" fill-rule="evenodd" fill-opacity="1" /><path clip-path="url(#clip570)" d="M 0 0 M18.8027 58.7132 L21.8626 58.7132 L21.8626 59.451 L17.748 59.451 L17.748 58.7132 Q18.2472 58.1967 19.1065 57.3286 Q19.9702 56.4563 20.1916 56.2045 Q20.6126 55.7314 20.7775 55.4059 Q20.9468 55.0761 20.9468 54.7592 Q20.9468 54.2427 20.5822 53.9172 Q20.222 53.5917 19.6404 53.5917 Q19.2281 53.5917 18.768 53.7349 Q18.3123 53.8781 17.7914 54.1689 L17.7914 53.2835 Q18.3209 53.0709 18.781 52.9624 Q19.2411 52.8538 19.623 52.8538 Q20.63 52.8538 21.2289 53.3573 Q21.8279 53.8608 21.8279 54.7028 Q21.8279 55.1021 21.676 55.4623 Q21.5284 55.8182 21.1334 56.3043 Q21.0249 56.4302 20.4433 57.0335 Q19.8617 57.6325 18.8027 58.7132 Z" fill="#000000" fill-rule="evenodd" fill-opacity="1" /><path clip-path="url(#clip570)" d="M 0 0 M54.7659 31.0151 Q55.3952 31.1497 55.7468 31.575 Q56.1027 32.0004 56.1027 32.6254 Q56.1027 33.5846 55.443 34.1097 Q54.7833 34.6349 53.568 34.6349 Q53.16 34.6349 52.726 34.5525 Q52.2963 34.4743 51.8362 34.3137 L51.8362 33.4674 Q52.2008 33.6801 52.6348 33.7886 Q53.0689 33.8971 53.5419 33.8971 Q54.3666 33.8971 54.7963 33.5716 Q55.2303 33.246 55.2303 32.6254 Q55.2303 32.0525 54.8267 31.7313 Q54.4274 31.4058 53.7112 31.4058 L52.956 31.4058 L52.956 30.6853 L53.7459 30.6853 Q54.3926 30.6853 54.7355 30.4292 Q55.0784 30.1688 55.0784 29.6827 Q55.0784 29.1836 54.7225 28.9188 Q54.3709 28.6497 53.7112 28.6497 Q53.351 28.6497 52.9386 28.7278 Q52.5263 28.806 52.0315 28.9709 L52.0315 28.1896 Q52.5307 28.0507 52.9647 27.9813 Q53.4031 27.9119 53.7893 27.9119 Q54.7876 27.9119 55.3692 28.3676 Q55.9508 28.819 55.9508 29.5915 Q55.9508 30.1297 55.6426 30.503 Q55.3345 30.8719 54.7659 31.0151 Z" fill="#000000" fill-rule="evenodd" fill-opacity="1" /><path clip-path="url(#clip570)" d="M 0 0 M54.7616 53.7349 L52.548 57.1941 L54.7616 57.1941 L54.7616 53.7349 M54.5315 52.971 L55.6339 52.971 L55.6339 57.1941 L56.5584 57.1941 L56.5584 57.9233 L55.6339 57.9233 L55.6339 59.451 L54.7616 59.451 L54.7616 57.9233 L51.8362 57.9233 L51.8362 57.0769 L54.5315 52.971 Z" fill="#000000" fill-rule="evenodd" fill-opacity="1" /><path clip-path="url(#clip570)" d="M 0 0 M86.1978 28.029 L89.6397 28.029 L89.6397 28.7669 L87.0008 28.7669 L87.0008 30.3554 Q87.1918 30.2903 87.3827 30.2599 Q87.5737 30.2252 87.7647 30.2252 Q88.8497 30.2252 89.4834 30.8198 Q90.1171 31.4144 90.1171 32.4301 Q90.1171 33.4761 89.4661 34.0577 Q88.815 34.6349 87.6301 34.6349 Q87.2221 34.6349 86.7968 34.5655 Q86.3758 34.496 85.9244 34.3571 L85.9244 33.4761 Q86.315 33.6887 86.7317 33.7929 Q87.1484 33.8971 87.6128 33.8971 Q88.3636 33.8971 88.802 33.5021 Q89.2404 33.1071 89.2404 32.4301 Q89.2404 31.753 88.802 31.358 Q88.3636 30.9631 87.6128 30.9631 Q87.2612 30.9631 86.9096 31.0412 Q86.5624 31.1193 86.1978 31.2842 L86.1978 28.029 Z" fill="#000000" fill-rule="evenodd" fill-opacity="1" /><path clip-path="url(#clip570)" d="M 0 0 M88.2378 55.8616 Q87.6475 55.8616 87.3003 56.2653 Q86.9574 56.6689 86.9574 57.3721 Q86.9574 58.0708 87.3003 58.4788 Q87.6475 58.8825 88.2378 58.8825 Q88.828 58.8825 89.1709 58.4788 Q89.5181 58.0708 89.5181 57.3721 Q89.5181 56.6689 89.1709 56.2653 Q88.828 55.8616 88.2378 55.8616 M89.9782 53.1143 L89.9782 53.9129 Q89.6483 53.7566 89.3098 53.6742 Q88.9756 53.5917 88.6457 53.5917 Q87.7777 53.5917 87.3176 54.1776 Q86.8619 54.7636 86.7968 55.9484 Q87.0529 55.5708 87.4392 55.3712 Q87.8254 55.1672 88.2898 55.1672 Q89.2664 55.1672 89.8306 55.7618 Q90.3992 56.3521 90.3992 57.3721 Q90.3992 58.3703 89.8089 58.9736 Q89.2187 59.5769 88.2378 59.5769 Q87.1136 59.5769 86.519 58.7175 Q85.9244 57.8538 85.9244 56.2175 Q85.9244 54.6811 86.6536 53.7696 Q87.3827 52.8538 88.611 52.8538 Q88.9409 52.8538 89.2751 52.919 Q89.6136 52.9841 89.9782 53.1143 Z" fill="#000000" fill-rule="evenodd" fill-opacity="1" /><path clip-path="url(#clip570)" d="M 0 0 M69.0062 21.3002 L70.4385 21.3002 L70.4385 16.3567 L68.8803 16.6692 L68.8803 15.8706 L70.4298 15.5581 L71.3065 15.5581 L71.3065 21.3002 L72.7388 21.3002 L72.7388 22.0381 L69.0062 22.0381 L69.0062 21.3002 Z" fill="#000000" fill-rule="evenodd" fill-opacity="1" /><path clip-path="url(#clip570)" d="M 0 0 M76.0982 16.3219 L73.8846 19.7811 L76.0982 19.7811 L76.0982 16.3219 M75.8681 15.5581 L76.9705 15.5581 L76.9705 19.7811 L77.895 19.7811 L77.895 20.5103 L76.9705 20.5103 L76.9705 22.0381 L76.0982 22.0381 L76.0982 20.5103 L73.1728 20.5103 L73.1728 19.6639 L75.8681 15.5581 Z" fill="#000000" fill-rule="evenodd" fill-opacity="1" /><path clip-path="url(#clip570)" d="M 0 0 M103.094 21.3002 L104.527 21.3002 L104.527 16.3567 L102.969 16.6692 L102.969 15.8706 L104.518 15.5581 L105.395 15.5581 L105.395 21.3002 L106.827 21.3002 L106.827 22.0381 L103.094 22.0381 L103.094 21.3002 Z" fill="#000000" fill-rule="evenodd" fill-opacity="1" /><path clip-path="url(#clip570)" d="M 0 0 M109.761 18.4487 Q109.171 18.4487 108.824 18.8523 Q108.481 19.256 108.481 19.9591 Q108.481 20.6579 108.824 21.0658 Q109.171 21.4695 109.761 21.4695 Q110.351 21.4695 110.694 21.0658 Q111.041 20.6579 111.041 19.9591 Q111.041 19.256 110.694 18.8523 Q110.351 18.4487 109.761 18.4487 M111.501 15.7013 L111.501 16.4999 Q111.172 16.3436 110.833 16.2612 Q110.499 16.1787 110.169 16.1787 Q109.301 16.1787 108.841 16.7646 Q108.385 17.3506 108.32 18.5355 Q108.576 18.1579 108.962 17.9582 Q109.349 17.7542 109.813 17.7542 Q110.79 17.7542 111.354 18.3488 Q111.922 18.9391 111.922 19.9591 Q111.922 20.9573 111.332 21.5606 Q110.742 22.1639 109.761 22.1639 Q108.637 22.1639 108.042 21.3046 Q107.448 20.4408 107.448 18.8046 Q107.448 17.2681 108.177 16.3567 Q108.906 15.4409 110.134 15.4409 Q110.464 15.4409 110.798 15.506 Q111.137 15.5711 111.501 15.7013 Z" fill="#000000" fill-rule="evenodd" fill-opacity="1" /><path clip-path="url(#clip570)" d="M 0 0 M69.0062 71.1842 L70.4385 71.1842 L70.4385 66.2406 L68.8803 66.5531 L68.8803 65.7545 L70.4298 65.442 L71.3065 65.442 L71.3065 71.1842 L72.7388 71.1842 L72.7388 71.922 L69.0062 71.922 L69.0062 71.1842 Z" fill="#000000" fill-rule="evenodd" fill-opacity="1" /><path clip-path="url(#clip570)" d="M 0 0 M73.7154 71.7875 L73.7154 70.9889 Q74.0452 71.1451 74.3838 71.2276 Q74.7223 71.3101 75.0478 71.3101 Q75.9159 71.3101 76.3716 70.7285 Q76.8317 70.1425 76.8968 68.9533 Q76.645 69.3266 76.2587 69.5262 Q75.8725 69.7259 75.4037 69.7259 Q74.4315 69.7259 73.8629 69.1399 Q73.2987 68.5496 73.2987 67.5297 Q73.2987 66.5314 73.889 65.9281 Q74.4792 65.3248 75.4601 65.3248 Q76.5843 65.3248 77.1745 66.1886 Q77.7692 67.0479 77.7692 68.6885 Q77.7692 70.2206 77.04 71.1364 Q76.3152 72.0479 75.0869 72.0479 Q74.757 72.0479 74.4185 71.9828 Q74.0799 71.9177 73.7154 71.7875 M75.4601 69.0401 Q76.0504 69.0401 76.3933 68.6365 Q76.7405 68.2328 76.7405 67.5297 Q76.7405 66.8309 76.3933 66.4273 Q76.0504 66.0193 75.4601 66.0193 Q74.8699 66.0193 74.5226 66.4273 Q74.1798 66.8309 74.1798 67.5297 Q74.1798 68.2328 74.5226 68.6365 Q74.8699 69.0401 75.4601 69.0401 Z" fill="#000000" fill-rule="evenodd" fill-opacity="1" /><path clip-path="url(#clip570)" d="M 0 0 M69.935 96.1262 L72.9949 96.1262 L72.9949 96.864 L68.8803 96.864 L68.8803 96.1262 Q69.3794 95.6097 70.2388 94.7416 Q71.1025 93.8692 71.3239 93.6175 Q71.7449 93.1444 71.9098 92.8189 Q72.0791 92.489 72.0791 92.1722 Q72.0791 91.6557 71.7145 91.3302 Q71.3543 91.0047 70.7727 91.0047 Q70.3603 91.0047 69.9003 91.1479 Q69.4445 91.2911 68.9237 91.5819 L68.9237 90.6965 Q69.4532 90.4838 69.9133 90.3753 Q70.3734 90.2668 70.7553 90.2668 Q71.7622 90.2668 72.3612 90.7703 Q72.9602 91.2738 72.9602 92.1158 Q72.9602 92.5151 72.8082 92.8753 Q72.6607 93.2312 72.2657 93.7173 Q72.1572 93.8432 71.5756 94.4465 Q70.994 95.0454 69.935 96.1262 Z" fill="#000000" fill-rule="evenodd" fill-opacity="1" /><path clip-path="url(#clip570)" d="M 0 0 M75.8204 90.9613 Q75.1433 90.9613 74.8004 91.6297 Q74.4619 92.2937 74.4619 93.6305 Q74.4619 94.963 74.8004 95.6314 Q75.1433 96.2954 75.8204 96.2954 Q76.5018 96.2954 76.8403 95.6314 Q77.1832 94.963 77.1832 93.6305 Q77.1832 92.2937 76.8403 91.6297 Q76.5018 90.9613 75.8204 90.9613 M75.8204 90.2668 Q76.9098 90.2668 77.4827 91.1305 Q78.06 91.9899 78.06 93.6305 Q78.06 95.2668 77.4827 96.1305 Q76.9098 96.9899 75.8204 96.9899 Q74.731 96.9899 74.1537 96.1305 Q73.5808 95.2668 73.5808 93.6305 Q73.5808 91.9899 74.1537 91.1305 Q74.731 90.2668 75.8204 90.2668 Z" fill="#000000" fill-rule="evenodd" fill-opacity="1" /><path clip-path="url(#clip570)" d="M 0 0 M104.023 71.1842 L107.083 71.1842 L107.083 71.922 L102.969 71.922 L102.969 71.1842 Q103.468 70.6677 104.327 69.7996 Q105.191 68.9273 105.412 68.6755 Q105.833 68.2024 105.998 67.8769 Q106.167 67.5471 106.167 67.2302 Q106.167 66.7137 105.803 66.3882 Q105.442 66.0627 104.861 66.0627 Q104.449 66.0627 103.988 66.2059 Q103.533 66.3491 103.012 66.6399 L103.012 65.7545 Q103.541 65.5419 104.001 65.4333 Q104.462 65.3248 104.843 65.3248 Q105.85 65.3248 106.449 65.8283 Q107.048 66.3318 107.048 67.1738 Q107.048 67.5731 106.896 67.9333 Q106.749 68.2892 106.354 68.7753 Q106.245 68.9012 105.664 69.5045 Q105.082 70.1035 104.023 71.1842 Z" fill="#000000" fill-rule="evenodd" fill-opacity="1" /><path clip-path="url(#clip570)" d="M 0 0 M108.185 71.1842 L109.618 71.1842 L109.618 66.2406 L108.06 66.5531 L108.06 65.7545 L109.609 65.442 L110.486 65.442 L110.486 71.1842 L111.918 71.1842 L111.918 71.922 L108.185 71.922 L108.185 71.1842 Z" fill="#000000" fill-rule="evenodd" fill-opacity="1" /><path clip-path="url(#clip570)" d="M 0 0 M104.023 96.1262 L107.083 96.1262 L107.083 96.864 L102.969 96.864 L102.969 96.1262 Q103.468 95.6097 104.327 94.7416 Q105.191 93.8692 105.412 93.6175 Q105.833 93.1444 105.998 92.8189 Q106.167 92.489 106.167 92.1722 Q106.167 91.6557 105.803 91.3302 Q105.442 91.0047 104.861 91.0047 Q104.449 91.0047 103.988 91.1479 Q103.533 91.2911 103.012 91.5819 L103.012 90.6965 Q103.541 90.4838 104.001 90.3753 Q104.462 90.2668 104.843 90.2668 Q105.85 90.2668 106.449 90.7703 Q107.048 91.2738 107.048 92.1158 Q107.048 92.5151 106.896 92.8753 Q106.749 93.2312 106.354 93.7173 Q106.245 93.8432 105.664 94.4465 Q105.082 95.0454 104.023 96.1262 Z" fill="#000000" fill-rule="evenodd" fill-opacity="1" /><path clip-path="url(#clip570)" d="M 0 0 M108.789 96.1262 L111.849 96.1262 L111.849 96.864 L107.734 96.864 L107.734 96.1262 Q108.233 95.6097 109.093 94.7416 Q109.956 93.8692 110.178 93.6175 Q110.599 93.1444 110.764 92.8189 Q110.933 92.489 110.933 92.1722 Q110.933 91.6557 110.568 91.3302 Q110.208 91.0047 109.626 91.0047 Q109.214 91.0047 108.754 91.1479 Q108.298 91.2911 107.778 91.5819 L107.778 90.6965 Q108.307 90.4838 108.767 90.3753 Q109.227 90.2668 109.609 90.2668 Q110.616 90.2668 111.215 90.7703 Q111.814 91.2738 111.814 92.1158 Q111.814 92.5151 111.662 92.8753 Q111.514 93.2312 111.12 93.7173 Q111.011 93.8432 110.429 94.4465 Q109.848 95.0454 108.789 96.1262 Z" fill="#000000" fill-rule="evenodd" fill-opacity="1" /><path clip-path="url(#clip570)" d="M 0 0 M35.8468 21.3002 L38.9067 21.3002 L38.9067 22.0381 L34.7921 22.0381 L34.7921 21.3002 Q35.2913 20.7837 36.1506 19.9157 Q37.0143 19.0433 37.2357 18.7915 Q37.6567 18.3185 37.8216 17.9929 Q37.9909 17.6631 37.9909 17.3462 Q37.9909 16.8297 37.6263 16.5042 Q37.2661 16.1787 36.6845 16.1787 Q36.2722 16.1787 35.8121 16.3219 Q35.3564 16.4652 34.8355 16.756 L34.8355 15.8706 Q35.365 15.6579 35.8251 15.5494 Q36.2852 15.4409 36.6671 15.4409 Q37.6741 15.4409 38.273 15.9443 Q38.872 16.4478 38.872 17.2898 Q38.872 17.6891 38.7201 18.0494 Q38.5725 18.4053 38.1775 18.8914 Q38.069 19.0172 37.4874 19.6205 Q36.9058 20.2195 35.8468 21.3002 Z" fill="#000000" fill-rule="evenodd" fill-opacity="1" /><path clip-path="url(#clip570)" d="M 0 0 M42.266 16.3219 L40.0525 19.7811 L42.266 19.7811 L42.266 16.3219 M42.036 15.5581 L43.1384 15.5581 L43.1384 19.7811 L44.0629 19.7811 L44.0629 20.5103 L43.1384 20.5103 L43.1384 22.0381 L42.266 22.0381 L42.266 20.5103 L39.3407 20.5103 L39.3407 19.6639 L42.036 15.5581 Z" fill="#000000" fill-rule="evenodd" fill-opacity="1" /><circle clip-path="url(#clip572)" cx="120.013" cy="186.105" r="3" fill="#0000ff" fill-rule="evenodd" fill-opacity="1" stroke="none"/>
<circle clip-path="url(#clip572)" cx="120.013" cy="211.047" r="3" fill="#0000ff" fill-rule="evenodd" fill-opacity="1" stroke="none"/>
<circle clip-path="url(#clip572)" cx="154.101" cy="186.105" r="3" fill="#0000ff" fill-rule="evenodd" fill-opacity="1" stroke="none"/>
<circle clip-path="url(#clip572)" cx="154.101" cy="211.047" r="3" fill="#0000ff" fill-rule="evenodd" fill-opacity="1" stroke="none"/>
<circle clip-path="url(#clip572)" cx="188.189" cy="186.105" r="3" fill="#0000ff" fill-rule="evenodd" fill-opacity="1" stroke="none"/>
<circle clip-path="url(#clip572)" cx="188.189" cy="211.047" r="3" fill="#0000ff" fill-rule="evenodd" fill-opacity="1" stroke="none"/>
<circle clip-path="url(#clip572)" cx="171.145" cy="223.518" r="3" fill="#0000ff" fill-rule="evenodd" fill-opacity="1" stroke="none"/>
<circle clip-path="url(#clip572)" cx="137.057" cy="148.692" r="3" fill="#0000ff" fill-rule="evenodd" fill-opacity="1" stroke="none"/>
<circle clip-path="url(#clip572)" cx="137.057" cy="173.634" r="3" fill="#0000ff" fill-rule="evenodd" fill-opacity="1" stroke="none"/>
<circle clip-path="url(#clip572)" cx="137.057" cy="223.518" r="3" fill="#0000ff" fill-rule="evenodd" fill-opacity="1" stroke="none"/>
<path clip-path="url(#clip570)" d="M 0 0 M120.013 177.681 L124.179 177.681 L124.179 178.054 L121.827 184.161 L120.911 184.161 L123.125 178.419 L120.013 178.419 L120.013 177.681 Z" fill="#000000" fill-rule="evenodd" fill-opacity="1" /><path clip-path="url(#clip570)" d="M 0 0 M122.235 206.026 Q121.61 206.026 121.25 206.36 Q120.894 206.694 120.894 207.28 Q120.894 207.866 121.25 208.2 Q121.61 208.534 122.235 208.534 Q122.86 208.534 123.22 208.2 Q123.58 207.862 123.58 207.28 Q123.58 206.694 123.22 206.36 Q122.864 206.026 122.235 206.026 M121.358 205.652 Q120.794 205.514 120.477 205.127 Q120.165 204.741 120.165 204.185 Q120.165 203.409 120.716 202.957 Q121.271 202.506 122.235 202.506 Q123.203 202.506 123.754 202.957 Q124.305 203.409 124.305 204.185 Q124.305 204.741 123.988 205.127 Q123.676 205.514 123.116 205.652 Q123.75 205.8 124.101 206.23 Q124.457 206.659 124.457 207.28 Q124.457 208.222 123.88 208.725 Q123.307 209.229 122.235 209.229 Q121.163 209.229 120.586 208.725 Q120.013 208.222 120.013 207.28 Q120.013 206.659 120.368 206.23 Q120.724 205.8 121.358 205.652 M121.037 204.268 Q121.037 204.771 121.349 205.053 Q121.666 205.336 122.235 205.336 Q122.799 205.336 123.116 205.053 Q123.437 204.771 123.437 204.268 Q123.437 203.764 123.116 203.482 Q122.799 203.2 122.235 203.2 Q121.666 203.2 121.349 203.482 Q121.037 203.764 121.037 204.268 Z" fill="#000000" fill-rule="evenodd" fill-opacity="1" /><path clip-path="url(#clip570)" d="M 0 0 M154.517 184.026 L154.517 183.228 Q154.847 183.384 155.186 183.467 Q155.524 183.549 155.85 183.549 Q156.718 183.549 157.174 182.967 Q157.634 182.381 157.699 181.192 Q157.447 181.565 157.061 181.765 Q156.675 181.965 156.206 181.965 Q155.234 181.965 154.665 181.379 Q154.101 180.789 154.101 179.769 Q154.101 178.77 154.691 178.167 Q155.281 177.564 156.262 177.564 Q157.386 177.564 157.977 178.427 Q158.571 179.287 158.571 180.927 Q158.571 182.46 157.842 183.375 Q157.117 184.287 155.889 184.287 Q155.559 184.287 155.221 184.222 Q154.882 184.157 154.517 184.026 M156.262 181.279 Q156.853 181.279 157.195 180.875 Q157.543 180.472 157.543 179.769 Q157.543 179.07 157.195 178.666 Q156.853 178.258 156.262 178.258 Q155.672 178.258 155.325 178.666 Q154.982 179.07 154.982 179.769 Q154.982 180.472 155.325 180.875 Q155.672 181.279 156.262 181.279 Z" fill="#000000" fill-rule="evenodd" fill-opacity="1" /><path clip-path="url(#clip570)" d="M 0 0 M154.227 208.365 L155.659 208.365 L155.659 203.422 L154.101 203.734 L154.101 202.935 L155.65 202.623 L156.527 202.623 L156.527 208.365 L157.959 208.365 L157.959 209.103 L154.227 209.103 L154.227 208.365 Z" fill="#000000" fill-rule="evenodd" fill-opacity="1" /><path clip-path="url(#clip570)" d="M 0 0 M160.785 203.2 Q160.108 203.2 159.765 203.869 Q159.426 204.533 159.426 205.869 Q159.426 207.202 159.765 207.87 Q160.108 208.534 160.785 208.534 Q161.466 208.534 161.805 207.87 Q162.148 207.202 162.148 205.869 Q162.148 204.533 161.805 203.869 Q161.466 203.2 160.785 203.2 M160.785 202.506 Q161.874 202.506 162.447 203.369 Q163.024 204.229 163.024 205.869 Q163.024 207.506 162.447 208.369 Q161.874 209.229 160.785 209.229 Q159.695 209.229 159.118 208.369 Q158.545 207.506 158.545 205.869 Q158.545 204.229 159.118 203.369 Q159.695 202.506 160.785 202.506 Z" fill="#000000" fill-rule="evenodd" fill-opacity="1" /><path clip-path="url(#clip570)" d="M 0 0 M188.315 183.423 L189.747 183.423 L189.747 178.48 L188.189 178.792 L188.189 177.993 L189.738 177.681 L190.615 177.681 L190.615 183.423 L192.047 183.423 L192.047 184.161 L188.315 184.161 L188.315 183.423 Z" fill="#000000" fill-rule="evenodd" fill-opacity="1" /><path clip-path="url(#clip570)" d="M 0 0 M193.15 183.423 L194.582 183.423 L194.582 178.48 L193.024 178.792 L193.024 177.993 L194.573 177.681 L195.45 177.681 L195.45 183.423 L196.883 183.423 L196.883 184.161 L193.15 184.161 L193.15 183.423 Z" fill="#000000" fill-rule="evenodd" fill-opacity="1" /><path clip-path="url(#clip570)" d="M 0 0 M188.315 208.365 L189.747 208.365 L189.747 203.422 L188.189 203.734 L188.189 202.935 L189.738 202.623 L190.615 202.623 L190.615 208.365 L192.047 208.365 L192.047 209.103 L188.315 209.103 L188.315 208.365 Z" fill="#000000" fill-rule="evenodd" fill-opacity="1" /><path clip-path="url(#clip570)" d="M 0 0 M193.753 208.365 L196.813 208.365 L196.813 209.103 L192.699 209.103 L192.699 208.365 Q193.198 207.849 194.057 206.981 Q194.921 206.108 195.142 205.856 Q195.563 205.383 195.728 205.058 Q195.897 204.728 195.897 204.411 Q195.897 203.895 195.533 203.569 Q195.172 203.244 194.591 203.244 Q194.179 203.244 193.718 203.387 Q193.263 203.53 192.742 203.821 L192.742 202.935 Q193.271 202.723 193.731 202.614 Q194.192 202.506 194.573 202.506 Q195.58 202.506 196.179 203.009 Q196.778 203.513 196.778 204.355 Q196.778 204.754 196.626 205.114 Q196.479 205.47 196.084 205.956 Q195.975 206.082 195.394 206.685 Q194.812 207.284 193.753 208.365 Z" fill="#000000" fill-rule="evenodd" fill-opacity="1" /><path clip-path="url(#clip570)" d="M 0 0 M171.271 220.836 L172.703 220.836 L172.703 215.893 L171.145 216.205 L171.145 215.406 L172.694 215.094 L173.571 215.094 L173.571 220.836 L175.003 220.836 L175.003 221.574 L171.271 221.574 L171.271 220.836 Z" fill="#000000" fill-rule="evenodd" fill-opacity="1" /><path clip-path="url(#clip570)" d="M 0 0 M178.61 218.08 Q179.239 218.215 179.591 218.64 Q179.947 219.065 179.947 219.69 Q179.947 220.649 179.287 221.175 Q178.627 221.7 177.412 221.7 Q177.004 221.7 176.57 221.617 Q176.141 221.539 175.68 221.379 L175.68 220.532 Q176.045 220.745 176.479 220.853 Q176.913 220.962 177.386 220.962 Q178.211 220.962 178.641 220.636 Q179.075 220.311 179.075 219.69 Q179.075 219.117 178.671 218.796 Q178.272 218.471 177.555 218.471 L176.8 218.471 L176.8 217.75 L177.59 217.75 Q178.237 217.75 178.58 217.494 Q178.923 217.234 178.923 216.748 Q178.923 216.248 178.567 215.984 Q178.215 215.715 177.555 215.715 Q177.195 215.715 176.783 215.793 Q176.371 215.871 175.876 216.036 L175.876 215.255 Q176.375 215.116 176.809 215.046 Q177.247 214.977 177.634 214.977 Q178.632 214.977 179.213 215.432 Q179.795 215.884 179.795 216.656 Q179.795 217.195 179.487 217.568 Q179.179 217.937 178.61 218.08 Z" fill="#000000" fill-rule="evenodd" fill-opacity="1" /><path clip-path="url(#clip570)" d="M 0 0 M137.183 146.01 L138.615 146.01 L138.615 141.067 L137.057 141.379 L137.057 140.58 L138.606 140.268 L139.483 140.268 L139.483 146.01 L140.915 146.01 L140.915 146.748 L137.183 146.748 L137.183 146.01 Z" fill="#000000" fill-rule="evenodd" fill-opacity="1" /><path clip-path="url(#clip570)" d="M 0 0 M141.644 140.268 L145.811 140.268 L145.811 140.641 L143.459 146.748 L142.543 146.748 L144.756 141.006 L141.644 141.006 L141.644 140.268 Z" fill="#000000" fill-rule="evenodd" fill-opacity="1" /><path clip-path="url(#clip570)" d="M 0 0 M137.183 170.952 L138.615 170.952 L138.615 166.009 L137.057 166.321 L137.057 165.522 L138.606 165.21 L139.483 165.21 L139.483 170.952 L140.915 170.952 L140.915 171.69 L137.183 171.69 L137.183 170.952 Z" fill="#000000" fill-rule="evenodd" fill-opacity="1" /><path clip-path="url(#clip570)" d="M 0 0 M143.741 168.613 Q143.116 168.613 142.755 168.947 Q142.4 169.281 142.4 169.867 Q142.4 170.453 142.755 170.787 Q143.116 171.121 143.741 171.121 Q144.366 171.121 144.726 170.787 Q145.086 170.449 145.086 169.867 Q145.086 169.281 144.726 168.947 Q144.37 168.613 143.741 168.613 M142.864 168.239 Q142.3 168.101 141.983 167.714 Q141.67 167.328 141.67 166.772 Q141.67 165.996 142.222 165.544 Q142.777 165.093 143.741 165.093 Q144.709 165.093 145.26 165.544 Q145.811 165.996 145.811 166.772 Q145.811 167.328 145.494 167.714 Q145.182 168.101 144.622 168.239 Q145.255 168.387 145.607 168.817 Q145.963 169.246 145.963 169.867 Q145.963 170.809 145.386 171.312 Q144.813 171.816 143.741 171.816 Q142.669 171.816 142.091 171.312 Q141.518 170.809 141.518 169.867 Q141.518 169.246 141.874 168.817 Q142.23 168.387 142.864 168.239 M142.543 166.855 Q142.543 167.358 142.855 167.641 Q143.172 167.923 143.741 167.923 Q144.305 167.923 144.622 167.641 Q144.943 167.358 144.943 166.855 Q144.943 166.351 144.622 166.069 Q144.305 165.787 143.741 165.787 Q143.172 165.787 142.855 166.069 Q142.543 166.351 142.543 166.855 Z" fill="#000000" fill-rule="evenodd" fill-opacity="1" /><path clip-path="url(#clip570)" d="M 0 0 M138.111 220.836 L141.171 220.836 L141.171 221.574 L137.057 221.574 L137.057 220.836 Q137.556 220.32 138.415 219.452 Q139.279 218.579 139.5 218.327 Q139.921 217.854 140.086 217.529 Q140.255 217.199 140.255 216.882 Q140.255 216.366 139.891 216.04 Q139.531 215.715 138.949 215.715 Q138.537 215.715 138.077 215.858 Q137.621 216.001 137.1 216.292 L137.1 215.406 Q137.63 215.194 138.09 215.085 Q138.55 214.977 138.932 214.977 Q139.939 214.977 140.538 215.48 Q141.137 215.984 141.137 216.826 Q141.137 217.225 140.985 217.585 Q140.837 217.941 140.442 218.427 Q140.334 218.553 139.752 219.156 Q139.17 219.755 138.111 220.836 Z" fill="#000000" fill-rule="evenodd" fill-opacity="1" /><path clip-path="url(#clip570)" d="M 0 0 M144.778 218.08 Q145.407 218.215 145.759 218.64 Q146.115 219.065 146.115 219.69 Q146.115 220.649 145.455 221.175 Q144.795 221.7 143.58 221.7 Q143.172 221.7 142.738 221.617 Q142.308 221.539 141.848 221.379 L141.848 220.532 Q142.213 220.745 142.647 220.853 Q143.081 220.962 143.554 220.962 Q144.379 220.962 144.808 220.636 Q145.242 220.311 145.242 219.69 Q145.242 219.117 144.839 218.796 Q144.439 218.471 143.723 218.471 L142.968 218.471 L142.968 217.75 L143.758 217.75 Q144.405 217.75 144.748 217.494 Q145.091 217.234 145.091 216.748 Q145.091 216.248 144.735 215.984 Q144.383 215.715 143.723 215.715 Q143.363 215.715 142.951 215.793 Q142.538 215.871 142.044 216.036 L142.044 215.255 Q142.543 215.116 142.977 215.046 Q143.415 214.977 143.801 214.977 Q144.8 214.977 145.381 215.432 Q145.963 215.884 145.963 216.656 Q145.963 217.195 145.655 217.568 Q145.347 217.937 144.778 218.08 Z" fill="#000000" fill-rule="evenodd" fill-opacity="1" /><circle clip-path="url(#clip572)" cx="120.013" cy="111.279" r="3" fill="#0000ff" fill-rule="evenodd" fill-opacity="1" stroke="none"/>
<circle clip-path="url(#clip572)" cx="120.013" cy="136.221" r="3" fill="#0000ff" fill-rule="evenodd" fill-opacity="1" stroke="none"/>
<circle clip-path="url(#clip572)" cx="154.101" cy="111.279" r="3" fill="#0000ff" fill-rule="evenodd" fill-opacity="1" stroke="none"/>
<circle clip-path="url(#clip572)" cx="154.101" cy="136.221" r="3" fill="#0000ff" fill-rule="evenodd" fill-opacity="1" stroke="none"/>
<circle clip-path="url(#clip572)" cx="188.189" cy="111.279" r="3" fill="#0000ff" fill-rule="evenodd" fill-opacity="1" stroke="none"/>
<circle clip-path="url(#clip572)" cx="188.189" cy="136.221" r="3" fill="#0000ff" fill-rule="evenodd" fill-opacity="1" stroke="none"/>
<circle clip-path="url(#clip572)" cx="120.013" cy="36.453" r="3" fill="#0000ff" fill-rule="evenodd" fill-opacity="1" stroke="none"/>
<circle clip-path="url(#clip572)" cx="120.013" cy="61.395" r="3" fill="#0000ff" fill-rule="evenodd" fill-opacity="1" stroke="none"/>
<circle clip-path="url(#clip572)" cx="154.101" cy="36.453" r="3" fill="#0000ff" fill-rule="evenodd" fill-opacity="1" stroke="none"/>
<circle clip-path="url(#clip572)" cx="154.101" cy="61.395" r="3" fill="#0000ff" fill-rule="evenodd" fill-opacity="1" stroke="none"/>
<circle clip-path="url(#clip572)" cx="188.189" cy="36.453" r="3" fill="#0000ff" fill-rule="evenodd" fill-opacity="1" stroke="none"/>
<circle clip-path="url(#clip572)" cx="188.189" cy="61.395" r="3" fill="#0000ff" fill-rule="evenodd" fill-opacity="1" stroke="none"/>
<circle clip-path="url(#clip572)" cx="171.145" cy="73.866" r="3" fill="#0000ff" fill-rule="evenodd" fill-opacity="1" stroke="none"/>
<circle clip-path="url(#clip572)" cx="171.145" cy="98.808" r="3" fill="#0000ff" fill-rule="evenodd" fill-opacity="1" stroke="none"/>
<circle clip-path="url(#clip572)" cx="137.057" cy="23.9821" r="3" fill="#0000ff" fill-rule="evenodd" fill-opacity="1" stroke="none"/>
<circle clip-path="url(#clip572)" cx="171.145" cy="148.692" r="3" fill="#0000ff" fill-rule="evenodd" fill-opacity="1" stroke="none"/>
<circle clip-path="url(#clip572)" cx="171.145" cy="173.634" r="3" fill="#0000ff" fill-rule="evenodd" fill-opacity="1" stroke="none"/>
<circle clip-path="url(#clip572)" cx="137.057" cy="73.866" r="3" fill="#0000ff" fill-rule="evenodd" fill-opacity="1" stroke="none"/>
<circle clip-path="url(#clip572)" cx="137.057" cy="98.808" r="3" fill="#0000ff" fill-rule="evenodd" fill-opacity="1" stroke="none"/>
<path clip-path="url(#clip570)" d="M 0 0 M120.138 108.597 L121.571 108.597 L121.571 103.654 L120.013 103.966 L120.013 103.168 L121.562 102.855 L122.439 102.855 L122.439 108.597 L123.871 108.597 L123.871 109.335 L120.138 109.335 L120.138 108.597 Z" fill="#000000" fill-rule="evenodd" fill-opacity="1" /><path clip-path="url(#clip570)" d="M 0 0 M121.067 133.539 L124.127 133.539 L124.127 134.277 L120.013 134.277 L120.013 133.539 Q120.512 133.023 121.371 132.155 Q122.235 131.282 122.456 131.03 Q122.877 130.557 123.042 130.232 Q123.211 129.902 123.211 129.585 Q123.211 129.069 122.847 128.743 Q122.487 128.418 121.905 128.418 Q121.493 128.418 121.033 128.561 Q120.577 128.704 120.056 128.995 L120.056 128.109 Q120.586 127.897 121.046 127.788 Q121.506 127.68 121.888 127.68 Q122.895 127.68 123.493 128.183 Q124.092 128.687 124.092 129.529 Q124.092 129.928 123.941 130.288 Q123.793 130.644 123.398 131.13 Q123.289 131.256 122.708 131.859 Q122.126 132.458 121.067 133.539 Z" fill="#000000" fill-rule="evenodd" fill-opacity="1" /><path clip-path="url(#clip570)" d="M 0 0 M157.03 105.841 Q157.66 105.976 158.011 106.401 Q158.367 106.826 158.367 107.451 Q158.367 108.411 157.708 108.936 Q157.048 109.461 155.833 109.461 Q155.425 109.461 154.991 109.378 Q154.561 109.3 154.101 109.14 L154.101 108.293 Q154.465 108.506 154.899 108.615 Q155.333 108.723 155.807 108.723 Q156.631 108.723 157.061 108.398 Q157.495 108.072 157.495 107.451 Q157.495 106.878 157.091 106.557 Q156.692 106.232 155.976 106.232 L155.221 106.232 L155.221 105.511 L156.01 105.511 Q156.657 105.511 157 105.255 Q157.343 104.995 157.343 104.509 Q157.343 104.01 156.987 103.745 Q156.635 103.476 155.976 103.476 Q155.616 103.476 155.203 103.554 Q154.791 103.632 154.296 103.797 L154.296 103.016 Q154.795 102.877 155.229 102.807 Q155.668 102.738 156.054 102.738 Q157.052 102.738 157.634 103.194 Q158.215 103.645 158.215 104.417 Q158.215 104.956 157.907 105.329 Q157.599 105.698 157.03 105.841 Z" fill="#000000" fill-rule="evenodd" fill-opacity="1" /><path clip-path="url(#clip570)" d="M 0 0 M157.026 128.561 L154.813 132.02 L157.026 132.02 L157.026 128.561 M156.796 127.797 L157.899 127.797 L157.899 132.02 L158.823 132.02 L158.823 132.749 L157.899 132.749 L157.899 134.277 L157.026 134.277 L157.026 132.749 L154.101 132.749 L154.101 131.903 L156.796 127.797 Z" fill="#000000" fill-rule="evenodd" fill-opacity="1" /><path clip-path="url(#clip570)" d="M 0 0 M188.462 102.855 L191.904 102.855 L191.904 103.593 L189.265 103.593 L189.265 105.181 Q189.456 105.116 189.647 105.086 Q189.838 105.051 190.029 105.051 Q191.114 105.051 191.748 105.646 Q192.382 106.24 192.382 107.256 Q192.382 108.302 191.731 108.884 Q191.08 109.461 189.895 109.461 Q189.487 109.461 189.061 109.391 Q188.64 109.322 188.189 109.183 L188.189 108.302 Q188.58 108.515 188.996 108.619 Q189.413 108.723 189.877 108.723 Q190.628 108.723 191.067 108.328 Q191.505 107.933 191.505 107.256 Q191.505 106.579 191.067 106.184 Q190.628 105.789 189.877 105.789 Q189.526 105.789 189.174 105.867 Q188.827 105.945 188.462 106.11 L188.462 102.855 Z" fill="#000000" fill-rule="evenodd" fill-opacity="1" /><path clip-path="url(#clip570)" d="M 0 0 M190.502 130.688 Q189.912 130.688 189.565 131.091 Q189.222 131.495 189.222 132.198 Q189.222 132.897 189.565 133.305 Q189.912 133.708 190.502 133.708 Q191.093 133.708 191.435 133.305 Q191.783 132.897 191.783 132.198 Q191.783 131.495 191.435 131.091 Q191.093 130.688 190.502 130.688 M192.243 127.94 L192.243 128.739 Q191.913 128.583 191.574 128.5 Q191.24 128.418 190.91 128.418 Q190.042 128.418 189.582 129.004 Q189.126 129.59 189.061 130.774 Q189.317 130.397 189.704 130.197 Q190.09 129.993 190.554 129.993 Q191.531 129.993 192.095 130.588 Q192.664 131.178 192.664 132.198 Q192.664 133.196 192.074 133.8 Q191.483 134.403 190.502 134.403 Q189.378 134.403 188.784 133.543 Q188.189 132.68 188.189 131.044 Q188.189 129.507 188.918 128.596 Q189.647 127.68 190.876 127.68 Q191.205 127.68 191.54 127.745 Q191.878 127.81 192.243 127.94 Z" fill="#000000" fill-rule="evenodd" fill-opacity="1" /><path clip-path="url(#clip570)" d="M 0 0 M120.013 28.029 L124.179 28.029 L124.179 28.4023 L121.827 34.509 L120.911 34.509 L123.125 28.7669 L120.013 28.7669 L120.013 28.029 Z" fill="#000000" fill-rule="evenodd" fill-opacity="1" /><path clip-path="url(#clip570)" d="M 0 0 M122.235 56.3738 Q121.61 56.3738 121.25 56.708 Q120.894 57.0422 120.894 57.6281 Q120.894 58.2141 121.25 58.5483 Q121.61 58.8825 122.235 58.8825 Q122.86 58.8825 123.22 58.5483 Q123.58 58.2097 123.58 57.6281 Q123.58 57.0422 123.22 56.708 Q122.864 56.3738 122.235 56.3738 M121.358 56.0005 Q120.794 55.8616 120.477 55.4754 Q120.165 55.0891 120.165 54.5335 Q120.165 53.7566 120.716 53.3052 Q121.271 52.8538 122.235 52.8538 Q123.203 52.8538 123.754 53.3052 Q124.305 53.7566 124.305 54.5335 Q124.305 55.0891 123.988 55.4754 Q123.676 55.8616 123.116 56.0005 Q123.75 56.1481 124.101 56.5778 Q124.457 57.0075 124.457 57.6281 Q124.457 58.57 123.88 59.0734 Q123.307 59.5769 122.235 59.5769 Q121.163 59.5769 120.586 59.0734 Q120.013 58.57 120.013 57.6281 Q120.013 57.0075 120.368 56.5778 Q120.724 56.1481 121.358 56.0005 M121.037 54.616 Q121.037 55.1195 121.349 55.4016 Q121.666 55.6837 122.235 55.6837 Q122.799 55.6837 123.116 55.4016 Q123.437 55.1195 123.437 54.616 Q123.437 54.1125 123.116 53.8304 Q122.799 53.5483 122.235 53.5483 Q121.666 53.5483 121.349 53.8304 Q121.037 54.1125 121.037 54.616 Z" fill="#000000" fill-rule="evenodd" fill-opacity="1" /><path clip-path="url(#clip570)" d="M 0 0 M154.517 34.3745 L154.517 33.5759 Q154.847 33.7321 155.186 33.8146 Q155.524 33.8971 155.85 33.8971 Q156.718 33.8971 157.174 33.3155 Q157.634 32.7295 157.699 31.5403 Q157.447 31.9136 157.061 32.1132 Q156.675 32.3129 156.206 32.3129 Q155.234 32.3129 154.665 31.7269 Q154.101 31.1367 154.101 30.1167 Q154.101 29.1185 154.691 28.5152 Q155.281 27.9119 156.262 27.9119 Q157.386 27.9119 157.977 28.7756 Q158.571 29.6349 158.571 31.2756 Q158.571 32.8077 157.842 33.7235 Q157.117 34.6349 155.889 34.6349 Q155.559 34.6349 155.221 34.5698 Q154.882 34.5047 154.517 34.3745 M156.262 31.6271 Q156.853 31.6271 157.195 31.2235 Q157.543 30.8198 157.543 30.1167 Q157.543 29.4179 157.195 29.0143 Q156.853 28.6063 156.262 28.6063 Q155.672 28.6063 155.325 29.0143 Q154.982 29.4179 154.982 30.1167 Q154.982 30.8198 155.325 31.2235 Q155.672 31.6271 156.262 31.6271 Z" fill="#000000" fill-rule="evenodd" fill-opacity="1" /><path clip-path="url(#clip570)" d="M 0 0 M154.227 58.7132 L155.659 58.7132 L155.659 53.7696 L154.101 54.0821 L154.101 53.2835 L155.65 52.971 L156.527 52.971 L156.527 58.7132 L157.959 58.7132 L157.959 59.451 L154.227 59.451 L154.227 58.7132 Z" fill="#000000" fill-rule="evenodd" fill-opacity="1" /><path clip-path="url(#clip570)" d="M 0 0 M160.785 53.5483 Q160.108 53.5483 159.765 54.2167 Q159.426 54.8807 159.426 56.2175 Q159.426 57.55 159.765 58.2184 Q160.108 58.8825 160.785 58.8825 Q161.466 58.8825 161.805 58.2184 Q162.148 57.55 162.148 56.2175 Q162.148 54.8807 161.805 54.2167 Q161.466 53.5483 160.785 53.5483 M160.785 52.8538 Q161.874 52.8538 162.447 53.7176 Q163.024 54.5769 163.024 56.2175 Q163.024 57.8538 162.447 58.7175 Q161.874 59.5769 160.785 59.5769 Q159.695 59.5769 159.118 58.7175 Q158.545 57.8538 158.545 56.2175 Q158.545 54.5769 159.118 53.7176 Q159.695 52.8538 160.785 52.8538 Z" fill="#000000" fill-rule="evenodd" fill-opacity="1" /><path clip-path="url(#clip570)" d="M 0 0 M188.315 33.7712 L189.747 33.7712 L189.747 28.8277 L188.189 29.1402 L188.189 28.3415 L189.738 28.029 L190.615 28.029 L190.615 33.7712 L192.047 33.7712 L192.047 34.509 L188.315 34.509 L188.315 33.7712 Z" fill="#000000" fill-rule="evenodd" fill-opacity="1" /><path clip-path="url(#clip570)" d="M 0 0 M193.15 33.7712 L194.582 33.7712 L194.582 28.8277 L193.024 29.1402 L193.024 28.3415 L194.573 28.029 L195.45 28.029 L195.45 33.7712 L196.883 33.7712 L196.883 34.509 L193.15 34.509 L193.15 33.7712 Z" fill="#000000" fill-rule="evenodd" fill-opacity="1" /><path clip-path="url(#clip570)" d="M 0 0 M188.315 58.7132 L189.747 58.7132 L189.747 53.7696 L188.189 54.0821 L188.189 53.2835 L189.738 52.971 L190.615 52.971 L190.615 58.7132 L192.047 58.7132 L192.047 59.451 L188.315 59.451 L188.315 58.7132 Z" fill="#000000" fill-rule="evenodd" fill-opacity="1" /><path clip-path="url(#clip570)" d="M 0 0 M193.753 58.7132 L196.813 58.7132 L196.813 59.451 L192.699 59.451 L192.699 58.7132 Q193.198 58.1967 194.057 57.3286 Q194.921 56.4563 195.142 56.2045 Q195.563 55.7314 195.728 55.4059 Q195.897 55.0761 195.897 54.7592 Q195.897 54.2427 195.533 53.9172 Q195.172 53.5917 194.591 53.5917 Q194.179 53.5917 193.718 53.7349 Q193.263 53.8781 192.742 54.1689 L192.742 53.2835 Q193.271 53.0709 193.731 52.9624 Q194.192 52.8538 194.573 52.8538 Q195.58 52.8538 196.179 53.3573 Q196.778 53.8608 196.778 54.7028 Q196.778 55.1021 196.626 55.4623 Q196.479 55.8182 196.084 56.3043 Q195.975 56.4302 195.394 57.0335 Q194.812 57.6325 193.753 58.7132 Z" fill="#000000" fill-rule="evenodd" fill-opacity="1" /><path clip-path="url(#clip570)" d="M 0 0 M171.271 71.1842 L172.703 71.1842 L172.703 66.2406 L171.145 66.5531 L171.145 65.7545 L172.694 65.442 L173.571 65.442 L173.571 71.1842 L175.003 71.1842 L175.003 71.922 L171.271 71.922 L171.271 71.1842 Z" fill="#000000" fill-rule="evenodd" fill-opacity="1" /><path clip-path="url(#clip570)" d="M 0 0 M178.61 68.4281 Q179.239 68.5627 179.591 68.988 Q179.947 69.4134 179.947 70.0384 Q179.947 70.9976 179.287 71.5227 Q178.627 72.0479 177.412 72.0479 Q177.004 72.0479 176.57 71.9654 Q176.141 71.8873 175.68 71.7267 L175.68 70.8804 Q176.045 71.093 176.479 71.2015 Q176.913 71.3101 177.386 71.3101 Q178.211 71.3101 178.641 70.9845 Q179.075 70.659 179.075 70.0384 Q179.075 69.4654 178.671 69.1443 Q178.272 68.8187 177.555 68.8187 L176.8 68.8187 L176.8 68.0983 L177.59 68.0983 Q178.237 68.0983 178.58 67.8422 Q178.923 67.5818 178.923 67.0957 Q178.923 66.5965 178.567 66.3318 Q178.215 66.0627 177.555 66.0627 Q177.195 66.0627 176.783 66.1408 Q176.371 66.2189 175.876 66.3839 L175.876 65.6026 Q176.375 65.4637 176.809 65.3943 Q177.247 65.3248 177.634 65.3248 Q178.632 65.3248 179.213 65.7806 Q179.795 66.232 179.795 67.0045 Q179.795 67.5427 179.487 67.916 Q179.179 68.2849 178.61 68.4281 Z" fill="#000000" fill-rule="evenodd" fill-opacity="1" /><path clip-path="url(#clip570)" d="M 0 0 M171.271 96.1262 L172.703 96.1262 L172.703 91.1826 L171.145 91.4951 L171.145 90.6965 L172.694 90.384 L173.571 90.384 L173.571 96.1262 L175.003 96.1262 L175.003 96.864 L171.271 96.864 L171.271 96.1262 Z" fill="#000000" fill-rule="evenodd" fill-opacity="1" /><path clip-path="url(#clip570)" d="M 0 0 M178.363 91.1479 L176.149 94.6071 L178.363 94.6071 L178.363 91.1479 M178.133 90.384 L179.235 90.384 L179.235 94.6071 L180.16 94.6071 L180.16 95.3362 L179.235 95.3362 L179.235 96.864 L178.363 96.864 L178.363 95.3362 L175.437 95.3362 L175.437 94.4899 L178.133 90.384 Z" fill="#000000" fill-rule="evenodd" fill-opacity="1" /><path clip-path="url(#clip570)" d="M 0 0 M137.183 21.3002 L138.615 21.3002 L138.615 16.3567 L137.057 16.6692 L137.057 15.8706 L138.606 15.5581 L139.483 15.5581 L139.483 21.3002 L140.915 21.3002 L140.915 22.0381 L137.183 22.0381 L137.183 21.3002 Z" fill="#000000" fill-rule="evenodd" fill-opacity="1" /><path clip-path="url(#clip570)" d="M 0 0 M143.741 18.9608 Q143.116 18.9608 142.755 19.295 Q142.4 19.6292 142.4 20.2151 Q142.4 20.8011 142.755 21.1353 Q143.116 21.4695 143.741 21.4695 Q144.366 21.4695 144.726 21.1353 Q145.086 20.7967 145.086 20.2151 Q145.086 19.6292 144.726 19.295 Q144.37 18.9608 143.741 18.9608 M142.864 18.5876 Q142.3 18.4487 141.983 18.0624 Q141.67 17.6761 141.67 17.1205 Q141.67 16.3436 142.222 15.8923 Q142.777 15.4409 143.741 15.4409 Q144.709 15.4409 145.26 15.8923 Q145.811 16.3436 145.811 17.1205 Q145.811 17.6761 145.494 18.0624 Q145.182 18.4487 144.622 18.5876 Q145.255 18.7351 145.607 19.1648 Q145.963 19.5945 145.963 20.2151 Q145.963 21.157 145.386 21.6605 Q144.813 22.1639 143.741 22.1639 Q142.669 22.1639 142.091 21.6605 Q141.518 21.157 141.518 20.2151 Q141.518 19.5945 141.874 19.1648 Q142.23 18.7351 142.864 18.5876 M142.543 17.203 Q142.543 17.7065 142.855 17.9886 Q143.172 18.2707 143.741 18.2707 Q144.305 18.2707 144.622 17.9886 Q144.943 17.7065 144.943 17.203 Q144.943 16.6995 144.622 16.4174 Q144.305 16.1353 143.741 16.1353 Q143.172 16.1353 142.855 16.4174 Q142.543 16.6995 142.543 17.203 Z" fill="#000000" fill-rule="evenodd" fill-opacity="1" /><path clip-path="url(#clip570)" d="M 0 0 M171.271 146.01 L172.703 146.01 L172.703 141.067 L171.145 141.379 L171.145 140.58 L172.694 140.268 L173.571 140.268 L173.571 146.01 L175.003 146.01 L175.003 146.748 L171.271 146.748 L171.271 146.01 Z" fill="#000000" fill-rule="evenodd" fill-opacity="1" /><path clip-path="url(#clip570)" d="M 0 0 M175.98 146.613 L175.98 145.815 Q176.31 145.971 176.648 146.054 Q176.987 146.136 177.312 146.136 Q178.18 146.136 178.636 145.554 Q179.096 144.968 179.161 143.779 Q178.91 144.153 178.523 144.352 Q178.137 144.552 177.668 144.552 Q176.696 144.552 176.127 143.966 Q175.563 143.376 175.563 142.356 Q175.563 141.357 176.154 140.754 Q176.744 140.151 177.725 140.151 Q178.849 140.151 179.439 141.015 Q180.034 141.874 180.034 143.514 Q180.034 145.047 179.305 145.962 Q178.58 146.874 177.351 146.874 Q177.022 146.874 176.683 146.809 Q176.345 146.744 175.98 146.613 M177.725 143.866 Q178.315 143.866 178.658 143.462 Q179.005 143.059 179.005 142.356 Q179.005 141.657 178.658 141.253 Q178.315 140.845 177.725 140.845 Q177.134 140.845 176.787 141.253 Q176.444 141.657 176.444 142.356 Q176.444 143.059 176.787 143.462 Q177.134 143.866 177.725 143.866 Z" fill="#000000" fill-rule="evenodd" fill-opacity="1" /><path clip-path="url(#clip570)" d="M 0 0 M172.2 170.952 L175.259 170.952 L175.259 171.69 L171.145 171.69 L171.145 170.952 Q171.644 170.436 172.503 169.568 Q173.367 168.695 173.588 168.443 Q174.009 167.97 174.174 167.645 Q174.344 167.315 174.344 166.998 Q174.344 166.482 173.979 166.156 Q173.619 165.831 173.037 165.831 Q172.625 165.831 172.165 165.974 Q171.709 166.117 171.188 166.408 L171.188 165.522 Q171.718 165.31 172.178 165.201 Q172.638 165.093 173.02 165.093 Q174.027 165.093 174.626 165.596 Q175.225 166.1 175.225 166.942 Q175.225 167.341 175.073 167.701 Q174.925 168.057 174.53 168.543 Q174.422 168.669 173.84 169.272 Q173.259 169.871 172.2 170.952 Z" fill="#000000" fill-rule="evenodd" fill-opacity="1" /><path clip-path="url(#clip570)" d="M 0 0 M178.085 165.787 Q177.408 165.787 177.065 166.456 Q176.726 167.12 176.726 168.456 Q176.726 169.789 177.065 170.457 Q177.408 171.121 178.085 171.121 Q178.766 171.121 179.105 170.457 Q179.448 169.789 179.448 168.456 Q179.448 167.12 179.105 166.456 Q178.766 165.787 178.085 165.787 M178.085 165.093 Q179.174 165.093 179.747 165.956 Q180.325 166.816 180.325 168.456 Q180.325 170.093 179.747 170.956 Q179.174 171.816 178.085 171.816 Q176.996 171.816 176.418 170.956 Q175.845 170.093 175.845 168.456 Q175.845 166.816 176.418 165.956 Q176.996 165.093 178.085 165.093 Z" fill="#000000" fill-rule="evenodd" fill-opacity="1" /><path clip-path="url(#clip570)" d="M 0 0 M138.111 71.1842 L141.171 71.1842 L141.171 71.922 L137.057 71.922 L137.057 71.1842 Q137.556 70.6677 138.415 69.7996 Q139.279 68.9273 139.5 68.6755 Q139.921 68.2024 140.086 67.8769 Q140.255 67.5471 140.255 67.2302 Q140.255 66.7137 139.891 66.3882 Q139.531 66.0627 138.949 66.0627 Q138.537 66.0627 138.077 66.2059 Q137.621 66.3491 137.1 66.6399 L137.1 65.7545 Q137.63 65.5419 138.09 65.4333 Q138.55 65.3248 138.932 65.3248 Q139.939 65.3248 140.538 65.8283 Q141.137 66.3318 141.137 67.1738 Q141.137 67.5731 140.985 67.9333 Q140.837 68.2892 140.442 68.7753 Q140.334 68.9012 139.752 69.5045 Q139.17 70.1035 138.111 71.1842 Z" fill="#000000" fill-rule="evenodd" fill-opacity="1" /><path clip-path="url(#clip570)" d="M 0 0 M144.778 68.4281 Q145.407 68.5627 145.759 68.988 Q146.115 69.4134 146.115 70.0384 Q146.115 70.9976 145.455 71.5227 Q144.795 72.0479 143.58 72.0479 Q143.172 72.0479 142.738 71.9654 Q142.308 71.8873 141.848 71.7267 L141.848 70.8804 Q142.213 71.093 142.647 71.2015 Q143.081 71.3101 143.554 71.3101 Q144.379 71.3101 144.808 70.9845 Q145.242 70.659 145.242 70.0384 Q145.242 69.4654 144.839 69.1443 Q144.439 68.8187 143.723 68.8187 L142.968 68.8187 L142.968 68.0983 L143.758 68.0983 Q144.405 68.0983 144.748 67.8422 Q145.091 67.5818 145.091 67.0957 Q145.091 66.5965 144.735 66.3318 Q144.383 66.0627 143.723 66.0627 Q143.363 66.0627 142.951 66.1408 Q142.538 66.2189 142.044 66.3839 L142.044 65.6026 Q142.543 65.4637 142.977 65.3943 Q143.415 65.3248 143.801 65.3248 Q144.8 65.3248 145.381 65.7806 Q145.963 66.232 145.963 67.0045 Q145.963 67.5427 145.655 67.916 Q145.347 68.2849 144.778 68.4281 Z" fill="#000000" fill-rule="evenodd" fill-opacity="1" /><path clip-path="url(#clip570)" d="M 0 0 M138.111 96.1262 L141.171 96.1262 L141.171 96.864 L137.057 96.864 L137.057 96.1262 Q137.556 95.6097 138.415 94.7416 Q139.279 93.8692 139.5 93.6175 Q139.921 93.1444 140.086 92.8189 Q140.255 92.489 140.255 92.1722 Q140.255 91.6557 139.891 91.3302 Q139.531 91.0047 138.949 91.0047 Q138.537 91.0047 138.077 91.1479 Q137.621 91.2911 137.1 91.5819 L137.1 90.6965 Q137.63 90.4838 138.09 90.3753 Q138.55 90.2668 138.932 90.2668 Q139.939 90.2668 140.538 90.7703 Q141.137 91.2738 141.137 92.1158 Q141.137 92.5151 140.985 92.8753 Q140.837 93.2312 140.442 93.7173 Q140.334 93.8432 139.752 94.4465 Q139.17 95.0454 138.111 96.1262 Z" fill="#000000" fill-rule="evenodd" fill-opacity="1" /><path clip-path="url(#clip570)" d="M 0 0 M144.531 91.1479 L142.317 94.6071 L144.531 94.6071 L144.531 91.1479 M144.301 90.384 L145.403 90.384 L145.403 94.6071 L146.327 94.6071 L146.327 95.3362 L145.403 95.3362 L145.403 96.864 L144.531 96.864 L144.531 95.3362 L141.605 95.3362 L141.605 94.4899 L144.301 90.384 Z" fill="#000000" fill-rule="evenodd" fill-opacity="1" /><circle clip-path="url(#clip572)" cx="171.145" cy="23.9821" r="3" fill="#0000ff" fill-rule="evenodd" fill-opacity="1" stroke="none"/>
<path clip-path="url(#clip570)" d="M 0 0 M172.2 21.3002 L175.259 21.3002 L175.259 22.0381 L171.145 22.0381 L171.145 21.3002 Q171.644 20.7837 172.503 19.9157 Q173.367 19.0433 173.588 18.7915 Q174.009 18.3185 174.174 17.9929 Q174.344 17.6631 174.344 17.3462 Q174.344 16.8297 173.979 16.5042 Q173.619 16.1787 173.037 16.1787 Q172.625 16.1787 172.165 16.3219 Q171.709 16.4652 171.188 16.756 L171.188 15.8706 Q171.718 15.6579 172.178 15.5494 Q172.638 15.4409 173.02 15.4409 Q174.027 15.4409 174.626 15.9443 Q175.225 16.4478 175.225 17.2898 Q175.225 17.6891 175.073 18.0494 Q174.925 18.4053 174.53 18.8914 Q174.422 19.0172 173.84 19.6205 Q173.259 20.2195 172.2 21.3002 Z" fill="#000000" fill-rule="evenodd" fill-opacity="1" /><path clip-path="url(#clip570)" d="M 0 0 M178.085 16.1353 Q177.408 16.1353 177.065 16.8037 Q176.726 17.4678 176.726 18.8046 Q176.726 20.137 177.065 20.8054 Q177.408 21.4695 178.085 21.4695 Q178.766 21.4695 179.105 20.8054 Q179.448 20.137 179.448 18.8046 Q179.448 17.4678 179.105 16.8037 Q178.766 16.1353 178.085 16.1353 M178.085 15.4409 Q179.174 15.4409 179.747 16.3046 Q180.325 17.1639 180.325 18.8046 Q180.325 20.4408 179.747 21.3046 Q179.174 22.1639 178.085 22.1639 Q176.996 22.1639 176.418 21.3046 Q175.845 20.4408 175.845 18.8046 Q175.845 17.1639 176.418 16.3046 Q176.996 15.4409 178.085 15.4409 Z" fill="#000000" fill-rule="evenodd" fill-opacity="1" /></svg>
