<?xml version="1.0" encoding="utf-8"?>
<svg xmlns="http://www.w3.org/2000/svg" xmlns:xlink="http://www.w3.org/1999/xlink" width="50" height="62.5" viewBox="0 0 200 250">
<defs>
  <clipPath id="clip840">
    <rect x="0" y="0" width="200" height="250"/>
  </clipPath>
</defs>
<path clip-path="url(#clip840)" d="
M0 250 L200 250 L200 0 L0 0  Z
  " fill="#ffffff" fill-rule="evenodd" fill-opacity="1"/>
<defs>
  <clipPath id="clip841">
    <rect x="50" y="25" width="176" height="176"/>
  </clipPath>
</defs>
<path clip-path="url(#clip840)" d="
M17.748 231.752 L188.189 231.752 L188.189 15.748 L17.748 15.748  Z
  " fill="#ffffff" fill-rule="evenodd" fill-opacity="1"/>
<defs>
  <clipPath id="clip842">
    <rect x="17" y="15" width="171" height="217"/>
  </clipPath>
</defs>
<polyline clip-path="url(#clip840)" style="stroke:#000000; stroke-width:1; stroke-opacity:1; fill:none" points="
  17.748,231.752 188.189,231.752 
  "/>
<polyline clip-path="url(#clip840)" style="stroke:#000000; stroke-width:1; stroke-opacity:1; fill:none" points="
  34.7921,231.752 34.7921,229.16 
  "/>
<polyline clip-path="url(#clip840)" style="stroke:#000000; stroke-width:1; stroke-opacity:1; fill:none" points="
  68.8803,231.752 68.8803,229.16 
  "/>
<polyline clip-path="url(#clip840)" style="stroke:#000000; stroke-width:1; stroke-opacity:1; fill:none" points="
  102.969,231.752 102.969,229.16 
  "/>
<polyline clip-path="url(#clip840)" style="stroke:#000000; stroke-width:1; stroke-opacity:1; fill:none" points="
  137.057,231.752 137.057,229.16 
  "/>
<polyline clip-path="url(#clip840)" style="stroke:#000000; stroke-width:1; stroke-opacity:1; fill:none" points="
  171.145,231.752 171.145,229.16 
  "/>
<path clip-path="url(#clip840)" d="M 0 0 M27.9056 239.913 L35.3245 239.913 L35.3245 240.897 L27.9056 240.897 L27.9056 239.913 Z" fill="#000000" fill-rule="evenodd" fill-opacity="1" /><path clip-path="url(#clip840)" d="M 0 0 M37.5988 243.136 L41.6787 243.136 L41.6787 244.12 L36.1926 244.12 L36.1926 243.136 Q36.8581 242.448 38.0039 241.29 Q39.1555 240.127 39.4507 239.791 Q40.012 239.161 40.2319 238.726 Q40.4576 238.287 40.4576 237.864 Q40.4576 237.176 39.9715 236.742 Q39.4912 236.308 38.7157 236.308 Q38.166 236.308 37.5525 236.498 Q36.9449 236.689 36.2505 237.077 L36.2505 235.897 Q36.9565 235.613 37.5699 235.468 Q38.1833 235.324 38.6926 235.324 Q40.0352 235.324 40.8338 235.995 Q41.6324 236.666 41.6324 237.789 Q41.6324 238.321 41.4298 238.802 Q41.2331 239.276 40.7064 239.924 Q40.5618 240.092 39.7863 240.897 Q39.0109 241.695 37.5988 243.136 Z" fill="#000000" fill-rule="evenodd" fill-opacity="1" /><path clip-path="url(#clip840)" d="M 0 0 M61.9475 239.913 L69.3664 239.913 L69.3664 240.897 L61.9475 240.897 L61.9475 239.913 Z" fill="#000000" fill-rule="evenodd" fill-opacity="1" /><path clip-path="url(#clip840)" d="M 0 0 M70.8363 243.136 L72.746 243.136 L72.746 236.545 L70.6685 236.961 L70.6685 235.897 L72.7345 235.48 L73.9034 235.48 L73.9034 243.136 L75.8131 243.136 L75.8131 244.12 L70.8363 244.12 L70.8363 243.136 Z" fill="#000000" fill-rule="evenodd" fill-opacity="1" /><path clip-path="url(#clip840)" d="M 0 0 M102.969 236.25 Q102.066 236.25 101.609 237.141 Q101.157 238.026 101.157 239.809 Q101.157 241.585 101.609 242.476 Q102.066 243.362 102.969 243.362 Q103.877 243.362 104.328 242.476 Q104.786 241.585 104.786 239.809 Q104.786 238.026 104.328 237.141 Q103.877 236.25 102.969 236.25 M102.969 235.324 Q104.421 235.324 105.185 236.475 Q105.955 237.621 105.955 239.809 Q105.955 241.99 105.185 243.142 Q104.421 244.288 102.969 244.288 Q101.516 244.288 100.746 243.142 Q99.9824 241.99 99.9824 239.809 Q99.9824 237.621 100.746 236.475 Q101.516 235.324 102.969 235.324 Z" fill="#000000" fill-rule="evenodd" fill-opacity="1" /><path clip-path="url(#clip840)" d="M 0 0 M134.652 243.136 L136.562 243.136 L136.562 236.545 L134.484 236.961 L134.484 235.897 L136.55 235.48 L137.719 235.48 L137.719 243.136 L139.629 243.136 L139.629 244.12 L134.652 244.12 L134.652 243.136 Z" fill="#000000" fill-rule="evenodd" fill-opacity="1" /><path clip-path="url(#clip840)" d="M 0 0 M169.808 243.136 L173.888 243.136 L173.888 244.12 L168.402 244.12 L168.402 243.136 Q169.067 242.448 170.213 241.29 Q171.365 240.127 171.66 239.791 Q172.221 239.161 172.441 238.726 Q172.667 238.287 172.667 237.864 Q172.667 237.176 172.181 236.742 Q171.7 236.308 170.925 236.308 Q170.375 236.308 169.762 236.498 Q169.154 236.689 168.46 237.077 L168.46 235.897 Q169.166 235.613 169.779 235.468 Q170.393 235.324 170.902 235.324 Q172.244 235.324 173.043 235.995 Q173.842 236.666 173.842 237.789 Q173.842 238.321 173.639 238.802 Q173.442 239.276 172.916 239.924 Q172.771 240.092 171.996 240.897 Q171.22 241.695 169.808 243.136 Z" fill="#000000" fill-rule="evenodd" fill-opacity="1" /><polyline clip-path="url(#clip840)" style="stroke:#000000; stroke-width:1; stroke-opacity:1; fill:none" points="
  17.748,231.752 17.748,15.748 
  "/>
<polyline clip-path="url(#clip840)" style="stroke:#000000; stroke-width:1; stroke-opacity:1; fill:none" points="
  17.748,210.152 19.7933,210.152 
  "/>
<polyline clip-path="url(#clip840)" style="stroke:#000000; stroke-width:1; stroke-opacity:1; fill:none" points="
  17.748,166.951 19.7933,166.951 
  "/>
<polyline clip-path="url(#clip840)" style="stroke:#000000; stroke-width:1; stroke-opacity:1; fill:none" points="
  17.748,123.75 19.7933,123.75 
  "/>
<polyline clip-path="url(#clip840)" style="stroke:#000000; stroke-width:1; stroke-opacity:1; fill:none" points="
  17.748,80.5492 19.7933,80.5492 
  "/>
<polyline clip-path="url(#clip840)" style="stroke:#000000; stroke-width:1; stroke-opacity:1; fill:none" points="
  17.748,37.3484 19.7933,37.3484 
  "/>
<path clip-path="url(#clip840)" d="M 0 0 M0.224957 210.264 L7.6439 210.264 L7.6439 211.248 L0.224957 211.248 L0.224957 210.264 Z" fill="#000000" fill-rule="evenodd" fill-opacity="1" /><path clip-path="url(#clip840)" d="M 0 0 M9.91819 213.488 L13.998 213.488 L13.998 214.472 L8.51195 214.472 L8.51195 213.488 Q9.17746 212.799 10.3233 211.642 Q11.4749 210.479 11.77 210.143 Q12.3314 209.512 12.5513 209.078 Q12.777 208.638 12.777 208.216 Q12.777 207.527 12.2909 207.093 Q11.8105 206.659 11.0351 206.659 Q10.4853 206.659 9.8719 206.85 Q9.26426 207.041 8.56982 207.429 L8.56982 206.248 Q9.27583 205.965 9.88926 205.82 Q10.5027 205.675 11.0119 205.675 Q12.3545 205.675 13.1531 206.347 Q13.9517 207.018 13.9517 208.141 Q13.9517 208.673 13.7492 209.153 Q13.5524 209.628 13.0258 210.276 Q12.8811 210.444 12.1057 211.248 Q11.3302 212.047 9.91819 213.488 Z" fill="#000000" fill-rule="evenodd" fill-opacity="1" /><path clip-path="url(#clip840)" d="M 0 0 M0.132365 167.064 L7.55131 167.064 L7.55131 168.047 L0.132365 168.047 L0.132365 167.064 Z" fill="#000000" fill-rule="evenodd" fill-opacity="1" /><path clip-path="url(#clip840)" d="M 0 0 M9.02121 170.287 L10.9309 170.287 L10.9309 163.696 L8.85338 164.112 L8.85338 163.047 L10.9193 162.631 L12.0883 162.631 L12.0883 170.287 L13.998 170.287 L13.998 171.271 L9.02121 171.271 L9.02121 170.287 Z" fill="#000000" fill-rule="evenodd" fill-opacity="1" /><path clip-path="url(#clip840)" d="M 0 0 M11.0119 120.2 Q10.1092 120.2 9.65199 121.091 Q9.2006 121.976 9.2006 123.759 Q9.2006 125.535 9.65199 126.426 Q10.1092 127.312 11.0119 127.312 Q11.9205 127.312 12.3719 126.426 Q12.8291 125.535 12.8291 123.759 Q12.8291 121.976 12.3719 121.091 Q11.9205 120.2 11.0119 120.2 M11.0119 119.274 Q12.4645 119.274 13.2284 120.425 Q13.998 121.571 13.998 123.759 Q13.998 125.94 13.2284 127.092 Q12.4645 128.238 11.0119 128.238 Q9.5594 128.238 8.78973 127.092 Q8.02584 125.94 8.02584 123.759 Q8.02584 121.571 8.78973 120.425 Q9.5594 119.274 11.0119 119.274 Z" fill="#000000" fill-rule="evenodd" fill-opacity="1" /><path clip-path="url(#clip840)" d="M 0 0 M9.02121 83.8854 L10.9309 83.8854 L10.9309 77.294 L8.85338 77.7107 L8.85338 76.6459 L10.9193 76.2292 L12.0883 76.2292 L12.0883 83.8854 L13.998 83.8854 L13.998 84.8692 L9.02121 84.8692 L9.02121 83.8854 Z" fill="#000000" fill-rule="evenodd" fill-opacity="1" /><path clip-path="url(#clip840)" d="M 0 0 M9.91819 40.6846 L13.998 40.6846 L13.998 41.6684 L8.51195 41.6684 L8.51195 40.6846 Q9.17746 39.996 10.3233 38.8386 Q11.4749 37.6754 11.77 37.3397 Q12.3314 36.709 12.5513 36.2749 Q12.777 35.8351 12.777 35.4127 Q12.777 34.724 12.2909 34.29 Q11.8105 33.856 11.0351 33.856 Q10.4853 33.856 9.8719 34.0469 Q9.26426 34.2379 8.56982 34.6256 L8.56982 33.4451 Q9.27583 33.1615 9.88926 33.0169 Q10.5027 32.8722 11.0119 32.8722 Q12.3545 32.8722 13.1531 33.5435 Q13.9517 34.2148 13.9517 35.3374 Q13.9517 35.8698 13.7492 36.3502 Q13.5524 36.8247 13.0258 37.4728 Q12.8811 37.6407 12.1057 38.4451 Q11.3302 39.2437 9.91819 40.6846 Z" fill="#000000" fill-rule="evenodd" fill-opacity="1" /><path clip-path="url(#clip840)" d="M 0 0 M88.4547 1.36342 L90.9084 1.36342 L90.9084 2.19096 L89.5195 2.19096 L89.5195 11.1029 L90.9084 11.1029 L90.9084 11.9305 L88.4547 11.9305 L88.4547 1.36342 Z" fill="#000000" fill-rule="evenodd" fill-opacity="1" /><path clip-path="url(#clip840)" d="M 0 0 M92.3783 9.38421 L94.288 9.38421 L94.288 2.79281 L92.2105 3.20947 L92.2105 2.14466 L94.2764 1.728 L95.4454 1.728 L95.4454 9.38421 L97.3551 9.38421 L97.3551 10.368 L92.3783 10.368 L92.3783 9.38421 Z" fill="#000000" fill-rule="evenodd" fill-opacity="1" /><path clip-path="url(#clip840)" d="M 0 0 M98.744 8.8981 L99.965 8.8981 L99.965 9.89347 L99.016 11.7453 L98.2695 11.7453 L98.744 9.89347 L98.744 8.8981 Z" fill="#000000" fill-rule="evenodd" fill-opacity="1" /><path clip-path="url(#clip840)" d="M 0 0 M104.311 6.64696 L107.43 6.64696 L107.43 7.59602 L104.311 7.59602 L104.311 6.64696 Z" fill="#000000" fill-rule="evenodd" fill-opacity="1" /><path clip-path="url(#clip840)" d="M 0 0 M108.9 9.38421 L110.81 9.38421 L110.81 2.79281 L108.732 3.20947 L108.732 2.14466 L110.798 1.728 L111.967 1.728 L111.967 9.38421 L113.877 9.38421 L113.877 10.368 L108.9 10.368 L108.9 9.38421 Z" fill="#000000" fill-rule="evenodd" fill-opacity="1" /><path clip-path="url(#clip840)" d="M 0 0 M117.482 1.36342 L117.482 11.9305 L115.029 11.9305 L115.029 11.1029 L116.412 11.1029 L116.412 2.19096 L115.029 2.19096 L115.029 1.36342 L117.482 1.36342 Z" fill="#000000" fill-rule="evenodd" fill-opacity="1" /><circle clip-path="url(#clip842)" cx="34.7921" cy="223.518" r="3" fill="#0000ff" fill-rule="evenodd" fill-opacity="1" stroke="none"/>
<path clip-path="url(#clip840)" d="M 0 0 M34.918 220.836 L36.3503 220.836 L36.3503 215.893 L34.7921 216.205 L34.7921 215.406 L36.3416 215.094 L37.2183 215.094 L37.2183 220.836 L38.6506 220.836 L38.6506 221.574 L34.918 221.574 L34.918 220.836 Z" fill="#000000" fill-rule="evenodd" fill-opacity="1" /><path clip-path="url(#clip840)" d="M 0 0 M39.753 220.836 L41.1853 220.836 L41.1853 215.893 L39.6272 216.205 L39.6272 215.406 L41.1766 215.094 L42.0534 215.094 L42.0534 220.836 L43.4857 220.836 L43.4857 221.574 L39.753 221.574 L39.753 220.836 Z" fill="#000000" fill-rule="evenodd" fill-opacity="1" /><circle clip-path="url(#clip842)" cx="68.8803" cy="223.518" r="3" fill="#0000ff" fill-rule="evenodd" fill-opacity="1" stroke="none"/>
<circle clip-path="url(#clip842)" cx="102.969" cy="223.518" r="3" fill="#0000ff" fill-rule="evenodd" fill-opacity="1" stroke="none"/>
<circle clip-path="url(#clip842)" cx="34.7921" cy="148.692" r="3" fill="#0000ff" fill-rule="evenodd" fill-opacity="1" stroke="none"/>
<circle clip-path="url(#clip842)" cx="34.7921" cy="173.634" r="3" fill="#0000ff" fill-rule="evenodd" fill-opacity="1" stroke="none"/>
<circle clip-path="url(#clip842)" cx="68.8803" cy="148.692" r="3" fill="#0000ff" fill-rule="evenodd" fill-opacity="1" stroke="none"/>
<circle clip-path="url(#clip842)" cx="68.8803" cy="173.634" r="3" fill="#0000ff" fill-rule="evenodd" fill-opacity="1" stroke="none"/>
<circle clip-path="url(#clip842)" cx="102.969" cy="148.692" r="3" fill="#0000ff" fill-rule="evenodd" fill-opacity="1" stroke="none"/>
<circle clip-path="url(#clip842)" cx="102.969" cy="173.634" r="3" fill="#0000ff" fill-rule="evenodd" fill-opacity="1" stroke="none"/>
<circle clip-path="url(#clip842)" cx="34.7921" cy="73.866" r="3" fill="#0000ff" fill-rule="evenodd" fill-opacity="1" stroke="none"/>
<circle clip-path="url(#clip842)" cx="34.7921" cy="98.808" r="3" fill="#0000ff" fill-rule="evenodd" fill-opacity="1" stroke="none"/>
<circle clip-path="url(#clip842)" cx="17.748" cy="111.279" r="3" fill="#0000ff" fill-rule="evenodd" fill-opacity="1" stroke="none"/>
<circle clip-path="url(#clip842)" cx="17.748" cy="136.221" r="3" fill="#0000ff" fill-rule="evenodd" fill-opacity="1" stroke="none"/>
<circle clip-path="url(#clip842)" cx="51.8362" cy="111.279" r="3" fill="#0000ff" fill-rule="evenodd" fill-opacity="1" stroke="none"/>
<circle clip-path="url(#clip842)" cx="51.8362" cy="136.221" r="3" fill="#0000ff" fill-rule="evenodd" fill-opacity="1" stroke="none"/>
<circle clip-path="url(#clip842)" cx="85.9244" cy="111.279" r="3" fill="#0000ff" fill-rule="evenodd" fill-opacity="1" stroke="none"/>
<circle clip-path="url(#clip842)" cx="85.9244" cy="136.221" r="3" fill="#0000ff" fill-rule="evenodd" fill-opacity="1" stroke="none"/>
<circle clip-path="url(#clip842)" cx="17.748" cy="186.105" r="3" fill="#0000ff" fill-rule="evenodd" fill-opacity="1" stroke="none"/>
<circle clip-path="url(#clip842)" cx="17.748" cy="211.047" r="3" fill="#0000ff" fill-rule="evenodd" fill-opacity="1" stroke="none"/>
<circle clip-path="url(#clip842)" cx="51.8362" cy="186.105" r="3" fill="#0000ff" fill-rule="evenodd" fill-opacity="1" stroke="none"/>
<circle clip-path="url(#clip842)" cx="51.8362" cy="211.047" r="3" fill="#0000ff" fill-rule="evenodd" fill-opacity="1" stroke="none"/>
<circle clip-path="url(#clip842)" cx="85.9244" cy="186.105" r="3" fill="#0000ff" fill-rule="evenodd" fill-opacity="1" stroke="none"/>
<circle clip-path="url(#clip842)" cx="85.9244" cy="211.047" r="3" fill="#0000ff" fill-rule="evenodd" fill-opacity="1" stroke="none"/>
<path clip-path="url(#clip840)" d="M 0 0 M69.0062 220.836 L70.4385 220.836 L70.4385 215.893 L68.8803 216.205 L68.8803 215.406 L70.4298 215.094 L71.3065 215.094 L71.3065 220.836 L72.7388 220.836 L72.7388 221.574 L69.0062 221.574 L69.0062 220.836 Z" fill="#000000" fill-rule="evenodd" fill-opacity="1" /><path clip-path="url(#clip840)" d="M 0 0 M105.898 218.08 Q106.528 218.215 106.879 218.64 Q107.235 219.065 107.235 219.69 Q107.235 220.649 106.575 221.175 Q105.916 221.7 104.7 221.7 Q104.292 221.7 103.858 221.617 Q103.429 221.539 102.969 221.379 L102.969 220.532 Q103.333 220.745 103.767 220.853 Q104.201 220.962 104.674 220.962 Q105.499 220.962 105.929 220.636 Q106.363 220.311 106.363 219.69 Q106.363 219.117 105.959 218.796 Q105.56 218.471 104.843 218.471 L104.088 218.471 L104.088 217.75 L104.878 217.75 Q105.525 217.75 105.868 217.494 Q106.211 217.234 106.211 216.748 Q106.211 216.248 105.855 215.984 Q105.503 215.715 104.843 215.715 Q104.483 215.715 104.071 215.793 Q103.659 215.871 103.164 216.036 L103.164 215.255 Q103.663 215.116 104.097 215.046 Q104.535 214.977 104.922 214.977 Q105.92 214.977 106.501 215.432 Q107.083 215.884 107.083 216.656 Q107.083 217.195 106.775 217.568 Q106.467 217.937 105.898 218.08 Z" fill="#000000" fill-rule="evenodd" fill-opacity="1" /><path clip-path="url(#clip840)" d="M 0 0 M35.0656 140.268 L38.5074 140.268 L38.5074 141.006 L35.8685 141.006 L35.8685 142.594 Q36.0595 142.529 36.2505 142.499 Q36.4414 142.464 36.6324 142.464 Q37.7175 142.464 38.3511 143.059 Q38.9848 143.653 38.9848 144.669 Q38.9848 145.715 38.3338 146.297 Q37.6827 146.874 36.4978 146.874 Q36.0899 146.874 35.6645 146.804 Q35.2435 146.735 34.7921 146.596 L34.7921 145.715 Q35.1827 145.928 35.5994 146.032 Q36.0161 146.136 36.4805 146.136 Q37.2313 146.136 37.6697 145.741 Q38.1081 145.346 38.1081 144.669 Q38.1081 143.992 37.6697 143.597 Q37.2313 143.202 36.4805 143.202 Q36.1289 143.202 35.7774 143.28 Q35.4301 143.358 35.0656 143.523 L35.0656 140.268 Z" fill="#000000" fill-rule="evenodd" fill-opacity="1" /><path clip-path="url(#clip840)" d="M 0 0 M37.1055 168.101 Q36.5152 168.101 36.168 168.504 Q35.8251 168.908 35.8251 169.611 Q35.8251 170.31 36.168 170.718 Q36.5152 171.121 37.1055 171.121 Q37.6958 171.121 38.0386 170.718 Q38.3859 170.31 38.3859 169.611 Q38.3859 168.908 38.0386 168.504 Q37.6958 168.101 37.1055 168.101 M38.8459 165.353 L38.8459 166.152 Q38.5161 165.996 38.1775 165.913 Q37.8433 165.831 37.5135 165.831 Q36.6454 165.831 36.1853 166.417 Q35.7296 167.002 35.6645 168.187 Q35.9206 167.81 36.3069 167.61 Q36.6932 167.406 37.1576 167.406 Q38.1341 167.406 38.6984 168.001 Q39.2669 168.591 39.2669 169.611 Q39.2669 170.609 38.6767 171.213 Q38.0864 171.816 37.1055 171.816 Q35.9814 171.816 35.3867 170.956 Q34.7921 170.093 34.7921 168.456 Q34.7921 166.92 35.5213 166.009 Q36.2505 165.093 37.4787 165.093 Q37.8086 165.093 38.1428 165.158 Q38.4813 165.223 38.8459 165.353 Z" fill="#000000" fill-rule="evenodd" fill-opacity="1" /><path clip-path="url(#clip840)" d="M 0 0 M68.8803 140.268 L73.047 140.268 L73.047 140.641 L70.6945 146.748 L69.7787 146.748 L71.9923 141.006 L68.8803 141.006 L68.8803 140.268 Z" fill="#000000" fill-rule="evenodd" fill-opacity="1" /><path clip-path="url(#clip840)" d="M 0 0 M71.1025 168.613 Q70.4775 168.613 70.1173 168.947 Q69.7614 169.281 69.7614 169.867 Q69.7614 170.453 70.1173 170.787 Q70.4775 171.121 71.1025 171.121 Q71.7275 171.121 72.0878 170.787 Q72.448 170.449 72.448 169.867 Q72.448 169.281 72.0878 168.947 Q71.7319 168.613 71.1025 168.613 M70.2258 168.239 Q69.6616 168.101 69.3447 167.714 Q69.0322 167.328 69.0322 166.772 Q69.0322 165.996 69.5834 165.544 Q70.139 165.093 71.1025 165.093 Q72.0704 165.093 72.6216 165.544 Q73.1728 165.996 73.1728 166.772 Q73.1728 167.328 72.856 167.714 Q72.5435 168.101 71.9836 168.239 Q72.6173 168.387 72.9688 168.817 Q73.3247 169.246 73.3247 169.867 Q73.3247 170.809 72.7475 171.312 Q72.1746 171.816 71.1025 171.816 Q70.0305 171.816 69.4532 171.312 Q68.8803 170.809 68.8803 169.867 Q68.8803 169.246 69.2362 168.817 Q69.5921 168.387 70.2258 168.239 M69.9046 166.855 Q69.9046 167.358 70.2171 167.641 Q70.534 167.923 71.1025 167.923 Q71.6668 167.923 71.9836 167.641 Q72.3048 167.358 72.3048 166.855 Q72.3048 166.351 71.9836 166.069 Q71.6668 165.787 71.1025 165.787 Q70.534 165.787 70.2171 166.069 Q69.9046 166.351 69.9046 166.855 Z" fill="#000000" fill-rule="evenodd" fill-opacity="1" /><path clip-path="url(#clip840)" d="M 0 0 M103.385 146.613 L103.385 145.815 Q103.715 145.971 104.054 146.054 Q104.392 146.136 104.718 146.136 Q105.586 146.136 106.041 145.554 Q106.501 144.968 106.567 143.779 Q106.315 144.153 105.929 144.352 Q105.542 144.552 105.074 144.552 Q104.101 144.552 103.533 143.966 Q102.969 143.376 102.969 142.356 Q102.969 141.357 103.559 140.754 Q104.149 140.151 105.13 140.151 Q106.254 140.151 106.844 141.015 Q107.439 141.874 107.439 143.514 Q107.439 145.047 106.71 145.962 Q105.985 146.874 104.757 146.874 Q104.427 146.874 104.088 146.809 Q103.75 146.744 103.385 146.613 M105.13 143.866 Q105.72 143.866 106.063 143.462 Q106.41 143.059 106.41 142.356 Q106.41 141.657 106.063 141.253 Q105.72 140.845 105.13 140.845 Q104.54 140.845 104.192 141.253 Q103.85 141.657 103.85 142.356 Q103.85 143.059 104.192 143.462 Q104.54 143.866 105.13 143.866 Z" fill="#000000" fill-rule="evenodd" fill-opacity="1" /><path clip-path="url(#clip840)" d="M 0 0 M103.094 170.952 L104.527 170.952 L104.527 166.009 L102.969 166.321 L102.969 165.522 L104.518 165.21 L105.395 165.21 L105.395 170.952 L106.827 170.952 L106.827 171.69 L103.094 171.69 L103.094 170.952 Z" fill="#000000" fill-rule="evenodd" fill-opacity="1" /><path clip-path="url(#clip840)" d="M 0 0 M109.652 165.787 Q108.975 165.787 108.633 166.456 Q108.294 167.12 108.294 168.456 Q108.294 169.789 108.633 170.457 Q108.975 171.121 109.652 171.121 Q110.334 171.121 110.672 170.457 Q111.015 169.789 111.015 168.456 Q111.015 167.12 110.672 166.456 Q110.334 165.787 109.652 165.787 M109.652 165.093 Q110.742 165.093 111.315 165.956 Q111.892 166.816 111.892 168.456 Q111.892 170.093 111.315 170.956 Q110.742 171.816 109.652 171.816 Q108.563 171.816 107.986 170.956 Q107.413 170.093 107.413 168.456 Q107.413 166.816 107.986 165.956 Q108.563 165.093 109.652 165.093 Z" fill="#000000" fill-rule="evenodd" fill-opacity="1" /><path clip-path="url(#clip840)" d="M 0 0 M34.918 71.1842 L36.3503 71.1842 L36.3503 66.2406 L34.7921 66.5531 L34.7921 65.7545 L36.3416 65.442 L37.2183 65.442 L37.2183 71.1842 L38.6506 71.1842 L38.6506 71.922 L34.918 71.922 L34.918 71.1842 Z" fill="#000000" fill-rule="evenodd" fill-opacity="1" /><path clip-path="url(#clip840)" d="M 0 0 M39.753 71.1842 L41.1853 71.1842 L41.1853 66.2406 L39.6272 66.5531 L39.6272 65.7545 L41.1766 65.442 L42.0534 65.442 L42.0534 71.1842 L43.4857 71.1842 L43.4857 71.922 L39.753 71.922 L39.753 71.1842 Z" fill="#000000" fill-rule="evenodd" fill-opacity="1" /><path clip-path="url(#clip840)" d="M 0 0 M34.918 96.1262 L36.3503 96.1262 L36.3503 91.1826 L34.7921 91.4951 L34.7921 90.6965 L36.3416 90.384 L37.2183 90.384 L37.2183 96.1262 L38.6506 96.1262 L38.6506 96.864 L34.918 96.864 L34.918 96.1262 Z" fill="#000000" fill-rule="evenodd" fill-opacity="1" /><path clip-path="url(#clip840)" d="M 0 0 M40.3563 96.1262 L43.4162 96.1262 L43.4162 96.864 L39.3017 96.864 L39.3017 96.1262 Q39.8008 95.6097 40.6602 94.7416 Q41.5239 93.8692 41.7452 93.6175 Q42.1662 93.1444 42.3311 92.8189 Q42.5004 92.489 42.5004 92.1722 Q42.5004 91.6557 42.1358 91.3302 Q41.7756 91.0047 41.194 91.0047 Q40.7817 91.0047 40.3216 91.1479 Q39.8659 91.2911 39.3451 91.5819 L39.3451 90.6965 Q39.8746 90.4838 40.3346 90.3753 Q40.7947 90.2668 41.1766 90.2668 Q42.1836 90.2668 42.7825 90.7703 Q43.3815 91.2738 43.3815 92.1158 Q43.3815 92.5151 43.2296 92.8753 Q43.082 93.2312 42.687 93.7173 Q42.5785 93.8432 41.9969 94.4465 Q41.4154 95.0454 40.3563 96.1262 Z" fill="#000000" fill-rule="evenodd" fill-opacity="1" /><path clip-path="url(#clip840)" d="M 0 0 M17.8739 108.597 L19.3062 108.597 L19.3062 103.654 L17.748 103.966 L17.748 103.168 L19.2975 102.855 L20.1742 102.855 L20.1742 108.597 L21.6065 108.597 L21.6065 109.335 L17.8739 109.335 L17.8739 108.597 Z" fill="#000000" fill-rule="evenodd" fill-opacity="1" /><path clip-path="url(#clip840)" d="M 0 0 M25.2133 105.841 Q25.8426 105.976 26.1942 106.401 Q26.5501 106.826 26.5501 107.451 Q26.5501 108.411 25.8903 108.936 Q25.2306 109.461 24.0154 109.461 Q23.6074 109.461 23.1733 109.378 Q22.7437 109.3 22.2836 109.14 L22.2836 108.293 Q22.6482 108.506 23.0822 108.615 Q23.5162 108.723 23.9893 108.723 Q24.814 108.723 25.2437 108.398 Q25.6777 108.072 25.6777 107.451 Q25.6777 106.878 25.274 106.557 Q24.8747 106.232 24.1586 106.232 L23.4034 106.232 L23.4034 105.511 L24.1933 105.511 Q24.84 105.511 25.1829 105.255 Q25.5258 104.995 25.5258 104.509 Q25.5258 104.01 25.1699 103.745 Q24.8183 103.476 24.1586 103.476 Q23.7983 103.476 23.386 103.554 Q22.9737 103.632 22.4789 103.797 L22.4789 103.016 Q22.978 102.877 23.4121 102.807 Q23.8504 102.738 24.2367 102.738 Q25.235 102.738 25.8166 103.194 Q26.3982 103.645 26.3982 104.417 Q26.3982 104.956 26.09 105.329 Q25.7818 105.698 25.2133 105.841 Z" fill="#000000" fill-rule="evenodd" fill-opacity="1" /><path clip-path="url(#clip840)" d="M 0 0 M17.8739 133.539 L19.3062 133.539 L19.3062 128.596 L17.748 128.908 L17.748 128.109 L19.2975 127.797 L20.1742 127.797 L20.1742 133.539 L21.6065 133.539 L21.6065 134.277 L17.8739 134.277 L17.8739 133.539 Z" fill="#000000" fill-rule="evenodd" fill-opacity="1" /><path clip-path="url(#clip840)" d="M 0 0 M24.9659 128.561 L22.7523 132.02 L24.9659 132.02 L24.9659 128.561 M24.7358 127.797 L25.8383 127.797 L25.8383 132.02 L26.7627 132.02 L26.7627 132.749 L25.8383 132.749 L25.8383 134.277 L24.9659 134.277 L24.9659 132.749 L22.0405 132.749 L22.0405 131.903 L24.7358 127.797 Z" fill="#000000" fill-rule="evenodd" fill-opacity="1" /><path clip-path="url(#clip840)" d="M 0 0 M51.9621 108.597 L53.3944 108.597 L53.3944 103.654 L51.8362 103.966 L51.8362 103.168 L53.3857 102.855 L54.2624 102.855 L54.2624 108.597 L55.6947 108.597 L55.6947 109.335 L51.9621 109.335 L51.9621 108.597 Z" fill="#000000" fill-rule="evenodd" fill-opacity="1" /><path clip-path="url(#clip840)" d="M 0 0 M56.6539 102.855 L60.0957 102.855 L60.0957 103.593 L57.4569 103.593 L57.4569 105.181 Q57.6478 105.116 57.8388 105.086 Q58.0298 105.051 58.2207 105.051 Q59.3058 105.051 59.9395 105.646 Q60.5732 106.24 60.5732 107.256 Q60.5732 108.302 59.9221 108.884 Q59.2711 109.461 58.0862 109.461 Q57.6782 109.461 57.2529 109.391 Q56.8319 109.322 56.3805 109.183 L56.3805 108.302 Q56.7711 108.515 57.1878 108.619 Q57.6044 108.723 58.0688 108.723 Q58.8197 108.723 59.2581 108.328 Q59.6964 107.933 59.6964 107.256 Q59.6964 106.579 59.2581 106.184 Q58.8197 105.789 58.0688 105.789 Q57.7173 105.789 57.3657 105.867 Q57.0185 105.945 56.6539 106.11 L56.6539 102.855 Z" fill="#000000" fill-rule="evenodd" fill-opacity="1" /><path clip-path="url(#clip840)" d="M 0 0 M51.9621 133.539 L53.3944 133.539 L53.3944 128.596 L51.8362 128.908 L51.8362 128.109 L53.3857 127.797 L54.2624 127.797 L54.2624 133.539 L55.6947 133.539 L55.6947 134.277 L51.9621 134.277 L51.9621 133.539 Z" fill="#000000" fill-rule="evenodd" fill-opacity="1" /><path clip-path="url(#clip840)" d="M 0 0 M58.6287 130.688 Q58.0384 130.688 57.6912 131.091 Q57.3483 131.495 57.3483 132.198 Q57.3483 132.897 57.6912 133.305 Q58.0384 133.708 58.6287 133.708 Q59.219 133.708 59.5619 133.305 Q59.9091 132.897 59.9091 132.198 Q59.9091 131.495 59.5619 131.091 Q59.219 130.688 58.6287 130.688 M60.3692 127.94 L60.3692 128.739 Q60.0393 128.583 59.7008 128.5 Q59.3666 128.418 59.0367 128.418 Q58.1687 128.418 57.7086 129.004 Q57.2529 129.59 57.1878 130.774 Q57.4438 130.397 57.8301 130.197 Q58.2164 129.993 58.6808 129.993 Q59.6574 129.993 60.2216 130.588 Q60.7902 131.178 60.7902 132.198 Q60.7902 133.196 60.1999 133.8 Q59.6096 134.403 58.6287 134.403 Q57.5046 134.403 56.91 133.543 Q56.3154 132.68 56.3154 131.044 Q56.3154 129.507 57.0445 128.596 Q57.7737 127.68 59.002 127.68 Q59.3318 127.68 59.666 127.745 Q60.0046 127.81 60.3692 127.94 Z" fill="#000000" fill-rule="evenodd" fill-opacity="1" /><path clip-path="url(#clip840)" d="M 0 0 M86.0503 108.597 L87.4826 108.597 L87.4826 103.654 L85.9244 103.966 L85.9244 103.168 L87.4739 102.855 L88.3506 102.855 L88.3506 108.597 L89.7829 108.597 L89.7829 109.335 L86.0503 109.335 L86.0503 108.597 Z" fill="#000000" fill-rule="evenodd" fill-opacity="1" /><path clip-path="url(#clip840)" d="M 0 0 M90.5121 102.855 L94.6787 102.855 L94.6787 103.228 L92.3263 109.335 L91.4105 109.335 L93.624 103.593 L90.5121 103.593 L90.5121 102.855 Z" fill="#000000" fill-rule="evenodd" fill-opacity="1" /><path clip-path="url(#clip840)" d="M 0 0 M86.0503 133.539 L87.4826 133.539 L87.4826 128.596 L85.9244 128.908 L85.9244 128.109 L87.4739 127.797 L88.3506 127.797 L88.3506 133.539 L89.7829 133.539 L89.7829 134.277 L86.0503 134.277 L86.0503 133.539 Z" fill="#000000" fill-rule="evenodd" fill-opacity="1" /><path clip-path="url(#clip840)" d="M 0 0 M92.6084 131.2 Q91.9834 131.2 91.6232 131.534 Q91.2673 131.868 91.2673 132.454 Q91.2673 133.04 91.6232 133.374 Q91.9834 133.708 92.6084 133.708 Q93.2334 133.708 93.5936 133.374 Q93.9539 133.036 93.9539 132.454 Q93.9539 131.868 93.5936 131.534 Q93.2377 131.2 92.6084 131.2 M91.7317 130.826 Q91.1674 130.688 90.8506 130.301 Q90.5381 129.915 90.5381 129.359 Q90.5381 128.583 91.0893 128.131 Q91.6449 127.68 92.6084 127.68 Q93.5763 127.68 94.1275 128.131 Q94.6787 128.583 94.6787 129.359 Q94.6787 129.915 94.3619 130.301 Q94.0494 130.688 93.4895 130.826 Q94.1232 130.974 94.4747 131.404 Q94.8306 131.833 94.8306 132.454 Q94.8306 133.396 94.2534 133.899 Q93.6804 134.403 92.6084 134.403 Q91.5364 134.403 90.9591 133.899 Q90.3862 133.396 90.3862 132.454 Q90.3862 131.833 90.7421 131.404 Q91.098 130.974 91.7317 130.826 M91.4105 129.442 Q91.4105 129.945 91.723 130.228 Q92.0398 130.51 92.6084 130.51 Q93.1726 130.51 93.4895 130.228 Q93.8107 129.945 93.8107 129.442 Q93.8107 128.938 93.4895 128.656 Q93.1726 128.374 92.6084 128.374 Q92.0398 128.374 91.723 128.656 Q91.4105 128.938 91.4105 129.442 Z" fill="#000000" fill-rule="evenodd" fill-opacity="1" /><path clip-path="url(#clip840)" d="M 0 0 M17.8739 183.423 L19.3062 183.423 L19.3062 178.48 L17.748 178.792 L17.748 177.993 L19.2975 177.681 L20.1742 177.681 L20.1742 183.423 L21.6065 183.423 L21.6065 184.161 L17.8739 184.161 L17.8739 183.423 Z" fill="#000000" fill-rule="evenodd" fill-opacity="1" /><path clip-path="url(#clip840)" d="M 0 0 M22.5831 184.026 L22.5831 183.228 Q22.9129 183.384 23.2515 183.467 Q23.59 183.549 23.9155 183.549 Q24.7836 183.549 25.2393 182.967 Q25.6994 182.381 25.7645 181.192 Q25.5127 181.565 25.1265 181.765 Q24.7402 181.965 24.2714 181.965 Q23.2992 181.965 22.7306 181.379 Q22.1664 180.789 22.1664 179.769 Q22.1664 178.77 22.7567 178.167 Q23.347 177.564 24.3279 177.564 Q25.452 177.564 26.0423 178.427 Q26.6369 179.287 26.6369 180.927 Q26.6369 182.46 25.9077 183.375 Q25.1829 184.287 23.9546 184.287 Q23.6247 184.287 23.2862 184.222 Q22.9477 184.157 22.5831 184.026 M24.3279 181.279 Q24.9181 181.279 25.261 180.875 Q25.6082 180.472 25.6082 179.769 Q25.6082 179.07 25.261 178.666 Q24.9181 178.258 24.3279 178.258 Q23.7376 178.258 23.3904 178.666 Q23.0475 179.07 23.0475 179.769 Q23.0475 180.472 23.3904 180.875 Q23.7376 181.279 24.3279 181.279 Z" fill="#000000" fill-rule="evenodd" fill-opacity="1" /><path clip-path="url(#clip840)" d="M 0 0 M18.8027 208.365 L21.8626 208.365 L21.8626 209.103 L17.748 209.103 L17.748 208.365 Q18.2472 207.849 19.1065 206.981 Q19.9702 206.108 20.1916 205.856 Q20.6126 205.383 20.7775 205.058 Q20.9468 204.728 20.9468 204.411 Q20.9468 203.895 20.5822 203.569 Q20.222 203.244 19.6404 203.244 Q19.2281 203.244 18.768 203.387 Q18.3123 203.53 17.7914 203.821 L17.7914 202.935 Q18.3209 202.723 18.781 202.614 Q19.2411 202.506 19.623 202.506 Q20.63 202.506 21.2289 203.009 Q21.8279 203.513 21.8279 204.355 Q21.8279 204.754 21.676 205.114 Q21.5284 205.47 21.1334 205.956 Q21.0249 206.082 20.4433 206.685 Q19.8617 207.284 18.8027 208.365 Z" fill="#000000" fill-rule="evenodd" fill-opacity="1" /><path clip-path="url(#clip840)" d="M 0 0 M24.6881 203.2 Q24.011 203.2 23.6681 203.869 Q23.3296 204.533 23.3296 205.869 Q23.3296 207.202 23.6681 207.87 Q24.011 208.534 24.6881 208.534 Q25.3695 208.534 25.7081 207.87 Q26.0509 207.202 26.0509 205.869 Q26.0509 204.533 25.7081 203.869 Q25.3695 203.2 24.6881 203.2 M24.6881 202.506 Q25.7775 202.506 26.3504 203.369 Q26.9277 204.229 26.9277 205.869 Q26.9277 207.506 26.3504 208.369 Q25.7775 209.229 24.6881 209.229 Q23.5987 209.229 23.0214 208.369 Q22.4485 207.506 22.4485 205.869 Q22.4485 204.229 23.0214 203.369 Q23.5987 202.506 24.6881 202.506 Z" fill="#000000" fill-rule="evenodd" fill-opacity="1" /><path clip-path="url(#clip840)" d="M 0 0 M52.8909 183.423 L55.9508 183.423 L55.9508 184.161 L51.8362 184.161 L51.8362 183.423 Q52.3353 182.907 53.1947 182.039 Q54.0584 181.166 54.2798 180.914 Q54.7008 180.441 54.8657 180.116 Q55.035 179.786 55.035 179.469 Q55.035 178.953 54.6704 178.627 Q54.3102 178.302 53.7286 178.302 Q53.3162 178.302 52.8562 178.445 Q52.4005 178.588 51.8796 178.879 L51.8796 177.993 Q52.4091 177.781 52.8692 177.672 Q53.3293 177.564 53.7112 177.564 Q54.7181 177.564 55.3171 178.067 Q55.9161 178.571 55.9161 179.413 Q55.9161 179.812 55.7642 180.172 Q55.6166 180.528 55.2216 181.014 Q55.1131 181.14 54.5315 181.743 Q53.9499 182.342 52.8909 183.423 Z" fill="#000000" fill-rule="evenodd" fill-opacity="1" /><path clip-path="url(#clip840)" d="M 0 0 M57.0532 183.423 L58.4855 183.423 L58.4855 178.48 L56.9273 178.792 L56.9273 177.993 L58.4768 177.681 L59.3535 177.681 L59.3535 183.423 L60.7858 183.423 L60.7858 184.161 L57.0532 184.161 L57.0532 183.423 Z" fill="#000000" fill-rule="evenodd" fill-opacity="1" /><path clip-path="url(#clip840)" d="M 0 0 M52.8909 208.365 L55.9508 208.365 L55.9508 209.103 L51.8362 209.103 L51.8362 208.365 Q52.3353 207.849 53.1947 206.981 Q54.0584 206.108 54.2798 205.856 Q54.7008 205.383 54.8657 205.058 Q55.035 204.728 55.035 204.411 Q55.035 203.895 54.6704 203.569 Q54.3102 203.244 53.7286 203.244 Q53.3162 203.244 52.8562 203.387 Q52.4005 203.53 51.8796 203.821 L51.8796 202.935 Q52.4091 202.723 52.8692 202.614 Q53.3293 202.506 53.7112 202.506 Q54.7181 202.506 55.3171 203.009 Q55.9161 203.513 55.9161 204.355 Q55.9161 204.754 55.7642 205.114 Q55.6166 205.47 55.2216 205.956 Q55.1131 206.082 54.5315 206.685 Q53.9499 207.284 52.8909 208.365 Z" fill="#000000" fill-rule="evenodd" fill-opacity="1" /><path clip-path="url(#clip840)" d="M 0 0 M57.6565 208.365 L60.7164 208.365 L60.7164 209.103 L56.6018 209.103 L56.6018 208.365 Q57.1009 207.849 57.9603 206.981 Q58.824 206.108 59.0454 205.856 Q59.4664 205.383 59.6313 205.058 Q59.8006 204.728 59.8006 204.411 Q59.8006 203.895 59.436 203.569 Q59.0758 203.244 58.4942 203.244 Q58.0818 203.244 57.6218 203.387 Q57.1661 203.53 56.6452 203.821 L56.6452 202.935 Q57.1747 202.723 57.6348 202.614 Q58.0949 202.506 58.4768 202.506 Q59.4837 202.506 60.0827 203.009 Q60.6817 203.513 60.6817 204.355 Q60.6817 204.754 60.5298 205.114 Q60.3822 205.47 59.9872 205.956 Q59.8787 206.082 59.2971 206.685 Q58.7155 207.284 57.6565 208.365 Z" fill="#000000" fill-rule="evenodd" fill-opacity="1" /><path clip-path="url(#clip840)" d="M 0 0 M86.9791 183.423 L90.039 183.423 L90.039 184.161 L85.9244 184.161 L85.9244 183.423 Q86.4235 182.907 87.2829 182.039 Q88.1466 181.166 88.368 180.914 Q88.789 180.441 88.9539 180.116 Q89.1232 179.786 89.1232 179.469 Q89.1232 178.953 88.7586 178.627 Q88.3984 178.302 87.8168 178.302 Q87.4044 178.302 86.9444 178.445 Q86.4886 178.588 85.9678 178.879 L85.9678 177.993 Q86.4973 177.781 86.9574 177.672 Q87.4175 177.564 87.7994 177.564 Q88.8063 177.564 89.4053 178.067 Q90.0042 178.571 90.0042 179.413 Q90.0042 179.812 89.8523 180.172 Q89.7048 180.528 89.3098 181.014 Q89.2013 181.14 88.6197 181.743 Q88.0381 182.342 86.9791 183.423 Z" fill="#000000" fill-rule="evenodd" fill-opacity="1" /><path clip-path="url(#clip840)" d="M 0 0 M93.6457 180.667 Q94.2751 180.802 94.6266 181.227 Q94.9825 181.652 94.9825 182.277 Q94.9825 183.236 94.3228 183.762 Q93.6631 184.287 92.4478 184.287 Q92.0398 184.287 91.6058 184.204 Q91.1761 184.126 90.7161 183.966 L90.7161 183.119 Q91.0806 183.332 91.5147 183.44 Q91.9487 183.549 92.4218 183.549 Q93.2464 183.549 93.6761 183.223 Q94.1101 182.898 94.1101 182.277 Q94.1101 181.704 93.7065 181.383 Q93.3072 181.058 92.591 181.058 L91.8358 181.058 L91.8358 180.337 L92.6258 180.337 Q93.2725 180.337 93.6153 180.081 Q93.9582 179.821 93.9582 179.335 Q93.9582 178.835 93.6023 178.571 Q93.2508 178.302 92.591 178.302 Q92.2308 178.302 91.8185 178.38 Q91.4062 178.458 90.9114 178.623 L90.9114 177.842 Q91.4105 177.703 91.8445 177.633 Q92.2829 177.564 92.6692 177.564 Q93.6674 177.564 94.249 178.02 Q94.8306 178.471 94.8306 179.243 Q94.8306 179.782 94.5225 180.155 Q94.2143 180.524 93.6457 180.667 Z" fill="#000000" fill-rule="evenodd" fill-opacity="1" /><path clip-path="url(#clip840)" d="M 0 0 M86.9791 208.365 L90.039 208.365 L90.039 209.103 L85.9244 209.103 L85.9244 208.365 Q86.4235 207.849 87.2829 206.981 Q88.1466 206.108 88.368 205.856 Q88.789 205.383 88.9539 205.058 Q89.1232 204.728 89.1232 204.411 Q89.1232 203.895 88.7586 203.569 Q88.3984 203.244 87.8168 203.244 Q87.4044 203.244 86.9444 203.387 Q86.4886 203.53 85.9678 203.821 L85.9678 202.935 Q86.4973 202.723 86.9574 202.614 Q87.4175 202.506 87.7994 202.506 Q88.8063 202.506 89.4053 203.009 Q90.0042 203.513 90.0042 204.355 Q90.0042 204.754 89.8523 205.114 Q89.7048 205.47 89.3098 205.956 Q89.2013 206.082 88.6197 206.685 Q88.0381 207.284 86.9791 208.365 Z" fill="#000000" fill-rule="evenodd" fill-opacity="1" /><path clip-path="url(#clip840)" d="M 0 0 M93.3983 203.387 L91.1848 206.846 L93.3983 206.846 L93.3983 203.387 M93.1683 202.623 L94.2707 202.623 L94.2707 206.846 L95.1952 206.846 L95.1952 207.575 L94.2707 207.575 L94.2707 209.103 L93.3983 209.103 L93.3983 207.575 L90.473 207.575 L90.473 206.729 L93.1683 202.623 Z" fill="#000000" fill-rule="evenodd" fill-opacity="1" /><circle clip-path="url(#clip842)" cx="68.8803" cy="73.866" r="3" fill="#0000ff" fill-rule="evenodd" fill-opacity="1" stroke="none"/>
<circle clip-path="url(#clip842)" cx="68.8803" cy="98.808" r="3" fill="#0000ff" fill-rule="evenodd" fill-opacity="1" stroke="none"/>
<circle clip-path="url(#clip842)" cx="102.969" cy="73.866" r="3" fill="#0000ff" fill-rule="evenodd" fill-opacity="1" stroke="none"/>
<circle clip-path="url(#clip842)" cx="102.969" cy="98.808" r="3" fill="#0000ff" fill-rule="evenodd" fill-opacity="1" stroke="none"/>
<circle clip-path="url(#clip842)" cx="34.7921" cy="23.9821" r="3" fill="#0000ff" fill-rule="evenodd" fill-opacity="1" stroke="none"/>
<circle clip-path="url(#clip842)" cx="68.8803" cy="23.9821" r="3" fill="#0000ff" fill-rule="evenodd" fill-opacity="1" stroke="none"/>
<circle clip-path="url(#clip842)" cx="102.969" cy="23.9821" r="3" fill="#0000ff" fill-rule="evenodd" fill-opacity="1" stroke="none"/>
<circle clip-path="url(#clip842)" cx="17.748" cy="36.453" r="3" fill="#0000ff" fill-rule="evenodd" fill-opacity="1" stroke="none"/>
<circle clip-path="url(#clip842)" cx="17.748" cy="61.395" r="3" fill="#0000ff" fill-rule="evenodd" fill-opacity="1" stroke="none"/>
<circle clip-path="url(#clip842)" cx="51.8362" cy="36.453" r="3" fill="#0000ff" fill-rule="evenodd" fill-opacity="1" stroke="none"/>
<circle clip-path="url(#clip842)" cx="51.8362" cy="61.395" r="3" fill="#0000ff" fill-rule="evenodd" fill-opacity="1" stroke="none"/>
<circle clip-path="url(#clip842)" cx="85.9244" cy="36.453" r="3" fill="#0000ff" fill-rule="evenodd" fill-opacity="1" stroke="none"/>
<circle clip-path="url(#clip842)" cx="85.9244" cy="61.395" r="3" fill="#0000ff" fill-rule="evenodd" fill-opacity="1" stroke="none"/>
<path clip-path="url(#clip840)" d="M 0 0 M69.0062 71.1842 L70.4385 71.1842 L70.4385 66.2406 L68.8803 66.5531 L68.8803 65.7545 L70.4298 65.442 L71.3065 65.442 L71.3065 71.1842 L72.7388 71.1842 L72.7388 71.922 L69.0062 71.922 L69.0062 71.1842 Z" fill="#000000" fill-rule="evenodd" fill-opacity="1" /><path clip-path="url(#clip840)" d="M 0 0 M69.935 96.1262 L72.9949 96.1262 L72.9949 96.864 L68.8803 96.864 L68.8803 96.1262 Q69.3794 95.6097 70.2388 94.7416 Q71.1025 93.8692 71.3239 93.6175 Q71.7449 93.1444 71.9098 92.8189 Q72.0791 92.489 72.0791 92.1722 Q72.0791 91.6557 71.7145 91.3302 Q71.3543 91.0047 70.7727 91.0047 Q70.3603 91.0047 69.9003 91.1479 Q69.4445 91.2911 68.9237 91.5819 L68.9237 90.6965 Q69.4532 90.4838 69.9133 90.3753 Q70.3734 90.2668 70.7553 90.2668 Q71.7622 90.2668 72.3612 90.7703 Q72.9602 91.2738 72.9602 92.1158 Q72.9602 92.5151 72.8082 92.8753 Q72.6607 93.2312 72.2657 93.7173 Q72.1572 93.8432 71.5756 94.4465 Q70.994 95.0454 69.935 96.1262 Z" fill="#000000" fill-rule="evenodd" fill-opacity="1" /><path clip-path="url(#clip840)" d="M 0 0 M105.898 68.4281 Q106.528 68.5627 106.879 68.988 Q107.235 69.4134 107.235 70.0384 Q107.235 70.9976 106.575 71.5227 Q105.916 72.0479 104.7 72.0479 Q104.292 72.0479 103.858 71.9654 Q103.429 71.8873 102.969 71.7267 L102.969 70.8804 Q103.333 71.093 103.767 71.2015 Q104.201 71.3101 104.674 71.3101 Q105.499 71.3101 105.929 70.9845 Q106.363 70.659 106.363 70.0384 Q106.363 69.4654 105.959 69.1443 Q105.56 68.8187 104.843 68.8187 L104.088 68.8187 L104.088 68.0983 L104.878 68.0983 Q105.525 68.0983 105.868 67.8422 Q106.211 67.5818 106.211 67.0957 Q106.211 66.5965 105.855 66.3318 Q105.503 66.0627 104.843 66.0627 Q104.483 66.0627 104.071 66.1408 Q103.659 66.2189 103.164 66.3839 L103.164 65.6026 Q103.663 65.4637 104.097 65.3943 Q104.535 65.3248 104.922 65.3248 Q105.92 65.3248 106.501 65.7806 Q107.083 66.232 107.083 67.0045 Q107.083 67.5427 106.775 67.916 Q106.467 68.2849 105.898 68.4281 Z" fill="#000000" fill-rule="evenodd" fill-opacity="1" /><path clip-path="url(#clip840)" d="M 0 0 M105.894 91.1479 L103.68 94.6071 L105.894 94.6071 L105.894 91.1479 M105.664 90.384 L106.766 90.384 L106.766 94.6071 L107.691 94.6071 L107.691 95.3362 L106.766 95.3362 L106.766 96.864 L105.894 96.864 L105.894 95.3362 L102.969 95.3362 L102.969 94.4899 L105.664 90.384 Z" fill="#000000" fill-rule="evenodd" fill-opacity="1" /><path clip-path="url(#clip840)" d="M 0 0 M37.1055 18.4487 Q36.5152 18.4487 36.168 18.8523 Q35.8251 19.256 35.8251 19.9591 Q35.8251 20.6579 36.168 21.0658 Q36.5152 21.4695 37.1055 21.4695 Q37.6958 21.4695 38.0386 21.0658 Q38.3859 20.6579 38.3859 19.9591 Q38.3859 19.256 38.0386 18.8523 Q37.6958 18.4487 37.1055 18.4487 M38.8459 15.7013 L38.8459 16.4999 Q38.5161 16.3436 38.1775 16.2612 Q37.8433 16.1787 37.5135 16.1787 Q36.6454 16.1787 36.1853 16.7646 Q35.7296 17.3506 35.6645 18.5355 Q35.9206 18.1579 36.3069 17.9582 Q36.6932 17.7542 37.1576 17.7542 Q38.1341 17.7542 38.6984 18.3488 Q39.2669 18.9391 39.2669 19.9591 Q39.2669 20.9573 38.6767 21.5606 Q38.0864 22.1639 37.1055 22.1639 Q35.9814 22.1639 35.3867 21.3046 Q34.7921 20.4408 34.7921 18.8046 Q34.7921 17.2681 35.5213 16.3567 Q36.2505 15.4409 37.4787 15.4409 Q37.8086 15.4409 38.1428 15.506 Q38.4813 15.5711 38.8459 15.7013 Z" fill="#000000" fill-rule="evenodd" fill-opacity="1" /><path clip-path="url(#clip840)" d="M 0 0 M71.1025 18.9608 Q70.4775 18.9608 70.1173 19.295 Q69.7614 19.6292 69.7614 20.2151 Q69.7614 20.8011 70.1173 21.1353 Q70.4775 21.4695 71.1025 21.4695 Q71.7275 21.4695 72.0878 21.1353 Q72.448 20.7967 72.448 20.2151 Q72.448 19.6292 72.0878 19.295 Q71.7319 18.9608 71.1025 18.9608 M70.2258 18.5876 Q69.6616 18.4487 69.3447 18.0624 Q69.0322 17.6761 69.0322 17.1205 Q69.0322 16.3436 69.5834 15.8923 Q70.139 15.4409 71.1025 15.4409 Q72.0704 15.4409 72.6216 15.8923 Q73.1728 16.3436 73.1728 17.1205 Q73.1728 17.6761 72.856 18.0624 Q72.5435 18.4487 71.9836 18.5876 Q72.6173 18.7351 72.9688 19.1648 Q73.3247 19.5945 73.3247 20.2151 Q73.3247 21.157 72.7475 21.6605 Q72.1746 22.1639 71.1025 22.1639 Q70.0305 22.1639 69.4532 21.6605 Q68.8803 21.157 68.8803 20.2151 Q68.8803 19.5945 69.2362 19.1648 Q69.5921 18.7351 70.2258 18.5876 M69.9046 17.203 Q69.9046 17.7065 70.2171 17.9886 Q70.534 18.2707 71.1025 18.2707 Q71.6668 18.2707 71.9836 17.9886 Q72.3048 17.7065 72.3048 17.203 Q72.3048 16.6995 71.9836 16.4174 Q71.6668 16.1353 71.1025 16.1353 Q70.534 16.1353 70.2171 16.4174 Q69.9046 16.6995 69.9046 17.203 Z" fill="#000000" fill-rule="evenodd" fill-opacity="1" /><path clip-path="url(#clip840)" d="M 0 0 M103.094 21.3002 L104.527 21.3002 L104.527 16.3567 L102.969 16.6692 L102.969 15.8706 L104.518 15.5581 L105.395 15.5581 L105.395 21.3002 L106.827 21.3002 L106.827 22.0381 L103.094 22.0381 L103.094 21.3002 Z" fill="#000000" fill-rule="evenodd" fill-opacity="1" /><path clip-path="url(#clip840)" d="M 0 0 M109.652 16.1353 Q108.975 16.1353 108.633 16.8037 Q108.294 17.4678 108.294 18.8046 Q108.294 20.137 108.633 20.8054 Q108.975 21.4695 109.652 21.4695 Q110.334 21.4695 110.672 20.8054 Q111.015 20.137 111.015 18.8046 Q111.015 17.4678 110.672 16.8037 Q110.334 16.1353 109.652 16.1353 M109.652 15.4409 Q110.742 15.4409 111.315 16.3046 Q111.892 17.1639 111.892 18.8046 Q111.892 20.4408 111.315 21.3046 Q110.742 22.1639 109.652 22.1639 Q108.563 22.1639 107.986 21.3046 Q107.413 20.4408 107.413 18.8046 Q107.413 17.1639 107.986 16.3046 Q108.563 15.4409 109.652 15.4409 Z" fill="#000000" fill-rule="evenodd" fill-opacity="1" /><path clip-path="url(#clip840)" d="M 0 0 M17.8739 33.7712 L19.3062 33.7712 L19.3062 28.8277 L17.748 29.1402 L17.748 28.3415 L19.2975 28.029 L20.1742 28.029 L20.1742 33.7712 L21.6065 33.7712 L21.6065 34.509 L17.8739 34.509 L17.8739 33.7712 Z" fill="#000000" fill-rule="evenodd" fill-opacity="1" /><path clip-path="url(#clip840)" d="M 0 0 M22.5831 34.3745 L22.5831 33.5759 Q22.9129 33.7321 23.2515 33.8146 Q23.59 33.8971 23.9155 33.8971 Q24.7836 33.8971 25.2393 33.3155 Q25.6994 32.7295 25.7645 31.5403 Q25.5127 31.9136 25.1265 32.1132 Q24.7402 32.3129 24.2714 32.3129 Q23.2992 32.3129 22.7306 31.7269 Q22.1664 31.1367 22.1664 30.1167 Q22.1664 29.1185 22.7567 28.5152 Q23.347 27.9119 24.3279 27.9119 Q25.452 27.9119 26.0423 28.7756 Q26.6369 29.6349 26.6369 31.2756 Q26.6369 32.8077 25.9077 33.7235 Q25.1829 34.6349 23.9546 34.6349 Q23.6247 34.6349 23.2862 34.5698 Q22.9477 34.5047 22.5831 34.3745 M24.3279 31.6271 Q24.9181 31.6271 25.261 31.2235 Q25.6082 30.8198 25.6082 30.1167 Q25.6082 29.4179 25.261 29.0143 Q24.9181 28.6063 24.3279 28.6063 Q23.7376 28.6063 23.3904 29.0143 Q23.0475 29.4179 23.0475 30.1167 Q23.0475 30.8198 23.3904 31.2235 Q23.7376 31.6271 24.3279 31.6271 Z" fill="#000000" fill-rule="evenodd" fill-opacity="1" /><path clip-path="url(#clip840)" d="M 0 0 M18.8027 58.7132 L21.8626 58.7132 L21.8626 59.451 L17.748 59.451 L17.748 58.7132 Q18.2472 58.1967 19.1065 57.3286 Q19.9702 56.4563 20.1916 56.2045 Q20.6126 55.7314 20.7775 55.4059 Q20.9468 55.0761 20.9468 54.7592 Q20.9468 54.2427 20.5822 53.9172 Q20.222 53.5917 19.6404 53.5917 Q19.2281 53.5917 18.768 53.7349 Q18.3123 53.8781 17.7914 54.1689 L17.7914 53.2835 Q18.3209 53.0709 18.781 52.9624 Q19.2411 52.8538 19.623 52.8538 Q20.63 52.8538 21.2289 53.3573 Q21.8279 53.8608 21.8279 54.7028 Q21.8279 55.1021 21.676 55.4623 Q21.5284 55.8182 21.1334 56.3043 Q21.0249 56.4302 20.4433 57.0335 Q19.8617 57.6325 18.8027 58.7132 Z" fill="#000000" fill-rule="evenodd" fill-opacity="1" /><path clip-path="url(#clip840)" d="M 0 0 M24.6881 53.5483 Q24.011 53.5483 23.6681 54.2167 Q23.3296 54.8807 23.3296 56.2175 Q23.3296 57.55 23.6681 58.2184 Q24.011 58.8825 24.6881 58.8825 Q25.3695 58.8825 25.7081 58.2184 Q26.0509 57.55 26.0509 56.2175 Q26.0509 54.8807 25.7081 54.2167 Q25.3695 53.5483 24.6881 53.5483 M24.6881 52.8538 Q25.7775 52.8538 26.3504 53.7176 Q26.9277 54.5769 26.9277 56.2175 Q26.9277 57.8538 26.3504 58.7175 Q25.7775 59.5769 24.6881 59.5769 Q23.5987 59.5769 23.0214 58.7175 Q22.4485 57.8538 22.4485 56.2175 Q22.4485 54.5769 23.0214 53.7176 Q23.5987 52.8538 24.6881 52.8538 Z" fill="#000000" fill-rule="evenodd" fill-opacity="1" /><path clip-path="url(#clip840)" d="M 0 0 M52.8909 33.7712 L55.9508 33.7712 L55.9508 34.509 L51.8362 34.509 L51.8362 33.7712 Q52.3353 33.2547 53.1947 32.3867 Q54.0584 31.5143 54.2798 31.2625 Q54.7008 30.7895 54.8657 30.4639 Q55.035 30.1341 55.035 29.8172 Q55.035 29.3007 54.6704 28.9752 Q54.3102 28.6497 53.7286 28.6497 Q53.3162 28.6497 52.8562 28.7929 Q52.4005 28.9362 51.8796 29.227 L51.8796 28.3415 Q52.4091 28.1289 52.8692 28.0204 Q53.3293 27.9119 53.7112 27.9119 Q54.7181 27.9119 55.3171 28.4153 Q55.9161 28.9188 55.9161 29.7608 Q55.9161 30.1601 55.7642 30.5204 Q55.6166 30.8763 55.2216 31.3624 Q55.1131 31.4882 54.5315 32.0915 Q53.9499 32.6905 52.8909 33.7712 Z" fill="#000000" fill-rule="evenodd" fill-opacity="1" /><path clip-path="url(#clip840)" d="M 0 0 M57.0532 33.7712 L58.4855 33.7712 L58.4855 28.8277 L56.9273 29.1402 L56.9273 28.3415 L58.4768 28.029 L59.3535 28.029 L59.3535 33.7712 L60.7858 33.7712 L60.7858 34.509 L57.0532 34.509 L57.0532 33.7712 Z" fill="#000000" fill-rule="evenodd" fill-opacity="1" /><path clip-path="url(#clip840)" d="M 0 0 M52.8909 58.7132 L55.9508 58.7132 L55.9508 59.451 L51.8362 59.451 L51.8362 58.7132 Q52.3353 58.1967 53.1947 57.3286 Q54.0584 56.4563 54.2798 56.2045 Q54.7008 55.7314 54.8657 55.4059 Q55.035 55.0761 55.035 54.7592 Q55.035 54.2427 54.6704 53.9172 Q54.3102 53.5917 53.7286 53.5917 Q53.3162 53.5917 52.8562 53.7349 Q52.4005 53.8781 51.8796 54.1689 L51.8796 53.2835 Q52.4091 53.0709 52.8692 52.9624 Q53.3293 52.8538 53.7112 52.8538 Q54.7181 52.8538 55.3171 53.3573 Q55.9161 53.8608 55.9161 54.7028 Q55.9161 55.1021 55.7642 55.4623 Q55.6166 55.8182 55.2216 56.3043 Q55.1131 56.4302 54.5315 57.0335 Q53.9499 57.6325 52.8909 58.7132 Z" fill="#000000" fill-rule="evenodd" fill-opacity="1" /><path clip-path="url(#clip840)" d="M 0 0 M57.6565 58.7132 L60.7164 58.7132 L60.7164 59.451 L56.6018 59.451 L56.6018 58.7132 Q57.1009 58.1967 57.9603 57.3286 Q58.824 56.4563 59.0454 56.2045 Q59.4664 55.7314 59.6313 55.4059 Q59.8006 55.0761 59.8006 54.7592 Q59.8006 54.2427 59.436 53.9172 Q59.0758 53.5917 58.4942 53.5917 Q58.0818 53.5917 57.6218 53.7349 Q57.1661 53.8781 56.6452 54.1689 L56.6452 53.2835 Q57.1747 53.0709 57.6348 52.9624 Q58.0949 52.8538 58.4768 52.8538 Q59.4837 52.8538 60.0827 53.3573 Q60.6817 53.8608 60.6817 54.7028 Q60.6817 55.1021 60.5298 55.4623 Q60.3822 55.8182 59.9872 56.3043 Q59.8787 56.4302 59.2971 57.0335 Q58.7155 57.6325 57.6565 58.7132 Z" fill="#000000" fill-rule="evenodd" fill-opacity="1" /><path clip-path="url(#clip840)" d="M 0 0 M86.9791 33.7712 L90.039 33.7712 L90.039 34.509 L85.9244 34.509 L85.9244 33.7712 Q86.4235 33.2547 87.2829 32.3867 Q88.1466 31.5143 88.368 31.2625 Q88.789 30.7895 88.9539 30.4639 Q89.1232 30.1341 89.1232 29.8172 Q89.1232 29.3007 88.7586 28.9752 Q88.3984 28.6497 87.8168 28.6497 Q87.4044 28.6497 86.9444 28.7929 Q86.4886 28.9362 85.9678 29.227 L85.9678 28.3415 Q86.4973 28.1289 86.9574 28.0204 Q87.4175 27.9119 87.7994 27.9119 Q88.8063 27.9119 89.4053 28.4153 Q90.0042 28.9188 90.0042 29.7608 Q90.0042 30.1601 89.8523 30.5204 Q89.7048 30.8763 89.3098 31.3624 Q89.2013 31.4882 88.6197 32.0915 Q88.0381 32.6905 86.9791 33.7712 Z" fill="#000000" fill-rule="evenodd" fill-opacity="1" /><path clip-path="url(#clip840)" d="M 0 0 M93.6457 31.0151 Q94.2751 31.1497 94.6266 31.575 Q94.9825 32.0004 94.9825 32.6254 Q94.9825 33.5846 94.3228 34.1097 Q93.6631 34.6349 92.4478 34.6349 Q92.0398 34.6349 91.6058 34.5525 Q91.1761 34.4743 90.7161 34.3137 L90.7161 33.4674 Q91.0806 33.6801 91.5147 33.7886 Q91.9487 33.8971 92.4218 33.8971 Q93.2464 33.8971 93.6761 33.5716 Q94.1101 33.246 94.1101 32.6254 Q94.1101 32.0525 93.7065 31.7313 Q93.3072 31.4058 92.591 31.4058 L91.8358 31.4058 L91.8358 30.6853 L92.6258 30.6853 Q93.2725 30.6853 93.6153 30.4292 Q93.9582 30.1688 93.9582 29.6827 Q93.9582 29.1836 93.6023 28.9188 Q93.2508 28.6497 92.591 28.6497 Q92.2308 28.6497 91.8185 28.7278 Q91.4062 28.806 90.9114 28.9709 L90.9114 28.1896 Q91.4105 28.0507 91.8445 27.9813 Q92.2829 27.9119 92.6692 27.9119 Q93.6674 27.9119 94.249 28.3676 Q94.8306 28.819 94.8306 29.5915 Q94.8306 30.1297 94.5225 30.503 Q94.2143 30.8719 93.6457 31.0151 Z" fill="#000000" fill-rule="evenodd" fill-opacity="1" /><path clip-path="url(#clip840)" d="M 0 0 M86.9791 58.7132 L90.039 58.7132 L90.039 59.451 L85.9244 59.451 L85.9244 58.7132 Q86.4235 58.1967 87.2829 57.3286 Q88.1466 56.4563 88.368 56.2045 Q88.789 55.7314 88.9539 55.4059 Q89.1232 55.0761 89.1232 54.7592 Q89.1232 54.2427 88.7586 53.9172 Q88.3984 53.5917 87.8168 53.5917 Q87.4044 53.5917 86.9444 53.7349 Q86.4886 53.8781 85.9678 54.1689 L85.9678 53.2835 Q86.4973 53.0709 86.9574 52.9624 Q87.4175 52.8538 87.7994 52.8538 Q88.8063 52.8538 89.4053 53.3573 Q90.0042 53.8608 90.0042 54.7028 Q90.0042 55.1021 89.8523 55.4623 Q89.7048 55.8182 89.3098 56.3043 Q89.2013 56.4302 88.6197 57.0335 Q88.0381 57.6325 86.9791 58.7132 Z" fill="#000000" fill-rule="evenodd" fill-opacity="1" /><path clip-path="url(#clip840)" d="M 0 0 M93.3983 53.7349 L91.1848 57.1941 L93.3983 57.1941 L93.3983 53.7349 M93.1683 52.971 L94.2707 52.971 L94.2707 57.1941 L95.1952 57.1941 L95.1952 57.9233 L94.2707 57.9233 L94.2707 59.451 L93.3983 59.451 L93.3983 57.9233 L90.473 57.9233 L90.473 57.0769 L93.1683 52.971 Z" fill="#000000" fill-rule="evenodd" fill-opacity="1" /><circle clip-path="url(#clip842)" cx="137.057" cy="223.518" r="3" fill="#0000ff" fill-rule="evenodd" fill-opacity="1" stroke="none"/>
<circle clip-path="url(#clip842)" cx="171.145" cy="223.518" r="3" fill="#0000ff" fill-rule="evenodd" fill-opacity="1" stroke="none"/>
<circle clip-path="url(#clip842)" cx="137.057" cy="148.692" r="3" fill="#0000ff" fill-rule="evenodd" fill-opacity="1" stroke="none"/>
<circle clip-path="url(#clip842)" cx="137.057" cy="173.634" r="3" fill="#0000ff" fill-rule="evenodd" fill-opacity="1" stroke="none"/>
<circle clip-path="url(#clip842)" cx="120.013" cy="186.105" r="3" fill="#0000ff" fill-rule="evenodd" fill-opacity="1" stroke="none"/>
<circle clip-path="url(#clip842)" cx="120.013" cy="211.047" r="3" fill="#0000ff" fill-rule="evenodd" fill-opacity="1" stroke="none"/>
<circle clip-path="url(#clip842)" cx="154.101" cy="186.105" r="3" fill="#0000ff" fill-rule="evenodd" fill-opacity="1" stroke="none"/>
<circle clip-path="url(#clip842)" cx="154.101" cy="211.047" r="3" fill="#0000ff" fill-rule="evenodd" fill-opacity="1" stroke="none"/>
<circle clip-path="url(#clip842)" cx="188.189" cy="186.105" r="3" fill="#0000ff" fill-rule="evenodd" fill-opacity="1" stroke="none"/>
<circle clip-path="url(#clip842)" cx="188.189" cy="211.047" r="3" fill="#0000ff" fill-rule="evenodd" fill-opacity="1" stroke="none"/>
<path clip-path="url(#clip840)" d="M 0 0 M137.33 215.094 L140.772 215.094 L140.772 215.832 L138.133 215.832 L138.133 217.42 Q138.324 217.355 138.515 217.325 Q138.706 217.29 138.897 217.29 Q139.982 217.29 140.616 217.885 Q141.249 218.479 141.249 219.495 Q141.249 220.541 140.598 221.123 Q139.947 221.7 138.762 221.7 Q138.354 221.7 137.929 221.63 Q137.508 221.561 137.057 221.422 L137.057 220.541 Q137.447 220.754 137.864 220.858 Q138.281 220.962 138.745 220.962 Q139.496 220.962 139.934 220.567 Q140.373 220.172 140.373 219.495 Q140.373 218.818 139.934 218.423 Q139.496 218.028 138.745 218.028 Q138.393 218.028 138.042 218.106 Q137.695 218.184 137.33 218.349 L137.33 215.094 Z" fill="#000000" fill-rule="evenodd" fill-opacity="1" /><path clip-path="url(#clip840)" d="M 0 0 M171.145 215.094 L175.312 215.094 L175.312 215.467 L172.959 221.574 L172.043 221.574 L174.257 215.832 L171.145 215.832 L171.145 215.094 Z" fill="#000000" fill-rule="evenodd" fill-opacity="1" /><path clip-path="url(#clip840)" d="M 0 0 M137.183 146.01 L138.615 146.01 L138.615 141.067 L137.057 141.379 L137.057 140.58 L138.606 140.268 L139.483 140.268 L139.483 146.01 L140.915 146.01 L140.915 146.748 L137.183 146.748 L137.183 146.01 Z" fill="#000000" fill-rule="evenodd" fill-opacity="1" /><path clip-path="url(#clip840)" d="M 0 0 M142.018 146.01 L143.45 146.01 L143.45 141.067 L141.892 141.379 L141.892 140.58 L143.441 140.268 L144.318 140.268 L144.318 146.01 L145.75 146.01 L145.75 146.748 L142.018 146.748 L142.018 146.01 Z" fill="#000000" fill-rule="evenodd" fill-opacity="1" /><path clip-path="url(#clip840)" d="M 0 0 M137.183 170.952 L138.615 170.952 L138.615 166.009 L137.057 166.321 L137.057 165.522 L138.606 165.21 L139.483 165.21 L139.483 170.952 L140.915 170.952 L140.915 171.69 L137.183 171.69 L137.183 170.952 Z" fill="#000000" fill-rule="evenodd" fill-opacity="1" /><path clip-path="url(#clip840)" d="M 0 0 M142.621 170.952 L145.681 170.952 L145.681 171.69 L141.566 171.69 L141.566 170.952 Q142.065 170.436 142.925 169.568 Q143.788 168.695 144.01 168.443 Q144.431 167.97 144.596 167.645 Q144.765 167.315 144.765 166.998 Q144.765 166.482 144.4 166.156 Q144.04 165.831 143.459 165.831 Q143.046 165.831 142.586 165.974 Q142.13 166.117 141.61 166.408 L141.61 165.522 Q142.139 165.31 142.599 165.201 Q143.059 165.093 143.441 165.093 Q144.448 165.093 145.047 165.596 Q145.646 166.1 145.646 166.942 Q145.646 167.341 145.494 167.701 Q145.347 168.057 144.952 168.543 Q144.843 168.669 144.262 169.272 Q143.68 169.871 142.621 170.952 Z" fill="#000000" fill-rule="evenodd" fill-opacity="1" /><path clip-path="url(#clip840)" d="M 0 0 M120.138 183.423 L121.571 183.423 L121.571 178.48 L120.013 178.792 L120.013 177.993 L121.562 177.681 L122.439 177.681 L122.439 183.423 L123.871 183.423 L123.871 184.161 L120.138 184.161 L120.138 183.423 Z" fill="#000000" fill-rule="evenodd" fill-opacity="1" /><path clip-path="url(#clip840)" d="M 0 0 M127.478 180.667 Q128.107 180.802 128.459 181.227 Q128.815 181.652 128.815 182.277 Q128.815 183.236 128.155 183.762 Q127.495 184.287 126.28 184.287 Q125.872 184.287 125.438 184.204 Q125.008 184.126 124.548 183.966 L124.548 183.119 Q124.913 183.332 125.347 183.44 Q125.781 183.549 126.254 183.549 Q127.079 183.549 127.508 183.223 Q127.942 182.898 127.942 182.277 Q127.942 181.704 127.539 181.383 Q127.139 181.058 126.423 181.058 L125.668 181.058 L125.668 180.337 L126.458 180.337 Q127.105 180.337 127.447 180.081 Q127.79 179.821 127.79 179.335 Q127.79 178.835 127.434 178.571 Q127.083 178.302 126.423 178.302 Q126.063 178.302 125.651 178.38 Q125.238 178.458 124.743 178.623 L124.743 177.842 Q125.243 177.703 125.677 177.633 Q126.115 177.564 126.501 177.564 Q127.5 177.564 128.081 178.02 Q128.663 178.471 128.663 179.243 Q128.663 179.782 128.355 180.155 Q128.046 180.524 127.478 180.667 Z" fill="#000000" fill-rule="evenodd" fill-opacity="1" /><path clip-path="url(#clip840)" d="M 0 0 M120.138 208.365 L121.571 208.365 L121.571 203.422 L120.013 203.734 L120.013 202.935 L121.562 202.623 L122.439 202.623 L122.439 208.365 L123.871 208.365 L123.871 209.103 L120.138 209.103 L120.138 208.365 Z" fill="#000000" fill-rule="evenodd" fill-opacity="1" /><path clip-path="url(#clip840)" d="M 0 0 M127.23 203.387 L125.017 206.846 L127.23 206.846 L127.23 203.387 M127 202.623 L128.103 202.623 L128.103 206.846 L129.027 206.846 L129.027 207.575 L128.103 207.575 L128.103 209.103 L127.23 209.103 L127.23 207.575 L124.305 207.575 L124.305 206.729 L127 202.623 Z" fill="#000000" fill-rule="evenodd" fill-opacity="1" /><path clip-path="url(#clip840)" d="M 0 0 M154.227 183.423 L155.659 183.423 L155.659 178.48 L154.101 178.792 L154.101 177.993 L155.65 177.681 L156.527 177.681 L156.527 183.423 L157.959 183.423 L157.959 184.161 L154.227 184.161 L154.227 183.423 Z" fill="#000000" fill-rule="evenodd" fill-opacity="1" /><path clip-path="url(#clip840)" d="M 0 0 M158.918 177.681 L162.36 177.681 L162.36 178.419 L159.721 178.419 L159.721 180.007 Q159.912 179.942 160.103 179.912 Q160.294 179.877 160.485 179.877 Q161.57 179.877 162.204 180.472 Q162.838 181.066 162.838 182.082 Q162.838 183.128 162.187 183.71 Q161.536 184.287 160.351 184.287 Q159.943 184.287 159.517 184.217 Q159.096 184.148 158.645 184.009 L158.645 183.128 Q159.036 183.341 159.452 183.445 Q159.869 183.549 160.333 183.549 Q161.084 183.549 161.523 183.154 Q161.961 182.759 161.961 182.082 Q161.961 181.405 161.523 181.01 Q161.084 180.615 160.333 180.615 Q159.982 180.615 159.63 180.693 Q159.283 180.771 158.918 180.936 L158.918 177.681 Z" fill="#000000" fill-rule="evenodd" fill-opacity="1" /><path clip-path="url(#clip840)" d="M 0 0 M154.227 208.365 L155.659 208.365 L155.659 203.422 L154.101 203.734 L154.101 202.935 L155.65 202.623 L156.527 202.623 L156.527 208.365 L157.959 208.365 L157.959 209.103 L154.227 209.103 L154.227 208.365 Z" fill="#000000" fill-rule="evenodd" fill-opacity="1" /><path clip-path="url(#clip840)" d="M 0 0 M160.893 205.514 Q160.303 205.514 159.956 205.917 Q159.613 206.321 159.613 207.024 Q159.613 207.723 159.956 208.131 Q160.303 208.534 160.893 208.534 Q161.484 208.534 161.826 208.131 Q162.174 207.723 162.174 207.024 Q162.174 206.321 161.826 205.917 Q161.484 205.514 160.893 205.514 M162.634 202.766 L162.634 203.565 Q162.304 203.409 161.965 203.326 Q161.631 203.244 161.301 203.244 Q160.433 203.244 159.973 203.83 Q159.517 204.415 159.452 205.6 Q159.708 205.223 160.095 205.023 Q160.481 204.819 160.945 204.819 Q161.922 204.819 162.486 205.414 Q163.055 206.004 163.055 207.024 Q163.055 208.022 162.464 208.626 Q161.874 209.229 160.893 209.229 Q159.769 209.229 159.175 208.369 Q158.58 207.506 158.58 205.869 Q158.58 204.333 159.309 203.422 Q160.038 202.506 161.267 202.506 Q161.596 202.506 161.931 202.571 Q162.269 202.636 162.634 202.766 Z" fill="#000000" fill-rule="evenodd" fill-opacity="1" /><path clip-path="url(#clip840)" d="M 0 0 M188.315 183.423 L189.747 183.423 L189.747 178.48 L188.189 178.792 L188.189 177.993 L189.738 177.681 L190.615 177.681 L190.615 183.423 L192.047 183.423 L192.047 184.161 L188.315 184.161 L188.315 183.423 Z" fill="#000000" fill-rule="evenodd" fill-opacity="1" /><path clip-path="url(#clip840)" d="M 0 0 M192.777 177.681 L196.943 177.681 L196.943 178.054 L194.591 184.161 L193.675 184.161 L195.889 178.419 L192.777 178.419 L192.777 177.681 Z" fill="#000000" fill-rule="evenodd" fill-opacity="1" /><path clip-path="url(#clip840)" d="M 0 0 M188.315 208.365 L189.747 208.365 L189.747 203.422 L188.189 203.734 L188.189 202.935 L189.738 202.623 L190.615 202.623 L190.615 208.365 L192.047 208.365 L192.047 209.103 L188.315 209.103 L188.315 208.365 Z" fill="#000000" fill-rule="evenodd" fill-opacity="1" /><path clip-path="url(#clip840)" d="M 0 0 M194.873 206.026 Q194.248 206.026 193.888 206.36 Q193.532 206.694 193.532 207.28 Q193.532 207.866 193.888 208.2 Q194.248 208.534 194.873 208.534 Q195.498 208.534 195.858 208.2 Q196.218 207.862 196.218 207.28 Q196.218 206.694 195.858 206.36 Q195.502 206.026 194.873 206.026 M193.996 205.652 Q193.432 205.514 193.115 205.127 Q192.803 204.741 192.803 204.185 Q192.803 203.409 193.354 202.957 Q193.909 202.506 194.873 202.506 Q195.841 202.506 196.392 202.957 Q196.943 203.409 196.943 204.185 Q196.943 204.741 196.626 205.127 Q196.314 205.514 195.754 205.652 Q196.388 205.8 196.739 206.23 Q197.095 206.659 197.095 207.28 Q197.095 208.222 196.518 208.725 Q195.945 209.229 194.873 209.229 Q193.801 209.229 193.224 208.725 Q192.651 208.222 192.651 207.28 Q192.651 206.659 193.007 206.23 Q193.363 205.8 193.996 205.652 M193.675 204.268 Q193.675 204.771 193.988 205.053 Q194.304 205.336 194.873 205.336 Q195.437 205.336 195.754 205.053 Q196.075 204.771 196.075 204.268 Q196.075 203.764 195.754 203.482 Q195.437 203.2 194.873 203.2 Q194.304 203.2 193.988 203.482 Q193.675 203.764 193.675 204.268 Z" fill="#000000" fill-rule="evenodd" fill-opacity="1" /><circle clip-path="url(#clip842)" cx="171.145" cy="148.692" r="3" fill="#0000ff" fill-rule="evenodd" fill-opacity="1" stroke="none"/>
<circle clip-path="url(#clip842)" cx="171.145" cy="173.634" r="3" fill="#0000ff" fill-rule="evenodd" fill-opacity="1" stroke="none"/>
<circle clip-path="url(#clip842)" cx="137.057" cy="73.866" r="3" fill="#0000ff" fill-rule="evenodd" fill-opacity="1" stroke="none"/>
<circle clip-path="url(#clip842)" cx="137.057" cy="98.808" r="3" fill="#0000ff" fill-rule="evenodd" fill-opacity="1" stroke="none"/>
<circle clip-path="url(#clip842)" cx="171.145" cy="73.866" r="3" fill="#0000ff" fill-rule="evenodd" fill-opacity="1" stroke="none"/>
<circle clip-path="url(#clip842)" cx="171.145" cy="98.808" r="3" fill="#0000ff" fill-rule="evenodd" fill-opacity="1" stroke="none"/>
<circle clip-path="url(#clip842)" cx="137.057" cy="23.9821" r="3" fill="#0000ff" fill-rule="evenodd" fill-opacity="1" stroke="none"/>
<circle clip-path="url(#clip842)" cx="120.013" cy="36.453" r="3" fill="#0000ff" fill-rule="evenodd" fill-opacity="1" stroke="none"/>
<circle clip-path="url(#clip842)" cx="120.013" cy="61.395" r="3" fill="#0000ff" fill-rule="evenodd" fill-opacity="1" stroke="none"/>
<circle clip-path="url(#clip842)" cx="154.101" cy="36.453" r="3" fill="#0000ff" fill-rule="evenodd" fill-opacity="1" stroke="none"/>
<circle clip-path="url(#clip842)" cx="154.101" cy="61.395" r="3" fill="#0000ff" fill-rule="evenodd" fill-opacity="1" stroke="none"/>
<circle clip-path="url(#clip842)" cx="188.189" cy="36.453" r="3" fill="#0000ff" fill-rule="evenodd" fill-opacity="1" stroke="none"/>
<circle clip-path="url(#clip842)" cx="188.189" cy="61.395" r="3" fill="#0000ff" fill-rule="evenodd" fill-opacity="1" stroke="none"/>
<circle clip-path="url(#clip842)" cx="120.013" cy="111.279" r="3" fill="#0000ff" fill-rule="evenodd" fill-opacity="1" stroke="none"/>
<circle clip-path="url(#clip842)" cx="120.013" cy="136.221" r="3" fill="#0000ff" fill-rule="evenodd" fill-opacity="1" stroke="none"/>
<circle clip-path="url(#clip842)" cx="154.101" cy="111.279" r="3" fill="#0000ff" fill-rule="evenodd" fill-opacity="1" stroke="none"/>
<circle clip-path="url(#clip842)" cx="154.101" cy="136.221" r="3" fill="#0000ff" fill-rule="evenodd" fill-opacity="1" stroke="none"/>
<circle clip-path="url(#clip842)" cx="188.189" cy="111.279" r="3" fill="#0000ff" fill-rule="evenodd" fill-opacity="1" stroke="none"/>
<circle clip-path="url(#clip842)" cx="188.189" cy="136.221" r="3" fill="#0000ff" fill-rule="evenodd" fill-opacity="1" stroke="none"/>
<path clip-path="url(#clip840)" d="M 0 0 M171.271 146.01 L172.703 146.01 L172.703 141.067 L171.145 141.379 L171.145 140.58 L172.694 140.268 L173.571 140.268 L173.571 146.01 L175.003 146.01 L175.003 146.748 L171.271 146.748 L171.271 146.01 Z" fill="#000000" fill-rule="evenodd" fill-opacity="1" /><path clip-path="url(#clip840)" d="M 0 0 M172.2 170.952 L175.259 170.952 L175.259 171.69 L171.145 171.69 L171.145 170.952 Q171.644 170.436 172.503 169.568 Q173.367 168.695 173.588 168.443 Q174.009 167.97 174.174 167.645 Q174.344 167.315 174.344 166.998 Q174.344 166.482 173.979 166.156 Q173.619 165.831 173.037 165.831 Q172.625 165.831 172.165 165.974 Q171.709 166.117 171.188 166.408 L171.188 165.522 Q171.718 165.31 172.178 165.201 Q172.638 165.093 173.02 165.093 Q174.027 165.093 174.626 165.596 Q175.225 166.1 175.225 166.942 Q175.225 167.341 175.073 167.701 Q174.925 168.057 174.53 168.543 Q174.422 168.669 173.84 169.272 Q173.259 169.871 172.2 170.952 Z" fill="#000000" fill-rule="evenodd" fill-opacity="1" /><path clip-path="url(#clip840)" d="M 0 0 M137.33 65.442 L140.772 65.442 L140.772 66.1799 L138.133 66.1799 L138.133 67.7684 Q138.324 67.7033 138.515 67.6729 Q138.706 67.6382 138.897 67.6382 Q139.982 67.6382 140.616 68.2328 Q141.249 68.8274 141.249 69.843 Q141.249 70.889 140.598 71.4706 Q139.947 72.0479 138.762 72.0479 Q138.354 72.0479 137.929 71.9785 Q137.508 71.909 137.057 71.7701 L137.057 70.889 Q137.447 71.1017 137.864 71.2059 Q138.281 71.3101 138.745 71.3101 Q139.496 71.3101 139.934 70.9151 Q140.373 70.5201 140.373 69.843 Q140.373 69.166 139.934 68.771 Q139.496 68.376 138.745 68.376 Q138.393 68.376 138.042 68.4542 Q137.695 68.5323 137.33 68.6972 L137.33 65.442 Z" fill="#000000" fill-rule="evenodd" fill-opacity="1" /><path clip-path="url(#clip840)" d="M 0 0 M139.37 93.2746 Q138.78 93.2746 138.433 93.6783 Q138.09 94.0819 138.09 94.785 Q138.09 95.4838 138.433 95.8918 Q138.78 96.2954 139.37 96.2954 Q139.96 96.2954 140.303 95.8918 Q140.65 95.4838 140.65 94.785 Q140.65 94.0819 140.303 93.6783 Q139.96 93.2746 139.37 93.2746 M141.11 90.5272 L141.11 91.3258 Q140.781 91.1696 140.442 91.0871 Q140.108 91.0047 139.778 91.0047 Q138.91 91.0047 138.45 91.5906 Q137.994 92.1765 137.929 93.3614 Q138.185 92.9838 138.571 92.7842 Q138.958 92.5802 139.422 92.5802 Q140.399 92.5802 140.963 93.1748 Q141.531 93.7651 141.531 94.785 Q141.531 95.7833 140.941 96.3866 Q140.351 96.9899 139.37 96.9899 Q138.246 96.9899 137.651 96.1305 Q137.057 95.2668 137.057 93.6305 Q137.057 92.0941 137.786 91.1826 Q138.515 90.2668 139.743 90.2668 Q140.073 90.2668 140.407 90.3319 Q140.746 90.397 141.11 90.5272 Z" fill="#000000" fill-rule="evenodd" fill-opacity="1" /><path clip-path="url(#clip840)" d="M 0 0 M171.145 65.442 L175.312 65.442 L175.312 65.8153 L172.959 71.922 L172.043 71.922 L174.257 66.1799 L171.145 66.1799 L171.145 65.442 Z" fill="#000000" fill-rule="evenodd" fill-opacity="1" /><path clip-path="url(#clip840)" d="M 0 0 M173.367 93.7868 Q172.742 93.7868 172.382 94.121 Q172.026 94.4552 172.026 95.0411 Q172.026 95.627 172.382 95.9612 Q172.742 96.2954 173.367 96.2954 Q173.992 96.2954 174.352 95.9612 Q174.713 95.6227 174.713 95.0411 Q174.713 94.4552 174.352 94.121 Q173.996 93.7868 173.367 93.7868 M172.49 93.4135 Q171.926 93.2746 171.609 92.8883 Q171.297 92.5021 171.297 91.9465 Q171.297 91.1696 171.848 90.7182 Q172.404 90.2668 173.367 90.2668 Q174.335 90.2668 174.886 90.7182 Q175.437 91.1696 175.437 91.9465 Q175.437 92.5021 175.121 92.8883 Q174.808 93.2746 174.248 93.4135 Q174.882 93.5611 175.233 93.9908 Q175.589 94.4205 175.589 95.0411 Q175.589 95.9829 175.012 96.4864 Q174.439 96.9899 173.367 96.9899 Q172.295 96.9899 171.718 96.4864 Q171.145 95.9829 171.145 95.0411 Q171.145 94.4205 171.501 93.9908 Q171.857 93.5611 172.49 93.4135 M172.169 92.029 Q172.169 92.5324 172.482 92.8146 Q172.799 93.0967 173.367 93.0967 Q173.931 93.0967 174.248 92.8146 Q174.569 92.5324 174.569 92.029 Q174.569 91.5255 174.248 91.2434 Q173.931 90.9613 173.367 90.9613 Q172.799 90.9613 172.482 91.2434 Q172.169 91.5255 172.169 92.029 Z" fill="#000000" fill-rule="evenodd" fill-opacity="1" /><path clip-path="url(#clip840)" d="M 0 0 M137.183 21.3002 L138.615 21.3002 L138.615 16.3567 L137.057 16.6692 L137.057 15.8706 L138.606 15.5581 L139.483 15.5581 L139.483 21.3002 L140.915 21.3002 L140.915 22.0381 L137.183 22.0381 L137.183 21.3002 Z" fill="#000000" fill-rule="evenodd" fill-opacity="1" /><path clip-path="url(#clip840)" d="M 0 0 M142.621 21.3002 L145.681 21.3002 L145.681 22.0381 L141.566 22.0381 L141.566 21.3002 Q142.065 20.7837 142.925 19.9157 Q143.788 19.0433 144.01 18.7915 Q144.431 18.3185 144.596 17.9929 Q144.765 17.6631 144.765 17.3462 Q144.765 16.8297 144.4 16.5042 Q144.04 16.1787 143.459 16.1787 Q143.046 16.1787 142.586 16.3219 Q142.13 16.4652 141.61 16.756 L141.61 15.8706 Q142.139 15.6579 142.599 15.5494 Q143.059 15.4409 143.441 15.4409 Q144.448 15.4409 145.047 15.9443 Q145.646 16.4478 145.646 17.2898 Q145.646 17.6891 145.494 18.0494 Q145.347 18.4053 144.952 18.8914 Q144.843 19.0172 144.262 19.6205 Q143.68 20.2195 142.621 21.3002 Z" fill="#000000" fill-rule="evenodd" fill-opacity="1" /><path clip-path="url(#clip840)" d="M 0 0 M120.138 33.7712 L121.571 33.7712 L121.571 28.8277 L120.013 29.1402 L120.013 28.3415 L121.562 28.029 L122.439 28.029 L122.439 33.7712 L123.871 33.7712 L123.871 34.509 L120.138 34.509 L120.138 33.7712 Z" fill="#000000" fill-rule="evenodd" fill-opacity="1" /><path clip-path="url(#clip840)" d="M 0 0 M127.478 31.0151 Q128.107 31.1497 128.459 31.575 Q128.815 32.0004 128.815 32.6254 Q128.815 33.5846 128.155 34.1097 Q127.495 34.6349 126.28 34.6349 Q125.872 34.6349 125.438 34.5525 Q125.008 34.4743 124.548 34.3137 L124.548 33.4674 Q124.913 33.6801 125.347 33.7886 Q125.781 33.8971 126.254 33.8971 Q127.079 33.8971 127.508 33.5716 Q127.942 33.246 127.942 32.6254 Q127.942 32.0525 127.539 31.7313 Q127.139 31.4058 126.423 31.4058 L125.668 31.4058 L125.668 30.6853 L126.458 30.6853 Q127.105 30.6853 127.447 30.4292 Q127.79 30.1688 127.79 29.6827 Q127.79 29.1836 127.434 28.9188 Q127.083 28.6497 126.423 28.6497 Q126.063 28.6497 125.651 28.7278 Q125.238 28.806 124.743 28.9709 L124.743 28.1896 Q125.243 28.0507 125.677 27.9813 Q126.115 27.9119 126.501 27.9119 Q127.5 27.9119 128.081 28.3676 Q128.663 28.819 128.663 29.5915 Q128.663 30.1297 128.355 30.503 Q128.046 30.8719 127.478 31.0151 Z" fill="#000000" fill-rule="evenodd" fill-opacity="1" /><path clip-path="url(#clip840)" d="M 0 0 M120.138 58.7132 L121.571 58.7132 L121.571 53.7696 L120.013 54.0821 L120.013 53.2835 L121.562 52.971 L122.439 52.971 L122.439 58.7132 L123.871 58.7132 L123.871 59.451 L120.138 59.451 L120.138 58.7132 Z" fill="#000000" fill-rule="evenodd" fill-opacity="1" /><path clip-path="url(#clip840)" d="M 0 0 M127.23 53.7349 L125.017 57.1941 L127.23 57.1941 L127.23 53.7349 M127 52.971 L128.103 52.971 L128.103 57.1941 L129.027 57.1941 L129.027 57.9233 L128.103 57.9233 L128.103 59.451 L127.23 59.451 L127.23 57.9233 L124.305 57.9233 L124.305 57.0769 L127 52.971 Z" fill="#000000" fill-rule="evenodd" fill-opacity="1" /><path clip-path="url(#clip840)" d="M 0 0 M154.227 33.7712 L155.659 33.7712 L155.659 28.8277 L154.101 29.1402 L154.101 28.3415 L155.65 28.029 L156.527 28.029 L156.527 33.7712 L157.959 33.7712 L157.959 34.509 L154.227 34.509 L154.227 33.7712 Z" fill="#000000" fill-rule="evenodd" fill-opacity="1" /><path clip-path="url(#clip840)" d="M 0 0 M158.918 28.029 L162.36 28.029 L162.36 28.7669 L159.721 28.7669 L159.721 30.3554 Q159.912 30.2903 160.103 30.2599 Q160.294 30.2252 160.485 30.2252 Q161.57 30.2252 162.204 30.8198 Q162.838 31.4144 162.838 32.4301 Q162.838 33.4761 162.187 34.0577 Q161.536 34.6349 160.351 34.6349 Q159.943 34.6349 159.517 34.5655 Q159.096 34.496 158.645 34.3571 L158.645 33.4761 Q159.036 33.6887 159.452 33.7929 Q159.869 33.8971 160.333 33.8971 Q161.084 33.8971 161.523 33.5021 Q161.961 33.1071 161.961 32.4301 Q161.961 31.753 161.523 31.358 Q161.084 30.9631 160.333 30.9631 Q159.982 30.9631 159.63 31.0412 Q159.283 31.1193 158.918 31.2842 L158.918 28.029 Z" fill="#000000" fill-rule="evenodd" fill-opacity="1" /><path clip-path="url(#clip840)" d="M 0 0 M154.227 58.7132 L155.659 58.7132 L155.659 53.7696 L154.101 54.0821 L154.101 53.2835 L155.65 52.971 L156.527 52.971 L156.527 58.7132 L157.959 58.7132 L157.959 59.451 L154.227 59.451 L154.227 58.7132 Z" fill="#000000" fill-rule="evenodd" fill-opacity="1" /><path clip-path="url(#clip840)" d="M 0 0 M160.893 55.8616 Q160.303 55.8616 159.956 56.2653 Q159.613 56.6689 159.613 57.3721 Q159.613 58.0708 159.956 58.4788 Q160.303 58.8825 160.893 58.8825 Q161.484 58.8825 161.826 58.4788 Q162.174 58.0708 162.174 57.3721 Q162.174 56.6689 161.826 56.2653 Q161.484 55.8616 160.893 55.8616 M162.634 53.1143 L162.634 53.9129 Q162.304 53.7566 161.965 53.6742 Q161.631 53.5917 161.301 53.5917 Q160.433 53.5917 159.973 54.1776 Q159.517 54.7636 159.452 55.9484 Q159.708 55.5708 160.095 55.3712 Q160.481 55.1672 160.945 55.1672 Q161.922 55.1672 162.486 55.7618 Q163.055 56.3521 163.055 57.3721 Q163.055 58.3703 162.464 58.9736 Q161.874 59.5769 160.893 59.5769 Q159.769 59.5769 159.175 58.7175 Q158.58 57.8538 158.58 56.2175 Q158.58 54.6811 159.309 53.7696 Q160.038 52.8538 161.267 52.8538 Q161.596 52.8538 161.931 52.919 Q162.269 52.9841 162.634 53.1143 Z" fill="#000000" fill-rule="evenodd" fill-opacity="1" /><path clip-path="url(#clip840)" d="M 0 0 M188.315 33.7712 L189.747 33.7712 L189.747 28.8277 L188.189 29.1402 L188.189 28.3415 L189.738 28.029 L190.615 28.029 L190.615 33.7712 L192.047 33.7712 L192.047 34.509 L188.315 34.509 L188.315 33.7712 Z" fill="#000000" fill-rule="evenodd" fill-opacity="1" /><path clip-path="url(#clip840)" d="M 0 0 M192.777 28.029 L196.943 28.029 L196.943 28.4023 L194.591 34.509 L193.675 34.509 L195.889 28.7669 L192.777 28.7669 L192.777 28.029 Z" fill="#000000" fill-rule="evenodd" fill-opacity="1" /><path clip-path="url(#clip840)" d="M 0 0 M188.315 58.7132 L189.747 58.7132 L189.747 53.7696 L188.189 54.0821 L188.189 53.2835 L189.738 52.971 L190.615 52.971 L190.615 58.7132 L192.047 58.7132 L192.047 59.451 L188.315 59.451 L188.315 58.7132 Z" fill="#000000" fill-rule="evenodd" fill-opacity="1" /><path clip-path="url(#clip840)" d="M 0 0 M194.873 56.3738 Q194.248 56.3738 193.888 56.708 Q193.532 57.0422 193.532 57.6281 Q193.532 58.2141 193.888 58.5483 Q194.248 58.8825 194.873 58.8825 Q195.498 58.8825 195.858 58.5483 Q196.218 58.2097 196.218 57.6281 Q196.218 57.0422 195.858 56.708 Q195.502 56.3738 194.873 56.3738 M193.996 56.0005 Q193.432 55.8616 193.115 55.4754 Q192.803 55.0891 192.803 54.5335 Q192.803 53.7566 193.354 53.3052 Q193.909 52.8538 194.873 52.8538 Q195.841 52.8538 196.392 53.3052 Q196.943 53.7566 196.943 54.5335 Q196.943 55.0891 196.626 55.4754 Q196.314 55.8616 195.754 56.0005 Q196.388 56.1481 196.739 56.5778 Q197.095 57.0075 197.095 57.6281 Q197.095 58.57 196.518 59.0734 Q195.945 59.5769 194.873 59.5769 Q193.801 59.5769 193.224 59.0734 Q192.651 58.57 192.651 57.6281 Q192.651 57.0075 193.007 56.5778 Q193.363 56.1481 193.996 56.0005 M193.675 54.616 Q193.675 55.1195 193.988 55.4016 Q194.304 55.6837 194.873 55.6837 Q195.437 55.6837 195.754 55.4016 Q196.075 55.1195 196.075 54.616 Q196.075 54.1125 195.754 53.8304 Q195.437 53.5483 194.873 53.5483 Q194.304 53.5483 193.988 53.8304 Q193.675 54.1125 193.675 54.616 Z" fill="#000000" fill-rule="evenodd" fill-opacity="1" /><path clip-path="url(#clip840)" d="M 0 0 M120.138 108.597 L121.571 108.597 L121.571 103.654 L120.013 103.966 L120.013 103.168 L121.562 102.855 L122.439 102.855 L122.439 108.597 L123.871 108.597 L123.871 109.335 L120.138 109.335 L120.138 108.597 Z" fill="#000000" fill-rule="evenodd" fill-opacity="1" /><path clip-path="url(#clip840)" d="M 0 0 M124.848 109.2 L124.848 108.402 Q125.178 108.558 125.516 108.641 Q125.855 108.723 126.18 108.723 Q127.048 108.723 127.504 108.141 Q127.964 107.556 128.029 106.366 Q127.777 106.74 127.391 106.939 Q127.005 107.139 126.536 107.139 Q125.564 107.139 124.995 106.553 Q124.431 105.963 124.431 104.943 Q124.431 103.944 125.021 103.341 Q125.612 102.738 126.592 102.738 Q127.717 102.738 128.307 103.602 Q128.901 104.461 128.901 106.102 Q128.901 107.634 128.172 108.549 Q127.447 109.461 126.219 109.461 Q125.889 109.461 125.551 109.396 Q125.212 109.331 124.848 109.2 M126.592 106.453 Q127.183 106.453 127.526 106.049 Q127.873 105.646 127.873 104.943 Q127.873 104.244 127.526 103.84 Q127.183 103.432 126.592 103.432 Q126.002 103.432 125.655 103.84 Q125.312 104.244 125.312 104.943 Q125.312 105.646 125.655 106.049 Q126.002 106.453 126.592 106.453 Z" fill="#000000" fill-rule="evenodd" fill-opacity="1" /><path clip-path="url(#clip840)" d="M 0 0 M121.067 133.539 L124.127 133.539 L124.127 134.277 L120.013 134.277 L120.013 133.539 Q120.512 133.023 121.371 132.155 Q122.235 131.282 122.456 131.03 Q122.877 130.557 123.042 130.232 Q123.211 129.902 123.211 129.585 Q123.211 129.069 122.847 128.743 Q122.487 128.418 121.905 128.418 Q121.493 128.418 121.033 128.561 Q120.577 128.704 120.056 128.995 L120.056 128.109 Q120.586 127.897 121.046 127.788 Q121.506 127.68 121.888 127.68 Q122.895 127.68 123.493 128.183 Q124.092 128.687 124.092 129.529 Q124.092 129.928 123.941 130.288 Q123.793 130.644 123.398 131.13 Q123.289 131.256 122.708 131.859 Q122.126 132.458 121.067 133.539 Z" fill="#000000" fill-rule="evenodd" fill-opacity="1" /><path clip-path="url(#clip840)" d="M 0 0 M126.953 128.374 Q126.276 128.374 125.933 129.043 Q125.594 129.707 125.594 131.044 Q125.594 132.376 125.933 133.044 Q126.276 133.708 126.953 133.708 Q127.634 133.708 127.973 133.044 Q128.316 132.376 128.316 131.044 Q128.316 129.707 127.973 129.043 Q127.634 128.374 126.953 128.374 M126.953 127.68 Q128.042 127.68 128.615 128.544 Q129.192 129.403 129.192 131.044 Q129.192 132.68 128.615 133.543 Q128.042 134.403 126.953 134.403 Q125.863 134.403 125.286 133.543 Q124.713 132.68 124.713 131.044 Q124.713 129.403 125.286 128.544 Q125.863 127.68 126.953 127.68 Z" fill="#000000" fill-rule="evenodd" fill-opacity="1" /><path clip-path="url(#clip840)" d="M 0 0 M155.155 108.597 L158.215 108.597 L158.215 109.335 L154.101 109.335 L154.101 108.597 Q154.6 108.081 155.459 107.213 Q156.323 106.34 156.544 106.088 Q156.965 105.615 157.13 105.29 Q157.3 104.96 157.3 104.643 Q157.3 104.127 156.935 103.801 Q156.575 103.476 155.993 103.476 Q155.581 103.476 155.121 103.619 Q154.665 103.762 154.144 104.053 L154.144 103.168 Q154.674 102.955 155.134 102.846 Q155.594 102.738 155.976 102.738 Q156.983 102.738 157.582 103.241 Q158.181 103.745 158.181 104.587 Q158.181 104.986 158.029 105.346 Q157.881 105.702 157.486 106.188 Q157.378 106.314 156.796 106.917 Q156.214 107.516 155.155 108.597 Z" fill="#000000" fill-rule="evenodd" fill-opacity="1" /><path clip-path="url(#clip840)" d="M 0 0 M159.318 108.597 L160.75 108.597 L160.75 103.654 L159.192 103.966 L159.192 103.168 L160.741 102.855 L161.618 102.855 L161.618 108.597 L163.05 108.597 L163.05 109.335 L159.318 109.335 L159.318 108.597 Z" fill="#000000" fill-rule="evenodd" fill-opacity="1" /><path clip-path="url(#clip840)" d="M 0 0 M155.155 133.539 L158.215 133.539 L158.215 134.277 L154.101 134.277 L154.101 133.539 Q154.6 133.023 155.459 132.155 Q156.323 131.282 156.544 131.03 Q156.965 130.557 157.13 130.232 Q157.3 129.902 157.3 129.585 Q157.3 129.069 156.935 128.743 Q156.575 128.418 155.993 128.418 Q155.581 128.418 155.121 128.561 Q154.665 128.704 154.144 128.995 L154.144 128.109 Q154.674 127.897 155.134 127.788 Q155.594 127.68 155.976 127.68 Q156.983 127.68 157.582 128.183 Q158.181 128.687 158.181 129.529 Q158.181 129.928 158.029 130.288 Q157.881 130.644 157.486 131.13 Q157.378 131.256 156.796 131.859 Q156.214 132.458 155.155 133.539 Z" fill="#000000" fill-rule="evenodd" fill-opacity="1" /><path clip-path="url(#clip840)" d="M 0 0 M159.921 133.539 L162.981 133.539 L162.981 134.277 L158.866 134.277 L158.866 133.539 Q159.366 133.023 160.225 132.155 Q161.089 131.282 161.31 131.03 Q161.731 130.557 161.896 130.232 Q162.065 129.902 162.065 129.585 Q162.065 129.069 161.701 128.743 Q161.34 128.418 160.759 128.418 Q160.346 128.418 159.886 128.561 Q159.431 128.704 158.91 128.995 L158.91 128.109 Q159.439 127.897 159.899 127.788 Q160.359 127.68 160.741 127.68 Q161.748 127.68 162.347 128.183 Q162.946 128.687 162.946 129.529 Q162.946 129.928 162.794 130.288 Q162.647 130.644 162.252 131.13 Q162.143 131.256 161.562 131.859 Q160.98 132.458 159.921 133.539 Z" fill="#000000" fill-rule="evenodd" fill-opacity="1" /><path clip-path="url(#clip840)" d="M 0 0 M189.244 108.597 L192.304 108.597 L192.304 109.335 L188.189 109.335 L188.189 108.597 Q188.688 108.081 189.547 107.213 Q190.411 106.34 190.633 106.088 Q191.054 105.615 191.218 105.29 Q191.388 104.96 191.388 104.643 Q191.388 104.127 191.023 103.801 Q190.663 103.476 190.081 103.476 Q189.669 103.476 189.209 103.619 Q188.753 103.762 188.232 104.053 L188.232 103.168 Q188.762 102.955 189.222 102.846 Q189.682 102.738 190.064 102.738 Q191.071 102.738 191.67 103.241 Q192.269 103.745 192.269 104.587 Q192.269 104.986 192.117 105.346 Q191.969 105.702 191.574 106.188 Q191.466 106.314 190.884 106.917 Q190.303 107.516 189.244 108.597 Z" fill="#000000" fill-rule="evenodd" fill-opacity="1" /><path clip-path="url(#clip840)" d="M 0 0 M195.91 105.841 Q196.54 105.976 196.891 106.401 Q197.247 106.826 197.247 107.451 Q197.247 108.411 196.587 108.936 Q195.928 109.461 194.712 109.461 Q194.304 109.461 193.87 109.378 Q193.441 109.3 192.981 109.14 L192.981 108.293 Q193.345 108.506 193.779 108.615 Q194.213 108.723 194.686 108.723 Q195.511 108.723 195.941 108.398 Q196.375 108.072 196.375 107.451 Q196.375 106.878 195.971 106.557 Q195.572 106.232 194.856 106.232 L194.1 106.232 L194.1 105.511 L194.89 105.511 Q195.537 105.511 195.88 105.255 Q196.223 104.995 196.223 104.509 Q196.223 104.01 195.867 103.745 Q195.515 103.476 194.856 103.476 Q194.495 103.476 194.083 103.554 Q193.671 103.632 193.176 103.797 L193.176 103.016 Q193.675 102.877 194.109 102.807 Q194.547 102.738 194.934 102.738 Q195.932 102.738 196.514 103.194 Q197.095 103.645 197.095 104.417 Q197.095 104.956 196.787 105.329 Q196.479 105.698 195.91 105.841 Z" fill="#000000" fill-rule="evenodd" fill-opacity="1" /><path clip-path="url(#clip840)" d="M 0 0 M189.244 133.539 L192.304 133.539 L192.304 134.277 L188.189 134.277 L188.189 133.539 Q188.688 133.023 189.547 132.155 Q190.411 131.282 190.633 131.03 Q191.054 130.557 191.218 130.232 Q191.388 129.902 191.388 129.585 Q191.388 129.069 191.023 128.743 Q190.663 128.418 190.081 128.418 Q189.669 128.418 189.209 128.561 Q188.753 128.704 188.232 128.995 L188.232 128.109 Q188.762 127.897 189.222 127.788 Q189.682 127.68 190.064 127.68 Q191.071 127.68 191.67 128.183 Q192.269 128.687 192.269 129.529 Q192.269 129.928 192.117 130.288 Q191.969 130.644 191.574 131.13 Q191.466 131.256 190.884 131.859 Q190.303 132.458 189.244 133.539 Z" fill="#000000" fill-rule="evenodd" fill-opacity="1" /><path clip-path="url(#clip840)" d="M 0 0 M195.663 128.561 L193.449 132.02 L195.663 132.02 L195.663 128.561 M195.433 127.797 L196.535 127.797 L196.535 132.02 L197.46 132.02 L197.46 132.749 L196.535 132.749 L196.535 134.277 L195.663 134.277 L195.663 132.749 L192.738 132.749 L192.738 131.903 L195.433 127.797 Z" fill="#000000" fill-rule="evenodd" fill-opacity="1" /><circle clip-path="url(#clip842)" cx="171.145" cy="23.9821" r="3" fill="#0000ff" fill-rule="evenodd" fill-opacity="1" stroke="none"/>
<path clip-path="url(#clip840)" d="M 0 0 M172.2 21.3002 L175.259 21.3002 L175.259 22.0381 L171.145 22.0381 L171.145 21.3002 Q171.644 20.7837 172.503 19.9157 Q173.367 19.0433 173.588 18.7915 Q174.009 18.3185 174.174 17.9929 Q174.344 17.6631 174.344 17.3462 Q174.344 16.8297 173.979 16.5042 Q173.619 16.1787 173.037 16.1787 Q172.625 16.1787 172.165 16.3219 Q171.709 16.4652 171.188 16.756 L171.188 15.8706 Q171.718 15.6579 172.178 15.5494 Q172.638 15.4409 173.02 15.4409 Q174.027 15.4409 174.626 15.9443 Q175.225 16.4478 175.225 17.2898 Q175.225 17.6891 175.073 18.0494 Q174.925 18.4053 174.53 18.8914 Q174.422 19.0172 173.84 19.6205 Q173.259 20.2195 172.2 21.3002 Z" fill="#000000" fill-rule="evenodd" fill-opacity="1" /></svg>
