<?xml version="1.0" encoding="utf-8"?>
<svg xmlns="http://www.w3.org/2000/svg" xmlns:xlink="http://www.w3.org/1999/xlink" width="50" height="62.5" viewBox="0 0 200 250">
<defs>
  <clipPath id="clip600">
    <rect x="0" y="0" width="200" height="250"/>
  </clipPath>
</defs>
<path clip-path="url(#clip600)" d="
M0 250 L200 250 L200 0 L0 0  Z
  " fill="#ffffff" fill-rule="evenodd" fill-opacity="1"/>
<defs>
  <clipPath id="clip601">
    <rect x="50" y="25" width="176" height="176"/>
  </clipPath>
</defs>
<path clip-path="url(#clip600)" d="
M17.748 231.752 L188.189 231.752 L188.189 15.748 L17.748 15.748  Z
  " fill="#ffffff" fill-rule="evenodd" fill-opacity="1"/>
<defs>
  <clipPath id="clip602">
    <rect x="17" y="15" width="171" height="217"/>
  </clipPath>
</defs>
<polyline clip-path="url(#clip600)" style="stroke:#000000; stroke-width:1; stroke-opacity:1; fill:none" points="
  17.748,231.752 188.189,231.752 
  "/>
<polyline clip-path="url(#clip600)" style="stroke:#000000; stroke-width:1; stroke-opacity:1; fill:none" points="
  34.7921,231.752 34.7921,229.16 
  "/>
<polyline clip-path="url(#clip600)" style="stroke:#000000; stroke-width:1; stroke-opacity:1; fill:none" points="
  68.8803,231.752 68.8803,229.16 
  "/>
<polyline clip-path="url(#clip600)" style="stroke:#000000; stroke-width:1; stroke-opacity:1; fill:none" points="
  102.969,231.752 102.969,229.16 
  "/>
<polyline clip-path="url(#clip600)" style="stroke:#000000; stroke-width:1; stroke-opacity:1; fill:none" points="
  137.057,231.752 137.057,229.16 
  "/>
<polyline clip-path="url(#clip600)" style="stroke:#000000; stroke-width:1; stroke-opacity:1; fill:none" points="
  171.145,231.752 171.145,229.16 
  "/>
<path clip-path="url(#clip600)" d="M 0 0 M27.9056 239.913 L35.3245 239.913 L35.3245 240.897 L27.9056 240.897 L27.9056 239.913 Z" fill="#000000" fill-rule="evenodd" fill-opacity="1" /><path clip-path="url(#clip600)" d="M 0 0 M37.5988 243.136 L41.6787 243.136 L41.6787 244.12 L36.1926 244.12 L36.1926 243.136 Q36.8581 242.448 38.0039 241.29 Q39.1555 240.127 39.4507 239.791 Q40.012 239.161 40.2319 238.726 Q40.4576 238.287 40.4576 237.864 Q40.4576 237.176 39.9715 236.742 Q39.4912 236.308 38.7157 236.308 Q38.166 236.308 37.5525 236.498 Q36.9449 236.689 36.2505 237.077 L36.2505 235.897 Q36.9565 235.613 37.5699 235.468 Q38.1833 235.324 38.6926 235.324 Q40.0352 235.324 40.8338 235.995 Q41.6324 236.666 41.6324 237.789 Q41.6324 238.321 41.4298 238.802 Q41.2331 239.276 40.7064 239.924 Q40.5618 240.092 39.7863 240.897 Q39.0109 241.695 37.5988 243.136 Z" fill="#000000" fill-rule="evenodd" fill-opacity="1" /><path clip-path="url(#clip600)" d="M 0 0 M61.9475 239.913 L69.3664 239.913 L69.3664 240.897 L61.9475 240.897 L61.9475 239.913 Z" fill="#000000" fill-rule="evenodd" fill-opacity="1" /><path clip-path="url(#clip600)" d="M 0 0 M70.8363 243.136 L72.746 243.136 L72.746 236.545 L70.6685 236.961 L70.6685 235.897 L72.7345 235.48 L73.9034 235.48 L73.9034 243.136 L75.8131 243.136 L75.8131 244.12 L70.8363 244.12 L70.8363 243.136 Z" fill="#000000" fill-rule="evenodd" fill-opacity="1" /><path clip-path="url(#clip600)" d="M 0 0 M102.969 236.25 Q102.066 236.25 101.609 237.141 Q101.157 238.026 101.157 239.809 Q101.157 241.585 101.609 242.476 Q102.066 243.362 102.969 243.362 Q103.877 243.362 104.328 242.476 Q104.786 241.585 104.786 239.809 Q104.786 238.026 104.328 237.141 Q103.877 236.25 102.969 236.25 M102.969 235.324 Q104.421 235.324 105.185 236.475 Q105.955 237.621 105.955 239.809 Q105.955 241.99 105.185 243.142 Q104.421 244.288 102.969 244.288 Q101.516 244.288 100.746 243.142 Q99.9824 241.99 99.9824 239.809 Q99.9824 237.621 100.746 236.475 Q101.516 235.324 102.969 235.324 Z" fill="#000000" fill-rule="evenodd" fill-opacity="1" /><path clip-path="url(#clip600)" d="M 0 0 M134.652 243.136 L136.562 243.136 L136.562 236.545 L134.484 236.961 L134.484 235.897 L136.55 235.48 L137.719 235.48 L137.719 243.136 L139.629 243.136 L139.629 244.12 L134.652 244.12 L134.652 243.136 Z" fill="#000000" fill-rule="evenodd" fill-opacity="1" /><path clip-path="url(#clip600)" d="M 0 0 M169.808 243.136 L173.888 243.136 L173.888 244.12 L168.402 244.12 L168.402 243.136 Q169.067 242.448 170.213 241.29 Q171.365 240.127 171.66 239.791 Q172.221 239.161 172.441 238.726 Q172.667 238.287 172.667 237.864 Q172.667 237.176 172.181 236.742 Q171.7 236.308 170.925 236.308 Q170.375 236.308 169.762 236.498 Q169.154 236.689 168.46 237.077 L168.46 235.897 Q169.166 235.613 169.779 235.468 Q170.393 235.324 170.902 235.324 Q172.244 235.324 173.043 235.995 Q173.842 236.666 173.842 237.789 Q173.842 238.321 173.639 238.802 Q173.442 239.276 172.916 239.924 Q172.771 240.092 171.996 240.897 Q171.22 241.695 169.808 243.136 Z" fill="#000000" fill-rule="evenodd" fill-opacity="1" /><polyline clip-path="url(#clip600)" style="stroke:#000000; stroke-width:1; stroke-opacity:1; fill:none" points="
  17.748,231.752 17.748,15.748 
  "/>
<polyline clip-path="url(#clip600)" style="stroke:#000000; stroke-width:1; stroke-opacity:1; fill:none" points="
  17.748,210.152 19.7933,210.152 
  "/>
<polyline clip-path="url(#clip600)" style="stroke:#000000; stroke-width:1; stroke-opacity:1; fill:none" points="
  17.748,166.951 19.7933,166.951 
  "/>
<polyline clip-path="url(#clip600)" style="stroke:#000000; stroke-width:1; stroke-opacity:1; fill:none" points="
  17.748,123.75 19.7933,123.75 
  "/>
<polyline clip-path="url(#clip600)" style="stroke:#000000; stroke-width:1; stroke-opacity:1; fill:none" points="
  17.748,80.5492 19.7933,80.5492 
  "/>
<polyline clip-path="url(#clip600)" style="stroke:#000000; stroke-width:1; stroke-opacity:1; fill:none" points="
  17.748,37.3484 19.7933,37.3484 
  "/>
<path clip-path="url(#clip600)" d="M 0 0 M0.224957 210.264 L7.6439 210.264 L7.6439 211.248 L0.224957 211.248 L0.224957 210.264 Z" fill="#000000" fill-rule="evenodd" fill-opacity="1" /><path clip-path="url(#clip600)" d="M 0 0 M9.91819 213.488 L13.998 213.488 L13.998 214.472 L8.51195 214.472 L8.51195 213.488 Q9.17746 212.799 10.3233 211.642 Q11.4749 210.479 11.77 210.143 Q12.3314 209.512 12.5513 209.078 Q12.777 208.638 12.777 208.216 Q12.777 207.527 12.2909 207.093 Q11.8105 206.659 11.0351 206.659 Q10.4853 206.659 9.8719 206.85 Q9.26426 207.041 8.56982 207.429 L8.56982 206.248 Q9.27583 205.965 9.88926 205.82 Q10.5027 205.675 11.0119 205.675 Q12.3545 205.675 13.1531 206.347 Q13.9517 207.018 13.9517 208.141 Q13.9517 208.673 13.7492 209.153 Q13.5524 209.628 13.0258 210.276 Q12.8811 210.444 12.1057 211.248 Q11.3302 212.047 9.91819 213.488 Z" fill="#000000" fill-rule="evenodd" fill-opacity="1" /><path clip-path="url(#clip600)" d="M 0 0 M0.132365 167.064 L7.55131 167.064 L7.55131 168.047 L0.132365 168.047 L0.132365 167.064 Z" fill="#000000" fill-rule="evenodd" fill-opacity="1" /><path clip-path="url(#clip600)" d="M 0 0 M9.02121 170.287 L10.9309 170.287 L10.9309 163.696 L8.85338 164.112 L8.85338 163.047 L10.9193 162.631 L12.0883 162.631 L12.0883 170.287 L13.998 170.287 L13.998 171.271 L9.02121 171.271 L9.02121 170.287 Z" fill="#000000" fill-rule="evenodd" fill-opacity="1" /><path clip-path="url(#clip600)" d="M 0 0 M11.0119 120.2 Q10.1092 120.2 9.65199 121.091 Q9.2006 121.976 9.2006 123.759 Q9.2006 125.535 9.65199 126.426 Q10.1092 127.312 11.0119 127.312 Q11.9205 127.312 12.3719 126.426 Q12.8291 125.535 12.8291 123.759 Q12.8291 121.976 12.3719 121.091 Q11.9205 120.2 11.0119 120.2 M11.0119 119.274 Q12.4645 119.274 13.2284 120.425 Q13.998 121.571 13.998 123.759 Q13.998 125.94 13.2284 127.092 Q12.4645 128.238 11.0119 128.238 Q9.5594 128.238 8.78973 127.092 Q8.02584 125.94 8.02584 123.759 Q8.02584 121.571 8.78973 120.425 Q9.5594 119.274 11.0119 119.274 Z" fill="#000000" fill-rule="evenodd" fill-opacity="1" /><path clip-path="url(#clip600)" d="M 0 0 M9.02121 83.8854 L10.9309 83.8854 L10.9309 77.294 L8.85338 77.7107 L8.85338 76.6459 L10.9193 76.2292 L12.0883 76.2292 L12.0883 83.8854 L13.998 83.8854 L13.998 84.8692 L9.02121 84.8692 L9.02121 83.8854 Z" fill="#000000" fill-rule="evenodd" fill-opacity="1" /><path clip-path="url(#clip600)" d="M 0 0 M9.91819 40.6846 L13.998 40.6846 L13.998 41.6684 L8.51195 41.6684 L8.51195 40.6846 Q9.17746 39.996 10.3233 38.8386 Q11.4749 37.6754 11.77 37.3397 Q12.3314 36.709 12.5513 36.2749 Q12.777 35.8351 12.777 35.4127 Q12.777 34.724 12.2909 34.29 Q11.8105 33.856 11.0351 33.856 Q10.4853 33.856 9.8719 34.0469 Q9.26426 34.2379 8.56982 34.6256 L8.56982 33.4451 Q9.27583 33.1615 9.88926 33.0169 Q10.5027 32.8722 11.0119 32.8722 Q12.3545 32.8722 13.1531 33.5435 Q13.9517 34.2148 13.9517 35.3374 Q13.9517 35.8698 13.7492 36.3502 Q13.5524 36.8247 13.0258 37.4728 Q12.8811 37.6407 12.1057 38.4451 Q11.3302 39.2437 9.91819 40.6846 Z" fill="#000000" fill-rule="evenodd" fill-opacity="1" /><path clip-path="url(#clip600)" d="M 0 0 M90.1503 1.36342 L92.604 1.36342 L92.604 2.19096 L91.2151 2.19096 L91.2151 11.1029 L92.604 11.1029 L92.604 11.9305 L90.1503 11.9305 L90.1503 1.36342 Z" fill="#000000" fill-rule="evenodd" fill-opacity="1" /><path clip-path="url(#clip600)" d="M 0 0 M94.0739 9.38421 L95.9836 9.38421 L95.9836 2.79281 L93.9061 3.20947 L93.9061 2.14466 L95.972 1.728 L97.141 1.728 L97.141 9.38421 L99.0507 9.38421 L99.0507 10.368 L94.0739 10.368 L94.0739 9.38421 Z" fill="#000000" fill-rule="evenodd" fill-opacity="1" /><path clip-path="url(#clip600)" d="M 0 0 M100.44 8.8981 L101.661 8.8981 L101.661 9.89347 L100.712 11.7453 L99.965 11.7453 L100.44 9.89347 L100.44 8.8981 Z" fill="#000000" fill-rule="evenodd" fill-opacity="1" /><path clip-path="url(#clip600)" d="M 0 0 M109.195 2.49767 Q108.293 2.49767 107.835 3.38887 Q107.384 4.27428 107.384 6.05668 Q107.384 7.83329 107.835 8.72449 Q108.293 9.6099 109.195 9.6099 Q110.104 9.6099 110.555 8.72449 Q111.012 7.83329 111.012 6.05668 Q111.012 4.27428 110.555 3.38887 Q110.104 2.49767 109.195 2.49767 M109.195 1.57175 Q110.648 1.57175 111.412 2.72337 Q112.181 3.86919 112.181 6.05668 Q112.181 8.23838 111.412 9.39 Q110.648 10.5358 109.195 10.5358 Q107.743 10.5358 106.973 9.39 Q106.209 8.23838 106.209 6.05668 Q106.209 3.86919 106.973 2.72337 Q107.743 1.57175 109.195 1.57175 Z" fill="#000000" fill-rule="evenodd" fill-opacity="1" /><path clip-path="url(#clip600)" d="M 0 0 M115.787 1.36342 L115.787 11.9305 L113.333 11.9305 L113.333 11.1029 L114.716 11.1029 L114.716 2.19096 L113.333 2.19096 L113.333 1.36342 L115.787 1.36342 Z" fill="#000000" fill-rule="evenodd" fill-opacity="1" /><circle clip-path="url(#clip602)" cx="34.7921" cy="223.518" r="3" fill="#0000ff" fill-rule="evenodd" fill-opacity="1" stroke="none"/>
<path clip-path="url(#clip600)" d="M 0 0 M34.918 220.836 L36.3503 220.836 L36.3503 215.893 L34.7921 216.205 L34.7921 215.406 L36.3416 215.094 L37.2183 215.094 L37.2183 220.836 L38.6506 220.836 L38.6506 221.574 L34.918 221.574 L34.918 220.836 Z" fill="#000000" fill-rule="evenodd" fill-opacity="1" /><path clip-path="url(#clip600)" d="M 0 0 M39.6098 215.094 L43.0516 215.094 L43.0516 215.832 L40.4128 215.832 L40.4128 217.42 Q40.6037 217.355 40.7947 217.325 Q40.9857 217.29 41.1766 217.29 Q42.2617 217.29 42.8954 217.885 Q43.5291 218.479 43.5291 219.495 Q43.5291 220.541 42.878 221.123 Q42.227 221.7 41.0421 221.7 Q40.6341 221.7 40.2088 221.63 Q39.7878 221.561 39.3364 221.422 L39.3364 220.541 Q39.727 220.754 40.1437 220.858 Q40.5603 220.962 41.0247 220.962 Q41.7756 220.962 42.214 220.567 Q42.6523 220.172 42.6523 219.495 Q42.6523 218.818 42.214 218.423 Q41.7756 218.028 41.0247 218.028 Q40.6732 218.028 40.3216 218.106 Q39.9744 218.184 39.6098 218.349 L39.6098 215.094 Z" fill="#000000" fill-rule="evenodd" fill-opacity="1" /><circle clip-path="url(#clip602)" cx="51.8362" cy="186.105" r="3" fill="#0000ff" fill-rule="evenodd" fill-opacity="1" stroke="none"/>
<circle clip-path="url(#clip602)" cx="51.8362" cy="211.047" r="3" fill="#0000ff" fill-rule="evenodd" fill-opacity="1" stroke="none"/>
<circle clip-path="url(#clip602)" cx="85.9244" cy="186.105" r="3" fill="#0000ff" fill-rule="evenodd" fill-opacity="1" stroke="none"/>
<circle clip-path="url(#clip602)" cx="85.9244" cy="211.047" r="3" fill="#0000ff" fill-rule="evenodd" fill-opacity="1" stroke="none"/>
<circle clip-path="url(#clip602)" cx="17.748" cy="111.279" r="3" fill="#0000ff" fill-rule="evenodd" fill-opacity="1" stroke="none"/>
<circle clip-path="url(#clip602)" cx="17.748" cy="136.221" r="3" fill="#0000ff" fill-rule="evenodd" fill-opacity="1" stroke="none"/>
<circle clip-path="url(#clip602)" cx="51.8362" cy="111.279" r="3" fill="#0000ff" fill-rule="evenodd" fill-opacity="1" stroke="none"/>
<circle clip-path="url(#clip602)" cx="51.8362" cy="136.221" r="3" fill="#0000ff" fill-rule="evenodd" fill-opacity="1" stroke="none"/>
<circle clip-path="url(#clip602)" cx="85.9244" cy="111.279" r="3" fill="#0000ff" fill-rule="evenodd" fill-opacity="1" stroke="none"/>
<circle clip-path="url(#clip602)" cx="85.9244" cy="136.221" r="3" fill="#0000ff" fill-rule="evenodd" fill-opacity="1" stroke="none"/>
<circle clip-path="url(#clip602)" cx="17.748" cy="186.105" r="3" fill="#0000ff" fill-rule="evenodd" fill-opacity="1" stroke="none"/>
<circle clip-path="url(#clip602)" cx="17.748" cy="211.047" r="3" fill="#0000ff" fill-rule="evenodd" fill-opacity="1" stroke="none"/>
<circle clip-path="url(#clip602)" cx="102.969" cy="148.692" r="3" fill="#0000ff" fill-rule="evenodd" fill-opacity="1" stroke="none"/>
<circle clip-path="url(#clip602)" cx="102.969" cy="173.634" r="3" fill="#0000ff" fill-rule="evenodd" fill-opacity="1" stroke="none"/>
<circle clip-path="url(#clip602)" cx="34.7921" cy="73.866" r="3" fill="#0000ff" fill-rule="evenodd" fill-opacity="1" stroke="none"/>
<circle clip-path="url(#clip602)" cx="34.7921" cy="98.808" r="3" fill="#0000ff" fill-rule="evenodd" fill-opacity="1" stroke="none"/>
<circle clip-path="url(#clip602)" cx="68.8803" cy="223.518" r="3" fill="#0000ff" fill-rule="evenodd" fill-opacity="1" stroke="none"/>
<circle clip-path="url(#clip602)" cx="102.969" cy="223.518" r="3" fill="#0000ff" fill-rule="evenodd" fill-opacity="1" stroke="none"/>
<circle clip-path="url(#clip602)" cx="34.7921" cy="148.692" r="3" fill="#0000ff" fill-rule="evenodd" fill-opacity="1" stroke="none"/>
<circle clip-path="url(#clip602)" cx="34.7921" cy="173.634" r="3" fill="#0000ff" fill-rule="evenodd" fill-opacity="1" stroke="none"/>
<circle clip-path="url(#clip602)" cx="68.8803" cy="148.692" r="3" fill="#0000ff" fill-rule="evenodd" fill-opacity="1" stroke="none"/>
<circle clip-path="url(#clip602)" cx="68.8803" cy="173.634" r="3" fill="#0000ff" fill-rule="evenodd" fill-opacity="1" stroke="none"/>
<path clip-path="url(#clip600)" d="M 0 0 M51.9621 183.423 L53.3944 183.423 L53.3944 178.48 L51.8362 178.792 L51.8362 177.993 L53.3857 177.681 L54.2624 177.681 L54.2624 183.423 L55.6947 183.423 L55.6947 184.161 L51.9621 184.161 L51.9621 183.423 Z" fill="#000000" fill-rule="evenodd" fill-opacity="1" /><path clip-path="url(#clip600)" d="M 0 0 M52.8909 208.365 L55.9508 208.365 L55.9508 209.103 L51.8362 209.103 L51.8362 208.365 Q52.3353 207.849 53.1947 206.981 Q54.0584 206.108 54.2798 205.856 Q54.7008 205.383 54.8657 205.058 Q55.035 204.728 55.035 204.411 Q55.035 203.895 54.6704 203.569 Q54.3102 203.244 53.7286 203.244 Q53.3162 203.244 52.8562 203.387 Q52.4005 203.53 51.8796 203.821 L51.8796 202.935 Q52.4091 202.723 52.8692 202.614 Q53.3293 202.506 53.7112 202.506 Q54.7181 202.506 55.3171 203.009 Q55.9161 203.513 55.9161 204.355 Q55.9161 204.754 55.7642 205.114 Q55.6166 205.47 55.2216 205.956 Q55.1131 206.082 54.5315 206.685 Q53.9499 207.284 52.8909 208.365 Z" fill="#000000" fill-rule="evenodd" fill-opacity="1" /><path clip-path="url(#clip600)" d="M 0 0 M88.8541 180.667 Q89.4834 180.802 89.835 181.227 Q90.1909 181.652 90.1909 182.277 Q90.1909 183.236 89.5312 183.762 Q88.8714 184.287 87.6562 184.287 Q87.2482 184.287 86.8142 184.204 Q86.3845 184.126 85.9244 183.966 L85.9244 183.119 Q86.289 183.332 86.723 183.44 Q87.157 183.549 87.6301 183.549 Q88.4548 183.549 88.8845 183.223 Q89.3185 182.898 89.3185 182.277 Q89.3185 181.704 88.9148 181.383 Q88.5155 181.058 87.7994 181.058 L87.0442 181.058 L87.0442 180.337 L87.8341 180.337 Q88.4808 180.337 88.8237 180.081 Q89.1666 179.821 89.1666 179.335 Q89.1666 178.835 88.8107 178.571 Q88.4591 178.302 87.7994 178.302 Q87.4392 178.302 87.0268 178.38 Q86.6145 178.458 86.1197 178.623 L86.1197 177.842 Q86.6189 177.703 87.0529 177.633 Q87.4912 177.564 87.8775 177.564 Q88.8758 177.564 89.4574 178.02 Q90.039 178.471 90.039 179.243 Q90.039 179.782 89.7308 180.155 Q89.4227 180.524 88.8541 180.667 Z" fill="#000000" fill-rule="evenodd" fill-opacity="1" /><path clip-path="url(#clip600)" d="M 0 0 M88.8497 203.387 L86.6362 206.846 L88.8497 206.846 L88.8497 203.387 M88.6197 202.623 L89.7221 202.623 L89.7221 206.846 L90.6466 206.846 L90.6466 207.575 L89.7221 207.575 L89.7221 209.103 L88.8497 209.103 L88.8497 207.575 L85.9244 207.575 L85.9244 206.729 L88.6197 202.623 Z" fill="#000000" fill-rule="evenodd" fill-opacity="1" /><path clip-path="url(#clip600)" d="M 0 0 M18.0215 102.855 L21.4633 102.855 L21.4633 103.593 L18.8244 103.593 L18.8244 105.181 Q19.0154 105.116 19.2064 105.086 Q19.3973 105.051 19.5883 105.051 Q20.6734 105.051 21.307 105.646 Q21.9407 106.24 21.9407 107.256 Q21.9407 108.302 21.2897 108.884 Q20.6386 109.461 19.4538 109.461 Q19.0458 109.461 18.6204 109.391 Q18.1994 109.322 17.748 109.183 L17.748 108.302 Q18.1387 108.515 18.5553 108.619 Q18.972 108.723 19.4364 108.723 Q20.1873 108.723 20.6256 108.328 Q21.064 107.933 21.064 107.256 Q21.064 106.579 20.6256 106.184 Q20.1873 105.789 19.4364 105.789 Q19.0848 105.789 18.7333 105.867 Q18.386 105.945 18.0215 106.11 L18.0215 102.855 Z" fill="#000000" fill-rule="evenodd" fill-opacity="1" /><path clip-path="url(#clip600)" d="M 0 0 M20.0614 130.688 Q19.4711 130.688 19.1239 131.091 Q18.781 131.495 18.781 132.198 Q18.781 132.897 19.1239 133.305 Q19.4711 133.708 20.0614 133.708 Q20.6517 133.708 20.9945 133.305 Q21.3418 132.897 21.3418 132.198 Q21.3418 131.495 20.9945 131.091 Q20.6517 130.688 20.0614 130.688 M21.8018 127.94 L21.8018 128.739 Q21.472 128.583 21.1334 128.5 Q20.7992 128.418 20.4694 128.418 Q19.6013 128.418 19.1413 129.004 Q18.6855 129.59 18.6204 130.774 Q18.8765 130.397 19.2628 130.197 Q19.6491 129.993 20.1135 129.993 Q21.09 129.993 21.6543 130.588 Q22.2228 131.178 22.2228 132.198 Q22.2228 133.196 21.6326 133.8 Q21.0423 134.403 20.0614 134.403 Q18.9373 134.403 18.3426 133.543 Q17.748 132.68 17.748 131.044 Q17.748 129.507 18.4772 128.596 Q19.2064 127.68 20.4346 127.68 Q20.7645 127.68 21.0987 127.745 Q21.4372 127.81 21.8018 127.94 Z" fill="#000000" fill-rule="evenodd" fill-opacity="1" /><path clip-path="url(#clip600)" d="M 0 0 M51.8362 102.855 L56.0029 102.855 L56.0029 103.228 L53.6504 109.335 L52.7347 109.335 L54.9482 103.593 L51.8362 103.593 L51.8362 102.855 Z" fill="#000000" fill-rule="evenodd" fill-opacity="1" /><path clip-path="url(#clip600)" d="M 0 0 M54.0584 131.2 Q53.4334 131.2 53.0732 131.534 Q52.7173 131.868 52.7173 132.454 Q52.7173 133.04 53.0732 133.374 Q53.4334 133.708 54.0584 133.708 Q54.6834 133.708 55.0437 133.374 Q55.4039 133.036 55.4039 132.454 Q55.4039 131.868 55.0437 131.534 Q54.6878 131.2 54.0584 131.2 M53.1817 130.826 Q52.6175 130.688 52.3006 130.301 Q51.9881 129.915 51.9881 129.359 Q51.9881 128.583 52.5393 128.131 Q53.0949 127.68 54.0584 127.68 Q55.0263 127.68 55.5775 128.131 Q56.1287 128.583 56.1287 129.359 Q56.1287 129.915 55.8119 130.301 Q55.4994 130.688 54.9395 130.826 Q55.5732 130.974 55.9247 131.404 Q56.2806 131.833 56.2806 132.454 Q56.2806 133.396 55.7034 133.899 Q55.1305 134.403 54.0584 134.403 Q52.9864 134.403 52.4091 133.899 Q51.8362 133.396 51.8362 132.454 Q51.8362 131.833 52.1921 131.404 Q52.548 130.974 53.1817 130.826 M52.8605 129.442 Q52.8605 129.945 53.173 130.228 Q53.4899 130.51 54.0584 130.51 Q54.6227 130.51 54.9395 130.228 Q55.2607 129.945 55.2607 129.442 Q55.2607 128.938 54.9395 128.656 Q54.6227 128.374 54.0584 128.374 Q53.4899 128.374 53.173 128.656 Q52.8605 128.938 52.8605 129.442 Z" fill="#000000" fill-rule="evenodd" fill-opacity="1" /><path clip-path="url(#clip600)" d="M 0 0 M86.3411 109.2 L86.3411 108.402 Q86.6709 108.558 87.0095 108.641 Q87.348 108.723 87.6735 108.723 Q88.5416 108.723 88.9973 108.141 Q89.4574 107.556 89.5225 106.366 Q89.2707 106.74 88.8845 106.939 Q88.4982 107.139 88.0294 107.139 Q87.0572 107.139 86.4886 106.553 Q85.9244 105.963 85.9244 104.943 Q85.9244 103.944 86.5147 103.341 Q87.105 102.738 88.0859 102.738 Q89.21 102.738 89.8003 103.602 Q90.3949 104.461 90.3949 106.102 Q90.3949 107.634 89.6657 108.549 Q88.9409 109.461 87.7126 109.461 Q87.3827 109.461 87.0442 109.396 Q86.7057 109.331 86.3411 109.2 M88.0859 106.453 Q88.6761 106.453 89.019 106.049 Q89.3662 105.646 89.3662 104.943 Q89.3662 104.244 89.019 103.84 Q88.6761 103.432 88.0859 103.432 Q87.4956 103.432 87.1484 103.84 Q86.8055 104.244 86.8055 104.943 Q86.8055 105.646 87.1484 106.049 Q87.4956 106.453 88.0859 106.453 Z" fill="#000000" fill-rule="evenodd" fill-opacity="1" /><path clip-path="url(#clip600)" d="M 0 0 M86.0503 133.539 L87.4826 133.539 L87.4826 128.596 L85.9244 128.908 L85.9244 128.109 L87.4739 127.797 L88.3506 127.797 L88.3506 133.539 L89.7829 133.539 L89.7829 134.277 L86.0503 134.277 L86.0503 133.539 Z" fill="#000000" fill-rule="evenodd" fill-opacity="1" /><path clip-path="url(#clip600)" d="M 0 0 M92.6084 128.374 Q91.9313 128.374 91.5884 129.043 Q91.2499 129.707 91.2499 131.044 Q91.2499 132.376 91.5884 133.044 Q91.9313 133.708 92.6084 133.708 Q93.2898 133.708 93.6284 133.044 Q93.9712 132.376 93.9712 131.044 Q93.9712 129.707 93.6284 129.043 Q93.2898 128.374 92.6084 128.374 M92.6084 127.68 Q93.6978 127.68 94.2707 128.544 Q94.848 129.403 94.848 131.044 Q94.848 132.68 94.2707 133.543 Q93.6978 134.403 92.6084 134.403 Q91.519 134.403 90.9417 133.543 Q90.3688 132.68 90.3688 131.044 Q90.3688 129.403 90.9417 128.544 Q91.519 127.68 92.6084 127.68 Z" fill="#000000" fill-rule="evenodd" fill-opacity="1" /><path clip-path="url(#clip600)" d="M 0 0 M17.8739 183.423 L19.3062 183.423 L19.3062 178.48 L17.748 178.792 L17.748 177.993 L19.2975 177.681 L20.1742 177.681 L20.1742 183.423 L21.6065 183.423 L21.6065 184.161 L17.8739 184.161 L17.8739 183.423 Z" fill="#000000" fill-rule="evenodd" fill-opacity="1" /><path clip-path="url(#clip600)" d="M 0 0 M22.7089 183.423 L24.1412 183.423 L24.1412 178.48 L22.5831 178.792 L22.5831 177.993 L24.1325 177.681 L25.0093 177.681 L25.0093 183.423 L26.4416 183.423 L26.4416 184.161 L22.7089 184.161 L22.7089 183.423 Z" fill="#000000" fill-rule="evenodd" fill-opacity="1" /><path clip-path="url(#clip600)" d="M 0 0 M17.8739 208.365 L19.3062 208.365 L19.3062 203.422 L17.748 203.734 L17.748 202.935 L19.2975 202.623 L20.1742 202.623 L20.1742 208.365 L21.6065 208.365 L21.6065 209.103 L17.8739 209.103 L17.8739 208.365 Z" fill="#000000" fill-rule="evenodd" fill-opacity="1" /><path clip-path="url(#clip600)" d="M 0 0 M23.3122 208.365 L26.3721 208.365 L26.3721 209.103 L22.2576 209.103 L22.2576 208.365 Q22.7567 207.849 23.6161 206.981 Q24.4798 206.108 24.7011 205.856 Q25.1221 205.383 25.2871 205.058 Q25.4563 204.728 25.4563 204.411 Q25.4563 203.895 25.0917 203.569 Q24.7315 203.244 24.1499 203.244 Q23.7376 203.244 23.2775 203.387 Q22.8218 203.53 22.301 203.821 L22.301 202.935 Q22.8305 202.723 23.2905 202.614 Q23.7506 202.506 24.1325 202.506 Q25.1395 202.506 25.7384 203.009 Q26.3374 203.513 26.3374 204.355 Q26.3374 204.754 26.1855 205.114 Q26.0379 205.47 25.643 205.956 Q25.5344 206.082 24.9529 206.685 Q24.3713 207.284 23.3122 208.365 Z" fill="#000000" fill-rule="evenodd" fill-opacity="1" /><path clip-path="url(#clip600)" d="M 0 0 M103.094 146.01 L104.527 146.01 L104.527 141.067 L102.969 141.379 L102.969 140.58 L104.518 140.268 L105.395 140.268 L105.395 146.01 L106.827 146.01 L106.827 146.748 L103.094 146.748 L103.094 146.01 Z" fill="#000000" fill-rule="evenodd" fill-opacity="1" /><path clip-path="url(#clip600)" d="M 0 0 M110.434 143.254 Q111.063 143.389 111.415 143.814 Q111.771 144.239 111.771 144.864 Q111.771 145.824 111.111 146.349 Q110.451 146.874 109.236 146.874 Q108.828 146.874 108.394 146.791 Q107.964 146.713 107.504 146.553 L107.504 145.706 Q107.869 145.919 108.303 146.028 Q108.737 146.136 109.21 146.136 Q110.034 146.136 110.464 145.81 Q110.898 145.485 110.898 144.864 Q110.898 144.291 110.495 143.97 Q110.095 143.645 109.379 143.645 L108.624 143.645 L108.624 142.924 L109.414 142.924 Q110.06 142.924 110.403 142.668 Q110.746 142.408 110.746 141.922 Q110.746 141.422 110.39 141.158 Q110.039 140.889 109.379 140.889 Q109.019 140.889 108.606 140.967 Q108.194 141.045 107.699 141.21 L107.699 140.429 Q108.199 140.29 108.633 140.22 Q109.071 140.151 109.457 140.151 Q110.455 140.151 111.037 140.607 Q111.619 141.058 111.619 141.83 Q111.619 142.369 111.31 142.742 Q111.002 143.111 110.434 143.254 Z" fill="#000000" fill-rule="evenodd" fill-opacity="1" /><path clip-path="url(#clip600)" d="M 0 0 M103.094 170.952 L104.527 170.952 L104.527 166.009 L102.969 166.321 L102.969 165.522 L104.518 165.21 L105.395 165.21 L105.395 170.952 L106.827 170.952 L106.827 171.69 L103.094 171.69 L103.094 170.952 Z" fill="#000000" fill-rule="evenodd" fill-opacity="1" /><path clip-path="url(#clip600)" d="M 0 0 M110.186 165.974 L107.973 169.433 L110.186 169.433 L110.186 165.974 M109.956 165.21 L111.059 165.21 L111.059 169.433 L111.983 169.433 L111.983 170.162 L111.059 170.162 L111.059 171.69 L110.186 171.69 L110.186 170.162 L107.261 170.162 L107.261 169.316 L109.956 165.21 Z" fill="#000000" fill-rule="evenodd" fill-opacity="1" /><path clip-path="url(#clip600)" d="M 0 0 M34.918 71.1842 L36.3503 71.1842 L36.3503 66.2406 L34.7921 66.5531 L34.7921 65.7545 L36.3416 65.442 L37.2183 65.442 L37.2183 71.1842 L38.6506 71.1842 L38.6506 71.922 L34.918 71.922 L34.918 71.1842 Z" fill="#000000" fill-rule="evenodd" fill-opacity="1" /><path clip-path="url(#clip600)" d="M 0 0 M39.6098 65.442 L43.0516 65.442 L43.0516 66.1799 L40.4128 66.1799 L40.4128 67.7684 Q40.6037 67.7033 40.7947 67.6729 Q40.9857 67.6382 41.1766 67.6382 Q42.2617 67.6382 42.8954 68.2328 Q43.5291 68.8274 43.5291 69.843 Q43.5291 70.889 42.878 71.4706 Q42.227 72.0479 41.0421 72.0479 Q40.6341 72.0479 40.2088 71.9785 Q39.7878 71.909 39.3364 71.7701 L39.3364 70.889 Q39.727 71.1017 40.1437 71.2059 Q40.5603 71.3101 41.0247 71.3101 Q41.7756 71.3101 42.214 70.9151 Q42.6523 70.5201 42.6523 69.843 Q42.6523 69.166 42.214 68.771 Q41.7756 68.376 41.0247 68.376 Q40.6732 68.376 40.3216 68.4542 Q39.9744 68.5323 39.6098 68.6972 L39.6098 65.442 Z" fill="#000000" fill-rule="evenodd" fill-opacity="1" /><path clip-path="url(#clip600)" d="M 0 0 M34.918 96.1262 L36.3503 96.1262 L36.3503 91.1826 L34.7921 91.4951 L34.7921 90.6965 L36.3416 90.384 L37.2183 90.384 L37.2183 96.1262 L38.6506 96.1262 L38.6506 96.864 L34.918 96.864 L34.918 96.1262 Z" fill="#000000" fill-rule="evenodd" fill-opacity="1" /><path clip-path="url(#clip600)" d="M 0 0 M41.5846 93.2746 Q40.9943 93.2746 40.6471 93.6783 Q40.3042 94.0819 40.3042 94.785 Q40.3042 95.4838 40.6471 95.8918 Q40.9943 96.2954 41.5846 96.2954 Q42.1749 96.2954 42.5178 95.8918 Q42.865 95.4838 42.865 94.785 Q42.865 94.0819 42.5178 93.6783 Q42.1749 93.2746 41.5846 93.2746 M43.3251 90.5272 L43.3251 91.3258 Q42.9952 91.1696 42.6567 91.0871 Q42.3225 91.0047 41.9926 91.0047 Q41.1246 91.0047 40.6645 91.5906 Q40.2088 92.1765 40.1437 93.3614 Q40.3997 92.9838 40.786 92.7842 Q41.1723 92.5802 41.6367 92.5802 Q42.6133 92.5802 43.1775 93.1748 Q43.7461 93.7651 43.7461 94.785 Q43.7461 95.7833 43.1558 96.3866 Q42.5655 96.9899 41.5846 96.9899 Q40.4605 96.9899 39.8659 96.1305 Q39.2713 95.2668 39.2713 93.6305 Q39.2713 92.0941 40.0004 91.1826 Q40.7296 90.2668 41.9579 90.2668 Q42.2877 90.2668 42.6219 90.3319 Q42.9605 90.397 43.3251 90.5272 Z" fill="#000000" fill-rule="evenodd" fill-opacity="1" /><path clip-path="url(#clip600)" d="M 0 0 M69.0062 220.836 L70.4385 220.836 L70.4385 215.893 L68.8803 216.205 L68.8803 215.406 L70.4298 215.094 L71.3065 215.094 L71.3065 220.836 L72.7388 220.836 L72.7388 221.574 L69.0062 221.574 L69.0062 220.836 Z" fill="#000000" fill-rule="evenodd" fill-opacity="1" /><path clip-path="url(#clip600)" d="M 0 0 M73.468 215.094 L77.6346 215.094 L77.6346 215.467 L75.2822 221.574 L74.3664 221.574 L76.5799 215.832 L73.468 215.832 L73.468 215.094 Z" fill="#000000" fill-rule="evenodd" fill-opacity="1" /><path clip-path="url(#clip600)" d="M 0 0 M103.094 220.836 L104.527 220.836 L104.527 215.893 L102.969 216.205 L102.969 215.406 L104.518 215.094 L105.395 215.094 L105.395 220.836 L106.827 220.836 L106.827 221.574 L103.094 221.574 L103.094 220.836 Z" fill="#000000" fill-rule="evenodd" fill-opacity="1" /><path clip-path="url(#clip600)" d="M 0 0 M107.804 221.439 L107.804 220.641 Q108.133 220.797 108.472 220.88 Q108.81 220.962 109.136 220.962 Q110.004 220.962 110.46 220.38 Q110.92 219.794 110.985 218.605 Q110.733 218.978 110.347 219.178 Q109.961 219.378 109.492 219.378 Q108.52 219.378 107.951 218.792 Q107.387 218.202 107.387 217.182 Q107.387 216.183 107.977 215.58 Q108.567 214.977 109.548 214.977 Q110.672 214.977 111.263 215.84 Q111.857 216.7 111.857 218.34 Q111.857 219.873 111.128 220.788 Q110.403 221.7 109.175 221.7 Q108.845 221.7 108.507 221.635 Q108.168 221.57 107.804 221.439 M109.548 218.692 Q110.139 218.692 110.481 218.288 Q110.829 217.885 110.829 217.182 Q110.829 216.483 110.481 216.079 Q110.139 215.671 109.548 215.671 Q108.958 215.671 108.611 216.079 Q108.268 216.483 108.268 217.182 Q108.268 217.885 108.611 218.288 Q108.958 218.692 109.548 218.692 Z" fill="#000000" fill-rule="evenodd" fill-opacity="1" /><path clip-path="url(#clip600)" d="M 0 0 M35.8468 146.01 L38.9067 146.01 L38.9067 146.748 L34.7921 146.748 L34.7921 146.01 Q35.2913 145.494 36.1506 144.626 Q37.0143 143.753 37.2357 143.501 Q37.6567 143.028 37.8216 142.703 Q37.9909 142.373 37.9909 142.056 Q37.9909 141.54 37.6263 141.214 Q37.2661 140.889 36.6845 140.889 Q36.2722 140.889 35.8121 141.032 Q35.3564 141.175 34.8355 141.466 L34.8355 140.58 Q35.365 140.368 35.8251 140.259 Q36.2852 140.151 36.6671 140.151 Q37.6741 140.151 38.273 140.654 Q38.872 141.158 38.872 142 Q38.872 142.399 38.7201 142.759 Q38.5725 143.115 38.1775 143.601 Q38.069 143.727 37.4874 144.33 Q36.9058 144.929 35.8468 146.01 Z" fill="#000000" fill-rule="evenodd" fill-opacity="1" /><path clip-path="url(#clip600)" d="M 0 0 M40.0091 146.01 L41.4414 146.01 L41.4414 141.067 L39.8832 141.379 L39.8832 140.58 L41.4327 140.268 L42.3094 140.268 L42.3094 146.01 L43.7417 146.01 L43.7417 146.748 L40.0091 146.748 L40.0091 146.01 Z" fill="#000000" fill-rule="evenodd" fill-opacity="1" /><path clip-path="url(#clip600)" d="M 0 0 M35.8468 170.952 L38.9067 170.952 L38.9067 171.69 L34.7921 171.69 L34.7921 170.952 Q35.2913 170.436 36.1506 169.568 Q37.0143 168.695 37.2357 168.443 Q37.6567 167.97 37.8216 167.645 Q37.9909 167.315 37.9909 166.998 Q37.9909 166.482 37.6263 166.156 Q37.2661 165.831 36.6845 165.831 Q36.2722 165.831 35.8121 165.974 Q35.3564 166.117 34.8355 166.408 L34.8355 165.522 Q35.365 165.31 35.8251 165.201 Q36.2852 165.093 36.6671 165.093 Q37.6741 165.093 38.273 165.596 Q38.872 166.1 38.872 166.942 Q38.872 167.341 38.7201 167.701 Q38.5725 168.057 38.1775 168.543 Q38.069 168.669 37.4874 169.272 Q36.9058 169.871 35.8468 170.952 Z" fill="#000000" fill-rule="evenodd" fill-opacity="1" /><path clip-path="url(#clip600)" d="M 0 0 M40.6124 170.952 L43.6723 170.952 L43.6723 171.69 L39.5577 171.69 L39.5577 170.952 Q40.0569 170.436 40.9162 169.568 Q41.7799 168.695 42.0013 168.443 Q42.4223 167.97 42.5872 167.645 Q42.7565 167.315 42.7565 166.998 Q42.7565 166.482 42.3919 166.156 Q42.0317 165.831 41.4501 165.831 Q41.0378 165.831 40.5777 165.974 Q40.122 166.117 39.6011 166.408 L39.6011 165.522 Q40.1306 165.31 40.5907 165.201 Q41.0508 165.093 41.4327 165.093 Q42.4397 165.093 43.0386 165.596 Q43.6376 166.1 43.6376 166.942 Q43.6376 167.341 43.4857 167.701 Q43.3381 168.057 42.9431 168.543 Q42.8346 168.669 42.253 169.272 Q41.6714 169.871 40.6124 170.952 Z" fill="#000000" fill-rule="evenodd" fill-opacity="1" /><path clip-path="url(#clip600)" d="M 0 0 M69.935 146.01 L72.9949 146.01 L72.9949 146.748 L68.8803 146.748 L68.8803 146.01 Q69.3794 145.494 70.2388 144.626 Q71.1025 143.753 71.3239 143.501 Q71.7449 143.028 71.9098 142.703 Q72.0791 142.373 72.0791 142.056 Q72.0791 141.54 71.7145 141.214 Q71.3543 140.889 70.7727 140.889 Q70.3603 140.889 69.9003 141.032 Q69.4445 141.175 68.9237 141.466 L68.9237 140.58 Q69.4532 140.368 69.9133 140.259 Q70.3734 140.151 70.7553 140.151 Q71.7622 140.151 72.3612 140.654 Q72.9602 141.158 72.9602 142 Q72.9602 142.399 72.8082 142.759 Q72.6607 143.115 72.2657 143.601 Q72.1572 143.727 71.5756 144.33 Q70.994 144.929 69.935 146.01 Z" fill="#000000" fill-rule="evenodd" fill-opacity="1" /><path clip-path="url(#clip600)" d="M 0 0 M76.6016 143.254 Q77.231 143.389 77.5825 143.814 Q77.9384 144.239 77.9384 144.864 Q77.9384 145.824 77.2787 146.349 Q76.619 146.874 75.4037 146.874 Q74.9957 146.874 74.5617 146.791 Q74.132 146.713 73.672 146.553 L73.672 145.706 Q74.0365 145.919 74.4706 146.028 Q74.9046 146.136 75.3777 146.136 Q76.2023 146.136 76.632 145.81 Q77.066 145.485 77.066 144.864 Q77.066 144.291 76.6624 143.97 Q76.2631 143.645 75.5469 143.645 L74.7917 143.645 L74.7917 142.924 L75.5817 142.924 Q76.2284 142.924 76.5712 142.668 Q76.9141 142.408 76.9141 141.922 Q76.9141 141.422 76.5582 141.158 Q76.2067 140.889 75.5469 140.889 Q75.1867 140.889 74.7744 140.967 Q74.3621 141.045 73.8673 141.21 L73.8673 140.429 Q74.3664 140.29 74.8004 140.22 Q75.2388 140.151 75.6251 140.151 Q76.6233 140.151 77.2049 140.607 Q77.7865 141.058 77.7865 141.83 Q77.7865 142.369 77.4784 142.742 Q77.1702 143.111 76.6016 143.254 Z" fill="#000000" fill-rule="evenodd" fill-opacity="1" /><path clip-path="url(#clip600)" d="M 0 0 M69.935 170.952 L72.9949 170.952 L72.9949 171.69 L68.8803 171.69 L68.8803 170.952 Q69.3794 170.436 70.2388 169.568 Q71.1025 168.695 71.3239 168.443 Q71.7449 167.97 71.9098 167.645 Q72.0791 167.315 72.0791 166.998 Q72.0791 166.482 71.7145 166.156 Q71.3543 165.831 70.7727 165.831 Q70.3603 165.831 69.9003 165.974 Q69.4445 166.117 68.9237 166.408 L68.9237 165.522 Q69.4532 165.31 69.9133 165.201 Q70.3734 165.093 70.7553 165.093 Q71.7622 165.093 72.3612 165.596 Q72.9602 166.1 72.9602 166.942 Q72.9602 167.341 72.8082 167.701 Q72.6607 168.057 72.2657 168.543 Q72.1572 168.669 71.5756 169.272 Q70.994 169.871 69.935 170.952 Z" fill="#000000" fill-rule="evenodd" fill-opacity="1" /><path clip-path="url(#clip600)" d="M 0 0 M76.3542 165.974 L74.1407 169.433 L76.3542 169.433 L76.3542 165.974 M76.1242 165.21 L77.2266 165.21 L77.2266 169.433 L78.1511 169.433 L78.1511 170.162 L77.2266 170.162 L77.2266 171.69 L76.3542 171.69 L76.3542 170.162 L73.4289 170.162 L73.4289 169.316 L76.1242 165.21 Z" fill="#000000" fill-rule="evenodd" fill-opacity="1" /><circle clip-path="url(#clip602)" cx="51.8362" cy="36.453" r="3" fill="#0000ff" fill-rule="evenodd" fill-opacity="1" stroke="none"/>
<circle clip-path="url(#clip602)" cx="51.8362" cy="61.395" r="3" fill="#0000ff" fill-rule="evenodd" fill-opacity="1" stroke="none"/>
<circle clip-path="url(#clip602)" cx="85.9244" cy="36.453" r="3" fill="#0000ff" fill-rule="evenodd" fill-opacity="1" stroke="none"/>
<circle clip-path="url(#clip602)" cx="85.9244" cy="61.395" r="3" fill="#0000ff" fill-rule="evenodd" fill-opacity="1" stroke="none"/>
<circle clip-path="url(#clip602)" cx="17.748" cy="36.453" r="3" fill="#0000ff" fill-rule="evenodd" fill-opacity="1" stroke="none"/>
<circle clip-path="url(#clip602)" cx="17.748" cy="61.395" r="3" fill="#0000ff" fill-rule="evenodd" fill-opacity="1" stroke="none"/>
<circle clip-path="url(#clip602)" cx="102.969" cy="23.9821" r="3" fill="#0000ff" fill-rule="evenodd" fill-opacity="1" stroke="none"/>
<circle clip-path="url(#clip602)" cx="68.8803" cy="73.866" r="3" fill="#0000ff" fill-rule="evenodd" fill-opacity="1" stroke="none"/>
<circle clip-path="url(#clip602)" cx="68.8803" cy="98.808" r="3" fill="#0000ff" fill-rule="evenodd" fill-opacity="1" stroke="none"/>
<circle clip-path="url(#clip602)" cx="102.969" cy="73.866" r="3" fill="#0000ff" fill-rule="evenodd" fill-opacity="1" stroke="none"/>
<circle clip-path="url(#clip602)" cx="102.969" cy="98.808" r="3" fill="#0000ff" fill-rule="evenodd" fill-opacity="1" stroke="none"/>
<circle clip-path="url(#clip602)" cx="34.7921" cy="23.9821" r="3" fill="#0000ff" fill-rule="evenodd" fill-opacity="1" stroke="none"/>
<circle clip-path="url(#clip602)" cx="68.8803" cy="23.9821" r="3" fill="#0000ff" fill-rule="evenodd" fill-opacity="1" stroke="none"/>
<path clip-path="url(#clip600)" d="M 0 0 M51.9621 33.7712 L53.3944 33.7712 L53.3944 28.8277 L51.8362 29.1402 L51.8362 28.3415 L53.3857 28.029 L54.2624 28.029 L54.2624 33.7712 L55.6947 33.7712 L55.6947 34.509 L51.9621 34.509 L51.9621 33.7712 Z" fill="#000000" fill-rule="evenodd" fill-opacity="1" /><path clip-path="url(#clip600)" d="M 0 0 M52.8909 58.7132 L55.9508 58.7132 L55.9508 59.451 L51.8362 59.451 L51.8362 58.7132 Q52.3353 58.1967 53.1947 57.3286 Q54.0584 56.4563 54.2798 56.2045 Q54.7008 55.7314 54.8657 55.4059 Q55.035 55.0761 55.035 54.7592 Q55.035 54.2427 54.6704 53.9172 Q54.3102 53.5917 53.7286 53.5917 Q53.3162 53.5917 52.8562 53.7349 Q52.4005 53.8781 51.8796 54.1689 L51.8796 53.2835 Q52.4091 53.0709 52.8692 52.9624 Q53.3293 52.8538 53.7112 52.8538 Q54.7181 52.8538 55.3171 53.3573 Q55.9161 53.8608 55.9161 54.7028 Q55.9161 55.1021 55.7642 55.4623 Q55.6166 55.8182 55.2216 56.3043 Q55.1131 56.4302 54.5315 57.0335 Q53.9499 57.6325 52.8909 58.7132 Z" fill="#000000" fill-rule="evenodd" fill-opacity="1" /><path clip-path="url(#clip600)" d="M 0 0 M88.8541 31.0151 Q89.4834 31.1497 89.835 31.575 Q90.1909 32.0004 90.1909 32.6254 Q90.1909 33.5846 89.5312 34.1097 Q88.8714 34.6349 87.6562 34.6349 Q87.2482 34.6349 86.8142 34.5525 Q86.3845 34.4743 85.9244 34.3137 L85.9244 33.4674 Q86.289 33.6801 86.723 33.7886 Q87.157 33.8971 87.6301 33.8971 Q88.4548 33.8971 88.8845 33.5716 Q89.3185 33.246 89.3185 32.6254 Q89.3185 32.0525 88.9148 31.7313 Q88.5155 31.4058 87.7994 31.4058 L87.0442 31.4058 L87.0442 30.6853 L87.8341 30.6853 Q88.4808 30.6853 88.8237 30.4292 Q89.1666 30.1688 89.1666 29.6827 Q89.1666 29.1836 88.8107 28.9188 Q88.4591 28.6497 87.7994 28.6497 Q87.4392 28.6497 87.0268 28.7278 Q86.6145 28.806 86.1197 28.9709 L86.1197 28.1896 Q86.6189 28.0507 87.0529 27.9813 Q87.4912 27.9119 87.8775 27.9119 Q88.8758 27.9119 89.4574 28.3676 Q90.039 28.819 90.039 29.5915 Q90.039 30.1297 89.7308 30.503 Q89.4227 30.8719 88.8541 31.0151 Z" fill="#000000" fill-rule="evenodd" fill-opacity="1" /><path clip-path="url(#clip600)" d="M 0 0 M88.8497 53.7349 L86.6362 57.1941 L88.8497 57.1941 L88.8497 53.7349 M88.6197 52.971 L89.7221 52.971 L89.7221 57.1941 L90.6466 57.1941 L90.6466 57.9233 L89.7221 57.9233 L89.7221 59.451 L88.8497 59.451 L88.8497 57.9233 L85.9244 57.9233 L85.9244 57.0769 L88.6197 52.971 Z" fill="#000000" fill-rule="evenodd" fill-opacity="1" /><path clip-path="url(#clip600)" d="M 0 0 M17.8739 33.7712 L19.3062 33.7712 L19.3062 28.8277 L17.748 29.1402 L17.748 28.3415 L19.2975 28.029 L20.1742 28.029 L20.1742 33.7712 L21.6065 33.7712 L21.6065 34.509 L17.8739 34.509 L17.8739 33.7712 Z" fill="#000000" fill-rule="evenodd" fill-opacity="1" /><path clip-path="url(#clip600)" d="M 0 0 M22.7089 33.7712 L24.1412 33.7712 L24.1412 28.8277 L22.5831 29.1402 L22.5831 28.3415 L24.1325 28.029 L25.0093 28.029 L25.0093 33.7712 L26.4416 33.7712 L26.4416 34.509 L22.7089 34.509 L22.7089 33.7712 Z" fill="#000000" fill-rule="evenodd" fill-opacity="1" /><path clip-path="url(#clip600)" d="M 0 0 M17.8739 58.7132 L19.3062 58.7132 L19.3062 53.7696 L17.748 54.0821 L17.748 53.2835 L19.2975 52.971 L20.1742 52.971 L20.1742 58.7132 L21.6065 58.7132 L21.6065 59.451 L17.8739 59.451 L17.8739 58.7132 Z" fill="#000000" fill-rule="evenodd" fill-opacity="1" /><path clip-path="url(#clip600)" d="M 0 0 M23.3122 58.7132 L26.3721 58.7132 L26.3721 59.451 L22.2576 59.451 L22.2576 58.7132 Q22.7567 58.1967 23.6161 57.3286 Q24.4798 56.4563 24.7011 56.2045 Q25.1221 55.7314 25.2871 55.4059 Q25.4563 55.0761 25.4563 54.7592 Q25.4563 54.2427 25.0917 53.9172 Q24.7315 53.5917 24.1499 53.5917 Q23.7376 53.5917 23.2775 53.7349 Q22.8218 53.8781 22.301 54.1689 L22.301 53.2835 Q22.8305 53.0709 23.2905 52.9624 Q23.7506 52.8538 24.1325 52.8538 Q25.1395 52.8538 25.7384 53.3573 Q26.3374 53.8608 26.3374 54.7028 Q26.3374 55.1021 26.1855 55.4623 Q26.0379 55.8182 25.643 56.3043 Q25.5344 56.4302 24.9529 57.0335 Q24.3713 57.6325 23.3122 58.7132 Z" fill="#000000" fill-rule="evenodd" fill-opacity="1" /><path clip-path="url(#clip600)" d="M 0 0 M103.094 21.3002 L104.527 21.3002 L104.527 16.3567 L102.969 16.6692 L102.969 15.8706 L104.518 15.5581 L105.395 15.5581 L105.395 21.3002 L106.827 21.3002 L106.827 22.0381 L103.094 22.0381 L103.094 21.3002 Z" fill="#000000" fill-rule="evenodd" fill-opacity="1" /><path clip-path="url(#clip600)" d="M 0 0 M110.186 16.3219 L107.973 19.7811 L110.186 19.7811 L110.186 16.3219 M109.956 15.5581 L111.059 15.5581 L111.059 19.7811 L111.983 19.7811 L111.983 20.5103 L111.059 20.5103 L111.059 22.0381 L110.186 22.0381 L110.186 20.5103 L107.261 20.5103 L107.261 19.6639 L109.956 15.5581 Z" fill="#000000" fill-rule="evenodd" fill-opacity="1" /><path clip-path="url(#clip600)" d="M 0 0 M69.0062 71.1842 L70.4385 71.1842 L70.4385 66.2406 L68.8803 66.5531 L68.8803 65.7545 L70.4298 65.442 L71.3065 65.442 L71.3065 71.1842 L72.7388 71.1842 L72.7388 71.922 L69.0062 71.922 L69.0062 71.1842 Z" fill="#000000" fill-rule="evenodd" fill-opacity="1" /><path clip-path="url(#clip600)" d="M 0 0 M73.468 65.442 L77.6346 65.442 L77.6346 65.8153 L75.2822 71.922 L74.3664 71.922 L76.5799 66.1799 L73.468 66.1799 L73.468 65.442 Z" fill="#000000" fill-rule="evenodd" fill-opacity="1" /><path clip-path="url(#clip600)" d="M 0 0 M69.0062 96.1262 L70.4385 96.1262 L70.4385 91.1826 L68.8803 91.4951 L68.8803 90.6965 L70.4298 90.384 L71.3065 90.384 L71.3065 96.1262 L72.7388 96.1262 L72.7388 96.864 L69.0062 96.864 L69.0062 96.1262 Z" fill="#000000" fill-rule="evenodd" fill-opacity="1" /><path clip-path="url(#clip600)" d="M 0 0 M75.5643 93.7868 Q74.9393 93.7868 74.5791 94.121 Q74.2232 94.4552 74.2232 95.0411 Q74.2232 95.627 74.5791 95.9612 Q74.9393 96.2954 75.5643 96.2954 Q76.1893 96.2954 76.5495 95.9612 Q76.9098 95.6227 76.9098 95.0411 Q76.9098 94.4552 76.5495 94.121 Q76.1936 93.7868 75.5643 93.7868 M74.6876 93.4135 Q74.1233 93.2746 73.8065 92.8883 Q73.494 92.5021 73.494 91.9465 Q73.494 91.1696 74.0452 90.7182 Q74.6008 90.2668 75.5643 90.2668 Q76.5322 90.2668 77.0834 90.7182 Q77.6346 91.1696 77.6346 91.9465 Q77.6346 92.5021 77.3178 92.8883 Q77.0053 93.2746 76.4454 93.4135 Q77.0791 93.5611 77.4306 93.9908 Q77.7865 94.4205 77.7865 95.0411 Q77.7865 95.9829 77.2093 96.4864 Q76.6363 96.9899 75.5643 96.9899 Q74.4923 96.9899 73.915 96.4864 Q73.3421 95.9829 73.3421 95.0411 Q73.3421 94.4205 73.698 93.9908 Q74.0539 93.5611 74.6876 93.4135 M74.3664 92.029 Q74.3664 92.5324 74.6789 92.8146 Q74.9957 93.0967 75.5643 93.0967 Q76.1285 93.0967 76.4454 92.8146 Q76.7666 92.5324 76.7666 92.029 Q76.7666 91.5255 76.4454 91.2434 Q76.1285 90.9613 75.5643 90.9613 Q74.9957 90.9613 74.6789 91.2434 Q74.3664 91.5255 74.3664 92.029 Z" fill="#000000" fill-rule="evenodd" fill-opacity="1" /><path clip-path="url(#clip600)" d="M 0 0 M103.094 71.1842 L104.527 71.1842 L104.527 66.2406 L102.969 66.5531 L102.969 65.7545 L104.518 65.442 L105.395 65.442 L105.395 71.1842 L106.827 71.1842 L106.827 71.922 L103.094 71.922 L103.094 71.1842 Z" fill="#000000" fill-rule="evenodd" fill-opacity="1" /><path clip-path="url(#clip600)" d="M 0 0 M107.804 71.7875 L107.804 70.9889 Q108.133 71.1451 108.472 71.2276 Q108.81 71.3101 109.136 71.3101 Q110.004 71.3101 110.46 70.7285 Q110.92 70.1425 110.985 68.9533 Q110.733 69.3266 110.347 69.5262 Q109.961 69.7259 109.492 69.7259 Q108.52 69.7259 107.951 69.1399 Q107.387 68.5496 107.387 67.5297 Q107.387 66.5314 107.977 65.9281 Q108.567 65.3248 109.548 65.3248 Q110.672 65.3248 111.263 66.1886 Q111.857 67.0479 111.857 68.6885 Q111.857 70.2206 111.128 71.1364 Q110.403 72.0479 109.175 72.0479 Q108.845 72.0479 108.507 71.9828 Q108.168 71.9177 107.804 71.7875 M109.548 69.0401 Q110.139 69.0401 110.481 68.6365 Q110.829 68.2328 110.829 67.5297 Q110.829 66.8309 110.481 66.4273 Q110.139 66.0193 109.548 66.0193 Q108.958 66.0193 108.611 66.4273 Q108.268 66.8309 108.268 67.5297 Q108.268 68.2328 108.611 68.6365 Q108.958 69.0401 109.548 69.0401 Z" fill="#000000" fill-rule="evenodd" fill-opacity="1" /><path clip-path="url(#clip600)" d="M 0 0 M104.023 96.1262 L107.083 96.1262 L107.083 96.864 L102.969 96.864 L102.969 96.1262 Q103.468 95.6097 104.327 94.7416 Q105.191 93.8692 105.412 93.6175 Q105.833 93.1444 105.998 92.8189 Q106.167 92.489 106.167 92.1722 Q106.167 91.6557 105.803 91.3302 Q105.442 91.0047 104.861 91.0047 Q104.449 91.0047 103.988 91.1479 Q103.533 91.2911 103.012 91.5819 L103.012 90.6965 Q103.541 90.4838 104.001 90.3753 Q104.462 90.2668 104.843 90.2668 Q105.85 90.2668 106.449 90.7703 Q107.048 91.2738 107.048 92.1158 Q107.048 92.5151 106.896 92.8753 Q106.749 93.2312 106.354 93.7173 Q106.245 93.8432 105.664 94.4465 Q105.082 95.0454 104.023 96.1262 Z" fill="#000000" fill-rule="evenodd" fill-opacity="1" /><path clip-path="url(#clip600)" d="M 0 0 M109.909 90.9613 Q109.231 90.9613 108.889 91.6297 Q108.55 92.2937 108.55 93.6305 Q108.55 94.963 108.889 95.6314 Q109.231 96.2954 109.909 96.2954 Q110.59 96.2954 110.929 95.6314 Q111.271 94.963 111.271 93.6305 Q111.271 92.2937 110.929 91.6297 Q110.59 90.9613 109.909 90.9613 M109.909 90.2668 Q110.998 90.2668 111.571 91.1305 Q112.148 91.9899 112.148 93.6305 Q112.148 95.2668 111.571 96.1305 Q110.998 96.9899 109.909 96.9899 Q108.819 96.9899 108.242 96.1305 Q107.669 95.2668 107.669 93.6305 Q107.669 91.9899 108.242 91.1305 Q108.819 90.2668 109.909 90.2668 Z" fill="#000000" fill-rule="evenodd" fill-opacity="1" /><path clip-path="url(#clip600)" d="M 0 0 M35.8468 21.3002 L38.9067 21.3002 L38.9067 22.0381 L34.7921 22.0381 L34.7921 21.3002 Q35.2913 20.7837 36.1506 19.9157 Q37.0143 19.0433 37.2357 18.7915 Q37.6567 18.3185 37.8216 17.9929 Q37.9909 17.6631 37.9909 17.3462 Q37.9909 16.8297 37.6263 16.5042 Q37.2661 16.1787 36.6845 16.1787 Q36.2722 16.1787 35.8121 16.3219 Q35.3564 16.4652 34.8355 16.756 L34.8355 15.8706 Q35.365 15.6579 35.8251 15.5494 Q36.2852 15.4409 36.6671 15.4409 Q37.6741 15.4409 38.273 15.9443 Q38.872 16.4478 38.872 17.2898 Q38.872 17.6891 38.7201 18.0494 Q38.5725 18.4053 38.1775 18.8914 Q38.069 19.0172 37.4874 19.6205 Q36.9058 20.2195 35.8468 21.3002 Z" fill="#000000" fill-rule="evenodd" fill-opacity="1" /><path clip-path="url(#clip600)" d="M 0 0 M40.6124 21.3002 L43.6723 21.3002 L43.6723 22.0381 L39.5577 22.0381 L39.5577 21.3002 Q40.0569 20.7837 40.9162 19.9157 Q41.7799 19.0433 42.0013 18.7915 Q42.4223 18.3185 42.5872 17.9929 Q42.7565 17.6631 42.7565 17.3462 Q42.7565 16.8297 42.3919 16.5042 Q42.0317 16.1787 41.4501 16.1787 Q41.0378 16.1787 40.5777 16.3219 Q40.122 16.4652 39.6011 16.756 L39.6011 15.8706 Q40.1306 15.6579 40.5907 15.5494 Q41.0508 15.4409 41.4327 15.4409 Q42.4397 15.4409 43.0386 15.9443 Q43.6376 16.4478 43.6376 17.2898 Q43.6376 17.6891 43.4857 18.0494 Q43.3381 18.4053 42.9431 18.8914 Q42.8346 19.0172 42.253 19.6205 Q41.6714 20.2195 40.6124 21.3002 Z" fill="#000000" fill-rule="evenodd" fill-opacity="1" /><path clip-path="url(#clip600)" d="M 0 0 M69.935 21.3002 L72.9949 21.3002 L72.9949 22.0381 L68.8803 22.0381 L68.8803 21.3002 Q69.3794 20.7837 70.2388 19.9157 Q71.1025 19.0433 71.3239 18.7915 Q71.7449 18.3185 71.9098 17.9929 Q72.0791 17.6631 72.0791 17.3462 Q72.0791 16.8297 71.7145 16.5042 Q71.3543 16.1787 70.7727 16.1787 Q70.3603 16.1787 69.9003 16.3219 Q69.4445 16.4652 68.9237 16.756 L68.9237 15.8706 Q69.4532 15.6579 69.9133 15.5494 Q70.3734 15.4409 70.7553 15.4409 Q71.7622 15.4409 72.3612 15.9443 Q72.9602 16.4478 72.9602 17.2898 Q72.9602 17.6891 72.8082 18.0494 Q72.6607 18.4053 72.2657 18.8914 Q72.1572 19.0172 71.5756 19.6205 Q70.994 20.2195 69.935 21.3002 Z" fill="#000000" fill-rule="evenodd" fill-opacity="1" /><path clip-path="url(#clip600)" d="M 0 0 M76.3542 16.3219 L74.1407 19.7811 L76.3542 19.7811 L76.3542 16.3219 M76.1242 15.5581 L77.2266 15.5581 L77.2266 19.7811 L78.1511 19.7811 L78.1511 20.5103 L77.2266 20.5103 L77.2266 22.0381 L76.3542 22.0381 L76.3542 20.5103 L73.4289 20.5103 L73.4289 19.6639 L76.1242 15.5581 Z" fill="#000000" fill-rule="evenodd" fill-opacity="1" /><circle clip-path="url(#clip602)" cx="120.013" cy="186.105" r="3" fill="#0000ff" fill-rule="evenodd" fill-opacity="1" stroke="none"/>
<circle clip-path="url(#clip602)" cx="120.013" cy="211.047" r="3" fill="#0000ff" fill-rule="evenodd" fill-opacity="1" stroke="none"/>
<circle clip-path="url(#clip602)" cx="154.101" cy="186.105" r="3" fill="#0000ff" fill-rule="evenodd" fill-opacity="1" stroke="none"/>
<circle clip-path="url(#clip602)" cx="154.101" cy="211.047" r="3" fill="#0000ff" fill-rule="evenodd" fill-opacity="1" stroke="none"/>
<circle clip-path="url(#clip602)" cx="188.189" cy="186.105" r="3" fill="#0000ff" fill-rule="evenodd" fill-opacity="1" stroke="none"/>
<circle clip-path="url(#clip602)" cx="188.189" cy="211.047" r="3" fill="#0000ff" fill-rule="evenodd" fill-opacity="1" stroke="none"/>
<circle clip-path="url(#clip602)" cx="137.057" cy="148.692" r="3" fill="#0000ff" fill-rule="evenodd" fill-opacity="1" stroke="none"/>
<circle clip-path="url(#clip602)" cx="137.057" cy="173.634" r="3" fill="#0000ff" fill-rule="evenodd" fill-opacity="1" stroke="none"/>
<circle clip-path="url(#clip602)" cx="137.057" cy="223.518" r="3" fill="#0000ff" fill-rule="evenodd" fill-opacity="1" stroke="none"/>
<circle clip-path="url(#clip602)" cx="171.145" cy="223.518" r="3" fill="#0000ff" fill-rule="evenodd" fill-opacity="1" stroke="none"/>
<path clip-path="url(#clip600)" d="M 0 0 M120.286 177.681 L123.728 177.681 L123.728 178.419 L121.089 178.419 L121.089 180.007 Q121.28 179.942 121.471 179.912 Q121.662 179.877 121.853 179.877 Q122.938 179.877 123.572 180.472 Q124.205 181.066 124.205 182.082 Q124.205 183.128 123.554 183.71 Q122.903 184.287 121.718 184.287 Q121.31 184.287 120.885 184.217 Q120.464 184.148 120.013 184.009 L120.013 183.128 Q120.403 183.341 120.82 183.445 Q121.237 183.549 121.701 183.549 Q122.452 183.549 122.89 183.154 Q123.329 182.759 123.329 182.082 Q123.329 181.405 122.89 181.01 Q122.452 180.615 121.701 180.615 Q121.349 180.615 120.998 180.693 Q120.651 180.771 120.286 180.936 L120.286 177.681 Z" fill="#000000" fill-rule="evenodd" fill-opacity="1" /><path clip-path="url(#clip600)" d="M 0 0 M122.326 205.514 Q121.736 205.514 121.388 205.917 Q121.046 206.321 121.046 207.024 Q121.046 207.723 121.388 208.131 Q121.736 208.534 122.326 208.534 Q122.916 208.534 123.259 208.131 Q123.606 207.723 123.606 207.024 Q123.606 206.321 123.259 205.917 Q122.916 205.514 122.326 205.514 M124.066 202.766 L124.066 203.565 Q123.737 203.409 123.398 203.326 Q123.064 203.244 122.734 203.244 Q121.866 203.244 121.406 203.83 Q120.95 204.415 120.885 205.6 Q121.141 205.223 121.527 205.023 Q121.914 204.819 122.378 204.819 Q123.355 204.819 123.919 205.414 Q124.487 206.004 124.487 207.024 Q124.487 208.022 123.897 208.626 Q123.307 209.229 122.326 209.229 Q121.202 209.229 120.607 208.369 Q120.013 207.506 120.013 205.869 Q120.013 204.333 120.742 203.422 Q121.471 202.506 122.699 202.506 Q123.029 202.506 123.363 202.571 Q123.702 202.636 124.066 202.766 Z" fill="#000000" fill-rule="evenodd" fill-opacity="1" /><path clip-path="url(#clip600)" d="M 0 0 M154.101 177.681 L158.267 177.681 L158.267 178.054 L155.915 184.161 L154.999 184.161 L157.213 178.419 L154.101 178.419 L154.101 177.681 Z" fill="#000000" fill-rule="evenodd" fill-opacity="1" /><path clip-path="url(#clip600)" d="M 0 0 M156.323 206.026 Q155.698 206.026 155.338 206.36 Q154.982 206.694 154.982 207.28 Q154.982 207.866 155.338 208.2 Q155.698 208.534 156.323 208.534 Q156.948 208.534 157.308 208.2 Q157.668 207.862 157.668 207.28 Q157.668 206.694 157.308 206.36 Q156.952 206.026 156.323 206.026 M155.446 205.652 Q154.882 205.514 154.565 205.127 Q154.253 204.741 154.253 204.185 Q154.253 203.409 154.804 202.957 Q155.359 202.506 156.323 202.506 Q157.291 202.506 157.842 202.957 Q158.393 203.409 158.393 204.185 Q158.393 204.741 158.076 205.127 Q157.764 205.514 157.204 205.652 Q157.838 205.8 158.189 206.23 Q158.545 206.659 158.545 207.28 Q158.545 208.222 157.968 208.725 Q157.395 209.229 156.323 209.229 Q155.251 209.229 154.674 208.725 Q154.101 208.222 154.101 207.28 Q154.101 206.659 154.457 206.23 Q154.813 205.8 155.446 205.652 M155.125 204.268 Q155.125 204.771 155.438 205.053 Q155.754 205.336 156.323 205.336 Q156.887 205.336 157.204 205.053 Q157.525 204.771 157.525 204.268 Q157.525 203.764 157.204 203.482 Q156.887 203.2 156.323 203.2 Q155.754 203.2 155.438 203.482 Q155.125 203.764 155.125 204.268 Z" fill="#000000" fill-rule="evenodd" fill-opacity="1" /><path clip-path="url(#clip600)" d="M 0 0 M188.606 184.026 L188.606 183.228 Q188.936 183.384 189.274 183.467 Q189.613 183.549 189.938 183.549 Q190.806 183.549 191.262 182.967 Q191.722 182.381 191.787 181.192 Q191.535 181.565 191.149 181.765 Q190.763 181.965 190.294 181.965 Q189.322 181.965 188.753 181.379 Q188.189 180.789 188.189 179.769 Q188.189 178.77 188.779 178.167 Q189.37 177.564 190.35 177.564 Q191.475 177.564 192.065 178.427 Q192.659 179.287 192.659 180.927 Q192.659 182.46 191.93 183.375 Q191.205 184.287 189.977 184.287 Q189.647 184.287 189.309 184.222 Q188.97 184.157 188.606 184.026 M190.35 181.279 Q190.941 181.279 191.284 180.875 Q191.631 180.472 191.631 179.769 Q191.631 179.07 191.284 178.666 Q190.941 178.258 190.35 178.258 Q189.76 178.258 189.413 178.666 Q189.07 179.07 189.07 179.769 Q189.07 180.472 189.413 180.875 Q189.76 181.279 190.35 181.279 Z" fill="#000000" fill-rule="evenodd" fill-opacity="1" /><path clip-path="url(#clip600)" d="M 0 0 M188.315 208.365 L189.747 208.365 L189.747 203.422 L188.189 203.734 L188.189 202.935 L189.738 202.623 L190.615 202.623 L190.615 208.365 L192.047 208.365 L192.047 209.103 L188.315 209.103 L188.315 208.365 Z" fill="#000000" fill-rule="evenodd" fill-opacity="1" /><path clip-path="url(#clip600)" d="M 0 0 M194.873 203.2 Q194.196 203.2 193.853 203.869 Q193.514 204.533 193.514 205.869 Q193.514 207.202 193.853 207.87 Q194.196 208.534 194.873 208.534 Q195.554 208.534 195.893 207.87 Q196.236 207.202 196.236 205.869 Q196.236 204.533 195.893 203.869 Q195.554 203.2 194.873 203.2 M194.873 202.506 Q195.962 202.506 196.535 203.369 Q197.113 204.229 197.113 205.869 Q197.113 207.506 196.535 208.369 Q195.962 209.229 194.873 209.229 Q193.784 209.229 193.206 208.369 Q192.633 207.506 192.633 205.869 Q192.633 204.229 193.206 203.369 Q193.784 202.506 194.873 202.506 Z" fill="#000000" fill-rule="evenodd" fill-opacity="1" /><path clip-path="url(#clip600)" d="M 0 0 M137.183 146.01 L138.615 146.01 L138.615 141.067 L137.057 141.379 L137.057 140.58 L138.606 140.268 L139.483 140.268 L139.483 146.01 L140.915 146.01 L140.915 146.748 L137.183 146.748 L137.183 146.01 Z" fill="#000000" fill-rule="evenodd" fill-opacity="1" /><path clip-path="url(#clip600)" d="M 0 0 M141.874 140.268 L145.316 140.268 L145.316 141.006 L142.677 141.006 L142.677 142.594 Q142.868 142.529 143.059 142.499 Q143.25 142.464 143.441 142.464 Q144.526 142.464 145.16 143.059 Q145.794 143.653 145.794 144.669 Q145.794 145.715 145.143 146.297 Q144.492 146.874 143.307 146.874 Q142.899 146.874 142.473 146.804 Q142.052 146.735 141.601 146.596 L141.601 145.715 Q141.992 145.928 142.408 146.032 Q142.825 146.136 143.289 146.136 Q144.04 146.136 144.479 145.741 Q144.917 145.346 144.917 144.669 Q144.917 143.992 144.479 143.597 Q144.04 143.202 143.289 143.202 Q142.938 143.202 142.586 143.28 Q142.239 143.358 141.874 143.523 L141.874 140.268 Z" fill="#000000" fill-rule="evenodd" fill-opacity="1" /><path clip-path="url(#clip600)" d="M 0 0 M137.183 170.952 L138.615 170.952 L138.615 166.009 L137.057 166.321 L137.057 165.522 L138.606 165.21 L139.483 165.21 L139.483 170.952 L140.915 170.952 L140.915 171.69 L137.183 171.69 L137.183 170.952 Z" fill="#000000" fill-rule="evenodd" fill-opacity="1" /><path clip-path="url(#clip600)" d="M 0 0 M143.849 168.101 Q143.259 168.101 142.912 168.504 Q142.569 168.908 142.569 169.611 Q142.569 170.31 142.912 170.718 Q143.259 171.121 143.849 171.121 Q144.439 171.121 144.782 170.718 Q145.13 170.31 145.13 169.611 Q145.13 168.908 144.782 168.504 Q144.439 168.101 143.849 168.101 M145.59 165.353 L145.59 166.152 Q145.26 165.996 144.921 165.913 Q144.587 165.831 144.257 165.831 Q143.389 165.831 142.929 166.417 Q142.473 167.002 142.408 168.187 Q142.664 167.81 143.051 167.61 Q143.437 167.406 143.901 167.406 Q144.878 167.406 145.442 168.001 Q146.011 168.591 146.011 169.611 Q146.011 170.609 145.42 171.213 Q144.83 171.816 143.849 171.816 Q142.725 171.816 142.13 170.956 Q141.536 170.093 141.536 168.456 Q141.536 166.92 142.265 166.009 Q142.994 165.093 144.222 165.093 Q144.552 165.093 144.887 165.158 Q145.225 165.223 145.59 165.353 Z" fill="#000000" fill-rule="evenodd" fill-opacity="1" /><path clip-path="url(#clip600)" d="M 0 0 M138.111 220.836 L141.171 220.836 L141.171 221.574 L137.057 221.574 L137.057 220.836 Q137.556 220.32 138.415 219.452 Q139.279 218.579 139.5 218.327 Q139.921 217.854 140.086 217.529 Q140.255 217.199 140.255 216.882 Q140.255 216.366 139.891 216.04 Q139.531 215.715 138.949 215.715 Q138.537 215.715 138.077 215.858 Q137.621 216.001 137.1 216.292 L137.1 215.406 Q137.63 215.194 138.09 215.085 Q138.55 214.977 138.932 214.977 Q139.939 214.977 140.538 215.48 Q141.137 215.984 141.137 216.826 Q141.137 217.225 140.985 217.585 Q140.837 217.941 140.442 218.427 Q140.334 218.553 139.752 219.156 Q139.17 219.755 138.111 220.836 Z" fill="#000000" fill-rule="evenodd" fill-opacity="1" /><path clip-path="url(#clip600)" d="M 0 0 M142.274 220.836 L143.706 220.836 L143.706 215.893 L142.148 216.205 L142.148 215.406 L143.697 215.094 L144.574 215.094 L144.574 220.836 L146.006 220.836 L146.006 221.574 L142.274 221.574 L142.274 220.836 Z" fill="#000000" fill-rule="evenodd" fill-opacity="1" /><path clip-path="url(#clip600)" d="M 0 0 M172.2 220.836 L175.259 220.836 L175.259 221.574 L171.145 221.574 L171.145 220.836 Q171.644 220.32 172.503 219.452 Q173.367 218.579 173.588 218.327 Q174.009 217.854 174.174 217.529 Q174.344 217.199 174.344 216.882 Q174.344 216.366 173.979 216.04 Q173.619 215.715 173.037 215.715 Q172.625 215.715 172.165 215.858 Q171.709 216.001 171.188 216.292 L171.188 215.406 Q171.718 215.194 172.178 215.085 Q172.638 214.977 173.02 214.977 Q174.027 214.977 174.626 215.48 Q175.225 215.984 175.225 216.826 Q175.225 217.225 175.073 217.585 Q174.925 217.941 174.53 218.427 Q174.422 218.553 173.84 219.156 Q173.259 219.755 172.2 220.836 Z" fill="#000000" fill-rule="evenodd" fill-opacity="1" /><path clip-path="url(#clip600)" d="M 0 0 M178.866 218.08 Q179.496 218.215 179.847 218.64 Q180.203 219.065 180.203 219.69 Q180.203 220.649 179.543 221.175 Q178.884 221.7 177.668 221.7 Q177.26 221.7 176.826 221.617 Q176.397 221.539 175.937 221.379 L175.937 220.532 Q176.301 220.745 176.735 220.853 Q177.169 220.962 177.642 220.962 Q178.467 220.962 178.897 220.636 Q179.331 220.311 179.331 219.69 Q179.331 219.117 178.927 218.796 Q178.528 218.471 177.812 218.471 L177.056 218.471 L177.056 217.75 L177.846 217.75 Q178.493 217.75 178.836 217.494 Q179.179 217.234 179.179 216.748 Q179.179 216.248 178.823 215.984 Q178.471 215.715 177.812 215.715 Q177.451 215.715 177.039 215.793 Q176.627 215.871 176.132 216.036 L176.132 215.255 Q176.631 215.116 177.065 215.046 Q177.503 214.977 177.89 214.977 Q178.888 214.977 179.469 215.432 Q180.051 215.884 180.051 216.656 Q180.051 217.195 179.743 217.568 Q179.435 217.937 178.866 218.08 Z" fill="#000000" fill-rule="evenodd" fill-opacity="1" /><circle clip-path="url(#clip602)" cx="154.101" cy="111.279" r="3" fill="#0000ff" fill-rule="evenodd" fill-opacity="1" stroke="none"/>
<circle clip-path="url(#clip602)" cx="154.101" cy="136.221" r="3" fill="#0000ff" fill-rule="evenodd" fill-opacity="1" stroke="none"/>
<circle clip-path="url(#clip602)" cx="188.189" cy="111.279" r="3" fill="#0000ff" fill-rule="evenodd" fill-opacity="1" stroke="none"/>
<circle clip-path="url(#clip602)" cx="188.189" cy="136.221" r="3" fill="#0000ff" fill-rule="evenodd" fill-opacity="1" stroke="none"/>
<circle clip-path="url(#clip602)" cx="120.013" cy="36.453" r="3" fill="#0000ff" fill-rule="evenodd" fill-opacity="1" stroke="none"/>
<circle clip-path="url(#clip602)" cx="120.013" cy="61.395" r="3" fill="#0000ff" fill-rule="evenodd" fill-opacity="1" stroke="none"/>
<circle clip-path="url(#clip602)" cx="154.101" cy="36.453" r="3" fill="#0000ff" fill-rule="evenodd" fill-opacity="1" stroke="none"/>
<circle clip-path="url(#clip602)" cx="154.101" cy="61.395" r="3" fill="#0000ff" fill-rule="evenodd" fill-opacity="1" stroke="none"/>
<circle clip-path="url(#clip602)" cx="188.189" cy="36.453" r="3" fill="#0000ff" fill-rule="evenodd" fill-opacity="1" stroke="none"/>
<circle clip-path="url(#clip602)" cx="188.189" cy="61.395" r="3" fill="#0000ff" fill-rule="evenodd" fill-opacity="1" stroke="none"/>
<circle clip-path="url(#clip602)" cx="120.013" cy="111.279" r="3" fill="#0000ff" fill-rule="evenodd" fill-opacity="1" stroke="none"/>
<circle clip-path="url(#clip602)" cx="120.013" cy="136.221" r="3" fill="#0000ff" fill-rule="evenodd" fill-opacity="1" stroke="none"/>
<circle clip-path="url(#clip602)" cx="137.057" cy="23.9821" r="3" fill="#0000ff" fill-rule="evenodd" fill-opacity="1" stroke="none"/>
<circle clip-path="url(#clip602)" cx="171.145" cy="148.692" r="3" fill="#0000ff" fill-rule="evenodd" fill-opacity="1" stroke="none"/>
<circle clip-path="url(#clip602)" cx="171.145" cy="173.634" r="3" fill="#0000ff" fill-rule="evenodd" fill-opacity="1" stroke="none"/>
<circle clip-path="url(#clip602)" cx="137.057" cy="73.866" r="3" fill="#0000ff" fill-rule="evenodd" fill-opacity="1" stroke="none"/>
<circle clip-path="url(#clip602)" cx="137.057" cy="98.808" r="3" fill="#0000ff" fill-rule="evenodd" fill-opacity="1" stroke="none"/>
<circle clip-path="url(#clip602)" cx="171.145" cy="73.866" r="3" fill="#0000ff" fill-rule="evenodd" fill-opacity="1" stroke="none"/>
<circle clip-path="url(#clip602)" cx="171.145" cy="98.808" r="3" fill="#0000ff" fill-rule="evenodd" fill-opacity="1" stroke="none"/>
<path clip-path="url(#clip600)" d="M 0 0 M154.227 108.597 L155.659 108.597 L155.659 103.654 L154.101 103.966 L154.101 103.168 L155.65 102.855 L156.527 102.855 L156.527 108.597 L157.959 108.597 L157.959 109.335 L154.227 109.335 L154.227 108.597 Z" fill="#000000" fill-rule="evenodd" fill-opacity="1" /><path clip-path="url(#clip600)" d="M 0 0 M155.155 133.539 L158.215 133.539 L158.215 134.277 L154.101 134.277 L154.101 133.539 Q154.6 133.023 155.459 132.155 Q156.323 131.282 156.544 131.03 Q156.965 130.557 157.13 130.232 Q157.3 129.902 157.3 129.585 Q157.3 129.069 156.935 128.743 Q156.575 128.418 155.993 128.418 Q155.581 128.418 155.121 128.561 Q154.665 128.704 154.144 128.995 L154.144 128.109 Q154.674 127.897 155.134 127.788 Q155.594 127.68 155.976 127.68 Q156.983 127.68 157.582 128.183 Q158.181 128.687 158.181 129.529 Q158.181 129.928 158.029 130.288 Q157.881 130.644 157.486 131.13 Q157.378 131.256 156.796 131.859 Q156.214 132.458 155.155 133.539 Z" fill="#000000" fill-rule="evenodd" fill-opacity="1" /><path clip-path="url(#clip600)" d="M 0 0 M191.119 105.841 Q191.748 105.976 192.1 106.401 Q192.455 106.826 192.455 107.451 Q192.455 108.411 191.796 108.936 Q191.136 109.461 189.921 109.461 Q189.513 109.461 189.079 109.378 Q188.649 109.3 188.189 109.14 L188.189 108.293 Q188.554 108.506 188.988 108.615 Q189.422 108.723 189.895 108.723 Q190.719 108.723 191.149 108.398 Q191.583 108.072 191.583 107.451 Q191.583 106.878 191.179 106.557 Q190.78 106.232 190.064 106.232 L189.309 106.232 L189.309 105.511 L190.099 105.511 Q190.745 105.511 191.088 105.255 Q191.431 104.995 191.431 104.509 Q191.431 104.01 191.075 103.745 Q190.724 103.476 190.064 103.476 Q189.704 103.476 189.291 103.554 Q188.879 103.632 188.384 103.797 L188.384 103.016 Q188.883 102.877 189.317 102.807 Q189.756 102.738 190.142 102.738 Q191.14 102.738 191.722 103.194 Q192.304 103.645 192.304 104.417 Q192.304 104.956 191.995 105.329 Q191.687 105.698 191.119 105.841 Z" fill="#000000" fill-rule="evenodd" fill-opacity="1" /><path clip-path="url(#clip600)" d="M 0 0 M191.114 128.561 L188.901 132.02 L191.114 132.02 L191.114 128.561 M190.884 127.797 L191.987 127.797 L191.987 132.02 L192.911 132.02 L192.911 132.749 L191.987 132.749 L191.987 134.277 L191.114 134.277 L191.114 132.749 L188.189 132.749 L188.189 131.903 L190.884 127.797 Z" fill="#000000" fill-rule="evenodd" fill-opacity="1" /><path clip-path="url(#clip600)" d="M 0 0 M120.286 28.029 L123.728 28.029 L123.728 28.7669 L121.089 28.7669 L121.089 30.3554 Q121.28 30.2903 121.471 30.2599 Q121.662 30.2252 121.853 30.2252 Q122.938 30.2252 123.572 30.8198 Q124.205 31.4144 124.205 32.4301 Q124.205 33.4761 123.554 34.0577 Q122.903 34.6349 121.718 34.6349 Q121.31 34.6349 120.885 34.5655 Q120.464 34.496 120.013 34.3571 L120.013 33.4761 Q120.403 33.6887 120.82 33.7929 Q121.237 33.8971 121.701 33.8971 Q122.452 33.8971 122.89 33.5021 Q123.329 33.1071 123.329 32.4301 Q123.329 31.753 122.89 31.358 Q122.452 30.9631 121.701 30.9631 Q121.349 30.9631 120.998 31.0412 Q120.651 31.1193 120.286 31.2842 L120.286 28.029 Z" fill="#000000" fill-rule="evenodd" fill-opacity="1" /><path clip-path="url(#clip600)" d="M 0 0 M122.326 55.8616 Q121.736 55.8616 121.388 56.2653 Q121.046 56.6689 121.046 57.3721 Q121.046 58.0708 121.388 58.4788 Q121.736 58.8825 122.326 58.8825 Q122.916 58.8825 123.259 58.4788 Q123.606 58.0708 123.606 57.3721 Q123.606 56.6689 123.259 56.2653 Q122.916 55.8616 122.326 55.8616 M124.066 53.1143 L124.066 53.9129 Q123.737 53.7566 123.398 53.6742 Q123.064 53.5917 122.734 53.5917 Q121.866 53.5917 121.406 54.1776 Q120.95 54.7636 120.885 55.9484 Q121.141 55.5708 121.527 55.3712 Q121.914 55.1672 122.378 55.1672 Q123.355 55.1672 123.919 55.7618 Q124.487 56.3521 124.487 57.3721 Q124.487 58.3703 123.897 58.9736 Q123.307 59.5769 122.326 59.5769 Q121.202 59.5769 120.607 58.7175 Q120.013 57.8538 120.013 56.2175 Q120.013 54.6811 120.742 53.7696 Q121.471 52.8538 122.699 52.8538 Q123.029 52.8538 123.363 52.919 Q123.702 52.9841 124.066 53.1143 Z" fill="#000000" fill-rule="evenodd" fill-opacity="1" /><path clip-path="url(#clip600)" d="M 0 0 M154.101 28.029 L158.267 28.029 L158.267 28.4023 L155.915 34.509 L154.999 34.509 L157.213 28.7669 L154.101 28.7669 L154.101 28.029 Z" fill="#000000" fill-rule="evenodd" fill-opacity="1" /><path clip-path="url(#clip600)" d="M 0 0 M156.323 56.3738 Q155.698 56.3738 155.338 56.708 Q154.982 57.0422 154.982 57.6281 Q154.982 58.2141 155.338 58.5483 Q155.698 58.8825 156.323 58.8825 Q156.948 58.8825 157.308 58.5483 Q157.668 58.2097 157.668 57.6281 Q157.668 57.0422 157.308 56.708 Q156.952 56.3738 156.323 56.3738 M155.446 56.0005 Q154.882 55.8616 154.565 55.4754 Q154.253 55.0891 154.253 54.5335 Q154.253 53.7566 154.804 53.3052 Q155.359 52.8538 156.323 52.8538 Q157.291 52.8538 157.842 53.3052 Q158.393 53.7566 158.393 54.5335 Q158.393 55.0891 158.076 55.4754 Q157.764 55.8616 157.204 56.0005 Q157.838 56.1481 158.189 56.5778 Q158.545 57.0075 158.545 57.6281 Q158.545 58.57 157.968 59.0734 Q157.395 59.5769 156.323 59.5769 Q155.251 59.5769 154.674 59.0734 Q154.101 58.57 154.101 57.6281 Q154.101 57.0075 154.457 56.5778 Q154.813 56.1481 155.446 56.0005 M155.125 54.616 Q155.125 55.1195 155.438 55.4016 Q155.754 55.6837 156.323 55.6837 Q156.887 55.6837 157.204 55.4016 Q157.525 55.1195 157.525 54.616 Q157.525 54.1125 157.204 53.8304 Q156.887 53.5483 156.323 53.5483 Q155.754 53.5483 155.438 53.8304 Q155.125 54.1125 155.125 54.616 Z" fill="#000000" fill-rule="evenodd" fill-opacity="1" /><path clip-path="url(#clip600)" d="M 0 0 M188.606 34.3745 L188.606 33.5759 Q188.936 33.7321 189.274 33.8146 Q189.613 33.8971 189.938 33.8971 Q190.806 33.8971 191.262 33.3155 Q191.722 32.7295 191.787 31.5403 Q191.535 31.9136 191.149 32.1132 Q190.763 32.3129 190.294 32.3129 Q189.322 32.3129 188.753 31.7269 Q188.189 31.1367 188.189 30.1167 Q188.189 29.1185 188.779 28.5152 Q189.37 27.9119 190.35 27.9119 Q191.475 27.9119 192.065 28.7756 Q192.659 29.6349 192.659 31.2756 Q192.659 32.8077 191.93 33.7235 Q191.205 34.6349 189.977 34.6349 Q189.647 34.6349 189.309 34.5698 Q188.97 34.5047 188.606 34.3745 M190.35 31.6271 Q190.941 31.6271 191.284 31.2235 Q191.631 30.8198 191.631 30.1167 Q191.631 29.4179 191.284 29.0143 Q190.941 28.6063 190.35 28.6063 Q189.76 28.6063 189.413 29.0143 Q189.07 29.4179 189.07 30.1167 Q189.07 30.8198 189.413 31.2235 Q189.76 31.6271 190.35 31.6271 Z" fill="#000000" fill-rule="evenodd" fill-opacity="1" /><path clip-path="url(#clip600)" d="M 0 0 M188.315 58.7132 L189.747 58.7132 L189.747 53.7696 L188.189 54.0821 L188.189 53.2835 L189.738 52.971 L190.615 52.971 L190.615 58.7132 L192.047 58.7132 L192.047 59.451 L188.315 59.451 L188.315 58.7132 Z" fill="#000000" fill-rule="evenodd" fill-opacity="1" /><path clip-path="url(#clip600)" d="M 0 0 M194.873 53.5483 Q194.196 53.5483 193.853 54.2167 Q193.514 54.8807 193.514 56.2175 Q193.514 57.55 193.853 58.2184 Q194.196 58.8825 194.873 58.8825 Q195.554 58.8825 195.893 58.2184 Q196.236 57.55 196.236 56.2175 Q196.236 54.8807 195.893 54.2167 Q195.554 53.5483 194.873 53.5483 M194.873 52.8538 Q195.962 52.8538 196.535 53.7176 Q197.113 54.5769 197.113 56.2175 Q197.113 57.8538 196.535 58.7175 Q195.962 59.5769 194.873 59.5769 Q193.784 59.5769 193.206 58.7175 Q192.633 57.8538 192.633 56.2175 Q192.633 54.5769 193.206 53.7176 Q193.784 52.8538 194.873 52.8538 Z" fill="#000000" fill-rule="evenodd" fill-opacity="1" /><path clip-path="url(#clip600)" d="M 0 0 M120.138 108.597 L121.571 108.597 L121.571 103.654 L120.013 103.966 L120.013 103.168 L121.562 102.855 L122.439 102.855 L122.439 108.597 L123.871 108.597 L123.871 109.335 L120.138 109.335 L120.138 108.597 Z" fill="#000000" fill-rule="evenodd" fill-opacity="1" /><path clip-path="url(#clip600)" d="M 0 0 M124.974 108.597 L126.406 108.597 L126.406 103.654 L124.848 103.966 L124.848 103.168 L126.397 102.855 L127.274 102.855 L127.274 108.597 L128.706 108.597 L128.706 109.335 L124.974 109.335 L124.974 108.597 Z" fill="#000000" fill-rule="evenodd" fill-opacity="1" /><path clip-path="url(#clip600)" d="M 0 0 M120.138 133.539 L121.571 133.539 L121.571 128.596 L120.013 128.908 L120.013 128.109 L121.562 127.797 L122.439 127.797 L122.439 133.539 L123.871 133.539 L123.871 134.277 L120.138 134.277 L120.138 133.539 Z" fill="#000000" fill-rule="evenodd" fill-opacity="1" /><path clip-path="url(#clip600)" d="M 0 0 M125.577 133.539 L128.637 133.539 L128.637 134.277 L124.522 134.277 L124.522 133.539 Q125.021 133.023 125.881 132.155 Q126.744 131.282 126.966 131.03 Q127.387 130.557 127.552 130.232 Q127.721 129.902 127.721 129.585 Q127.721 129.069 127.356 128.743 Q126.996 128.418 126.414 128.418 Q126.002 128.418 125.542 128.561 Q125.086 128.704 124.566 128.995 L124.566 128.109 Q125.095 127.897 125.555 127.788 Q126.015 127.68 126.397 127.68 Q127.404 127.68 128.003 128.183 Q128.602 128.687 128.602 129.529 Q128.602 129.928 128.45 130.288 Q128.302 130.644 127.908 131.13 Q127.799 131.256 127.217 131.859 Q126.636 132.458 125.577 133.539 Z" fill="#000000" fill-rule="evenodd" fill-opacity="1" /><path clip-path="url(#clip600)" d="M 0 0 M137.183 21.3002 L138.615 21.3002 L138.615 16.3567 L137.057 16.6692 L137.057 15.8706 L138.606 15.5581 L139.483 15.5581 L139.483 21.3002 L140.915 21.3002 L140.915 22.0381 L137.183 22.0381 L137.183 21.3002 Z" fill="#000000" fill-rule="evenodd" fill-opacity="1" /><path clip-path="url(#clip600)" d="M 0 0 M143.849 18.4487 Q143.259 18.4487 142.912 18.8523 Q142.569 19.256 142.569 19.9591 Q142.569 20.6579 142.912 21.0658 Q143.259 21.4695 143.849 21.4695 Q144.439 21.4695 144.782 21.0658 Q145.13 20.6579 145.13 19.9591 Q145.13 19.256 144.782 18.8523 Q144.439 18.4487 143.849 18.4487 M145.59 15.7013 L145.59 16.4999 Q145.26 16.3436 144.921 16.2612 Q144.587 16.1787 144.257 16.1787 Q143.389 16.1787 142.929 16.7646 Q142.473 17.3506 142.408 18.5355 Q142.664 18.1579 143.051 17.9582 Q143.437 17.7542 143.901 17.7542 Q144.878 17.7542 145.442 18.3488 Q146.011 18.9391 146.011 19.9591 Q146.011 20.9573 145.42 21.5606 Q144.83 22.1639 143.849 22.1639 Q142.725 22.1639 142.13 21.3046 Q141.536 20.4408 141.536 18.8046 Q141.536 17.2681 142.265 16.3567 Q142.994 15.4409 144.222 15.4409 Q144.552 15.4409 144.887 15.506 Q145.225 15.5711 145.59 15.7013 Z" fill="#000000" fill-rule="evenodd" fill-opacity="1" /><path clip-path="url(#clip600)" d="M 0 0 M171.271 146.01 L172.703 146.01 L172.703 141.067 L171.145 141.379 L171.145 140.58 L172.694 140.268 L173.571 140.268 L173.571 146.01 L175.003 146.01 L175.003 146.748 L171.271 146.748 L171.271 146.01 Z" fill="#000000" fill-rule="evenodd" fill-opacity="1" /><path clip-path="url(#clip600)" d="M 0 0 M175.733 140.268 L179.899 140.268 L179.899 140.641 L177.547 146.748 L176.631 146.748 L178.844 141.006 L175.733 141.006 L175.733 140.268 Z" fill="#000000" fill-rule="evenodd" fill-opacity="1" /><path clip-path="url(#clip600)" d="M 0 0 M171.271 170.952 L172.703 170.952 L172.703 166.009 L171.145 166.321 L171.145 165.522 L172.694 165.21 L173.571 165.21 L173.571 170.952 L175.003 170.952 L175.003 171.69 L171.271 171.69 L171.271 170.952 Z" fill="#000000" fill-rule="evenodd" fill-opacity="1" /><path clip-path="url(#clip600)" d="M 0 0 M177.829 168.613 Q177.204 168.613 176.844 168.947 Q176.488 169.281 176.488 169.867 Q176.488 170.453 176.844 170.787 Q177.204 171.121 177.829 171.121 Q178.454 171.121 178.814 170.787 Q179.174 170.449 179.174 169.867 Q179.174 169.281 178.814 168.947 Q178.458 168.613 177.829 168.613 M176.952 168.239 Q176.388 168.101 176.071 167.714 Q175.759 167.328 175.759 166.772 Q175.759 165.996 176.31 165.544 Q176.865 165.093 177.829 165.093 Q178.797 165.093 179.348 165.544 Q179.899 165.996 179.899 166.772 Q179.899 167.328 179.582 167.714 Q179.27 168.101 178.71 168.239 Q179.344 168.387 179.695 168.817 Q180.051 169.246 180.051 169.867 Q180.051 170.809 179.474 171.312 Q178.901 171.816 177.829 171.816 Q176.757 171.816 176.18 171.312 Q175.607 170.809 175.607 169.867 Q175.607 169.246 175.963 168.817 Q176.318 168.387 176.952 168.239 M176.631 166.855 Q176.631 167.358 176.943 167.641 Q177.26 167.923 177.829 167.923 Q178.393 167.923 178.71 167.641 Q179.031 167.358 179.031 166.855 Q179.031 166.351 178.71 166.069 Q178.393 165.787 177.829 165.787 Q177.26 165.787 176.943 166.069 Q176.631 166.351 176.631 166.855 Z" fill="#000000" fill-rule="evenodd" fill-opacity="1" /><path clip-path="url(#clip600)" d="M 0 0 M138.111 71.1842 L141.171 71.1842 L141.171 71.922 L137.057 71.922 L137.057 71.1842 Q137.556 70.6677 138.415 69.7996 Q139.279 68.9273 139.5 68.6755 Q139.921 68.2024 140.086 67.8769 Q140.255 67.5471 140.255 67.2302 Q140.255 66.7137 139.891 66.3882 Q139.531 66.0627 138.949 66.0627 Q138.537 66.0627 138.077 66.2059 Q137.621 66.3491 137.1 66.6399 L137.1 65.7545 Q137.63 65.5419 138.09 65.4333 Q138.55 65.3248 138.932 65.3248 Q139.939 65.3248 140.538 65.8283 Q141.137 66.3318 141.137 67.1738 Q141.137 67.5731 140.985 67.9333 Q140.837 68.2892 140.442 68.7753 Q140.334 68.9012 139.752 69.5045 Q139.17 70.1035 138.111 71.1842 Z" fill="#000000" fill-rule="evenodd" fill-opacity="1" /><path clip-path="url(#clip600)" d="M 0 0 M142.274 71.1842 L143.706 71.1842 L143.706 66.2406 L142.148 66.5531 L142.148 65.7545 L143.697 65.442 L144.574 65.442 L144.574 71.1842 L146.006 71.1842 L146.006 71.922 L142.274 71.922 L142.274 71.1842 Z" fill="#000000" fill-rule="evenodd" fill-opacity="1" /><path clip-path="url(#clip600)" d="M 0 0 M138.111 96.1262 L141.171 96.1262 L141.171 96.864 L137.057 96.864 L137.057 96.1262 Q137.556 95.6097 138.415 94.7416 Q139.279 93.8692 139.5 93.6175 Q139.921 93.1444 140.086 92.8189 Q140.255 92.489 140.255 92.1722 Q140.255 91.6557 139.891 91.3302 Q139.531 91.0047 138.949 91.0047 Q138.537 91.0047 138.077 91.1479 Q137.621 91.2911 137.1 91.5819 L137.1 90.6965 Q137.63 90.4838 138.09 90.3753 Q138.55 90.2668 138.932 90.2668 Q139.939 90.2668 140.538 90.7703 Q141.137 91.2738 141.137 92.1158 Q141.137 92.5151 140.985 92.8753 Q140.837 93.2312 140.442 93.7173 Q140.334 93.8432 139.752 94.4465 Q139.17 95.0454 138.111 96.1262 Z" fill="#000000" fill-rule="evenodd" fill-opacity="1" /><path clip-path="url(#clip600)" d="M 0 0 M142.877 96.1262 L145.937 96.1262 L145.937 96.864 L141.822 96.864 L141.822 96.1262 Q142.321 95.6097 143.181 94.7416 Q144.045 93.8692 144.266 93.6175 Q144.687 93.1444 144.852 92.8189 Q145.021 92.489 145.021 92.1722 Q145.021 91.6557 144.656 91.3302 Q144.296 91.0047 143.715 91.0047 Q143.302 91.0047 142.842 91.1479 Q142.387 91.2911 141.866 91.5819 L141.866 90.6965 Q142.395 90.4838 142.855 90.3753 Q143.315 90.2668 143.697 90.2668 Q144.704 90.2668 145.303 90.7703 Q145.902 91.2738 145.902 92.1158 Q145.902 92.5151 145.75 92.8753 Q145.603 93.2312 145.208 93.7173 Q145.099 93.8432 144.518 94.4465 Q143.936 95.0454 142.877 96.1262 Z" fill="#000000" fill-rule="evenodd" fill-opacity="1" /><path clip-path="url(#clip600)" d="M 0 0 M172.2 71.1842 L175.259 71.1842 L175.259 71.922 L171.145 71.922 L171.145 71.1842 Q171.644 70.6677 172.503 69.7996 Q173.367 68.9273 173.588 68.6755 Q174.009 68.2024 174.174 67.8769 Q174.344 67.5471 174.344 67.2302 Q174.344 66.7137 173.979 66.3882 Q173.619 66.0627 173.037 66.0627 Q172.625 66.0627 172.165 66.2059 Q171.709 66.3491 171.188 66.6399 L171.188 65.7545 Q171.718 65.5419 172.178 65.4333 Q172.638 65.3248 173.02 65.3248 Q174.027 65.3248 174.626 65.8283 Q175.225 66.3318 175.225 67.1738 Q175.225 67.5731 175.073 67.9333 Q174.925 68.2892 174.53 68.7753 Q174.422 68.9012 173.84 69.5045 Q173.259 70.1035 172.2 71.1842 Z" fill="#000000" fill-rule="evenodd" fill-opacity="1" /><path clip-path="url(#clip600)" d="M 0 0 M178.866 68.4281 Q179.496 68.5627 179.847 68.988 Q180.203 69.4134 180.203 70.0384 Q180.203 70.9976 179.543 71.5227 Q178.884 72.0479 177.668 72.0479 Q177.26 72.0479 176.826 71.9654 Q176.397 71.8873 175.937 71.7267 L175.937 70.8804 Q176.301 71.093 176.735 71.2015 Q177.169 71.3101 177.642 71.3101 Q178.467 71.3101 178.897 70.9845 Q179.331 70.659 179.331 70.0384 Q179.331 69.4654 178.927 69.1443 Q178.528 68.8187 177.812 68.8187 L177.056 68.8187 L177.056 68.0983 L177.846 68.0983 Q178.493 68.0983 178.836 67.8422 Q179.179 67.5818 179.179 67.0957 Q179.179 66.5965 178.823 66.3318 Q178.471 66.0627 177.812 66.0627 Q177.451 66.0627 177.039 66.1408 Q176.627 66.2189 176.132 66.3839 L176.132 65.6026 Q176.631 65.4637 177.065 65.3943 Q177.503 65.3248 177.89 65.3248 Q178.888 65.3248 179.469 65.7806 Q180.051 66.232 180.051 67.0045 Q180.051 67.5427 179.743 67.916 Q179.435 68.2849 178.866 68.4281 Z" fill="#000000" fill-rule="evenodd" fill-opacity="1" /><path clip-path="url(#clip600)" d="M 0 0 M172.2 96.1262 L175.259 96.1262 L175.259 96.864 L171.145 96.864 L171.145 96.1262 Q171.644 95.6097 172.503 94.7416 Q173.367 93.8692 173.588 93.6175 Q174.009 93.1444 174.174 92.8189 Q174.344 92.489 174.344 92.1722 Q174.344 91.6557 173.979 91.3302 Q173.619 91.0047 173.037 91.0047 Q172.625 91.0047 172.165 91.1479 Q171.709 91.2911 171.188 91.5819 L171.188 90.6965 Q171.718 90.4838 172.178 90.3753 Q172.638 90.2668 173.02 90.2668 Q174.027 90.2668 174.626 90.7703 Q175.225 91.2738 175.225 92.1158 Q175.225 92.5151 175.073 92.8753 Q174.925 93.2312 174.53 93.7173 Q174.422 93.8432 173.84 94.4465 Q173.259 95.0454 172.2 96.1262 Z" fill="#000000" fill-rule="evenodd" fill-opacity="1" /><path clip-path="url(#clip600)" d="M 0 0 M178.619 91.1479 L176.405 94.6071 L178.619 94.6071 L178.619 91.1479 M178.389 90.384 L179.491 90.384 L179.491 94.6071 L180.416 94.6071 L180.416 95.3362 L179.491 95.3362 L179.491 96.864 L178.619 96.864 L178.619 95.3362 L175.693 95.3362 L175.693 94.4899 L178.389 90.384 Z" fill="#000000" fill-rule="evenodd" fill-opacity="1" /><circle clip-path="url(#clip602)" cx="171.145" cy="23.9821" r="3" fill="#0000ff" fill-rule="evenodd" fill-opacity="1" stroke="none"/>
<path clip-path="url(#clip600)" d="M 0 0 M171.271 21.3002 L172.703 21.3002 L172.703 16.3567 L171.145 16.6692 L171.145 15.8706 L172.694 15.5581 L173.571 15.5581 L173.571 21.3002 L175.003 21.3002 L175.003 22.0381 L171.271 22.0381 L171.271 21.3002 Z" fill="#000000" fill-rule="evenodd" fill-opacity="1" /><path clip-path="url(#clip600)" d="M 0 0 M177.829 18.9608 Q177.204 18.9608 176.844 19.295 Q176.488 19.6292 176.488 20.2151 Q176.488 20.8011 176.844 21.1353 Q177.204 21.4695 177.829 21.4695 Q178.454 21.4695 178.814 21.1353 Q179.174 20.7967 179.174 20.2151 Q179.174 19.6292 178.814 19.295 Q178.458 18.9608 177.829 18.9608 M176.952 18.5876 Q176.388 18.4487 176.071 18.0624 Q175.759 17.6761 175.759 17.1205 Q175.759 16.3436 176.31 15.8923 Q176.865 15.4409 177.829 15.4409 Q178.797 15.4409 179.348 15.8923 Q179.899 16.3436 179.899 17.1205 Q179.899 17.6761 179.582 18.0624 Q179.27 18.4487 178.71 18.5876 Q179.344 18.7351 179.695 19.1648 Q180.051 19.5945 180.051 20.2151 Q180.051 21.157 179.474 21.6605 Q178.901 22.1639 177.829 22.1639 Q176.757 22.1639 176.18 21.6605 Q175.607 21.157 175.607 20.2151 Q175.607 19.5945 175.963 19.1648 Q176.318 18.7351 176.952 18.5876 M176.631 17.203 Q176.631 17.7065 176.943 17.9886 Q177.26 18.2707 177.829 18.2707 Q178.393 18.2707 178.71 17.9886 Q179.031 17.7065 179.031 17.203 Q179.031 16.6995 178.71 16.4174 Q178.393 16.1353 177.829 16.1353 Q177.26 16.1353 176.943 16.4174 Q176.631 16.6995 176.631 17.203 Z" fill="#000000" fill-rule="evenodd" fill-opacity="1" /></svg>
