<?xml version="1.0" encoding="utf-8"?>
<svg xmlns="http://www.w3.org/2000/svg" xmlns:xlink="http://www.w3.org/1999/xlink" width="50" height="62.5" viewBox="0 0 200 250">
<defs>
  <clipPath id="clip900">
    <rect x="0" y="0" width="200" height="250"/>
  </clipPath>
</defs>
<path clip-path="url(#clip900)" d="
M0 250 L200 250 L200 0 L0 0  Z
  " fill="#ffffff" fill-rule="evenodd" fill-opacity="1"/>
<defs>
  <clipPath id="clip901">
    <rect x="50" y="25" width="176" height="176"/>
  </clipPath>
</defs>
<path clip-path="url(#clip900)" d="
M17.748 231.752 L188.189 231.752 L188.189 15.748 L17.748 15.748  Z
  " fill="#ffffff" fill-rule="evenodd" fill-opacity="1"/>
<defs>
  <clipPath id="clip902">
    <rect x="17" y="15" width="171" height="217"/>
  </clipPath>
</defs>
<polyline clip-path="url(#clip900)" style="stroke:#000000; stroke-width:1; stroke-opacity:1; fill:none" points="
  17.748,231.752 188.189,231.752 
  "/>
<polyline clip-path="url(#clip900)" style="stroke:#000000; stroke-width:1; stroke-opacity:1; fill:none" points="
  34.7921,231.752 34.7921,229.16 
  "/>
<polyline clip-path="url(#clip900)" style="stroke:#000000; stroke-width:1; stroke-opacity:1; fill:none" points="
  68.8803,231.752 68.8803,229.16 
  "/>
<polyline clip-path="url(#clip900)" style="stroke:#000000; stroke-width:1; stroke-opacity:1; fill:none" points="
  102.969,231.752 102.969,229.16 
  "/>
<polyline clip-path="url(#clip900)" style="stroke:#000000; stroke-width:1; stroke-opacity:1; fill:none" points="
  137.057,231.752 137.057,229.16 
  "/>
<polyline clip-path="url(#clip900)" style="stroke:#000000; stroke-width:1; stroke-opacity:1; fill:none" points="
  171.145,231.752 171.145,229.16 
  "/>
<path clip-path="url(#clip900)" d="M 0 0 M27.9056 239.913 L35.3245 239.913 L35.3245 240.897 L27.9056 240.897 L27.9056 239.913 Z" fill="#000000" fill-rule="evenodd" fill-opacity="1" /><path clip-path="url(#clip900)" d="M 0 0 M37.5988 243.136 L41.6787 243.136 L41.6787 244.12 L36.1926 244.12 L36.1926 243.136 Q36.8581 242.448 38.0039 241.29 Q39.1555 240.127 39.4507 239.791 Q40.012 239.161 40.2319 238.726 Q40.4576 238.287 40.4576 237.864 Q40.4576 237.176 39.9715 236.742 Q39.4912 236.308 38.7157 236.308 Q38.166 236.308 37.5525 236.498 Q36.9449 236.689 36.2505 237.077 L36.2505 235.897 Q36.9565 235.613 37.5699 235.468 Q38.1833 235.324 38.6926 235.324 Q40.0352 235.324 40.8338 235.995 Q41.6324 236.666 41.6324 237.789 Q41.6324 238.321 41.4298 238.802 Q41.2331 239.276 40.7064 239.924 Q40.5618 240.092 39.7863 240.897 Q39.0109 241.695 37.5988 243.136 Z" fill="#000000" fill-rule="evenodd" fill-opacity="1" /><path clip-path="url(#clip900)" d="M 0 0 M61.9475 239.913 L69.3664 239.913 L69.3664 240.897 L61.9475 240.897 L61.9475 239.913 Z" fill="#000000" fill-rule="evenodd" fill-opacity="1" /><path clip-path="url(#clip900)" d="M 0 0 M70.8363 243.136 L72.746 243.136 L72.746 236.545 L70.6685 236.961 L70.6685 235.897 L72.7345 235.48 L73.9034 235.48 L73.9034 243.136 L75.8131 243.136 L75.8131 244.12 L70.8363 244.12 L70.8363 243.136 Z" fill="#000000" fill-rule="evenodd" fill-opacity="1" /><path clip-path="url(#clip900)" d="M 0 0 M102.969 236.25 Q102.066 236.25 101.609 237.141 Q101.157 238.026 101.157 239.809 Q101.157 241.585 101.609 242.476 Q102.066 243.362 102.969 243.362 Q103.877 243.362 104.328 242.476 Q104.786 241.585 104.786 239.809 Q104.786 238.026 104.328 237.141 Q103.877 236.25 102.969 236.25 M102.969 235.324 Q104.421 235.324 105.185 236.475 Q105.955 237.621 105.955 239.809 Q105.955 241.99 105.185 243.142 Q104.421 244.288 102.969 244.288 Q101.516 244.288 100.746 243.142 Q99.9824 241.99 99.9824 239.809 Q99.9824 237.621 100.746 236.475 Q101.516 235.324 102.969 235.324 Z" fill="#000000" fill-rule="evenodd" fill-opacity="1" /><path clip-path="url(#clip900)" d="M 0 0 M134.652 243.136 L136.562 243.136 L136.562 236.545 L134.484 236.961 L134.484 235.897 L136.55 235.48 L137.719 235.48 L137.719 243.136 L139.629 243.136 L139.629 244.12 L134.652 244.12 L134.652 243.136 Z" fill="#000000" fill-rule="evenodd" fill-opacity="1" /><path clip-path="url(#clip900)" d="M 0 0 M169.808 243.136 L173.888 243.136 L173.888 244.12 L168.402 244.12 L168.402 243.136 Q169.067 242.448 170.213 241.29 Q171.365 240.127 171.66 239.791 Q172.221 239.161 172.441 238.726 Q172.667 238.287 172.667 237.864 Q172.667 237.176 172.181 236.742 Q171.7 236.308 170.925 236.308 Q170.375 236.308 169.762 236.498 Q169.154 236.689 168.46 237.077 L168.46 235.897 Q169.166 235.613 169.779 235.468 Q170.393 235.324 170.902 235.324 Q172.244 235.324 173.043 235.995 Q173.842 236.666 173.842 237.789 Q173.842 238.321 173.639 238.802 Q173.442 239.276 172.916 239.924 Q172.771 240.092 171.996 240.897 Q171.22 241.695 169.808 243.136 Z" fill="#000000" fill-rule="evenodd" fill-opacity="1" /><polyline clip-path="url(#clip900)" style="stroke:#000000; stroke-width:1; stroke-opacity:1; fill:none" points="
  17.748,231.752 17.748,15.748 
  "/>
<polyline clip-path="url(#clip900)" style="stroke:#000000; stroke-width:1; stroke-opacity:1; fill:none" points="
  17.748,210.152 19.7933,210.152 
  "/>
<polyline clip-path="url(#clip900)" style="stroke:#000000; stroke-width:1; stroke-opacity:1; fill:none" points="
  17.748,166.951 19.7933,166.951 
  "/>
<polyline clip-path="url(#clip900)" style="stroke:#000000; stroke-width:1; stroke-opacity:1; fill:none" points="
  17.748,123.75 19.7933,123.75 
  "/>
<polyline clip-path="url(#clip900)" style="stroke:#000000; stroke-width:1; stroke-opacity:1; fill:none" points="
  17.748,80.5492 19.7933,80.5492 
  "/>
<polyline clip-path="url(#clip900)" style="stroke:#000000; stroke-width:1; stroke-opacity:1; fill:none" points="
  17.748,37.3484 19.7933,37.3484 
  "/>
<path clip-path="url(#clip900)" d="M 0 0 M0.224957 210.264 L7.6439 210.264 L7.6439 211.248 L0.224957 211.248 L0.224957 210.264 Z" fill="#000000" fill-rule="evenodd" fill-opacity="1" /><path clip-path="url(#clip900)" d="M 0 0 M9.91819 213.488 L13.998 213.488 L13.998 214.472 L8.51195 214.472 L8.51195 213.488 Q9.17746 212.799 10.3233 211.642 Q11.4749 210.479 11.77 210.143 Q12.3314 209.512 12.5513 209.078 Q12.777 208.638 12.777 208.216 Q12.777 207.527 12.2909 207.093 Q11.8105 206.659 11.0351 206.659 Q10.4853 206.659 9.8719 206.85 Q9.26426 207.041 8.56982 207.429 L8.56982 206.248 Q9.27583 205.965 9.88926 205.82 Q10.5027 205.675 11.0119 205.675 Q12.3545 205.675 13.1531 206.347 Q13.9517 207.018 13.9517 208.141 Q13.9517 208.673 13.7492 209.153 Q13.5524 209.628 13.0258 210.276 Q12.8811 210.444 12.1057 211.248 Q11.3302 212.047 9.91819 213.488 Z" fill="#000000" fill-rule="evenodd" fill-opacity="1" /><path clip-path="url(#clip900)" d="M 0 0 M0.132365 167.064 L7.55131 167.064 L7.55131 168.047 L0.132365 168.047 L0.132365 167.064 Z" fill="#000000" fill-rule="evenodd" fill-opacity="1" /><path clip-path="url(#clip900)" d="M 0 0 M9.02121 170.287 L10.9309 170.287 L10.9309 163.696 L8.85338 164.112 L8.85338 163.047 L10.9193 162.631 L12.0883 162.631 L12.0883 170.287 L13.998 170.287 L13.998 171.271 L9.02121 171.271 L9.02121 170.287 Z" fill="#000000" fill-rule="evenodd" fill-opacity="1" /><path clip-path="url(#clip900)" d="M 0 0 M11.0119 120.2 Q10.1092 120.2 9.65199 121.091 Q9.2006 121.976 9.2006 123.759 Q9.2006 125.535 9.65199 126.426 Q10.1092 127.312 11.0119 127.312 Q11.9205 127.312 12.3719 126.426 Q12.8291 125.535 12.8291 123.759 Q12.8291 121.976 12.3719 121.091 Q11.9205 120.2 11.0119 120.2 M11.0119 119.274 Q12.4645 119.274 13.2284 120.425 Q13.998 121.571 13.998 123.759 Q13.998 125.94 13.2284 127.092 Q12.4645 128.238 11.0119 128.238 Q9.5594 128.238 8.78973 127.092 Q8.02584 125.94 8.02584 123.759 Q8.02584 121.571 8.78973 120.425 Q9.5594 119.274 11.0119 119.274 Z" fill="#000000" fill-rule="evenodd" fill-opacity="1" /><path clip-path="url(#clip900)" d="M 0 0 M9.02121 83.8854 L10.9309 83.8854 L10.9309 77.294 L8.85338 77.7107 L8.85338 76.6459 L10.9193 76.2292 L12.0883 76.2292 L12.0883 83.8854 L13.998 83.8854 L13.998 84.8692 L9.02121 84.8692 L9.02121 83.8854 Z" fill="#000000" fill-rule="evenodd" fill-opacity="1" /><path clip-path="url(#clip900)" d="M 0 0 M9.91819 40.6846 L13.998 40.6846 L13.998 41.6684 L8.51195 41.6684 L8.51195 40.6846 Q9.17746 39.996 10.3233 38.8386 Q11.4749 37.6754 11.77 37.3397 Q12.3314 36.709 12.5513 36.2749 Q12.777 35.8351 12.777 35.4127 Q12.777 34.724 12.2909 34.29 Q11.8105 33.856 11.0351 33.856 Q10.4853 33.856 9.8719 34.0469 Q9.26426 34.2379 8.56982 34.6256 L8.56982 33.4451 Q9.27583 33.1615 9.88926 33.0169 Q10.5027 32.8722 11.0119 32.8722 Q12.3545 32.8722 13.1531 33.5435 Q13.9517 34.2148 13.9517 35.3374 Q13.9517 35.8698 13.7492 36.3502 Q13.5524 36.8247 13.0258 37.4728 Q12.8811 37.6407 12.1057 38.4451 Q11.3302 39.2437 9.91819 40.6846 Z" fill="#000000" fill-rule="evenodd" fill-opacity="1" /><path clip-path="url(#clip900)" d="M 0 0 M90.3036 1.36342 L92.7573 1.36342 L92.7573 2.19096 L91.3685 2.19096 L91.3685 11.1029 L92.7573 11.1029 L92.7573 11.9305 L90.3036 11.9305 L90.3036 1.36342 Z" fill="#000000" fill-rule="evenodd" fill-opacity="1" /><path clip-path="url(#clip900)" d="M 0 0 M94.2272 9.38421 L96.1369 9.38421 L96.1369 2.79281 L94.0594 3.20947 L94.0594 2.14466 L96.1254 1.728 L97.2943 1.728 L97.2943 9.38421 L99.2041 9.38421 L99.2041 10.368 L94.2272 10.368 L94.2272 9.38421 Z" fill="#000000" fill-rule="evenodd" fill-opacity="1" /><path clip-path="url(#clip900)" d="M 0 0 M100.593 8.8981 L101.814 8.8981 L101.814 9.89347 L100.865 11.7453 L100.118 11.7453 L100.593 9.89347 L100.593 8.8981 Z" fill="#000000" fill-rule="evenodd" fill-opacity="1" /><path clip-path="url(#clip900)" d="M 0 0 M107.051 9.38421 L108.961 9.38421 L108.961 2.79281 L106.883 3.20947 L106.883 2.14466 L108.949 1.728 L110.118 1.728 L110.118 9.38421 L112.028 9.38421 L112.028 10.368 L107.051 10.368 L107.051 9.38421 Z" fill="#000000" fill-rule="evenodd" fill-opacity="1" /><path clip-path="url(#clip900)" d="M 0 0 M115.633 1.36342 L115.633 11.9305 L113.18 11.9305 L113.18 11.1029 L114.563 11.1029 L114.563 2.19096 L113.18 2.19096 L113.18 1.36342 L115.633 1.36342 Z" fill="#000000" fill-rule="evenodd" fill-opacity="1" /><circle clip-path="url(#clip902)" cx="34.7921" cy="223.518" r="3" fill="#0000ff" fill-rule="evenodd" fill-opacity="1" stroke="none"/>
<path clip-path="url(#clip900)" d="M 0 0 M34.7921 215.094 L38.9588 215.094 L38.9588 215.467 L36.6064 221.574 L35.6906 221.574 L37.9041 215.832 L34.7921 215.832 L34.7921 215.094 Z" fill="#000000" fill-rule="evenodd" fill-opacity="1" /><circle clip-path="url(#clip902)" cx="34.7921" cy="148.692" r="3" fill="#0000ff" fill-rule="evenodd" fill-opacity="1" stroke="none"/>
<circle clip-path="url(#clip902)" cx="34.7921" cy="173.634" r="3" fill="#0000ff" fill-rule="evenodd" fill-opacity="1" stroke="none"/>
<circle clip-path="url(#clip902)" cx="68.8803" cy="148.692" r="3" fill="#0000ff" fill-rule="evenodd" fill-opacity="1" stroke="none"/>
<circle clip-path="url(#clip902)" cx="68.8803" cy="173.634" r="3" fill="#0000ff" fill-rule="evenodd" fill-opacity="1" stroke="none"/>
<circle clip-path="url(#clip902)" cx="102.969" cy="148.692" r="3" fill="#0000ff" fill-rule="evenodd" fill-opacity="1" stroke="none"/>
<circle clip-path="url(#clip902)" cx="102.969" cy="173.634" r="3" fill="#0000ff" fill-rule="evenodd" fill-opacity="1" stroke="none"/>
<circle clip-path="url(#clip902)" cx="34.7921" cy="73.866" r="3" fill="#0000ff" fill-rule="evenodd" fill-opacity="1" stroke="none"/>
<circle clip-path="url(#clip902)" cx="34.7921" cy="98.808" r="3" fill="#0000ff" fill-rule="evenodd" fill-opacity="1" stroke="none"/>
<circle clip-path="url(#clip902)" cx="68.8803" cy="223.518" r="3" fill="#0000ff" fill-rule="evenodd" fill-opacity="1" stroke="none"/>
<circle clip-path="url(#clip902)" cx="102.969" cy="223.518" r="3" fill="#0000ff" fill-rule="evenodd" fill-opacity="1" stroke="none"/>
<circle clip-path="url(#clip902)" cx="85.9244" cy="111.279" r="3" fill="#0000ff" fill-rule="evenodd" fill-opacity="1" stroke="none"/>
<circle clip-path="url(#clip902)" cx="85.9244" cy="136.221" r="3" fill="#0000ff" fill-rule="evenodd" fill-opacity="1" stroke="none"/>
<circle clip-path="url(#clip902)" cx="17.748" cy="186.105" r="3" fill="#0000ff" fill-rule="evenodd" fill-opacity="1" stroke="none"/>
<circle clip-path="url(#clip902)" cx="17.748" cy="211.047" r="3" fill="#0000ff" fill-rule="evenodd" fill-opacity="1" stroke="none"/>
<circle clip-path="url(#clip902)" cx="51.8362" cy="186.105" r="3" fill="#0000ff" fill-rule="evenodd" fill-opacity="1" stroke="none"/>
<circle clip-path="url(#clip902)" cx="51.8362" cy="211.047" r="3" fill="#0000ff" fill-rule="evenodd" fill-opacity="1" stroke="none"/>
<circle clip-path="url(#clip902)" cx="85.9244" cy="186.105" r="3" fill="#0000ff" fill-rule="evenodd" fill-opacity="1" stroke="none"/>
<circle clip-path="url(#clip902)" cx="85.9244" cy="211.047" r="3" fill="#0000ff" fill-rule="evenodd" fill-opacity="1" stroke="none"/>
<circle clip-path="url(#clip902)" cx="17.748" cy="111.279" r="3" fill="#0000ff" fill-rule="evenodd" fill-opacity="1" stroke="none"/>
<circle clip-path="url(#clip902)" cx="17.748" cy="136.221" r="3" fill="#0000ff" fill-rule="evenodd" fill-opacity="1" stroke="none"/>
<circle clip-path="url(#clip902)" cx="51.8362" cy="111.279" r="3" fill="#0000ff" fill-rule="evenodd" fill-opacity="1" stroke="none"/>
<circle clip-path="url(#clip902)" cx="51.8362" cy="136.221" r="3" fill="#0000ff" fill-rule="evenodd" fill-opacity="1" stroke="none"/>
<path clip-path="url(#clip900)" d="M 0 0 M34.918 146.01 L36.3503 146.01 L36.3503 141.067 L34.7921 141.379 L34.7921 140.58 L36.3416 140.268 L37.2183 140.268 L37.2183 146.01 L38.6506 146.01 L38.6506 146.748 L34.918 146.748 L34.918 146.01 Z" fill="#000000" fill-rule="evenodd" fill-opacity="1" /><path clip-path="url(#clip900)" d="M 0 0 M35.8468 170.952 L38.9067 170.952 L38.9067 171.69 L34.7921 171.69 L34.7921 170.952 Q35.2913 170.436 36.1506 169.568 Q37.0143 168.695 37.2357 168.443 Q37.6567 167.97 37.8216 167.645 Q37.9909 167.315 37.9909 166.998 Q37.9909 166.482 37.6263 166.156 Q37.2661 165.831 36.6845 165.831 Q36.2722 165.831 35.8121 165.974 Q35.3564 166.117 34.8355 166.408 L34.8355 165.522 Q35.365 165.31 35.8251 165.201 Q36.2852 165.093 36.6671 165.093 Q37.6741 165.093 38.273 165.596 Q38.872 166.1 38.872 166.942 Q38.872 167.341 38.7201 167.701 Q38.5725 168.057 38.1775 168.543 Q38.069 168.669 37.4874 169.272 Q36.9058 169.871 35.8468 170.952 Z" fill="#000000" fill-rule="evenodd" fill-opacity="1" /><path clip-path="url(#clip900)" d="M 0 0 M71.81 143.254 Q72.4393 143.389 72.7909 143.814 Q73.1468 144.239 73.1468 144.864 Q73.1468 145.824 72.4871 146.349 Q71.8273 146.874 70.6121 146.874 Q70.2041 146.874 69.7701 146.791 Q69.3404 146.713 68.8803 146.553 L68.8803 145.706 Q69.2449 145.919 69.6789 146.028 Q70.1129 146.136 70.586 146.136 Q71.4107 146.136 71.8404 145.81 Q72.2744 145.485 72.2744 144.864 Q72.2744 144.291 71.8708 143.97 Q71.4714 143.645 70.7553 143.645 L70.0001 143.645 L70.0001 142.924 L70.79 142.924 Q71.4367 142.924 71.7796 142.668 Q72.1225 142.408 72.1225 141.922 Q72.1225 141.422 71.7666 141.158 Q71.415 140.889 70.7553 140.889 Q70.3951 140.889 69.9827 140.967 Q69.5704 141.045 69.0756 141.21 L69.0756 140.429 Q69.5748 140.29 70.0088 140.22 Q70.4471 140.151 70.8334 140.151 Q71.8317 140.151 72.4133 140.607 Q72.9949 141.058 72.9949 141.83 Q72.9949 142.369 72.6867 142.742 Q72.3786 143.111 71.81 143.254 Z" fill="#000000" fill-rule="evenodd" fill-opacity="1" /><path clip-path="url(#clip900)" d="M 0 0 M71.8056 165.974 L69.5921 169.433 L71.8056 169.433 L71.8056 165.974 M71.5756 165.21 L72.678 165.21 L72.678 169.433 L73.6025 169.433 L73.6025 170.162 L72.678 170.162 L72.678 171.69 L71.8056 171.69 L71.8056 170.162 L68.8803 170.162 L68.8803 169.316 L71.5756 165.21 Z" fill="#000000" fill-rule="evenodd" fill-opacity="1" /><path clip-path="url(#clip900)" d="M 0 0 M103.242 140.268 L106.684 140.268 L106.684 141.006 L104.045 141.006 L104.045 142.594 Q104.236 142.529 104.427 142.499 Q104.618 142.464 104.809 142.464 Q105.894 142.464 106.528 143.059 Q107.161 143.653 107.161 144.669 Q107.161 145.715 106.51 146.297 Q105.859 146.874 104.674 146.874 Q104.266 146.874 103.841 146.804 Q103.42 146.735 102.969 146.596 L102.969 145.715 Q103.359 145.928 103.776 146.032 Q104.192 146.136 104.657 146.136 Q105.408 146.136 105.846 145.741 Q106.284 145.346 106.284 144.669 Q106.284 143.992 105.846 143.597 Q105.408 143.202 104.657 143.202 Q104.305 143.202 103.954 143.28 Q103.607 143.358 103.242 143.523 L103.242 140.268 Z" fill="#000000" fill-rule="evenodd" fill-opacity="1" /><path clip-path="url(#clip900)" d="M 0 0 M105.282 168.101 Q104.692 168.101 104.344 168.504 Q104.001 168.908 104.001 169.611 Q104.001 170.31 104.344 170.718 Q104.692 171.121 105.282 171.121 Q105.872 171.121 106.215 170.718 Q106.562 170.31 106.562 169.611 Q106.562 168.908 106.215 168.504 Q105.872 168.101 105.282 168.101 M107.022 165.353 L107.022 166.152 Q106.692 165.996 106.354 165.913 Q106.02 165.831 105.69 165.831 Q104.822 165.831 104.362 166.417 Q103.906 167.002 103.841 168.187 Q104.097 167.81 104.483 167.61 Q104.87 167.406 105.334 167.406 Q106.31 167.406 106.875 168.001 Q107.443 168.591 107.443 169.611 Q107.443 170.609 106.853 171.213 Q106.263 171.816 105.282 171.816 Q104.158 171.816 103.563 170.956 Q102.969 170.093 102.969 168.456 Q102.969 166.92 103.698 166.009 Q104.427 165.093 105.655 165.093 Q105.985 165.093 106.319 165.158 Q106.658 165.223 107.022 165.353 Z" fill="#000000" fill-rule="evenodd" fill-opacity="1" /><path clip-path="url(#clip900)" d="M 0 0 M34.7921 65.442 L38.9588 65.442 L38.9588 65.8153 L36.6064 71.922 L35.6906 71.922 L37.9041 66.1799 L34.7921 66.1799 L34.7921 65.442 Z" fill="#000000" fill-rule="evenodd" fill-opacity="1" /><path clip-path="url(#clip900)" d="M 0 0 M37.0143 93.7868 Q36.3893 93.7868 36.0291 94.121 Q35.6732 94.4552 35.6732 95.0411 Q35.6732 95.627 36.0291 95.9612 Q36.3893 96.2954 37.0143 96.2954 Q37.6393 96.2954 37.9996 95.9612 Q38.3598 95.6227 38.3598 95.0411 Q38.3598 94.4552 37.9996 94.121 Q37.6437 93.7868 37.0143 93.7868 M36.1376 93.4135 Q35.5734 93.2746 35.2565 92.8883 Q34.944 92.5021 34.944 91.9465 Q34.944 91.1696 35.4952 90.7182 Q36.0508 90.2668 37.0143 90.2668 Q37.9822 90.2668 38.5334 90.7182 Q39.0846 91.1696 39.0846 91.9465 Q39.0846 92.5021 38.7678 92.8883 Q38.4553 93.2746 37.8954 93.4135 Q38.5291 93.5611 38.8806 93.9908 Q39.2365 94.4205 39.2365 95.0411 Q39.2365 95.9829 38.6593 96.4864 Q38.0864 96.9899 37.0143 96.9899 Q35.9423 96.9899 35.365 96.4864 Q34.7921 95.9829 34.7921 95.0411 Q34.7921 94.4205 35.148 93.9908 Q35.5039 93.5611 36.1376 93.4135 M35.8164 92.029 Q35.8164 92.5324 36.1289 92.8146 Q36.4458 93.0967 37.0143 93.0967 Q37.5786 93.0967 37.8954 92.8146 Q38.2166 92.5324 38.2166 92.029 Q38.2166 91.5255 37.8954 91.2434 Q37.5786 90.9613 37.0143 90.9613 Q36.4458 90.9613 36.1289 91.2434 Q35.8164 91.5255 35.8164 92.029 Z" fill="#000000" fill-rule="evenodd" fill-opacity="1" /><path clip-path="url(#clip900)" d="M 0 0 M69.297 221.439 L69.297 220.641 Q69.6268 220.797 69.9654 220.88 Q70.3039 220.962 70.6294 220.962 Q71.4975 220.962 71.9532 220.38 Q72.4133 219.794 72.4784 218.605 Q72.2267 218.978 71.8404 219.178 Q71.4541 219.378 70.9853 219.378 Q70.0131 219.378 69.4445 218.792 Q68.8803 218.202 68.8803 217.182 Q68.8803 216.183 69.4706 215.58 Q70.0609 214.977 71.0418 214.977 Q72.1659 214.977 72.7562 215.84 Q73.3508 216.7 73.3508 218.34 Q73.3508 219.873 72.6216 220.788 Q71.8968 221.7 70.6685 221.7 Q70.3386 221.7 70.0001 221.635 Q69.6616 221.57 69.297 221.439 M71.0418 218.692 Q71.632 218.692 71.9749 218.288 Q72.3221 217.885 72.3221 217.182 Q72.3221 216.483 71.9749 216.079 Q71.632 215.671 71.0418 215.671 Q70.4515 215.671 70.1043 216.079 Q69.7614 216.483 69.7614 217.182 Q69.7614 217.885 70.1043 218.288 Q70.4515 218.692 71.0418 218.692 Z" fill="#000000" fill-rule="evenodd" fill-opacity="1" /><path clip-path="url(#clip900)" d="M 0 0 M103.094 220.836 L104.527 220.836 L104.527 215.893 L102.969 216.205 L102.969 215.406 L104.518 215.094 L105.395 215.094 L105.395 220.836 L106.827 220.836 L106.827 221.574 L103.094 221.574 L103.094 220.836 Z" fill="#000000" fill-rule="evenodd" fill-opacity="1" /><path clip-path="url(#clip900)" d="M 0 0 M107.929 220.836 L109.362 220.836 L109.362 215.893 L107.804 216.205 L107.804 215.406 L109.353 215.094 L110.23 215.094 L110.23 220.836 L111.662 220.836 L111.662 221.574 L107.929 221.574 L107.929 220.836 Z" fill="#000000" fill-rule="evenodd" fill-opacity="1" /><path clip-path="url(#clip900)" d="M 0 0 M86.0503 108.597 L87.4826 108.597 L87.4826 103.654 L85.9244 103.966 L85.9244 103.168 L87.4739 102.855 L88.3506 102.855 L88.3506 108.597 L89.7829 108.597 L89.7829 109.335 L86.0503 109.335 L86.0503 108.597 Z" fill="#000000" fill-rule="evenodd" fill-opacity="1" /><path clip-path="url(#clip900)" d="M 0 0 M93.3896 105.841 Q94.019 105.976 94.3705 106.401 Q94.7264 106.826 94.7264 107.451 Q94.7264 108.411 94.0667 108.936 Q93.407 109.461 92.1917 109.461 Q91.7838 109.461 91.3497 109.378 Q90.92 109.3 90.46 109.14 L90.46 108.293 Q90.8246 108.506 91.2586 108.615 Q91.6926 108.723 92.1657 108.723 Q92.9903 108.723 93.42 108.398 Q93.8541 108.072 93.8541 107.451 Q93.8541 106.878 93.4504 106.557 Q93.0511 106.232 92.335 106.232 L91.5798 106.232 L91.5798 105.511 L92.3697 105.511 Q93.0164 105.511 93.3593 105.255 Q93.7021 104.995 93.7021 104.509 Q93.7021 104.01 93.3462 103.745 Q92.9947 103.476 92.335 103.476 Q91.9747 103.476 91.5624 103.554 Q91.1501 103.632 90.6553 103.797 L90.6553 103.016 Q91.1544 102.877 91.5884 102.807 Q92.0268 102.738 92.4131 102.738 Q93.4113 102.738 93.9929 103.194 Q94.5745 103.645 94.5745 104.417 Q94.5745 104.956 94.2664 105.329 Q93.9582 105.698 93.3896 105.841 Z" fill="#000000" fill-rule="evenodd" fill-opacity="1" /><path clip-path="url(#clip900)" d="M 0 0 M86.0503 133.539 L87.4826 133.539 L87.4826 128.596 L85.9244 128.908 L85.9244 128.109 L87.4739 127.797 L88.3506 127.797 L88.3506 133.539 L89.7829 133.539 L89.7829 134.277 L86.0503 134.277 L86.0503 133.539 Z" fill="#000000" fill-rule="evenodd" fill-opacity="1" /><path clip-path="url(#clip900)" d="M 0 0 M93.1423 128.561 L90.9287 132.02 L93.1423 132.02 L93.1423 128.561 M92.9122 127.797 L94.0146 127.797 L94.0146 132.02 L94.9391 132.02 L94.9391 132.749 L94.0146 132.749 L94.0146 134.277 L93.1423 134.277 L93.1423 132.749 L90.2169 132.749 L90.2169 131.903 L92.9122 127.797 Z" fill="#000000" fill-rule="evenodd" fill-opacity="1" /><path clip-path="url(#clip900)" d="M 0 0 M17.8739 183.423 L19.3062 183.423 L19.3062 178.48 L17.748 178.792 L17.748 177.993 L19.2975 177.681 L20.1742 177.681 L20.1742 183.423 L21.6065 183.423 L21.6065 184.161 L17.8739 184.161 L17.8739 183.423 Z" fill="#000000" fill-rule="evenodd" fill-opacity="1" /><path clip-path="url(#clip900)" d="M 0 0 M22.5657 177.681 L26.0075 177.681 L26.0075 178.419 L23.3687 178.419 L23.3687 180.007 Q23.5596 179.942 23.7506 179.912 Q23.9416 179.877 24.1325 179.877 Q25.2176 179.877 25.8513 180.472 Q26.485 181.066 26.485 182.082 Q26.485 183.128 25.8339 183.71 Q25.1829 184.287 23.998 184.287 Q23.59 184.287 23.1647 184.217 Q22.7437 184.148 22.2923 184.009 L22.2923 183.128 Q22.6829 183.341 23.0996 183.445 Q23.5162 183.549 23.9806 183.549 Q24.7315 183.549 25.1699 183.154 Q25.6082 182.759 25.6082 182.082 Q25.6082 181.405 25.1699 181.01 Q24.7315 180.615 23.9806 180.615 Q23.6291 180.615 23.2775 180.693 Q22.9303 180.771 22.5657 180.936 L22.5657 177.681 Z" fill="#000000" fill-rule="evenodd" fill-opacity="1" /><path clip-path="url(#clip900)" d="M 0 0 M17.8739 208.365 L19.3062 208.365 L19.3062 203.422 L17.748 203.734 L17.748 202.935 L19.2975 202.623 L20.1742 202.623 L20.1742 208.365 L21.6065 208.365 L21.6065 209.103 L17.8739 209.103 L17.8739 208.365 Z" fill="#000000" fill-rule="evenodd" fill-opacity="1" /><path clip-path="url(#clip900)" d="M 0 0 M24.5405 205.514 Q23.9503 205.514 23.603 205.917 Q23.2602 206.321 23.2602 207.024 Q23.2602 207.723 23.603 208.131 Q23.9503 208.534 24.5405 208.534 Q25.1308 208.534 25.4737 208.131 Q25.8209 207.723 25.8209 207.024 Q25.8209 206.321 25.4737 205.917 Q25.1308 205.514 24.5405 205.514 M26.281 202.766 L26.281 203.565 Q25.9511 203.409 25.6126 203.326 Q25.2784 203.244 24.9485 203.244 Q24.0805 203.244 23.6204 203.83 Q23.1647 204.415 23.0996 205.6 Q23.3556 205.223 23.7419 205.023 Q24.1282 204.819 24.5926 204.819 Q25.5692 204.819 26.1334 205.414 Q26.702 206.004 26.702 207.024 Q26.702 208.022 26.1117 208.626 Q25.5214 209.229 24.5405 209.229 Q23.4164 209.229 22.8218 208.369 Q22.2272 207.506 22.2272 205.869 Q22.2272 204.333 22.9563 203.422 Q23.6855 202.506 24.9138 202.506 Q25.2437 202.506 25.5779 202.571 Q25.9164 202.636 26.281 202.766 Z" fill="#000000" fill-rule="evenodd" fill-opacity="1" /><path clip-path="url(#clip900)" d="M 0 0 M51.9621 183.423 L53.3944 183.423 L53.3944 178.48 L51.8362 178.792 L51.8362 177.993 L53.3857 177.681 L54.2624 177.681 L54.2624 183.423 L55.6947 183.423 L55.6947 184.161 L51.9621 184.161 L51.9621 183.423 Z" fill="#000000" fill-rule="evenodd" fill-opacity="1" /><path clip-path="url(#clip900)" d="M 0 0 M56.4239 177.681 L60.5905 177.681 L60.5905 178.054 L58.2381 184.161 L57.3223 184.161 L59.5358 178.419 L56.4239 178.419 L56.4239 177.681 Z" fill="#000000" fill-rule="evenodd" fill-opacity="1" /><path clip-path="url(#clip900)" d="M 0 0 M51.9621 208.365 L53.3944 208.365 L53.3944 203.422 L51.8362 203.734 L51.8362 202.935 L53.3857 202.623 L54.2624 202.623 L54.2624 208.365 L55.6947 208.365 L55.6947 209.103 L51.9621 209.103 L51.9621 208.365 Z" fill="#000000" fill-rule="evenodd" fill-opacity="1" /><path clip-path="url(#clip900)" d="M 0 0 M58.5202 206.026 Q57.8952 206.026 57.535 206.36 Q57.1791 206.694 57.1791 207.28 Q57.1791 207.866 57.535 208.2 Q57.8952 208.534 58.5202 208.534 Q59.1452 208.534 59.5055 208.2 Q59.8657 207.862 59.8657 207.28 Q59.8657 206.694 59.5055 206.36 Q59.1495 206.026 58.5202 206.026 M57.6435 205.652 Q57.0792 205.514 56.7624 205.127 Q56.4499 204.741 56.4499 204.185 Q56.4499 203.409 57.0011 202.957 Q57.5567 202.506 58.5202 202.506 Q59.4881 202.506 60.0393 202.957 Q60.5905 203.409 60.5905 204.185 Q60.5905 204.741 60.2737 205.127 Q59.9612 205.514 59.4013 205.652 Q60.035 205.8 60.3865 206.23 Q60.7424 206.659 60.7424 207.28 Q60.7424 208.222 60.1652 208.725 Q59.5923 209.229 58.5202 209.229 Q57.4482 209.229 56.8709 208.725 Q56.298 208.222 56.298 207.28 Q56.298 206.659 56.6539 206.23 Q57.0098 205.8 57.6435 205.652 M57.3223 204.268 Q57.3223 204.771 57.6348 205.053 Q57.9516 205.336 58.5202 205.336 Q59.0844 205.336 59.4013 205.053 Q59.7225 204.771 59.7225 204.268 Q59.7225 203.764 59.4013 203.482 Q59.0844 203.2 58.5202 203.2 Q57.9516 203.2 57.6348 203.482 Q57.3223 203.764 57.3223 204.268 Z" fill="#000000" fill-rule="evenodd" fill-opacity="1" /><path clip-path="url(#clip900)" d="M 0 0 M86.0503 183.423 L87.4826 183.423 L87.4826 178.48 L85.9244 178.792 L85.9244 177.993 L87.4739 177.681 L88.3506 177.681 L88.3506 183.423 L89.7829 183.423 L89.7829 184.161 L86.0503 184.161 L86.0503 183.423 Z" fill="#000000" fill-rule="evenodd" fill-opacity="1" /><path clip-path="url(#clip900)" d="M 0 0 M90.7595 184.026 L90.7595 183.228 Q91.0893 183.384 91.4279 183.467 Q91.7664 183.549 92.0919 183.549 Q92.96 183.549 93.4157 182.967 Q93.8758 182.381 93.9409 181.192 Q93.6891 181.565 93.3028 181.765 Q92.9166 181.965 92.4478 181.965 Q91.4756 181.965 90.907 181.379 Q90.3428 180.789 90.3428 179.769 Q90.3428 178.77 90.9331 178.167 Q91.5233 177.564 92.5042 177.564 Q93.6284 177.564 94.2186 178.427 Q94.8133 179.287 94.8133 180.927 Q94.8133 182.46 94.0841 183.375 Q93.3593 184.287 92.131 184.287 Q91.8011 184.287 91.4626 184.222 Q91.124 184.157 90.7595 184.026 M92.5042 181.279 Q93.0945 181.279 93.4374 180.875 Q93.7846 180.472 93.7846 179.769 Q93.7846 179.07 93.4374 178.666 Q93.0945 178.258 92.5042 178.258 Q91.914 178.258 91.5667 178.666 Q91.2239 179.07 91.2239 179.769 Q91.2239 180.472 91.5667 180.875 Q91.914 181.279 92.5042 181.279 Z" fill="#000000" fill-rule="evenodd" fill-opacity="1" /><path clip-path="url(#clip900)" d="M 0 0 M86.9791 208.365 L90.039 208.365 L90.039 209.103 L85.9244 209.103 L85.9244 208.365 Q86.4235 207.849 87.2829 206.981 Q88.1466 206.108 88.368 205.856 Q88.789 205.383 88.9539 205.058 Q89.1232 204.728 89.1232 204.411 Q89.1232 203.895 88.7586 203.569 Q88.3984 203.244 87.8168 203.244 Q87.4044 203.244 86.9444 203.387 Q86.4886 203.53 85.9678 203.821 L85.9678 202.935 Q86.4973 202.723 86.9574 202.614 Q87.4175 202.506 87.7994 202.506 Q88.8063 202.506 89.4053 203.009 Q90.0042 203.513 90.0042 204.355 Q90.0042 204.754 89.8523 205.114 Q89.7048 205.47 89.3098 205.956 Q89.2013 206.082 88.6197 206.685 Q88.0381 207.284 86.9791 208.365 Z" fill="#000000" fill-rule="evenodd" fill-opacity="1" /><path clip-path="url(#clip900)" d="M 0 0 M92.8645 203.2 Q92.1874 203.2 91.8445 203.869 Q91.506 204.533 91.506 205.869 Q91.506 207.202 91.8445 207.87 Q92.1874 208.534 92.8645 208.534 Q93.5459 208.534 93.8844 207.87 Q94.2273 207.202 94.2273 205.869 Q94.2273 204.533 93.8844 203.869 Q93.5459 203.2 92.8645 203.2 M92.8645 202.506 Q93.9539 202.506 94.5268 203.369 Q95.104 204.229 95.104 205.869 Q95.104 207.506 94.5268 208.369 Q93.9539 209.229 92.8645 209.229 Q91.7751 209.229 91.1978 208.369 Q90.6249 207.506 90.6249 205.869 Q90.6249 204.229 91.1978 203.369 Q91.7751 202.506 92.8645 202.506 Z" fill="#000000" fill-rule="evenodd" fill-opacity="1" /><path clip-path="url(#clip900)" d="M 0 0 M18.8027 108.597 L21.8626 108.597 L21.8626 109.335 L17.748 109.335 L17.748 108.597 Q18.2472 108.081 19.1065 107.213 Q19.9702 106.34 20.1916 106.088 Q20.6126 105.615 20.7775 105.29 Q20.9468 104.96 20.9468 104.643 Q20.9468 104.127 20.5822 103.801 Q20.222 103.476 19.6404 103.476 Q19.2281 103.476 18.768 103.619 Q18.3123 103.762 17.7914 104.053 L17.7914 103.168 Q18.3209 102.955 18.781 102.846 Q19.2411 102.738 19.623 102.738 Q20.63 102.738 21.2289 103.241 Q21.8279 103.745 21.8279 104.587 Q21.8279 104.986 21.676 105.346 Q21.5284 105.702 21.1334 106.188 Q21.0249 106.314 20.4433 106.917 Q19.8617 107.516 18.8027 108.597 Z" fill="#000000" fill-rule="evenodd" fill-opacity="1" /><path clip-path="url(#clip900)" d="M 0 0 M22.965 108.597 L24.3973 108.597 L24.3973 103.654 L22.8392 103.966 L22.8392 103.168 L24.3886 102.855 L25.2654 102.855 L25.2654 108.597 L26.6976 108.597 L26.6976 109.335 L22.965 109.335 L22.965 108.597 Z" fill="#000000" fill-rule="evenodd" fill-opacity="1" /><path clip-path="url(#clip900)" d="M 0 0 M18.8027 133.539 L21.8626 133.539 L21.8626 134.277 L17.748 134.277 L17.748 133.539 Q18.2472 133.023 19.1065 132.155 Q19.9702 131.282 20.1916 131.03 Q20.6126 130.557 20.7775 130.232 Q20.9468 129.902 20.9468 129.585 Q20.9468 129.069 20.5822 128.743 Q20.222 128.418 19.6404 128.418 Q19.2281 128.418 18.768 128.561 Q18.3123 128.704 17.7914 128.995 L17.7914 128.109 Q18.3209 127.897 18.781 127.788 Q19.2411 127.68 19.623 127.68 Q20.63 127.68 21.2289 128.183 Q21.8279 128.687 21.8279 129.529 Q21.8279 129.928 21.676 130.288 Q21.5284 130.644 21.1334 131.13 Q21.0249 131.256 20.4433 131.859 Q19.8617 132.458 18.8027 133.539 Z" fill="#000000" fill-rule="evenodd" fill-opacity="1" /><path clip-path="url(#clip900)" d="M 0 0 M23.5683 133.539 L26.6282 133.539 L26.6282 134.277 L22.5136 134.277 L22.5136 133.539 Q23.0128 133.023 23.8721 132.155 Q24.7358 131.282 24.9572 131.03 Q25.3782 130.557 25.5431 130.232 Q25.7124 129.902 25.7124 129.585 Q25.7124 129.069 25.3478 128.743 Q24.9876 128.418 24.406 128.418 Q23.9937 128.418 23.5336 128.561 Q23.0779 128.704 22.557 128.995 L22.557 128.109 Q23.0865 127.897 23.5466 127.788 Q24.0067 127.68 24.3886 127.68 Q25.3956 127.68 25.9945 128.183 Q26.5935 128.687 26.5935 129.529 Q26.5935 129.928 26.4416 130.288 Q26.294 130.644 25.899 131.13 Q25.7905 131.256 25.2089 131.859 Q24.6273 132.458 23.5683 133.539 Z" fill="#000000" fill-rule="evenodd" fill-opacity="1" /><path clip-path="url(#clip900)" d="M 0 0 M52.8909 108.597 L55.9508 108.597 L55.9508 109.335 L51.8362 109.335 L51.8362 108.597 Q52.3353 108.081 53.1947 107.213 Q54.0584 106.34 54.2798 106.088 Q54.7008 105.615 54.8657 105.29 Q55.035 104.96 55.035 104.643 Q55.035 104.127 54.6704 103.801 Q54.3102 103.476 53.7286 103.476 Q53.3162 103.476 52.8562 103.619 Q52.4005 103.762 51.8796 104.053 L51.8796 103.168 Q52.4091 102.955 52.8692 102.846 Q53.3293 102.738 53.7112 102.738 Q54.7181 102.738 55.3171 103.241 Q55.9161 103.745 55.9161 104.587 Q55.9161 104.986 55.7642 105.346 Q55.6166 105.702 55.2216 106.188 Q55.1131 106.314 54.5315 106.917 Q53.9499 107.516 52.8909 108.597 Z" fill="#000000" fill-rule="evenodd" fill-opacity="1" /><path clip-path="url(#clip900)" d="M 0 0 M59.5575 105.841 Q60.1869 105.976 60.5384 106.401 Q60.8943 106.826 60.8943 107.451 Q60.8943 108.411 60.2346 108.936 Q59.5749 109.461 58.3596 109.461 Q57.9516 109.461 57.5176 109.378 Q57.0879 109.3 56.6279 109.14 L56.6279 108.293 Q56.9924 108.506 57.4265 108.615 Q57.8605 108.723 58.3336 108.723 Q59.1582 108.723 59.5879 108.398 Q60.0219 108.072 60.0219 107.451 Q60.0219 106.878 59.6183 106.557 Q59.219 106.232 58.5029 106.232 L57.7476 106.232 L57.7476 105.511 L58.5376 105.511 Q59.1843 105.511 59.5272 105.255 Q59.87 104.995 59.87 104.509 Q59.87 104.01 59.5141 103.745 Q59.1626 103.476 58.5029 103.476 Q58.1426 103.476 57.7303 103.554 Q57.318 103.632 56.8232 103.797 L56.8232 103.016 Q57.3223 102.877 57.7563 102.807 Q58.1947 102.738 58.581 102.738 Q59.5792 102.738 60.1608 103.194 Q60.7424 103.645 60.7424 104.417 Q60.7424 104.956 60.4343 105.329 Q60.1261 105.698 59.5575 105.841 Z" fill="#000000" fill-rule="evenodd" fill-opacity="1" /><path clip-path="url(#clip900)" d="M 0 0 M52.8909 133.539 L55.9508 133.539 L55.9508 134.277 L51.8362 134.277 L51.8362 133.539 Q52.3353 133.023 53.1947 132.155 Q54.0584 131.282 54.2798 131.03 Q54.7008 130.557 54.8657 130.232 Q55.035 129.902 55.035 129.585 Q55.035 129.069 54.6704 128.743 Q54.3102 128.418 53.7286 128.418 Q53.3162 128.418 52.8562 128.561 Q52.4005 128.704 51.8796 128.995 L51.8796 128.109 Q52.4091 127.897 52.8692 127.788 Q53.3293 127.68 53.7112 127.68 Q54.7181 127.68 55.3171 128.183 Q55.9161 128.687 55.9161 129.529 Q55.9161 129.928 55.7642 130.288 Q55.6166 130.644 55.2216 131.13 Q55.1131 131.256 54.5315 131.859 Q53.9499 132.458 52.8909 133.539 Z" fill="#000000" fill-rule="evenodd" fill-opacity="1" /><path clip-path="url(#clip900)" d="M 0 0 M59.3101 128.561 L57.0966 132.02 L59.3101 132.02 L59.3101 128.561 M59.0801 127.797 L60.1825 127.797 L60.1825 132.02 L61.107 132.02 L61.107 132.749 L60.1825 132.749 L60.1825 134.277 L59.3101 134.277 L59.3101 132.749 L56.3848 132.749 L56.3848 131.903 L59.0801 127.797 Z" fill="#000000" fill-rule="evenodd" fill-opacity="1" /><circle clip-path="url(#clip902)" cx="34.7921" cy="23.9821" r="3" fill="#0000ff" fill-rule="evenodd" fill-opacity="1" stroke="none"/>
<circle clip-path="url(#clip902)" cx="68.8803" cy="23.9821" r="3" fill="#0000ff" fill-rule="evenodd" fill-opacity="1" stroke="none"/>
<circle clip-path="url(#clip902)" cx="102.969" cy="23.9821" r="3" fill="#0000ff" fill-rule="evenodd" fill-opacity="1" stroke="none"/>
<circle clip-path="url(#clip902)" cx="68.8803" cy="73.866" r="3" fill="#0000ff" fill-rule="evenodd" fill-opacity="1" stroke="none"/>
<circle clip-path="url(#clip902)" cx="68.8803" cy="98.808" r="3" fill="#0000ff" fill-rule="evenodd" fill-opacity="1" stroke="none"/>
<circle clip-path="url(#clip902)" cx="102.969" cy="73.866" r="3" fill="#0000ff" fill-rule="evenodd" fill-opacity="1" stroke="none"/>
<circle clip-path="url(#clip902)" cx="102.969" cy="98.808" r="3" fill="#0000ff" fill-rule="evenodd" fill-opacity="1" stroke="none"/>
<circle clip-path="url(#clip902)" cx="17.748" cy="36.453" r="3" fill="#0000ff" fill-rule="evenodd" fill-opacity="1" stroke="none"/>
<circle clip-path="url(#clip902)" cx="17.748" cy="61.395" r="3" fill="#0000ff" fill-rule="evenodd" fill-opacity="1" stroke="none"/>
<circle clip-path="url(#clip902)" cx="51.8362" cy="36.453" r="3" fill="#0000ff" fill-rule="evenodd" fill-opacity="1" stroke="none"/>
<circle clip-path="url(#clip902)" cx="51.8362" cy="61.395" r="3" fill="#0000ff" fill-rule="evenodd" fill-opacity="1" stroke="none"/>
<circle clip-path="url(#clip902)" cx="85.9244" cy="36.453" r="3" fill="#0000ff" fill-rule="evenodd" fill-opacity="1" stroke="none"/>
<circle clip-path="url(#clip902)" cx="85.9244" cy="61.395" r="3" fill="#0000ff" fill-rule="evenodd" fill-opacity="1" stroke="none"/>
<path clip-path="url(#clip900)" d="M 0 0 M35.8468 21.3002 L38.9067 21.3002 L38.9067 22.0381 L34.7921 22.0381 L34.7921 21.3002 Q35.2913 20.7837 36.1506 19.9157 Q37.0143 19.0433 37.2357 18.7915 Q37.6567 18.3185 37.8216 17.9929 Q37.9909 17.6631 37.9909 17.3462 Q37.9909 16.8297 37.6263 16.5042 Q37.2661 16.1787 36.6845 16.1787 Q36.2722 16.1787 35.8121 16.3219 Q35.3564 16.4652 34.8355 16.756 L34.8355 15.8706 Q35.365 15.6579 35.8251 15.5494 Q36.2852 15.4409 36.6671 15.4409 Q37.6741 15.4409 38.273 15.9443 Q38.872 16.4478 38.872 17.2898 Q38.872 17.6891 38.7201 18.0494 Q38.5725 18.4053 38.1775 18.8914 Q38.069 19.0172 37.4874 19.6205 Q36.9058 20.2195 35.8468 21.3002 Z" fill="#000000" fill-rule="evenodd" fill-opacity="1" /><path clip-path="url(#clip900)" d="M 0 0 M71.8056 16.3219 L69.5921 19.7811 L71.8056 19.7811 L71.8056 16.3219 M71.5756 15.5581 L72.678 15.5581 L72.678 19.7811 L73.6025 19.7811 L73.6025 20.5103 L72.678 20.5103 L72.678 22.0381 L71.8056 22.0381 L71.8056 20.5103 L68.8803 20.5103 L68.8803 19.6639 L71.5756 15.5581 Z" fill="#000000" fill-rule="evenodd" fill-opacity="1" /><path clip-path="url(#clip900)" d="M 0 0 M105.282 18.4487 Q104.692 18.4487 104.344 18.8523 Q104.001 19.256 104.001 19.9591 Q104.001 20.6579 104.344 21.0658 Q104.692 21.4695 105.282 21.4695 Q105.872 21.4695 106.215 21.0658 Q106.562 20.6579 106.562 19.9591 Q106.562 19.256 106.215 18.8523 Q105.872 18.4487 105.282 18.4487 M107.022 15.7013 L107.022 16.4999 Q106.692 16.3436 106.354 16.2612 Q106.02 16.1787 105.69 16.1787 Q104.822 16.1787 104.362 16.7646 Q103.906 17.3506 103.841 18.5355 Q104.097 18.1579 104.483 17.9582 Q104.87 17.7542 105.334 17.7542 Q106.31 17.7542 106.875 18.3488 Q107.443 18.9391 107.443 19.9591 Q107.443 20.9573 106.853 21.5606 Q106.263 22.1639 105.282 22.1639 Q104.158 22.1639 103.563 21.3046 Q102.969 20.4408 102.969 18.8046 Q102.969 17.2681 103.698 16.3567 Q104.427 15.4409 105.655 15.4409 Q105.985 15.4409 106.319 15.506 Q106.658 15.5711 107.022 15.7013 Z" fill="#000000" fill-rule="evenodd" fill-opacity="1" /><path clip-path="url(#clip900)" d="M 0 0 M69.297 71.7875 L69.297 70.9889 Q69.6268 71.1451 69.9654 71.2276 Q70.3039 71.3101 70.6294 71.3101 Q71.4975 71.3101 71.9532 70.7285 Q72.4133 70.1425 72.4784 68.9533 Q72.2267 69.3266 71.8404 69.5262 Q71.4541 69.7259 70.9853 69.7259 Q70.0131 69.7259 69.4445 69.1399 Q68.8803 68.5496 68.8803 67.5297 Q68.8803 66.5314 69.4706 65.9281 Q70.0609 65.3248 71.0418 65.3248 Q72.1659 65.3248 72.7562 66.1886 Q73.3508 67.0479 73.3508 68.6885 Q73.3508 70.2206 72.6216 71.1364 Q71.8968 72.0479 70.6685 72.0479 Q70.3386 72.0479 70.0001 71.9828 Q69.6616 71.9177 69.297 71.7875 M71.0418 69.0401 Q71.632 69.0401 71.9749 68.6365 Q72.3221 68.2328 72.3221 67.5297 Q72.3221 66.8309 71.9749 66.4273 Q71.632 66.0193 71.0418 66.0193 Q70.4515 66.0193 70.1043 66.4273 Q69.7614 66.8309 69.7614 67.5297 Q69.7614 68.2328 70.1043 68.6365 Q70.4515 69.0401 71.0418 69.0401 Z" fill="#000000" fill-rule="evenodd" fill-opacity="1" /><path clip-path="url(#clip900)" d="M 0 0 M69.0062 96.1262 L70.4385 96.1262 L70.4385 91.1826 L68.8803 91.4951 L68.8803 90.6965 L70.4298 90.384 L71.3065 90.384 L71.3065 96.1262 L72.7388 96.1262 L72.7388 96.864 L69.0062 96.864 L69.0062 96.1262 Z" fill="#000000" fill-rule="evenodd" fill-opacity="1" /><path clip-path="url(#clip900)" d="M 0 0 M75.5643 90.9613 Q74.8872 90.9613 74.5443 91.6297 Q74.2058 92.2937 74.2058 93.6305 Q74.2058 94.963 74.5443 95.6314 Q74.8872 96.2954 75.5643 96.2954 Q76.2457 96.2954 76.5843 95.6314 Q76.9271 94.963 76.9271 93.6305 Q76.9271 92.2937 76.5843 91.6297 Q76.2457 90.9613 75.5643 90.9613 M75.5643 90.2668 Q76.6537 90.2668 77.2266 91.1305 Q77.8039 91.9899 77.8039 93.6305 Q77.8039 95.2668 77.2266 96.1305 Q76.6537 96.9899 75.5643 96.9899 Q74.4749 96.9899 73.8976 96.1305 Q73.3247 95.2668 73.3247 93.6305 Q73.3247 91.9899 73.8976 91.1305 Q74.4749 90.2668 75.5643 90.2668 Z" fill="#000000" fill-rule="evenodd" fill-opacity="1" /><path clip-path="url(#clip900)" d="M 0 0 M103.094 71.1842 L104.527 71.1842 L104.527 66.2406 L102.969 66.5531 L102.969 65.7545 L104.518 65.442 L105.395 65.442 L105.395 71.1842 L106.827 71.1842 L106.827 71.922 L103.094 71.922 L103.094 71.1842 Z" fill="#000000" fill-rule="evenodd" fill-opacity="1" /><path clip-path="url(#clip900)" d="M 0 0 M107.929 71.1842 L109.362 71.1842 L109.362 66.2406 L107.804 66.5531 L107.804 65.7545 L109.353 65.442 L110.23 65.442 L110.23 71.1842 L111.662 71.1842 L111.662 71.922 L107.929 71.922 L107.929 71.1842 Z" fill="#000000" fill-rule="evenodd" fill-opacity="1" /><path clip-path="url(#clip900)" d="M 0 0 M103.094 96.1262 L104.527 96.1262 L104.527 91.1826 L102.969 91.4951 L102.969 90.6965 L104.518 90.384 L105.395 90.384 L105.395 96.1262 L106.827 96.1262 L106.827 96.864 L103.094 96.864 L103.094 96.1262 Z" fill="#000000" fill-rule="evenodd" fill-opacity="1" /><path clip-path="url(#clip900)" d="M 0 0 M108.533 96.1262 L111.593 96.1262 L111.593 96.864 L107.478 96.864 L107.478 96.1262 Q107.977 95.6097 108.837 94.7416 Q109.7 93.8692 109.922 93.6175 Q110.343 93.1444 110.508 92.8189 Q110.677 92.489 110.677 92.1722 Q110.677 91.6557 110.312 91.3302 Q109.952 91.0047 109.37 91.0047 Q108.958 91.0047 108.498 91.1479 Q108.042 91.2911 107.521 91.5819 L107.521 90.6965 Q108.051 90.4838 108.511 90.3753 Q108.971 90.2668 109.353 90.2668 Q110.36 90.2668 110.959 90.7703 Q111.558 91.2738 111.558 92.1158 Q111.558 92.5151 111.406 92.8753 Q111.258 93.2312 110.863 93.7173 Q110.755 93.8432 110.173 94.4465 Q109.592 95.0454 108.533 96.1262 Z" fill="#000000" fill-rule="evenodd" fill-opacity="1" /><path clip-path="url(#clip900)" d="M 0 0 M17.8739 33.7712 L19.3062 33.7712 L19.3062 28.8277 L17.748 29.1402 L17.748 28.3415 L19.2975 28.029 L20.1742 28.029 L20.1742 33.7712 L21.6065 33.7712 L21.6065 34.509 L17.8739 34.509 L17.8739 33.7712 Z" fill="#000000" fill-rule="evenodd" fill-opacity="1" /><path clip-path="url(#clip900)" d="M 0 0 M22.5657 28.029 L26.0075 28.029 L26.0075 28.7669 L23.3687 28.7669 L23.3687 30.3554 Q23.5596 30.2903 23.7506 30.2599 Q23.9416 30.2252 24.1325 30.2252 Q25.2176 30.2252 25.8513 30.8198 Q26.485 31.4144 26.485 32.4301 Q26.485 33.4761 25.8339 34.0577 Q25.1829 34.6349 23.998 34.6349 Q23.59 34.6349 23.1647 34.5655 Q22.7437 34.496 22.2923 34.3571 L22.2923 33.4761 Q22.6829 33.6887 23.0996 33.7929 Q23.5162 33.8971 23.9806 33.8971 Q24.7315 33.8971 25.1699 33.5021 Q25.6082 33.1071 25.6082 32.4301 Q25.6082 31.753 25.1699 31.358 Q24.7315 30.9631 23.9806 30.9631 Q23.6291 30.9631 23.2775 31.0412 Q22.9303 31.1193 22.5657 31.2842 L22.5657 28.029 Z" fill="#000000" fill-rule="evenodd" fill-opacity="1" /><path clip-path="url(#clip900)" d="M 0 0 M17.8739 58.7132 L19.3062 58.7132 L19.3062 53.7696 L17.748 54.0821 L17.748 53.2835 L19.2975 52.971 L20.1742 52.971 L20.1742 58.7132 L21.6065 58.7132 L21.6065 59.451 L17.8739 59.451 L17.8739 58.7132 Z" fill="#000000" fill-rule="evenodd" fill-opacity="1" /><path clip-path="url(#clip900)" d="M 0 0 M24.5405 55.8616 Q23.9503 55.8616 23.603 56.2653 Q23.2602 56.6689 23.2602 57.3721 Q23.2602 58.0708 23.603 58.4788 Q23.9503 58.8825 24.5405 58.8825 Q25.1308 58.8825 25.4737 58.4788 Q25.8209 58.0708 25.8209 57.3721 Q25.8209 56.6689 25.4737 56.2653 Q25.1308 55.8616 24.5405 55.8616 M26.281 53.1143 L26.281 53.9129 Q25.9511 53.7566 25.6126 53.6742 Q25.2784 53.5917 24.9485 53.5917 Q24.0805 53.5917 23.6204 54.1776 Q23.1647 54.7636 23.0996 55.9484 Q23.3556 55.5708 23.7419 55.3712 Q24.1282 55.1672 24.5926 55.1672 Q25.5692 55.1672 26.1334 55.7618 Q26.702 56.3521 26.702 57.3721 Q26.702 58.3703 26.1117 58.9736 Q25.5214 59.5769 24.5405 59.5769 Q23.4164 59.5769 22.8218 58.7175 Q22.2272 57.8538 22.2272 56.2175 Q22.2272 54.6811 22.9563 53.7696 Q23.6855 52.8538 24.9138 52.8538 Q25.2437 52.8538 25.5779 52.919 Q25.9164 52.9841 26.281 53.1143 Z" fill="#000000" fill-rule="evenodd" fill-opacity="1" /><path clip-path="url(#clip900)" d="M 0 0 M51.9621 33.7712 L53.3944 33.7712 L53.3944 28.8277 L51.8362 29.1402 L51.8362 28.3415 L53.3857 28.029 L54.2624 28.029 L54.2624 33.7712 L55.6947 33.7712 L55.6947 34.509 L51.9621 34.509 L51.9621 33.7712 Z" fill="#000000" fill-rule="evenodd" fill-opacity="1" /><path clip-path="url(#clip900)" d="M 0 0 M56.4239 28.029 L60.5905 28.029 L60.5905 28.4023 L58.2381 34.509 L57.3223 34.509 L59.5358 28.7669 L56.4239 28.7669 L56.4239 28.029 Z" fill="#000000" fill-rule="evenodd" fill-opacity="1" /><path clip-path="url(#clip900)" d="M 0 0 M51.9621 58.7132 L53.3944 58.7132 L53.3944 53.7696 L51.8362 54.0821 L51.8362 53.2835 L53.3857 52.971 L54.2624 52.971 L54.2624 58.7132 L55.6947 58.7132 L55.6947 59.451 L51.9621 59.451 L51.9621 58.7132 Z" fill="#000000" fill-rule="evenodd" fill-opacity="1" /><path clip-path="url(#clip900)" d="M 0 0 M58.5202 56.3738 Q57.8952 56.3738 57.535 56.708 Q57.1791 57.0422 57.1791 57.6281 Q57.1791 58.2141 57.535 58.5483 Q57.8952 58.8825 58.5202 58.8825 Q59.1452 58.8825 59.5055 58.5483 Q59.8657 58.2097 59.8657 57.6281 Q59.8657 57.0422 59.5055 56.708 Q59.1495 56.3738 58.5202 56.3738 M57.6435 56.0005 Q57.0792 55.8616 56.7624 55.4754 Q56.4499 55.0891 56.4499 54.5335 Q56.4499 53.7566 57.0011 53.3052 Q57.5567 52.8538 58.5202 52.8538 Q59.4881 52.8538 60.0393 53.3052 Q60.5905 53.7566 60.5905 54.5335 Q60.5905 55.0891 60.2737 55.4754 Q59.9612 55.8616 59.4013 56.0005 Q60.035 56.1481 60.3865 56.5778 Q60.7424 57.0075 60.7424 57.6281 Q60.7424 58.57 60.1652 59.0734 Q59.5923 59.5769 58.5202 59.5769 Q57.4482 59.5769 56.8709 59.0734 Q56.298 58.57 56.298 57.6281 Q56.298 57.0075 56.6539 56.5778 Q57.0098 56.1481 57.6435 56.0005 M57.3223 54.616 Q57.3223 55.1195 57.6348 55.4016 Q57.9516 55.6837 58.5202 55.6837 Q59.0844 55.6837 59.4013 55.4016 Q59.7225 55.1195 59.7225 54.616 Q59.7225 54.1125 59.4013 53.8304 Q59.0844 53.5483 58.5202 53.5483 Q57.9516 53.5483 57.6348 53.8304 Q57.3223 54.1125 57.3223 54.616 Z" fill="#000000" fill-rule="evenodd" fill-opacity="1" /><path clip-path="url(#clip900)" d="M 0 0 M86.0503 33.7712 L87.4826 33.7712 L87.4826 28.8277 L85.9244 29.1402 L85.9244 28.3415 L87.4739 28.029 L88.3506 28.029 L88.3506 33.7712 L89.7829 33.7712 L89.7829 34.509 L86.0503 34.509 L86.0503 33.7712 Z" fill="#000000" fill-rule="evenodd" fill-opacity="1" /><path clip-path="url(#clip900)" d="M 0 0 M90.7595 34.3745 L90.7595 33.5759 Q91.0893 33.7321 91.4279 33.8146 Q91.7664 33.8971 92.0919 33.8971 Q92.96 33.8971 93.4157 33.3155 Q93.8758 32.7295 93.9409 31.5403 Q93.6891 31.9136 93.3028 32.1132 Q92.9166 32.3129 92.4478 32.3129 Q91.4756 32.3129 90.907 31.7269 Q90.3428 31.1367 90.3428 30.1167 Q90.3428 29.1185 90.9331 28.5152 Q91.5233 27.9119 92.5042 27.9119 Q93.6284 27.9119 94.2186 28.7756 Q94.8133 29.6349 94.8133 31.2756 Q94.8133 32.8077 94.0841 33.7235 Q93.3593 34.6349 92.131 34.6349 Q91.8011 34.6349 91.4626 34.5698 Q91.124 34.5047 90.7595 34.3745 M92.5042 31.6271 Q93.0945 31.6271 93.4374 31.2235 Q93.7846 30.8198 93.7846 30.1167 Q93.7846 29.4179 93.4374 29.0143 Q93.0945 28.6063 92.5042 28.6063 Q91.914 28.6063 91.5667 29.0143 Q91.2239 29.4179 91.2239 30.1167 Q91.2239 30.8198 91.5667 31.2235 Q91.914 31.6271 92.5042 31.6271 Z" fill="#000000" fill-rule="evenodd" fill-opacity="1" /><path clip-path="url(#clip900)" d="M 0 0 M86.9791 58.7132 L90.039 58.7132 L90.039 59.451 L85.9244 59.451 L85.9244 58.7132 Q86.4235 58.1967 87.2829 57.3286 Q88.1466 56.4563 88.368 56.2045 Q88.789 55.7314 88.9539 55.4059 Q89.1232 55.0761 89.1232 54.7592 Q89.1232 54.2427 88.7586 53.9172 Q88.3984 53.5917 87.8168 53.5917 Q87.4044 53.5917 86.9444 53.7349 Q86.4886 53.8781 85.9678 54.1689 L85.9678 53.2835 Q86.4973 53.0709 86.9574 52.9624 Q87.4175 52.8538 87.7994 52.8538 Q88.8063 52.8538 89.4053 53.3573 Q90.0042 53.8608 90.0042 54.7028 Q90.0042 55.1021 89.8523 55.4623 Q89.7048 55.8182 89.3098 56.3043 Q89.2013 56.4302 88.6197 57.0335 Q88.0381 57.6325 86.9791 58.7132 Z" fill="#000000" fill-rule="evenodd" fill-opacity="1" /><path clip-path="url(#clip900)" d="M 0 0 M92.8645 53.5483 Q92.1874 53.5483 91.8445 54.2167 Q91.506 54.8807 91.506 56.2175 Q91.506 57.55 91.8445 58.2184 Q92.1874 58.8825 92.8645 58.8825 Q93.5459 58.8825 93.8844 58.2184 Q94.2273 57.55 94.2273 56.2175 Q94.2273 54.8807 93.8844 54.2167 Q93.5459 53.5483 92.8645 53.5483 M92.8645 52.8538 Q93.9539 52.8538 94.5268 53.7176 Q95.104 54.5769 95.104 56.2175 Q95.104 57.8538 94.5268 58.7175 Q93.9539 59.5769 92.8645 59.5769 Q91.7751 59.5769 91.1978 58.7175 Q90.6249 57.8538 90.6249 56.2175 Q90.6249 54.5769 91.1978 53.7176 Q91.7751 52.8538 92.8645 52.8538 Z" fill="#000000" fill-rule="evenodd" fill-opacity="1" /><circle clip-path="url(#clip902)" cx="137.057" cy="223.518" r="3" fill="#0000ff" fill-rule="evenodd" fill-opacity="1" stroke="none"/>
<circle clip-path="url(#clip902)" cx="171.145" cy="223.518" r="3" fill="#0000ff" fill-rule="evenodd" fill-opacity="1" stroke="none"/>
<circle clip-path="url(#clip902)" cx="137.057" cy="148.692" r="3" fill="#0000ff" fill-rule="evenodd" fill-opacity="1" stroke="none"/>
<circle clip-path="url(#clip902)" cx="137.057" cy="173.634" r="3" fill="#0000ff" fill-rule="evenodd" fill-opacity="1" stroke="none"/>
<circle clip-path="url(#clip902)" cx="188.189" cy="186.105" r="3" fill="#0000ff" fill-rule="evenodd" fill-opacity="1" stroke="none"/>
<circle clip-path="url(#clip902)" cx="188.189" cy="211.047" r="3" fill="#0000ff" fill-rule="evenodd" fill-opacity="1" stroke="none"/>
<circle clip-path="url(#clip902)" cx="120.013" cy="186.105" r="3" fill="#0000ff" fill-rule="evenodd" fill-opacity="1" stroke="none"/>
<circle clip-path="url(#clip902)" cx="120.013" cy="211.047" r="3" fill="#0000ff" fill-rule="evenodd" fill-opacity="1" stroke="none"/>
<circle clip-path="url(#clip902)" cx="154.101" cy="186.105" r="3" fill="#0000ff" fill-rule="evenodd" fill-opacity="1" stroke="none"/>
<circle clip-path="url(#clip902)" cx="154.101" cy="211.047" r="3" fill="#0000ff" fill-rule="evenodd" fill-opacity="1" stroke="none"/>
<path clip-path="url(#clip900)" d="M 0 0 M137.183 220.836 L138.615 220.836 L138.615 215.893 L137.057 216.205 L137.057 215.406 L138.606 215.094 L139.483 215.094 L139.483 220.836 L140.915 220.836 L140.915 221.574 L137.183 221.574 L137.183 220.836 Z" fill="#000000" fill-rule="evenodd" fill-opacity="1" /><path clip-path="url(#clip900)" d="M 0 0 M174.075 218.08 Q174.704 218.215 175.055 218.64 Q175.411 219.065 175.411 219.69 Q175.411 220.649 174.752 221.175 Q174.092 221.7 172.877 221.7 Q172.469 221.7 172.035 221.617 Q171.605 221.539 171.145 221.379 L171.145 220.532 Q171.509 220.745 171.943 220.853 Q172.378 220.962 172.851 220.962 Q173.675 220.962 174.105 220.636 Q174.539 220.311 174.539 219.69 Q174.539 219.117 174.135 218.796 Q173.736 218.471 173.02 218.471 L172.265 218.471 L172.265 217.75 L173.055 217.75 Q173.701 217.75 174.044 217.494 Q174.387 217.234 174.387 216.748 Q174.387 216.248 174.031 215.984 Q173.68 215.715 173.02 215.715 Q172.66 215.715 172.247 215.793 Q171.835 215.871 171.34 216.036 L171.34 215.255 Q171.839 215.116 172.273 215.046 Q172.712 214.977 173.098 214.977 Q174.096 214.977 174.678 215.432 Q175.259 215.884 175.259 216.656 Q175.259 217.195 174.951 217.568 Q174.643 217.937 174.075 218.08 Z" fill="#000000" fill-rule="evenodd" fill-opacity="1" /><path clip-path="url(#clip900)" d="M 0 0 M137.057 140.268 L141.223 140.268 L141.223 140.641 L138.871 146.748 L137.955 146.748 L140.169 141.006 L137.057 141.006 L137.057 140.268 Z" fill="#000000" fill-rule="evenodd" fill-opacity="1" /><path clip-path="url(#clip900)" d="M 0 0 M139.279 168.613 Q138.654 168.613 138.294 168.947 Q137.938 169.281 137.938 169.867 Q137.938 170.453 138.294 170.787 Q138.654 171.121 139.279 171.121 Q139.904 171.121 140.264 170.787 Q140.624 170.449 140.624 169.867 Q140.624 169.281 140.264 168.947 Q139.908 168.613 139.279 168.613 M138.402 168.239 Q137.838 168.101 137.521 167.714 Q137.209 167.328 137.209 166.772 Q137.209 165.996 137.76 165.544 Q138.315 165.093 139.279 165.093 Q140.247 165.093 140.798 165.544 Q141.349 165.996 141.349 166.772 Q141.349 167.328 141.032 167.714 Q140.72 168.101 140.16 168.239 Q140.794 168.387 141.145 168.817 Q141.501 169.246 141.501 169.867 Q141.501 170.809 140.924 171.312 Q140.351 171.816 139.279 171.816 Q138.207 171.816 137.63 171.312 Q137.057 170.809 137.057 169.867 Q137.057 169.246 137.413 168.817 Q137.768 168.387 138.402 168.239 M138.081 166.855 Q138.081 167.358 138.393 167.641 Q138.71 167.923 139.279 167.923 Q139.843 167.923 140.16 167.641 Q140.481 167.358 140.481 166.855 Q140.481 166.351 140.16 166.069 Q139.843 165.787 139.279 165.787 Q138.71 165.787 138.393 166.069 Q138.081 166.351 138.081 166.855 Z" fill="#000000" fill-rule="evenodd" fill-opacity="1" /><path clip-path="url(#clip900)" d="M 0 0 M188.315 183.423 L189.747 183.423 L189.747 178.48 L188.189 178.792 L188.189 177.993 L189.738 177.681 L190.615 177.681 L190.615 183.423 L192.047 183.423 L192.047 184.161 L188.315 184.161 L188.315 183.423 Z" fill="#000000" fill-rule="evenodd" fill-opacity="1" /><path clip-path="url(#clip900)" d="M 0 0 M195.654 180.667 Q196.284 180.802 196.635 181.227 Q196.991 181.652 196.991 182.277 Q196.991 183.236 196.331 183.762 Q195.672 184.287 194.456 184.287 Q194.048 184.287 193.614 184.204 Q193.185 184.126 192.725 183.966 L192.725 183.119 Q193.089 183.332 193.523 183.44 Q193.957 183.549 194.43 183.549 Q195.255 183.549 195.685 183.223 Q196.119 182.898 196.119 182.277 Q196.119 181.704 195.715 181.383 Q195.316 181.058 194.6 181.058 L193.844 181.058 L193.844 180.337 L194.634 180.337 Q195.281 180.337 195.624 180.081 Q195.967 179.821 195.967 179.335 Q195.967 178.835 195.611 178.571 Q195.259 178.302 194.6 178.302 Q194.239 178.302 193.827 178.38 Q193.415 178.458 192.92 178.623 L192.92 177.842 Q193.419 177.703 193.853 177.633 Q194.291 177.564 194.678 177.564 Q195.676 177.564 196.258 178.02 Q196.839 178.471 196.839 179.243 Q196.839 179.782 196.531 180.155 Q196.223 180.524 195.654 180.667 Z" fill="#000000" fill-rule="evenodd" fill-opacity="1" /><path clip-path="url(#clip900)" d="M 0 0 M188.315 208.365 L189.747 208.365 L189.747 203.422 L188.189 203.734 L188.189 202.935 L189.738 202.623 L190.615 202.623 L190.615 208.365 L192.047 208.365 L192.047 209.103 L188.315 209.103 L188.315 208.365 Z" fill="#000000" fill-rule="evenodd" fill-opacity="1" /><path clip-path="url(#clip900)" d="M 0 0 M195.407 203.387 L193.193 206.846 L195.407 206.846 L195.407 203.387 M195.177 202.623 L196.279 202.623 L196.279 206.846 L197.204 206.846 L197.204 207.575 L196.279 207.575 L196.279 209.103 L195.407 209.103 L195.407 207.575 L192.481 207.575 L192.481 206.729 L195.177 202.623 Z" fill="#000000" fill-rule="evenodd" fill-opacity="1" /><path clip-path="url(#clip900)" d="M 0 0 M121.067 183.423 L124.127 183.423 L124.127 184.161 L120.013 184.161 L120.013 183.423 Q120.512 182.907 121.371 182.039 Q122.235 181.166 122.456 180.914 Q122.877 180.441 123.042 180.116 Q123.211 179.786 123.211 179.469 Q123.211 178.953 122.847 178.627 Q122.487 178.302 121.905 178.302 Q121.493 178.302 121.033 178.445 Q120.577 178.588 120.056 178.879 L120.056 177.993 Q120.586 177.781 121.046 177.672 Q121.506 177.564 121.888 177.564 Q122.895 177.564 123.493 178.067 Q124.092 178.571 124.092 179.413 Q124.092 179.812 123.941 180.172 Q123.793 180.528 123.398 181.014 Q123.289 181.14 122.708 181.743 Q122.126 182.342 121.067 183.423 Z" fill="#000000" fill-rule="evenodd" fill-opacity="1" /><path clip-path="url(#clip900)" d="M 0 0 M125.23 183.423 L126.662 183.423 L126.662 178.48 L125.104 178.792 L125.104 177.993 L126.653 177.681 L127.53 177.681 L127.53 183.423 L128.962 183.423 L128.962 184.161 L125.23 184.161 L125.23 183.423 Z" fill="#000000" fill-rule="evenodd" fill-opacity="1" /><path clip-path="url(#clip900)" d="M 0 0 M121.067 208.365 L124.127 208.365 L124.127 209.103 L120.013 209.103 L120.013 208.365 Q120.512 207.849 121.371 206.981 Q122.235 206.108 122.456 205.856 Q122.877 205.383 123.042 205.058 Q123.211 204.728 123.211 204.411 Q123.211 203.895 122.847 203.569 Q122.487 203.244 121.905 203.244 Q121.493 203.244 121.033 203.387 Q120.577 203.53 120.056 203.821 L120.056 202.935 Q120.586 202.723 121.046 202.614 Q121.506 202.506 121.888 202.506 Q122.895 202.506 123.493 203.009 Q124.092 203.513 124.092 204.355 Q124.092 204.754 123.941 205.114 Q123.793 205.47 123.398 205.956 Q123.289 206.082 122.708 206.685 Q122.126 207.284 121.067 208.365 Z" fill="#000000" fill-rule="evenodd" fill-opacity="1" /><path clip-path="url(#clip900)" d="M 0 0 M125.833 208.365 L128.893 208.365 L128.893 209.103 L124.778 209.103 L124.778 208.365 Q125.277 207.849 126.137 206.981 Q127 206.108 127.222 205.856 Q127.643 205.383 127.808 205.058 Q127.977 204.728 127.977 204.411 Q127.977 203.895 127.612 203.569 Q127.252 203.244 126.671 203.244 Q126.258 203.244 125.798 203.387 Q125.342 203.53 124.822 203.821 L124.822 202.935 Q125.351 202.723 125.811 202.614 Q126.271 202.506 126.653 202.506 Q127.66 202.506 128.259 203.009 Q128.858 203.513 128.858 204.355 Q128.858 204.754 128.706 205.114 Q128.559 205.47 128.164 205.956 Q128.055 206.082 127.473 206.685 Q126.892 207.284 125.833 208.365 Z" fill="#000000" fill-rule="evenodd" fill-opacity="1" /><path clip-path="url(#clip900)" d="M 0 0 M155.155 183.423 L158.215 183.423 L158.215 184.161 L154.101 184.161 L154.101 183.423 Q154.6 182.907 155.459 182.039 Q156.323 181.166 156.544 180.914 Q156.965 180.441 157.13 180.116 Q157.3 179.786 157.3 179.469 Q157.3 178.953 156.935 178.627 Q156.575 178.302 155.993 178.302 Q155.581 178.302 155.121 178.445 Q154.665 178.588 154.144 178.879 L154.144 177.993 Q154.674 177.781 155.134 177.672 Q155.594 177.564 155.976 177.564 Q156.983 177.564 157.582 178.067 Q158.181 178.571 158.181 179.413 Q158.181 179.812 158.029 180.172 Q157.881 180.528 157.486 181.014 Q157.378 181.14 156.796 181.743 Q156.214 182.342 155.155 183.423 Z" fill="#000000" fill-rule="evenodd" fill-opacity="1" /><path clip-path="url(#clip900)" d="M 0 0 M161.822 180.667 Q162.451 180.802 162.803 181.227 Q163.159 181.652 163.159 182.277 Q163.159 183.236 162.499 183.762 Q161.839 184.287 160.624 184.287 Q160.216 184.287 159.782 184.204 Q159.352 184.126 158.892 183.966 L158.892 183.119 Q159.257 183.332 159.691 183.44 Q160.125 183.549 160.598 183.549 Q161.423 183.549 161.852 183.223 Q162.287 182.898 162.287 182.277 Q162.287 181.704 161.883 181.383 Q161.484 181.058 160.767 181.058 L160.012 181.058 L160.012 180.337 L160.802 180.337 Q161.449 180.337 161.792 180.081 Q162.135 179.821 162.135 179.335 Q162.135 178.835 161.779 178.571 Q161.427 178.302 160.767 178.302 Q160.407 178.302 159.995 178.38 Q159.583 178.458 159.088 178.623 L159.088 177.842 Q159.587 177.703 160.021 177.633 Q160.459 177.564 160.846 177.564 Q161.844 177.564 162.425 178.02 Q163.007 178.471 163.007 179.243 Q163.007 179.782 162.699 180.155 Q162.391 180.524 161.822 180.667 Z" fill="#000000" fill-rule="evenodd" fill-opacity="1" /><path clip-path="url(#clip900)" d="M 0 0 M155.155 208.365 L158.215 208.365 L158.215 209.103 L154.101 209.103 L154.101 208.365 Q154.6 207.849 155.459 206.981 Q156.323 206.108 156.544 205.856 Q156.965 205.383 157.13 205.058 Q157.3 204.728 157.3 204.411 Q157.3 203.895 156.935 203.569 Q156.575 203.244 155.993 203.244 Q155.581 203.244 155.121 203.387 Q154.665 203.53 154.144 203.821 L154.144 202.935 Q154.674 202.723 155.134 202.614 Q155.594 202.506 155.976 202.506 Q156.983 202.506 157.582 203.009 Q158.181 203.513 158.181 204.355 Q158.181 204.754 158.029 205.114 Q157.881 205.47 157.486 205.956 Q157.378 206.082 156.796 206.685 Q156.214 207.284 155.155 208.365 Z" fill="#000000" fill-rule="evenodd" fill-opacity="1" /><path clip-path="url(#clip900)" d="M 0 0 M161.575 203.387 L159.361 206.846 L161.575 206.846 L161.575 203.387 M161.345 202.623 L162.447 202.623 L162.447 206.846 L163.372 206.846 L163.372 207.575 L162.447 207.575 L162.447 209.103 L161.575 209.103 L161.575 207.575 L158.649 207.575 L158.649 206.729 L161.345 202.623 Z" fill="#000000" fill-rule="evenodd" fill-opacity="1" /><circle clip-path="url(#clip902)" cx="137.057" cy="73.866" r="3" fill="#0000ff" fill-rule="evenodd" fill-opacity="1" stroke="none"/>
<circle clip-path="url(#clip902)" cx="137.057" cy="98.808" r="3" fill="#0000ff" fill-rule="evenodd" fill-opacity="1" stroke="none"/>
<circle clip-path="url(#clip902)" cx="171.145" cy="73.866" r="3" fill="#0000ff" fill-rule="evenodd" fill-opacity="1" stroke="none"/>
<circle clip-path="url(#clip902)" cx="171.145" cy="98.808" r="3" fill="#0000ff" fill-rule="evenodd" fill-opacity="1" stroke="none"/>
<circle clip-path="url(#clip902)" cx="137.057" cy="23.9821" r="3" fill="#0000ff" fill-rule="evenodd" fill-opacity="1" stroke="none"/>
<circle clip-path="url(#clip902)" cx="171.145" cy="148.692" r="3" fill="#0000ff" fill-rule="evenodd" fill-opacity="1" stroke="none"/>
<circle clip-path="url(#clip902)" cx="171.145" cy="173.634" r="3" fill="#0000ff" fill-rule="evenodd" fill-opacity="1" stroke="none"/>
<circle clip-path="url(#clip902)" cx="188.189" cy="36.453" r="3" fill="#0000ff" fill-rule="evenodd" fill-opacity="1" stroke="none"/>
<circle clip-path="url(#clip902)" cx="188.189" cy="61.395" r="3" fill="#0000ff" fill-rule="evenodd" fill-opacity="1" stroke="none"/>
<circle clip-path="url(#clip902)" cx="120.013" cy="111.279" r="3" fill="#0000ff" fill-rule="evenodd" fill-opacity="1" stroke="none"/>
<circle clip-path="url(#clip902)" cx="120.013" cy="136.221" r="3" fill="#0000ff" fill-rule="evenodd" fill-opacity="1" stroke="none"/>
<circle clip-path="url(#clip902)" cx="154.101" cy="111.279" r="3" fill="#0000ff" fill-rule="evenodd" fill-opacity="1" stroke="none"/>
<circle clip-path="url(#clip902)" cx="154.101" cy="136.221" r="3" fill="#0000ff" fill-rule="evenodd" fill-opacity="1" stroke="none"/>
<circle clip-path="url(#clip902)" cx="188.189" cy="111.279" r="3" fill="#0000ff" fill-rule="evenodd" fill-opacity="1" stroke="none"/>
<circle clip-path="url(#clip902)" cx="188.189" cy="136.221" r="3" fill="#0000ff" fill-rule="evenodd" fill-opacity="1" stroke="none"/>
<circle clip-path="url(#clip902)" cx="120.013" cy="36.453" r="3" fill="#0000ff" fill-rule="evenodd" fill-opacity="1" stroke="none"/>
<circle clip-path="url(#clip902)" cx="120.013" cy="61.395" r="3" fill="#0000ff" fill-rule="evenodd" fill-opacity="1" stroke="none"/>
<circle clip-path="url(#clip902)" cx="154.101" cy="36.453" r="3" fill="#0000ff" fill-rule="evenodd" fill-opacity="1" stroke="none"/>
<circle clip-path="url(#clip902)" cx="154.101" cy="61.395" r="3" fill="#0000ff" fill-rule="evenodd" fill-opacity="1" stroke="none"/>
<path clip-path="url(#clip900)" d="M 0 0 M137.183 71.1842 L138.615 71.1842 L138.615 66.2406 L137.057 66.5531 L137.057 65.7545 L138.606 65.442 L139.483 65.442 L139.483 71.1842 L140.915 71.1842 L140.915 71.922 L137.183 71.922 L137.183 71.1842 Z" fill="#000000" fill-rule="evenodd" fill-opacity="1" /><path clip-path="url(#clip900)" d="M 0 0 M138.111 96.1262 L141.171 96.1262 L141.171 96.864 L137.057 96.864 L137.057 96.1262 Q137.556 95.6097 138.415 94.7416 Q139.279 93.8692 139.5 93.6175 Q139.921 93.1444 140.086 92.8189 Q140.255 92.489 140.255 92.1722 Q140.255 91.6557 139.891 91.3302 Q139.531 91.0047 138.949 91.0047 Q138.537 91.0047 138.077 91.1479 Q137.621 91.2911 137.1 91.5819 L137.1 90.6965 Q137.63 90.4838 138.09 90.3753 Q138.55 90.2668 138.932 90.2668 Q139.939 90.2668 140.538 90.7703 Q141.137 91.2738 141.137 92.1158 Q141.137 92.5151 140.985 92.8753 Q140.837 93.2312 140.442 93.7173 Q140.334 93.8432 139.752 94.4465 Q139.17 95.0454 138.111 96.1262 Z" fill="#000000" fill-rule="evenodd" fill-opacity="1" /><path clip-path="url(#clip900)" d="M 0 0 M174.075 68.4281 Q174.704 68.5627 175.055 68.988 Q175.411 69.4134 175.411 70.0384 Q175.411 70.9976 174.752 71.5227 Q174.092 72.0479 172.877 72.0479 Q172.469 72.0479 172.035 71.9654 Q171.605 71.8873 171.145 71.7267 L171.145 70.8804 Q171.509 71.093 171.943 71.2015 Q172.378 71.3101 172.851 71.3101 Q173.675 71.3101 174.105 70.9845 Q174.539 70.659 174.539 70.0384 Q174.539 69.4654 174.135 69.1443 Q173.736 68.8187 173.02 68.8187 L172.265 68.8187 L172.265 68.0983 L173.055 68.0983 Q173.701 68.0983 174.044 67.8422 Q174.387 67.5818 174.387 67.0957 Q174.387 66.5965 174.031 66.3318 Q173.68 66.0627 173.02 66.0627 Q172.66 66.0627 172.247 66.1408 Q171.835 66.2189 171.34 66.3839 L171.34 65.6026 Q171.839 65.4637 172.273 65.3943 Q172.712 65.3248 173.098 65.3248 Q174.096 65.3248 174.678 65.7806 Q175.259 66.232 175.259 67.0045 Q175.259 67.5427 174.951 67.916 Q174.643 68.2849 174.075 68.4281 Z" fill="#000000" fill-rule="evenodd" fill-opacity="1" /><path clip-path="url(#clip900)" d="M 0 0 M174.07 91.1479 L171.857 94.6071 L174.07 94.6071 L174.07 91.1479 M173.84 90.384 L174.943 90.384 L174.943 94.6071 L175.867 94.6071 L175.867 95.3362 L174.943 95.3362 L174.943 96.864 L174.07 96.864 L174.07 95.3362 L171.145 95.3362 L171.145 94.4899 L173.84 90.384 Z" fill="#000000" fill-rule="evenodd" fill-opacity="1" /><path clip-path="url(#clip900)" d="M 0 0 M139.279 18.9608 Q138.654 18.9608 138.294 19.295 Q137.938 19.6292 137.938 20.2151 Q137.938 20.8011 138.294 21.1353 Q138.654 21.4695 139.279 21.4695 Q139.904 21.4695 140.264 21.1353 Q140.624 20.7967 140.624 20.2151 Q140.624 19.6292 140.264 19.295 Q139.908 18.9608 139.279 18.9608 M138.402 18.5876 Q137.838 18.4487 137.521 18.0624 Q137.209 17.6761 137.209 17.1205 Q137.209 16.3436 137.76 15.8923 Q138.315 15.4409 139.279 15.4409 Q140.247 15.4409 140.798 15.8923 Q141.349 16.3436 141.349 17.1205 Q141.349 17.6761 141.032 18.0624 Q140.72 18.4487 140.16 18.5876 Q140.794 18.7351 141.145 19.1648 Q141.501 19.5945 141.501 20.2151 Q141.501 21.157 140.924 21.6605 Q140.351 22.1639 139.279 22.1639 Q138.207 22.1639 137.63 21.6605 Q137.057 21.157 137.057 20.2151 Q137.057 19.5945 137.413 19.1648 Q137.768 18.7351 138.402 18.5876 M138.081 17.203 Q138.081 17.7065 138.393 17.9886 Q138.71 18.2707 139.279 18.2707 Q139.843 18.2707 140.16 17.9886 Q140.481 17.7065 140.481 17.203 Q140.481 16.6995 140.16 16.4174 Q139.843 16.1353 139.279 16.1353 Q138.71 16.1353 138.393 16.4174 Q138.081 16.6995 138.081 17.203 Z" fill="#000000" fill-rule="evenodd" fill-opacity="1" /><path clip-path="url(#clip900)" d="M 0 0 M171.562 146.613 L171.562 145.815 Q171.891 145.971 172.23 146.054 Q172.568 146.136 172.894 146.136 Q173.762 146.136 174.218 145.554 Q174.678 144.968 174.743 143.779 Q174.491 144.153 174.105 144.352 Q173.719 144.552 173.25 144.552 Q172.278 144.552 171.709 143.966 Q171.145 143.376 171.145 142.356 Q171.145 141.357 171.735 140.754 Q172.325 140.151 173.306 140.151 Q174.43 140.151 175.021 141.015 Q175.615 141.874 175.615 143.514 Q175.615 145.047 174.886 145.962 Q174.161 146.874 172.933 146.874 Q172.603 146.874 172.265 146.809 Q171.926 146.744 171.562 146.613 M173.306 143.866 Q173.897 143.866 174.239 143.462 Q174.587 143.059 174.587 142.356 Q174.587 141.657 174.239 141.253 Q173.897 140.845 173.306 140.845 Q172.716 140.845 172.369 141.253 Q172.026 141.657 172.026 142.356 Q172.026 143.059 172.369 143.462 Q172.716 143.866 173.306 143.866 Z" fill="#000000" fill-rule="evenodd" fill-opacity="1" /><path clip-path="url(#clip900)" d="M 0 0 M171.271 170.952 L172.703 170.952 L172.703 166.009 L171.145 166.321 L171.145 165.522 L172.694 165.21 L173.571 165.21 L173.571 170.952 L175.003 170.952 L175.003 171.69 L171.271 171.69 L171.271 170.952 Z" fill="#000000" fill-rule="evenodd" fill-opacity="1" /><path clip-path="url(#clip900)" d="M 0 0 M177.829 165.787 Q177.152 165.787 176.809 166.456 Q176.47 167.12 176.47 168.456 Q176.47 169.789 176.809 170.457 Q177.152 171.121 177.829 171.121 Q178.51 171.121 178.849 170.457 Q179.192 169.789 179.192 168.456 Q179.192 167.12 178.849 166.456 Q178.51 165.787 177.829 165.787 M177.829 165.093 Q178.918 165.093 179.491 165.956 Q180.068 166.816 180.068 168.456 Q180.068 170.093 179.491 170.956 Q178.918 171.816 177.829 171.816 Q176.739 171.816 176.162 170.956 Q175.589 170.093 175.589 168.456 Q175.589 166.816 176.162 165.956 Q176.739 165.093 177.829 165.093 Z" fill="#000000" fill-rule="evenodd" fill-opacity="1" /><path clip-path="url(#clip900)" d="M 0 0 M188.315 33.7712 L189.747 33.7712 L189.747 28.8277 L188.189 29.1402 L188.189 28.3415 L189.738 28.029 L190.615 28.029 L190.615 33.7712 L192.047 33.7712 L192.047 34.509 L188.315 34.509 L188.315 33.7712 Z" fill="#000000" fill-rule="evenodd" fill-opacity="1" /><path clip-path="url(#clip900)" d="M 0 0 M195.654 31.0151 Q196.284 31.1497 196.635 31.575 Q196.991 32.0004 196.991 32.6254 Q196.991 33.5846 196.331 34.1097 Q195.672 34.6349 194.456 34.6349 Q194.048 34.6349 193.614 34.5525 Q193.185 34.4743 192.725 34.3137 L192.725 33.4674 Q193.089 33.6801 193.523 33.7886 Q193.957 33.8971 194.43 33.8971 Q195.255 33.8971 195.685 33.5716 Q196.119 33.246 196.119 32.6254 Q196.119 32.0525 195.715 31.7313 Q195.316 31.4058 194.6 31.4058 L193.844 31.4058 L193.844 30.6853 L194.634 30.6853 Q195.281 30.6853 195.624 30.4292 Q195.967 30.1688 195.967 29.6827 Q195.967 29.1836 195.611 28.9188 Q195.259 28.6497 194.6 28.6497 Q194.239 28.6497 193.827 28.7278 Q193.415 28.806 192.92 28.9709 L192.92 28.1896 Q193.419 28.0507 193.853 27.9813 Q194.291 27.9119 194.678 27.9119 Q195.676 27.9119 196.258 28.3676 Q196.839 28.819 196.839 29.5915 Q196.839 30.1297 196.531 30.503 Q196.223 30.8719 195.654 31.0151 Z" fill="#000000" fill-rule="evenodd" fill-opacity="1" /><path clip-path="url(#clip900)" d="M 0 0 M188.315 58.7132 L189.747 58.7132 L189.747 53.7696 L188.189 54.0821 L188.189 53.2835 L189.738 52.971 L190.615 52.971 L190.615 58.7132 L192.047 58.7132 L192.047 59.451 L188.315 59.451 L188.315 58.7132 Z" fill="#000000" fill-rule="evenodd" fill-opacity="1" /><path clip-path="url(#clip900)" d="M 0 0 M195.407 53.7349 L193.193 57.1941 L195.407 57.1941 L195.407 53.7349 M195.177 52.971 L196.279 52.971 L196.279 57.1941 L197.204 57.1941 L197.204 57.9233 L196.279 57.9233 L196.279 59.451 L195.407 59.451 L195.407 57.9233 L192.481 57.9233 L192.481 57.0769 L195.177 52.971 Z" fill="#000000" fill-rule="evenodd" fill-opacity="1" /><path clip-path="url(#clip900)" d="M 0 0 M120.138 108.597 L121.571 108.597 L121.571 103.654 L120.013 103.966 L120.013 103.168 L121.562 102.855 L122.439 102.855 L122.439 108.597 L123.871 108.597 L123.871 109.335 L120.138 109.335 L120.138 108.597 Z" fill="#000000" fill-rule="evenodd" fill-opacity="1" /><path clip-path="url(#clip900)" d="M 0 0 M124.83 102.855 L128.272 102.855 L128.272 103.593 L125.633 103.593 L125.633 105.181 Q125.824 105.116 126.015 105.086 Q126.206 105.051 126.397 105.051 Q127.482 105.051 128.116 105.646 Q128.75 106.24 128.75 107.256 Q128.75 108.302 128.098 108.884 Q127.447 109.461 126.263 109.461 Q125.855 109.461 125.429 109.391 Q125.008 109.322 124.557 109.183 L124.557 108.302 Q124.947 108.515 125.364 108.619 Q125.781 108.723 126.245 108.723 Q126.996 108.723 127.434 108.328 Q127.873 107.933 127.873 107.256 Q127.873 106.579 127.434 106.184 Q126.996 105.789 126.245 105.789 Q125.894 105.789 125.542 105.867 Q125.195 105.945 124.83 106.11 L124.83 102.855 Z" fill="#000000" fill-rule="evenodd" fill-opacity="1" /><path clip-path="url(#clip900)" d="M 0 0 M120.138 133.539 L121.571 133.539 L121.571 128.596 L120.013 128.908 L120.013 128.109 L121.562 127.797 L122.439 127.797 L122.439 133.539 L123.871 133.539 L123.871 134.277 L120.138 134.277 L120.138 133.539 Z" fill="#000000" fill-rule="evenodd" fill-opacity="1" /><path clip-path="url(#clip900)" d="M 0 0 M126.805 130.688 Q126.215 130.688 125.868 131.091 Q125.525 131.495 125.525 132.198 Q125.525 132.897 125.868 133.305 Q126.215 133.708 126.805 133.708 Q127.395 133.708 127.738 133.305 Q128.085 132.897 128.085 132.198 Q128.085 131.495 127.738 131.091 Q127.395 130.688 126.805 130.688 M128.546 127.94 L128.546 128.739 Q128.216 128.583 127.877 128.5 Q127.543 128.418 127.213 128.418 Q126.345 128.418 125.885 129.004 Q125.429 129.59 125.364 130.774 Q125.62 130.397 126.006 130.197 Q126.393 129.993 126.857 129.993 Q127.834 129.993 128.398 130.588 Q128.967 131.178 128.967 132.198 Q128.967 133.196 128.376 133.8 Q127.786 134.403 126.805 134.403 Q125.681 134.403 125.086 133.543 Q124.492 132.68 124.492 131.044 Q124.492 129.507 125.221 128.596 Q125.95 127.68 127.178 127.68 Q127.508 127.68 127.842 127.745 Q128.181 127.81 128.546 127.94 Z" fill="#000000" fill-rule="evenodd" fill-opacity="1" /><path clip-path="url(#clip900)" d="M 0 0 M154.227 108.597 L155.659 108.597 L155.659 103.654 L154.101 103.966 L154.101 103.168 L155.65 102.855 L156.527 102.855 L156.527 108.597 L157.959 108.597 L157.959 109.335 L154.227 109.335 L154.227 108.597 Z" fill="#000000" fill-rule="evenodd" fill-opacity="1" /><path clip-path="url(#clip900)" d="M 0 0 M158.688 102.855 L162.855 102.855 L162.855 103.228 L160.503 109.335 L159.587 109.335 L161.8 103.593 L158.688 103.593 L158.688 102.855 Z" fill="#000000" fill-rule="evenodd" fill-opacity="1" /><path clip-path="url(#clip900)" d="M 0 0 M154.227 133.539 L155.659 133.539 L155.659 128.596 L154.101 128.908 L154.101 128.109 L155.65 127.797 L156.527 127.797 L156.527 133.539 L157.959 133.539 L157.959 134.277 L154.227 134.277 L154.227 133.539 Z" fill="#000000" fill-rule="evenodd" fill-opacity="1" /><path clip-path="url(#clip900)" d="M 0 0 M160.785 131.2 Q160.16 131.2 159.8 131.534 Q159.444 131.868 159.444 132.454 Q159.444 133.04 159.8 133.374 Q160.16 133.708 160.785 133.708 Q161.41 133.708 161.77 133.374 Q162.13 133.036 162.13 132.454 Q162.13 131.868 161.77 131.534 Q161.414 131.2 160.785 131.2 M159.908 130.826 Q159.344 130.688 159.027 130.301 Q158.714 129.915 158.714 129.359 Q158.714 128.583 159.266 128.131 Q159.821 127.68 160.785 127.68 Q161.753 127.68 162.304 128.131 Q162.855 128.583 162.855 129.359 Q162.855 129.915 162.538 130.301 Q162.226 130.688 161.666 130.826 Q162.3 130.974 162.651 131.404 Q163.007 131.833 163.007 132.454 Q163.007 133.396 162.43 133.899 Q161.857 134.403 160.785 134.403 Q159.713 134.403 159.135 133.899 Q158.563 133.396 158.563 132.454 Q158.563 131.833 158.918 131.404 Q159.274 130.974 159.908 130.826 M159.587 129.442 Q159.587 129.945 159.899 130.228 Q160.216 130.51 160.785 130.51 Q161.349 130.51 161.666 130.228 Q161.987 129.945 161.987 129.442 Q161.987 128.938 161.666 128.656 Q161.349 128.374 160.785 128.374 Q160.216 128.374 159.899 128.656 Q159.587 128.938 159.587 129.442 Z" fill="#000000" fill-rule="evenodd" fill-opacity="1" /><path clip-path="url(#clip900)" d="M 0 0 M188.315 108.597 L189.747 108.597 L189.747 103.654 L188.189 103.966 L188.189 103.168 L189.738 102.855 L190.615 102.855 L190.615 108.597 L192.047 108.597 L192.047 109.335 L188.315 109.335 L188.315 108.597 Z" fill="#000000" fill-rule="evenodd" fill-opacity="1" /><path clip-path="url(#clip900)" d="M 0 0 M193.024 109.2 L193.024 108.402 Q193.354 108.558 193.692 108.641 Q194.031 108.723 194.356 108.723 Q195.225 108.723 195.68 108.141 Q196.14 107.556 196.205 106.366 Q195.954 106.74 195.567 106.939 Q195.181 107.139 194.712 107.139 Q193.74 107.139 193.172 106.553 Q192.607 105.963 192.607 104.943 Q192.607 103.944 193.198 103.341 Q193.788 102.738 194.769 102.738 Q195.893 102.738 196.483 103.602 Q197.078 104.461 197.078 106.102 Q197.078 107.634 196.349 108.549 Q195.624 109.461 194.396 109.461 Q194.066 109.461 193.727 109.396 Q193.389 109.331 193.024 109.2 M194.769 106.453 Q195.359 106.453 195.702 106.049 Q196.049 105.646 196.049 104.943 Q196.049 104.244 195.702 103.84 Q195.359 103.432 194.769 103.432 Q194.179 103.432 193.831 103.84 Q193.488 104.244 193.488 104.943 Q193.488 105.646 193.831 106.049 Q194.179 106.453 194.769 106.453 Z" fill="#000000" fill-rule="evenodd" fill-opacity="1" /><path clip-path="url(#clip900)" d="M 0 0 M189.244 133.539 L192.304 133.539 L192.304 134.277 L188.189 134.277 L188.189 133.539 Q188.688 133.023 189.547 132.155 Q190.411 131.282 190.633 131.03 Q191.054 130.557 191.218 130.232 Q191.388 129.902 191.388 129.585 Q191.388 129.069 191.023 128.743 Q190.663 128.418 190.081 128.418 Q189.669 128.418 189.209 128.561 Q188.753 128.704 188.232 128.995 L188.232 128.109 Q188.762 127.897 189.222 127.788 Q189.682 127.68 190.064 127.68 Q191.071 127.68 191.67 128.183 Q192.269 128.687 192.269 129.529 Q192.269 129.928 192.117 130.288 Q191.969 130.644 191.574 131.13 Q191.466 131.256 190.884 131.859 Q190.303 132.458 189.244 133.539 Z" fill="#000000" fill-rule="evenodd" fill-opacity="1" /><path clip-path="url(#clip900)" d="M 0 0 M195.129 128.374 Q194.452 128.374 194.109 129.043 Q193.771 129.707 193.771 131.044 Q193.771 132.376 194.109 133.044 Q194.452 133.708 195.129 133.708 Q195.81 133.708 196.149 133.044 Q196.492 132.376 196.492 131.044 Q196.492 129.707 196.149 129.043 Q195.81 128.374 195.129 128.374 M195.129 127.68 Q196.218 127.68 196.791 128.544 Q197.369 129.403 197.369 131.044 Q197.369 132.68 196.791 133.543 Q196.218 134.403 195.129 134.403 Q194.04 134.403 193.462 133.543 Q192.889 132.68 192.889 131.044 Q192.889 129.403 193.462 128.544 Q194.04 127.68 195.129 127.68 Z" fill="#000000" fill-rule="evenodd" fill-opacity="1" /><path clip-path="url(#clip900)" d="M 0 0 M121.067 33.7712 L124.127 33.7712 L124.127 34.509 L120.013 34.509 L120.013 33.7712 Q120.512 33.2547 121.371 32.3867 Q122.235 31.5143 122.456 31.2625 Q122.877 30.7895 123.042 30.4639 Q123.211 30.1341 123.211 29.8172 Q123.211 29.3007 122.847 28.9752 Q122.487 28.6497 121.905 28.6497 Q121.493 28.6497 121.033 28.7929 Q120.577 28.9362 120.056 29.227 L120.056 28.3415 Q120.586 28.1289 121.046 28.0204 Q121.506 27.9119 121.888 27.9119 Q122.895 27.9119 123.493 28.4153 Q124.092 28.9188 124.092 29.7608 Q124.092 30.1601 123.941 30.5204 Q123.793 30.8763 123.398 31.3624 Q123.289 31.4882 122.708 32.0915 Q122.126 32.6905 121.067 33.7712 Z" fill="#000000" fill-rule="evenodd" fill-opacity="1" /><path clip-path="url(#clip900)" d="M 0 0 M125.23 33.7712 L126.662 33.7712 L126.662 28.8277 L125.104 29.1402 L125.104 28.3415 L126.653 28.029 L127.53 28.029 L127.53 33.7712 L128.962 33.7712 L128.962 34.509 L125.23 34.509 L125.23 33.7712 Z" fill="#000000" fill-rule="evenodd" fill-opacity="1" /><path clip-path="url(#clip900)" d="M 0 0 M121.067 58.7132 L124.127 58.7132 L124.127 59.451 L120.013 59.451 L120.013 58.7132 Q120.512 58.1967 121.371 57.3286 Q122.235 56.4563 122.456 56.2045 Q122.877 55.7314 123.042 55.4059 Q123.211 55.0761 123.211 54.7592 Q123.211 54.2427 122.847 53.9172 Q122.487 53.5917 121.905 53.5917 Q121.493 53.5917 121.033 53.7349 Q120.577 53.8781 120.056 54.1689 L120.056 53.2835 Q120.586 53.0709 121.046 52.9624 Q121.506 52.8538 121.888 52.8538 Q122.895 52.8538 123.493 53.3573 Q124.092 53.8608 124.092 54.7028 Q124.092 55.1021 123.941 55.4623 Q123.793 55.8182 123.398 56.3043 Q123.289 56.4302 122.708 57.0335 Q122.126 57.6325 121.067 58.7132 Z" fill="#000000" fill-rule="evenodd" fill-opacity="1" /><path clip-path="url(#clip900)" d="M 0 0 M125.833 58.7132 L128.893 58.7132 L128.893 59.451 L124.778 59.451 L124.778 58.7132 Q125.277 58.1967 126.137 57.3286 Q127 56.4563 127.222 56.2045 Q127.643 55.7314 127.808 55.4059 Q127.977 55.0761 127.977 54.7592 Q127.977 54.2427 127.612 53.9172 Q127.252 53.5917 126.671 53.5917 Q126.258 53.5917 125.798 53.7349 Q125.342 53.8781 124.822 54.1689 L124.822 53.2835 Q125.351 53.0709 125.811 52.9624 Q126.271 52.8538 126.653 52.8538 Q127.66 52.8538 128.259 53.3573 Q128.858 53.8608 128.858 54.7028 Q128.858 55.1021 128.706 55.4623 Q128.559 55.8182 128.164 56.3043 Q128.055 56.4302 127.473 57.0335 Q126.892 57.6325 125.833 58.7132 Z" fill="#000000" fill-rule="evenodd" fill-opacity="1" /><path clip-path="url(#clip900)" d="M 0 0 M155.155 33.7712 L158.215 33.7712 L158.215 34.509 L154.101 34.509 L154.101 33.7712 Q154.6 33.2547 155.459 32.3867 Q156.323 31.5143 156.544 31.2625 Q156.965 30.7895 157.13 30.4639 Q157.3 30.1341 157.3 29.8172 Q157.3 29.3007 156.935 28.9752 Q156.575 28.6497 155.993 28.6497 Q155.581 28.6497 155.121 28.7929 Q154.665 28.9362 154.144 29.227 L154.144 28.3415 Q154.674 28.1289 155.134 28.0204 Q155.594 27.9119 155.976 27.9119 Q156.983 27.9119 157.582 28.4153 Q158.181 28.9188 158.181 29.7608 Q158.181 30.1601 158.029 30.5204 Q157.881 30.8763 157.486 31.3624 Q157.378 31.4882 156.796 32.0915 Q156.214 32.6905 155.155 33.7712 Z" fill="#000000" fill-rule="evenodd" fill-opacity="1" /><path clip-path="url(#clip900)" d="M 0 0 M161.822 31.0151 Q162.451 31.1497 162.803 31.575 Q163.159 32.0004 163.159 32.6254 Q163.159 33.5846 162.499 34.1097 Q161.839 34.6349 160.624 34.6349 Q160.216 34.6349 159.782 34.5525 Q159.352 34.4743 158.892 34.3137 L158.892 33.4674 Q159.257 33.6801 159.691 33.7886 Q160.125 33.8971 160.598 33.8971 Q161.423 33.8971 161.852 33.5716 Q162.287 33.246 162.287 32.6254 Q162.287 32.0525 161.883 31.7313 Q161.484 31.4058 160.767 31.4058 L160.012 31.4058 L160.012 30.6853 L160.802 30.6853 Q161.449 30.6853 161.792 30.4292 Q162.135 30.1688 162.135 29.6827 Q162.135 29.1836 161.779 28.9188 Q161.427 28.6497 160.767 28.6497 Q160.407 28.6497 159.995 28.7278 Q159.583 28.806 159.088 28.9709 L159.088 28.1896 Q159.587 28.0507 160.021 27.9813 Q160.459 27.9119 160.846 27.9119 Q161.844 27.9119 162.425 28.3676 Q163.007 28.819 163.007 29.5915 Q163.007 30.1297 162.699 30.503 Q162.391 30.8719 161.822 31.0151 Z" fill="#000000" fill-rule="evenodd" fill-opacity="1" /><path clip-path="url(#clip900)" d="M 0 0 M155.155 58.7132 L158.215 58.7132 L158.215 59.451 L154.101 59.451 L154.101 58.7132 Q154.6 58.1967 155.459 57.3286 Q156.323 56.4563 156.544 56.2045 Q156.965 55.7314 157.13 55.4059 Q157.3 55.0761 157.3 54.7592 Q157.3 54.2427 156.935 53.9172 Q156.575 53.5917 155.993 53.5917 Q155.581 53.5917 155.121 53.7349 Q154.665 53.8781 154.144 54.1689 L154.144 53.2835 Q154.674 53.0709 155.134 52.9624 Q155.594 52.8538 155.976 52.8538 Q156.983 52.8538 157.582 53.3573 Q158.181 53.8608 158.181 54.7028 Q158.181 55.1021 158.029 55.4623 Q157.881 55.8182 157.486 56.3043 Q157.378 56.4302 156.796 57.0335 Q156.214 57.6325 155.155 58.7132 Z" fill="#000000" fill-rule="evenodd" fill-opacity="1" /><path clip-path="url(#clip900)" d="M 0 0 M161.575 53.7349 L159.361 57.1941 L161.575 57.1941 L161.575 53.7349 M161.345 52.971 L162.447 52.971 L162.447 57.1941 L163.372 57.1941 L163.372 57.9233 L162.447 57.9233 L162.447 59.451 L161.575 59.451 L161.575 57.9233 L158.649 57.9233 L158.649 57.0769 L161.345 52.971 Z" fill="#000000" fill-rule="evenodd" fill-opacity="1" /><circle clip-path="url(#clip902)" cx="171.145" cy="23.9821" r="3" fill="#0000ff" fill-rule="evenodd" fill-opacity="1" stroke="none"/>
<path clip-path="url(#clip900)" d="M 0 0 M171.271 21.3002 L172.703 21.3002 L172.703 16.3567 L171.145 16.6692 L171.145 15.8706 L172.694 15.5581 L173.571 15.5581 L173.571 21.3002 L175.003 21.3002 L175.003 22.0381 L171.271 22.0381 L171.271 21.3002 Z" fill="#000000" fill-rule="evenodd" fill-opacity="1" /><path clip-path="url(#clip900)" d="M 0 0 M177.829 16.1353 Q177.152 16.1353 176.809 16.8037 Q176.47 17.4678 176.47 18.8046 Q176.47 20.137 176.809 20.8054 Q177.152 21.4695 177.829 21.4695 Q178.51 21.4695 178.849 20.8054 Q179.192 20.137 179.192 18.8046 Q179.192 17.4678 178.849 16.8037 Q178.51 16.1353 177.829 16.1353 M177.829 15.4409 Q178.918 15.4409 179.491 16.3046 Q180.068 17.1639 180.068 18.8046 Q180.068 20.4408 179.491 21.3046 Q178.918 22.1639 177.829 22.1639 Q176.739 22.1639 176.162 21.3046 Q175.589 20.4408 175.589 18.8046 Q175.589 17.1639 176.162 16.3046 Q176.739 15.4409 177.829 15.4409 Z" fill="#000000" fill-rule="evenodd" fill-opacity="1" /></svg>
