<?xml version="1.0" encoding="utf-8"?>
<svg xmlns="http://www.w3.org/2000/svg" xmlns:xlink="http://www.w3.org/1999/xlink" width="200" height="250" viewBox="0 0 800 1000">
<defs>
  <clipPath id="clip920">
    <rect x="0" y="0" width="800" height="1000"/>
  </clipPath>
</defs>
<path clip-path="url(#clip920)" d="
M0 1000 L800 1000 L800 0 L0 0  Z
  " fill="#ffffff" fill-rule="evenodd" fill-opacity="1"/>
<defs>
  <clipPath id="clip921">
    <rect x="200" y="100" width="701" height="701"/>
  </clipPath>
</defs>
<path clip-path="url(#clip920)" d="
M70.9921 927.008 L752.756 927.008 L752.756 62.9921 L70.9921 62.9921  Z
  " fill="#ffffff" fill-rule="evenodd" fill-opacity="1"/>
<defs>
  <clipPath id="clip922">
    <rect x="70" y="62" width="683" height="865"/>
  </clipPath>
</defs>
<polyline clip-path="url(#clip920)" style="stroke:#000000; stroke-width:4; stroke-opacity:1; fill:none" points="
  70.9921,927.008 752.756,927.008 
  "/>
<polyline clip-path="url(#clip920)" style="stroke:#000000; stroke-width:4; stroke-opacity:1; fill:none" points="
  139.169,927.008 139.169,916.64 
  "/>
<polyline clip-path="url(#clip920)" style="stroke:#000000; stroke-width:4; stroke-opacity:1; fill:none" points="
  275.521,927.008 275.521,916.64 
  "/>
<polyline clip-path="url(#clip920)" style="stroke:#000000; stroke-width:4; stroke-opacity:1; fill:none" points="
  411.874,927.008 411.874,916.64 
  "/>
<polyline clip-path="url(#clip920)" style="stroke:#000000; stroke-width:4; stroke-opacity:1; fill:none" points="
  548.227,927.008 548.227,916.64 
  "/>
<polyline clip-path="url(#clip920)" style="stroke:#000000; stroke-width:4; stroke-opacity:1; fill:none" points="
  684.58,927.008 684.58,916.64 
  "/>
<path clip-path="url(#clip920)" d="M 0 0 M109.111 959.651 L138.787 959.651 L138.787 963.586 L109.111 963.586 L109.111 959.651 Z" fill="#000000" fill-rule="evenodd" fill-opacity="1" /><path clip-path="url(#clip920)" d="M 0 0 M152.907 972.545 L169.226 972.545 L169.226 976.48 L147.282 976.48 L147.282 972.545 Q149.944 969.79 154.527 965.16 Q159.134 960.508 160.314 959.165 Q162.56 956.642 163.439 954.906 Q164.342 953.147 164.342 951.457 Q164.342 948.702 162.398 946.966 Q160.476 945.23 157.374 945.23 Q155.175 945.23 152.722 945.994 Q150.291 946.758 147.513 948.309 L147.513 943.587 Q150.337 942.452 152.791 941.874 Q155.245 941.295 157.282 941.295 Q162.652 941.295 165.847 943.98 Q169.041 946.665 169.041 951.156 Q169.041 953.286 168.231 955.207 Q167.444 957.105 165.337 959.698 Q164.759 960.369 161.657 963.586 Q158.555 966.781 152.907 972.545 Z" fill="#000000" fill-rule="evenodd" fill-opacity="1" /><path clip-path="url(#clip920)" d="M 0 0 M245.278 959.651 L274.954 959.651 L274.954 963.586 L245.278 963.586 L245.278 959.651 Z" fill="#000000" fill-rule="evenodd" fill-opacity="1" /><path clip-path="url(#clip920)" d="M 0 0 M285.857 972.545 L293.496 972.545 L293.496 946.179 L285.186 947.846 L285.186 943.587 L293.449 941.92 L298.125 941.92 L298.125 972.545 L305.764 972.545 L305.764 976.48 L285.857 976.48 L285.857 972.545 Z" fill="#000000" fill-rule="evenodd" fill-opacity="1" /><path clip-path="url(#clip920)" d="M 0 0 M411.874 944.999 Q408.263 944.999 406.434 948.563 Q404.629 952.105 404.629 959.235 Q404.629 966.341 406.434 969.906 Q408.263 973.447 411.874 973.447 Q415.508 973.447 417.314 969.906 Q419.142 966.341 419.142 959.235 Q419.142 952.105 417.314 948.563 Q415.508 944.999 411.874 944.999 M411.874 941.295 Q417.684 941.295 420.74 945.901 Q423.818 950.485 423.818 959.235 Q423.818 967.961 420.74 972.568 Q417.684 977.151 411.874 977.151 Q406.064 977.151 402.985 972.568 Q399.93 967.961 399.93 959.235 Q399.93 950.485 402.985 945.901 Q406.064 941.295 411.874 941.295 Z" fill="#000000" fill-rule="evenodd" fill-opacity="1" /><path clip-path="url(#clip920)" d="M 0 0 M538.609 972.545 L546.248 972.545 L546.248 946.179 L537.937 947.846 L537.937 943.587 L546.201 941.92 L550.877 941.92 L550.877 972.545 L558.516 972.545 L558.516 976.48 L538.609 976.48 L538.609 972.545 Z" fill="#000000" fill-rule="evenodd" fill-opacity="1" /><path clip-path="url(#clip920)" d="M 0 0 M679.232 972.545 L695.552 972.545 L695.552 976.48 L673.607 976.48 L673.607 972.545 Q676.269 969.79 680.853 965.16 Q685.459 960.508 686.64 959.165 Q688.885 956.642 689.765 954.906 Q690.667 953.147 690.667 951.457 Q690.667 948.702 688.723 946.966 Q686.802 945.23 683.7 945.23 Q681.501 945.23 679.047 945.994 Q676.617 946.758 673.839 948.309 L673.839 943.587 Q676.663 942.452 679.117 941.874 Q681.57 941.295 683.607 941.295 Q688.978 941.295 692.172 943.98 Q695.367 946.665 695.367 951.156 Q695.367 953.286 694.556 955.207 Q693.769 957.105 691.663 959.698 Q691.084 960.369 687.982 963.586 Q684.88 966.781 679.232 972.545 Z" fill="#000000" fill-rule="evenodd" fill-opacity="1" /><polyline clip-path="url(#clip920)" style="stroke:#000000; stroke-width:4; stroke-opacity:1; fill:none" points="
  70.9921,927.008 70.9921,62.9921 
  "/>
<polyline clip-path="url(#clip920)" style="stroke:#000000; stroke-width:4; stroke-opacity:1; fill:none" points="
  70.9921,840.606 79.1733,840.606 
  "/>
<polyline clip-path="url(#clip920)" style="stroke:#000000; stroke-width:4; stroke-opacity:1; fill:none" points="
  70.9921,667.803 79.1733,667.803 
  "/>
<polyline clip-path="url(#clip920)" style="stroke:#000000; stroke-width:4; stroke-opacity:1; fill:none" points="
  70.9921,495 79.1733,495 
  "/>
<polyline clip-path="url(#clip920)" style="stroke:#000000; stroke-width:4; stroke-opacity:1; fill:none" points="
  70.9921,322.197 79.1733,322.197 
  "/>
<polyline clip-path="url(#clip920)" style="stroke:#000000; stroke-width:4; stroke-opacity:1; fill:none" points="
  70.9921,149.394 79.1733,149.394 
  "/>
<path clip-path="url(#clip920)" d="M 0 0 M-4.12329 841.058 L25.5525 841.058 L25.5525 844.993 L-4.12329 844.993 L-4.12329 841.058 Z" fill="#000000" fill-rule="evenodd" fill-opacity="1" /><path clip-path="url(#clip920)" d="M 0 0 M39.6728 853.951 L55.9921 853.951 L55.9921 857.886 L34.0478 857.886 L34.0478 853.951 Q36.7098 851.197 41.2931 846.567 Q45.8996 841.914 47.0801 840.572 Q49.3255 838.048 50.2051 836.312 Q51.1079 834.553 51.1079 832.863 Q51.1079 830.109 49.1635 828.373 Q47.2422 826.636 44.1403 826.636 Q41.9413 826.636 39.4876 827.4 Q37.057 828.164 34.2793 829.715 L34.2793 824.993 Q37.1033 823.859 39.557 823.28 Q42.0107 822.701 44.0477 822.701 Q49.4181 822.701 52.6125 825.386 Q55.8069 828.072 55.8069 832.562 Q55.8069 834.692 54.9968 836.613 Q54.2097 838.511 52.1033 841.104 Q51.5246 841.775 48.4227 844.993 Q45.3209 848.187 39.6728 853.951 Z" fill="#000000" fill-rule="evenodd" fill-opacity="1" /><path clip-path="url(#clip920)" d="M 0 0 M-4.49366 668.255 L25.1821 668.255 L25.1821 672.19 L-4.49366 672.19 L-4.49366 668.255 Z" fill="#000000" fill-rule="evenodd" fill-opacity="1" /><path clip-path="url(#clip920)" d="M 0 0 M36.0848 681.148 L43.7237 681.148 L43.7237 654.782 L35.4135 656.449 L35.4135 652.19 L43.6774 650.523 L48.3533 650.523 L48.3533 681.148 L55.9921 681.148 L55.9921 685.083 L36.0848 685.083 L36.0848 681.148 Z" fill="#000000" fill-rule="evenodd" fill-opacity="1" /><path clip-path="url(#clip920)" d="M 0 0 M44.0477 480.799 Q40.4367 480.799 38.608 484.363 Q36.8024 487.905 36.8024 495.035 Q36.8024 502.141 38.608 505.706 Q40.4367 509.248 44.0477 509.248 Q47.682 509.248 49.4875 505.706 Q51.3162 502.141 51.3162 495.035 Q51.3162 487.905 49.4875 484.363 Q47.682 480.799 44.0477 480.799 M44.0477 477.095 Q49.8579 477.095 52.9134 481.701 Q55.9921 486.285 55.9921 495.035 Q55.9921 503.762 52.9134 508.368 Q49.8579 512.951 44.0477 512.951 Q38.2376 512.951 35.1589 508.368 Q32.1034 503.762 32.1034 495.035 Q32.1034 486.285 35.1589 481.701 Q38.2376 477.095 44.0477 477.095 Z" fill="#000000" fill-rule="evenodd" fill-opacity="1" /><path clip-path="url(#clip920)" d="M 0 0 M36.0848 335.542 L43.7237 335.542 L43.7237 309.176 L35.4135 310.843 L35.4135 306.584 L43.6774 304.917 L48.3533 304.917 L48.3533 335.542 L55.9921 335.542 L55.9921 339.477 L36.0848 339.477 L36.0848 335.542 Z" fill="#000000" fill-rule="evenodd" fill-opacity="1" /><path clip-path="url(#clip920)" d="M 0 0 M39.6728 162.739 L55.9921 162.739 L55.9921 166.674 L34.0478 166.674 L34.0478 162.739 Q36.7098 159.984 41.2931 155.354 Q45.8996 150.702 47.0801 149.359 Q49.3255 146.836 50.2051 145.1 Q51.1079 143.34 51.1079 141.651 Q51.1079 138.896 49.1635 137.16 Q47.2422 135.424 44.1403 135.424 Q41.9413 135.424 39.4876 136.188 Q37.057 136.952 34.2793 138.503 L34.2793 133.78 Q37.1033 132.646 39.557 132.067 Q42.0107 131.489 44.0477 131.489 Q49.4181 131.489 52.6125 134.174 Q55.8069 136.859 55.8069 141.35 Q55.8069 143.479 54.9968 145.401 Q54.2097 147.299 52.1033 149.891 Q51.5246 150.563 48.4227 153.78 Q45.3209 156.975 39.6728 162.739 Z" fill="#000000" fill-rule="evenodd" fill-opacity="1" /><path clip-path="url(#clip920)" d="M 0 0 M349.583 20.523 Q351.18 17.6527 353.402 16.2869 Q355.624 14.9212 358.634 14.9212 Q362.684 14.9212 364.884 17.7684 Q367.083 20.5925 367.083 25.8239 L367.083 41.472 L362.8 41.472 L362.8 25.9628 Q362.8 22.236 361.481 20.4304 Q360.161 18.6249 357.453 18.6249 Q354.143 18.6249 352.222 20.824 Q350.3 23.023 350.3 26.8193 L350.3 41.472 L346.018 41.472 L346.018 25.9628 Q346.018 22.2128 344.698 20.4304 Q343.379 18.6249 340.624 18.6249 Q337.361 18.6249 335.439 20.8471 Q333.518 23.0462 333.518 26.8193 L333.518 41.472 L329.236 41.472 L329.236 15.5462 L333.518 15.5462 L333.518 19.574 Q334.976 17.1897 337.013 16.0555 Q339.05 14.9212 341.851 14.9212 Q344.675 14.9212 346.643 16.3564 Q348.634 17.7916 349.583 20.523 Z" fill="#000000" fill-rule="evenodd" fill-opacity="1" /><path clip-path="url(#clip920)" d="M 0 0 M375.184 5.45367 L384.999 5.45367 L384.999 8.76384 L379.444 8.76384 L379.444 44.4118 L384.999 44.4118 L384.999 47.722 L375.184 47.722 L375.184 5.45367 Z" fill="#000000" fill-rule="evenodd" fill-opacity="1" /><path clip-path="url(#clip920)" d="M 0 0 M395.485 37.5368 L403.124 37.5368 L403.124 11.1712 L394.814 12.8379 L394.814 8.57866 L403.078 6.912 L407.754 6.912 L407.754 37.5368 L415.393 37.5368 L415.393 41.472 L395.485 41.472 L395.485 37.5368 Z" fill="#000000" fill-rule="evenodd" fill-opacity="1" /><path clip-path="url(#clip920)" d="M 0 0 M428.865 37.5368 L445.184 37.5368 L445.184 41.472 L423.24 41.472 L423.24 37.5368 Q425.902 34.7822 430.485 30.1526 Q435.091 25.4999 436.272 24.1573 Q438.517 21.6341 439.397 19.898 Q440.3 18.1388 440.3 16.449 Q440.3 13.6944 438.355 11.9583 Q436.434 10.2222 433.332 10.2222 Q431.133 10.2222 428.679 10.9861 Q426.249 11.7499 423.471 13.3009 L423.471 8.57866 Q426.295 7.4444 428.749 6.8657 Q431.203 6.287 433.24 6.287 Q438.61 6.287 441.804 8.97217 Q444.999 11.6573 444.999 16.1481 Q444.999 18.2777 444.189 20.199 Q443.402 22.0971 441.295 24.6897 Q440.716 25.361 437.615 28.5786 Q434.513 31.773 428.865 37.5368 Z" fill="#000000" fill-rule="evenodd" fill-opacity="1" /><path clip-path="url(#clip920)" d="M 0 0 M464.999 9.99069 Q461.388 9.99069 459.559 13.5555 Q457.753 17.0971 457.753 24.2267 Q457.753 31.3332 459.559 34.898 Q461.388 38.4396 464.999 38.4396 Q468.633 38.4396 470.439 34.898 Q472.267 31.3332 472.267 24.2267 Q472.267 17.0971 470.439 13.5555 Q468.633 9.99069 464.999 9.99069 M464.999 6.287 Q470.809 6.287 473.864 10.8935 Q476.943 15.4768 476.943 24.2267 Q476.943 32.9535 473.864 37.56 Q470.809 42.1433 464.999 42.1433 Q459.189 42.1433 456.11 37.56 Q453.054 32.9535 453.054 24.2267 Q453.054 15.4768 456.11 10.8935 Q459.189 6.287 464.999 6.287 Z" fill="#000000" fill-rule="evenodd" fill-opacity="1" /><path clip-path="url(#clip920)" d="M 0 0 M494.512 5.45367 L494.512 47.722 L484.698 47.722 L484.698 44.4118 L490.23 44.4118 L490.23 8.76384 L484.698 8.76384 L484.698 5.45367 L494.512 5.45367 Z" fill="#000000" fill-rule="evenodd" fill-opacity="1" /><circle clip-path="url(#clip922)" cx="139.169" cy="894.072" r="14" fill="#0000ff" fill-rule="evenodd" fill-opacity="1" stroke="none"/>
<path clip-path="url(#clip920)" d="M 0 0 M143.387 883.344 L155.627 883.344 L155.627 886.296 L139.169 886.296 L139.169 883.344 Q141.165 881.278 144.603 877.806 Q148.057 874.317 148.943 873.31 Q150.627 871.417 151.286 870.115 Q151.964 868.796 151.964 867.529 Q151.964 865.463 150.505 864.16 Q149.064 862.858 146.738 862.858 Q145.089 862.858 143.248 863.431 Q141.425 864.004 139.342 865.167 L139.342 861.626 Q141.46 860.775 143.3 860.341 Q145.141 859.907 146.668 859.907 Q150.696 859.907 153.092 861.921 Q155.488 863.935 155.488 867.303 Q155.488 868.9 154.88 870.341 Q154.29 871.765 152.71 873.709 Q152.276 874.213 149.95 876.626 Q147.623 879.022 143.387 883.344 Z" fill="#000000" fill-rule="evenodd" fill-opacity="1" /><path clip-path="url(#clip920)" d="M 0 0 M172.623 863.431 L163.769 877.268 L172.623 877.268 L172.623 863.431 M171.703 860.376 L176.113 860.376 L176.113 877.268 L179.811 877.268 L179.811 880.185 L176.113 880.185 L176.113 886.296 L172.623 886.296 L172.623 880.185 L160.922 880.185 L160.922 876.799 L171.703 860.376 Z" fill="#000000" fill-rule="evenodd" fill-opacity="1" /><circle clip-path="url(#clip922)" cx="70.9921" cy="844.188" r="14" fill="#0000ff" fill-rule="evenodd" fill-opacity="1" stroke="none"/>
<circle clip-path="url(#clip922)" cx="70.9921" cy="744.42" r="14" fill="#0000ff" fill-rule="evenodd" fill-opacity="1" stroke="none"/>
<circle clip-path="url(#clip922)" cx="207.345" cy="844.188" r="14" fill="#0000ff" fill-rule="evenodd" fill-opacity="1" stroke="none"/>
<circle clip-path="url(#clip922)" cx="207.345" cy="744.42" r="14" fill="#0000ff" fill-rule="evenodd" fill-opacity="1" stroke="none"/>
<circle clip-path="url(#clip922)" cx="343.698" cy="844.188" r="14" fill="#0000ff" fill-rule="evenodd" fill-opacity="1" stroke="none"/>
<circle clip-path="url(#clip922)" cx="343.698" cy="744.42" r="14" fill="#0000ff" fill-rule="evenodd" fill-opacity="1" stroke="none"/>
<circle clip-path="url(#clip922)" cx="70.9921" cy="544.884" r="14" fill="#0000ff" fill-rule="evenodd" fill-opacity="1" stroke="none"/>
<circle clip-path="url(#clip922)" cx="70.9921" cy="445.116" r="14" fill="#0000ff" fill-rule="evenodd" fill-opacity="1" stroke="none"/>
<circle clip-path="url(#clip922)" cx="207.345" cy="544.884" r="14" fill="#0000ff" fill-rule="evenodd" fill-opacity="1" stroke="none"/>
<circle clip-path="url(#clip922)" cx="207.345" cy="445.116" r="14" fill="#0000ff" fill-rule="evenodd" fill-opacity="1" stroke="none"/>
<circle clip-path="url(#clip922)" cx="343.698" cy="544.884" r="14" fill="#0000ff" fill-rule="evenodd" fill-opacity="1" stroke="none"/>
<circle clip-path="url(#clip922)" cx="343.698" cy="445.116" r="14" fill="#0000ff" fill-rule="evenodd" fill-opacity="1" stroke="none"/>
<circle clip-path="url(#clip922)" cx="275.521" cy="894.072" r="14" fill="#0000ff" fill-rule="evenodd" fill-opacity="1" stroke="none"/>
<circle clip-path="url(#clip922)" cx="411.874" cy="894.072" r="14" fill="#0000ff" fill-rule="evenodd" fill-opacity="1" stroke="none"/>
<circle clip-path="url(#clip922)" cx="139.169" cy="694.536" r="14" fill="#0000ff" fill-rule="evenodd" fill-opacity="1" stroke="none"/>
<circle clip-path="url(#clip922)" cx="139.169" cy="594.768" r="14" fill="#0000ff" fill-rule="evenodd" fill-opacity="1" stroke="none"/>
<circle clip-path="url(#clip922)" cx="275.521" cy="694.536" r="14" fill="#0000ff" fill-rule="evenodd" fill-opacity="1" stroke="none"/>
<circle clip-path="url(#clip922)" cx="275.521" cy="594.768" r="14" fill="#0000ff" fill-rule="evenodd" fill-opacity="1" stroke="none"/>
<circle clip-path="url(#clip922)" cx="411.874" cy="694.536" r="14" fill="#0000ff" fill-rule="evenodd" fill-opacity="1" stroke="none"/>
<circle clip-path="url(#clip922)" cx="411.874" cy="594.768" r="14" fill="#0000ff" fill-rule="evenodd" fill-opacity="1" stroke="none"/>
<circle clip-path="url(#clip922)" cx="139.169" cy="395.232" r="14" fill="#0000ff" fill-rule="evenodd" fill-opacity="1" stroke="none"/>
<circle clip-path="url(#clip922)" cx="139.169" cy="295.464" r="14" fill="#0000ff" fill-rule="evenodd" fill-opacity="1" stroke="none"/>
<path clip-path="url(#clip920)" d="M 0 0 M71.4956 833.46 L77.2247 833.46 L77.2247 813.686 L70.9921 814.936 L70.9921 811.742 L77.19 810.492 L80.6969 810.492 L80.6969 833.46 L86.4261 833.46 L86.4261 836.412 L71.4956 836.412 L71.4956 833.46 Z" fill="#000000" fill-rule="evenodd" fill-opacity="1" /><path clip-path="url(#clip920)" d="M 0 0 M75.2109 733.692 L87.4504 733.692 L87.4504 736.644 L70.9921 736.644 L70.9921 733.692 Q72.9886 731.627 76.4261 728.154 Q79.881 724.665 80.7664 723.658 Q82.4504 721.765 83.1101 720.463 Q83.7872 719.144 83.7872 717.877 Q83.7872 715.811 82.3289 714.509 Q80.8879 713.206 78.5615 713.206 Q76.9122 713.206 75.072 713.779 Q73.2491 714.352 71.1657 715.516 L71.1657 711.974 Q73.2838 711.123 75.124 710.689 Q76.9643 710.255 78.4921 710.255 Q82.5198 710.255 84.9157 712.269 Q87.3115 714.283 87.3115 717.651 Q87.3115 719.248 86.7038 720.689 Q86.1136 722.113 84.5337 724.057 Q84.0997 724.561 81.7733 726.974 Q79.4469 729.37 75.2109 733.692 Z" fill="#000000" fill-rule="evenodd" fill-opacity="1" /><path clip-path="url(#clip920)" d="M 0 0 M219.064 822.436 Q221.581 822.974 222.987 824.676 Q224.411 826.377 224.411 828.877 Q224.411 832.714 221.772 834.815 Q219.133 836.915 214.272 836.915 Q212.64 836.915 210.904 836.585 Q209.185 836.273 207.345 835.631 L207.345 832.245 Q208.803 833.096 210.539 833.53 Q212.275 833.964 214.168 833.964 Q217.466 833.964 219.185 832.662 Q220.921 831.36 220.921 828.877 Q220.921 826.585 219.307 825.301 Q217.709 823.999 214.845 823.999 L211.824 823.999 L211.824 821.117 L214.984 821.117 Q217.571 821.117 218.942 820.092 Q220.314 819.051 220.314 817.106 Q220.314 815.11 218.89 814.051 Q217.484 812.974 214.845 812.974 Q213.404 812.974 211.755 813.287 Q210.105 813.599 208.126 814.259 L208.126 811.134 Q210.123 810.579 211.859 810.301 Q213.612 810.023 215.157 810.023 Q219.15 810.023 221.477 811.846 Q223.803 813.652 223.803 816.742 Q223.803 818.895 222.57 820.388 Q221.338 821.863 219.064 822.436 Z" fill="#000000" fill-rule="evenodd" fill-opacity="1" /><path clip-path="url(#clip920)" d="M 0 0 M219.046 713.779 L210.192 727.616 L219.046 727.616 L219.046 713.779 M218.126 710.724 L222.536 710.724 L222.536 727.616 L226.234 727.616 L226.234 730.533 L222.536 730.533 L222.536 736.644 L219.046 736.644 L219.046 730.533 L207.345 730.533 L207.345 727.147 L218.126 710.724 Z" fill="#000000" fill-rule="evenodd" fill-opacity="1" /><path clip-path="url(#clip920)" d="M 0 0 M344.791 810.492 L358.559 810.492 L358.559 813.443 L348.003 813.443 L348.003 819.797 Q348.767 819.537 349.531 819.415 Q350.295 819.276 351.059 819.276 Q355.399 819.276 357.934 821.655 Q360.468 824.033 360.468 828.096 Q360.468 832.28 357.864 834.606 Q355.26 836.915 350.521 836.915 Q348.889 836.915 347.187 836.638 Q345.503 836.36 343.698 835.804 L343.698 832.28 Q345.26 833.131 346.927 833.547 Q348.593 833.964 350.451 833.964 Q353.455 833.964 355.208 832.384 Q356.961 830.804 356.961 828.096 Q356.961 825.388 355.208 823.808 Q353.455 822.228 350.451 822.228 Q349.045 822.228 347.639 822.54 Q346.25 822.853 344.791 823.513 L344.791 810.492 Z" fill="#000000" fill-rule="evenodd" fill-opacity="1" /><path clip-path="url(#clip920)" d="M 0 0 M352.951 722.286 Q350.59 722.286 349.201 723.901 Q347.83 725.515 347.83 728.328 Q347.83 731.123 349.201 732.755 Q350.59 734.37 352.951 734.37 Q355.312 734.37 356.684 732.755 Q358.073 731.123 358.073 728.328 Q358.073 725.515 356.684 723.901 Q355.312 722.286 352.951 722.286 M359.913 711.297 L359.913 714.491 Q358.593 713.866 357.239 713.536 Q355.902 713.206 354.583 713.206 Q351.111 713.206 349.271 715.55 Q347.448 717.894 347.187 722.634 Q348.212 721.123 349.757 720.325 Q351.302 719.509 353.159 719.509 Q357.066 719.509 359.323 721.887 Q361.597 724.248 361.597 728.328 Q361.597 732.321 359.236 734.734 Q356.875 737.147 352.951 737.147 Q348.455 737.147 346.076 733.71 Q343.698 730.255 343.698 723.71 Q343.698 717.564 346.614 713.918 Q349.531 710.255 354.444 710.255 Q355.764 710.255 357.1 710.516 Q358.455 710.776 359.913 711.297 Z" fill="#000000" fill-rule="evenodd" fill-opacity="1" /><path clip-path="url(#clip920)" d="M 0 0 M70.9921 511.188 L87.6587 511.188 L87.6587 512.681 L78.249 537.108 L74.5859 537.108 L83.44 514.139 L70.9921 514.139 L70.9921 511.188 Z" fill="#000000" fill-rule="evenodd" fill-opacity="1" /><path clip-path="url(#clip920)" d="M 0 0 M79.881 425.031 Q77.381 425.031 75.94 426.368 Q74.5164 427.705 74.5164 430.048 Q74.5164 432.392 75.94 433.729 Q77.381 435.066 79.881 435.066 Q82.381 435.066 83.8219 433.729 Q85.2629 432.375 85.2629 430.048 Q85.2629 427.705 83.8219 426.368 Q82.3983 425.031 79.881 425.031 M76.374 423.538 Q74.1171 422.982 72.8498 421.437 Q71.5998 419.892 71.5998 417.67 Q71.5998 414.562 73.8046 412.757 Q76.0268 410.951 79.881 410.951 Q83.7525 410.951 85.9573 412.757 Q88.1622 414.562 88.1622 417.67 Q88.1622 419.892 86.8948 421.437 Q85.6448 422.982 83.4053 423.538 Q85.94 424.128 87.3462 425.847 Q88.7698 427.566 88.7698 430.048 Q88.7698 433.816 86.4608 435.83 Q84.1691 437.843 79.881 437.843 Q75.5928 437.843 73.2838 435.83 Q70.9921 433.816 70.9921 430.048 Q70.9921 427.566 72.4157 425.847 Q73.8393 424.128 76.374 423.538 M75.0893 418 Q75.0893 420.014 76.3393 421.142 Q77.6067 422.271 79.881 422.271 Q82.1379 422.271 83.4053 421.142 Q84.69 420.014 84.69 418 Q84.69 415.986 83.4053 414.858 Q82.1379 413.729 79.881 413.729 Q77.6067 413.729 76.3393 414.858 Q75.0893 415.986 75.0893 418 Z" fill="#000000" fill-rule="evenodd" fill-opacity="1" /><path clip-path="url(#clip920)" d="M 0 0 M209.012 536.57 L209.012 533.375 Q210.331 534 211.685 534.33 Q213.039 534.66 214.341 534.66 Q217.814 534.66 219.636 532.334 Q221.477 529.99 221.737 525.233 Q220.73 526.726 219.185 527.525 Q217.64 528.323 215.765 528.323 Q211.876 528.323 209.602 525.98 Q207.345 523.618 207.345 519.539 Q207.345 515.546 209.706 513.132 Q212.067 510.719 215.991 510.719 Q220.487 510.719 222.848 514.174 Q225.227 517.612 225.227 524.174 Q225.227 530.302 222.31 533.966 Q219.411 537.611 214.498 537.611 Q213.178 537.611 211.824 537.351 Q210.47 537.091 209.012 536.57 M215.991 525.58 Q218.352 525.58 219.723 523.966 Q221.112 522.351 221.112 519.539 Q221.112 516.743 219.723 515.129 Q218.352 513.497 215.991 513.497 Q213.63 513.497 212.241 515.129 Q210.869 516.743 210.869 519.539 Q210.869 522.351 212.241 523.966 Q213.63 525.58 215.991 525.58 Z" fill="#000000" fill-rule="evenodd" fill-opacity="1" /><path clip-path="url(#clip920)" d="M 0 0 M207.848 434.389 L213.577 434.389 L213.577 414.614 L207.345 415.864 L207.345 412.67 L213.543 411.42 L217.05 411.42 L217.05 434.389 L222.779 434.389 L222.779 437.34 L207.848 437.34 L207.848 434.389 Z" fill="#000000" fill-rule="evenodd" fill-opacity="1" /><path clip-path="url(#clip920)" d="M 0 0 M237.362 413.729 Q234.654 413.729 233.282 416.403 Q231.928 419.059 231.928 424.406 Q231.928 429.736 233.282 432.409 Q234.654 435.066 237.362 435.066 Q240.088 435.066 241.442 432.409 Q242.813 429.736 242.813 424.406 Q242.813 419.059 241.442 416.403 Q240.088 413.729 237.362 413.729 M237.362 410.951 Q241.72 410.951 244.011 414.406 Q246.32 417.844 246.32 424.406 Q246.32 430.951 244.011 434.406 Q241.72 437.843 237.362 437.843 Q233.004 437.843 230.695 434.406 Q228.404 430.951 228.404 424.406 Q228.404 417.844 230.695 414.406 Q233.004 410.951 237.362 410.951 Z" fill="#000000" fill-rule="evenodd" fill-opacity="1" /><path clip-path="url(#clip920)" d="M 0 0 M344.201 534.157 L349.93 534.157 L349.93 514.382 L343.698 515.632 L343.698 512.438 L349.896 511.188 L353.402 511.188 L353.402 534.157 L359.132 534.157 L359.132 537.108 L344.201 537.108 L344.201 534.157 Z" fill="#000000" fill-rule="evenodd" fill-opacity="1" /><path clip-path="url(#clip920)" d="M 0 0 M366.823 534.157 L372.552 534.157 L372.552 514.382 L366.319 515.632 L366.319 512.438 L372.517 511.188 L376.024 511.188 L376.024 534.157 L381.753 534.157 L381.753 537.108 L366.823 537.108 L366.823 534.157 Z" fill="#000000" fill-rule="evenodd" fill-opacity="1" /><path clip-path="url(#clip920)" d="M 0 0 M344.201 434.389 L349.93 434.389 L349.93 414.614 L343.698 415.864 L343.698 412.67 L349.896 411.42 L353.402 411.42 L353.402 434.389 L359.132 434.389 L359.132 437.34 L344.201 437.34 L344.201 434.389 Z" fill="#000000" fill-rule="evenodd" fill-opacity="1" /><path clip-path="url(#clip920)" d="M 0 0 M369.236 434.389 L381.475 434.389 L381.475 437.34 L365.017 437.34 L365.017 434.389 Q367.013 432.323 370.451 428.85 Q373.906 425.361 374.791 424.354 Q376.475 422.462 377.135 421.16 Q377.812 419.84 377.812 418.573 Q377.812 416.507 376.354 415.205 Q374.913 413.903 372.586 413.903 Q370.937 413.903 369.097 414.476 Q367.274 415.048 365.191 416.212 L365.191 412.67 Q367.309 411.819 369.149 411.385 Q370.989 410.951 372.517 410.951 Q376.545 410.951 378.941 412.965 Q381.336 414.979 381.336 418.347 Q381.336 419.944 380.729 421.385 Q380.138 422.809 378.559 424.753 Q378.125 425.257 375.798 427.67 Q373.472 430.066 369.236 434.389 Z" fill="#000000" fill-rule="evenodd" fill-opacity="1" /><path clip-path="url(#clip920)" d="M 0 0 M276.025 883.344 L281.754 883.344 L281.754 863.57 L275.521 864.82 L275.521 861.626 L281.719 860.376 L285.226 860.376 L285.226 883.344 L290.955 883.344 L290.955 886.296 L276.025 886.296 L276.025 883.344 Z" fill="#000000" fill-rule="evenodd" fill-opacity="1" /><path clip-path="url(#clip920)" d="M 0 0 M307.674 863.431 L298.82 877.268 L307.674 877.268 L307.674 863.431 M306.754 860.376 L311.163 860.376 L311.163 877.268 L314.861 877.268 L314.861 880.185 L311.163 880.185 L311.163 886.296 L307.674 886.296 L307.674 880.185 L295.973 880.185 L295.973 876.799 L306.754 860.376 Z" fill="#000000" fill-rule="evenodd" fill-opacity="1" /><path clip-path="url(#clip920)" d="M 0 0 M412.377 883.344 L418.107 883.344 L418.107 863.57 L411.874 864.82 L411.874 861.626 L418.072 860.376 L421.579 860.376 L421.579 883.344 L427.308 883.344 L427.308 886.296 L412.377 886.296 L412.377 883.344 Z" fill="#000000" fill-rule="evenodd" fill-opacity="1" /><path clip-path="url(#clip920)" d="M 0 0 M442.325 871.938 Q439.964 871.938 438.575 873.553 Q437.204 875.167 437.204 877.98 Q437.204 880.775 438.575 882.407 Q439.964 884.021 442.325 884.021 Q444.686 884.021 446.058 882.407 Q447.447 880.775 447.447 877.98 Q447.447 875.167 446.058 873.553 Q444.686 871.938 442.325 871.938 M449.287 860.949 L449.287 864.143 Q447.968 863.518 446.613 863.188 Q445.277 862.858 443.957 862.858 Q440.485 862.858 438.645 865.202 Q436.822 867.546 436.561 872.285 Q437.586 870.775 439.131 869.976 Q440.676 869.16 442.534 869.16 Q446.44 869.16 448.697 871.539 Q450.971 873.9 450.971 877.98 Q450.971 881.973 448.61 884.386 Q446.249 886.799 442.325 886.799 Q437.829 886.799 435.45 883.362 Q433.072 879.907 433.072 873.362 Q433.072 867.216 435.988 863.57 Q438.905 859.907 443.818 859.907 Q445.138 859.907 446.475 860.167 Q447.829 860.428 449.287 860.949 Z" fill="#000000" fill-rule="evenodd" fill-opacity="1" /><path clip-path="url(#clip920)" d="M 0 0 M139.672 683.809 L145.401 683.809 L145.401 664.034 L139.169 665.284 L139.169 662.09 L145.366 660.84 L148.873 660.84 L148.873 683.809 L154.602 683.809 L154.602 686.76 L139.672 686.76 L139.672 683.809 Z" fill="#000000" fill-rule="evenodd" fill-opacity="1" /><path clip-path="url(#clip920)" d="M 0 0 M160.8 660.84 L177.467 660.84 L177.467 662.333 L168.057 686.76 L164.394 686.76 L173.248 663.791 L160.8 663.791 L160.8 660.84 Z" fill="#000000" fill-rule="evenodd" fill-opacity="1" /><path clip-path="url(#clip920)" d="M 0 0 M139.672 584.041 L145.401 584.041 L145.401 564.266 L139.169 565.516 L139.169 562.322 L145.366 561.072 L148.873 561.072 L148.873 584.041 L154.602 584.041 L154.602 586.992 L139.672 586.992 L139.672 584.041 Z" fill="#000000" fill-rule="evenodd" fill-opacity="1" /><path clip-path="url(#clip920)" d="M 0 0 M169.186 574.683 Q166.686 574.683 165.245 576.02 Q163.821 577.357 163.821 579.7 Q163.821 582.044 165.245 583.381 Q166.686 584.718 169.186 584.718 Q171.686 584.718 173.127 583.381 Q174.568 582.027 174.568 579.7 Q174.568 577.357 173.127 576.02 Q171.703 574.683 169.186 574.683 M165.679 573.19 Q163.422 572.634 162.154 571.089 Q160.904 569.544 160.904 567.322 Q160.904 564.214 163.109 562.409 Q165.332 560.603 169.186 560.603 Q173.057 560.603 175.262 562.409 Q177.467 564.214 177.467 567.322 Q177.467 569.544 176.2 571.089 Q174.95 572.634 172.71 573.19 Q175.245 573.78 176.651 575.499 Q178.075 577.218 178.075 579.7 Q178.075 583.468 175.766 585.482 Q173.474 587.495 169.186 587.495 Q164.898 587.495 162.589 585.482 Q160.297 583.468 160.297 579.7 Q160.297 577.218 161.72 575.499 Q163.144 573.78 165.679 573.19 M164.394 567.652 Q164.394 569.666 165.644 570.794 Q166.911 571.923 169.186 571.923 Q171.443 571.923 172.71 570.794 Q173.995 569.666 173.995 567.652 Q173.995 565.638 172.71 564.509 Q171.443 563.381 169.186 563.381 Q166.911 563.381 165.644 564.509 Q164.394 565.638 164.394 567.652 Z" fill="#000000" fill-rule="evenodd" fill-opacity="1" /><path clip-path="url(#clip920)" d="M 0 0 M276.025 683.809 L281.754 683.809 L281.754 664.034 L275.521 665.284 L275.521 662.09 L281.719 660.84 L285.226 660.84 L285.226 683.809 L290.955 683.809 L290.955 686.76 L276.025 686.76 L276.025 683.809 Z" fill="#000000" fill-rule="evenodd" fill-opacity="1" /><path clip-path="url(#clip920)" d="M 0 0 M298.143 686.222 L298.143 683.027 Q299.462 683.652 300.816 683.982 Q302.17 684.312 303.472 684.312 Q306.945 684.312 308.768 681.986 Q310.608 679.642 310.868 674.885 Q309.861 676.378 308.316 677.177 Q306.771 677.975 304.896 677.975 Q301.007 677.975 298.733 675.631 Q296.476 673.27 296.476 669.191 Q296.476 665.198 298.837 662.784 Q301.198 660.371 305.122 660.371 Q309.618 660.371 311.979 663.826 Q314.358 667.263 314.358 673.826 Q314.358 679.954 311.441 683.618 Q308.542 687.263 303.629 687.263 Q302.309 687.263 300.955 687.003 Q299.601 686.743 298.143 686.222 M305.122 675.232 Q307.483 675.232 308.854 673.618 Q310.243 672.003 310.243 669.191 Q310.243 666.395 308.854 664.781 Q307.483 663.149 305.122 663.149 Q302.761 663.149 301.372 664.781 Q300 666.395 300 669.191 Q300 672.003 301.372 673.618 Q302.761 675.232 305.122 675.232 Z" fill="#000000" fill-rule="evenodd" fill-opacity="1" /><path clip-path="url(#clip920)" d="M 0 0 M279.74 584.041 L291.98 584.041 L291.98 586.992 L275.521 586.992 L275.521 584.041 Q277.518 581.975 280.955 578.502 Q284.41 575.013 285.296 574.006 Q286.98 572.114 287.639 570.811 Q288.316 569.492 288.316 568.225 Q288.316 566.159 286.858 564.857 Q285.417 563.555 283.091 563.555 Q281.441 563.555 279.601 564.127 Q277.778 564.7 275.695 565.864 L275.695 562.322 Q277.813 561.471 279.653 561.037 Q281.493 560.603 283.021 560.603 Q287.049 560.603 289.445 562.617 Q291.841 564.631 291.841 567.999 Q291.841 569.596 291.233 571.037 Q290.643 572.461 289.063 574.405 Q288.629 574.909 286.302 577.322 Q283.976 579.718 279.74 584.041 Z" fill="#000000" fill-rule="evenodd" fill-opacity="1" /><path clip-path="url(#clip920)" d="M 0 0 M306.841 563.381 Q304.132 563.381 302.761 566.055 Q301.407 568.711 301.407 574.058 Q301.407 579.388 302.761 582.061 Q304.132 584.718 306.841 584.718 Q309.566 584.718 310.92 582.061 Q312.292 579.388 312.292 574.058 Q312.292 568.711 310.92 566.055 Q309.566 563.381 306.841 563.381 M306.841 560.603 Q311.198 560.603 313.49 564.058 Q315.799 567.496 315.799 574.058 Q315.799 580.603 313.49 584.058 Q311.198 587.495 306.841 587.495 Q302.483 587.495 300.174 584.058 Q297.882 580.603 297.882 574.058 Q297.882 567.496 300.174 564.058 Q302.483 560.603 306.841 560.603 Z" fill="#000000" fill-rule="evenodd" fill-opacity="1" /><path clip-path="url(#clip920)" d="M 0 0 M416.093 683.809 L428.332 683.809 L428.332 686.76 L411.874 686.76 L411.874 683.809 Q413.871 681.743 417.308 678.27 Q420.763 674.781 421.648 673.774 Q423.332 671.881 423.992 670.579 Q424.669 669.26 424.669 667.993 Q424.669 665.927 423.211 664.625 Q421.77 663.323 419.443 663.323 Q417.794 663.323 415.954 663.895 Q414.131 664.468 412.048 665.632 L412.048 662.09 Q414.166 661.239 416.006 660.805 Q417.846 660.371 419.374 660.371 Q423.402 660.371 425.798 662.385 Q428.193 664.399 428.193 667.767 Q428.193 669.364 427.586 670.805 Q426.995 672.229 425.416 674.173 Q424.982 674.677 422.655 677.09 Q420.329 679.486 416.093 683.809 Z" fill="#000000" fill-rule="evenodd" fill-opacity="1" /><path clip-path="url(#clip920)" d="M 0 0 M436.301 683.809 L442.03 683.809 L442.03 664.034 L435.797 665.284 L435.797 662.09 L441.995 660.84 L445.502 660.84 L445.502 683.809 L451.231 683.809 L451.231 686.76 L436.301 686.76 L436.301 683.809 Z" fill="#000000" fill-rule="evenodd" fill-opacity="1" /><path clip-path="url(#clip920)" d="M 0 0 M416.093 584.041 L428.332 584.041 L428.332 586.992 L411.874 586.992 L411.874 584.041 Q413.871 581.975 417.308 578.502 Q420.763 575.013 421.648 574.006 Q423.332 572.114 423.992 570.811 Q424.669 569.492 424.669 568.225 Q424.669 566.159 423.211 564.857 Q421.77 563.555 419.443 563.555 Q417.794 563.555 415.954 564.127 Q414.131 564.7 412.048 565.864 L412.048 562.322 Q414.166 561.471 416.006 561.037 Q417.846 560.603 419.374 560.603 Q423.402 560.603 425.798 562.617 Q428.193 564.631 428.193 567.999 Q428.193 569.596 427.586 571.037 Q426.995 572.461 425.416 574.405 Q424.982 574.909 422.655 577.322 Q420.329 579.718 416.093 584.041 Z" fill="#000000" fill-rule="evenodd" fill-opacity="1" /><path clip-path="url(#clip920)" d="M 0 0 M438.714 584.041 L450.954 584.041 L450.954 586.992 L434.495 586.992 L434.495 584.041 Q436.492 581.975 439.929 578.502 Q443.384 575.013 444.27 574.006 Q445.954 572.114 446.613 570.811 Q447.29 569.492 447.29 568.225 Q447.29 566.159 445.832 564.857 Q444.391 563.555 442.065 563.555 Q440.416 563.555 438.575 564.127 Q436.752 564.7 434.669 565.864 L434.669 562.322 Q436.787 561.471 438.627 561.037 Q440.468 560.603 441.995 560.603 Q446.023 560.603 448.419 562.617 Q450.815 564.631 450.815 567.999 Q450.815 569.596 450.207 571.037 Q449.617 572.461 448.037 574.405 Q447.603 574.909 445.277 577.322 Q442.95 579.718 438.714 584.041 Z" fill="#000000" fill-rule="evenodd" fill-opacity="1" /><path clip-path="url(#clip920)" d="M 0 0 M143.387 384.505 L155.627 384.505 L155.627 387.456 L139.169 387.456 L139.169 384.505 Q141.165 382.439 144.603 378.967 Q148.057 375.477 148.943 374.47 Q150.627 372.578 151.286 371.276 Q151.964 369.956 151.964 368.689 Q151.964 366.623 150.505 365.321 Q149.064 364.019 146.738 364.019 Q145.089 364.019 143.248 364.592 Q141.425 365.165 139.342 366.328 L139.342 362.786 Q141.46 361.935 143.3 361.501 Q145.141 361.067 146.668 361.067 Q150.696 361.067 153.092 363.081 Q155.488 365.095 155.488 368.463 Q155.488 370.06 154.88 371.501 Q154.29 372.925 152.71 374.869 Q152.276 375.373 149.95 377.786 Q147.623 380.182 143.387 384.505 Z" fill="#000000" fill-rule="evenodd" fill-opacity="1" /><path clip-path="url(#clip920)" d="M 0 0 M173.613 373.48 Q176.13 374.019 177.536 375.72 Q178.96 377.421 178.96 379.921 Q178.96 383.758 176.321 385.859 Q173.682 387.96 168.821 387.96 Q167.189 387.96 165.453 387.63 Q163.734 387.317 161.894 386.675 L161.894 383.289 Q163.352 384.14 165.089 384.574 Q166.825 385.008 168.717 385.008 Q172.016 385.008 173.734 383.706 Q175.47 382.404 175.47 379.921 Q175.47 377.63 173.856 376.345 Q172.259 375.043 169.394 375.043 L166.373 375.043 L166.373 372.161 L169.533 372.161 Q172.12 372.161 173.491 371.137 Q174.863 370.095 174.863 368.151 Q174.863 366.154 173.439 365.095 Q172.033 364.019 169.394 364.019 Q167.953 364.019 166.304 364.331 Q164.654 364.644 162.675 365.303 L162.675 362.178 Q164.672 361.623 166.408 361.345 Q168.161 361.067 169.707 361.067 Q173.7 361.067 176.026 362.89 Q178.352 364.696 178.352 367.786 Q178.352 369.939 177.12 371.432 Q175.887 372.908 173.613 373.48 Z" fill="#000000" fill-rule="evenodd" fill-opacity="1" /><path clip-path="url(#clip920)" d="M 0 0 M143.387 284.737 L155.627 284.737 L155.627 287.688 L139.169 287.688 L139.169 284.737 Q141.165 282.671 144.603 279.199 Q148.057 275.709 148.943 274.702 Q150.627 272.81 151.286 271.508 Q151.964 270.188 151.964 268.921 Q151.964 266.855 150.505 265.553 Q149.064 264.251 146.738 264.251 Q145.089 264.251 143.248 264.824 Q141.425 265.397 139.342 266.56 L139.342 263.018 Q141.46 262.167 143.3 261.733 Q145.141 261.299 146.668 261.299 Q150.696 261.299 153.092 263.313 Q155.488 265.327 155.488 268.695 Q155.488 270.292 154.88 271.733 Q154.29 273.157 152.71 275.101 Q152.276 275.605 149.95 278.018 Q147.623 280.414 143.387 284.737 Z" fill="#000000" fill-rule="evenodd" fill-opacity="1" /><path clip-path="url(#clip920)" d="M 0 0 M172.623 264.824 L163.769 278.66 L172.623 278.66 L172.623 264.824 M171.703 261.768 L176.113 261.768 L176.113 278.66 L179.811 278.66 L179.811 281.577 L176.113 281.577 L176.113 287.688 L172.623 287.688 L172.623 281.577 L160.922 281.577 L160.922 278.192 L171.703 261.768 Z" fill="#000000" fill-rule="evenodd" fill-opacity="1" /><circle clip-path="url(#clip922)" cx="70.9921" cy="245.58" r="14" fill="#0000ff" fill-rule="evenodd" fill-opacity="1" stroke="none"/>
<circle clip-path="url(#clip922)" cx="70.9921" cy="145.812" r="14" fill="#0000ff" fill-rule="evenodd" fill-opacity="1" stroke="none"/>
<circle clip-path="url(#clip922)" cx="207.345" cy="245.58" r="14" fill="#0000ff" fill-rule="evenodd" fill-opacity="1" stroke="none"/>
<circle clip-path="url(#clip922)" cx="207.345" cy="145.812" r="14" fill="#0000ff" fill-rule="evenodd" fill-opacity="1" stroke="none"/>
<circle clip-path="url(#clip922)" cx="343.698" cy="245.58" r="14" fill="#0000ff" fill-rule="evenodd" fill-opacity="1" stroke="none"/>
<circle clip-path="url(#clip922)" cx="343.698" cy="145.812" r="14" fill="#0000ff" fill-rule="evenodd" fill-opacity="1" stroke="none"/>
<circle clip-path="url(#clip922)" cx="275.521" cy="395.232" r="14" fill="#0000ff" fill-rule="evenodd" fill-opacity="1" stroke="none"/>
<circle clip-path="url(#clip922)" cx="275.521" cy="295.464" r="14" fill="#0000ff" fill-rule="evenodd" fill-opacity="1" stroke="none"/>
<circle clip-path="url(#clip922)" cx="411.874" cy="395.232" r="14" fill="#0000ff" fill-rule="evenodd" fill-opacity="1" stroke="none"/>
<circle clip-path="url(#clip922)" cx="411.874" cy="295.464" r="14" fill="#0000ff" fill-rule="evenodd" fill-opacity="1" stroke="none"/>
<circle clip-path="url(#clip922)" cx="139.169" cy="95.9282" r="14" fill="#0000ff" fill-rule="evenodd" fill-opacity="1" stroke="none"/>
<circle clip-path="url(#clip922)" cx="275.521" cy="95.9282" r="14" fill="#0000ff" fill-rule="evenodd" fill-opacity="1" stroke="none"/>
<circle clip-path="url(#clip922)" cx="411.874" cy="95.9282" r="14" fill="#0000ff" fill-rule="evenodd" fill-opacity="1" stroke="none"/>
<path clip-path="url(#clip920)" d="M 0 0 M71.4956 234.853 L77.2247 234.853 L77.2247 215.079 L70.9921 216.329 L70.9921 213.134 L77.19 211.884 L80.6969 211.884 L80.6969 234.853 L86.4261 234.853 L86.4261 237.804 L71.4956 237.804 L71.4956 234.853 Z" fill="#000000" fill-rule="evenodd" fill-opacity="1" /><path clip-path="url(#clip920)" d="M 0 0 M75.2109 135.085 L87.4504 135.085 L87.4504 138.036 L70.9921 138.036 L70.9921 135.085 Q72.9886 133.019 76.4261 129.547 Q79.881 126.057 80.7664 125.05 Q82.4504 123.158 83.1101 121.856 Q83.7872 120.536 83.7872 119.269 Q83.7872 117.203 82.3289 115.901 Q80.8879 114.599 78.5615 114.599 Q76.9122 114.599 75.072 115.172 Q73.2491 115.745 71.1657 116.908 L71.1657 113.366 Q73.2838 112.515 75.124 112.081 Q76.9643 111.647 78.4921 111.647 Q82.5198 111.647 84.9157 113.661 Q87.3115 115.675 87.3115 119.043 Q87.3115 120.64 86.7038 122.081 Q86.1136 123.505 84.5337 125.449 Q84.0997 125.953 81.7733 128.366 Q79.4469 130.762 75.2109 135.085 Z" fill="#000000" fill-rule="evenodd" fill-opacity="1" /><path clip-path="url(#clip920)" d="M 0 0 M219.064 223.829 Q221.581 224.367 222.987 226.068 Q224.411 227.769 224.411 230.269 Q224.411 234.106 221.772 236.207 Q219.133 238.308 214.272 238.308 Q212.64 238.308 210.904 237.978 Q209.185 237.665 207.345 237.023 L207.345 233.637 Q208.803 234.488 210.539 234.922 Q212.275 235.356 214.168 235.356 Q217.466 235.356 219.185 234.054 Q220.921 232.752 220.921 230.269 Q220.921 227.978 219.307 226.693 Q217.709 225.391 214.845 225.391 L211.824 225.391 L211.824 222.509 L214.984 222.509 Q217.571 222.509 218.942 221.485 Q220.314 220.443 220.314 218.499 Q220.314 216.502 218.89 215.443 Q217.484 214.367 214.845 214.367 Q213.404 214.367 211.755 214.679 Q210.105 214.992 208.126 215.651 L208.126 212.526 Q210.123 211.971 211.859 211.693 Q213.612 211.415 215.157 211.415 Q219.15 211.415 221.477 213.238 Q223.803 215.044 223.803 218.134 Q223.803 220.287 222.57 221.78 Q221.338 223.256 219.064 223.829 Z" fill="#000000" fill-rule="evenodd" fill-opacity="1" /><path clip-path="url(#clip920)" d="M 0 0 M219.046 115.172 L210.192 129.008 L219.046 129.008 L219.046 115.172 M218.126 112.116 L222.536 112.116 L222.536 129.008 L226.234 129.008 L226.234 131.925 L222.536 131.925 L222.536 138.036 L219.046 138.036 L219.046 131.925 L207.345 131.925 L207.345 128.54 L218.126 112.116 Z" fill="#000000" fill-rule="evenodd" fill-opacity="1" /><path clip-path="url(#clip920)" d="M 0 0 M344.791 211.884 L358.559 211.884 L358.559 214.836 L348.003 214.836 L348.003 221.19 Q348.767 220.929 349.531 220.808 Q350.295 220.669 351.059 220.669 Q355.399 220.669 357.934 223.047 Q360.468 225.426 360.468 229.488 Q360.468 233.672 357.864 235.999 Q355.26 238.308 350.521 238.308 Q348.889 238.308 347.187 238.03 Q345.503 237.752 343.698 237.197 L343.698 233.672 Q345.26 234.523 346.927 234.94 Q348.593 235.356 350.451 235.356 Q353.455 235.356 355.208 233.776 Q356.961 232.197 356.961 229.488 Q356.961 226.78 355.208 225.2 Q353.455 223.62 350.451 223.62 Q349.045 223.62 347.639 223.933 Q346.25 224.245 344.791 224.905 L344.791 211.884 Z" fill="#000000" fill-rule="evenodd" fill-opacity="1" /><path clip-path="url(#clip920)" d="M 0 0 M352.951 123.679 Q350.59 123.679 349.201 125.293 Q347.83 126.908 347.83 129.72 Q347.83 132.515 349.201 134.147 Q350.59 135.762 352.951 135.762 Q355.312 135.762 356.684 134.147 Q358.073 132.515 358.073 129.72 Q358.073 126.908 356.684 125.293 Q355.312 123.679 352.951 123.679 M359.913 112.689 L359.913 115.884 Q358.593 115.259 357.239 114.929 Q355.902 114.599 354.583 114.599 Q351.111 114.599 349.271 116.943 Q347.448 119.286 347.187 124.026 Q348.212 122.515 349.757 121.717 Q351.302 120.901 353.159 120.901 Q357.066 120.901 359.323 123.279 Q361.597 125.64 361.597 129.72 Q361.597 133.713 359.236 136.126 Q356.875 138.54 352.951 138.54 Q348.455 138.54 346.076 135.102 Q343.698 131.647 343.698 125.102 Q343.698 118.956 346.614 115.311 Q349.531 111.647 354.444 111.647 Q355.764 111.647 357.1 111.908 Q358.455 112.168 359.913 112.689 Z" fill="#000000" fill-rule="evenodd" fill-opacity="1" /><path clip-path="url(#clip920)" d="M 0 0 M276.025 384.505 L281.754 384.505 L281.754 364.73 L275.521 365.98 L275.521 362.786 L281.719 361.536 L285.226 361.536 L285.226 384.505 L290.955 384.505 L290.955 387.456 L276.025 387.456 L276.025 384.505 Z" fill="#000000" fill-rule="evenodd" fill-opacity="1" /><path clip-path="url(#clip920)" d="M 0 0 M308.663 373.48 Q311.181 374.019 312.587 375.72 Q314.011 377.421 314.011 379.921 Q314.011 383.758 311.372 385.859 Q308.733 387.96 303.872 387.96 Q302.24 387.96 300.504 387.63 Q298.785 387.317 296.945 386.675 L296.945 383.289 Q298.403 384.14 300.139 384.574 Q301.875 385.008 303.768 385.008 Q307.066 385.008 308.785 383.706 Q310.521 382.404 310.521 379.921 Q310.521 377.63 308.906 376.345 Q307.309 375.043 304.445 375.043 L301.424 375.043 L301.424 372.161 L304.584 372.161 Q307.17 372.161 308.542 371.137 Q309.913 370.095 309.913 368.151 Q309.913 366.154 308.49 365.095 Q307.084 364.019 304.445 364.019 Q303.004 364.019 301.354 364.331 Q299.705 364.644 297.726 365.303 L297.726 362.178 Q299.723 361.623 301.459 361.345 Q303.212 361.067 304.757 361.067 Q308.75 361.067 311.077 362.89 Q313.403 364.696 313.403 367.786 Q313.403 369.939 312.17 371.432 Q310.938 372.908 308.663 373.48 Z" fill="#000000" fill-rule="evenodd" fill-opacity="1" /><path clip-path="url(#clip920)" d="M 0 0 M276.025 284.737 L281.754 284.737 L281.754 264.963 L275.521 266.213 L275.521 263.018 L281.719 261.768 L285.226 261.768 L285.226 284.737 L290.955 284.737 L290.955 287.688 L276.025 287.688 L276.025 284.737 Z" fill="#000000" fill-rule="evenodd" fill-opacity="1" /><path clip-path="url(#clip920)" d="M 0 0 M307.674 264.824 L298.82 278.66 L307.674 278.66 L307.674 264.824 M306.754 261.768 L311.163 261.768 L311.163 278.66 L314.861 278.66 L314.861 281.577 L311.163 281.577 L311.163 287.688 L307.674 287.688 L307.674 281.577 L295.973 281.577 L295.973 278.192 L306.754 261.768 Z" fill="#000000" fill-rule="evenodd" fill-opacity="1" /><path clip-path="url(#clip920)" d="M 0 0 M412.377 384.505 L418.107 384.505 L418.107 364.73 L411.874 365.98 L411.874 362.786 L418.072 361.536 L421.579 361.536 L421.579 384.505 L427.308 384.505 L427.308 387.456 L412.377 387.456 L412.377 384.505 Z" fill="#000000" fill-rule="evenodd" fill-opacity="1" /><path clip-path="url(#clip920)" d="M 0 0 M434.426 361.536 L448.193 361.536 L448.193 364.487 L437.638 364.487 L437.638 370.842 Q438.402 370.581 439.166 370.46 Q439.929 370.321 440.693 370.321 Q445.034 370.321 447.568 372.699 Q450.103 375.078 450.103 379.14 Q450.103 383.324 447.499 385.651 Q444.895 387.96 440.155 387.96 Q438.523 387.96 436.822 387.682 Q435.138 387.404 433.332 386.848 L433.332 383.324 Q434.895 384.175 436.561 384.591 Q438.228 385.008 440.086 385.008 Q443.089 385.008 444.843 383.428 Q446.596 381.848 446.596 379.14 Q446.596 376.432 444.843 374.852 Q443.089 373.272 440.086 373.272 Q438.679 373.272 437.273 373.585 Q435.884 373.897 434.426 374.557 L434.426 361.536 Z" fill="#000000" fill-rule="evenodd" fill-opacity="1" /><path clip-path="url(#clip920)" d="M 0 0 M412.377 284.737 L418.107 284.737 L418.107 264.963 L411.874 266.213 L411.874 263.018 L418.072 261.768 L421.579 261.768 L421.579 284.737 L427.308 284.737 L427.308 287.688 L412.377 287.688 L412.377 284.737 Z" fill="#000000" fill-rule="evenodd" fill-opacity="1" /><path clip-path="url(#clip920)" d="M 0 0 M442.325 273.331 Q439.964 273.331 438.575 274.945 Q437.204 276.56 437.204 279.372 Q437.204 282.167 438.575 283.799 Q439.964 285.414 442.325 285.414 Q444.686 285.414 446.058 283.799 Q447.447 282.167 447.447 279.372 Q447.447 276.56 446.058 274.945 Q444.686 273.331 442.325 273.331 M449.287 262.341 L449.287 265.535 Q447.968 264.91 446.613 264.581 Q445.277 264.251 443.957 264.251 Q440.485 264.251 438.645 266.594 Q436.822 268.938 436.561 273.678 Q437.586 272.167 439.131 271.369 Q440.676 270.553 442.534 270.553 Q446.44 270.553 448.697 272.931 Q450.971 275.292 450.971 279.372 Q450.971 283.365 448.61 285.778 Q446.249 288.192 442.325 288.192 Q437.829 288.192 435.45 284.754 Q433.072 281.299 433.072 274.754 Q433.072 268.608 435.988 264.963 Q438.905 261.299 443.818 261.299 Q445.138 261.299 446.475 261.56 Q447.829 261.82 449.287 262.341 Z" fill="#000000" fill-rule="evenodd" fill-opacity="1" /><path clip-path="url(#clip920)" d="M 0 0 M139.672 85.2008 L145.401 85.2008 L145.401 65.4266 L139.169 66.6766 L139.169 63.4822 L145.366 62.2322 L148.873 62.2322 L148.873 85.2008 L154.602 85.2008 L154.602 88.1522 L139.672 88.1522 L139.672 85.2008 Z" fill="#000000" fill-rule="evenodd" fill-opacity="1" /><path clip-path="url(#clip920)" d="M 0 0 M160.8 62.2322 L177.467 62.2322 L177.467 63.7253 L168.057 88.1522 L164.394 88.1522 L173.248 65.1836 L160.8 65.1836 L160.8 62.2322 Z" fill="#000000" fill-rule="evenodd" fill-opacity="1" /><path clip-path="url(#clip920)" d="M 0 0 M276.025 85.2008 L281.754 85.2008 L281.754 65.4266 L275.521 66.6766 L275.521 63.4822 L281.719 62.2322 L285.226 62.2322 L285.226 85.2008 L290.955 85.2008 L290.955 88.1522 L276.025 88.1522 L276.025 85.2008 Z" fill="#000000" fill-rule="evenodd" fill-opacity="1" /><path clip-path="url(#clip920)" d="M 0 0 M298.143 87.614 L298.143 84.4196 Q299.462 85.0446 300.816 85.3745 Q302.17 85.7043 303.472 85.7043 Q306.945 85.7043 308.768 83.3779 Q310.608 81.0342 310.868 76.2773 Q309.861 77.7703 308.316 78.5689 Q306.771 79.3675 304.896 79.3675 Q301.007 79.3675 298.733 77.0238 Q296.476 74.6627 296.476 70.5829 Q296.476 66.5898 298.837 64.1767 Q301.198 61.7635 305.122 61.7635 Q309.618 61.7635 311.979 65.2183 Q314.358 68.6558 314.358 75.2183 Q314.358 81.3467 311.441 85.0099 Q308.542 88.6557 303.629 88.6557 Q302.309 88.6557 300.955 88.3953 Q299.601 88.1349 298.143 87.614 M305.122 76.6245 Q307.483 76.6245 308.854 75.0099 Q310.243 73.3954 310.243 70.5829 Q310.243 67.7877 308.854 66.1732 Q307.483 64.5412 305.122 64.5412 Q302.761 64.5412 301.372 66.1732 Q300 67.7877 300 70.5829 Q300 73.3954 301.372 75.0099 Q302.761 76.6245 305.122 76.6245 Z" fill="#000000" fill-rule="evenodd" fill-opacity="1" /><path clip-path="url(#clip920)" d="M 0 0 M416.093 85.2008 L428.332 85.2008 L428.332 88.1522 L411.874 88.1522 L411.874 85.2008 Q413.871 83.1349 417.308 79.6627 Q420.763 76.1731 421.648 75.1662 Q423.332 73.2738 423.992 71.9718 Q424.669 70.6523 424.669 69.385 Q424.669 67.319 423.211 66.0169 Q421.77 64.7148 419.443 64.7148 Q417.794 64.7148 415.954 65.2878 Q414.131 65.8607 412.048 67.0239 L412.048 63.4822 Q414.166 62.6315 416.006 62.1975 Q417.846 61.7635 419.374 61.7635 Q423.402 61.7635 425.798 63.7774 Q428.193 65.7912 428.193 69.1593 Q428.193 70.7565 427.586 72.1974 Q426.995 73.621 425.416 75.5655 Q424.982 76.069 422.655 78.4821 Q420.329 80.878 416.093 85.2008 Z" fill="#000000" fill-rule="evenodd" fill-opacity="1" /><path clip-path="url(#clip920)" d="M 0 0 M436.301 85.2008 L442.03 85.2008 L442.03 65.4266 L435.797 66.6766 L435.797 63.4822 L441.995 62.2322 L445.502 62.2322 L445.502 85.2008 L451.231 85.2008 L451.231 88.1522 L436.301 88.1522 L436.301 85.2008 Z" fill="#000000" fill-rule="evenodd" fill-opacity="1" /><circle clip-path="url(#clip922)" cx="480.05" cy="844.188" r="14" fill="#0000ff" fill-rule="evenodd" fill-opacity="1" stroke="none"/>
<circle clip-path="url(#clip922)" cx="480.05" cy="744.42" r="14" fill="#0000ff" fill-rule="evenodd" fill-opacity="1" stroke="none"/>
<circle clip-path="url(#clip922)" cx="616.403" cy="844.188" r="14" fill="#0000ff" fill-rule="evenodd" fill-opacity="1" stroke="none"/>
<circle clip-path="url(#clip922)" cx="616.403" cy="744.42" r="14" fill="#0000ff" fill-rule="evenodd" fill-opacity="1" stroke="none"/>
<circle clip-path="url(#clip922)" cx="752.756" cy="844.188" r="14" fill="#0000ff" fill-rule="evenodd" fill-opacity="1" stroke="none"/>
<circle clip-path="url(#clip922)" cx="752.756" cy="744.42" r="14" fill="#0000ff" fill-rule="evenodd" fill-opacity="1" stroke="none"/>
<circle clip-path="url(#clip922)" cx="548.227" cy="894.072" r="14" fill="#0000ff" fill-rule="evenodd" fill-opacity="1" stroke="none"/>
<circle clip-path="url(#clip922)" cx="684.58" cy="894.072" r="14" fill="#0000ff" fill-rule="evenodd" fill-opacity="1" stroke="none"/>
<circle clip-path="url(#clip922)" cx="548.227" cy="694.536" r="14" fill="#0000ff" fill-rule="evenodd" fill-opacity="1" stroke="none"/>
<circle clip-path="url(#clip922)" cx="548.227" cy="594.768" r="14" fill="#0000ff" fill-rule="evenodd" fill-opacity="1" stroke="none"/>
<path clip-path="url(#clip920)" d="M 0 0 M480.05 810.492 L496.717 810.492 L496.717 811.985 L487.307 836.412 L483.644 836.412 L492.498 813.443 L480.05 813.443 L480.05 810.492 Z" fill="#000000" fill-rule="evenodd" fill-opacity="1" /><path clip-path="url(#clip920)" d="M 0 0 M488.939 724.335 Q486.439 724.335 484.998 725.672 Q483.575 727.008 483.575 729.352 Q483.575 731.696 484.998 733.033 Q486.439 734.37 488.939 734.37 Q491.439 734.37 492.88 733.033 Q494.321 731.679 494.321 729.352 Q494.321 727.008 492.88 725.672 Q491.457 724.335 488.939 724.335 M485.432 722.842 Q483.175 722.286 481.908 720.741 Q480.658 719.196 480.658 716.974 Q480.658 713.866 482.863 712.061 Q485.085 710.255 488.939 710.255 Q492.811 710.255 495.016 712.061 Q497.22 713.866 497.22 716.974 Q497.22 719.196 495.953 720.741 Q494.703 722.286 492.464 722.842 Q494.998 723.432 496.404 725.151 Q497.828 726.87 497.828 729.352 Q497.828 733.12 495.519 735.133 Q493.227 737.147 488.939 737.147 Q484.651 737.147 482.342 735.133 Q480.05 733.12 480.05 729.352 Q480.05 726.87 481.474 725.151 Q482.898 723.432 485.432 722.842 M484.148 717.304 Q484.148 719.318 485.398 720.446 Q486.665 721.574 488.939 721.574 Q491.196 721.574 492.464 720.446 Q493.748 719.318 493.748 717.304 Q493.748 715.29 492.464 714.161 Q491.196 713.033 488.939 713.033 Q486.665 713.033 485.398 714.161 Q484.148 715.29 484.148 717.304 Z" fill="#000000" fill-rule="evenodd" fill-opacity="1" /><path clip-path="url(#clip920)" d="M 0 0 M618.07 835.874 L618.07 832.679 Q619.389 833.304 620.743 833.634 Q622.098 833.964 623.4 833.964 Q626.872 833.964 628.695 831.638 Q630.535 829.294 630.795 824.537 Q629.788 826.03 628.243 826.829 Q626.698 827.627 624.823 827.627 Q620.934 827.627 618.66 825.283 Q616.403 822.922 616.403 818.842 Q616.403 814.849 618.764 812.436 Q621.125 810.023 625.049 810.023 Q629.545 810.023 631.907 813.478 Q634.285 816.915 634.285 823.478 Q634.285 829.606 631.368 833.269 Q628.469 836.915 623.556 836.915 Q622.236 836.915 620.882 836.655 Q619.528 836.394 618.07 835.874 M625.049 824.884 Q627.41 824.884 628.782 823.27 Q630.17 821.655 630.17 818.842 Q630.17 816.047 628.782 814.433 Q627.41 812.801 625.049 812.801 Q622.688 812.801 621.299 814.433 Q619.927 816.047 619.927 818.842 Q619.927 821.655 621.299 823.27 Q622.688 824.884 625.049 824.884 Z" fill="#000000" fill-rule="evenodd" fill-opacity="1" /><path clip-path="url(#clip920)" d="M 0 0 M616.907 733.692 L622.636 733.692 L622.636 713.918 L616.403 715.168 L616.403 711.974 L622.601 710.724 L626.108 710.724 L626.108 733.692 L631.837 733.692 L631.837 736.644 L616.907 736.644 L616.907 733.692 Z" fill="#000000" fill-rule="evenodd" fill-opacity="1" /><path clip-path="url(#clip920)" d="M 0 0 M646.42 713.033 Q643.712 713.033 642.341 715.706 Q640.986 718.363 640.986 723.71 Q640.986 729.04 642.341 731.713 Q643.712 734.37 646.42 734.37 Q649.146 734.37 650.5 731.713 Q651.872 729.04 651.872 723.71 Q651.872 718.363 650.5 715.706 Q649.146 713.033 646.42 713.033 M646.42 710.255 Q650.778 710.255 653.07 713.71 Q655.379 717.147 655.379 723.71 Q655.379 730.255 653.07 733.71 Q650.778 737.147 646.42 737.147 Q642.063 737.147 639.754 733.71 Q637.462 730.255 637.462 723.71 Q637.462 717.147 639.754 713.71 Q642.063 710.255 646.42 710.255 Z" fill="#000000" fill-rule="evenodd" fill-opacity="1" /><path clip-path="url(#clip920)" d="M 0 0 M753.259 833.46 L758.989 833.46 L758.989 813.686 L752.756 814.936 L752.756 811.742 L758.954 810.492 L762.461 810.492 L762.461 833.46 L768.19 833.46 L768.19 836.412 L753.259 836.412 L753.259 833.46 Z" fill="#000000" fill-rule="evenodd" fill-opacity="1" /><path clip-path="url(#clip920)" d="M 0 0 M775.881 833.46 L781.61 833.46 L781.61 813.686 L775.377 814.936 L775.377 811.742 L781.575 810.492 L785.082 810.492 L785.082 833.46 L790.811 833.46 L790.811 836.412 L775.881 836.412 L775.881 833.46 Z" fill="#000000" fill-rule="evenodd" fill-opacity="1" /><path clip-path="url(#clip920)" d="M 0 0 M753.259 733.692 L758.989 733.692 L758.989 713.918 L752.756 715.168 L752.756 711.974 L758.954 710.724 L762.461 710.724 L762.461 733.692 L768.19 733.692 L768.19 736.644 L753.259 736.644 L753.259 733.692 Z" fill="#000000" fill-rule="evenodd" fill-opacity="1" /><path clip-path="url(#clip920)" d="M 0 0 M778.294 733.692 L790.533 733.692 L790.533 736.644 L774.075 736.644 L774.075 733.692 Q776.072 731.627 779.509 728.154 Q782.964 724.665 783.849 723.658 Q785.534 721.765 786.193 720.463 Q786.87 719.144 786.87 717.877 Q786.87 715.811 785.412 714.509 Q783.971 713.206 781.645 713.206 Q779.995 713.206 778.155 713.779 Q776.332 714.352 774.249 715.516 L774.249 711.974 Q776.367 711.123 778.207 710.689 Q780.047 710.255 781.575 710.255 Q785.603 710.255 787.999 712.269 Q790.395 714.283 790.395 717.651 Q790.395 719.248 789.787 720.689 Q789.197 722.113 787.617 724.057 Q787.183 724.561 784.856 726.974 Q782.53 729.37 778.294 733.692 Z" fill="#000000" fill-rule="evenodd" fill-opacity="1" /><path clip-path="url(#clip920)" d="M 0 0 M548.73 883.344 L554.459 883.344 L554.459 863.57 L548.227 864.82 L548.227 861.626 L554.425 860.376 L557.932 860.376 L557.932 883.344 L563.661 883.344 L563.661 886.296 L548.73 886.296 L548.73 883.344 Z" fill="#000000" fill-rule="evenodd" fill-opacity="1" /><path clip-path="url(#clip920)" d="M 0 0 M578.244 873.987 Q575.744 873.987 574.303 875.324 Q572.879 876.66 572.879 879.004 Q572.879 881.348 574.303 882.685 Q575.744 884.021 578.244 884.021 Q580.744 884.021 582.185 882.685 Q583.626 881.331 583.626 879.004 Q583.626 876.66 582.185 875.324 Q580.761 873.987 578.244 873.987 M574.737 872.494 Q572.48 871.938 571.213 870.393 Q569.963 868.848 569.963 866.626 Q569.963 863.518 572.168 861.713 Q574.39 859.907 578.244 859.907 Q582.115 859.907 584.32 861.713 Q586.525 863.518 586.525 866.626 Q586.525 868.848 585.258 870.393 Q584.008 871.938 581.768 872.494 Q584.303 873.084 585.709 874.803 Q587.133 876.522 587.133 879.004 Q587.133 882.771 584.824 884.785 Q582.532 886.799 578.244 886.799 Q573.956 886.799 571.647 884.785 Q569.355 882.771 569.355 879.004 Q569.355 876.522 570.779 874.803 Q572.202 873.084 574.737 872.494 M573.452 866.956 Q573.452 868.969 574.702 870.098 Q575.97 871.226 578.244 871.226 Q580.501 871.226 581.768 870.098 Q583.053 868.969 583.053 866.956 Q583.053 864.942 581.768 863.813 Q580.501 862.685 578.244 862.685 Q575.97 862.685 574.702 863.813 Q573.452 864.942 573.452 866.956 Z" fill="#000000" fill-rule="evenodd" fill-opacity="1" /><path clip-path="url(#clip920)" d="M 0 0 M688.798 883.344 L701.038 883.344 L701.038 886.296 L684.58 886.296 L684.58 883.344 Q686.576 881.278 690.014 877.806 Q693.468 874.317 694.354 873.31 Q696.038 871.417 696.698 870.115 Q697.375 868.796 697.375 867.529 Q697.375 865.463 695.916 864.16 Q694.475 862.858 692.149 862.858 Q690.5 862.858 688.659 863.431 Q686.836 864.004 684.753 865.167 L684.753 861.626 Q686.871 860.775 688.711 860.341 Q690.552 859.907 692.079 859.907 Q696.107 859.907 698.503 861.921 Q700.899 863.935 700.899 867.303 Q700.899 868.9 700.291 870.341 Q699.701 871.765 698.121 873.709 Q697.687 874.213 695.361 876.626 Q693.034 879.022 688.798 883.344 Z" fill="#000000" fill-rule="evenodd" fill-opacity="1" /><path clip-path="url(#clip920)" d="M 0 0 M715.899 862.685 Q713.19 862.685 711.819 865.358 Q710.465 868.015 710.465 873.362 Q710.465 878.692 711.819 881.365 Q713.19 884.021 715.899 884.021 Q718.624 884.021 719.979 881.365 Q721.35 878.692 721.35 873.362 Q721.35 868.015 719.979 865.358 Q718.624 862.685 715.899 862.685 M715.899 859.907 Q720.256 859.907 722.548 863.362 Q724.857 866.799 724.857 873.362 Q724.857 879.907 722.548 883.362 Q720.256 886.799 715.899 886.799 Q711.541 886.799 709.232 883.362 Q706.941 879.907 706.941 873.362 Q706.941 866.799 709.232 863.362 Q711.541 859.907 715.899 859.907 Z" fill="#000000" fill-rule="evenodd" fill-opacity="1" /><path clip-path="url(#clip920)" d="M 0 0 M552.445 683.809 L564.685 683.809 L564.685 686.76 L548.227 686.76 L548.227 683.809 Q550.223 681.743 553.661 678.27 Q557.116 674.781 558.001 673.774 Q559.685 671.881 560.345 670.579 Q561.022 669.26 561.022 667.993 Q561.022 665.927 559.564 664.625 Q558.123 663.323 555.796 663.323 Q554.147 663.323 552.307 663.895 Q550.484 664.468 548.4 665.632 L548.4 662.09 Q550.518 661.239 552.359 660.805 Q554.199 660.371 555.727 660.371 Q559.754 660.371 562.15 662.385 Q564.546 664.399 564.546 667.767 Q564.546 669.364 563.938 670.805 Q563.348 672.229 561.768 674.173 Q561.334 674.677 559.008 677.09 Q556.682 679.486 552.445 683.809 Z" fill="#000000" fill-rule="evenodd" fill-opacity="1" /><path clip-path="url(#clip920)" d="M 0 0 M582.671 672.784 Q585.188 673.322 586.595 675.024 Q588.018 676.725 588.018 679.225 Q588.018 683.062 585.379 685.163 Q582.74 687.263 577.879 687.263 Q576.247 687.263 574.511 686.934 Q572.793 686.621 570.952 685.979 L570.952 682.593 Q572.411 683.444 574.147 683.878 Q575.883 684.312 577.775 684.312 Q581.074 684.312 582.793 683.01 Q584.529 681.708 584.529 679.225 Q584.529 676.934 582.914 675.649 Q581.317 674.347 578.452 674.347 L575.431 674.347 L575.431 671.465 L578.591 671.465 Q581.178 671.465 582.55 670.441 Q583.921 669.399 583.921 667.454 Q583.921 665.458 582.497 664.399 Q581.091 663.323 578.452 663.323 Q577.011 663.323 575.362 663.635 Q573.713 663.948 571.734 664.607 L571.734 661.482 Q573.73 660.927 575.466 660.649 Q577.22 660.371 578.765 660.371 Q582.758 660.371 585.084 662.194 Q587.411 664 587.411 667.09 Q587.411 669.243 586.178 670.736 Q584.945 672.211 582.671 672.784 Z" fill="#000000" fill-rule="evenodd" fill-opacity="1" /><path clip-path="url(#clip920)" d="M 0 0 M552.445 584.041 L564.685 584.041 L564.685 586.992 L548.227 586.992 L548.227 584.041 Q550.223 581.975 553.661 578.502 Q557.116 575.013 558.001 574.006 Q559.685 572.114 560.345 570.811 Q561.022 569.492 561.022 568.225 Q561.022 566.159 559.564 564.857 Q558.123 563.555 555.796 563.555 Q554.147 563.555 552.307 564.127 Q550.484 564.7 548.4 565.864 L548.4 562.322 Q550.518 561.471 552.359 561.037 Q554.199 560.603 555.727 560.603 Q559.754 560.603 562.15 562.617 Q564.546 564.631 564.546 567.999 Q564.546 569.596 563.938 571.037 Q563.348 572.461 561.768 574.405 Q561.334 574.909 559.008 577.322 Q556.682 579.718 552.445 584.041 Z" fill="#000000" fill-rule="evenodd" fill-opacity="1" /><path clip-path="url(#clip920)" d="M 0 0 M581.681 564.127 L572.827 577.964 L581.681 577.964 L581.681 564.127 M580.761 561.072 L585.171 561.072 L585.171 577.964 L588.869 577.964 L588.869 580.881 L585.171 580.881 L585.171 586.992 L581.681 586.992 L581.681 580.881 L569.98 580.881 L569.98 577.495 L580.761 561.072 Z" fill="#000000" fill-rule="evenodd" fill-opacity="1" /><circle clip-path="url(#clip922)" cx="480.05" cy="544.884" r="14" fill="#0000ff" fill-rule="evenodd" fill-opacity="1" stroke="none"/>
<circle clip-path="url(#clip922)" cx="480.05" cy="445.116" r="14" fill="#0000ff" fill-rule="evenodd" fill-opacity="1" stroke="none"/>
<circle clip-path="url(#clip922)" cx="616.403" cy="544.884" r="14" fill="#0000ff" fill-rule="evenodd" fill-opacity="1" stroke="none"/>
<circle clip-path="url(#clip922)" cx="616.403" cy="445.116" r="14" fill="#0000ff" fill-rule="evenodd" fill-opacity="1" stroke="none"/>
<circle clip-path="url(#clip922)" cx="752.756" cy="544.884" r="14" fill="#0000ff" fill-rule="evenodd" fill-opacity="1" stroke="none"/>
<circle clip-path="url(#clip922)" cx="752.756" cy="445.116" r="14" fill="#0000ff" fill-rule="evenodd" fill-opacity="1" stroke="none"/>
<circle clip-path="url(#clip922)" cx="480.05" cy="245.58" r="14" fill="#0000ff" fill-rule="evenodd" fill-opacity="1" stroke="none"/>
<circle clip-path="url(#clip922)" cx="480.05" cy="145.812" r="14" fill="#0000ff" fill-rule="evenodd" fill-opacity="1" stroke="none"/>
<circle clip-path="url(#clip922)" cx="616.403" cy="245.58" r="14" fill="#0000ff" fill-rule="evenodd" fill-opacity="1" stroke="none"/>
<circle clip-path="url(#clip922)" cx="616.403" cy="145.812" r="14" fill="#0000ff" fill-rule="evenodd" fill-opacity="1" stroke="none"/>
<circle clip-path="url(#clip922)" cx="752.756" cy="245.58" r="14" fill="#0000ff" fill-rule="evenodd" fill-opacity="1" stroke="none"/>
<circle clip-path="url(#clip922)" cx="752.756" cy="145.812" r="14" fill="#0000ff" fill-rule="evenodd" fill-opacity="1" stroke="none"/>
<circle clip-path="url(#clip922)" cx="684.58" cy="694.536" r="14" fill="#0000ff" fill-rule="evenodd" fill-opacity="1" stroke="none"/>
<circle clip-path="url(#clip922)" cx="684.58" cy="594.768" r="14" fill="#0000ff" fill-rule="evenodd" fill-opacity="1" stroke="none"/>
<circle clip-path="url(#clip922)" cx="548.227" cy="395.232" r="14" fill="#0000ff" fill-rule="evenodd" fill-opacity="1" stroke="none"/>
<circle clip-path="url(#clip922)" cx="548.227" cy="295.464" r="14" fill="#0000ff" fill-rule="evenodd" fill-opacity="1" stroke="none"/>
<circle clip-path="url(#clip922)" cx="684.58" cy="395.232" r="14" fill="#0000ff" fill-rule="evenodd" fill-opacity="1" stroke="none"/>
<circle clip-path="url(#clip922)" cx="684.58" cy="295.464" r="14" fill="#0000ff" fill-rule="evenodd" fill-opacity="1" stroke="none"/>
<circle clip-path="url(#clip922)" cx="548.227" cy="95.9282" r="14" fill="#0000ff" fill-rule="evenodd" fill-opacity="1" stroke="none"/>
<path clip-path="url(#clip920)" d="M 0 0 M480.554 534.157 L486.283 534.157 L486.283 514.382 L480.05 515.632 L480.05 512.438 L486.248 511.188 L489.755 511.188 L489.755 534.157 L495.484 534.157 L495.484 537.108 L480.554 537.108 L480.554 534.157 Z" fill="#000000" fill-rule="evenodd" fill-opacity="1" /><path clip-path="url(#clip920)" d="M 0 0 M484.269 434.389 L496.509 434.389 L496.509 437.34 L480.05 437.34 L480.05 434.389 Q482.047 432.323 485.484 428.85 Q488.939 425.361 489.825 424.354 Q491.509 422.462 492.168 421.16 Q492.845 419.84 492.845 418.573 Q492.845 416.507 491.387 415.205 Q489.946 413.903 487.62 413.903 Q485.971 413.903 484.13 414.476 Q482.307 415.048 480.224 416.212 L480.224 412.67 Q482.342 411.819 484.182 411.385 Q486.023 410.951 487.55 410.951 Q491.578 410.951 493.974 412.965 Q496.37 414.979 496.37 418.347 Q496.37 419.944 495.762 421.385 Q495.172 422.809 493.592 424.753 Q493.158 425.257 490.832 427.67 Q488.505 430.066 484.269 434.389 Z" fill="#000000" fill-rule="evenodd" fill-opacity="1" /><path clip-path="url(#clip920)" d="M 0 0 M628.122 523.132 Q630.639 523.671 632.045 525.372 Q633.469 527.073 633.469 529.573 Q633.469 533.41 630.83 535.511 Q628.191 537.611 623.33 537.611 Q621.698 537.611 619.962 537.282 Q618.243 536.969 616.403 536.327 L616.403 532.941 Q617.861 533.792 619.598 534.226 Q621.334 534.66 623.226 534.66 Q626.525 534.66 628.243 533.358 Q629.979 532.056 629.979 529.573 Q629.979 527.282 628.365 525.997 Q626.768 524.695 623.903 524.695 L620.882 524.695 L620.882 521.813 L624.042 521.813 Q626.629 521.813 628 520.789 Q629.372 519.747 629.372 517.803 Q629.372 515.806 627.948 514.747 Q626.542 513.671 623.903 513.671 Q622.462 513.671 620.813 513.983 Q619.164 514.296 617.184 514.955 L617.184 511.83 Q619.181 511.275 620.917 510.997 Q622.67 510.719 624.216 510.719 Q628.209 510.719 630.535 512.542 Q632.861 514.348 632.861 517.438 Q632.861 519.591 631.629 521.084 Q630.396 522.559 628.122 523.132 Z" fill="#000000" fill-rule="evenodd" fill-opacity="1" /><path clip-path="url(#clip920)" d="M 0 0 M628.104 414.476 L619.25 428.312 L628.104 428.312 L628.104 414.476 M627.184 411.42 L631.594 411.42 L631.594 428.312 L635.292 428.312 L635.292 431.229 L631.594 431.229 L631.594 437.34 L628.104 437.34 L628.104 431.229 L616.403 431.229 L616.403 427.844 L627.184 411.42 Z" fill="#000000" fill-rule="evenodd" fill-opacity="1" /><path clip-path="url(#clip920)" d="M 0 0 M753.85 511.188 L767.617 511.188 L767.617 514.139 L757.061 514.139 L757.061 520.493 Q757.825 520.233 758.589 520.112 Q759.353 519.973 760.117 519.973 Q764.457 519.973 766.992 522.351 Q769.527 524.73 769.527 528.792 Q769.527 532.976 766.922 535.302 Q764.318 537.611 759.579 537.611 Q757.947 537.611 756.245 537.334 Q754.561 537.056 752.756 536.5 L752.756 532.976 Q754.318 533.827 755.985 534.243 Q757.652 534.66 759.509 534.66 Q762.513 534.66 764.266 533.08 Q766.02 531.5 766.02 528.792 Q766.02 526.084 764.266 524.504 Q762.513 522.924 759.509 522.924 Q758.103 522.924 756.697 523.237 Q755.308 523.549 753.85 524.209 L753.85 511.188 Z" fill="#000000" fill-rule="evenodd" fill-opacity="1" /><path clip-path="url(#clip920)" d="M 0 0 M762.009 422.982 Q759.648 422.982 758.259 424.597 Q756.888 426.212 756.888 429.024 Q756.888 431.819 758.259 433.451 Q759.648 435.066 762.009 435.066 Q764.37 435.066 765.742 433.451 Q767.131 431.819 767.131 429.024 Q767.131 426.212 765.742 424.597 Q764.37 422.982 762.009 422.982 M768.971 411.993 L768.971 415.187 Q767.652 414.562 766.297 414.233 Q764.961 413.903 763.641 413.903 Q760.169 413.903 758.329 416.246 Q756.506 418.59 756.245 423.33 Q757.27 421.819 758.815 421.021 Q760.36 420.205 762.218 420.205 Q766.124 420.205 768.381 422.583 Q770.655 424.944 770.655 429.024 Q770.655 433.017 768.294 435.43 Q765.933 437.843 762.009 437.843 Q757.513 437.843 755.134 434.406 Q752.756 430.951 752.756 424.406 Q752.756 418.26 755.673 414.614 Q758.589 410.951 763.502 410.951 Q764.822 410.951 766.159 411.212 Q767.513 411.472 768.971 411.993 Z" fill="#000000" fill-rule="evenodd" fill-opacity="1" /><path clip-path="url(#clip920)" d="M 0 0 M480.05 211.884 L496.717 211.884 L496.717 213.377 L487.307 237.804 L483.644 237.804 L492.498 214.836 L480.05 214.836 L480.05 211.884 Z" fill="#000000" fill-rule="evenodd" fill-opacity="1" /><path clip-path="url(#clip920)" d="M 0 0 M488.939 125.727 Q486.439 125.727 484.998 127.064 Q483.575 128.401 483.575 130.745 Q483.575 133.088 484.998 134.425 Q486.439 135.762 488.939 135.762 Q491.439 135.762 492.88 134.425 Q494.321 133.071 494.321 130.745 Q494.321 128.401 492.88 127.064 Q491.457 125.727 488.939 125.727 M485.432 124.234 Q483.175 123.679 481.908 122.134 Q480.658 120.588 480.658 118.366 Q480.658 115.259 482.863 113.453 Q485.085 111.647 488.939 111.647 Q492.811 111.647 495.016 113.453 Q497.22 115.259 497.22 118.366 Q497.22 120.588 495.953 122.134 Q494.703 123.679 492.464 124.234 Q494.998 124.824 496.404 126.543 Q497.828 128.262 497.828 130.745 Q497.828 134.512 495.519 136.526 Q493.227 138.54 488.939 138.54 Q484.651 138.54 482.342 136.526 Q480.05 134.512 480.05 130.745 Q480.05 128.262 481.474 126.543 Q482.898 124.824 485.432 124.234 M484.148 118.696 Q484.148 120.71 485.398 121.838 Q486.665 122.967 488.939 122.967 Q491.196 122.967 492.464 121.838 Q493.748 120.71 493.748 118.696 Q493.748 116.682 492.464 115.554 Q491.196 114.425 488.939 114.425 Q486.665 114.425 485.398 115.554 Q484.148 116.682 484.148 118.696 Z" fill="#000000" fill-rule="evenodd" fill-opacity="1" /><path clip-path="url(#clip920)" d="M 0 0 M618.07 237.266 L618.07 234.072 Q619.389 234.697 620.743 235.026 Q622.098 235.356 623.4 235.356 Q626.872 235.356 628.695 233.03 Q630.535 230.686 630.795 225.929 Q629.788 227.422 628.243 228.221 Q626.698 229.019 624.823 229.019 Q620.934 229.019 618.66 226.676 Q616.403 224.315 616.403 220.235 Q616.403 216.242 618.764 213.829 Q621.125 211.415 625.049 211.415 Q629.545 211.415 631.907 214.87 Q634.285 218.308 634.285 224.87 Q634.285 230.999 631.368 234.662 Q628.469 238.308 623.556 238.308 Q622.236 238.308 620.882 238.047 Q619.528 237.787 618.07 237.266 M625.049 226.276 Q627.41 226.276 628.782 224.662 Q630.17 223.047 630.17 220.235 Q630.17 217.44 628.782 215.825 Q627.41 214.193 625.049 214.193 Q622.688 214.193 621.299 215.825 Q619.927 217.44 619.927 220.235 Q619.927 223.047 621.299 224.662 Q622.688 226.276 625.049 226.276 Z" fill="#000000" fill-rule="evenodd" fill-opacity="1" /><path clip-path="url(#clip920)" d="M 0 0 M616.907 135.085 L622.636 135.085 L622.636 115.311 L616.403 116.561 L616.403 113.366 L622.601 112.116 L626.108 112.116 L626.108 135.085 L631.837 135.085 L631.837 138.036 L616.907 138.036 L616.907 135.085 Z" fill="#000000" fill-rule="evenodd" fill-opacity="1" /><path clip-path="url(#clip920)" d="M 0 0 M646.42 114.425 Q643.712 114.425 642.341 117.099 Q640.986 119.755 640.986 125.102 Q640.986 130.432 642.341 133.106 Q643.712 135.762 646.42 135.762 Q649.146 135.762 650.5 133.106 Q651.872 130.432 651.872 125.102 Q651.872 119.755 650.5 117.099 Q649.146 114.425 646.42 114.425 M646.42 111.647 Q650.778 111.647 653.07 115.102 Q655.379 118.54 655.379 125.102 Q655.379 131.647 653.07 135.102 Q650.778 138.54 646.42 138.54 Q642.063 138.54 639.754 135.102 Q637.462 131.647 637.462 125.102 Q637.462 118.54 639.754 115.102 Q642.063 111.647 646.42 111.647 Z" fill="#000000" fill-rule="evenodd" fill-opacity="1" /><path clip-path="url(#clip920)" d="M 0 0 M753.259 234.853 L758.989 234.853 L758.989 215.079 L752.756 216.329 L752.756 213.134 L758.954 211.884 L762.461 211.884 L762.461 234.853 L768.19 234.853 L768.19 237.804 L753.259 237.804 L753.259 234.853 Z" fill="#000000" fill-rule="evenodd" fill-opacity="1" /><path clip-path="url(#clip920)" d="M 0 0 M775.881 234.853 L781.61 234.853 L781.61 215.079 L775.377 216.329 L775.377 213.134 L781.575 211.884 L785.082 211.884 L785.082 234.853 L790.811 234.853 L790.811 237.804 L775.881 237.804 L775.881 234.853 Z" fill="#000000" fill-rule="evenodd" fill-opacity="1" /><path clip-path="url(#clip920)" d="M 0 0 M753.259 135.085 L758.989 135.085 L758.989 115.311 L752.756 116.561 L752.756 113.366 L758.954 112.116 L762.461 112.116 L762.461 135.085 L768.19 135.085 L768.19 138.036 L753.259 138.036 L753.259 135.085 Z" fill="#000000" fill-rule="evenodd" fill-opacity="1" /><path clip-path="url(#clip920)" d="M 0 0 M778.294 135.085 L790.533 135.085 L790.533 138.036 L774.075 138.036 L774.075 135.085 Q776.072 133.019 779.509 129.547 Q782.964 126.057 783.849 125.05 Q785.534 123.158 786.193 121.856 Q786.87 120.536 786.87 119.269 Q786.87 117.203 785.412 115.901 Q783.971 114.599 781.645 114.599 Q779.995 114.599 778.155 115.172 Q776.332 115.745 774.249 116.908 L774.249 113.366 Q776.367 112.515 778.207 112.081 Q780.047 111.647 781.575 111.647 Q785.603 111.647 787.999 113.661 Q790.395 115.675 790.395 119.043 Q790.395 120.64 789.787 122.081 Q789.197 123.505 787.617 125.449 Q787.183 125.953 784.856 128.366 Q782.53 130.762 778.294 135.085 Z" fill="#000000" fill-rule="evenodd" fill-opacity="1" /><path clip-path="url(#clip920)" d="M 0 0 M685.083 683.809 L690.812 683.809 L690.812 664.034 L684.58 665.284 L684.58 662.09 L690.777 660.84 L694.284 660.84 L694.284 683.809 L700.013 683.809 L700.013 686.76 L685.083 686.76 L685.083 683.809 Z" fill="#000000" fill-rule="evenodd" fill-opacity="1" /><path clip-path="url(#clip920)" d="M 0 0 M717.722 672.784 Q720.239 673.322 721.645 675.024 Q723.069 676.725 723.069 679.225 Q723.069 683.062 720.43 685.163 Q717.791 687.263 712.93 687.263 Q711.298 687.263 709.562 686.934 Q707.843 686.621 706.003 685.979 L706.003 682.593 Q707.461 683.444 709.197 683.878 Q710.934 684.312 712.826 684.312 Q716.124 684.312 717.843 683.01 Q719.579 681.708 719.579 679.225 Q719.579 676.934 717.965 675.649 Q716.368 674.347 713.503 674.347 L710.482 674.347 L710.482 671.465 L713.642 671.465 Q716.229 671.465 717.6 670.441 Q718.972 669.399 718.972 667.454 Q718.972 665.458 717.548 664.399 Q716.142 663.323 713.503 663.323 Q712.062 663.323 710.413 663.635 Q708.763 663.948 706.784 664.607 L706.784 661.482 Q708.781 660.927 710.517 660.649 Q712.27 660.371 713.815 660.371 Q717.809 660.371 720.135 662.194 Q722.461 664 722.461 667.09 Q722.461 669.243 721.229 670.736 Q719.996 672.211 717.722 672.784 Z" fill="#000000" fill-rule="evenodd" fill-opacity="1" /><path clip-path="url(#clip920)" d="M 0 0 M685.083 584.041 L690.812 584.041 L690.812 564.266 L684.58 565.516 L684.58 562.322 L690.777 561.072 L694.284 561.072 L694.284 584.041 L700.013 584.041 L700.013 586.992 L685.083 586.992 L685.083 584.041 Z" fill="#000000" fill-rule="evenodd" fill-opacity="1" /><path clip-path="url(#clip920)" d="M 0 0 M716.732 564.127 L707.878 577.964 L716.732 577.964 L716.732 564.127 M715.812 561.072 L720.222 561.072 L720.222 577.964 L723.92 577.964 L723.92 580.881 L720.222 580.881 L720.222 586.992 L716.732 586.992 L716.732 580.881 L705.031 580.881 L705.031 577.495 L715.812 561.072 Z" fill="#000000" fill-rule="evenodd" fill-opacity="1" /><path clip-path="url(#clip920)" d="M 0 0 M548.73 384.505 L554.459 384.505 L554.459 364.73 L548.227 365.98 L548.227 362.786 L554.425 361.536 L557.932 361.536 L557.932 384.505 L563.661 384.505 L563.661 387.456 L548.73 387.456 L548.73 384.505 Z" fill="#000000" fill-rule="evenodd" fill-opacity="1" /><path clip-path="url(#clip920)" d="M 0 0 M569.859 361.536 L586.525 361.536 L586.525 363.029 L577.116 387.456 L573.452 387.456 L582.306 364.487 L569.859 364.487 L569.859 361.536 Z" fill="#000000" fill-rule="evenodd" fill-opacity="1" /><path clip-path="url(#clip920)" d="M 0 0 M548.73 284.737 L554.459 284.737 L554.459 264.963 L548.227 266.213 L548.227 263.018 L554.425 261.768 L557.932 261.768 L557.932 284.737 L563.661 284.737 L563.661 287.688 L548.73 287.688 L548.73 284.737 Z" fill="#000000" fill-rule="evenodd" fill-opacity="1" /><path clip-path="url(#clip920)" d="M 0 0 M578.244 275.379 Q575.744 275.379 574.303 276.716 Q572.879 278.053 572.879 280.396 Q572.879 282.74 574.303 284.077 Q575.744 285.414 578.244 285.414 Q580.744 285.414 582.185 284.077 Q583.626 282.723 583.626 280.396 Q583.626 278.053 582.185 276.716 Q580.761 275.379 578.244 275.379 M574.737 273.886 Q572.48 273.331 571.213 271.785 Q569.963 270.24 569.963 268.018 Q569.963 264.91 572.168 263.105 Q574.39 261.299 578.244 261.299 Q582.115 261.299 584.32 263.105 Q586.525 264.91 586.525 268.018 Q586.525 270.24 585.258 271.785 Q584.008 273.331 581.768 273.886 Q584.303 274.476 585.709 276.195 Q587.133 277.914 587.133 280.396 Q587.133 284.164 584.824 286.178 Q582.532 288.192 578.244 288.192 Q573.956 288.192 571.647 286.178 Q569.355 284.164 569.355 280.396 Q569.355 277.914 570.779 276.195 Q572.202 274.476 574.737 273.886 M573.452 268.348 Q573.452 270.362 574.702 271.49 Q575.97 272.619 578.244 272.619 Q580.501 272.619 581.768 271.49 Q583.053 270.362 583.053 268.348 Q583.053 266.334 581.768 265.206 Q580.501 264.077 578.244 264.077 Q575.97 264.077 574.702 265.206 Q573.452 266.334 573.452 268.348 Z" fill="#000000" fill-rule="evenodd" fill-opacity="1" /><path clip-path="url(#clip920)" d="M 0 0 M685.083 384.505 L690.812 384.505 L690.812 364.73 L684.58 365.98 L684.58 362.786 L690.777 361.536 L694.284 361.536 L694.284 384.505 L700.013 384.505 L700.013 387.456 L685.083 387.456 L685.083 384.505 Z" fill="#000000" fill-rule="evenodd" fill-opacity="1" /><path clip-path="url(#clip920)" d="M 0 0 M707.201 386.918 L707.201 383.723 Q708.52 384.348 709.875 384.678 Q711.229 385.008 712.531 385.008 Q716.003 385.008 717.826 382.682 Q719.666 380.338 719.927 375.581 Q718.92 377.074 717.374 377.873 Q715.829 378.671 713.954 378.671 Q710.066 378.671 707.791 376.328 Q705.534 373.967 705.534 369.887 Q705.534 365.894 707.895 363.48 Q710.256 361.067 714.18 361.067 Q718.677 361.067 721.038 364.522 Q723.416 367.96 723.416 374.522 Q723.416 380.651 720.499 384.314 Q717.6 387.96 712.687 387.96 Q711.368 387.96 710.013 387.699 Q708.659 387.439 707.201 386.918 M714.18 375.928 Q716.541 375.928 717.913 374.314 Q719.302 372.699 719.302 369.887 Q719.302 367.092 717.913 365.477 Q716.541 363.845 714.18 363.845 Q711.819 363.845 710.43 365.477 Q709.059 367.092 709.059 369.887 Q709.059 372.699 710.43 374.314 Q711.819 375.928 714.18 375.928 Z" fill="#000000" fill-rule="evenodd" fill-opacity="1" /><path clip-path="url(#clip920)" d="M 0 0 M688.798 284.737 L701.038 284.737 L701.038 287.688 L684.58 287.688 L684.58 284.737 Q686.576 282.671 690.014 279.199 Q693.468 275.709 694.354 274.702 Q696.038 272.81 696.698 271.508 Q697.375 270.188 697.375 268.921 Q697.375 266.855 695.916 265.553 Q694.475 264.251 692.149 264.251 Q690.5 264.251 688.659 264.824 Q686.836 265.397 684.753 266.56 L684.753 263.018 Q686.871 262.167 688.711 261.733 Q690.552 261.299 692.079 261.299 Q696.107 261.299 698.503 263.313 Q700.899 265.327 700.899 268.695 Q700.899 270.292 700.291 271.733 Q699.701 273.157 698.121 275.101 Q697.687 275.605 695.361 278.018 Q693.034 280.414 688.798 284.737 Z" fill="#000000" fill-rule="evenodd" fill-opacity="1" /><path clip-path="url(#clip920)" d="M 0 0 M715.899 264.077 Q713.19 264.077 711.819 266.751 Q710.465 269.407 710.465 274.754 Q710.465 280.084 711.819 282.758 Q713.19 285.414 715.899 285.414 Q718.624 285.414 719.979 282.758 Q721.35 280.084 721.35 274.754 Q721.35 269.407 719.979 266.751 Q718.624 264.077 715.899 264.077 M715.899 261.299 Q720.256 261.299 722.548 264.754 Q724.857 268.192 724.857 274.754 Q724.857 281.299 722.548 284.754 Q720.256 288.192 715.899 288.192 Q711.541 288.192 709.232 284.754 Q706.941 281.299 706.941 274.754 Q706.941 268.192 709.232 264.754 Q711.541 261.299 715.899 261.299 Z" fill="#000000" fill-rule="evenodd" fill-opacity="1" /><path clip-path="url(#clip920)" d="M 0 0 M552.445 85.2008 L564.685 85.2008 L564.685 88.1522 L548.227 88.1522 L548.227 85.2008 Q550.223 83.1349 553.661 79.6627 Q557.116 76.1731 558.001 75.1662 Q559.685 73.2738 560.345 71.9718 Q561.022 70.6523 561.022 69.385 Q561.022 67.319 559.564 66.0169 Q558.123 64.7148 555.796 64.7148 Q554.147 64.7148 552.307 65.2878 Q550.484 65.8607 548.4 67.0239 L548.4 63.4822 Q550.518 62.6315 552.359 62.1975 Q554.199 61.7635 555.727 61.7635 Q559.754 61.7635 562.15 63.7774 Q564.546 65.7912 564.546 69.1593 Q564.546 70.7565 563.938 72.1974 Q563.348 73.621 561.768 75.5655 Q561.334 76.069 559.008 78.4821 Q556.682 80.878 552.445 85.2008 Z" fill="#000000" fill-rule="evenodd" fill-opacity="1" /><path clip-path="url(#clip920)" d="M 0 0 M582.671 74.1766 Q585.188 74.7148 586.595 76.4162 Q588.018 78.1176 588.018 80.6175 Q588.018 84.4543 585.379 86.555 Q582.74 88.6557 577.879 88.6557 Q576.247 88.6557 574.511 88.3258 Q572.793 88.0133 570.952 87.371 L570.952 83.9856 Q572.411 84.8363 574.147 85.2703 Q575.883 85.7043 577.775 85.7043 Q581.074 85.7043 582.793 84.4022 Q584.529 83.1002 584.529 80.6175 Q584.529 78.3259 582.914 77.0412 Q581.317 75.7391 578.452 75.7391 L575.431 75.7391 L575.431 72.8572 L578.591 72.8572 Q581.178 72.8572 582.55 71.8329 Q583.921 70.7912 583.921 68.8468 Q583.921 66.8503 582.497 65.7912 Q581.091 64.7148 578.452 64.7148 Q577.011 64.7148 575.362 65.0273 Q573.713 65.3398 571.734 65.9996 L571.734 62.8746 Q573.73 62.319 575.466 62.0412 Q577.22 61.7635 578.765 61.7635 Q582.758 61.7635 585.084 63.5864 Q587.411 65.3919 587.411 68.4822 Q587.411 70.635 586.178 72.128 Q584.945 73.6037 582.671 74.1766 Z" fill="#000000" fill-rule="evenodd" fill-opacity="1" /><circle clip-path="url(#clip922)" cx="684.58" cy="95.9282" r="14" fill="#0000ff" fill-rule="evenodd" fill-opacity="1" stroke="none"/>
<path clip-path="url(#clip920)" d="M 0 0 M685.083 85.2008 L690.812 85.2008 L690.812 65.4266 L684.58 66.6766 L684.58 63.4822 L690.777 62.2322 L694.284 62.2322 L694.284 85.2008 L700.013 85.2008 L700.013 88.1522 L685.083 88.1522 L685.083 85.2008 Z" fill="#000000" fill-rule="evenodd" fill-opacity="1" /><path clip-path="url(#clip920)" d="M 0 0 M717.722 74.1766 Q720.239 74.7148 721.645 76.4162 Q723.069 78.1176 723.069 80.6175 Q723.069 84.4543 720.43 86.555 Q717.791 88.6557 712.93 88.6557 Q711.298 88.6557 709.562 88.3258 Q707.843 88.0133 706.003 87.371 L706.003 83.9856 Q707.461 84.8363 709.197 85.2703 Q710.934 85.7043 712.826 85.7043 Q716.124 85.7043 717.843 84.4022 Q719.579 83.1002 719.579 80.6175 Q719.579 78.3259 717.965 77.0412 Q716.368 75.7391 713.503 75.7391 L710.482 75.7391 L710.482 72.8572 L713.642 72.8572 Q716.229 72.8572 717.6 71.8329 Q718.972 70.7912 718.972 68.8468 Q718.972 66.8503 717.548 65.7912 Q716.142 64.7148 713.503 64.7148 Q712.062 64.7148 710.413 65.0273 Q708.763 65.3398 706.784 65.9996 L706.784 62.8746 Q708.781 62.319 710.517 62.0412 Q712.27 61.7635 713.815 61.7635 Q717.809 61.7635 720.135 63.5864 Q722.461 65.3919 722.461 68.4822 Q722.461 70.635 721.229 72.128 Q719.996 73.6037 717.722 74.1766 Z" fill="#000000" fill-rule="evenodd" fill-opacity="1" /></svg>
