<?xml version="1.0" encoding="utf-8"?>
<svg xmlns="http://www.w3.org/2000/svg" xmlns:xlink="http://www.w3.org/1999/xlink" width="200" height="200" viewBox="0 0 800 800">
<defs>
  <clipPath id="clip460">
    <rect x="0" y="0" width="800" height="800"/>
  </clipPath>
</defs>
<path clip-path="url(#clip460)" d="
M0 800 L800 800 L800 0 L0 0  Z
  " fill="#ffffff" fill-rule="evenodd" fill-opacity="1"/>
<defs>
  <clipPath id="clip461">
    <rect x="160" y="80" width="561" height="561"/>
  </clipPath>
</defs>
<path clip-path="url(#clip460)" d="
M70.9921 729.008 L752.756 729.008 L752.756 62.9921 L70.9921 62.9921  Z
  " fill="#ffffff" fill-rule="evenodd" fill-opacity="1"/>
<defs>
  <clipPath id="clip462">
    <rect x="70" y="62" width="683" height="667"/>
  </clipPath>
</defs>
<polyline clip-path="url(#clip460)" style="stroke:#000000; stroke-width:4; stroke-opacity:1; fill:none" points="
  70.9921,729.008 752.756,729.008 
  "/>
<polyline clip-path="url(#clip460)" style="stroke:#000000; stroke-width:4; stroke-opacity:1; fill:none" points="
  70.9921,729.008 70.9921,721.016 
  "/>
<polyline clip-path="url(#clip460)" style="stroke:#000000; stroke-width:4; stroke-opacity:1; fill:none" points="
  241.433,729.008 241.433,721.016 
  "/>
<polyline clip-path="url(#clip460)" style="stroke:#000000; stroke-width:4; stroke-opacity:1; fill:none" points="
  411.874,729.008 411.874,721.016 
  "/>
<polyline clip-path="url(#clip460)" style="stroke:#000000; stroke-width:4; stroke-opacity:1; fill:none" points="
  582.315,729.008 582.315,721.016 
  "/>
<polyline clip-path="url(#clip460)" style="stroke:#000000; stroke-width:4; stroke-opacity:1; fill:none" points="
  752.756,729.008 752.756,721.016 
  "/>
<path clip-path="url(#clip460)" d="M 0 0 M40.9344 760.051 L70.6102 760.051 L70.6102 763.986 L40.9344 763.986 L40.9344 760.051 Z" fill="#000000" fill-rule="evenodd" fill-opacity="1" /><path clip-path="url(#clip460)" d="M 0 0 M84.7305 772.945 L101.05 772.945 L101.05 776.88 L79.1055 776.88 L79.1055 772.945 Q81.7675 770.19 86.3508 765.56 Q90.9573 760.908 92.1378 759.565 Q94.3832 757.042 95.2628 755.306 Q96.1656 753.547 96.1656 751.857 Q96.1656 749.102 94.2212 747.366 Q92.2999 745.63 89.198 745.63 Q86.999 745.63 84.5453 746.394 Q82.1148 747.158 79.337 748.709 L79.337 743.987 Q82.161 742.852 84.6147 742.274 Q87.0684 741.695 89.1055 741.695 Q94.4758 741.695 97.6702 744.38 Q100.865 747.065 100.865 751.556 Q100.865 753.686 100.054 755.607 Q99.2674 757.505 97.161 760.098 Q96.5823 760.769 93.4804 763.986 Q90.3786 767.181 84.7305 772.945 Z" fill="#000000" fill-rule="evenodd" fill-opacity="1" /><path clip-path="url(#clip460)" d="M 0 0 M211.19 760.051 L240.866 760.051 L240.866 763.986 L211.19 763.986 L211.19 760.051 Z" fill="#000000" fill-rule="evenodd" fill-opacity="1" /><path clip-path="url(#clip460)" d="M 0 0 M251.769 772.945 L259.408 772.945 L259.408 746.579 L251.097 748.246 L251.097 743.987 L259.361 742.32 L264.037 742.32 L264.037 772.945 L271.676 772.945 L271.676 776.88 L251.769 776.88 L251.769 772.945 Z" fill="#000000" fill-rule="evenodd" fill-opacity="1" /><path clip-path="url(#clip460)" d="M 0 0 M411.874 745.399 Q408.263 745.399 406.434 748.963 Q404.629 752.505 404.629 759.635 Q404.629 766.741 406.434 770.306 Q408.263 773.847 411.874 773.847 Q415.508 773.847 417.314 770.306 Q419.142 766.741 419.142 759.635 Q419.142 752.505 417.314 748.963 Q415.508 745.399 411.874 745.399 M411.874 741.695 Q417.684 741.695 420.74 746.301 Q423.818 750.885 423.818 759.635 Q423.818 768.361 420.74 772.968 Q417.684 777.551 411.874 777.551 Q406.064 777.551 402.985 772.968 Q399.93 768.361 399.93 759.635 Q399.93 750.885 402.985 746.301 Q406.064 741.695 411.874 741.695 Z" fill="#000000" fill-rule="evenodd" fill-opacity="1" /><path clip-path="url(#clip460)" d="M 0 0 M572.697 772.945 L580.336 772.945 L580.336 746.579 L572.026 748.246 L572.026 743.987 L580.29 742.32 L584.965 742.32 L584.965 772.945 L592.604 772.945 L592.604 776.88 L572.697 776.88 L572.697 772.945 Z" fill="#000000" fill-rule="evenodd" fill-opacity="1" /><path clip-path="url(#clip460)" d="M 0 0 M747.409 772.945 L763.728 772.945 L763.728 776.88 L741.784 776.88 L741.784 772.945 Q744.446 770.19 749.029 765.56 Q753.636 760.908 754.816 759.565 Q757.061 757.042 757.941 755.306 Q758.844 753.547 758.844 751.857 Q758.844 749.102 756.899 747.366 Q754.978 745.63 751.876 745.63 Q749.677 745.63 747.224 746.394 Q744.793 747.158 742.015 748.709 L742.015 743.987 Q744.839 742.852 747.293 742.274 Q749.747 741.695 751.784 741.695 Q757.154 741.695 760.348 744.38 Q763.543 747.065 763.543 751.556 Q763.543 753.686 762.733 755.607 Q761.946 757.505 759.839 760.098 Q759.261 760.769 756.159 763.986 Q753.057 767.181 747.409 772.945 Z" fill="#000000" fill-rule="evenodd" fill-opacity="1" /><polyline clip-path="url(#clip460)" style="stroke:#000000; stroke-width:4; stroke-opacity:1; fill:none" points="
  70.9921,729.008 70.9921,62.9921 
  "/>
<polyline clip-path="url(#clip460)" style="stroke:#000000; stroke-width:4; stroke-opacity:1; fill:none" points="
  70.9921,729.008 79.1733,729.008 
  "/>
<polyline clip-path="url(#clip460)" style="stroke:#000000; stroke-width:4; stroke-opacity:1; fill:none" points="
  70.9921,562.504 79.1733,562.504 
  "/>
<polyline clip-path="url(#clip460)" style="stroke:#000000; stroke-width:4; stroke-opacity:1; fill:none" points="
  70.9921,396 79.1733,396 
  "/>
<polyline clip-path="url(#clip460)" style="stroke:#000000; stroke-width:4; stroke-opacity:1; fill:none" points="
  70.9921,229.496 79.1733,229.496 
  "/>
<polyline clip-path="url(#clip460)" style="stroke:#000000; stroke-width:4; stroke-opacity:1; fill:none" points="
  70.9921,62.9921 79.1733,62.9921 
  "/>
<path clip-path="url(#clip460)" d="M 0 0 M-1.12329 729.459 L28.5525 729.459 L28.5525 733.394 L-1.12329 733.394 L-1.12329 729.459 Z" fill="#000000" fill-rule="evenodd" fill-opacity="1" /><path clip-path="url(#clip460)" d="M 0 0 M42.6728 742.353 L58.9921 742.353 L58.9921 746.288 L37.0478 746.288 L37.0478 742.353 Q39.7098 739.598 44.2931 734.968 Q48.8996 730.316 50.0801 728.973 Q52.3255 726.45 53.2051 724.714 Q54.1079 722.955 54.1079 721.265 Q54.1079 718.51 52.1635 716.774 Q50.2422 715.038 47.1403 715.038 Q44.9413 715.038 42.4876 715.802 Q40.057 716.566 37.2793 718.117 L37.2793 713.395 Q40.1033 712.26 42.557 711.682 Q45.0107 711.103 47.0477 711.103 Q52.4181 711.103 55.6125 713.788 Q58.8069 716.473 58.8069 720.964 Q58.8069 723.094 57.9968 725.015 Q57.2097 726.913 55.1033 729.506 Q54.5246 730.177 51.4227 733.394 Q48.3209 736.589 42.6728 742.353 Z" fill="#000000" fill-rule="evenodd" fill-opacity="1" /><path clip-path="url(#clip460)" d="M 0 0 M-1.49366 562.955 L28.1821 562.955 L28.1821 566.89 L-1.49366 566.89 L-1.49366 562.955 Z" fill="#000000" fill-rule="evenodd" fill-opacity="1" /><path clip-path="url(#clip460)" d="M 0 0 M39.0848 575.849 L46.7237 575.849 L46.7237 549.483 L38.4135 551.15 L38.4135 546.891 L46.6774 545.224 L51.3533 545.224 L51.3533 575.849 L58.9921 575.849 L58.9921 579.784 L39.0848 579.784 L39.0848 575.849 Z" fill="#000000" fill-rule="evenodd" fill-opacity="1" /><path clip-path="url(#clip460)" d="M 0 0 M47.0477 381.799 Q43.4367 381.799 41.608 385.363 Q39.8024 388.905 39.8024 396.035 Q39.8024 403.141 41.608 406.706 Q43.4367 410.248 47.0477 410.248 Q50.682 410.248 52.4875 406.706 Q54.3162 403.141 54.3162 396.035 Q54.3162 388.905 52.4875 385.363 Q50.682 381.799 47.0477 381.799 M47.0477 378.095 Q52.8579 378.095 55.9134 382.701 Q58.9921 387.285 58.9921 396.035 Q58.9921 404.762 55.9134 409.368 Q52.8579 413.951 47.0477 413.951 Q41.2376 413.951 38.1589 409.368 Q35.1034 404.762 35.1034 396.035 Q35.1034 387.285 38.1589 382.701 Q41.2376 378.095 47.0477 378.095 Z" fill="#000000" fill-rule="evenodd" fill-opacity="1" /><path clip-path="url(#clip460)" d="M 0 0 M39.0848 242.841 L46.7237 242.841 L46.7237 216.475 L38.4135 218.142 L38.4135 213.883 L46.6774 212.216 L51.3533 212.216 L51.3533 242.841 L58.9921 242.841 L58.9921 246.776 L39.0848 246.776 L39.0848 242.841 Z" fill="#000000" fill-rule="evenodd" fill-opacity="1" /><path clip-path="url(#clip460)" d="M 0 0 M42.6728 76.337 L58.9921 76.337 L58.9921 80.2721 L37.0478 80.2721 L37.0478 76.337 Q39.7098 73.5823 44.2931 68.9527 Q48.8996 64.3 50.0801 62.9574 Q52.3255 60.4343 53.2051 58.6982 Q54.1079 56.9389 54.1079 55.2491 Q54.1079 52.4945 52.1635 50.7584 Q50.2422 49.0223 47.1403 49.0223 Q44.9413 49.0223 42.4876 49.7862 Q40.057 50.5501 37.2793 52.101 L37.2793 47.3788 Q40.1033 46.2445 42.557 45.6658 Q45.0107 45.0871 47.0477 45.0871 Q52.4181 45.0871 55.6125 47.7723 Q58.8069 50.4575 58.8069 54.9482 Q58.8069 57.0778 57.9968 58.9991 Q57.2097 60.8972 55.1033 63.4898 Q54.5246 64.1611 51.4227 67.3787 Q48.3209 70.5731 42.6728 76.337 Z" fill="#000000" fill-rule="evenodd" fill-opacity="1" /><path clip-path="url(#clip460)" d="M 0 0 M343.969 22.8378 Q347.326 23.5554 349.201 25.8239 Q351.099 28.0924 351.099 31.4258 Q351.099 36.5415 347.58 39.3424 Q344.062 42.1433 337.58 42.1433 Q335.405 42.1433 333.09 41.7035 Q330.798 41.2868 328.344 40.4303 L328.344 35.9165 Q330.289 37.0507 332.604 37.6294 Q334.918 38.2081 337.442 38.2081 Q341.84 38.2081 344.131 36.472 Q346.446 34.7359 346.446 31.4258 Q346.446 28.3702 344.293 26.6573 Q342.164 24.9212 338.344 24.9212 L334.317 24.9212 L334.317 21.0786 L338.53 21.0786 Q341.979 21.0786 343.807 19.7129 Q345.636 18.324 345.636 15.7314 Q345.636 13.0694 343.738 11.6573 Q341.863 10.2222 338.344 10.2222 Q336.423 10.2222 334.224 10.6388 Q332.025 11.0555 329.386 11.9351 L329.386 7.76848 Q332.048 7.02774 334.363 6.65737 Q336.701 6.287 338.761 6.287 Q344.085 6.287 347.187 8.71755 Q350.289 11.1249 350.289 15.2453 Q350.289 18.1156 348.645 20.1064 Q347.002 22.074 343.969 22.8378 Z" fill="#000000" fill-rule="evenodd" fill-opacity="1" /><path clip-path="url(#clip460)" d="M 0 0 M357.21 26.5878 L369.687 26.5878 L369.687 30.3841 L357.21 30.3841 L357.21 26.5878 Z" fill="#000000" fill-rule="evenodd" fill-opacity="1" /><path clip-path="url(#clip460)" d="M 0 0 M376.076 5.45367 L385.89 5.45367 L385.89 8.76384 L380.335 8.76384 L380.335 44.4118 L385.89 44.4118 L385.89 47.722 L376.076 47.722 L376.076 5.45367 Z" fill="#000000" fill-rule="evenodd" fill-opacity="1" /><path clip-path="url(#clip460)" d="M 0 0 M405.566 9.99069 Q401.955 9.99069 400.126 13.5555 Q398.321 17.0971 398.321 24.2267 Q398.321 31.3332 400.126 34.898 Q401.955 38.4396 405.566 38.4396 Q409.2 38.4396 411.006 34.898 Q412.835 31.3332 412.835 24.2267 Q412.835 17.0971 411.006 13.5555 Q409.2 9.99069 405.566 9.99069 M405.566 6.287 Q411.376 6.287 414.432 10.8935 Q417.511 15.4768 417.511 24.2267 Q417.511 32.9535 414.432 37.56 Q411.376 42.1433 405.566 42.1433 Q399.756 42.1433 396.677 37.56 Q393.622 32.9535 393.622 24.2267 Q393.622 15.4768 396.677 10.8935 Q399.756 6.287 405.566 6.287 Z" fill="#000000" fill-rule="evenodd" fill-opacity="1" /><path clip-path="url(#clip460)" d="M 0 0 M435.728 9.99069 Q432.117 9.99069 430.288 13.5555 Q428.483 17.0971 428.483 24.2267 Q428.483 31.3332 430.288 34.898 Q432.117 38.4396 435.728 38.4396 Q439.362 38.4396 441.168 34.898 Q442.997 31.3332 442.997 24.2267 Q442.997 17.0971 441.168 13.5555 Q439.362 9.99069 435.728 9.99069 M435.728 6.287 Q441.538 6.287 444.594 10.8935 Q447.672 15.4768 447.672 24.2267 Q447.672 32.9535 444.594 37.56 Q441.538 42.1433 435.728 42.1433 Q429.918 42.1433 426.839 37.56 Q423.784 32.9535 423.784 24.2267 Q423.784 15.4768 426.839 10.8935 Q429.918 6.287 435.728 6.287 Z" fill="#000000" fill-rule="evenodd" fill-opacity="1" /><path clip-path="url(#clip460)" d="M 0 0 M456.7 37.5368 L464.339 37.5368 L464.339 11.1712 L456.029 12.8379 L456.029 8.57866 L464.293 6.912 L468.969 6.912 L468.969 37.5368 L476.607 37.5368 L476.607 41.472 L456.7 41.472 L456.7 37.5368 Z" fill="#000000" fill-rule="evenodd" fill-opacity="1" /><path clip-path="url(#clip460)" d="M 0 0 M495.404 5.45367 L495.404 47.722 L485.589 47.722 L485.589 44.4118 L491.121 44.4118 L491.121 8.76384 L485.589 8.76384 L485.589 5.45367 L495.404 5.45367 Z" fill="#000000" fill-rule="evenodd" fill-opacity="1" /><circle clip-path="url(#clip462)" cx="369.264" cy="468.098" r="14" fill="#0000ff" fill-rule="evenodd" fill-opacity="1" stroke="none"/>
<circle clip-path="url(#clip462)" cx="454.484" cy="468.098" r="14" fill="#0000ff" fill-rule="evenodd" fill-opacity="1" stroke="none"/>
<circle clip-path="url(#clip462)" cx="411.874" cy="540.197" r="14" fill="#0000ff" fill-rule="evenodd" fill-opacity="1" stroke="none"/>
<circle clip-path="url(#clip462)" cx="284.043" cy="612.295" r="14" fill="#0000ff" fill-rule="evenodd" fill-opacity="1" stroke="none"/>
<circle clip-path="url(#clip462)" cx="369.264" cy="612.295" r="14" fill="#0000ff" fill-rule="evenodd" fill-opacity="1" stroke="none"/>
<circle clip-path="url(#clip462)" cx="326.654" cy="684.393" r="14" fill="#0000ff" fill-rule="evenodd" fill-opacity="1" stroke="none"/>
<circle clip-path="url(#clip462)" cx="624.925" cy="612.295" r="14" fill="#0000ff" fill-rule="evenodd" fill-opacity="1" stroke="none"/>
<circle clip-path="url(#clip462)" cx="710.146" cy="612.295" r="14" fill="#0000ff" fill-rule="evenodd" fill-opacity="1" stroke="none"/>
<circle clip-path="url(#clip462)" cx="667.535" cy="684.393" r="14" fill="#0000ff" fill-rule="evenodd" fill-opacity="1" stroke="none"/>
<circle clip-path="url(#clip462)" cx="113.602" cy="612.295" r="14" fill="#0000ff" fill-rule="evenodd" fill-opacity="1" stroke="none"/>
<circle clip-path="url(#clip462)" cx="198.823" cy="612.295" r="14" fill="#0000ff" fill-rule="evenodd" fill-opacity="1" stroke="none"/>
<circle clip-path="url(#clip462)" cx="156.213" cy="684.393" r="14" fill="#0000ff" fill-rule="evenodd" fill-opacity="1" stroke="none"/>
<circle clip-path="url(#clip462)" cx="539.705" cy="468.098" r="14" fill="#0000ff" fill-rule="evenodd" fill-opacity="1" stroke="none"/>
<circle clip-path="url(#clip462)" cx="624.925" cy="468.098" r="14" fill="#0000ff" fill-rule="evenodd" fill-opacity="1" stroke="none"/>
<circle clip-path="url(#clip462)" cx="582.315" cy="540.197" r="14" fill="#0000ff" fill-rule="evenodd" fill-opacity="1" stroke="none"/>
<circle clip-path="url(#clip462)" cx="454.484" cy="612.295" r="14" fill="#0000ff" fill-rule="evenodd" fill-opacity="1" stroke="none"/>
<circle clip-path="url(#clip462)" cx="539.705" cy="612.295" r="14" fill="#0000ff" fill-rule="evenodd" fill-opacity="1" stroke="none"/>
<circle clip-path="url(#clip462)" cx="497.094" cy="684.393" r="14" fill="#0000ff" fill-rule="evenodd" fill-opacity="1" stroke="none"/>
<path clip-path="url(#clip460)" d="M 0 0 M369.767 457.371 L375.496 457.371 L375.496 437.597 L369.264 438.847 L369.264 435.652 L375.462 434.402 L378.969 434.402 L378.969 457.371 L384.698 457.371 L384.698 460.322 L369.767 460.322 L369.767 457.371 Z" fill="#000000" fill-rule="evenodd" fill-opacity="1" /><path clip-path="url(#clip460)" d="M 0 0 M458.703 457.371 L470.942 457.371 L470.942 460.322 L454.484 460.322 L454.484 457.371 Q456.481 455.305 459.918 451.833 Q463.373 448.343 464.259 447.336 Q465.943 445.444 466.602 444.142 Q467.279 442.822 467.279 441.555 Q467.279 439.489 465.821 438.187 Q464.38 436.885 462.054 436.885 Q460.404 436.885 458.564 437.458 Q456.741 438.031 454.658 439.194 L454.658 435.652 Q456.776 434.802 458.616 434.368 Q460.456 433.934 461.984 433.934 Q466.012 433.934 468.408 435.947 Q470.804 437.961 470.804 441.329 Q470.804 442.927 470.196 444.368 Q469.606 445.791 468.026 447.736 Q467.592 448.239 465.265 450.652 Q462.939 453.048 458.703 457.371 Z" fill="#000000" fill-rule="evenodd" fill-opacity="1" /><path clip-path="url(#clip460)" d="M 0 0 M423.593 518.445 Q426.11 518.983 427.516 520.685 Q428.94 522.386 428.94 524.886 Q428.94 528.723 426.301 530.823 Q423.662 532.924 418.801 532.924 Q417.169 532.924 415.433 532.594 Q413.714 532.282 411.874 531.639 L411.874 528.254 Q413.332 529.105 415.068 529.539 Q416.805 529.973 418.697 529.973 Q421.995 529.973 423.714 528.671 Q425.45 527.369 425.45 524.886 Q425.45 522.594 423.836 521.31 Q422.239 520.008 419.374 520.008 L416.353 520.008 L416.353 517.126 L419.513 517.126 Q422.1 517.126 423.471 516.101 Q424.843 515.06 424.843 513.115 Q424.843 511.119 423.419 510.06 Q422.013 508.983 419.374 508.983 Q417.933 508.983 416.284 509.296 Q414.634 509.608 412.655 510.268 L412.655 507.143 Q414.652 506.587 416.388 506.31 Q418.141 506.032 419.686 506.032 Q423.68 506.032 426.006 507.855 Q428.332 509.66 428.332 512.751 Q428.332 514.903 427.1 516.396 Q425.867 517.872 423.593 518.445 Z" fill="#000000" fill-rule="evenodd" fill-opacity="1" /><path clip-path="url(#clip460)" d="M 0 0 M295.745 581.654 L286.891 595.491 L295.745 595.491 L295.745 581.654 M294.824 578.599 L299.234 578.599 L299.234 595.491 L302.932 595.491 L302.932 598.408 L299.234 598.408 L299.234 604.519 L295.745 604.519 L295.745 598.408 L284.043 598.408 L284.043 595.022 L294.824 578.599 Z" fill="#000000" fill-rule="evenodd" fill-opacity="1" /><path clip-path="url(#clip460)" d="M 0 0 M370.358 578.599 L384.125 578.599 L384.125 581.55 L373.569 581.55 L373.569 587.904 Q374.333 587.644 375.097 587.523 Q375.861 587.384 376.625 587.384 Q380.965 587.384 383.5 589.762 Q386.035 592.141 386.035 596.203 Q386.035 600.387 383.43 602.713 Q380.826 605.022 376.087 605.022 Q374.455 605.022 372.753 604.745 Q371.069 604.467 369.264 603.911 L369.264 600.387 Q370.826 601.238 372.493 601.654 Q374.16 602.071 376.017 602.071 Q379.021 602.071 380.774 600.491 Q382.528 598.911 382.528 596.203 Q382.528 593.495 380.774 591.915 Q379.021 590.335 376.017 590.335 Q374.611 590.335 373.205 590.648 Q371.816 590.96 370.358 591.62 L370.358 578.599 Z" fill="#000000" fill-rule="evenodd" fill-opacity="1" /><path clip-path="url(#clip460)" d="M 0 0 M335.907 662.26 Q333.546 662.26 332.157 663.874 Q330.785 665.489 330.785 668.301 Q330.785 671.096 332.157 672.728 Q333.546 674.343 335.907 674.343 Q338.268 674.343 339.64 672.728 Q341.028 671.096 341.028 668.301 Q341.028 665.489 339.64 663.874 Q338.268 662.26 335.907 662.26 M342.869 651.27 L342.869 654.465 Q341.549 653.84 340.195 653.51 Q338.858 653.18 337.539 653.18 Q334.067 653.18 332.226 655.524 Q330.404 657.867 330.143 662.607 Q331.167 661.097 332.713 660.298 Q334.258 659.482 336.115 659.482 Q340.022 659.482 342.278 661.86 Q344.553 664.222 344.553 668.301 Q344.553 672.294 342.192 674.708 Q339.831 677.121 335.907 677.121 Q331.41 677.121 329.032 673.683 Q326.654 670.228 326.654 663.683 Q326.654 657.538 329.57 653.892 Q332.487 650.229 337.4 650.229 Q338.719 650.229 340.056 650.489 Q341.41 650.749 342.869 651.27 Z" fill="#000000" fill-rule="evenodd" fill-opacity="1" /><path clip-path="url(#clip460)" d="M 0 0 M625.429 601.568 L631.158 601.568 L631.158 581.793 L624.925 583.043 L624.925 579.849 L631.123 578.599 L634.63 578.599 L634.63 601.568 L640.359 601.568 L640.359 604.519 L625.429 604.519 L625.429 601.568 Z" fill="#000000" fill-rule="evenodd" fill-opacity="1" /><path clip-path="url(#clip460)" d="M 0 0 M654.942 580.908 Q652.234 580.908 650.863 583.582 Q649.508 586.238 649.508 591.585 Q649.508 596.915 650.863 599.588 Q652.234 602.245 654.942 602.245 Q657.668 602.245 659.022 599.588 Q660.394 596.915 660.394 591.585 Q660.394 586.238 659.022 583.582 Q657.668 580.908 654.942 580.908 M654.942 578.13 Q659.3 578.13 661.592 581.585 Q663.901 585.023 663.901 591.585 Q663.901 598.13 661.592 601.585 Q659.3 605.022 654.942 605.022 Q650.585 605.022 648.276 601.585 Q645.984 598.13 645.984 591.585 Q645.984 585.023 648.276 581.585 Q650.585 578.13 654.942 578.13 Z" fill="#000000" fill-rule="evenodd" fill-opacity="1" /><path clip-path="url(#clip460)" d="M 0 0 M710.649 601.568 L716.378 601.568 L716.378 581.793 L710.146 583.043 L710.146 579.849 L716.344 578.599 L719.85 578.599 L719.85 601.568 L725.58 601.568 L725.58 604.519 L710.649 604.519 L710.649 601.568 Z" fill="#000000" fill-rule="evenodd" fill-opacity="1" /><path clip-path="url(#clip460)" d="M 0 0 M733.271 601.568 L739 601.568 L739 581.793 L732.767 583.043 L732.767 579.849 L738.965 578.599 L742.472 578.599 L742.472 601.568 L748.201 601.568 L748.201 604.519 L733.271 604.519 L733.271 601.568 Z" fill="#000000" fill-rule="evenodd" fill-opacity="1" /><path clip-path="url(#clip460)" d="M 0 0 M668.039 673.666 L673.768 673.666 L673.768 653.892 L667.535 655.142 L667.535 651.947 L673.733 650.697 L677.24 650.697 L677.24 673.666 L682.969 673.666 L682.969 676.617 L668.039 676.617 L668.039 673.666 Z" fill="#000000" fill-rule="evenodd" fill-opacity="1" /><path clip-path="url(#clip460)" d="M 0 0 M693.073 673.666 L705.313 673.666 L705.313 676.617 L688.855 676.617 L688.855 673.666 Q690.851 671.6 694.289 668.128 Q697.744 664.638 698.629 663.631 Q700.313 661.739 700.973 660.437 Q701.65 659.117 701.65 657.85 Q701.65 655.784 700.192 654.482 Q698.751 653.18 696.424 653.18 Q694.775 653.18 692.935 653.753 Q691.112 654.326 689.028 655.489 L689.028 651.947 Q691.146 651.097 692.987 650.663 Q694.827 650.229 696.355 650.229 Q700.382 650.229 702.778 652.242 Q705.174 654.256 705.174 657.624 Q705.174 659.222 704.566 660.663 Q703.976 662.086 702.396 664.031 Q701.962 664.534 699.636 666.947 Q697.31 669.343 693.073 673.666 Z" fill="#000000" fill-rule="evenodd" fill-opacity="1" /><path clip-path="url(#clip460)" d="M 0 0 M117.821 601.568 L130.061 601.568 L130.061 604.519 L113.602 604.519 L113.602 601.568 Q115.599 599.502 119.036 596.029 Q122.491 592.54 123.377 591.533 Q125.061 589.641 125.72 588.338 Q126.397 587.019 126.397 585.752 Q126.397 583.686 124.939 582.384 Q123.498 581.082 121.172 581.082 Q119.522 581.082 117.682 581.654 Q115.859 582.227 113.776 583.391 L113.776 579.849 Q115.894 578.998 117.734 578.564 Q119.575 578.13 121.102 578.13 Q125.13 578.13 127.526 580.144 Q129.922 582.158 129.922 585.526 Q129.922 587.123 129.314 588.564 Q128.724 589.988 127.144 591.932 Q126.71 592.436 124.384 594.849 Q122.057 597.245 117.821 601.568 Z" fill="#000000" fill-rule="evenodd" fill-opacity="1" /><path clip-path="url(#clip460)" d="M 0 0 M144.922 592.21 Q142.422 592.21 140.981 593.547 Q139.557 594.884 139.557 597.227 Q139.557 599.571 140.981 600.908 Q142.422 602.245 144.922 602.245 Q147.422 602.245 148.863 600.908 Q150.304 599.554 150.304 597.227 Q150.304 594.884 148.863 593.547 Q147.439 592.21 144.922 592.21 M141.415 590.717 Q139.158 590.161 137.89 588.616 Q136.64 587.071 136.64 584.849 Q136.64 581.741 138.845 579.936 Q141.067 578.13 144.922 578.13 Q148.793 578.13 150.998 579.936 Q153.203 581.741 153.203 584.849 Q153.203 587.071 151.935 588.616 Q150.685 590.161 148.446 590.717 Q150.981 591.307 152.387 593.026 Q153.81 594.745 153.81 597.227 Q153.81 600.995 151.501 603.009 Q149.21 605.022 144.922 605.022 Q140.633 605.022 138.324 603.009 Q136.033 600.995 136.033 597.227 Q136.033 594.745 137.456 593.026 Q138.88 591.307 141.415 590.717 M140.13 585.179 Q140.13 587.193 141.38 588.321 Q142.647 589.45 144.922 589.45 Q147.179 589.45 148.446 588.321 Q149.731 587.193 149.731 585.179 Q149.731 583.165 148.446 582.036 Q147.179 580.908 144.922 580.908 Q142.647 580.908 141.38 582.036 Q140.13 583.165 140.13 585.179 Z" fill="#000000" fill-rule="evenodd" fill-opacity="1" /><path clip-path="url(#clip460)" d="M 0 0 M203.042 601.568 L215.281 601.568 L215.281 604.519 L198.823 604.519 L198.823 601.568 Q200.819 599.502 204.257 596.029 Q207.712 592.54 208.597 591.533 Q210.281 589.641 210.941 588.338 Q211.618 587.019 211.618 585.752 Q211.618 583.686 210.16 582.384 Q208.719 581.082 206.392 581.082 Q204.743 581.082 202.903 581.654 Q201.08 582.227 198.996 583.391 L198.996 579.849 Q201.114 578.998 202.955 578.564 Q204.795 578.13 206.323 578.13 Q210.351 578.13 212.746 580.144 Q215.142 582.158 215.142 585.526 Q215.142 587.123 214.535 588.564 Q213.944 589.988 212.364 591.932 Q211.93 592.436 209.604 594.849 Q207.278 597.245 203.042 601.568 Z" fill="#000000" fill-rule="evenodd" fill-opacity="1" /><path clip-path="url(#clip460)" d="M 0 0 M222.746 603.981 L222.746 600.786 Q224.066 601.411 225.42 601.741 Q226.774 602.071 228.076 602.071 Q231.548 602.071 233.371 599.745 Q235.212 597.401 235.472 592.644 Q234.465 594.137 232.92 594.936 Q231.375 595.734 229.5 595.734 Q225.611 595.734 223.337 593.391 Q221.08 591.029 221.08 586.95 Q221.08 582.957 223.441 580.543 Q225.802 578.13 229.725 578.13 Q234.222 578.13 236.583 581.585 Q238.962 585.023 238.962 591.585 Q238.962 597.713 236.045 601.377 Q233.146 605.022 228.232 605.022 Q226.913 605.022 225.559 604.762 Q224.205 604.502 222.746 603.981 M229.725 592.991 Q232.087 592.991 233.458 591.377 Q234.847 589.762 234.847 586.95 Q234.847 584.154 233.458 582.54 Q232.087 580.908 229.725 580.908 Q227.364 580.908 225.975 582.54 Q224.604 584.154 224.604 586.95 Q224.604 589.762 225.975 591.377 Q227.364 592.991 229.725 592.991 Z" fill="#000000" fill-rule="evenodd" fill-opacity="1" /><path clip-path="url(#clip460)" d="M 0 0 M167.931 662.642 Q170.449 663.18 171.855 664.881 Q173.278 666.583 173.278 669.083 Q173.278 672.919 170.64 675.02 Q168.001 677.121 163.14 677.121 Q161.508 677.121 159.772 676.791 Q158.053 676.478 156.213 675.836 L156.213 672.451 Q157.671 673.301 159.407 673.735 Q161.143 674.169 163.035 674.169 Q166.334 674.169 168.053 672.867 Q169.789 671.565 169.789 669.083 Q169.789 666.791 168.174 665.506 Q166.577 664.204 163.713 664.204 L160.692 664.204 L160.692 661.322 L163.851 661.322 Q166.438 661.322 167.81 660.298 Q169.181 659.256 169.181 657.312 Q169.181 655.315 167.758 654.256 Q166.351 653.18 163.713 653.18 Q162.272 653.18 160.622 653.492 Q158.973 653.805 156.994 654.465 L156.994 651.34 Q158.99 650.784 160.726 650.506 Q162.48 650.229 164.025 650.229 Q168.018 650.229 170.344 652.051 Q172.671 653.857 172.671 656.947 Q172.671 659.1 171.438 660.593 Q170.206 662.069 167.931 662.642 Z" fill="#000000" fill-rule="evenodd" fill-opacity="1" /><path clip-path="url(#clip460)" d="M 0 0 M187.428 653.006 Q184.719 653.006 183.348 655.68 Q181.994 658.336 181.994 663.683 Q181.994 669.013 183.348 671.687 Q184.719 674.343 187.428 674.343 Q190.153 674.343 191.508 671.687 Q192.879 669.013 192.879 663.683 Q192.879 658.336 191.508 655.68 Q190.153 653.006 187.428 653.006 M187.428 650.229 Q191.785 650.229 194.077 653.683 Q196.386 657.121 196.386 663.683 Q196.386 670.228 194.077 673.683 Q191.785 677.121 187.428 677.121 Q183.07 677.121 180.761 673.683 Q178.469 670.228 178.469 663.683 Q178.469 657.121 180.761 653.683 Q183.07 650.229 187.428 650.229 Z" fill="#000000" fill-rule="evenodd" fill-opacity="1" /><path clip-path="url(#clip460)" d="M 0 0 M551.423 446.347 Q553.941 446.885 555.347 448.586 Q556.771 450.288 556.771 452.788 Q556.771 456.624 554.132 458.725 Q551.493 460.826 546.632 460.826 Q545 460.826 543.264 460.496 Q541.545 460.183 539.705 459.541 L539.705 456.156 Q541.163 457.006 542.899 457.44 Q544.635 457.874 546.528 457.874 Q549.826 457.874 551.545 456.572 Q553.281 455.27 553.281 452.788 Q553.281 450.496 551.666 449.211 Q550.069 447.909 547.205 447.909 L544.184 447.909 L544.184 445.027 L547.344 445.027 Q549.93 445.027 551.302 444.003 Q552.673 442.961 552.673 441.017 Q552.673 439.02 551.25 437.961 Q549.844 436.885 547.205 436.885 Q545.764 436.885 544.114 437.197 Q542.465 437.51 540.486 438.17 L540.486 435.045 Q542.482 434.489 544.219 434.211 Q545.972 433.934 547.517 433.934 Q551.51 433.934 553.837 435.756 Q556.163 437.562 556.163 440.652 Q556.163 442.805 554.93 444.298 Q553.698 445.774 551.423 446.347 Z" fill="#000000" fill-rule="evenodd" fill-opacity="1" /><path clip-path="url(#clip460)" d="M 0 0 M564.028 457.371 L569.757 457.371 L569.757 437.597 L563.524 438.847 L563.524 435.652 L569.722 434.402 L573.229 434.402 L573.229 457.371 L578.958 457.371 L578.958 460.322 L564.028 460.322 L564.028 457.371 Z" fill="#000000" fill-rule="evenodd" fill-opacity="1" /><path clip-path="url(#clip460)" d="M 0 0 M636.644 446.347 Q639.161 446.885 640.567 448.586 Q641.991 450.288 641.991 452.788 Q641.991 456.624 639.352 458.725 Q636.713 460.826 631.852 460.826 Q630.22 460.826 628.484 460.496 Q626.765 460.183 624.925 459.541 L624.925 456.156 Q626.384 457.006 628.12 457.44 Q629.856 457.874 631.748 457.874 Q635.047 457.874 636.765 456.572 Q638.502 455.27 638.502 452.788 Q638.502 450.496 636.887 449.211 Q635.29 447.909 632.425 447.909 L629.404 447.909 L629.404 445.027 L632.564 445.027 Q635.151 445.027 636.522 444.003 Q637.894 442.961 637.894 441.017 Q637.894 439.02 636.47 437.961 Q635.064 436.885 632.425 436.885 Q630.984 436.885 629.335 437.197 Q627.686 437.51 625.706 438.17 L625.706 435.045 Q627.703 434.489 629.439 434.211 Q631.193 433.934 632.738 433.934 Q636.731 433.934 639.057 435.756 Q641.383 437.562 641.383 440.652 Q641.383 442.805 640.151 444.298 Q638.918 445.774 636.644 446.347 Z" fill="#000000" fill-rule="evenodd" fill-opacity="1" /><path clip-path="url(#clip460)" d="M 0 0 M651.661 457.371 L663.901 457.371 L663.901 460.322 L647.442 460.322 L647.442 457.371 Q649.439 455.305 652.876 451.833 Q656.331 448.343 657.217 447.336 Q658.901 445.444 659.56 444.142 Q660.238 442.822 660.238 441.555 Q660.238 439.489 658.779 438.187 Q657.338 436.885 655.012 436.885 Q653.363 436.885 651.522 437.458 Q649.699 438.031 647.616 439.194 L647.616 435.652 Q649.734 434.802 651.574 434.368 Q653.415 433.934 654.942 433.934 Q658.97 433.934 661.366 435.947 Q663.762 437.961 663.762 441.329 Q663.762 442.927 663.154 444.368 Q662.564 445.791 660.984 447.736 Q660.55 448.239 658.224 450.652 Q655.897 453.048 651.661 457.371 Z" fill="#000000" fill-rule="evenodd" fill-opacity="1" /><path clip-path="url(#clip460)" d="M 0 0 M594.034 518.445 Q596.551 518.983 597.957 520.685 Q599.381 522.386 599.381 524.886 Q599.381 528.723 596.742 530.823 Q594.103 532.924 589.242 532.924 Q587.61 532.924 585.874 532.594 Q584.155 532.282 582.315 531.639 L582.315 528.254 Q583.773 529.105 585.509 529.539 Q587.245 529.973 589.138 529.973 Q592.436 529.973 594.155 528.671 Q595.891 527.369 595.891 524.886 Q595.891 522.594 594.277 521.31 Q592.679 520.008 589.815 520.008 L586.794 520.008 L586.794 517.126 L589.954 517.126 Q592.541 517.126 593.912 516.101 Q595.284 515.06 595.284 513.115 Q595.284 511.119 593.86 510.06 Q592.454 508.983 589.815 508.983 Q588.374 508.983 586.725 509.296 Q585.075 509.608 583.096 510.268 L583.096 507.143 Q585.093 506.587 586.829 506.31 Q588.582 506.032 590.127 506.032 Q594.12 506.032 596.447 507.855 Q598.773 509.66 598.773 512.751 Q598.773 514.903 597.541 516.396 Q596.308 517.872 594.034 518.445 Z" fill="#000000" fill-rule="evenodd" fill-opacity="1" /><path clip-path="url(#clip460)" d="M 0 0 M616.655 518.445 Q619.172 518.983 620.579 520.685 Q622.002 522.386 622.002 524.886 Q622.002 528.723 619.363 530.823 Q616.724 532.924 611.863 532.924 Q610.231 532.924 608.495 532.594 Q606.777 532.282 604.936 531.639 L604.936 528.254 Q606.395 529.105 608.131 529.539 Q609.867 529.973 611.759 529.973 Q615.058 529.973 616.777 528.671 Q618.513 527.369 618.513 524.886 Q618.513 522.594 616.898 521.31 Q615.301 520.008 612.436 520.008 L609.416 520.008 L609.416 517.126 L612.575 517.126 Q615.162 517.126 616.534 516.101 Q617.905 515.06 617.905 513.115 Q617.905 511.119 616.481 510.06 Q615.075 508.983 612.436 508.983 Q610.995 508.983 609.346 509.296 Q607.697 509.608 605.718 510.268 L605.718 507.143 Q607.714 506.587 609.45 506.31 Q611.204 506.032 612.749 506.032 Q616.742 506.032 619.068 507.855 Q621.395 509.66 621.395 512.751 Q621.395 514.903 620.162 516.396 Q618.929 517.872 616.655 518.445 Z" fill="#000000" fill-rule="evenodd" fill-opacity="1" /><path clip-path="url(#clip460)" d="M 0 0 M466.203 590.543 Q468.72 591.082 470.127 592.783 Q471.55 594.484 471.55 596.984 Q471.55 600.821 468.911 602.922 Q466.272 605.022 461.411 605.022 Q459.779 605.022 458.043 604.693 Q456.325 604.38 454.484 603.738 L454.484 600.352 Q455.943 601.203 457.679 601.637 Q459.415 602.071 461.307 602.071 Q464.606 602.071 466.324 600.769 Q468.061 599.467 468.061 596.984 Q468.061 594.693 466.446 593.408 Q464.849 592.106 461.984 592.106 L458.963 592.106 L458.963 589.224 L462.123 589.224 Q464.71 589.224 466.081 588.2 Q467.453 587.158 467.453 585.214 Q467.453 583.217 466.029 582.158 Q464.623 581.082 461.984 581.082 Q460.543 581.082 458.894 581.394 Q457.245 581.707 455.265 582.366 L455.265 579.241 Q457.262 578.686 458.998 578.408 Q460.752 578.13 462.297 578.13 Q466.29 578.13 468.616 579.953 Q470.942 581.759 470.942 584.849 Q470.942 587.002 469.71 588.495 Q468.477 589.97 466.203 590.543 Z" fill="#000000" fill-rule="evenodd" fill-opacity="1" /><path clip-path="url(#clip460)" d="M 0 0 M487.835 581.654 L478.981 595.491 L487.835 595.491 L487.835 581.654 M486.915 578.599 L491.324 578.599 L491.324 595.491 L495.022 595.491 L495.022 598.408 L491.324 598.408 L491.324 604.519 L487.835 604.519 L487.835 598.408 L476.133 598.408 L476.133 595.022 L486.915 578.599 Z" fill="#000000" fill-rule="evenodd" fill-opacity="1" /><path clip-path="url(#clip460)" d="M 0 0 M551.423 590.543 Q553.941 591.082 555.347 592.783 Q556.771 594.484 556.771 596.984 Q556.771 600.821 554.132 602.922 Q551.493 605.022 546.632 605.022 Q545 605.022 543.264 604.693 Q541.545 604.38 539.705 603.738 L539.705 600.352 Q541.163 601.203 542.899 601.637 Q544.635 602.071 546.528 602.071 Q549.826 602.071 551.545 600.769 Q553.281 599.467 553.281 596.984 Q553.281 594.693 551.666 593.408 Q550.069 592.106 547.205 592.106 L544.184 592.106 L544.184 589.224 L547.344 589.224 Q549.93 589.224 551.302 588.2 Q552.673 587.158 552.673 585.214 Q552.673 583.217 551.25 582.158 Q549.844 581.082 547.205 581.082 Q545.764 581.082 544.114 581.394 Q542.465 581.707 540.486 582.366 L540.486 579.241 Q542.482 578.686 544.219 578.408 Q545.972 578.13 547.517 578.13 Q551.51 578.13 553.837 579.953 Q556.163 581.759 556.163 584.849 Q556.163 587.002 554.93 588.495 Q553.698 589.97 551.423 590.543 Z" fill="#000000" fill-rule="evenodd" fill-opacity="1" /><path clip-path="url(#clip460)" d="M 0 0 M563.455 578.599 L577.222 578.599 L577.222 581.55 L566.666 581.55 L566.666 587.904 Q567.43 587.644 568.194 587.523 Q568.958 587.384 569.722 587.384 Q574.062 587.384 576.597 589.762 Q579.132 592.141 579.132 596.203 Q579.132 600.387 576.527 602.713 Q573.923 605.022 569.184 605.022 Q567.552 605.022 565.85 604.745 Q564.166 604.467 562.361 603.911 L562.361 600.387 Q563.923 601.238 565.59 601.654 Q567.257 602.071 569.114 602.071 Q572.118 602.071 573.871 600.491 Q575.625 598.911 575.625 596.203 Q575.625 593.495 573.871 591.915 Q572.118 590.335 569.114 590.335 Q567.708 590.335 566.302 590.648 Q564.913 590.96 563.455 591.62 L563.455 578.599 Z" fill="#000000" fill-rule="evenodd" fill-opacity="1" /><path clip-path="url(#clip460)" d="M 0 0 M508.813 662.642 Q511.331 663.18 512.737 664.881 Q514.16 666.583 514.16 669.083 Q514.16 672.919 511.521 675.02 Q508.883 677.121 504.022 677.121 Q502.39 677.121 500.653 676.791 Q498.935 676.478 497.094 675.836 L497.094 672.451 Q498.553 673.301 500.289 673.735 Q502.025 674.169 503.917 674.169 Q507.216 674.169 508.935 672.867 Q510.671 671.565 510.671 669.083 Q510.671 666.791 509.056 665.506 Q507.459 664.204 504.594 664.204 L501.574 664.204 L501.574 661.322 L504.733 661.322 Q507.32 661.322 508.692 660.298 Q510.063 659.256 510.063 657.312 Q510.063 655.315 508.64 654.256 Q507.233 653.18 504.594 653.18 Q503.153 653.18 501.504 653.492 Q499.855 653.805 497.876 654.465 L497.876 651.34 Q499.872 650.784 501.608 650.506 Q503.362 650.229 504.907 650.229 Q508.9 650.229 511.226 652.051 Q513.553 653.857 513.553 656.947 Q513.553 659.1 512.32 660.593 Q511.087 662.069 508.813 662.642 Z" fill="#000000" fill-rule="evenodd" fill-opacity="1" /><path clip-path="url(#clip460)" d="M 0 0 M528.744 662.26 Q526.383 662.26 524.994 663.874 Q523.622 665.489 523.622 668.301 Q523.622 671.096 524.994 672.728 Q526.383 674.343 528.744 674.343 Q531.105 674.343 532.476 672.728 Q533.865 671.096 533.865 668.301 Q533.865 665.489 532.476 663.874 Q531.105 662.26 528.744 662.26 M535.705 651.27 L535.705 654.465 Q534.386 653.84 533.032 653.51 Q531.695 653.18 530.376 653.18 Q526.903 653.18 525.063 655.524 Q523.24 657.867 522.98 662.607 Q524.004 661.097 525.549 660.298 Q527.094 659.482 528.952 659.482 Q532.858 659.482 535.115 661.86 Q537.389 664.222 537.389 668.301 Q537.389 672.294 535.028 674.708 Q532.667 677.121 528.744 677.121 Q524.247 677.121 521.869 673.683 Q519.49 670.228 519.49 663.683 Q519.49 657.538 522.407 653.892 Q525.324 650.229 530.237 650.229 Q531.556 650.229 532.893 650.489 Q534.247 650.749 535.705 651.27 Z" fill="#000000" fill-rule="evenodd" fill-opacity="1" /><circle clip-path="url(#clip462)" cx="113.602" cy="323.902" r="14" fill="#0000ff" fill-rule="evenodd" fill-opacity="1" stroke="none"/>
<circle clip-path="url(#clip462)" cx="198.823" cy="323.902" r="14" fill="#0000ff" fill-rule="evenodd" fill-opacity="1" stroke="none"/>
<circle clip-path="url(#clip462)" cx="156.213" cy="396" r="14" fill="#0000ff" fill-rule="evenodd" fill-opacity="1" stroke="none"/>
<circle clip-path="url(#clip462)" cx="113.602" cy="468.098" r="14" fill="#0000ff" fill-rule="evenodd" fill-opacity="1" stroke="none"/>
<circle clip-path="url(#clip462)" cx="284.043" cy="323.902" r="14" fill="#0000ff" fill-rule="evenodd" fill-opacity="1" stroke="none"/>
<circle clip-path="url(#clip462)" cx="369.264" cy="323.902" r="14" fill="#0000ff" fill-rule="evenodd" fill-opacity="1" stroke="none"/>
<circle clip-path="url(#clip462)" cx="326.654" cy="396" r="14" fill="#0000ff" fill-rule="evenodd" fill-opacity="1" stroke="none"/>
<circle clip-path="url(#clip462)" cx="198.823" cy="468.098" r="14" fill="#0000ff" fill-rule="evenodd" fill-opacity="1" stroke="none"/>
<circle clip-path="url(#clip462)" cx="284.043" cy="468.098" r="14" fill="#0000ff" fill-rule="evenodd" fill-opacity="1" stroke="none"/>
<circle clip-path="url(#clip462)" cx="241.433" cy="540.197" r="14" fill="#0000ff" fill-rule="evenodd" fill-opacity="1" stroke="none"/>
<circle clip-path="url(#clip462)" cx="113.602" cy="179.705" r="14" fill="#0000ff" fill-rule="evenodd" fill-opacity="1" stroke="none"/>
<path clip-path="url(#clip460)" d="M 0 0 M114.106 313.174 L119.835 313.174 L119.835 293.4 L113.602 294.65 L113.602 291.456 L119.8 290.206 L123.307 290.206 L123.307 313.174 L129.036 313.174 L129.036 316.126 L114.106 316.126 L114.106 313.174 Z" fill="#000000" fill-rule="evenodd" fill-opacity="1" /><path clip-path="url(#clip460)" d="M 0 0 M143.62 292.515 Q140.911 292.515 139.54 295.188 Q138.186 297.845 138.186 303.192 Q138.186 308.522 139.54 311.195 Q140.911 313.851 143.62 313.851 Q146.345 313.851 147.699 311.195 Q149.071 308.522 149.071 303.192 Q149.071 297.845 147.699 295.188 Q146.345 292.515 143.62 292.515 M143.62 289.737 Q147.977 289.737 150.269 293.192 Q152.578 296.629 152.578 303.192 Q152.578 309.737 150.269 313.192 Q147.977 316.629 143.62 316.629 Q139.262 316.629 136.953 313.192 Q134.661 309.737 134.661 303.192 Q134.661 296.629 136.953 293.192 Q139.262 289.737 143.62 289.737 Z" fill="#000000" fill-rule="evenodd" fill-opacity="1" /><path clip-path="url(#clip460)" d="M 0 0 M199.326 313.174 L205.055 313.174 L205.055 293.4 L198.823 294.65 L198.823 291.456 L205.021 290.206 L208.528 290.206 L208.528 313.174 L214.257 313.174 L214.257 316.126 L199.326 316.126 L199.326 313.174 Z" fill="#000000" fill-rule="evenodd" fill-opacity="1" /><path clip-path="url(#clip460)" d="M 0 0 M221.948 313.174 L227.677 313.174 L227.677 293.4 L221.444 294.65 L221.444 291.456 L227.642 290.206 L231.149 290.206 L231.149 313.174 L236.878 313.174 L236.878 316.126 L221.948 316.126 L221.948 313.174 Z" fill="#000000" fill-rule="evenodd" fill-opacity="1" /><path clip-path="url(#clip460)" d="M 0 0 M156.716 385.273 L162.445 385.273 L162.445 365.498 L156.213 366.748 L156.213 363.554 L162.41 362.304 L165.917 362.304 L165.917 385.273 L171.647 385.273 L171.647 388.224 L156.716 388.224 L156.716 385.273 Z" fill="#000000" fill-rule="evenodd" fill-opacity="1" /><path clip-path="url(#clip460)" d="M 0 0 M181.751 385.273 L193.99 385.273 L193.99 388.224 L177.532 388.224 L177.532 385.273 Q179.528 383.207 182.966 379.734 Q186.421 376.245 187.306 375.238 Q188.99 373.346 189.65 372.044 Q190.327 370.724 190.327 369.457 Q190.327 367.391 188.869 366.089 Q187.428 364.787 185.101 364.787 Q183.452 364.787 181.612 365.36 Q179.789 365.932 177.706 367.096 L177.706 363.554 Q179.824 362.703 181.664 362.269 Q183.504 361.835 185.032 361.835 Q189.06 361.835 191.455 363.849 Q193.851 365.863 193.851 369.231 Q193.851 370.828 193.244 372.269 Q192.653 373.693 191.074 375.637 Q190.639 376.141 188.313 378.554 Q185.987 380.95 181.751 385.273 Z" fill="#000000" fill-rule="evenodd" fill-opacity="1" /><path clip-path="url(#clip460)" d="M 0 0 M114.106 457.371 L119.835 457.371 L119.835 437.597 L113.602 438.847 L113.602 435.652 L119.8 434.402 L123.307 434.402 L123.307 457.371 L129.036 457.371 L129.036 460.322 L114.106 460.322 L114.106 457.371 Z" fill="#000000" fill-rule="evenodd" fill-opacity="1" /><path clip-path="url(#clip460)" d="M 0 0 M145.755 437.458 L136.901 451.295 L145.755 451.295 L145.755 437.458 M144.835 434.402 L149.245 434.402 L149.245 451.295 L152.942 451.295 L152.942 454.211 L149.245 454.211 L149.245 460.322 L145.755 460.322 L145.755 454.211 L134.054 454.211 L134.054 450.826 L144.835 434.402 Z" fill="#000000" fill-rule="evenodd" fill-opacity="1" /><path clip-path="url(#clip460)" d="M 0 0 M71.4956 529.469 L77.2247 529.469 L77.2247 509.695 L70.9921 510.945 L70.9921 507.751 L77.19 506.501 L80.6969 506.501 L80.6969 529.469 L86.4261 529.469 L86.4261 532.421 L71.4956 532.421 L71.4956 529.469 Z" fill="#000000" fill-rule="evenodd" fill-opacity="1" /><path clip-path="url(#clip460)" d="M 0 0 M93.5441 506.501 L107.311 506.501 L107.311 509.452 L96.7559 509.452 L96.7559 515.806 Q97.5198 515.546 98.2836 515.424 Q99.0475 515.285 99.8114 515.285 Q104.152 515.285 106.686 517.664 Q109.221 520.042 109.221 524.105 Q109.221 528.289 106.617 530.615 Q104.013 532.924 99.2732 532.924 Q97.6413 532.924 95.9399 532.646 Q94.2559 532.369 92.4503 531.813 L92.4503 528.289 Q94.0128 529.139 95.6795 529.556 Q97.3462 529.973 99.2038 529.973 Q102.207 529.973 103.961 528.393 Q105.714 526.813 105.714 524.105 Q105.714 521.396 103.961 519.817 Q102.207 518.237 99.2038 518.237 Q97.7975 518.237 96.3913 518.549 Q95.0024 518.862 93.5441 519.521 L93.5441 506.501 Z" fill="#000000" fill-rule="evenodd" fill-opacity="1" /><path clip-path="url(#clip460)" d="M 0 0 M288.262 313.174 L300.502 313.174 L300.502 316.126 L284.043 316.126 L284.043 313.174 Q286.04 311.108 289.477 307.636 Q292.932 304.147 293.818 303.14 Q295.502 301.247 296.161 299.945 Q296.838 298.626 296.838 297.358 Q296.838 295.292 295.38 293.99 Q293.939 292.688 291.613 292.688 Q289.963 292.688 288.123 293.261 Q286.3 293.834 284.217 294.997 L284.217 291.456 Q286.335 290.605 288.175 290.171 Q290.015 289.737 291.543 289.737 Q295.571 289.737 297.967 291.751 Q300.363 293.765 300.363 297.133 Q300.363 298.73 299.755 300.171 Q299.165 301.595 297.585 303.539 Q297.151 304.042 294.824 306.456 Q292.498 308.851 288.262 313.174 Z" fill="#000000" fill-rule="evenodd" fill-opacity="1" /><path clip-path="url(#clip460)" d="M 0 0 M310.883 313.174 L323.123 313.174 L323.123 316.126 L306.665 316.126 L306.665 313.174 Q308.661 311.108 312.099 307.636 Q315.554 304.147 316.439 303.14 Q318.123 301.247 318.783 299.945 Q319.46 298.626 319.46 297.358 Q319.46 295.292 318.001 293.99 Q316.56 292.688 314.234 292.688 Q312.585 292.688 310.745 293.261 Q308.922 293.834 306.838 294.997 L306.838 291.456 Q308.956 290.605 310.797 290.171 Q312.637 289.737 314.165 289.737 Q318.192 289.737 320.588 291.751 Q322.984 293.765 322.984 297.133 Q322.984 298.73 322.376 300.171 Q321.786 301.595 320.206 303.539 Q319.772 304.042 317.446 306.456 Q315.12 308.851 310.883 313.174 Z" fill="#000000" fill-rule="evenodd" fill-opacity="1" /><path clip-path="url(#clip460)" d="M 0 0 M373.483 313.174 L385.722 313.174 L385.722 316.126 L369.264 316.126 L369.264 313.174 Q371.26 311.108 374.698 307.636 Q378.153 304.147 379.038 303.14 Q380.722 301.247 381.382 299.945 Q382.059 298.626 382.059 297.358 Q382.059 295.292 380.601 293.99 Q379.16 292.688 376.833 292.688 Q375.184 292.688 373.344 293.261 Q371.521 293.834 369.437 294.997 L369.437 291.456 Q371.555 290.605 373.396 290.171 Q375.236 289.737 376.764 289.737 Q380.791 289.737 383.187 291.751 Q385.583 293.765 385.583 297.133 Q385.583 298.73 384.976 300.171 Q384.385 301.595 382.805 303.539 Q382.371 304.042 380.045 306.456 Q377.719 308.851 373.483 313.174 Z" fill="#000000" fill-rule="evenodd" fill-opacity="1" /><path clip-path="url(#clip460)" d="M 0 0 M403.708 302.15 Q406.225 302.688 407.632 304.39 Q409.055 306.091 409.055 308.591 Q409.055 312.428 406.416 314.528 Q403.777 316.629 398.916 316.629 Q397.284 316.629 395.548 316.299 Q393.83 315.987 391.989 315.344 L391.989 311.959 Q393.448 312.81 395.184 313.244 Q396.92 313.678 398.812 313.678 Q402.111 313.678 403.83 312.376 Q405.566 311.074 405.566 308.591 Q405.566 306.299 403.951 305.015 Q402.354 303.713 399.489 303.713 L396.468 303.713 L396.468 300.831 L399.628 300.831 Q402.215 300.831 403.587 299.806 Q404.958 298.765 404.958 296.82 Q404.958 294.824 403.534 293.765 Q402.128 292.688 399.489 292.688 Q398.048 292.688 396.399 293.001 Q394.75 293.313 392.771 293.973 L392.771 290.848 Q394.767 290.292 396.503 290.015 Q398.257 289.737 399.802 289.737 Q403.795 289.737 406.121 291.56 Q408.448 293.365 408.448 296.456 Q408.448 298.608 407.215 300.101 Q405.982 301.577 403.708 302.15 Z" fill="#000000" fill-rule="evenodd" fill-opacity="1" /><path clip-path="url(#clip460)" d="M 0 0 M330.872 385.273 L343.112 385.273 L343.112 388.224 L326.654 388.224 L326.654 385.273 Q328.65 383.207 332.088 379.734 Q335.542 376.245 336.428 375.238 Q338.112 373.346 338.772 372.044 Q339.449 370.724 339.449 369.457 Q339.449 367.391 337.99 366.089 Q336.549 364.787 334.223 364.787 Q332.574 364.787 330.733 365.36 Q328.91 365.932 326.827 367.096 L326.827 363.554 Q328.945 362.703 330.785 362.269 Q332.626 361.835 334.154 361.835 Q338.181 361.835 340.577 363.849 Q342.973 365.863 342.973 369.231 Q342.973 370.828 342.365 372.269 Q341.775 373.693 340.195 375.637 Q339.761 376.141 337.435 378.554 Q335.108 380.95 330.872 385.273 Z" fill="#000000" fill-rule="evenodd" fill-opacity="1" /><path clip-path="url(#clip460)" d="M 0 0 M360.108 365.36 L351.254 379.196 L360.108 379.196 L360.108 365.36 M359.188 362.304 L363.598 362.304 L363.598 379.196 L367.296 379.196 L367.296 382.113 L363.598 382.113 L363.598 388.224 L360.108 388.224 L360.108 382.113 L348.407 382.113 L348.407 378.728 L359.188 362.304 Z" fill="#000000" fill-rule="evenodd" fill-opacity="1" /><path clip-path="url(#clip460)" d="M 0 0 M203.042 457.371 L215.281 457.371 L215.281 460.322 L198.823 460.322 L198.823 457.371 Q200.819 455.305 204.257 451.833 Q207.712 448.343 208.597 447.336 Q210.281 445.444 210.941 444.142 Q211.618 442.822 211.618 441.555 Q211.618 439.489 210.16 438.187 Q208.719 436.885 206.392 436.885 Q204.743 436.885 202.903 437.458 Q201.08 438.031 198.996 439.194 L198.996 435.652 Q201.114 434.802 202.955 434.368 Q204.795 433.934 206.323 433.934 Q210.351 433.934 212.746 435.947 Q215.142 437.961 215.142 441.329 Q215.142 442.927 214.535 444.368 Q213.944 445.791 212.364 447.736 Q211.93 448.239 209.604 450.652 Q207.278 453.048 203.042 457.371 Z" fill="#000000" fill-rule="evenodd" fill-opacity="1" /><path clip-path="url(#clip460)" d="M 0 0 M222.677 434.402 L236.444 434.402 L236.444 437.354 L225.889 437.354 L225.889 443.708 Q226.653 443.447 227.416 443.326 Q228.18 443.187 228.944 443.187 Q233.284 443.187 235.819 445.565 Q238.354 447.944 238.354 452.006 Q238.354 456.19 235.75 458.517 Q233.146 460.826 228.406 460.826 Q226.774 460.826 225.073 460.548 Q223.389 460.27 221.583 459.715 L221.583 456.19 Q223.146 457.041 224.812 457.458 Q226.479 457.874 228.337 457.874 Q231.34 457.874 233.093 456.295 Q234.847 454.715 234.847 452.006 Q234.847 449.298 233.093 447.718 Q231.34 446.138 228.337 446.138 Q226.93 446.138 225.524 446.451 Q224.135 446.763 222.677 447.423 L222.677 434.402 Z" fill="#000000" fill-rule="evenodd" fill-opacity="1" /><path clip-path="url(#clip460)" d="M 0 0 M288.262 457.371 L300.502 457.371 L300.502 460.322 L284.043 460.322 L284.043 457.371 Q286.04 455.305 289.477 451.833 Q292.932 448.343 293.818 447.336 Q295.502 445.444 296.161 444.142 Q296.838 442.822 296.838 441.555 Q296.838 439.489 295.38 438.187 Q293.939 436.885 291.613 436.885 Q289.963 436.885 288.123 437.458 Q286.3 438.031 284.217 439.194 L284.217 435.652 Q286.335 434.802 288.175 434.368 Q290.015 433.934 291.543 433.934 Q295.571 433.934 297.967 435.947 Q300.363 437.961 300.363 441.329 Q300.363 442.927 299.755 444.368 Q299.165 445.791 297.585 447.736 Q297.151 448.239 294.824 450.652 Q292.498 453.048 288.262 457.371 Z" fill="#000000" fill-rule="evenodd" fill-opacity="1" /><path clip-path="url(#clip460)" d="M 0 0 M315.797 445.965 Q313.436 445.965 312.047 447.579 Q310.675 449.194 310.675 452.006 Q310.675 454.802 312.047 456.433 Q313.436 458.048 315.797 458.048 Q318.158 458.048 319.529 456.433 Q320.918 454.802 320.918 452.006 Q320.918 449.194 319.529 447.579 Q318.158 445.965 315.797 445.965 M322.758 434.975 L322.758 438.17 Q321.439 437.545 320.085 437.215 Q318.748 436.885 317.429 436.885 Q313.956 436.885 312.116 439.229 Q310.293 441.572 310.033 446.312 Q311.057 444.802 312.602 444.003 Q314.147 443.187 316.005 443.187 Q319.911 443.187 322.168 445.565 Q324.442 447.927 324.442 452.006 Q324.442 455.999 322.081 458.413 Q319.72 460.826 315.797 460.826 Q311.3 460.826 308.922 457.388 Q306.543 453.933 306.543 447.388 Q306.543 441.243 309.46 437.597 Q312.376 433.934 317.29 433.934 Q318.609 433.934 319.946 434.194 Q321.3 434.454 322.758 434.975 Z" fill="#000000" fill-rule="evenodd" fill-opacity="1" /><path clip-path="url(#clip460)" d="M 0 0 M245.652 529.469 L257.891 529.469 L257.891 532.421 L241.433 532.421 L241.433 529.469 Q243.43 527.403 246.867 523.931 Q250.322 520.442 251.207 519.435 Q252.891 517.542 253.551 516.24 Q254.228 514.921 254.228 513.653 Q254.228 511.587 252.77 510.285 Q251.329 508.983 249.002 508.983 Q247.353 508.983 245.513 509.556 Q243.69 510.129 241.607 511.292 L241.607 507.751 Q243.725 506.9 245.565 506.466 Q247.405 506.032 248.933 506.032 Q252.961 506.032 255.357 508.046 Q257.752 510.06 257.752 513.428 Q257.752 515.025 257.145 516.466 Q256.555 517.889 254.975 519.834 Q254.541 520.337 252.214 522.751 Q249.888 525.146 245.652 529.469 Z" fill="#000000" fill-rule="evenodd" fill-opacity="1" /><path clip-path="url(#clip460)" d="M 0 0 M264.367 506.501 L281.034 506.501 L281.034 507.994 L271.624 532.421 L267.961 532.421 L276.815 509.452 L264.367 509.452 L264.367 506.501 Z" fill="#000000" fill-rule="evenodd" fill-opacity="1" /><path clip-path="url(#clip460)" d="M 0 0 M125.321 157.953 Q127.838 158.492 129.245 160.193 Q130.668 161.894 130.668 164.394 Q130.668 168.231 128.029 170.332 Q125.39 172.433 120.529 172.433 Q118.897 172.433 117.161 172.103 Q115.443 171.79 113.602 171.148 L113.602 167.762 Q115.061 168.613 116.797 169.047 Q118.533 169.481 120.425 169.481 Q123.724 169.481 125.443 168.179 Q127.179 166.877 127.179 164.394 Q127.179 162.103 125.564 160.818 Q123.967 159.516 121.102 159.516 L118.082 159.516 L118.082 156.634 L121.241 156.634 Q123.828 156.634 125.2 155.61 Q126.571 154.568 126.571 152.624 Q126.571 150.627 125.147 149.568 Q123.741 148.492 121.102 148.492 Q119.661 148.492 118.012 148.804 Q116.363 149.117 114.384 149.776 L114.384 146.651 Q116.38 146.096 118.116 145.818 Q119.87 145.54 121.415 145.54 Q125.408 145.54 127.734 147.363 Q130.061 149.169 130.061 152.259 Q130.061 154.412 128.828 155.905 Q127.595 157.381 125.321 157.953 Z" fill="#000000" fill-rule="evenodd" fill-opacity="1" /><path clip-path="url(#clip460)" d="M 0 0 M140.338 168.978 L152.578 168.978 L152.578 171.929 L136.12 171.929 L136.12 168.978 Q138.116 166.912 141.554 163.44 Q145.008 159.95 145.894 158.943 Q147.578 157.051 148.238 155.749 Q148.915 154.429 148.915 153.162 Q148.915 151.096 147.456 149.794 Q146.015 148.492 143.689 148.492 Q142.04 148.492 140.199 149.065 Q138.377 149.637 136.293 150.801 L136.293 147.259 Q138.411 146.408 140.252 145.974 Q142.092 145.54 143.62 145.54 Q147.647 145.54 150.043 147.554 Q152.439 149.568 152.439 152.936 Q152.439 154.533 151.831 155.974 Q151.241 157.398 149.661 159.342 Q149.227 159.846 146.901 162.259 Q144.574 164.655 140.338 168.978 Z" fill="#000000" fill-rule="evenodd" fill-opacity="1" /><circle clip-path="url(#clip462)" cx="710.146" cy="468.098" r="14" fill="#0000ff" fill-rule="evenodd" fill-opacity="1" stroke="none"/>
<circle clip-path="url(#clip462)" cx="752.756" cy="540.197" r="14" fill="#0000ff" fill-rule="evenodd" fill-opacity="1" stroke="none"/>
<circle clip-path="url(#clip462)" cx="624.925" cy="323.902" r="14" fill="#0000ff" fill-rule="evenodd" fill-opacity="1" stroke="none"/>
<circle clip-path="url(#clip462)" cx="710.146" cy="323.902" r="14" fill="#0000ff" fill-rule="evenodd" fill-opacity="1" stroke="none"/>
<circle clip-path="url(#clip462)" cx="667.535" cy="396" r="14" fill="#0000ff" fill-rule="evenodd" fill-opacity="1" stroke="none"/>
<path clip-path="url(#clip460)" d="M 0 0 M710.146 434.402 L726.812 434.402 L726.812 435.895 L717.403 460.322 L713.739 460.322 L722.594 437.354 L710.146 437.354 L710.146 434.402 Z" fill="#000000" fill-rule="evenodd" fill-opacity="1" /><path clip-path="url(#clip460)" d="M 0 0 M754.423 531.882 L754.423 528.688 Q755.742 529.313 757.096 529.643 Q758.45 529.973 759.752 529.973 Q763.225 529.973 765.048 527.646 Q766.888 525.303 767.148 520.546 Q766.141 522.039 764.596 522.837 Q763.051 523.636 761.176 523.636 Q757.287 523.636 755.013 521.292 Q752.756 518.931 752.756 514.851 Q752.756 510.858 755.117 508.445 Q757.478 506.032 761.402 506.032 Q765.898 506.032 768.259 509.487 Q770.638 512.924 770.638 519.487 Q770.638 525.615 767.721 529.278 Q764.822 532.924 759.909 532.924 Q758.589 532.924 757.235 532.664 Q755.881 532.403 754.423 531.882 M761.402 520.893 Q763.763 520.893 765.134 519.278 Q766.523 517.664 766.523 514.851 Q766.523 512.056 765.134 510.442 Q763.763 508.81 761.402 508.81 Q759.041 508.81 757.652 510.442 Q756.28 512.056 756.28 514.851 Q756.28 517.664 757.652 519.278 Q759.041 520.893 761.402 520.893 Z" fill="#000000" fill-rule="evenodd" fill-opacity="1" /><path clip-path="url(#clip460)" d="M 0 0 M629.144 313.174 L641.383 313.174 L641.383 316.126 L624.925 316.126 L624.925 313.174 Q626.922 311.108 630.359 307.636 Q633.814 304.147 634.699 303.14 Q636.383 301.247 637.043 299.945 Q637.72 298.626 637.72 297.358 Q637.72 295.292 636.262 293.99 Q634.821 292.688 632.495 292.688 Q630.845 292.688 629.005 293.261 Q627.182 293.834 625.099 294.997 L625.099 291.456 Q627.217 290.605 629.057 290.171 Q630.897 289.737 632.425 289.737 Q636.453 289.737 638.849 291.751 Q641.245 293.765 641.245 297.133 Q641.245 298.73 640.637 300.171 Q640.047 301.595 638.467 303.539 Q638.033 304.042 635.706 306.456 Q633.38 308.851 629.144 313.174 Z" fill="#000000" fill-rule="evenodd" fill-opacity="1" /><path clip-path="url(#clip460)" d="M 0 0 M656.244 303.817 Q653.744 303.817 652.304 305.154 Q650.88 306.49 650.88 308.834 Q650.88 311.178 652.304 312.515 Q653.744 313.851 656.244 313.851 Q658.744 313.851 660.185 312.515 Q661.626 311.16 661.626 308.834 Q661.626 306.49 660.185 305.154 Q658.762 303.817 656.244 303.817 M652.738 302.324 Q650.481 301.768 649.213 300.223 Q647.963 298.678 647.963 296.456 Q647.963 293.348 650.168 291.542 Q652.39 289.737 656.244 289.737 Q660.116 289.737 662.321 291.542 Q664.526 293.348 664.526 296.456 Q664.526 298.678 663.258 300.223 Q662.008 301.768 659.769 302.324 Q662.303 302.914 663.71 304.633 Q665.133 306.351 665.133 308.834 Q665.133 312.601 662.824 314.615 Q660.533 316.629 656.244 316.629 Q651.956 316.629 649.647 314.615 Q647.356 312.601 647.356 308.834 Q647.356 306.351 648.779 304.633 Q650.203 302.914 652.738 302.324 M651.453 296.786 Q651.453 298.799 652.703 299.928 Q653.97 301.056 656.244 301.056 Q658.501 301.056 659.769 299.928 Q661.053 298.799 661.053 296.786 Q661.053 294.772 659.769 293.643 Q658.501 292.515 656.244 292.515 Q653.97 292.515 652.703 293.643 Q651.453 294.772 651.453 296.786 Z" fill="#000000" fill-rule="evenodd" fill-opacity="1" /><path clip-path="url(#clip460)" d="M 0 0 M714.364 313.174 L726.604 313.174 L726.604 316.126 L710.146 316.126 L710.146 313.174 Q712.142 311.108 715.58 307.636 Q719.035 304.147 719.92 303.14 Q721.604 301.247 722.264 299.945 Q722.941 298.626 722.941 297.358 Q722.941 295.292 721.482 293.99 Q720.041 292.688 717.715 292.688 Q716.066 292.688 714.226 293.261 Q712.403 293.834 710.319 294.997 L710.319 291.456 Q712.437 290.605 714.278 290.171 Q716.118 289.737 717.646 289.737 Q721.673 289.737 724.069 291.751 Q726.465 293.765 726.465 297.133 Q726.465 298.73 725.857 300.171 Q725.267 301.595 723.687 303.539 Q723.253 304.042 720.927 306.456 Q718.6 308.851 714.364 313.174 Z" fill="#000000" fill-rule="evenodd" fill-opacity="1" /><path clip-path="url(#clip460)" d="M 0 0 M734.069 315.587 L734.069 312.393 Q735.389 313.018 736.743 313.348 Q738.097 313.678 739.399 313.678 Q742.871 313.678 744.694 311.351 Q746.534 309.008 746.795 304.251 Q745.788 305.744 744.243 306.542 Q742.698 307.341 740.823 307.341 Q736.934 307.341 734.659 304.997 Q732.402 302.636 732.402 298.556 Q732.402 294.563 734.764 292.15 Q737.125 289.737 741.048 289.737 Q745.545 289.737 747.906 293.192 Q750.284 296.629 750.284 303.192 Q750.284 309.32 747.368 312.983 Q744.468 316.629 739.555 316.629 Q738.236 316.629 736.882 316.369 Q735.527 316.108 734.069 315.587 M741.048 304.598 Q743.409 304.598 744.781 302.983 Q746.17 301.369 746.17 298.556 Q746.17 295.761 744.781 294.147 Q743.409 292.515 741.048 292.515 Q738.687 292.515 737.298 294.147 Q735.927 295.761 735.927 298.556 Q735.927 301.369 737.298 302.983 Q738.687 304.598 741.048 304.598 Z" fill="#000000" fill-rule="evenodd" fill-opacity="1" /><path clip-path="url(#clip460)" d="M 0 0 M679.254 374.248 Q681.771 374.787 683.178 376.488 Q684.601 378.189 684.601 380.689 Q684.601 384.526 681.962 386.627 Q679.324 388.727 674.462 388.727 Q672.831 388.727 671.094 388.398 Q669.376 388.085 667.535 387.443 L667.535 384.057 Q668.994 384.908 670.73 385.342 Q672.466 385.776 674.358 385.776 Q677.657 385.776 679.376 384.474 Q681.112 383.172 681.112 380.689 Q681.112 378.398 679.497 377.113 Q677.9 375.811 675.035 375.811 L672.015 375.811 L672.015 372.929 L675.174 372.929 Q677.761 372.929 679.133 371.905 Q680.504 370.863 680.504 368.919 Q680.504 366.922 679.081 365.863 Q677.674 364.787 675.035 364.787 Q673.594 364.787 671.945 365.099 Q670.296 365.412 668.317 366.071 L668.317 362.946 Q670.313 362.391 672.049 362.113 Q673.803 361.835 675.348 361.835 Q679.341 361.835 681.667 363.658 Q683.994 365.464 683.994 368.554 Q683.994 370.707 682.761 372.2 Q681.528 373.675 679.254 374.248 Z" fill="#000000" fill-rule="evenodd" fill-opacity="1" /><path clip-path="url(#clip460)" d="M 0 0 M698.751 364.613 Q696.042 364.613 694.671 367.287 Q693.317 369.943 693.317 375.29 Q693.317 380.62 694.671 383.293 Q696.042 385.95 698.751 385.95 Q701.476 385.95 702.83 383.293 Q704.202 380.62 704.202 375.29 Q704.202 369.943 702.83 367.287 Q701.476 364.613 698.751 364.613 M698.751 361.835 Q703.108 361.835 705.4 365.29 Q707.709 368.728 707.709 375.29 Q707.709 381.835 705.4 385.29 Q703.108 388.727 698.751 388.727 Q694.393 388.727 692.084 385.29 Q689.792 381.835 689.792 375.29 Q689.792 368.728 692.084 365.29 Q694.393 361.835 698.751 361.835 Z" fill="#000000" fill-rule="evenodd" fill-opacity="1" /><circle clip-path="url(#clip462)" cx="326.654" cy="107.607" r="14" fill="#0000ff" fill-rule="evenodd" fill-opacity="1" stroke="none"/>
<circle clip-path="url(#clip462)" cx="198.823" cy="179.705" r="14" fill="#0000ff" fill-rule="evenodd" fill-opacity="1" stroke="none"/>
<circle clip-path="url(#clip462)" cx="284.043" cy="179.705" r="14" fill="#0000ff" fill-rule="evenodd" fill-opacity="1" stroke="none"/>
<circle clip-path="url(#clip462)" cx="241.433" cy="251.803" r="14" fill="#0000ff" fill-rule="evenodd" fill-opacity="1" stroke="none"/>
<circle clip-path="url(#clip462)" cx="667.535" cy="107.607" r="14" fill="#0000ff" fill-rule="evenodd" fill-opacity="1" stroke="none"/>
<circle clip-path="url(#clip462)" cx="539.705" cy="179.705" r="14" fill="#0000ff" fill-rule="evenodd" fill-opacity="1" stroke="none"/>
<circle clip-path="url(#clip462)" cx="624.925" cy="179.705" r="14" fill="#0000ff" fill-rule="evenodd" fill-opacity="1" stroke="none"/>
<circle clip-path="url(#clip462)" cx="582.315" cy="251.803" r="14" fill="#0000ff" fill-rule="evenodd" fill-opacity="1" stroke="none"/>
<circle clip-path="url(#clip462)" cx="454.484" cy="323.902" r="14" fill="#0000ff" fill-rule="evenodd" fill-opacity="1" stroke="none"/>
<circle clip-path="url(#clip462)" cx="539.705" cy="323.902" r="14" fill="#0000ff" fill-rule="evenodd" fill-opacity="1" stroke="none"/>
<circle clip-path="url(#clip462)" cx="497.094" cy="396" r="14" fill="#0000ff" fill-rule="evenodd" fill-opacity="1" stroke="none"/>
<circle clip-path="url(#clip462)" cx="369.264" cy="179.705" r="14" fill="#0000ff" fill-rule="evenodd" fill-opacity="1" stroke="none"/>
<circle clip-path="url(#clip462)" cx="454.484" cy="179.705" r="14" fill="#0000ff" fill-rule="evenodd" fill-opacity="1" stroke="none"/>
<circle clip-path="url(#clip462)" cx="411.874" cy="251.803" r="14" fill="#0000ff" fill-rule="evenodd" fill-opacity="1" stroke="none"/>
<circle clip-path="url(#clip462)" cx="710.146" cy="179.705" r="14" fill="#0000ff" fill-rule="evenodd" fill-opacity="1" stroke="none"/>
<circle clip-path="url(#clip462)" cx="752.756" cy="251.803" r="14" fill="#0000ff" fill-rule="evenodd" fill-opacity="1" stroke="none"/>
<circle clip-path="url(#clip462)" cx="156.213" cy="107.607" r="14" fill="#0000ff" fill-rule="evenodd" fill-opacity="1" stroke="none"/>
<circle clip-path="url(#clip462)" cx="497.094" cy="107.607" r="14" fill="#0000ff" fill-rule="evenodd" fill-opacity="1" stroke="none"/>
<path clip-path="url(#clip460)" d="M 0 0 M335.907 85.4732 Q333.546 85.4732 332.157 87.0877 Q330.785 88.7023 330.785 91.5148 Q330.785 94.3099 332.157 95.9419 Q333.546 97.5564 335.907 97.5564 Q338.268 97.5564 339.64 95.9419 Q341.028 94.3099 341.028 91.5148 Q341.028 88.7023 339.64 87.0877 Q338.268 85.4732 335.907 85.4732 M342.869 74.4836 L342.869 77.6781 Q341.549 77.0531 340.195 76.7232 Q338.858 76.3933 337.539 76.3933 Q334.067 76.3933 332.226 78.7371 Q330.404 81.0808 330.143 85.8204 Q331.167 84.31 332.713 83.5114 Q334.258 82.6954 336.115 82.6954 Q340.022 82.6954 342.278 85.0739 Q344.553 87.435 344.553 91.5148 Q344.553 95.5078 342.192 97.921 Q339.831 100.334 335.907 100.334 Q331.41 100.334 329.032 96.8967 Q326.654 93.4419 326.654 86.8968 Q326.654 80.751 329.57 77.1051 Q332.487 73.442 337.4 73.442 Q338.719 73.442 340.056 73.7024 Q341.41 73.9628 342.869 74.4836 Z" fill="#000000" fill-rule="evenodd" fill-opacity="1" /><path clip-path="url(#clip460)" d="M 0 0 M198.823 146.009 L215.489 146.009 L215.489 147.502 L206.08 171.929 L202.417 171.929 L211.271 148.96 L198.823 148.96 L198.823 146.009 Z" fill="#000000" fill-rule="evenodd" fill-opacity="1" /><path clip-path="url(#clip460)" d="M 0 0 M292.932 159.62 Q290.432 159.62 288.991 160.957 Q287.568 162.294 287.568 164.637 Q287.568 166.981 288.991 168.318 Q290.432 169.655 292.932 169.655 Q295.432 169.655 296.873 168.318 Q298.314 166.964 298.314 164.637 Q298.314 162.294 296.873 160.957 Q295.449 159.62 292.932 159.62 M289.425 158.127 Q287.168 157.571 285.901 156.026 Q284.651 154.481 284.651 152.259 Q284.651 149.151 286.856 147.346 Q289.078 145.54 292.932 145.54 Q296.804 145.54 299.009 147.346 Q301.213 149.151 301.213 152.259 Q301.213 154.481 299.946 156.026 Q298.696 157.571 296.456 158.127 Q298.991 158.717 300.397 160.436 Q301.821 162.155 301.821 164.637 Q301.821 168.405 299.512 170.419 Q297.22 172.433 292.932 172.433 Q288.644 172.433 286.335 170.419 Q284.043 168.405 284.043 164.637 Q284.043 162.155 285.467 160.436 Q286.891 158.717 289.425 158.127 M288.141 152.589 Q288.141 154.603 289.391 155.731 Q290.658 156.86 292.932 156.86 Q295.189 156.86 296.456 155.731 Q297.741 154.603 297.741 152.589 Q297.741 150.575 296.456 149.447 Q295.189 148.318 292.932 148.318 Q290.658 148.318 289.391 149.447 Q288.141 150.575 288.141 152.589 Z" fill="#000000" fill-rule="evenodd" fill-opacity="1" /><path clip-path="url(#clip460)" d="M 0 0 M243.1 243.489 L243.1 240.295 Q244.419 240.92 245.773 241.25 Q247.127 241.579 248.43 241.579 Q251.902 241.579 253.725 239.253 Q255.565 236.909 255.825 232.152 Q254.818 233.645 253.273 234.444 Q251.728 235.243 249.853 235.243 Q245.964 235.243 243.69 232.899 Q241.433 230.538 241.433 226.458 Q241.433 222.465 243.794 220.052 Q246.155 217.639 250.079 217.639 Q254.575 217.639 256.936 221.093 Q259.315 224.531 259.315 231.093 Q259.315 237.222 256.398 240.885 Q253.499 244.531 248.586 244.531 Q247.266 244.531 245.912 244.27 Q244.558 244.01 243.1 243.489 M250.079 232.5 Q252.44 232.5 253.811 230.885 Q255.2 229.27 255.2 226.458 Q255.2 223.663 253.811 222.048 Q252.44 220.416 250.079 220.416 Q247.718 220.416 246.329 222.048 Q244.957 223.663 244.957 226.458 Q244.957 229.27 246.329 230.885 Q247.718 232.5 250.079 232.5 Z" fill="#000000" fill-rule="evenodd" fill-opacity="1" /><path clip-path="url(#clip460)" d="M 0 0 M668.039 96.8793 L673.768 96.8793 L673.768 77.1051 L667.535 78.3551 L667.535 75.1607 L673.733 73.9107 L677.24 73.9107 L677.24 96.8793 L682.969 96.8793 L682.969 99.8307 L668.039 99.8307 L668.039 96.8793 Z" fill="#000000" fill-rule="evenodd" fill-opacity="1" /><path clip-path="url(#clip460)" d="M 0 0 M693.073 96.8793 L705.313 96.8793 L705.313 99.8307 L688.855 99.8307 L688.855 96.8793 Q690.851 94.8134 694.289 91.3412 Q697.744 87.8516 698.629 86.8447 Q700.313 84.9523 700.973 83.6503 Q701.65 82.3308 701.65 81.0635 Q701.65 78.9975 700.192 77.6954 Q698.751 76.3933 696.424 76.3933 Q694.775 76.3933 692.935 76.9663 Q691.112 77.5392 689.028 78.7024 L689.028 75.1607 Q691.146 74.31 692.987 73.876 Q694.827 73.442 696.355 73.442 Q700.382 73.442 702.778 75.4559 Q705.174 77.4697 705.174 80.8378 Q705.174 82.435 704.566 83.8759 Q703.976 85.2995 702.396 87.244 Q701.962 87.7475 699.636 90.1606 Q697.31 92.5565 693.073 96.8793 Z" fill="#000000" fill-rule="evenodd" fill-opacity="1" /><path clip-path="url(#clip460)" d="M 0 0 M540.208 168.978 L545.937 168.978 L545.937 149.203 L539.705 150.453 L539.705 147.259 L545.903 146.009 L549.41 146.009 L549.41 168.978 L555.139 168.978 L555.139 171.929 L540.208 171.929 L540.208 168.978 Z" fill="#000000" fill-rule="evenodd" fill-opacity="1" /><path clip-path="url(#clip460)" d="M 0 0 M572.847 157.953 Q575.364 158.492 576.77 160.193 Q578.194 161.894 578.194 164.394 Q578.194 168.231 575.555 170.332 Q572.916 172.433 568.055 172.433 Q566.423 172.433 564.687 172.103 Q562.968 171.79 561.128 171.148 L561.128 167.762 Q562.587 168.613 564.323 169.047 Q566.059 169.481 567.951 169.481 Q571.25 169.481 572.968 168.179 Q574.705 166.877 574.705 164.394 Q574.705 162.103 573.09 160.818 Q571.493 159.516 568.628 159.516 L565.607 159.516 L565.607 156.634 L568.767 156.634 Q571.354 156.634 572.725 155.61 Q574.097 154.568 574.097 152.624 Q574.097 150.627 572.673 149.568 Q571.267 148.492 568.628 148.492 Q567.187 148.492 565.538 148.804 Q563.889 149.117 561.909 149.776 L561.909 146.651 Q563.906 146.096 565.642 145.818 Q567.396 145.54 568.941 145.54 Q572.934 145.54 575.26 147.363 Q577.586 149.169 577.586 152.259 Q577.586 154.412 576.354 155.905 Q575.121 157.381 572.847 157.953 Z" fill="#000000" fill-rule="evenodd" fill-opacity="1" /><path clip-path="url(#clip460)" d="M 0 0 M625.429 168.978 L631.158 168.978 L631.158 149.203 L624.925 150.453 L624.925 147.259 L631.123 146.009 L634.63 146.009 L634.63 168.978 L640.359 168.978 L640.359 171.929 L625.429 171.929 L625.429 168.978 Z" fill="#000000" fill-rule="evenodd" fill-opacity="1" /><path clip-path="url(#clip460)" d="M 0 0 M657.078 149.065 L648.224 162.901 L657.078 162.901 L657.078 149.065 M656.158 146.009 L660.567 146.009 L660.567 162.901 L664.265 162.901 L664.265 165.818 L660.567 165.818 L660.567 171.929 L657.078 171.929 L657.078 165.818 L645.376 165.818 L645.376 162.433 L656.158 146.009 Z" fill="#000000" fill-rule="evenodd" fill-opacity="1" /><path clip-path="url(#clip460)" d="M 0 0 M582.818 241.076 L588.548 241.076 L588.548 221.302 L582.315 222.552 L582.315 219.357 L588.513 218.107 L592.02 218.107 L592.02 241.076 L597.749 241.076 L597.749 244.027 L582.818 244.027 L582.818 241.076 Z" fill="#000000" fill-rule="evenodd" fill-opacity="1" /><path clip-path="url(#clip460)" d="M 0 0 M604.867 218.107 L618.634 218.107 L618.634 221.059 L608.079 221.059 L608.079 227.413 Q608.843 227.152 609.606 227.031 Q610.37 226.892 611.134 226.892 Q615.475 226.892 618.009 229.27 Q620.544 231.649 620.544 235.711 Q620.544 239.895 617.94 242.222 Q615.336 244.531 610.596 244.531 Q608.964 244.531 607.263 244.253 Q605.579 243.975 603.773 243.42 L603.773 239.895 Q605.336 240.746 607.002 241.163 Q608.669 241.579 610.527 241.579 Q613.53 241.579 615.284 240 Q617.037 238.42 617.037 235.711 Q617.037 233.003 615.284 231.423 Q613.53 229.843 610.527 229.843 Q609.12 229.843 607.714 230.156 Q606.325 230.468 604.867 231.128 L604.867 218.107 Z" fill="#000000" fill-rule="evenodd" fill-opacity="1" /><path clip-path="url(#clip460)" d="M 0 0 M454.988 313.174 L460.717 313.174 L460.717 293.4 L454.484 294.65 L454.484 291.456 L460.682 290.206 L464.189 290.206 L464.189 313.174 L469.918 313.174 L469.918 316.126 L454.988 316.126 L454.988 313.174 Z" fill="#000000" fill-rule="evenodd" fill-opacity="1" /><path clip-path="url(#clip460)" d="M 0 0 M484.935 301.768 Q482.574 301.768 481.185 303.383 Q479.814 304.997 479.814 307.81 Q479.814 310.605 481.185 312.237 Q482.574 313.851 484.935 313.851 Q487.297 313.851 488.668 312.237 Q490.057 310.605 490.057 307.81 Q490.057 304.997 488.668 303.383 Q487.297 301.768 484.935 301.768 M491.897 290.779 L491.897 293.973 Q490.578 293.348 489.224 293.018 Q487.887 292.688 486.567 292.688 Q483.095 292.688 481.255 295.032 Q479.432 297.376 479.172 302.115 Q480.196 300.605 481.741 299.806 Q483.286 298.99 485.144 298.99 Q489.05 298.99 491.307 301.369 Q493.581 303.73 493.581 307.81 Q493.581 311.803 491.22 314.216 Q488.859 316.629 484.935 316.629 Q480.439 316.629 478.061 313.192 Q475.682 309.737 475.682 303.192 Q475.682 297.046 478.599 293.4 Q481.515 289.737 486.429 289.737 Q487.748 289.737 489.085 289.997 Q490.439 290.258 491.897 290.779 Z" fill="#000000" fill-rule="evenodd" fill-opacity="1" /><path clip-path="url(#clip460)" d="M 0 0 M540.208 313.174 L545.937 313.174 L545.937 293.4 L539.705 294.65 L539.705 291.456 L545.903 290.206 L549.41 290.206 L549.41 313.174 L555.139 313.174 L555.139 316.126 L540.208 316.126 L540.208 313.174 Z" fill="#000000" fill-rule="evenodd" fill-opacity="1" /><path clip-path="url(#clip460)" d="M 0 0 M561.337 290.206 L578.003 290.206 L578.003 291.699 L568.593 316.126 L564.93 316.126 L573.784 293.157 L561.337 293.157 L561.337 290.206 Z" fill="#000000" fill-rule="evenodd" fill-opacity="1" /><path clip-path="url(#clip460)" d="M 0 0 M497.598 385.273 L503.327 385.273 L503.327 365.498 L497.094 366.748 L497.094 363.554 L503.292 362.304 L506.799 362.304 L506.799 385.273 L512.528 385.273 L512.528 388.224 L497.598 388.224 L497.598 385.273 Z" fill="#000000" fill-rule="evenodd" fill-opacity="1" /><path clip-path="url(#clip460)" d="M 0 0 M527.112 375.915 Q524.612 375.915 523.171 377.252 Q521.747 378.589 521.747 380.932 Q521.747 383.276 523.171 384.613 Q524.612 385.95 527.112 385.95 Q529.612 385.95 531.053 384.613 Q532.494 383.259 532.494 380.932 Q532.494 378.589 531.053 377.252 Q529.629 375.915 527.112 375.915 M523.605 374.422 Q521.348 373.866 520.08 372.321 Q518.83 370.776 518.83 368.554 Q518.83 365.446 521.035 363.641 Q523.258 361.835 527.112 361.835 Q530.983 361.835 533.188 363.641 Q535.393 365.446 535.393 368.554 Q535.393 370.776 534.126 372.321 Q532.876 373.866 530.636 374.422 Q533.171 375.012 534.577 376.731 Q536.001 378.45 536.001 380.932 Q536.001 384.7 533.692 386.714 Q531.4 388.727 527.112 388.727 Q522.824 388.727 520.515 386.714 Q518.223 384.7 518.223 380.932 Q518.223 378.45 519.646 376.731 Q521.07 375.012 523.605 374.422 M522.32 368.884 Q522.32 370.898 523.57 372.026 Q524.837 373.155 527.112 373.155 Q529.369 373.155 530.636 372.026 Q531.921 370.898 531.921 368.884 Q531.921 366.87 530.636 365.741 Q529.369 364.613 527.112 364.613 Q524.837 364.613 523.57 365.741 Q522.32 366.87 522.32 368.884 Z" fill="#000000" fill-rule="evenodd" fill-opacity="1" /><path clip-path="url(#clip460)" d="M 0 0 M369.767 168.978 L375.496 168.978 L375.496 149.203 L369.264 150.453 L369.264 147.259 L375.462 146.009 L378.969 146.009 L378.969 168.978 L384.698 168.978 L384.698 171.929 L369.767 171.929 L369.767 168.978 Z" fill="#000000" fill-rule="evenodd" fill-opacity="1" /><path clip-path="url(#clip460)" d="M 0 0 M391.885 171.391 L391.885 168.196 Q393.205 168.821 394.559 169.151 Q395.913 169.481 397.215 169.481 Q400.687 169.481 402.51 167.155 Q404.35 164.811 404.611 160.054 Q403.604 161.547 402.059 162.346 Q400.514 163.144 398.639 163.144 Q394.75 163.144 392.475 160.801 Q390.219 158.44 390.219 154.36 Q390.219 150.367 392.58 147.953 Q394.941 145.54 398.864 145.54 Q403.361 145.54 405.722 148.995 Q408.1 152.433 408.1 158.995 Q408.1 165.124 405.184 168.787 Q402.284 172.433 397.371 172.433 Q396.052 172.433 394.698 172.172 Q393.344 171.912 391.885 171.391 M398.864 160.401 Q401.225 160.401 402.597 158.787 Q403.986 157.172 403.986 154.36 Q403.986 151.565 402.597 149.95 Q401.225 148.318 398.864 148.318 Q396.503 148.318 395.114 149.95 Q393.743 151.565 393.743 154.36 Q393.743 157.172 395.114 158.787 Q396.503 160.401 398.864 160.401 Z" fill="#000000" fill-rule="evenodd" fill-opacity="1" /><path clip-path="url(#clip460)" d="M 0 0 M458.703 168.978 L470.942 168.978 L470.942 171.929 L454.484 171.929 L454.484 168.978 Q456.481 166.912 459.918 163.44 Q463.373 159.95 464.259 158.943 Q465.943 157.051 466.602 155.749 Q467.279 154.429 467.279 153.162 Q467.279 151.096 465.821 149.794 Q464.38 148.492 462.054 148.492 Q460.404 148.492 458.564 149.065 Q456.741 149.637 454.658 150.801 L454.658 147.259 Q456.776 146.408 458.616 145.974 Q460.456 145.54 461.984 145.54 Q466.012 145.54 468.408 147.554 Q470.804 149.568 470.804 152.936 Q470.804 154.533 470.196 155.974 Q469.606 157.398 468.026 159.342 Q467.592 159.846 465.265 162.259 Q462.939 164.655 458.703 168.978 Z" fill="#000000" fill-rule="evenodd" fill-opacity="1" /><path clip-path="url(#clip460)" d="M 0 0 M485.804 148.318 Q483.095 148.318 481.724 150.992 Q480.37 153.648 480.37 158.995 Q480.37 164.325 481.724 166.999 Q483.095 169.655 485.804 169.655 Q488.529 169.655 489.883 166.999 Q491.255 164.325 491.255 158.995 Q491.255 153.648 489.883 150.992 Q488.529 148.318 485.804 148.318 M485.804 145.54 Q490.161 145.54 492.453 148.995 Q494.762 152.433 494.762 158.995 Q494.762 165.54 492.453 168.995 Q490.161 172.433 485.804 172.433 Q481.446 172.433 479.137 168.995 Q476.845 165.54 476.845 158.995 Q476.845 152.433 479.137 148.995 Q481.446 145.54 485.804 145.54 Z" fill="#000000" fill-rule="evenodd" fill-opacity="1" /><path clip-path="url(#clip460)" d="M 0 0 M416.093 241.076 L428.332 241.076 L428.332 244.027 L411.874 244.027 L411.874 241.076 Q413.871 239.01 417.308 235.538 Q420.763 232.048 421.648 231.041 Q423.332 229.149 423.992 227.847 Q424.669 226.527 424.669 225.26 Q424.669 223.194 423.211 221.892 Q421.77 220.59 419.443 220.59 Q417.794 220.59 415.954 221.163 Q414.131 221.736 412.048 222.899 L412.048 219.357 Q414.166 218.507 416.006 218.073 Q417.846 217.639 419.374 217.639 Q423.402 217.639 425.798 219.652 Q428.193 221.666 428.193 225.034 Q428.193 226.632 427.586 228.073 Q426.995 229.496 425.416 231.441 Q424.982 231.944 422.655 234.357 Q420.329 236.753 416.093 241.076 Z" fill="#000000" fill-rule="evenodd" fill-opacity="1" /><path clip-path="url(#clip460)" d="M 0 0 M436.301 241.076 L442.03 241.076 L442.03 221.302 L435.797 222.552 L435.797 219.357 L441.995 218.107 L445.502 218.107 L445.502 241.076 L451.231 241.076 L451.231 244.027 L436.301 244.027 L436.301 241.076 Z" fill="#000000" fill-rule="evenodd" fill-opacity="1" /><path clip-path="url(#clip460)" d="M 0 0 M714.364 168.978 L726.604 168.978 L726.604 171.929 L710.146 171.929 L710.146 168.978 Q712.142 166.912 715.58 163.44 Q719.035 159.95 719.92 158.943 Q721.604 157.051 722.264 155.749 Q722.941 154.429 722.941 153.162 Q722.941 151.096 721.482 149.794 Q720.041 148.492 717.715 148.492 Q716.066 148.492 714.226 149.065 Q712.403 149.637 710.319 150.801 L710.319 147.259 Q712.437 146.408 714.278 145.974 Q716.118 145.54 717.646 145.54 Q721.673 145.54 724.069 147.554 Q726.465 149.568 726.465 152.936 Q726.465 154.533 725.857 155.974 Q725.267 157.398 723.687 159.342 Q723.253 159.846 720.927 162.259 Q718.6 164.655 714.364 168.978 Z" fill="#000000" fill-rule="evenodd" fill-opacity="1" /><path clip-path="url(#clip460)" d="M 0 0 M734 146.009 L747.767 146.009 L747.767 148.96 L737.211 148.96 L737.211 155.315 Q737.975 155.054 738.739 154.933 Q739.503 154.794 740.267 154.794 Q744.607 154.794 747.142 157.172 Q749.677 159.551 749.677 163.613 Q749.677 167.797 747.073 170.123 Q744.468 172.433 739.729 172.433 Q738.097 172.433 736.396 172.155 Q734.712 171.877 732.906 171.321 L732.906 167.797 Q734.468 168.648 736.135 169.064 Q737.802 169.481 739.659 169.481 Q742.663 169.481 744.416 167.901 Q746.17 166.321 746.17 163.613 Q746.17 160.905 744.416 159.325 Q742.663 157.745 739.659 157.745 Q738.253 157.745 736.847 158.058 Q735.458 158.37 734 159.03 L734 146.009 Z" fill="#000000" fill-rule="evenodd" fill-opacity="1" /><path clip-path="url(#clip460)" d="M 0 0 M756.975 241.076 L769.214 241.076 L769.214 244.027 L752.756 244.027 L752.756 241.076 Q754.752 239.01 758.19 235.538 Q761.645 232.048 762.53 231.041 Q764.214 229.149 764.874 227.847 Q765.551 226.527 765.551 225.26 Q765.551 223.194 764.093 221.892 Q762.652 220.59 760.325 220.59 Q758.676 220.59 756.836 221.163 Q755.013 221.736 752.93 222.899 L752.93 219.357 Q755.048 218.507 756.888 218.073 Q758.728 217.639 760.256 217.639 Q764.284 217.639 766.679 219.652 Q769.075 221.666 769.075 225.034 Q769.075 226.632 768.468 228.073 Q767.877 229.496 766.297 231.441 Q765.863 231.944 763.537 234.357 Q761.211 236.753 756.975 241.076 Z" fill="#000000" fill-rule="evenodd" fill-opacity="1" /><path clip-path="url(#clip460)" d="M 0 0 M775.69 218.107 L792.356 218.107 L792.356 219.6 L782.947 244.027 L779.284 244.027 L788.138 221.059 L775.69 221.059 L775.69 218.107 Z" fill="#000000" fill-rule="evenodd" fill-opacity="1" /><path clip-path="url(#clip460)" d="M 0 0 M167.931 85.8551 Q170.449 86.3933 171.855 88.0947 Q173.278 89.7961 173.278 92.296 Q173.278 96.1328 170.64 98.2335 Q168.001 100.334 163.14 100.334 Q161.508 100.334 159.772 100.004 Q158.053 99.6918 156.213 99.0495 L156.213 95.6641 Q157.671 96.5148 159.407 96.9488 Q161.143 97.3828 163.035 97.3828 Q166.334 97.3828 168.053 96.0807 Q169.789 94.7787 169.789 92.296 Q169.789 90.0044 168.174 88.7197 Q166.577 87.4176 163.713 87.4176 L160.692 87.4176 L160.692 84.5357 L163.851 84.5357 Q166.438 84.5357 167.81 83.5114 Q169.181 82.4697 169.181 80.5253 Q169.181 78.5288 167.758 77.4697 Q166.351 76.3933 163.713 76.3933 Q162.272 76.3933 160.622 76.7058 Q158.973 77.0183 156.994 77.6781 L156.994 74.5531 Q158.99 73.9975 160.726 73.7198 Q162.48 73.442 164.025 73.442 Q168.018 73.442 170.344 75.2649 Q172.671 77.0704 172.671 80.1607 Q172.671 82.3135 171.438 83.8065 Q170.206 85.2822 167.931 85.8551 Z" fill="#000000" fill-rule="evenodd" fill-opacity="1" /><path clip-path="url(#clip460)" d="M 0 0 M187.428 76.2197 Q184.719 76.2197 183.348 78.8933 Q181.994 81.5496 181.994 86.8968 Q181.994 92.2266 183.348 94.9002 Q184.719 97.5564 187.428 97.5564 Q190.153 97.5564 191.508 94.9002 Q192.879 92.2266 192.879 86.8968 Q192.879 81.5496 191.508 78.8933 Q190.153 76.2197 187.428 76.2197 M187.428 73.442 Q191.785 73.442 194.077 76.8968 Q196.386 80.3343 196.386 86.8968 Q196.386 93.4419 194.077 96.8967 Q191.785 100.334 187.428 100.334 Q183.07 100.334 180.761 96.8967 Q178.469 93.4419 178.469 86.8968 Q178.469 80.3343 180.761 76.8968 Q183.07 73.442 187.428 73.442 Z" fill="#000000" fill-rule="evenodd" fill-opacity="1" /><path clip-path="url(#clip460)" d="M 0 0 M508.813 85.8551 Q511.331 86.3933 512.737 88.0947 Q514.16 89.7961 514.16 92.296 Q514.16 96.1328 511.521 98.2335 Q508.883 100.334 504.022 100.334 Q502.39 100.334 500.653 100.004 Q498.935 99.6918 497.094 99.0495 L497.094 95.6641 Q498.553 96.5148 500.289 96.9488 Q502.025 97.3828 503.917 97.3828 Q507.216 97.3828 508.935 96.0807 Q510.671 94.7787 510.671 92.296 Q510.671 90.0044 509.056 88.7197 Q507.459 87.4176 504.594 87.4176 L501.574 87.4176 L501.574 84.5357 L504.733 84.5357 Q507.32 84.5357 508.692 83.5114 Q510.063 82.4697 510.063 80.5253 Q510.063 78.5288 508.64 77.4697 Q507.233 76.3933 504.594 76.3933 Q503.153 76.3933 501.504 76.7058 Q499.855 77.0183 497.876 77.6781 L497.876 74.5531 Q499.872 73.9975 501.608 73.7198 Q503.362 73.442 504.907 73.442 Q508.9 73.442 511.226 75.2649 Q513.553 77.0704 513.553 80.1607 Q513.553 82.3135 512.32 83.8065 Q511.087 85.2822 508.813 85.8551 Z" fill="#000000" fill-rule="evenodd" fill-opacity="1" /><path clip-path="url(#clip460)" d="M 0 0 M528.744 85.4732 Q526.383 85.4732 524.994 87.0877 Q523.622 88.7023 523.622 91.5148 Q523.622 94.3099 524.994 95.9419 Q526.383 97.5564 528.744 97.5564 Q531.105 97.5564 532.476 95.9419 Q533.865 94.3099 533.865 91.5148 Q533.865 88.7023 532.476 87.0877 Q531.105 85.4732 528.744 85.4732 M535.705 74.4836 L535.705 77.6781 Q534.386 77.0531 533.032 76.7232 Q531.695 76.3933 530.376 76.3933 Q526.903 76.3933 525.063 78.7371 Q523.24 81.0808 522.98 85.8204 Q524.004 84.31 525.549 83.5114 Q527.094 82.6954 528.952 82.6954 Q532.858 82.6954 535.115 85.0739 Q537.389 87.435 537.389 91.5148 Q537.389 95.5078 535.028 97.921 Q532.667 100.334 528.744 100.334 Q524.247 100.334 521.869 96.8967 Q519.49 93.4419 519.49 86.8968 Q519.49 80.751 522.407 77.1051 Q525.324 73.442 530.237 73.442 Q531.556 73.442 532.893 73.7024 Q534.247 73.9628 535.705 74.4836 Z" fill="#000000" fill-rule="evenodd" fill-opacity="1" /></svg>
