<?xml version="1.0" encoding="utf-8"?>
<svg xmlns="http://www.w3.org/2000/svg" xmlns:xlink="http://www.w3.org/1999/xlink" width="200" height="200" viewBox="0 0 800 800">
<defs>
  <clipPath id="clip310">
    <rect x="0" y="0" width="800" height="800"/>
  </clipPath>
</defs>
<path clip-path="url(#clip310)" d="
M0 800 L800 800 L800 0 L0 0  Z
  " fill="#ffffff" fill-rule="evenodd" fill-opacity="1"/>
<defs>
  <clipPath id="clip311">
    <rect x="160" y="80" width="561" height="561"/>
  </clipPath>
</defs>
<path clip-path="url(#clip310)" d="
M70.9921 729.008 L752.756 729.008 L752.756 62.9921 L70.9921 62.9921  Z
  " fill="#ffffff" fill-rule="evenodd" fill-opacity="1"/>
<defs>
  <clipPath id="clip312">
    <rect x="70" y="62" width="683" height="667"/>
  </clipPath>
</defs>
<polyline clip-path="url(#clip310)" style="stroke:#000000; stroke-width:4; stroke-opacity:1; fill:none" points="
  70.9921,729.008 752.756,729.008 
  "/>
<polyline clip-path="url(#clip310)" style="stroke:#000000; stroke-width:4; stroke-opacity:1; fill:none" points="
  70.9921,729.008 70.9921,721.016 
  "/>
<polyline clip-path="url(#clip310)" style="stroke:#000000; stroke-width:4; stroke-opacity:1; fill:none" points="
  241.433,729.008 241.433,721.016 
  "/>
<polyline clip-path="url(#clip310)" style="stroke:#000000; stroke-width:4; stroke-opacity:1; fill:none" points="
  411.874,729.008 411.874,721.016 
  "/>
<polyline clip-path="url(#clip310)" style="stroke:#000000; stroke-width:4; stroke-opacity:1; fill:none" points="
  582.315,729.008 582.315,721.016 
  "/>
<polyline clip-path="url(#clip310)" style="stroke:#000000; stroke-width:4; stroke-opacity:1; fill:none" points="
  752.756,729.008 752.756,721.016 
  "/>
<path clip-path="url(#clip310)" d="M 0 0 M40.9344 760.051 L70.6102 760.051 L70.6102 763.986 L40.9344 763.986 L40.9344 760.051 Z" fill="#000000" fill-rule="evenodd" fill-opacity="1" /><path clip-path="url(#clip310)" d="M 0 0 M84.7305 772.945 L101.05 772.945 L101.05 776.88 L79.1055 776.88 L79.1055 772.945 Q81.7675 770.19 86.3508 765.56 Q90.9573 760.908 92.1378 759.565 Q94.3832 757.042 95.2628 755.306 Q96.1656 753.547 96.1656 751.857 Q96.1656 749.102 94.2212 747.366 Q92.2999 745.63 89.198 745.63 Q86.999 745.63 84.5453 746.394 Q82.1148 747.158 79.337 748.709 L79.337 743.987 Q82.161 742.852 84.6147 742.274 Q87.0684 741.695 89.1055 741.695 Q94.4758 741.695 97.6702 744.38 Q100.865 747.065 100.865 751.556 Q100.865 753.686 100.054 755.607 Q99.2674 757.505 97.161 760.098 Q96.5823 760.769 93.4804 763.986 Q90.3786 767.181 84.7305 772.945 Z" fill="#000000" fill-rule="evenodd" fill-opacity="1" /><path clip-path="url(#clip310)" d="M 0 0 M211.19 760.051 L240.866 760.051 L240.866 763.986 L211.19 763.986 L211.19 760.051 Z" fill="#000000" fill-rule="evenodd" fill-opacity="1" /><path clip-path="url(#clip310)" d="M 0 0 M251.769 772.945 L259.408 772.945 L259.408 746.579 L251.097 748.246 L251.097 743.987 L259.361 742.32 L264.037 742.32 L264.037 772.945 L271.676 772.945 L271.676 776.88 L251.769 776.88 L251.769 772.945 Z" fill="#000000" fill-rule="evenodd" fill-opacity="1" /><path clip-path="url(#clip310)" d="M 0 0 M411.874 745.399 Q408.263 745.399 406.434 748.963 Q404.629 752.505 404.629 759.635 Q404.629 766.741 406.434 770.306 Q408.263 773.847 411.874 773.847 Q415.508 773.847 417.314 770.306 Q419.142 766.741 419.142 759.635 Q419.142 752.505 417.314 748.963 Q415.508 745.399 411.874 745.399 M411.874 741.695 Q417.684 741.695 420.74 746.301 Q423.818 750.885 423.818 759.635 Q423.818 768.361 420.74 772.968 Q417.684 777.551 411.874 777.551 Q406.064 777.551 402.985 772.968 Q399.93 768.361 399.93 759.635 Q399.93 750.885 402.985 746.301 Q406.064 741.695 411.874 741.695 Z" fill="#000000" fill-rule="evenodd" fill-opacity="1" /><path clip-path="url(#clip310)" d="M 0 0 M572.697 772.945 L580.336 772.945 L580.336 746.579 L572.026 748.246 L572.026 743.987 L580.29 742.32 L584.965 742.32 L584.965 772.945 L592.604 772.945 L592.604 776.88 L572.697 776.88 L572.697 772.945 Z" fill="#000000" fill-rule="evenodd" fill-opacity="1" /><path clip-path="url(#clip310)" d="M 0 0 M747.409 772.945 L763.728 772.945 L763.728 776.88 L741.784 776.88 L741.784 772.945 Q744.446 770.19 749.029 765.56 Q753.636 760.908 754.816 759.565 Q757.061 757.042 757.941 755.306 Q758.844 753.547 758.844 751.857 Q758.844 749.102 756.899 747.366 Q754.978 745.63 751.876 745.63 Q749.677 745.63 747.224 746.394 Q744.793 747.158 742.015 748.709 L742.015 743.987 Q744.839 742.852 747.293 742.274 Q749.747 741.695 751.784 741.695 Q757.154 741.695 760.348 744.38 Q763.543 747.065 763.543 751.556 Q763.543 753.686 762.733 755.607 Q761.946 757.505 759.839 760.098 Q759.261 760.769 756.159 763.986 Q753.057 767.181 747.409 772.945 Z" fill="#000000" fill-rule="evenodd" fill-opacity="1" /><polyline clip-path="url(#clip310)" style="stroke:#000000; stroke-width:4; stroke-opacity:1; fill:none" points="
  70.9921,729.008 70.9921,62.9921 
  "/>
<polyline clip-path="url(#clip310)" style="stroke:#000000; stroke-width:4; stroke-opacity:1; fill:none" points="
  70.9921,729.008 79.1733,729.008 
  "/>
<polyline clip-path="url(#clip310)" style="stroke:#000000; stroke-width:4; stroke-opacity:1; fill:none" points="
  70.9921,562.504 79.1733,562.504 
  "/>
<polyline clip-path="url(#clip310)" style="stroke:#000000; stroke-width:4; stroke-opacity:1; fill:none" points="
  70.9921,396 79.1733,396 
  "/>
<polyline clip-path="url(#clip310)" style="stroke:#000000; stroke-width:4; stroke-opacity:1; fill:none" points="
  70.9921,229.496 79.1733,229.496 
  "/>
<polyline clip-path="url(#clip310)" style="stroke:#000000; stroke-width:4; stroke-opacity:1; fill:none" points="
  70.9921,62.9921 79.1733,62.9921 
  "/>
<path clip-path="url(#clip310)" d="M 0 0 M-1.12329 729.459 L28.5525 729.459 L28.5525 733.394 L-1.12329 733.394 L-1.12329 729.459 Z" fill="#000000" fill-rule="evenodd" fill-opacity="1" /><path clip-path="url(#clip310)" d="M 0 0 M42.6728 742.353 L58.9921 742.353 L58.9921 746.288 L37.0478 746.288 L37.0478 742.353 Q39.7098 739.598 44.2931 734.968 Q48.8996 730.316 50.0801 728.973 Q52.3255 726.45 53.2051 724.714 Q54.1079 722.955 54.1079 721.265 Q54.1079 718.51 52.1635 716.774 Q50.2422 715.038 47.1403 715.038 Q44.9413 715.038 42.4876 715.802 Q40.057 716.566 37.2793 718.117 L37.2793 713.395 Q40.1033 712.26 42.557 711.682 Q45.0107 711.103 47.0477 711.103 Q52.4181 711.103 55.6125 713.788 Q58.8069 716.473 58.8069 720.964 Q58.8069 723.094 57.9968 725.015 Q57.2097 726.913 55.1033 729.506 Q54.5246 730.177 51.4227 733.394 Q48.3209 736.589 42.6728 742.353 Z" fill="#000000" fill-rule="evenodd" fill-opacity="1" /><path clip-path="url(#clip310)" d="M 0 0 M-1.49366 562.955 L28.1821 562.955 L28.1821 566.89 L-1.49366 566.89 L-1.49366 562.955 Z" fill="#000000" fill-rule="evenodd" fill-opacity="1" /><path clip-path="url(#clip310)" d="M 0 0 M39.0848 575.849 L46.7237 575.849 L46.7237 549.483 L38.4135 551.15 L38.4135 546.891 L46.6774 545.224 L51.3533 545.224 L51.3533 575.849 L58.9921 575.849 L58.9921 579.784 L39.0848 579.784 L39.0848 575.849 Z" fill="#000000" fill-rule="evenodd" fill-opacity="1" /><path clip-path="url(#clip310)" d="M 0 0 M47.0477 381.799 Q43.4367 381.799 41.608 385.363 Q39.8024 388.905 39.8024 396.035 Q39.8024 403.141 41.608 406.706 Q43.4367 410.248 47.0477 410.248 Q50.682 410.248 52.4875 406.706 Q54.3162 403.141 54.3162 396.035 Q54.3162 388.905 52.4875 385.363 Q50.682 381.799 47.0477 381.799 M47.0477 378.095 Q52.8579 378.095 55.9134 382.701 Q58.9921 387.285 58.9921 396.035 Q58.9921 404.762 55.9134 409.368 Q52.8579 413.951 47.0477 413.951 Q41.2376 413.951 38.1589 409.368 Q35.1034 404.762 35.1034 396.035 Q35.1034 387.285 38.1589 382.701 Q41.2376 378.095 47.0477 378.095 Z" fill="#000000" fill-rule="evenodd" fill-opacity="1" /><path clip-path="url(#clip310)" d="M 0 0 M39.0848 242.841 L46.7237 242.841 L46.7237 216.475 L38.4135 218.142 L38.4135 213.883 L46.6774 212.216 L51.3533 212.216 L51.3533 242.841 L58.9921 242.841 L58.9921 246.776 L39.0848 246.776 L39.0848 242.841 Z" fill="#000000" fill-rule="evenodd" fill-opacity="1" /><path clip-path="url(#clip310)" d="M 0 0 M42.6728 76.337 L58.9921 76.337 L58.9921 80.2721 L37.0478 80.2721 L37.0478 76.337 Q39.7098 73.5823 44.2931 68.9527 Q48.8996 64.3 50.0801 62.9574 Q52.3255 60.4343 53.2051 58.6982 Q54.1079 56.9389 54.1079 55.2491 Q54.1079 52.4945 52.1635 50.7584 Q50.2422 49.0223 47.1403 49.0223 Q44.9413 49.0223 42.4876 49.7862 Q40.057 50.5501 37.2793 52.101 L37.2793 47.3788 Q40.1033 46.2445 42.557 45.6658 Q45.0107 45.0871 47.0477 45.0871 Q52.4181 45.0871 55.6125 47.7723 Q58.8069 50.4575 58.8069 54.9482 Q58.8069 57.0778 57.9968 58.9991 Q57.2097 60.8972 55.1033 63.4898 Q54.5246 64.1611 51.4227 67.3787 Q48.3209 70.5731 42.6728 76.337 Z" fill="#000000" fill-rule="evenodd" fill-opacity="1" /><path clip-path="url(#clip310)" d="M 0 0 M343.668 5.45367 L353.483 5.45367 L353.483 8.76384 L347.928 8.76384 L347.928 44.4118 L353.483 44.4118 L353.483 47.722 L343.668 47.722 L343.668 5.45367 Z" fill="#000000" fill-rule="evenodd" fill-opacity="1" /><path clip-path="url(#clip310)" d="M 0 0 M360.404 26.5878 L372.881 26.5878 L372.881 30.3841 L360.404 30.3841 L360.404 26.5878 Z" fill="#000000" fill-rule="evenodd" fill-opacity="1" /><path clip-path="url(#clip310)" d="M 0 0 M381.076 37.5368 L388.714 37.5368 L388.714 11.1712 L380.404 12.8379 L380.404 8.57866 L388.668 6.912 L393.344 6.912 L393.344 37.5368 L400.983 37.5368 L400.983 41.472 L381.076 41.472 L381.076 37.5368 Z" fill="#000000" fill-rule="evenodd" fill-opacity="1" /><path clip-path="url(#clip310)" d="M 0 0 M410.913 35.5924 L415.798 35.5924 L415.798 39.5739 L412.001 46.9812 L409.015 46.9812 L410.913 39.5739 L410.913 35.5924 Z" fill="#000000" fill-rule="evenodd" fill-opacity="1" /><path clip-path="url(#clip310)" d="M 0 0 M441.376 37.5368 L449.015 37.5368 L449.015 11.1712 L440.705 12.8379 L440.705 8.57866 L448.969 6.912 L453.645 6.912 L453.645 37.5368 L461.283 37.5368 L461.283 41.472 L441.376 41.472 L441.376 37.5368 Z" fill="#000000" fill-rule="evenodd" fill-opacity="1" /><path clip-path="url(#clip310)" d="M 0 0 M480.08 5.45367 L480.08 47.722 L470.265 47.722 L470.265 44.4118 L475.797 44.4118 L475.797 8.76384 L470.265 8.76384 L470.265 5.45367 L480.08 5.45367 Z" fill="#000000" fill-rule="evenodd" fill-opacity="1" /><circle clip-path="url(#clip312)" cx="411.874" cy="540.197" r="14" fill="#0000ff" fill-rule="evenodd" fill-opacity="1" stroke="none"/>
<circle clip-path="url(#clip312)" cx="369.264" cy="468.098" r="14" fill="#0000ff" fill-rule="evenodd" fill-opacity="1" stroke="none"/>
<circle clip-path="url(#clip312)" cx="454.484" cy="468.098" r="14" fill="#0000ff" fill-rule="evenodd" fill-opacity="1" stroke="none"/>
<circle clip-path="url(#clip312)" cx="582.315" cy="540.197" r="14" fill="#0000ff" fill-rule="evenodd" fill-opacity="1" stroke="none"/>
<circle clip-path="url(#clip312)" cx="539.705" cy="468.098" r="14" fill="#0000ff" fill-rule="evenodd" fill-opacity="1" stroke="none"/>
<circle clip-path="url(#clip312)" cx="624.925" cy="468.098" r="14" fill="#0000ff" fill-rule="evenodd" fill-opacity="1" stroke="none"/>
<circle clip-path="url(#clip312)" cx="497.094" cy="684.393" r="14" fill="#0000ff" fill-rule="evenodd" fill-opacity="1" stroke="none"/>
<circle clip-path="url(#clip312)" cx="454.484" cy="612.295" r="14" fill="#0000ff" fill-rule="evenodd" fill-opacity="1" stroke="none"/>
<circle clip-path="url(#clip312)" cx="539.705" cy="612.295" r="14" fill="#0000ff" fill-rule="evenodd" fill-opacity="1" stroke="none"/>
<circle clip-path="url(#clip312)" cx="667.535" cy="684.393" r="14" fill="#0000ff" fill-rule="evenodd" fill-opacity="1" stroke="none"/>
<circle clip-path="url(#clip312)" cx="624.925" cy="612.295" r="14" fill="#0000ff" fill-rule="evenodd" fill-opacity="1" stroke="none"/>
<circle clip-path="url(#clip312)" cx="710.146" cy="612.295" r="14" fill="#0000ff" fill-rule="evenodd" fill-opacity="1" stroke="none"/>
<circle clip-path="url(#clip312)" cx="156.213" cy="684.393" r="14" fill="#0000ff" fill-rule="evenodd" fill-opacity="1" stroke="none"/>
<circle clip-path="url(#clip312)" cx="113.602" cy="612.295" r="14" fill="#0000ff" fill-rule="evenodd" fill-opacity="1" stroke="none"/>
<circle clip-path="url(#clip312)" cx="198.823" cy="612.295" r="14" fill="#0000ff" fill-rule="evenodd" fill-opacity="1" stroke="none"/>
<circle clip-path="url(#clip312)" cx="326.654" cy="684.393" r="14" fill="#0000ff" fill-rule="evenodd" fill-opacity="1" stroke="none"/>
<circle clip-path="url(#clip312)" cx="284.043" cy="612.295" r="14" fill="#0000ff" fill-rule="evenodd" fill-opacity="1" stroke="none"/>
<circle clip-path="url(#clip312)" cx="369.264" cy="612.295" r="14" fill="#0000ff" fill-rule="evenodd" fill-opacity="1" stroke="none"/>
<path clip-path="url(#clip310)" d="M 0 0 M412.377 529.469 L418.107 529.469 L418.107 509.695 L411.874 510.945 L411.874 507.751 L418.072 506.501 L421.579 506.501 L421.579 529.469 L427.308 529.469 L427.308 532.421 L412.377 532.421 L412.377 529.469 Z" fill="#000000" fill-rule="evenodd" fill-opacity="1" /><path clip-path="url(#clip310)" d="M 0 0 M445.016 518.445 Q447.534 518.983 448.94 520.685 Q450.363 522.386 450.363 524.886 Q450.363 528.723 447.725 530.823 Q445.086 532.924 440.225 532.924 Q438.593 532.924 436.857 532.594 Q435.138 532.282 433.298 531.639 L433.298 528.254 Q434.756 529.105 436.492 529.539 Q438.228 529.973 440.12 529.973 Q443.419 529.973 445.138 528.671 Q446.874 527.369 446.874 524.886 Q446.874 522.594 445.259 521.31 Q443.662 520.008 440.797 520.008 L437.777 520.008 L437.777 517.126 L440.936 517.126 Q443.523 517.126 444.895 516.101 Q446.266 515.06 446.266 513.115 Q446.266 511.119 444.843 510.06 Q443.436 508.983 440.797 508.983 Q439.357 508.983 437.707 509.296 Q436.058 509.608 434.079 510.268 L434.079 507.143 Q436.075 506.587 437.811 506.31 Q439.565 506.032 441.11 506.032 Q445.103 506.032 447.429 507.855 Q449.756 509.66 449.756 512.751 Q449.756 514.903 448.523 516.396 Q447.29 517.872 445.016 518.445 Z" fill="#000000" fill-rule="evenodd" fill-opacity="1" /><path clip-path="url(#clip310)" d="M 0 0 M369.767 457.371 L375.496 457.371 L375.496 437.597 L369.264 438.847 L369.264 435.652 L375.462 434.402 L378.969 434.402 L378.969 457.371 L384.698 457.371 L384.698 460.322 L369.767 460.322 L369.767 457.371 Z" fill="#000000" fill-rule="evenodd" fill-opacity="1" /><path clip-path="url(#clip310)" d="M 0 0 M401.416 437.458 L392.562 451.295 L401.416 451.295 L401.416 437.458 M400.496 434.402 L404.906 434.402 L404.906 451.295 L408.604 451.295 L408.604 454.211 L404.906 454.211 L404.906 460.322 L401.416 460.322 L401.416 454.211 L389.715 454.211 L389.715 450.826 L400.496 434.402 Z" fill="#000000" fill-rule="evenodd" fill-opacity="1" /><path clip-path="url(#clip310)" d="M 0 0 M454.988 457.371 L460.717 457.371 L460.717 437.597 L454.484 438.847 L454.484 435.652 L460.682 434.402 L464.189 434.402 L464.189 457.371 L469.918 457.371 L469.918 460.322 L454.988 460.322 L454.988 457.371 Z" fill="#000000" fill-rule="evenodd" fill-opacity="1" /><path clip-path="url(#clip310)" d="M 0 0 M477.036 434.402 L490.804 434.402 L490.804 437.354 L480.248 437.354 L480.248 443.708 Q481.012 443.447 481.776 443.326 Q482.54 443.187 483.304 443.187 Q487.644 443.187 490.179 445.565 Q492.713 447.944 492.713 452.006 Q492.713 456.19 490.109 458.517 Q487.505 460.826 482.765 460.826 Q481.133 460.826 479.432 460.548 Q477.748 460.27 475.942 459.715 L475.942 456.19 Q477.505 457.041 479.172 457.458 Q480.838 457.874 482.696 457.874 Q485.699 457.874 487.453 456.295 Q489.206 454.715 489.206 452.006 Q489.206 449.298 487.453 447.718 Q485.699 446.138 482.696 446.138 Q481.29 446.138 479.883 446.451 Q478.495 446.763 477.036 447.423 L477.036 434.402 Z" fill="#000000" fill-rule="evenodd" fill-opacity="1" /><path clip-path="url(#clip310)" d="M 0 0 M582.818 529.469 L588.548 529.469 L588.548 509.695 L582.315 510.945 L582.315 507.751 L588.513 506.501 L592.02 506.501 L592.02 529.469 L597.749 529.469 L597.749 532.421 L582.818 532.421 L582.818 529.469 Z" fill="#000000" fill-rule="evenodd" fill-opacity="1" /><path clip-path="url(#clip310)" d="M 0 0 M612.766 518.063 Q610.405 518.063 609.016 519.678 Q607.645 521.292 607.645 524.105 Q607.645 526.9 609.016 528.532 Q610.405 530.146 612.766 530.146 Q615.127 530.146 616.499 528.532 Q617.888 526.9 617.888 524.105 Q617.888 521.292 616.499 519.678 Q615.127 518.063 612.766 518.063 M619.728 507.074 L619.728 510.268 Q618.409 509.643 617.054 509.313 Q615.718 508.983 614.398 508.983 Q610.926 508.983 609.086 511.327 Q607.263 513.671 607.002 518.41 Q608.027 516.9 609.572 516.101 Q611.117 515.285 612.975 515.285 Q616.881 515.285 619.138 517.664 Q621.412 520.025 621.412 524.105 Q621.412 528.098 619.051 530.511 Q616.69 532.924 612.766 532.924 Q608.27 532.924 605.891 529.487 Q603.513 526.032 603.513 519.487 Q603.513 513.341 606.429 509.695 Q609.346 506.032 614.259 506.032 Q615.579 506.032 616.915 506.292 Q618.27 506.553 619.728 507.074 Z" fill="#000000" fill-rule="evenodd" fill-opacity="1" /><path clip-path="url(#clip310)" d="M 0 0 M540.208 457.371 L545.937 457.371 L545.937 437.597 L539.705 438.847 L539.705 435.652 L545.903 434.402 L549.41 434.402 L549.41 457.371 L555.139 457.371 L555.139 460.322 L540.208 460.322 L540.208 457.371 Z" fill="#000000" fill-rule="evenodd" fill-opacity="1" /><path clip-path="url(#clip310)" d="M 0 0 M561.337 434.402 L578.003 434.402 L578.003 435.895 L568.593 460.322 L564.93 460.322 L573.784 437.354 L561.337 437.354 L561.337 434.402 Z" fill="#000000" fill-rule="evenodd" fill-opacity="1" /><path clip-path="url(#clip310)" d="M 0 0 M625.429 457.371 L631.158 457.371 L631.158 437.597 L624.925 438.847 L624.925 435.652 L631.123 434.402 L634.63 434.402 L634.63 457.371 L640.359 457.371 L640.359 460.322 L625.429 460.322 L625.429 457.371 Z" fill="#000000" fill-rule="evenodd" fill-opacity="1" /><path clip-path="url(#clip310)" d="M 0 0 M654.942 448.013 Q652.442 448.013 651.001 449.35 Q649.578 450.687 649.578 453.031 Q649.578 455.374 651.001 456.711 Q652.442 458.048 654.942 458.048 Q657.442 458.048 658.883 456.711 Q660.324 455.357 660.324 453.031 Q660.324 450.687 658.883 449.35 Q657.46 448.013 654.942 448.013 M651.435 446.52 Q649.179 445.965 647.911 444.42 Q646.661 442.874 646.661 440.652 Q646.661 437.545 648.866 435.739 Q651.088 433.934 654.942 433.934 Q658.814 433.934 661.019 435.739 Q663.224 437.545 663.224 440.652 Q663.224 442.874 661.956 444.42 Q660.706 445.965 658.467 446.52 Q661.001 447.111 662.408 448.829 Q663.831 450.548 663.831 453.031 Q663.831 456.798 661.522 458.812 Q659.231 460.826 654.942 460.826 Q650.654 460.826 648.345 458.812 Q646.054 456.798 646.054 453.031 Q646.054 450.548 647.477 448.829 Q648.901 447.111 651.435 446.52 M650.151 440.982 Q650.151 442.996 651.401 444.124 Q652.668 445.253 654.942 445.253 Q657.199 445.253 658.467 444.124 Q659.751 442.996 659.751 440.982 Q659.751 438.968 658.467 437.84 Q657.199 436.711 654.942 436.711 Q652.668 436.711 651.401 437.84 Q650.151 438.968 650.151 440.982 Z" fill="#000000" fill-rule="evenodd" fill-opacity="1" /><path clip-path="url(#clip310)" d="M 0 0 M497.598 673.666 L503.327 673.666 L503.327 653.892 L497.094 655.142 L497.094 651.947 L503.292 650.697 L506.799 650.697 L506.799 673.666 L512.528 673.666 L512.528 676.617 L497.598 676.617 L497.598 673.666 Z" fill="#000000" fill-rule="evenodd" fill-opacity="1" /><path clip-path="url(#clip310)" d="M 0 0 M519.716 676.079 L519.716 672.885 Q521.035 673.51 522.389 673.84 Q523.744 674.169 525.046 674.169 Q528.518 674.169 530.341 671.843 Q532.181 669.499 532.442 664.742 Q531.435 666.235 529.889 667.034 Q528.344 667.833 526.469 667.833 Q522.58 667.833 520.306 665.489 Q518.049 663.128 518.049 659.048 Q518.049 655.055 520.41 652.642 Q522.771 650.229 526.695 650.229 Q531.192 650.229 533.553 653.683 Q535.931 657.121 535.931 663.683 Q535.931 669.812 533.014 673.475 Q530.115 677.121 525.202 677.121 Q523.883 677.121 522.528 676.86 Q521.174 676.6 519.716 676.079 M526.695 665.09 Q529.056 665.09 530.428 663.475 Q531.817 661.86 531.817 659.048 Q531.817 656.253 530.428 654.638 Q529.056 653.006 526.695 653.006 Q524.334 653.006 522.945 654.638 Q521.574 656.253 521.574 659.048 Q521.574 661.86 522.945 663.475 Q524.334 665.09 526.695 665.09 Z" fill="#000000" fill-rule="evenodd" fill-opacity="1" /><path clip-path="url(#clip310)" d="M 0 0 M458.703 601.568 L470.942 601.568 L470.942 604.519 L454.484 604.519 L454.484 601.568 Q456.481 599.502 459.918 596.029 Q463.373 592.54 464.259 591.533 Q465.943 589.641 466.602 588.338 Q467.279 587.019 467.279 585.752 Q467.279 583.686 465.821 582.384 Q464.38 581.082 462.054 581.082 Q460.404 581.082 458.564 581.654 Q456.741 582.227 454.658 583.391 L454.658 579.849 Q456.776 578.998 458.616 578.564 Q460.456 578.13 461.984 578.13 Q466.012 578.13 468.408 580.144 Q470.804 582.158 470.804 585.526 Q470.804 587.123 470.196 588.564 Q469.606 589.988 468.026 591.932 Q467.592 592.436 465.265 594.849 Q462.939 597.245 458.703 601.568 Z" fill="#000000" fill-rule="evenodd" fill-opacity="1" /><path clip-path="url(#clip310)" d="M 0 0 M485.804 580.908 Q483.095 580.908 481.724 583.582 Q480.37 586.238 480.37 591.585 Q480.37 596.915 481.724 599.588 Q483.095 602.245 485.804 602.245 Q488.529 602.245 489.883 599.588 Q491.255 596.915 491.255 591.585 Q491.255 586.238 489.883 583.582 Q488.529 580.908 485.804 580.908 M485.804 578.13 Q490.161 578.13 492.453 581.585 Q494.762 585.023 494.762 591.585 Q494.762 598.13 492.453 601.585 Q490.161 605.022 485.804 605.022 Q481.446 605.022 479.137 601.585 Q476.845 598.13 476.845 591.585 Q476.845 585.023 479.137 581.585 Q481.446 578.13 485.804 578.13 Z" fill="#000000" fill-rule="evenodd" fill-opacity="1" /><path clip-path="url(#clip310)" d="M 0 0 M543.923 601.568 L556.163 601.568 L556.163 604.519 L539.705 604.519 L539.705 601.568 Q541.701 599.502 545.139 596.029 Q548.594 592.54 549.479 591.533 Q551.163 589.641 551.823 588.338 Q552.5 587.019 552.5 585.752 Q552.5 583.686 551.041 582.384 Q549.601 581.082 547.274 581.082 Q545.625 581.082 543.785 581.654 Q541.962 582.227 539.878 583.391 L539.878 579.849 Q541.996 578.998 543.837 578.564 Q545.677 578.13 547.205 578.13 Q551.232 578.13 553.628 580.144 Q556.024 582.158 556.024 585.526 Q556.024 587.123 555.416 588.564 Q554.826 589.988 553.246 591.932 Q552.812 592.436 550.486 594.849 Q548.16 597.245 543.923 601.568 Z" fill="#000000" fill-rule="evenodd" fill-opacity="1" /><path clip-path="url(#clip310)" d="M 0 0 M564.132 601.568 L569.861 601.568 L569.861 581.793 L563.628 583.043 L563.628 579.849 L569.826 578.599 L573.333 578.599 L573.333 601.568 L579.062 601.568 L579.062 604.519 L564.132 604.519 L564.132 601.568 Z" fill="#000000" fill-rule="evenodd" fill-opacity="1" /><path clip-path="url(#clip310)" d="M 0 0 M671.754 673.666 L683.994 673.666 L683.994 676.617 L667.535 676.617 L667.535 673.666 Q669.532 671.6 672.969 668.128 Q676.424 664.638 677.31 663.631 Q678.994 661.739 679.653 660.437 Q680.331 659.117 680.331 657.85 Q680.331 655.784 678.872 654.482 Q677.431 653.18 675.105 653.18 Q673.456 653.18 671.615 653.753 Q669.792 654.326 667.709 655.489 L667.709 651.947 Q669.827 651.097 671.667 650.663 Q673.508 650.229 675.035 650.229 Q679.063 650.229 681.459 652.242 Q683.855 654.256 683.855 657.624 Q683.855 659.222 683.247 660.663 Q682.657 662.086 681.077 664.031 Q680.643 664.534 678.317 666.947 Q675.99 669.343 671.754 673.666 Z" fill="#000000" fill-rule="evenodd" fill-opacity="1" /><path clip-path="url(#clip310)" d="M 0 0 M694.376 673.666 L706.615 673.666 L706.615 676.617 L690.157 676.617 L690.157 673.666 Q692.153 671.6 695.591 668.128 Q699.046 664.638 699.931 663.631 Q701.615 661.739 702.275 660.437 Q702.952 659.117 702.952 657.85 Q702.952 655.784 701.494 654.482 Q700.053 653.18 697.726 653.18 Q696.077 653.18 694.237 653.753 Q692.414 654.326 690.33 655.489 L690.33 651.947 Q692.448 651.097 694.289 650.663 Q696.129 650.229 697.657 650.229 Q701.685 650.229 704.08 652.242 Q706.476 654.256 706.476 657.624 Q706.476 659.222 705.869 660.663 Q705.278 662.086 703.698 664.031 Q703.264 664.534 700.938 666.947 Q698.612 669.343 694.376 673.666 Z" fill="#000000" fill-rule="evenodd" fill-opacity="1" /><path clip-path="url(#clip310)" d="M 0 0 M629.144 601.568 L641.383 601.568 L641.383 604.519 L624.925 604.519 L624.925 601.568 Q626.922 599.502 630.359 596.029 Q633.814 592.54 634.699 591.533 Q636.383 589.641 637.043 588.338 Q637.72 587.019 637.72 585.752 Q637.72 583.686 636.262 582.384 Q634.821 581.082 632.495 581.082 Q630.845 581.082 629.005 581.654 Q627.182 582.227 625.099 583.391 L625.099 579.849 Q627.217 578.998 629.057 578.564 Q630.897 578.13 632.425 578.13 Q636.453 578.13 638.849 580.144 Q641.245 582.158 641.245 585.526 Q641.245 587.123 640.637 588.564 Q640.047 589.988 638.467 591.932 Q638.033 592.436 635.706 594.849 Q633.38 597.245 629.144 601.568 Z" fill="#000000" fill-rule="evenodd" fill-opacity="1" /><path clip-path="url(#clip310)" d="M 0 0 M659.369 590.543 Q661.887 591.082 663.293 592.783 Q664.717 594.484 664.717 596.984 Q664.717 600.821 662.078 602.922 Q659.439 605.022 654.578 605.022 Q652.946 605.022 651.21 604.693 Q649.491 604.38 647.651 603.738 L647.651 600.352 Q649.109 601.203 650.845 601.637 Q652.581 602.071 654.474 602.071 Q657.772 602.071 659.491 600.769 Q661.227 599.467 661.227 596.984 Q661.227 594.693 659.613 593.408 Q658.015 592.106 655.151 592.106 L652.13 592.106 L652.13 589.224 L655.29 589.224 Q657.876 589.224 659.248 588.2 Q660.619 587.158 660.619 585.214 Q660.619 583.217 659.196 582.158 Q657.79 581.082 655.151 581.082 Q653.71 581.082 652.06 581.394 Q650.411 581.707 648.432 582.366 L648.432 579.241 Q650.429 578.686 652.165 578.408 Q653.918 578.13 655.463 578.13 Q659.456 578.13 661.783 579.953 Q664.109 581.759 664.109 584.849 Q664.109 587.002 662.876 588.495 Q661.644 589.97 659.369 590.543 Z" fill="#000000" fill-rule="evenodd" fill-opacity="1" /><path clip-path="url(#clip310)" d="M 0 0 M714.364 601.568 L726.604 601.568 L726.604 604.519 L710.146 604.519 L710.146 601.568 Q712.142 599.502 715.58 596.029 Q719.035 592.54 719.92 591.533 Q721.604 589.641 722.264 588.338 Q722.941 587.019 722.941 585.752 Q722.941 583.686 721.482 582.384 Q720.041 581.082 717.715 581.082 Q716.066 581.082 714.226 581.654 Q712.403 582.227 710.319 583.391 L710.319 579.849 Q712.437 578.998 714.278 578.564 Q716.118 578.13 717.646 578.13 Q721.673 578.13 724.069 580.144 Q726.465 582.158 726.465 585.526 Q726.465 587.123 725.857 588.564 Q725.267 589.988 723.687 591.932 Q723.253 592.436 720.927 594.849 Q718.6 597.245 714.364 601.568 Z" fill="#000000" fill-rule="evenodd" fill-opacity="1" /><path clip-path="url(#clip310)" d="M 0 0 M743.6 581.654 L734.746 595.491 L743.6 595.491 L743.6 581.654 M742.68 578.599 L747.09 578.599 L747.09 595.491 L750.788 595.491 L750.788 598.408 L747.09 598.408 L747.09 604.519 L743.6 604.519 L743.6 598.408 L731.899 598.408 L731.899 595.022 L742.68 578.599 Z" fill="#000000" fill-rule="evenodd" fill-opacity="1" /><path clip-path="url(#clip310)" d="M 0 0 M167.931 662.642 Q170.449 663.18 171.855 664.881 Q173.278 666.583 173.278 669.083 Q173.278 672.919 170.64 675.02 Q168.001 677.121 163.14 677.121 Q161.508 677.121 159.772 676.791 Q158.053 676.478 156.213 675.836 L156.213 672.451 Q157.671 673.301 159.407 673.735 Q161.143 674.169 163.035 674.169 Q166.334 674.169 168.053 672.867 Q169.789 671.565 169.789 669.083 Q169.789 666.791 168.174 665.506 Q166.577 664.204 163.713 664.204 L160.692 664.204 L160.692 661.322 L163.851 661.322 Q166.438 661.322 167.81 660.298 Q169.181 659.256 169.181 657.312 Q169.181 655.315 167.758 654.256 Q166.351 653.18 163.713 653.18 Q162.272 653.18 160.622 653.492 Q158.973 653.805 156.994 654.465 L156.994 651.34 Q158.99 650.784 160.726 650.506 Q162.48 650.229 164.025 650.229 Q168.018 650.229 170.344 652.051 Q172.671 653.857 172.671 656.947 Q172.671 659.1 171.438 660.593 Q170.206 662.069 167.931 662.642 Z" fill="#000000" fill-rule="evenodd" fill-opacity="1" /><path clip-path="url(#clip310)" d="M 0 0 M180.535 673.666 L186.265 673.666 L186.265 653.892 L180.032 655.142 L180.032 651.947 L186.23 650.697 L189.737 650.697 L189.737 673.666 L195.466 673.666 L195.466 676.617 L180.535 676.617 L180.535 673.666 Z" fill="#000000" fill-rule="evenodd" fill-opacity="1" /><path clip-path="url(#clip310)" d="M 0 0 M125.321 590.543 Q127.838 591.082 129.245 592.783 Q130.668 594.484 130.668 596.984 Q130.668 600.821 128.029 602.922 Q125.39 605.022 120.529 605.022 Q118.897 605.022 117.161 604.693 Q115.443 604.38 113.602 603.738 L113.602 600.352 Q115.061 601.203 116.797 601.637 Q118.533 602.071 120.425 602.071 Q123.724 602.071 125.443 600.769 Q127.179 599.467 127.179 596.984 Q127.179 594.693 125.564 593.408 Q123.967 592.106 121.102 592.106 L118.082 592.106 L118.082 589.224 L121.241 589.224 Q123.828 589.224 125.2 588.2 Q126.571 587.158 126.571 585.214 Q126.571 583.217 125.147 582.158 Q123.741 581.082 121.102 581.082 Q119.661 581.082 118.012 581.394 Q116.363 581.707 114.384 582.366 L114.384 579.241 Q116.38 578.686 118.116 578.408 Q119.87 578.13 121.415 578.13 Q125.408 578.13 127.734 579.953 Q130.061 581.759 130.061 584.849 Q130.061 587.002 128.828 588.495 Q127.595 589.97 125.321 590.543 Z" fill="#000000" fill-rule="evenodd" fill-opacity="1" /><path clip-path="url(#clip310)" d="M 0 0 M140.338 601.568 L152.578 601.568 L152.578 604.519 L136.12 604.519 L136.12 601.568 Q138.116 599.502 141.554 596.029 Q145.008 592.54 145.894 591.533 Q147.578 589.641 148.238 588.338 Q148.915 587.019 148.915 585.752 Q148.915 583.686 147.456 582.384 Q146.015 581.082 143.689 581.082 Q142.04 581.082 140.199 581.654 Q138.377 582.227 136.293 583.391 L136.293 579.849 Q138.411 578.998 140.252 578.564 Q142.092 578.13 143.62 578.13 Q147.647 578.13 150.043 580.144 Q152.439 582.158 152.439 585.526 Q152.439 587.123 151.831 588.564 Q151.241 589.988 149.661 591.932 Q149.227 592.436 146.901 594.849 Q144.574 597.245 140.338 601.568 Z" fill="#000000" fill-rule="evenodd" fill-opacity="1" /><path clip-path="url(#clip310)" d="M 0 0 M210.542 590.543 Q213.059 591.082 214.465 592.783 Q215.889 594.484 215.889 596.984 Q215.889 600.821 213.25 602.922 Q210.611 605.022 205.75 605.022 Q204.118 605.022 202.382 604.693 Q200.663 604.38 198.823 603.738 L198.823 600.352 Q200.281 601.203 202.017 601.637 Q203.753 602.071 205.646 602.071 Q208.944 602.071 210.663 600.769 Q212.399 599.467 212.399 596.984 Q212.399 594.693 210.785 593.408 Q209.187 592.106 206.323 592.106 L203.302 592.106 L203.302 589.224 L206.462 589.224 Q209.048 589.224 210.42 588.2 Q211.792 587.158 211.792 585.214 Q211.792 583.217 210.368 582.158 Q208.962 581.082 206.323 581.082 Q204.882 581.082 203.233 581.394 Q201.583 581.707 199.604 582.366 L199.604 579.241 Q201.601 578.686 203.337 578.408 Q205.09 578.13 206.635 578.13 Q210.628 578.13 212.955 579.953 Q215.281 581.759 215.281 584.849 Q215.281 587.002 214.048 588.495 Q212.816 589.97 210.542 590.543 Z" fill="#000000" fill-rule="evenodd" fill-opacity="1" /><path clip-path="url(#clip310)" d="M 0 0 M233.163 590.543 Q235.68 591.082 237.087 592.783 Q238.51 594.484 238.51 596.984 Q238.51 600.821 235.871 602.922 Q233.232 605.022 228.371 605.022 Q226.739 605.022 225.003 604.693 Q223.285 604.38 221.444 603.738 L221.444 600.352 Q222.903 601.203 224.639 601.637 Q226.375 602.071 228.267 602.071 Q231.566 602.071 233.284 600.769 Q235.021 599.467 235.021 596.984 Q235.021 594.693 233.406 593.408 Q231.809 592.106 228.944 592.106 L225.923 592.106 L225.923 589.224 L229.083 589.224 Q231.67 589.224 233.041 588.2 Q234.413 587.158 234.413 585.214 Q234.413 583.217 232.989 582.158 Q231.583 581.082 228.944 581.082 Q227.503 581.082 225.854 581.394 Q224.205 581.707 222.225 582.366 L222.225 579.241 Q224.222 578.686 225.958 578.408 Q227.712 578.13 229.257 578.13 Q233.25 578.13 235.576 579.953 Q237.902 581.759 237.902 584.849 Q237.902 587.002 236.67 588.495 Q235.437 589.97 233.163 590.543 Z" fill="#000000" fill-rule="evenodd" fill-opacity="1" /><path clip-path="url(#clip310)" d="M 0 0 M338.372 662.642 Q340.89 663.18 342.296 664.881 Q343.719 666.583 343.719 669.083 Q343.719 672.919 341.081 675.02 Q338.442 677.121 333.581 677.121 Q331.949 677.121 330.213 676.791 Q328.494 676.478 326.654 675.836 L326.654 672.451 Q328.112 673.301 329.848 673.735 Q331.584 674.169 333.476 674.169 Q336.775 674.169 338.494 672.867 Q340.23 671.565 340.23 669.083 Q340.23 666.791 338.615 665.506 Q337.018 664.204 334.154 664.204 L331.133 664.204 L331.133 661.322 L334.292 661.322 Q336.879 661.322 338.251 660.298 Q339.622 659.256 339.622 657.312 Q339.622 655.315 338.199 654.256 Q336.792 653.18 334.154 653.18 Q332.713 653.18 331.063 653.492 Q329.414 653.805 327.435 654.465 L327.435 651.34 Q329.431 650.784 331.167 650.506 Q332.921 650.229 334.466 650.229 Q338.459 650.229 340.785 652.051 Q343.112 653.857 343.112 656.947 Q343.112 659.1 341.879 660.593 Q340.647 662.069 338.372 662.642 Z" fill="#000000" fill-rule="evenodd" fill-opacity="1" /><path clip-path="url(#clip310)" d="M 0 0 M360.004 653.753 L351.15 667.59 L360.004 667.59 L360.004 653.753 M359.084 650.697 L363.494 650.697 L363.494 667.59 L367.192 667.59 L367.192 670.506 L363.494 670.506 L363.494 676.617 L360.004 676.617 L360.004 670.506 L348.303 670.506 L348.303 667.121 L359.084 650.697 Z" fill="#000000" fill-rule="evenodd" fill-opacity="1" /><path clip-path="url(#clip310)" d="M 0 0 M295.762 590.543 Q298.279 591.082 299.686 592.783 Q301.109 594.484 301.109 596.984 Q301.109 600.821 298.47 602.922 Q295.831 605.022 290.97 605.022 Q289.338 605.022 287.602 604.693 Q285.884 604.38 284.043 603.738 L284.043 600.352 Q285.502 601.203 287.238 601.637 Q288.974 602.071 290.866 602.071 Q294.165 602.071 295.884 600.769 Q297.62 599.467 297.62 596.984 Q297.62 594.693 296.005 593.408 Q294.408 592.106 291.543 592.106 L288.522 592.106 L288.522 589.224 L291.682 589.224 Q294.269 589.224 295.64 588.2 Q297.012 587.158 297.012 585.214 Q297.012 583.217 295.588 582.158 Q294.182 581.082 291.543 581.082 Q290.102 581.082 288.453 581.394 Q286.804 581.707 284.825 582.366 L284.825 579.241 Q286.821 578.686 288.557 578.408 Q290.311 578.13 291.856 578.13 Q295.849 578.13 298.175 579.953 Q300.502 581.759 300.502 584.849 Q300.502 587.002 299.269 588.495 Q298.036 589.97 295.762 590.543 Z" fill="#000000" fill-rule="evenodd" fill-opacity="1" /><path clip-path="url(#clip310)" d="M 0 0 M307.793 578.599 L321.56 578.599 L321.56 581.55 L311.005 581.55 L311.005 587.904 Q311.769 587.644 312.533 587.523 Q313.297 587.384 314.061 587.384 Q318.401 587.384 320.935 589.762 Q323.47 592.141 323.47 596.203 Q323.47 600.387 320.866 602.713 Q318.262 605.022 313.522 605.022 Q311.89 605.022 310.189 604.745 Q308.505 604.467 306.699 603.911 L306.699 600.387 Q308.262 601.238 309.929 601.654 Q311.595 602.071 313.453 602.071 Q316.456 602.071 318.21 600.491 Q319.963 598.911 319.963 596.203 Q319.963 593.495 318.21 591.915 Q316.456 590.335 313.453 590.335 Q312.047 590.335 310.64 590.648 Q309.252 590.96 307.793 591.62 L307.793 578.599 Z" fill="#000000" fill-rule="evenodd" fill-opacity="1" /><path clip-path="url(#clip310)" d="M 0 0 M380.982 590.543 Q383.5 591.082 384.906 592.783 Q386.33 594.484 386.33 596.984 Q386.33 600.821 383.691 602.922 Q381.052 605.022 376.191 605.022 Q374.559 605.022 372.823 604.693 Q371.104 604.38 369.264 603.738 L369.264 600.352 Q370.722 601.203 372.458 601.637 Q374.194 602.071 376.087 602.071 Q379.385 602.071 381.104 600.769 Q382.84 599.467 382.84 596.984 Q382.84 594.693 381.226 593.408 Q379.628 592.106 376.764 592.106 L373.743 592.106 L373.743 589.224 L376.903 589.224 Q379.489 589.224 380.861 588.2 Q382.232 587.158 382.232 585.214 Q382.232 583.217 380.809 582.158 Q379.403 581.082 376.764 581.082 Q375.323 581.082 373.673 581.394 Q372.024 581.707 370.045 582.366 L370.045 579.241 Q372.042 578.686 373.778 578.408 Q375.531 578.13 377.076 578.13 Q381.069 578.13 383.396 579.953 Q385.722 581.759 385.722 584.849 Q385.722 587.002 384.489 588.495 Q383.257 589.97 380.982 590.543 Z" fill="#000000" fill-rule="evenodd" fill-opacity="1" /><path clip-path="url(#clip310)" d="M 0 0 M400.913 590.161 Q398.552 590.161 397.163 591.776 Q395.791 593.391 395.791 596.203 Q395.791 598.998 397.163 600.63 Q398.552 602.245 400.913 602.245 Q403.274 602.245 404.646 600.63 Q406.034 598.998 406.034 596.203 Q406.034 593.391 404.646 591.776 Q403.274 590.161 400.913 590.161 M407.875 579.172 L407.875 582.366 Q406.555 581.741 405.201 581.411 Q403.864 581.082 402.545 581.082 Q399.073 581.082 397.232 583.425 Q395.409 585.769 395.149 590.509 Q396.173 588.998 397.718 588.2 Q399.264 587.384 401.121 587.384 Q405.027 587.384 407.284 589.762 Q409.559 592.123 409.559 596.203 Q409.559 600.196 407.198 602.609 Q404.837 605.022 400.913 605.022 Q396.416 605.022 394.038 601.585 Q391.659 598.13 391.659 591.585 Q391.659 585.439 394.576 581.793 Q397.493 578.13 402.406 578.13 Q403.725 578.13 405.062 578.391 Q406.416 578.651 407.875 579.172 Z" fill="#000000" fill-rule="evenodd" fill-opacity="1" /><circle clip-path="url(#clip312)" cx="113.602" cy="468.098" r="14" fill="#0000ff" fill-rule="evenodd" fill-opacity="1" stroke="none"/>
<circle clip-path="url(#clip312)" cx="241.433" cy="540.197" r="14" fill="#0000ff" fill-rule="evenodd" fill-opacity="1" stroke="none"/>
<circle clip-path="url(#clip312)" cx="198.823" cy="468.098" r="14" fill="#0000ff" fill-rule="evenodd" fill-opacity="1" stroke="none"/>
<circle clip-path="url(#clip312)" cx="284.043" cy="468.098" r="14" fill="#0000ff" fill-rule="evenodd" fill-opacity="1" stroke="none"/>
<circle clip-path="url(#clip312)" cx="113.602" cy="179.705" r="14" fill="#0000ff" fill-rule="evenodd" fill-opacity="1" stroke="none"/>
<circle clip-path="url(#clip312)" cx="156.213" cy="396" r="14" fill="#0000ff" fill-rule="evenodd" fill-opacity="1" stroke="none"/>
<circle clip-path="url(#clip312)" cx="113.602" cy="323.902" r="14" fill="#0000ff" fill-rule="evenodd" fill-opacity="1" stroke="none"/>
<circle clip-path="url(#clip312)" cx="198.823" cy="323.902" r="14" fill="#0000ff" fill-rule="evenodd" fill-opacity="1" stroke="none"/>
<circle clip-path="url(#clip312)" cx="326.654" cy="396" r="14" fill="#0000ff" fill-rule="evenodd" fill-opacity="1" stroke="none"/>
<circle clip-path="url(#clip312)" cx="284.043" cy="323.902" r="14" fill="#0000ff" fill-rule="evenodd" fill-opacity="1" stroke="none"/>
<circle clip-path="url(#clip312)" cx="369.264" cy="323.902" r="14" fill="#0000ff" fill-rule="evenodd" fill-opacity="1" stroke="none"/>
<path clip-path="url(#clip310)" d="M 0 0 M70.9921 506.501 L87.6587 506.501 L87.6587 507.994 L78.249 532.421 L74.5859 532.421 L83.44 509.452 L70.9921 509.452 L70.9921 506.501 Z" fill="#000000" fill-rule="evenodd" fill-opacity="1" /><path clip-path="url(#clip310)" d="M 0 0 M115.269 459.784 L115.269 456.59 Q116.588 457.215 117.943 457.545 Q119.297 457.874 120.599 457.874 Q124.071 457.874 125.894 455.548 Q127.734 453.204 127.995 448.447 Q126.988 449.94 125.443 450.739 Q123.897 451.538 122.022 451.538 Q118.134 451.538 115.859 449.194 Q113.602 446.833 113.602 442.753 Q113.602 438.76 115.963 436.347 Q118.325 433.934 122.248 433.934 Q126.745 433.934 129.106 437.388 Q131.484 440.826 131.484 447.388 Q131.484 453.517 128.568 457.18 Q125.668 460.826 120.755 460.826 Q119.436 460.826 118.082 460.565 Q116.727 460.305 115.269 459.784 M122.248 448.795 Q124.609 448.795 125.981 447.18 Q127.37 445.565 127.37 442.753 Q127.37 439.958 125.981 438.343 Q124.609 436.711 122.248 436.711 Q119.887 436.711 118.498 438.343 Q117.127 439.958 117.127 442.753 Q117.127 445.565 118.498 447.18 Q119.887 448.795 122.248 448.795 Z" fill="#000000" fill-rule="evenodd" fill-opacity="1" /><path clip-path="url(#clip310)" d="M 0 0 M241.937 529.469 L247.666 529.469 L247.666 509.695 L241.433 510.945 L241.433 507.751 L247.631 506.501 L251.138 506.501 L251.138 529.469 L256.867 529.469 L256.867 532.421 L241.937 532.421 L241.937 529.469 Z" fill="#000000" fill-rule="evenodd" fill-opacity="1" /><path clip-path="url(#clip310)" d="M 0 0 M271.45 508.81 Q268.742 508.81 267.37 511.483 Q266.016 514.139 266.016 519.487 Q266.016 524.817 267.37 527.49 Q268.742 530.146 271.45 530.146 Q274.176 530.146 275.53 527.49 Q276.902 524.817 276.902 519.487 Q276.902 514.139 275.53 511.483 Q274.176 508.81 271.45 508.81 M271.45 506.032 Q275.808 506.032 278.1 509.487 Q280.409 512.924 280.409 519.487 Q280.409 526.032 278.1 529.487 Q275.808 532.924 271.45 532.924 Q267.093 532.924 264.784 529.487 Q262.492 526.032 262.492 519.487 Q262.492 512.924 264.784 509.487 Q267.093 506.032 271.45 506.032 Z" fill="#000000" fill-rule="evenodd" fill-opacity="1" /><path clip-path="url(#clip310)" d="M 0 0 M199.326 457.371 L205.055 457.371 L205.055 437.597 L198.823 438.847 L198.823 435.652 L205.021 434.402 L208.528 434.402 L208.528 457.371 L214.257 457.371 L214.257 460.322 L199.326 460.322 L199.326 457.371 Z" fill="#000000" fill-rule="evenodd" fill-opacity="1" /><path clip-path="url(#clip310)" d="M 0 0 M221.948 457.371 L227.677 457.371 L227.677 437.597 L221.444 438.847 L221.444 435.652 L227.642 434.402 L231.149 434.402 L231.149 457.371 L236.878 457.371 L236.878 460.322 L221.948 460.322 L221.948 457.371 Z" fill="#000000" fill-rule="evenodd" fill-opacity="1" /><path clip-path="url(#clip310)" d="M 0 0 M284.547 457.371 L290.276 457.371 L290.276 437.597 L284.043 438.847 L284.043 435.652 L290.241 434.402 L293.748 434.402 L293.748 457.371 L299.477 457.371 L299.477 460.322 L284.547 460.322 L284.547 457.371 Z" fill="#000000" fill-rule="evenodd" fill-opacity="1" /><path clip-path="url(#clip310)" d="M 0 0 M309.581 457.371 L321.821 457.371 L321.821 460.322 L305.363 460.322 L305.363 457.371 Q307.359 455.305 310.797 451.833 Q314.251 448.343 315.137 447.336 Q316.821 445.444 317.481 444.142 Q318.158 442.822 318.158 441.555 Q318.158 439.489 316.699 438.187 Q315.258 436.885 312.932 436.885 Q311.283 436.885 309.442 437.458 Q307.62 438.031 305.536 439.194 L305.536 435.652 Q307.654 434.802 309.495 434.368 Q311.335 433.934 312.863 433.934 Q316.89 433.934 319.286 435.947 Q321.682 437.961 321.682 441.329 Q321.682 442.927 321.074 444.368 Q320.484 445.791 318.904 447.736 Q318.47 448.239 316.144 450.652 Q313.817 453.048 309.581 457.371 Z" fill="#000000" fill-rule="evenodd" fill-opacity="1" /><path clip-path="url(#clip310)" d="M 0 0 M114.106 168.978 L119.835 168.978 L119.835 149.203 L113.602 150.453 L113.602 147.259 L119.8 146.009 L123.307 146.009 L123.307 168.978 L129.036 168.978 L129.036 171.929 L114.106 171.929 L114.106 168.978 Z" fill="#000000" fill-rule="evenodd" fill-opacity="1" /><path clip-path="url(#clip310)" d="M 0 0 M143.62 159.62 Q141.12 159.62 139.679 160.957 Q138.255 162.294 138.255 164.637 Q138.255 166.981 139.679 168.318 Q141.12 169.655 143.62 169.655 Q146.12 169.655 147.561 168.318 Q149.001 166.964 149.001 164.637 Q149.001 162.294 147.561 160.957 Q146.137 159.62 143.62 159.62 M140.113 158.127 Q137.856 157.571 136.588 156.026 Q135.338 154.481 135.338 152.259 Q135.338 149.151 137.543 147.346 Q139.765 145.54 143.62 145.54 Q147.491 145.54 149.696 147.346 Q151.901 149.151 151.901 152.259 Q151.901 154.481 150.633 156.026 Q149.383 157.571 147.144 158.127 Q149.679 158.717 151.085 160.436 Q152.508 162.155 152.508 164.637 Q152.508 168.405 150.199 170.419 Q147.908 172.433 143.62 172.433 Q139.331 172.433 137.022 170.419 Q134.731 168.405 134.731 164.637 Q134.731 162.155 136.154 160.436 Q137.578 158.717 140.113 158.127 M138.828 152.589 Q138.828 154.603 140.078 155.731 Q141.345 156.86 143.62 156.86 Q145.876 156.86 147.144 155.731 Q148.429 154.603 148.429 152.589 Q148.429 150.575 147.144 149.447 Q145.876 148.318 143.62 148.318 Q141.345 148.318 140.078 149.447 Q138.828 150.575 138.828 152.589 Z" fill="#000000" fill-rule="evenodd" fill-opacity="1" /><path clip-path="url(#clip310)" d="M 0 0 M160.431 385.273 L172.671 385.273 L172.671 388.224 L156.213 388.224 L156.213 385.273 Q158.209 383.207 161.647 379.734 Q165.101 376.245 165.987 375.238 Q167.671 373.346 168.331 372.044 Q169.008 370.724 169.008 369.457 Q169.008 367.391 167.549 366.089 Q166.108 364.787 163.782 364.787 Q162.133 364.787 160.292 365.36 Q158.47 365.932 156.386 367.096 L156.386 363.554 Q158.504 362.703 160.345 362.269 Q162.185 361.835 163.713 361.835 Q167.74 361.835 170.136 363.849 Q172.532 365.863 172.532 369.231 Q172.532 370.828 171.924 372.269 Q171.334 373.693 169.754 375.637 Q169.32 376.141 166.994 378.554 Q164.667 380.95 160.431 385.273 Z" fill="#000000" fill-rule="evenodd" fill-opacity="1" /><path clip-path="url(#clip310)" d="M 0 0 M183.053 385.273 L195.292 385.273 L195.292 388.224 L178.834 388.224 L178.834 385.273 Q180.831 383.207 184.268 379.734 Q187.723 376.245 188.608 375.238 Q190.292 373.346 190.952 372.044 Q191.629 370.724 191.629 369.457 Q191.629 367.391 190.171 366.089 Q188.73 364.787 186.403 364.787 Q184.754 364.787 182.914 365.36 Q181.091 365.932 179.008 367.096 L179.008 363.554 Q181.126 362.703 182.966 362.269 Q184.806 361.835 186.334 361.835 Q190.362 361.835 192.758 363.849 Q195.153 365.863 195.153 369.231 Q195.153 370.828 194.546 372.269 Q193.955 373.693 192.376 375.637 Q191.942 376.141 189.615 378.554 Q187.289 380.95 183.053 385.273 Z" fill="#000000" fill-rule="evenodd" fill-opacity="1" /><path clip-path="url(#clip310)" d="M 0 0 M117.821 313.174 L130.061 313.174 L130.061 316.126 L113.602 316.126 L113.602 313.174 Q115.599 311.108 119.036 307.636 Q122.491 304.147 123.377 303.14 Q125.061 301.247 125.72 299.945 Q126.397 298.626 126.397 297.358 Q126.397 295.292 124.939 293.99 Q123.498 292.688 121.172 292.688 Q119.522 292.688 117.682 293.261 Q115.859 293.834 113.776 294.997 L113.776 291.456 Q115.894 290.605 117.734 290.171 Q119.575 289.737 121.102 289.737 Q125.13 289.737 127.526 291.751 Q129.922 293.765 129.922 297.133 Q129.922 298.73 129.314 300.171 Q128.724 301.595 127.144 303.539 Q126.71 304.042 124.384 306.456 Q122.057 308.851 117.821 313.174 Z" fill="#000000" fill-rule="evenodd" fill-opacity="1" /><path clip-path="url(#clip310)" d="M 0 0 M148.047 302.15 Q150.564 302.688 151.97 304.39 Q153.394 306.091 153.394 308.591 Q153.394 312.428 150.755 314.528 Q148.116 316.629 143.255 316.629 Q141.623 316.629 139.887 316.299 Q138.168 315.987 136.328 315.344 L136.328 311.959 Q137.786 312.81 139.522 313.244 Q141.258 313.678 143.151 313.678 Q146.449 313.678 148.168 312.376 Q149.904 311.074 149.904 308.591 Q149.904 306.299 148.29 305.015 Q146.692 303.713 143.828 303.713 L140.807 303.713 L140.807 300.831 L143.967 300.831 Q146.554 300.831 147.925 299.806 Q149.297 298.765 149.297 296.82 Q149.297 294.824 147.873 293.765 Q146.467 292.688 143.828 292.688 Q142.387 292.688 140.738 293.001 Q139.088 293.313 137.109 293.973 L137.109 290.848 Q139.106 290.292 140.842 290.015 Q142.595 289.737 144.14 289.737 Q148.133 289.737 150.46 291.56 Q152.786 293.365 152.786 296.456 Q152.786 298.608 151.554 300.101 Q150.321 301.577 148.047 302.15 Z" fill="#000000" fill-rule="evenodd" fill-opacity="1" /><path clip-path="url(#clip310)" d="M 0 0 M203.042 313.174 L215.281 313.174 L215.281 316.126 L198.823 316.126 L198.823 313.174 Q200.819 311.108 204.257 307.636 Q207.712 304.147 208.597 303.14 Q210.281 301.247 210.941 299.945 Q211.618 298.626 211.618 297.358 Q211.618 295.292 210.16 293.99 Q208.719 292.688 206.392 292.688 Q204.743 292.688 202.903 293.261 Q201.08 293.834 198.996 294.997 L198.996 291.456 Q201.114 290.605 202.955 290.171 Q204.795 289.737 206.323 289.737 Q210.351 289.737 212.746 291.751 Q215.142 293.765 215.142 297.133 Q215.142 298.73 214.535 300.171 Q213.944 301.595 212.364 303.539 Q211.93 304.042 209.604 306.456 Q207.278 308.851 203.042 313.174 Z" fill="#000000" fill-rule="evenodd" fill-opacity="1" /><path clip-path="url(#clip310)" d="M 0 0 M232.278 293.261 L223.423 307.098 L232.278 307.098 L232.278 293.261 M231.357 290.206 L235.767 290.206 L235.767 307.098 L239.465 307.098 L239.465 310.015 L235.767 310.015 L235.767 316.126 L232.278 316.126 L232.278 310.015 L220.576 310.015 L220.576 306.629 L231.357 290.206 Z" fill="#000000" fill-rule="evenodd" fill-opacity="1" /><path clip-path="url(#clip310)" d="M 0 0 M330.872 385.273 L343.112 385.273 L343.112 388.224 L326.654 388.224 L326.654 385.273 Q328.65 383.207 332.088 379.734 Q335.542 376.245 336.428 375.238 Q338.112 373.346 338.772 372.044 Q339.449 370.724 339.449 369.457 Q339.449 367.391 337.99 366.089 Q336.549 364.787 334.223 364.787 Q332.574 364.787 330.733 365.36 Q328.91 365.932 326.827 367.096 L326.827 363.554 Q328.945 362.703 330.785 362.269 Q332.626 361.835 334.154 361.835 Q338.181 361.835 340.577 363.849 Q342.973 365.863 342.973 369.231 Q342.973 370.828 342.365 372.269 Q341.775 373.693 340.195 375.637 Q339.761 376.141 337.435 378.554 Q335.108 380.95 330.872 385.273 Z" fill="#000000" fill-rule="evenodd" fill-opacity="1" /><path clip-path="url(#clip310)" d="M 0 0 M350.508 362.304 L364.275 362.304 L364.275 365.255 L353.719 365.255 L353.719 371.61 Q354.483 371.349 355.247 371.228 Q356.011 371.089 356.775 371.089 Q361.115 371.089 363.65 373.467 Q366.185 375.846 366.185 379.908 Q366.185 384.092 363.58 386.418 Q360.976 388.727 356.237 388.727 Q354.605 388.727 352.903 388.45 Q351.219 388.172 349.414 387.616 L349.414 384.092 Q350.976 384.943 352.643 385.359 Q354.31 385.776 356.167 385.776 Q359.171 385.776 360.924 384.196 Q362.678 382.616 362.678 379.908 Q362.678 377.2 360.924 375.62 Q359.171 374.04 356.167 374.04 Q354.761 374.04 353.355 374.353 Q351.966 374.665 350.508 375.325 L350.508 362.304 Z" fill="#000000" fill-rule="evenodd" fill-opacity="1" /><path clip-path="url(#clip310)" d="M 0 0 M288.262 313.174 L300.502 313.174 L300.502 316.126 L284.043 316.126 L284.043 313.174 Q286.04 311.108 289.477 307.636 Q292.932 304.147 293.818 303.14 Q295.502 301.247 296.161 299.945 Q296.838 298.626 296.838 297.358 Q296.838 295.292 295.38 293.99 Q293.939 292.688 291.613 292.688 Q289.963 292.688 288.123 293.261 Q286.3 293.834 284.217 294.997 L284.217 291.456 Q286.335 290.605 288.175 290.171 Q290.015 289.737 291.543 289.737 Q295.571 289.737 297.967 291.751 Q300.363 293.765 300.363 297.133 Q300.363 298.73 299.755 300.171 Q299.165 301.595 297.585 303.539 Q297.151 304.042 294.824 306.456 Q292.498 308.851 288.262 313.174 Z" fill="#000000" fill-rule="evenodd" fill-opacity="1" /><path clip-path="url(#clip310)" d="M 0 0 M315.797 301.768 Q313.436 301.768 312.047 303.383 Q310.675 304.997 310.675 307.81 Q310.675 310.605 312.047 312.237 Q313.436 313.851 315.797 313.851 Q318.158 313.851 319.529 312.237 Q320.918 310.605 320.918 307.81 Q320.918 304.997 319.529 303.383 Q318.158 301.768 315.797 301.768 M322.758 290.779 L322.758 293.973 Q321.439 293.348 320.085 293.018 Q318.748 292.688 317.429 292.688 Q313.956 292.688 312.116 295.032 Q310.293 297.376 310.033 302.115 Q311.057 300.605 312.602 299.806 Q314.147 298.99 316.005 298.99 Q319.911 298.99 322.168 301.369 Q324.442 303.73 324.442 307.81 Q324.442 311.803 322.081 314.216 Q319.72 316.629 315.797 316.629 Q311.3 316.629 308.922 313.192 Q306.543 309.737 306.543 303.192 Q306.543 297.046 309.46 293.4 Q312.376 289.737 317.29 289.737 Q318.609 289.737 319.946 289.997 Q321.3 290.258 322.758 290.779 Z" fill="#000000" fill-rule="evenodd" fill-opacity="1" /><path clip-path="url(#clip310)" d="M 0 0 M373.483 313.174 L385.722 313.174 L385.722 316.126 L369.264 316.126 L369.264 313.174 Q371.26 311.108 374.698 307.636 Q378.153 304.147 379.038 303.14 Q380.722 301.247 381.382 299.945 Q382.059 298.626 382.059 297.358 Q382.059 295.292 380.601 293.99 Q379.16 292.688 376.833 292.688 Q375.184 292.688 373.344 293.261 Q371.521 293.834 369.437 294.997 L369.437 291.456 Q371.555 290.605 373.396 290.171 Q375.236 289.737 376.764 289.737 Q380.791 289.737 383.187 291.751 Q385.583 293.765 385.583 297.133 Q385.583 298.73 384.976 300.171 Q384.385 301.595 382.805 303.539 Q382.371 304.042 380.045 306.456 Q377.719 308.851 373.483 313.174 Z" fill="#000000" fill-rule="evenodd" fill-opacity="1" /><path clip-path="url(#clip310)" d="M 0 0 M392.198 290.206 L408.864 290.206 L408.864 291.699 L399.455 316.126 L395.791 316.126 L404.646 293.157 L392.198 293.157 L392.198 290.206 Z" fill="#000000" fill-rule="evenodd" fill-opacity="1" /><circle clip-path="url(#clip312)" cx="752.756" cy="540.197" r="14" fill="#0000ff" fill-rule="evenodd" fill-opacity="1" stroke="none"/>
<circle clip-path="url(#clip312)" cx="710.146" cy="468.098" r="14" fill="#0000ff" fill-rule="evenodd" fill-opacity="1" stroke="none"/>
<circle clip-path="url(#clip312)" cx="667.535" cy="396" r="14" fill="#0000ff" fill-rule="evenodd" fill-opacity="1" stroke="none"/>
<circle clip-path="url(#clip312)" cx="624.925" cy="323.902" r="14" fill="#0000ff" fill-rule="evenodd" fill-opacity="1" stroke="none"/>
<circle clip-path="url(#clip312)" cx="710.146" cy="323.902" r="14" fill="#0000ff" fill-rule="evenodd" fill-opacity="1" stroke="none"/>
<path clip-path="url(#clip310)" d="M 0 0 M753.259 529.469 L758.989 529.469 L758.989 509.695 L752.756 510.945 L752.756 507.751 L758.954 506.501 L762.461 506.501 L762.461 529.469 L768.19 529.469 L768.19 532.421 L753.259 532.421 L753.259 529.469 Z" fill="#000000" fill-rule="evenodd" fill-opacity="1" /><path clip-path="url(#clip310)" d="M 0 0 M714.364 457.371 L726.604 457.371 L726.604 460.322 L710.146 460.322 L710.146 457.371 Q712.142 455.305 715.58 451.833 Q719.035 448.343 719.92 447.336 Q721.604 445.444 722.264 444.142 Q722.941 442.822 722.941 441.555 Q722.941 439.489 721.482 438.187 Q720.041 436.885 717.715 436.885 Q716.066 436.885 714.226 437.458 Q712.403 438.031 710.319 439.194 L710.319 435.652 Q712.437 434.802 714.278 434.368 Q716.118 433.934 717.646 433.934 Q721.673 433.934 724.069 435.947 Q726.465 437.961 726.465 441.329 Q726.465 442.927 725.857 444.368 Q725.267 445.791 723.687 447.736 Q723.253 448.239 720.927 450.652 Q718.6 453.048 714.364 457.371 Z" fill="#000000" fill-rule="evenodd" fill-opacity="1" /><path clip-path="url(#clip310)" d="M 0 0 M679.254 374.248 Q681.771 374.787 683.178 376.488 Q684.601 378.189 684.601 380.689 Q684.601 384.526 681.962 386.627 Q679.324 388.727 674.462 388.727 Q672.831 388.727 671.094 388.398 Q669.376 388.085 667.535 387.443 L667.535 384.057 Q668.994 384.908 670.73 385.342 Q672.466 385.776 674.358 385.776 Q677.657 385.776 679.376 384.474 Q681.112 383.172 681.112 380.689 Q681.112 378.398 679.497 377.113 Q677.9 375.811 675.035 375.811 L672.015 375.811 L672.015 372.929 L675.174 372.929 Q677.761 372.929 679.133 371.905 Q680.504 370.863 680.504 368.919 Q680.504 366.922 679.081 365.863 Q677.674 364.787 675.035 364.787 Q673.594 364.787 671.945 365.099 Q670.296 365.412 668.317 366.071 L668.317 362.946 Q670.313 362.391 672.049 362.113 Q673.803 361.835 675.348 361.835 Q679.341 361.835 681.667 363.658 Q683.994 365.464 683.994 368.554 Q683.994 370.707 682.761 372.2 Q681.528 373.675 679.254 374.248 Z" fill="#000000" fill-rule="evenodd" fill-opacity="1" /><path clip-path="url(#clip310)" d="M 0 0 M691.858 385.273 L697.587 385.273 L697.587 365.498 L691.355 366.748 L691.355 363.554 L697.553 362.304 L701.06 362.304 L701.06 385.273 L706.789 385.273 L706.789 388.224 L691.858 388.224 L691.858 385.273 Z" fill="#000000" fill-rule="evenodd" fill-opacity="1" /><path clip-path="url(#clip310)" d="M 0 0 M636.644 302.15 Q639.161 302.688 640.567 304.39 Q641.991 306.091 641.991 308.591 Q641.991 312.428 639.352 314.528 Q636.713 316.629 631.852 316.629 Q630.22 316.629 628.484 316.299 Q626.765 315.987 624.925 315.344 L624.925 311.959 Q626.384 312.81 628.12 313.244 Q629.856 313.678 631.748 313.678 Q635.047 313.678 636.765 312.376 Q638.502 311.074 638.502 308.591 Q638.502 306.299 636.887 305.015 Q635.29 303.713 632.425 303.713 L629.404 303.713 L629.404 300.831 L632.564 300.831 Q635.151 300.831 636.522 299.806 Q637.894 298.765 637.894 296.82 Q637.894 294.824 636.47 293.765 Q635.064 292.688 632.425 292.688 Q630.984 292.688 629.335 293.001 Q627.686 293.313 625.706 293.973 L625.706 290.848 Q627.703 290.292 629.439 290.015 Q631.193 289.737 632.738 289.737 Q636.731 289.737 639.057 291.56 Q641.383 293.365 641.383 296.456 Q641.383 298.608 640.151 300.101 Q638.918 301.577 636.644 302.15 Z" fill="#000000" fill-rule="evenodd" fill-opacity="1" /><path clip-path="url(#clip310)" d="M 0 0 M651.661 313.174 L663.901 313.174 L663.901 316.126 L647.442 316.126 L647.442 313.174 Q649.439 311.108 652.876 307.636 Q656.331 304.147 657.217 303.14 Q658.901 301.247 659.56 299.945 Q660.238 298.626 660.238 297.358 Q660.238 295.292 658.779 293.99 Q657.338 292.688 655.012 292.688 Q653.363 292.688 651.522 293.261 Q649.699 293.834 647.616 294.997 L647.616 291.456 Q649.734 290.605 651.574 290.171 Q653.415 289.737 654.942 289.737 Q658.97 289.737 661.366 291.751 Q663.762 293.765 663.762 297.133 Q663.762 298.73 663.154 300.171 Q662.564 301.595 660.984 303.539 Q660.55 304.042 658.224 306.456 Q655.897 308.851 651.661 313.174 Z" fill="#000000" fill-rule="evenodd" fill-opacity="1" /><path clip-path="url(#clip310)" d="M 0 0 M721.864 302.15 Q724.382 302.688 725.788 304.39 Q727.212 306.091 727.212 308.591 Q727.212 312.428 724.573 314.528 Q721.934 316.629 717.073 316.629 Q715.441 316.629 713.705 316.299 Q711.986 315.987 710.146 315.344 L710.146 311.959 Q711.604 312.81 713.34 313.244 Q715.076 313.678 716.969 313.678 Q720.267 313.678 721.986 312.376 Q723.722 311.074 723.722 308.591 Q723.722 306.299 722.107 305.015 Q720.51 303.713 717.646 303.713 L714.625 303.713 L714.625 300.831 L717.785 300.831 Q720.371 300.831 721.743 299.806 Q723.114 298.765 723.114 296.82 Q723.114 294.824 721.691 293.765 Q720.285 292.688 717.646 292.688 Q716.205 292.688 714.555 293.001 Q712.906 293.313 710.927 293.973 L710.927 290.848 Q712.923 290.292 714.66 290.015 Q716.413 289.737 717.958 289.737 Q721.951 289.737 724.278 291.56 Q726.604 293.365 726.604 296.456 Q726.604 298.608 725.371 300.101 Q724.139 301.577 721.864 302.15 Z" fill="#000000" fill-rule="evenodd" fill-opacity="1" /><path clip-path="url(#clip310)" d="M 0 0 M744.486 302.15 Q747.003 302.688 748.409 304.39 Q749.833 306.091 749.833 308.591 Q749.833 312.428 747.194 314.528 Q744.555 316.629 739.694 316.629 Q738.062 316.629 736.326 316.299 Q734.607 315.987 732.767 315.344 L732.767 311.959 Q734.225 312.81 735.962 313.244 Q737.698 313.678 739.59 313.678 Q742.889 313.678 744.607 312.376 Q746.343 311.074 746.343 308.591 Q746.343 306.299 744.729 305.015 Q743.132 303.713 740.267 303.713 L737.246 303.713 L737.246 300.831 L740.406 300.831 Q742.993 300.831 744.364 299.806 Q745.736 298.765 745.736 296.82 Q745.736 294.824 744.312 293.765 Q742.906 292.688 740.267 292.688 Q738.826 292.688 737.177 293.001 Q735.527 293.313 733.548 293.973 L733.548 290.848 Q735.545 290.292 737.281 290.015 Q739.034 289.737 740.58 289.737 Q744.573 289.737 746.899 291.56 Q749.225 293.365 749.225 296.456 Q749.225 298.608 747.993 300.101 Q746.76 301.577 744.486 302.15 Z" fill="#000000" fill-rule="evenodd" fill-opacity="1" /><circle clip-path="url(#clip312)" cx="241.433" cy="251.803" r="14" fill="#0000ff" fill-rule="evenodd" fill-opacity="1" stroke="none"/>
<circle clip-path="url(#clip312)" cx="198.823" cy="179.705" r="14" fill="#0000ff" fill-rule="evenodd" fill-opacity="1" stroke="none"/>
<circle clip-path="url(#clip312)" cx="284.043" cy="179.705" r="14" fill="#0000ff" fill-rule="evenodd" fill-opacity="1" stroke="none"/>
<circle clip-path="url(#clip312)" cx="411.874" cy="251.803" r="14" fill="#0000ff" fill-rule="evenodd" fill-opacity="1" stroke="none"/>
<circle clip-path="url(#clip312)" cx="369.264" cy="179.705" r="14" fill="#0000ff" fill-rule="evenodd" fill-opacity="1" stroke="none"/>
<circle clip-path="url(#clip312)" cx="454.484" cy="179.705" r="14" fill="#0000ff" fill-rule="evenodd" fill-opacity="1" stroke="none"/>
<circle clip-path="url(#clip312)" cx="582.315" cy="251.803" r="14" fill="#0000ff" fill-rule="evenodd" fill-opacity="1" stroke="none"/>
<circle clip-path="url(#clip312)" cx="539.705" cy="179.705" r="14" fill="#0000ff" fill-rule="evenodd" fill-opacity="1" stroke="none"/>
<circle clip-path="url(#clip312)" cx="624.925" cy="179.705" r="14" fill="#0000ff" fill-rule="evenodd" fill-opacity="1" stroke="none"/>
<circle clip-path="url(#clip312)" cx="752.756" cy="251.803" r="14" fill="#0000ff" fill-rule="evenodd" fill-opacity="1" stroke="none"/>
<circle clip-path="url(#clip312)" cx="710.146" cy="179.705" r="14" fill="#0000ff" fill-rule="evenodd" fill-opacity="1" stroke="none"/>
<circle clip-path="url(#clip312)" cx="497.094" cy="107.607" r="14" fill="#0000ff" fill-rule="evenodd" fill-opacity="1" stroke="none"/>
<circle clip-path="url(#clip312)" cx="667.535" cy="107.607" r="14" fill="#0000ff" fill-rule="evenodd" fill-opacity="1" stroke="none"/>
<circle clip-path="url(#clip312)" cx="497.094" cy="396" r="14" fill="#0000ff" fill-rule="evenodd" fill-opacity="1" stroke="none"/>
<circle clip-path="url(#clip312)" cx="454.484" cy="323.902" r="14" fill="#0000ff" fill-rule="evenodd" fill-opacity="1" stroke="none"/>
<circle clip-path="url(#clip312)" cx="539.705" cy="323.902" r="14" fill="#0000ff" fill-rule="evenodd" fill-opacity="1" stroke="none"/>
<circle clip-path="url(#clip312)" cx="156.213" cy="107.607" r="14" fill="#0000ff" fill-rule="evenodd" fill-opacity="1" stroke="none"/>
<circle clip-path="url(#clip312)" cx="326.654" cy="107.607" r="14" fill="#0000ff" fill-rule="evenodd" fill-opacity="1" stroke="none"/>
<path clip-path="url(#clip310)" d="M 0 0 M241.937 241.076 L247.666 241.076 L247.666 221.302 L241.433 222.552 L241.433 219.357 L247.631 218.107 L251.138 218.107 L251.138 241.076 L256.867 241.076 L256.867 244.027 L241.937 244.027 L241.937 241.076 Z" fill="#000000" fill-rule="evenodd" fill-opacity="1" /><path clip-path="url(#clip310)" d="M 0 0 M203.042 168.978 L215.281 168.978 L215.281 171.929 L198.823 171.929 L198.823 168.978 Q200.819 166.912 204.257 163.44 Q207.712 159.95 208.597 158.943 Q210.281 157.051 210.941 155.749 Q211.618 154.429 211.618 153.162 Q211.618 151.096 210.16 149.794 Q208.719 148.492 206.392 148.492 Q204.743 148.492 202.903 149.065 Q201.08 149.637 198.996 150.801 L198.996 147.259 Q201.114 146.408 202.955 145.974 Q204.795 145.54 206.323 145.54 Q210.351 145.54 212.746 147.554 Q215.142 149.568 215.142 152.936 Q215.142 154.533 214.535 155.974 Q213.944 157.398 212.364 159.342 Q211.93 159.846 209.604 162.259 Q207.278 164.655 203.042 168.978 Z" fill="#000000" fill-rule="evenodd" fill-opacity="1" /><path clip-path="url(#clip310)" d="M 0 0 M295.762 157.953 Q298.279 158.492 299.686 160.193 Q301.109 161.894 301.109 164.394 Q301.109 168.231 298.47 170.332 Q295.831 172.433 290.97 172.433 Q289.338 172.433 287.602 172.103 Q285.884 171.79 284.043 171.148 L284.043 167.762 Q285.502 168.613 287.238 169.047 Q288.974 169.481 290.866 169.481 Q294.165 169.481 295.884 168.179 Q297.62 166.877 297.62 164.394 Q297.62 162.103 296.005 160.818 Q294.408 159.516 291.543 159.516 L288.522 159.516 L288.522 156.634 L291.682 156.634 Q294.269 156.634 295.64 155.61 Q297.012 154.568 297.012 152.624 Q297.012 150.627 295.588 149.568 Q294.182 148.492 291.543 148.492 Q290.102 148.492 288.453 148.804 Q286.804 149.117 284.825 149.776 L284.825 146.651 Q286.821 146.096 288.557 145.818 Q290.311 145.54 291.856 145.54 Q295.849 145.54 298.175 147.363 Q300.502 149.169 300.502 152.259 Q300.502 154.412 299.269 155.905 Q298.036 157.381 295.762 157.953 Z" fill="#000000" fill-rule="evenodd" fill-opacity="1" /><path clip-path="url(#clip310)" d="M 0 0 M423.575 221.163 L414.721 235 L423.575 235 L423.575 221.163 M422.655 218.107 L427.065 218.107 L427.065 235 L430.763 235 L430.763 237.916 L427.065 237.916 L427.065 244.027 L423.575 244.027 L423.575 237.916 L411.874 237.916 L411.874 234.531 L422.655 218.107 Z" fill="#000000" fill-rule="evenodd" fill-opacity="1" /><path clip-path="url(#clip310)" d="M 0 0 M370.358 146.009 L384.125 146.009 L384.125 148.96 L373.569 148.96 L373.569 155.315 Q374.333 155.054 375.097 154.933 Q375.861 154.794 376.625 154.794 Q380.965 154.794 383.5 157.172 Q386.035 159.551 386.035 163.613 Q386.035 167.797 383.43 170.123 Q380.826 172.433 376.087 172.433 Q374.455 172.433 372.753 172.155 Q371.069 171.877 369.264 171.321 L369.264 167.797 Q370.826 168.648 372.493 169.064 Q374.16 169.481 376.017 169.481 Q379.021 169.481 380.774 167.901 Q382.528 166.321 382.528 163.613 Q382.528 160.905 380.774 159.325 Q379.021 157.745 376.017 157.745 Q374.611 157.745 373.205 158.058 Q371.816 158.37 370.358 159.03 L370.358 146.009 Z" fill="#000000" fill-rule="evenodd" fill-opacity="1" /><path clip-path="url(#clip310)" d="M 0 0 M463.738 157.571 Q461.377 157.571 459.988 159.186 Q458.616 160.801 458.616 163.613 Q458.616 166.408 459.988 168.04 Q461.377 169.655 463.738 169.655 Q466.099 169.655 467.47 168.04 Q468.859 166.408 468.859 163.613 Q468.859 160.801 467.47 159.186 Q466.099 157.571 463.738 157.571 M470.699 146.582 L470.699 149.776 Q469.38 149.151 468.026 148.822 Q466.689 148.492 465.37 148.492 Q461.897 148.492 460.057 150.835 Q458.234 153.179 457.974 157.919 Q458.998 156.408 460.543 155.61 Q462.088 154.794 463.946 154.794 Q467.852 154.794 470.109 157.172 Q472.383 159.533 472.383 163.613 Q472.383 167.606 470.022 170.019 Q467.661 172.433 463.738 172.433 Q459.241 172.433 456.863 168.995 Q454.484 165.54 454.484 158.995 Q454.484 152.849 457.401 149.203 Q460.318 145.54 465.231 145.54 Q466.55 145.54 467.887 145.801 Q469.241 146.061 470.699 146.582 Z" fill="#000000" fill-rule="evenodd" fill-opacity="1" /><path clip-path="url(#clip310)" d="M 0 0 M582.315 218.107 L598.982 218.107 L598.982 219.6 L589.572 244.027 L585.909 244.027 L594.763 221.059 L582.315 221.059 L582.315 218.107 Z" fill="#000000" fill-rule="evenodd" fill-opacity="1" /><path clip-path="url(#clip310)" d="M 0 0 M548.594 159.62 Q546.094 159.62 544.653 160.957 Q543.229 162.294 543.229 164.637 Q543.229 166.981 544.653 168.318 Q546.094 169.655 548.594 169.655 Q551.094 169.655 552.535 168.318 Q553.975 166.964 553.975 164.637 Q553.975 162.294 552.535 160.957 Q551.111 159.62 548.594 159.62 M545.087 158.127 Q542.83 157.571 541.562 156.026 Q540.312 154.481 540.312 152.259 Q540.312 149.151 542.517 147.346 Q544.739 145.54 548.594 145.54 Q552.465 145.54 554.67 147.346 Q556.875 149.151 556.875 152.259 Q556.875 154.481 555.607 156.026 Q554.357 157.571 552.118 158.127 Q554.653 158.717 556.059 160.436 Q557.482 162.155 557.482 164.637 Q557.482 168.405 555.173 170.419 Q552.882 172.433 548.594 172.433 Q544.305 172.433 541.996 170.419 Q539.705 168.405 539.705 164.637 Q539.705 162.155 541.128 160.436 Q542.552 158.717 545.087 158.127 M543.802 152.589 Q543.802 154.603 545.052 155.731 Q546.319 156.86 548.594 156.86 Q550.85 156.86 552.118 155.731 Q553.403 154.603 553.403 152.589 Q553.403 150.575 552.118 149.447 Q550.85 148.318 548.594 148.318 Q546.319 148.318 545.052 149.447 Q543.802 150.575 543.802 152.589 Z" fill="#000000" fill-rule="evenodd" fill-opacity="1" /><path clip-path="url(#clip310)" d="M 0 0 M626.592 171.391 L626.592 168.196 Q627.911 168.821 629.265 169.151 Q630.62 169.481 631.922 169.481 Q635.394 169.481 637.217 167.155 Q639.057 164.811 639.317 160.054 Q638.311 161.547 636.765 162.346 Q635.22 163.144 633.345 163.144 Q629.456 163.144 627.182 160.801 Q624.925 158.44 624.925 154.36 Q624.925 150.367 627.286 147.953 Q629.647 145.54 633.571 145.54 Q638.067 145.54 640.429 148.995 Q642.807 152.433 642.807 158.995 Q642.807 165.124 639.89 168.787 Q636.991 172.433 632.078 172.433 Q630.758 172.433 629.404 172.172 Q628.05 171.912 626.592 171.391 M633.571 160.401 Q635.932 160.401 637.304 158.787 Q638.692 157.172 638.692 154.36 Q638.692 151.565 637.304 149.95 Q635.932 148.318 633.571 148.318 Q631.21 148.318 629.821 149.95 Q628.449 151.565 628.449 154.36 Q628.449 157.172 629.821 158.787 Q631.21 160.401 633.571 160.401 Z" fill="#000000" fill-rule="evenodd" fill-opacity="1" /><path clip-path="url(#clip310)" d="M 0 0 M753.259 241.076 L758.989 241.076 L758.989 221.302 L752.756 222.552 L752.756 219.357 L758.954 218.107 L762.461 218.107 L762.461 241.076 L768.19 241.076 L768.19 244.027 L753.259 244.027 L753.259 241.076 Z" fill="#000000" fill-rule="evenodd" fill-opacity="1" /><path clip-path="url(#clip310)" d="M 0 0 M782.773 220.416 Q780.065 220.416 778.693 223.09 Q777.339 225.746 777.339 231.093 Q777.339 236.423 778.693 239.097 Q780.065 241.753 782.773 241.753 Q785.499 241.753 786.853 239.097 Q788.224 236.423 788.224 231.093 Q788.224 225.746 786.853 223.09 Q785.499 220.416 782.773 220.416 M782.773 217.639 Q787.131 217.639 789.422 221.093 Q791.731 224.531 791.731 231.093 Q791.731 237.639 789.422 241.093 Q787.131 244.531 782.773 244.531 Q778.415 244.531 776.106 241.093 Q773.815 237.639 773.815 231.093 Q773.815 224.531 776.106 221.093 Q778.415 217.639 782.773 217.639 Z" fill="#000000" fill-rule="evenodd" fill-opacity="1" /><path clip-path="url(#clip310)" d="M 0 0 M710.649 168.978 L716.378 168.978 L716.378 149.203 L710.146 150.453 L710.146 147.259 L716.344 146.009 L719.85 146.009 L719.85 168.978 L725.58 168.978 L725.58 171.929 L710.649 171.929 L710.649 168.978 Z" fill="#000000" fill-rule="evenodd" fill-opacity="1" /><path clip-path="url(#clip310)" d="M 0 0 M733.271 168.978 L739 168.978 L739 149.203 L732.767 150.453 L732.767 147.259 L738.965 146.009 L742.472 146.009 L742.472 168.978 L748.201 168.978 L748.201 171.929 L733.271 171.929 L733.271 168.978 Z" fill="#000000" fill-rule="evenodd" fill-opacity="1" /><path clip-path="url(#clip310)" d="M 0 0 M497.598 96.8793 L503.327 96.8793 L503.327 77.1051 L497.094 78.3551 L497.094 75.1607 L503.292 73.9107 L506.799 73.9107 L506.799 96.8793 L512.528 96.8793 L512.528 99.8307 L497.598 99.8307 L497.598 96.8793 Z" fill="#000000" fill-rule="evenodd" fill-opacity="1" /><path clip-path="url(#clip310)" d="M 0 0 M519.716 99.2925 L519.716 96.0981 Q521.035 96.7231 522.389 97.053 Q523.744 97.3828 525.046 97.3828 Q528.518 97.3828 530.341 95.0564 Q532.181 92.7127 532.442 87.9558 Q531.435 89.4488 529.889 90.2474 Q528.344 91.046 526.469 91.046 Q522.58 91.046 520.306 88.7023 Q518.049 86.3412 518.049 82.2614 Q518.049 78.2683 520.41 75.8552 Q522.771 73.442 526.695 73.442 Q531.192 73.442 533.553 76.8968 Q535.931 80.3343 535.931 86.8968 Q535.931 93.0252 533.014 96.6884 Q530.115 100.334 525.202 100.334 Q523.883 100.334 522.528 100.074 Q521.174 99.8134 519.716 99.2925 M526.695 88.303 Q529.056 88.303 530.428 86.6884 Q531.817 85.0739 531.817 82.2614 Q531.817 79.4662 530.428 77.8517 Q529.056 76.2197 526.695 76.2197 Q524.334 76.2197 522.945 77.8517 Q521.574 79.4662 521.574 82.2614 Q521.574 85.0739 522.945 86.6884 Q524.334 88.303 526.695 88.303 Z" fill="#000000" fill-rule="evenodd" fill-opacity="1" /><path clip-path="url(#clip310)" d="M 0 0 M671.754 96.8793 L683.994 96.8793 L683.994 99.8307 L667.535 99.8307 L667.535 96.8793 Q669.532 94.8134 672.969 91.3412 Q676.424 87.8516 677.31 86.8447 Q678.994 84.9523 679.653 83.6503 Q680.331 82.3308 680.331 81.0635 Q680.331 78.9975 678.872 77.6954 Q677.431 76.3933 675.105 76.3933 Q673.456 76.3933 671.615 76.9663 Q669.792 77.5392 667.709 78.7024 L667.709 75.1607 Q669.827 74.31 671.667 73.876 Q673.508 73.442 675.035 73.442 Q679.063 73.442 681.459 75.4559 Q683.855 77.4697 683.855 80.8378 Q683.855 82.435 683.247 83.8759 Q682.657 85.2995 681.077 87.244 Q680.643 87.7475 678.317 90.1606 Q675.99 92.5565 671.754 96.8793 Z" fill="#000000" fill-rule="evenodd" fill-opacity="1" /><path clip-path="url(#clip310)" d="M 0 0 M694.376 96.8793 L706.615 96.8793 L706.615 99.8307 L690.157 99.8307 L690.157 96.8793 Q692.153 94.8134 695.591 91.3412 Q699.046 87.8516 699.931 86.8447 Q701.615 84.9523 702.275 83.6503 Q702.952 82.3308 702.952 81.0635 Q702.952 78.9975 701.494 77.6954 Q700.053 76.3933 697.726 76.3933 Q696.077 76.3933 694.237 76.9663 Q692.414 77.5392 690.33 78.7024 L690.33 75.1607 Q692.448 74.31 694.289 73.876 Q696.129 73.442 697.657 73.442 Q701.685 73.442 704.08 75.4559 Q706.476 77.4697 706.476 80.8378 Q706.476 82.435 705.869 83.8759 Q705.278 85.2995 703.698 87.244 Q703.264 87.7475 700.938 90.1606 Q698.612 92.5565 694.376 96.8793 Z" fill="#000000" fill-rule="evenodd" fill-opacity="1" /><path clip-path="url(#clip310)" d="M 0 0 M501.313 385.273 L513.553 385.273 L513.553 388.224 L497.094 388.224 L497.094 385.273 Q499.091 383.207 502.528 379.734 Q505.983 376.245 506.869 375.238 Q508.553 373.346 509.212 372.044 Q509.89 370.724 509.89 369.457 Q509.89 367.391 508.431 366.089 Q506.99 364.787 504.664 364.787 Q503.015 364.787 501.174 365.36 Q499.351 365.932 497.268 367.096 L497.268 363.554 Q499.386 362.703 501.226 362.269 Q503.067 361.835 504.594 361.835 Q508.622 361.835 511.018 363.849 Q513.414 365.863 513.414 369.231 Q513.414 370.828 512.806 372.269 Q512.216 373.693 510.636 375.637 Q510.202 376.141 507.876 378.554 Q505.549 380.95 501.313 385.273 Z" fill="#000000" fill-rule="evenodd" fill-opacity="1" /><path clip-path="url(#clip310)" d="M 0 0 M528.414 375.915 Q525.914 375.915 524.473 377.252 Q523.049 378.589 523.049 380.932 Q523.049 383.276 524.473 384.613 Q525.914 385.95 528.414 385.95 Q530.914 385.95 532.355 384.613 Q533.796 383.259 533.796 380.932 Q533.796 378.589 532.355 377.252 Q530.931 375.915 528.414 375.915 M524.907 374.422 Q522.65 373.866 521.383 372.321 Q520.133 370.776 520.133 368.554 Q520.133 365.446 522.337 363.641 Q524.56 361.835 528.414 361.835 Q532.285 361.835 534.49 363.641 Q536.695 365.446 536.695 368.554 Q536.695 370.776 535.428 372.321 Q534.178 373.866 531.938 374.422 Q534.473 375.012 535.879 376.731 Q537.303 378.45 537.303 380.932 Q537.303 384.7 534.994 386.714 Q532.702 388.727 528.414 388.727 Q524.126 388.727 521.817 386.714 Q519.525 384.7 519.525 380.932 Q519.525 378.45 520.949 376.731 Q522.372 375.012 524.907 374.422 M523.622 368.884 Q523.622 370.898 524.872 372.026 Q526.139 373.155 528.414 373.155 Q530.671 373.155 531.938 372.026 Q533.223 370.898 533.223 368.884 Q533.223 366.87 531.938 365.741 Q530.671 364.613 528.414 364.613 Q526.139 364.613 524.872 365.741 Q523.622 366.87 523.622 368.884 Z" fill="#000000" fill-rule="evenodd" fill-opacity="1" /><path clip-path="url(#clip310)" d="M 0 0 M458.703 313.174 L470.942 313.174 L470.942 316.126 L454.484 316.126 L454.484 313.174 Q456.481 311.108 459.918 307.636 Q463.373 304.147 464.259 303.14 Q465.943 301.247 466.602 299.945 Q467.279 298.626 467.279 297.358 Q467.279 295.292 465.821 293.99 Q464.38 292.688 462.054 292.688 Q460.404 292.688 458.564 293.261 Q456.741 293.834 454.658 294.997 L454.658 291.456 Q456.776 290.605 458.616 290.171 Q460.456 289.737 461.984 289.737 Q466.012 289.737 468.408 291.751 Q470.804 293.765 470.804 297.133 Q470.804 298.73 470.196 300.171 Q469.606 301.595 468.026 303.539 Q467.592 304.042 465.265 306.456 Q462.939 308.851 458.703 313.174 Z" fill="#000000" fill-rule="evenodd" fill-opacity="1" /><path clip-path="url(#clip310)" d="M 0 0 M478.408 315.587 L478.408 312.393 Q479.727 313.018 481.081 313.348 Q482.435 313.678 483.738 313.678 Q487.21 313.678 489.033 311.351 Q490.873 309.008 491.133 304.251 Q490.126 305.744 488.581 306.542 Q487.036 307.341 485.161 307.341 Q481.272 307.341 478.998 304.997 Q476.741 302.636 476.741 298.556 Q476.741 294.563 479.102 292.15 Q481.463 289.737 485.387 289.737 Q489.883 289.737 492.244 293.192 Q494.623 296.629 494.623 303.192 Q494.623 309.32 491.706 312.983 Q488.807 316.629 483.894 316.629 Q482.574 316.629 481.22 316.369 Q479.866 316.108 478.408 315.587 M485.387 304.598 Q487.748 304.598 489.119 302.983 Q490.508 301.369 490.508 298.556 Q490.508 295.761 489.119 294.147 Q487.748 292.515 485.387 292.515 Q483.026 292.515 481.637 294.147 Q480.265 295.761 480.265 298.556 Q480.265 301.369 481.637 302.983 Q483.026 304.598 485.387 304.598 Z" fill="#000000" fill-rule="evenodd" fill-opacity="1" /><path clip-path="url(#clip310)" d="M 0 0 M551.423 302.15 Q553.941 302.688 555.347 304.39 Q556.771 306.091 556.771 308.591 Q556.771 312.428 554.132 314.528 Q551.493 316.629 546.632 316.629 Q545 316.629 543.264 316.299 Q541.545 315.987 539.705 315.344 L539.705 311.959 Q541.163 312.81 542.899 313.244 Q544.635 313.678 546.528 313.678 Q549.826 313.678 551.545 312.376 Q553.281 311.074 553.281 308.591 Q553.281 306.299 551.666 305.015 Q550.069 303.713 547.205 303.713 L544.184 303.713 L544.184 300.831 L547.344 300.831 Q549.93 300.831 551.302 299.806 Q552.673 298.765 552.673 296.82 Q552.673 294.824 551.25 293.765 Q549.844 292.688 547.205 292.688 Q545.764 292.688 544.114 293.001 Q542.465 293.313 540.486 293.973 L540.486 290.848 Q542.482 290.292 544.219 290.015 Q545.972 289.737 547.517 289.737 Q551.51 289.737 553.837 291.56 Q556.163 293.365 556.163 296.456 Q556.163 298.608 554.93 300.101 Q553.698 301.577 551.423 302.15 Z" fill="#000000" fill-rule="evenodd" fill-opacity="1" /><path clip-path="url(#clip310)" d="M 0 0 M570.92 292.515 Q568.212 292.515 566.84 295.188 Q565.486 297.845 565.486 303.192 Q565.486 308.522 566.84 311.195 Q568.212 313.851 570.92 313.851 Q573.646 313.851 575 311.195 Q576.371 308.522 576.371 303.192 Q576.371 297.845 575 295.188 Q573.646 292.515 570.92 292.515 M570.92 289.737 Q575.277 289.737 577.569 293.192 Q579.878 296.629 579.878 303.192 Q579.878 309.737 577.569 313.192 Q575.277 316.629 570.92 316.629 Q566.562 316.629 564.253 313.192 Q561.962 309.737 561.962 303.192 Q561.962 296.629 564.253 293.192 Q566.562 289.737 570.92 289.737 Z" fill="#000000" fill-rule="evenodd" fill-opacity="1" /><path clip-path="url(#clip310)" d="M 0 0 M167.931 85.8551 Q170.449 86.3933 171.855 88.0947 Q173.278 89.7961 173.278 92.296 Q173.278 96.1328 170.64 98.2335 Q168.001 100.334 163.14 100.334 Q161.508 100.334 159.772 100.004 Q158.053 99.6918 156.213 99.0495 L156.213 95.6641 Q157.671 96.5148 159.407 96.9488 Q161.143 97.3828 163.035 97.3828 Q166.334 97.3828 168.053 96.0807 Q169.789 94.7787 169.789 92.296 Q169.789 90.0044 168.174 88.7197 Q166.577 87.4176 163.713 87.4176 L160.692 87.4176 L160.692 84.5357 L163.851 84.5357 Q166.438 84.5357 167.81 83.5114 Q169.181 82.4697 169.181 80.5253 Q169.181 78.5288 167.758 77.4697 Q166.351 76.3933 163.713 76.3933 Q162.272 76.3933 160.622 76.7058 Q158.973 77.0183 156.994 77.6781 L156.994 74.5531 Q158.99 73.9975 160.726 73.7198 Q162.48 73.442 164.025 73.442 Q168.018 73.442 170.344 75.2649 Q172.671 77.0704 172.671 80.1607 Q172.671 82.3135 171.438 83.8065 Q170.206 85.2822 167.931 85.8551 Z" fill="#000000" fill-rule="evenodd" fill-opacity="1" /><path clip-path="url(#clip310)" d="M 0 0 M180.535 96.8793 L186.265 96.8793 L186.265 77.1051 L180.032 78.3551 L180.032 75.1607 L186.23 73.9107 L189.737 73.9107 L189.737 96.8793 L195.466 96.8793 L195.466 99.8307 L180.535 99.8307 L180.535 96.8793 Z" fill="#000000" fill-rule="evenodd" fill-opacity="1" /><path clip-path="url(#clip310)" d="M 0 0 M338.372 85.8551 Q340.89 86.3933 342.296 88.0947 Q343.719 89.7961 343.719 92.296 Q343.719 96.1328 341.081 98.2335 Q338.442 100.334 333.581 100.334 Q331.949 100.334 330.213 100.004 Q328.494 99.6918 326.654 99.0495 L326.654 95.6641 Q328.112 96.5148 329.848 96.9488 Q331.584 97.3828 333.476 97.3828 Q336.775 97.3828 338.494 96.0807 Q340.23 94.7787 340.23 92.296 Q340.23 90.0044 338.615 88.7197 Q337.018 87.4176 334.154 87.4176 L331.133 87.4176 L331.133 84.5357 L334.292 84.5357 Q336.879 84.5357 338.251 83.5114 Q339.622 82.4697 339.622 80.5253 Q339.622 78.5288 338.199 77.4697 Q336.792 76.3933 334.154 76.3933 Q332.713 76.3933 331.063 76.7058 Q329.414 77.0183 327.435 77.6781 L327.435 74.5531 Q329.431 73.9975 331.167 73.7198 Q332.921 73.442 334.466 73.442 Q338.459 73.442 340.785 75.2649 Q343.112 77.0704 343.112 80.1607 Q343.112 82.3135 341.879 83.8065 Q340.647 85.2822 338.372 85.8551 Z" fill="#000000" fill-rule="evenodd" fill-opacity="1" /><path clip-path="url(#clip310)" d="M 0 0 M360.004 76.9663 L351.15 90.803 L360.004 90.803 L360.004 76.9663 M359.084 73.9107 L363.494 73.9107 L363.494 90.803 L367.192 90.803 L367.192 93.7196 L363.494 93.7196 L363.494 99.8307 L360.004 99.8307 L360.004 93.7196 L348.303 93.7196 L348.303 90.3342 L359.084 73.9107 Z" fill="#000000" fill-rule="evenodd" fill-opacity="1" /></svg>
