<?xml version="1.0" encoding="utf-8"?>
<svg xmlns="http://www.w3.org/2000/svg" xmlns:xlink="http://www.w3.org/1999/xlink" width="200" height="200" viewBox="0 0 800 800">
<defs>
  <clipPath id="clip370">
    <rect x="0" y="0" width="800" height="800"/>
  </clipPath>
</defs>
<path clip-path="url(#clip370)" d="
M0 800 L800 800 L800 0 L0 0  Z
  " fill="#ffffff" fill-rule="evenodd" fill-opacity="1"/>
<defs>
  <clipPath id="clip371">
    <rect x="160" y="80" width="561" height="561"/>
  </clipPath>
</defs>
<path clip-path="url(#clip370)" d="
M70.9921 729.008 L752.756 729.008 L752.756 62.9921 L70.9921 62.9921  Z
  " fill="#ffffff" fill-rule="evenodd" fill-opacity="1"/>
<defs>
  <clipPath id="clip372">
    <rect x="70" y="62" width="683" height="667"/>
  </clipPath>
</defs>
<polyline clip-path="url(#clip370)" style="stroke:#000000; stroke-width:4; stroke-opacity:1; fill:none" points="
  70.9921,729.008 752.756,729.008 
  "/>
<polyline clip-path="url(#clip370)" style="stroke:#000000; stroke-width:4; stroke-opacity:1; fill:none" points="
  70.9921,729.008 70.9921,721.016 
  "/>
<polyline clip-path="url(#clip370)" style="stroke:#000000; stroke-width:4; stroke-opacity:1; fill:none" points="
  241.433,729.008 241.433,721.016 
  "/>
<polyline clip-path="url(#clip370)" style="stroke:#000000; stroke-width:4; stroke-opacity:1; fill:none" points="
  411.874,729.008 411.874,721.016 
  "/>
<polyline clip-path="url(#clip370)" style="stroke:#000000; stroke-width:4; stroke-opacity:1; fill:none" points="
  582.315,729.008 582.315,721.016 
  "/>
<polyline clip-path="url(#clip370)" style="stroke:#000000; stroke-width:4; stroke-opacity:1; fill:none" points="
  752.756,729.008 752.756,721.016 
  "/>
<path clip-path="url(#clip370)" d="M 0 0 M40.9344 760.051 L70.6102 760.051 L70.6102 763.986 L40.9344 763.986 L40.9344 760.051 Z" fill="#000000" fill-rule="evenodd" fill-opacity="1" /><path clip-path="url(#clip370)" d="M 0 0 M84.7305 772.945 L101.05 772.945 L101.05 776.88 L79.1055 776.88 L79.1055 772.945 Q81.7675 770.19 86.3508 765.56 Q90.9573 760.908 92.1378 759.565 Q94.3832 757.042 95.2628 755.306 Q96.1656 753.547 96.1656 751.857 Q96.1656 749.102 94.2212 747.366 Q92.2999 745.63 89.198 745.63 Q86.999 745.63 84.5453 746.394 Q82.1148 747.158 79.337 748.709 L79.337 743.987 Q82.161 742.852 84.6147 742.274 Q87.0684 741.695 89.1055 741.695 Q94.4758 741.695 97.6702 744.38 Q100.865 747.065 100.865 751.556 Q100.865 753.686 100.054 755.607 Q99.2674 757.505 97.161 760.098 Q96.5823 760.769 93.4804 763.986 Q90.3786 767.181 84.7305 772.945 Z" fill="#000000" fill-rule="evenodd" fill-opacity="1" /><path clip-path="url(#clip370)" d="M 0 0 M211.19 760.051 L240.866 760.051 L240.866 763.986 L211.19 763.986 L211.19 760.051 Z" fill="#000000" fill-rule="evenodd" fill-opacity="1" /><path clip-path="url(#clip370)" d="M 0 0 M251.769 772.945 L259.408 772.945 L259.408 746.579 L251.097 748.246 L251.097 743.987 L259.361 742.32 L264.037 742.32 L264.037 772.945 L271.676 772.945 L271.676 776.88 L251.769 776.88 L251.769 772.945 Z" fill="#000000" fill-rule="evenodd" fill-opacity="1" /><path clip-path="url(#clip370)" d="M 0 0 M411.874 745.399 Q408.263 745.399 406.434 748.963 Q404.629 752.505 404.629 759.635 Q404.629 766.741 406.434 770.306 Q408.263 773.847 411.874 773.847 Q415.508 773.847 417.314 770.306 Q419.142 766.741 419.142 759.635 Q419.142 752.505 417.314 748.963 Q415.508 745.399 411.874 745.399 M411.874 741.695 Q417.684 741.695 420.74 746.301 Q423.818 750.885 423.818 759.635 Q423.818 768.361 420.74 772.968 Q417.684 777.551 411.874 777.551 Q406.064 777.551 402.985 772.968 Q399.93 768.361 399.93 759.635 Q399.93 750.885 402.985 746.301 Q406.064 741.695 411.874 741.695 Z" fill="#000000" fill-rule="evenodd" fill-opacity="1" /><path clip-path="url(#clip370)" d="M 0 0 M572.697 772.945 L580.336 772.945 L580.336 746.579 L572.026 748.246 L572.026 743.987 L580.29 742.32 L584.965 742.32 L584.965 772.945 L592.604 772.945 L592.604 776.88 L572.697 776.88 L572.697 772.945 Z" fill="#000000" fill-rule="evenodd" fill-opacity="1" /><path clip-path="url(#clip370)" d="M 0 0 M747.409 772.945 L763.728 772.945 L763.728 776.88 L741.784 776.88 L741.784 772.945 Q744.446 770.19 749.029 765.56 Q753.636 760.908 754.816 759.565 Q757.061 757.042 757.941 755.306 Q758.844 753.547 758.844 751.857 Q758.844 749.102 756.899 747.366 Q754.978 745.63 751.876 745.63 Q749.677 745.63 747.224 746.394 Q744.793 747.158 742.015 748.709 L742.015 743.987 Q744.839 742.852 747.293 742.274 Q749.747 741.695 751.784 741.695 Q757.154 741.695 760.348 744.38 Q763.543 747.065 763.543 751.556 Q763.543 753.686 762.733 755.607 Q761.946 757.505 759.839 760.098 Q759.261 760.769 756.159 763.986 Q753.057 767.181 747.409 772.945 Z" fill="#000000" fill-rule="evenodd" fill-opacity="1" /><polyline clip-path="url(#clip370)" style="stroke:#000000; stroke-width:4; stroke-opacity:1; fill:none" points="
  70.9921,729.008 70.9921,62.9921 
  "/>
<polyline clip-path="url(#clip370)" style="stroke:#000000; stroke-width:4; stroke-opacity:1; fill:none" points="
  70.9921,729.008 79.1733,729.008 
  "/>
<polyline clip-path="url(#clip370)" style="stroke:#000000; stroke-width:4; stroke-opacity:1; fill:none" points="
  70.9921,562.504 79.1733,562.504 
  "/>
<polyline clip-path="url(#clip370)" style="stroke:#000000; stroke-width:4; stroke-opacity:1; fill:none" points="
  70.9921,396 79.1733,396 
  "/>
<polyline clip-path="url(#clip370)" style="stroke:#000000; stroke-width:4; stroke-opacity:1; fill:none" points="
  70.9921,229.496 79.1733,229.496 
  "/>
<polyline clip-path="url(#clip370)" style="stroke:#000000; stroke-width:4; stroke-opacity:1; fill:none" points="
  70.9921,62.9921 79.1733,62.9921 
  "/>
<path clip-path="url(#clip370)" d="M 0 0 M-1.12329 729.459 L28.5525 729.459 L28.5525 733.394 L-1.12329 733.394 L-1.12329 729.459 Z" fill="#000000" fill-rule="evenodd" fill-opacity="1" /><path clip-path="url(#clip370)" d="M 0 0 M42.6728 742.353 L58.9921 742.353 L58.9921 746.288 L37.0478 746.288 L37.0478 742.353 Q39.7098 739.598 44.2931 734.968 Q48.8996 730.316 50.0801 728.973 Q52.3255 726.45 53.2051 724.714 Q54.1079 722.955 54.1079 721.265 Q54.1079 718.51 52.1635 716.774 Q50.2422 715.038 47.1403 715.038 Q44.9413 715.038 42.4876 715.802 Q40.057 716.566 37.2793 718.117 L37.2793 713.395 Q40.1033 712.26 42.557 711.682 Q45.0107 711.103 47.0477 711.103 Q52.4181 711.103 55.6125 713.788 Q58.8069 716.473 58.8069 720.964 Q58.8069 723.094 57.9968 725.015 Q57.2097 726.913 55.1033 729.506 Q54.5246 730.177 51.4227 733.394 Q48.3209 736.589 42.6728 742.353 Z" fill="#000000" fill-rule="evenodd" fill-opacity="1" /><path clip-path="url(#clip370)" d="M 0 0 M-1.49366 562.955 L28.1821 562.955 L28.1821 566.89 L-1.49366 566.89 L-1.49366 562.955 Z" fill="#000000" fill-rule="evenodd" fill-opacity="1" /><path clip-path="url(#clip370)" d="M 0 0 M39.0848 575.849 L46.7237 575.849 L46.7237 549.483 L38.4135 551.15 L38.4135 546.891 L46.6774 545.224 L51.3533 545.224 L51.3533 575.849 L58.9921 575.849 L58.9921 579.784 L39.0848 579.784 L39.0848 575.849 Z" fill="#000000" fill-rule="evenodd" fill-opacity="1" /><path clip-path="url(#clip370)" d="M 0 0 M47.0477 381.799 Q43.4367 381.799 41.608 385.363 Q39.8024 388.905 39.8024 396.035 Q39.8024 403.141 41.608 406.706 Q43.4367 410.248 47.0477 410.248 Q50.682 410.248 52.4875 406.706 Q54.3162 403.141 54.3162 396.035 Q54.3162 388.905 52.4875 385.363 Q50.682 381.799 47.0477 381.799 M47.0477 378.095 Q52.8579 378.095 55.9134 382.701 Q58.9921 387.285 58.9921 396.035 Q58.9921 404.762 55.9134 409.368 Q52.8579 413.951 47.0477 413.951 Q41.2376 413.951 38.1589 409.368 Q35.1034 404.762 35.1034 396.035 Q35.1034 387.285 38.1589 382.701 Q41.2376 378.095 47.0477 378.095 Z" fill="#000000" fill-rule="evenodd" fill-opacity="1" /><path clip-path="url(#clip370)" d="M 0 0 M39.0848 242.841 L46.7237 242.841 L46.7237 216.475 L38.4135 218.142 L38.4135 213.883 L46.6774 212.216 L51.3533 212.216 L51.3533 242.841 L58.9921 242.841 L58.9921 246.776 L39.0848 246.776 L39.0848 242.841 Z" fill="#000000" fill-rule="evenodd" fill-opacity="1" /><path clip-path="url(#clip370)" d="M 0 0 M42.6728 76.337 L58.9921 76.337 L58.9921 80.2721 L37.0478 80.2721 L37.0478 76.337 Q39.7098 73.5823 44.2931 68.9527 Q48.8996 64.3 50.0801 62.9574 Q52.3255 60.4343 53.2051 58.6982 Q54.1079 56.9389 54.1079 55.2491 Q54.1079 52.4945 52.1635 50.7584 Q50.2422 49.0223 47.1403 49.0223 Q44.9413 49.0223 42.4876 49.7862 Q40.057 50.5501 37.2793 52.101 L37.2793 47.3788 Q40.1033 46.2445 42.557 45.6658 Q45.0107 45.0871 47.0477 45.0871 Q52.4181 45.0871 55.6125 47.7723 Q58.8069 50.4575 58.8069 54.9482 Q58.8069 57.0778 57.9968 58.9991 Q57.2097 60.8972 55.1033 63.4898 Q54.5246 64.1611 51.4227 67.3787 Q48.3209 70.5731 42.6728 76.337 Z" fill="#000000" fill-rule="evenodd" fill-opacity="1" /><path clip-path="url(#clip370)" d="M 0 0 M352.222 5.45367 L362.036 5.45367 L362.036 8.76384 L356.481 8.76384 L356.481 44.4118 L362.036 44.4118 L362.036 47.722 L352.222 47.722 L352.222 5.45367 Z" fill="#000000" fill-rule="evenodd" fill-opacity="1" /><path clip-path="url(#clip370)" d="M 0 0 M372.522 37.5368 L380.161 37.5368 L380.161 11.1712 L371.851 12.8379 L371.851 8.57866 L380.115 6.912 L384.791 6.912 L384.791 37.5368 L392.43 37.5368 L392.43 41.472 L372.522 41.472 L372.522 37.5368 Z" fill="#000000" fill-rule="evenodd" fill-opacity="1" /><path clip-path="url(#clip370)" d="M 0 0 M402.36 35.5924 L407.244 35.5924 L407.244 39.5739 L403.448 46.9812 L400.462 46.9812 L402.36 39.5739 L402.36 35.5924 Z" fill="#000000" fill-rule="evenodd" fill-opacity="1" /><path clip-path="url(#clip370)" d="M 0 0 M432.823 37.5368 L440.462 37.5368 L440.462 11.1712 L432.152 12.8379 L432.152 8.57866 L440.416 6.912 L445.091 6.912 L445.091 37.5368 L452.73 37.5368 L452.73 41.472 L432.823 41.472 L432.823 37.5368 Z" fill="#000000" fill-rule="evenodd" fill-opacity="1" /><path clip-path="url(#clip370)" d="M 0 0 M471.526 5.45367 L471.526 47.722 L461.712 47.722 L461.712 44.4118 L467.244 44.4118 L467.244 8.76384 L461.712 8.76384 L461.712 5.45367 L471.526 5.45367 Z" fill="#000000" fill-rule="evenodd" fill-opacity="1" /><circle clip-path="url(#clip372)" cx="411.874" cy="540.197" r="14" fill="#0000ff" fill-rule="evenodd" fill-opacity="1" stroke="none"/>
<circle clip-path="url(#clip372)" cx="369.264" cy="468.098" r="14" fill="#0000ff" fill-rule="evenodd" fill-opacity="1" stroke="none"/>
<circle clip-path="url(#clip372)" cx="454.484" cy="468.098" r="14" fill="#0000ff" fill-rule="evenodd" fill-opacity="1" stroke="none"/>
<circle clip-path="url(#clip372)" cx="582.315" cy="540.197" r="14" fill="#0000ff" fill-rule="evenodd" fill-opacity="1" stroke="none"/>
<circle clip-path="url(#clip372)" cx="539.705" cy="468.098" r="14" fill="#0000ff" fill-rule="evenodd" fill-opacity="1" stroke="none"/>
<circle clip-path="url(#clip372)" cx="624.925" cy="468.098" r="14" fill="#0000ff" fill-rule="evenodd" fill-opacity="1" stroke="none"/>
<circle clip-path="url(#clip372)" cx="156.213" cy="684.393" r="14" fill="#0000ff" fill-rule="evenodd" fill-opacity="1" stroke="none"/>
<circle clip-path="url(#clip372)" cx="113.602" cy="612.295" r="14" fill="#0000ff" fill-rule="evenodd" fill-opacity="1" stroke="none"/>
<circle clip-path="url(#clip372)" cx="198.823" cy="612.295" r="14" fill="#0000ff" fill-rule="evenodd" fill-opacity="1" stroke="none"/>
<circle clip-path="url(#clip372)" cx="326.654" cy="684.393" r="14" fill="#0000ff" fill-rule="evenodd" fill-opacity="1" stroke="none"/>
<circle clip-path="url(#clip372)" cx="284.043" cy="612.295" r="14" fill="#0000ff" fill-rule="evenodd" fill-opacity="1" stroke="none"/>
<circle clip-path="url(#clip372)" cx="369.264" cy="612.295" r="14" fill="#0000ff" fill-rule="evenodd" fill-opacity="1" stroke="none"/>
<circle clip-path="url(#clip372)" cx="497.094" cy="684.393" r="14" fill="#0000ff" fill-rule="evenodd" fill-opacity="1" stroke="none"/>
<circle clip-path="url(#clip372)" cx="454.484" cy="612.295" r="14" fill="#0000ff" fill-rule="evenodd" fill-opacity="1" stroke="none"/>
<circle clip-path="url(#clip372)" cx="539.705" cy="612.295" r="14" fill="#0000ff" fill-rule="evenodd" fill-opacity="1" stroke="none"/>
<circle clip-path="url(#clip372)" cx="667.535" cy="684.393" r="14" fill="#0000ff" fill-rule="evenodd" fill-opacity="1" stroke="none"/>
<circle clip-path="url(#clip372)" cx="624.925" cy="612.295" r="14" fill="#0000ff" fill-rule="evenodd" fill-opacity="1" stroke="none"/>
<circle clip-path="url(#clip372)" cx="710.146" cy="612.295" r="14" fill="#0000ff" fill-rule="evenodd" fill-opacity="1" stroke="none"/>
<path clip-path="url(#clip370)" d="M 0 0 M411.874 506.501 L428.541 506.501 L428.541 507.994 L419.131 532.421 L415.468 532.421 L424.322 509.452 L411.874 509.452 L411.874 506.501 Z" fill="#000000" fill-rule="evenodd" fill-opacity="1" /><path clip-path="url(#clip370)" d="M 0 0 M378.153 448.013 Q375.653 448.013 374.212 449.35 Q372.788 450.687 372.788 453.031 Q372.788 455.374 374.212 456.711 Q375.653 458.048 378.153 458.048 Q380.653 458.048 382.094 456.711 Q383.535 455.357 383.535 453.031 Q383.535 450.687 382.094 449.35 Q380.67 448.013 378.153 448.013 M374.646 446.52 Q372.389 445.965 371.121 444.42 Q369.871 442.874 369.871 440.652 Q369.871 437.545 372.076 435.739 Q374.298 433.934 378.153 433.934 Q382.024 433.934 384.229 435.739 Q386.434 437.545 386.434 440.652 Q386.434 442.874 385.166 444.42 Q383.916 445.965 381.677 446.52 Q384.212 447.111 385.618 448.829 Q387.041 450.548 387.041 453.031 Q387.041 456.798 384.732 458.812 Q382.441 460.826 378.153 460.826 Q373.864 460.826 371.555 458.812 Q369.264 456.798 369.264 453.031 Q369.264 450.548 370.687 448.829 Q372.111 447.111 374.646 446.52 M373.361 440.982 Q373.361 442.996 374.611 444.124 Q375.878 445.253 378.153 445.253 Q380.41 445.253 381.677 444.124 Q382.962 442.996 382.962 440.982 Q382.962 438.968 381.677 437.84 Q380.41 436.711 378.153 436.711 Q375.878 436.711 374.611 437.84 Q373.361 438.968 373.361 440.982 Z" fill="#000000" fill-rule="evenodd" fill-opacity="1" /><path clip-path="url(#clip370)" d="M 0 0 M456.151 459.784 L456.151 456.59 Q457.47 457.215 458.825 457.545 Q460.179 457.874 461.481 457.874 Q464.953 457.874 466.776 455.548 Q468.616 453.204 468.877 448.447 Q467.87 449.94 466.324 450.739 Q464.779 451.538 462.904 451.538 Q459.015 451.538 456.741 449.194 Q454.484 446.833 454.484 442.753 Q454.484 438.76 456.845 436.347 Q459.206 433.934 463.13 433.934 Q467.627 433.934 469.988 437.388 Q472.366 440.826 472.366 447.388 Q472.366 453.517 469.449 457.18 Q466.55 460.826 461.637 460.826 Q460.318 460.826 458.963 460.565 Q457.609 460.305 456.151 459.784 M463.13 448.795 Q465.491 448.795 466.863 447.18 Q468.252 445.565 468.252 442.753 Q468.252 439.958 466.863 438.343 Q465.491 436.711 463.13 436.711 Q460.769 436.711 459.38 438.343 Q458.009 439.958 458.009 442.753 Q458.009 445.565 459.38 447.18 Q460.769 448.795 463.13 448.795 Z" fill="#000000" fill-rule="evenodd" fill-opacity="1" /><path clip-path="url(#clip370)" d="M 0 0 M582.818 529.469 L588.548 529.469 L588.548 509.695 L582.315 510.945 L582.315 507.751 L588.513 506.501 L592.02 506.501 L592.02 529.469 L597.749 529.469 L597.749 532.421 L582.818 532.421 L582.818 529.469 Z" fill="#000000" fill-rule="evenodd" fill-opacity="1" /><path clip-path="url(#clip370)" d="M 0 0 M612.332 508.81 Q609.624 508.81 608.252 511.483 Q606.898 514.139 606.898 519.487 Q606.898 524.817 608.252 527.49 Q609.624 530.146 612.332 530.146 Q615.058 530.146 616.412 527.49 Q617.784 524.817 617.784 519.487 Q617.784 514.139 616.412 511.483 Q615.058 508.81 612.332 508.81 M612.332 506.032 Q616.69 506.032 618.981 509.487 Q621.29 512.924 621.29 519.487 Q621.29 526.032 618.981 529.487 Q616.69 532.924 612.332 532.924 Q607.975 532.924 605.666 529.487 Q603.374 526.032 603.374 519.487 Q603.374 512.924 605.666 509.487 Q607.975 506.032 612.332 506.032 Z" fill="#000000" fill-rule="evenodd" fill-opacity="1" /><path clip-path="url(#clip370)" d="M 0 0 M540.208 457.371 L545.937 457.371 L545.937 437.597 L539.705 438.847 L539.705 435.652 L545.903 434.402 L549.41 434.402 L549.41 457.371 L555.139 457.371 L555.139 460.322 L540.208 460.322 L540.208 457.371 Z" fill="#000000" fill-rule="evenodd" fill-opacity="1" /><path clip-path="url(#clip370)" d="M 0 0 M562.83 457.371 L568.559 457.371 L568.559 437.597 L562.326 438.847 L562.326 435.652 L568.524 434.402 L572.031 434.402 L572.031 457.371 L577.76 457.371 L577.76 460.322 L562.83 460.322 L562.83 457.371 Z" fill="#000000" fill-rule="evenodd" fill-opacity="1" /><path clip-path="url(#clip370)" d="M 0 0 M625.429 457.371 L631.158 457.371 L631.158 437.597 L624.925 438.847 L624.925 435.652 L631.123 434.402 L634.63 434.402 L634.63 457.371 L640.359 457.371 L640.359 460.322 L625.429 460.322 L625.429 457.371 Z" fill="#000000" fill-rule="evenodd" fill-opacity="1" /><path clip-path="url(#clip370)" d="M 0 0 M650.463 457.371 L662.703 457.371 L662.703 460.322 L646.245 460.322 L646.245 457.371 Q648.241 455.305 651.679 451.833 Q655.133 448.343 656.019 447.336 Q657.703 445.444 658.363 444.142 Q659.04 442.822 659.04 441.555 Q659.04 439.489 657.581 438.187 Q656.14 436.885 653.814 436.885 Q652.165 436.885 650.324 437.458 Q648.501 438.031 646.418 439.194 L646.418 435.652 Q648.536 434.802 650.376 434.368 Q652.217 433.934 653.744 433.934 Q657.772 433.934 660.168 435.947 Q662.564 437.961 662.564 441.329 Q662.564 442.927 661.956 444.368 Q661.366 445.791 659.786 447.736 Q659.352 448.239 657.026 450.652 Q654.699 453.048 650.463 457.371 Z" fill="#000000" fill-rule="evenodd" fill-opacity="1" /><path clip-path="url(#clip370)" d="M 0 0 M160.431 673.666 L172.671 673.666 L172.671 676.617 L156.213 676.617 L156.213 673.666 Q158.209 671.6 161.647 668.128 Q165.101 664.638 165.987 663.631 Q167.671 661.739 168.331 660.437 Q169.008 659.117 169.008 657.85 Q169.008 655.784 167.549 654.482 Q166.108 653.18 163.782 653.18 Q162.133 653.18 160.292 653.753 Q158.47 654.326 156.386 655.489 L156.386 651.947 Q158.504 651.097 160.345 650.663 Q162.185 650.229 163.713 650.229 Q167.74 650.229 170.136 652.242 Q172.532 654.256 172.532 657.624 Q172.532 659.222 171.924 660.663 Q171.334 662.086 169.754 664.031 Q169.32 664.534 166.994 666.947 Q164.667 669.343 160.431 673.666 Z" fill="#000000" fill-rule="evenodd" fill-opacity="1" /><path clip-path="url(#clip370)" d="M 0 0 M180.067 650.697 L193.834 650.697 L193.834 653.649 L183.278 653.649 L183.278 660.003 Q184.042 659.742 184.806 659.621 Q185.57 659.482 186.334 659.482 Q190.674 659.482 193.209 661.86 Q195.744 664.239 195.744 668.301 Q195.744 672.485 193.139 674.812 Q190.535 677.121 185.796 677.121 Q184.164 677.121 182.462 676.843 Q180.778 676.565 178.973 676.01 L178.973 672.485 Q180.535 673.336 182.202 673.753 Q183.869 674.169 185.726 674.169 Q188.73 674.169 190.483 672.59 Q192.237 671.01 192.237 668.301 Q192.237 665.593 190.483 664.013 Q188.73 662.433 185.726 662.433 Q184.32 662.433 182.914 662.746 Q181.525 663.058 180.067 663.718 L180.067 650.697 Z" fill="#000000" fill-rule="evenodd" fill-opacity="1" /><path clip-path="url(#clip370)" d="M 0 0 M117.821 601.568 L130.061 601.568 L130.061 604.519 L113.602 604.519 L113.602 601.568 Q115.599 599.502 119.036 596.029 Q122.491 592.54 123.377 591.533 Q125.061 589.641 125.72 588.338 Q126.397 587.019 126.397 585.752 Q126.397 583.686 124.939 582.384 Q123.498 581.082 121.172 581.082 Q119.522 581.082 117.682 581.654 Q115.859 582.227 113.776 583.391 L113.776 579.849 Q115.894 578.998 117.734 578.564 Q119.575 578.13 121.102 578.13 Q125.13 578.13 127.526 580.144 Q129.922 582.158 129.922 585.526 Q129.922 587.123 129.314 588.564 Q128.724 589.988 127.144 591.932 Q126.71 592.436 124.384 594.849 Q122.057 597.245 117.821 601.568 Z" fill="#000000" fill-rule="evenodd" fill-opacity="1" /><path clip-path="url(#clip370)" d="M 0 0 M145.356 590.161 Q142.995 590.161 141.606 591.776 Q140.234 593.391 140.234 596.203 Q140.234 598.998 141.606 600.63 Q142.995 602.245 145.356 602.245 Q147.717 602.245 149.088 600.63 Q150.477 598.998 150.477 596.203 Q150.477 593.391 149.088 591.776 Q147.717 590.161 145.356 590.161 M152.317 579.172 L152.317 582.366 Q150.998 581.741 149.644 581.411 Q148.307 581.082 146.988 581.082 Q143.515 581.082 141.675 583.425 Q139.852 585.769 139.592 590.509 Q140.616 588.998 142.161 588.2 Q143.706 587.384 145.564 587.384 Q149.47 587.384 151.727 589.762 Q154.001 592.123 154.001 596.203 Q154.001 600.196 151.64 602.609 Q149.279 605.022 145.356 605.022 Q140.859 605.022 138.481 601.585 Q136.102 598.13 136.102 591.585 Q136.102 585.439 139.019 581.793 Q141.936 578.13 146.849 578.13 Q148.168 578.13 149.505 578.391 Q150.859 578.651 152.317 579.172 Z" fill="#000000" fill-rule="evenodd" fill-opacity="1" /><path clip-path="url(#clip370)" d="M 0 0 M203.042 601.568 L215.281 601.568 L215.281 604.519 L198.823 604.519 L198.823 601.568 Q200.819 599.502 204.257 596.029 Q207.712 592.54 208.597 591.533 Q210.281 589.641 210.941 588.338 Q211.618 587.019 211.618 585.752 Q211.618 583.686 210.16 582.384 Q208.719 581.082 206.392 581.082 Q204.743 581.082 202.903 581.654 Q201.08 582.227 198.996 583.391 L198.996 579.849 Q201.114 578.998 202.955 578.564 Q204.795 578.13 206.323 578.13 Q210.351 578.13 212.746 580.144 Q215.142 582.158 215.142 585.526 Q215.142 587.123 214.535 588.564 Q213.944 589.988 212.364 591.932 Q211.93 592.436 209.604 594.849 Q207.278 597.245 203.042 601.568 Z" fill="#000000" fill-rule="evenodd" fill-opacity="1" /><path clip-path="url(#clip370)" d="M 0 0 M221.757 578.599 L238.423 578.599 L238.423 580.092 L229.014 604.519 L225.35 604.519 L234.205 581.55 L221.757 581.55 L221.757 578.599 Z" fill="#000000" fill-rule="evenodd" fill-opacity="1" /><path clip-path="url(#clip370)" d="M 0 0 M330.872 673.666 L343.112 673.666 L343.112 676.617 L326.654 676.617 L326.654 673.666 Q328.65 671.6 332.088 668.128 Q335.542 664.638 336.428 663.631 Q338.112 661.739 338.772 660.437 Q339.449 659.117 339.449 657.85 Q339.449 655.784 337.99 654.482 Q336.549 653.18 334.223 653.18 Q332.574 653.18 330.733 653.753 Q328.91 654.326 326.827 655.489 L326.827 651.947 Q328.945 651.097 330.785 650.663 Q332.626 650.229 334.154 650.229 Q338.181 650.229 340.577 652.242 Q342.973 654.256 342.973 657.624 Q342.973 659.222 342.365 660.663 Q341.775 662.086 340.195 664.031 Q339.761 664.534 337.435 666.947 Q335.108 669.343 330.872 673.666 Z" fill="#000000" fill-rule="evenodd" fill-opacity="1" /><path clip-path="url(#clip370)" d="M 0 0 M357.973 664.308 Q355.473 664.308 354.032 665.645 Q352.608 666.982 352.608 669.326 Q352.608 671.669 354.032 673.006 Q355.473 674.343 357.973 674.343 Q360.473 674.343 361.914 673.006 Q363.355 671.652 363.355 669.326 Q363.355 666.982 361.914 665.645 Q360.49 664.308 357.973 664.308 M354.466 662.815 Q352.209 662.26 350.942 660.715 Q349.692 659.169 349.692 656.947 Q349.692 653.84 351.896 652.034 Q354.119 650.229 357.973 650.229 Q361.844 650.229 364.049 652.034 Q366.254 653.84 366.254 656.947 Q366.254 659.169 364.987 660.715 Q363.737 662.26 361.497 662.815 Q364.032 663.406 365.438 665.124 Q366.862 666.843 366.862 669.326 Q366.862 673.093 364.553 675.107 Q362.261 677.121 357.973 677.121 Q353.685 677.121 351.376 675.107 Q349.084 673.093 349.084 669.326 Q349.084 666.843 350.508 665.124 Q351.931 663.406 354.466 662.815 M353.181 657.277 Q353.181 659.291 354.431 660.419 Q355.699 661.548 357.973 661.548 Q360.23 661.548 361.497 660.419 Q362.782 659.291 362.782 657.277 Q362.782 655.263 361.497 654.135 Q360.23 653.006 357.973 653.006 Q355.699 653.006 354.431 654.135 Q353.181 655.263 353.181 657.277 Z" fill="#000000" fill-rule="evenodd" fill-opacity="1" /><path clip-path="url(#clip370)" d="M 0 0 M288.262 601.568 L300.502 601.568 L300.502 604.519 L284.043 604.519 L284.043 601.568 Q286.04 599.502 289.477 596.029 Q292.932 592.54 293.818 591.533 Q295.502 589.641 296.161 588.338 Q296.838 587.019 296.838 585.752 Q296.838 583.686 295.38 582.384 Q293.939 581.082 291.613 581.082 Q289.963 581.082 288.123 581.654 Q286.3 582.227 284.217 583.391 L284.217 579.849 Q286.335 578.998 288.175 578.564 Q290.015 578.13 291.543 578.13 Q295.571 578.13 297.967 580.144 Q300.363 582.158 300.363 585.526 Q300.363 587.123 299.755 588.564 Q299.165 589.988 297.585 591.932 Q297.151 592.436 294.824 594.849 Q292.498 597.245 288.262 601.568 Z" fill="#000000" fill-rule="evenodd" fill-opacity="1" /><path clip-path="url(#clip370)" d="M 0 0 M307.967 603.981 L307.967 600.786 Q309.286 601.411 310.64 601.741 Q311.995 602.071 313.297 602.071 Q316.769 602.071 318.592 599.745 Q320.432 597.401 320.692 592.644 Q319.685 594.137 318.14 594.936 Q316.595 595.734 314.72 595.734 Q310.831 595.734 308.557 593.391 Q306.3 591.029 306.3 586.95 Q306.3 582.957 308.661 580.543 Q311.022 578.13 314.946 578.13 Q319.442 578.13 321.804 581.585 Q324.182 585.023 324.182 591.585 Q324.182 597.713 321.265 601.377 Q318.366 605.022 313.453 605.022 Q312.133 605.022 310.779 604.762 Q309.425 604.502 307.967 603.981 M314.946 592.991 Q317.307 592.991 318.679 591.377 Q320.067 589.762 320.067 586.95 Q320.067 584.154 318.679 582.54 Q317.307 580.908 314.946 580.908 Q312.585 580.908 311.196 582.54 Q309.824 584.154 309.824 586.95 Q309.824 589.762 311.196 591.377 Q312.585 592.991 314.946 592.991 Z" fill="#000000" fill-rule="evenodd" fill-opacity="1" /><path clip-path="url(#clip370)" d="M 0 0 M380.982 590.543 Q383.5 591.082 384.906 592.783 Q386.33 594.484 386.33 596.984 Q386.33 600.821 383.691 602.922 Q381.052 605.022 376.191 605.022 Q374.559 605.022 372.823 604.693 Q371.104 604.38 369.264 603.738 L369.264 600.352 Q370.722 601.203 372.458 601.637 Q374.194 602.071 376.087 602.071 Q379.385 602.071 381.104 600.769 Q382.84 599.467 382.84 596.984 Q382.84 594.693 381.226 593.408 Q379.628 592.106 376.764 592.106 L373.743 592.106 L373.743 589.224 L376.903 589.224 Q379.489 589.224 380.861 588.2 Q382.232 587.158 382.232 585.214 Q382.232 583.217 380.809 582.158 Q379.403 581.082 376.764 581.082 Q375.323 581.082 373.673 581.394 Q372.024 581.707 370.045 582.366 L370.045 579.241 Q372.042 578.686 373.778 578.408 Q375.531 578.13 377.076 578.13 Q381.069 578.13 383.396 579.953 Q385.722 581.759 385.722 584.849 Q385.722 587.002 384.489 588.495 Q383.257 589.97 380.982 590.543 Z" fill="#000000" fill-rule="evenodd" fill-opacity="1" /><path clip-path="url(#clip370)" d="M 0 0 M400.479 580.908 Q397.771 580.908 396.399 583.582 Q395.045 586.238 395.045 591.585 Q395.045 596.915 396.399 599.588 Q397.771 602.245 400.479 602.245 Q403.205 602.245 404.559 599.588 Q405.93 596.915 405.93 591.585 Q405.93 586.238 404.559 583.582 Q403.205 580.908 400.479 580.908 M400.479 578.13 Q404.837 578.13 407.128 581.585 Q409.437 585.023 409.437 591.585 Q409.437 598.13 407.128 601.585 Q404.837 605.022 400.479 605.022 Q396.121 605.022 393.812 601.585 Q391.521 598.13 391.521 591.585 Q391.521 585.023 393.812 581.585 Q396.121 578.13 400.479 578.13 Z" fill="#000000" fill-rule="evenodd" fill-opacity="1" /><path clip-path="url(#clip370)" d="M 0 0 M508.813 662.642 Q511.331 663.18 512.737 664.881 Q514.16 666.583 514.16 669.083 Q514.16 672.919 511.521 675.02 Q508.883 677.121 504.022 677.121 Q502.39 677.121 500.653 676.791 Q498.935 676.478 497.094 675.836 L497.094 672.451 Q498.553 673.301 500.289 673.735 Q502.025 674.169 503.917 674.169 Q507.216 674.169 508.935 672.867 Q510.671 671.565 510.671 669.083 Q510.671 666.791 509.056 665.506 Q507.459 664.204 504.594 664.204 L501.574 664.204 L501.574 661.322 L504.733 661.322 Q507.32 661.322 508.692 660.298 Q510.063 659.256 510.063 657.312 Q510.063 655.315 508.64 654.256 Q507.233 653.18 504.594 653.18 Q503.153 653.18 501.504 653.492 Q499.855 653.805 497.876 654.465 L497.876 651.34 Q499.872 650.784 501.608 650.506 Q503.362 650.229 504.907 650.229 Q508.9 650.229 511.226 652.051 Q513.553 653.857 513.553 656.947 Q513.553 659.1 512.32 660.593 Q511.087 662.069 508.813 662.642 Z" fill="#000000" fill-rule="evenodd" fill-opacity="1" /><path clip-path="url(#clip370)" d="M 0 0 M521.417 673.666 L527.146 673.666 L527.146 653.892 L520.914 655.142 L520.914 651.947 L527.112 650.697 L530.619 650.697 L530.619 673.666 L536.348 673.666 L536.348 676.617 L521.417 676.617 L521.417 673.666 Z" fill="#000000" fill-rule="evenodd" fill-opacity="1" /><path clip-path="url(#clip370)" d="M 0 0 M466.203 590.543 Q468.72 591.082 470.127 592.783 Q471.55 594.484 471.55 596.984 Q471.55 600.821 468.911 602.922 Q466.272 605.022 461.411 605.022 Q459.779 605.022 458.043 604.693 Q456.325 604.38 454.484 603.738 L454.484 600.352 Q455.943 601.203 457.679 601.637 Q459.415 602.071 461.307 602.071 Q464.606 602.071 466.324 600.769 Q468.061 599.467 468.061 596.984 Q468.061 594.693 466.446 593.408 Q464.849 592.106 461.984 592.106 L458.963 592.106 L458.963 589.224 L462.123 589.224 Q464.71 589.224 466.081 588.2 Q467.453 587.158 467.453 585.214 Q467.453 583.217 466.029 582.158 Q464.623 581.082 461.984 581.082 Q460.543 581.082 458.894 581.394 Q457.245 581.707 455.265 582.366 L455.265 579.241 Q457.262 578.686 458.998 578.408 Q460.752 578.13 462.297 578.13 Q466.29 578.13 468.616 579.953 Q470.942 581.759 470.942 584.849 Q470.942 587.002 469.71 588.495 Q468.477 589.97 466.203 590.543 Z" fill="#000000" fill-rule="evenodd" fill-opacity="1" /><path clip-path="url(#clip370)" d="M 0 0 M481.22 601.568 L493.46 601.568 L493.46 604.519 L477.001 604.519 L477.001 601.568 Q478.998 599.502 482.435 596.029 Q485.89 592.54 486.776 591.533 Q488.46 589.641 489.119 588.338 Q489.797 587.019 489.797 585.752 Q489.797 583.686 488.338 582.384 Q486.897 581.082 484.571 581.082 Q482.922 581.082 481.081 581.654 Q479.258 582.227 477.175 583.391 L477.175 579.849 Q479.293 578.998 481.133 578.564 Q482.974 578.13 484.501 578.13 Q488.529 578.13 490.925 580.144 Q493.321 582.158 493.321 585.526 Q493.321 587.123 492.713 588.564 Q492.123 589.988 490.543 591.932 Q490.109 592.436 487.783 594.849 Q485.456 597.245 481.22 601.568 Z" fill="#000000" fill-rule="evenodd" fill-opacity="1" /><path clip-path="url(#clip370)" d="M 0 0 M551.423 590.543 Q553.941 591.082 555.347 592.783 Q556.771 594.484 556.771 596.984 Q556.771 600.821 554.132 602.922 Q551.493 605.022 546.632 605.022 Q545 605.022 543.264 604.693 Q541.545 604.38 539.705 603.738 L539.705 600.352 Q541.163 601.203 542.899 601.637 Q544.635 602.071 546.528 602.071 Q549.826 602.071 551.545 600.769 Q553.281 599.467 553.281 596.984 Q553.281 594.693 551.666 593.408 Q550.069 592.106 547.205 592.106 L544.184 592.106 L544.184 589.224 L547.344 589.224 Q549.93 589.224 551.302 588.2 Q552.673 587.158 552.673 585.214 Q552.673 583.217 551.25 582.158 Q549.844 581.082 547.205 581.082 Q545.764 581.082 544.114 581.394 Q542.465 581.707 540.486 582.366 L540.486 579.241 Q542.482 578.686 544.219 578.408 Q545.972 578.13 547.517 578.13 Q551.51 578.13 553.837 579.953 Q556.163 581.759 556.163 584.849 Q556.163 587.002 554.93 588.495 Q553.698 589.97 551.423 590.543 Z" fill="#000000" fill-rule="evenodd" fill-opacity="1" /><path clip-path="url(#clip370)" d="M 0 0 M574.045 590.543 Q576.562 591.082 577.968 592.783 Q579.392 594.484 579.392 596.984 Q579.392 600.821 576.753 602.922 Q574.114 605.022 569.253 605.022 Q567.621 605.022 565.885 604.693 Q564.166 604.38 562.326 603.738 L562.326 600.352 Q563.784 601.203 565.521 601.637 Q567.257 602.071 569.149 602.071 Q572.448 602.071 574.166 600.769 Q575.902 599.467 575.902 596.984 Q575.902 594.693 574.288 593.408 Q572.691 592.106 569.826 592.106 L566.805 592.106 L566.805 589.224 L569.965 589.224 Q572.552 589.224 573.923 588.2 Q575.295 587.158 575.295 585.214 Q575.295 583.217 573.871 582.158 Q572.465 581.082 569.826 581.082 Q568.385 581.082 566.736 581.394 Q565.087 581.707 563.107 582.366 L563.107 579.241 Q565.104 578.686 566.84 578.408 Q568.593 578.13 570.139 578.13 Q574.132 578.13 576.458 579.953 Q578.784 581.759 578.784 584.849 Q578.784 587.002 577.552 588.495 Q576.319 589.97 574.045 590.543 Z" fill="#000000" fill-rule="evenodd" fill-opacity="1" /><path clip-path="url(#clip370)" d="M 0 0 M679.254 662.642 Q681.771 663.18 683.178 664.881 Q684.601 666.583 684.601 669.083 Q684.601 672.919 681.962 675.02 Q679.324 677.121 674.462 677.121 Q672.831 677.121 671.094 676.791 Q669.376 676.478 667.535 675.836 L667.535 672.451 Q668.994 673.301 670.73 673.735 Q672.466 674.169 674.358 674.169 Q677.657 674.169 679.376 672.867 Q681.112 671.565 681.112 669.083 Q681.112 666.791 679.497 665.506 Q677.9 664.204 675.035 664.204 L672.015 664.204 L672.015 661.322 L675.174 661.322 Q677.761 661.322 679.133 660.298 Q680.504 659.256 680.504 657.312 Q680.504 655.315 679.081 654.256 Q677.674 653.18 675.035 653.18 Q673.594 653.18 671.945 653.492 Q670.296 653.805 668.317 654.465 L668.317 651.34 Q670.313 650.784 672.049 650.506 Q673.803 650.229 675.348 650.229 Q679.341 650.229 681.667 652.051 Q683.994 653.857 683.994 656.947 Q683.994 659.1 682.761 660.593 Q681.528 662.069 679.254 662.642 Z" fill="#000000" fill-rule="evenodd" fill-opacity="1" /><path clip-path="url(#clip370)" d="M 0 0 M700.886 653.753 L692.032 667.59 L700.886 667.59 L700.886 653.753 M699.966 650.697 L704.376 650.697 L704.376 667.59 L708.073 667.59 L708.073 670.506 L704.376 670.506 L704.376 676.617 L700.886 676.617 L700.886 670.506 L689.185 670.506 L689.185 667.121 L699.966 650.697 Z" fill="#000000" fill-rule="evenodd" fill-opacity="1" /><path clip-path="url(#clip370)" d="M 0 0 M636.644 590.543 Q639.161 591.082 640.567 592.783 Q641.991 594.484 641.991 596.984 Q641.991 600.821 639.352 602.922 Q636.713 605.022 631.852 605.022 Q630.22 605.022 628.484 604.693 Q626.765 604.38 624.925 603.738 L624.925 600.352 Q626.384 601.203 628.12 601.637 Q629.856 602.071 631.748 602.071 Q635.047 602.071 636.765 600.769 Q638.502 599.467 638.502 596.984 Q638.502 594.693 636.887 593.408 Q635.29 592.106 632.425 592.106 L629.404 592.106 L629.404 589.224 L632.564 589.224 Q635.151 589.224 636.522 588.2 Q637.894 587.158 637.894 585.214 Q637.894 583.217 636.47 582.158 Q635.064 581.082 632.425 581.082 Q630.984 581.082 629.335 581.394 Q627.686 581.707 625.706 582.366 L625.706 579.241 Q627.703 578.686 629.439 578.408 Q631.193 578.13 632.738 578.13 Q636.731 578.13 639.057 579.953 Q641.383 581.759 641.383 584.849 Q641.383 587.002 640.151 588.495 Q638.918 589.97 636.644 590.543 Z" fill="#000000" fill-rule="evenodd" fill-opacity="1" /><path clip-path="url(#clip370)" d="M 0 0 M648.675 578.599 L662.442 578.599 L662.442 581.55 L651.887 581.55 L651.887 587.904 Q652.651 587.644 653.415 587.523 Q654.179 587.384 654.942 587.384 Q659.283 587.384 661.817 589.762 Q664.352 592.141 664.352 596.203 Q664.352 600.387 661.748 602.713 Q659.144 605.022 654.404 605.022 Q652.772 605.022 651.071 604.745 Q649.387 604.467 647.581 603.911 L647.581 600.387 Q649.144 601.238 650.81 601.654 Q652.477 602.071 654.335 602.071 Q657.338 602.071 659.092 600.491 Q660.845 598.911 660.845 596.203 Q660.845 593.495 659.092 591.915 Q657.338 590.335 654.335 590.335 Q652.929 590.335 651.522 590.648 Q650.133 590.96 648.675 591.62 L648.675 578.599 Z" fill="#000000" fill-rule="evenodd" fill-opacity="1" /><path clip-path="url(#clip370)" d="M 0 0 M721.864 590.543 Q724.382 591.082 725.788 592.783 Q727.212 594.484 727.212 596.984 Q727.212 600.821 724.573 602.922 Q721.934 605.022 717.073 605.022 Q715.441 605.022 713.705 604.693 Q711.986 604.38 710.146 603.738 L710.146 600.352 Q711.604 601.203 713.34 601.637 Q715.076 602.071 716.969 602.071 Q720.267 602.071 721.986 600.769 Q723.722 599.467 723.722 596.984 Q723.722 594.693 722.107 593.408 Q720.51 592.106 717.646 592.106 L714.625 592.106 L714.625 589.224 L717.785 589.224 Q720.371 589.224 721.743 588.2 Q723.114 587.158 723.114 585.214 Q723.114 583.217 721.691 582.158 Q720.285 581.082 717.646 581.082 Q716.205 581.082 714.555 581.394 Q712.906 581.707 710.927 582.366 L710.927 579.241 Q712.923 578.686 714.66 578.408 Q716.413 578.13 717.958 578.13 Q721.951 578.13 724.278 579.953 Q726.604 581.759 726.604 584.849 Q726.604 587.002 725.371 588.495 Q724.139 589.97 721.864 590.543 Z" fill="#000000" fill-rule="evenodd" fill-opacity="1" /><path clip-path="url(#clip370)" d="M 0 0 M741.795 590.161 Q739.434 590.161 738.045 591.776 Q736.673 593.391 736.673 596.203 Q736.673 598.998 738.045 600.63 Q739.434 602.245 741.795 602.245 Q744.156 602.245 745.527 600.63 Q746.916 598.998 746.916 596.203 Q746.916 593.391 745.527 591.776 Q744.156 590.161 741.795 590.161 M748.757 579.172 L748.757 582.366 Q747.437 581.741 746.083 581.411 Q744.746 581.082 743.427 581.082 Q739.955 581.082 738.114 583.425 Q736.291 585.769 736.031 590.509 Q737.055 588.998 738.6 588.2 Q740.146 587.384 742.003 587.384 Q745.909 587.384 748.166 589.762 Q750.441 592.123 750.441 596.203 Q750.441 600.196 748.079 602.609 Q745.718 605.022 741.795 605.022 Q737.298 605.022 734.92 601.585 Q732.541 598.13 732.541 591.585 Q732.541 585.439 735.458 581.793 Q738.375 578.13 743.288 578.13 Q744.607 578.13 745.944 578.391 Q747.298 578.651 748.757 579.172 Z" fill="#000000" fill-rule="evenodd" fill-opacity="1" /><circle clip-path="url(#clip372)" cx="113.602" cy="468.098" r="14" fill="#0000ff" fill-rule="evenodd" fill-opacity="1" stroke="none"/>
<circle clip-path="url(#clip372)" cx="241.433" cy="540.197" r="14" fill="#0000ff" fill-rule="evenodd" fill-opacity="1" stroke="none"/>
<circle clip-path="url(#clip372)" cx="198.823" cy="468.098" r="14" fill="#0000ff" fill-rule="evenodd" fill-opacity="1" stroke="none"/>
<circle clip-path="url(#clip372)" cx="284.043" cy="468.098" r="14" fill="#0000ff" fill-rule="evenodd" fill-opacity="1" stroke="none"/>
<circle clip-path="url(#clip372)" cx="113.602" cy="179.705" r="14" fill="#0000ff" fill-rule="evenodd" fill-opacity="1" stroke="none"/>
<circle clip-path="url(#clip372)" cx="326.654" cy="396" r="14" fill="#0000ff" fill-rule="evenodd" fill-opacity="1" stroke="none"/>
<circle clip-path="url(#clip372)" cx="284.043" cy="323.902" r="14" fill="#0000ff" fill-rule="evenodd" fill-opacity="1" stroke="none"/>
<circle clip-path="url(#clip372)" cx="369.264" cy="323.902" r="14" fill="#0000ff" fill-rule="evenodd" fill-opacity="1" stroke="none"/>
<circle clip-path="url(#clip372)" cx="156.213" cy="396" r="14" fill="#0000ff" fill-rule="evenodd" fill-opacity="1" stroke="none"/>
<circle clip-path="url(#clip372)" cx="113.602" cy="323.902" r="14" fill="#0000ff" fill-rule="evenodd" fill-opacity="1" stroke="none"/>
<circle clip-path="url(#clip372)" cx="198.823" cy="323.902" r="14" fill="#0000ff" fill-rule="evenodd" fill-opacity="1" stroke="none"/>
<path clip-path="url(#clip370)" d="M 0 0 M71.4956 529.469 L77.2247 529.469 L77.2247 509.695 L70.9921 510.945 L70.9921 507.751 L77.19 506.501 L80.6969 506.501 L80.6969 529.469 L86.4261 529.469 L86.4261 532.421 L71.4956 532.421 L71.4956 529.469 Z" fill="#000000" fill-rule="evenodd" fill-opacity="1" /><path clip-path="url(#clip370)" d="M 0 0 M125.321 446.347 Q127.838 446.885 129.245 448.586 Q130.668 450.288 130.668 452.788 Q130.668 456.624 128.029 458.725 Q125.39 460.826 120.529 460.826 Q118.897 460.826 117.161 460.496 Q115.443 460.183 113.602 459.541 L113.602 456.156 Q115.061 457.006 116.797 457.44 Q118.533 457.874 120.425 457.874 Q123.724 457.874 125.443 456.572 Q127.179 455.27 127.179 452.788 Q127.179 450.496 125.564 449.211 Q123.967 447.909 121.102 447.909 L118.082 447.909 L118.082 445.027 L121.241 445.027 Q123.828 445.027 125.2 444.003 Q126.571 442.961 126.571 441.017 Q126.571 439.02 125.147 437.961 Q123.741 436.885 121.102 436.885 Q119.661 436.885 118.012 437.197 Q116.363 437.51 114.384 438.17 L114.384 435.045 Q116.38 434.489 118.116 434.211 Q119.87 433.934 121.415 433.934 Q125.408 433.934 127.734 435.756 Q130.061 437.562 130.061 440.652 Q130.061 442.805 128.828 444.298 Q127.595 445.774 125.321 446.347 Z" fill="#000000" fill-rule="evenodd" fill-opacity="1" /><path clip-path="url(#clip370)" d="M 0 0 M253.134 509.556 L244.28 523.393 L253.134 523.393 L253.134 509.556 M252.214 506.501 L256.624 506.501 L256.624 523.393 L260.322 523.393 L260.322 526.31 L256.624 526.31 L256.624 532.421 L253.134 532.421 L253.134 526.31 L241.433 526.31 L241.433 522.924 L252.214 506.501 Z" fill="#000000" fill-rule="evenodd" fill-opacity="1" /><path clip-path="url(#clip370)" d="M 0 0 M199.917 434.402 L213.684 434.402 L213.684 437.354 L203.128 437.354 L203.128 443.708 Q203.892 443.447 204.656 443.326 Q205.42 443.187 206.184 443.187 Q210.524 443.187 213.059 445.565 Q215.594 447.944 215.594 452.006 Q215.594 456.19 212.989 458.517 Q210.385 460.826 205.646 460.826 Q204.014 460.826 202.312 460.548 Q200.628 460.27 198.823 459.715 L198.823 456.19 Q200.385 457.041 202.052 457.458 Q203.719 457.874 205.576 457.874 Q208.58 457.874 210.333 456.295 Q212.087 454.715 212.087 452.006 Q212.087 449.298 210.333 447.718 Q208.58 446.138 205.576 446.138 Q204.17 446.138 202.764 446.451 Q201.375 446.763 199.917 447.423 L199.917 434.402 Z" fill="#000000" fill-rule="evenodd" fill-opacity="1" /><path clip-path="url(#clip370)" d="M 0 0 M293.297 445.965 Q290.936 445.965 289.547 447.579 Q288.175 449.194 288.175 452.006 Q288.175 454.802 289.547 456.433 Q290.936 458.048 293.297 458.048 Q295.658 458.048 297.029 456.433 Q298.418 454.802 298.418 452.006 Q298.418 449.194 297.029 447.579 Q295.658 445.965 293.297 445.965 M300.258 434.975 L300.258 438.17 Q298.939 437.545 297.585 437.215 Q296.248 436.885 294.929 436.885 Q291.456 436.885 289.616 439.229 Q287.793 441.572 287.533 446.312 Q288.557 444.802 290.102 444.003 Q291.647 443.187 293.505 443.187 Q297.411 443.187 299.668 445.565 Q301.943 447.927 301.943 452.006 Q301.943 455.999 299.581 458.413 Q297.22 460.826 293.297 460.826 Q288.8 460.826 286.422 457.388 Q284.043 453.933 284.043 447.388 Q284.043 441.243 286.96 437.597 Q289.877 433.934 294.79 433.934 Q296.109 433.934 297.446 434.194 Q298.8 434.454 300.258 434.975 Z" fill="#000000" fill-rule="evenodd" fill-opacity="1" /><path clip-path="url(#clip370)" d="M 0 0 M114.106 168.978 L119.835 168.978 L119.835 149.203 L113.602 150.453 L113.602 147.259 L119.8 146.009 L123.307 146.009 L123.307 168.978 L129.036 168.978 L129.036 171.929 L114.106 171.929 L114.106 168.978 Z" fill="#000000" fill-rule="evenodd" fill-opacity="1" /><path clip-path="url(#clip370)" d="M 0 0 M139.14 168.978 L151.38 168.978 L151.38 171.929 L134.922 171.929 L134.922 168.978 Q136.918 166.912 140.356 163.44 Q143.811 159.95 144.696 158.943 Q146.38 157.051 147.04 155.749 Q147.717 154.429 147.717 153.162 Q147.717 151.096 146.258 149.794 Q144.817 148.492 142.491 148.492 Q140.842 148.492 139.002 149.065 Q137.179 149.637 135.095 150.801 L135.095 147.259 Q137.213 146.408 139.054 145.974 Q140.894 145.54 142.422 145.54 Q146.449 145.54 148.845 147.554 Q151.241 149.568 151.241 152.936 Q151.241 154.533 150.633 155.974 Q150.043 157.398 148.463 159.342 Q148.029 159.846 145.703 162.259 Q143.377 164.655 139.14 168.978 Z" fill="#000000" fill-rule="evenodd" fill-opacity="1" /><path clip-path="url(#clip370)" d="M 0 0 M327.157 385.273 L332.886 385.273 L332.886 365.498 L326.654 366.748 L326.654 363.554 L332.851 362.304 L336.358 362.304 L336.358 385.273 L342.087 385.273 L342.087 388.224 L327.157 388.224 L327.157 385.273 Z" fill="#000000" fill-rule="evenodd" fill-opacity="1" /><path clip-path="url(#clip370)" d="M 0 0 M349.275 387.686 L349.275 384.491 Q350.594 385.116 351.949 385.446 Q353.303 385.776 354.605 385.776 Q358.077 385.776 359.9 383.45 Q361.74 381.106 362.001 376.349 Q360.994 377.842 359.449 378.641 Q357.903 379.439 356.028 379.439 Q352.14 379.439 349.865 377.096 Q347.608 374.734 347.608 370.655 Q347.608 366.662 349.969 364.248 Q352.33 361.835 356.254 361.835 Q360.751 361.835 363.112 365.29 Q365.49 368.728 365.49 375.29 Q365.49 381.418 362.573 385.082 Q359.674 388.727 354.761 388.727 Q353.442 388.727 352.087 388.467 Q350.733 388.207 349.275 387.686 M356.254 376.696 Q358.615 376.696 359.987 375.082 Q361.376 373.467 361.376 370.655 Q361.376 367.86 359.987 366.245 Q358.615 364.613 356.254 364.613 Q353.893 364.613 352.504 366.245 Q351.133 367.86 351.133 370.655 Q351.133 373.467 352.504 375.082 Q353.893 376.696 356.254 376.696 Z" fill="#000000" fill-rule="evenodd" fill-opacity="1" /><path clip-path="url(#clip370)" d="M 0 0 M288.262 313.174 L300.502 313.174 L300.502 316.126 L284.043 316.126 L284.043 313.174 Q286.04 311.108 289.477 307.636 Q292.932 304.147 293.818 303.14 Q295.502 301.247 296.161 299.945 Q296.838 298.626 296.838 297.358 Q296.838 295.292 295.38 293.99 Q293.939 292.688 291.613 292.688 Q289.963 292.688 288.123 293.261 Q286.3 293.834 284.217 294.997 L284.217 291.456 Q286.335 290.605 288.175 290.171 Q290.015 289.737 291.543 289.737 Q295.571 289.737 297.967 291.751 Q300.363 293.765 300.363 297.133 Q300.363 298.73 299.755 300.171 Q299.165 301.595 297.585 303.539 Q297.151 304.042 294.824 306.456 Q292.498 308.851 288.262 313.174 Z" fill="#000000" fill-rule="evenodd" fill-opacity="1" /><path clip-path="url(#clip370)" d="M 0 0 M315.363 292.515 Q312.654 292.515 311.283 295.188 Q309.929 297.845 309.929 303.192 Q309.929 308.522 311.283 311.195 Q312.654 313.851 315.363 313.851 Q318.088 313.851 319.442 311.195 Q320.814 308.522 320.814 303.192 Q320.814 297.845 319.442 295.188 Q318.088 292.515 315.363 292.515 M315.363 289.737 Q319.72 289.737 322.012 293.192 Q324.321 296.629 324.321 303.192 Q324.321 309.737 322.012 313.192 Q319.72 316.629 315.363 316.629 Q311.005 316.629 308.696 313.192 Q306.404 309.737 306.404 303.192 Q306.404 296.629 308.696 293.192 Q311.005 289.737 315.363 289.737 Z" fill="#000000" fill-rule="evenodd" fill-opacity="1" /><path clip-path="url(#clip370)" d="M 0 0 M373.483 313.174 L385.722 313.174 L385.722 316.126 L369.264 316.126 L369.264 313.174 Q371.26 311.108 374.698 307.636 Q378.153 304.147 379.038 303.14 Q380.722 301.247 381.382 299.945 Q382.059 298.626 382.059 297.358 Q382.059 295.292 380.601 293.99 Q379.16 292.688 376.833 292.688 Q375.184 292.688 373.344 293.261 Q371.521 293.834 369.437 294.997 L369.437 291.456 Q371.555 290.605 373.396 290.171 Q375.236 289.737 376.764 289.737 Q380.791 289.737 383.187 291.751 Q385.583 293.765 385.583 297.133 Q385.583 298.73 384.976 300.171 Q384.385 301.595 382.805 303.539 Q382.371 304.042 380.045 306.456 Q377.719 308.851 373.483 313.174 Z" fill="#000000" fill-rule="evenodd" fill-opacity="1" /><path clip-path="url(#clip370)" d="M 0 0 M393.691 313.174 L399.42 313.174 L399.42 293.4 L393.187 294.65 L393.187 291.456 L399.385 290.206 L402.892 290.206 L402.892 313.174 L408.621 313.174 L408.621 316.126 L393.691 316.126 L393.691 313.174 Z" fill="#000000" fill-rule="evenodd" fill-opacity="1" /><path clip-path="url(#clip370)" d="M 0 0 M167.931 374.248 Q170.449 374.787 171.855 376.488 Q173.278 378.189 173.278 380.689 Q173.278 384.526 170.64 386.627 Q168.001 388.727 163.14 388.727 Q161.508 388.727 159.772 388.398 Q158.053 388.085 156.213 387.443 L156.213 384.057 Q157.671 384.908 159.407 385.342 Q161.143 385.776 163.035 385.776 Q166.334 385.776 168.053 384.474 Q169.789 383.172 169.789 380.689 Q169.789 378.398 168.174 377.113 Q166.577 375.811 163.713 375.811 L160.692 375.811 L160.692 372.929 L163.851 372.929 Q166.438 372.929 167.81 371.905 Q169.181 370.863 169.181 368.919 Q169.181 366.922 167.758 365.863 Q166.351 364.787 163.713 364.787 Q162.272 364.787 160.622 365.099 Q158.973 365.412 156.994 366.071 L156.994 362.946 Q158.99 362.391 160.726 362.113 Q162.48 361.835 164.025 361.835 Q168.018 361.835 170.344 363.658 Q172.671 365.464 172.671 368.554 Q172.671 370.707 171.438 372.2 Q170.206 373.675 167.931 374.248 Z" fill="#000000" fill-rule="evenodd" fill-opacity="1" /><path clip-path="url(#clip370)" d="M 0 0 M189.563 365.36 L180.709 379.196 L189.563 379.196 L189.563 365.36 M188.643 362.304 L193.053 362.304 L193.053 379.196 L196.751 379.196 L196.751 382.113 L193.053 382.113 L193.053 388.224 L189.563 388.224 L189.563 382.113 L177.862 382.113 L177.862 378.728 L188.643 362.304 Z" fill="#000000" fill-rule="evenodd" fill-opacity="1" /><path clip-path="url(#clip370)" d="M 0 0 M125.321 302.15 Q127.838 302.688 129.245 304.39 Q130.668 306.091 130.668 308.591 Q130.668 312.428 128.029 314.528 Q125.39 316.629 120.529 316.629 Q118.897 316.629 117.161 316.299 Q115.443 315.987 113.602 315.344 L113.602 311.959 Q115.061 312.81 116.797 313.244 Q118.533 313.678 120.425 313.678 Q123.724 313.678 125.443 312.376 Q127.179 311.074 127.179 308.591 Q127.179 306.299 125.564 305.015 Q123.967 303.713 121.102 303.713 L118.082 303.713 L118.082 300.831 L121.241 300.831 Q123.828 300.831 125.2 299.806 Q126.571 298.765 126.571 296.82 Q126.571 294.824 125.147 293.765 Q123.741 292.688 121.102 292.688 Q119.661 292.688 118.012 293.001 Q116.363 293.313 114.384 293.973 L114.384 290.848 Q116.38 290.292 118.116 290.015 Q119.87 289.737 121.415 289.737 Q125.408 289.737 127.734 291.56 Q130.061 293.365 130.061 296.456 Q130.061 298.608 128.828 300.101 Q127.595 301.577 125.321 302.15 Z" fill="#000000" fill-rule="evenodd" fill-opacity="1" /><path clip-path="url(#clip370)" d="M 0 0 M137.352 290.206 L151.12 290.206 L151.12 293.157 L140.564 293.157 L140.564 299.511 Q141.328 299.251 142.092 299.129 Q142.856 298.99 143.62 298.99 Q147.96 298.99 150.495 301.369 Q153.029 303.747 153.029 307.81 Q153.029 311.994 150.425 314.32 Q147.821 316.629 143.081 316.629 Q141.449 316.629 139.748 316.351 Q138.064 316.074 136.258 315.518 L136.258 311.994 Q137.821 312.844 139.488 313.261 Q141.154 313.678 143.012 313.678 Q146.015 313.678 147.769 312.098 Q149.522 310.518 149.522 307.81 Q149.522 305.101 147.769 303.522 Q146.015 301.942 143.012 301.942 Q141.606 301.942 140.199 302.254 Q138.811 302.567 137.352 303.226 L137.352 290.206 Z" fill="#000000" fill-rule="evenodd" fill-opacity="1" /><path clip-path="url(#clip370)" d="M 0 0 M210.542 302.15 Q213.059 302.688 214.465 304.39 Q215.889 306.091 215.889 308.591 Q215.889 312.428 213.25 314.528 Q210.611 316.629 205.75 316.629 Q204.118 316.629 202.382 316.299 Q200.663 315.987 198.823 315.344 L198.823 311.959 Q200.281 312.81 202.017 313.244 Q203.753 313.678 205.646 313.678 Q208.944 313.678 210.663 312.376 Q212.399 311.074 212.399 308.591 Q212.399 306.299 210.785 305.015 Q209.187 303.713 206.323 303.713 L203.302 303.713 L203.302 300.831 L206.462 300.831 Q209.048 300.831 210.42 299.806 Q211.792 298.765 211.792 296.82 Q211.792 294.824 210.368 293.765 Q208.962 292.688 206.323 292.688 Q204.882 292.688 203.233 293.001 Q201.583 293.313 199.604 293.973 L199.604 290.848 Q201.601 290.292 203.337 290.015 Q205.09 289.737 206.635 289.737 Q210.628 289.737 212.955 291.56 Q215.281 293.365 215.281 296.456 Q215.281 298.608 214.048 300.101 Q212.816 301.577 210.542 302.15 Z" fill="#000000" fill-rule="evenodd" fill-opacity="1" /><path clip-path="url(#clip370)" d="M 0 0 M230.472 301.768 Q228.111 301.768 226.722 303.383 Q225.35 304.997 225.35 307.81 Q225.35 310.605 226.722 312.237 Q228.111 313.851 230.472 313.851 Q232.833 313.851 234.205 312.237 Q235.593 310.605 235.593 307.81 Q235.593 304.997 234.205 303.383 Q232.833 301.768 230.472 301.768 M237.434 290.779 L237.434 293.973 Q236.114 293.348 234.76 293.018 Q233.423 292.688 232.104 292.688 Q228.632 292.688 226.791 295.032 Q224.969 297.376 224.708 302.115 Q225.732 300.605 227.278 299.806 Q228.823 298.99 230.68 298.99 Q234.587 298.99 236.843 301.369 Q239.118 303.73 239.118 307.81 Q239.118 311.803 236.757 314.216 Q234.396 316.629 230.472 316.629 Q225.975 316.629 223.597 313.192 Q221.219 309.737 221.219 303.192 Q221.219 297.046 224.135 293.4 Q227.052 289.737 231.965 289.737 Q233.284 289.737 234.621 289.997 Q235.975 290.258 237.434 290.779 Z" fill="#000000" fill-rule="evenodd" fill-opacity="1" /><circle clip-path="url(#clip372)" cx="752.756" cy="540.197" r="14" fill="#0000ff" fill-rule="evenodd" fill-opacity="1" stroke="none"/>
<circle clip-path="url(#clip372)" cx="710.146" cy="468.098" r="14" fill="#0000ff" fill-rule="evenodd" fill-opacity="1" stroke="none"/>
<circle clip-path="url(#clip372)" cx="667.535" cy="396" r="14" fill="#0000ff" fill-rule="evenodd" fill-opacity="1" stroke="none"/>
<circle clip-path="url(#clip372)" cx="624.925" cy="323.902" r="14" fill="#0000ff" fill-rule="evenodd" fill-opacity="1" stroke="none"/>
<circle clip-path="url(#clip372)" cx="710.146" cy="323.902" r="14" fill="#0000ff" fill-rule="evenodd" fill-opacity="1" stroke="none"/>
<path clip-path="url(#clip370)" d="M 0 0 M753.259 529.469 L758.989 529.469 L758.989 509.695 L752.756 510.945 L752.756 507.751 L758.954 506.501 L762.461 506.501 L762.461 529.469 L768.19 529.469 L768.19 532.421 L753.259 532.421 L753.259 529.469 Z" fill="#000000" fill-rule="evenodd" fill-opacity="1" /><path clip-path="url(#clip370)" d="M 0 0 M785.898 518.445 Q788.415 518.983 789.822 520.685 Q791.245 522.386 791.245 524.886 Q791.245 528.723 788.606 530.823 Q785.968 532.924 781.106 532.924 Q779.475 532.924 777.738 532.594 Q776.02 532.282 774.179 531.639 L774.179 528.254 Q775.638 529.105 777.374 529.539 Q779.11 529.973 781.002 529.973 Q784.301 529.973 786.02 528.671 Q787.756 527.369 787.756 524.886 Q787.756 522.594 786.141 521.31 Q784.544 520.008 781.679 520.008 L778.659 520.008 L778.659 517.126 L781.818 517.126 Q784.405 517.126 785.777 516.101 Q787.148 515.06 787.148 513.115 Q787.148 511.119 785.724 510.06 Q784.318 508.983 781.679 508.983 Q780.238 508.983 778.589 509.296 Q776.94 509.608 774.961 510.268 L774.961 507.143 Q776.957 506.587 778.693 506.31 Q780.447 506.032 781.992 506.032 Q785.985 506.032 788.311 507.855 Q790.638 509.66 790.638 512.751 Q790.638 514.903 789.405 516.396 Q788.172 517.872 785.898 518.445 Z" fill="#000000" fill-rule="evenodd" fill-opacity="1" /><path clip-path="url(#clip370)" d="M 0 0 M710.649 457.371 L716.378 457.371 L716.378 437.597 L710.146 438.847 L710.146 435.652 L716.344 434.402 L719.85 434.402 L719.85 457.371 L725.58 457.371 L725.58 460.322 L710.649 460.322 L710.649 457.371 Z" fill="#000000" fill-rule="evenodd" fill-opacity="1" /><path clip-path="url(#clip370)" d="M 0 0 M742.298 437.458 L733.444 451.295 L742.298 451.295 L742.298 437.458 M741.378 434.402 L745.788 434.402 L745.788 451.295 L749.486 451.295 L749.486 454.211 L745.788 454.211 L745.788 460.322 L742.298 460.322 L742.298 454.211 L730.597 454.211 L730.597 450.826 L741.378 434.402 Z" fill="#000000" fill-rule="evenodd" fill-opacity="1" /><path clip-path="url(#clip370)" d="M 0 0 M671.754 385.273 L683.994 385.273 L683.994 388.224 L667.535 388.224 L667.535 385.273 Q669.532 383.207 672.969 379.734 Q676.424 376.245 677.31 375.238 Q678.994 373.346 679.653 372.044 Q680.331 370.724 680.331 369.457 Q680.331 367.391 678.872 366.089 Q677.431 364.787 675.105 364.787 Q673.456 364.787 671.615 365.36 Q669.792 365.932 667.709 367.096 L667.709 363.554 Q669.827 362.703 671.667 362.269 Q673.508 361.835 675.035 361.835 Q679.063 361.835 681.459 363.849 Q683.855 365.863 683.855 369.231 Q683.855 370.828 683.247 372.269 Q682.657 373.693 681.077 375.637 Q680.643 376.141 678.317 378.554 Q675.99 380.95 671.754 385.273 Z" fill="#000000" fill-rule="evenodd" fill-opacity="1" /><path clip-path="url(#clip370)" d="M 0 0 M691.389 362.304 L705.157 362.304 L705.157 365.255 L694.601 365.255 L694.601 371.61 Q695.365 371.349 696.129 371.228 Q696.893 371.089 697.657 371.089 Q701.997 371.089 704.532 373.467 Q707.066 375.846 707.066 379.908 Q707.066 384.092 704.462 386.418 Q701.858 388.727 697.119 388.727 Q695.487 388.727 693.785 388.45 Q692.101 388.172 690.296 387.616 L690.296 384.092 Q691.858 384.943 693.525 385.359 Q695.192 385.776 697.049 385.776 Q700.053 385.776 701.806 384.196 Q703.56 382.616 703.56 379.908 Q703.56 377.2 701.806 375.62 Q700.053 374.04 697.049 374.04 Q695.643 374.04 694.237 374.353 Q692.848 374.665 691.389 375.325 L691.389 362.304 Z" fill="#000000" fill-rule="evenodd" fill-opacity="1" /><path clip-path="url(#clip370)" d="M 0 0 M629.144 313.174 L641.383 313.174 L641.383 316.126 L624.925 316.126 L624.925 313.174 Q626.922 311.108 630.359 307.636 Q633.814 304.147 634.699 303.14 Q636.383 301.247 637.043 299.945 Q637.72 298.626 637.72 297.358 Q637.72 295.292 636.262 293.99 Q634.821 292.688 632.495 292.688 Q630.845 292.688 629.005 293.261 Q627.182 293.834 625.099 294.997 L625.099 291.456 Q627.217 290.605 629.057 290.171 Q630.897 289.737 632.425 289.737 Q636.453 289.737 638.849 291.751 Q641.245 293.765 641.245 297.133 Q641.245 298.73 640.637 300.171 Q640.047 301.595 638.467 303.539 Q638.033 304.042 635.706 306.456 Q633.38 308.851 629.144 313.174 Z" fill="#000000" fill-rule="evenodd" fill-opacity="1" /><path clip-path="url(#clip370)" d="M 0 0 M656.678 301.768 Q654.317 301.768 652.929 303.383 Q651.557 304.997 651.557 307.81 Q651.557 310.605 652.929 312.237 Q654.317 313.851 656.678 313.851 Q659.04 313.851 660.411 312.237 Q661.8 310.605 661.8 307.81 Q661.8 304.997 660.411 303.383 Q659.04 301.768 656.678 301.768 M663.64 290.779 L663.64 293.973 Q662.321 293.348 660.967 293.018 Q659.63 292.688 658.31 292.688 Q654.838 292.688 652.998 295.032 Q651.175 297.376 650.915 302.115 Q651.939 300.605 653.484 299.806 Q655.029 298.99 656.887 298.99 Q660.793 298.99 663.05 301.369 Q665.324 303.73 665.324 307.81 Q665.324 311.803 662.963 314.216 Q660.602 316.629 656.678 316.629 Q652.182 316.629 649.804 313.192 Q647.425 309.737 647.425 303.192 Q647.425 297.046 650.342 293.4 Q653.258 289.737 658.172 289.737 Q659.491 289.737 660.828 289.997 Q662.182 290.258 663.64 290.779 Z" fill="#000000" fill-rule="evenodd" fill-opacity="1" /><path clip-path="url(#clip370)" d="M 0 0 M714.364 313.174 L726.604 313.174 L726.604 316.126 L710.146 316.126 L710.146 313.174 Q712.142 311.108 715.58 307.636 Q719.035 304.147 719.92 303.14 Q721.604 301.247 722.264 299.945 Q722.941 298.626 722.941 297.358 Q722.941 295.292 721.482 293.99 Q720.041 292.688 717.715 292.688 Q716.066 292.688 714.226 293.261 Q712.403 293.834 710.319 294.997 L710.319 291.456 Q712.437 290.605 714.278 290.171 Q716.118 289.737 717.646 289.737 Q721.673 289.737 724.069 291.751 Q726.465 293.765 726.465 297.133 Q726.465 298.73 725.857 300.171 Q725.267 301.595 723.687 303.539 Q723.253 304.042 720.927 306.456 Q718.6 308.851 714.364 313.174 Z" fill="#000000" fill-rule="evenodd" fill-opacity="1" /><path clip-path="url(#clip370)" d="M 0 0 M733.08 290.206 L749.746 290.206 L749.746 291.699 L740.336 316.126 L736.673 316.126 L745.527 293.157 L733.08 293.157 L733.08 290.206 Z" fill="#000000" fill-rule="evenodd" fill-opacity="1" /><circle clip-path="url(#clip372)" cx="582.315" cy="251.803" r="14" fill="#0000ff" fill-rule="evenodd" fill-opacity="1" stroke="none"/>
<circle clip-path="url(#clip372)" cx="539.705" cy="179.705" r="14" fill="#0000ff" fill-rule="evenodd" fill-opacity="1" stroke="none"/>
<circle clip-path="url(#clip372)" cx="624.925" cy="179.705" r="14" fill="#0000ff" fill-rule="evenodd" fill-opacity="1" stroke="none"/>
<circle clip-path="url(#clip372)" cx="752.756" cy="251.803" r="14" fill="#0000ff" fill-rule="evenodd" fill-opacity="1" stroke="none"/>
<circle clip-path="url(#clip372)" cx="710.146" cy="179.705" r="14" fill="#0000ff" fill-rule="evenodd" fill-opacity="1" stroke="none"/>
<circle clip-path="url(#clip372)" cx="241.433" cy="251.803" r="14" fill="#0000ff" fill-rule="evenodd" fill-opacity="1" stroke="none"/>
<circle clip-path="url(#clip372)" cx="198.823" cy="179.705" r="14" fill="#0000ff" fill-rule="evenodd" fill-opacity="1" stroke="none"/>
<circle clip-path="url(#clip372)" cx="284.043" cy="179.705" r="14" fill="#0000ff" fill-rule="evenodd" fill-opacity="1" stroke="none"/>
<circle clip-path="url(#clip372)" cx="411.874" cy="251.803" r="14" fill="#0000ff" fill-rule="evenodd" fill-opacity="1" stroke="none"/>
<circle clip-path="url(#clip372)" cx="369.264" cy="179.705" r="14" fill="#0000ff" fill-rule="evenodd" fill-opacity="1" stroke="none"/>
<circle clip-path="url(#clip372)" cx="454.484" cy="179.705" r="14" fill="#0000ff" fill-rule="evenodd" fill-opacity="1" stroke="none"/>
<circle clip-path="url(#clip372)" cx="497.094" cy="396" r="14" fill="#0000ff" fill-rule="evenodd" fill-opacity="1" stroke="none"/>
<circle clip-path="url(#clip372)" cx="454.484" cy="323.902" r="14" fill="#0000ff" fill-rule="evenodd" fill-opacity="1" stroke="none"/>
<circle clip-path="url(#clip372)" cx="539.705" cy="323.902" r="14" fill="#0000ff" fill-rule="evenodd" fill-opacity="1" stroke="none"/>
<circle clip-path="url(#clip372)" cx="156.213" cy="107.607" r="14" fill="#0000ff" fill-rule="evenodd" fill-opacity="1" stroke="none"/>
<circle clip-path="url(#clip372)" cx="326.654" cy="107.607" r="14" fill="#0000ff" fill-rule="evenodd" fill-opacity="1" stroke="none"/>
<circle clip-path="url(#clip372)" cx="497.094" cy="107.607" r="14" fill="#0000ff" fill-rule="evenodd" fill-opacity="1" stroke="none"/>
<circle clip-path="url(#clip372)" cx="667.535" cy="107.607" r="14" fill="#0000ff" fill-rule="evenodd" fill-opacity="1" stroke="none"/>
<path clip-path="url(#clip370)" d="M 0 0 M582.818 241.076 L588.548 241.076 L588.548 221.302 L582.315 222.552 L582.315 219.357 L588.513 218.107 L592.02 218.107 L592.02 241.076 L597.749 241.076 L597.749 244.027 L582.818 244.027 L582.818 241.076 Z" fill="#000000" fill-rule="evenodd" fill-opacity="1" /><path clip-path="url(#clip370)" d="M 0 0 M543.923 168.978 L556.163 168.978 L556.163 171.929 L539.705 171.929 L539.705 168.978 Q541.701 166.912 545.139 163.44 Q548.594 159.95 549.479 158.943 Q551.163 157.051 551.823 155.749 Q552.5 154.429 552.5 153.162 Q552.5 151.096 551.041 149.794 Q549.601 148.492 547.274 148.492 Q545.625 148.492 543.785 149.065 Q541.962 149.637 539.878 150.801 L539.878 147.259 Q541.996 146.408 543.837 145.974 Q545.677 145.54 547.205 145.54 Q551.232 145.54 553.628 147.554 Q556.024 149.568 556.024 152.936 Q556.024 154.533 555.416 155.974 Q554.826 157.398 553.246 159.342 Q552.812 159.846 550.486 162.259 Q548.16 164.655 543.923 168.978 Z" fill="#000000" fill-rule="evenodd" fill-opacity="1" /><path clip-path="url(#clip370)" d="M 0 0 M636.644 157.953 Q639.161 158.492 640.567 160.193 Q641.991 161.894 641.991 164.394 Q641.991 168.231 639.352 170.332 Q636.713 172.433 631.852 172.433 Q630.22 172.433 628.484 172.103 Q626.765 171.79 624.925 171.148 L624.925 167.762 Q626.384 168.613 628.12 169.047 Q629.856 169.481 631.748 169.481 Q635.047 169.481 636.765 168.179 Q638.502 166.877 638.502 164.394 Q638.502 162.103 636.887 160.818 Q635.29 159.516 632.425 159.516 L629.404 159.516 L629.404 156.634 L632.564 156.634 Q635.151 156.634 636.522 155.61 Q637.894 154.568 637.894 152.624 Q637.894 150.627 636.47 149.568 Q635.064 148.492 632.425 148.492 Q630.984 148.492 629.335 148.804 Q627.686 149.117 625.706 149.776 L625.706 146.651 Q627.703 146.096 629.439 145.818 Q631.193 145.54 632.738 145.54 Q636.731 145.54 639.057 147.363 Q641.383 149.169 641.383 152.259 Q641.383 154.412 640.151 155.905 Q638.918 157.381 636.644 157.953 Z" fill="#000000" fill-rule="evenodd" fill-opacity="1" /><path clip-path="url(#clip370)" d="M 0 0 M764.457 221.163 L755.603 235 L764.457 235 L764.457 221.163 M763.537 218.107 L767.947 218.107 L767.947 235 L771.645 235 L771.645 237.916 L767.947 237.916 L767.947 244.027 L764.457 244.027 L764.457 237.916 L752.756 237.916 L752.756 234.531 L763.537 218.107 Z" fill="#000000" fill-rule="evenodd" fill-opacity="1" /><path clip-path="url(#clip370)" d="M 0 0 M711.239 146.009 L725.007 146.009 L725.007 148.96 L714.451 148.96 L714.451 155.315 Q715.215 155.054 715.979 154.933 Q716.743 154.794 717.507 154.794 Q721.847 154.794 724.382 157.172 Q726.916 159.551 726.916 163.613 Q726.916 167.797 724.312 170.123 Q721.708 172.433 716.969 172.433 Q715.337 172.433 713.635 172.155 Q711.951 171.877 710.146 171.321 L710.146 167.797 Q711.708 168.648 713.375 169.064 Q715.041 169.481 716.899 169.481 Q719.903 169.481 721.656 167.901 Q723.409 166.321 723.409 163.613 Q723.409 160.905 721.656 159.325 Q719.903 157.745 716.899 157.745 Q715.493 157.745 714.087 158.058 Q712.698 158.37 711.239 159.03 L711.239 146.009 Z" fill="#000000" fill-rule="evenodd" fill-opacity="1" /><path clip-path="url(#clip370)" d="M 0 0 M241.937 241.076 L247.666 241.076 L247.666 221.302 L241.433 222.552 L241.433 219.357 L247.631 218.107 L251.138 218.107 L251.138 241.076 L256.867 241.076 L256.867 244.027 L241.937 244.027 L241.937 241.076 Z" fill="#000000" fill-rule="evenodd" fill-opacity="1" /><path clip-path="url(#clip370)" d="M 0 0 M274.575 230.052 Q277.093 230.59 278.499 232.291 Q279.922 233.993 279.922 236.493 Q279.922 240.329 277.284 242.43 Q274.645 244.531 269.784 244.531 Q268.152 244.531 266.416 244.201 Q264.697 243.888 262.857 243.246 L262.857 239.861 Q264.315 240.711 266.051 241.145 Q267.787 241.579 269.679 241.579 Q272.978 241.579 274.697 240.277 Q276.433 238.975 276.433 236.493 Q276.433 234.201 274.818 232.916 Q273.221 231.614 270.357 231.614 L267.336 231.614 L267.336 228.732 L270.495 228.732 Q273.082 228.732 274.454 227.708 Q275.825 226.666 275.825 224.722 Q275.825 222.725 274.402 221.666 Q272.995 220.59 270.357 220.59 Q268.916 220.59 267.266 220.902 Q265.617 221.215 263.638 221.875 L263.638 218.75 Q265.634 218.194 267.37 217.916 Q269.124 217.639 270.669 217.639 Q274.662 217.639 276.988 219.462 Q279.315 221.267 279.315 224.357 Q279.315 226.51 278.082 228.003 Q276.85 229.479 274.575 230.052 Z" fill="#000000" fill-rule="evenodd" fill-opacity="1" /><path clip-path="url(#clip370)" d="M 0 0 M199.326 168.978 L205.055 168.978 L205.055 149.203 L198.823 150.453 L198.823 147.259 L205.021 146.009 L208.528 146.009 L208.528 168.978 L214.257 168.978 L214.257 171.929 L199.326 171.929 L199.326 168.978 Z" fill="#000000" fill-rule="evenodd" fill-opacity="1" /><path clip-path="url(#clip370)" d="M 0 0 M230.975 149.065 L222.121 162.901 L230.975 162.901 L230.975 149.065 M230.055 146.009 L234.465 146.009 L234.465 162.901 L238.163 162.901 L238.163 165.818 L234.465 165.818 L234.465 171.929 L230.975 171.929 L230.975 165.818 L219.274 165.818 L219.274 162.433 L230.055 146.009 Z" fill="#000000" fill-rule="evenodd" fill-opacity="1" /><path clip-path="url(#clip370)" d="M 0 0 M284.547 168.978 L290.276 168.978 L290.276 149.203 L284.043 150.453 L284.043 147.259 L290.241 146.009 L293.748 146.009 L293.748 168.978 L299.477 168.978 L299.477 171.929 L284.547 171.929 L284.547 168.978 Z" fill="#000000" fill-rule="evenodd" fill-opacity="1" /><path clip-path="url(#clip370)" d="M 0 0 M306.595 146.009 L320.363 146.009 L320.363 148.96 L309.807 148.96 L309.807 155.315 Q310.571 155.054 311.335 154.933 Q312.099 154.794 312.863 154.794 Q317.203 154.794 319.738 157.172 Q322.272 159.551 322.272 163.613 Q322.272 167.797 319.668 170.123 Q317.064 172.433 312.324 172.433 Q310.692 172.433 308.991 172.155 Q307.307 171.877 305.502 171.321 L305.502 167.797 Q307.064 168.648 308.731 169.064 Q310.397 169.481 312.255 169.481 Q315.258 169.481 317.012 167.901 Q318.765 166.321 318.765 163.613 Q318.765 160.905 317.012 159.325 Q315.258 157.745 312.255 157.745 Q310.849 157.745 309.442 158.058 Q308.054 158.37 306.595 159.03 L306.595 146.009 Z" fill="#000000" fill-rule="evenodd" fill-opacity="1" /><path clip-path="url(#clip370)" d="M 0 0 M412.377 241.076 L418.107 241.076 L418.107 221.302 L411.874 222.552 L411.874 219.357 L418.072 218.107 L421.579 218.107 L421.579 241.076 L427.308 241.076 L427.308 244.027 L412.377 244.027 L412.377 241.076 Z" fill="#000000" fill-rule="evenodd" fill-opacity="1" /><path clip-path="url(#clip370)" d="M 0 0 M442.325 229.67 Q439.964 229.67 438.575 231.284 Q437.204 232.899 437.204 235.711 Q437.204 238.507 438.575 240.138 Q439.964 241.753 442.325 241.753 Q444.686 241.753 446.058 240.138 Q447.447 238.507 447.447 235.711 Q447.447 232.899 446.058 231.284 Q444.686 229.67 442.325 229.67 M449.287 218.68 L449.287 221.875 Q447.968 221.25 446.613 220.92 Q445.277 220.59 443.957 220.59 Q440.485 220.59 438.645 222.934 Q436.822 225.277 436.561 230.017 Q437.586 228.507 439.131 227.708 Q440.676 226.892 442.534 226.892 Q446.44 226.892 448.697 229.27 Q450.971 231.632 450.971 235.711 Q450.971 239.704 448.61 242.118 Q446.249 244.531 442.325 244.531 Q437.829 244.531 435.45 241.093 Q433.072 237.639 433.072 231.093 Q433.072 224.948 435.988 221.302 Q438.905 217.639 443.818 217.639 Q445.138 217.639 446.475 217.899 Q447.829 218.159 449.287 218.68 Z" fill="#000000" fill-rule="evenodd" fill-opacity="1" /><path clip-path="url(#clip370)" d="M 0 0 M369.767 168.978 L375.496 168.978 L375.496 149.203 L369.264 150.453 L369.264 147.259 L375.462 146.009 L378.969 146.009 L378.969 168.978 L384.698 168.978 L384.698 171.929 L369.767 171.929 L369.767 168.978 Z" fill="#000000" fill-rule="evenodd" fill-opacity="1" /><path clip-path="url(#clip370)" d="M 0 0 M390.896 146.009 L407.562 146.009 L407.562 147.502 L398.153 171.929 L394.489 171.929 L403.343 148.96 L390.896 148.96 L390.896 146.009 Z" fill="#000000" fill-rule="evenodd" fill-opacity="1" /><path clip-path="url(#clip370)" d="M 0 0 M454.988 168.978 L460.717 168.978 L460.717 149.203 L454.484 150.453 L454.484 147.259 L460.682 146.009 L464.189 146.009 L464.189 168.978 L469.918 168.978 L469.918 171.929 L454.988 171.929 L454.988 168.978 Z" fill="#000000" fill-rule="evenodd" fill-opacity="1" /><path clip-path="url(#clip370)" d="M 0 0 M484.501 159.62 Q482.001 159.62 480.561 160.957 Q479.137 162.294 479.137 164.637 Q479.137 166.981 480.561 168.318 Q482.001 169.655 484.501 169.655 Q487.001 169.655 488.442 168.318 Q489.883 166.964 489.883 164.637 Q489.883 162.294 488.442 160.957 Q487.019 159.62 484.501 159.62 M480.995 158.127 Q478.738 157.571 477.47 156.026 Q476.22 154.481 476.22 152.259 Q476.22 149.151 478.425 147.346 Q480.647 145.54 484.501 145.54 Q488.373 145.54 490.578 147.346 Q492.783 149.151 492.783 152.259 Q492.783 154.481 491.515 156.026 Q490.265 157.571 488.026 158.127 Q490.56 158.717 491.967 160.436 Q493.39 162.155 493.39 164.637 Q493.39 168.405 491.081 170.419 Q488.79 172.433 484.501 172.433 Q480.213 172.433 477.904 170.419 Q475.613 168.405 475.613 164.637 Q475.613 162.155 477.036 160.436 Q478.46 158.717 480.995 158.127 M479.71 152.589 Q479.71 154.603 480.96 155.731 Q482.227 156.86 484.501 156.86 Q486.758 156.86 488.026 155.731 Q489.31 154.603 489.31 152.589 Q489.31 150.575 488.026 149.447 Q486.758 148.318 484.501 148.318 Q482.227 148.318 480.96 149.447 Q479.71 150.575 479.71 152.589 Z" fill="#000000" fill-rule="evenodd" fill-opacity="1" /><path clip-path="url(#clip370)" d="M 0 0 M501.313 385.273 L513.553 385.273 L513.553 388.224 L497.094 388.224 L497.094 385.273 Q499.091 383.207 502.528 379.734 Q505.983 376.245 506.869 375.238 Q508.553 373.346 509.212 372.044 Q509.89 370.724 509.89 369.457 Q509.89 367.391 508.431 366.089 Q506.99 364.787 504.664 364.787 Q503.015 364.787 501.174 365.36 Q499.351 365.932 497.268 367.096 L497.268 363.554 Q499.386 362.703 501.226 362.269 Q503.067 361.835 504.594 361.835 Q508.622 361.835 511.018 363.849 Q513.414 365.863 513.414 369.231 Q513.414 370.828 512.806 372.269 Q512.216 373.693 510.636 375.637 Q510.202 376.141 507.876 378.554 Q505.549 380.95 501.313 385.273 Z" fill="#000000" fill-rule="evenodd" fill-opacity="1" /><path clip-path="url(#clip370)" d="M 0 0 M523.935 385.273 L536.174 385.273 L536.174 388.224 L519.716 388.224 L519.716 385.273 Q521.712 383.207 525.15 379.734 Q528.605 376.245 529.49 375.238 Q531.174 373.346 531.834 372.044 Q532.511 370.724 532.511 369.457 Q532.511 367.391 531.053 366.089 Q529.612 364.787 527.285 364.787 Q525.636 364.787 523.796 365.36 Q521.973 365.932 519.89 367.096 L519.89 363.554 Q522.008 362.703 523.848 362.269 Q525.688 361.835 527.216 361.835 Q531.244 361.835 533.639 363.849 Q536.035 365.863 536.035 369.231 Q536.035 370.828 535.428 372.269 Q534.837 373.693 533.257 375.637 Q532.823 376.141 530.497 378.554 Q528.171 380.95 523.935 385.273 Z" fill="#000000" fill-rule="evenodd" fill-opacity="1" /><path clip-path="url(#clip370)" d="M 0 0 M458.703 313.174 L470.942 313.174 L470.942 316.126 L454.484 316.126 L454.484 313.174 Q456.481 311.108 459.918 307.636 Q463.373 304.147 464.259 303.14 Q465.943 301.247 466.602 299.945 Q467.279 298.626 467.279 297.358 Q467.279 295.292 465.821 293.99 Q464.38 292.688 462.054 292.688 Q460.404 292.688 458.564 293.261 Q456.741 293.834 454.658 294.997 L454.658 291.456 Q456.776 290.605 458.616 290.171 Q460.456 289.737 461.984 289.737 Q466.012 289.737 468.408 291.751 Q470.804 293.765 470.804 297.133 Q470.804 298.73 470.196 300.171 Q469.606 301.595 468.026 303.539 Q467.592 304.042 465.265 306.456 Q462.939 308.851 458.703 313.174 Z" fill="#000000" fill-rule="evenodd" fill-opacity="1" /><path clip-path="url(#clip370)" d="M 0 0 M488.929 302.15 Q491.446 302.688 492.852 304.39 Q494.276 306.091 494.276 308.591 Q494.276 312.428 491.637 314.528 Q488.998 316.629 484.137 316.629 Q482.505 316.629 480.769 316.299 Q479.05 315.987 477.21 315.344 L477.21 311.959 Q478.668 312.81 480.404 313.244 Q482.14 313.678 484.033 313.678 Q487.331 313.678 489.05 312.376 Q490.786 311.074 490.786 308.591 Q490.786 306.299 489.172 305.015 Q487.574 303.713 484.71 303.713 L481.689 303.713 L481.689 300.831 L484.849 300.831 Q487.435 300.831 488.807 299.806 Q490.179 298.765 490.179 296.82 Q490.179 294.824 488.755 293.765 Q487.349 292.688 484.71 292.688 Q483.269 292.688 481.62 293.001 Q479.97 293.313 477.991 293.973 L477.991 290.848 Q479.988 290.292 481.724 290.015 Q483.477 289.737 485.022 289.737 Q489.015 289.737 491.342 291.56 Q493.668 293.365 493.668 296.456 Q493.668 298.608 492.435 300.101 Q491.203 301.577 488.929 302.15 Z" fill="#000000" fill-rule="evenodd" fill-opacity="1" /><path clip-path="url(#clip370)" d="M 0 0 M543.923 313.174 L556.163 313.174 L556.163 316.126 L539.705 316.126 L539.705 313.174 Q541.701 311.108 545.139 307.636 Q548.594 304.147 549.479 303.14 Q551.163 301.247 551.823 299.945 Q552.5 298.626 552.5 297.358 Q552.5 295.292 551.041 293.99 Q549.601 292.688 547.274 292.688 Q545.625 292.688 543.785 293.261 Q541.962 293.834 539.878 294.997 L539.878 291.456 Q541.996 290.605 543.837 290.171 Q545.677 289.737 547.205 289.737 Q551.232 289.737 553.628 291.751 Q556.024 293.765 556.024 297.133 Q556.024 298.73 555.416 300.171 Q554.826 301.595 553.246 303.539 Q552.812 304.042 550.486 306.456 Q548.16 308.851 543.923 313.174 Z" fill="#000000" fill-rule="evenodd" fill-opacity="1" /><path clip-path="url(#clip370)" d="M 0 0 M573.159 293.261 L564.305 307.098 L573.159 307.098 L573.159 293.261 M572.239 290.206 L576.649 290.206 L576.649 307.098 L580.347 307.098 L580.347 310.015 L576.649 310.015 L576.649 316.126 L573.159 316.126 L573.159 310.015 L561.458 310.015 L561.458 306.629 L572.239 290.206 Z" fill="#000000" fill-rule="evenodd" fill-opacity="1" /><path clip-path="url(#clip370)" d="M 0 0 M160.431 96.8793 L172.671 96.8793 L172.671 99.8307 L156.213 99.8307 L156.213 96.8793 Q158.209 94.8134 161.647 91.3412 Q165.101 87.8516 165.987 86.8447 Q167.671 84.9523 168.331 83.6503 Q169.008 82.3308 169.008 81.0635 Q169.008 78.9975 167.549 77.6954 Q166.108 76.3933 163.782 76.3933 Q162.133 76.3933 160.292 76.9663 Q158.47 77.5392 156.386 78.7024 L156.386 75.1607 Q158.504 74.31 160.345 73.876 Q162.185 73.442 163.713 73.442 Q167.74 73.442 170.136 75.4559 Q172.532 77.4697 172.532 80.8378 Q172.532 82.435 171.924 83.8759 Q171.334 85.2995 169.754 87.244 Q169.32 87.7475 166.994 90.1606 Q164.667 92.5565 160.431 96.8793 Z" fill="#000000" fill-rule="evenodd" fill-opacity="1" /><path clip-path="url(#clip370)" d="M 0 0 M180.067 73.9107 L193.834 73.9107 L193.834 76.8621 L183.278 76.8621 L183.278 83.2162 Q184.042 82.9558 184.806 82.8343 Q185.57 82.6954 186.334 82.6954 Q190.674 82.6954 193.209 85.0739 Q195.744 87.4523 195.744 91.5148 Q195.744 95.6988 193.139 98.0252 Q190.535 100.334 185.796 100.334 Q184.164 100.334 182.462 100.056 Q180.778 99.7786 178.973 99.2231 L178.973 95.6988 Q180.535 96.5495 182.202 96.9662 Q183.869 97.3828 185.726 97.3828 Q188.73 97.3828 190.483 95.803 Q192.237 94.2231 192.237 91.5148 Q192.237 88.8065 190.483 87.2266 Q188.73 85.6468 185.726 85.6468 Q184.32 85.6468 182.914 85.9593 Q181.525 86.2718 180.067 86.9315 L180.067 73.9107 Z" fill="#000000" fill-rule="evenodd" fill-opacity="1" /><path clip-path="url(#clip370)" d="M 0 0 M330.872 96.8793 L343.112 96.8793 L343.112 99.8307 L326.654 99.8307 L326.654 96.8793 Q328.65 94.8134 332.088 91.3412 Q335.542 87.8516 336.428 86.8447 Q338.112 84.9523 338.772 83.6503 Q339.449 82.3308 339.449 81.0635 Q339.449 78.9975 337.99 77.6954 Q336.549 76.3933 334.223 76.3933 Q332.574 76.3933 330.733 76.9663 Q328.91 77.5392 326.827 78.7024 L326.827 75.1607 Q328.945 74.31 330.785 73.876 Q332.626 73.442 334.154 73.442 Q338.181 73.442 340.577 75.4559 Q342.973 77.4697 342.973 80.8378 Q342.973 82.435 342.365 83.8759 Q341.775 85.2995 340.195 87.244 Q339.761 87.7475 337.435 90.1606 Q335.108 92.5565 330.872 96.8793 Z" fill="#000000" fill-rule="evenodd" fill-opacity="1" /><path clip-path="url(#clip370)" d="M 0 0 M357.973 87.5218 Q355.473 87.5218 354.032 88.8586 Q352.608 90.1954 352.608 92.5391 Q352.608 94.8828 354.032 96.2196 Q355.473 97.5564 357.973 97.5564 Q360.473 97.5564 361.914 96.2196 Q363.355 94.8655 363.355 92.5391 Q363.355 90.1954 361.914 88.8586 Q360.49 87.5218 357.973 87.5218 M354.466 86.0287 Q352.209 85.4732 350.942 83.928 Q349.692 82.3829 349.692 80.1607 Q349.692 77.0531 351.896 75.2475 Q354.119 73.442 357.973 73.442 Q361.844 73.442 364.049 75.2475 Q366.254 77.0531 366.254 80.1607 Q366.254 82.3829 364.987 83.928 Q363.737 85.4732 361.497 86.0287 Q364.032 86.619 365.438 88.3377 Q366.862 90.0565 366.862 92.5391 Q366.862 96.3064 364.553 98.3203 Q362.261 100.334 357.973 100.334 Q353.685 100.334 351.376 98.3203 Q349.084 96.3064 349.084 92.5391 Q349.084 90.0565 350.508 88.3377 Q351.931 86.619 354.466 86.0287 M353.181 80.4905 Q353.181 82.5044 354.431 83.6329 Q355.699 84.7614 357.973 84.7614 Q360.23 84.7614 361.497 83.6329 Q362.782 82.5044 362.782 80.4905 Q362.782 78.4767 361.497 77.3482 Q360.23 76.2197 357.973 76.2197 Q355.699 76.2197 354.431 77.3482 Q353.181 78.4767 353.181 80.4905 Z" fill="#000000" fill-rule="evenodd" fill-opacity="1" /><path clip-path="url(#clip370)" d="M 0 0 M508.813 85.8551 Q511.331 86.3933 512.737 88.0947 Q514.16 89.7961 514.16 92.296 Q514.16 96.1328 511.521 98.2335 Q508.883 100.334 504.022 100.334 Q502.39 100.334 500.653 100.004 Q498.935 99.6918 497.094 99.0495 L497.094 95.6641 Q498.553 96.5148 500.289 96.9488 Q502.025 97.3828 503.917 97.3828 Q507.216 97.3828 508.935 96.0807 Q510.671 94.7787 510.671 92.296 Q510.671 90.0044 509.056 88.7197 Q507.459 87.4176 504.594 87.4176 L501.574 87.4176 L501.574 84.5357 L504.733 84.5357 Q507.32 84.5357 508.692 83.5114 Q510.063 82.4697 510.063 80.5253 Q510.063 78.5288 508.64 77.4697 Q507.233 76.3933 504.594 76.3933 Q503.153 76.3933 501.504 76.7058 Q499.855 77.0183 497.876 77.6781 L497.876 74.5531 Q499.872 73.9975 501.608 73.7198 Q503.362 73.442 504.907 73.442 Q508.9 73.442 511.226 75.2649 Q513.553 77.0704 513.553 80.1607 Q513.553 82.3135 512.32 83.8065 Q511.087 85.2822 508.813 85.8551 Z" fill="#000000" fill-rule="evenodd" fill-opacity="1" /><path clip-path="url(#clip370)" d="M 0 0 M521.417 96.8793 L527.146 96.8793 L527.146 77.1051 L520.914 78.3551 L520.914 75.1607 L527.112 73.9107 L530.619 73.9107 L530.619 96.8793 L536.348 96.8793 L536.348 99.8307 L521.417 99.8307 L521.417 96.8793 Z" fill="#000000" fill-rule="evenodd" fill-opacity="1" /><path clip-path="url(#clip370)" d="M 0 0 M679.254 85.8551 Q681.771 86.3933 683.178 88.0947 Q684.601 89.7961 684.601 92.296 Q684.601 96.1328 681.962 98.2335 Q679.324 100.334 674.462 100.334 Q672.831 100.334 671.094 100.004 Q669.376 99.6918 667.535 99.0495 L667.535 95.6641 Q668.994 96.5148 670.73 96.9488 Q672.466 97.3828 674.358 97.3828 Q677.657 97.3828 679.376 96.0807 Q681.112 94.7787 681.112 92.296 Q681.112 90.0044 679.497 88.7197 Q677.9 87.4176 675.035 87.4176 L672.015 87.4176 L672.015 84.5357 L675.174 84.5357 Q677.761 84.5357 679.133 83.5114 Q680.504 82.4697 680.504 80.5253 Q680.504 78.5288 679.081 77.4697 Q677.674 76.3933 675.035 76.3933 Q673.594 76.3933 671.945 76.7058 Q670.296 77.0183 668.317 77.6781 L668.317 74.5531 Q670.313 73.9975 672.049 73.7198 Q673.803 73.442 675.348 73.442 Q679.341 73.442 681.667 75.2649 Q683.994 77.0704 683.994 80.1607 Q683.994 82.3135 682.761 83.8065 Q681.528 85.2822 679.254 85.8551 Z" fill="#000000" fill-rule="evenodd" fill-opacity="1" /><path clip-path="url(#clip370)" d="M 0 0 M700.886 76.9663 L692.032 90.803 L700.886 90.803 L700.886 76.9663 M699.966 73.9107 L704.376 73.9107 L704.376 90.803 L708.073 90.803 L708.073 93.7196 L704.376 93.7196 L704.376 99.8307 L700.886 99.8307 L700.886 93.7196 L689.185 93.7196 L689.185 90.3342 L699.966 73.9107 Z" fill="#000000" fill-rule="evenodd" fill-opacity="1" /></svg>
