<?xml version="1.0" encoding="utf-8"?>
<svg xmlns="http://www.w3.org/2000/svg" xmlns:xlink="http://www.w3.org/1999/xlink" width="200" height="200" viewBox="0 0 800 800">
<defs>
  <clipPath id="clip710">
    <rect x="0" y="0" width="800" height="800"/>
  </clipPath>
</defs>
<path clip-path="url(#clip710)" d="
M0 800 L800 800 L800 0 L0 0  Z
  " fill="#ffffff" fill-rule="evenodd" fill-opacity="1"/>
<defs>
  <clipPath id="clip711">
    <rect x="160" y="80" width="561" height="561"/>
  </clipPath>
</defs>
<path clip-path="url(#clip710)" d="
M70.9921 729.008 L752.756 729.008 L752.756 62.9921 L70.9921 62.9921  Z
  " fill="#ffffff" fill-rule="evenodd" fill-opacity="1"/>
<defs>
  <clipPath id="clip712">
    <rect x="70" y="62" width="683" height="667"/>
  </clipPath>
</defs>
<polyline clip-path="url(#clip710)" style="stroke:#000000; stroke-width:4; stroke-opacity:1; fill:none" points="
  70.9921,729.008 752.756,729.008 
  "/>
<polyline clip-path="url(#clip710)" style="stroke:#000000; stroke-width:4; stroke-opacity:1; fill:none" points="
  70.9921,729.008 70.9921,721.016 
  "/>
<polyline clip-path="url(#clip710)" style="stroke:#000000; stroke-width:4; stroke-opacity:1; fill:none" points="
  241.433,729.008 241.433,721.016 
  "/>
<polyline clip-path="url(#clip710)" style="stroke:#000000; stroke-width:4; stroke-opacity:1; fill:none" points="
  411.874,729.008 411.874,721.016 
  "/>
<polyline clip-path="url(#clip710)" style="stroke:#000000; stroke-width:4; stroke-opacity:1; fill:none" points="
  582.315,729.008 582.315,721.016 
  "/>
<polyline clip-path="url(#clip710)" style="stroke:#000000; stroke-width:4; stroke-opacity:1; fill:none" points="
  752.756,729.008 752.756,721.016 
  "/>
<path clip-path="url(#clip710)" d="M 0 0 M43.446 760.051 L73.1217 760.051 L73.1217 763.986 L43.446 763.986 L43.446 760.051 Z" fill="#000000" fill-rule="evenodd" fill-opacity="1" /><path clip-path="url(#clip710)" d="M 0 0 M82.2189 772.945 L98.5383 772.945 L98.5383 776.88 L76.5939 776.88 L76.5939 772.945 Q79.256 770.19 83.8393 765.56 Q88.4457 760.908 89.6263 759.565 Q91.8716 757.042 92.7513 755.306 Q93.654 753.547 93.654 751.857 Q93.654 749.102 91.7096 747.366 Q89.7883 745.63 86.6865 745.63 Q84.4874 745.63 82.0337 746.394 Q79.6032 747.158 76.8254 748.709 L76.8254 743.987 Q79.6495 742.852 82.1032 742.274 Q84.5569 741.695 86.5939 741.695 Q91.9642 741.695 95.1587 744.38 Q98.3531 747.065 98.3531 751.556 Q98.3531 753.686 97.5429 755.607 Q96.7559 757.505 94.6494 760.098 Q94.0707 760.769 90.9689 763.986 Q87.867 767.181 82.2189 772.945 Z" fill="#000000" fill-rule="evenodd" fill-opacity="1" /><path clip-path="url(#clip710)" d="M 0 0 M213.702 760.051 L243.378 760.051 L243.378 763.986 L213.702 763.986 L213.702 760.051 Z" fill="#000000" fill-rule="evenodd" fill-opacity="1" /><path clip-path="url(#clip710)" d="M 0 0 M249.257 772.945 L256.896 772.945 L256.896 746.579 L248.586 748.246 L248.586 743.987 L256.85 742.32 L261.526 742.32 L261.526 772.945 L269.164 772.945 L269.164 776.88 L249.257 776.88 L249.257 772.945 Z" fill="#000000" fill-rule="evenodd" fill-opacity="1" /><path clip-path="url(#clip710)" d="M 0 0 M411.874 745.399 Q408.263 745.399 406.434 748.963 Q404.629 752.505 404.629 759.635 Q404.629 766.741 406.434 770.306 Q408.263 773.847 411.874 773.847 Q415.508 773.847 417.314 770.306 Q419.142 766.741 419.142 759.635 Q419.142 752.505 417.314 748.963 Q415.508 745.399 411.874 745.399 M411.874 741.695 Q417.684 741.695 420.74 746.301 Q423.818 750.885 423.818 759.635 Q423.818 768.361 420.74 772.968 Q417.684 777.551 411.874 777.551 Q406.064 777.551 402.985 772.968 Q399.93 768.361 399.93 759.635 Q399.93 750.885 402.985 746.301 Q406.064 741.695 411.874 741.695 Z" fill="#000000" fill-rule="evenodd" fill-opacity="1" /><path clip-path="url(#clip710)" d="M 0 0 M572.697 772.945 L580.336 772.945 L580.336 746.579 L572.026 748.246 L572.026 743.987 L580.29 742.32 L584.965 742.32 L584.965 772.945 L592.604 772.945 L592.604 776.88 L572.697 776.88 L572.697 772.945 Z" fill="#000000" fill-rule="evenodd" fill-opacity="1" /><path clip-path="url(#clip710)" d="M 0 0 M747.409 772.945 L763.728 772.945 L763.728 776.88 L741.784 776.88 L741.784 772.945 Q744.446 770.19 749.029 765.56 Q753.636 760.908 754.816 759.565 Q757.061 757.042 757.941 755.306 Q758.844 753.547 758.844 751.857 Q758.844 749.102 756.899 747.366 Q754.978 745.63 751.876 745.63 Q749.677 745.63 747.224 746.394 Q744.793 747.158 742.015 748.709 L742.015 743.987 Q744.839 742.852 747.293 742.274 Q749.747 741.695 751.784 741.695 Q757.154 741.695 760.348 744.38 Q763.543 747.065 763.543 751.556 Q763.543 753.686 762.733 755.607 Q761.946 757.505 759.839 760.098 Q759.261 760.769 756.159 763.986 Q753.057 767.181 747.409 772.945 Z" fill="#000000" fill-rule="evenodd" fill-opacity="1" /><polyline clip-path="url(#clip710)" style="stroke:#000000; stroke-width:4; stroke-opacity:1; fill:none" points="
  70.9921,729.008 70.9921,62.9921 
  "/>
<polyline clip-path="url(#clip710)" style="stroke:#000000; stroke-width:4; stroke-opacity:1; fill:none" points="
  70.9921,729.008 79.1733,729.008 
  "/>
<polyline clip-path="url(#clip710)" style="stroke:#000000; stroke-width:4; stroke-opacity:1; fill:none" points="
  70.9921,562.504 79.1733,562.504 
  "/>
<polyline clip-path="url(#clip710)" style="stroke:#000000; stroke-width:4; stroke-opacity:1; fill:none" points="
  70.9921,396 79.1733,396 
  "/>
<polyline clip-path="url(#clip710)" style="stroke:#000000; stroke-width:4; stroke-opacity:1; fill:none" points="
  70.9921,229.496 79.1733,229.496 
  "/>
<polyline clip-path="url(#clip710)" style="stroke:#000000; stroke-width:4; stroke-opacity:1; fill:none" points="
  70.9921,62.9921 79.1733,62.9921 
  "/>
<path clip-path="url(#clip710)" d="M 0 0 M3.89983 729.459 L33.5756 729.459 L33.5756 733.394 L3.89983 733.394 L3.89983 729.459 Z" fill="#000000" fill-rule="evenodd" fill-opacity="1" /><path clip-path="url(#clip710)" d="M 0 0 M42.6728 742.353 L58.9921 742.353 L58.9921 746.288 L37.0478 746.288 L37.0478 742.353 Q39.7098 739.598 44.2931 734.968 Q48.8996 730.316 50.0801 728.973 Q52.3255 726.45 53.2051 724.714 Q54.1079 722.955 54.1079 721.265 Q54.1079 718.51 52.1635 716.774 Q50.2422 715.038 47.1403 715.038 Q44.9413 715.038 42.4876 715.802 Q40.057 716.566 37.2793 718.117 L37.2793 713.395 Q40.1033 712.26 42.557 711.682 Q45.0107 711.103 47.0477 711.103 Q52.4181 711.103 55.6125 713.788 Q58.8069 716.473 58.8069 720.964 Q58.8069 723.094 57.9968 725.015 Q57.2097 726.913 55.1033 729.506 Q54.5246 730.177 51.4227 733.394 Q48.3209 736.589 42.6728 742.353 Z" fill="#000000" fill-rule="evenodd" fill-opacity="1" /><path clip-path="url(#clip710)" d="M 0 0 M3.52946 562.955 L33.2052 562.955 L33.2052 566.89 L3.52946 566.89 L3.52946 562.955 Z" fill="#000000" fill-rule="evenodd" fill-opacity="1" /><path clip-path="url(#clip710)" d="M 0 0 M39.0848 575.849 L46.7237 575.849 L46.7237 549.483 L38.4135 551.15 L38.4135 546.891 L46.6774 545.224 L51.3533 545.224 L51.3533 575.849 L58.9921 575.849 L58.9921 579.784 L39.0848 579.784 L39.0848 575.849 Z" fill="#000000" fill-rule="evenodd" fill-opacity="1" /><path clip-path="url(#clip710)" d="M 0 0 M47.0477 381.799 Q43.4367 381.799 41.608 385.363 Q39.8024 388.905 39.8024 396.035 Q39.8024 403.141 41.608 406.706 Q43.4367 410.248 47.0477 410.248 Q50.682 410.248 52.4875 406.706 Q54.3162 403.141 54.3162 396.035 Q54.3162 388.905 52.4875 385.363 Q50.682 381.799 47.0477 381.799 M47.0477 378.095 Q52.8579 378.095 55.9134 382.701 Q58.9921 387.285 58.9921 396.035 Q58.9921 404.762 55.9134 409.368 Q52.8579 413.951 47.0477 413.951 Q41.2376 413.951 38.1589 409.368 Q35.1034 404.762 35.1034 396.035 Q35.1034 387.285 38.1589 382.701 Q41.2376 378.095 47.0477 378.095 Z" fill="#000000" fill-rule="evenodd" fill-opacity="1" /><path clip-path="url(#clip710)" d="M 0 0 M39.0848 242.841 L46.7237 242.841 L46.7237 216.475 L38.4135 218.142 L38.4135 213.883 L46.6774 212.216 L51.3533 212.216 L51.3533 242.841 L58.9921 242.841 L58.9921 246.776 L39.0848 246.776 L39.0848 242.841 Z" fill="#000000" fill-rule="evenodd" fill-opacity="1" /><path clip-path="url(#clip710)" d="M 0 0 M42.6728 76.337 L58.9921 76.337 L58.9921 80.2721 L37.0478 80.2721 L37.0478 76.337 Q39.7098 73.5823 44.2931 68.9527 Q48.8996 64.3 50.0801 62.9574 Q52.3255 60.4343 53.2051 58.6982 Q54.1079 56.9389 54.1079 55.2491 Q54.1079 52.4945 52.1635 50.7584 Q50.2422 49.0223 47.1403 49.0223 Q44.9413 49.0223 42.4876 49.7862 Q40.057 50.5501 37.2793 52.101 L37.2793 47.3788 Q40.1033 46.2445 42.557 45.6658 Q45.0107 45.0871 47.0477 45.0871 Q52.4181 45.0871 55.6125 47.7723 Q58.8069 50.4575 58.8069 54.9482 Q58.8069 57.0778 57.9968 58.9991 Q57.2097 60.8972 55.1033 63.4898 Q54.5246 64.1611 51.4227 67.3787 Q48.3209 70.5731 42.6728 76.337 Z" fill="#000000" fill-rule="evenodd" fill-opacity="1" /><path clip-path="url(#clip710)" d="M 0 0 M361.4 5.45367 L371.215 5.45367 L371.215 8.76384 L365.659 8.76384 L365.659 44.4118 L371.215 44.4118 L371.215 47.722 L361.4 47.722 L361.4 5.45367 Z" fill="#000000" fill-rule="evenodd" fill-opacity="1" /><path clip-path="url(#clip710)" d="M 0 0 M377.094 37.5368 L384.733 37.5368 L384.733 11.1712 L376.423 12.8379 L376.423 8.57866 L384.687 6.912 L389.363 6.912 L389.363 37.5368 L397.001 37.5368 L397.001 41.472 L377.094 41.472 L377.094 37.5368 Z" fill="#000000" fill-rule="evenodd" fill-opacity="1" /><path clip-path="url(#clip710)" d="M 0 0 M402.557 35.5924 L407.441 35.5924 L407.441 39.5739 L403.645 46.9812 L400.659 46.9812 L402.557 39.5739 L402.557 35.5924 Z" fill="#000000" fill-rule="evenodd" fill-opacity="1" /><path clip-path="url(#clip710)" d="M 0 0 M431.608 37.5368 L447.927 37.5368 L447.927 41.472 L425.983 41.472 L425.983 37.5368 Q428.645 34.7822 433.228 30.1526 Q437.835 25.4999 439.015 24.1573 Q441.26 21.6341 442.14 19.898 Q443.043 18.1388 443.043 16.449 Q443.043 13.6944 441.098 11.9583 Q439.177 10.2222 436.075 10.2222 Q433.876 10.2222 431.423 10.9861 Q428.992 11.7499 426.214 13.3009 L426.214 8.57866 Q429.038 7.4444 431.492 6.8657 Q433.946 6.287 435.983 6.287 Q441.353 6.287 444.547 8.97217 Q447.742 11.6573 447.742 16.1481 Q447.742 18.2777 446.932 20.199 Q446.145 22.0971 444.038 24.6897 Q443.459 25.361 440.358 28.5786 Q437.256 31.773 431.608 37.5368 Z" fill="#000000" fill-rule="evenodd" fill-opacity="1" /><path clip-path="url(#clip710)" d="M 0 0 M462.348 5.45367 L462.348 47.722 L452.534 47.722 L452.534 44.4118 L458.066 44.4118 L458.066 8.76384 L452.534 8.76384 L452.534 5.45367 L462.348 5.45367 Z" fill="#000000" fill-rule="evenodd" fill-opacity="1" /><circle clip-path="url(#clip712)" cx="497.094" cy="684.393" r="14" fill="#0000ff" fill-rule="evenodd" fill-opacity="1" stroke="none"/>
<circle clip-path="url(#clip712)" cx="454.484" cy="612.295" r="14" fill="#0000ff" fill-rule="evenodd" fill-opacity="1" stroke="none"/>
<circle clip-path="url(#clip712)" cx="539.705" cy="612.295" r="14" fill="#0000ff" fill-rule="evenodd" fill-opacity="1" stroke="none"/>
<circle clip-path="url(#clip712)" cx="667.535" cy="684.393" r="14" fill="#0000ff" fill-rule="evenodd" fill-opacity="1" stroke="none"/>
<circle clip-path="url(#clip712)" cx="624.925" cy="612.295" r="14" fill="#0000ff" fill-rule="evenodd" fill-opacity="1" stroke="none"/>
<circle clip-path="url(#clip712)" cx="710.146" cy="612.295" r="14" fill="#0000ff" fill-rule="evenodd" fill-opacity="1" stroke="none"/>
<circle clip-path="url(#clip712)" cx="156.213" cy="684.393" r="14" fill="#0000ff" fill-rule="evenodd" fill-opacity="1" stroke="none"/>
<circle clip-path="url(#clip712)" cx="113.602" cy="612.295" r="14" fill="#0000ff" fill-rule="evenodd" fill-opacity="1" stroke="none"/>
<circle clip-path="url(#clip712)" cx="198.823" cy="612.295" r="14" fill="#0000ff" fill-rule="evenodd" fill-opacity="1" stroke="none"/>
<circle clip-path="url(#clip712)" cx="326.654" cy="684.393" r="14" fill="#0000ff" fill-rule="evenodd" fill-opacity="1" stroke="none"/>
<circle clip-path="url(#clip712)" cx="284.043" cy="612.295" r="14" fill="#0000ff" fill-rule="evenodd" fill-opacity="1" stroke="none"/>
<circle clip-path="url(#clip712)" cx="369.264" cy="612.295" r="14" fill="#0000ff" fill-rule="evenodd" fill-opacity="1" stroke="none"/>
<circle clip-path="url(#clip712)" cx="411.874" cy="540.197" r="14" fill="#0000ff" fill-rule="evenodd" fill-opacity="1" stroke="none"/>
<circle clip-path="url(#clip712)" cx="369.264" cy="468.098" r="14" fill="#0000ff" fill-rule="evenodd" fill-opacity="1" stroke="none"/>
<circle clip-path="url(#clip712)" cx="454.484" cy="468.098" r="14" fill="#0000ff" fill-rule="evenodd" fill-opacity="1" stroke="none"/>
<circle clip-path="url(#clip712)" cx="582.315" cy="540.197" r="14" fill="#0000ff" fill-rule="evenodd" fill-opacity="1" stroke="none"/>
<circle clip-path="url(#clip712)" cx="539.705" cy="468.098" r="14" fill="#0000ff" fill-rule="evenodd" fill-opacity="1" stroke="none"/>
<circle clip-path="url(#clip712)" cx="624.925" cy="468.098" r="14" fill="#0000ff" fill-rule="evenodd" fill-opacity="1" stroke="none"/>
<path clip-path="url(#clip710)" d="M 0 0 M497.598 673.666 L503.327 673.666 L503.327 653.892 L497.094 655.142 L497.094 651.947 L503.292 650.697 L506.799 650.697 L506.799 673.666 L512.528 673.666 L512.528 676.617 L497.598 676.617 L497.598 673.666 Z" fill="#000000" fill-rule="evenodd" fill-opacity="1" /><path clip-path="url(#clip710)" d="M 0 0 M458.703 601.568 L470.942 601.568 L470.942 604.519 L454.484 604.519 L454.484 601.568 Q456.481 599.502 459.918 596.029 Q463.373 592.54 464.259 591.533 Q465.943 589.641 466.602 588.338 Q467.279 587.019 467.279 585.752 Q467.279 583.686 465.821 582.384 Q464.38 581.082 462.054 581.082 Q460.404 581.082 458.564 581.654 Q456.741 582.227 454.658 583.391 L454.658 579.849 Q456.776 578.998 458.616 578.564 Q460.456 578.13 461.984 578.13 Q466.012 578.13 468.408 580.144 Q470.804 582.158 470.804 585.526 Q470.804 587.123 470.196 588.564 Q469.606 589.988 468.026 591.932 Q467.592 592.436 465.265 594.849 Q462.939 597.245 458.703 601.568 Z" fill="#000000" fill-rule="evenodd" fill-opacity="1" /><path clip-path="url(#clip710)" d="M 0 0 M551.423 590.543 Q553.941 591.082 555.347 592.783 Q556.771 594.484 556.771 596.984 Q556.771 600.821 554.132 602.922 Q551.493 605.022 546.632 605.022 Q545 605.022 543.264 604.693 Q541.545 604.38 539.705 603.738 L539.705 600.352 Q541.163 601.203 542.899 601.637 Q544.635 602.071 546.528 602.071 Q549.826 602.071 551.545 600.769 Q553.281 599.467 553.281 596.984 Q553.281 594.693 551.666 593.408 Q550.069 592.106 547.205 592.106 L544.184 592.106 L544.184 589.224 L547.344 589.224 Q549.93 589.224 551.302 588.2 Q552.673 587.158 552.673 585.214 Q552.673 583.217 551.25 582.158 Q549.844 581.082 547.205 581.082 Q545.764 581.082 544.114 581.394 Q542.465 581.707 540.486 582.366 L540.486 579.241 Q542.482 578.686 544.219 578.408 Q545.972 578.13 547.517 578.13 Q551.51 578.13 553.837 579.953 Q556.163 581.759 556.163 584.849 Q556.163 587.002 554.93 588.495 Q553.698 589.97 551.423 590.543 Z" fill="#000000" fill-rule="evenodd" fill-opacity="1" /><path clip-path="url(#clip710)" d="M 0 0 M679.237 653.753 L670.383 667.59 L679.237 667.59 L679.237 653.753 M678.317 650.697 L682.726 650.697 L682.726 667.59 L686.424 667.59 L686.424 670.506 L682.726 670.506 L682.726 676.617 L679.237 676.617 L679.237 670.506 L667.535 670.506 L667.535 667.121 L678.317 650.697 Z" fill="#000000" fill-rule="evenodd" fill-opacity="1" /><path clip-path="url(#clip710)" d="M 0 0 M626.019 578.599 L639.786 578.599 L639.786 581.55 L629.231 581.55 L629.231 587.904 Q629.995 587.644 630.758 587.523 Q631.522 587.384 632.286 587.384 Q636.627 587.384 639.161 589.762 Q641.696 592.141 641.696 596.203 Q641.696 600.387 639.092 602.713 Q636.488 605.022 631.748 605.022 Q630.116 605.022 628.415 604.745 Q626.731 604.467 624.925 603.911 L624.925 600.387 Q626.488 601.238 628.154 601.654 Q629.821 602.071 631.679 602.071 Q634.682 602.071 636.436 600.491 Q638.189 598.911 638.189 596.203 Q638.189 593.495 636.436 591.915 Q634.682 590.335 631.679 590.335 Q630.272 590.335 628.866 590.648 Q627.477 590.96 626.019 591.62 L626.019 578.599 Z" fill="#000000" fill-rule="evenodd" fill-opacity="1" /><path clip-path="url(#clip710)" d="M 0 0 M719.399 590.161 Q717.038 590.161 715.649 591.776 Q714.278 593.391 714.278 596.203 Q714.278 598.998 715.649 600.63 Q717.038 602.245 719.399 602.245 Q721.76 602.245 723.132 600.63 Q724.521 598.998 724.521 596.203 Q724.521 593.391 723.132 591.776 Q721.76 590.161 719.399 590.161 M726.361 579.172 L726.361 582.366 Q725.041 581.741 723.687 581.411 Q722.35 581.082 721.031 581.082 Q717.559 581.082 715.719 583.425 Q713.896 585.769 713.635 590.509 Q714.66 588.998 716.205 588.2 Q717.75 587.384 719.607 587.384 Q723.514 587.384 725.771 589.762 Q728.045 592.123 728.045 596.203 Q728.045 600.196 725.684 602.609 Q723.323 605.022 719.399 605.022 Q714.903 605.022 712.524 601.585 Q710.146 598.13 710.146 591.585 Q710.146 585.439 713.062 581.793 Q715.979 578.13 720.892 578.13 Q722.212 578.13 723.548 578.391 Q724.903 578.651 726.361 579.172 Z" fill="#000000" fill-rule="evenodd" fill-opacity="1" /><path clip-path="url(#clip710)" d="M 0 0 M156.716 673.666 L162.445 673.666 L162.445 653.892 L156.213 655.142 L156.213 651.947 L162.41 650.697 L165.917 650.697 L165.917 673.666 L171.647 673.666 L171.647 676.617 L156.716 676.617 L156.716 673.666 Z" fill="#000000" fill-rule="evenodd" fill-opacity="1" /><path clip-path="url(#clip710)" d="M 0 0 M186.074 662.642 Q188.591 663.18 189.997 664.881 Q191.421 666.583 191.421 669.083 Q191.421 672.919 188.782 675.02 Q186.143 677.121 181.282 677.121 Q179.65 677.121 177.914 676.791 Q176.195 676.478 174.355 675.836 L174.355 672.451 Q175.813 673.301 177.549 673.735 Q179.285 674.169 181.178 674.169 Q184.476 674.169 186.195 672.867 Q187.931 671.565 187.931 669.083 Q187.931 666.791 186.317 665.506 Q184.719 664.204 181.855 664.204 L178.834 664.204 L178.834 661.322 L181.994 661.322 Q184.581 661.322 185.952 660.298 Q187.324 659.256 187.324 657.312 Q187.324 655.315 185.9 654.256 Q184.494 653.18 181.855 653.18 Q180.414 653.18 178.765 653.492 Q177.115 653.805 175.136 654.465 L175.136 651.34 Q177.133 650.784 178.869 650.506 Q180.622 650.229 182.167 650.229 Q186.16 650.229 188.487 652.051 Q190.813 653.857 190.813 656.947 Q190.813 659.1 189.58 660.593 Q188.348 662.069 186.074 662.642 Z" fill="#000000" fill-rule="evenodd" fill-opacity="1" /><path clip-path="url(#clip710)" d="M 0 0 M114.106 601.568 L119.835 601.568 L119.835 581.793 L113.602 583.043 L113.602 579.849 L119.8 578.599 L123.307 578.599 L123.307 601.568 L129.036 601.568 L129.036 604.519 L114.106 604.519 L114.106 601.568 Z" fill="#000000" fill-rule="evenodd" fill-opacity="1" /><path clip-path="url(#clip710)" d="M 0 0 M142.474 581.654 L133.62 595.491 L142.474 595.491 L142.474 581.654 M141.554 578.599 L145.963 578.599 L145.963 595.491 L149.661 595.491 L149.661 598.408 L145.963 598.408 L145.963 604.519 L142.474 604.519 L142.474 598.408 L130.772 598.408 L130.772 595.022 L141.554 578.599 Z" fill="#000000" fill-rule="evenodd" fill-opacity="1" /><path clip-path="url(#clip710)" d="M 0 0 M199.326 601.568 L205.055 601.568 L205.055 581.793 L198.823 583.043 L198.823 579.849 L205.021 578.599 L208.528 578.599 L208.528 601.568 L214.257 601.568 L214.257 604.519 L199.326 604.519 L199.326 601.568 Z" fill="#000000" fill-rule="evenodd" fill-opacity="1" /><path clip-path="url(#clip710)" d="M 0 0 M218.094 578.599 L231.861 578.599 L231.861 581.55 L221.305 581.55 L221.305 587.904 Q222.069 587.644 222.833 587.523 Q223.597 587.384 224.361 587.384 Q228.701 587.384 231.236 589.762 Q233.771 592.141 233.771 596.203 Q233.771 600.387 231.166 602.713 Q228.562 605.022 223.823 605.022 Q222.191 605.022 220.489 604.745 Q218.805 604.467 217 603.911 L217 600.387 Q218.562 601.238 220.229 601.654 Q221.896 602.071 223.753 602.071 Q226.757 602.071 228.51 600.491 Q230.264 598.911 230.264 596.203 Q230.264 593.495 228.51 591.915 Q226.757 590.335 223.753 590.335 Q222.347 590.335 220.941 590.648 Q219.552 590.96 218.094 591.62 L218.094 578.599 Z" fill="#000000" fill-rule="evenodd" fill-opacity="1" /><path clip-path="url(#clip710)" d="M 0 0 M327.157 673.666 L332.886 673.666 L332.886 653.892 L326.654 655.142 L326.654 651.947 L332.851 650.697 L336.358 650.697 L336.358 673.666 L342.087 673.666 L342.087 676.617 L327.157 676.617 L327.157 673.666 Z" fill="#000000" fill-rule="evenodd" fill-opacity="1" /><path clip-path="url(#clip710)" d="M 0 0 M353.824 662.26 Q351.462 662.26 350.074 663.874 Q348.702 665.489 348.702 668.301 Q348.702 671.096 350.074 672.728 Q351.462 674.343 353.824 674.343 Q356.185 674.343 357.556 672.728 Q358.945 671.096 358.945 668.301 Q358.945 665.489 357.556 663.874 Q356.185 662.26 353.824 662.26 M360.785 651.27 L360.785 654.465 Q359.466 653.84 358.112 653.51 Q356.775 653.18 355.455 653.18 Q351.983 653.18 350.143 655.524 Q348.32 657.867 348.06 662.607 Q349.084 661.097 350.629 660.298 Q352.174 659.482 354.032 659.482 Q357.938 659.482 360.195 661.86 Q362.469 664.222 362.469 668.301 Q362.469 672.294 360.108 674.708 Q357.747 677.121 353.824 677.121 Q349.327 677.121 346.949 673.683 Q344.57 670.228 344.57 663.683 Q344.57 657.538 347.487 653.892 Q350.403 650.229 355.317 650.229 Q356.636 650.229 357.973 650.489 Q359.327 650.749 360.785 651.27 Z" fill="#000000" fill-rule="evenodd" fill-opacity="1" /><path clip-path="url(#clip710)" d="M 0 0 M284.547 601.568 L290.276 601.568 L290.276 581.793 L284.043 583.043 L284.043 579.849 L290.241 578.599 L293.748 578.599 L293.748 601.568 L299.477 601.568 L299.477 604.519 L284.547 604.519 L284.547 601.568 Z" fill="#000000" fill-rule="evenodd" fill-opacity="1" /><path clip-path="url(#clip710)" d="M 0 0 M302.394 578.599 L319.06 578.599 L319.06 580.092 L309.651 604.519 L305.988 604.519 L314.842 581.55 L302.394 581.55 L302.394 578.599 Z" fill="#000000" fill-rule="evenodd" fill-opacity="1" /><path clip-path="url(#clip710)" d="M 0 0 M369.767 601.568 L375.496 601.568 L375.496 581.793 L369.264 583.043 L369.264 579.849 L375.462 578.599 L378.969 578.599 L378.969 601.568 L384.698 601.568 L384.698 604.519 L369.767 604.519 L369.767 601.568 Z" fill="#000000" fill-rule="evenodd" fill-opacity="1" /><path clip-path="url(#clip710)" d="M 0 0 M396 592.21 Q393.5 592.21 392.059 593.547 Q390.635 594.884 390.635 597.227 Q390.635 599.571 392.059 600.908 Q393.5 602.245 396 602.245 Q398.5 602.245 399.941 600.908 Q401.382 599.554 401.382 597.227 Q401.382 594.884 399.941 593.547 Q398.517 592.21 396 592.21 M392.493 590.717 Q390.236 590.161 388.969 588.616 Q387.719 587.071 387.719 584.849 Q387.719 581.741 389.923 579.936 Q392.146 578.13 396 578.13 Q399.871 578.13 402.076 579.936 Q404.281 581.741 404.281 584.849 Q404.281 587.071 403.014 588.616 Q401.764 590.161 399.524 590.717 Q402.059 591.307 403.465 593.026 Q404.889 594.745 404.889 597.227 Q404.889 600.995 402.58 603.009 Q400.288 605.022 396 605.022 Q391.712 605.022 389.403 603.009 Q387.111 600.995 387.111 597.227 Q387.111 594.745 388.535 593.026 Q389.958 591.307 392.493 590.717 M391.208 585.179 Q391.208 587.193 392.458 588.321 Q393.725 589.45 396 589.45 Q398.257 589.45 399.524 588.321 Q400.809 587.193 400.809 585.179 Q400.809 583.165 399.524 582.036 Q398.257 580.908 396 580.908 Q393.725 580.908 392.458 582.036 Q391.208 583.165 391.208 585.179 Z" fill="#000000" fill-rule="evenodd" fill-opacity="1" /><path clip-path="url(#clip710)" d="M 0 0 M423.593 518.445 Q426.11 518.983 427.516 520.685 Q428.94 522.386 428.94 524.886 Q428.94 528.723 426.301 530.823 Q423.662 532.924 418.801 532.924 Q417.169 532.924 415.433 532.594 Q413.714 532.282 411.874 531.639 L411.874 528.254 Q413.332 529.105 415.068 529.539 Q416.805 529.973 418.697 529.973 Q421.995 529.973 423.714 528.671 Q425.45 527.369 425.45 524.886 Q425.45 522.594 423.836 521.31 Q422.239 520.008 419.374 520.008 L416.353 520.008 L416.353 517.126 L419.513 517.126 Q422.1 517.126 423.471 516.101 Q424.843 515.06 424.843 513.115 Q424.843 511.119 423.419 510.06 Q422.013 508.983 419.374 508.983 Q417.933 508.983 416.284 509.296 Q414.634 509.608 412.655 510.268 L412.655 507.143 Q414.652 506.587 416.388 506.31 Q418.141 506.032 419.686 506.032 Q423.68 506.032 426.006 507.855 Q428.332 509.66 428.332 512.751 Q428.332 514.903 427.1 516.396 Q425.867 517.872 423.593 518.445 Z" fill="#000000" fill-rule="evenodd" fill-opacity="1" /><path clip-path="url(#clip710)" d="M 0 0 M433.35 529.469 L439.079 529.469 L439.079 509.695 L432.846 510.945 L432.846 507.751 L439.044 506.501 L442.551 506.501 L442.551 529.469 L448.28 529.469 L448.28 532.421 L433.35 532.421 L433.35 529.469 Z" fill="#000000" fill-rule="evenodd" fill-opacity="1" /><path clip-path="url(#clip710)" d="M 0 0 M380.982 446.347 Q383.5 446.885 384.906 448.586 Q386.33 450.288 386.33 452.788 Q386.33 456.624 383.691 458.725 Q381.052 460.826 376.191 460.826 Q374.559 460.826 372.823 460.496 Q371.104 460.183 369.264 459.541 L369.264 456.156 Q370.722 457.006 372.458 457.44 Q374.194 457.874 376.087 457.874 Q379.385 457.874 381.104 456.572 Q382.84 455.27 382.84 452.788 Q382.84 450.496 381.226 449.211 Q379.628 447.909 376.764 447.909 L373.743 447.909 L373.743 445.027 L376.903 445.027 Q379.489 445.027 380.861 444.003 Q382.232 442.961 382.232 441.017 Q382.232 439.02 380.809 437.961 Q379.403 436.885 376.764 436.885 Q375.323 436.885 373.673 437.197 Q372.024 437.51 370.045 438.17 L370.045 435.045 Q372.042 434.489 373.778 434.211 Q375.531 433.934 377.076 433.934 Q381.069 433.934 383.396 435.756 Q385.722 437.562 385.722 440.652 Q385.722 442.805 384.489 444.298 Q383.257 445.774 380.982 446.347 Z" fill="#000000" fill-rule="evenodd" fill-opacity="1" /><path clip-path="url(#clip710)" d="M 0 0 M393.153 457.371 L405.392 457.371 L405.392 460.322 L388.934 460.322 L388.934 457.371 Q390.93 455.305 394.368 451.833 Q397.823 448.343 398.708 447.336 Q400.392 445.444 401.052 444.142 Q401.729 442.822 401.729 441.555 Q401.729 439.489 400.271 438.187 Q398.83 436.885 396.503 436.885 Q394.854 436.885 393.014 437.458 Q391.191 438.031 389.107 439.194 L389.107 435.652 Q391.225 434.802 393.066 434.368 Q394.906 433.934 396.434 433.934 Q400.462 433.934 402.857 435.947 Q405.253 437.961 405.253 441.329 Q405.253 442.927 404.646 444.368 Q404.055 445.791 402.475 447.736 Q402.041 448.239 399.715 450.652 Q397.389 453.048 393.153 457.371 Z" fill="#000000" fill-rule="evenodd" fill-opacity="1" /><path clip-path="url(#clip710)" d="M 0 0 M466.203 446.347 Q468.72 446.885 470.127 448.586 Q471.55 450.288 471.55 452.788 Q471.55 456.624 468.911 458.725 Q466.272 460.826 461.411 460.826 Q459.779 460.826 458.043 460.496 Q456.325 460.183 454.484 459.541 L454.484 456.156 Q455.943 457.006 457.679 457.44 Q459.415 457.874 461.307 457.874 Q464.606 457.874 466.324 456.572 Q468.061 455.27 468.061 452.788 Q468.061 450.496 466.446 449.211 Q464.849 447.909 461.984 447.909 L458.963 447.909 L458.963 445.027 L462.123 445.027 Q464.71 445.027 466.081 444.003 Q467.453 442.961 467.453 441.017 Q467.453 439.02 466.029 437.961 Q464.623 436.885 461.984 436.885 Q460.543 436.885 458.894 437.197 Q457.245 437.51 455.265 438.17 L455.265 435.045 Q457.262 434.489 458.998 434.211 Q460.752 433.934 462.297 433.934 Q466.29 433.934 468.616 435.756 Q470.942 437.562 470.942 440.652 Q470.942 442.805 469.71 444.298 Q468.477 445.774 466.203 446.347 Z" fill="#000000" fill-rule="evenodd" fill-opacity="1" /><path clip-path="url(#clip710)" d="M 0 0 M485.977 446.347 Q488.494 446.885 489.901 448.586 Q491.324 450.288 491.324 452.788 Q491.324 456.624 488.685 458.725 Q486.047 460.826 481.185 460.826 Q479.554 460.826 477.817 460.496 Q476.099 460.183 474.258 459.541 L474.258 456.156 Q475.717 457.006 477.453 457.44 Q479.189 457.874 481.081 457.874 Q484.38 457.874 486.099 456.572 Q487.835 455.27 487.835 452.788 Q487.835 450.496 486.22 449.211 Q484.623 447.909 481.758 447.909 L478.738 447.909 L478.738 445.027 L481.897 445.027 Q484.484 445.027 485.856 444.003 Q487.227 442.961 487.227 441.017 Q487.227 439.02 485.804 437.961 Q484.397 436.885 481.758 436.885 Q480.317 436.885 478.668 437.197 Q477.019 437.51 475.04 438.17 L475.04 435.045 Q477.036 434.489 478.772 434.211 Q480.526 433.934 482.071 433.934 Q486.064 433.934 488.39 435.756 Q490.717 437.562 490.717 440.652 Q490.717 442.805 489.484 444.298 Q488.251 445.774 485.977 446.347 Z" fill="#000000" fill-rule="evenodd" fill-opacity="1" /><path clip-path="url(#clip710)" d="M 0 0 M594.034 518.445 Q596.551 518.983 597.957 520.685 Q599.381 522.386 599.381 524.886 Q599.381 528.723 596.742 530.823 Q594.103 532.924 589.242 532.924 Q587.61 532.924 585.874 532.594 Q584.155 532.282 582.315 531.639 L582.315 528.254 Q583.773 529.105 585.509 529.539 Q587.245 529.973 589.138 529.973 Q592.436 529.973 594.155 528.671 Q595.891 527.369 595.891 524.886 Q595.891 522.594 594.277 521.31 Q592.679 520.008 589.815 520.008 L586.794 520.008 L586.794 517.126 L589.954 517.126 Q592.541 517.126 593.912 516.101 Q595.284 515.06 595.284 513.115 Q595.284 511.119 593.86 510.06 Q592.454 508.983 589.815 508.983 Q588.374 508.983 586.725 509.296 Q585.075 509.608 583.096 510.268 L583.096 507.143 Q585.093 506.587 586.829 506.31 Q588.582 506.032 590.127 506.032 Q594.12 506.032 596.447 507.855 Q598.773 509.66 598.773 512.751 Q598.773 514.903 597.541 516.396 Q596.308 517.872 594.034 518.445 Z" fill="#000000" fill-rule="evenodd" fill-opacity="1" /><path clip-path="url(#clip710)" d="M 0 0 M612.818 509.556 L603.964 523.393 L612.818 523.393 L612.818 509.556 M611.898 506.501 L616.308 506.501 L616.308 523.393 L620.006 523.393 L620.006 526.31 L616.308 526.31 L616.308 532.421 L612.818 532.421 L612.818 526.31 L601.117 526.31 L601.117 522.924 L611.898 506.501 Z" fill="#000000" fill-rule="evenodd" fill-opacity="1" /><path clip-path="url(#clip710)" d="M 0 0 M551.423 446.347 Q553.941 446.885 555.347 448.586 Q556.771 450.288 556.771 452.788 Q556.771 456.624 554.132 458.725 Q551.493 460.826 546.632 460.826 Q545 460.826 543.264 460.496 Q541.545 460.183 539.705 459.541 L539.705 456.156 Q541.163 457.006 542.899 457.44 Q544.635 457.874 546.528 457.874 Q549.826 457.874 551.545 456.572 Q553.281 455.27 553.281 452.788 Q553.281 450.496 551.666 449.211 Q550.069 447.909 547.205 447.909 L544.184 447.909 L544.184 445.027 L547.344 445.027 Q549.93 445.027 551.302 444.003 Q552.673 442.961 552.673 441.017 Q552.673 439.02 551.25 437.961 Q549.844 436.885 547.205 436.885 Q545.764 436.885 544.114 437.197 Q542.465 437.51 540.486 438.17 L540.486 435.045 Q542.482 434.489 544.219 434.211 Q545.972 433.934 547.517 433.934 Q551.51 433.934 553.837 435.756 Q556.163 437.562 556.163 440.652 Q556.163 442.805 554.93 444.298 Q553.698 445.774 551.423 446.347 Z" fill="#000000" fill-rule="evenodd" fill-opacity="1" /><path clip-path="url(#clip710)" d="M 0 0 M560.607 434.402 L574.375 434.402 L574.375 437.354 L563.819 437.354 L563.819 443.708 Q564.583 443.447 565.347 443.326 Q566.111 443.187 566.875 443.187 Q571.215 443.187 573.75 445.565 Q576.284 447.944 576.284 452.006 Q576.284 456.19 573.68 458.517 Q571.076 460.826 566.337 460.826 Q564.705 460.826 563.003 460.548 Q561.319 460.27 559.514 459.715 L559.514 456.19 Q561.076 457.041 562.743 457.458 Q564.409 457.874 566.267 457.874 Q569.271 457.874 571.024 456.295 Q572.777 454.715 572.777 452.006 Q572.777 449.298 571.024 447.718 Q569.271 446.138 566.267 446.138 Q564.861 446.138 563.455 446.451 Q562.066 446.763 560.607 447.423 L560.607 434.402 Z" fill="#000000" fill-rule="evenodd" fill-opacity="1" /><path clip-path="url(#clip710)" d="M 0 0 M636.644 446.347 Q639.161 446.885 640.567 448.586 Q641.991 450.288 641.991 452.788 Q641.991 456.624 639.352 458.725 Q636.713 460.826 631.852 460.826 Q630.22 460.826 628.484 460.496 Q626.765 460.183 624.925 459.541 L624.925 456.156 Q626.384 457.006 628.12 457.44 Q629.856 457.874 631.748 457.874 Q635.047 457.874 636.765 456.572 Q638.502 455.27 638.502 452.788 Q638.502 450.496 636.887 449.211 Q635.29 447.909 632.425 447.909 L629.404 447.909 L629.404 445.027 L632.564 445.027 Q635.151 445.027 636.522 444.003 Q637.894 442.961 637.894 441.017 Q637.894 439.02 636.47 437.961 Q635.064 436.885 632.425 436.885 Q630.984 436.885 629.335 437.197 Q627.686 437.51 625.706 438.17 L625.706 435.045 Q627.703 434.489 629.439 434.211 Q631.193 433.934 632.738 433.934 Q636.731 433.934 639.057 435.756 Q641.383 437.562 641.383 440.652 Q641.383 442.805 640.151 444.298 Q638.918 445.774 636.644 446.347 Z" fill="#000000" fill-rule="evenodd" fill-opacity="1" /><path clip-path="url(#clip710)" d="M 0 0 M653.727 445.965 Q651.366 445.965 649.977 447.579 Q648.606 449.194 648.606 452.006 Q648.606 454.802 649.977 456.433 Q651.366 458.048 653.727 458.048 Q656.088 458.048 657.46 456.433 Q658.849 454.802 658.849 452.006 Q658.849 449.194 657.46 447.579 Q656.088 445.965 653.727 445.965 M660.689 434.975 L660.689 438.17 Q659.369 437.545 658.015 437.215 Q656.678 436.885 655.359 436.885 Q651.887 436.885 650.047 439.229 Q648.224 441.572 647.963 446.312 Q648.988 444.802 650.533 444.003 Q652.078 443.187 653.935 443.187 Q657.842 443.187 660.099 445.565 Q662.373 447.927 662.373 452.006 Q662.373 455.999 660.012 458.413 Q657.651 460.826 653.727 460.826 Q649.231 460.826 646.852 457.388 Q644.474 453.933 644.474 447.388 Q644.474 441.243 647.39 437.597 Q650.307 433.934 655.22 433.934 Q656.54 433.934 657.876 434.194 Q659.231 434.454 660.689 434.975 Z" fill="#000000" fill-rule="evenodd" fill-opacity="1" /><circle clip-path="url(#clip712)" cx="156.213" cy="396" r="14" fill="#0000ff" fill-rule="evenodd" fill-opacity="1" stroke="none"/>
<circle clip-path="url(#clip712)" cx="113.602" cy="323.902" r="14" fill="#0000ff" fill-rule="evenodd" fill-opacity="1" stroke="none"/>
<circle clip-path="url(#clip712)" cx="198.823" cy="323.902" r="14" fill="#0000ff" fill-rule="evenodd" fill-opacity="1" stroke="none"/>
<circle clip-path="url(#clip712)" cx="326.654" cy="396" r="14" fill="#0000ff" fill-rule="evenodd" fill-opacity="1" stroke="none"/>
<circle clip-path="url(#clip712)" cx="284.043" cy="323.902" r="14" fill="#0000ff" fill-rule="evenodd" fill-opacity="1" stroke="none"/>
<circle clip-path="url(#clip712)" cx="369.264" cy="323.902" r="14" fill="#0000ff" fill-rule="evenodd" fill-opacity="1" stroke="none"/>
<circle clip-path="url(#clip712)" cx="113.602" cy="468.098" r="14" fill="#0000ff" fill-rule="evenodd" fill-opacity="1" stroke="none"/>
<circle clip-path="url(#clip712)" cx="241.433" cy="540.197" r="14" fill="#0000ff" fill-rule="evenodd" fill-opacity="1" stroke="none"/>
<circle clip-path="url(#clip712)" cx="198.823" cy="468.098" r="14" fill="#0000ff" fill-rule="evenodd" fill-opacity="1" stroke="none"/>
<circle clip-path="url(#clip712)" cx="284.043" cy="468.098" r="14" fill="#0000ff" fill-rule="evenodd" fill-opacity="1" stroke="none"/>
<circle clip-path="url(#clip712)" cx="113.602" cy="179.705" r="14" fill="#0000ff" fill-rule="evenodd" fill-opacity="1" stroke="none"/>
<path clip-path="url(#clip710)" d="M 0 0 M167.914 365.36 L159.06 379.196 L167.914 379.196 L167.914 365.36 M166.994 362.304 L171.403 362.304 L171.403 379.196 L175.101 379.196 L175.101 382.113 L171.403 382.113 L171.403 388.224 L167.914 388.224 L167.914 382.113 L156.213 382.113 L156.213 378.728 L166.994 362.304 Z" fill="#000000" fill-rule="evenodd" fill-opacity="1" /><path clip-path="url(#clip710)" d="M 0 0 M114.696 290.206 L128.463 290.206 L128.463 293.157 L117.908 293.157 L117.908 299.511 Q118.672 299.251 119.436 299.129 Q120.2 298.99 120.963 298.99 Q125.304 298.99 127.838 301.369 Q130.373 303.747 130.373 307.81 Q130.373 311.994 127.769 314.32 Q125.165 316.629 120.425 316.629 Q118.793 316.629 117.092 316.351 Q115.408 316.074 113.602 315.518 L113.602 311.994 Q115.165 312.844 116.832 313.261 Q118.498 313.678 120.356 313.678 Q123.359 313.678 125.113 312.098 Q126.866 310.518 126.866 307.81 Q126.866 305.101 125.113 303.522 Q123.359 301.942 120.356 301.942 Q118.95 301.942 117.543 302.254 Q116.154 302.567 114.696 303.226 L114.696 290.206 Z" fill="#000000" fill-rule="evenodd" fill-opacity="1" /><path clip-path="url(#clip710)" d="M 0 0 M208.076 301.768 Q205.715 301.768 204.326 303.383 Q202.955 304.997 202.955 307.81 Q202.955 310.605 204.326 312.237 Q205.715 313.851 208.076 313.851 Q210.437 313.851 211.809 312.237 Q213.198 310.605 213.198 307.81 Q213.198 304.997 211.809 303.383 Q210.437 301.768 208.076 301.768 M215.038 290.779 L215.038 293.973 Q213.719 293.348 212.364 293.018 Q211.028 292.688 209.708 292.688 Q206.236 292.688 204.396 295.032 Q202.573 297.376 202.312 302.115 Q203.337 300.605 204.882 299.806 Q206.427 298.99 208.285 298.99 Q212.191 298.99 214.448 301.369 Q216.722 303.73 216.722 307.81 Q216.722 311.803 214.361 314.216 Q212 316.629 208.076 316.629 Q203.58 316.629 201.201 313.192 Q198.823 309.737 198.823 303.192 Q198.823 297.046 201.739 293.4 Q204.656 289.737 209.569 289.737 Q210.889 289.737 212.226 289.997 Q213.58 290.258 215.038 290.779 Z" fill="#000000" fill-rule="evenodd" fill-opacity="1" /><path clip-path="url(#clip710)" d="M 0 0 M326.654 362.304 L343.32 362.304 L343.32 363.797 L333.91 388.224 L330.247 388.224 L339.101 365.255 L326.654 365.255 L326.654 362.304 Z" fill="#000000" fill-rule="evenodd" fill-opacity="1" /><path clip-path="url(#clip710)" d="M 0 0 M292.932 303.817 Q290.432 303.817 288.991 305.154 Q287.568 306.49 287.568 308.834 Q287.568 311.178 288.991 312.515 Q290.432 313.851 292.932 313.851 Q295.432 313.851 296.873 312.515 Q298.314 311.16 298.314 308.834 Q298.314 306.49 296.873 305.154 Q295.449 303.817 292.932 303.817 M289.425 302.324 Q287.168 301.768 285.901 300.223 Q284.651 298.678 284.651 296.456 Q284.651 293.348 286.856 291.542 Q289.078 289.737 292.932 289.737 Q296.804 289.737 299.009 291.542 Q301.213 293.348 301.213 296.456 Q301.213 298.678 299.946 300.223 Q298.696 301.768 296.456 302.324 Q298.991 302.914 300.397 304.633 Q301.821 306.351 301.821 308.834 Q301.821 312.601 299.512 314.615 Q297.22 316.629 292.932 316.629 Q288.644 316.629 286.335 314.615 Q284.043 312.601 284.043 308.834 Q284.043 306.351 285.467 304.633 Q286.891 302.914 289.425 302.324 M288.141 296.786 Q288.141 298.799 289.391 299.928 Q290.658 301.056 292.932 301.056 Q295.189 301.056 296.456 299.928 Q297.741 298.799 297.741 296.786 Q297.741 294.772 296.456 293.643 Q295.189 292.515 292.932 292.515 Q290.658 292.515 289.391 293.643 Q288.141 294.772 288.141 296.786 Z" fill="#000000" fill-rule="evenodd" fill-opacity="1" /><path clip-path="url(#clip710)" d="M 0 0 M370.93 315.587 L370.93 312.393 Q372.25 313.018 373.604 313.348 Q374.958 313.678 376.26 313.678 Q379.732 313.678 381.555 311.351 Q383.396 309.008 383.656 304.251 Q382.649 305.744 381.104 306.542 Q379.559 307.341 377.684 307.341 Q373.795 307.341 371.521 304.997 Q369.264 302.636 369.264 298.556 Q369.264 294.563 371.625 292.15 Q373.986 289.737 377.91 289.737 Q382.406 289.737 384.767 293.192 Q387.146 296.629 387.146 303.192 Q387.146 309.32 384.229 312.983 Q381.33 316.629 376.417 316.629 Q375.097 316.629 373.743 316.369 Q372.389 316.108 370.93 315.587 M377.91 304.598 Q380.271 304.598 381.642 302.983 Q383.031 301.369 383.031 298.556 Q383.031 295.761 381.642 294.147 Q380.271 292.515 377.91 292.515 Q375.548 292.515 374.16 294.147 Q372.788 295.761 372.788 298.556 Q372.788 301.369 374.16 302.983 Q375.548 304.598 377.91 304.598 Z" fill="#000000" fill-rule="evenodd" fill-opacity="1" /><path clip-path="url(#clip710)" d="M 0 0 M75.2109 529.469 L87.4504 529.469 L87.4504 532.421 L70.9921 532.421 L70.9921 529.469 Q72.9886 527.403 76.4261 523.931 Q79.881 520.442 80.7664 519.435 Q82.4504 517.542 83.1101 516.24 Q83.7872 514.921 83.7872 513.653 Q83.7872 511.587 82.3289 510.285 Q80.8879 508.983 78.5615 508.983 Q76.9122 508.983 75.072 509.556 Q73.2491 510.129 71.1657 511.292 L71.1657 507.751 Q73.2838 506.9 75.124 506.466 Q76.9643 506.032 78.4921 506.032 Q82.5198 506.032 84.9157 508.046 Q87.3115 510.06 87.3115 513.428 Q87.3115 515.025 86.7038 516.466 Q86.1136 517.889 84.5337 519.834 Q84.0997 520.337 81.7733 522.751 Q79.4469 525.146 75.2109 529.469 Z" fill="#000000" fill-rule="evenodd" fill-opacity="1" /><path clip-path="url(#clip710)" d="M 0 0 M91.2872 506.501 L105.054 506.501 L105.054 509.452 L94.4989 509.452 L94.4989 515.806 Q95.2628 515.546 96.0267 515.424 Q96.7906 515.285 97.5545 515.285 Q101.895 515.285 104.429 517.664 Q106.964 520.042 106.964 524.105 Q106.964 528.289 104.36 530.615 Q101.756 532.924 97.0163 532.924 Q95.3844 532.924 93.683 532.646 Q91.999 532.369 90.1934 531.813 L90.1934 528.289 Q91.7559 529.139 93.4226 529.556 Q95.0892 529.973 96.9468 529.973 Q99.9503 529.973 101.704 528.393 Q103.457 526.813 103.457 524.105 Q103.457 521.396 101.704 519.817 Q99.9503 518.237 96.9468 518.237 Q95.5406 518.237 94.1344 518.549 Q92.7455 518.862 91.2872 519.521 L91.2872 506.501 Z" fill="#000000" fill-rule="evenodd" fill-opacity="1" /><path clip-path="url(#clip710)" d="M 0 0 M117.821 457.371 L130.061 457.371 L130.061 460.322 L113.602 460.322 L113.602 457.371 Q115.599 455.305 119.036 451.833 Q122.491 448.343 123.377 447.336 Q125.061 445.444 125.72 444.142 Q126.397 442.822 126.397 441.555 Q126.397 439.489 124.939 438.187 Q123.498 436.885 121.172 436.885 Q119.522 436.885 117.682 437.458 Q115.859 438.031 113.776 439.194 L113.776 435.652 Q115.894 434.802 117.734 434.368 Q119.575 433.934 121.102 433.934 Q125.13 433.934 127.526 435.947 Q129.922 437.961 129.922 441.329 Q129.922 442.927 129.314 444.368 Q128.724 445.791 127.144 447.736 Q126.71 448.239 124.384 450.652 Q122.057 453.048 117.821 457.371 Z" fill="#000000" fill-rule="evenodd" fill-opacity="1" /><path clip-path="url(#clip710)" d="M 0 0 M132.977 434.402 L149.644 434.402 L149.644 435.895 L140.234 460.322 L136.571 460.322 L145.425 437.354 L132.977 437.354 L132.977 434.402 Z" fill="#000000" fill-rule="evenodd" fill-opacity="1" /><path clip-path="url(#clip710)" d="M 0 0 M245.652 529.469 L257.891 529.469 L257.891 532.421 L241.433 532.421 L241.433 529.469 Q243.43 527.403 246.867 523.931 Q250.322 520.442 251.207 519.435 Q252.891 517.542 253.551 516.24 Q254.228 514.921 254.228 513.653 Q254.228 511.587 252.77 510.285 Q251.329 508.983 249.002 508.983 Q247.353 508.983 245.513 509.556 Q243.69 510.129 241.607 511.292 L241.607 507.751 Q243.725 506.9 245.565 506.466 Q247.405 506.032 248.933 506.032 Q252.961 506.032 255.357 508.046 Q257.752 510.06 257.752 513.428 Q257.752 515.025 257.145 516.466 Q256.555 517.889 254.975 519.834 Q254.541 520.337 252.214 522.751 Q249.888 525.146 245.652 529.469 Z" fill="#000000" fill-rule="evenodd" fill-opacity="1" /><path clip-path="url(#clip710)" d="M 0 0 M269.193 520.112 Q266.693 520.112 265.252 521.448 Q263.829 522.785 263.829 525.129 Q263.829 527.473 265.252 528.81 Q266.693 530.146 269.193 530.146 Q271.693 530.146 273.134 528.81 Q274.575 527.455 274.575 525.129 Q274.575 522.785 273.134 521.448 Q271.711 520.112 269.193 520.112 M265.686 518.619 Q263.429 518.063 262.162 516.518 Q260.912 514.973 260.912 512.751 Q260.912 509.643 263.117 507.837 Q265.339 506.032 269.193 506.032 Q273.065 506.032 275.27 507.837 Q277.475 509.643 277.475 512.751 Q277.475 514.973 276.207 516.518 Q274.957 518.063 272.718 518.619 Q275.252 519.209 276.659 520.928 Q278.082 522.646 278.082 525.129 Q278.082 528.896 275.773 530.91 Q273.482 532.924 269.193 532.924 Q264.905 532.924 262.596 530.91 Q260.304 528.896 260.304 525.129 Q260.304 522.646 261.728 520.928 Q263.152 519.209 265.686 518.619 M264.402 513.08 Q264.402 515.094 265.652 516.223 Q266.919 517.351 269.193 517.351 Q271.45 517.351 272.718 516.223 Q274.002 515.094 274.002 513.08 Q274.002 511.067 272.718 509.938 Q271.45 508.81 269.193 508.81 Q266.919 508.81 265.652 509.938 Q264.402 511.067 264.402 513.08 Z" fill="#000000" fill-rule="evenodd" fill-opacity="1" /><path clip-path="url(#clip710)" d="M 0 0 M203.042 457.371 L215.281 457.371 L215.281 460.322 L198.823 460.322 L198.823 457.371 Q200.819 455.305 204.257 451.833 Q207.712 448.343 208.597 447.336 Q210.281 445.444 210.941 444.142 Q211.618 442.822 211.618 441.555 Q211.618 439.489 210.16 438.187 Q208.719 436.885 206.392 436.885 Q204.743 436.885 202.903 437.458 Q201.08 438.031 198.996 439.194 L198.996 435.652 Q201.114 434.802 202.955 434.368 Q204.795 433.934 206.323 433.934 Q210.351 433.934 212.746 435.947 Q215.142 437.961 215.142 441.329 Q215.142 442.927 214.535 444.368 Q213.944 445.791 212.364 447.736 Q211.93 448.239 209.604 450.652 Q207.278 453.048 203.042 457.371 Z" fill="#000000" fill-rule="evenodd" fill-opacity="1" /><path clip-path="url(#clip710)" d="M 0 0 M219.187 459.784 L219.187 456.59 Q220.507 457.215 221.861 457.545 Q223.215 457.874 224.517 457.874 Q227.989 457.874 229.812 455.548 Q231.653 453.204 231.913 448.447 Q230.906 449.94 229.361 450.739 Q227.816 451.538 225.941 451.538 Q222.052 451.538 219.778 449.194 Q217.521 446.833 217.521 442.753 Q217.521 438.76 219.882 436.347 Q222.243 433.934 226.166 433.934 Q230.663 433.934 233.024 437.388 Q235.402 440.826 235.402 447.388 Q235.402 453.517 232.486 457.18 Q229.587 460.826 224.673 460.826 Q223.354 460.826 222 460.565 Q220.646 460.305 219.187 459.784 M226.166 448.795 Q228.528 448.795 229.899 447.18 Q231.288 445.565 231.288 442.753 Q231.288 439.958 229.899 438.343 Q228.528 436.711 226.166 436.711 Q223.805 436.711 222.416 438.343 Q221.045 439.958 221.045 442.753 Q221.045 445.565 222.416 447.18 Q223.805 448.795 226.166 448.795 Z" fill="#000000" fill-rule="evenodd" fill-opacity="1" /><path clip-path="url(#clip710)" d="M 0 0 M295.762 446.347 Q298.279 446.885 299.686 448.586 Q301.109 450.288 301.109 452.788 Q301.109 456.624 298.47 458.725 Q295.831 460.826 290.97 460.826 Q289.338 460.826 287.602 460.496 Q285.884 460.183 284.043 459.541 L284.043 456.156 Q285.502 457.006 287.238 457.44 Q288.974 457.874 290.866 457.874 Q294.165 457.874 295.884 456.572 Q297.62 455.27 297.62 452.788 Q297.62 450.496 296.005 449.211 Q294.408 447.909 291.543 447.909 L288.522 447.909 L288.522 445.027 L291.682 445.027 Q294.269 445.027 295.64 444.003 Q297.012 442.961 297.012 441.017 Q297.012 439.02 295.588 437.961 Q294.182 436.885 291.543 436.885 Q290.102 436.885 288.453 437.197 Q286.804 437.51 284.825 438.17 L284.825 435.045 Q286.821 434.489 288.557 434.211 Q290.311 433.934 291.856 433.934 Q295.849 433.934 298.175 435.756 Q300.502 437.562 300.502 440.652 Q300.502 442.805 299.269 444.298 Q298.036 445.774 295.762 446.347 Z" fill="#000000" fill-rule="evenodd" fill-opacity="1" /><path clip-path="url(#clip710)" d="M 0 0 M312.411 436.711 Q309.703 436.711 308.331 439.385 Q306.977 442.041 306.977 447.388 Q306.977 452.718 308.331 455.392 Q309.703 458.048 312.411 458.048 Q315.137 458.048 316.491 455.392 Q317.863 452.718 317.863 447.388 Q317.863 442.041 316.491 439.385 Q315.137 436.711 312.411 436.711 M312.411 433.934 Q316.769 433.934 319.06 437.388 Q321.369 440.826 321.369 447.388 Q321.369 453.933 319.06 457.388 Q316.769 460.826 312.411 460.826 Q308.054 460.826 305.745 457.388 Q303.453 453.933 303.453 447.388 Q303.453 440.826 305.745 437.388 Q308.054 433.934 312.411 433.934 Z" fill="#000000" fill-rule="evenodd" fill-opacity="1" /><path clip-path="url(#clip710)" d="M 0 0 M125.321 157.953 Q127.838 158.492 129.245 160.193 Q130.668 161.894 130.668 164.394 Q130.668 168.231 128.029 170.332 Q125.39 172.433 120.529 172.433 Q118.897 172.433 117.161 172.103 Q115.443 171.79 113.602 171.148 L113.602 167.762 Q115.061 168.613 116.797 169.047 Q118.533 169.481 120.425 169.481 Q123.724 169.481 125.443 168.179 Q127.179 166.877 127.179 164.394 Q127.179 162.103 125.564 160.818 Q123.967 159.516 121.102 159.516 L118.082 159.516 L118.082 156.634 L121.241 156.634 Q123.828 156.634 125.2 155.61 Q126.571 154.568 126.571 152.624 Q126.571 150.627 125.147 149.568 Q123.741 148.492 121.102 148.492 Q119.661 148.492 118.012 148.804 Q116.363 149.117 114.384 149.776 L114.384 146.651 Q116.38 146.096 118.116 145.818 Q119.87 145.54 121.415 145.54 Q125.408 145.54 127.734 147.363 Q130.061 149.169 130.061 152.259 Q130.061 154.412 128.828 155.905 Q127.595 157.381 125.321 157.953 Z" fill="#000000" fill-rule="evenodd" fill-opacity="1" /><path clip-path="url(#clip710)" d="M 0 0 M142.404 157.571 Q140.043 157.571 138.654 159.186 Q137.283 160.801 137.283 163.613 Q137.283 166.408 138.654 168.04 Q140.043 169.655 142.404 169.655 Q144.765 169.655 146.137 168.04 Q147.526 166.408 147.526 163.613 Q147.526 160.801 146.137 159.186 Q144.765 157.571 142.404 157.571 M149.366 146.582 L149.366 149.776 Q148.047 149.151 146.692 148.822 Q145.356 148.492 144.036 148.492 Q140.564 148.492 138.724 150.835 Q136.901 153.179 136.64 157.919 Q137.665 156.408 139.21 155.61 Q140.755 154.794 142.613 154.794 Q146.519 154.794 148.776 157.172 Q151.05 159.533 151.05 163.613 Q151.05 167.606 148.689 170.019 Q146.328 172.433 142.404 172.433 Q137.908 172.433 135.529 168.995 Q133.151 165.54 133.151 158.995 Q133.151 152.849 136.068 149.203 Q138.984 145.54 143.897 145.54 Q145.217 145.54 146.554 145.801 Q147.908 146.061 149.366 146.582 Z" fill="#000000" fill-rule="evenodd" fill-opacity="1" /><circle clip-path="url(#clip712)" cx="667.535" cy="396" r="14" fill="#0000ff" fill-rule="evenodd" fill-opacity="1" stroke="none"/>
<circle clip-path="url(#clip712)" cx="624.925" cy="323.902" r="14" fill="#0000ff" fill-rule="evenodd" fill-opacity="1" stroke="none"/>
<circle clip-path="url(#clip712)" cx="710.146" cy="323.902" r="14" fill="#0000ff" fill-rule="evenodd" fill-opacity="1" stroke="none"/>
<circle clip-path="url(#clip712)" cx="752.756" cy="540.197" r="14" fill="#0000ff" fill-rule="evenodd" fill-opacity="1" stroke="none"/>
<circle clip-path="url(#clip712)" cx="710.146" cy="468.098" r="14" fill="#0000ff" fill-rule="evenodd" fill-opacity="1" stroke="none"/>
<path clip-path="url(#clip710)" d="M 0 0 M668.039 385.273 L673.768 385.273 L673.768 365.498 L667.535 366.748 L667.535 363.554 L673.733 362.304 L677.24 362.304 L677.24 385.273 L682.969 385.273 L682.969 388.224 L668.039 388.224 L668.039 385.273 Z" fill="#000000" fill-rule="evenodd" fill-opacity="1" /><path clip-path="url(#clip710)" d="M 0 0 M697.396 374.248 Q699.914 374.787 701.32 376.488 Q702.744 378.189 702.744 380.689 Q702.744 384.526 700.105 386.627 Q697.466 388.727 692.605 388.727 Q690.973 388.727 689.237 388.398 Q687.518 388.085 685.678 387.443 L685.678 384.057 Q687.136 384.908 688.872 385.342 Q690.608 385.776 692.501 385.776 Q695.799 385.776 697.518 384.474 Q699.254 383.172 699.254 380.689 Q699.254 378.398 697.639 377.113 Q696.042 375.811 693.178 375.811 L690.157 375.811 L690.157 372.929 L693.317 372.929 Q695.903 372.929 697.275 371.905 Q698.646 370.863 698.646 368.919 Q698.646 366.922 697.223 365.863 Q695.817 364.787 693.178 364.787 Q691.737 364.787 690.087 365.099 Q688.438 365.412 686.459 366.071 L686.459 362.946 Q688.455 362.391 690.192 362.113 Q691.945 361.835 693.49 361.835 Q697.483 361.835 699.81 363.658 Q702.136 365.464 702.136 368.554 Q702.136 370.707 700.903 372.2 Q699.671 373.675 697.396 374.248 Z" fill="#000000" fill-rule="evenodd" fill-opacity="1" /><path clip-path="url(#clip710)" d="M 0 0 M625.429 313.174 L631.158 313.174 L631.158 293.4 L624.925 294.65 L624.925 291.456 L631.123 290.206 L634.63 290.206 L634.63 313.174 L640.359 313.174 L640.359 316.126 L625.429 316.126 L625.429 313.174 Z" fill="#000000" fill-rule="evenodd" fill-opacity="1" /><path clip-path="url(#clip710)" d="M 0 0 M653.797 293.261 L644.942 307.098 L653.797 307.098 L653.797 293.261 M652.876 290.206 L657.286 290.206 L657.286 307.098 L660.984 307.098 L660.984 310.015 L657.286 310.015 L657.286 316.126 L653.797 316.126 L653.797 310.015 L642.095 310.015 L642.095 306.629 L652.876 290.206 Z" fill="#000000" fill-rule="evenodd" fill-opacity="1" /><path clip-path="url(#clip710)" d="M 0 0 M710.649 313.174 L716.378 313.174 L716.378 293.4 L710.146 294.65 L710.146 291.456 L716.344 290.206 L719.85 290.206 L719.85 313.174 L725.58 313.174 L725.58 316.126 L710.649 316.126 L710.649 313.174 Z" fill="#000000" fill-rule="evenodd" fill-opacity="1" /><path clip-path="url(#clip710)" d="M 0 0 M729.416 290.206 L743.184 290.206 L743.184 293.157 L732.628 293.157 L732.628 299.511 Q733.392 299.251 734.156 299.129 Q734.92 298.99 735.684 298.99 Q740.024 298.99 742.559 301.369 Q745.093 303.747 745.093 307.81 Q745.093 311.994 742.489 314.32 Q739.885 316.629 735.146 316.629 Q733.514 316.629 731.812 316.351 Q730.128 316.074 728.323 315.518 L728.323 311.994 Q729.885 312.844 731.552 313.261 Q733.218 313.678 735.076 313.678 Q738.08 313.678 739.833 312.098 Q741.586 310.518 741.586 307.81 Q741.586 305.101 739.833 303.522 Q738.08 301.942 735.076 301.942 Q733.67 301.942 732.264 302.254 Q730.875 302.567 729.416 303.226 L729.416 290.206 Z" fill="#000000" fill-rule="evenodd" fill-opacity="1" /><path clip-path="url(#clip710)" d="M 0 0 M753.259 529.469 L758.989 529.469 L758.989 509.695 L752.756 510.945 L752.756 507.751 L758.954 506.501 L762.461 506.501 L762.461 529.469 L768.19 529.469 L768.19 532.421 L753.259 532.421 L753.259 529.469 Z" fill="#000000" fill-rule="evenodd" fill-opacity="1" /><path clip-path="url(#clip710)" d="M 0 0 M772.096 531.882 L772.096 528.688 Q773.416 529.313 774.77 529.643 Q776.124 529.973 777.426 529.973 Q780.898 529.973 782.721 527.646 Q784.561 525.303 784.822 520.546 Q783.815 522.039 782.27 522.837 Q780.725 523.636 778.85 523.636 Q774.961 523.636 772.686 521.292 Q770.429 518.931 770.429 514.851 Q770.429 510.858 772.791 508.445 Q775.152 506.032 779.075 506.032 Q783.572 506.032 785.933 509.487 Q788.311 512.924 788.311 519.487 Q788.311 525.615 785.395 529.278 Q782.495 532.924 777.582 532.924 Q776.263 532.924 774.909 532.664 Q773.554 532.403 772.096 531.882 M779.075 520.893 Q781.436 520.893 782.808 519.278 Q784.197 517.664 784.197 514.851 Q784.197 512.056 782.808 510.442 Q781.436 508.81 779.075 508.81 Q776.714 508.81 775.325 510.442 Q773.954 512.056 773.954 514.851 Q773.954 517.664 775.325 519.278 Q776.714 520.893 779.075 520.893 Z" fill="#000000" fill-rule="evenodd" fill-opacity="1" /><path clip-path="url(#clip710)" d="M 0 0 M714.364 457.371 L726.604 457.371 L726.604 460.322 L710.146 460.322 L710.146 457.371 Q712.142 455.305 715.58 451.833 Q719.035 448.343 719.92 447.336 Q721.604 445.444 722.264 444.142 Q722.941 442.822 722.941 441.555 Q722.941 439.489 721.482 438.187 Q720.041 436.885 717.715 436.885 Q716.066 436.885 714.226 437.458 Q712.403 438.031 710.319 439.194 L710.319 435.652 Q712.437 434.802 714.278 434.368 Q716.118 433.934 717.646 433.934 Q721.673 433.934 724.069 435.947 Q726.465 437.961 726.465 441.329 Q726.465 442.927 725.857 444.368 Q725.267 445.791 723.687 447.736 Q723.253 448.239 720.927 450.652 Q718.6 453.048 714.364 457.371 Z" fill="#000000" fill-rule="evenodd" fill-opacity="1" /><path clip-path="url(#clip710)" d="M 0 0 M737.906 436.711 Q735.198 436.711 733.826 439.385 Q732.472 442.041 732.472 447.388 Q732.472 452.718 733.826 455.392 Q735.198 458.048 737.906 458.048 Q740.632 458.048 741.986 455.392 Q743.357 452.718 743.357 447.388 Q743.357 442.041 741.986 439.385 Q740.632 436.711 737.906 436.711 M737.906 433.934 Q742.264 433.934 744.555 437.388 Q746.864 440.826 746.864 447.388 Q746.864 453.933 744.555 457.388 Q742.264 460.826 737.906 460.826 Q733.548 460.826 731.239 457.388 Q728.948 453.933 728.948 447.388 Q728.948 440.826 731.239 437.388 Q733.548 433.934 737.906 433.934 Z" fill="#000000" fill-rule="evenodd" fill-opacity="1" /><circle clip-path="url(#clip712)" cx="497.094" cy="107.607" r="14" fill="#0000ff" fill-rule="evenodd" fill-opacity="1" stroke="none"/>
<circle clip-path="url(#clip712)" cx="667.535" cy="107.607" r="14" fill="#0000ff" fill-rule="evenodd" fill-opacity="1" stroke="none"/>
<circle clip-path="url(#clip712)" cx="497.094" cy="396" r="14" fill="#0000ff" fill-rule="evenodd" fill-opacity="1" stroke="none"/>
<circle clip-path="url(#clip712)" cx="454.484" cy="323.902" r="14" fill="#0000ff" fill-rule="evenodd" fill-opacity="1" stroke="none"/>
<circle clip-path="url(#clip712)" cx="539.705" cy="323.902" r="14" fill="#0000ff" fill-rule="evenodd" fill-opacity="1" stroke="none"/>
<circle clip-path="url(#clip712)" cx="156.213" cy="107.607" r="14" fill="#0000ff" fill-rule="evenodd" fill-opacity="1" stroke="none"/>
<circle clip-path="url(#clip712)" cx="326.654" cy="107.607" r="14" fill="#0000ff" fill-rule="evenodd" fill-opacity="1" stroke="none"/>
<circle clip-path="url(#clip712)" cx="241.433" cy="251.803" r="14" fill="#0000ff" fill-rule="evenodd" fill-opacity="1" stroke="none"/>
<circle clip-path="url(#clip712)" cx="198.823" cy="179.705" r="14" fill="#0000ff" fill-rule="evenodd" fill-opacity="1" stroke="none"/>
<circle clip-path="url(#clip712)" cx="284.043" cy="179.705" r="14" fill="#0000ff" fill-rule="evenodd" fill-opacity="1" stroke="none"/>
<circle clip-path="url(#clip712)" cx="411.874" cy="251.803" r="14" fill="#0000ff" fill-rule="evenodd" fill-opacity="1" stroke="none"/>
<circle clip-path="url(#clip712)" cx="369.264" cy="179.705" r="14" fill="#0000ff" fill-rule="evenodd" fill-opacity="1" stroke="none"/>
<circle clip-path="url(#clip712)" cx="454.484" cy="179.705" r="14" fill="#0000ff" fill-rule="evenodd" fill-opacity="1" stroke="none"/>
<circle clip-path="url(#clip712)" cx="582.315" cy="251.803" r="14" fill="#0000ff" fill-rule="evenodd" fill-opacity="1" stroke="none"/>
<circle clip-path="url(#clip712)" cx="539.705" cy="179.705" r="14" fill="#0000ff" fill-rule="evenodd" fill-opacity="1" stroke="none"/>
<circle clip-path="url(#clip712)" cx="624.925" cy="179.705" r="14" fill="#0000ff" fill-rule="evenodd" fill-opacity="1" stroke="none"/>
<circle clip-path="url(#clip712)" cx="752.756" cy="251.803" r="14" fill="#0000ff" fill-rule="evenodd" fill-opacity="1" stroke="none"/>
<circle clip-path="url(#clip712)" cx="710.146" cy="179.705" r="14" fill="#0000ff" fill-rule="evenodd" fill-opacity="1" stroke="none"/>
<path clip-path="url(#clip710)" d="M 0 0 M497.598 96.8793 L503.327 96.8793 L503.327 77.1051 L497.094 78.3551 L497.094 75.1607 L503.292 73.9107 L506.799 73.9107 L506.799 96.8793 L512.528 96.8793 L512.528 99.8307 L497.598 99.8307 L497.598 96.8793 Z" fill="#000000" fill-rule="evenodd" fill-opacity="1" /><path clip-path="url(#clip710)" d="M 0 0 M679.237 76.9663 L670.383 90.803 L679.237 90.803 L679.237 76.9663 M678.317 73.9107 L682.726 73.9107 L682.726 90.803 L686.424 90.803 L686.424 93.7196 L682.726 93.7196 L682.726 99.8307 L679.237 99.8307 L679.237 93.7196 L667.535 93.7196 L667.535 90.3342 L678.317 73.9107 Z" fill="#000000" fill-rule="evenodd" fill-opacity="1" /><path clip-path="url(#clip710)" d="M 0 0 M497.598 385.273 L503.327 385.273 L503.327 365.498 L497.094 366.748 L497.094 363.554 L503.292 362.304 L506.799 362.304 L506.799 385.273 L512.528 385.273 L512.528 388.224 L497.598 388.224 L497.598 385.273 Z" fill="#000000" fill-rule="evenodd" fill-opacity="1" /><path clip-path="url(#clip710)" d="M 0 0 M523.83 364.613 Q521.122 364.613 519.751 367.287 Q518.396 369.943 518.396 375.29 Q518.396 380.62 519.751 383.293 Q521.122 385.95 523.83 385.95 Q526.556 385.95 527.91 383.293 Q529.282 380.62 529.282 375.29 Q529.282 369.943 527.91 367.287 Q526.556 364.613 523.83 364.613 M523.83 361.835 Q528.188 361.835 530.48 365.29 Q532.789 368.728 532.789 375.29 Q532.789 381.835 530.48 385.29 Q528.188 388.727 523.83 388.727 Q519.473 388.727 517.164 385.29 Q514.872 381.835 514.872 375.29 Q514.872 368.728 517.164 365.29 Q519.473 361.835 523.83 361.835 Z" fill="#000000" fill-rule="evenodd" fill-opacity="1" /><path clip-path="url(#clip710)" d="M 0 0 M454.988 313.174 L460.717 313.174 L460.717 293.4 L454.484 294.65 L454.484 291.456 L460.682 290.206 L464.189 290.206 L464.189 313.174 L469.918 313.174 L469.918 316.126 L454.988 316.126 L454.988 313.174 Z" fill="#000000" fill-rule="evenodd" fill-opacity="1" /><path clip-path="url(#clip710)" d="M 0 0 M474.328 313.174 L480.057 313.174 L480.057 293.4 L473.824 294.65 L473.824 291.456 L480.022 290.206 L483.529 290.206 L483.529 313.174 L489.258 313.174 L489.258 316.126 L474.328 316.126 L474.328 313.174 Z" fill="#000000" fill-rule="evenodd" fill-opacity="1" /><path clip-path="url(#clip710)" d="M 0 0 M540.208 313.174 L545.937 313.174 L545.937 293.4 L539.705 294.65 L539.705 291.456 L545.903 290.206 L549.41 290.206 L549.41 313.174 L555.139 313.174 L555.139 316.126 L540.208 316.126 L540.208 313.174 Z" fill="#000000" fill-rule="evenodd" fill-opacity="1" /><path clip-path="url(#clip710)" d="M 0 0 M561.962 313.174 L574.201 313.174 L574.201 316.126 L557.743 316.126 L557.743 313.174 Q559.739 311.108 563.177 307.636 Q566.632 304.147 567.517 303.14 Q569.201 301.247 569.861 299.945 Q570.538 298.626 570.538 297.358 Q570.538 295.292 569.08 293.99 Q567.639 292.688 565.312 292.688 Q563.663 292.688 561.823 293.261 Q560 293.834 557.916 294.997 L557.916 291.456 Q560.034 290.605 561.875 290.171 Q563.715 289.737 565.243 289.737 Q569.271 289.737 571.666 291.751 Q574.062 293.765 574.062 297.133 Q574.062 298.73 573.455 300.171 Q572.864 301.595 571.284 303.539 Q570.85 304.042 568.524 306.456 Q566.198 308.851 561.962 313.174 Z" fill="#000000" fill-rule="evenodd" fill-opacity="1" /><path clip-path="url(#clip710)" d="M 0 0 M156.716 96.8793 L162.445 96.8793 L162.445 77.1051 L156.213 78.3551 L156.213 75.1607 L162.41 73.9107 L165.917 73.9107 L165.917 96.8793 L171.647 96.8793 L171.647 99.8307 L156.716 99.8307 L156.716 96.8793 Z" fill="#000000" fill-rule="evenodd" fill-opacity="1" /><path clip-path="url(#clip710)" d="M 0 0 M186.074 85.8551 Q188.591 86.3933 189.997 88.0947 Q191.421 89.7961 191.421 92.296 Q191.421 96.1328 188.782 98.2335 Q186.143 100.334 181.282 100.334 Q179.65 100.334 177.914 100.004 Q176.195 99.6918 174.355 99.0495 L174.355 95.6641 Q175.813 96.5148 177.549 96.9488 Q179.285 97.3828 181.178 97.3828 Q184.476 97.3828 186.195 96.0807 Q187.931 94.7787 187.931 92.296 Q187.931 90.0044 186.317 88.7197 Q184.719 87.4176 181.855 87.4176 L178.834 87.4176 L178.834 84.5357 L181.994 84.5357 Q184.581 84.5357 185.952 83.5114 Q187.324 82.4697 187.324 80.5253 Q187.324 78.5288 185.9 77.4697 Q184.494 76.3933 181.855 76.3933 Q180.414 76.3933 178.765 76.7058 Q177.115 77.0183 175.136 77.6781 L175.136 74.5531 Q177.133 73.9975 178.869 73.7198 Q180.622 73.442 182.167 73.442 Q186.16 73.442 188.487 75.2649 Q190.813 77.0704 190.813 80.1607 Q190.813 82.3135 189.58 83.8065 Q188.348 85.2822 186.074 85.8551 Z" fill="#000000" fill-rule="evenodd" fill-opacity="1" /><path clip-path="url(#clip710)" d="M 0 0 M327.157 96.8793 L332.886 96.8793 L332.886 77.1051 L326.654 78.3551 L326.654 75.1607 L332.851 73.9107 L336.358 73.9107 L336.358 96.8793 L342.087 96.8793 L342.087 99.8307 L327.157 99.8307 L327.157 96.8793 Z" fill="#000000" fill-rule="evenodd" fill-opacity="1" /><path clip-path="url(#clip710)" d="M 0 0 M353.824 85.4732 Q351.462 85.4732 350.074 87.0877 Q348.702 88.7023 348.702 91.5148 Q348.702 94.3099 350.074 95.9419 Q351.462 97.5564 353.824 97.5564 Q356.185 97.5564 357.556 95.9419 Q358.945 94.3099 358.945 91.5148 Q358.945 88.7023 357.556 87.0877 Q356.185 85.4732 353.824 85.4732 M360.785 74.4836 L360.785 77.6781 Q359.466 77.0531 358.112 76.7232 Q356.775 76.3933 355.455 76.3933 Q351.983 76.3933 350.143 78.7371 Q348.32 81.0808 348.06 85.8204 Q349.084 84.31 350.629 83.5114 Q352.174 82.6954 354.032 82.6954 Q357.938 82.6954 360.195 85.0739 Q362.469 87.435 362.469 91.5148 Q362.469 95.5078 360.108 97.921 Q357.747 100.334 353.824 100.334 Q349.327 100.334 346.949 96.8967 Q344.57 93.4419 344.57 86.8968 Q344.57 80.751 347.487 77.1051 Q350.403 73.442 355.317 73.442 Q356.636 73.442 357.973 73.7024 Q359.327 73.9628 360.785 74.4836 Z" fill="#000000" fill-rule="evenodd" fill-opacity="1" /><path clip-path="url(#clip710)" d="M 0 0 M241.937 241.076 L247.666 241.076 L247.666 221.302 L241.433 222.552 L241.433 219.357 L247.631 218.107 L251.138 218.107 L251.138 241.076 L256.867 241.076 L256.867 244.027 L241.937 244.027 L241.937 241.076 Z" fill="#000000" fill-rule="evenodd" fill-opacity="1" /><path clip-path="url(#clip710)" d="M 0 0 M260.773 243.489 L260.773 240.295 Q262.093 240.92 263.447 241.25 Q264.801 241.579 266.103 241.579 Q269.575 241.579 271.398 239.253 Q273.238 236.909 273.499 232.152 Q272.492 233.645 270.947 234.444 Q269.402 235.243 267.527 235.243 Q263.638 235.243 261.364 232.899 Q259.107 230.538 259.107 226.458 Q259.107 222.465 261.468 220.052 Q263.829 217.639 267.752 217.639 Q272.249 217.639 274.61 221.093 Q276.988 224.531 276.988 231.093 Q276.988 237.222 274.072 240.885 Q271.172 244.531 266.259 244.531 Q264.94 244.531 263.586 244.27 Q262.232 244.01 260.773 243.489 M267.752 232.5 Q270.113 232.5 271.485 230.885 Q272.874 229.27 272.874 226.458 Q272.874 223.663 271.485 222.048 Q270.113 220.416 267.752 220.416 Q265.391 220.416 264.002 222.048 Q262.631 223.663 262.631 226.458 Q262.631 229.27 264.002 230.885 Q265.391 232.5 267.752 232.5 Z" fill="#000000" fill-rule="evenodd" fill-opacity="1" /><path clip-path="url(#clip710)" d="M 0 0 M203.042 168.978 L215.281 168.978 L215.281 171.929 L198.823 171.929 L198.823 168.978 Q200.819 166.912 204.257 163.44 Q207.712 159.95 208.597 158.943 Q210.281 157.051 210.941 155.749 Q211.618 154.429 211.618 153.162 Q211.618 151.096 210.16 149.794 Q208.719 148.492 206.392 148.492 Q204.743 148.492 202.903 149.065 Q201.08 149.637 198.996 150.801 L198.996 147.259 Q201.114 146.408 202.955 145.974 Q204.795 145.54 206.323 145.54 Q210.351 145.54 212.746 147.554 Q215.142 149.568 215.142 152.936 Q215.142 154.533 214.535 155.974 Q213.944 157.398 212.364 159.342 Q211.93 159.846 209.604 162.259 Q207.278 164.655 203.042 168.978 Z" fill="#000000" fill-rule="evenodd" fill-opacity="1" /><path clip-path="url(#clip710)" d="M 0 0 M226.583 148.318 Q223.875 148.318 222.503 150.992 Q221.149 153.648 221.149 158.995 Q221.149 164.325 222.503 166.999 Q223.875 169.655 226.583 169.655 Q229.309 169.655 230.663 166.999 Q232.034 164.325 232.034 158.995 Q232.034 153.648 230.663 150.992 Q229.309 148.318 226.583 148.318 M226.583 145.54 Q230.941 145.54 233.232 148.995 Q235.541 152.433 235.541 158.995 Q235.541 165.54 233.232 168.995 Q230.941 172.433 226.583 172.433 Q222.225 172.433 219.916 168.995 Q217.625 165.54 217.625 158.995 Q217.625 152.433 219.916 148.995 Q222.225 145.54 226.583 145.54 Z" fill="#000000" fill-rule="evenodd" fill-opacity="1" /><path clip-path="url(#clip710)" d="M 0 0 M288.262 168.978 L300.502 168.978 L300.502 171.929 L284.043 171.929 L284.043 168.978 Q286.04 166.912 289.477 163.44 Q292.932 159.95 293.818 158.943 Q295.502 157.051 296.161 155.749 Q296.838 154.429 296.838 153.162 Q296.838 151.096 295.38 149.794 Q293.939 148.492 291.613 148.492 Q289.963 148.492 288.123 149.065 Q286.3 149.637 284.217 150.801 L284.217 147.259 Q286.335 146.408 288.175 145.974 Q290.015 145.54 291.543 145.54 Q295.571 145.54 297.967 147.554 Q300.363 149.568 300.363 152.936 Q300.363 154.533 299.755 155.974 Q299.165 157.398 297.585 159.342 Q297.151 159.846 294.824 162.259 Q292.498 164.655 288.262 168.978 Z" fill="#000000" fill-rule="evenodd" fill-opacity="1" /><path clip-path="url(#clip710)" d="M 0 0 M304.911 168.978 L310.64 168.978 L310.64 149.203 L304.408 150.453 L304.408 147.259 L310.606 146.009 L314.113 146.009 L314.113 168.978 L319.842 168.978 L319.842 171.929 L304.911 171.929 L304.911 168.978 Z" fill="#000000" fill-rule="evenodd" fill-opacity="1" /><path clip-path="url(#clip710)" d="M 0 0 M416.093 241.076 L428.332 241.076 L428.332 244.027 L411.874 244.027 L411.874 241.076 Q413.871 239.01 417.308 235.538 Q420.763 232.048 421.648 231.041 Q423.332 229.149 423.992 227.847 Q424.669 226.527 424.669 225.26 Q424.669 223.194 423.211 221.892 Q421.77 220.59 419.443 220.59 Q417.794 220.59 415.954 221.163 Q414.131 221.736 412.048 222.899 L412.048 219.357 Q414.166 218.507 416.006 218.073 Q417.846 217.639 419.374 217.639 Q423.402 217.639 425.798 219.652 Q428.193 221.666 428.193 225.034 Q428.193 226.632 427.586 228.073 Q426.995 229.496 425.416 231.441 Q424.982 231.944 422.655 234.357 Q420.329 236.753 416.093 241.076 Z" fill="#000000" fill-rule="evenodd" fill-opacity="1" /><path clip-path="url(#clip710)" d="M 0 0 M435.155 241.076 L447.395 241.076 L447.395 244.027 L430.936 244.027 L430.936 241.076 Q432.933 239.01 436.37 235.538 Q439.825 232.048 440.711 231.041 Q442.395 229.149 443.054 227.847 Q443.731 226.527 443.731 225.26 Q443.731 223.194 442.273 221.892 Q440.832 220.59 438.506 220.59 Q436.857 220.59 435.016 221.163 Q433.193 221.736 431.11 222.899 L431.11 219.357 Q433.228 218.507 435.068 218.073 Q436.909 217.639 438.436 217.639 Q442.464 217.639 444.86 219.652 Q447.256 221.666 447.256 225.034 Q447.256 226.632 446.648 228.073 Q446.058 229.496 444.478 231.441 Q444.044 231.944 441.718 234.357 Q439.391 236.753 435.155 241.076 Z" fill="#000000" fill-rule="evenodd" fill-opacity="1" /><path clip-path="url(#clip710)" d="M 0 0 M373.483 168.978 L385.722 168.978 L385.722 171.929 L369.264 171.929 L369.264 168.978 Q371.26 166.912 374.698 163.44 Q378.153 159.95 379.038 158.943 Q380.722 157.051 381.382 155.749 Q382.059 154.429 382.059 153.162 Q382.059 151.096 380.601 149.794 Q379.16 148.492 376.833 148.492 Q375.184 148.492 373.344 149.065 Q371.521 149.637 369.437 150.801 L369.437 147.259 Q371.555 146.408 373.396 145.974 Q375.236 145.54 376.764 145.54 Q380.791 145.54 383.187 147.554 Q385.583 149.568 385.583 152.936 Q385.583 154.533 384.976 155.974 Q384.385 157.398 382.805 159.342 Q382.371 159.846 380.045 162.259 Q377.719 164.655 373.483 168.978 Z" fill="#000000" fill-rule="evenodd" fill-opacity="1" /><path clip-path="url(#clip710)" d="M 0 0 M400.149 157.953 Q402.666 158.492 404.073 160.193 Q405.496 161.894 405.496 164.394 Q405.496 168.231 402.857 170.332 Q400.218 172.433 395.357 172.433 Q393.725 172.433 391.989 172.103 Q390.271 171.79 388.43 171.148 L388.43 167.762 Q389.889 168.613 391.625 169.047 Q393.361 169.481 395.253 169.481 Q398.552 169.481 400.271 168.179 Q402.007 166.877 402.007 164.394 Q402.007 162.103 400.392 160.818 Q398.795 159.516 395.93 159.516 L392.909 159.516 L392.909 156.634 L396.069 156.634 Q398.656 156.634 400.028 155.61 Q401.399 154.568 401.399 152.624 Q401.399 150.627 399.975 149.568 Q398.569 148.492 395.93 148.492 Q394.489 148.492 392.84 148.804 Q391.191 149.117 389.212 149.776 L389.212 146.651 Q391.208 146.096 392.944 145.818 Q394.698 145.54 396.243 145.54 Q400.236 145.54 402.562 147.363 Q404.889 149.169 404.889 152.259 Q404.889 154.412 403.656 155.905 Q402.423 157.381 400.149 157.953 Z" fill="#000000" fill-rule="evenodd" fill-opacity="1" /><path clip-path="url(#clip710)" d="M 0 0 M458.703 168.978 L470.942 168.978 L470.942 171.929 L454.484 171.929 L454.484 168.978 Q456.481 166.912 459.918 163.44 Q463.373 159.95 464.259 158.943 Q465.943 157.051 466.602 155.749 Q467.279 154.429 467.279 153.162 Q467.279 151.096 465.821 149.794 Q464.38 148.492 462.054 148.492 Q460.404 148.492 458.564 149.065 Q456.741 149.637 454.658 150.801 L454.658 147.259 Q456.776 146.408 458.616 145.974 Q460.456 145.54 461.984 145.54 Q466.012 145.54 468.408 147.554 Q470.804 149.568 470.804 152.936 Q470.804 154.533 470.196 155.974 Q469.606 157.398 468.026 159.342 Q467.592 159.846 465.265 162.259 Q462.939 164.655 458.703 168.978 Z" fill="#000000" fill-rule="evenodd" fill-opacity="1" /><path clip-path="url(#clip710)" d="M 0 0 M484.38 149.065 L475.526 162.901 L484.38 162.901 L484.38 149.065 M483.46 146.009 L487.869 146.009 L487.869 162.901 L491.567 162.901 L491.567 165.818 L487.869 165.818 L487.869 171.929 L484.38 171.929 L484.38 165.818 L472.679 165.818 L472.679 162.433 L483.46 146.009 Z" fill="#000000" fill-rule="evenodd" fill-opacity="1" /><path clip-path="url(#clip710)" d="M 0 0 M586.534 241.076 L598.773 241.076 L598.773 244.027 L582.315 244.027 L582.315 241.076 Q584.311 239.01 587.749 235.538 Q591.204 232.048 592.089 231.041 Q593.773 229.149 594.433 227.847 Q595.11 226.527 595.11 225.26 Q595.11 223.194 593.652 221.892 Q592.211 220.59 589.884 220.59 Q588.235 220.59 586.395 221.163 Q584.572 221.736 582.489 222.899 L582.489 219.357 Q584.607 218.507 586.447 218.073 Q588.287 217.639 589.815 217.639 Q593.843 217.639 596.238 219.652 Q598.634 221.666 598.634 225.034 Q598.634 226.632 598.027 228.073 Q597.436 229.496 595.857 231.441 Q595.423 231.944 593.096 234.357 Q590.77 236.753 586.534 241.076 Z" fill="#000000" fill-rule="evenodd" fill-opacity="1" /><path clip-path="url(#clip710)" d="M 0 0 M602.61 218.107 L616.377 218.107 L616.377 221.059 L605.822 221.059 L605.822 227.413 Q606.586 227.152 607.35 227.031 Q608.113 226.892 608.877 226.892 Q613.218 226.892 615.752 229.27 Q618.287 231.649 618.287 235.711 Q618.287 239.895 615.683 242.222 Q613.079 244.531 608.339 244.531 Q606.707 244.531 605.006 244.253 Q603.322 243.975 601.516 243.42 L601.516 239.895 Q603.079 240.746 604.745 241.163 Q606.412 241.579 608.27 241.579 Q611.273 241.579 613.027 240 Q614.78 238.42 614.78 235.711 Q614.78 233.003 613.027 231.423 Q611.273 229.843 608.27 229.843 Q606.863 229.843 605.457 230.156 Q604.068 230.468 602.61 231.128 L602.61 218.107 Z" fill="#000000" fill-rule="evenodd" fill-opacity="1" /><path clip-path="url(#clip710)" d="M 0 0 M543.923 168.978 L556.163 168.978 L556.163 171.929 L539.705 171.929 L539.705 168.978 Q541.701 166.912 545.139 163.44 Q548.594 159.95 549.479 158.943 Q551.163 157.051 551.823 155.749 Q552.5 154.429 552.5 153.162 Q552.5 151.096 551.041 149.794 Q549.601 148.492 547.274 148.492 Q545.625 148.492 543.785 149.065 Q541.962 149.637 539.878 150.801 L539.878 147.259 Q541.996 146.408 543.837 145.974 Q545.677 145.54 547.205 145.54 Q551.232 145.54 553.628 147.554 Q556.024 149.568 556.024 152.936 Q556.024 154.533 555.416 155.974 Q554.826 157.398 553.246 159.342 Q552.812 159.846 550.486 162.259 Q548.16 164.655 543.923 168.978 Z" fill="#000000" fill-rule="evenodd" fill-opacity="1" /><path clip-path="url(#clip710)" d="M 0 0 M567.899 157.571 Q565.538 157.571 564.149 159.186 Q562.778 160.801 562.778 163.613 Q562.778 166.408 564.149 168.04 Q565.538 169.655 567.899 169.655 Q570.26 169.655 571.632 168.04 Q573.021 166.408 573.021 163.613 Q573.021 160.801 571.632 159.186 Q570.26 157.571 567.899 157.571 M574.861 146.582 L574.861 149.776 Q573.541 149.151 572.187 148.822 Q570.85 148.492 569.531 148.492 Q566.059 148.492 564.218 150.835 Q562.396 153.179 562.135 157.919 Q563.159 156.408 564.705 155.61 Q566.25 154.794 568.107 154.794 Q572.014 154.794 574.271 157.172 Q576.545 159.533 576.545 163.613 Q576.545 167.606 574.184 170.019 Q571.823 172.433 567.899 172.433 Q563.403 172.433 561.024 168.995 Q558.646 165.54 558.646 158.995 Q558.646 152.849 561.562 149.203 Q564.479 145.54 569.392 145.54 Q570.712 145.54 572.048 145.801 Q573.402 146.061 574.861 146.582 Z" fill="#000000" fill-rule="evenodd" fill-opacity="1" /><path clip-path="url(#clip710)" d="M 0 0 M629.144 168.978 L641.383 168.978 L641.383 171.929 L624.925 171.929 L624.925 168.978 Q626.922 166.912 630.359 163.44 Q633.814 159.95 634.699 158.943 Q636.383 157.051 637.043 155.749 Q637.72 154.429 637.72 153.162 Q637.72 151.096 636.262 149.794 Q634.821 148.492 632.495 148.492 Q630.845 148.492 629.005 149.065 Q627.182 149.637 625.099 150.801 L625.099 147.259 Q627.217 146.408 629.057 145.974 Q630.897 145.54 632.425 145.54 Q636.453 145.54 638.849 147.554 Q641.245 149.568 641.245 152.936 Q641.245 154.533 640.637 155.974 Q640.047 157.398 638.467 159.342 Q638.033 159.846 635.706 162.259 Q633.38 164.655 629.144 168.978 Z" fill="#000000" fill-rule="evenodd" fill-opacity="1" /><path clip-path="url(#clip710)" d="M 0 0 M644.3 146.009 L660.967 146.009 L660.967 147.502 L651.557 171.929 L647.894 171.929 L656.748 148.96 L644.3 148.96 L644.3 146.009 Z" fill="#000000" fill-rule="evenodd" fill-opacity="1" /><path clip-path="url(#clip710)" d="M 0 0 M756.975 241.076 L769.214 241.076 L769.214 244.027 L752.756 244.027 L752.756 241.076 Q754.752 239.01 758.19 235.538 Q761.645 232.048 762.53 231.041 Q764.214 229.149 764.874 227.847 Q765.551 226.527 765.551 225.26 Q765.551 223.194 764.093 221.892 Q762.652 220.59 760.325 220.59 Q758.676 220.59 756.836 221.163 Q755.013 221.736 752.93 222.899 L752.93 219.357 Q755.048 218.507 756.888 218.073 Q758.728 217.639 760.256 217.639 Q764.284 217.639 766.679 219.652 Q769.075 221.666 769.075 225.034 Q769.075 226.632 768.468 228.073 Q767.877 229.496 766.297 231.441 Q765.863 231.944 763.537 234.357 Q761.211 236.753 756.975 241.076 Z" fill="#000000" fill-rule="evenodd" fill-opacity="1" /><path clip-path="url(#clip710)" d="M 0 0 M780.516 231.718 Q778.016 231.718 776.575 233.055 Q775.152 234.392 775.152 236.736 Q775.152 239.079 776.575 240.416 Q778.016 241.753 780.516 241.753 Q783.016 241.753 784.457 240.416 Q785.898 239.062 785.898 236.736 Q785.898 234.392 784.457 233.055 Q783.034 231.718 780.516 231.718 M777.009 230.225 Q774.752 229.67 773.485 228.125 Q772.235 226.58 772.235 224.357 Q772.235 221.25 774.44 219.444 Q776.662 217.639 780.516 217.639 Q784.388 217.639 786.593 219.444 Q788.797 221.25 788.797 224.357 Q788.797 226.58 787.53 228.125 Q786.28 229.67 784.04 230.225 Q786.575 230.816 787.981 232.534 Q789.405 234.253 789.405 236.736 Q789.405 240.503 787.096 242.517 Q784.804 244.531 780.516 244.531 Q776.228 244.531 773.919 242.517 Q771.627 240.503 771.627 236.736 Q771.627 234.253 773.051 232.534 Q774.475 230.816 777.009 230.225 M775.725 224.687 Q775.725 226.701 776.975 227.83 Q778.242 228.958 780.516 228.958 Q782.773 228.958 784.04 227.83 Q785.325 226.701 785.325 224.687 Q785.325 222.673 784.04 221.545 Q782.773 220.416 780.516 220.416 Q778.242 220.416 776.975 221.545 Q775.725 222.673 775.725 224.687 Z" fill="#000000" fill-rule="evenodd" fill-opacity="1" /><path clip-path="url(#clip710)" d="M 0 0 M714.364 168.978 L726.604 168.978 L726.604 171.929 L710.146 171.929 L710.146 168.978 Q712.142 166.912 715.58 163.44 Q719.035 159.95 719.92 158.943 Q721.604 157.051 722.264 155.749 Q722.941 154.429 722.941 153.162 Q722.941 151.096 721.482 149.794 Q720.041 148.492 717.715 148.492 Q716.066 148.492 714.226 149.065 Q712.403 149.637 710.319 150.801 L710.319 147.259 Q712.437 146.408 714.278 145.974 Q716.118 145.54 717.646 145.54 Q721.673 145.54 724.069 147.554 Q726.465 149.568 726.465 152.936 Q726.465 154.533 725.857 155.974 Q725.267 157.398 723.687 159.342 Q723.253 159.846 720.927 162.259 Q718.6 164.655 714.364 168.978 Z" fill="#000000" fill-rule="evenodd" fill-opacity="1" /><path clip-path="url(#clip710)" d="M 0 0 M730.51 171.391 L730.51 168.196 Q731.83 168.821 733.184 169.151 Q734.538 169.481 735.84 169.481 Q739.312 169.481 741.135 167.155 Q742.975 164.811 743.236 160.054 Q742.229 161.547 740.684 162.346 Q739.139 163.144 737.264 163.144 Q733.375 163.144 731.1 160.801 Q728.843 158.44 728.843 154.36 Q728.843 150.367 731.205 147.953 Q733.566 145.54 737.489 145.54 Q741.986 145.54 744.347 148.995 Q746.725 152.433 746.725 158.995 Q746.725 165.124 743.809 168.787 Q740.909 172.433 735.996 172.433 Q734.677 172.433 733.323 172.172 Q731.968 171.912 730.51 171.391 M737.489 160.401 Q739.85 160.401 741.222 158.787 Q742.611 157.172 742.611 154.36 Q742.611 151.565 741.222 149.95 Q739.85 148.318 737.489 148.318 Q735.128 148.318 733.739 149.95 Q732.368 151.565 732.368 154.36 Q732.368 157.172 733.739 158.787 Q735.128 160.401 737.489 160.401 Z" fill="#000000" fill-rule="evenodd" fill-opacity="1" /></svg>
