<?xml version="1.0" encoding="utf-8"?>
<svg xmlns="http://www.w3.org/2000/svg" xmlns:xlink="http://www.w3.org/1999/xlink" width="200" height="200" viewBox="0 0 800 800">
<defs>
  <clipPath id="clip890">
    <rect x="0" y="0" width="800" height="800"/>
  </clipPath>
</defs>
<path clip-path="url(#clip890)" d="
M0 800 L800 800 L800 0 L0 0  Z
  " fill="#ffffff" fill-rule="evenodd" fill-opacity="1"/>
<defs>
  <clipPath id="clip891">
    <rect x="160" y="80" width="561" height="561"/>
  </clipPath>
</defs>
<path clip-path="url(#clip890)" d="
M70.9921 729.008 L752.756 729.008 L752.756 62.9921 L70.9921 62.9921  Z
  " fill="#ffffff" fill-rule="evenodd" fill-opacity="1"/>
<defs>
  <clipPath id="clip892">
    <rect x="70" y="62" width="683" height="667"/>
  </clipPath>
</defs>
<polyline clip-path="url(#clip890)" style="stroke:#000000; stroke-width:4; stroke-opacity:1; fill:none" points="
  70.9921,729.008 752.756,729.008 
  "/>
<polyline clip-path="url(#clip890)" style="stroke:#000000; stroke-width:4; stroke-opacity:1; fill:none" points="
  70.9921,729.008 70.9921,721.016 
  "/>
<polyline clip-path="url(#clip890)" style="stroke:#000000; stroke-width:4; stroke-opacity:1; fill:none" points="
  241.433,729.008 241.433,721.016 
  "/>
<polyline clip-path="url(#clip890)" style="stroke:#000000; stroke-width:4; stroke-opacity:1; fill:none" points="
  411.874,729.008 411.874,721.016 
  "/>
<polyline clip-path="url(#clip890)" style="stroke:#000000; stroke-width:4; stroke-opacity:1; fill:none" points="
  582.315,729.008 582.315,721.016 
  "/>
<polyline clip-path="url(#clip890)" style="stroke:#000000; stroke-width:4; stroke-opacity:1; fill:none" points="
  752.756,729.008 752.756,721.016 
  "/>
<path clip-path="url(#clip890)" d="M 0 0 M43.446 760.051 L73.1217 760.051 L73.1217 763.986 L43.446 763.986 L43.446 760.051 Z" fill="#000000" fill-rule="evenodd" fill-opacity="1" /><path clip-path="url(#clip890)" d="M 0 0 M82.2189 772.945 L98.5383 772.945 L98.5383 776.88 L76.5939 776.88 L76.5939 772.945 Q79.256 770.19 83.8393 765.56 Q88.4457 760.908 89.6263 759.565 Q91.8716 757.042 92.7513 755.306 Q93.654 753.547 93.654 751.857 Q93.654 749.102 91.7096 747.366 Q89.7883 745.63 86.6865 745.63 Q84.4874 745.63 82.0337 746.394 Q79.6032 747.158 76.8254 748.709 L76.8254 743.987 Q79.6495 742.852 82.1032 742.274 Q84.5569 741.695 86.5939 741.695 Q91.9642 741.695 95.1587 744.38 Q98.3531 747.065 98.3531 751.556 Q98.3531 753.686 97.5429 755.607 Q96.7559 757.505 94.6494 760.098 Q94.0707 760.769 90.9689 763.986 Q87.867 767.181 82.2189 772.945 Z" fill="#000000" fill-rule="evenodd" fill-opacity="1" /><path clip-path="url(#clip890)" d="M 0 0 M213.702 760.051 L243.378 760.051 L243.378 763.986 L213.702 763.986 L213.702 760.051 Z" fill="#000000" fill-rule="evenodd" fill-opacity="1" /><path clip-path="url(#clip890)" d="M 0 0 M249.257 772.945 L256.896 772.945 L256.896 746.579 L248.586 748.246 L248.586 743.987 L256.85 742.32 L261.526 742.32 L261.526 772.945 L269.164 772.945 L269.164 776.88 L249.257 776.88 L249.257 772.945 Z" fill="#000000" fill-rule="evenodd" fill-opacity="1" /><path clip-path="url(#clip890)" d="M 0 0 M411.874 745.399 Q408.263 745.399 406.434 748.963 Q404.629 752.505 404.629 759.635 Q404.629 766.741 406.434 770.306 Q408.263 773.847 411.874 773.847 Q415.508 773.847 417.314 770.306 Q419.142 766.741 419.142 759.635 Q419.142 752.505 417.314 748.963 Q415.508 745.399 411.874 745.399 M411.874 741.695 Q417.684 741.695 420.74 746.301 Q423.818 750.885 423.818 759.635 Q423.818 768.361 420.74 772.968 Q417.684 777.551 411.874 777.551 Q406.064 777.551 402.985 772.968 Q399.93 768.361 399.93 759.635 Q399.93 750.885 402.985 746.301 Q406.064 741.695 411.874 741.695 Z" fill="#000000" fill-rule="evenodd" fill-opacity="1" /><path clip-path="url(#clip890)" d="M 0 0 M572.697 772.945 L580.336 772.945 L580.336 746.579 L572.026 748.246 L572.026 743.987 L580.29 742.32 L584.965 742.32 L584.965 772.945 L592.604 772.945 L592.604 776.88 L572.697 776.88 L572.697 772.945 Z" fill="#000000" fill-rule="evenodd" fill-opacity="1" /><path clip-path="url(#clip890)" d="M 0 0 M747.409 772.945 L763.728 772.945 L763.728 776.88 L741.784 776.88 L741.784 772.945 Q744.446 770.19 749.029 765.56 Q753.636 760.908 754.816 759.565 Q757.061 757.042 757.941 755.306 Q758.844 753.547 758.844 751.857 Q758.844 749.102 756.899 747.366 Q754.978 745.63 751.876 745.63 Q749.677 745.63 747.224 746.394 Q744.793 747.158 742.015 748.709 L742.015 743.987 Q744.839 742.852 747.293 742.274 Q749.747 741.695 751.784 741.695 Q757.154 741.695 760.348 744.38 Q763.543 747.065 763.543 751.556 Q763.543 753.686 762.733 755.607 Q761.946 757.505 759.839 760.098 Q759.261 760.769 756.159 763.986 Q753.057 767.181 747.409 772.945 Z" fill="#000000" fill-rule="evenodd" fill-opacity="1" /><polyline clip-path="url(#clip890)" style="stroke:#000000; stroke-width:4; stroke-opacity:1; fill:none" points="
  70.9921,729.008 70.9921,62.9921 
  "/>
<polyline clip-path="url(#clip890)" style="stroke:#000000; stroke-width:4; stroke-opacity:1; fill:none" points="
  70.9921,729.008 79.1733,729.008 
  "/>
<polyline clip-path="url(#clip890)" style="stroke:#000000; stroke-width:4; stroke-opacity:1; fill:none" points="
  70.9921,562.504 79.1733,562.504 
  "/>
<polyline clip-path="url(#clip890)" style="stroke:#000000; stroke-width:4; stroke-opacity:1; fill:none" points="
  70.9921,396 79.1733,396 
  "/>
<polyline clip-path="url(#clip890)" style="stroke:#000000; stroke-width:4; stroke-opacity:1; fill:none" points="
  70.9921,229.496 79.1733,229.496 
  "/>
<polyline clip-path="url(#clip890)" style="stroke:#000000; stroke-width:4; stroke-opacity:1; fill:none" points="
  70.9921,62.9921 79.1733,62.9921 
  "/>
<path clip-path="url(#clip890)" d="M 0 0 M3.89983 729.459 L33.5756 729.459 L33.5756 733.394 L3.89983 733.394 L3.89983 729.459 Z" fill="#000000" fill-rule="evenodd" fill-opacity="1" /><path clip-path="url(#clip890)" d="M 0 0 M42.6728 742.353 L58.9921 742.353 L58.9921 746.288 L37.0478 746.288 L37.0478 742.353 Q39.7098 739.598 44.2931 734.968 Q48.8996 730.316 50.0801 728.973 Q52.3255 726.45 53.2051 724.714 Q54.1079 722.955 54.1079 721.265 Q54.1079 718.51 52.1635 716.774 Q50.2422 715.038 47.1403 715.038 Q44.9413 715.038 42.4876 715.802 Q40.057 716.566 37.2793 718.117 L37.2793 713.395 Q40.1033 712.26 42.557 711.682 Q45.0107 711.103 47.0477 711.103 Q52.4181 711.103 55.6125 713.788 Q58.8069 716.473 58.8069 720.964 Q58.8069 723.094 57.9968 725.015 Q57.2097 726.913 55.1033 729.506 Q54.5246 730.177 51.4227 733.394 Q48.3209 736.589 42.6728 742.353 Z" fill="#000000" fill-rule="evenodd" fill-opacity="1" /><path clip-path="url(#clip890)" d="M 0 0 M3.52946 562.955 L33.2052 562.955 L33.2052 566.89 L3.52946 566.89 L3.52946 562.955 Z" fill="#000000" fill-rule="evenodd" fill-opacity="1" /><path clip-path="url(#clip890)" d="M 0 0 M39.0848 575.849 L46.7237 575.849 L46.7237 549.483 L38.4135 551.15 L38.4135 546.891 L46.6774 545.224 L51.3533 545.224 L51.3533 575.849 L58.9921 575.849 L58.9921 579.784 L39.0848 579.784 L39.0848 575.849 Z" fill="#000000" fill-rule="evenodd" fill-opacity="1" /><path clip-path="url(#clip890)" d="M 0 0 M47.0477 381.799 Q43.4367 381.799 41.608 385.363 Q39.8024 388.905 39.8024 396.035 Q39.8024 403.141 41.608 406.706 Q43.4367 410.248 47.0477 410.248 Q50.682 410.248 52.4875 406.706 Q54.3162 403.141 54.3162 396.035 Q54.3162 388.905 52.4875 385.363 Q50.682 381.799 47.0477 381.799 M47.0477 378.095 Q52.8579 378.095 55.9134 382.701 Q58.9921 387.285 58.9921 396.035 Q58.9921 404.762 55.9134 409.368 Q52.8579 413.951 47.0477 413.951 Q41.2376 413.951 38.1589 409.368 Q35.1034 404.762 35.1034 396.035 Q35.1034 387.285 38.1589 382.701 Q41.2376 378.095 47.0477 378.095 Z" fill="#000000" fill-rule="evenodd" fill-opacity="1" /><path clip-path="url(#clip890)" d="M 0 0 M39.0848 242.841 L46.7237 242.841 L46.7237 216.475 L38.4135 218.142 L38.4135 213.883 L46.6774 212.216 L51.3533 212.216 L51.3533 242.841 L58.9921 242.841 L58.9921 246.776 L39.0848 246.776 L39.0848 242.841 Z" fill="#000000" fill-rule="evenodd" fill-opacity="1" /><path clip-path="url(#clip890)" d="M 0 0 M42.6728 76.337 L58.9921 76.337 L58.9921 80.2721 L37.0478 80.2721 L37.0478 76.337 Q39.7098 73.5823 44.2931 68.9527 Q48.8996 64.3 50.0801 62.9574 Q52.3255 60.4343 53.2051 58.6982 Q54.1079 56.9389 54.1079 55.2491 Q54.1079 52.4945 52.1635 50.7584 Q50.2422 49.0223 47.1403 49.0223 Q44.9413 49.0223 42.4876 49.7862 Q40.057 50.5501 37.2793 52.101 L37.2793 47.3788 Q40.1033 46.2445 42.557 45.6658 Q45.0107 45.0871 47.0477 45.0871 Q52.4181 45.0871 55.6125 47.7723 Q58.8069 50.4575 58.8069 54.9482 Q58.8069 57.0778 57.9968 58.9991 Q57.2097 60.8972 55.1033 63.4898 Q54.5246 64.1611 51.4227 67.3787 Q48.3209 70.5731 42.6728 76.337 Z" fill="#000000" fill-rule="evenodd" fill-opacity="1" /><path clip-path="url(#clip890)" d="M 0 0 M353.819 5.45367 L363.634 5.45367 L363.634 8.76384 L358.078 8.76384 L358.078 44.4118 L363.634 44.4118 L363.634 47.722 L353.819 47.722 L353.819 5.45367 Z" fill="#000000" fill-rule="evenodd" fill-opacity="1" /><path clip-path="url(#clip890)" d="M 0 0 M365.948 26.5878 L378.425 26.5878 L378.425 30.3841 L365.948 30.3841 L365.948 26.5878 Z" fill="#000000" fill-rule="evenodd" fill-opacity="1" /><path clip-path="url(#clip890)" d="M 0 0 M384.305 37.5368 L391.944 37.5368 L391.944 11.1712 L383.633 12.8379 L383.633 8.57866 L391.897 6.912 L396.573 6.912 L396.573 37.5368 L404.212 37.5368 L404.212 41.472 L384.305 41.472 L384.305 37.5368 Z" fill="#000000" fill-rule="evenodd" fill-opacity="1" /><path clip-path="url(#clip890)" d="M 0 0 M409.768 35.5924 L414.652 35.5924 L414.652 39.5739 L410.856 46.9812 L407.869 46.9812 L409.768 39.5739 L409.768 35.5924 Z" fill="#000000" fill-rule="evenodd" fill-opacity="1" /><path clip-path="url(#clip890)" d="M 0 0 M435.601 37.5368 L443.24 37.5368 L443.24 11.1712 L434.929 12.8379 L434.929 8.57866 L443.193 6.912 L447.869 6.912 L447.869 37.5368 L455.508 37.5368 L455.508 41.472 L435.601 41.472 L435.601 37.5368 Z" fill="#000000" fill-rule="evenodd" fill-opacity="1" /><path clip-path="url(#clip890)" d="M 0 0 M469.929 5.45367 L469.929 47.722 L460.114 47.722 L460.114 44.4118 L465.647 44.4118 L465.647 8.76384 L460.114 8.76384 L460.114 5.45367 L469.929 5.45367 Z" fill="#000000" fill-rule="evenodd" fill-opacity="1" /><circle clip-path="url(#clip892)" cx="411.874" cy="540.197" r="14" fill="#0000ff" fill-rule="evenodd" fill-opacity="1" stroke="none"/>
<circle clip-path="url(#clip892)" cx="369.264" cy="468.098" r="14" fill="#0000ff" fill-rule="evenodd" fill-opacity="1" stroke="none"/>
<circle clip-path="url(#clip892)" cx="454.484" cy="468.098" r="14" fill="#0000ff" fill-rule="evenodd" fill-opacity="1" stroke="none"/>
<circle clip-path="url(#clip892)" cx="582.315" cy="540.197" r="14" fill="#0000ff" fill-rule="evenodd" fill-opacity="1" stroke="none"/>
<circle clip-path="url(#clip892)" cx="539.705" cy="468.098" r="14" fill="#0000ff" fill-rule="evenodd" fill-opacity="1" stroke="none"/>
<circle clip-path="url(#clip892)" cx="624.925" cy="468.098" r="14" fill="#0000ff" fill-rule="evenodd" fill-opacity="1" stroke="none"/>
<circle clip-path="url(#clip892)" cx="497.094" cy="684.393" r="14" fill="#0000ff" fill-rule="evenodd" fill-opacity="1" stroke="none"/>
<circle clip-path="url(#clip892)" cx="454.484" cy="612.295" r="14" fill="#0000ff" fill-rule="evenodd" fill-opacity="1" stroke="none"/>
<circle clip-path="url(#clip892)" cx="539.705" cy="612.295" r="14" fill="#0000ff" fill-rule="evenodd" fill-opacity="1" stroke="none"/>
<circle clip-path="url(#clip892)" cx="667.535" cy="684.393" r="14" fill="#0000ff" fill-rule="evenodd" fill-opacity="1" stroke="none"/>
<circle clip-path="url(#clip892)" cx="624.925" cy="612.295" r="14" fill="#0000ff" fill-rule="evenodd" fill-opacity="1" stroke="none"/>
<circle clip-path="url(#clip892)" cx="710.146" cy="612.295" r="14" fill="#0000ff" fill-rule="evenodd" fill-opacity="1" stroke="none"/>
<circle clip-path="url(#clip892)" cx="156.213" cy="684.393" r="14" fill="#0000ff" fill-rule="evenodd" fill-opacity="1" stroke="none"/>
<circle clip-path="url(#clip892)" cx="113.602" cy="612.295" r="14" fill="#0000ff" fill-rule="evenodd" fill-opacity="1" stroke="none"/>
<circle clip-path="url(#clip892)" cx="198.823" cy="612.295" r="14" fill="#0000ff" fill-rule="evenodd" fill-opacity="1" stroke="none"/>
<circle clip-path="url(#clip892)" cx="326.654" cy="684.393" r="14" fill="#0000ff" fill-rule="evenodd" fill-opacity="1" stroke="none"/>
<circle clip-path="url(#clip892)" cx="284.043" cy="612.295" r="14" fill="#0000ff" fill-rule="evenodd" fill-opacity="1" stroke="none"/>
<circle clip-path="url(#clip892)" cx="369.264" cy="612.295" r="14" fill="#0000ff" fill-rule="evenodd" fill-opacity="1" stroke="none"/>
<path clip-path="url(#clip890)" d="M 0 0 M412.377 529.469 L418.107 529.469 L418.107 509.695 L411.874 510.945 L411.874 507.751 L418.072 506.501 L421.579 506.501 L421.579 529.469 L427.308 529.469 L427.308 532.421 L412.377 532.421 L412.377 529.469 Z" fill="#000000" fill-rule="evenodd" fill-opacity="1" /><path clip-path="url(#clip890)" d="M 0 0 M441.735 518.445 Q444.252 518.983 445.659 520.685 Q447.082 522.386 447.082 524.886 Q447.082 528.723 444.443 530.823 Q441.804 532.924 436.943 532.924 Q435.311 532.924 433.575 532.594 Q431.857 532.282 430.016 531.639 L430.016 528.254 Q431.475 529.105 433.211 529.539 Q434.947 529.973 436.839 529.973 Q440.138 529.973 441.856 528.671 Q443.593 527.369 443.593 524.886 Q443.593 522.594 441.978 521.31 Q440.381 520.008 437.516 520.008 L434.495 520.008 L434.495 517.126 L437.655 517.126 Q440.242 517.126 441.613 516.101 Q442.985 515.06 442.985 513.115 Q442.985 511.119 441.561 510.06 Q440.155 508.983 437.516 508.983 Q436.075 508.983 434.426 509.296 Q432.777 509.608 430.798 510.268 L430.798 507.143 Q432.794 506.587 434.53 506.31 Q436.284 506.032 437.829 506.032 Q441.822 506.032 444.148 507.855 Q446.475 509.66 446.475 512.751 Q446.475 514.903 445.242 516.396 Q444.009 517.872 441.735 518.445 Z" fill="#000000" fill-rule="evenodd" fill-opacity="1" /><path clip-path="url(#clip890)" d="M 0 0 M369.767 457.371 L375.496 457.371 L375.496 437.597 L369.264 438.847 L369.264 435.652 L375.462 434.402 L378.969 434.402 L378.969 457.371 L384.698 457.371 L384.698 460.322 L369.767 460.322 L369.767 457.371 Z" fill="#000000" fill-rule="evenodd" fill-opacity="1" /><path clip-path="url(#clip890)" d="M 0 0 M398.135 437.458 L389.281 451.295 L398.135 451.295 L398.135 437.458 M397.215 434.402 L401.625 434.402 L401.625 451.295 L405.323 451.295 L405.323 454.211 L401.625 454.211 L401.625 460.322 L398.135 460.322 L398.135 454.211 L386.434 454.211 L386.434 450.826 L397.215 434.402 Z" fill="#000000" fill-rule="evenodd" fill-opacity="1" /><path clip-path="url(#clip890)" d="M 0 0 M454.988 457.371 L460.717 457.371 L460.717 437.597 L454.484 438.847 L454.484 435.652 L460.682 434.402 L464.189 434.402 L464.189 457.371 L469.918 457.371 L469.918 460.322 L454.988 460.322 L454.988 457.371 Z" fill="#000000" fill-rule="evenodd" fill-opacity="1" /><path clip-path="url(#clip890)" d="M 0 0 M473.755 434.402 L487.522 434.402 L487.522 437.354 L476.967 437.354 L476.967 443.708 Q477.731 443.447 478.495 443.326 Q479.258 443.187 480.022 443.187 Q484.363 443.187 486.897 445.565 Q489.432 447.944 489.432 452.006 Q489.432 456.19 486.828 458.517 Q484.224 460.826 479.484 460.826 Q477.852 460.826 476.151 460.548 Q474.467 460.27 472.661 459.715 L472.661 456.19 Q474.224 457.041 475.89 457.458 Q477.557 457.874 479.415 457.874 Q482.418 457.874 484.172 456.295 Q485.925 454.715 485.925 452.006 Q485.925 449.298 484.172 447.718 Q482.418 446.138 479.415 446.138 Q478.008 446.138 476.602 446.451 Q475.213 446.763 473.755 447.423 L473.755 434.402 Z" fill="#000000" fill-rule="evenodd" fill-opacity="1" /><path clip-path="url(#clip890)" d="M 0 0 M582.818 529.469 L588.548 529.469 L588.548 509.695 L582.315 510.945 L582.315 507.751 L588.513 506.501 L592.02 506.501 L592.02 529.469 L597.749 529.469 L597.749 532.421 L582.818 532.421 L582.818 529.469 Z" fill="#000000" fill-rule="evenodd" fill-opacity="1" /><path clip-path="url(#clip890)" d="M 0 0 M609.485 518.063 Q607.124 518.063 605.735 519.678 Q604.363 521.292 604.363 524.105 Q604.363 526.9 605.735 528.532 Q607.124 530.146 609.485 530.146 Q611.846 530.146 613.218 528.532 Q614.606 526.9 614.606 524.105 Q614.606 521.292 613.218 519.678 Q611.846 518.063 609.485 518.063 M616.447 507.074 L616.447 510.268 Q615.127 509.643 613.773 509.313 Q612.436 508.983 611.117 508.983 Q607.645 508.983 605.804 511.327 Q603.982 513.671 603.721 518.41 Q604.745 516.9 606.291 516.101 Q607.836 515.285 609.693 515.285 Q613.6 515.285 615.856 517.664 Q618.131 520.025 618.131 524.105 Q618.131 528.098 615.77 530.511 Q613.409 532.924 609.485 532.924 Q604.988 532.924 602.61 529.487 Q600.232 526.032 600.232 519.487 Q600.232 513.341 603.148 509.695 Q606.065 506.032 610.978 506.032 Q612.297 506.032 613.634 506.292 Q614.988 506.553 616.447 507.074 Z" fill="#000000" fill-rule="evenodd" fill-opacity="1" /><path clip-path="url(#clip890)" d="M 0 0 M540.208 457.371 L545.937 457.371 L545.937 437.597 L539.705 438.847 L539.705 435.652 L545.903 434.402 L549.41 434.402 L549.41 457.371 L555.139 457.371 L555.139 460.322 L540.208 460.322 L540.208 457.371 Z" fill="#000000" fill-rule="evenodd" fill-opacity="1" /><path clip-path="url(#clip890)" d="M 0 0 M558.055 434.402 L574.722 434.402 L574.722 435.895 L565.312 460.322 L561.649 460.322 L570.503 437.354 L558.055 437.354 L558.055 434.402 Z" fill="#000000" fill-rule="evenodd" fill-opacity="1" /><path clip-path="url(#clip890)" d="M 0 0 M625.429 457.371 L631.158 457.371 L631.158 437.597 L624.925 438.847 L624.925 435.652 L631.123 434.402 L634.63 434.402 L634.63 457.371 L640.359 457.371 L640.359 460.322 L625.429 460.322 L625.429 457.371 Z" fill="#000000" fill-rule="evenodd" fill-opacity="1" /><path clip-path="url(#clip890)" d="M 0 0 M651.661 448.013 Q649.161 448.013 647.72 449.35 Q646.297 450.687 646.297 453.031 Q646.297 455.374 647.72 456.711 Q649.161 458.048 651.661 458.048 Q654.161 458.048 655.602 456.711 Q657.043 455.357 657.043 453.031 Q657.043 450.687 655.602 449.35 Q654.179 448.013 651.661 448.013 M648.154 446.52 Q645.897 445.965 644.63 444.42 Q643.38 442.874 643.38 440.652 Q643.38 437.545 645.585 435.739 Q647.807 433.934 651.661 433.934 Q655.533 433.934 657.738 435.739 Q659.942 437.545 659.942 440.652 Q659.942 442.874 658.675 444.42 Q657.425 445.965 655.185 446.52 Q657.72 447.111 659.126 448.829 Q660.55 450.548 660.55 453.031 Q660.55 456.798 658.241 458.812 Q655.949 460.826 651.661 460.826 Q647.373 460.826 645.064 458.812 Q642.772 456.798 642.772 453.031 Q642.772 450.548 644.196 448.829 Q645.62 447.111 648.154 446.52 M646.87 440.982 Q646.87 442.996 648.12 444.124 Q649.387 445.253 651.661 445.253 Q653.918 445.253 655.185 444.124 Q656.47 442.996 656.47 440.982 Q656.47 438.968 655.185 437.84 Q653.918 436.711 651.661 436.711 Q649.387 436.711 648.12 437.84 Q646.87 438.968 646.87 440.982 Z" fill="#000000" fill-rule="evenodd" fill-opacity="1" /><path clip-path="url(#clip890)" d="M 0 0 M497.598 673.666 L503.327 673.666 L503.327 653.892 L497.094 655.142 L497.094 651.947 L503.292 650.697 L506.799 650.697 L506.799 673.666 L512.528 673.666 L512.528 676.617 L497.598 676.617 L497.598 673.666 Z" fill="#000000" fill-rule="evenodd" fill-opacity="1" /><path clip-path="url(#clip890)" d="M 0 0 M516.435 676.079 L516.435 672.885 Q517.754 673.51 519.108 673.84 Q520.462 674.169 521.764 674.169 Q525.237 674.169 527.06 671.843 Q528.9 669.499 529.16 664.742 Q528.153 666.235 526.608 667.034 Q525.063 667.833 523.188 667.833 Q519.299 667.833 517.025 665.489 Q514.768 663.128 514.768 659.048 Q514.768 655.055 517.129 652.642 Q519.49 650.229 523.414 650.229 Q527.91 650.229 530.271 653.683 Q532.65 657.121 532.65 663.683 Q532.65 669.812 529.733 673.475 Q526.834 677.121 521.921 677.121 Q520.601 677.121 519.247 676.86 Q517.893 676.6 516.435 676.079 M523.414 665.09 Q525.775 665.09 527.146 663.475 Q528.535 661.86 528.535 659.048 Q528.535 656.253 527.146 654.638 Q525.775 653.006 523.414 653.006 Q521.053 653.006 519.664 654.638 Q518.292 656.253 518.292 659.048 Q518.292 661.86 519.664 663.475 Q521.053 665.09 523.414 665.09 Z" fill="#000000" fill-rule="evenodd" fill-opacity="1" /><path clip-path="url(#clip890)" d="M 0 0 M458.703 601.568 L470.942 601.568 L470.942 604.519 L454.484 604.519 L454.484 601.568 Q456.481 599.502 459.918 596.029 Q463.373 592.54 464.259 591.533 Q465.943 589.641 466.602 588.338 Q467.279 587.019 467.279 585.752 Q467.279 583.686 465.821 582.384 Q464.38 581.082 462.054 581.082 Q460.404 581.082 458.564 581.654 Q456.741 582.227 454.658 583.391 L454.658 579.849 Q456.776 578.998 458.616 578.564 Q460.456 578.13 461.984 578.13 Q466.012 578.13 468.408 580.144 Q470.804 582.158 470.804 585.526 Q470.804 587.123 470.196 588.564 Q469.606 589.988 468.026 591.932 Q467.592 592.436 465.265 594.849 Q462.939 597.245 458.703 601.568 Z" fill="#000000" fill-rule="evenodd" fill-opacity="1" /><path clip-path="url(#clip890)" d="M 0 0 M482.245 580.908 Q479.536 580.908 478.165 583.582 Q476.811 586.238 476.811 591.585 Q476.811 596.915 478.165 599.588 Q479.536 602.245 482.245 602.245 Q484.97 602.245 486.324 599.588 Q487.696 596.915 487.696 591.585 Q487.696 586.238 486.324 583.582 Q484.97 580.908 482.245 580.908 M482.245 578.13 Q486.602 578.13 488.894 581.585 Q491.203 585.023 491.203 591.585 Q491.203 598.13 488.894 601.585 Q486.602 605.022 482.245 605.022 Q477.887 605.022 475.578 601.585 Q473.286 598.13 473.286 591.585 Q473.286 585.023 475.578 581.585 Q477.887 578.13 482.245 578.13 Z" fill="#000000" fill-rule="evenodd" fill-opacity="1" /><path clip-path="url(#clip890)" d="M 0 0 M543.923 601.568 L556.163 601.568 L556.163 604.519 L539.705 604.519 L539.705 601.568 Q541.701 599.502 545.139 596.029 Q548.594 592.54 549.479 591.533 Q551.163 589.641 551.823 588.338 Q552.5 587.019 552.5 585.752 Q552.5 583.686 551.041 582.384 Q549.601 581.082 547.274 581.082 Q545.625 581.082 543.785 581.654 Q541.962 582.227 539.878 583.391 L539.878 579.849 Q541.996 578.998 543.837 578.564 Q545.677 578.13 547.205 578.13 Q551.232 578.13 553.628 580.144 Q556.024 582.158 556.024 585.526 Q556.024 587.123 555.416 588.564 Q554.826 589.988 553.246 591.932 Q552.812 592.436 550.486 594.849 Q548.16 597.245 543.923 601.568 Z" fill="#000000" fill-rule="evenodd" fill-opacity="1" /><path clip-path="url(#clip890)" d="M 0 0 M560.573 601.568 L566.302 601.568 L566.302 581.793 L560.069 583.043 L560.069 579.849 L566.267 578.599 L569.774 578.599 L569.774 601.568 L575.503 601.568 L575.503 604.519 L560.573 604.519 L560.573 601.568 Z" fill="#000000" fill-rule="evenodd" fill-opacity="1" /><path clip-path="url(#clip890)" d="M 0 0 M671.754 673.666 L683.994 673.666 L683.994 676.617 L667.535 676.617 L667.535 673.666 Q669.532 671.6 672.969 668.128 Q676.424 664.638 677.31 663.631 Q678.994 661.739 679.653 660.437 Q680.331 659.117 680.331 657.85 Q680.331 655.784 678.872 654.482 Q677.431 653.18 675.105 653.18 Q673.456 653.18 671.615 653.753 Q669.792 654.326 667.709 655.489 L667.709 651.947 Q669.827 651.097 671.667 650.663 Q673.508 650.229 675.035 650.229 Q679.063 650.229 681.459 652.242 Q683.855 654.256 683.855 657.624 Q683.855 659.222 683.247 660.663 Q682.657 662.086 681.077 664.031 Q680.643 664.534 678.317 666.947 Q675.99 669.343 671.754 673.666 Z" fill="#000000" fill-rule="evenodd" fill-opacity="1" /><path clip-path="url(#clip890)" d="M 0 0 M690.817 673.666 L703.056 673.666 L703.056 676.617 L686.598 676.617 L686.598 673.666 Q688.594 671.6 692.032 668.128 Q695.487 664.638 696.372 663.631 Q698.056 661.739 698.716 660.437 Q699.393 659.117 699.393 657.85 Q699.393 655.784 697.935 654.482 Q696.494 653.18 694.167 653.18 Q692.518 653.18 690.678 653.753 Q688.855 654.326 686.771 655.489 L686.771 651.947 Q688.889 651.097 690.73 650.663 Q692.57 650.229 694.098 650.229 Q698.126 650.229 700.521 652.242 Q702.917 654.256 702.917 657.624 Q702.917 659.222 702.31 660.663 Q701.719 662.086 700.139 664.031 Q699.705 664.534 697.379 666.947 Q695.053 669.343 690.817 673.666 Z" fill="#000000" fill-rule="evenodd" fill-opacity="1" /><path clip-path="url(#clip890)" d="M 0 0 M629.144 601.568 L641.383 601.568 L641.383 604.519 L624.925 604.519 L624.925 601.568 Q626.922 599.502 630.359 596.029 Q633.814 592.54 634.699 591.533 Q636.383 589.641 637.043 588.338 Q637.72 587.019 637.72 585.752 Q637.72 583.686 636.262 582.384 Q634.821 581.082 632.495 581.082 Q630.845 581.082 629.005 581.654 Q627.182 582.227 625.099 583.391 L625.099 579.849 Q627.217 578.998 629.057 578.564 Q630.897 578.13 632.425 578.13 Q636.453 578.13 638.849 580.144 Q641.245 582.158 641.245 585.526 Q641.245 587.123 640.637 588.564 Q640.047 589.988 638.467 591.932 Q638.033 592.436 635.706 594.849 Q633.38 597.245 629.144 601.568 Z" fill="#000000" fill-rule="evenodd" fill-opacity="1" /><path clip-path="url(#clip890)" d="M 0 0 M655.81 590.543 Q658.328 591.082 659.734 592.783 Q661.158 594.484 661.158 596.984 Q661.158 600.821 658.519 602.922 Q655.88 605.022 651.019 605.022 Q649.387 605.022 647.651 604.693 Q645.932 604.38 644.092 603.738 L644.092 600.352 Q645.55 601.203 647.286 601.637 Q649.022 602.071 650.915 602.071 Q654.213 602.071 655.932 600.769 Q657.668 599.467 657.668 596.984 Q657.668 594.693 656.054 593.408 Q654.456 592.106 651.592 592.106 L648.571 592.106 L648.571 589.224 L651.731 589.224 Q654.317 589.224 655.689 588.2 Q657.06 587.158 657.06 585.214 Q657.06 583.217 655.637 582.158 Q654.231 581.082 651.592 581.082 Q650.151 581.082 648.501 581.394 Q646.852 581.707 644.873 582.366 L644.873 579.241 Q646.87 578.686 648.606 578.408 Q650.359 578.13 651.904 578.13 Q655.897 578.13 658.224 579.953 Q660.55 581.759 660.55 584.849 Q660.55 587.002 659.317 588.495 Q658.085 589.97 655.81 590.543 Z" fill="#000000" fill-rule="evenodd" fill-opacity="1" /><path clip-path="url(#clip890)" d="M 0 0 M714.364 601.568 L726.604 601.568 L726.604 604.519 L710.146 604.519 L710.146 601.568 Q712.142 599.502 715.58 596.029 Q719.035 592.54 719.92 591.533 Q721.604 589.641 722.264 588.338 Q722.941 587.019 722.941 585.752 Q722.941 583.686 721.482 582.384 Q720.041 581.082 717.715 581.082 Q716.066 581.082 714.226 581.654 Q712.403 582.227 710.319 583.391 L710.319 579.849 Q712.437 578.998 714.278 578.564 Q716.118 578.13 717.646 578.13 Q721.673 578.13 724.069 580.144 Q726.465 582.158 726.465 585.526 Q726.465 587.123 725.857 588.564 Q725.267 589.988 723.687 591.932 Q723.253 592.436 720.927 594.849 Q718.6 597.245 714.364 601.568 Z" fill="#000000" fill-rule="evenodd" fill-opacity="1" /><path clip-path="url(#clip890)" d="M 0 0 M740.041 581.654 L731.187 595.491 L740.041 595.491 L740.041 581.654 M739.121 578.599 L743.531 578.599 L743.531 595.491 L747.229 595.491 L747.229 598.408 L743.531 598.408 L743.531 604.519 L740.041 604.519 L740.041 598.408 L728.34 598.408 L728.34 595.022 L739.121 578.599 Z" fill="#000000" fill-rule="evenodd" fill-opacity="1" /><path clip-path="url(#clip890)" d="M 0 0 M167.931 662.642 Q170.449 663.18 171.855 664.881 Q173.278 666.583 173.278 669.083 Q173.278 672.919 170.64 675.02 Q168.001 677.121 163.14 677.121 Q161.508 677.121 159.772 676.791 Q158.053 676.478 156.213 675.836 L156.213 672.451 Q157.671 673.301 159.407 673.735 Q161.143 674.169 163.035 674.169 Q166.334 674.169 168.053 672.867 Q169.789 671.565 169.789 669.083 Q169.789 666.791 168.174 665.506 Q166.577 664.204 163.713 664.204 L160.692 664.204 L160.692 661.322 L163.851 661.322 Q166.438 661.322 167.81 660.298 Q169.181 659.256 169.181 657.312 Q169.181 655.315 167.758 654.256 Q166.351 653.18 163.713 653.18 Q162.272 653.18 160.622 653.492 Q158.973 653.805 156.994 654.465 L156.994 651.34 Q158.99 650.784 160.726 650.506 Q162.48 650.229 164.025 650.229 Q168.018 650.229 170.344 652.051 Q172.671 653.857 172.671 656.947 Q172.671 659.1 171.438 660.593 Q170.206 662.069 167.931 662.642 Z" fill="#000000" fill-rule="evenodd" fill-opacity="1" /><path clip-path="url(#clip890)" d="M 0 0 M177.688 673.666 L183.417 673.666 L183.417 653.892 L177.185 655.142 L177.185 651.947 L183.383 650.697 L186.89 650.697 L186.89 673.666 L192.619 673.666 L192.619 676.617 L177.688 676.617 L177.688 673.666 Z" fill="#000000" fill-rule="evenodd" fill-opacity="1" /><path clip-path="url(#clip890)" d="M 0 0 M125.321 590.543 Q127.838 591.082 129.245 592.783 Q130.668 594.484 130.668 596.984 Q130.668 600.821 128.029 602.922 Q125.39 605.022 120.529 605.022 Q118.897 605.022 117.161 604.693 Q115.443 604.38 113.602 603.738 L113.602 600.352 Q115.061 601.203 116.797 601.637 Q118.533 602.071 120.425 602.071 Q123.724 602.071 125.443 600.769 Q127.179 599.467 127.179 596.984 Q127.179 594.693 125.564 593.408 Q123.967 592.106 121.102 592.106 L118.082 592.106 L118.082 589.224 L121.241 589.224 Q123.828 589.224 125.2 588.2 Q126.571 587.158 126.571 585.214 Q126.571 583.217 125.147 582.158 Q123.741 581.082 121.102 581.082 Q119.661 581.082 118.012 581.394 Q116.363 581.707 114.384 582.366 L114.384 579.241 Q116.38 578.686 118.116 578.408 Q119.87 578.13 121.415 578.13 Q125.408 578.13 127.734 579.953 Q130.061 581.759 130.061 584.849 Q130.061 587.002 128.828 588.495 Q127.595 589.97 125.321 590.543 Z" fill="#000000" fill-rule="evenodd" fill-opacity="1" /><path clip-path="url(#clip890)" d="M 0 0 M137.491 601.568 L149.731 601.568 L149.731 604.519 L133.272 604.519 L133.272 601.568 Q135.269 599.502 138.706 596.029 Q142.161 592.54 143.047 591.533 Q144.731 589.641 145.39 588.338 Q146.067 587.019 146.067 585.752 Q146.067 583.686 144.609 582.384 Q143.168 581.082 140.842 581.082 Q139.193 581.082 137.352 581.654 Q135.529 582.227 133.446 583.391 L133.446 579.849 Q135.564 578.998 137.404 578.564 Q139.245 578.13 140.772 578.13 Q144.8 578.13 147.196 580.144 Q149.592 582.158 149.592 585.526 Q149.592 587.123 148.984 588.564 Q148.394 589.988 146.814 591.932 Q146.38 592.436 144.054 594.849 Q141.727 597.245 137.491 601.568 Z" fill="#000000" fill-rule="evenodd" fill-opacity="1" /><path clip-path="url(#clip890)" d="M 0 0 M210.542 590.543 Q213.059 591.082 214.465 592.783 Q215.889 594.484 215.889 596.984 Q215.889 600.821 213.25 602.922 Q210.611 605.022 205.75 605.022 Q204.118 605.022 202.382 604.693 Q200.663 604.38 198.823 603.738 L198.823 600.352 Q200.281 601.203 202.017 601.637 Q203.753 602.071 205.646 602.071 Q208.944 602.071 210.663 600.769 Q212.399 599.467 212.399 596.984 Q212.399 594.693 210.785 593.408 Q209.187 592.106 206.323 592.106 L203.302 592.106 L203.302 589.224 L206.462 589.224 Q209.048 589.224 210.42 588.2 Q211.792 587.158 211.792 585.214 Q211.792 583.217 210.368 582.158 Q208.962 581.082 206.323 581.082 Q204.882 581.082 203.233 581.394 Q201.583 581.707 199.604 582.366 L199.604 579.241 Q201.601 578.686 203.337 578.408 Q205.09 578.13 206.635 578.13 Q210.628 578.13 212.955 579.953 Q215.281 581.759 215.281 584.849 Q215.281 587.002 214.048 588.495 Q212.816 589.97 210.542 590.543 Z" fill="#000000" fill-rule="evenodd" fill-opacity="1" /><path clip-path="url(#clip890)" d="M 0 0 M230.316 590.543 Q232.833 591.082 234.239 592.783 Q235.663 594.484 235.663 596.984 Q235.663 600.821 233.024 602.922 Q230.385 605.022 225.524 605.022 Q223.892 605.022 222.156 604.693 Q220.437 604.38 218.597 603.738 L218.597 600.352 Q220.055 601.203 221.791 601.637 Q223.528 602.071 225.42 602.071 Q228.719 602.071 230.437 600.769 Q232.173 599.467 232.173 596.984 Q232.173 594.693 230.559 593.408 Q228.962 592.106 226.097 592.106 L223.076 592.106 L223.076 589.224 L226.236 589.224 Q228.823 589.224 230.194 588.2 Q231.566 587.158 231.566 585.214 Q231.566 583.217 230.142 582.158 Q228.736 581.082 226.097 581.082 Q224.656 581.082 223.007 581.394 Q221.357 581.707 219.378 582.366 L219.378 579.241 Q221.375 578.686 223.111 578.408 Q224.864 578.13 226.409 578.13 Q230.403 578.13 232.729 579.953 Q235.055 581.759 235.055 584.849 Q235.055 587.002 233.823 588.495 Q232.59 589.97 230.316 590.543 Z" fill="#000000" fill-rule="evenodd" fill-opacity="1" /><path clip-path="url(#clip890)" d="M 0 0 M338.372 662.642 Q340.89 663.18 342.296 664.881 Q343.719 666.583 343.719 669.083 Q343.719 672.919 341.081 675.02 Q338.442 677.121 333.581 677.121 Q331.949 677.121 330.213 676.791 Q328.494 676.478 326.654 675.836 L326.654 672.451 Q328.112 673.301 329.848 673.735 Q331.584 674.169 333.476 674.169 Q336.775 674.169 338.494 672.867 Q340.23 671.565 340.23 669.083 Q340.23 666.791 338.615 665.506 Q337.018 664.204 334.154 664.204 L331.133 664.204 L331.133 661.322 L334.292 661.322 Q336.879 661.322 338.251 660.298 Q339.622 659.256 339.622 657.312 Q339.622 655.315 338.199 654.256 Q336.792 653.18 334.154 653.18 Q332.713 653.18 331.063 653.492 Q329.414 653.805 327.435 654.465 L327.435 651.34 Q329.431 650.784 331.167 650.506 Q332.921 650.229 334.466 650.229 Q338.459 650.229 340.785 652.051 Q343.112 653.857 343.112 656.947 Q343.112 659.1 341.879 660.593 Q340.647 662.069 338.372 662.642 Z" fill="#000000" fill-rule="evenodd" fill-opacity="1" /><path clip-path="url(#clip890)" d="M 0 0 M357.157 653.753 L348.303 667.59 L357.157 667.59 L357.157 653.753 M356.237 650.697 L360.646 650.697 L360.646 667.59 L364.344 667.59 L364.344 670.506 L360.646 670.506 L360.646 676.617 L357.157 676.617 L357.157 670.506 L345.456 670.506 L345.456 667.121 L356.237 650.697 Z" fill="#000000" fill-rule="evenodd" fill-opacity="1" /><path clip-path="url(#clip890)" d="M 0 0 M295.762 590.543 Q298.279 591.082 299.686 592.783 Q301.109 594.484 301.109 596.984 Q301.109 600.821 298.47 602.922 Q295.831 605.022 290.97 605.022 Q289.338 605.022 287.602 604.693 Q285.884 604.38 284.043 603.738 L284.043 600.352 Q285.502 601.203 287.238 601.637 Q288.974 602.071 290.866 602.071 Q294.165 602.071 295.884 600.769 Q297.62 599.467 297.62 596.984 Q297.62 594.693 296.005 593.408 Q294.408 592.106 291.543 592.106 L288.522 592.106 L288.522 589.224 L291.682 589.224 Q294.269 589.224 295.64 588.2 Q297.012 587.158 297.012 585.214 Q297.012 583.217 295.588 582.158 Q294.182 581.082 291.543 581.082 Q290.102 581.082 288.453 581.394 Q286.804 581.707 284.825 582.366 L284.825 579.241 Q286.821 578.686 288.557 578.408 Q290.311 578.13 291.856 578.13 Q295.849 578.13 298.175 579.953 Q300.502 581.759 300.502 584.849 Q300.502 587.002 299.269 588.495 Q298.036 589.97 295.762 590.543 Z" fill="#000000" fill-rule="evenodd" fill-opacity="1" /><path clip-path="url(#clip890)" d="M 0 0 M304.946 578.599 L318.713 578.599 L318.713 581.55 L308.158 581.55 L308.158 587.904 Q308.922 587.644 309.686 587.523 Q310.449 587.384 311.213 587.384 Q315.554 587.384 318.088 589.762 Q320.623 592.141 320.623 596.203 Q320.623 600.387 318.019 602.713 Q315.415 605.022 310.675 605.022 Q309.043 605.022 307.342 604.745 Q305.658 604.467 303.852 603.911 L303.852 600.387 Q305.415 601.238 307.081 601.654 Q308.748 602.071 310.606 602.071 Q313.609 602.071 315.363 600.491 Q317.116 598.911 317.116 596.203 Q317.116 593.495 315.363 591.915 Q313.609 590.335 310.606 590.335 Q309.199 590.335 307.793 590.648 Q306.404 590.96 304.946 591.62 L304.946 578.599 Z" fill="#000000" fill-rule="evenodd" fill-opacity="1" /><path clip-path="url(#clip890)" d="M 0 0 M380.982 590.543 Q383.5 591.082 384.906 592.783 Q386.33 594.484 386.33 596.984 Q386.33 600.821 383.691 602.922 Q381.052 605.022 376.191 605.022 Q374.559 605.022 372.823 604.693 Q371.104 604.38 369.264 603.738 L369.264 600.352 Q370.722 601.203 372.458 601.637 Q374.194 602.071 376.087 602.071 Q379.385 602.071 381.104 600.769 Q382.84 599.467 382.84 596.984 Q382.84 594.693 381.226 593.408 Q379.628 592.106 376.764 592.106 L373.743 592.106 L373.743 589.224 L376.903 589.224 Q379.489 589.224 380.861 588.2 Q382.232 587.158 382.232 585.214 Q382.232 583.217 380.809 582.158 Q379.403 581.082 376.764 581.082 Q375.323 581.082 373.673 581.394 Q372.024 581.707 370.045 582.366 L370.045 579.241 Q372.042 578.686 373.778 578.408 Q375.531 578.13 377.076 578.13 Q381.069 578.13 383.396 579.953 Q385.722 581.759 385.722 584.849 Q385.722 587.002 384.489 588.495 Q383.257 589.97 380.982 590.543 Z" fill="#000000" fill-rule="evenodd" fill-opacity="1" /><path clip-path="url(#clip890)" d="M 0 0 M398.066 590.161 Q395.705 590.161 394.316 591.776 Q392.944 593.391 392.944 596.203 Q392.944 598.998 394.316 600.63 Q395.705 602.245 398.066 602.245 Q400.427 602.245 401.798 600.63 Q403.187 598.998 403.187 596.203 Q403.187 593.391 401.798 591.776 Q400.427 590.161 398.066 590.161 M405.027 579.172 L405.027 582.366 Q403.708 581.741 402.354 581.411 Q401.017 581.082 399.698 581.082 Q396.225 581.082 394.385 583.425 Q392.562 585.769 392.302 590.509 Q393.326 588.998 394.871 588.2 Q396.416 587.384 398.274 587.384 Q402.18 587.384 404.437 589.762 Q406.711 592.123 406.711 596.203 Q406.711 600.196 404.35 602.609 Q401.989 605.022 398.066 605.022 Q393.569 605.022 391.191 601.585 Q388.812 598.13 388.812 591.585 Q388.812 585.439 391.729 581.793 Q394.646 578.13 399.559 578.13 Q400.878 578.13 402.215 578.391 Q403.569 578.651 405.027 579.172 Z" fill="#000000" fill-rule="evenodd" fill-opacity="1" /><circle clip-path="url(#clip892)" cx="113.602" cy="468.098" r="14" fill="#0000ff" fill-rule="evenodd" fill-opacity="1" stroke="none"/>
<circle clip-path="url(#clip892)" cx="241.433" cy="540.197" r="14" fill="#0000ff" fill-rule="evenodd" fill-opacity="1" stroke="none"/>
<circle clip-path="url(#clip892)" cx="198.823" cy="468.098" r="14" fill="#0000ff" fill-rule="evenodd" fill-opacity="1" stroke="none"/>
<circle clip-path="url(#clip892)" cx="284.043" cy="468.098" r="14" fill="#0000ff" fill-rule="evenodd" fill-opacity="1" stroke="none"/>
<circle clip-path="url(#clip892)" cx="113.602" cy="179.705" r="14" fill="#0000ff" fill-rule="evenodd" fill-opacity="1" stroke="none"/>
<circle clip-path="url(#clip892)" cx="156.213" cy="396" r="14" fill="#0000ff" fill-rule="evenodd" fill-opacity="1" stroke="none"/>
<circle clip-path="url(#clip892)" cx="113.602" cy="323.902" r="14" fill="#0000ff" fill-rule="evenodd" fill-opacity="1" stroke="none"/>
<circle clip-path="url(#clip892)" cx="198.823" cy="323.902" r="14" fill="#0000ff" fill-rule="evenodd" fill-opacity="1" stroke="none"/>
<circle clip-path="url(#clip892)" cx="326.654" cy="396" r="14" fill="#0000ff" fill-rule="evenodd" fill-opacity="1" stroke="none"/>
<circle clip-path="url(#clip892)" cx="284.043" cy="323.902" r="14" fill="#0000ff" fill-rule="evenodd" fill-opacity="1" stroke="none"/>
<circle clip-path="url(#clip892)" cx="369.264" cy="323.902" r="14" fill="#0000ff" fill-rule="evenodd" fill-opacity="1" stroke="none"/>
<path clip-path="url(#clip890)" d="M 0 0 M70.9921 506.501 L87.6587 506.501 L87.6587 507.994 L78.249 532.421 L74.5859 532.421 L83.44 509.452 L70.9921 509.452 L70.9921 506.501 Z" fill="#000000" fill-rule="evenodd" fill-opacity="1" /><path clip-path="url(#clip890)" d="M 0 0 M115.269 459.784 L115.269 456.59 Q116.588 457.215 117.943 457.545 Q119.297 457.874 120.599 457.874 Q124.071 457.874 125.894 455.548 Q127.734 453.204 127.995 448.447 Q126.988 449.94 125.443 450.739 Q123.897 451.538 122.022 451.538 Q118.134 451.538 115.859 449.194 Q113.602 446.833 113.602 442.753 Q113.602 438.76 115.963 436.347 Q118.325 433.934 122.248 433.934 Q126.745 433.934 129.106 437.388 Q131.484 440.826 131.484 447.388 Q131.484 453.517 128.568 457.18 Q125.668 460.826 120.755 460.826 Q119.436 460.826 118.082 460.565 Q116.727 460.305 115.269 459.784 M122.248 448.795 Q124.609 448.795 125.981 447.18 Q127.37 445.565 127.37 442.753 Q127.37 439.958 125.981 438.343 Q124.609 436.711 122.248 436.711 Q119.887 436.711 118.498 438.343 Q117.127 439.958 117.127 442.753 Q117.127 445.565 118.498 447.18 Q119.887 448.795 122.248 448.795 Z" fill="#000000" fill-rule="evenodd" fill-opacity="1" /><path clip-path="url(#clip890)" d="M 0 0 M241.937 529.469 L247.666 529.469 L247.666 509.695 L241.433 510.945 L241.433 507.751 L247.631 506.501 L251.138 506.501 L251.138 529.469 L256.867 529.469 L256.867 532.421 L241.937 532.421 L241.937 529.469 Z" fill="#000000" fill-rule="evenodd" fill-opacity="1" /><path clip-path="url(#clip890)" d="M 0 0 M268.169 508.81 Q265.461 508.81 264.089 511.483 Q262.735 514.139 262.735 519.487 Q262.735 524.817 264.089 527.49 Q265.461 530.146 268.169 530.146 Q270.895 530.146 272.249 527.49 Q273.62 524.817 273.62 519.487 Q273.62 514.139 272.249 511.483 Q270.895 508.81 268.169 508.81 M268.169 506.032 Q272.527 506.032 274.818 509.487 Q277.127 512.924 277.127 519.487 Q277.127 526.032 274.818 529.487 Q272.527 532.924 268.169 532.924 Q263.811 532.924 261.502 529.487 Q259.211 526.032 259.211 519.487 Q259.211 512.924 261.502 509.487 Q263.811 506.032 268.169 506.032 Z" fill="#000000" fill-rule="evenodd" fill-opacity="1" /><path clip-path="url(#clip890)" d="M 0 0 M199.326 457.371 L205.055 457.371 L205.055 437.597 L198.823 438.847 L198.823 435.652 L205.021 434.402 L208.528 434.402 L208.528 457.371 L214.257 457.371 L214.257 460.322 L199.326 460.322 L199.326 457.371 Z" fill="#000000" fill-rule="evenodd" fill-opacity="1" /><path clip-path="url(#clip890)" d="M 0 0 M218.666 457.371 L224.396 457.371 L224.396 437.597 L218.163 438.847 L218.163 435.652 L224.361 434.402 L227.868 434.402 L227.868 457.371 L233.597 457.371 L233.597 460.322 L218.666 460.322 L218.666 457.371 Z" fill="#000000" fill-rule="evenodd" fill-opacity="1" /><path clip-path="url(#clip890)" d="M 0 0 M284.547 457.371 L290.276 457.371 L290.276 437.597 L284.043 438.847 L284.043 435.652 L290.241 434.402 L293.748 434.402 L293.748 457.371 L299.477 457.371 L299.477 460.322 L284.547 460.322 L284.547 457.371 Z" fill="#000000" fill-rule="evenodd" fill-opacity="1" /><path clip-path="url(#clip890)" d="M 0 0 M306.3 457.371 L318.54 457.371 L318.54 460.322 L302.081 460.322 L302.081 457.371 Q304.078 455.305 307.515 451.833 Q310.97 448.343 311.856 447.336 Q313.54 445.444 314.199 444.142 Q314.876 442.822 314.876 441.555 Q314.876 439.489 313.418 438.187 Q311.977 436.885 309.651 436.885 Q308.002 436.885 306.161 437.458 Q304.338 438.031 302.255 439.194 L302.255 435.652 Q304.373 434.802 306.213 434.368 Q308.054 433.934 309.581 433.934 Q313.609 433.934 316.005 435.947 Q318.401 437.961 318.401 441.329 Q318.401 442.927 317.793 444.368 Q317.203 445.791 315.623 447.736 Q315.189 448.239 312.863 450.652 Q310.536 453.048 306.3 457.371 Z" fill="#000000" fill-rule="evenodd" fill-opacity="1" /><path clip-path="url(#clip890)" d="M 0 0 M114.106 168.978 L119.835 168.978 L119.835 149.203 L113.602 150.453 L113.602 147.259 L119.8 146.009 L123.307 146.009 L123.307 168.978 L129.036 168.978 L129.036 171.929 L114.106 171.929 L114.106 168.978 Z" fill="#000000" fill-rule="evenodd" fill-opacity="1" /><path clip-path="url(#clip890)" d="M 0 0 M140.338 159.62 Q137.838 159.62 136.397 160.957 Q134.974 162.294 134.974 164.637 Q134.974 166.981 136.397 168.318 Q137.838 169.655 140.338 169.655 Q142.838 169.655 144.279 168.318 Q145.72 166.964 145.72 164.637 Q145.72 162.294 144.279 160.957 Q142.856 159.62 140.338 159.62 M136.831 158.127 Q134.574 157.571 133.307 156.026 Q132.057 154.481 132.057 152.259 Q132.057 149.151 134.262 147.346 Q136.484 145.54 140.338 145.54 Q144.21 145.54 146.415 147.346 Q148.62 149.151 148.62 152.259 Q148.62 154.481 147.352 156.026 Q146.102 157.571 143.863 158.127 Q146.397 158.717 147.804 160.436 Q149.227 162.155 149.227 164.637 Q149.227 168.405 146.918 170.419 Q144.627 172.433 140.338 172.433 Q136.05 172.433 133.741 170.419 Q131.449 168.405 131.449 164.637 Q131.449 162.155 132.873 160.436 Q134.297 158.717 136.831 158.127 M135.547 152.589 Q135.547 154.603 136.797 155.731 Q138.064 156.86 140.338 156.86 Q142.595 156.86 143.863 155.731 Q145.147 154.603 145.147 152.589 Q145.147 150.575 143.863 149.447 Q142.595 148.318 140.338 148.318 Q138.064 148.318 136.797 149.447 Q135.547 150.575 135.547 152.589 Z" fill="#000000" fill-rule="evenodd" fill-opacity="1" /><path clip-path="url(#clip890)" d="M 0 0 M160.431 385.273 L172.671 385.273 L172.671 388.224 L156.213 388.224 L156.213 385.273 Q158.209 383.207 161.647 379.734 Q165.101 376.245 165.987 375.238 Q167.671 373.346 168.331 372.044 Q169.008 370.724 169.008 369.457 Q169.008 367.391 167.549 366.089 Q166.108 364.787 163.782 364.787 Q162.133 364.787 160.292 365.36 Q158.47 365.932 156.386 367.096 L156.386 363.554 Q158.504 362.703 160.345 362.269 Q162.185 361.835 163.713 361.835 Q167.74 361.835 170.136 363.849 Q172.532 365.863 172.532 369.231 Q172.532 370.828 171.924 372.269 Q171.334 373.693 169.754 375.637 Q169.32 376.141 166.994 378.554 Q164.667 380.95 160.431 385.273 Z" fill="#000000" fill-rule="evenodd" fill-opacity="1" /><path clip-path="url(#clip890)" d="M 0 0 M179.494 385.273 L191.733 385.273 L191.733 388.224 L175.275 388.224 L175.275 385.273 Q177.272 383.207 180.709 379.734 Q184.164 376.245 185.049 375.238 Q186.733 373.346 187.393 372.044 Q188.07 370.724 188.07 369.457 Q188.07 367.391 186.612 366.089 Q185.171 364.787 182.844 364.787 Q181.195 364.787 179.355 365.36 Q177.532 365.932 175.449 367.096 L175.449 363.554 Q177.567 362.703 179.407 362.269 Q181.247 361.835 182.775 361.835 Q186.803 361.835 189.199 363.849 Q191.594 365.863 191.594 369.231 Q191.594 370.828 190.987 372.269 Q190.396 373.693 188.817 375.637 Q188.383 376.141 186.056 378.554 Q183.73 380.95 179.494 385.273 Z" fill="#000000" fill-rule="evenodd" fill-opacity="1" /><path clip-path="url(#clip890)" d="M 0 0 M117.821 313.174 L130.061 313.174 L130.061 316.126 L113.602 316.126 L113.602 313.174 Q115.599 311.108 119.036 307.636 Q122.491 304.147 123.377 303.14 Q125.061 301.247 125.72 299.945 Q126.397 298.626 126.397 297.358 Q126.397 295.292 124.939 293.99 Q123.498 292.688 121.172 292.688 Q119.522 292.688 117.682 293.261 Q115.859 293.834 113.776 294.997 L113.776 291.456 Q115.894 290.605 117.734 290.171 Q119.575 289.737 121.102 289.737 Q125.13 289.737 127.526 291.751 Q129.922 293.765 129.922 297.133 Q129.922 298.73 129.314 300.171 Q128.724 301.595 127.144 303.539 Q126.71 304.042 124.384 306.456 Q122.057 308.851 117.821 313.174 Z" fill="#000000" fill-rule="evenodd" fill-opacity="1" /><path clip-path="url(#clip890)" d="M 0 0 M144.488 302.15 Q147.005 302.688 148.411 304.39 Q149.835 306.091 149.835 308.591 Q149.835 312.428 147.196 314.528 Q144.557 316.629 139.696 316.629 Q138.064 316.629 136.328 316.299 Q134.609 315.987 132.769 315.344 L132.769 311.959 Q134.227 312.81 135.963 313.244 Q137.699 313.678 139.592 313.678 Q142.89 313.678 144.609 312.376 Q146.345 311.074 146.345 308.591 Q146.345 306.299 144.731 305.015 Q143.133 303.713 140.269 303.713 L137.248 303.713 L137.248 300.831 L140.408 300.831 Q142.995 300.831 144.366 299.806 Q145.738 298.765 145.738 296.82 Q145.738 294.824 144.314 293.765 Q142.908 292.688 140.269 292.688 Q138.828 292.688 137.179 293.001 Q135.529 293.313 133.55 293.973 L133.55 290.848 Q135.547 290.292 137.283 290.015 Q139.036 289.737 140.581 289.737 Q144.574 289.737 146.901 291.56 Q149.227 293.365 149.227 296.456 Q149.227 298.608 147.995 300.101 Q146.762 301.577 144.488 302.15 Z" fill="#000000" fill-rule="evenodd" fill-opacity="1" /><path clip-path="url(#clip890)" d="M 0 0 M203.042 313.174 L215.281 313.174 L215.281 316.126 L198.823 316.126 L198.823 313.174 Q200.819 311.108 204.257 307.636 Q207.712 304.147 208.597 303.14 Q210.281 301.247 210.941 299.945 Q211.618 298.626 211.618 297.358 Q211.618 295.292 210.16 293.99 Q208.719 292.688 206.392 292.688 Q204.743 292.688 202.903 293.261 Q201.08 293.834 198.996 294.997 L198.996 291.456 Q201.114 290.605 202.955 290.171 Q204.795 289.737 206.323 289.737 Q210.351 289.737 212.746 291.751 Q215.142 293.765 215.142 297.133 Q215.142 298.73 214.535 300.171 Q213.944 301.595 212.364 303.539 Q211.93 304.042 209.604 306.456 Q207.278 308.851 203.042 313.174 Z" fill="#000000" fill-rule="evenodd" fill-opacity="1" /><path clip-path="url(#clip890)" d="M 0 0 M228.719 293.261 L219.864 307.098 L228.719 307.098 L228.719 293.261 M227.798 290.206 L232.208 290.206 L232.208 307.098 L235.906 307.098 L235.906 310.015 L232.208 310.015 L232.208 316.126 L228.719 316.126 L228.719 310.015 L217.017 310.015 L217.017 306.629 L227.798 290.206 Z" fill="#000000" fill-rule="evenodd" fill-opacity="1" /><path clip-path="url(#clip890)" d="M 0 0 M330.872 385.273 L343.112 385.273 L343.112 388.224 L326.654 388.224 L326.654 385.273 Q328.65 383.207 332.088 379.734 Q335.542 376.245 336.428 375.238 Q338.112 373.346 338.772 372.044 Q339.449 370.724 339.449 369.457 Q339.449 367.391 337.99 366.089 Q336.549 364.787 334.223 364.787 Q332.574 364.787 330.733 365.36 Q328.91 365.932 326.827 367.096 L326.827 363.554 Q328.945 362.703 330.785 362.269 Q332.626 361.835 334.154 361.835 Q338.181 361.835 340.577 363.849 Q342.973 365.863 342.973 369.231 Q342.973 370.828 342.365 372.269 Q341.775 373.693 340.195 375.637 Q339.761 376.141 337.435 378.554 Q335.108 380.95 330.872 385.273 Z" fill="#000000" fill-rule="evenodd" fill-opacity="1" /><path clip-path="url(#clip890)" d="M 0 0 M346.949 362.304 L360.716 362.304 L360.716 365.255 L350.16 365.255 L350.16 371.61 Q350.924 371.349 351.688 371.228 Q352.452 371.089 353.216 371.089 Q357.556 371.089 360.091 373.467 Q362.626 375.846 362.626 379.908 Q362.626 384.092 360.021 386.418 Q357.417 388.727 352.678 388.727 Q351.046 388.727 349.344 388.45 Q347.66 388.172 345.855 387.616 L345.855 384.092 Q347.417 384.943 349.084 385.359 Q350.751 385.776 352.608 385.776 Q355.612 385.776 357.365 384.196 Q359.119 382.616 359.119 379.908 Q359.119 377.2 357.365 375.62 Q355.612 374.04 352.608 374.04 Q351.202 374.04 349.796 374.353 Q348.407 374.665 346.949 375.325 L346.949 362.304 Z" fill="#000000" fill-rule="evenodd" fill-opacity="1" /><path clip-path="url(#clip890)" d="M 0 0 M288.262 313.174 L300.502 313.174 L300.502 316.126 L284.043 316.126 L284.043 313.174 Q286.04 311.108 289.477 307.636 Q292.932 304.147 293.818 303.14 Q295.502 301.247 296.161 299.945 Q296.838 298.626 296.838 297.358 Q296.838 295.292 295.38 293.99 Q293.939 292.688 291.613 292.688 Q289.963 292.688 288.123 293.261 Q286.3 293.834 284.217 294.997 L284.217 291.456 Q286.335 290.605 288.175 290.171 Q290.015 289.737 291.543 289.737 Q295.571 289.737 297.967 291.751 Q300.363 293.765 300.363 297.133 Q300.363 298.73 299.755 300.171 Q299.165 301.595 297.585 303.539 Q297.151 304.042 294.824 306.456 Q292.498 308.851 288.262 313.174 Z" fill="#000000" fill-rule="evenodd" fill-opacity="1" /><path clip-path="url(#clip890)" d="M 0 0 M312.238 301.768 Q309.877 301.768 308.488 303.383 Q307.116 304.997 307.116 307.81 Q307.116 310.605 308.488 312.237 Q309.877 313.851 312.238 313.851 Q314.599 313.851 315.97 312.237 Q317.359 310.605 317.359 307.81 Q317.359 304.997 315.97 303.383 Q314.599 301.768 312.238 301.768 M319.199 290.779 L319.199 293.973 Q317.88 293.348 316.526 293.018 Q315.189 292.688 313.87 292.688 Q310.397 292.688 308.557 295.032 Q306.734 297.376 306.474 302.115 Q307.498 300.605 309.043 299.806 Q310.588 298.99 312.446 298.99 Q316.352 298.99 318.609 301.369 Q320.883 303.73 320.883 307.81 Q320.883 311.803 318.522 314.216 Q316.161 316.629 312.238 316.629 Q307.741 316.629 305.363 313.192 Q302.984 309.737 302.984 303.192 Q302.984 297.046 305.901 293.4 Q308.817 289.737 313.731 289.737 Q315.05 289.737 316.387 289.997 Q317.741 290.258 319.199 290.779 Z" fill="#000000" fill-rule="evenodd" fill-opacity="1" /><path clip-path="url(#clip890)" d="M 0 0 M373.483 313.174 L385.722 313.174 L385.722 316.126 L369.264 316.126 L369.264 313.174 Q371.26 311.108 374.698 307.636 Q378.153 304.147 379.038 303.14 Q380.722 301.247 381.382 299.945 Q382.059 298.626 382.059 297.358 Q382.059 295.292 380.601 293.99 Q379.16 292.688 376.833 292.688 Q375.184 292.688 373.344 293.261 Q371.521 293.834 369.437 294.997 L369.437 291.456 Q371.555 290.605 373.396 290.171 Q375.236 289.737 376.764 289.737 Q380.791 289.737 383.187 291.751 Q385.583 293.765 385.583 297.133 Q385.583 298.73 384.976 300.171 Q384.385 301.595 382.805 303.539 Q382.371 304.042 380.045 306.456 Q377.719 308.851 373.483 313.174 Z" fill="#000000" fill-rule="evenodd" fill-opacity="1" /><path clip-path="url(#clip890)" d="M 0 0 M388.639 290.206 L405.305 290.206 L405.305 291.699 L395.896 316.126 L392.232 316.126 L401.087 293.157 L388.639 293.157 L388.639 290.206 Z" fill="#000000" fill-rule="evenodd" fill-opacity="1" /><circle clip-path="url(#clip892)" cx="752.756" cy="540.197" r="14" fill="#0000ff" fill-rule="evenodd" fill-opacity="1" stroke="none"/>
<circle clip-path="url(#clip892)" cx="710.146" cy="468.098" r="14" fill="#0000ff" fill-rule="evenodd" fill-opacity="1" stroke="none"/>
<circle clip-path="url(#clip892)" cx="667.535" cy="396" r="14" fill="#0000ff" fill-rule="evenodd" fill-opacity="1" stroke="none"/>
<circle clip-path="url(#clip892)" cx="624.925" cy="323.902" r="14" fill="#0000ff" fill-rule="evenodd" fill-opacity="1" stroke="none"/>
<circle clip-path="url(#clip892)" cx="710.146" cy="323.902" r="14" fill="#0000ff" fill-rule="evenodd" fill-opacity="1" stroke="none"/>
<path clip-path="url(#clip890)" d="M 0 0 M753.259 529.469 L758.989 529.469 L758.989 509.695 L752.756 510.945 L752.756 507.751 L758.954 506.501 L762.461 506.501 L762.461 529.469 L768.19 529.469 L768.19 532.421 L753.259 532.421 L753.259 529.469 Z" fill="#000000" fill-rule="evenodd" fill-opacity="1" /><path clip-path="url(#clip890)" d="M 0 0 M714.364 457.371 L726.604 457.371 L726.604 460.322 L710.146 460.322 L710.146 457.371 Q712.142 455.305 715.58 451.833 Q719.035 448.343 719.92 447.336 Q721.604 445.444 722.264 444.142 Q722.941 442.822 722.941 441.555 Q722.941 439.489 721.482 438.187 Q720.041 436.885 717.715 436.885 Q716.066 436.885 714.226 437.458 Q712.403 438.031 710.319 439.194 L710.319 435.652 Q712.437 434.802 714.278 434.368 Q716.118 433.934 717.646 433.934 Q721.673 433.934 724.069 435.947 Q726.465 437.961 726.465 441.329 Q726.465 442.927 725.857 444.368 Q725.267 445.791 723.687 447.736 Q723.253 448.239 720.927 450.652 Q718.6 453.048 714.364 457.371 Z" fill="#000000" fill-rule="evenodd" fill-opacity="1" /><path clip-path="url(#clip890)" d="M 0 0 M679.254 374.248 Q681.771 374.787 683.178 376.488 Q684.601 378.189 684.601 380.689 Q684.601 384.526 681.962 386.627 Q679.324 388.727 674.462 388.727 Q672.831 388.727 671.094 388.398 Q669.376 388.085 667.535 387.443 L667.535 384.057 Q668.994 384.908 670.73 385.342 Q672.466 385.776 674.358 385.776 Q677.657 385.776 679.376 384.474 Q681.112 383.172 681.112 380.689 Q681.112 378.398 679.497 377.113 Q677.9 375.811 675.035 375.811 L672.015 375.811 L672.015 372.929 L675.174 372.929 Q677.761 372.929 679.133 371.905 Q680.504 370.863 680.504 368.919 Q680.504 366.922 679.081 365.863 Q677.674 364.787 675.035 364.787 Q673.594 364.787 671.945 365.099 Q670.296 365.412 668.317 366.071 L668.317 362.946 Q670.313 362.391 672.049 362.113 Q673.803 361.835 675.348 361.835 Q679.341 361.835 681.667 363.658 Q683.994 365.464 683.994 368.554 Q683.994 370.707 682.761 372.2 Q681.528 373.675 679.254 374.248 Z" fill="#000000" fill-rule="evenodd" fill-opacity="1" /><path clip-path="url(#clip890)" d="M 0 0 M689.011 385.273 L694.74 385.273 L694.74 365.498 L688.508 366.748 L688.508 363.554 L694.705 362.304 L698.212 362.304 L698.212 385.273 L703.941 385.273 L703.941 388.224 L689.011 388.224 L689.011 385.273 Z" fill="#000000" fill-rule="evenodd" fill-opacity="1" /><path clip-path="url(#clip890)" d="M 0 0 M636.644 302.15 Q639.161 302.688 640.567 304.39 Q641.991 306.091 641.991 308.591 Q641.991 312.428 639.352 314.528 Q636.713 316.629 631.852 316.629 Q630.22 316.629 628.484 316.299 Q626.765 315.987 624.925 315.344 L624.925 311.959 Q626.384 312.81 628.12 313.244 Q629.856 313.678 631.748 313.678 Q635.047 313.678 636.765 312.376 Q638.502 311.074 638.502 308.591 Q638.502 306.299 636.887 305.015 Q635.29 303.713 632.425 303.713 L629.404 303.713 L629.404 300.831 L632.564 300.831 Q635.151 300.831 636.522 299.806 Q637.894 298.765 637.894 296.82 Q637.894 294.824 636.47 293.765 Q635.064 292.688 632.425 292.688 Q630.984 292.688 629.335 293.001 Q627.686 293.313 625.706 293.973 L625.706 290.848 Q627.703 290.292 629.439 290.015 Q631.193 289.737 632.738 289.737 Q636.731 289.737 639.057 291.56 Q641.383 293.365 641.383 296.456 Q641.383 298.608 640.151 300.101 Q638.918 301.577 636.644 302.15 Z" fill="#000000" fill-rule="evenodd" fill-opacity="1" /><path clip-path="url(#clip890)" d="M 0 0 M648.814 313.174 L661.053 313.174 L661.053 316.126 L644.595 316.126 L644.595 313.174 Q646.592 311.108 650.029 307.636 Q653.484 304.147 654.369 303.14 Q656.054 301.247 656.713 299.945 Q657.39 298.626 657.39 297.358 Q657.39 295.292 655.932 293.99 Q654.491 292.688 652.165 292.688 Q650.515 292.688 648.675 293.261 Q646.852 293.834 644.769 294.997 L644.769 291.456 Q646.887 290.605 648.727 290.171 Q650.567 289.737 652.095 289.737 Q656.123 289.737 658.519 291.751 Q660.915 293.765 660.915 297.133 Q660.915 298.73 660.307 300.171 Q659.717 301.595 658.137 303.539 Q657.703 304.042 655.376 306.456 Q653.05 308.851 648.814 313.174 Z" fill="#000000" fill-rule="evenodd" fill-opacity="1" /><path clip-path="url(#clip890)" d="M 0 0 M721.864 302.15 Q724.382 302.688 725.788 304.39 Q727.212 306.091 727.212 308.591 Q727.212 312.428 724.573 314.528 Q721.934 316.629 717.073 316.629 Q715.441 316.629 713.705 316.299 Q711.986 315.987 710.146 315.344 L710.146 311.959 Q711.604 312.81 713.34 313.244 Q715.076 313.678 716.969 313.678 Q720.267 313.678 721.986 312.376 Q723.722 311.074 723.722 308.591 Q723.722 306.299 722.107 305.015 Q720.51 303.713 717.646 303.713 L714.625 303.713 L714.625 300.831 L717.785 300.831 Q720.371 300.831 721.743 299.806 Q723.114 298.765 723.114 296.82 Q723.114 294.824 721.691 293.765 Q720.285 292.688 717.646 292.688 Q716.205 292.688 714.555 293.001 Q712.906 293.313 710.927 293.973 L710.927 290.848 Q712.923 290.292 714.66 290.015 Q716.413 289.737 717.958 289.737 Q721.951 289.737 724.278 291.56 Q726.604 293.365 726.604 296.456 Q726.604 298.608 725.371 300.101 Q724.139 301.577 721.864 302.15 Z" fill="#000000" fill-rule="evenodd" fill-opacity="1" /><path clip-path="url(#clip890)" d="M 0 0 M741.639 302.15 Q744.156 302.688 745.562 304.39 Q746.986 306.091 746.986 308.591 Q746.986 312.428 744.347 314.528 Q741.708 316.629 736.847 316.629 Q735.215 316.629 733.479 316.299 Q731.76 315.987 729.92 315.344 L729.92 311.959 Q731.378 312.81 733.114 313.244 Q734.85 313.678 736.743 313.678 Q740.041 313.678 741.76 312.376 Q743.496 311.074 743.496 308.591 Q743.496 306.299 741.882 305.015 Q740.284 303.713 737.42 303.713 L734.399 303.713 L734.399 300.831 L737.559 300.831 Q740.146 300.831 741.517 299.806 Q742.889 298.765 742.889 296.82 Q742.889 294.824 741.465 293.765 Q740.059 292.688 737.42 292.688 Q735.979 292.688 734.33 293.001 Q732.68 293.313 730.701 293.973 L730.701 290.848 Q732.698 290.292 734.434 290.015 Q736.187 289.737 737.732 289.737 Q741.725 289.737 744.052 291.56 Q746.378 293.365 746.378 296.456 Q746.378 298.608 745.145 300.101 Q743.913 301.577 741.639 302.15 Z" fill="#000000" fill-rule="evenodd" fill-opacity="1" /><circle clip-path="url(#clip892)" cx="241.433" cy="251.803" r="14" fill="#0000ff" fill-rule="evenodd" fill-opacity="1" stroke="none"/>
<circle clip-path="url(#clip892)" cx="198.823" cy="179.705" r="14" fill="#0000ff" fill-rule="evenodd" fill-opacity="1" stroke="none"/>
<circle clip-path="url(#clip892)" cx="284.043" cy="179.705" r="14" fill="#0000ff" fill-rule="evenodd" fill-opacity="1" stroke="none"/>
<circle clip-path="url(#clip892)" cx="411.874" cy="251.803" r="14" fill="#0000ff" fill-rule="evenodd" fill-opacity="1" stroke="none"/>
<circle clip-path="url(#clip892)" cx="369.264" cy="179.705" r="14" fill="#0000ff" fill-rule="evenodd" fill-opacity="1" stroke="none"/>
<circle clip-path="url(#clip892)" cx="454.484" cy="179.705" r="14" fill="#0000ff" fill-rule="evenodd" fill-opacity="1" stroke="none"/>
<circle clip-path="url(#clip892)" cx="582.315" cy="251.803" r="14" fill="#0000ff" fill-rule="evenodd" fill-opacity="1" stroke="none"/>
<circle clip-path="url(#clip892)" cx="539.705" cy="179.705" r="14" fill="#0000ff" fill-rule="evenodd" fill-opacity="1" stroke="none"/>
<circle clip-path="url(#clip892)" cx="624.925" cy="179.705" r="14" fill="#0000ff" fill-rule="evenodd" fill-opacity="1" stroke="none"/>
<circle clip-path="url(#clip892)" cx="752.756" cy="251.803" r="14" fill="#0000ff" fill-rule="evenodd" fill-opacity="1" stroke="none"/>
<circle clip-path="url(#clip892)" cx="710.146" cy="179.705" r="14" fill="#0000ff" fill-rule="evenodd" fill-opacity="1" stroke="none"/>
<circle clip-path="url(#clip892)" cx="497.094" cy="107.607" r="14" fill="#0000ff" fill-rule="evenodd" fill-opacity="1" stroke="none"/>
<circle clip-path="url(#clip892)" cx="667.535" cy="107.607" r="14" fill="#0000ff" fill-rule="evenodd" fill-opacity="1" stroke="none"/>
<circle clip-path="url(#clip892)" cx="497.094" cy="396" r="14" fill="#0000ff" fill-rule="evenodd" fill-opacity="1" stroke="none"/>
<circle clip-path="url(#clip892)" cx="454.484" cy="323.902" r="14" fill="#0000ff" fill-rule="evenodd" fill-opacity="1" stroke="none"/>
<circle clip-path="url(#clip892)" cx="539.705" cy="323.902" r="14" fill="#0000ff" fill-rule="evenodd" fill-opacity="1" stroke="none"/>
<circle clip-path="url(#clip892)" cx="156.213" cy="107.607" r="14" fill="#0000ff" fill-rule="evenodd" fill-opacity="1" stroke="none"/>
<circle clip-path="url(#clip892)" cx="326.654" cy="107.607" r="14" fill="#0000ff" fill-rule="evenodd" fill-opacity="1" stroke="none"/>
<path clip-path="url(#clip890)" d="M 0 0 M241.937 241.076 L247.666 241.076 L247.666 221.302 L241.433 222.552 L241.433 219.357 L247.631 218.107 L251.138 218.107 L251.138 241.076 L256.867 241.076 L256.867 244.027 L241.937 244.027 L241.937 241.076 Z" fill="#000000" fill-rule="evenodd" fill-opacity="1" /><path clip-path="url(#clip890)" d="M 0 0 M203.042 168.978 L215.281 168.978 L215.281 171.929 L198.823 171.929 L198.823 168.978 Q200.819 166.912 204.257 163.44 Q207.712 159.95 208.597 158.943 Q210.281 157.051 210.941 155.749 Q211.618 154.429 211.618 153.162 Q211.618 151.096 210.16 149.794 Q208.719 148.492 206.392 148.492 Q204.743 148.492 202.903 149.065 Q201.08 149.637 198.996 150.801 L198.996 147.259 Q201.114 146.408 202.955 145.974 Q204.795 145.54 206.323 145.54 Q210.351 145.54 212.746 147.554 Q215.142 149.568 215.142 152.936 Q215.142 154.533 214.535 155.974 Q213.944 157.398 212.364 159.342 Q211.93 159.846 209.604 162.259 Q207.278 164.655 203.042 168.978 Z" fill="#000000" fill-rule="evenodd" fill-opacity="1" /><path clip-path="url(#clip890)" d="M 0 0 M295.762 157.953 Q298.279 158.492 299.686 160.193 Q301.109 161.894 301.109 164.394 Q301.109 168.231 298.47 170.332 Q295.831 172.433 290.97 172.433 Q289.338 172.433 287.602 172.103 Q285.884 171.79 284.043 171.148 L284.043 167.762 Q285.502 168.613 287.238 169.047 Q288.974 169.481 290.866 169.481 Q294.165 169.481 295.884 168.179 Q297.62 166.877 297.62 164.394 Q297.62 162.103 296.005 160.818 Q294.408 159.516 291.543 159.516 L288.522 159.516 L288.522 156.634 L291.682 156.634 Q294.269 156.634 295.64 155.61 Q297.012 154.568 297.012 152.624 Q297.012 150.627 295.588 149.568 Q294.182 148.492 291.543 148.492 Q290.102 148.492 288.453 148.804 Q286.804 149.117 284.825 149.776 L284.825 146.651 Q286.821 146.096 288.557 145.818 Q290.311 145.54 291.856 145.54 Q295.849 145.54 298.175 147.363 Q300.502 149.169 300.502 152.259 Q300.502 154.412 299.269 155.905 Q298.036 157.381 295.762 157.953 Z" fill="#000000" fill-rule="evenodd" fill-opacity="1" /><path clip-path="url(#clip890)" d="M 0 0 M423.575 221.163 L414.721 235 L423.575 235 L423.575 221.163 M422.655 218.107 L427.065 218.107 L427.065 235 L430.763 235 L430.763 237.916 L427.065 237.916 L427.065 244.027 L423.575 244.027 L423.575 237.916 L411.874 237.916 L411.874 234.531 L422.655 218.107 Z" fill="#000000" fill-rule="evenodd" fill-opacity="1" /><path clip-path="url(#clip890)" d="M 0 0 M370.358 146.009 L384.125 146.009 L384.125 148.96 L373.569 148.96 L373.569 155.315 Q374.333 155.054 375.097 154.933 Q375.861 154.794 376.625 154.794 Q380.965 154.794 383.5 157.172 Q386.035 159.551 386.035 163.613 Q386.035 167.797 383.43 170.123 Q380.826 172.433 376.087 172.433 Q374.455 172.433 372.753 172.155 Q371.069 171.877 369.264 171.321 L369.264 167.797 Q370.826 168.648 372.493 169.064 Q374.16 169.481 376.017 169.481 Q379.021 169.481 380.774 167.901 Q382.528 166.321 382.528 163.613 Q382.528 160.905 380.774 159.325 Q379.021 157.745 376.017 157.745 Q374.611 157.745 373.205 158.058 Q371.816 158.37 370.358 159.03 L370.358 146.009 Z" fill="#000000" fill-rule="evenodd" fill-opacity="1" /><path clip-path="url(#clip890)" d="M 0 0 M463.738 157.571 Q461.377 157.571 459.988 159.186 Q458.616 160.801 458.616 163.613 Q458.616 166.408 459.988 168.04 Q461.377 169.655 463.738 169.655 Q466.099 169.655 467.47 168.04 Q468.859 166.408 468.859 163.613 Q468.859 160.801 467.47 159.186 Q466.099 157.571 463.738 157.571 M470.699 146.582 L470.699 149.776 Q469.38 149.151 468.026 148.822 Q466.689 148.492 465.37 148.492 Q461.897 148.492 460.057 150.835 Q458.234 153.179 457.974 157.919 Q458.998 156.408 460.543 155.61 Q462.088 154.794 463.946 154.794 Q467.852 154.794 470.109 157.172 Q472.383 159.533 472.383 163.613 Q472.383 167.606 470.022 170.019 Q467.661 172.433 463.738 172.433 Q459.241 172.433 456.863 168.995 Q454.484 165.54 454.484 158.995 Q454.484 152.849 457.401 149.203 Q460.318 145.54 465.231 145.54 Q466.55 145.54 467.887 145.801 Q469.241 146.061 470.699 146.582 Z" fill="#000000" fill-rule="evenodd" fill-opacity="1" /><path clip-path="url(#clip890)" d="M 0 0 M582.315 218.107 L598.982 218.107 L598.982 219.6 L589.572 244.027 L585.909 244.027 L594.763 221.059 L582.315 221.059 L582.315 218.107 Z" fill="#000000" fill-rule="evenodd" fill-opacity="1" /><path clip-path="url(#clip890)" d="M 0 0 M548.594 159.62 Q546.094 159.62 544.653 160.957 Q543.229 162.294 543.229 164.637 Q543.229 166.981 544.653 168.318 Q546.094 169.655 548.594 169.655 Q551.094 169.655 552.535 168.318 Q553.975 166.964 553.975 164.637 Q553.975 162.294 552.535 160.957 Q551.111 159.62 548.594 159.62 M545.087 158.127 Q542.83 157.571 541.562 156.026 Q540.312 154.481 540.312 152.259 Q540.312 149.151 542.517 147.346 Q544.739 145.54 548.594 145.54 Q552.465 145.54 554.67 147.346 Q556.875 149.151 556.875 152.259 Q556.875 154.481 555.607 156.026 Q554.357 157.571 552.118 158.127 Q554.653 158.717 556.059 160.436 Q557.482 162.155 557.482 164.637 Q557.482 168.405 555.173 170.419 Q552.882 172.433 548.594 172.433 Q544.305 172.433 541.996 170.419 Q539.705 168.405 539.705 164.637 Q539.705 162.155 541.128 160.436 Q542.552 158.717 545.087 158.127 M543.802 152.589 Q543.802 154.603 545.052 155.731 Q546.319 156.86 548.594 156.86 Q550.85 156.86 552.118 155.731 Q553.403 154.603 553.403 152.589 Q553.403 150.575 552.118 149.447 Q550.85 148.318 548.594 148.318 Q546.319 148.318 545.052 149.447 Q543.802 150.575 543.802 152.589 Z" fill="#000000" fill-rule="evenodd" fill-opacity="1" /><path clip-path="url(#clip890)" d="M 0 0 M626.592 171.391 L626.592 168.196 Q627.911 168.821 629.265 169.151 Q630.62 169.481 631.922 169.481 Q635.394 169.481 637.217 167.155 Q639.057 164.811 639.317 160.054 Q638.311 161.547 636.765 162.346 Q635.22 163.144 633.345 163.144 Q629.456 163.144 627.182 160.801 Q624.925 158.44 624.925 154.36 Q624.925 150.367 627.286 147.953 Q629.647 145.54 633.571 145.54 Q638.067 145.54 640.429 148.995 Q642.807 152.433 642.807 158.995 Q642.807 165.124 639.89 168.787 Q636.991 172.433 632.078 172.433 Q630.758 172.433 629.404 172.172 Q628.05 171.912 626.592 171.391 M633.571 160.401 Q635.932 160.401 637.304 158.787 Q638.692 157.172 638.692 154.36 Q638.692 151.565 637.304 149.95 Q635.932 148.318 633.571 148.318 Q631.21 148.318 629.821 149.95 Q628.449 151.565 628.449 154.36 Q628.449 157.172 629.821 158.787 Q631.21 160.401 633.571 160.401 Z" fill="#000000" fill-rule="evenodd" fill-opacity="1" /><path clip-path="url(#clip890)" d="M 0 0 M753.259 241.076 L758.989 241.076 L758.989 221.302 L752.756 222.552 L752.756 219.357 L758.954 218.107 L762.461 218.107 L762.461 241.076 L768.19 241.076 L768.19 244.027 L753.259 244.027 L753.259 241.076 Z" fill="#000000" fill-rule="evenodd" fill-opacity="1" /><path clip-path="url(#clip890)" d="M 0 0 M779.492 220.416 Q776.784 220.416 775.412 223.09 Q774.058 225.746 774.058 231.093 Q774.058 236.423 775.412 239.097 Q776.784 241.753 779.492 241.753 Q782.218 241.753 783.572 239.097 Q784.943 236.423 784.943 231.093 Q784.943 225.746 783.572 223.09 Q782.218 220.416 779.492 220.416 M779.492 217.639 Q783.849 217.639 786.141 221.093 Q788.45 224.531 788.45 231.093 Q788.45 237.639 786.141 241.093 Q783.849 244.531 779.492 244.531 Q775.134 244.531 772.825 241.093 Q770.534 237.639 770.534 231.093 Q770.534 224.531 772.825 221.093 Q775.134 217.639 779.492 217.639 Z" fill="#000000" fill-rule="evenodd" fill-opacity="1" /><path clip-path="url(#clip890)" d="M 0 0 M710.649 168.978 L716.378 168.978 L716.378 149.203 L710.146 150.453 L710.146 147.259 L716.344 146.009 L719.85 146.009 L719.85 168.978 L725.58 168.978 L725.58 171.929 L710.649 171.929 L710.649 168.978 Z" fill="#000000" fill-rule="evenodd" fill-opacity="1" /><path clip-path="url(#clip890)" d="M 0 0 M729.989 168.978 L735.718 168.978 L735.718 149.203 L729.486 150.453 L729.486 147.259 L735.684 146.009 L739.191 146.009 L739.191 168.978 L744.92 168.978 L744.92 171.929 L729.989 171.929 L729.989 168.978 Z" fill="#000000" fill-rule="evenodd" fill-opacity="1" /><path clip-path="url(#clip890)" d="M 0 0 M497.598 96.8793 L503.327 96.8793 L503.327 77.1051 L497.094 78.3551 L497.094 75.1607 L503.292 73.9107 L506.799 73.9107 L506.799 96.8793 L512.528 96.8793 L512.528 99.8307 L497.598 99.8307 L497.598 96.8793 Z" fill="#000000" fill-rule="evenodd" fill-opacity="1" /><path clip-path="url(#clip890)" d="M 0 0 M516.435 99.2925 L516.435 96.0981 Q517.754 96.7231 519.108 97.053 Q520.462 97.3828 521.764 97.3828 Q525.237 97.3828 527.06 95.0564 Q528.9 92.7127 529.16 87.9558 Q528.153 89.4488 526.608 90.2474 Q525.063 91.046 523.188 91.046 Q519.299 91.046 517.025 88.7023 Q514.768 86.3412 514.768 82.2614 Q514.768 78.2683 517.129 75.8552 Q519.49 73.442 523.414 73.442 Q527.91 73.442 530.271 76.8968 Q532.65 80.3343 532.65 86.8968 Q532.65 93.0252 529.733 96.6884 Q526.834 100.334 521.921 100.334 Q520.601 100.334 519.247 100.074 Q517.893 99.8134 516.435 99.2925 M523.414 88.303 Q525.775 88.303 527.146 86.6884 Q528.535 85.0739 528.535 82.2614 Q528.535 79.4662 527.146 77.8517 Q525.775 76.2197 523.414 76.2197 Q521.053 76.2197 519.664 77.8517 Q518.292 79.4662 518.292 82.2614 Q518.292 85.0739 519.664 86.6884 Q521.053 88.303 523.414 88.303 Z" fill="#000000" fill-rule="evenodd" fill-opacity="1" /><path clip-path="url(#clip890)" d="M 0 0 M671.754 96.8793 L683.994 96.8793 L683.994 99.8307 L667.535 99.8307 L667.535 96.8793 Q669.532 94.8134 672.969 91.3412 Q676.424 87.8516 677.31 86.8447 Q678.994 84.9523 679.653 83.6503 Q680.331 82.3308 680.331 81.0635 Q680.331 78.9975 678.872 77.6954 Q677.431 76.3933 675.105 76.3933 Q673.456 76.3933 671.615 76.9663 Q669.792 77.5392 667.709 78.7024 L667.709 75.1607 Q669.827 74.31 671.667 73.876 Q673.508 73.442 675.035 73.442 Q679.063 73.442 681.459 75.4559 Q683.855 77.4697 683.855 80.8378 Q683.855 82.435 683.247 83.8759 Q682.657 85.2995 681.077 87.244 Q680.643 87.7475 678.317 90.1606 Q675.99 92.5565 671.754 96.8793 Z" fill="#000000" fill-rule="evenodd" fill-opacity="1" /><path clip-path="url(#clip890)" d="M 0 0 M690.817 96.8793 L703.056 96.8793 L703.056 99.8307 L686.598 99.8307 L686.598 96.8793 Q688.594 94.8134 692.032 91.3412 Q695.487 87.8516 696.372 86.8447 Q698.056 84.9523 698.716 83.6503 Q699.393 82.3308 699.393 81.0635 Q699.393 78.9975 697.935 77.6954 Q696.494 76.3933 694.167 76.3933 Q692.518 76.3933 690.678 76.9663 Q688.855 77.5392 686.771 78.7024 L686.771 75.1607 Q688.889 74.31 690.73 73.876 Q692.57 73.442 694.098 73.442 Q698.126 73.442 700.521 75.4559 Q702.917 77.4697 702.917 80.8378 Q702.917 82.435 702.31 83.8759 Q701.719 85.2995 700.139 87.244 Q699.705 87.7475 697.379 90.1606 Q695.053 92.5565 690.817 96.8793 Z" fill="#000000" fill-rule="evenodd" fill-opacity="1" /><path clip-path="url(#clip890)" d="M 0 0 M501.313 385.273 L513.553 385.273 L513.553 388.224 L497.094 388.224 L497.094 385.273 Q499.091 383.207 502.528 379.734 Q505.983 376.245 506.869 375.238 Q508.553 373.346 509.212 372.044 Q509.89 370.724 509.89 369.457 Q509.89 367.391 508.431 366.089 Q506.99 364.787 504.664 364.787 Q503.015 364.787 501.174 365.36 Q499.351 365.932 497.268 367.096 L497.268 363.554 Q499.386 362.703 501.226 362.269 Q503.067 361.835 504.594 361.835 Q508.622 361.835 511.018 363.849 Q513.414 365.863 513.414 369.231 Q513.414 370.828 512.806 372.269 Q512.216 373.693 510.636 375.637 Q510.202 376.141 507.876 378.554 Q505.549 380.95 501.313 385.273 Z" fill="#000000" fill-rule="evenodd" fill-opacity="1" /><path clip-path="url(#clip890)" d="M 0 0 M524.855 375.915 Q522.355 375.915 520.914 377.252 Q519.49 378.589 519.49 380.932 Q519.49 383.276 520.914 384.613 Q522.355 385.95 524.855 385.95 Q527.355 385.95 528.796 384.613 Q530.237 383.259 530.237 380.932 Q530.237 378.589 528.796 377.252 Q527.372 375.915 524.855 375.915 M521.348 374.422 Q519.091 373.866 517.824 372.321 Q516.574 370.776 516.574 368.554 Q516.574 365.446 518.778 363.641 Q521.001 361.835 524.855 361.835 Q528.726 361.835 530.931 363.641 Q533.136 365.446 533.136 368.554 Q533.136 370.776 531.869 372.321 Q530.619 373.866 528.379 374.422 Q530.914 375.012 532.32 376.731 Q533.744 378.45 533.744 380.932 Q533.744 384.7 531.435 386.714 Q529.143 388.727 524.855 388.727 Q520.567 388.727 518.258 386.714 Q515.966 384.7 515.966 380.932 Q515.966 378.45 517.39 376.731 Q518.813 375.012 521.348 374.422 M520.063 368.884 Q520.063 370.898 521.313 372.026 Q522.58 373.155 524.855 373.155 Q527.112 373.155 528.379 372.026 Q529.664 370.898 529.664 368.884 Q529.664 366.87 528.379 365.741 Q527.112 364.613 524.855 364.613 Q522.58 364.613 521.313 365.741 Q520.063 366.87 520.063 368.884 Z" fill="#000000" fill-rule="evenodd" fill-opacity="1" /><path clip-path="url(#clip890)" d="M 0 0 M458.703 313.174 L470.942 313.174 L470.942 316.126 L454.484 316.126 L454.484 313.174 Q456.481 311.108 459.918 307.636 Q463.373 304.147 464.259 303.14 Q465.943 301.247 466.602 299.945 Q467.279 298.626 467.279 297.358 Q467.279 295.292 465.821 293.99 Q464.38 292.688 462.054 292.688 Q460.404 292.688 458.564 293.261 Q456.741 293.834 454.658 294.997 L454.658 291.456 Q456.776 290.605 458.616 290.171 Q460.456 289.737 461.984 289.737 Q466.012 289.737 468.408 291.751 Q470.804 293.765 470.804 297.133 Q470.804 298.73 470.196 300.171 Q469.606 301.595 468.026 303.539 Q467.592 304.042 465.265 306.456 Q462.939 308.851 458.703 313.174 Z" fill="#000000" fill-rule="evenodd" fill-opacity="1" /><path clip-path="url(#clip890)" d="M 0 0 M474.849 315.587 L474.849 312.393 Q476.168 313.018 477.522 313.348 Q478.876 313.678 480.179 313.678 Q483.651 313.678 485.474 311.351 Q487.314 309.008 487.574 304.251 Q486.567 305.744 485.022 306.542 Q483.477 307.341 481.602 307.341 Q477.713 307.341 475.439 304.997 Q473.182 302.636 473.182 298.556 Q473.182 294.563 475.543 292.15 Q477.904 289.737 481.828 289.737 Q486.324 289.737 488.685 293.192 Q491.064 296.629 491.064 303.192 Q491.064 309.32 488.147 312.983 Q485.248 316.629 480.335 316.629 Q479.015 316.629 477.661 316.369 Q476.307 316.108 474.849 315.587 M481.828 304.598 Q484.189 304.598 485.56 302.983 Q486.949 301.369 486.949 298.556 Q486.949 295.761 485.56 294.147 Q484.189 292.515 481.828 292.515 Q479.467 292.515 478.078 294.147 Q476.706 295.761 476.706 298.556 Q476.706 301.369 478.078 302.983 Q479.467 304.598 481.828 304.598 Z" fill="#000000" fill-rule="evenodd" fill-opacity="1" /><path clip-path="url(#clip890)" d="M 0 0 M551.423 302.15 Q553.941 302.688 555.347 304.39 Q556.771 306.091 556.771 308.591 Q556.771 312.428 554.132 314.528 Q551.493 316.629 546.632 316.629 Q545 316.629 543.264 316.299 Q541.545 315.987 539.705 315.344 L539.705 311.959 Q541.163 312.81 542.899 313.244 Q544.635 313.678 546.528 313.678 Q549.826 313.678 551.545 312.376 Q553.281 311.074 553.281 308.591 Q553.281 306.299 551.666 305.015 Q550.069 303.713 547.205 303.713 L544.184 303.713 L544.184 300.831 L547.344 300.831 Q549.93 300.831 551.302 299.806 Q552.673 298.765 552.673 296.82 Q552.673 294.824 551.25 293.765 Q549.844 292.688 547.205 292.688 Q545.764 292.688 544.114 293.001 Q542.465 293.313 540.486 293.973 L540.486 290.848 Q542.482 290.292 544.219 290.015 Q545.972 289.737 547.517 289.737 Q551.51 289.737 553.837 291.56 Q556.163 293.365 556.163 296.456 Q556.163 298.608 554.93 300.101 Q553.698 301.577 551.423 302.15 Z" fill="#000000" fill-rule="evenodd" fill-opacity="1" /><path clip-path="url(#clip890)" d="M 0 0 M568.073 292.515 Q565.364 292.515 563.993 295.188 Q562.639 297.845 562.639 303.192 Q562.639 308.522 563.993 311.195 Q565.364 313.851 568.073 313.851 Q570.798 313.851 572.152 311.195 Q573.524 308.522 573.524 303.192 Q573.524 297.845 572.152 295.188 Q570.798 292.515 568.073 292.515 M568.073 289.737 Q572.43 289.737 574.722 293.192 Q577.031 296.629 577.031 303.192 Q577.031 309.737 574.722 313.192 Q572.43 316.629 568.073 316.629 Q563.715 316.629 561.406 313.192 Q559.114 309.737 559.114 303.192 Q559.114 296.629 561.406 293.192 Q563.715 289.737 568.073 289.737 Z" fill="#000000" fill-rule="evenodd" fill-opacity="1" /><path clip-path="url(#clip890)" d="M 0 0 M167.931 85.8551 Q170.449 86.3933 171.855 88.0947 Q173.278 89.7961 173.278 92.296 Q173.278 96.1328 170.64 98.2335 Q168.001 100.334 163.14 100.334 Q161.508 100.334 159.772 100.004 Q158.053 99.6918 156.213 99.0495 L156.213 95.6641 Q157.671 96.5148 159.407 96.9488 Q161.143 97.3828 163.035 97.3828 Q166.334 97.3828 168.053 96.0807 Q169.789 94.7787 169.789 92.296 Q169.789 90.0044 168.174 88.7197 Q166.577 87.4176 163.713 87.4176 L160.692 87.4176 L160.692 84.5357 L163.851 84.5357 Q166.438 84.5357 167.81 83.5114 Q169.181 82.4697 169.181 80.5253 Q169.181 78.5288 167.758 77.4697 Q166.351 76.3933 163.713 76.3933 Q162.272 76.3933 160.622 76.7058 Q158.973 77.0183 156.994 77.6781 L156.994 74.5531 Q158.99 73.9975 160.726 73.7198 Q162.48 73.442 164.025 73.442 Q168.018 73.442 170.344 75.2649 Q172.671 77.0704 172.671 80.1607 Q172.671 82.3135 171.438 83.8065 Q170.206 85.2822 167.931 85.8551 Z" fill="#000000" fill-rule="evenodd" fill-opacity="1" /><path clip-path="url(#clip890)" d="M 0 0 M177.688 96.8793 L183.417 96.8793 L183.417 77.1051 L177.185 78.3551 L177.185 75.1607 L183.383 73.9107 L186.89 73.9107 L186.89 96.8793 L192.619 96.8793 L192.619 99.8307 L177.688 99.8307 L177.688 96.8793 Z" fill="#000000" fill-rule="evenodd" fill-opacity="1" /><path clip-path="url(#clip890)" d="M 0 0 M338.372 85.8551 Q340.89 86.3933 342.296 88.0947 Q343.719 89.7961 343.719 92.296 Q343.719 96.1328 341.081 98.2335 Q338.442 100.334 333.581 100.334 Q331.949 100.334 330.213 100.004 Q328.494 99.6918 326.654 99.0495 L326.654 95.6641 Q328.112 96.5148 329.848 96.9488 Q331.584 97.3828 333.476 97.3828 Q336.775 97.3828 338.494 96.0807 Q340.23 94.7787 340.23 92.296 Q340.23 90.0044 338.615 88.7197 Q337.018 87.4176 334.154 87.4176 L331.133 87.4176 L331.133 84.5357 L334.292 84.5357 Q336.879 84.5357 338.251 83.5114 Q339.622 82.4697 339.622 80.5253 Q339.622 78.5288 338.199 77.4697 Q336.792 76.3933 334.154 76.3933 Q332.713 76.3933 331.063 76.7058 Q329.414 77.0183 327.435 77.6781 L327.435 74.5531 Q329.431 73.9975 331.167 73.7198 Q332.921 73.442 334.466 73.442 Q338.459 73.442 340.785 75.2649 Q343.112 77.0704 343.112 80.1607 Q343.112 82.3135 341.879 83.8065 Q340.647 85.2822 338.372 85.8551 Z" fill="#000000" fill-rule="evenodd" fill-opacity="1" /><path clip-path="url(#clip890)" d="M 0 0 M357.157 76.9663 L348.303 90.803 L357.157 90.803 L357.157 76.9663 M356.237 73.9107 L360.646 73.9107 L360.646 90.803 L364.344 90.803 L364.344 93.7196 L360.646 93.7196 L360.646 99.8307 L357.157 99.8307 L357.157 93.7196 L345.456 93.7196 L345.456 90.3342 L356.237 73.9107 Z" fill="#000000" fill-rule="evenodd" fill-opacity="1" /></svg>
