<?xml version="1.0" encoding="utf-8"?>
<svg xmlns="http://www.w3.org/2000/svg" xmlns:xlink="http://www.w3.org/1999/xlink" width="200" height="200" viewBox="0 0 800 800">
<defs>
  <clipPath id="clip410">
    <rect x="0" y="0" width="800" height="800"/>
  </clipPath>
</defs>
<path clip-path="url(#clip410)" d="
M0 800 L800 800 L800 0 L0 0  Z
  " fill="#ffffff" fill-rule="evenodd" fill-opacity="1"/>
<defs>
  <clipPath id="clip411">
    <rect x="160" y="80" width="561" height="561"/>
  </clipPath>
</defs>
<path clip-path="url(#clip410)" d="
M70.9921 729.008 L752.756 729.008 L752.756 62.9921 L70.9921 62.9921  Z
  " fill="#ffffff" fill-rule="evenodd" fill-opacity="1"/>
<defs>
  <clipPath id="clip412">
    <rect x="70" y="62" width="683" height="667"/>
  </clipPath>
</defs>
<polyline clip-path="url(#clip410)" style="stroke:#000000; stroke-width:4; stroke-opacity:1; fill:none" points="
  70.9921,729.008 752.756,729.008 
  "/>
<polyline clip-path="url(#clip410)" style="stroke:#000000; stroke-width:4; stroke-opacity:1; fill:none" points="
  70.9921,729.008 70.9921,721.016 
  "/>
<polyline clip-path="url(#clip410)" style="stroke:#000000; stroke-width:4; stroke-opacity:1; fill:none" points="
  241.433,729.008 241.433,721.016 
  "/>
<polyline clip-path="url(#clip410)" style="stroke:#000000; stroke-width:4; stroke-opacity:1; fill:none" points="
  411.874,729.008 411.874,721.016 
  "/>
<polyline clip-path="url(#clip410)" style="stroke:#000000; stroke-width:4; stroke-opacity:1; fill:none" points="
  582.315,729.008 582.315,721.016 
  "/>
<polyline clip-path="url(#clip410)" style="stroke:#000000; stroke-width:4; stroke-opacity:1; fill:none" points="
  752.756,729.008 752.756,721.016 
  "/>
<path clip-path="url(#clip410)" d="M 0 0 M40.9344 760.051 L70.6102 760.051 L70.6102 763.986 L40.9344 763.986 L40.9344 760.051 Z" fill="#000000" fill-rule="evenodd" fill-opacity="1" /><path clip-path="url(#clip410)" d="M 0 0 M84.7305 772.945 L101.05 772.945 L101.05 776.88 L79.1055 776.88 L79.1055 772.945 Q81.7675 770.19 86.3508 765.56 Q90.9573 760.908 92.1378 759.565 Q94.3832 757.042 95.2628 755.306 Q96.1656 753.547 96.1656 751.857 Q96.1656 749.102 94.2212 747.366 Q92.2999 745.63 89.198 745.63 Q86.999 745.63 84.5453 746.394 Q82.1148 747.158 79.337 748.709 L79.337 743.987 Q82.161 742.852 84.6147 742.274 Q87.0684 741.695 89.1055 741.695 Q94.4758 741.695 97.6702 744.38 Q100.865 747.065 100.865 751.556 Q100.865 753.686 100.054 755.607 Q99.2674 757.505 97.161 760.098 Q96.5823 760.769 93.4804 763.986 Q90.3786 767.181 84.7305 772.945 Z" fill="#000000" fill-rule="evenodd" fill-opacity="1" /><path clip-path="url(#clip410)" d="M 0 0 M211.19 760.051 L240.866 760.051 L240.866 763.986 L211.19 763.986 L211.19 760.051 Z" fill="#000000" fill-rule="evenodd" fill-opacity="1" /><path clip-path="url(#clip410)" d="M 0 0 M251.769 772.945 L259.408 772.945 L259.408 746.579 L251.097 748.246 L251.097 743.987 L259.361 742.32 L264.037 742.32 L264.037 772.945 L271.676 772.945 L271.676 776.88 L251.769 776.88 L251.769 772.945 Z" fill="#000000" fill-rule="evenodd" fill-opacity="1" /><path clip-path="url(#clip410)" d="M 0 0 M411.874 745.399 Q408.263 745.399 406.434 748.963 Q404.629 752.505 404.629 759.635 Q404.629 766.741 406.434 770.306 Q408.263 773.847 411.874 773.847 Q415.508 773.847 417.314 770.306 Q419.142 766.741 419.142 759.635 Q419.142 752.505 417.314 748.963 Q415.508 745.399 411.874 745.399 M411.874 741.695 Q417.684 741.695 420.74 746.301 Q423.818 750.885 423.818 759.635 Q423.818 768.361 420.74 772.968 Q417.684 777.551 411.874 777.551 Q406.064 777.551 402.985 772.968 Q399.93 768.361 399.93 759.635 Q399.93 750.885 402.985 746.301 Q406.064 741.695 411.874 741.695 Z" fill="#000000" fill-rule="evenodd" fill-opacity="1" /><path clip-path="url(#clip410)" d="M 0 0 M572.697 772.945 L580.336 772.945 L580.336 746.579 L572.026 748.246 L572.026 743.987 L580.29 742.32 L584.965 742.32 L584.965 772.945 L592.604 772.945 L592.604 776.88 L572.697 776.88 L572.697 772.945 Z" fill="#000000" fill-rule="evenodd" fill-opacity="1" /><path clip-path="url(#clip410)" d="M 0 0 M747.409 772.945 L763.728 772.945 L763.728 776.88 L741.784 776.88 L741.784 772.945 Q744.446 770.19 749.029 765.56 Q753.636 760.908 754.816 759.565 Q757.061 757.042 757.941 755.306 Q758.844 753.547 758.844 751.857 Q758.844 749.102 756.899 747.366 Q754.978 745.63 751.876 745.63 Q749.677 745.63 747.224 746.394 Q744.793 747.158 742.015 748.709 L742.015 743.987 Q744.839 742.852 747.293 742.274 Q749.747 741.695 751.784 741.695 Q757.154 741.695 760.348 744.38 Q763.543 747.065 763.543 751.556 Q763.543 753.686 762.733 755.607 Q761.946 757.505 759.839 760.098 Q759.261 760.769 756.159 763.986 Q753.057 767.181 747.409 772.945 Z" fill="#000000" fill-rule="evenodd" fill-opacity="1" /><polyline clip-path="url(#clip410)" style="stroke:#000000; stroke-width:4; stroke-opacity:1; fill:none" points="
  70.9921,729.008 70.9921,62.9921 
  "/>
<polyline clip-path="url(#clip410)" style="stroke:#000000; stroke-width:4; stroke-opacity:1; fill:none" points="
  70.9921,729.008 79.1733,729.008 
  "/>
<polyline clip-path="url(#clip410)" style="stroke:#000000; stroke-width:4; stroke-opacity:1; fill:none" points="
  70.9921,562.504 79.1733,562.504 
  "/>
<polyline clip-path="url(#clip410)" style="stroke:#000000; stroke-width:4; stroke-opacity:1; fill:none" points="
  70.9921,396 79.1733,396 
  "/>
<polyline clip-path="url(#clip410)" style="stroke:#000000; stroke-width:4; stroke-opacity:1; fill:none" points="
  70.9921,229.496 79.1733,229.496 
  "/>
<polyline clip-path="url(#clip410)" style="stroke:#000000; stroke-width:4; stroke-opacity:1; fill:none" points="
  70.9921,62.9921 79.1733,62.9921 
  "/>
<path clip-path="url(#clip410)" d="M 0 0 M-1.12329 729.459 L28.5525 729.459 L28.5525 733.394 L-1.12329 733.394 L-1.12329 729.459 Z" fill="#000000" fill-rule="evenodd" fill-opacity="1" /><path clip-path="url(#clip410)" d="M 0 0 M42.6728 742.353 L58.9921 742.353 L58.9921 746.288 L37.0478 746.288 L37.0478 742.353 Q39.7098 739.598 44.2931 734.968 Q48.8996 730.316 50.0801 728.973 Q52.3255 726.45 53.2051 724.714 Q54.1079 722.955 54.1079 721.265 Q54.1079 718.51 52.1635 716.774 Q50.2422 715.038 47.1403 715.038 Q44.9413 715.038 42.4876 715.802 Q40.057 716.566 37.2793 718.117 L37.2793 713.395 Q40.1033 712.26 42.557 711.682 Q45.0107 711.103 47.0477 711.103 Q52.4181 711.103 55.6125 713.788 Q58.8069 716.473 58.8069 720.964 Q58.8069 723.094 57.9968 725.015 Q57.2097 726.913 55.1033 729.506 Q54.5246 730.177 51.4227 733.394 Q48.3209 736.589 42.6728 742.353 Z" fill="#000000" fill-rule="evenodd" fill-opacity="1" /><path clip-path="url(#clip410)" d="M 0 0 M-1.49366 562.955 L28.1821 562.955 L28.1821 566.89 L-1.49366 566.89 L-1.49366 562.955 Z" fill="#000000" fill-rule="evenodd" fill-opacity="1" /><path clip-path="url(#clip410)" d="M 0 0 M39.0848 575.849 L46.7237 575.849 L46.7237 549.483 L38.4135 551.15 L38.4135 546.891 L46.6774 545.224 L51.3533 545.224 L51.3533 575.849 L58.9921 575.849 L58.9921 579.784 L39.0848 579.784 L39.0848 575.849 Z" fill="#000000" fill-rule="evenodd" fill-opacity="1" /><path clip-path="url(#clip410)" d="M 0 0 M47.0477 381.799 Q43.4367 381.799 41.608 385.363 Q39.8024 388.905 39.8024 396.035 Q39.8024 403.141 41.608 406.706 Q43.4367 410.248 47.0477 410.248 Q50.682 410.248 52.4875 406.706 Q54.3162 403.141 54.3162 396.035 Q54.3162 388.905 52.4875 385.363 Q50.682 381.799 47.0477 381.799 M47.0477 378.095 Q52.8579 378.095 55.9134 382.701 Q58.9921 387.285 58.9921 396.035 Q58.9921 404.762 55.9134 409.368 Q52.8579 413.951 47.0477 413.951 Q41.2376 413.951 38.1589 409.368 Q35.1034 404.762 35.1034 396.035 Q35.1034 387.285 38.1589 382.701 Q41.2376 378.095 47.0477 378.095 Z" fill="#000000" fill-rule="evenodd" fill-opacity="1" /><path clip-path="url(#clip410)" d="M 0 0 M39.0848 242.841 L46.7237 242.841 L46.7237 216.475 L38.4135 218.142 L38.4135 213.883 L46.6774 212.216 L51.3533 212.216 L51.3533 242.841 L58.9921 242.841 L58.9921 246.776 L39.0848 246.776 L39.0848 242.841 Z" fill="#000000" fill-rule="evenodd" fill-opacity="1" /><path clip-path="url(#clip410)" d="M 0 0 M42.6728 76.337 L58.9921 76.337 L58.9921 80.2721 L37.0478 80.2721 L37.0478 76.337 Q39.7098 73.5823 44.2931 68.9527 Q48.8996 64.3 50.0801 62.9574 Q52.3255 60.4343 53.2051 58.6982 Q54.1079 56.9389 54.1079 55.2491 Q54.1079 52.4945 52.1635 50.7584 Q50.2422 49.0223 47.1403 49.0223 Q44.9413 49.0223 42.4876 49.7862 Q40.057 50.5501 37.2793 52.101 L37.2793 47.3788 Q40.1033 46.2445 42.557 45.6658 Q45.0107 45.0871 47.0477 45.0871 Q52.4181 45.0871 55.6125 47.7723 Q58.8069 50.4575 58.8069 54.9482 Q58.8069 57.0778 57.9968 58.9991 Q57.2097 60.8972 55.1033 63.4898 Q54.5246 64.1611 51.4227 67.3787 Q48.3209 70.5731 42.6728 76.337 Z" fill="#000000" fill-rule="evenodd" fill-opacity="1" /><path clip-path="url(#clip410)" d="M 0 0 M349.583 20.523 Q351.18 17.6527 353.402 16.2869 Q355.624 14.9212 358.634 14.9212 Q362.684 14.9212 364.884 17.7684 Q367.083 20.5925 367.083 25.8239 L367.083 41.472 L362.8 41.472 L362.8 25.9628 Q362.8 22.236 361.481 20.4304 Q360.161 18.6249 357.453 18.6249 Q354.143 18.6249 352.222 20.824 Q350.3 23.023 350.3 26.8193 L350.3 41.472 L346.018 41.472 L346.018 25.9628 Q346.018 22.2128 344.698 20.4304 Q343.379 18.6249 340.624 18.6249 Q337.361 18.6249 335.439 20.8471 Q333.518 23.0462 333.518 26.8193 L333.518 41.472 L329.236 41.472 L329.236 15.5462 L333.518 15.5462 L333.518 19.574 Q334.976 17.1897 337.013 16.0555 Q339.05 14.9212 341.851 14.9212 Q344.675 14.9212 346.643 16.3564 Q348.634 17.7916 349.583 20.523 Z" fill="#000000" fill-rule="evenodd" fill-opacity="1" /><path clip-path="url(#clip410)" d="M 0 0 M375.184 5.45367 L384.999 5.45367 L384.999 8.76384 L379.444 8.76384 L379.444 44.4118 L384.999 44.4118 L384.999 47.722 L375.184 47.722 L375.184 5.45367 Z" fill="#000000" fill-rule="evenodd" fill-opacity="1" /><path clip-path="url(#clip410)" d="M 0 0 M398.703 37.5368 L415.022 37.5368 L415.022 41.472 L393.078 41.472 L393.078 37.5368 Q395.74 34.7822 400.323 30.1526 Q404.93 25.4999 406.11 24.1573 Q408.356 21.6341 409.235 19.898 Q410.138 18.1388 410.138 16.449 Q410.138 13.6944 408.193 11.9583 Q406.272 10.2222 403.17 10.2222 Q400.971 10.2222 398.518 10.9861 Q396.087 11.7499 393.309 13.3009 L393.309 8.57866 Q396.133 7.4444 398.587 6.8657 Q401.041 6.287 403.078 6.287 Q408.448 6.287 411.643 8.97217 Q414.837 11.6573 414.837 16.1481 Q414.837 18.2777 414.027 20.199 Q413.24 22.0971 411.133 24.6897 Q410.555 25.361 407.453 28.5786 Q404.351 31.773 398.703 37.5368 Z" fill="#000000" fill-rule="evenodd" fill-opacity="1" /><path clip-path="url(#clip410)" d="M 0 0 M425.647 37.5368 L433.286 37.5368 L433.286 11.1712 L424.976 12.8379 L424.976 8.57866 L433.24 6.912 L437.916 6.912 L437.916 37.5368 L445.554 37.5368 L445.554 41.472 L425.647 41.472 L425.647 37.5368 Z" fill="#000000" fill-rule="evenodd" fill-opacity="1" /><path clip-path="url(#clip410)" d="M 0 0 M464.999 9.99069 Q461.388 9.99069 459.559 13.5555 Q457.753 17.0971 457.753 24.2267 Q457.753 31.3332 459.559 34.898 Q461.388 38.4396 464.999 38.4396 Q468.633 38.4396 470.439 34.898 Q472.267 31.3332 472.267 24.2267 Q472.267 17.0971 470.439 13.5555 Q468.633 9.99069 464.999 9.99069 M464.999 6.287 Q470.809 6.287 473.864 10.8935 Q476.943 15.4768 476.943 24.2267 Q476.943 32.9535 473.864 37.56 Q470.809 42.1433 464.999 42.1433 Q459.189 42.1433 456.11 37.56 Q453.054 32.9535 453.054 24.2267 Q453.054 15.4768 456.11 10.8935 Q459.189 6.287 464.999 6.287 Z" fill="#000000" fill-rule="evenodd" fill-opacity="1" /><path clip-path="url(#clip410)" d="M 0 0 M494.512 5.45367 L494.512 47.722 L484.698 47.722 L484.698 44.4118 L490.23 44.4118 L490.23 8.76384 L484.698 8.76384 L484.698 5.45367 L494.512 5.45367 Z" fill="#000000" fill-rule="evenodd" fill-opacity="1" /><circle clip-path="url(#clip412)" cx="369.264" cy="468.098" r="14" fill="#0000ff" fill-rule="evenodd" fill-opacity="1" stroke="none"/>
<circle clip-path="url(#clip412)" cx="284.043" cy="612.295" r="14" fill="#0000ff" fill-rule="evenodd" fill-opacity="1" stroke="none"/>
<circle clip-path="url(#clip412)" cx="198.823" cy="612.295" r="14" fill="#0000ff" fill-rule="evenodd" fill-opacity="1" stroke="none"/>
<circle clip-path="url(#clip412)" cx="156.213" cy="684.393" r="14" fill="#0000ff" fill-rule="evenodd" fill-opacity="1" stroke="none"/>
<circle clip-path="url(#clip412)" cx="624.925" cy="468.098" r="14" fill="#0000ff" fill-rule="evenodd" fill-opacity="1" stroke="none"/>
<circle clip-path="url(#clip412)" cx="624.925" cy="612.295" r="14" fill="#0000ff" fill-rule="evenodd" fill-opacity="1" stroke="none"/>
<circle clip-path="url(#clip412)" cx="582.315" cy="540.197" r="14" fill="#0000ff" fill-rule="evenodd" fill-opacity="1" stroke="none"/>
<circle clip-path="url(#clip412)" cx="539.705" cy="612.295" r="14" fill="#0000ff" fill-rule="evenodd" fill-opacity="1" stroke="none"/>
<circle clip-path="url(#clip412)" cx="497.094" cy="684.393" r="14" fill="#0000ff" fill-rule="evenodd" fill-opacity="1" stroke="none"/>
<circle clip-path="url(#clip412)" cx="113.602" cy="612.295" r="14" fill="#0000ff" fill-rule="evenodd" fill-opacity="1" stroke="none"/>
<circle clip-path="url(#clip412)" cx="539.705" cy="468.098" r="14" fill="#0000ff" fill-rule="evenodd" fill-opacity="1" stroke="none"/>
<circle clip-path="url(#clip412)" cx="454.484" cy="468.098" r="14" fill="#0000ff" fill-rule="evenodd" fill-opacity="1" stroke="none"/>
<circle clip-path="url(#clip412)" cx="454.484" cy="612.295" r="14" fill="#0000ff" fill-rule="evenodd" fill-opacity="1" stroke="none"/>
<circle clip-path="url(#clip412)" cx="411.874" cy="540.197" r="14" fill="#0000ff" fill-rule="evenodd" fill-opacity="1" stroke="none"/>
<circle clip-path="url(#clip412)" cx="369.264" cy="612.295" r="14" fill="#0000ff" fill-rule="evenodd" fill-opacity="1" stroke="none"/>
<circle clip-path="url(#clip412)" cx="326.654" cy="684.393" r="14" fill="#0000ff" fill-rule="evenodd" fill-opacity="1" stroke="none"/>
<circle clip-path="url(#clip412)" cx="710.146" cy="612.295" r="14" fill="#0000ff" fill-rule="evenodd" fill-opacity="1" stroke="none"/>
<circle clip-path="url(#clip412)" cx="667.535" cy="684.393" r="14" fill="#0000ff" fill-rule="evenodd" fill-opacity="1" stroke="none"/>
<path clip-path="url(#clip410)" d="M 0 0 M369.767 457.371 L375.496 457.371 L375.496 437.597 L369.264 438.847 L369.264 435.652 L375.462 434.402 L378.969 434.402 L378.969 457.371 L384.698 457.371 L384.698 460.322 L369.767 460.322 L369.767 457.371 Z" fill="#000000" fill-rule="evenodd" fill-opacity="1" /><path clip-path="url(#clip410)" d="M 0 0 M295.745 581.654 L286.891 595.491 L295.745 595.491 L295.745 581.654 M294.824 578.599 L299.234 578.599 L299.234 595.491 L302.932 595.491 L302.932 598.408 L299.234 598.408 L299.234 604.519 L295.745 604.519 L295.745 598.408 L284.043 598.408 L284.043 595.022 L294.824 578.599 Z" fill="#000000" fill-rule="evenodd" fill-opacity="1" /><path clip-path="url(#clip410)" d="M 0 0 M208.076 590.161 Q205.715 590.161 204.326 591.776 Q202.955 593.391 202.955 596.203 Q202.955 598.998 204.326 600.63 Q205.715 602.245 208.076 602.245 Q210.437 602.245 211.809 600.63 Q213.198 598.998 213.198 596.203 Q213.198 593.391 211.809 591.776 Q210.437 590.161 208.076 590.161 M215.038 579.172 L215.038 582.366 Q213.719 581.741 212.364 581.411 Q211.028 581.082 209.708 581.082 Q206.236 581.082 204.396 583.425 Q202.573 585.769 202.312 590.509 Q203.337 588.998 204.882 588.2 Q206.427 587.384 208.285 587.384 Q212.191 587.384 214.448 589.762 Q216.722 592.123 216.722 596.203 Q216.722 600.196 214.361 602.609 Q212 605.022 208.076 605.022 Q203.58 605.022 201.201 601.585 Q198.823 598.13 198.823 591.585 Q198.823 585.439 201.739 581.793 Q204.656 578.13 209.569 578.13 Q210.889 578.13 212.226 578.391 Q213.58 578.651 215.038 579.172 Z" fill="#000000" fill-rule="evenodd" fill-opacity="1" /><path clip-path="url(#clip410)" d="M 0 0 M165.101 664.308 Q162.601 664.308 161.16 665.645 Q159.737 666.982 159.737 669.326 Q159.737 671.669 161.16 673.006 Q162.601 674.343 165.101 674.343 Q167.601 674.343 169.042 673.006 Q170.483 671.652 170.483 669.326 Q170.483 666.982 169.042 665.645 Q167.619 664.308 165.101 664.308 M161.595 662.815 Q159.338 662.26 158.07 660.715 Q156.82 659.169 156.82 656.947 Q156.82 653.84 159.025 652.034 Q161.247 650.229 165.101 650.229 Q168.973 650.229 171.178 652.034 Q173.383 653.84 173.383 656.947 Q173.383 659.169 172.115 660.715 Q170.865 662.26 168.626 662.815 Q171.16 663.406 172.567 665.124 Q173.99 666.843 173.99 669.326 Q173.99 673.093 171.681 675.107 Q169.39 677.121 165.101 677.121 Q160.813 677.121 158.504 675.107 Q156.213 673.093 156.213 669.326 Q156.213 666.843 157.636 665.124 Q159.06 663.406 161.595 662.815 M160.31 657.277 Q160.31 659.291 161.56 660.419 Q162.827 661.548 165.101 661.548 Q167.358 661.548 168.626 660.419 Q169.91 659.291 169.91 657.277 Q169.91 655.263 168.626 654.135 Q167.358 653.006 165.101 653.006 Q162.827 653.006 161.56 654.135 Q160.31 655.263 160.31 657.277 Z" fill="#000000" fill-rule="evenodd" fill-opacity="1" /><path clip-path="url(#clip410)" d="M 0 0 M626.592 459.784 L626.592 456.59 Q627.911 457.215 629.265 457.545 Q630.62 457.874 631.922 457.874 Q635.394 457.874 637.217 455.548 Q639.057 453.204 639.317 448.447 Q638.311 449.94 636.765 450.739 Q635.22 451.538 633.345 451.538 Q629.456 451.538 627.182 449.194 Q624.925 446.833 624.925 442.753 Q624.925 438.76 627.286 436.347 Q629.647 433.934 633.571 433.934 Q638.067 433.934 640.429 437.388 Q642.807 440.826 642.807 447.388 Q642.807 453.517 639.89 457.18 Q636.991 460.826 632.078 460.826 Q630.758 460.826 629.404 460.565 Q628.05 460.305 626.592 459.784 M633.571 448.795 Q635.932 448.795 637.304 447.18 Q638.692 445.565 638.692 442.753 Q638.692 439.958 637.304 438.343 Q635.932 436.711 633.571 436.711 Q631.21 436.711 629.821 438.343 Q628.449 439.958 628.449 442.753 Q628.449 445.565 629.821 447.18 Q631.21 448.795 633.571 448.795 Z" fill="#000000" fill-rule="evenodd" fill-opacity="1" /><path clip-path="url(#clip410)" d="M 0 0 M625.429 601.568 L631.158 601.568 L631.158 581.793 L624.925 583.043 L624.925 579.849 L631.123 578.599 L634.63 578.599 L634.63 601.568 L640.359 601.568 L640.359 604.519 L625.429 604.519 L625.429 601.568 Z" fill="#000000" fill-rule="evenodd" fill-opacity="1" /><path clip-path="url(#clip410)" d="M 0 0 M654.942 580.908 Q652.234 580.908 650.863 583.582 Q649.508 586.238 649.508 591.585 Q649.508 596.915 650.863 599.588 Q652.234 602.245 654.942 602.245 Q657.668 602.245 659.022 599.588 Q660.394 596.915 660.394 591.585 Q660.394 586.238 659.022 583.582 Q657.668 580.908 654.942 580.908 M654.942 578.13 Q659.3 578.13 661.592 581.585 Q663.901 585.023 663.901 591.585 Q663.901 598.13 661.592 601.585 Q659.3 605.022 654.942 605.022 Q650.585 605.022 648.276 601.585 Q645.984 598.13 645.984 591.585 Q645.984 585.023 648.276 581.585 Q650.585 578.13 654.942 578.13 Z" fill="#000000" fill-rule="evenodd" fill-opacity="1" /><path clip-path="url(#clip410)" d="M 0 0 M582.818 529.469 L588.548 529.469 L588.548 509.695 L582.315 510.945 L582.315 507.751 L588.513 506.501 L592.02 506.501 L592.02 529.469 L597.749 529.469 L597.749 532.421 L582.818 532.421 L582.818 529.469 Z" fill="#000000" fill-rule="evenodd" fill-opacity="1" /><path clip-path="url(#clip410)" d="M 0 0 M605.44 529.469 L611.169 529.469 L611.169 509.695 L604.936 510.945 L604.936 507.751 L611.134 506.501 L614.641 506.501 L614.641 529.469 L620.37 529.469 L620.37 532.421 L605.44 532.421 L605.44 529.469 Z" fill="#000000" fill-rule="evenodd" fill-opacity="1" /><path clip-path="url(#clip410)" d="M 0 0 M540.208 601.568 L545.937 601.568 L545.937 581.793 L539.705 583.043 L539.705 579.849 L545.903 578.599 L549.41 578.599 L549.41 601.568 L555.139 601.568 L555.139 604.519 L540.208 604.519 L540.208 601.568 Z" fill="#000000" fill-rule="evenodd" fill-opacity="1" /><path clip-path="url(#clip410)" d="M 0 0 M565.243 601.568 L577.482 601.568 L577.482 604.519 L561.024 604.519 L561.024 601.568 Q563.021 599.502 566.458 596.029 Q569.913 592.54 570.798 591.533 Q572.482 589.641 573.142 588.338 Q573.819 587.019 573.819 585.752 Q573.819 583.686 572.361 582.384 Q570.92 581.082 568.593 581.082 Q566.944 581.082 565.104 581.654 Q563.281 582.227 561.198 583.391 L561.198 579.849 Q563.316 578.998 565.156 578.564 Q566.996 578.13 568.524 578.13 Q572.552 578.13 574.948 580.144 Q577.343 582.158 577.343 585.526 Q577.343 587.123 576.736 588.564 Q576.146 589.988 574.566 591.932 Q574.132 592.436 571.805 594.849 Q569.479 597.245 565.243 601.568 Z" fill="#000000" fill-rule="evenodd" fill-opacity="1" /><path clip-path="url(#clip410)" d="M 0 0 M497.598 673.666 L503.327 673.666 L503.327 653.892 L497.094 655.142 L497.094 651.947 L503.292 650.697 L506.799 650.697 L506.799 673.666 L512.528 673.666 L512.528 676.617 L497.598 676.617 L497.598 673.666 Z" fill="#000000" fill-rule="evenodd" fill-opacity="1" /><path clip-path="url(#clip410)" d="M 0 0 M529.247 653.753 L520.393 667.59 L529.247 667.59 L529.247 653.753 M528.327 650.697 L532.737 650.697 L532.737 667.59 L536.435 667.59 L536.435 670.506 L532.737 670.506 L532.737 676.617 L529.247 676.617 L529.247 670.506 L517.546 670.506 L517.546 667.121 L528.327 650.697 Z" fill="#000000" fill-rule="evenodd" fill-opacity="1" /><path clip-path="url(#clip410)" d="M 0 0 M114.106 601.568 L119.835 601.568 L119.835 581.793 L113.602 583.043 L113.602 579.849 L119.8 578.599 L123.307 578.599 L123.307 601.568 L129.036 601.568 L129.036 604.519 L114.106 604.519 L114.106 601.568 Z" fill="#000000" fill-rule="evenodd" fill-opacity="1" /><path clip-path="url(#clip410)" d="M 0 0 M136.224 603.981 L136.224 600.786 Q137.543 601.411 138.897 601.741 Q140.252 602.071 141.554 602.071 Q145.026 602.071 146.849 599.745 Q148.689 597.401 148.949 592.644 Q147.942 594.137 146.397 594.936 Q144.852 595.734 142.977 595.734 Q139.088 595.734 136.814 593.391 Q134.557 591.029 134.557 586.95 Q134.557 582.957 136.918 580.543 Q139.279 578.13 143.203 578.13 Q147.699 578.13 150.061 581.585 Q152.439 585.023 152.439 591.585 Q152.439 597.713 149.522 601.377 Q146.623 605.022 141.71 605.022 Q140.39 605.022 139.036 604.762 Q137.682 604.502 136.224 603.981 M143.203 592.991 Q145.564 592.991 146.936 591.377 Q148.324 589.762 148.324 586.95 Q148.324 584.154 146.936 582.54 Q145.564 580.908 143.203 580.908 Q140.842 580.908 139.453 582.54 Q138.081 584.154 138.081 586.95 Q138.081 589.762 139.453 591.377 Q140.842 592.991 143.203 592.991 Z" fill="#000000" fill-rule="evenodd" fill-opacity="1" /><path clip-path="url(#clip410)" d="M 0 0 M543.923 457.371 L556.163 457.371 L556.163 460.322 L539.705 460.322 L539.705 457.371 Q541.701 455.305 545.139 451.833 Q548.594 448.343 549.479 447.336 Q551.163 445.444 551.823 444.142 Q552.5 442.822 552.5 441.555 Q552.5 439.489 551.041 438.187 Q549.601 436.885 547.274 436.885 Q545.625 436.885 543.785 437.458 Q541.962 438.031 539.878 439.194 L539.878 435.652 Q541.996 434.802 543.837 434.368 Q545.677 433.934 547.205 433.934 Q551.232 433.934 553.628 435.947 Q556.024 437.961 556.024 441.329 Q556.024 442.927 555.416 444.368 Q554.826 445.791 553.246 447.736 Q552.812 448.239 550.486 450.652 Q548.16 453.048 543.923 457.371 Z" fill="#000000" fill-rule="evenodd" fill-opacity="1" /><path clip-path="url(#clip410)" d="M 0 0 M566.545 457.371 L578.784 457.371 L578.784 460.322 L562.326 460.322 L562.326 457.371 Q564.323 455.305 567.76 451.833 Q571.215 448.343 572.1 447.336 Q573.784 445.444 574.444 444.142 Q575.121 442.822 575.121 441.555 Q575.121 439.489 573.663 438.187 Q572.222 436.885 569.896 436.885 Q568.246 436.885 566.406 437.458 Q564.583 438.031 562.5 439.194 L562.5 435.652 Q564.618 434.802 566.458 434.368 Q568.298 433.934 569.826 433.934 Q573.854 433.934 576.25 435.947 Q578.645 437.961 578.645 441.329 Q578.645 442.927 578.038 444.368 Q577.448 445.791 575.868 447.736 Q575.434 448.239 573.107 450.652 Q570.781 453.048 566.545 457.371 Z" fill="#000000" fill-rule="evenodd" fill-opacity="1" /><path clip-path="url(#clip410)" d="M 0 0 M458.703 457.371 L470.942 457.371 L470.942 460.322 L454.484 460.322 L454.484 457.371 Q456.481 455.305 459.918 451.833 Q463.373 448.343 464.259 447.336 Q465.943 445.444 466.602 444.142 Q467.279 442.822 467.279 441.555 Q467.279 439.489 465.821 438.187 Q464.38 436.885 462.054 436.885 Q460.404 436.885 458.564 437.458 Q456.741 438.031 454.658 439.194 L454.658 435.652 Q456.776 434.802 458.616 434.368 Q460.456 433.934 461.984 433.934 Q466.012 433.934 468.408 435.947 Q470.804 437.961 470.804 441.329 Q470.804 442.927 470.196 444.368 Q469.606 445.791 468.026 447.736 Q467.592 448.239 465.265 450.652 Q462.939 453.048 458.703 457.371 Z" fill="#000000" fill-rule="evenodd" fill-opacity="1" /><path clip-path="url(#clip410)" d="M 0 0 M487.939 437.458 L479.085 451.295 L487.939 451.295 L487.939 437.458 M487.019 434.402 L491.428 434.402 L491.428 451.295 L495.126 451.295 L495.126 454.211 L491.428 454.211 L491.428 460.322 L487.939 460.322 L487.939 454.211 L476.238 454.211 L476.238 450.826 L487.019 434.402 Z" fill="#000000" fill-rule="evenodd" fill-opacity="1" /><path clip-path="url(#clip410)" d="M 0 0 M458.703 601.568 L470.942 601.568 L470.942 604.519 L454.484 604.519 L454.484 601.568 Q456.481 599.502 459.918 596.029 Q463.373 592.54 464.259 591.533 Q465.943 589.641 466.602 588.338 Q467.279 587.019 467.279 585.752 Q467.279 583.686 465.821 582.384 Q464.38 581.082 462.054 581.082 Q460.404 581.082 458.564 581.654 Q456.741 582.227 454.658 583.391 L454.658 579.849 Q456.776 578.998 458.616 578.564 Q460.456 578.13 461.984 578.13 Q466.012 578.13 468.408 580.144 Q470.804 582.158 470.804 585.526 Q470.804 587.123 470.196 588.564 Q469.606 589.988 468.026 591.932 Q467.592 592.436 465.265 594.849 Q462.939 597.245 458.703 601.568 Z" fill="#000000" fill-rule="evenodd" fill-opacity="1" /><path clip-path="url(#clip410)" d="M 0 0 M478.338 578.599 L492.106 578.599 L492.106 581.55 L481.55 581.55 L481.55 587.904 Q482.314 587.644 483.078 587.523 Q483.842 587.384 484.606 587.384 Q488.946 587.384 491.481 589.762 Q494.015 592.141 494.015 596.203 Q494.015 600.387 491.411 602.713 Q488.807 605.022 484.067 605.022 Q482.435 605.022 480.734 604.745 Q479.05 604.467 477.245 603.911 L477.245 600.387 Q478.807 601.238 480.474 601.654 Q482.14 602.071 483.998 602.071 Q487.001 602.071 488.755 600.491 Q490.508 598.911 490.508 596.203 Q490.508 593.495 488.755 591.915 Q487.001 590.335 483.998 590.335 Q482.592 590.335 481.185 590.648 Q479.797 590.96 478.338 591.62 L478.338 578.599 Z" fill="#000000" fill-rule="evenodd" fill-opacity="1" /><path clip-path="url(#clip410)" d="M 0 0 M416.093 529.469 L428.332 529.469 L428.332 532.421 L411.874 532.421 L411.874 529.469 Q413.871 527.403 417.308 523.931 Q420.763 520.442 421.648 519.435 Q423.332 517.542 423.992 516.24 Q424.669 514.921 424.669 513.653 Q424.669 511.587 423.211 510.285 Q421.77 508.983 419.443 508.983 Q417.794 508.983 415.954 509.556 Q414.131 510.129 412.048 511.292 L412.048 507.751 Q414.166 506.9 416.006 506.466 Q417.846 506.032 419.374 506.032 Q423.402 506.032 425.798 508.046 Q428.193 510.06 428.193 513.428 Q428.193 515.025 427.586 516.466 Q426.995 517.889 425.416 519.834 Q424.982 520.337 422.655 522.751 Q420.329 525.146 416.093 529.469 Z" fill="#000000" fill-rule="evenodd" fill-opacity="1" /><path clip-path="url(#clip410)" d="M 0 0 M443.627 518.063 Q441.266 518.063 439.877 519.678 Q438.506 521.292 438.506 524.105 Q438.506 526.9 439.877 528.532 Q441.266 530.146 443.627 530.146 Q445.988 530.146 447.36 528.532 Q448.749 526.9 448.749 524.105 Q448.749 521.292 447.36 519.678 Q445.988 518.063 443.627 518.063 M450.589 507.074 L450.589 510.268 Q449.27 509.643 447.915 509.313 Q446.579 508.983 445.259 508.983 Q441.787 508.983 439.947 511.327 Q438.124 513.671 437.863 518.41 Q438.888 516.9 440.433 516.101 Q441.978 515.285 443.836 515.285 Q447.742 515.285 449.999 517.664 Q452.273 520.025 452.273 524.105 Q452.273 528.098 449.912 530.511 Q447.551 532.924 443.627 532.924 Q439.131 532.924 436.752 529.487 Q434.374 526.032 434.374 519.487 Q434.374 513.341 437.291 509.695 Q440.207 506.032 445.12 506.032 Q446.44 506.032 447.777 506.292 Q449.131 506.553 450.589 507.074 Z" fill="#000000" fill-rule="evenodd" fill-opacity="1" /><path clip-path="url(#clip410)" d="M 0 0 M373.483 601.568 L385.722 601.568 L385.722 604.519 L369.264 604.519 L369.264 601.568 Q371.26 599.502 374.698 596.029 Q378.153 592.54 379.038 591.533 Q380.722 589.641 381.382 588.338 Q382.059 587.019 382.059 585.752 Q382.059 583.686 380.601 582.384 Q379.16 581.082 376.833 581.082 Q375.184 581.082 373.344 581.654 Q371.521 582.227 369.437 583.391 L369.437 579.849 Q371.555 578.998 373.396 578.564 Q375.236 578.13 376.764 578.13 Q380.791 578.13 383.187 580.144 Q385.583 582.158 385.583 585.526 Q385.583 587.123 384.976 588.564 Q384.385 589.988 382.805 591.932 Q382.371 592.436 380.045 594.849 Q377.719 597.245 373.483 601.568 Z" fill="#000000" fill-rule="evenodd" fill-opacity="1" /><path clip-path="url(#clip410)" d="M 0 0 M392.198 578.599 L408.864 578.599 L408.864 580.092 L399.455 604.519 L395.791 604.519 L404.646 581.55 L392.198 581.55 L392.198 578.599 Z" fill="#000000" fill-rule="evenodd" fill-opacity="1" /><path clip-path="url(#clip410)" d="M 0 0 M330.872 673.666 L343.112 673.666 L343.112 676.617 L326.654 676.617 L326.654 673.666 Q328.65 671.6 332.088 668.128 Q335.542 664.638 336.428 663.631 Q338.112 661.739 338.772 660.437 Q339.449 659.117 339.449 657.85 Q339.449 655.784 337.99 654.482 Q336.549 653.18 334.223 653.18 Q332.574 653.18 330.733 653.753 Q328.91 654.326 326.827 655.489 L326.827 651.947 Q328.945 651.097 330.785 650.663 Q332.626 650.229 334.154 650.229 Q338.181 650.229 340.577 652.242 Q342.973 654.256 342.973 657.624 Q342.973 659.222 342.365 660.663 Q341.775 662.086 340.195 664.031 Q339.761 664.534 337.435 666.947 Q335.108 669.343 330.872 673.666 Z" fill="#000000" fill-rule="evenodd" fill-opacity="1" /><path clip-path="url(#clip410)" d="M 0 0 M350.577 676.079 L350.577 672.885 Q351.896 673.51 353.251 673.84 Q354.605 674.169 355.907 674.169 Q359.379 674.169 361.202 671.843 Q363.042 669.499 363.303 664.742 Q362.296 666.235 360.751 667.034 Q359.205 667.833 357.33 667.833 Q353.442 667.833 351.167 665.489 Q348.91 663.128 348.91 659.048 Q348.91 655.055 351.271 652.642 Q353.633 650.229 357.556 650.229 Q362.053 650.229 364.414 653.683 Q366.792 657.121 366.792 663.683 Q366.792 669.812 363.876 673.475 Q360.976 677.121 356.063 677.121 Q354.744 677.121 353.39 676.86 Q352.035 676.6 350.577 676.079 M357.556 665.09 Q359.917 665.09 361.289 663.475 Q362.678 661.86 362.678 659.048 Q362.678 656.253 361.289 654.638 Q359.917 653.006 357.556 653.006 Q355.195 653.006 353.806 654.638 Q352.435 656.253 352.435 659.048 Q352.435 661.86 353.806 663.475 Q355.195 665.09 357.556 665.09 Z" fill="#000000" fill-rule="evenodd" fill-opacity="1" /><path clip-path="url(#clip410)" d="M 0 0 M721.864 590.543 Q724.382 591.082 725.788 592.783 Q727.212 594.484 727.212 596.984 Q727.212 600.821 724.573 602.922 Q721.934 605.022 717.073 605.022 Q715.441 605.022 713.705 604.693 Q711.986 604.38 710.146 603.738 L710.146 600.352 Q711.604 601.203 713.34 601.637 Q715.076 602.071 716.969 602.071 Q720.267 602.071 721.986 600.769 Q723.722 599.467 723.722 596.984 Q723.722 594.693 722.107 593.408 Q720.51 592.106 717.646 592.106 L714.625 592.106 L714.625 589.224 L717.785 589.224 Q720.371 589.224 721.743 588.2 Q723.114 587.158 723.114 585.214 Q723.114 583.217 721.691 582.158 Q720.285 581.082 717.646 581.082 Q716.205 581.082 714.555 581.394 Q712.906 581.707 710.927 582.366 L710.927 579.241 Q712.923 578.686 714.66 578.408 Q716.413 578.13 717.958 578.13 Q721.951 578.13 724.278 579.953 Q726.604 581.759 726.604 584.849 Q726.604 587.002 725.371 588.495 Q724.139 589.97 721.864 590.543 Z" fill="#000000" fill-rule="evenodd" fill-opacity="1" /><path clip-path="url(#clip410)" d="M 0 0 M744.486 590.543 Q747.003 591.082 748.409 592.783 Q749.833 594.484 749.833 596.984 Q749.833 600.821 747.194 602.922 Q744.555 605.022 739.694 605.022 Q738.062 605.022 736.326 604.693 Q734.607 604.38 732.767 603.738 L732.767 600.352 Q734.225 601.203 735.962 601.637 Q737.698 602.071 739.59 602.071 Q742.889 602.071 744.607 600.769 Q746.343 599.467 746.343 596.984 Q746.343 594.693 744.729 593.408 Q743.132 592.106 740.267 592.106 L737.246 592.106 L737.246 589.224 L740.406 589.224 Q742.993 589.224 744.364 588.2 Q745.736 587.158 745.736 585.214 Q745.736 583.217 744.312 582.158 Q742.906 581.082 740.267 581.082 Q738.826 581.082 737.177 581.394 Q735.527 581.707 733.548 582.366 L733.548 579.241 Q735.545 578.686 737.281 578.408 Q739.034 578.13 740.58 578.13 Q744.573 578.13 746.899 579.953 Q749.225 581.759 749.225 584.849 Q749.225 587.002 747.993 588.495 Q746.76 589.97 744.486 590.543 Z" fill="#000000" fill-rule="evenodd" fill-opacity="1" /><path clip-path="url(#clip410)" d="M 0 0 M679.254 662.642 Q681.771 663.18 683.178 664.881 Q684.601 666.583 684.601 669.083 Q684.601 672.919 681.962 675.02 Q679.324 677.121 674.462 677.121 Q672.831 677.121 671.094 676.791 Q669.376 676.478 667.535 675.836 L667.535 672.451 Q668.994 673.301 670.73 673.735 Q672.466 674.169 674.358 674.169 Q677.657 674.169 679.376 672.867 Q681.112 671.565 681.112 669.083 Q681.112 666.791 679.497 665.506 Q677.9 664.204 675.035 664.204 L672.015 664.204 L672.015 661.322 L675.174 661.322 Q677.761 661.322 679.133 660.298 Q680.504 659.256 680.504 657.312 Q680.504 655.315 679.081 654.256 Q677.674 653.18 675.035 653.18 Q673.594 653.18 671.945 653.492 Q670.296 653.805 668.317 654.465 L668.317 651.34 Q670.313 650.784 672.049 650.506 Q673.803 650.229 675.348 650.229 Q679.341 650.229 681.667 652.051 Q683.994 653.857 683.994 656.947 Q683.994 659.1 682.761 660.593 Q681.528 662.069 679.254 662.642 Z" fill="#000000" fill-rule="evenodd" fill-opacity="1" /><path clip-path="url(#clip410)" d="M 0 0 M691.285 650.697 L705.053 650.697 L705.053 653.649 L694.497 653.649 L694.497 660.003 Q695.261 659.742 696.025 659.621 Q696.789 659.482 697.553 659.482 Q701.893 659.482 704.428 661.86 Q706.962 664.239 706.962 668.301 Q706.962 672.485 704.358 674.812 Q701.754 677.121 697.014 677.121 Q695.383 677.121 693.681 676.843 Q691.997 676.565 690.192 676.01 L690.192 672.485 Q691.754 673.336 693.421 673.753 Q695.087 674.169 696.945 674.169 Q699.948 674.169 701.702 672.59 Q703.455 671.01 703.455 668.301 Q703.455 665.593 701.702 664.013 Q699.948 662.433 696.945 662.433 Q695.539 662.433 694.133 662.746 Q692.744 663.058 691.285 663.718 L691.285 650.697 Z" fill="#000000" fill-rule="evenodd" fill-opacity="1" /><circle clip-path="url(#clip412)" cx="326.654" cy="396" r="14" fill="#0000ff" fill-rule="evenodd" fill-opacity="1" stroke="none"/>
<circle clip-path="url(#clip412)" cx="284.043" cy="468.098" r="14" fill="#0000ff" fill-rule="evenodd" fill-opacity="1" stroke="none"/>
<circle clip-path="url(#clip412)" cx="241.433" cy="540.197" r="14" fill="#0000ff" fill-rule="evenodd" fill-opacity="1" stroke="none"/>
<circle clip-path="url(#clip412)" cx="113.602" cy="179.705" r="14" fill="#0000ff" fill-rule="evenodd" fill-opacity="1" stroke="none"/>
<circle clip-path="url(#clip412)" cx="113.602" cy="323.902" r="14" fill="#0000ff" fill-rule="evenodd" fill-opacity="1" stroke="none"/>
<circle clip-path="url(#clip412)" cx="369.264" cy="323.902" r="14" fill="#0000ff" fill-rule="evenodd" fill-opacity="1" stroke="none"/>
<circle clip-path="url(#clip412)" cx="284.043" cy="323.902" r="14" fill="#0000ff" fill-rule="evenodd" fill-opacity="1" stroke="none"/>
<circle clip-path="url(#clip412)" cx="198.823" cy="323.902" r="14" fill="#0000ff" fill-rule="evenodd" fill-opacity="1" stroke="none"/>
<circle clip-path="url(#clip412)" cx="198.823" cy="468.098" r="14" fill="#0000ff" fill-rule="evenodd" fill-opacity="1" stroke="none"/>
<circle clip-path="url(#clip412)" cx="156.213" cy="396" r="14" fill="#0000ff" fill-rule="evenodd" fill-opacity="1" stroke="none"/>
<circle clip-path="url(#clip412)" cx="113.602" cy="468.098" r="14" fill="#0000ff" fill-rule="evenodd" fill-opacity="1" stroke="none"/>
<path clip-path="url(#clip410)" d="M 0 0 M330.872 385.273 L343.112 385.273 L343.112 388.224 L326.654 388.224 L326.654 385.273 Q328.65 383.207 332.088 379.734 Q335.542 376.245 336.428 375.238 Q338.112 373.346 338.772 372.044 Q339.449 370.724 339.449 369.457 Q339.449 367.391 337.99 366.089 Q336.549 364.787 334.223 364.787 Q332.574 364.787 330.733 365.36 Q328.91 365.932 326.827 367.096 L326.827 363.554 Q328.945 362.703 330.785 362.269 Q332.626 361.835 334.154 361.835 Q338.181 361.835 340.577 363.849 Q342.973 365.863 342.973 369.231 Q342.973 370.828 342.365 372.269 Q341.775 373.693 340.195 375.637 Q339.761 376.141 337.435 378.554 Q335.108 380.95 330.872 385.273 Z" fill="#000000" fill-rule="evenodd" fill-opacity="1" /><path clip-path="url(#clip410)" d="M 0 0 M295.762 446.347 Q298.279 446.885 299.686 448.586 Q301.109 450.288 301.109 452.788 Q301.109 456.624 298.47 458.725 Q295.831 460.826 290.97 460.826 Q289.338 460.826 287.602 460.496 Q285.884 460.183 284.043 459.541 L284.043 456.156 Q285.502 457.006 287.238 457.44 Q288.974 457.874 290.866 457.874 Q294.165 457.874 295.884 456.572 Q297.62 455.27 297.62 452.788 Q297.62 450.496 296.005 449.211 Q294.408 447.909 291.543 447.909 L288.522 447.909 L288.522 445.027 L291.682 445.027 Q294.269 445.027 295.64 444.003 Q297.012 442.961 297.012 441.017 Q297.012 439.02 295.588 437.961 Q294.182 436.885 291.543 436.885 Q290.102 436.885 288.453 437.197 Q286.804 437.51 284.825 438.17 L284.825 435.045 Q286.821 434.489 288.557 434.211 Q290.311 433.934 291.856 433.934 Q295.849 433.934 298.175 435.756 Q300.502 437.562 300.502 440.652 Q300.502 442.805 299.269 444.298 Q298.036 445.774 295.762 446.347 Z" fill="#000000" fill-rule="evenodd" fill-opacity="1" /><path clip-path="url(#clip410)" d="M 0 0 M242.527 506.501 L256.294 506.501 L256.294 509.452 L245.739 509.452 L245.739 515.806 Q246.502 515.546 247.266 515.424 Q248.03 515.285 248.794 515.285 Q253.134 515.285 255.669 517.664 Q258.204 520.042 258.204 524.105 Q258.204 528.289 255.6 530.615 Q252.996 532.924 248.256 532.924 Q246.624 532.924 244.923 532.646 Q243.239 532.369 241.433 531.813 L241.433 528.289 Q242.996 529.139 244.662 529.556 Q246.329 529.973 248.187 529.973 Q251.19 529.973 252.943 528.393 Q254.697 526.813 254.697 524.105 Q254.697 521.396 252.943 519.817 Q251.19 518.237 248.187 518.237 Q246.78 518.237 245.374 518.549 Q243.985 518.862 242.527 519.521 L242.527 506.501 Z" fill="#000000" fill-rule="evenodd" fill-opacity="1" /><path clip-path="url(#clip410)" d="M 0 0 M115.269 171.391 L115.269 168.196 Q116.588 168.821 117.943 169.151 Q119.297 169.481 120.599 169.481 Q124.071 169.481 125.894 167.155 Q127.734 164.811 127.995 160.054 Q126.988 161.547 125.443 162.346 Q123.897 163.144 122.022 163.144 Q118.134 163.144 115.859 160.801 Q113.602 158.44 113.602 154.36 Q113.602 150.367 115.963 147.953 Q118.325 145.54 122.248 145.54 Q126.745 145.54 129.106 148.995 Q131.484 152.433 131.484 158.995 Q131.484 165.124 128.568 168.787 Q125.668 172.433 120.755 172.433 Q119.436 172.433 118.082 172.172 Q116.727 171.912 115.269 171.391 M122.248 160.401 Q124.609 160.401 125.981 158.787 Q127.37 157.172 127.37 154.36 Q127.37 151.565 125.981 149.95 Q124.609 148.318 122.248 148.318 Q119.887 148.318 118.498 149.95 Q117.127 151.565 117.127 154.36 Q117.127 157.172 118.498 158.787 Q119.887 160.401 122.248 160.401 Z" fill="#000000" fill-rule="evenodd" fill-opacity="1" /><path clip-path="url(#clip410)" d="M 0 0 M114.106 313.174 L119.835 313.174 L119.835 293.4 L113.602 294.65 L113.602 291.456 L119.8 290.206 L123.307 290.206 L123.307 313.174 L129.036 313.174 L129.036 316.126 L114.106 316.126 L114.106 313.174 Z" fill="#000000" fill-rule="evenodd" fill-opacity="1" /><path clip-path="url(#clip410)" d="M 0 0 M143.62 292.515 Q140.911 292.515 139.54 295.188 Q138.186 297.845 138.186 303.192 Q138.186 308.522 139.54 311.195 Q140.911 313.851 143.62 313.851 Q146.345 313.851 147.699 311.195 Q149.071 308.522 149.071 303.192 Q149.071 297.845 147.699 295.188 Q146.345 292.515 143.62 292.515 M143.62 289.737 Q147.977 289.737 150.269 293.192 Q152.578 296.629 152.578 303.192 Q152.578 309.737 150.269 313.192 Q147.977 316.629 143.62 316.629 Q139.262 316.629 136.953 313.192 Q134.661 309.737 134.661 303.192 Q134.661 296.629 136.953 293.192 Q139.262 289.737 143.62 289.737 Z" fill="#000000" fill-rule="evenodd" fill-opacity="1" /><path clip-path="url(#clip410)" d="M 0 0 M369.767 313.174 L375.496 313.174 L375.496 293.4 L369.264 294.65 L369.264 291.456 L375.462 290.206 L378.969 290.206 L378.969 313.174 L384.698 313.174 L384.698 316.126 L369.767 316.126 L369.767 313.174 Z" fill="#000000" fill-rule="evenodd" fill-opacity="1" /><path clip-path="url(#clip410)" d="M 0 0 M399.281 303.817 Q396.781 303.817 395.34 305.154 Q393.916 306.49 393.916 308.834 Q393.916 311.178 395.34 312.515 Q396.781 313.851 399.281 313.851 Q401.781 313.851 403.222 312.515 Q404.663 311.16 404.663 308.834 Q404.663 306.49 403.222 305.154 Q401.798 303.817 399.281 303.817 M395.774 302.324 Q393.517 301.768 392.25 300.223 Q391 298.678 391 296.456 Q391 293.348 393.205 291.542 Q395.427 289.737 399.281 289.737 Q403.152 289.737 405.357 291.542 Q407.562 293.348 407.562 296.456 Q407.562 298.678 406.295 300.223 Q405.045 301.768 402.805 302.324 Q405.34 302.914 406.746 304.633 Q408.17 306.351 408.17 308.834 Q408.17 312.601 405.861 314.615 Q403.569 316.629 399.281 316.629 Q394.993 316.629 392.684 314.615 Q390.392 312.601 390.392 308.834 Q390.392 306.351 391.816 304.633 Q393.239 302.914 395.774 302.324 M394.489 296.786 Q394.489 298.799 395.739 299.928 Q397.007 301.056 399.281 301.056 Q401.538 301.056 402.805 299.928 Q404.09 298.799 404.09 296.786 Q404.09 294.772 402.805 293.643 Q401.538 292.515 399.281 292.515 Q397.007 292.515 395.739 293.643 Q394.489 294.772 394.489 296.786 Z" fill="#000000" fill-rule="evenodd" fill-opacity="1" /><path clip-path="url(#clip410)" d="M 0 0 M75.2109 529.469 L87.4504 529.469 L87.4504 532.421 L70.9921 532.421 L70.9921 529.469 Q72.9886 527.403 76.4261 523.931 Q79.881 520.442 80.7664 519.435 Q82.4504 517.542 83.1101 516.24 Q83.7872 514.921 83.7872 513.653 Q83.7872 511.587 82.3289 510.285 Q80.8879 508.983 78.5615 508.983 Q76.9122 508.983 75.072 509.556 Q73.2491 510.129 71.1657 511.292 L71.1657 507.751 Q73.2838 506.9 75.124 506.466 Q76.9643 506.032 78.4921 506.032 Q82.5198 506.032 84.9157 508.046 Q87.3115 510.06 87.3115 513.428 Q87.3115 515.025 86.7038 516.466 Q86.1136 517.889 84.5337 519.834 Q84.0997 520.337 81.7733 522.751 Q79.4469 525.146 75.2109 529.469 Z" fill="#000000" fill-rule="evenodd" fill-opacity="1" /><path clip-path="url(#clip410)" d="M 0 0 M102.311 508.81 Q99.6031 508.81 98.2316 511.483 Q96.8774 514.139 96.8774 519.487 Q96.8774 524.817 98.2316 527.49 Q99.6031 530.146 102.311 530.146 Q105.037 530.146 106.391 527.49 Q107.763 524.817 107.763 519.487 Q107.763 514.139 106.391 511.483 Q105.037 508.81 102.311 508.81 M102.311 506.032 Q106.669 506.032 108.961 509.487 Q111.27 512.924 111.27 519.487 Q111.27 526.032 108.961 529.487 Q106.669 532.924 102.311 532.924 Q97.9538 532.924 95.6448 529.487 Q93.3531 526.032 93.3531 519.487 Q93.3531 512.924 95.6448 509.487 Q97.9538 506.032 102.311 506.032 Z" fill="#000000" fill-rule="evenodd" fill-opacity="1" /><path clip-path="url(#clip410)" d="M 0 0 M295.762 302.15 Q298.279 302.688 299.686 304.39 Q301.109 306.091 301.109 308.591 Q301.109 312.428 298.47 314.528 Q295.831 316.629 290.97 316.629 Q289.338 316.629 287.602 316.299 Q285.884 315.987 284.043 315.344 L284.043 311.959 Q285.502 312.81 287.238 313.244 Q288.974 313.678 290.866 313.678 Q294.165 313.678 295.884 312.376 Q297.62 311.074 297.62 308.591 Q297.62 306.299 296.005 305.015 Q294.408 303.713 291.543 303.713 L288.522 303.713 L288.522 300.831 L291.682 300.831 Q294.269 300.831 295.64 299.806 Q297.012 298.765 297.012 296.82 Q297.012 294.824 295.588 293.765 Q294.182 292.688 291.543 292.688 Q290.102 292.688 288.453 293.001 Q286.804 293.313 284.825 293.973 L284.825 290.848 Q286.821 290.292 288.557 290.015 Q290.311 289.737 291.856 289.737 Q295.849 289.737 298.175 291.56 Q300.502 293.365 300.502 296.456 Q300.502 298.608 299.269 300.101 Q298.036 301.577 295.762 302.15 Z" fill="#000000" fill-rule="evenodd" fill-opacity="1" /><path clip-path="url(#clip410)" d="M 0 0 M308.366 313.174 L314.095 313.174 L314.095 293.4 L307.863 294.65 L307.863 291.456 L314.061 290.206 L317.567 290.206 L317.567 313.174 L323.297 313.174 L323.297 316.126 L308.366 316.126 L308.366 313.174 Z" fill="#000000" fill-rule="evenodd" fill-opacity="1" /><path clip-path="url(#clip410)" d="M 0 0 M210.542 302.15 Q213.059 302.688 214.465 304.39 Q215.889 306.091 215.889 308.591 Q215.889 312.428 213.25 314.528 Q210.611 316.629 205.75 316.629 Q204.118 316.629 202.382 316.299 Q200.663 315.987 198.823 315.344 L198.823 311.959 Q200.281 312.81 202.017 313.244 Q203.753 313.678 205.646 313.678 Q208.944 313.678 210.663 312.376 Q212.399 311.074 212.399 308.591 Q212.399 306.299 210.785 305.015 Q209.187 303.713 206.323 303.713 L203.302 303.713 L203.302 300.831 L206.462 300.831 Q209.048 300.831 210.42 299.806 Q211.792 298.765 211.792 296.82 Q211.792 294.824 210.368 293.765 Q208.962 292.688 206.323 292.688 Q204.882 292.688 203.233 293.001 Q201.583 293.313 199.604 293.973 L199.604 290.848 Q201.601 290.292 203.337 290.015 Q205.09 289.737 206.635 289.737 Q210.628 289.737 212.955 291.56 Q215.281 293.365 215.281 296.456 Q215.281 298.608 214.048 300.101 Q212.816 301.577 210.542 302.15 Z" fill="#000000" fill-rule="evenodd" fill-opacity="1" /><path clip-path="url(#clip410)" d="M 0 0 M233.163 302.15 Q235.68 302.688 237.087 304.39 Q238.51 306.091 238.51 308.591 Q238.51 312.428 235.871 314.528 Q233.232 316.629 228.371 316.629 Q226.739 316.629 225.003 316.299 Q223.285 315.987 221.444 315.344 L221.444 311.959 Q222.903 312.81 224.639 313.244 Q226.375 313.678 228.267 313.678 Q231.566 313.678 233.284 312.376 Q235.021 311.074 235.021 308.591 Q235.021 306.299 233.406 305.015 Q231.809 303.713 228.944 303.713 L225.923 303.713 L225.923 300.831 L229.083 300.831 Q231.67 300.831 233.041 299.806 Q234.413 298.765 234.413 296.82 Q234.413 294.824 232.989 293.765 Q231.583 292.688 228.944 292.688 Q227.503 292.688 225.854 293.001 Q224.205 293.313 222.225 293.973 L222.225 290.848 Q224.222 290.292 225.958 290.015 Q227.712 289.737 229.257 289.737 Q233.25 289.737 235.576 291.56 Q237.902 293.365 237.902 296.456 Q237.902 298.608 236.67 300.101 Q235.437 301.577 233.163 302.15 Z" fill="#000000" fill-rule="evenodd" fill-opacity="1" /><path clip-path="url(#clip410)" d="M 0 0 M210.542 446.347 Q213.059 446.885 214.465 448.586 Q215.889 450.288 215.889 452.788 Q215.889 456.624 213.25 458.725 Q210.611 460.826 205.75 460.826 Q204.118 460.826 202.382 460.496 Q200.663 460.183 198.823 459.541 L198.823 456.156 Q200.281 457.006 202.017 457.44 Q203.753 457.874 205.646 457.874 Q208.944 457.874 210.663 456.572 Q212.399 455.27 212.399 452.788 Q212.399 450.496 210.785 449.211 Q209.187 447.909 206.323 447.909 L203.302 447.909 L203.302 445.027 L206.462 445.027 Q209.048 445.027 210.42 444.003 Q211.792 442.961 211.792 441.017 Q211.792 439.02 210.368 437.961 Q208.962 436.885 206.323 436.885 Q204.882 436.885 203.233 437.197 Q201.583 437.51 199.604 438.17 L199.604 435.045 Q201.601 434.489 203.337 434.211 Q205.09 433.934 206.635 433.934 Q210.628 433.934 212.955 435.756 Q215.281 437.562 215.281 440.652 Q215.281 442.805 214.048 444.298 Q212.816 445.774 210.542 446.347 Z" fill="#000000" fill-rule="evenodd" fill-opacity="1" /><path clip-path="url(#clip410)" d="M 0 0 M232.173 437.458 L223.319 451.295 L232.173 451.295 L232.173 437.458 M231.253 434.402 L235.663 434.402 L235.663 451.295 L239.361 451.295 L239.361 454.211 L235.663 454.211 L235.663 460.322 L232.173 460.322 L232.173 454.211 L220.472 454.211 L220.472 450.826 L231.253 434.402 Z" fill="#000000" fill-rule="evenodd" fill-opacity="1" /><path clip-path="url(#clip410)" d="M 0 0 M167.931 374.248 Q170.449 374.787 171.855 376.488 Q173.278 378.189 173.278 380.689 Q173.278 384.526 170.64 386.627 Q168.001 388.727 163.14 388.727 Q161.508 388.727 159.772 388.398 Q158.053 388.085 156.213 387.443 L156.213 384.057 Q157.671 384.908 159.407 385.342 Q161.143 385.776 163.035 385.776 Q166.334 385.776 168.053 384.474 Q169.789 383.172 169.789 380.689 Q169.789 378.398 168.174 377.113 Q166.577 375.811 163.713 375.811 L160.692 375.811 L160.692 372.929 L163.851 372.929 Q166.438 372.929 167.81 371.905 Q169.181 370.863 169.181 368.919 Q169.181 366.922 167.758 365.863 Q166.351 364.787 163.713 364.787 Q162.272 364.787 160.622 365.099 Q158.973 365.412 156.994 366.071 L156.994 362.946 Q158.99 362.391 160.726 362.113 Q162.48 361.835 164.025 361.835 Q168.018 361.835 170.344 363.658 Q172.671 365.464 172.671 368.554 Q172.671 370.707 171.438 372.2 Q170.206 373.675 167.931 374.248 Z" fill="#000000" fill-rule="evenodd" fill-opacity="1" /><path clip-path="url(#clip410)" d="M 0 0 M179.962 362.304 L193.73 362.304 L193.73 365.255 L183.174 365.255 L183.174 371.61 Q183.938 371.349 184.702 371.228 Q185.466 371.089 186.23 371.089 Q190.57 371.089 193.105 373.467 Q195.639 375.846 195.639 379.908 Q195.639 384.092 193.035 386.418 Q190.431 388.727 185.692 388.727 Q184.06 388.727 182.358 388.45 Q180.674 388.172 178.869 387.616 L178.869 384.092 Q180.431 384.943 182.098 385.359 Q183.765 385.776 185.622 385.776 Q188.626 385.776 190.379 384.196 Q192.133 382.616 192.133 379.908 Q192.133 377.2 190.379 375.62 Q188.626 374.04 185.622 374.04 Q184.216 374.04 182.81 374.353 Q181.421 374.665 179.962 375.325 L179.962 362.304 Z" fill="#000000" fill-rule="evenodd" fill-opacity="1" /><path clip-path="url(#clip410)" d="M 0 0 M125.321 446.347 Q127.838 446.885 129.245 448.586 Q130.668 450.288 130.668 452.788 Q130.668 456.624 128.029 458.725 Q125.39 460.826 120.529 460.826 Q118.897 460.826 117.161 460.496 Q115.443 460.183 113.602 459.541 L113.602 456.156 Q115.061 457.006 116.797 457.44 Q118.533 457.874 120.425 457.874 Q123.724 457.874 125.443 456.572 Q127.179 455.27 127.179 452.788 Q127.179 450.496 125.564 449.211 Q123.967 447.909 121.102 447.909 L118.082 447.909 L118.082 445.027 L121.241 445.027 Q123.828 445.027 125.2 444.003 Q126.571 442.961 126.571 441.017 Q126.571 439.02 125.147 437.961 Q123.741 436.885 121.102 436.885 Q119.661 436.885 118.012 437.197 Q116.363 437.51 114.384 438.17 L114.384 435.045 Q116.38 434.489 118.116 434.211 Q119.87 433.934 121.415 433.934 Q125.408 433.934 127.734 435.756 Q130.061 437.562 130.061 440.652 Q130.061 442.805 128.828 444.298 Q127.595 445.774 125.321 446.347 Z" fill="#000000" fill-rule="evenodd" fill-opacity="1" /><path clip-path="url(#clip410)" d="M 0 0 M145.251 445.965 Q142.89 445.965 141.502 447.579 Q140.13 449.194 140.13 452.006 Q140.13 454.802 141.502 456.433 Q142.89 458.048 145.251 458.048 Q147.613 458.048 148.984 456.433 Q150.373 454.802 150.373 452.006 Q150.373 449.194 148.984 447.579 Q147.613 445.965 145.251 445.965 M152.213 434.975 L152.213 438.17 Q150.894 437.545 149.54 437.215 Q148.203 436.885 146.883 436.885 Q143.411 436.885 141.571 439.229 Q139.748 441.572 139.488 446.312 Q140.512 444.802 142.057 444.003 Q143.602 443.187 145.46 443.187 Q149.366 443.187 151.623 445.565 Q153.897 447.927 153.897 452.006 Q153.897 455.999 151.536 458.413 Q149.175 460.826 145.251 460.826 Q140.755 460.826 138.377 457.388 Q135.998 453.933 135.998 447.388 Q135.998 441.243 138.915 437.597 Q141.831 433.934 146.745 433.934 Q148.064 433.934 149.401 434.194 Q150.755 434.454 152.213 434.975 Z" fill="#000000" fill-rule="evenodd" fill-opacity="1" /><circle clip-path="url(#clip412)" cx="710.146" cy="323.902" r="14" fill="#0000ff" fill-rule="evenodd" fill-opacity="1" stroke="none"/>
<circle clip-path="url(#clip412)" cx="710.146" cy="468.098" r="14" fill="#0000ff" fill-rule="evenodd" fill-opacity="1" stroke="none"/>
<circle clip-path="url(#clip412)" cx="667.535" cy="396" r="14" fill="#0000ff" fill-rule="evenodd" fill-opacity="1" stroke="none"/>
<circle clip-path="url(#clip412)" cx="624.925" cy="323.902" r="14" fill="#0000ff" fill-rule="evenodd" fill-opacity="1" stroke="none"/>
<circle clip-path="url(#clip412)" cx="752.756" cy="540.197" r="14" fill="#0000ff" fill-rule="evenodd" fill-opacity="1" stroke="none"/>
<path clip-path="url(#clip410)" d="M 0 0 M719.399 301.768 Q717.038 301.768 715.649 303.383 Q714.278 304.997 714.278 307.81 Q714.278 310.605 715.649 312.237 Q717.038 313.851 719.399 313.851 Q721.76 313.851 723.132 312.237 Q724.521 310.605 724.521 307.81 Q724.521 304.997 723.132 303.383 Q721.76 301.768 719.399 301.768 M726.361 290.779 L726.361 293.973 Q725.041 293.348 723.687 293.018 Q722.35 292.688 721.031 292.688 Q717.559 292.688 715.719 295.032 Q713.896 297.376 713.635 302.115 Q714.66 300.605 716.205 299.806 Q717.75 298.99 719.607 298.99 Q723.514 298.99 725.771 301.369 Q728.045 303.73 728.045 307.81 Q728.045 311.803 725.684 314.216 Q723.323 316.629 719.399 316.629 Q714.903 316.629 712.524 313.192 Q710.146 309.737 710.146 303.192 Q710.146 297.046 713.062 293.4 Q715.979 289.737 720.892 289.737 Q722.212 289.737 723.548 289.997 Q724.903 290.258 726.361 290.779 Z" fill="#000000" fill-rule="evenodd" fill-opacity="1" /><path clip-path="url(#clip410)" d="M 0 0 M710.146 434.402 L726.812 434.402 L726.812 435.895 L717.403 460.322 L713.739 460.322 L722.594 437.354 L710.146 437.354 L710.146 434.402 Z" fill="#000000" fill-rule="evenodd" fill-opacity="1" /><path clip-path="url(#clip410)" d="M 0 0 M676.424 375.915 Q673.924 375.915 672.483 377.252 Q671.06 378.589 671.06 380.932 Q671.06 383.276 672.483 384.613 Q673.924 385.95 676.424 385.95 Q678.924 385.95 680.365 384.613 Q681.806 383.259 681.806 380.932 Q681.806 378.589 680.365 377.252 Q678.942 375.915 676.424 375.915 M672.917 374.422 Q670.66 373.866 669.393 372.321 Q668.143 370.776 668.143 368.554 Q668.143 365.446 670.348 363.641 Q672.57 361.835 676.424 361.835 Q680.296 361.835 682.501 363.641 Q684.705 365.446 684.705 368.554 Q684.705 370.776 683.438 372.321 Q682.188 373.866 679.949 374.422 Q682.483 375.012 683.89 376.731 Q685.313 378.45 685.313 380.932 Q685.313 384.7 683.004 386.714 Q680.712 388.727 676.424 388.727 Q672.136 388.727 669.827 386.714 Q667.535 384.7 667.535 380.932 Q667.535 378.45 668.959 376.731 Q670.383 375.012 672.917 374.422 M671.633 368.884 Q671.633 370.898 672.883 372.026 Q674.15 373.155 676.424 373.155 Q678.681 373.155 679.949 372.026 Q681.233 370.898 681.233 368.884 Q681.233 366.87 679.949 365.741 Q678.681 364.613 676.424 364.613 Q674.15 364.613 672.883 365.741 Q671.633 366.87 671.633 368.884 Z" fill="#000000" fill-rule="evenodd" fill-opacity="1" /><path clip-path="url(#clip410)" d="M 0 0 M625.429 313.174 L631.158 313.174 L631.158 293.4 L624.925 294.65 L624.925 291.456 L631.123 290.206 L634.63 290.206 L634.63 313.174 L640.359 313.174 L640.359 316.126 L625.429 316.126 L625.429 313.174 Z" fill="#000000" fill-rule="evenodd" fill-opacity="1" /><path clip-path="url(#clip410)" d="M 0 0 M647.547 315.587 L647.547 312.393 Q648.866 313.018 650.22 313.348 Q651.574 313.678 652.876 313.678 Q656.349 313.678 658.172 311.351 Q660.012 309.008 660.272 304.251 Q659.265 305.744 657.72 306.542 Q656.175 307.341 654.3 307.341 Q650.411 307.341 648.137 304.997 Q645.88 302.636 645.88 298.556 Q645.88 294.563 648.241 292.15 Q650.602 289.737 654.526 289.737 Q659.022 289.737 661.383 293.192 Q663.762 296.629 663.762 303.192 Q663.762 309.32 660.845 312.983 Q657.946 316.629 653.033 316.629 Q651.713 316.629 650.359 316.369 Q649.005 316.108 647.547 315.587 M654.526 304.598 Q656.887 304.598 658.258 302.983 Q659.647 301.369 659.647 298.556 Q659.647 295.761 658.258 294.147 Q656.887 292.515 654.526 292.515 Q652.165 292.515 650.776 294.147 Q649.404 295.761 649.404 298.556 Q649.404 301.369 650.776 302.983 Q652.165 304.598 654.526 304.598 Z" fill="#000000" fill-rule="evenodd" fill-opacity="1" /><path clip-path="url(#clip410)" d="M 0 0 M764.475 518.445 Q766.992 518.983 768.398 520.685 Q769.822 522.386 769.822 524.886 Q769.822 528.723 767.183 530.823 Q764.544 532.924 759.683 532.924 Q758.051 532.924 756.315 532.594 Q754.596 532.282 752.756 531.639 L752.756 528.254 Q754.214 529.105 755.95 529.539 Q757.686 529.973 759.579 529.973 Q762.877 529.973 764.596 528.671 Q766.332 527.369 766.332 524.886 Q766.332 522.594 764.718 521.31 Q763.12 520.008 760.256 520.008 L757.235 520.008 L757.235 517.126 L760.395 517.126 Q762.982 517.126 764.353 516.101 Q765.725 515.06 765.725 513.115 Q765.725 511.119 764.301 510.06 Q762.895 508.983 760.256 508.983 Q758.815 508.983 757.166 509.296 Q755.516 509.608 753.537 510.268 L753.537 507.143 Q755.534 506.587 757.27 506.31 Q759.023 506.032 760.568 506.032 Q764.561 506.032 766.888 507.855 Q769.214 509.66 769.214 512.751 Q769.214 514.903 767.982 516.396 Q766.749 517.872 764.475 518.445 Z" fill="#000000" fill-rule="evenodd" fill-opacity="1" /><path clip-path="url(#clip410)" d="M 0 0 M779.492 529.469 L791.731 529.469 L791.731 532.421 L775.273 532.421 L775.273 529.469 Q777.27 527.403 780.707 523.931 Q784.162 520.442 785.047 519.435 Q786.731 517.542 787.391 516.24 Q788.068 514.921 788.068 513.653 Q788.068 511.587 786.61 510.285 Q785.169 508.983 782.843 508.983 Q781.193 508.983 779.353 509.556 Q777.53 510.129 775.447 511.292 L775.447 507.751 Q777.565 506.9 779.405 506.466 Q781.245 506.032 782.773 506.032 Q786.801 506.032 789.197 508.046 Q791.593 510.06 791.593 513.428 Q791.593 515.025 790.985 516.466 Q790.395 517.889 788.815 519.834 Q788.381 520.337 786.054 522.751 Q783.728 525.146 779.492 529.469 Z" fill="#000000" fill-rule="evenodd" fill-opacity="1" /><circle clip-path="url(#clip412)" cx="752.756" cy="251.803" r="14" fill="#0000ff" fill-rule="evenodd" fill-opacity="1" stroke="none"/>
<circle clip-path="url(#clip412)" cx="198.823" cy="179.705" r="14" fill="#0000ff" fill-rule="evenodd" fill-opacity="1" stroke="none"/>
<circle clip-path="url(#clip412)" cx="156.213" cy="107.607" r="14" fill="#0000ff" fill-rule="evenodd" fill-opacity="1" stroke="none"/>
<circle clip-path="url(#clip412)" cx="539.705" cy="179.705" r="14" fill="#0000ff" fill-rule="evenodd" fill-opacity="1" stroke="none"/>
<circle clip-path="url(#clip412)" cx="497.094" cy="107.607" r="14" fill="#0000ff" fill-rule="evenodd" fill-opacity="1" stroke="none"/>
<circle clip-path="url(#clip412)" cx="454.484" cy="179.705" r="14" fill="#0000ff" fill-rule="evenodd" fill-opacity="1" stroke="none"/>
<circle clip-path="url(#clip412)" cx="454.484" cy="323.902" r="14" fill="#0000ff" fill-rule="evenodd" fill-opacity="1" stroke="none"/>
<circle clip-path="url(#clip412)" cx="411.874" cy="251.803" r="14" fill="#0000ff" fill-rule="evenodd" fill-opacity="1" stroke="none"/>
<circle clip-path="url(#clip412)" cx="582.315" cy="251.803" r="14" fill="#0000ff" fill-rule="evenodd" fill-opacity="1" stroke="none"/>
<circle clip-path="url(#clip412)" cx="539.705" cy="323.902" r="14" fill="#0000ff" fill-rule="evenodd" fill-opacity="1" stroke="none"/>
<circle clip-path="url(#clip412)" cx="497.094" cy="396" r="14" fill="#0000ff" fill-rule="evenodd" fill-opacity="1" stroke="none"/>
<circle clip-path="url(#clip412)" cx="369.264" cy="179.705" r="14" fill="#0000ff" fill-rule="evenodd" fill-opacity="1" stroke="none"/>
<circle clip-path="url(#clip412)" cx="326.654" cy="107.607" r="14" fill="#0000ff" fill-rule="evenodd" fill-opacity="1" stroke="none"/>
<circle clip-path="url(#clip412)" cx="284.043" cy="179.705" r="14" fill="#0000ff" fill-rule="evenodd" fill-opacity="1" stroke="none"/>
<circle clip-path="url(#clip412)" cx="241.433" cy="251.803" r="14" fill="#0000ff" fill-rule="evenodd" fill-opacity="1" stroke="none"/>
<circle clip-path="url(#clip412)" cx="710.146" cy="179.705" r="14" fill="#0000ff" fill-rule="evenodd" fill-opacity="1" stroke="none"/>
<circle clip-path="url(#clip412)" cx="667.535" cy="107.607" r="14" fill="#0000ff" fill-rule="evenodd" fill-opacity="1" stroke="none"/>
<circle clip-path="url(#clip412)" cx="624.925" cy="179.705" r="14" fill="#0000ff" fill-rule="evenodd" fill-opacity="1" stroke="none"/>
<path clip-path="url(#clip410)" d="M 0 0 M753.85 218.107 L767.617 218.107 L767.617 221.059 L757.061 221.059 L757.061 227.413 Q757.825 227.152 758.589 227.031 Q759.353 226.892 760.117 226.892 Q764.457 226.892 766.992 229.27 Q769.527 231.649 769.527 235.711 Q769.527 239.895 766.922 242.222 Q764.318 244.531 759.579 244.531 Q757.947 244.531 756.245 244.253 Q754.561 243.975 752.756 243.42 L752.756 239.895 Q754.318 240.746 755.985 241.163 Q757.652 241.579 759.509 241.579 Q762.513 241.579 764.266 240 Q766.02 238.42 766.02 235.711 Q766.02 233.003 764.266 231.423 Q762.513 229.843 759.509 229.843 Q758.103 229.843 756.697 230.156 Q755.308 230.468 753.85 231.128 L753.85 218.107 Z" fill="#000000" fill-rule="evenodd" fill-opacity="1" /><path clip-path="url(#clip410)" d="M 0 0 M198.823 146.009 L215.489 146.009 L215.489 147.502 L206.08 171.929 L202.417 171.929 L211.271 148.96 L198.823 148.96 L198.823 146.009 Z" fill="#000000" fill-rule="evenodd" fill-opacity="1" /><path clip-path="url(#clip410)" d="M 0 0 M165.101 87.5218 Q162.601 87.5218 161.16 88.8586 Q159.737 90.1954 159.737 92.5391 Q159.737 94.8828 161.16 96.2196 Q162.601 97.5564 165.101 97.5564 Q167.601 97.5564 169.042 96.2196 Q170.483 94.8655 170.483 92.5391 Q170.483 90.1954 169.042 88.8586 Q167.619 87.5218 165.101 87.5218 M161.595 86.0287 Q159.338 85.4732 158.07 83.928 Q156.82 82.3829 156.82 80.1607 Q156.82 77.0531 159.025 75.2475 Q161.247 73.442 165.101 73.442 Q168.973 73.442 171.178 75.2475 Q173.383 77.0531 173.383 80.1607 Q173.383 82.3829 172.115 83.928 Q170.865 85.4732 168.626 86.0287 Q171.16 86.619 172.567 88.3377 Q173.99 90.0565 173.99 92.5391 Q173.99 96.3064 171.681 98.3203 Q169.39 100.334 165.101 100.334 Q160.813 100.334 158.504 98.3203 Q156.213 96.3064 156.213 92.5391 Q156.213 90.0565 157.636 88.3377 Q159.06 86.619 161.595 86.0287 M160.31 80.4905 Q160.31 82.5044 161.56 83.6329 Q162.827 84.7614 165.101 84.7614 Q167.358 84.7614 168.626 83.6329 Q169.91 82.5044 169.91 80.4905 Q169.91 78.4767 168.626 77.3482 Q167.358 76.2197 165.101 76.2197 Q162.827 76.2197 161.56 77.3482 Q160.31 78.4767 160.31 80.4905 Z" fill="#000000" fill-rule="evenodd" fill-opacity="1" /><path clip-path="url(#clip410)" d="M 0 0 M540.208 168.978 L545.937 168.978 L545.937 149.203 L539.705 150.453 L539.705 147.259 L545.903 146.009 L549.41 146.009 L549.41 168.978 L555.139 168.978 L555.139 171.929 L540.208 171.929 L540.208 168.978 Z" fill="#000000" fill-rule="evenodd" fill-opacity="1" /><path clip-path="url(#clip410)" d="M 0 0 M572.847 157.953 Q575.364 158.492 576.77 160.193 Q578.194 161.894 578.194 164.394 Q578.194 168.231 575.555 170.332 Q572.916 172.433 568.055 172.433 Q566.423 172.433 564.687 172.103 Q562.968 171.79 561.128 171.148 L561.128 167.762 Q562.587 168.613 564.323 169.047 Q566.059 169.481 567.951 169.481 Q571.25 169.481 572.968 168.179 Q574.705 166.877 574.705 164.394 Q574.705 162.103 573.09 160.818 Q571.493 159.516 568.628 159.516 L565.607 159.516 L565.607 156.634 L568.767 156.634 Q571.354 156.634 572.725 155.61 Q574.097 154.568 574.097 152.624 Q574.097 150.627 572.673 149.568 Q571.267 148.492 568.628 148.492 Q567.187 148.492 565.538 148.804 Q563.889 149.117 561.909 149.776 L561.909 146.651 Q563.906 146.096 565.642 145.818 Q567.396 145.54 568.941 145.54 Q572.934 145.54 575.26 147.363 Q577.586 149.169 577.586 152.259 Q577.586 154.412 576.354 155.905 Q575.121 157.381 572.847 157.953 Z" fill="#000000" fill-rule="evenodd" fill-opacity="1" /><path clip-path="url(#clip410)" d="M 0 0 M497.598 96.8793 L503.327 96.8793 L503.327 77.1051 L497.094 78.3551 L497.094 75.1607 L503.292 73.9107 L506.799 73.9107 L506.799 96.8793 L512.528 96.8793 L512.528 99.8307 L497.598 99.8307 L497.598 96.8793 Z" fill="#000000" fill-rule="evenodd" fill-opacity="1" /><path clip-path="url(#clip410)" d="M 0 0 M529.247 76.9663 L520.393 90.803 L529.247 90.803 L529.247 76.9663 M528.327 73.9107 L532.737 73.9107 L532.737 90.803 L536.435 90.803 L536.435 93.7196 L532.737 93.7196 L532.737 99.8307 L529.247 99.8307 L529.247 93.7196 L517.546 93.7196 L517.546 90.3342 L528.327 73.9107 Z" fill="#000000" fill-rule="evenodd" fill-opacity="1" /><path clip-path="url(#clip410)" d="M 0 0 M454.988 168.978 L460.717 168.978 L460.717 149.203 L454.484 150.453 L454.484 147.259 L460.682 146.009 L464.189 146.009 L464.189 168.978 L469.918 168.978 L469.918 171.929 L454.988 171.929 L454.988 168.978 Z" fill="#000000" fill-rule="evenodd" fill-opacity="1" /><path clip-path="url(#clip410)" d="M 0 0 M477.036 146.009 L490.804 146.009 L490.804 148.96 L480.248 148.96 L480.248 155.315 Q481.012 155.054 481.776 154.933 Q482.54 154.794 483.304 154.794 Q487.644 154.794 490.179 157.172 Q492.713 159.551 492.713 163.613 Q492.713 167.797 490.109 170.123 Q487.505 172.433 482.765 172.433 Q481.133 172.433 479.432 172.155 Q477.748 171.877 475.942 171.321 L475.942 167.797 Q477.505 168.648 479.172 169.064 Q480.838 169.481 482.696 169.481 Q485.699 169.481 487.453 167.901 Q489.206 166.321 489.206 163.613 Q489.206 160.905 487.453 159.325 Q485.699 157.745 482.696 157.745 Q481.29 157.745 479.883 158.058 Q478.495 158.37 477.036 159.03 L477.036 146.009 Z" fill="#000000" fill-rule="evenodd" fill-opacity="1" /><path clip-path="url(#clip410)" d="M 0 0 M454.988 313.174 L460.717 313.174 L460.717 293.4 L454.484 294.65 L454.484 291.456 L460.682 290.206 L464.189 290.206 L464.189 313.174 L469.918 313.174 L469.918 316.126 L454.988 316.126 L454.988 313.174 Z" fill="#000000" fill-rule="evenodd" fill-opacity="1" /><path clip-path="url(#clip410)" d="M 0 0 M484.935 301.768 Q482.574 301.768 481.185 303.383 Q479.814 304.997 479.814 307.81 Q479.814 310.605 481.185 312.237 Q482.574 313.851 484.935 313.851 Q487.297 313.851 488.668 312.237 Q490.057 310.605 490.057 307.81 Q490.057 304.997 488.668 303.383 Q487.297 301.768 484.935 301.768 M491.897 290.779 L491.897 293.973 Q490.578 293.348 489.224 293.018 Q487.887 292.688 486.567 292.688 Q483.095 292.688 481.255 295.032 Q479.432 297.376 479.172 302.115 Q480.196 300.605 481.741 299.806 Q483.286 298.99 485.144 298.99 Q489.05 298.99 491.307 301.369 Q493.581 303.73 493.581 307.81 Q493.581 311.803 491.22 314.216 Q488.859 316.629 484.935 316.629 Q480.439 316.629 478.061 313.192 Q475.682 309.737 475.682 303.192 Q475.682 297.046 478.599 293.4 Q481.515 289.737 486.429 289.737 Q487.748 289.737 489.085 289.997 Q490.439 290.258 491.897 290.779 Z" fill="#000000" fill-rule="evenodd" fill-opacity="1" /><path clip-path="url(#clip410)" d="M 0 0 M412.377 241.076 L418.107 241.076 L418.107 221.302 L411.874 222.552 L411.874 219.357 L418.072 218.107 L421.579 218.107 L421.579 241.076 L427.308 241.076 L427.308 244.027 L412.377 244.027 L412.377 241.076 Z" fill="#000000" fill-rule="evenodd" fill-opacity="1" /><path clip-path="url(#clip410)" d="M 0 0 M433.506 218.107 L450.172 218.107 L450.172 219.6 L440.763 244.027 L437.1 244.027 L445.954 221.059 L433.506 221.059 L433.506 218.107 Z" fill="#000000" fill-rule="evenodd" fill-opacity="1" /><path clip-path="url(#clip410)" d="M 0 0 M586.534 241.076 L598.773 241.076 L598.773 244.027 L582.315 244.027 L582.315 241.076 Q584.311 239.01 587.749 235.538 Q591.204 232.048 592.089 231.041 Q593.773 229.149 594.433 227.847 Q595.11 226.527 595.11 225.26 Q595.11 223.194 593.652 221.892 Q592.211 220.59 589.884 220.59 Q588.235 220.59 586.395 221.163 Q584.572 221.736 582.489 222.899 L582.489 219.357 Q584.607 218.507 586.447 218.073 Q588.287 217.639 589.815 217.639 Q593.843 217.639 596.238 219.652 Q598.634 221.666 598.634 225.034 Q598.634 226.632 598.027 228.073 Q597.436 229.496 595.857 231.441 Q595.423 231.944 593.096 234.357 Q590.77 236.753 586.534 241.076 Z" fill="#000000" fill-rule="evenodd" fill-opacity="1" /><path clip-path="url(#clip410)" d="M 0 0 M613.634 220.416 Q610.926 220.416 609.554 223.09 Q608.2 225.746 608.2 231.093 Q608.2 236.423 609.554 239.097 Q610.926 241.753 613.634 241.753 Q616.36 241.753 617.714 239.097 Q619.086 236.423 619.086 231.093 Q619.086 225.746 617.714 223.09 Q616.36 220.416 613.634 220.416 M613.634 217.639 Q617.992 217.639 620.284 221.093 Q622.593 224.531 622.593 231.093 Q622.593 237.639 620.284 241.093 Q617.992 244.531 613.634 244.531 Q609.277 244.531 606.968 241.093 Q604.676 237.639 604.676 231.093 Q604.676 224.531 606.968 221.093 Q609.277 217.639 613.634 217.639 Z" fill="#000000" fill-rule="evenodd" fill-opacity="1" /><path clip-path="url(#clip410)" d="M 0 0 M543.923 313.174 L556.163 313.174 L556.163 316.126 L539.705 316.126 L539.705 313.174 Q541.701 311.108 545.139 307.636 Q548.594 304.147 549.479 303.14 Q551.163 301.247 551.823 299.945 Q552.5 298.626 552.5 297.358 Q552.5 295.292 551.041 293.99 Q549.601 292.688 547.274 292.688 Q545.625 292.688 543.785 293.261 Q541.962 293.834 539.878 294.997 L539.878 291.456 Q541.996 290.605 543.837 290.171 Q545.677 289.737 547.205 289.737 Q551.232 289.737 553.628 291.751 Q556.024 293.765 556.024 297.133 Q556.024 298.73 555.416 300.171 Q554.826 301.595 553.246 303.539 Q552.812 304.042 550.486 306.456 Q548.16 308.851 543.923 313.174 Z" fill="#000000" fill-rule="evenodd" fill-opacity="1" /><path clip-path="url(#clip410)" d="M 0 0 M564.132 313.174 L569.861 313.174 L569.861 293.4 L563.628 294.65 L563.628 291.456 L569.826 290.206 L573.333 290.206 L573.333 313.174 L579.062 313.174 L579.062 316.126 L564.132 316.126 L564.132 313.174 Z" fill="#000000" fill-rule="evenodd" fill-opacity="1" /><path clip-path="url(#clip410)" d="M 0 0 M501.313 385.273 L513.553 385.273 L513.553 388.224 L497.094 388.224 L497.094 385.273 Q499.091 383.207 502.528 379.734 Q505.983 376.245 506.869 375.238 Q508.553 373.346 509.212 372.044 Q509.89 370.724 509.89 369.457 Q509.89 367.391 508.431 366.089 Q506.99 364.787 504.664 364.787 Q503.015 364.787 501.174 365.36 Q499.351 365.932 497.268 367.096 L497.268 363.554 Q499.386 362.703 501.226 362.269 Q503.067 361.835 504.594 361.835 Q508.622 361.835 511.018 363.849 Q513.414 365.863 513.414 369.231 Q513.414 370.828 512.806 372.269 Q512.216 373.693 510.636 375.637 Q510.202 376.141 507.876 378.554 Q505.549 380.95 501.313 385.273 Z" fill="#000000" fill-rule="evenodd" fill-opacity="1" /><path clip-path="url(#clip410)" d="M 0 0 M531.539 374.248 Q534.056 374.787 535.462 376.488 Q536.886 378.189 536.886 380.689 Q536.886 384.526 534.247 386.627 Q531.608 388.727 526.747 388.727 Q525.115 388.727 523.379 388.398 Q521.66 388.085 519.82 387.443 L519.82 384.057 Q521.278 384.908 523.014 385.342 Q524.751 385.776 526.643 385.776 Q529.942 385.776 531.66 384.474 Q533.396 383.172 533.396 380.689 Q533.396 378.398 531.782 377.113 Q530.185 375.811 527.32 375.811 L524.299 375.811 L524.299 372.929 L527.459 372.929 Q530.046 372.929 531.417 371.905 Q532.789 370.863 532.789 368.919 Q532.789 366.922 531.365 365.863 Q529.959 364.787 527.32 364.787 Q525.879 364.787 524.23 365.099 Q522.58 365.412 520.601 366.071 L520.601 362.946 Q522.598 362.391 524.334 362.113 Q526.087 361.835 527.633 361.835 Q531.626 361.835 533.952 363.658 Q536.278 365.464 536.278 368.554 Q536.278 370.707 535.046 372.2 Q533.813 373.675 531.539 374.248 Z" fill="#000000" fill-rule="evenodd" fill-opacity="1" /><path clip-path="url(#clip410)" d="M 0 0 M373.483 168.978 L385.722 168.978 L385.722 171.929 L369.264 171.929 L369.264 168.978 Q371.26 166.912 374.698 163.44 Q378.153 159.95 379.038 158.943 Q380.722 157.051 381.382 155.749 Q382.059 154.429 382.059 153.162 Q382.059 151.096 380.601 149.794 Q379.16 148.492 376.833 148.492 Q375.184 148.492 373.344 149.065 Q371.521 149.637 369.437 150.801 L369.437 147.259 Q371.555 146.408 373.396 145.974 Q375.236 145.54 376.764 145.54 Q380.791 145.54 383.187 147.554 Q385.583 149.568 385.583 152.936 Q385.583 154.533 384.976 155.974 Q384.385 157.398 382.805 159.342 Q382.371 159.846 380.045 162.259 Q377.719 164.655 373.483 168.978 Z" fill="#000000" fill-rule="evenodd" fill-opacity="1" /><path clip-path="url(#clip410)" d="M 0 0 M400.583 159.62 Q398.083 159.62 396.642 160.957 Q395.219 162.294 395.219 164.637 Q395.219 166.981 396.642 168.318 Q398.083 169.655 400.583 169.655 Q403.083 169.655 404.524 168.318 Q405.965 166.964 405.965 164.637 Q405.965 162.294 404.524 160.957 Q403.1 159.62 400.583 159.62 M397.076 158.127 Q394.819 157.571 393.552 156.026 Q392.302 154.481 392.302 152.259 Q392.302 149.151 394.507 147.346 Q396.729 145.54 400.583 145.54 Q404.455 145.54 406.659 147.346 Q408.864 149.151 408.864 152.259 Q408.864 154.481 407.597 156.026 Q406.347 157.571 404.107 158.127 Q406.642 158.717 408.048 160.436 Q409.472 162.155 409.472 164.637 Q409.472 168.405 407.163 170.419 Q404.871 172.433 400.583 172.433 Q396.295 172.433 393.986 170.419 Q391.694 168.405 391.694 164.637 Q391.694 162.155 393.118 160.436 Q394.541 158.717 397.076 158.127 M395.791 152.589 Q395.791 154.603 397.041 155.731 Q398.309 156.86 400.583 156.86 Q402.84 156.86 404.107 155.731 Q405.392 154.603 405.392 152.589 Q405.392 150.575 404.107 149.447 Q402.84 148.318 400.583 148.318 Q398.309 148.318 397.041 149.447 Q395.791 150.575 395.791 152.589 Z" fill="#000000" fill-rule="evenodd" fill-opacity="1" /><path clip-path="url(#clip410)" d="M 0 0 M330.872 96.8793 L343.112 96.8793 L343.112 99.8307 L326.654 99.8307 L326.654 96.8793 Q328.65 94.8134 332.088 91.3412 Q335.542 87.8516 336.428 86.8447 Q338.112 84.9523 338.772 83.6503 Q339.449 82.3308 339.449 81.0635 Q339.449 78.9975 337.99 77.6954 Q336.549 76.3933 334.223 76.3933 Q332.574 76.3933 330.733 76.9663 Q328.91 77.5392 326.827 78.7024 L326.827 75.1607 Q328.945 74.31 330.785 73.876 Q332.626 73.442 334.154 73.442 Q338.181 73.442 340.577 75.4559 Q342.973 77.4697 342.973 80.8378 Q342.973 82.435 342.365 83.8759 Q341.775 85.2995 340.195 87.244 Q339.761 87.7475 337.435 90.1606 Q335.108 92.5565 330.872 96.8793 Z" fill="#000000" fill-rule="evenodd" fill-opacity="1" /><path clip-path="url(#clip410)" d="M 0 0 M350.577 99.2925 L350.577 96.0981 Q351.896 96.7231 353.251 97.053 Q354.605 97.3828 355.907 97.3828 Q359.379 97.3828 361.202 95.0564 Q363.042 92.7127 363.303 87.9558 Q362.296 89.4488 360.751 90.2474 Q359.205 91.046 357.33 91.046 Q353.442 91.046 351.167 88.7023 Q348.91 86.3412 348.91 82.2614 Q348.91 78.2683 351.271 75.8552 Q353.633 73.442 357.556 73.442 Q362.053 73.442 364.414 76.8968 Q366.792 80.3343 366.792 86.8968 Q366.792 93.0252 363.876 96.6884 Q360.976 100.334 356.063 100.334 Q354.744 100.334 353.39 100.074 Q352.035 99.8134 350.577 99.2925 M357.556 88.303 Q359.917 88.303 361.289 86.6884 Q362.678 85.0739 362.678 82.2614 Q362.678 79.4662 361.289 77.8517 Q359.917 76.2197 357.556 76.2197 Q355.195 76.2197 353.806 77.8517 Q352.435 79.4662 352.435 82.2614 Q352.435 85.0739 353.806 86.6884 Q355.195 88.303 357.556 88.303 Z" fill="#000000" fill-rule="evenodd" fill-opacity="1" /><path clip-path="url(#clip410)" d="M 0 0 M295.762 157.953 Q298.279 158.492 299.686 160.193 Q301.109 161.894 301.109 164.394 Q301.109 168.231 298.47 170.332 Q295.831 172.433 290.97 172.433 Q289.338 172.433 287.602 172.103 Q285.884 171.79 284.043 171.148 L284.043 167.762 Q285.502 168.613 287.238 169.047 Q288.974 169.481 290.866 169.481 Q294.165 169.481 295.884 168.179 Q297.62 166.877 297.62 164.394 Q297.62 162.103 296.005 160.818 Q294.408 159.516 291.543 159.516 L288.522 159.516 L288.522 156.634 L291.682 156.634 Q294.269 156.634 295.64 155.61 Q297.012 154.568 297.012 152.624 Q297.012 150.627 295.588 149.568 Q294.182 148.492 291.543 148.492 Q290.102 148.492 288.453 148.804 Q286.804 149.117 284.825 149.776 L284.825 146.651 Q286.821 146.096 288.557 145.818 Q290.311 145.54 291.856 145.54 Q295.849 145.54 298.175 147.363 Q300.502 149.169 300.502 152.259 Q300.502 154.412 299.269 155.905 Q298.036 157.381 295.762 157.953 Z" fill="#000000" fill-rule="evenodd" fill-opacity="1" /><path clip-path="url(#clip410)" d="M 0 0 M315.258 148.318 Q312.55 148.318 311.179 150.992 Q309.824 153.648 309.824 158.995 Q309.824 164.325 311.179 166.999 Q312.55 169.655 315.258 169.655 Q317.984 169.655 319.338 166.999 Q320.71 164.325 320.71 158.995 Q320.71 153.648 319.338 150.992 Q317.984 148.318 315.258 148.318 M315.258 145.54 Q319.616 145.54 321.908 148.995 Q324.217 152.433 324.217 158.995 Q324.217 165.54 321.908 168.995 Q319.616 172.433 315.258 172.433 Q310.901 172.433 308.592 168.995 Q306.3 165.54 306.3 158.995 Q306.3 152.433 308.592 148.995 Q310.901 145.54 315.258 145.54 Z" fill="#000000" fill-rule="evenodd" fill-opacity="1" /><path clip-path="url(#clip410)" d="M 0 0 M253.152 230.052 Q255.669 230.59 257.075 232.291 Q258.499 233.993 258.499 236.493 Q258.499 240.329 255.86 242.43 Q253.221 244.531 248.36 244.531 Q246.728 244.531 244.992 244.201 Q243.273 243.888 241.433 243.246 L241.433 239.861 Q242.891 240.711 244.627 241.145 Q246.364 241.579 248.256 241.579 Q251.555 241.579 253.273 240.277 Q255.009 238.975 255.009 236.493 Q255.009 234.201 253.395 232.916 Q251.798 231.614 248.933 231.614 L245.912 231.614 L245.912 228.732 L249.072 228.732 Q251.659 228.732 253.03 227.708 Q254.402 226.666 254.402 224.722 Q254.402 222.725 252.978 221.666 Q251.572 220.59 248.933 220.59 Q247.492 220.59 245.843 220.902 Q244.193 221.215 242.214 221.875 L242.214 218.75 Q244.211 218.194 245.947 217.916 Q247.7 217.639 249.246 217.639 Q253.239 217.639 255.565 219.462 Q257.891 221.267 257.891 224.357 Q257.891 226.51 256.659 228.003 Q255.426 229.479 253.152 230.052 Z" fill="#000000" fill-rule="evenodd" fill-opacity="1" /><path clip-path="url(#clip410)" d="M 0 0 M268.169 241.076 L280.409 241.076 L280.409 244.027 L263.95 244.027 L263.95 241.076 Q265.947 239.01 269.384 235.538 Q272.839 232.048 273.725 231.041 Q275.409 229.149 276.068 227.847 Q276.745 226.527 276.745 225.26 Q276.745 223.194 275.287 221.892 Q273.846 220.59 271.52 220.59 Q269.87 220.59 268.03 221.163 Q266.207 221.736 264.124 222.899 L264.124 219.357 Q266.242 218.507 268.082 218.073 Q269.923 217.639 271.45 217.639 Q275.478 217.639 277.874 219.652 Q280.27 221.666 280.27 225.034 Q280.27 226.632 279.662 228.073 Q279.072 229.496 277.492 231.441 Q277.058 231.944 274.732 234.357 Q272.405 236.753 268.169 241.076 Z" fill="#000000" fill-rule="evenodd" fill-opacity="1" /><path clip-path="url(#clip410)" d="M 0 0 M721.864 157.953 Q724.382 158.492 725.788 160.193 Q727.212 161.894 727.212 164.394 Q727.212 168.231 724.573 170.332 Q721.934 172.433 717.073 172.433 Q715.441 172.433 713.705 172.103 Q711.986 171.79 710.146 171.148 L710.146 167.762 Q711.604 168.613 713.34 169.047 Q715.076 169.481 716.969 169.481 Q720.267 169.481 721.986 168.179 Q723.722 166.877 723.722 164.394 Q723.722 162.103 722.107 160.818 Q720.51 159.516 717.646 159.516 L714.625 159.516 L714.625 156.634 L717.785 156.634 Q720.371 156.634 721.743 155.61 Q723.114 154.568 723.114 152.624 Q723.114 150.627 721.691 149.568 Q720.285 148.492 717.646 148.492 Q716.205 148.492 714.555 148.804 Q712.906 149.117 710.927 149.776 L710.927 146.651 Q712.923 146.096 714.66 145.818 Q716.413 145.54 717.958 145.54 Q721.951 145.54 724.278 147.363 Q726.604 149.169 726.604 152.259 Q726.604 154.412 725.371 155.905 Q724.139 157.381 721.864 157.953 Z" fill="#000000" fill-rule="evenodd" fill-opacity="1" /><path clip-path="url(#clip410)" d="M 0 0 M743.496 149.065 L734.642 162.901 L743.496 162.901 L743.496 149.065 M742.576 146.009 L746.986 146.009 L746.986 162.901 L750.684 162.901 L750.684 165.818 L746.986 165.818 L746.986 171.929 L743.496 171.929 L743.496 165.818 L731.795 165.818 L731.795 162.433 L742.576 146.009 Z" fill="#000000" fill-rule="evenodd" fill-opacity="1" /><path clip-path="url(#clip410)" d="M 0 0 M679.254 85.8551 Q681.771 86.3933 683.178 88.0947 Q684.601 89.7961 684.601 92.296 Q684.601 96.1328 681.962 98.2335 Q679.324 100.334 674.462 100.334 Q672.831 100.334 671.094 100.004 Q669.376 99.6918 667.535 99.0495 L667.535 95.6641 Q668.994 96.5148 670.73 96.9488 Q672.466 97.3828 674.358 97.3828 Q677.657 97.3828 679.376 96.0807 Q681.112 94.7787 681.112 92.296 Q681.112 90.0044 679.497 88.7197 Q677.9 87.4176 675.035 87.4176 L672.015 87.4176 L672.015 84.5357 L675.174 84.5357 Q677.761 84.5357 679.133 83.5114 Q680.504 82.4697 680.504 80.5253 Q680.504 78.5288 679.081 77.4697 Q677.674 76.3933 675.035 76.3933 Q673.594 76.3933 671.945 76.7058 Q670.296 77.0183 668.317 77.6781 L668.317 74.5531 Q670.313 73.9975 672.049 73.7198 Q673.803 73.442 675.348 73.442 Q679.341 73.442 681.667 75.2649 Q683.994 77.0704 683.994 80.1607 Q683.994 82.3135 682.761 83.8065 Q681.528 85.2822 679.254 85.8551 Z" fill="#000000" fill-rule="evenodd" fill-opacity="1" /><path clip-path="url(#clip410)" d="M 0 0 M691.285 73.9107 L705.053 73.9107 L705.053 76.8621 L694.497 76.8621 L694.497 83.2162 Q695.261 82.9558 696.025 82.8343 Q696.789 82.6954 697.553 82.6954 Q701.893 82.6954 704.428 85.0739 Q706.962 87.4523 706.962 91.5148 Q706.962 95.6988 704.358 98.0252 Q701.754 100.334 697.014 100.334 Q695.383 100.334 693.681 100.056 Q691.997 99.7786 690.192 99.2231 L690.192 95.6988 Q691.754 96.5495 693.421 96.9662 Q695.087 97.3828 696.945 97.3828 Q699.948 97.3828 701.702 95.803 Q703.455 94.2231 703.455 91.5148 Q703.455 88.8065 701.702 87.2266 Q699.948 85.6468 696.945 85.6468 Q695.539 85.6468 694.133 85.9593 Q692.744 86.2718 691.285 86.9315 L691.285 73.9107 Z" fill="#000000" fill-rule="evenodd" fill-opacity="1" /><path clip-path="url(#clip410)" d="M 0 0 M636.644 157.953 Q639.161 158.492 640.567 160.193 Q641.991 161.894 641.991 164.394 Q641.991 168.231 639.352 170.332 Q636.713 172.433 631.852 172.433 Q630.22 172.433 628.484 172.103 Q626.765 171.79 624.925 171.148 L624.925 167.762 Q626.384 168.613 628.12 169.047 Q629.856 169.481 631.748 169.481 Q635.047 169.481 636.765 168.179 Q638.502 166.877 638.502 164.394 Q638.502 162.103 636.887 160.818 Q635.29 159.516 632.425 159.516 L629.404 159.516 L629.404 156.634 L632.564 156.634 Q635.151 156.634 636.522 155.61 Q637.894 154.568 637.894 152.624 Q637.894 150.627 636.47 149.568 Q635.064 148.492 632.425 148.492 Q630.984 148.492 629.335 148.804 Q627.686 149.117 625.706 149.776 L625.706 146.651 Q627.703 146.096 629.439 145.818 Q631.193 145.54 632.738 145.54 Q636.731 145.54 639.057 147.363 Q641.383 149.169 641.383 152.259 Q641.383 154.412 640.151 155.905 Q638.918 157.381 636.644 157.953 Z" fill="#000000" fill-rule="evenodd" fill-opacity="1" /><path clip-path="url(#clip410)" d="M 0 0 M656.574 157.571 Q654.213 157.571 652.824 159.186 Q651.453 160.801 651.453 163.613 Q651.453 166.408 652.824 168.04 Q654.213 169.655 656.574 169.655 Q658.935 169.655 660.307 168.04 Q661.696 166.408 661.696 163.613 Q661.696 160.801 660.307 159.186 Q658.935 157.571 656.574 157.571 M663.536 146.582 L663.536 149.776 Q662.217 149.151 660.863 148.822 Q659.526 148.492 658.206 148.492 Q654.734 148.492 652.894 150.835 Q651.071 153.179 650.81 157.919 Q651.835 156.408 653.38 155.61 Q654.925 154.794 656.783 154.794 Q660.689 154.794 662.946 157.172 Q665.22 159.533 665.22 163.613 Q665.22 167.606 662.859 170.019 Q660.498 172.433 656.574 172.433 Q652.078 172.433 649.699 168.995 Q647.321 165.54 647.321 158.995 Q647.321 152.849 650.238 149.203 Q653.154 145.54 658.067 145.54 Q659.387 145.54 660.724 145.801 Q662.078 146.061 663.536 146.582 Z" fill="#000000" fill-rule="evenodd" fill-opacity="1" /></svg>
