<?xml version="1.0" encoding="utf-8"?>
<svg xmlns="http://www.w3.org/2000/svg" xmlns:xlink="http://www.w3.org/1999/xlink" width="200" height="200" viewBox="0 0 800 800">
<defs>
  <clipPath id="clip930">
    <rect x="0" y="0" width="800" height="800"/>
  </clipPath>
</defs>
<path clip-path="url(#clip930)" d="
M0 800 L800 800 L800 0 L0 0  Z
  " fill="#ffffff" fill-rule="evenodd" fill-opacity="1"/>
<defs>
  <clipPath id="clip931">
    <rect x="160" y="80" width="561" height="561"/>
  </clipPath>
</defs>
<path clip-path="url(#clip930)" d="
M70.9921 729.008 L752.756 729.008 L752.756 62.9921 L70.9921 62.9921  Z
  " fill="#ffffff" fill-rule="evenodd" fill-opacity="1"/>
<defs>
  <clipPath id="clip932">
    <rect x="70" y="62" width="683" height="667"/>
  </clipPath>
</defs>
<polyline clip-path="url(#clip930)" style="stroke:#000000; stroke-width:4; stroke-opacity:1; fill:none" points="
  70.9921,729.008 752.756,729.008 
  "/>
<polyline clip-path="url(#clip930)" style="stroke:#000000; stroke-width:4; stroke-opacity:1; fill:none" points="
  70.9921,729.008 70.9921,721.016 
  "/>
<polyline clip-path="url(#clip930)" style="stroke:#000000; stroke-width:4; stroke-opacity:1; fill:none" points="
  241.433,729.008 241.433,721.016 
  "/>
<polyline clip-path="url(#clip930)" style="stroke:#000000; stroke-width:4; stroke-opacity:1; fill:none" points="
  411.874,729.008 411.874,721.016 
  "/>
<polyline clip-path="url(#clip930)" style="stroke:#000000; stroke-width:4; stroke-opacity:1; fill:none" points="
  582.315,729.008 582.315,721.016 
  "/>
<polyline clip-path="url(#clip930)" style="stroke:#000000; stroke-width:4; stroke-opacity:1; fill:none" points="
  752.756,729.008 752.756,721.016 
  "/>
<path clip-path="url(#clip930)" d="M 0 0 M40.9344 760.051 L70.6102 760.051 L70.6102 763.986 L40.9344 763.986 L40.9344 760.051 Z" fill="#000000" fill-rule="evenodd" fill-opacity="1" /><path clip-path="url(#clip930)" d="M 0 0 M84.7305 772.945 L101.05 772.945 L101.05 776.88 L79.1055 776.88 L79.1055 772.945 Q81.7675 770.19 86.3508 765.56 Q90.9573 760.908 92.1378 759.565 Q94.3832 757.042 95.2628 755.306 Q96.1656 753.547 96.1656 751.857 Q96.1656 749.102 94.2212 747.366 Q92.2999 745.63 89.198 745.63 Q86.999 745.63 84.5453 746.394 Q82.1148 747.158 79.337 748.709 L79.337 743.987 Q82.161 742.852 84.6147 742.274 Q87.0684 741.695 89.1055 741.695 Q94.4758 741.695 97.6702 744.38 Q100.865 747.065 100.865 751.556 Q100.865 753.686 100.054 755.607 Q99.2674 757.505 97.161 760.098 Q96.5823 760.769 93.4804 763.986 Q90.3786 767.181 84.7305 772.945 Z" fill="#000000" fill-rule="evenodd" fill-opacity="1" /><path clip-path="url(#clip930)" d="M 0 0 M211.19 760.051 L240.866 760.051 L240.866 763.986 L211.19 763.986 L211.19 760.051 Z" fill="#000000" fill-rule="evenodd" fill-opacity="1" /><path clip-path="url(#clip930)" d="M 0 0 M251.769 772.945 L259.408 772.945 L259.408 746.579 L251.097 748.246 L251.097 743.987 L259.361 742.32 L264.037 742.32 L264.037 772.945 L271.676 772.945 L271.676 776.88 L251.769 776.88 L251.769 772.945 Z" fill="#000000" fill-rule="evenodd" fill-opacity="1" /><path clip-path="url(#clip930)" d="M 0 0 M411.874 745.399 Q408.263 745.399 406.434 748.963 Q404.629 752.505 404.629 759.635 Q404.629 766.741 406.434 770.306 Q408.263 773.847 411.874 773.847 Q415.508 773.847 417.314 770.306 Q419.142 766.741 419.142 759.635 Q419.142 752.505 417.314 748.963 Q415.508 745.399 411.874 745.399 M411.874 741.695 Q417.684 741.695 420.74 746.301 Q423.818 750.885 423.818 759.635 Q423.818 768.361 420.74 772.968 Q417.684 777.551 411.874 777.551 Q406.064 777.551 402.985 772.968 Q399.93 768.361 399.93 759.635 Q399.93 750.885 402.985 746.301 Q406.064 741.695 411.874 741.695 Z" fill="#000000" fill-rule="evenodd" fill-opacity="1" /><path clip-path="url(#clip930)" d="M 0 0 M572.697 772.945 L580.336 772.945 L580.336 746.579 L572.026 748.246 L572.026 743.987 L580.29 742.32 L584.965 742.32 L584.965 772.945 L592.604 772.945 L592.604 776.88 L572.697 776.88 L572.697 772.945 Z" fill="#000000" fill-rule="evenodd" fill-opacity="1" /><path clip-path="url(#clip930)" d="M 0 0 M747.409 772.945 L763.728 772.945 L763.728 776.88 L741.784 776.88 L741.784 772.945 Q744.446 770.19 749.029 765.56 Q753.636 760.908 754.816 759.565 Q757.061 757.042 757.941 755.306 Q758.844 753.547 758.844 751.857 Q758.844 749.102 756.899 747.366 Q754.978 745.63 751.876 745.63 Q749.677 745.63 747.224 746.394 Q744.793 747.158 742.015 748.709 L742.015 743.987 Q744.839 742.852 747.293 742.274 Q749.747 741.695 751.784 741.695 Q757.154 741.695 760.348 744.38 Q763.543 747.065 763.543 751.556 Q763.543 753.686 762.733 755.607 Q761.946 757.505 759.839 760.098 Q759.261 760.769 756.159 763.986 Q753.057 767.181 747.409 772.945 Z" fill="#000000" fill-rule="evenodd" fill-opacity="1" /><polyline clip-path="url(#clip930)" style="stroke:#000000; stroke-width:4; stroke-opacity:1; fill:none" points="
  70.9921,729.008 70.9921,62.9921 
  "/>
<polyline clip-path="url(#clip930)" style="stroke:#000000; stroke-width:4; stroke-opacity:1; fill:none" points="
  70.9921,729.008 79.1733,729.008 
  "/>
<polyline clip-path="url(#clip930)" style="stroke:#000000; stroke-width:4; stroke-opacity:1; fill:none" points="
  70.9921,562.504 79.1733,562.504 
  "/>
<polyline clip-path="url(#clip930)" style="stroke:#000000; stroke-width:4; stroke-opacity:1; fill:none" points="
  70.9921,396 79.1733,396 
  "/>
<polyline clip-path="url(#clip930)" style="stroke:#000000; stroke-width:4; stroke-opacity:1; fill:none" points="
  70.9921,229.496 79.1733,229.496 
  "/>
<polyline clip-path="url(#clip930)" style="stroke:#000000; stroke-width:4; stroke-opacity:1; fill:none" points="
  70.9921,62.9921 79.1733,62.9921 
  "/>
<path clip-path="url(#clip930)" d="M 0 0 M-1.12329 729.459 L28.5525 729.459 L28.5525 733.394 L-1.12329 733.394 L-1.12329 729.459 Z" fill="#000000" fill-rule="evenodd" fill-opacity="1" /><path clip-path="url(#clip930)" d="M 0 0 M42.6728 742.353 L58.9921 742.353 L58.9921 746.288 L37.0478 746.288 L37.0478 742.353 Q39.7098 739.598 44.2931 734.968 Q48.8996 730.316 50.0801 728.973 Q52.3255 726.45 53.2051 724.714 Q54.1079 722.955 54.1079 721.265 Q54.1079 718.51 52.1635 716.774 Q50.2422 715.038 47.1403 715.038 Q44.9413 715.038 42.4876 715.802 Q40.057 716.566 37.2793 718.117 L37.2793 713.395 Q40.1033 712.26 42.557 711.682 Q45.0107 711.103 47.0477 711.103 Q52.4181 711.103 55.6125 713.788 Q58.8069 716.473 58.8069 720.964 Q58.8069 723.094 57.9968 725.015 Q57.2097 726.913 55.1033 729.506 Q54.5246 730.177 51.4227 733.394 Q48.3209 736.589 42.6728 742.353 Z" fill="#000000" fill-rule="evenodd" fill-opacity="1" /><path clip-path="url(#clip930)" d="M 0 0 M-1.49366 562.955 L28.1821 562.955 L28.1821 566.89 L-1.49366 566.89 L-1.49366 562.955 Z" fill="#000000" fill-rule="evenodd" fill-opacity="1" /><path clip-path="url(#clip930)" d="M 0 0 M39.0848 575.849 L46.7237 575.849 L46.7237 549.483 L38.4135 551.15 L38.4135 546.891 L46.6774 545.224 L51.3533 545.224 L51.3533 575.849 L58.9921 575.849 L58.9921 579.784 L39.0848 579.784 L39.0848 575.849 Z" fill="#000000" fill-rule="evenodd" fill-opacity="1" /><path clip-path="url(#clip930)" d="M 0 0 M47.0477 381.799 Q43.4367 381.799 41.608 385.363 Q39.8024 388.905 39.8024 396.035 Q39.8024 403.141 41.608 406.706 Q43.4367 410.248 47.0477 410.248 Q50.682 410.248 52.4875 406.706 Q54.3162 403.141 54.3162 396.035 Q54.3162 388.905 52.4875 385.363 Q50.682 381.799 47.0477 381.799 M47.0477 378.095 Q52.8579 378.095 55.9134 382.701 Q58.9921 387.285 58.9921 396.035 Q58.9921 404.762 55.9134 409.368 Q52.8579 413.951 47.0477 413.951 Q41.2376 413.951 38.1589 409.368 Q35.1034 404.762 35.1034 396.035 Q35.1034 387.285 38.1589 382.701 Q41.2376 378.095 47.0477 378.095 Z" fill="#000000" fill-rule="evenodd" fill-opacity="1" /><path clip-path="url(#clip930)" d="M 0 0 M39.0848 242.841 L46.7237 242.841 L46.7237 216.475 L38.4135 218.142 L38.4135 213.883 L46.6774 212.216 L51.3533 212.216 L51.3533 242.841 L58.9921 242.841 L58.9921 246.776 L39.0848 246.776 L39.0848 242.841 Z" fill="#000000" fill-rule="evenodd" fill-opacity="1" /><path clip-path="url(#clip930)" d="M 0 0 M42.6728 76.337 L58.9921 76.337 L58.9921 80.2721 L37.0478 80.2721 L37.0478 76.337 Q39.7098 73.5823 44.2931 68.9527 Q48.8996 64.3 50.0801 62.9574 Q52.3255 60.4343 53.2051 58.6982 Q54.1079 56.9389 54.1079 55.2491 Q54.1079 52.4945 52.1635 50.7584 Q50.2422 49.0223 47.1403 49.0223 Q44.9413 49.0223 42.4876 49.7862 Q40.057 50.5501 37.2793 52.101 L37.2793 47.3788 Q40.1033 46.2445 42.557 45.6658 Q45.0107 45.0871 47.0477 45.0871 Q52.4181 45.0871 55.6125 47.7723 Q58.8069 50.4575 58.8069 54.9482 Q58.8069 57.0778 57.9968 58.9991 Q57.2097 60.8972 55.1033 63.4898 Q54.5246 64.1611 51.4227 67.3787 Q48.3209 70.5731 42.6728 76.337 Z" fill="#000000" fill-rule="evenodd" fill-opacity="1" /><path clip-path="url(#clip930)" d="M 0 0 M352.222 5.45367 L362.036 5.45367 L362.036 8.76384 L356.481 8.76384 L356.481 44.4118 L362.036 44.4118 L362.036 47.722 L352.222 47.722 L352.222 5.45367 Z" fill="#000000" fill-rule="evenodd" fill-opacity="1" /><path clip-path="url(#clip930)" d="M 0 0 M372.522 37.5368 L380.161 37.5368 L380.161 11.1712 L371.851 12.8379 L371.851 8.57866 L380.115 6.912 L384.791 6.912 L384.791 37.5368 L392.43 37.5368 L392.43 41.472 L372.522 41.472 L372.522 37.5368 Z" fill="#000000" fill-rule="evenodd" fill-opacity="1" /><path clip-path="url(#clip930)" d="M 0 0 M402.36 35.5924 L407.244 35.5924 L407.244 39.5739 L403.448 46.9812 L400.462 46.9812 L402.36 39.5739 L402.36 35.5924 Z" fill="#000000" fill-rule="evenodd" fill-opacity="1" /><path clip-path="url(#clip930)" d="M 0 0 M446.179 22.8378 Q449.536 23.5554 451.411 25.8239 Q453.309 28.0924 453.309 31.4258 Q453.309 36.5415 449.79 39.3424 Q446.272 42.1433 439.791 42.1433 Q437.615 42.1433 435.3 41.7035 Q433.008 41.2868 430.554 40.4303 L430.554 35.9165 Q432.499 37.0507 434.814 37.6294 Q437.129 38.2081 439.652 38.2081 Q444.05 38.2081 446.341 36.472 Q448.656 34.7359 448.656 31.4258 Q448.656 28.3702 446.503 26.6573 Q444.374 24.9212 440.554 24.9212 L436.527 24.9212 L436.527 21.0786 L440.74 21.0786 Q444.189 21.0786 446.017 19.7129 Q447.846 18.324 447.846 15.7314 Q447.846 13.0694 445.948 11.6573 Q444.073 10.2222 440.554 10.2222 Q438.633 10.2222 436.434 10.6388 Q434.235 11.0555 431.596 11.9351 L431.596 7.76848 Q434.258 7.02774 436.573 6.65737 Q438.911 6.287 440.971 6.287 Q446.295 6.287 449.397 8.71755 Q452.499 11.1249 452.499 15.2453 Q452.499 18.1156 450.855 20.1064 Q449.212 22.074 446.179 22.8378 Z" fill="#000000" fill-rule="evenodd" fill-opacity="1" /><path clip-path="url(#clip930)" d="M 0 0 M471.526 5.45367 L471.526 47.722 L461.712 47.722 L461.712 44.4118 L467.244 44.4118 L467.244 8.76384 L461.712 8.76384 L461.712 5.45367 L471.526 5.45367 Z" fill="#000000" fill-rule="evenodd" fill-opacity="1" /><circle clip-path="url(#clip932)" cx="411.874" cy="540.197" r="14" fill="#0000ff" fill-rule="evenodd" fill-opacity="1" stroke="none"/>
<circle clip-path="url(#clip932)" cx="369.264" cy="468.098" r="14" fill="#0000ff" fill-rule="evenodd" fill-opacity="1" stroke="none"/>
<circle clip-path="url(#clip932)" cx="454.484" cy="468.098" r="14" fill="#0000ff" fill-rule="evenodd" fill-opacity="1" stroke="none"/>
<circle clip-path="url(#clip932)" cx="582.315" cy="540.197" r="14" fill="#0000ff" fill-rule="evenodd" fill-opacity="1" stroke="none"/>
<circle clip-path="url(#clip932)" cx="539.705" cy="468.098" r="14" fill="#0000ff" fill-rule="evenodd" fill-opacity="1" stroke="none"/>
<circle clip-path="url(#clip932)" cx="624.925" cy="468.098" r="14" fill="#0000ff" fill-rule="evenodd" fill-opacity="1" stroke="none"/>
<circle clip-path="url(#clip932)" cx="156.213" cy="684.393" r="14" fill="#0000ff" fill-rule="evenodd" fill-opacity="1" stroke="none"/>
<circle clip-path="url(#clip932)" cx="113.602" cy="612.295" r="14" fill="#0000ff" fill-rule="evenodd" fill-opacity="1" stroke="none"/>
<circle clip-path="url(#clip932)" cx="198.823" cy="612.295" r="14" fill="#0000ff" fill-rule="evenodd" fill-opacity="1" stroke="none"/>
<circle clip-path="url(#clip932)" cx="326.654" cy="684.393" r="14" fill="#0000ff" fill-rule="evenodd" fill-opacity="1" stroke="none"/>
<circle clip-path="url(#clip932)" cx="284.043" cy="612.295" r="14" fill="#0000ff" fill-rule="evenodd" fill-opacity="1" stroke="none"/>
<circle clip-path="url(#clip932)" cx="369.264" cy="612.295" r="14" fill="#0000ff" fill-rule="evenodd" fill-opacity="1" stroke="none"/>
<circle clip-path="url(#clip932)" cx="497.094" cy="684.393" r="14" fill="#0000ff" fill-rule="evenodd" fill-opacity="1" stroke="none"/>
<circle clip-path="url(#clip932)" cx="454.484" cy="612.295" r="14" fill="#0000ff" fill-rule="evenodd" fill-opacity="1" stroke="none"/>
<circle clip-path="url(#clip932)" cx="539.705" cy="612.295" r="14" fill="#0000ff" fill-rule="evenodd" fill-opacity="1" stroke="none"/>
<circle clip-path="url(#clip932)" cx="667.535" cy="684.393" r="14" fill="#0000ff" fill-rule="evenodd" fill-opacity="1" stroke="none"/>
<circle clip-path="url(#clip932)" cx="624.925" cy="612.295" r="14" fill="#0000ff" fill-rule="evenodd" fill-opacity="1" stroke="none"/>
<circle clip-path="url(#clip932)" cx="710.146" cy="612.295" r="14" fill="#0000ff" fill-rule="evenodd" fill-opacity="1" stroke="none"/>
<path clip-path="url(#clip930)" d="M 0 0 M412.377 529.469 L418.107 529.469 L418.107 509.695 L411.874 510.945 L411.874 507.751 L418.072 506.501 L421.579 506.501 L421.579 529.469 L427.308 529.469 L427.308 532.421 L412.377 532.421 L412.377 529.469 Z" fill="#000000" fill-rule="evenodd" fill-opacity="1" /><path clip-path="url(#clip930)" d="M 0 0 M373.483 457.371 L385.722 457.371 L385.722 460.322 L369.264 460.322 L369.264 457.371 Q371.26 455.305 374.698 451.833 Q378.153 448.343 379.038 447.336 Q380.722 445.444 381.382 444.142 Q382.059 442.822 382.059 441.555 Q382.059 439.489 380.601 438.187 Q379.16 436.885 376.833 436.885 Q375.184 436.885 373.344 437.458 Q371.521 438.031 369.437 439.194 L369.437 435.652 Q371.555 434.802 373.396 434.368 Q375.236 433.934 376.764 433.934 Q380.791 433.934 383.187 435.947 Q385.583 437.961 385.583 441.329 Q385.583 442.927 384.976 444.368 Q384.385 445.791 382.805 447.736 Q382.371 448.239 380.045 450.652 Q377.719 453.048 373.483 457.371 Z" fill="#000000" fill-rule="evenodd" fill-opacity="1" /><path clip-path="url(#clip930)" d="M 0 0 M466.203 446.347 Q468.72 446.885 470.127 448.586 Q471.55 450.288 471.55 452.788 Q471.55 456.624 468.911 458.725 Q466.272 460.826 461.411 460.826 Q459.779 460.826 458.043 460.496 Q456.325 460.183 454.484 459.541 L454.484 456.156 Q455.943 457.006 457.679 457.44 Q459.415 457.874 461.307 457.874 Q464.606 457.874 466.324 456.572 Q468.061 455.27 468.061 452.788 Q468.061 450.496 466.446 449.211 Q464.849 447.909 461.984 447.909 L458.963 447.909 L458.963 445.027 L462.123 445.027 Q464.71 445.027 466.081 444.003 Q467.453 442.961 467.453 441.017 Q467.453 439.02 466.029 437.961 Q464.623 436.885 461.984 436.885 Q460.543 436.885 458.894 437.197 Q457.245 437.51 455.265 438.17 L455.265 435.045 Q457.262 434.489 458.998 434.211 Q460.752 433.934 462.297 433.934 Q466.29 433.934 468.616 435.756 Q470.942 437.562 470.942 440.652 Q470.942 442.805 469.71 444.298 Q468.477 445.774 466.203 446.347 Z" fill="#000000" fill-rule="evenodd" fill-opacity="1" /><path clip-path="url(#clip930)" d="M 0 0 M594.016 509.556 L585.162 523.393 L594.016 523.393 L594.016 509.556 M593.096 506.501 L597.506 506.501 L597.506 523.393 L601.204 523.393 L601.204 526.31 L597.506 526.31 L597.506 532.421 L594.016 532.421 L594.016 526.31 L582.315 526.31 L582.315 522.924 L593.096 506.501 Z" fill="#000000" fill-rule="evenodd" fill-opacity="1" /><path clip-path="url(#clip930)" d="M 0 0 M540.798 434.402 L554.566 434.402 L554.566 437.354 L544.01 437.354 L544.01 443.708 Q544.774 443.447 545.538 443.326 Q546.302 443.187 547.066 443.187 Q551.406 443.187 553.941 445.565 Q556.475 447.944 556.475 452.006 Q556.475 456.19 553.871 458.517 Q551.267 460.826 546.528 460.826 Q544.896 460.826 543.194 460.548 Q541.51 460.27 539.705 459.715 L539.705 456.19 Q541.267 457.041 542.934 457.458 Q544.601 457.874 546.458 457.874 Q549.462 457.874 551.215 456.295 Q552.969 454.715 552.969 452.006 Q552.969 449.298 551.215 447.718 Q549.462 446.138 546.458 446.138 Q545.052 446.138 543.646 446.451 Q542.257 446.763 540.798 447.423 L540.798 434.402 Z" fill="#000000" fill-rule="evenodd" fill-opacity="1" /><path clip-path="url(#clip930)" d="M 0 0 M634.179 445.965 Q631.818 445.965 630.429 447.579 Q629.057 449.194 629.057 452.006 Q629.057 454.802 630.429 456.433 Q631.818 458.048 634.179 458.048 Q636.54 458.048 637.911 456.433 Q639.3 454.802 639.3 452.006 Q639.3 449.194 637.911 447.579 Q636.54 445.965 634.179 445.965 M641.14 434.975 L641.14 438.17 Q639.821 437.545 638.467 437.215 Q637.13 436.885 635.811 436.885 Q632.338 436.885 630.498 439.229 Q628.675 441.572 628.415 446.312 Q629.439 444.802 630.984 444.003 Q632.529 443.187 634.387 443.187 Q638.293 443.187 640.55 445.565 Q642.824 447.927 642.824 452.006 Q642.824 455.999 640.463 458.413 Q638.102 460.826 634.179 460.826 Q629.682 460.826 627.304 457.388 Q624.925 453.933 624.925 447.388 Q624.925 441.243 627.842 437.597 Q630.758 433.934 635.672 433.934 Q636.991 433.934 638.328 434.194 Q639.682 434.454 641.14 434.975 Z" fill="#000000" fill-rule="evenodd" fill-opacity="1" /><path clip-path="url(#clip930)" d="M 0 0 M156.716 673.666 L162.445 673.666 L162.445 653.892 L156.213 655.142 L156.213 651.947 L162.41 650.697 L165.917 650.697 L165.917 673.666 L171.647 673.666 L171.647 676.617 L156.716 676.617 L156.716 673.666 Z" fill="#000000" fill-rule="evenodd" fill-opacity="1" /><path clip-path="url(#clip930)" d="M 0 0 M178.834 676.079 L178.834 672.885 Q180.153 673.51 181.508 673.84 Q182.862 674.169 184.164 674.169 Q187.636 674.169 189.459 671.843 Q191.299 669.499 191.56 664.742 Q190.553 666.235 189.008 667.034 Q187.462 667.833 185.587 667.833 Q181.699 667.833 179.424 665.489 Q177.167 663.128 177.167 659.048 Q177.167 655.055 179.528 652.642 Q181.89 650.229 185.813 650.229 Q190.31 650.229 192.671 653.683 Q195.049 657.121 195.049 663.683 Q195.049 669.812 192.133 673.475 Q189.233 677.121 184.32 677.121 Q183.001 677.121 181.646 676.86 Q180.292 676.6 178.834 676.079 M185.813 665.09 Q188.174 665.09 189.546 663.475 Q190.935 661.86 190.935 659.048 Q190.935 656.253 189.546 654.638 Q188.174 653.006 185.813 653.006 Q183.452 653.006 182.063 654.638 Q180.692 656.253 180.692 659.048 Q180.692 661.86 182.063 663.475 Q183.452 665.09 185.813 665.09 Z" fill="#000000" fill-rule="evenodd" fill-opacity="1" /><path clip-path="url(#clip930)" d="M 0 0 M117.821 601.568 L130.061 601.568 L130.061 604.519 L113.602 604.519 L113.602 601.568 Q115.599 599.502 119.036 596.029 Q122.491 592.54 123.377 591.533 Q125.061 589.641 125.72 588.338 Q126.397 587.019 126.397 585.752 Q126.397 583.686 124.939 582.384 Q123.498 581.082 121.172 581.082 Q119.522 581.082 117.682 581.654 Q115.859 582.227 113.776 583.391 L113.776 579.849 Q115.894 578.998 117.734 578.564 Q119.575 578.13 121.102 578.13 Q125.13 578.13 127.526 580.144 Q129.922 582.158 129.922 585.526 Q129.922 587.123 129.314 588.564 Q128.724 589.988 127.144 591.932 Q126.71 592.436 124.384 594.849 Q122.057 597.245 117.821 601.568 Z" fill="#000000" fill-rule="evenodd" fill-opacity="1" /><path clip-path="url(#clip930)" d="M 0 0 M144.922 580.908 Q142.213 580.908 140.842 583.582 Q139.488 586.238 139.488 591.585 Q139.488 596.915 140.842 599.588 Q142.213 602.245 144.922 602.245 Q147.647 602.245 149.001 599.588 Q150.373 596.915 150.373 591.585 Q150.373 586.238 149.001 583.582 Q147.647 580.908 144.922 580.908 M144.922 578.13 Q149.279 578.13 151.571 581.585 Q153.88 585.023 153.88 591.585 Q153.88 598.13 151.571 601.585 Q149.279 605.022 144.922 605.022 Q140.564 605.022 138.255 601.585 Q135.963 598.13 135.963 591.585 Q135.963 585.023 138.255 581.585 Q140.564 578.13 144.922 578.13 Z" fill="#000000" fill-rule="evenodd" fill-opacity="1" /><path clip-path="url(#clip930)" d="M 0 0 M203.042 601.568 L215.281 601.568 L215.281 604.519 L198.823 604.519 L198.823 601.568 Q200.819 599.502 204.257 596.029 Q207.712 592.54 208.597 591.533 Q210.281 589.641 210.941 588.338 Q211.618 587.019 211.618 585.752 Q211.618 583.686 210.16 582.384 Q208.719 581.082 206.392 581.082 Q204.743 581.082 202.903 581.654 Q201.08 582.227 198.996 583.391 L198.996 579.849 Q201.114 578.998 202.955 578.564 Q204.795 578.13 206.323 578.13 Q210.351 578.13 212.746 580.144 Q215.142 582.158 215.142 585.526 Q215.142 587.123 214.535 588.564 Q213.944 589.988 212.364 591.932 Q211.93 592.436 209.604 594.849 Q207.278 597.245 203.042 601.568 Z" fill="#000000" fill-rule="evenodd" fill-opacity="1" /><path clip-path="url(#clip930)" d="M 0 0 M223.25 601.568 L228.979 601.568 L228.979 581.793 L222.746 583.043 L222.746 579.849 L228.944 578.599 L232.451 578.599 L232.451 601.568 L238.18 601.568 L238.18 604.519 L223.25 604.519 L223.25 601.568 Z" fill="#000000" fill-rule="evenodd" fill-opacity="1" /><path clip-path="url(#clip930)" d="M 0 0 M330.872 673.666 L343.112 673.666 L343.112 676.617 L326.654 676.617 L326.654 673.666 Q328.65 671.6 332.088 668.128 Q335.542 664.638 336.428 663.631 Q338.112 661.739 338.772 660.437 Q339.449 659.117 339.449 657.85 Q339.449 655.784 337.99 654.482 Q336.549 653.18 334.223 653.18 Q332.574 653.18 330.733 653.753 Q328.91 654.326 326.827 655.489 L326.827 651.947 Q328.945 651.097 330.785 650.663 Q332.626 650.229 334.154 650.229 Q338.181 650.229 340.577 652.242 Q342.973 654.256 342.973 657.624 Q342.973 659.222 342.365 660.663 Q341.775 662.086 340.195 664.031 Q339.761 664.534 337.435 666.947 Q335.108 669.343 330.872 673.666 Z" fill="#000000" fill-rule="evenodd" fill-opacity="1" /><path clip-path="url(#clip930)" d="M 0 0 M353.494 673.666 L365.733 673.666 L365.733 676.617 L349.275 676.617 L349.275 673.666 Q351.271 671.6 354.709 668.128 Q358.164 664.638 359.049 663.631 Q360.733 661.739 361.393 660.437 Q362.07 659.117 362.07 657.85 Q362.07 655.784 360.612 654.482 Q359.171 653.18 356.844 653.18 Q355.195 653.18 353.355 653.753 Q351.532 654.326 349.449 655.489 L349.449 651.947 Q351.567 651.097 353.407 650.663 Q355.247 650.229 356.775 650.229 Q360.803 650.229 363.198 652.242 Q365.594 654.256 365.594 657.624 Q365.594 659.222 364.987 660.663 Q364.396 662.086 362.817 664.031 Q362.383 664.534 360.056 666.947 Q357.73 669.343 353.494 673.666 Z" fill="#000000" fill-rule="evenodd" fill-opacity="1" /><path clip-path="url(#clip930)" d="M 0 0 M288.262 601.568 L300.502 601.568 L300.502 604.519 L284.043 604.519 L284.043 601.568 Q286.04 599.502 289.477 596.029 Q292.932 592.54 293.818 591.533 Q295.502 589.641 296.161 588.338 Q296.838 587.019 296.838 585.752 Q296.838 583.686 295.38 582.384 Q293.939 581.082 291.613 581.082 Q289.963 581.082 288.123 581.654 Q286.3 582.227 284.217 583.391 L284.217 579.849 Q286.335 578.998 288.175 578.564 Q290.015 578.13 291.543 578.13 Q295.571 578.13 297.967 580.144 Q300.363 582.158 300.363 585.526 Q300.363 587.123 299.755 588.564 Q299.165 589.988 297.585 591.932 Q297.151 592.436 294.824 594.849 Q292.498 597.245 288.262 601.568 Z" fill="#000000" fill-rule="evenodd" fill-opacity="1" /><path clip-path="url(#clip930)" d="M 0 0 M318.488 590.543 Q321.005 591.082 322.411 592.783 Q323.835 594.484 323.835 596.984 Q323.835 600.821 321.196 602.922 Q318.557 605.022 313.696 605.022 Q312.064 605.022 310.328 604.693 Q308.609 604.38 306.769 603.738 L306.769 600.352 Q308.227 601.203 309.963 601.637 Q311.699 602.071 313.592 602.071 Q316.89 602.071 318.609 600.769 Q320.345 599.467 320.345 596.984 Q320.345 594.693 318.731 593.408 Q317.133 592.106 314.269 592.106 L311.248 592.106 L311.248 589.224 L314.408 589.224 Q316.995 589.224 318.366 588.2 Q319.738 587.158 319.738 585.214 Q319.738 583.217 318.314 582.158 Q316.908 581.082 314.269 581.082 Q312.828 581.082 311.179 581.394 Q309.529 581.707 307.55 582.366 L307.55 579.241 Q309.547 578.686 311.283 578.408 Q313.036 578.13 314.581 578.13 Q318.574 578.13 320.901 579.953 Q323.227 581.759 323.227 584.849 Q323.227 587.002 321.994 588.495 Q320.762 589.97 318.488 590.543 Z" fill="#000000" fill-rule="evenodd" fill-opacity="1" /><path clip-path="url(#clip930)" d="M 0 0 M373.483 601.568 L385.722 601.568 L385.722 604.519 L369.264 604.519 L369.264 601.568 Q371.26 599.502 374.698 596.029 Q378.153 592.54 379.038 591.533 Q380.722 589.641 381.382 588.338 Q382.059 587.019 382.059 585.752 Q382.059 583.686 380.601 582.384 Q379.16 581.082 376.833 581.082 Q375.184 581.082 373.344 581.654 Q371.521 582.227 369.437 583.391 L369.437 579.849 Q371.555 578.998 373.396 578.564 Q375.236 578.13 376.764 578.13 Q380.791 578.13 383.187 580.144 Q385.583 582.158 385.583 585.526 Q385.583 587.123 384.976 588.564 Q384.385 589.988 382.805 591.932 Q382.371 592.436 380.045 594.849 Q377.719 597.245 373.483 601.568 Z" fill="#000000" fill-rule="evenodd" fill-opacity="1" /><path clip-path="url(#clip930)" d="M 0 0 M402.718 581.654 L393.864 595.491 L402.718 595.491 L402.718 581.654 M401.798 578.599 L406.208 578.599 L406.208 595.491 L409.906 595.491 L409.906 598.408 L406.208 598.408 L406.208 604.519 L402.718 604.519 L402.718 598.408 L391.017 598.408 L391.017 595.022 L401.798 578.599 Z" fill="#000000" fill-rule="evenodd" fill-opacity="1" /><path clip-path="url(#clip930)" d="M 0 0 M501.313 673.666 L513.553 673.666 L513.553 676.617 L497.094 676.617 L497.094 673.666 Q499.091 671.6 502.528 668.128 Q505.983 664.638 506.869 663.631 Q508.553 661.739 509.212 660.437 Q509.89 659.117 509.89 657.85 Q509.89 655.784 508.431 654.482 Q506.99 653.18 504.664 653.18 Q503.015 653.18 501.174 653.753 Q499.351 654.326 497.268 655.489 L497.268 651.947 Q499.386 651.097 501.226 650.663 Q503.067 650.229 504.594 650.229 Q508.622 650.229 511.018 652.242 Q513.414 654.256 513.414 657.624 Q513.414 659.222 512.806 660.663 Q512.216 662.086 510.636 664.031 Q510.202 664.534 507.876 666.947 Q505.549 669.343 501.313 673.666 Z" fill="#000000" fill-rule="evenodd" fill-opacity="1" /><path clip-path="url(#clip930)" d="M 0 0 M520.949 650.697 L534.716 650.697 L534.716 653.649 L524.16 653.649 L524.16 660.003 Q524.924 659.742 525.688 659.621 Q526.452 659.482 527.216 659.482 Q531.556 659.482 534.091 661.86 Q536.626 664.239 536.626 668.301 Q536.626 672.485 534.021 674.812 Q531.417 677.121 526.678 677.121 Q525.046 677.121 523.344 676.843 Q521.66 676.565 519.855 676.01 L519.855 672.485 Q521.417 673.336 523.084 673.753 Q524.751 674.169 526.608 674.169 Q529.612 674.169 531.365 672.59 Q533.119 671.01 533.119 668.301 Q533.119 665.593 531.365 664.013 Q529.612 662.433 526.608 662.433 Q525.202 662.433 523.796 662.746 Q522.407 663.058 520.949 663.718 L520.949 650.697 Z" fill="#000000" fill-rule="evenodd" fill-opacity="1" /><path clip-path="url(#clip930)" d="M 0 0 M458.703 601.568 L470.942 601.568 L470.942 604.519 L454.484 604.519 L454.484 601.568 Q456.481 599.502 459.918 596.029 Q463.373 592.54 464.259 591.533 Q465.943 589.641 466.602 588.338 Q467.279 587.019 467.279 585.752 Q467.279 583.686 465.821 582.384 Q464.38 581.082 462.054 581.082 Q460.404 581.082 458.564 581.654 Q456.741 582.227 454.658 583.391 L454.658 579.849 Q456.776 578.998 458.616 578.564 Q460.456 578.13 461.984 578.13 Q466.012 578.13 468.408 580.144 Q470.804 582.158 470.804 585.526 Q470.804 587.123 470.196 588.564 Q469.606 589.988 468.026 591.932 Q467.592 592.436 465.265 594.849 Q462.939 597.245 458.703 601.568 Z" fill="#000000" fill-rule="evenodd" fill-opacity="1" /><path clip-path="url(#clip930)" d="M 0 0 M486.238 590.161 Q483.876 590.161 482.488 591.776 Q481.116 593.391 481.116 596.203 Q481.116 598.998 482.488 600.63 Q483.876 602.245 486.238 602.245 Q488.599 602.245 489.97 600.63 Q491.359 598.998 491.359 596.203 Q491.359 593.391 489.97 591.776 Q488.599 590.161 486.238 590.161 M493.199 579.172 L493.199 582.366 Q491.88 581.741 490.526 581.411 Q489.189 581.082 487.869 581.082 Q484.397 581.082 482.557 583.425 Q480.734 585.769 480.474 590.509 Q481.498 588.998 483.043 588.2 Q484.588 587.384 486.446 587.384 Q490.352 587.384 492.609 589.762 Q494.883 592.123 494.883 596.203 Q494.883 600.196 492.522 602.609 Q490.161 605.022 486.238 605.022 Q481.741 605.022 479.363 601.585 Q476.984 598.13 476.984 591.585 Q476.984 585.439 479.901 581.793 Q482.817 578.13 487.731 578.13 Q489.05 578.13 490.387 578.391 Q491.741 578.651 493.199 579.172 Z" fill="#000000" fill-rule="evenodd" fill-opacity="1" /><path clip-path="url(#clip930)" d="M 0 0 M543.923 601.568 L556.163 601.568 L556.163 604.519 L539.705 604.519 L539.705 601.568 Q541.701 599.502 545.139 596.029 Q548.594 592.54 549.479 591.533 Q551.163 589.641 551.823 588.338 Q552.5 587.019 552.5 585.752 Q552.5 583.686 551.041 582.384 Q549.601 581.082 547.274 581.082 Q545.625 581.082 543.785 581.654 Q541.962 582.227 539.878 583.391 L539.878 579.849 Q541.996 578.998 543.837 578.564 Q545.677 578.13 547.205 578.13 Q551.232 578.13 553.628 580.144 Q556.024 582.158 556.024 585.526 Q556.024 587.123 555.416 588.564 Q554.826 589.988 553.246 591.932 Q552.812 592.436 550.486 594.849 Q548.16 597.245 543.923 601.568 Z" fill="#000000" fill-rule="evenodd" fill-opacity="1" /><path clip-path="url(#clip930)" d="M 0 0 M562.639 578.599 L579.305 578.599 L579.305 580.092 L569.896 604.519 L566.232 604.519 L575.086 581.55 L562.639 581.55 L562.639 578.599 Z" fill="#000000" fill-rule="evenodd" fill-opacity="1" /><path clip-path="url(#clip930)" d="M 0 0 M671.754 673.666 L683.994 673.666 L683.994 676.617 L667.535 676.617 L667.535 673.666 Q669.532 671.6 672.969 668.128 Q676.424 664.638 677.31 663.631 Q678.994 661.739 679.653 660.437 Q680.331 659.117 680.331 657.85 Q680.331 655.784 678.872 654.482 Q677.431 653.18 675.105 653.18 Q673.456 653.18 671.615 653.753 Q669.792 654.326 667.709 655.489 L667.709 651.947 Q669.827 651.097 671.667 650.663 Q673.508 650.229 675.035 650.229 Q679.063 650.229 681.459 652.242 Q683.855 654.256 683.855 657.624 Q683.855 659.222 683.247 660.663 Q682.657 662.086 681.077 664.031 Q680.643 664.534 678.317 666.947 Q675.99 669.343 671.754 673.666 Z" fill="#000000" fill-rule="evenodd" fill-opacity="1" /><path clip-path="url(#clip930)" d="M 0 0 M698.855 664.308 Q696.355 664.308 694.914 665.645 Q693.49 666.982 693.49 669.326 Q693.49 671.669 694.914 673.006 Q696.355 674.343 698.855 674.343 Q701.355 674.343 702.796 673.006 Q704.237 671.652 704.237 669.326 Q704.237 666.982 702.796 665.645 Q701.372 664.308 698.855 664.308 M695.348 662.815 Q693.091 662.26 691.823 660.715 Q690.574 659.169 690.574 656.947 Q690.574 653.84 692.778 652.034 Q695.001 650.229 698.855 650.229 Q702.726 650.229 704.931 652.034 Q707.136 653.84 707.136 656.947 Q707.136 659.169 705.869 660.715 Q704.619 662.26 702.379 662.815 Q704.914 663.406 706.32 665.124 Q707.744 666.843 707.744 669.326 Q707.744 673.093 705.435 675.107 Q703.143 677.121 698.855 677.121 Q694.567 677.121 692.258 675.107 Q689.966 673.093 689.966 669.326 Q689.966 666.843 691.389 665.124 Q692.813 663.406 695.348 662.815 M694.063 657.277 Q694.063 659.291 695.313 660.419 Q696.58 661.548 698.855 661.548 Q701.112 661.548 702.379 660.419 Q703.664 659.291 703.664 657.277 Q703.664 655.263 702.379 654.135 Q701.112 653.006 698.855 653.006 Q696.58 653.006 695.313 654.135 Q694.063 655.263 694.063 657.277 Z" fill="#000000" fill-rule="evenodd" fill-opacity="1" /><path clip-path="url(#clip930)" d="M 0 0 M629.144 601.568 L641.383 601.568 L641.383 604.519 L624.925 604.519 L624.925 601.568 Q626.922 599.502 630.359 596.029 Q633.814 592.54 634.699 591.533 Q636.383 589.641 637.043 588.338 Q637.72 587.019 637.72 585.752 Q637.72 583.686 636.262 582.384 Q634.821 581.082 632.495 581.082 Q630.845 581.082 629.005 581.654 Q627.182 582.227 625.099 583.391 L625.099 579.849 Q627.217 578.998 629.057 578.564 Q630.897 578.13 632.425 578.13 Q636.453 578.13 638.849 580.144 Q641.245 582.158 641.245 585.526 Q641.245 587.123 640.637 588.564 Q640.047 589.988 638.467 591.932 Q638.033 592.436 635.706 594.849 Q633.38 597.245 629.144 601.568 Z" fill="#000000" fill-rule="evenodd" fill-opacity="1" /><path clip-path="url(#clip930)" d="M 0 0 M648.849 603.981 L648.849 600.786 Q650.168 601.411 651.522 601.741 Q652.876 602.071 654.179 602.071 Q657.651 602.071 659.474 599.745 Q661.314 597.401 661.574 592.644 Q660.567 594.137 659.022 594.936 Q657.477 595.734 655.602 595.734 Q651.713 595.734 649.439 593.391 Q647.182 591.029 647.182 586.95 Q647.182 582.957 649.543 580.543 Q651.904 578.13 655.828 578.13 Q660.324 578.13 662.685 581.585 Q665.064 585.023 665.064 591.585 Q665.064 597.713 662.147 601.377 Q659.248 605.022 654.335 605.022 Q653.015 605.022 651.661 604.762 Q650.307 604.502 648.849 603.981 M655.828 592.991 Q658.189 592.991 659.56 591.377 Q660.949 589.762 660.949 586.95 Q660.949 584.154 659.56 582.54 Q658.189 580.908 655.828 580.908 Q653.467 580.908 652.078 582.54 Q650.706 584.154 650.706 586.95 Q650.706 589.762 652.078 591.377 Q653.467 592.991 655.828 592.991 Z" fill="#000000" fill-rule="evenodd" fill-opacity="1" /><path clip-path="url(#clip930)" d="M 0 0 M721.864 590.543 Q724.382 591.082 725.788 592.783 Q727.212 594.484 727.212 596.984 Q727.212 600.821 724.573 602.922 Q721.934 605.022 717.073 605.022 Q715.441 605.022 713.705 604.693 Q711.986 604.38 710.146 603.738 L710.146 600.352 Q711.604 601.203 713.34 601.637 Q715.076 602.071 716.969 602.071 Q720.267 602.071 721.986 600.769 Q723.722 599.467 723.722 596.984 Q723.722 594.693 722.107 593.408 Q720.51 592.106 717.646 592.106 L714.625 592.106 L714.625 589.224 L717.785 589.224 Q720.371 589.224 721.743 588.2 Q723.114 587.158 723.114 585.214 Q723.114 583.217 721.691 582.158 Q720.285 581.082 717.646 581.082 Q716.205 581.082 714.555 581.394 Q712.906 581.707 710.927 582.366 L710.927 579.241 Q712.923 578.686 714.66 578.408 Q716.413 578.13 717.958 578.13 Q721.951 578.13 724.278 579.953 Q726.604 581.759 726.604 584.849 Q726.604 587.002 725.371 588.495 Q724.139 589.97 721.864 590.543 Z" fill="#000000" fill-rule="evenodd" fill-opacity="1" /><path clip-path="url(#clip930)" d="M 0 0 M741.361 580.908 Q738.652 580.908 737.281 583.582 Q735.927 586.238 735.927 591.585 Q735.927 596.915 737.281 599.588 Q738.652 602.245 741.361 602.245 Q744.086 602.245 745.441 599.588 Q746.812 596.915 746.812 591.585 Q746.812 586.238 745.441 583.582 Q744.086 580.908 741.361 580.908 M741.361 578.13 Q745.718 578.13 748.01 581.585 Q750.319 585.023 750.319 591.585 Q750.319 598.13 748.01 601.585 Q745.718 605.022 741.361 605.022 Q737.003 605.022 734.694 601.585 Q732.402 598.13 732.402 591.585 Q732.402 585.023 734.694 581.585 Q737.003 578.13 741.361 578.13 Z" fill="#000000" fill-rule="evenodd" fill-opacity="1" /><circle clip-path="url(#clip932)" cx="113.602" cy="179.705" r="14" fill="#0000ff" fill-rule="evenodd" fill-opacity="1" stroke="none"/>
<circle clip-path="url(#clip932)" cx="113.602" cy="468.098" r="14" fill="#0000ff" fill-rule="evenodd" fill-opacity="1" stroke="none"/>
<circle clip-path="url(#clip932)" cx="241.433" cy="540.197" r="14" fill="#0000ff" fill-rule="evenodd" fill-opacity="1" stroke="none"/>
<circle clip-path="url(#clip932)" cx="198.823" cy="468.098" r="14" fill="#0000ff" fill-rule="evenodd" fill-opacity="1" stroke="none"/>
<circle clip-path="url(#clip932)" cx="284.043" cy="468.098" r="14" fill="#0000ff" fill-rule="evenodd" fill-opacity="1" stroke="none"/>
<circle clip-path="url(#clip932)" cx="156.213" cy="396" r="14" fill="#0000ff" fill-rule="evenodd" fill-opacity="1" stroke="none"/>
<circle clip-path="url(#clip932)" cx="113.602" cy="323.902" r="14" fill="#0000ff" fill-rule="evenodd" fill-opacity="1" stroke="none"/>
<circle clip-path="url(#clip932)" cx="198.823" cy="323.902" r="14" fill="#0000ff" fill-rule="evenodd" fill-opacity="1" stroke="none"/>
<circle clip-path="url(#clip932)" cx="326.654" cy="396" r="14" fill="#0000ff" fill-rule="evenodd" fill-opacity="1" stroke="none"/>
<circle clip-path="url(#clip932)" cx="284.043" cy="323.902" r="14" fill="#0000ff" fill-rule="evenodd" fill-opacity="1" stroke="none"/>
<circle clip-path="url(#clip932)" cx="369.264" cy="323.902" r="14" fill="#0000ff" fill-rule="evenodd" fill-opacity="1" stroke="none"/>
<path clip-path="url(#clip930)" d="M 0 0 M122.856 157.571 Q120.495 157.571 119.106 159.186 Q117.734 160.801 117.734 163.613 Q117.734 166.408 119.106 168.04 Q120.495 169.655 122.856 169.655 Q125.217 169.655 126.588 168.04 Q127.977 166.408 127.977 163.613 Q127.977 160.801 126.588 159.186 Q125.217 157.571 122.856 157.571 M129.818 146.582 L129.818 149.776 Q128.498 149.151 127.144 148.822 Q125.807 148.492 124.488 148.492 Q121.016 148.492 119.175 150.835 Q117.352 153.179 117.092 157.919 Q118.116 156.408 119.661 155.61 Q121.206 154.794 123.064 154.794 Q126.97 154.794 129.227 157.172 Q131.502 159.533 131.502 163.613 Q131.502 167.606 129.14 170.019 Q126.779 172.433 122.856 172.433 Q118.359 172.433 115.981 168.995 Q113.602 165.54 113.602 158.995 Q113.602 152.849 116.519 149.203 Q119.436 145.54 124.349 145.54 Q125.668 145.54 127.005 145.801 Q128.359 146.061 129.818 146.582 Z" fill="#000000" fill-rule="evenodd" fill-opacity="1" /><path clip-path="url(#clip930)" d="M 0 0 M71.4956 529.469 L77.2247 529.469 L77.2247 509.695 L70.9921 510.945 L70.9921 507.751 L77.19 506.501 L80.6969 506.501 L80.6969 529.469 L86.4261 529.469 L86.4261 532.421 L71.4956 532.421 L71.4956 529.469 Z" fill="#000000" fill-rule="evenodd" fill-opacity="1" /><path clip-path="url(#clip930)" d="M 0 0 M104.134 518.445 Q106.652 518.983 108.058 520.685 Q109.482 522.386 109.482 524.886 Q109.482 528.723 106.843 530.823 Q104.204 532.924 99.3427 532.924 Q97.7107 532.924 95.9746 532.594 Q94.2559 532.282 92.4156 531.639 L92.4156 528.254 Q93.8739 529.105 95.61 529.539 Q97.3462 529.973 99.2385 529.973 Q102.537 529.973 104.256 528.671 Q105.992 527.369 105.992 524.886 Q105.992 522.594 104.377 521.31 Q102.78 520.008 99.9156 520.008 L96.8948 520.008 L96.8948 517.126 L100.054 517.126 Q102.641 517.126 104.013 516.101 Q105.384 515.06 105.384 513.115 Q105.384 511.119 103.961 510.06 Q102.554 508.983 99.9156 508.983 Q98.4746 508.983 96.8253 509.296 Q95.176 509.608 93.1969 510.268 L93.1969 507.143 Q95.1934 506.587 96.9295 506.31 Q98.6829 506.032 100.228 506.032 Q104.221 506.032 106.547 507.855 Q108.874 509.66 108.874 512.751 Q108.874 514.903 107.641 516.396 Q106.409 517.872 104.134 518.445 Z" fill="#000000" fill-rule="evenodd" fill-opacity="1" /><path clip-path="url(#clip930)" d="M 0 0 M114.106 457.371 L119.835 457.371 L119.835 437.597 L113.602 438.847 L113.602 435.652 L119.8 434.402 L123.307 434.402 L123.307 457.371 L129.036 457.371 L129.036 460.322 L114.106 460.322 L114.106 457.371 Z" fill="#000000" fill-rule="evenodd" fill-opacity="1" /><path clip-path="url(#clip930)" d="M 0 0 M136.154 434.402 L149.922 434.402 L149.922 437.354 L139.366 437.354 L139.366 443.708 Q140.13 443.447 140.894 443.326 Q141.658 443.187 142.422 443.187 Q146.762 443.187 149.297 445.565 Q151.831 447.944 151.831 452.006 Q151.831 456.19 149.227 458.517 Q146.623 460.826 141.883 460.826 Q140.252 460.826 138.55 460.548 Q136.866 460.27 135.061 459.715 L135.061 456.19 Q136.623 457.041 138.29 457.458 Q139.956 457.874 141.814 457.874 Q144.817 457.874 146.571 456.295 Q148.324 454.715 148.324 452.006 Q148.324 449.298 146.571 447.718 Q144.817 446.138 141.814 446.138 Q140.408 446.138 139.002 446.451 Q137.613 446.763 136.154 447.423 L136.154 434.402 Z" fill="#000000" fill-rule="evenodd" fill-opacity="1" /><path clip-path="url(#clip930)" d="M 0 0 M241.937 529.469 L247.666 529.469 L247.666 509.695 L241.433 510.945 L241.433 507.751 L247.631 506.501 L251.138 506.501 L251.138 529.469 L256.867 529.469 L256.867 532.421 L241.937 532.421 L241.937 529.469 Z" fill="#000000" fill-rule="evenodd" fill-opacity="1" /><path clip-path="url(#clip930)" d="M 0 0 M271.884 518.063 Q269.523 518.063 268.134 519.678 Q266.763 521.292 266.763 524.105 Q266.763 526.9 268.134 528.532 Q269.523 530.146 271.884 530.146 Q274.245 530.146 275.617 528.532 Q277.006 526.9 277.006 524.105 Q277.006 521.292 275.617 519.678 Q274.245 518.063 271.884 518.063 M278.846 507.074 L278.846 510.268 Q277.527 509.643 276.172 509.313 Q274.836 508.983 273.516 508.983 Q270.044 508.983 268.204 511.327 Q266.381 513.671 266.12 518.41 Q267.145 516.9 268.69 516.101 Q270.235 515.285 272.093 515.285 Q275.999 515.285 278.256 517.664 Q280.53 520.025 280.53 524.105 Q280.53 528.098 278.169 530.511 Q275.808 532.924 271.884 532.924 Q267.388 532.924 265.009 529.487 Q262.631 526.032 262.631 519.487 Q262.631 513.341 265.548 509.695 Q268.464 506.032 273.377 506.032 Q274.697 506.032 276.034 506.292 Q277.388 506.553 278.846 507.074 Z" fill="#000000" fill-rule="evenodd" fill-opacity="1" /><path clip-path="url(#clip930)" d="M 0 0 M199.326 457.371 L205.055 457.371 L205.055 437.597 L198.823 438.847 L198.823 435.652 L205.021 434.402 L208.528 434.402 L208.528 457.371 L214.257 457.371 L214.257 460.322 L199.326 460.322 L199.326 457.371 Z" fill="#000000" fill-rule="evenodd" fill-opacity="1" /><path clip-path="url(#clip930)" d="M 0 0 M220.455 434.402 L237.121 434.402 L237.121 435.895 L227.712 460.322 L224.048 460.322 L232.903 437.354 L220.455 437.354 L220.455 434.402 Z" fill="#000000" fill-rule="evenodd" fill-opacity="1" /><path clip-path="url(#clip930)" d="M 0 0 M284.547 457.371 L290.276 457.371 L290.276 437.597 L284.043 438.847 L284.043 435.652 L290.241 434.402 L293.748 434.402 L293.748 457.371 L299.477 457.371 L299.477 460.322 L284.547 460.322 L284.547 457.371 Z" fill="#000000" fill-rule="evenodd" fill-opacity="1" /><path clip-path="url(#clip930)" d="M 0 0 M314.061 448.013 Q311.561 448.013 310.12 449.35 Q308.696 450.687 308.696 453.031 Q308.696 455.374 310.12 456.711 Q311.561 458.048 314.061 458.048 Q316.56 458.048 318.001 456.711 Q319.442 455.357 319.442 453.031 Q319.442 450.687 318.001 449.35 Q316.578 448.013 314.061 448.013 M310.554 446.52 Q308.297 445.965 307.029 444.42 Q305.779 442.874 305.779 440.652 Q305.779 437.545 307.984 435.739 Q310.206 433.934 314.061 433.934 Q317.932 433.934 320.137 435.739 Q322.342 437.545 322.342 440.652 Q322.342 442.874 321.074 444.42 Q319.824 445.965 317.585 446.52 Q320.12 447.111 321.526 448.829 Q322.949 450.548 322.949 453.031 Q322.949 456.798 320.64 458.812 Q318.349 460.826 314.061 460.826 Q309.772 460.826 307.463 458.812 Q305.172 456.798 305.172 453.031 Q305.172 450.548 306.595 448.829 Q308.019 447.111 310.554 446.52 M309.269 440.982 Q309.269 442.996 310.519 444.124 Q311.786 445.253 314.061 445.253 Q316.317 445.253 317.585 444.124 Q318.87 442.996 318.87 440.982 Q318.87 438.968 317.585 437.84 Q316.317 436.711 314.061 436.711 Q311.786 436.711 310.519 437.84 Q309.269 438.968 309.269 440.982 Z" fill="#000000" fill-rule="evenodd" fill-opacity="1" /><path clip-path="url(#clip930)" d="M 0 0 M160.431 385.273 L172.671 385.273 L172.671 388.224 L156.213 388.224 L156.213 385.273 Q158.209 383.207 161.647 379.734 Q165.101 376.245 165.987 375.238 Q167.671 373.346 168.331 372.044 Q169.008 370.724 169.008 369.457 Q169.008 367.391 167.549 366.089 Q166.108 364.787 163.782 364.787 Q162.133 364.787 160.292 365.36 Q158.47 365.932 156.386 367.096 L156.386 363.554 Q158.504 362.703 160.345 362.269 Q162.185 361.835 163.713 361.835 Q167.74 361.835 170.136 363.849 Q172.532 365.863 172.532 369.231 Q172.532 370.828 171.924 372.269 Q171.334 373.693 169.754 375.637 Q169.32 376.141 166.994 378.554 Q164.667 380.95 160.431 385.273 Z" fill="#000000" fill-rule="evenodd" fill-opacity="1" /><path clip-path="url(#clip930)" d="M 0 0 M187.532 375.915 Q185.032 375.915 183.591 377.252 Q182.167 378.589 182.167 380.932 Q182.167 383.276 183.591 384.613 Q185.032 385.95 187.532 385.95 Q190.032 385.95 191.473 384.613 Q192.914 383.259 192.914 380.932 Q192.914 378.589 191.473 377.252 Q190.049 375.915 187.532 375.915 M184.025 374.422 Q181.768 373.866 180.501 372.321 Q179.251 370.776 179.251 368.554 Q179.251 365.446 181.456 363.641 Q183.678 361.835 187.532 361.835 Q191.403 361.835 193.608 363.641 Q195.813 365.446 195.813 368.554 Q195.813 370.776 194.546 372.321 Q193.296 373.866 191.056 374.422 Q193.591 375.012 194.997 376.731 Q196.421 378.45 196.421 380.932 Q196.421 384.7 194.112 386.714 Q191.82 388.727 187.532 388.727 Q183.244 388.727 180.935 386.714 Q178.643 384.7 178.643 380.932 Q178.643 378.45 180.067 376.731 Q181.49 375.012 184.025 374.422 M182.74 368.884 Q182.74 370.898 183.99 372.026 Q185.258 373.155 187.532 373.155 Q189.789 373.155 191.056 372.026 Q192.341 370.898 192.341 368.884 Q192.341 366.87 191.056 365.741 Q189.789 364.613 187.532 364.613 Q185.258 364.613 183.99 365.741 Q182.74 366.87 182.74 368.884 Z" fill="#000000" fill-rule="evenodd" fill-opacity="1" /><path clip-path="url(#clip930)" d="M 0 0 M117.821 313.174 L130.061 313.174 L130.061 316.126 L113.602 316.126 L113.602 313.174 Q115.599 311.108 119.036 307.636 Q122.491 304.147 123.377 303.14 Q125.061 301.247 125.72 299.945 Q126.397 298.626 126.397 297.358 Q126.397 295.292 124.939 293.99 Q123.498 292.688 121.172 292.688 Q119.522 292.688 117.682 293.261 Q115.859 293.834 113.776 294.997 L113.776 291.456 Q115.894 290.605 117.734 290.171 Q119.575 289.737 121.102 289.737 Q125.13 289.737 127.526 291.751 Q129.922 293.765 129.922 297.133 Q129.922 298.73 129.314 300.171 Q128.724 301.595 127.144 303.539 Q126.71 304.042 124.384 306.456 Q122.057 308.851 117.821 313.174 Z" fill="#000000" fill-rule="evenodd" fill-opacity="1" /><path clip-path="url(#clip930)" d="M 0 0 M137.526 315.587 L137.526 312.393 Q138.845 313.018 140.199 313.348 Q141.554 313.678 142.856 313.678 Q146.328 313.678 148.151 311.351 Q149.991 309.008 150.251 304.251 Q149.245 305.744 147.699 306.542 Q146.154 307.341 144.279 307.341 Q140.39 307.341 138.116 304.997 Q135.859 302.636 135.859 298.556 Q135.859 294.563 138.22 292.15 Q140.581 289.737 144.505 289.737 Q149.001 289.737 151.363 293.192 Q153.741 296.629 153.741 303.192 Q153.741 309.32 150.824 312.983 Q147.925 316.629 143.012 316.629 Q141.692 316.629 140.338 316.369 Q138.984 316.108 137.526 315.587 M144.505 304.598 Q146.866 304.598 148.238 302.983 Q149.626 301.369 149.626 298.556 Q149.626 295.761 148.238 294.147 Q146.866 292.515 144.505 292.515 Q142.144 292.515 140.755 294.147 Q139.383 295.761 139.383 298.556 Q139.383 301.369 140.755 302.983 Q142.144 304.598 144.505 304.598 Z" fill="#000000" fill-rule="evenodd" fill-opacity="1" /><path clip-path="url(#clip930)" d="M 0 0 M210.542 302.15 Q213.059 302.688 214.465 304.39 Q215.889 306.091 215.889 308.591 Q215.889 312.428 213.25 314.528 Q210.611 316.629 205.75 316.629 Q204.118 316.629 202.382 316.299 Q200.663 315.987 198.823 315.344 L198.823 311.959 Q200.281 312.81 202.017 313.244 Q203.753 313.678 205.646 313.678 Q208.944 313.678 210.663 312.376 Q212.399 311.074 212.399 308.591 Q212.399 306.299 210.785 305.015 Q209.187 303.713 206.323 303.713 L203.302 303.713 L203.302 300.831 L206.462 300.831 Q209.048 300.831 210.42 299.806 Q211.792 298.765 211.792 296.82 Q211.792 294.824 210.368 293.765 Q208.962 292.688 206.323 292.688 Q204.882 292.688 203.233 293.001 Q201.583 293.313 199.604 293.973 L199.604 290.848 Q201.601 290.292 203.337 290.015 Q205.09 289.737 206.635 289.737 Q210.628 289.737 212.955 291.56 Q215.281 293.365 215.281 296.456 Q215.281 298.608 214.048 300.101 Q212.816 301.577 210.542 302.15 Z" fill="#000000" fill-rule="evenodd" fill-opacity="1" /><path clip-path="url(#clip930)" d="M 0 0 M230.038 292.515 Q227.33 292.515 225.958 295.188 Q224.604 297.845 224.604 303.192 Q224.604 308.522 225.958 311.195 Q227.33 313.851 230.038 313.851 Q232.764 313.851 234.118 311.195 Q235.489 308.522 235.489 303.192 Q235.489 297.845 234.118 295.188 Q232.764 292.515 230.038 292.515 M230.038 289.737 Q234.396 289.737 236.687 293.192 Q238.996 296.629 238.996 303.192 Q238.996 309.737 236.687 313.192 Q234.396 316.629 230.038 316.629 Q225.68 316.629 223.371 313.192 Q221.08 309.737 221.08 303.192 Q221.08 296.629 223.371 293.192 Q225.68 289.737 230.038 289.737 Z" fill="#000000" fill-rule="evenodd" fill-opacity="1" /><path clip-path="url(#clip930)" d="M 0 0 M338.372 374.248 Q340.89 374.787 342.296 376.488 Q343.719 378.189 343.719 380.689 Q343.719 384.526 341.081 386.627 Q338.442 388.727 333.581 388.727 Q331.949 388.727 330.213 388.398 Q328.494 388.085 326.654 387.443 L326.654 384.057 Q328.112 384.908 329.848 385.342 Q331.584 385.776 333.476 385.776 Q336.775 385.776 338.494 384.474 Q340.23 383.172 340.23 380.689 Q340.23 378.398 338.615 377.113 Q337.018 375.811 334.154 375.811 L331.133 375.811 L331.133 372.929 L334.292 372.929 Q336.879 372.929 338.251 371.905 Q339.622 370.863 339.622 368.919 Q339.622 366.922 338.199 365.863 Q336.792 364.787 334.154 364.787 Q332.713 364.787 331.063 365.099 Q329.414 365.412 327.435 366.071 L327.435 362.946 Q329.431 362.391 331.167 362.113 Q332.921 361.835 334.466 361.835 Q338.459 361.835 340.785 363.658 Q343.112 365.464 343.112 368.554 Q343.112 370.707 341.879 372.2 Q340.647 373.675 338.372 374.248 Z" fill="#000000" fill-rule="evenodd" fill-opacity="1" /><path clip-path="url(#clip930)" d="M 0 0 M350.976 385.273 L356.705 385.273 L356.705 365.498 L350.473 366.748 L350.473 363.554 L356.671 362.304 L360.178 362.304 L360.178 385.273 L365.907 385.273 L365.907 388.224 L350.976 388.224 L350.976 385.273 Z" fill="#000000" fill-rule="evenodd" fill-opacity="1" /><path clip-path="url(#clip930)" d="M 0 0 M295.762 302.15 Q298.279 302.688 299.686 304.39 Q301.109 306.091 301.109 308.591 Q301.109 312.428 298.47 314.528 Q295.831 316.629 290.97 316.629 Q289.338 316.629 287.602 316.299 Q285.884 315.987 284.043 315.344 L284.043 311.959 Q285.502 312.81 287.238 313.244 Q288.974 313.678 290.866 313.678 Q294.165 313.678 295.884 312.376 Q297.62 311.074 297.62 308.591 Q297.62 306.299 296.005 305.015 Q294.408 303.713 291.543 303.713 L288.522 303.713 L288.522 300.831 L291.682 300.831 Q294.269 300.831 295.64 299.806 Q297.012 298.765 297.012 296.82 Q297.012 294.824 295.588 293.765 Q294.182 292.688 291.543 292.688 Q290.102 292.688 288.453 293.001 Q286.804 293.313 284.825 293.973 L284.825 290.848 Q286.821 290.292 288.557 290.015 Q290.311 289.737 291.856 289.737 Q295.849 289.737 298.175 291.56 Q300.502 293.365 300.502 296.456 Q300.502 298.608 299.269 300.101 Q298.036 301.577 295.762 302.15 Z" fill="#000000" fill-rule="evenodd" fill-opacity="1" /><path clip-path="url(#clip930)" d="M 0 0 M310.779 313.174 L323.019 313.174 L323.019 316.126 L306.561 316.126 L306.561 313.174 Q308.557 311.108 311.995 307.636 Q315.449 304.147 316.335 303.14 Q318.019 301.247 318.679 299.945 Q319.356 298.626 319.356 297.358 Q319.356 295.292 317.897 293.99 Q316.456 292.688 314.13 292.688 Q312.481 292.688 310.64 293.261 Q308.817 293.834 306.734 294.997 L306.734 291.456 Q308.852 290.605 310.692 290.171 Q312.533 289.737 314.061 289.737 Q318.088 289.737 320.484 291.751 Q322.88 293.765 322.88 297.133 Q322.88 298.73 322.272 300.171 Q321.682 301.595 320.102 303.539 Q319.668 304.042 317.342 306.456 Q315.015 308.851 310.779 313.174 Z" fill="#000000" fill-rule="evenodd" fill-opacity="1" /><path clip-path="url(#clip930)" d="M 0 0 M380.982 302.15 Q383.5 302.688 384.906 304.39 Q386.33 306.091 386.33 308.591 Q386.33 312.428 383.691 314.528 Q381.052 316.629 376.191 316.629 Q374.559 316.629 372.823 316.299 Q371.104 315.987 369.264 315.344 L369.264 311.959 Q370.722 312.81 372.458 313.244 Q374.194 313.678 376.087 313.678 Q379.385 313.678 381.104 312.376 Q382.84 311.074 382.84 308.591 Q382.84 306.299 381.226 305.015 Q379.628 303.713 376.764 303.713 L373.743 303.713 L373.743 300.831 L376.903 300.831 Q379.489 300.831 380.861 299.806 Q382.232 298.765 382.232 296.82 Q382.232 294.824 380.809 293.765 Q379.403 292.688 376.764 292.688 Q375.323 292.688 373.673 293.001 Q372.024 293.313 370.045 293.973 L370.045 290.848 Q372.042 290.292 373.778 290.015 Q375.531 289.737 377.076 289.737 Q381.069 289.737 383.396 291.56 Q385.722 293.365 385.722 296.456 Q385.722 298.608 384.489 300.101 Q383.257 301.577 380.982 302.15 Z" fill="#000000" fill-rule="evenodd" fill-opacity="1" /><path clip-path="url(#clip930)" d="M 0 0 M403.604 302.15 Q406.121 302.688 407.527 304.39 Q408.951 306.091 408.951 308.591 Q408.951 312.428 406.312 314.528 Q403.673 316.629 398.812 316.629 Q397.18 316.629 395.444 316.299 Q393.725 315.987 391.885 315.344 L391.885 311.959 Q393.344 312.81 395.08 313.244 Q396.816 313.678 398.708 313.678 Q402.007 313.678 403.725 312.376 Q405.462 311.074 405.462 308.591 Q405.462 306.299 403.847 305.015 Q402.25 303.713 399.385 303.713 L396.364 303.713 L396.364 300.831 L399.524 300.831 Q402.111 300.831 403.482 299.806 Q404.854 298.765 404.854 296.82 Q404.854 294.824 403.43 293.765 Q402.024 292.688 399.385 292.688 Q397.944 292.688 396.295 293.001 Q394.646 293.313 392.666 293.973 L392.666 290.848 Q394.663 290.292 396.399 290.015 Q398.153 289.737 399.698 289.737 Q403.691 289.737 406.017 291.56 Q408.343 293.365 408.343 296.456 Q408.343 298.608 407.111 300.101 Q405.878 301.577 403.604 302.15 Z" fill="#000000" fill-rule="evenodd" fill-opacity="1" /><circle clip-path="url(#clip932)" cx="752.756" cy="540.197" r="14" fill="#0000ff" fill-rule="evenodd" fill-opacity="1" stroke="none"/>
<circle clip-path="url(#clip932)" cx="710.146" cy="468.098" r="14" fill="#0000ff" fill-rule="evenodd" fill-opacity="1" stroke="none"/>
<circle clip-path="url(#clip932)" cx="667.535" cy="396" r="14" fill="#0000ff" fill-rule="evenodd" fill-opacity="1" stroke="none"/>
<circle clip-path="url(#clip932)" cx="624.925" cy="323.902" r="14" fill="#0000ff" fill-rule="evenodd" fill-opacity="1" stroke="none"/>
<circle clip-path="url(#clip932)" cx="710.146" cy="323.902" r="14" fill="#0000ff" fill-rule="evenodd" fill-opacity="1" stroke="none"/>
<path clip-path="url(#clip930)" d="M 0 0 M752.756 506.501 L769.422 506.501 L769.422 507.994 L760.013 532.421 L756.35 532.421 L765.204 509.452 L752.756 509.452 L752.756 506.501 Z" fill="#000000" fill-rule="evenodd" fill-opacity="1" /><path clip-path="url(#clip930)" d="M 0 0 M719.035 448.013 Q716.535 448.013 715.094 449.35 Q713.67 450.687 713.67 453.031 Q713.67 455.374 715.094 456.711 Q716.535 458.048 719.035 458.048 Q721.534 458.048 722.975 456.711 Q724.416 455.357 724.416 453.031 Q724.416 450.687 722.975 449.35 Q721.552 448.013 719.035 448.013 M715.528 446.52 Q713.271 445.965 712.003 444.42 Q710.753 442.874 710.753 440.652 Q710.753 437.545 712.958 435.739 Q715.18 433.934 719.035 433.934 Q722.906 433.934 725.111 435.739 Q727.316 437.545 727.316 440.652 Q727.316 442.874 726.048 444.42 Q724.798 445.965 722.559 446.52 Q725.094 447.111 726.5 448.829 Q727.923 450.548 727.923 453.031 Q727.923 456.798 725.614 458.812 Q723.323 460.826 719.035 460.826 Q714.746 460.826 712.437 458.812 Q710.146 456.798 710.146 453.031 Q710.146 450.548 711.569 448.829 Q712.993 447.111 715.528 446.52 M714.243 440.982 Q714.243 442.996 715.493 444.124 Q716.76 445.253 719.035 445.253 Q721.291 445.253 722.559 444.124 Q723.844 442.996 723.844 440.982 Q723.844 438.968 722.559 437.84 Q721.291 436.711 719.035 436.711 Q716.76 436.711 715.493 437.84 Q714.243 438.968 714.243 440.982 Z" fill="#000000" fill-rule="evenodd" fill-opacity="1" /><path clip-path="url(#clip930)" d="M 0 0 M668.039 385.273 L673.768 385.273 L673.768 365.498 L667.535 366.748 L667.535 363.554 L673.733 362.304 L677.24 362.304 L677.24 385.273 L682.969 385.273 L682.969 388.224 L668.039 388.224 L668.039 385.273 Z" fill="#000000" fill-rule="evenodd" fill-opacity="1" /><path clip-path="url(#clip930)" d="M 0 0 M690.157 387.686 L690.157 384.491 Q691.476 385.116 692.83 385.446 Q694.185 385.776 695.487 385.776 Q698.959 385.776 700.782 383.45 Q702.622 381.106 702.882 376.349 Q701.876 377.842 700.33 378.641 Q698.785 379.439 696.91 379.439 Q693.021 379.439 690.747 377.096 Q688.49 374.734 688.49 370.655 Q688.49 366.662 690.851 364.248 Q693.212 361.835 697.136 361.835 Q701.632 361.835 703.994 365.29 Q706.372 368.728 706.372 375.29 Q706.372 381.418 703.455 385.082 Q700.556 388.727 695.643 388.727 Q694.323 388.727 692.969 388.467 Q691.615 388.207 690.157 387.686 M697.136 376.696 Q699.497 376.696 700.869 375.082 Q702.257 373.467 702.257 370.655 Q702.257 367.86 700.869 366.245 Q699.497 364.613 697.136 364.613 Q694.775 364.613 693.386 366.245 Q692.014 367.86 692.014 370.655 Q692.014 373.467 693.386 375.082 Q694.775 376.696 697.136 376.696 Z" fill="#000000" fill-rule="evenodd" fill-opacity="1" /><path clip-path="url(#clip930)" d="M 0 0 M629.144 313.174 L641.383 313.174 L641.383 316.126 L624.925 316.126 L624.925 313.174 Q626.922 311.108 630.359 307.636 Q633.814 304.147 634.699 303.14 Q636.383 301.247 637.043 299.945 Q637.72 298.626 637.72 297.358 Q637.72 295.292 636.262 293.99 Q634.821 292.688 632.495 292.688 Q630.845 292.688 629.005 293.261 Q627.182 293.834 625.099 294.997 L625.099 291.456 Q627.217 290.605 629.057 290.171 Q630.897 289.737 632.425 289.737 Q636.453 289.737 638.849 291.751 Q641.245 293.765 641.245 297.133 Q641.245 298.73 640.637 300.171 Q640.047 301.595 638.467 303.539 Q638.033 304.042 635.706 306.456 Q633.38 308.851 629.144 313.174 Z" fill="#000000" fill-rule="evenodd" fill-opacity="1" /><path clip-path="url(#clip930)" d="M 0 0 M656.244 292.515 Q653.536 292.515 652.165 295.188 Q650.81 297.845 650.81 303.192 Q650.81 308.522 652.165 311.195 Q653.536 313.851 656.244 313.851 Q658.97 313.851 660.324 311.195 Q661.696 308.522 661.696 303.192 Q661.696 297.845 660.324 295.188 Q658.97 292.515 656.244 292.515 M656.244 289.737 Q660.602 289.737 662.894 293.192 Q665.203 296.629 665.203 303.192 Q665.203 309.737 662.894 313.192 Q660.602 316.629 656.244 316.629 Q651.887 316.629 649.578 313.192 Q647.286 309.737 647.286 303.192 Q647.286 296.629 649.578 293.192 Q651.887 289.737 656.244 289.737 Z" fill="#000000" fill-rule="evenodd" fill-opacity="1" /><path clip-path="url(#clip930)" d="M 0 0 M714.364 313.174 L726.604 313.174 L726.604 316.126 L710.146 316.126 L710.146 313.174 Q712.142 311.108 715.58 307.636 Q719.035 304.147 719.92 303.14 Q721.604 301.247 722.264 299.945 Q722.941 298.626 722.941 297.358 Q722.941 295.292 721.482 293.99 Q720.041 292.688 717.715 292.688 Q716.066 292.688 714.226 293.261 Q712.403 293.834 710.319 294.997 L710.319 291.456 Q712.437 290.605 714.278 290.171 Q716.118 289.737 717.646 289.737 Q721.673 289.737 724.069 291.751 Q726.465 293.765 726.465 297.133 Q726.465 298.73 725.857 300.171 Q725.267 301.595 723.687 303.539 Q723.253 304.042 720.927 306.456 Q718.6 308.851 714.364 313.174 Z" fill="#000000" fill-rule="evenodd" fill-opacity="1" /><path clip-path="url(#clip930)" d="M 0 0 M734.573 313.174 L740.302 313.174 L740.302 293.4 L734.069 294.65 L734.069 291.456 L740.267 290.206 L743.774 290.206 L743.774 313.174 L749.503 313.174 L749.503 316.126 L734.573 316.126 L734.573 313.174 Z" fill="#000000" fill-rule="evenodd" fill-opacity="1" /><circle clip-path="url(#clip932)" cx="241.433" cy="251.803" r="14" fill="#0000ff" fill-rule="evenodd" fill-opacity="1" stroke="none"/>
<circle clip-path="url(#clip932)" cx="198.823" cy="179.705" r="14" fill="#0000ff" fill-rule="evenodd" fill-opacity="1" stroke="none"/>
<circle clip-path="url(#clip932)" cx="284.043" cy="179.705" r="14" fill="#0000ff" fill-rule="evenodd" fill-opacity="1" stroke="none"/>
<circle clip-path="url(#clip932)" cx="411.874" cy="251.803" r="14" fill="#0000ff" fill-rule="evenodd" fill-opacity="1" stroke="none"/>
<circle clip-path="url(#clip932)" cx="369.264" cy="179.705" r="14" fill="#0000ff" fill-rule="evenodd" fill-opacity="1" stroke="none"/>
<circle clip-path="url(#clip932)" cx="454.484" cy="179.705" r="14" fill="#0000ff" fill-rule="evenodd" fill-opacity="1" stroke="none"/>
<circle clip-path="url(#clip932)" cx="582.315" cy="251.803" r="14" fill="#0000ff" fill-rule="evenodd" fill-opacity="1" stroke="none"/>
<circle clip-path="url(#clip932)" cx="539.705" cy="179.705" r="14" fill="#0000ff" fill-rule="evenodd" fill-opacity="1" stroke="none"/>
<circle clip-path="url(#clip932)" cx="624.925" cy="179.705" r="14" fill="#0000ff" fill-rule="evenodd" fill-opacity="1" stroke="none"/>
<circle clip-path="url(#clip932)" cx="752.756" cy="251.803" r="14" fill="#0000ff" fill-rule="evenodd" fill-opacity="1" stroke="none"/>
<circle clip-path="url(#clip932)" cx="710.146" cy="179.705" r="14" fill="#0000ff" fill-rule="evenodd" fill-opacity="1" stroke="none"/>
<circle clip-path="url(#clip932)" cx="156.213" cy="107.607" r="14" fill="#0000ff" fill-rule="evenodd" fill-opacity="1" stroke="none"/>
<circle clip-path="url(#clip932)" cx="326.654" cy="107.607" r="14" fill="#0000ff" fill-rule="evenodd" fill-opacity="1" stroke="none"/>
<circle clip-path="url(#clip932)" cx="497.094" cy="107.607" r="14" fill="#0000ff" fill-rule="evenodd" fill-opacity="1" stroke="none"/>
<circle clip-path="url(#clip932)" cx="667.535" cy="107.607" r="14" fill="#0000ff" fill-rule="evenodd" fill-opacity="1" stroke="none"/>
<circle clip-path="url(#clip932)" cx="497.094" cy="396" r="14" fill="#0000ff" fill-rule="evenodd" fill-opacity="1" stroke="none"/>
<circle clip-path="url(#clip932)" cx="454.484" cy="323.902" r="14" fill="#0000ff" fill-rule="evenodd" fill-opacity="1" stroke="none"/>
<circle clip-path="url(#clip932)" cx="539.705" cy="323.902" r="14" fill="#0000ff" fill-rule="evenodd" fill-opacity="1" stroke="none"/>
<path clip-path="url(#clip930)" d="M 0 0 M241.433 218.107 L258.1 218.107 L258.1 219.6 L248.69 244.027 L245.027 244.027 L253.881 221.059 L241.433 221.059 L241.433 218.107 Z" fill="#000000" fill-rule="evenodd" fill-opacity="1" /><path clip-path="url(#clip930)" d="M 0 0 M207.712 159.62 Q205.212 159.62 203.771 160.957 Q202.347 162.294 202.347 164.637 Q202.347 166.981 203.771 168.318 Q205.212 169.655 207.712 169.655 Q210.212 169.655 211.653 168.318 Q213.094 166.964 213.094 164.637 Q213.094 162.294 211.653 160.957 Q210.229 159.62 207.712 159.62 M204.205 158.127 Q201.948 157.571 200.68 156.026 Q199.43 154.481 199.43 152.259 Q199.43 149.151 201.635 147.346 Q203.858 145.54 207.712 145.54 Q211.583 145.54 213.788 147.346 Q215.993 149.151 215.993 152.259 Q215.993 154.481 214.726 156.026 Q213.476 157.571 211.236 158.127 Q213.771 158.717 215.177 160.436 Q216.601 162.155 216.601 164.637 Q216.601 168.405 214.292 170.419 Q212 172.433 207.712 172.433 Q203.424 172.433 201.114 170.419 Q198.823 168.405 198.823 164.637 Q198.823 162.155 200.246 160.436 Q201.67 158.717 204.205 158.127 M202.92 152.589 Q202.92 154.603 204.17 155.731 Q205.437 156.86 207.712 156.86 Q209.969 156.86 211.236 155.731 Q212.521 154.603 212.521 152.589 Q212.521 150.575 211.236 149.447 Q209.969 148.318 207.712 148.318 Q205.437 148.318 204.17 149.447 Q202.92 150.575 202.92 152.589 Z" fill="#000000" fill-rule="evenodd" fill-opacity="1" /><path clip-path="url(#clip930)" d="M 0 0 M285.71 171.391 L285.71 168.196 Q287.029 168.821 288.384 169.151 Q289.738 169.481 291.04 169.481 Q294.512 169.481 296.335 167.155 Q298.175 164.811 298.436 160.054 Q297.429 161.547 295.884 162.346 Q294.338 163.144 292.463 163.144 Q288.575 163.144 286.3 160.801 Q284.043 158.44 284.043 154.36 Q284.043 150.367 286.404 147.953 Q288.766 145.54 292.689 145.54 Q297.186 145.54 299.547 148.995 Q301.925 152.433 301.925 158.995 Q301.925 165.124 299.009 168.787 Q296.109 172.433 291.196 172.433 Q289.877 172.433 288.522 172.172 Q287.168 171.912 285.71 171.391 M292.689 160.401 Q295.05 160.401 296.422 158.787 Q297.811 157.172 297.811 154.36 Q297.811 151.565 296.422 149.95 Q295.05 148.318 292.689 148.318 Q290.328 148.318 288.939 149.95 Q287.568 151.565 287.568 154.36 Q287.568 157.172 288.939 158.787 Q290.328 160.401 292.689 160.401 Z" fill="#000000" fill-rule="evenodd" fill-opacity="1" /><path clip-path="url(#clip930)" d="M 0 0 M412.377 241.076 L418.107 241.076 L418.107 221.302 L411.874 222.552 L411.874 219.357 L418.072 218.107 L421.579 218.107 L421.579 241.076 L427.308 241.076 L427.308 244.027 L412.377 244.027 L412.377 241.076 Z" fill="#000000" fill-rule="evenodd" fill-opacity="1" /><path clip-path="url(#clip930)" d="M 0 0 M441.891 220.416 Q439.183 220.416 437.811 223.09 Q436.457 225.746 436.457 231.093 Q436.457 236.423 437.811 239.097 Q439.183 241.753 441.891 241.753 Q444.617 241.753 445.971 239.097 Q447.343 236.423 447.343 231.093 Q447.343 225.746 445.971 223.09 Q444.617 220.416 441.891 220.416 M441.891 217.639 Q446.249 217.639 448.54 221.093 Q450.85 224.531 450.85 231.093 Q450.85 237.639 448.54 241.093 Q446.249 244.531 441.891 244.531 Q437.534 244.531 435.225 241.093 Q432.933 237.639 432.933 231.093 Q432.933 224.531 435.225 221.093 Q437.534 217.639 441.891 217.639 Z" fill="#000000" fill-rule="evenodd" fill-opacity="1" /><path clip-path="url(#clip930)" d="M 0 0 M369.767 168.978 L375.496 168.978 L375.496 149.203 L369.264 150.453 L369.264 147.259 L375.462 146.009 L378.969 146.009 L378.969 168.978 L384.698 168.978 L384.698 171.929 L369.767 171.929 L369.767 168.978 Z" fill="#000000" fill-rule="evenodd" fill-opacity="1" /><path clip-path="url(#clip930)" d="M 0 0 M392.389 168.978 L398.118 168.978 L398.118 149.203 L391.885 150.453 L391.885 147.259 L398.083 146.009 L401.59 146.009 L401.59 168.978 L407.319 168.978 L407.319 171.929 L392.389 171.929 L392.389 168.978 Z" fill="#000000" fill-rule="evenodd" fill-opacity="1" /><path clip-path="url(#clip930)" d="M 0 0 M454.988 168.978 L460.717 168.978 L460.717 149.203 L454.484 150.453 L454.484 147.259 L460.682 146.009 L464.189 146.009 L464.189 168.978 L469.918 168.978 L469.918 171.929 L454.988 171.929 L454.988 168.978 Z" fill="#000000" fill-rule="evenodd" fill-opacity="1" /><path clip-path="url(#clip930)" d="M 0 0 M480.022 168.978 L492.262 168.978 L492.262 171.929 L475.804 171.929 L475.804 168.978 Q477.8 166.912 481.238 163.44 Q484.692 159.95 485.578 158.943 Q487.262 157.051 487.922 155.749 Q488.599 154.429 488.599 153.162 Q488.599 151.096 487.14 149.794 Q485.699 148.492 483.373 148.492 Q481.724 148.492 479.883 149.065 Q478.061 149.637 475.977 150.801 L475.977 147.259 Q478.095 146.408 479.936 145.974 Q481.776 145.54 483.304 145.54 Q487.331 145.54 489.727 147.554 Q492.123 149.568 492.123 152.936 Q492.123 154.533 491.515 155.974 Q490.925 157.398 489.345 159.342 Q488.911 159.846 486.585 162.259 Q484.258 164.655 480.022 168.978 Z" fill="#000000" fill-rule="evenodd" fill-opacity="1" /><path clip-path="url(#clip930)" d="M 0 0 M582.818 241.076 L588.548 241.076 L588.548 221.302 L582.315 222.552 L582.315 219.357 L588.513 218.107 L592.02 218.107 L592.02 241.076 L597.749 241.076 L597.749 244.027 L582.818 244.027 L582.818 241.076 Z" fill="#000000" fill-rule="evenodd" fill-opacity="1" /><path clip-path="url(#clip930)" d="M 0 0 M615.457 230.052 Q617.974 230.59 619.381 232.291 Q620.804 233.993 620.804 236.493 Q620.804 240.329 618.165 242.43 Q615.527 244.531 610.666 244.531 Q609.034 244.531 607.297 244.201 Q605.579 243.888 603.738 243.246 L603.738 239.861 Q605.197 240.711 606.933 241.145 Q608.669 241.579 610.561 241.579 Q613.86 241.579 615.579 240.277 Q617.315 238.975 617.315 236.493 Q617.315 234.201 615.7 232.916 Q614.103 231.614 611.238 231.614 L608.218 231.614 L608.218 228.732 L611.377 228.732 Q613.964 228.732 615.336 227.708 Q616.707 226.666 616.707 224.722 Q616.707 222.725 615.284 221.666 Q613.877 220.59 611.238 220.59 Q609.797 220.59 608.148 220.902 Q606.499 221.215 604.52 221.875 L604.52 218.75 Q606.516 218.194 608.252 217.916 Q610.006 217.639 611.551 217.639 Q615.544 217.639 617.87 219.462 Q620.197 221.267 620.197 224.357 Q620.197 226.51 618.964 228.003 Q617.731 229.479 615.457 230.052 Z" fill="#000000" fill-rule="evenodd" fill-opacity="1" /><path clip-path="url(#clip930)" d="M 0 0 M540.208 168.978 L545.937 168.978 L545.937 149.203 L539.705 150.453 L539.705 147.259 L545.903 146.009 L549.41 146.009 L549.41 168.978 L555.139 168.978 L555.139 171.929 L540.208 171.929 L540.208 168.978 Z" fill="#000000" fill-rule="evenodd" fill-opacity="1" /><path clip-path="url(#clip930)" d="M 0 0 M571.857 149.065 L563.003 162.901 L571.857 162.901 L571.857 149.065 M570.937 146.009 L575.347 146.009 L575.347 162.901 L579.045 162.901 L579.045 165.818 L575.347 165.818 L575.347 171.929 L571.857 171.929 L571.857 165.818 L560.156 165.818 L560.156 162.433 L570.937 146.009 Z" fill="#000000" fill-rule="evenodd" fill-opacity="1" /><path clip-path="url(#clip930)" d="M 0 0 M625.429 168.978 L631.158 168.978 L631.158 149.203 L624.925 150.453 L624.925 147.259 L631.123 146.009 L634.63 146.009 L634.63 168.978 L640.359 168.978 L640.359 171.929 L625.429 171.929 L625.429 168.978 Z" fill="#000000" fill-rule="evenodd" fill-opacity="1" /><path clip-path="url(#clip930)" d="M 0 0 M647.477 146.009 L661.244 146.009 L661.244 148.96 L650.689 148.96 L650.689 155.315 Q651.453 155.054 652.217 154.933 Q652.981 154.794 653.744 154.794 Q658.085 154.794 660.619 157.172 Q663.154 159.551 663.154 163.613 Q663.154 167.797 660.55 170.123 Q657.946 172.433 653.206 172.433 Q651.574 172.433 649.873 172.155 Q648.189 171.877 646.383 171.321 L646.383 167.797 Q647.946 168.648 649.613 169.064 Q651.279 169.481 653.137 169.481 Q656.14 169.481 657.894 167.901 Q659.647 166.321 659.647 163.613 Q659.647 160.905 657.894 159.325 Q656.14 157.745 653.137 157.745 Q651.731 157.745 650.324 158.058 Q648.935 158.37 647.477 159.03 L647.477 146.009 Z" fill="#000000" fill-rule="evenodd" fill-opacity="1" /><path clip-path="url(#clip930)" d="M 0 0 M753.259 241.076 L758.989 241.076 L758.989 221.302 L752.756 222.552 L752.756 219.357 L758.954 218.107 L762.461 218.107 L762.461 241.076 L768.19 241.076 L768.19 244.027 L753.259 244.027 L753.259 241.076 Z" fill="#000000" fill-rule="evenodd" fill-opacity="1" /><path clip-path="url(#clip930)" d="M 0 0 M783.207 229.67 Q780.846 229.67 779.457 231.284 Q778.086 232.899 778.086 235.711 Q778.086 238.507 779.457 240.138 Q780.846 241.753 783.207 241.753 Q785.568 241.753 786.94 240.138 Q788.329 238.507 788.329 235.711 Q788.329 232.899 786.94 231.284 Q785.568 229.67 783.207 229.67 M790.169 218.68 L790.169 221.875 Q788.849 221.25 787.495 220.92 Q786.159 220.59 784.839 220.59 Q781.367 220.59 779.527 222.934 Q777.704 225.277 777.443 230.017 Q778.468 228.507 780.013 227.708 Q781.558 226.892 783.415 226.892 Q787.322 226.892 789.579 229.27 Q791.853 231.632 791.853 235.711 Q791.853 239.704 789.492 242.118 Q787.131 244.531 783.207 244.531 Q778.711 244.531 776.332 241.093 Q773.954 237.639 773.954 231.093 Q773.954 224.948 776.87 221.302 Q779.787 217.639 784.7 217.639 Q786.02 217.639 787.356 217.899 Q788.711 218.159 790.169 218.68 Z" fill="#000000" fill-rule="evenodd" fill-opacity="1" /><path clip-path="url(#clip930)" d="M 0 0 M710.649 168.978 L716.378 168.978 L716.378 149.203 L710.146 150.453 L710.146 147.259 L716.344 146.009 L719.85 146.009 L719.85 168.978 L725.58 168.978 L725.58 171.929 L710.649 171.929 L710.649 168.978 Z" fill="#000000" fill-rule="evenodd" fill-opacity="1" /><path clip-path="url(#clip930)" d="M 0 0 M731.777 146.009 L748.444 146.009 L748.444 147.502 L739.034 171.929 L735.371 171.929 L744.225 148.96 L731.777 148.96 L731.777 146.009 Z" fill="#000000" fill-rule="evenodd" fill-opacity="1" /><path clip-path="url(#clip930)" d="M 0 0 M156.716 96.8793 L162.445 96.8793 L162.445 77.1051 L156.213 78.3551 L156.213 75.1607 L162.41 73.9107 L165.917 73.9107 L165.917 96.8793 L171.647 96.8793 L171.647 99.8307 L156.716 99.8307 L156.716 96.8793 Z" fill="#000000" fill-rule="evenodd" fill-opacity="1" /><path clip-path="url(#clip930)" d="M 0 0 M178.834 99.2925 L178.834 96.0981 Q180.153 96.7231 181.508 97.053 Q182.862 97.3828 184.164 97.3828 Q187.636 97.3828 189.459 95.0564 Q191.299 92.7127 191.56 87.9558 Q190.553 89.4488 189.008 90.2474 Q187.462 91.046 185.587 91.046 Q181.699 91.046 179.424 88.7023 Q177.167 86.3412 177.167 82.2614 Q177.167 78.2683 179.528 75.8552 Q181.89 73.442 185.813 73.442 Q190.31 73.442 192.671 76.8968 Q195.049 80.3343 195.049 86.8968 Q195.049 93.0252 192.133 96.6884 Q189.233 100.334 184.32 100.334 Q183.001 100.334 181.646 100.074 Q180.292 99.8134 178.834 99.2925 M185.813 88.303 Q188.174 88.303 189.546 86.6884 Q190.935 85.0739 190.935 82.2614 Q190.935 79.4662 189.546 77.8517 Q188.174 76.2197 185.813 76.2197 Q183.452 76.2197 182.063 77.8517 Q180.692 79.4662 180.692 82.2614 Q180.692 85.0739 182.063 86.6884 Q183.452 88.303 185.813 88.303 Z" fill="#000000" fill-rule="evenodd" fill-opacity="1" /><path clip-path="url(#clip930)" d="M 0 0 M330.872 96.8793 L343.112 96.8793 L343.112 99.8307 L326.654 99.8307 L326.654 96.8793 Q328.65 94.8134 332.088 91.3412 Q335.542 87.8516 336.428 86.8447 Q338.112 84.9523 338.772 83.6503 Q339.449 82.3308 339.449 81.0635 Q339.449 78.9975 337.99 77.6954 Q336.549 76.3933 334.223 76.3933 Q332.574 76.3933 330.733 76.9663 Q328.91 77.5392 326.827 78.7024 L326.827 75.1607 Q328.945 74.31 330.785 73.876 Q332.626 73.442 334.154 73.442 Q338.181 73.442 340.577 75.4559 Q342.973 77.4697 342.973 80.8378 Q342.973 82.435 342.365 83.8759 Q341.775 85.2995 340.195 87.244 Q339.761 87.7475 337.435 90.1606 Q335.108 92.5565 330.872 96.8793 Z" fill="#000000" fill-rule="evenodd" fill-opacity="1" /><path clip-path="url(#clip930)" d="M 0 0 M353.494 96.8793 L365.733 96.8793 L365.733 99.8307 L349.275 99.8307 L349.275 96.8793 Q351.271 94.8134 354.709 91.3412 Q358.164 87.8516 359.049 86.8447 Q360.733 84.9523 361.393 83.6503 Q362.07 82.3308 362.07 81.0635 Q362.07 78.9975 360.612 77.6954 Q359.171 76.3933 356.844 76.3933 Q355.195 76.3933 353.355 76.9663 Q351.532 77.5392 349.449 78.7024 L349.449 75.1607 Q351.567 74.31 353.407 73.876 Q355.247 73.442 356.775 73.442 Q360.803 73.442 363.198 75.4559 Q365.594 77.4697 365.594 80.8378 Q365.594 82.435 364.987 83.8759 Q364.396 85.2995 362.817 87.244 Q362.383 87.7475 360.056 90.1606 Q357.73 92.5565 353.494 96.8793 Z" fill="#000000" fill-rule="evenodd" fill-opacity="1" /><path clip-path="url(#clip930)" d="M 0 0 M501.313 96.8793 L513.553 96.8793 L513.553 99.8307 L497.094 99.8307 L497.094 96.8793 Q499.091 94.8134 502.528 91.3412 Q505.983 87.8516 506.869 86.8447 Q508.553 84.9523 509.212 83.6503 Q509.89 82.3308 509.89 81.0635 Q509.89 78.9975 508.431 77.6954 Q506.99 76.3933 504.664 76.3933 Q503.015 76.3933 501.174 76.9663 Q499.351 77.5392 497.268 78.7024 L497.268 75.1607 Q499.386 74.31 501.226 73.876 Q503.067 73.442 504.594 73.442 Q508.622 73.442 511.018 75.4559 Q513.414 77.4697 513.414 80.8378 Q513.414 82.435 512.806 83.8759 Q512.216 85.2995 510.636 87.244 Q510.202 87.7475 507.876 90.1606 Q505.549 92.5565 501.313 96.8793 Z" fill="#000000" fill-rule="evenodd" fill-opacity="1" /><path clip-path="url(#clip930)" d="M 0 0 M520.949 73.9107 L534.716 73.9107 L534.716 76.8621 L524.16 76.8621 L524.16 83.2162 Q524.924 82.9558 525.688 82.8343 Q526.452 82.6954 527.216 82.6954 Q531.556 82.6954 534.091 85.0739 Q536.626 87.4523 536.626 91.5148 Q536.626 95.6988 534.021 98.0252 Q531.417 100.334 526.678 100.334 Q525.046 100.334 523.344 100.056 Q521.66 99.7786 519.855 99.2231 L519.855 95.6988 Q521.417 96.5495 523.084 96.9662 Q524.751 97.3828 526.608 97.3828 Q529.612 97.3828 531.365 95.803 Q533.119 94.2231 533.119 91.5148 Q533.119 88.8065 531.365 87.2266 Q529.612 85.6468 526.608 85.6468 Q525.202 85.6468 523.796 85.9593 Q522.407 86.2718 520.949 86.9315 L520.949 73.9107 Z" fill="#000000" fill-rule="evenodd" fill-opacity="1" /><path clip-path="url(#clip930)" d="M 0 0 M671.754 96.8793 L683.994 96.8793 L683.994 99.8307 L667.535 99.8307 L667.535 96.8793 Q669.532 94.8134 672.969 91.3412 Q676.424 87.8516 677.31 86.8447 Q678.994 84.9523 679.653 83.6503 Q680.331 82.3308 680.331 81.0635 Q680.331 78.9975 678.872 77.6954 Q677.431 76.3933 675.105 76.3933 Q673.456 76.3933 671.615 76.9663 Q669.792 77.5392 667.709 78.7024 L667.709 75.1607 Q669.827 74.31 671.667 73.876 Q673.508 73.442 675.035 73.442 Q679.063 73.442 681.459 75.4559 Q683.855 77.4697 683.855 80.8378 Q683.855 82.435 683.247 83.8759 Q682.657 85.2995 681.077 87.244 Q680.643 87.7475 678.317 90.1606 Q675.99 92.5565 671.754 96.8793 Z" fill="#000000" fill-rule="evenodd" fill-opacity="1" /><path clip-path="url(#clip930)" d="M 0 0 M698.855 87.5218 Q696.355 87.5218 694.914 88.8586 Q693.49 90.1954 693.49 92.5391 Q693.49 94.8828 694.914 96.2196 Q696.355 97.5564 698.855 97.5564 Q701.355 97.5564 702.796 96.2196 Q704.237 94.8655 704.237 92.5391 Q704.237 90.1954 702.796 88.8586 Q701.372 87.5218 698.855 87.5218 M695.348 86.0287 Q693.091 85.4732 691.823 83.928 Q690.574 82.3829 690.574 80.1607 Q690.574 77.0531 692.778 75.2475 Q695.001 73.442 698.855 73.442 Q702.726 73.442 704.931 75.2475 Q707.136 77.0531 707.136 80.1607 Q707.136 82.3829 705.869 83.928 Q704.619 85.4732 702.379 86.0287 Q704.914 86.619 706.32 88.3377 Q707.744 90.0565 707.744 92.5391 Q707.744 96.3064 705.435 98.3203 Q703.143 100.334 698.855 100.334 Q694.567 100.334 692.258 98.3203 Q689.966 96.3064 689.966 92.5391 Q689.966 90.0565 691.389 88.3377 Q692.813 86.619 695.348 86.0287 M694.063 80.4905 Q694.063 82.5044 695.313 83.6329 Q696.58 84.7614 698.855 84.7614 Q701.112 84.7614 702.379 83.6329 Q703.664 82.5044 703.664 80.4905 Q703.664 78.4767 702.379 77.3482 Q701.112 76.2197 698.855 76.2197 Q696.58 76.2197 695.313 77.3482 Q694.063 78.4767 694.063 80.4905 Z" fill="#000000" fill-rule="evenodd" fill-opacity="1" /><path clip-path="url(#clip930)" d="M 0 0 M508.813 374.248 Q511.331 374.787 512.737 376.488 Q514.16 378.189 514.16 380.689 Q514.16 384.526 511.521 386.627 Q508.883 388.727 504.022 388.727 Q502.39 388.727 500.653 388.398 Q498.935 388.085 497.094 387.443 L497.094 384.057 Q498.553 384.908 500.289 385.342 Q502.025 385.776 503.917 385.776 Q507.216 385.776 508.935 384.474 Q510.671 383.172 510.671 380.689 Q510.671 378.398 509.056 377.113 Q507.459 375.811 504.594 375.811 L501.574 375.811 L501.574 372.929 L504.733 372.929 Q507.32 372.929 508.692 371.905 Q510.063 370.863 510.063 368.919 Q510.063 366.922 508.64 365.863 Q507.233 364.787 504.594 364.787 Q503.153 364.787 501.504 365.099 Q499.855 365.412 497.876 366.071 L497.876 362.946 Q499.872 362.391 501.608 362.113 Q503.362 361.835 504.907 361.835 Q508.9 361.835 511.226 363.658 Q513.553 365.464 513.553 368.554 Q513.553 370.707 512.32 372.2 Q511.087 373.675 508.813 374.248 Z" fill="#000000" fill-rule="evenodd" fill-opacity="1" /><path clip-path="url(#clip930)" d="M 0 0 M530.445 365.36 L521.591 379.196 L530.445 379.196 L530.445 365.36 M529.525 362.304 L533.935 362.304 L533.935 379.196 L537.632 379.196 L537.632 382.113 L533.935 382.113 L533.935 388.224 L530.445 388.224 L530.445 382.113 L518.744 382.113 L518.744 378.728 L529.525 362.304 Z" fill="#000000" fill-rule="evenodd" fill-opacity="1" /><path clip-path="url(#clip930)" d="M 0 0 M466.203 302.15 Q468.72 302.688 470.127 304.39 Q471.55 306.091 471.55 308.591 Q471.55 312.428 468.911 314.528 Q466.272 316.629 461.411 316.629 Q459.779 316.629 458.043 316.299 Q456.325 315.987 454.484 315.344 L454.484 311.959 Q455.943 312.81 457.679 313.244 Q459.415 313.678 461.307 313.678 Q464.606 313.678 466.324 312.376 Q468.061 311.074 468.061 308.591 Q468.061 306.299 466.446 305.015 Q464.849 303.713 461.984 303.713 L458.963 303.713 L458.963 300.831 L462.123 300.831 Q464.71 300.831 466.081 299.806 Q467.453 298.765 467.453 296.82 Q467.453 294.824 466.029 293.765 Q464.623 292.688 461.984 292.688 Q460.543 292.688 458.894 293.001 Q457.245 293.313 455.265 293.973 L455.265 290.848 Q457.262 290.292 458.998 290.015 Q460.752 289.737 462.297 289.737 Q466.29 289.737 468.616 291.56 Q470.942 293.365 470.942 296.456 Q470.942 298.608 469.71 300.101 Q468.477 301.577 466.203 302.15 Z" fill="#000000" fill-rule="evenodd" fill-opacity="1" /><path clip-path="url(#clip930)" d="M 0 0 M478.234 290.206 L492.001 290.206 L492.001 293.157 L481.446 293.157 L481.446 299.511 Q482.21 299.251 482.974 299.129 Q483.738 298.99 484.501 298.99 Q488.842 298.99 491.376 301.369 Q493.911 303.747 493.911 307.81 Q493.911 311.994 491.307 314.32 Q488.703 316.629 483.963 316.629 Q482.331 316.629 480.63 316.351 Q478.946 316.074 477.14 315.518 L477.14 311.994 Q478.703 312.844 480.37 313.261 Q482.036 313.678 483.894 313.678 Q486.897 313.678 488.651 312.098 Q490.404 310.518 490.404 307.81 Q490.404 305.101 488.651 303.522 Q486.897 301.942 483.894 301.942 Q482.488 301.942 481.081 302.254 Q479.692 302.567 478.234 303.226 L478.234 290.206 Z" fill="#000000" fill-rule="evenodd" fill-opacity="1" /><path clip-path="url(#clip930)" d="M 0 0 M551.423 302.15 Q553.941 302.688 555.347 304.39 Q556.771 306.091 556.771 308.591 Q556.771 312.428 554.132 314.528 Q551.493 316.629 546.632 316.629 Q545 316.629 543.264 316.299 Q541.545 315.987 539.705 315.344 L539.705 311.959 Q541.163 312.81 542.899 313.244 Q544.635 313.678 546.528 313.678 Q549.826 313.678 551.545 312.376 Q553.281 311.074 553.281 308.591 Q553.281 306.299 551.666 305.015 Q550.069 303.713 547.205 303.713 L544.184 303.713 L544.184 300.831 L547.344 300.831 Q549.93 300.831 551.302 299.806 Q552.673 298.765 552.673 296.82 Q552.673 294.824 551.25 293.765 Q549.844 292.688 547.205 292.688 Q545.764 292.688 544.114 293.001 Q542.465 293.313 540.486 293.973 L540.486 290.848 Q542.482 290.292 544.219 290.015 Q545.972 289.737 547.517 289.737 Q551.51 289.737 553.837 291.56 Q556.163 293.365 556.163 296.456 Q556.163 298.608 554.93 300.101 Q553.698 301.577 551.423 302.15 Z" fill="#000000" fill-rule="evenodd" fill-opacity="1" /><path clip-path="url(#clip930)" d="M 0 0 M571.354 301.768 Q568.993 301.768 567.604 303.383 Q566.232 304.997 566.232 307.81 Q566.232 310.605 567.604 312.237 Q568.993 313.851 571.354 313.851 Q573.715 313.851 575.086 312.237 Q576.475 310.605 576.475 307.81 Q576.475 304.997 575.086 303.383 Q573.715 301.768 571.354 301.768 M578.316 290.779 L578.316 293.973 Q576.996 293.348 575.642 293.018 Q574.305 292.688 572.986 292.688 Q569.514 292.688 567.673 295.032 Q565.85 297.376 565.59 302.115 Q566.614 300.605 568.159 299.806 Q569.705 298.99 571.562 298.99 Q575.468 298.99 577.725 301.369 Q580 303.73 580 307.81 Q580 311.803 577.639 314.216 Q575.277 316.629 571.354 316.629 Q566.857 316.629 564.479 313.192 Q562.1 309.737 562.1 303.192 Q562.1 297.046 565.017 293.4 Q567.934 289.737 572.847 289.737 Q574.166 289.737 575.503 289.997 Q576.857 290.258 578.316 290.779 Z" fill="#000000" fill-rule="evenodd" fill-opacity="1" /></svg>
