<?xml version="1.0" encoding="utf-8"?>
<svg xmlns="http://www.w3.org/2000/svg" xmlns:xlink="http://www.w3.org/1999/xlink" width="200" height="250" viewBox="0 0 800 1000">
<defs>
  <clipPath id="clip630">
    <rect x="0" y="0" width="800" height="1000"/>
  </clipPath>
</defs>
<path clip-path="url(#clip630)" d="
M0 1000 L800 1000 L800 0 L0 0  Z
  " fill="#ffffff" fill-rule="evenodd" fill-opacity="1"/>
<defs>
  <clipPath id="clip631">
    <rect x="200" y="100" width="701" height="701"/>
  </clipPath>
</defs>
<path clip-path="url(#clip630)" d="
M70.9921 927.008 L752.756 927.008 L752.756 62.9921 L70.9921 62.9921  Z
  " fill="#ffffff" fill-rule="evenodd" fill-opacity="1"/>
<defs>
  <clipPath id="clip632">
    <rect x="70" y="62" width="683" height="865"/>
  </clipPath>
</defs>
<polyline clip-path="url(#clip630)" style="stroke:#000000; stroke-width:4; stroke-opacity:1; fill:none" points="
  70.9921,927.008 752.756,927.008 
  "/>
<polyline clip-path="url(#clip630)" style="stroke:#000000; stroke-width:4; stroke-opacity:1; fill:none" points="
  139.169,927.008 139.169,916.64 
  "/>
<polyline clip-path="url(#clip630)" style="stroke:#000000; stroke-width:4; stroke-opacity:1; fill:none" points="
  275.521,927.008 275.521,916.64 
  "/>
<polyline clip-path="url(#clip630)" style="stroke:#000000; stroke-width:4; stroke-opacity:1; fill:none" points="
  411.874,927.008 411.874,916.64 
  "/>
<polyline clip-path="url(#clip630)" style="stroke:#000000; stroke-width:4; stroke-opacity:1; fill:none" points="
  548.227,927.008 548.227,916.64 
  "/>
<polyline clip-path="url(#clip630)" style="stroke:#000000; stroke-width:4; stroke-opacity:1; fill:none" points="
  684.58,927.008 684.58,916.64 
  "/>
<path clip-path="url(#clip630)" d="M 0 0 M109.111 959.651 L138.787 959.651 L138.787 963.586 L109.111 963.586 L109.111 959.651 Z" fill="#000000" fill-rule="evenodd" fill-opacity="1" /><path clip-path="url(#clip630)" d="M 0 0 M152.907 972.545 L169.226 972.545 L169.226 976.48 L147.282 976.48 L147.282 972.545 Q149.944 969.79 154.527 965.16 Q159.134 960.508 160.314 959.165 Q162.56 956.642 163.439 954.906 Q164.342 953.147 164.342 951.457 Q164.342 948.702 162.398 946.966 Q160.476 945.23 157.374 945.23 Q155.175 945.23 152.722 945.994 Q150.291 946.758 147.513 948.309 L147.513 943.587 Q150.337 942.452 152.791 941.874 Q155.245 941.295 157.282 941.295 Q162.652 941.295 165.847 943.98 Q169.041 946.665 169.041 951.156 Q169.041 953.286 168.231 955.207 Q167.444 957.105 165.337 959.698 Q164.759 960.369 161.657 963.586 Q158.555 966.781 152.907 972.545 Z" fill="#000000" fill-rule="evenodd" fill-opacity="1" /><path clip-path="url(#clip630)" d="M 0 0 M245.278 959.651 L274.954 959.651 L274.954 963.586 L245.278 963.586 L245.278 959.651 Z" fill="#000000" fill-rule="evenodd" fill-opacity="1" /><path clip-path="url(#clip630)" d="M 0 0 M285.857 972.545 L293.496 972.545 L293.496 946.179 L285.186 947.846 L285.186 943.587 L293.449 941.92 L298.125 941.92 L298.125 972.545 L305.764 972.545 L305.764 976.48 L285.857 976.48 L285.857 972.545 Z" fill="#000000" fill-rule="evenodd" fill-opacity="1" /><path clip-path="url(#clip630)" d="M 0 0 M411.874 944.999 Q408.263 944.999 406.434 948.563 Q404.629 952.105 404.629 959.235 Q404.629 966.341 406.434 969.906 Q408.263 973.447 411.874 973.447 Q415.508 973.447 417.314 969.906 Q419.142 966.341 419.142 959.235 Q419.142 952.105 417.314 948.563 Q415.508 944.999 411.874 944.999 M411.874 941.295 Q417.684 941.295 420.74 945.901 Q423.818 950.485 423.818 959.235 Q423.818 967.961 420.74 972.568 Q417.684 977.151 411.874 977.151 Q406.064 977.151 402.985 972.568 Q399.93 967.961 399.93 959.235 Q399.93 950.485 402.985 945.901 Q406.064 941.295 411.874 941.295 Z" fill="#000000" fill-rule="evenodd" fill-opacity="1" /><path clip-path="url(#clip630)" d="M 0 0 M538.609 972.545 L546.248 972.545 L546.248 946.179 L537.937 947.846 L537.937 943.587 L546.201 941.92 L550.877 941.92 L550.877 972.545 L558.516 972.545 L558.516 976.48 L538.609 976.48 L538.609 972.545 Z" fill="#000000" fill-rule="evenodd" fill-opacity="1" /><path clip-path="url(#clip630)" d="M 0 0 M679.232 972.545 L695.552 972.545 L695.552 976.48 L673.607 976.48 L673.607 972.545 Q676.269 969.79 680.853 965.16 Q685.459 960.508 686.64 959.165 Q688.885 956.642 689.765 954.906 Q690.667 953.147 690.667 951.457 Q690.667 948.702 688.723 946.966 Q686.802 945.23 683.7 945.23 Q681.501 945.23 679.047 945.994 Q676.617 946.758 673.839 948.309 L673.839 943.587 Q676.663 942.452 679.117 941.874 Q681.57 941.295 683.607 941.295 Q688.978 941.295 692.172 943.98 Q695.367 946.665 695.367 951.156 Q695.367 953.286 694.556 955.207 Q693.769 957.105 691.663 959.698 Q691.084 960.369 687.982 963.586 Q684.88 966.781 679.232 972.545 Z" fill="#000000" fill-rule="evenodd" fill-opacity="1" /><polyline clip-path="url(#clip630)" style="stroke:#000000; stroke-width:4; stroke-opacity:1; fill:none" points="
  70.9921,927.008 70.9921,62.9921 
  "/>
<polyline clip-path="url(#clip630)" style="stroke:#000000; stroke-width:4; stroke-opacity:1; fill:none" points="
  70.9921,840.606 79.1733,840.606 
  "/>
<polyline clip-path="url(#clip630)" style="stroke:#000000; stroke-width:4; stroke-opacity:1; fill:none" points="
  70.9921,667.803 79.1733,667.803 
  "/>
<polyline clip-path="url(#clip630)" style="stroke:#000000; stroke-width:4; stroke-opacity:1; fill:none" points="
  70.9921,495 79.1733,495 
  "/>
<polyline clip-path="url(#clip630)" style="stroke:#000000; stroke-width:4; stroke-opacity:1; fill:none" points="
  70.9921,322.197 79.1733,322.197 
  "/>
<polyline clip-path="url(#clip630)" style="stroke:#000000; stroke-width:4; stroke-opacity:1; fill:none" points="
  70.9921,149.394 79.1733,149.394 
  "/>
<path clip-path="url(#clip630)" d="M 0 0 M-4.12329 841.058 L25.5525 841.058 L25.5525 844.993 L-4.12329 844.993 L-4.12329 841.058 Z" fill="#000000" fill-rule="evenodd" fill-opacity="1" /><path clip-path="url(#clip630)" d="M 0 0 M39.6728 853.951 L55.9921 853.951 L55.9921 857.886 L34.0478 857.886 L34.0478 853.951 Q36.7098 851.197 41.2931 846.567 Q45.8996 841.914 47.0801 840.572 Q49.3255 838.048 50.2051 836.312 Q51.1079 834.553 51.1079 832.863 Q51.1079 830.109 49.1635 828.373 Q47.2422 826.636 44.1403 826.636 Q41.9413 826.636 39.4876 827.4 Q37.057 828.164 34.2793 829.715 L34.2793 824.993 Q37.1033 823.859 39.557 823.28 Q42.0107 822.701 44.0477 822.701 Q49.4181 822.701 52.6125 825.386 Q55.8069 828.072 55.8069 832.562 Q55.8069 834.692 54.9968 836.613 Q54.2097 838.511 52.1033 841.104 Q51.5246 841.775 48.4227 844.993 Q45.3209 848.187 39.6728 853.951 Z" fill="#000000" fill-rule="evenodd" fill-opacity="1" /><path clip-path="url(#clip630)" d="M 0 0 M-4.49366 668.255 L25.1821 668.255 L25.1821 672.19 L-4.49366 672.19 L-4.49366 668.255 Z" fill="#000000" fill-rule="evenodd" fill-opacity="1" /><path clip-path="url(#clip630)" d="M 0 0 M36.0848 681.148 L43.7237 681.148 L43.7237 654.782 L35.4135 656.449 L35.4135 652.19 L43.6774 650.523 L48.3533 650.523 L48.3533 681.148 L55.9921 681.148 L55.9921 685.083 L36.0848 685.083 L36.0848 681.148 Z" fill="#000000" fill-rule="evenodd" fill-opacity="1" /><path clip-path="url(#clip630)" d="M 0 0 M44.0477 480.799 Q40.4367 480.799 38.608 484.363 Q36.8024 487.905 36.8024 495.035 Q36.8024 502.141 38.608 505.706 Q40.4367 509.248 44.0477 509.248 Q47.682 509.248 49.4875 505.706 Q51.3162 502.141 51.3162 495.035 Q51.3162 487.905 49.4875 484.363 Q47.682 480.799 44.0477 480.799 M44.0477 477.095 Q49.8579 477.095 52.9134 481.701 Q55.9921 486.285 55.9921 495.035 Q55.9921 503.762 52.9134 508.368 Q49.8579 512.951 44.0477 512.951 Q38.2376 512.951 35.1589 508.368 Q32.1034 503.762 32.1034 495.035 Q32.1034 486.285 35.1589 481.701 Q38.2376 477.095 44.0477 477.095 Z" fill="#000000" fill-rule="evenodd" fill-opacity="1" /><path clip-path="url(#clip630)" d="M 0 0 M36.0848 335.542 L43.7237 335.542 L43.7237 309.176 L35.4135 310.843 L35.4135 306.584 L43.6774 304.917 L48.3533 304.917 L48.3533 335.542 L55.9921 335.542 L55.9921 339.477 L36.0848 339.477 L36.0848 335.542 Z" fill="#000000" fill-rule="evenodd" fill-opacity="1" /><path clip-path="url(#clip630)" d="M 0 0 M39.6728 162.739 L55.9921 162.739 L55.9921 166.674 L34.0478 166.674 L34.0478 162.739 Q36.7098 159.984 41.2931 155.354 Q45.8996 150.702 47.0801 149.359 Q49.3255 146.836 50.2051 145.1 Q51.1079 143.34 51.1079 141.651 Q51.1079 138.896 49.1635 137.16 Q47.2422 135.424 44.1403 135.424 Q41.9413 135.424 39.4876 136.188 Q37.057 136.952 34.2793 138.503 L34.2793 133.78 Q37.1033 132.646 39.557 132.067 Q42.0107 131.489 44.0477 131.489 Q49.4181 131.489 52.6125 134.174 Q55.8069 136.859 55.8069 141.35 Q55.8069 143.479 54.9968 145.401 Q54.2097 147.299 52.1033 149.891 Q51.5246 150.563 48.4227 153.78 Q45.3209 156.975 39.6728 162.739 Z" fill="#000000" fill-rule="evenodd" fill-opacity="1" /><path clip-path="url(#clip630)" d="M 0 0 M343.969 22.8378 Q347.326 23.5554 349.201 25.8239 Q351.099 28.0924 351.099 31.4258 Q351.099 36.5415 347.58 39.3424 Q344.062 42.1433 337.58 42.1433 Q335.405 42.1433 333.09 41.7035 Q330.798 41.2868 328.344 40.4303 L328.344 35.9165 Q330.289 37.0507 332.604 37.6294 Q334.918 38.2081 337.442 38.2081 Q341.84 38.2081 344.131 36.472 Q346.446 34.7359 346.446 31.4258 Q346.446 28.3702 344.293 26.6573 Q342.164 24.9212 338.344 24.9212 L334.317 24.9212 L334.317 21.0786 L338.53 21.0786 Q341.979 21.0786 343.807 19.7129 Q345.636 18.324 345.636 15.7314 Q345.636 13.0694 343.738 11.6573 Q341.863 10.2222 338.344 10.2222 Q336.423 10.2222 334.224 10.6388 Q332.025 11.0555 329.386 11.9351 L329.386 7.76848 Q332.048 7.02774 334.363 6.65737 Q336.701 6.287 338.761 6.287 Q344.085 6.287 347.187 8.71755 Q350.289 11.1249 350.289 15.2453 Q350.289 18.1156 348.645 20.1064 Q347.002 22.074 343.969 22.8378 Z" fill="#000000" fill-rule="evenodd" fill-opacity="1" /><path clip-path="url(#clip630)" d="M 0 0 M357.21 26.5878 L369.687 26.5878 L369.687 30.3841 L357.21 30.3841 L357.21 26.5878 Z" fill="#000000" fill-rule="evenodd" fill-opacity="1" /><path clip-path="url(#clip630)" d="M 0 0 M376.076 5.45367 L385.89 5.45367 L385.89 8.76384 L380.335 8.76384 L380.335 44.4118 L385.89 44.4118 L385.89 47.722 L376.076 47.722 L376.076 5.45367 Z" fill="#000000" fill-rule="evenodd" fill-opacity="1" /><path clip-path="url(#clip630)" d="M 0 0 M405.566 9.99069 Q401.955 9.99069 400.126 13.5555 Q398.321 17.0971 398.321 24.2267 Q398.321 31.3332 400.126 34.898 Q401.955 38.4396 405.566 38.4396 Q409.2 38.4396 411.006 34.898 Q412.835 31.3332 412.835 24.2267 Q412.835 17.0971 411.006 13.5555 Q409.2 9.99069 405.566 9.99069 M405.566 6.287 Q411.376 6.287 414.432 10.8935 Q417.511 15.4768 417.511 24.2267 Q417.511 32.9535 414.432 37.56 Q411.376 42.1433 405.566 42.1433 Q399.756 42.1433 396.677 37.56 Q393.622 32.9535 393.622 24.2267 Q393.622 15.4768 396.677 10.8935 Q399.756 6.287 405.566 6.287 Z" fill="#000000" fill-rule="evenodd" fill-opacity="1" /><path clip-path="url(#clip630)" d="M 0 0 M435.728 9.99069 Q432.117 9.99069 430.288 13.5555 Q428.483 17.0971 428.483 24.2267 Q428.483 31.3332 430.288 34.898 Q432.117 38.4396 435.728 38.4396 Q439.362 38.4396 441.168 34.898 Q442.997 31.3332 442.997 24.2267 Q442.997 17.0971 441.168 13.5555 Q439.362 9.99069 435.728 9.99069 M435.728 6.287 Q441.538 6.287 444.594 10.8935 Q447.672 15.4768 447.672 24.2267 Q447.672 32.9535 444.594 37.56 Q441.538 42.1433 435.728 42.1433 Q429.918 42.1433 426.839 37.56 Q423.784 32.9535 423.784 24.2267 Q423.784 15.4768 426.839 10.8935 Q429.918 6.287 435.728 6.287 Z" fill="#000000" fill-rule="evenodd" fill-opacity="1" /><path clip-path="url(#clip630)" d="M 0 0 M456.7 37.5368 L464.339 37.5368 L464.339 11.1712 L456.029 12.8379 L456.029 8.57866 L464.293 6.912 L468.969 6.912 L468.969 37.5368 L476.607 37.5368 L476.607 41.472 L456.7 41.472 L456.7 37.5368 Z" fill="#000000" fill-rule="evenodd" fill-opacity="1" /><path clip-path="url(#clip630)" d="M 0 0 M495.404 5.45367 L495.404 47.722 L485.589 47.722 L485.589 44.4118 L491.121 44.4118 L491.121 8.76384 L485.589 8.76384 L485.589 5.45367 L495.404 5.45367 Z" fill="#000000" fill-rule="evenodd" fill-opacity="1" /><circle clip-path="url(#clip632)" cx="139.169" cy="894.072" r="14" fill="#0000ff" fill-rule="evenodd" fill-opacity="1" stroke="none"/>
<path clip-path="url(#clip630)" d="M 0 0 M143.387 883.344 L155.627 883.344 L155.627 886.296 L139.169 886.296 L139.169 883.344 Q141.165 881.278 144.603 877.806 Q148.057 874.317 148.943 873.31 Q150.627 871.417 151.286 870.115 Q151.964 868.796 151.964 867.529 Q151.964 865.463 150.505 864.16 Q149.064 862.858 146.738 862.858 Q145.089 862.858 143.248 863.431 Q141.425 864.004 139.342 865.167 L139.342 861.626 Q141.46 860.775 143.3 860.341 Q145.141 859.907 146.668 859.907 Q150.696 859.907 153.092 861.921 Q155.488 863.935 155.488 867.303 Q155.488 868.9 154.88 870.341 Q154.29 871.765 152.71 873.709 Q152.276 874.213 149.95 876.626 Q147.623 879.022 143.387 883.344 Z" fill="#000000" fill-rule="evenodd" fill-opacity="1" /><path clip-path="url(#clip630)" d="M 0 0 M163.595 883.344 L169.325 883.344 L169.325 863.57 L163.092 864.82 L163.092 861.626 L169.29 860.376 L172.797 860.376 L172.797 883.344 L178.526 883.344 L178.526 886.296 L163.595 886.296 L163.595 883.344 Z" fill="#000000" fill-rule="evenodd" fill-opacity="1" /><circle clip-path="url(#clip632)" cx="411.874" cy="594.768" r="14" fill="#0000ff" fill-rule="evenodd" fill-opacity="1" stroke="none"/>
<circle clip-path="url(#clip632)" cx="343.698" cy="544.884" r="14" fill="#0000ff" fill-rule="evenodd" fill-opacity="1" stroke="none"/>
<circle clip-path="url(#clip632)" cx="343.698" cy="744.42" r="14" fill="#0000ff" fill-rule="evenodd" fill-opacity="1" stroke="none"/>
<circle clip-path="url(#clip632)" cx="275.521" cy="694.536" r="14" fill="#0000ff" fill-rule="evenodd" fill-opacity="1" stroke="none"/>
<circle clip-path="url(#clip632)" cx="275.521" cy="894.072" r="14" fill="#0000ff" fill-rule="evenodd" fill-opacity="1" stroke="none"/>
<circle clip-path="url(#clip632)" cx="207.345" cy="844.188" r="14" fill="#0000ff" fill-rule="evenodd" fill-opacity="1" stroke="none"/>
<circle clip-path="url(#clip632)" cx="207.345" cy="445.116" r="14" fill="#0000ff" fill-rule="evenodd" fill-opacity="1" stroke="none"/>
<circle clip-path="url(#clip632)" cx="139.169" cy="395.232" r="14" fill="#0000ff" fill-rule="evenodd" fill-opacity="1" stroke="none"/>
<circle clip-path="url(#clip632)" cx="139.169" cy="594.768" r="14" fill="#0000ff" fill-rule="evenodd" fill-opacity="1" stroke="none"/>
<circle clip-path="url(#clip632)" cx="70.9921" cy="544.884" r="14" fill="#0000ff" fill-rule="evenodd" fill-opacity="1" stroke="none"/>
<circle clip-path="url(#clip632)" cx="70.9921" cy="744.42" r="14" fill="#0000ff" fill-rule="evenodd" fill-opacity="1" stroke="none"/>
<circle clip-path="url(#clip632)" cx="411.874" cy="894.072" r="14" fill="#0000ff" fill-rule="evenodd" fill-opacity="1" stroke="none"/>
<circle clip-path="url(#clip632)" cx="343.698" cy="844.188" r="14" fill="#0000ff" fill-rule="evenodd" fill-opacity="1" stroke="none"/>
<circle clip-path="url(#clip632)" cx="343.698" cy="445.116" r="14" fill="#0000ff" fill-rule="evenodd" fill-opacity="1" stroke="none"/>
<circle clip-path="url(#clip632)" cx="275.521" cy="594.768" r="14" fill="#0000ff" fill-rule="evenodd" fill-opacity="1" stroke="none"/>
<circle clip-path="url(#clip632)" cx="207.345" cy="544.884" r="14" fill="#0000ff" fill-rule="evenodd" fill-opacity="1" stroke="none"/>
<circle clip-path="url(#clip632)" cx="207.345" cy="744.42" r="14" fill="#0000ff" fill-rule="evenodd" fill-opacity="1" stroke="none"/>
<circle clip-path="url(#clip632)" cx="139.169" cy="694.536" r="14" fill="#0000ff" fill-rule="evenodd" fill-opacity="1" stroke="none"/>
<circle clip-path="url(#clip632)" cx="139.169" cy="295.464" r="14" fill="#0000ff" fill-rule="evenodd" fill-opacity="1" stroke="none"/>
<circle clip-path="url(#clip632)" cx="70.9921" cy="844.188" r="14" fill="#0000ff" fill-rule="evenodd" fill-opacity="1" stroke="none"/>
<circle clip-path="url(#clip632)" cx="70.9921" cy="445.116" r="14" fill="#0000ff" fill-rule="evenodd" fill-opacity="1" stroke="none"/>
<circle clip-path="url(#clip632)" cx="411.874" cy="694.536" r="14" fill="#0000ff" fill-rule="evenodd" fill-opacity="1" stroke="none"/>
<path clip-path="url(#clip630)" d="M 0 0 M412.377 584.041 L418.107 584.041 L418.107 564.266 L411.874 565.516 L411.874 562.322 L418.072 561.072 L421.579 561.072 L421.579 584.041 L427.308 584.041 L427.308 586.992 L412.377 586.992 L412.377 584.041 Z" fill="#000000" fill-rule="evenodd" fill-opacity="1" /><path clip-path="url(#clip630)" d="M 0 0 M347.916 534.157 L360.156 534.157 L360.156 537.108 L343.698 537.108 L343.698 534.157 Q345.694 532.091 349.132 528.618 Q352.586 525.129 353.472 524.122 Q355.156 522.23 355.816 520.928 Q356.493 519.608 356.493 518.341 Q356.493 516.275 355.034 514.973 Q353.593 513.671 351.267 513.671 Q349.618 513.671 347.777 514.244 Q345.955 514.816 343.871 515.98 L343.871 512.438 Q345.989 511.587 347.83 511.153 Q349.67 510.719 351.198 510.719 Q355.225 510.719 357.621 512.733 Q360.017 514.747 360.017 518.115 Q360.017 519.712 359.409 521.153 Q358.819 522.577 357.239 524.521 Q356.805 525.025 354.479 527.438 Q352.152 529.834 347.916 534.157 Z" fill="#000000" fill-rule="evenodd" fill-opacity="1" /><path clip-path="url(#clip630)" d="M 0 0 M355.416 722.668 Q357.934 723.206 359.34 724.908 Q360.764 726.609 360.764 729.109 Q360.764 732.946 358.125 735.047 Q355.486 737.147 350.625 737.147 Q348.993 737.147 347.257 736.817 Q345.538 736.505 343.698 735.863 L343.698 732.477 Q345.156 733.328 346.892 733.762 Q348.628 734.196 350.521 734.196 Q353.819 734.196 355.538 732.894 Q357.274 731.592 357.274 729.109 Q357.274 726.818 355.659 725.533 Q354.062 724.231 351.198 724.231 L348.177 724.231 L348.177 721.349 L351.336 721.349 Q353.923 721.349 355.295 720.325 Q356.666 719.283 356.666 717.338 Q356.666 715.342 355.243 714.283 Q353.836 713.206 351.198 713.206 Q349.757 713.206 348.107 713.519 Q346.458 713.831 344.479 714.491 L344.479 711.366 Q346.475 710.811 348.212 710.533 Q349.965 710.255 351.51 710.255 Q355.503 710.255 357.83 712.078 Q360.156 713.884 360.156 716.974 Q360.156 719.127 358.923 720.62 Q357.691 722.095 355.416 722.668 Z" fill="#000000" fill-rule="evenodd" fill-opacity="1" /><path clip-path="url(#clip630)" d="M 0 0 M287.223 663.895 L278.368 677.732 L287.223 677.732 L287.223 663.895 M286.302 660.84 L290.712 660.84 L290.712 677.732 L294.41 677.732 L294.41 680.649 L290.712 680.649 L290.712 686.76 L287.223 686.76 L287.223 680.649 L275.521 680.649 L275.521 677.263 L286.302 660.84 Z" fill="#000000" fill-rule="evenodd" fill-opacity="1" /><path clip-path="url(#clip630)" d="M 0 0 M276.615 860.376 L290.382 860.376 L290.382 863.327 L279.827 863.327 L279.827 869.681 Q280.591 869.421 281.355 869.299 Q282.118 869.16 282.882 869.16 Q287.223 869.16 289.757 871.539 Q292.292 873.917 292.292 877.98 Q292.292 882.164 289.688 884.49 Q287.084 886.799 282.344 886.799 Q280.712 886.799 279.011 886.521 Q277.327 886.244 275.521 885.688 L275.521 882.164 Q277.084 883.015 278.75 883.431 Q280.417 883.848 282.275 883.848 Q285.278 883.848 287.032 882.268 Q288.785 880.688 288.785 877.98 Q288.785 875.272 287.032 873.692 Q285.278 872.112 282.275 872.112 Q280.868 872.112 279.462 872.424 Q278.073 872.737 276.615 873.397 L276.615 860.376 Z" fill="#000000" fill-rule="evenodd" fill-opacity="1" /><path clip-path="url(#clip630)" d="M 0 0 M216.598 822.054 Q214.237 822.054 212.848 823.669 Q211.477 825.283 211.477 828.096 Q211.477 830.891 212.848 832.523 Q214.237 834.138 216.598 834.138 Q218.959 834.138 220.331 832.523 Q221.72 830.891 221.72 828.096 Q221.72 825.283 220.331 823.669 Q218.959 822.054 216.598 822.054 M223.56 811.065 L223.56 814.259 Q222.241 813.634 220.886 813.304 Q219.55 812.974 218.23 812.974 Q214.758 812.974 212.918 815.318 Q211.095 817.662 210.834 822.401 Q211.859 820.891 213.404 820.092 Q214.949 819.276 216.807 819.276 Q220.713 819.276 222.97 821.655 Q225.244 824.016 225.244 828.096 Q225.244 832.089 222.883 834.502 Q220.522 836.915 216.598 836.915 Q212.102 836.915 209.723 833.478 Q207.345 830.023 207.345 823.478 Q207.345 817.332 210.262 813.686 Q213.178 810.023 218.091 810.023 Q219.411 810.023 220.748 810.283 Q222.102 810.544 223.56 811.065 Z" fill="#000000" fill-rule="evenodd" fill-opacity="1" /><path clip-path="url(#clip630)" d="M 0 0 M207.345 411.42 L224.011 411.42 L224.011 412.913 L214.602 437.34 L210.939 437.34 L219.793 414.371 L207.345 414.371 L207.345 411.42 Z" fill="#000000" fill-rule="evenodd" fill-opacity="1" /><path clip-path="url(#clip630)" d="M 0 0 M148.057 375.147 Q145.557 375.147 144.116 376.484 Q142.693 377.821 142.693 380.164 Q142.693 382.508 144.116 383.845 Q145.557 385.182 148.057 385.182 Q150.557 385.182 151.998 383.845 Q153.439 382.491 153.439 380.164 Q153.439 377.821 151.998 376.484 Q150.575 375.147 148.057 375.147 M144.55 373.654 Q142.293 373.098 141.026 371.553 Q139.776 370.008 139.776 367.786 Q139.776 364.678 141.981 362.873 Q144.203 361.067 148.057 361.067 Q151.929 361.067 154.134 362.873 Q156.339 364.678 156.339 367.786 Q156.339 370.008 155.071 371.553 Q153.821 373.098 151.582 373.654 Q154.116 374.244 155.523 375.963 Q156.946 377.682 156.946 380.164 Q156.946 383.932 154.637 385.946 Q152.346 387.96 148.057 387.96 Q143.769 387.96 141.46 385.946 Q139.169 383.932 139.169 380.164 Q139.169 377.682 140.592 375.963 Q142.016 374.244 144.55 373.654 M143.266 368.116 Q143.266 370.13 144.516 371.258 Q145.783 372.387 148.057 372.387 Q150.314 372.387 151.582 371.258 Q152.866 370.13 152.866 368.116 Q152.866 366.102 151.582 364.974 Q150.314 363.845 148.057 363.845 Q145.783 363.845 144.516 364.974 Q143.266 366.102 143.266 368.116 Z" fill="#000000" fill-rule="evenodd" fill-opacity="1" /><path clip-path="url(#clip630)" d="M 0 0 M140.835 586.454 L140.835 583.259 Q142.155 583.884 143.509 584.214 Q144.863 584.544 146.165 584.544 Q149.637 584.544 151.46 582.218 Q153.3 579.874 153.561 575.117 Q152.554 576.61 151.009 577.409 Q149.464 578.207 147.589 578.207 Q143.7 578.207 141.425 575.864 Q139.169 573.502 139.169 569.423 Q139.169 565.43 141.53 563.016 Q143.891 560.603 147.814 560.603 Q152.311 560.603 154.672 564.058 Q157.05 567.496 157.05 574.058 Q157.05 580.186 154.134 583.85 Q151.234 587.495 146.321 587.495 Q145.002 587.495 143.648 587.235 Q142.293 586.975 140.835 586.454 M147.814 575.464 Q150.175 575.464 151.547 573.85 Q152.936 572.235 152.936 569.423 Q152.936 566.627 151.547 565.013 Q150.175 563.381 147.814 563.381 Q145.453 563.381 144.064 565.013 Q142.693 566.627 142.693 569.423 Q142.693 572.235 144.064 573.85 Q145.453 575.464 147.814 575.464 Z" fill="#000000" fill-rule="evenodd" fill-opacity="1" /><path clip-path="url(#clip630)" d="M 0 0 M71.4956 534.157 L77.2247 534.157 L77.2247 514.382 L70.9921 515.632 L70.9921 512.438 L77.19 511.188 L80.6969 511.188 L80.6969 534.157 L86.4261 534.157 L86.4261 537.108 L71.4956 537.108 L71.4956 534.157 Z" fill="#000000" fill-rule="evenodd" fill-opacity="1" /><path clip-path="url(#clip630)" d="M 0 0 M101.009 513.497 Q98.301 513.497 96.9295 516.171 Q95.5753 518.827 95.5753 524.174 Q95.5753 529.504 96.9295 532.177 Q98.301 534.834 101.009 534.834 Q103.735 534.834 105.089 532.177 Q106.461 529.504 106.461 524.174 Q106.461 518.827 105.089 516.171 Q103.735 513.497 101.009 513.497 M101.009 510.719 Q105.367 510.719 107.659 514.174 Q109.968 517.612 109.968 524.174 Q109.968 530.719 107.659 534.174 Q105.367 537.611 101.009 537.611 Q96.6517 537.611 94.3427 534.174 Q92.051 530.719 92.051 524.174 Q92.051 517.612 94.3427 514.174 Q96.6517 510.719 101.009 510.719 Z" fill="#000000" fill-rule="evenodd" fill-opacity="1" /><path clip-path="url(#clip630)" d="M 0 0 M71.4956 733.692 L77.2247 733.692 L77.2247 713.918 L70.9921 715.168 L70.9921 711.974 L77.19 710.724 L80.6969 710.724 L80.6969 733.692 L86.4261 733.692 L86.4261 736.644 L71.4956 736.644 L71.4956 733.692 Z" fill="#000000" fill-rule="evenodd" fill-opacity="1" /><path clip-path="url(#clip630)" d="M 0 0 M94.117 733.692 L99.8461 733.692 L99.8461 713.918 L93.6135 715.168 L93.6135 711.974 L99.8114 710.724 L103.318 710.724 L103.318 733.692 L109.047 733.692 L109.047 736.644 L94.117 736.644 L94.117 733.692 Z" fill="#000000" fill-rule="evenodd" fill-opacity="1" /><path clip-path="url(#clip630)" d="M 0 0 M412.377 883.344 L418.107 883.344 L418.107 863.57 L411.874 864.82 L411.874 861.626 L418.072 860.376 L421.579 860.376 L421.579 883.344 L427.308 883.344 L427.308 886.296 L412.377 886.296 L412.377 883.344 Z" fill="#000000" fill-rule="evenodd" fill-opacity="1" /><path clip-path="url(#clip630)" d="M 0 0 M445.016 872.32 Q447.534 872.858 448.94 874.56 Q450.363 876.261 450.363 878.761 Q450.363 882.598 447.725 884.699 Q445.086 886.799 440.225 886.799 Q438.593 886.799 436.857 886.469 Q435.138 886.157 433.298 885.515 L433.298 882.129 Q434.756 882.98 436.492 883.414 Q438.228 883.848 440.12 883.848 Q443.419 883.848 445.138 882.546 Q446.874 881.244 446.874 878.761 Q446.874 876.469 445.259 875.185 Q443.662 873.883 440.797 873.883 L437.777 873.883 L437.777 871.001 L440.936 871.001 Q443.523 871.001 444.895 869.976 Q446.266 868.935 446.266 866.99 Q446.266 864.994 444.843 863.935 Q443.436 862.858 440.797 862.858 Q439.357 862.858 437.707 863.171 Q436.058 863.483 434.079 864.143 L434.079 861.018 Q436.075 860.463 437.811 860.185 Q439.565 859.907 441.11 859.907 Q445.103 859.907 447.429 861.73 Q449.756 863.535 449.756 866.626 Q449.756 868.779 448.523 870.272 Q447.29 871.747 445.016 872.32 Z" fill="#000000" fill-rule="evenodd" fill-opacity="1" /><path clip-path="url(#clip630)" d="M 0 0 M344.201 833.46 L349.93 833.46 L349.93 813.686 L343.698 814.936 L343.698 811.742 L349.896 810.492 L353.402 810.492 L353.402 833.46 L359.132 833.46 L359.132 836.412 L344.201 836.412 L344.201 833.46 Z" fill="#000000" fill-rule="evenodd" fill-opacity="1" /><path clip-path="url(#clip630)" d="M 0 0 M375.85 813.547 L366.996 827.384 L375.85 827.384 L375.85 813.547 M374.93 810.492 L379.34 810.492 L379.34 827.384 L383.038 827.384 L383.038 830.301 L379.34 830.301 L379.34 836.412 L375.85 836.412 L375.85 830.301 L364.149 830.301 L364.149 826.915 L374.93 810.492 Z" fill="#000000" fill-rule="evenodd" fill-opacity="1" /><path clip-path="url(#clip630)" d="M 0 0 M344.201 434.389 L349.93 434.389 L349.93 414.614 L343.698 415.864 L343.698 412.67 L349.896 411.42 L353.402 411.42 L353.402 434.389 L359.132 434.389 L359.132 437.34 L344.201 437.34 L344.201 434.389 Z" fill="#000000" fill-rule="evenodd" fill-opacity="1" /><path clip-path="url(#clip630)" d="M 0 0 M366.25 411.42 L380.017 411.42 L380.017 414.371 L369.461 414.371 L369.461 420.726 Q370.225 420.465 370.989 420.344 Q371.753 420.205 372.517 420.205 Q376.857 420.205 379.392 422.583 Q381.927 424.962 381.927 429.024 Q381.927 433.208 379.322 435.534 Q376.718 437.843 371.979 437.843 Q370.347 437.843 368.645 437.566 Q366.961 437.288 365.156 436.732 L365.156 433.208 Q366.718 434.059 368.385 434.475 Q370.052 434.892 371.909 434.892 Q374.913 434.892 376.666 433.312 Q378.42 431.732 378.42 429.024 Q378.42 426.316 376.666 424.736 Q374.913 423.156 371.909 423.156 Q370.503 423.156 369.097 423.469 Q367.708 423.781 366.25 424.441 L366.25 411.42 Z" fill="#000000" fill-rule="evenodd" fill-opacity="1" /><path clip-path="url(#clip630)" d="M 0 0 M276.025 584.041 L281.754 584.041 L281.754 564.266 L275.521 565.516 L275.521 562.322 L281.719 561.072 L285.226 561.072 L285.226 584.041 L290.955 584.041 L290.955 586.992 L276.025 586.992 L276.025 584.041 Z" fill="#000000" fill-rule="evenodd" fill-opacity="1" /><path clip-path="url(#clip630)" d="M 0 0 M297.153 561.072 L313.82 561.072 L313.82 562.565 L304.41 586.992 L300.747 586.992 L309.601 564.023 L297.153 564.023 L297.153 561.072 Z" fill="#000000" fill-rule="evenodd" fill-opacity="1" /><path clip-path="url(#clip630)" d="M 0 0 M207.848 534.157 L213.577 534.157 L213.577 514.382 L207.345 515.632 L207.345 512.438 L213.543 511.188 L217.05 511.188 L217.05 534.157 L222.779 534.157 L222.779 537.108 L207.848 537.108 L207.848 534.157 Z" fill="#000000" fill-rule="evenodd" fill-opacity="1" /><path clip-path="url(#clip630)" d="M 0 0 M237.362 524.799 Q234.862 524.799 233.421 526.136 Q231.998 527.473 231.998 529.816 Q231.998 532.16 233.421 533.497 Q234.862 534.834 237.362 534.834 Q239.862 534.834 241.303 533.497 Q242.744 532.143 242.744 529.816 Q242.744 527.473 241.303 526.136 Q239.879 524.799 237.362 524.799 M233.855 523.306 Q231.598 522.75 230.331 521.205 Q229.081 519.66 229.081 517.438 Q229.081 514.33 231.286 512.525 Q233.508 510.719 237.362 510.719 Q241.234 510.719 243.438 512.525 Q245.643 514.33 245.643 517.438 Q245.643 519.66 244.376 521.205 Q243.126 522.75 240.886 523.306 Q243.421 523.896 244.827 525.615 Q246.251 527.334 246.251 529.816 Q246.251 533.584 243.942 535.598 Q241.65 537.611 237.362 537.611 Q233.074 537.611 230.765 535.598 Q228.473 533.584 228.473 529.816 Q228.473 527.334 229.897 525.615 Q231.32 523.896 233.855 523.306 M232.57 517.768 Q232.57 519.782 233.82 520.91 Q235.088 522.039 237.362 522.039 Q239.619 522.039 240.886 520.91 Q242.171 519.782 242.171 517.768 Q242.171 515.754 240.886 514.625 Q239.619 513.497 237.362 513.497 Q235.088 513.497 233.82 514.625 Q232.57 515.754 232.57 517.768 Z" fill="#000000" fill-rule="evenodd" fill-opacity="1" /><path clip-path="url(#clip630)" d="M 0 0 M207.848 733.692 L213.577 733.692 L213.577 713.918 L207.345 715.168 L207.345 711.974 L213.543 710.724 L217.05 710.724 L217.05 733.692 L222.779 733.692 L222.779 736.644 L207.848 736.644 L207.848 733.692 Z" fill="#000000" fill-rule="evenodd" fill-opacity="1" /><path clip-path="url(#clip630)" d="M 0 0 M229.966 736.106 L229.966 732.911 Q231.286 733.536 232.64 733.866 Q233.994 734.196 235.296 734.196 Q238.768 734.196 240.591 731.87 Q242.431 729.526 242.692 724.769 Q241.685 726.262 240.14 727.061 Q238.595 727.859 236.72 727.859 Q232.831 727.859 230.557 725.515 Q228.3 723.154 228.3 719.075 Q228.3 715.081 230.661 712.668 Q233.022 710.255 236.945 710.255 Q241.442 710.255 243.803 713.71 Q246.181 717.147 246.181 723.71 Q246.181 729.838 243.265 733.502 Q240.366 737.147 235.452 737.147 Q234.133 737.147 232.779 736.887 Q231.425 736.627 229.966 736.106 M236.945 725.116 Q239.307 725.116 240.678 723.502 Q242.067 721.887 242.067 719.075 Q242.067 716.279 240.678 714.665 Q239.307 713.033 236.945 713.033 Q234.584 713.033 233.195 714.665 Q231.824 716.279 231.824 719.075 Q231.824 721.887 233.195 723.502 Q234.584 725.116 236.945 725.116 Z" fill="#000000" fill-rule="evenodd" fill-opacity="1" /><path clip-path="url(#clip630)" d="M 0 0 M143.387 683.809 L155.627 683.809 L155.627 686.76 L139.169 686.76 L139.169 683.809 Q141.165 681.743 144.603 678.27 Q148.057 674.781 148.943 673.774 Q150.627 671.881 151.286 670.579 Q151.964 669.26 151.964 667.993 Q151.964 665.927 150.505 664.625 Q149.064 663.323 146.738 663.323 Q145.089 663.323 143.248 663.895 Q141.425 664.468 139.342 665.632 L139.342 662.09 Q141.46 661.239 143.3 660.805 Q145.141 660.371 146.668 660.371 Q150.696 660.371 153.092 662.385 Q155.488 664.399 155.488 667.767 Q155.488 669.364 154.88 670.805 Q154.29 672.229 152.71 674.173 Q152.276 674.677 149.95 677.09 Q147.623 679.486 143.387 683.809 Z" fill="#000000" fill-rule="evenodd" fill-opacity="1" /><path clip-path="url(#clip630)" d="M 0 0 M170.488 663.149 Q167.779 663.149 166.408 665.823 Q165.054 668.479 165.054 673.826 Q165.054 679.156 166.408 681.829 Q167.779 684.486 170.488 684.486 Q173.213 684.486 174.568 681.829 Q175.939 679.156 175.939 673.826 Q175.939 668.479 174.568 665.823 Q173.213 663.149 170.488 663.149 M170.488 660.371 Q174.845 660.371 177.137 663.826 Q179.446 667.263 179.446 673.826 Q179.446 680.371 177.137 683.826 Q174.845 687.263 170.488 687.263 Q166.13 687.263 163.821 683.826 Q161.529 680.371 161.529 673.826 Q161.529 667.263 163.821 663.826 Q166.13 660.371 170.488 660.371 Z" fill="#000000" fill-rule="evenodd" fill-opacity="1" /><path clip-path="url(#clip630)" d="M 0 0 M143.387 284.737 L155.627 284.737 L155.627 287.688 L139.169 287.688 L139.169 284.737 Q141.165 282.671 144.603 279.199 Q148.057 275.709 148.943 274.702 Q150.627 272.81 151.286 271.508 Q151.964 270.188 151.964 268.921 Q151.964 266.855 150.505 265.553 Q149.064 264.251 146.738 264.251 Q145.089 264.251 143.248 264.824 Q141.425 265.397 139.342 266.56 L139.342 263.018 Q141.46 262.167 143.3 261.733 Q145.141 261.299 146.668 261.299 Q150.696 261.299 153.092 263.313 Q155.488 265.327 155.488 268.695 Q155.488 270.292 154.88 271.733 Q154.29 273.157 152.71 275.101 Q152.276 275.605 149.95 278.018 Q147.623 280.414 143.387 284.737 Z" fill="#000000" fill-rule="evenodd" fill-opacity="1" /><path clip-path="url(#clip630)" d="M 0 0 M163.595 284.737 L169.325 284.737 L169.325 264.963 L163.092 266.213 L163.092 263.018 L169.29 261.768 L172.797 261.768 L172.797 284.737 L178.526 284.737 L178.526 287.688 L163.595 287.688 L163.595 284.737 Z" fill="#000000" fill-rule="evenodd" fill-opacity="1" /><path clip-path="url(#clip630)" d="M 0 0 M75.2109 833.46 L87.4504 833.46 L87.4504 836.412 L70.9921 836.412 L70.9921 833.46 Q72.9886 831.394 76.4261 827.922 Q79.881 824.433 80.7664 823.426 Q82.4504 821.533 83.1101 820.231 Q83.7872 818.912 83.7872 817.645 Q83.7872 815.579 82.3289 814.277 Q80.8879 812.974 78.5615 812.974 Q76.9122 812.974 75.072 813.547 Q73.2491 814.12 71.1657 815.283 L71.1657 811.742 Q73.2838 810.891 75.124 810.457 Q76.9643 810.023 78.4921 810.023 Q82.5198 810.023 84.9157 812.037 Q87.3115 814.051 87.3115 817.419 Q87.3115 819.016 86.7038 820.457 Q86.1136 821.881 84.5337 823.825 Q84.0997 824.329 81.7733 826.742 Q79.4469 829.138 75.2109 833.46 Z" fill="#000000" fill-rule="evenodd" fill-opacity="1" /><path clip-path="url(#clip630)" d="M 0 0 M97.8323 833.46 L110.072 833.46 L110.072 836.412 L93.6135 836.412 L93.6135 833.46 Q95.61 831.394 99.0475 827.922 Q102.502 824.433 103.388 823.426 Q105.072 821.533 105.732 820.231 Q106.409 818.912 106.409 817.645 Q106.409 815.579 104.95 814.277 Q103.509 812.974 101.183 812.974 Q99.5336 812.974 97.6934 813.547 Q95.8705 814.12 93.7871 815.283 L93.7871 811.742 Q95.9052 810.891 97.7455 810.457 Q99.5857 810.023 101.113 810.023 Q105.141 810.023 107.537 812.037 Q109.933 814.051 109.933 817.419 Q109.933 819.016 109.325 820.457 Q108.735 821.881 107.155 823.825 Q106.721 824.329 104.395 826.742 Q102.068 829.138 97.8323 833.46 Z" fill="#000000" fill-rule="evenodd" fill-opacity="1" /><path clip-path="url(#clip630)" d="M 0 0 M75.2109 434.389 L87.4504 434.389 L87.4504 437.34 L70.9921 437.34 L70.9921 434.389 Q72.9886 432.323 76.4261 428.85 Q79.881 425.361 80.7664 424.354 Q82.4504 422.462 83.1101 421.16 Q83.7872 419.84 83.7872 418.573 Q83.7872 416.507 82.3289 415.205 Q80.8879 413.903 78.5615 413.903 Q76.9122 413.903 75.072 414.476 Q73.2491 415.048 71.1657 416.212 L71.1657 412.67 Q73.2838 411.819 75.124 411.385 Q76.9643 410.951 78.4921 410.951 Q82.5198 410.951 84.9157 412.965 Q87.3115 414.979 87.3115 418.347 Q87.3115 419.944 86.7038 421.385 Q86.1136 422.809 84.5337 424.753 Q84.0997 425.257 81.7733 427.67 Q79.4469 430.066 75.2109 434.389 Z" fill="#000000" fill-rule="evenodd" fill-opacity="1" /><path clip-path="url(#clip630)" d="M 0 0 M105.436 423.364 Q107.954 423.903 109.36 425.604 Q110.784 427.305 110.784 429.805 Q110.784 433.642 108.145 435.743 Q105.506 437.843 100.645 437.843 Q99.0128 437.843 97.2767 437.514 Q95.558 437.201 93.7177 436.559 L93.7177 433.173 Q95.176 434.024 96.9121 434.458 Q98.6482 434.892 100.541 434.892 Q103.839 434.892 105.558 433.59 Q107.294 432.288 107.294 429.805 Q107.294 427.514 105.679 426.229 Q104.082 424.927 101.218 424.927 L98.1968 424.927 L98.1968 422.045 L101.357 422.045 Q103.943 422.045 105.315 421.021 Q106.686 419.979 106.686 418.035 Q106.686 416.038 105.263 414.979 Q103.857 413.903 101.218 413.903 Q99.7767 413.903 98.1274 414.215 Q96.4781 414.528 94.4989 415.187 L94.4989 412.062 Q96.4955 411.507 98.2316 411.229 Q99.985 410.951 101.53 410.951 Q105.523 410.951 107.85 412.774 Q110.176 414.58 110.176 417.67 Q110.176 419.823 108.943 421.316 Q107.711 422.791 105.436 423.364 Z" fill="#000000" fill-rule="evenodd" fill-opacity="1" /><path clip-path="url(#clip630)" d="M 0 0 M416.093 683.809 L428.332 683.809 L428.332 686.76 L411.874 686.76 L411.874 683.809 Q413.871 681.743 417.308 678.27 Q420.763 674.781 421.648 673.774 Q423.332 671.881 423.992 670.579 Q424.669 669.26 424.669 667.993 Q424.669 665.927 423.211 664.625 Q421.77 663.323 419.443 663.323 Q417.794 663.323 415.954 663.895 Q414.131 664.468 412.048 665.632 L412.048 662.09 Q414.166 661.239 416.006 660.805 Q417.846 660.371 419.374 660.371 Q423.402 660.371 425.798 662.385 Q428.193 664.399 428.193 667.767 Q428.193 669.364 427.586 670.805 Q426.995 672.229 425.416 674.173 Q424.982 674.677 422.655 677.09 Q420.329 679.486 416.093 683.809 Z" fill="#000000" fill-rule="evenodd" fill-opacity="1" /><path clip-path="url(#clip630)" d="M 0 0 M445.329 663.895 L436.475 677.732 L445.329 677.732 L445.329 663.895 M444.409 660.84 L448.818 660.84 L448.818 677.732 L452.516 677.732 L452.516 680.649 L448.818 680.649 L448.818 686.76 L445.329 686.76 L445.329 680.649 L433.627 680.649 L433.627 677.263 L444.409 660.84 Z" fill="#000000" fill-rule="evenodd" fill-opacity="1" /><circle clip-path="url(#clip632)" cx="343.698" cy="145.812" r="14" fill="#0000ff" fill-rule="evenodd" fill-opacity="1" stroke="none"/>
<circle clip-path="url(#clip632)" cx="275.521" cy="95.9282" r="14" fill="#0000ff" fill-rule="evenodd" fill-opacity="1" stroke="none"/>
<circle clip-path="url(#clip632)" cx="275.521" cy="295.464" r="14" fill="#0000ff" fill-rule="evenodd" fill-opacity="1" stroke="none"/>
<circle clip-path="url(#clip632)" cx="207.345" cy="245.58" r="14" fill="#0000ff" fill-rule="evenodd" fill-opacity="1" stroke="none"/>
<circle clip-path="url(#clip632)" cx="70.9921" cy="145.812" r="14" fill="#0000ff" fill-rule="evenodd" fill-opacity="1" stroke="none"/>
<circle clip-path="url(#clip632)" cx="411.874" cy="395.232" r="14" fill="#0000ff" fill-rule="evenodd" fill-opacity="1" stroke="none"/>
<circle clip-path="url(#clip632)" cx="411.874" cy="295.464" r="14" fill="#0000ff" fill-rule="evenodd" fill-opacity="1" stroke="none"/>
<circle clip-path="url(#clip632)" cx="343.698" cy="245.58" r="14" fill="#0000ff" fill-rule="evenodd" fill-opacity="1" stroke="none"/>
<circle clip-path="url(#clip632)" cx="275.521" cy="395.232" r="14" fill="#0000ff" fill-rule="evenodd" fill-opacity="1" stroke="none"/>
<circle clip-path="url(#clip632)" cx="207.345" cy="145.812" r="14" fill="#0000ff" fill-rule="evenodd" fill-opacity="1" stroke="none"/>
<circle clip-path="url(#clip632)" cx="139.169" cy="95.9282" r="14" fill="#0000ff" fill-rule="evenodd" fill-opacity="1" stroke="none"/>
<circle clip-path="url(#clip632)" cx="70.9921" cy="245.58" r="14" fill="#0000ff" fill-rule="evenodd" fill-opacity="1" stroke="none"/>
<circle clip-path="url(#clip632)" cx="411.874" cy="95.9282" r="14" fill="#0000ff" fill-rule="evenodd" fill-opacity="1" stroke="none"/>
<path clip-path="url(#clip630)" d="M 0 0 M355.416 124.061 Q357.934 124.599 359.34 126.3 Q360.764 128.002 360.764 130.502 Q360.764 134.338 358.125 136.439 Q355.486 138.54 350.625 138.54 Q348.993 138.54 347.257 138.21 Q345.538 137.897 343.698 137.255 L343.698 133.87 Q345.156 134.72 346.892 135.154 Q348.628 135.588 350.521 135.588 Q353.819 135.588 355.538 134.286 Q357.274 132.984 357.274 130.502 Q357.274 128.21 355.659 126.925 Q354.062 125.623 351.198 125.623 L348.177 125.623 L348.177 122.741 L351.336 122.741 Q353.923 122.741 355.295 121.717 Q356.666 120.675 356.666 118.731 Q356.666 116.734 355.243 115.675 Q353.836 114.599 351.198 114.599 Q349.757 114.599 348.107 114.911 Q346.458 115.224 344.479 115.884 L344.479 112.759 Q346.475 112.203 348.212 111.925 Q349.965 111.647 351.51 111.647 Q355.503 111.647 357.83 113.47 Q360.156 115.276 360.156 118.366 Q360.156 120.519 358.923 122.012 Q357.691 123.488 355.416 124.061 Z" fill="#000000" fill-rule="evenodd" fill-opacity="1" /><path clip-path="url(#clip630)" d="M 0 0 M287.223 65.2878 L278.368 79.1245 L287.223 79.1245 L287.223 65.2878 M286.302 62.2322 L290.712 62.2322 L290.712 79.1245 L294.41 79.1245 L294.41 82.0411 L290.712 82.0411 L290.712 88.1522 L287.223 88.1522 L287.223 82.0411 L275.521 82.0411 L275.521 78.6557 L286.302 62.2322 Z" fill="#000000" fill-rule="evenodd" fill-opacity="1" /><path clip-path="url(#clip630)" d="M 0 0 M276.615 261.768 L290.382 261.768 L290.382 264.719 L279.827 264.719 L279.827 271.074 Q280.591 270.813 281.355 270.692 Q282.118 270.553 282.882 270.553 Q287.223 270.553 289.757 272.931 Q292.292 275.31 292.292 279.372 Q292.292 283.556 289.688 285.883 Q287.084 288.192 282.344 288.192 Q280.712 288.192 279.011 287.914 Q277.327 287.636 275.521 287.08 L275.521 283.556 Q277.084 284.407 278.75 284.824 Q280.417 285.24 282.275 285.24 Q285.278 285.24 287.032 283.66 Q288.785 282.081 288.785 279.372 Q288.785 276.664 287.032 275.084 Q285.278 273.504 282.275 273.504 Q280.868 273.504 279.462 273.817 Q278.073 274.129 276.615 274.789 L276.615 261.768 Z" fill="#000000" fill-rule="evenodd" fill-opacity="1" /><path clip-path="url(#clip630)" d="M 0 0 M216.598 223.447 Q214.237 223.447 212.848 225.061 Q211.477 226.676 211.477 229.488 Q211.477 232.283 212.848 233.915 Q214.237 235.53 216.598 235.53 Q218.959 235.53 220.331 233.915 Q221.72 232.283 221.72 229.488 Q221.72 226.676 220.331 225.061 Q218.959 223.447 216.598 223.447 M223.56 212.457 L223.56 215.651 Q222.241 215.026 220.886 214.697 Q219.55 214.367 218.23 214.367 Q214.758 214.367 212.918 216.711 Q211.095 219.054 210.834 223.794 Q211.859 222.283 213.404 221.485 Q214.949 220.669 216.807 220.669 Q220.713 220.669 222.97 223.047 Q225.244 225.408 225.244 229.488 Q225.244 233.481 222.883 235.894 Q220.522 238.308 216.598 238.308 Q212.102 238.308 209.723 234.87 Q207.345 231.415 207.345 224.87 Q207.345 218.724 210.262 215.079 Q213.178 211.415 218.091 211.415 Q219.411 211.415 220.748 211.676 Q222.102 211.936 223.56 212.457 Z" fill="#000000" fill-rule="evenodd" fill-opacity="1" /><path clip-path="url(#clip630)" d="M 0 0 M71.4956 135.085 L77.2247 135.085 L77.2247 115.311 L70.9921 116.561 L70.9921 113.366 L77.19 112.116 L80.6969 112.116 L80.6969 135.085 L86.4261 135.085 L86.4261 138.036 L71.4956 138.036 L71.4956 135.085 Z" fill="#000000" fill-rule="evenodd" fill-opacity="1" /><path clip-path="url(#clip630)" d="M 0 0 M94.117 135.085 L99.8461 135.085 L99.8461 115.311 L93.6135 116.561 L93.6135 113.366 L99.8114 112.116 L103.318 112.116 L103.318 135.085 L109.047 135.085 L109.047 138.036 L94.117 138.036 L94.117 135.085 Z" fill="#000000" fill-rule="evenodd" fill-opacity="1" /><path clip-path="url(#clip630)" d="M 0 0 M412.377 384.505 L418.107 384.505 L418.107 364.73 L411.874 365.98 L411.874 362.786 L418.072 361.536 L421.579 361.536 L421.579 384.505 L427.308 384.505 L427.308 387.456 L412.377 387.456 L412.377 384.505 Z" fill="#000000" fill-rule="evenodd" fill-opacity="1" /><path clip-path="url(#clip630)" d="M 0 0 M437.412 384.505 L449.652 384.505 L449.652 387.456 L433.193 387.456 L433.193 384.505 Q435.19 382.439 438.627 378.967 Q442.082 375.477 442.968 374.47 Q444.652 372.578 445.311 371.276 Q445.988 369.956 445.988 368.689 Q445.988 366.623 444.53 365.321 Q443.089 364.019 440.763 364.019 Q439.113 364.019 437.273 364.592 Q435.45 365.165 433.367 366.328 L433.367 362.786 Q435.485 361.935 437.325 361.501 Q439.166 361.067 440.693 361.067 Q444.721 361.067 447.117 363.081 Q449.513 365.095 449.513 368.463 Q449.513 370.06 448.905 371.501 Q448.315 372.925 446.735 374.869 Q446.301 375.373 443.975 377.786 Q441.648 380.182 437.412 384.505 Z" fill="#000000" fill-rule="evenodd" fill-opacity="1" /><path clip-path="url(#clip630)" d="M 0 0 M412.377 284.737 L418.107 284.737 L418.107 264.963 L411.874 266.213 L411.874 263.018 L418.072 261.768 L421.579 261.768 L421.579 284.737 L427.308 284.737 L427.308 287.688 L412.377 287.688 L412.377 284.737 Z" fill="#000000" fill-rule="evenodd" fill-opacity="1" /><path clip-path="url(#clip630)" d="M 0 0 M445.016 273.712 Q447.534 274.251 448.94 275.952 Q450.363 277.653 450.363 280.153 Q450.363 283.99 447.725 286.091 Q445.086 288.192 440.225 288.192 Q438.593 288.192 436.857 287.862 Q435.138 287.549 433.298 286.907 L433.298 283.521 Q434.756 284.372 436.492 284.806 Q438.228 285.24 440.12 285.24 Q443.419 285.24 445.138 283.938 Q446.874 282.636 446.874 280.153 Q446.874 277.862 445.259 276.577 Q443.662 275.275 440.797 275.275 L437.777 275.275 L437.777 272.393 L440.936 272.393 Q443.523 272.393 444.895 271.369 Q446.266 270.327 446.266 268.383 Q446.266 266.386 444.843 265.327 Q443.436 264.251 440.797 264.251 Q439.357 264.251 437.707 264.563 Q436.058 264.876 434.079 265.535 L434.079 262.41 Q436.075 261.855 437.811 261.577 Q439.565 261.299 441.11 261.299 Q445.103 261.299 447.429 263.122 Q449.756 264.928 449.756 268.018 Q449.756 270.171 448.523 271.664 Q447.29 273.14 445.016 273.712 Z" fill="#000000" fill-rule="evenodd" fill-opacity="1" /><path clip-path="url(#clip630)" d="M 0 0 M344.201 234.853 L349.93 234.853 L349.93 215.079 L343.698 216.329 L343.698 213.134 L349.896 211.884 L353.402 211.884 L353.402 234.853 L359.132 234.853 L359.132 237.804 L344.201 237.804 L344.201 234.853 Z" fill="#000000" fill-rule="evenodd" fill-opacity="1" /><path clip-path="url(#clip630)" d="M 0 0 M375.85 214.94 L366.996 228.776 L375.85 228.776 L375.85 214.94 M374.93 211.884 L379.34 211.884 L379.34 228.776 L383.038 228.776 L383.038 231.693 L379.34 231.693 L379.34 237.804 L375.85 237.804 L375.85 231.693 L364.149 231.693 L364.149 228.308 L374.93 211.884 Z" fill="#000000" fill-rule="evenodd" fill-opacity="1" /><path clip-path="url(#clip630)" d="M 0 0 M276.025 384.505 L281.754 384.505 L281.754 364.73 L275.521 365.98 L275.521 362.786 L281.719 361.536 L285.226 361.536 L285.226 384.505 L290.955 384.505 L290.955 387.456 L276.025 387.456 L276.025 384.505 Z" fill="#000000" fill-rule="evenodd" fill-opacity="1" /><path clip-path="url(#clip630)" d="M 0 0 M305.972 373.098 Q303.611 373.098 302.223 374.713 Q300.851 376.328 300.851 379.14 Q300.851 381.935 302.223 383.567 Q303.611 385.182 305.972 385.182 Q308.334 385.182 309.705 383.567 Q311.094 381.935 311.094 379.14 Q311.094 376.328 309.705 374.713 Q308.334 373.098 305.972 373.098 M312.934 362.109 L312.934 365.303 Q311.615 364.678 310.261 364.349 Q308.924 364.019 307.604 364.019 Q304.132 364.019 302.292 366.362 Q300.469 368.706 300.209 373.446 Q301.233 371.935 302.778 371.137 Q304.323 370.321 306.181 370.321 Q310.087 370.321 312.344 372.699 Q314.618 375.06 314.618 379.14 Q314.618 383.133 312.257 385.546 Q309.896 387.96 305.972 387.96 Q301.476 387.96 299.098 384.522 Q296.719 381.067 296.719 374.522 Q296.719 368.376 299.636 364.73 Q302.552 361.067 307.466 361.067 Q308.785 361.067 310.122 361.328 Q311.476 361.588 312.934 362.109 Z" fill="#000000" fill-rule="evenodd" fill-opacity="1" /><path clip-path="url(#clip630)" d="M 0 0 M207.848 135.085 L213.577 135.085 L213.577 115.311 L207.345 116.561 L207.345 113.366 L213.543 112.116 L217.05 112.116 L217.05 135.085 L222.779 135.085 L222.779 138.036 L207.848 138.036 L207.848 135.085 Z" fill="#000000" fill-rule="evenodd" fill-opacity="1" /><path clip-path="url(#clip630)" d="M 0 0 M229.966 137.498 L229.966 134.304 Q231.286 134.929 232.64 135.258 Q233.994 135.588 235.296 135.588 Q238.768 135.588 240.591 133.262 Q242.431 130.918 242.692 126.161 Q241.685 127.654 240.14 128.453 Q238.595 129.252 236.72 129.252 Q232.831 129.252 230.557 126.908 Q228.3 124.547 228.3 120.467 Q228.3 116.474 230.661 114.061 Q233.022 111.647 236.945 111.647 Q241.442 111.647 243.803 115.102 Q246.181 118.54 246.181 125.102 Q246.181 131.231 243.265 134.894 Q240.366 138.54 235.452 138.54 Q234.133 138.54 232.779 138.279 Q231.425 138.019 229.966 137.498 M236.945 126.508 Q239.307 126.508 240.678 124.894 Q242.067 123.279 242.067 120.467 Q242.067 117.672 240.678 116.057 Q239.307 114.425 236.945 114.425 Q234.584 114.425 233.195 116.057 Q231.824 117.672 231.824 120.467 Q231.824 123.279 233.195 124.894 Q234.584 126.508 236.945 126.508 Z" fill="#000000" fill-rule="evenodd" fill-opacity="1" /><path clip-path="url(#clip630)" d="M 0 0 M143.387 85.2008 L155.627 85.2008 L155.627 88.1522 L139.169 88.1522 L139.169 85.2008 Q141.165 83.1349 144.603 79.6627 Q148.057 76.1731 148.943 75.1662 Q150.627 73.2738 151.286 71.9718 Q151.964 70.6523 151.964 69.385 Q151.964 67.319 150.505 66.0169 Q149.064 64.7148 146.738 64.7148 Q145.089 64.7148 143.248 65.2878 Q141.425 65.8607 139.342 67.0239 L139.342 63.4822 Q141.46 62.6315 143.3 62.1975 Q145.141 61.7635 146.668 61.7635 Q150.696 61.7635 153.092 63.7774 Q155.488 65.7912 155.488 69.1593 Q155.488 70.7565 154.88 72.1974 Q154.29 73.621 152.71 75.5655 Q152.276 76.069 149.95 78.4821 Q147.623 80.878 143.387 85.2008 Z" fill="#000000" fill-rule="evenodd" fill-opacity="1" /><path clip-path="url(#clip630)" d="M 0 0 M170.488 64.5412 Q167.779 64.5412 166.408 67.2148 Q165.054 69.8711 165.054 75.2183 Q165.054 80.5481 166.408 83.2217 Q167.779 85.8779 170.488 85.8779 Q173.213 85.8779 174.568 83.2217 Q175.939 80.5481 175.939 75.2183 Q175.939 69.8711 174.568 67.2148 Q173.213 64.5412 170.488 64.5412 M170.488 61.7635 Q174.845 61.7635 177.137 65.2183 Q179.446 68.6558 179.446 75.2183 Q179.446 81.7634 177.137 85.2182 Q174.845 88.6557 170.488 88.6557 Q166.13 88.6557 163.821 85.2182 Q161.529 81.7634 161.529 75.2183 Q161.529 68.6558 163.821 65.2183 Q166.13 61.7635 170.488 61.7635 Z" fill="#000000" fill-rule="evenodd" fill-opacity="1" /><path clip-path="url(#clip630)" d="M 0 0 M75.2109 234.853 L87.4504 234.853 L87.4504 237.804 L70.9921 237.804 L70.9921 234.853 Q72.9886 232.787 76.4261 229.315 Q79.881 225.825 80.7664 224.818 Q82.4504 222.926 83.1101 221.624 Q83.7872 220.304 83.7872 219.037 Q83.7872 216.971 82.3289 215.669 Q80.8879 214.367 78.5615 214.367 Q76.9122 214.367 75.072 214.94 Q73.2491 215.513 71.1657 216.676 L71.1657 213.134 Q73.2838 212.283 75.124 211.849 Q76.9643 211.415 78.4921 211.415 Q82.5198 211.415 84.9157 213.429 Q87.3115 215.443 87.3115 218.811 Q87.3115 220.408 86.7038 221.849 Q86.1136 223.273 84.5337 225.217 Q84.0997 225.721 81.7733 228.134 Q79.4469 230.53 75.2109 234.853 Z" fill="#000000" fill-rule="evenodd" fill-opacity="1" /><path clip-path="url(#clip630)" d="M 0 0 M97.8323 234.853 L110.072 234.853 L110.072 237.804 L93.6135 237.804 L93.6135 234.853 Q95.61 232.787 99.0475 229.315 Q102.502 225.825 103.388 224.818 Q105.072 222.926 105.732 221.624 Q106.409 220.304 106.409 219.037 Q106.409 216.971 104.95 215.669 Q103.509 214.367 101.183 214.367 Q99.5336 214.367 97.6934 214.94 Q95.8705 215.513 93.7871 216.676 L93.7871 213.134 Q95.9052 212.283 97.7455 211.849 Q99.5857 211.415 101.113 211.415 Q105.141 211.415 107.537 213.429 Q109.933 215.443 109.933 218.811 Q109.933 220.408 109.325 221.849 Q108.735 223.273 107.155 225.217 Q106.721 225.721 104.395 228.134 Q102.068 230.53 97.8323 234.853 Z" fill="#000000" fill-rule="evenodd" fill-opacity="1" /><path clip-path="url(#clip630)" d="M 0 0 M416.093 85.2008 L428.332 85.2008 L428.332 88.1522 L411.874 88.1522 L411.874 85.2008 Q413.871 83.1349 417.308 79.6627 Q420.763 76.1731 421.648 75.1662 Q423.332 73.2738 423.992 71.9718 Q424.669 70.6523 424.669 69.385 Q424.669 67.319 423.211 66.0169 Q421.77 64.7148 419.443 64.7148 Q417.794 64.7148 415.954 65.2878 Q414.131 65.8607 412.048 67.0239 L412.048 63.4822 Q414.166 62.6315 416.006 62.1975 Q417.846 61.7635 419.374 61.7635 Q423.402 61.7635 425.798 63.7774 Q428.193 65.7912 428.193 69.1593 Q428.193 70.7565 427.586 72.1974 Q426.995 73.621 425.416 75.5655 Q424.982 76.069 422.655 78.4821 Q420.329 80.878 416.093 85.2008 Z" fill="#000000" fill-rule="evenodd" fill-opacity="1" /><path clip-path="url(#clip630)" d="M 0 0 M445.329 65.2878 L436.475 79.1245 L445.329 79.1245 L445.329 65.2878 M444.409 62.2322 L448.818 62.2322 L448.818 79.1245 L452.516 79.1245 L452.516 82.0411 L448.818 82.0411 L448.818 88.1522 L445.329 88.1522 L445.329 82.0411 L433.627 82.0411 L433.627 78.6557 L444.409 62.2322 Z" fill="#000000" fill-rule="evenodd" fill-opacity="1" /><circle clip-path="url(#clip632)" cx="752.756" cy="844.188" r="14" fill="#0000ff" fill-rule="evenodd" fill-opacity="1" stroke="none"/>
<circle clip-path="url(#clip632)" cx="616.403" cy="744.42" r="14" fill="#0000ff" fill-rule="evenodd" fill-opacity="1" stroke="none"/>
<circle clip-path="url(#clip632)" cx="548.227" cy="694.536" r="14" fill="#0000ff" fill-rule="evenodd" fill-opacity="1" stroke="none"/>
<circle clip-path="url(#clip632)" cx="548.227" cy="894.072" r="14" fill="#0000ff" fill-rule="evenodd" fill-opacity="1" stroke="none"/>
<circle clip-path="url(#clip632)" cx="480.05" cy="844.188" r="14" fill="#0000ff" fill-rule="evenodd" fill-opacity="1" stroke="none"/>
<circle clip-path="url(#clip632)" cx="752.756" cy="744.42" r="14" fill="#0000ff" fill-rule="evenodd" fill-opacity="1" stroke="none"/>
<circle clip-path="url(#clip632)" cx="684.58" cy="894.072" r="14" fill="#0000ff" fill-rule="evenodd" fill-opacity="1" stroke="none"/>
<circle clip-path="url(#clip632)" cx="616.403" cy="844.188" r="14" fill="#0000ff" fill-rule="evenodd" fill-opacity="1" stroke="none"/>
<circle clip-path="url(#clip632)" cx="548.227" cy="594.768" r="14" fill="#0000ff" fill-rule="evenodd" fill-opacity="1" stroke="none"/>
<circle clip-path="url(#clip632)" cx="480.05" cy="744.42" r="14" fill="#0000ff" fill-rule="evenodd" fill-opacity="1" stroke="none"/>
<path clip-path="url(#clip630)" d="M 0 0 M756.975 833.46 L769.214 833.46 L769.214 836.412 L752.756 836.412 L752.756 833.46 Q754.752 831.394 758.19 827.922 Q761.645 824.433 762.53 823.426 Q764.214 821.533 764.874 820.231 Q765.551 818.912 765.551 817.645 Q765.551 815.579 764.093 814.277 Q762.652 812.974 760.325 812.974 Q758.676 812.974 756.836 813.547 Q755.013 814.12 752.93 815.283 L752.93 811.742 Q755.048 810.891 756.888 810.457 Q758.728 810.023 760.256 810.023 Q764.284 810.023 766.679 812.037 Q769.075 814.051 769.075 817.419 Q769.075 819.016 768.468 820.457 Q767.877 821.881 766.297 823.825 Q765.863 824.329 763.537 826.742 Q761.211 829.138 756.975 833.46 Z" fill="#000000" fill-rule="evenodd" fill-opacity="1" /><path clip-path="url(#clip630)" d="M 0 0 M616.403 710.724 L633.07 710.724 L633.07 712.217 L623.66 736.644 L619.997 736.644 L628.851 713.675 L616.403 713.675 L616.403 710.724 Z" fill="#000000" fill-rule="evenodd" fill-opacity="1" /><path clip-path="url(#clip630)" d="M 0 0 M557.116 674.451 Q554.616 674.451 553.175 675.788 Q551.751 677.125 551.751 679.468 Q551.751 681.812 553.175 683.149 Q554.616 684.486 557.116 684.486 Q559.616 684.486 561.057 683.149 Q562.498 681.795 562.498 679.468 Q562.498 677.125 561.057 675.788 Q559.633 674.451 557.116 674.451 M553.609 672.958 Q551.352 672.402 550.084 670.857 Q548.834 669.312 548.834 667.09 Q548.834 663.982 551.039 662.177 Q553.261 660.371 557.116 660.371 Q560.987 660.371 563.192 662.177 Q565.397 663.982 565.397 667.09 Q565.397 669.312 564.129 670.857 Q562.879 672.402 560.64 672.958 Q563.175 673.548 564.581 675.267 Q566.004 676.986 566.004 679.468 Q566.004 683.236 563.695 685.249 Q561.404 687.263 557.116 687.263 Q552.827 687.263 550.518 685.249 Q548.227 683.236 548.227 679.468 Q548.227 676.986 549.65 675.267 Q551.074 673.548 553.609 672.958 M552.324 667.42 Q552.324 669.434 553.574 670.562 Q554.841 671.691 557.116 671.691 Q559.373 671.691 560.64 670.562 Q561.925 669.434 561.925 667.42 Q561.925 665.406 560.64 664.277 Q559.373 663.149 557.116 663.149 Q554.841 663.149 553.574 664.277 Q552.324 665.406 552.324 667.42 Z" fill="#000000" fill-rule="evenodd" fill-opacity="1" /><path clip-path="url(#clip630)" d="M 0 0 M549.893 885.758 L549.893 882.563 Q551.213 883.188 552.567 883.518 Q553.921 883.848 555.223 883.848 Q558.695 883.848 560.518 881.521 Q562.359 879.178 562.619 874.421 Q561.612 875.914 560.067 876.712 Q558.522 877.511 556.647 877.511 Q552.758 877.511 550.484 875.167 Q548.227 872.806 548.227 868.726 Q548.227 864.733 550.588 862.32 Q552.949 859.907 556.873 859.907 Q561.369 859.907 563.73 863.362 Q566.109 866.799 566.109 873.362 Q566.109 879.49 563.192 883.153 Q560.293 886.799 555.38 886.799 Q554.06 886.799 552.706 886.539 Q551.352 886.278 549.893 885.758 M556.873 874.768 Q559.234 874.768 560.605 873.153 Q561.994 871.539 561.994 868.726 Q561.994 865.931 560.605 864.317 Q559.234 862.685 556.873 862.685 Q554.511 862.685 553.123 864.317 Q551.751 865.931 551.751 868.726 Q551.751 871.539 553.123 873.153 Q554.511 874.768 556.873 874.768 Z" fill="#000000" fill-rule="evenodd" fill-opacity="1" /><path clip-path="url(#clip630)" d="M 0 0 M480.554 833.46 L486.283 833.46 L486.283 813.686 L480.05 814.936 L480.05 811.742 L486.248 810.492 L489.755 810.492 L489.755 833.46 L495.484 833.46 L495.484 836.412 L480.554 836.412 L480.554 833.46 Z" fill="#000000" fill-rule="evenodd" fill-opacity="1" /><path clip-path="url(#clip630)" d="M 0 0 M510.068 812.801 Q507.359 812.801 505.988 815.474 Q504.634 818.131 504.634 823.478 Q504.634 828.808 505.988 831.481 Q507.359 834.138 510.068 834.138 Q512.793 834.138 514.147 831.481 Q515.519 828.808 515.519 823.478 Q515.519 818.131 514.147 815.474 Q512.793 812.801 510.068 812.801 M510.068 810.023 Q514.425 810.023 516.717 813.478 Q519.026 816.915 519.026 823.478 Q519.026 830.023 516.717 833.478 Q514.425 836.915 510.068 836.915 Q505.71 836.915 503.401 833.478 Q501.109 830.023 501.109 823.478 Q501.109 816.915 503.401 813.478 Q505.71 810.023 510.068 810.023 Z" fill="#000000" fill-rule="evenodd" fill-opacity="1" /><path clip-path="url(#clip630)" d="M 0 0 M753.259 733.692 L758.989 733.692 L758.989 713.918 L752.756 715.168 L752.756 711.974 L758.954 710.724 L762.461 710.724 L762.461 733.692 L768.19 733.692 L768.19 736.644 L753.259 736.644 L753.259 733.692 Z" fill="#000000" fill-rule="evenodd" fill-opacity="1" /><path clip-path="url(#clip630)" d="M 0 0 M775.308 710.724 L789.075 710.724 L789.075 713.675 L778.52 713.675 L778.52 720.029 Q779.284 719.769 780.047 719.647 Q780.811 719.509 781.575 719.509 Q785.915 719.509 788.45 721.887 Q790.985 724.265 790.985 728.328 Q790.985 732.512 788.381 734.838 Q785.777 737.147 781.037 737.147 Q779.405 737.147 777.704 736.87 Q776.02 736.592 774.214 736.036 L774.214 732.512 Q775.777 733.363 777.443 733.779 Q779.11 734.196 780.968 734.196 Q783.971 734.196 785.724 732.616 Q787.478 731.036 787.478 728.328 Q787.478 725.62 785.724 724.04 Q783.971 722.46 780.968 722.46 Q779.561 722.46 778.155 722.772 Q776.766 723.085 775.308 723.745 L775.308 710.724 Z" fill="#000000" fill-rule="evenodd" fill-opacity="1" /><path clip-path="url(#clip630)" d="M 0 0 M685.083 883.344 L690.812 883.344 L690.812 863.57 L684.58 864.82 L684.58 861.626 L690.777 860.376 L694.284 860.376 L694.284 883.344 L700.013 883.344 L700.013 886.296 L685.083 886.296 L685.083 883.344 Z" fill="#000000" fill-rule="evenodd" fill-opacity="1" /><path clip-path="url(#clip630)" d="M 0 0 M706.211 860.376 L722.878 860.376 L722.878 861.869 L713.468 886.296 L709.805 886.296 L718.659 863.327 L706.211 863.327 L706.211 860.376 Z" fill="#000000" fill-rule="evenodd" fill-opacity="1" /><path clip-path="url(#clip630)" d="M 0 0 M616.907 833.46 L622.636 833.46 L622.636 813.686 L616.403 814.936 L616.403 811.742 L622.601 810.492 L626.108 810.492 L626.108 833.46 L631.837 833.46 L631.837 836.412 L616.907 836.412 L616.907 833.46 Z" fill="#000000" fill-rule="evenodd" fill-opacity="1" /><path clip-path="url(#clip630)" d="M 0 0 M646.42 824.103 Q643.92 824.103 642.479 825.44 Q641.056 826.776 641.056 829.12 Q641.056 831.464 642.479 832.801 Q643.92 834.138 646.42 834.138 Q648.92 834.138 650.361 832.801 Q651.802 831.447 651.802 829.12 Q651.802 826.776 650.361 825.44 Q648.938 824.103 646.42 824.103 M642.913 822.61 Q640.656 822.054 639.389 820.509 Q638.139 818.964 638.139 816.742 Q638.139 813.634 640.344 811.829 Q642.566 810.023 646.42 810.023 Q650.292 810.023 652.497 811.829 Q654.702 813.634 654.702 816.742 Q654.702 818.964 653.434 820.509 Q652.184 822.054 649.945 822.61 Q652.479 823.2 653.886 824.919 Q655.309 826.638 655.309 829.12 Q655.309 832.888 653 834.901 Q650.709 836.915 646.42 836.915 Q642.132 836.915 639.823 834.901 Q637.532 832.888 637.532 829.12 Q637.532 826.638 638.955 824.919 Q640.379 823.2 642.913 822.61 M641.629 817.072 Q641.629 819.086 642.879 820.214 Q644.146 821.342 646.42 821.342 Q648.677 821.342 649.945 820.214 Q651.229 819.086 651.229 817.072 Q651.229 815.058 649.945 813.929 Q648.677 812.801 646.42 812.801 Q644.146 812.801 642.879 813.929 Q641.629 815.058 641.629 817.072 Z" fill="#000000" fill-rule="evenodd" fill-opacity="1" /><path clip-path="url(#clip630)" d="M 0 0 M552.445 584.041 L564.685 584.041 L564.685 586.992 L548.227 586.992 L548.227 584.041 Q550.223 581.975 553.661 578.502 Q557.116 575.013 558.001 574.006 Q559.685 572.114 560.345 570.811 Q561.022 569.492 561.022 568.225 Q561.022 566.159 559.564 564.857 Q558.123 563.555 555.796 563.555 Q554.147 563.555 552.307 564.127 Q550.484 564.7 548.4 565.864 L548.4 562.322 Q550.518 561.471 552.359 561.037 Q554.199 560.603 555.727 560.603 Q559.754 560.603 562.15 562.617 Q564.546 564.631 564.546 567.999 Q564.546 569.596 563.938 571.037 Q563.348 572.461 561.768 574.405 Q561.334 574.909 559.008 577.322 Q556.682 579.718 552.445 584.041 Z" fill="#000000" fill-rule="evenodd" fill-opacity="1" /><path clip-path="url(#clip630)" d="M 0 0 M572.654 584.041 L578.383 584.041 L578.383 564.266 L572.15 565.516 L572.15 562.322 L578.348 561.072 L581.855 561.072 L581.855 584.041 L587.584 584.041 L587.584 586.992 L572.654 586.992 L572.654 584.041 Z" fill="#000000" fill-rule="evenodd" fill-opacity="1" /><path clip-path="url(#clip630)" d="M 0 0 M484.269 733.692 L496.509 733.692 L496.509 736.644 L480.05 736.644 L480.05 733.692 Q482.047 731.627 485.484 728.154 Q488.939 724.665 489.825 723.658 Q491.509 721.765 492.168 720.463 Q492.845 719.144 492.845 717.877 Q492.845 715.811 491.387 714.509 Q489.946 713.206 487.62 713.206 Q485.971 713.206 484.13 713.779 Q482.307 714.352 480.224 715.516 L480.224 711.974 Q482.342 711.123 484.182 710.689 Q486.023 710.255 487.55 710.255 Q491.578 710.255 493.974 712.269 Q496.37 714.283 496.37 717.651 Q496.37 719.248 495.762 720.689 Q495.172 722.113 493.592 724.057 Q493.158 724.561 490.832 726.974 Q488.505 729.37 484.269 733.692 Z" fill="#000000" fill-rule="evenodd" fill-opacity="1" /><path clip-path="url(#clip630)" d="M 0 0 M514.495 722.668 Q517.012 723.206 518.418 724.908 Q519.842 726.609 519.842 729.109 Q519.842 732.946 517.203 735.047 Q514.564 737.147 509.703 737.147 Q508.071 737.147 506.335 736.817 Q504.616 736.505 502.776 735.863 L502.776 732.477 Q504.234 733.328 505.97 733.762 Q507.706 734.196 509.599 734.196 Q512.897 734.196 514.616 732.894 Q516.352 731.592 516.352 729.109 Q516.352 726.818 514.738 725.533 Q513.14 724.231 510.276 724.231 L507.255 724.231 L507.255 721.349 L510.415 721.349 Q513.002 721.349 514.373 720.325 Q515.745 719.283 515.745 717.338 Q515.745 715.342 514.321 714.283 Q512.915 713.206 510.276 713.206 Q508.835 713.206 507.186 713.519 Q505.536 713.831 503.557 714.491 L503.557 711.366 Q505.554 710.811 507.29 710.533 Q509.043 710.255 510.588 710.255 Q514.581 710.255 516.908 712.078 Q519.234 713.884 519.234 716.974 Q519.234 719.127 518.002 720.62 Q516.769 722.095 514.495 722.668 Z" fill="#000000" fill-rule="evenodd" fill-opacity="1" /><circle clip-path="url(#clip632)" cx="752.756" cy="245.58" r="14" fill="#0000ff" fill-rule="evenodd" fill-opacity="1" stroke="none"/>
<circle clip-path="url(#clip632)" cx="752.756" cy="445.116" r="14" fill="#0000ff" fill-rule="evenodd" fill-opacity="1" stroke="none"/>
<circle clip-path="url(#clip632)" cx="684.58" cy="395.232" r="14" fill="#0000ff" fill-rule="evenodd" fill-opacity="1" stroke="none"/>
<circle clip-path="url(#clip632)" cx="684.58" cy="594.768" r="14" fill="#0000ff" fill-rule="evenodd" fill-opacity="1" stroke="none"/>
<circle clip-path="url(#clip632)" cx="616.403" cy="544.884" r="14" fill="#0000ff" fill-rule="evenodd" fill-opacity="1" stroke="none"/>
<circle clip-path="url(#clip632)" cx="616.403" cy="145.812" r="14" fill="#0000ff" fill-rule="evenodd" fill-opacity="1" stroke="none"/>
<circle clip-path="url(#clip632)" cx="548.227" cy="95.9282" r="14" fill="#0000ff" fill-rule="evenodd" fill-opacity="1" stroke="none"/>
<circle clip-path="url(#clip632)" cx="548.227" cy="295.464" r="14" fill="#0000ff" fill-rule="evenodd" fill-opacity="1" stroke="none"/>
<circle clip-path="url(#clip632)" cx="480.05" cy="245.58" r="14" fill="#0000ff" fill-rule="evenodd" fill-opacity="1" stroke="none"/>
<circle clip-path="url(#clip632)" cx="480.05" cy="445.116" r="14" fill="#0000ff" fill-rule="evenodd" fill-opacity="1" stroke="none"/>
<circle clip-path="url(#clip632)" cx="752.756" cy="544.884" r="14" fill="#0000ff" fill-rule="evenodd" fill-opacity="1" stroke="none"/>
<circle clip-path="url(#clip632)" cx="752.756" cy="145.812" r="14" fill="#0000ff" fill-rule="evenodd" fill-opacity="1" stroke="none"/>
<circle clip-path="url(#clip632)" cx="684.58" cy="694.536" r="14" fill="#0000ff" fill-rule="evenodd" fill-opacity="1" stroke="none"/>
<circle clip-path="url(#clip632)" cx="684.58" cy="295.464" r="14" fill="#0000ff" fill-rule="evenodd" fill-opacity="1" stroke="none"/>
<circle clip-path="url(#clip632)" cx="616.403" cy="245.58" r="14" fill="#0000ff" fill-rule="evenodd" fill-opacity="1" stroke="none"/>
<circle clip-path="url(#clip632)" cx="616.403" cy="445.116" r="14" fill="#0000ff" fill-rule="evenodd" fill-opacity="1" stroke="none"/>
<circle clip-path="url(#clip632)" cx="548.227" cy="395.232" r="14" fill="#0000ff" fill-rule="evenodd" fill-opacity="1" stroke="none"/>
<circle clip-path="url(#clip632)" cx="480.05" cy="544.884" r="14" fill="#0000ff" fill-rule="evenodd" fill-opacity="1" stroke="none"/>
<circle clip-path="url(#clip632)" cx="480.05" cy="145.812" r="14" fill="#0000ff" fill-rule="evenodd" fill-opacity="1" stroke="none"/>
<path clip-path="url(#clip630)" d="M 0 0 M756.975 234.853 L769.214 234.853 L769.214 237.804 L752.756 237.804 L752.756 234.853 Q754.752 232.787 758.19 229.315 Q761.645 225.825 762.53 224.818 Q764.214 222.926 764.874 221.624 Q765.551 220.304 765.551 219.037 Q765.551 216.971 764.093 215.669 Q762.652 214.367 760.325 214.367 Q758.676 214.367 756.836 214.94 Q755.013 215.513 752.93 216.676 L752.93 213.134 Q755.048 212.283 756.888 211.849 Q758.728 211.415 760.256 211.415 Q764.284 211.415 766.679 213.429 Q769.075 215.443 769.075 218.811 Q769.075 220.408 768.468 221.849 Q767.877 223.273 766.297 225.217 Q765.863 225.721 763.537 228.134 Q761.211 230.53 756.975 234.853 Z" fill="#000000" fill-rule="evenodd" fill-opacity="1" /><path clip-path="url(#clip630)" d="M 0 0 M764.475 423.364 Q766.992 423.903 768.398 425.604 Q769.822 427.305 769.822 429.805 Q769.822 433.642 767.183 435.743 Q764.544 437.843 759.683 437.843 Q758.051 437.843 756.315 437.514 Q754.596 437.201 752.756 436.559 L752.756 433.173 Q754.214 434.024 755.95 434.458 Q757.686 434.892 759.579 434.892 Q762.877 434.892 764.596 433.59 Q766.332 432.288 766.332 429.805 Q766.332 427.514 764.718 426.229 Q763.12 424.927 760.256 424.927 L757.235 424.927 L757.235 422.045 L760.395 422.045 Q762.982 422.045 764.353 421.021 Q765.725 419.979 765.725 418.035 Q765.725 416.038 764.301 414.979 Q762.895 413.903 760.256 413.903 Q758.815 413.903 757.166 414.215 Q755.516 414.528 753.537 415.187 L753.537 412.062 Q755.534 411.507 757.27 411.229 Q759.023 410.951 760.568 410.951 Q764.561 410.951 766.888 412.774 Q769.214 414.58 769.214 417.67 Q769.214 419.823 767.982 421.316 Q766.749 422.791 764.475 423.364 Z" fill="#000000" fill-rule="evenodd" fill-opacity="1" /><path clip-path="url(#clip630)" d="M 0 0 M696.281 364.592 L687.427 378.428 L696.281 378.428 L696.281 364.592 M695.361 361.536 L699.77 361.536 L699.77 378.428 L703.468 378.428 L703.468 381.345 L699.77 381.345 L699.77 387.456 L696.281 387.456 L696.281 381.345 L684.58 381.345 L684.58 377.96 L695.361 361.536 Z" fill="#000000" fill-rule="evenodd" fill-opacity="1" /><path clip-path="url(#clip630)" d="M 0 0 M685.673 561.072 L699.441 561.072 L699.441 564.023 L688.885 564.023 L688.885 570.377 Q689.649 570.117 690.413 569.996 Q691.177 569.857 691.941 569.857 Q696.281 569.857 698.816 572.235 Q701.35 574.614 701.35 578.676 Q701.35 582.86 698.746 585.186 Q696.142 587.495 691.402 587.495 Q689.77 587.495 688.069 587.218 Q686.385 586.94 684.58 586.384 L684.58 582.86 Q686.142 583.711 687.809 584.127 Q689.475 584.544 691.333 584.544 Q694.336 584.544 696.09 582.964 Q697.843 581.384 697.843 578.676 Q697.843 575.968 696.09 574.388 Q694.336 572.808 691.333 572.808 Q689.927 572.808 688.52 573.12 Q687.132 573.433 685.673 574.093 L685.673 561.072 Z" fill="#000000" fill-rule="evenodd" fill-opacity="1" /><path clip-path="url(#clip630)" d="M 0 0 M625.657 522.75 Q623.295 522.75 621.907 524.365 Q620.535 525.98 620.535 528.792 Q620.535 531.587 621.907 533.219 Q623.295 534.834 625.657 534.834 Q628.018 534.834 629.389 533.219 Q630.778 531.587 630.778 528.792 Q630.778 525.98 629.389 524.365 Q628.018 522.75 625.657 522.75 M632.618 511.761 L632.618 514.955 Q631.299 514.33 629.945 514 Q628.608 513.671 627.289 513.671 Q623.816 513.671 621.976 516.014 Q620.153 518.358 619.893 523.098 Q620.917 521.587 622.462 520.789 Q624.007 519.973 625.865 519.973 Q629.771 519.973 632.028 522.351 Q634.302 524.712 634.302 528.792 Q634.302 532.785 631.941 535.198 Q629.58 537.611 625.657 537.611 Q621.16 537.611 618.782 534.174 Q616.403 530.719 616.403 524.174 Q616.403 518.028 619.32 514.382 Q622.236 510.719 627.15 510.719 Q628.469 510.719 629.806 510.98 Q631.16 511.24 632.618 511.761 Z" fill="#000000" fill-rule="evenodd" fill-opacity="1" /><path clip-path="url(#clip630)" d="M 0 0 M616.403 112.116 L633.07 112.116 L633.07 113.609 L623.66 138.036 L619.997 138.036 L628.851 115.068 L616.403 115.068 L616.403 112.116 Z" fill="#000000" fill-rule="evenodd" fill-opacity="1" /><path clip-path="url(#clip630)" d="M 0 0 M557.116 75.8433 Q554.616 75.8433 553.175 77.1801 Q551.751 78.5169 551.751 80.8606 Q551.751 83.2043 553.175 84.5411 Q554.616 85.8779 557.116 85.8779 Q559.616 85.8779 561.057 84.5411 Q562.498 83.187 562.498 80.8606 Q562.498 78.5169 561.057 77.1801 Q559.633 75.8433 557.116 75.8433 M553.609 74.3502 Q551.352 73.7947 550.084 72.2495 Q548.834 70.7044 548.834 68.4822 Q548.834 65.3746 551.039 63.569 Q553.261 61.7635 557.116 61.7635 Q560.987 61.7635 563.192 63.569 Q565.397 65.3746 565.397 68.4822 Q565.397 70.7044 564.129 72.2495 Q562.879 73.7947 560.64 74.3502 Q563.175 74.9405 564.581 76.6592 Q566.004 78.378 566.004 80.8606 Q566.004 84.6279 563.695 86.6418 Q561.404 88.6557 557.116 88.6557 Q552.827 88.6557 550.518 86.6418 Q548.227 84.6279 548.227 80.8606 Q548.227 78.378 549.65 76.6592 Q551.074 74.9405 553.609 74.3502 M552.324 68.812 Q552.324 70.8259 553.574 71.9544 Q554.841 73.0829 557.116 73.0829 Q559.373 73.0829 560.64 71.9544 Q561.925 70.8259 561.925 68.812 Q561.925 66.7982 560.64 65.6697 Q559.373 64.5412 557.116 64.5412 Q554.841 64.5412 553.574 65.6697 Q552.324 66.7982 552.324 68.812 Z" fill="#000000" fill-rule="evenodd" fill-opacity="1" /><path clip-path="url(#clip630)" d="M 0 0 M549.893 287.15 L549.893 283.955 Q551.213 284.58 552.567 284.91 Q553.921 285.24 555.223 285.24 Q558.695 285.24 560.518 282.914 Q562.359 280.57 562.619 275.813 Q561.612 277.306 560.067 278.105 Q558.522 278.903 556.647 278.903 Q552.758 278.903 550.484 276.56 Q548.227 274.199 548.227 270.119 Q548.227 266.126 550.588 263.713 Q552.949 261.299 556.873 261.299 Q561.369 261.299 563.73 264.754 Q566.109 268.192 566.109 274.754 Q566.109 280.883 563.192 284.546 Q560.293 288.192 555.38 288.192 Q554.06 288.192 552.706 287.931 Q551.352 287.671 549.893 287.15 M556.873 276.16 Q559.234 276.16 560.605 274.546 Q561.994 272.931 561.994 270.119 Q561.994 267.324 560.605 265.709 Q559.234 264.077 556.873 264.077 Q554.511 264.077 553.123 265.709 Q551.751 267.324 551.751 270.119 Q551.751 272.931 553.123 274.546 Q554.511 276.16 556.873 276.16 Z" fill="#000000" fill-rule="evenodd" fill-opacity="1" /><path clip-path="url(#clip630)" d="M 0 0 M480.554 234.853 L486.283 234.853 L486.283 215.079 L480.05 216.329 L480.05 213.134 L486.248 211.884 L489.755 211.884 L489.755 234.853 L495.484 234.853 L495.484 237.804 L480.554 237.804 L480.554 234.853 Z" fill="#000000" fill-rule="evenodd" fill-opacity="1" /><path clip-path="url(#clip630)" d="M 0 0 M510.068 214.193 Q507.359 214.193 505.988 216.867 Q504.634 219.523 504.634 224.87 Q504.634 230.2 505.988 232.874 Q507.359 235.53 510.068 235.53 Q512.793 235.53 514.147 232.874 Q515.519 230.2 515.519 224.87 Q515.519 219.523 514.147 216.867 Q512.793 214.193 510.068 214.193 M510.068 211.415 Q514.425 211.415 516.717 214.87 Q519.026 218.308 519.026 224.87 Q519.026 231.415 516.717 234.87 Q514.425 238.308 510.068 238.308 Q505.71 238.308 503.401 234.87 Q501.109 231.415 501.109 224.87 Q501.109 218.308 503.401 214.87 Q505.71 211.415 510.068 211.415 Z" fill="#000000" fill-rule="evenodd" fill-opacity="1" /><path clip-path="url(#clip630)" d="M 0 0 M480.554 434.389 L486.283 434.389 L486.283 414.614 L480.05 415.864 L480.05 412.67 L486.248 411.42 L489.755 411.42 L489.755 434.389 L495.484 434.389 L495.484 437.34 L480.554 437.34 L480.554 434.389 Z" fill="#000000" fill-rule="evenodd" fill-opacity="1" /><path clip-path="url(#clip630)" d="M 0 0 M503.175 434.389 L508.904 434.389 L508.904 414.614 L502.672 415.864 L502.672 412.67 L508.87 411.42 L512.377 411.42 L512.377 434.389 L518.106 434.389 L518.106 437.34 L503.175 437.34 L503.175 434.389 Z" fill="#000000" fill-rule="evenodd" fill-opacity="1" /><path clip-path="url(#clip630)" d="M 0 0 M753.259 534.157 L758.989 534.157 L758.989 514.382 L752.756 515.632 L752.756 512.438 L758.954 511.188 L762.461 511.188 L762.461 534.157 L768.19 534.157 L768.19 537.108 L753.259 537.108 L753.259 534.157 Z" fill="#000000" fill-rule="evenodd" fill-opacity="1" /><path clip-path="url(#clip630)" d="M 0 0 M784.909 514.244 L776.054 528.08 L784.909 528.08 L784.909 514.244 M783.988 511.188 L788.398 511.188 L788.398 528.08 L792.096 528.08 L792.096 530.997 L788.398 530.997 L788.398 537.108 L784.909 537.108 L784.909 530.997 L773.207 530.997 L773.207 527.611 L783.988 511.188 Z" fill="#000000" fill-rule="evenodd" fill-opacity="1" /><path clip-path="url(#clip630)" d="M 0 0 M753.259 135.085 L758.989 135.085 L758.989 115.311 L752.756 116.561 L752.756 113.366 L758.954 112.116 L762.461 112.116 L762.461 135.085 L768.19 135.085 L768.19 138.036 L753.259 138.036 L753.259 135.085 Z" fill="#000000" fill-rule="evenodd" fill-opacity="1" /><path clip-path="url(#clip630)" d="M 0 0 M775.308 112.116 L789.075 112.116 L789.075 115.068 L778.52 115.068 L778.52 121.422 Q779.284 121.161 780.047 121.04 Q780.811 120.901 781.575 120.901 Q785.915 120.901 788.45 123.279 Q790.985 125.658 790.985 129.72 Q790.985 133.904 788.381 136.231 Q785.777 138.54 781.037 138.54 Q779.405 138.54 777.704 138.262 Q776.02 137.984 774.214 137.429 L774.214 133.904 Q775.777 134.755 777.443 135.172 Q779.11 135.588 780.968 135.588 Q783.971 135.588 785.724 134.008 Q787.478 132.429 787.478 129.72 Q787.478 127.012 785.724 125.432 Q783.971 123.852 780.968 123.852 Q779.561 123.852 778.155 124.165 Q776.766 124.477 775.308 125.137 L775.308 112.116 Z" fill="#000000" fill-rule="evenodd" fill-opacity="1" /><path clip-path="url(#clip630)" d="M 0 0 M685.083 683.809 L690.812 683.809 L690.812 664.034 L684.58 665.284 L684.58 662.09 L690.777 660.84 L694.284 660.84 L694.284 683.809 L700.013 683.809 L700.013 686.76 L685.083 686.76 L685.083 683.809 Z" fill="#000000" fill-rule="evenodd" fill-opacity="1" /><path clip-path="url(#clip630)" d="M 0 0 M715.031 672.402 Q712.67 672.402 711.281 674.017 Q709.909 675.631 709.909 678.444 Q709.909 681.239 711.281 682.871 Q712.67 684.486 715.031 684.486 Q717.392 684.486 718.763 682.871 Q720.152 681.239 720.152 678.444 Q720.152 675.631 718.763 674.017 Q717.392 672.402 715.031 672.402 M721.993 661.413 L721.993 664.607 Q720.673 663.982 719.319 663.652 Q717.982 663.323 716.663 663.323 Q713.19 663.323 711.35 665.666 Q709.527 668.01 709.267 672.75 Q710.291 671.239 711.836 670.441 Q713.381 669.625 715.239 669.625 Q719.145 669.625 721.402 672.003 Q723.677 674.364 723.677 678.444 Q723.677 682.437 721.315 684.85 Q718.954 687.263 715.031 687.263 Q710.534 687.263 708.156 683.826 Q705.777 680.371 705.777 673.826 Q705.777 667.68 708.694 664.034 Q711.611 660.371 716.524 660.371 Q717.843 660.371 719.18 660.632 Q720.534 660.892 721.993 661.413 Z" fill="#000000" fill-rule="evenodd" fill-opacity="1" /><path clip-path="url(#clip630)" d="M 0 0 M685.083 284.737 L690.812 284.737 L690.812 264.963 L684.58 266.213 L684.58 263.018 L690.777 261.768 L694.284 261.768 L694.284 284.737 L700.013 284.737 L700.013 287.688 L685.083 287.688 L685.083 284.737 Z" fill="#000000" fill-rule="evenodd" fill-opacity="1" /><path clip-path="url(#clip630)" d="M 0 0 M706.211 261.768 L722.878 261.768 L722.878 263.261 L713.468 287.688 L709.805 287.688 L718.659 264.719 L706.211 264.719 L706.211 261.768 Z" fill="#000000" fill-rule="evenodd" fill-opacity="1" /><path clip-path="url(#clip630)" d="M 0 0 M616.907 234.853 L622.636 234.853 L622.636 215.079 L616.403 216.329 L616.403 213.134 L622.601 211.884 L626.108 211.884 L626.108 234.853 L631.837 234.853 L631.837 237.804 L616.907 237.804 L616.907 234.853 Z" fill="#000000" fill-rule="evenodd" fill-opacity="1" /><path clip-path="url(#clip630)" d="M 0 0 M646.42 225.495 Q643.92 225.495 642.479 226.832 Q641.056 228.169 641.056 230.513 Q641.056 232.856 642.479 234.193 Q643.92 235.53 646.42 235.53 Q648.92 235.53 650.361 234.193 Q651.802 232.839 651.802 230.513 Q651.802 228.169 650.361 226.832 Q648.938 225.495 646.42 225.495 M642.913 224.002 Q640.656 223.447 639.389 221.901 Q638.139 220.356 638.139 218.134 Q638.139 215.026 640.344 213.221 Q642.566 211.415 646.42 211.415 Q650.292 211.415 652.497 213.221 Q654.702 215.026 654.702 218.134 Q654.702 220.356 653.434 221.901 Q652.184 223.447 649.945 224.002 Q652.479 224.592 653.886 226.311 Q655.309 228.03 655.309 230.513 Q655.309 234.28 653 236.294 Q650.709 238.308 646.42 238.308 Q642.132 238.308 639.823 236.294 Q637.532 234.28 637.532 230.513 Q637.532 228.03 638.955 226.311 Q640.379 224.592 642.913 224.002 M641.629 218.464 Q641.629 220.478 642.879 221.606 Q644.146 222.735 646.42 222.735 Q648.677 222.735 649.945 221.606 Q651.229 220.478 651.229 218.464 Q651.229 216.45 649.945 215.322 Q648.677 214.193 646.42 214.193 Q644.146 214.193 642.879 215.322 Q641.629 216.45 641.629 218.464 Z" fill="#000000" fill-rule="evenodd" fill-opacity="1" /><path clip-path="url(#clip630)" d="M 0 0 M616.907 434.389 L622.636 434.389 L622.636 414.614 L616.403 415.864 L616.403 412.67 L622.601 411.42 L626.108 411.42 L626.108 434.389 L631.837 434.389 L631.837 437.34 L616.907 437.34 L616.907 434.389 Z" fill="#000000" fill-rule="evenodd" fill-opacity="1" /><path clip-path="url(#clip630)" d="M 0 0 M639.025 436.802 L639.025 433.607 Q640.344 434.232 641.698 434.562 Q643.052 434.892 644.354 434.892 Q647.827 434.892 649.649 432.566 Q651.49 430.222 651.75 425.465 Q650.743 426.958 649.198 427.757 Q647.653 428.555 645.778 428.555 Q641.889 428.555 639.615 426.212 Q637.358 423.851 637.358 419.771 Q637.358 415.778 639.719 413.364 Q642.08 410.951 646.004 410.951 Q650.5 410.951 652.861 414.406 Q655.24 417.844 655.24 424.406 Q655.24 430.535 652.323 434.198 Q649.424 437.843 644.511 437.843 Q643.191 437.843 641.837 437.583 Q640.483 437.323 639.025 436.802 M646.004 425.812 Q648.365 425.812 649.736 424.198 Q651.125 422.583 651.125 419.771 Q651.125 416.976 649.736 415.361 Q648.365 413.729 646.004 413.729 Q643.643 413.729 642.254 415.361 Q640.882 416.976 640.882 419.771 Q640.882 422.583 642.254 424.198 Q643.643 425.812 646.004 425.812 Z" fill="#000000" fill-rule="evenodd" fill-opacity="1" /><path clip-path="url(#clip630)" d="M 0 0 M552.445 384.505 L564.685 384.505 L564.685 387.456 L548.227 387.456 L548.227 384.505 Q550.223 382.439 553.661 378.967 Q557.116 375.477 558.001 374.47 Q559.685 372.578 560.345 371.276 Q561.022 369.956 561.022 368.689 Q561.022 366.623 559.564 365.321 Q558.123 364.019 555.796 364.019 Q554.147 364.019 552.307 364.592 Q550.484 365.165 548.4 366.328 L548.4 362.786 Q550.518 361.935 552.359 361.501 Q554.199 361.067 555.727 361.067 Q559.754 361.067 562.15 363.081 Q564.546 365.095 564.546 368.463 Q564.546 370.06 563.938 371.501 Q563.348 372.925 561.768 374.869 Q561.334 375.373 559.008 377.786 Q556.682 380.182 552.445 384.505 Z" fill="#000000" fill-rule="evenodd" fill-opacity="1" /><path clip-path="url(#clip630)" d="M 0 0 M579.546 363.845 Q576.838 363.845 575.466 366.519 Q574.112 369.175 574.112 374.522 Q574.112 379.852 575.466 382.526 Q576.838 385.182 579.546 385.182 Q582.272 385.182 583.626 382.526 Q584.997 379.852 584.997 374.522 Q584.997 369.175 583.626 366.519 Q582.272 363.845 579.546 363.845 M579.546 361.067 Q583.904 361.067 586.195 364.522 Q588.504 367.96 588.504 374.522 Q588.504 381.067 586.195 384.522 Q583.904 387.96 579.546 387.96 Q575.188 387.96 572.879 384.522 Q570.588 381.067 570.588 374.522 Q570.588 367.96 572.879 364.522 Q575.188 361.067 579.546 361.067 Z" fill="#000000" fill-rule="evenodd" fill-opacity="1" /><path clip-path="url(#clip630)" d="M 0 0 M484.269 534.157 L496.509 534.157 L496.509 537.108 L480.05 537.108 L480.05 534.157 Q482.047 532.091 485.484 528.618 Q488.939 525.129 489.825 524.122 Q491.509 522.23 492.168 520.928 Q492.845 519.608 492.845 518.341 Q492.845 516.275 491.387 514.973 Q489.946 513.671 487.62 513.671 Q485.971 513.671 484.13 514.244 Q482.307 514.816 480.224 515.98 L480.224 512.438 Q482.342 511.587 484.182 511.153 Q486.023 510.719 487.55 510.719 Q491.578 510.719 493.974 512.733 Q496.37 514.747 496.37 518.115 Q496.37 519.712 495.762 521.153 Q495.172 522.577 493.592 524.521 Q493.158 525.025 490.832 527.438 Q488.505 529.834 484.269 534.157 Z" fill="#000000" fill-rule="evenodd" fill-opacity="1" /><path clip-path="url(#clip630)" d="M 0 0 M506.891 534.157 L519.13 534.157 L519.13 537.108 L502.672 537.108 L502.672 534.157 Q504.668 532.091 508.106 528.618 Q511.561 525.129 512.446 524.122 Q514.13 522.23 514.79 520.928 Q515.467 519.608 515.467 518.341 Q515.467 516.275 514.009 514.973 Q512.568 513.671 510.241 513.671 Q508.592 513.671 506.752 514.244 Q504.929 514.816 502.845 515.98 L502.845 512.438 Q504.963 511.587 506.804 511.153 Q508.644 510.719 510.172 510.719 Q514.2 510.719 516.595 512.733 Q518.991 514.747 518.991 518.115 Q518.991 519.712 518.384 521.153 Q517.793 522.577 516.213 524.521 Q515.779 525.025 513.453 527.438 Q511.127 529.834 506.891 534.157 Z" fill="#000000" fill-rule="evenodd" fill-opacity="1" /><path clip-path="url(#clip630)" d="M 0 0 M484.269 135.085 L496.509 135.085 L496.509 138.036 L480.05 138.036 L480.05 135.085 Q482.047 133.019 485.484 129.547 Q488.939 126.057 489.825 125.05 Q491.509 123.158 492.168 121.856 Q492.845 120.536 492.845 119.269 Q492.845 117.203 491.387 115.901 Q489.946 114.599 487.62 114.599 Q485.971 114.599 484.13 115.172 Q482.307 115.745 480.224 116.908 L480.224 113.366 Q482.342 112.515 484.182 112.081 Q486.023 111.647 487.55 111.647 Q491.578 111.647 493.974 113.661 Q496.37 115.675 496.37 119.043 Q496.37 120.64 495.762 122.081 Q495.172 123.505 493.592 125.449 Q493.158 125.953 490.832 128.366 Q488.505 130.762 484.269 135.085 Z" fill="#000000" fill-rule="evenodd" fill-opacity="1" /><path clip-path="url(#clip630)" d="M 0 0 M514.495 124.061 Q517.012 124.599 518.418 126.3 Q519.842 128.002 519.842 130.502 Q519.842 134.338 517.203 136.439 Q514.564 138.54 509.703 138.54 Q508.071 138.54 506.335 138.21 Q504.616 137.897 502.776 137.255 L502.776 133.87 Q504.234 134.72 505.97 135.154 Q507.706 135.588 509.599 135.588 Q512.897 135.588 514.616 134.286 Q516.352 132.984 516.352 130.502 Q516.352 128.21 514.738 126.925 Q513.14 125.623 510.276 125.623 L507.255 125.623 L507.255 122.741 L510.415 122.741 Q513.002 122.741 514.373 121.717 Q515.745 120.675 515.745 118.731 Q515.745 116.734 514.321 115.675 Q512.915 114.599 510.276 114.599 Q508.835 114.599 507.186 114.911 Q505.536 115.224 503.557 115.884 L503.557 112.759 Q505.554 112.203 507.29 111.925 Q509.043 111.647 510.588 111.647 Q514.581 111.647 516.908 113.47 Q519.234 115.276 519.234 118.366 Q519.234 120.519 518.002 122.012 Q516.769 123.488 514.495 124.061 Z" fill="#000000" fill-rule="evenodd" fill-opacity="1" /><circle clip-path="url(#clip632)" cx="684.58" cy="95.9282" r="14" fill="#0000ff" fill-rule="evenodd" fill-opacity="1" stroke="none"/>
<path clip-path="url(#clip630)" d="M 0 0 M685.083 85.2008 L690.812 85.2008 L690.812 65.4266 L684.58 66.6766 L684.58 63.4822 L690.777 62.2322 L694.284 62.2322 L694.284 85.2008 L700.013 85.2008 L700.013 88.1522 L685.083 88.1522 L685.083 85.2008 Z" fill="#000000" fill-rule="evenodd" fill-opacity="1" /><path clip-path="url(#clip630)" d="M 0 0 M715.031 73.7947 Q712.67 73.7947 711.281 75.4092 Q709.909 77.0238 709.909 79.8363 Q709.909 82.6314 711.281 84.2634 Q712.67 85.8779 715.031 85.8779 Q717.392 85.8779 718.763 84.2634 Q720.152 82.6314 720.152 79.8363 Q720.152 77.0238 718.763 75.4092 Q717.392 73.7947 715.031 73.7947 M721.993 62.8051 L721.993 65.9996 Q720.673 65.3746 719.319 65.0447 Q717.982 64.7148 716.663 64.7148 Q713.19 64.7148 711.35 67.0586 Q709.527 69.4023 709.267 74.1419 Q710.291 72.6315 711.836 71.8329 Q713.381 71.0169 715.239 71.0169 Q719.145 71.0169 721.402 73.3954 Q723.677 75.7565 723.677 79.8363 Q723.677 83.8293 721.315 86.2425 Q718.954 88.6557 715.031 88.6557 Q710.534 88.6557 708.156 85.2182 Q705.777 81.7634 705.777 75.2183 Q705.777 69.0725 708.694 65.4266 Q711.611 61.7635 716.524 61.7635 Q717.843 61.7635 719.18 62.0239 Q720.534 62.2843 721.993 62.8051 Z" fill="#000000" fill-rule="evenodd" fill-opacity="1" /></svg>
