<?xml version="1.0" encoding="utf-8"?>
<svg xmlns="http://www.w3.org/2000/svg" xmlns:xlink="http://www.w3.org/1999/xlink" width="200" height="250" viewBox="0 0 800 1000">
<defs>
  <clipPath id="clip660">
    <rect x="0" y="0" width="800" height="1000"/>
  </clipPath>
</defs>
<path clip-path="url(#clip660)" d="
M0 1000 L800 1000 L800 0 L0 0  Z
  " fill="#ffffff" fill-rule="evenodd" fill-opacity="1"/>
<defs>
  <clipPath id="clip661">
    <rect x="200" y="100" width="701" height="701"/>
  </clipPath>
</defs>
<path clip-path="url(#clip660)" d="
M70.9921 927.008 L752.756 927.008 L752.756 62.9921 L70.9921 62.9921  Z
  " fill="#ffffff" fill-rule="evenodd" fill-opacity="1"/>
<defs>
  <clipPath id="clip662">
    <rect x="70" y="62" width="683" height="865"/>
  </clipPath>
</defs>
<polyline clip-path="url(#clip660)" style="stroke:#000000; stroke-width:4; stroke-opacity:1; fill:none" points="
  70.9921,927.008 752.756,927.008 
  "/>
<polyline clip-path="url(#clip660)" style="stroke:#000000; stroke-width:4; stroke-opacity:1; fill:none" points="
  139.169,927.008 139.169,916.64 
  "/>
<polyline clip-path="url(#clip660)" style="stroke:#000000; stroke-width:4; stroke-opacity:1; fill:none" points="
  275.521,927.008 275.521,916.64 
  "/>
<polyline clip-path="url(#clip660)" style="stroke:#000000; stroke-width:4; stroke-opacity:1; fill:none" points="
  411.874,927.008 411.874,916.64 
  "/>
<polyline clip-path="url(#clip660)" style="stroke:#000000; stroke-width:4; stroke-opacity:1; fill:none" points="
  548.227,927.008 548.227,916.64 
  "/>
<polyline clip-path="url(#clip660)" style="stroke:#000000; stroke-width:4; stroke-opacity:1; fill:none" points="
  684.58,927.008 684.58,916.64 
  "/>
<path clip-path="url(#clip660)" d="M 0 0 M109.111 959.651 L138.787 959.651 L138.787 963.586 L109.111 963.586 L109.111 959.651 Z" fill="#000000" fill-rule="evenodd" fill-opacity="1" /><path clip-path="url(#clip660)" d="M 0 0 M152.907 972.545 L169.226 972.545 L169.226 976.48 L147.282 976.48 L147.282 972.545 Q149.944 969.79 154.527 965.16 Q159.134 960.508 160.314 959.165 Q162.56 956.642 163.439 954.906 Q164.342 953.147 164.342 951.457 Q164.342 948.702 162.398 946.966 Q160.476 945.23 157.374 945.23 Q155.175 945.23 152.722 945.994 Q150.291 946.758 147.513 948.309 L147.513 943.587 Q150.337 942.452 152.791 941.874 Q155.245 941.295 157.282 941.295 Q162.652 941.295 165.847 943.98 Q169.041 946.665 169.041 951.156 Q169.041 953.286 168.231 955.207 Q167.444 957.105 165.337 959.698 Q164.759 960.369 161.657 963.586 Q158.555 966.781 152.907 972.545 Z" fill="#000000" fill-rule="evenodd" fill-opacity="1" /><path clip-path="url(#clip660)" d="M 0 0 M245.278 959.651 L274.954 959.651 L274.954 963.586 L245.278 963.586 L245.278 959.651 Z" fill="#000000" fill-rule="evenodd" fill-opacity="1" /><path clip-path="url(#clip660)" d="M 0 0 M285.857 972.545 L293.496 972.545 L293.496 946.179 L285.186 947.846 L285.186 943.587 L293.449 941.92 L298.125 941.92 L298.125 972.545 L305.764 972.545 L305.764 976.48 L285.857 976.48 L285.857 972.545 Z" fill="#000000" fill-rule="evenodd" fill-opacity="1" /><path clip-path="url(#clip660)" d="M 0 0 M411.874 944.999 Q408.263 944.999 406.434 948.563 Q404.629 952.105 404.629 959.235 Q404.629 966.341 406.434 969.906 Q408.263 973.447 411.874 973.447 Q415.508 973.447 417.314 969.906 Q419.142 966.341 419.142 959.235 Q419.142 952.105 417.314 948.563 Q415.508 944.999 411.874 944.999 M411.874 941.295 Q417.684 941.295 420.74 945.901 Q423.818 950.485 423.818 959.235 Q423.818 967.961 420.74 972.568 Q417.684 977.151 411.874 977.151 Q406.064 977.151 402.985 972.568 Q399.93 967.961 399.93 959.235 Q399.93 950.485 402.985 945.901 Q406.064 941.295 411.874 941.295 Z" fill="#000000" fill-rule="evenodd" fill-opacity="1" /><path clip-path="url(#clip660)" d="M 0 0 M538.609 972.545 L546.248 972.545 L546.248 946.179 L537.937 947.846 L537.937 943.587 L546.201 941.92 L550.877 941.92 L550.877 972.545 L558.516 972.545 L558.516 976.48 L538.609 976.48 L538.609 972.545 Z" fill="#000000" fill-rule="evenodd" fill-opacity="1" /><path clip-path="url(#clip660)" d="M 0 0 M679.232 972.545 L695.552 972.545 L695.552 976.48 L673.607 976.48 L673.607 972.545 Q676.269 969.79 680.853 965.16 Q685.459 960.508 686.64 959.165 Q688.885 956.642 689.765 954.906 Q690.667 953.147 690.667 951.457 Q690.667 948.702 688.723 946.966 Q686.802 945.23 683.7 945.23 Q681.501 945.23 679.047 945.994 Q676.617 946.758 673.839 948.309 L673.839 943.587 Q676.663 942.452 679.117 941.874 Q681.57 941.295 683.607 941.295 Q688.978 941.295 692.172 943.98 Q695.367 946.665 695.367 951.156 Q695.367 953.286 694.556 955.207 Q693.769 957.105 691.663 959.698 Q691.084 960.369 687.982 963.586 Q684.88 966.781 679.232 972.545 Z" fill="#000000" fill-rule="evenodd" fill-opacity="1" /><polyline clip-path="url(#clip660)" style="stroke:#000000; stroke-width:4; stroke-opacity:1; fill:none" points="
  70.9921,927.008 70.9921,62.9921 
  "/>
<polyline clip-path="url(#clip660)" style="stroke:#000000; stroke-width:4; stroke-opacity:1; fill:none" points="
  70.9921,840.606 79.1733,840.606 
  "/>
<polyline clip-path="url(#clip660)" style="stroke:#000000; stroke-width:4; stroke-opacity:1; fill:none" points="
  70.9921,667.803 79.1733,667.803 
  "/>
<polyline clip-path="url(#clip660)" style="stroke:#000000; stroke-width:4; stroke-opacity:1; fill:none" points="
  70.9921,495 79.1733,495 
  "/>
<polyline clip-path="url(#clip660)" style="stroke:#000000; stroke-width:4; stroke-opacity:1; fill:none" points="
  70.9921,322.197 79.1733,322.197 
  "/>
<polyline clip-path="url(#clip660)" style="stroke:#000000; stroke-width:4; stroke-opacity:1; fill:none" points="
  70.9921,149.394 79.1733,149.394 
  "/>
<path clip-path="url(#clip660)" d="M 0 0 M-4.12329 841.058 L25.5525 841.058 L25.5525 844.993 L-4.12329 844.993 L-4.12329 841.058 Z" fill="#000000" fill-rule="evenodd" fill-opacity="1" /><path clip-path="url(#clip660)" d="M 0 0 M39.6728 853.951 L55.9921 853.951 L55.9921 857.886 L34.0478 857.886 L34.0478 853.951 Q36.7098 851.197 41.2931 846.567 Q45.8996 841.914 47.0801 840.572 Q49.3255 838.048 50.2051 836.312 Q51.1079 834.553 51.1079 832.863 Q51.1079 830.109 49.1635 828.373 Q47.2422 826.636 44.1403 826.636 Q41.9413 826.636 39.4876 827.4 Q37.057 828.164 34.2793 829.715 L34.2793 824.993 Q37.1033 823.859 39.557 823.28 Q42.0107 822.701 44.0477 822.701 Q49.4181 822.701 52.6125 825.386 Q55.8069 828.072 55.8069 832.562 Q55.8069 834.692 54.9968 836.613 Q54.2097 838.511 52.1033 841.104 Q51.5246 841.775 48.4227 844.993 Q45.3209 848.187 39.6728 853.951 Z" fill="#000000" fill-rule="evenodd" fill-opacity="1" /><path clip-path="url(#clip660)" d="M 0 0 M-4.49366 668.255 L25.1821 668.255 L25.1821 672.19 L-4.49366 672.19 L-4.49366 668.255 Z" fill="#000000" fill-rule="evenodd" fill-opacity="1" /><path clip-path="url(#clip660)" d="M 0 0 M36.0848 681.148 L43.7237 681.148 L43.7237 654.782 L35.4135 656.449 L35.4135 652.19 L43.6774 650.523 L48.3533 650.523 L48.3533 681.148 L55.9921 681.148 L55.9921 685.083 L36.0848 685.083 L36.0848 681.148 Z" fill="#000000" fill-rule="evenodd" fill-opacity="1" /><path clip-path="url(#clip660)" d="M 0 0 M44.0477 480.799 Q40.4367 480.799 38.608 484.363 Q36.8024 487.905 36.8024 495.035 Q36.8024 502.141 38.608 505.706 Q40.4367 509.248 44.0477 509.248 Q47.682 509.248 49.4875 505.706 Q51.3162 502.141 51.3162 495.035 Q51.3162 487.905 49.4875 484.363 Q47.682 480.799 44.0477 480.799 M44.0477 477.095 Q49.8579 477.095 52.9134 481.701 Q55.9921 486.285 55.9921 495.035 Q55.9921 503.762 52.9134 508.368 Q49.8579 512.951 44.0477 512.951 Q38.2376 512.951 35.1589 508.368 Q32.1034 503.762 32.1034 495.035 Q32.1034 486.285 35.1589 481.701 Q38.2376 477.095 44.0477 477.095 Z" fill="#000000" fill-rule="evenodd" fill-opacity="1" /><path clip-path="url(#clip660)" d="M 0 0 M36.0848 335.542 L43.7237 335.542 L43.7237 309.176 L35.4135 310.843 L35.4135 306.584 L43.6774 304.917 L48.3533 304.917 L48.3533 335.542 L55.9921 335.542 L55.9921 339.477 L36.0848 339.477 L36.0848 335.542 Z" fill="#000000" fill-rule="evenodd" fill-opacity="1" /><path clip-path="url(#clip660)" d="M 0 0 M39.6728 162.739 L55.9921 162.739 L55.9921 166.674 L34.0478 166.674 L34.0478 162.739 Q36.7098 159.984 41.2931 155.354 Q45.8996 150.702 47.0801 149.359 Q49.3255 146.836 50.2051 145.1 Q51.1079 143.34 51.1079 141.651 Q51.1079 138.896 49.1635 137.16 Q47.2422 135.424 44.1403 135.424 Q41.9413 135.424 39.4876 136.188 Q37.057 136.952 34.2793 138.503 L34.2793 133.78 Q37.1033 132.646 39.557 132.067 Q42.0107 131.489 44.0477 131.489 Q49.4181 131.489 52.6125 134.174 Q55.8069 136.859 55.8069 141.35 Q55.8069 143.479 54.9968 145.401 Q54.2097 147.299 52.1033 149.891 Q51.5246 150.563 48.4227 153.78 Q45.3209 156.975 39.6728 162.739 Z" fill="#000000" fill-rule="evenodd" fill-opacity="1" /><path clip-path="url(#clip660)" d="M 0 0 M342.453 37.5368 L358.772 37.5368 L358.772 41.472 L336.828 41.472 L336.828 37.5368 Q339.49 34.7822 344.073 30.1526 Q348.68 25.4999 349.86 24.1573 Q352.106 21.6341 352.985 19.898 Q353.888 18.1388 353.888 16.449 Q353.888 13.6944 351.944 11.9583 Q350.022 10.2222 346.921 10.2222 Q344.722 10.2222 342.268 10.9861 Q339.837 11.7499 337.06 13.3009 L337.06 8.57866 Q339.884 7.4444 342.337 6.8657 Q344.791 6.287 346.828 6.287 Q352.198 6.287 355.393 8.97217 Q358.587 11.6573 358.587 16.1481 Q358.587 18.2777 357.777 20.199 Q356.99 22.0971 354.884 24.6897 Q354.305 25.361 351.203 28.5786 Q348.101 31.773 342.453 37.5368 Z" fill="#000000" fill-rule="evenodd" fill-opacity="1" /><path clip-path="url(#clip660)" d="M 0 0 M367.592 5.45367 L377.407 5.45367 L377.407 8.76384 L371.851 8.76384 L371.851 44.4118 L377.407 44.4118 L377.407 47.722 L367.592 47.722 L367.592 5.45367 Z" fill="#000000" fill-rule="evenodd" fill-opacity="1" /><path clip-path="url(#clip660)" d="M 0 0 M397.082 9.99069 Q393.471 9.99069 391.643 13.5555 Q389.837 17.0971 389.837 24.2267 Q389.837 31.3332 391.643 34.898 Q393.471 38.4396 397.082 38.4396 Q400.717 38.4396 402.522 34.898 Q404.351 31.3332 404.351 24.2267 Q404.351 17.0971 402.522 13.5555 Q400.717 9.99069 397.082 9.99069 M397.082 6.287 Q402.893 6.287 405.948 10.8935 Q409.027 15.4768 409.027 24.2267 Q409.027 32.9535 405.948 37.56 Q402.893 42.1433 397.082 42.1433 Q391.272 42.1433 388.194 37.56 Q385.138 32.9535 385.138 24.2267 Q385.138 15.4768 388.194 10.8935 Q391.272 6.287 397.082 6.287 Z" fill="#000000" fill-rule="evenodd" fill-opacity="1" /><path clip-path="url(#clip660)" d="M 0 0 M427.244 9.99069 Q423.633 9.99069 421.805 13.5555 Q419.999 17.0971 419.999 24.2267 Q419.999 31.3332 421.805 34.898 Q423.633 38.4396 427.244 38.4396 Q430.879 38.4396 432.684 34.898 Q434.513 31.3332 434.513 24.2267 Q434.513 17.0971 432.684 13.5555 Q430.879 9.99069 427.244 9.99069 M427.244 6.287 Q433.054 6.287 436.11 10.8935 Q439.189 15.4768 439.189 24.2267 Q439.189 32.9535 436.11 37.56 Q433.054 42.1433 427.244 42.1433 Q421.434 42.1433 418.355 37.56 Q415.3 32.9535 415.3 24.2267 Q415.3 15.4768 418.355 10.8935 Q421.434 6.287 427.244 6.287 Z" fill="#000000" fill-rule="evenodd" fill-opacity="1" /><path clip-path="url(#clip660)" d="M 0 0 M448.216 37.5368 L455.855 37.5368 L455.855 11.1712 L447.545 12.8379 L447.545 8.57866 L455.809 6.912 L460.485 6.912 L460.485 37.5368 L468.124 37.5368 L468.124 41.472 L448.216 41.472 L448.216 37.5368 Z" fill="#000000" fill-rule="evenodd" fill-opacity="1" /><path clip-path="url(#clip660)" d="M 0 0 M486.92 5.45367 L486.92 47.722 L477.105 47.722 L477.105 44.4118 L482.638 44.4118 L482.638 8.76384 L477.105 8.76384 L477.105 5.45367 L486.92 5.45367 Z" fill="#000000" fill-rule="evenodd" fill-opacity="1" /><circle clip-path="url(#clip662)" cx="139.169" cy="894.072" r="14" fill="#0000ff" fill-rule="evenodd" fill-opacity="1" stroke="none"/>
<path clip-path="url(#clip660)" d="M 0 0 M143.387 883.344 L155.627 883.344 L155.627 886.296 L139.169 886.296 L139.169 883.344 Q141.165 881.278 144.603 877.806 Q148.057 874.317 148.943 873.31 Q150.627 871.417 151.286 870.115 Q151.964 868.796 151.964 867.529 Q151.964 865.463 150.505 864.16 Q149.064 862.858 146.738 862.858 Q145.089 862.858 143.248 863.431 Q141.425 864.004 139.342 865.167 L139.342 861.626 Q141.46 860.775 143.3 860.341 Q145.141 859.907 146.668 859.907 Q150.696 859.907 153.092 861.921 Q155.488 863.935 155.488 867.303 Q155.488 868.9 154.88 870.341 Q154.29 871.765 152.71 873.709 Q152.276 874.213 149.95 876.626 Q147.623 879.022 143.387 883.344 Z" fill="#000000" fill-rule="evenodd" fill-opacity="1" /><path clip-path="url(#clip660)" d="M 0 0 M170.488 862.685 Q167.779 862.685 166.408 865.358 Q165.054 868.015 165.054 873.362 Q165.054 878.692 166.408 881.365 Q167.779 884.021 170.488 884.021 Q173.213 884.021 174.568 881.365 Q175.939 878.692 175.939 873.362 Q175.939 868.015 174.568 865.358 Q173.213 862.685 170.488 862.685 M170.488 859.907 Q174.845 859.907 177.137 863.362 Q179.446 866.799 179.446 873.362 Q179.446 879.907 177.137 883.362 Q174.845 886.799 170.488 886.799 Q166.13 886.799 163.821 883.362 Q161.529 879.907 161.529 873.362 Q161.529 866.799 163.821 863.362 Q166.13 859.907 170.488 859.907 Z" fill="#000000" fill-rule="evenodd" fill-opacity="1" /><circle clip-path="url(#clip662)" cx="343.698" cy="544.884" r="14" fill="#0000ff" fill-rule="evenodd" fill-opacity="1" stroke="none"/>
<circle clip-path="url(#clip662)" cx="343.698" cy="445.116" r="14" fill="#0000ff" fill-rule="evenodd" fill-opacity="1" stroke="none"/>
<circle clip-path="url(#clip662)" cx="207.345" cy="544.884" r="14" fill="#0000ff" fill-rule="evenodd" fill-opacity="1" stroke="none"/>
<circle clip-path="url(#clip662)" cx="207.345" cy="445.116" r="14" fill="#0000ff" fill-rule="evenodd" fill-opacity="1" stroke="none"/>
<circle clip-path="url(#clip662)" cx="70.9921" cy="544.884" r="14" fill="#0000ff" fill-rule="evenodd" fill-opacity="1" stroke="none"/>
<circle clip-path="url(#clip662)" cx="70.9921" cy="445.116" r="14" fill="#0000ff" fill-rule="evenodd" fill-opacity="1" stroke="none"/>
<circle clip-path="url(#clip662)" cx="343.698" cy="844.188" r="14" fill="#0000ff" fill-rule="evenodd" fill-opacity="1" stroke="none"/>
<circle clip-path="url(#clip662)" cx="343.698" cy="744.42" r="14" fill="#0000ff" fill-rule="evenodd" fill-opacity="1" stroke="none"/>
<circle clip-path="url(#clip662)" cx="207.345" cy="844.188" r="14" fill="#0000ff" fill-rule="evenodd" fill-opacity="1" stroke="none"/>
<circle clip-path="url(#clip662)" cx="207.345" cy="744.42" r="14" fill="#0000ff" fill-rule="evenodd" fill-opacity="1" stroke="none"/>
<circle clip-path="url(#clip662)" cx="70.9921" cy="844.188" r="14" fill="#0000ff" fill-rule="evenodd" fill-opacity="1" stroke="none"/>
<circle clip-path="url(#clip662)" cx="70.9921" cy="744.42" r="14" fill="#0000ff" fill-rule="evenodd" fill-opacity="1" stroke="none"/>
<circle clip-path="url(#clip662)" cx="139.169" cy="694.536" r="14" fill="#0000ff" fill-rule="evenodd" fill-opacity="1" stroke="none"/>
<circle clip-path="url(#clip662)" cx="139.169" cy="594.768" r="14" fill="#0000ff" fill-rule="evenodd" fill-opacity="1" stroke="none"/>
<circle clip-path="url(#clip662)" cx="411.874" cy="894.072" r="14" fill="#0000ff" fill-rule="evenodd" fill-opacity="1" stroke="none"/>
<circle clip-path="url(#clip662)" cx="275.521" cy="894.072" r="14" fill="#0000ff" fill-rule="evenodd" fill-opacity="1" stroke="none"/>
<circle clip-path="url(#clip662)" cx="139.169" cy="395.232" r="14" fill="#0000ff" fill-rule="evenodd" fill-opacity="1" stroke="none"/>
<circle clip-path="url(#clip662)" cx="139.169" cy="295.464" r="14" fill="#0000ff" fill-rule="evenodd" fill-opacity="1" stroke="none"/>
<circle clip-path="url(#clip662)" cx="411.874" cy="694.536" r="14" fill="#0000ff" fill-rule="evenodd" fill-opacity="1" stroke="none"/>
<circle clip-path="url(#clip662)" cx="411.874" cy="594.768" r="14" fill="#0000ff" fill-rule="evenodd" fill-opacity="1" stroke="none"/>
<circle clip-path="url(#clip662)" cx="275.521" cy="694.536" r="14" fill="#0000ff" fill-rule="evenodd" fill-opacity="1" stroke="none"/>
<circle clip-path="url(#clip662)" cx="275.521" cy="594.768" r="14" fill="#0000ff" fill-rule="evenodd" fill-opacity="1" stroke="none"/>
<path clip-path="url(#clip660)" d="M 0 0 M344.201 534.157 L349.93 534.157 L349.93 514.382 L343.698 515.632 L343.698 512.438 L349.896 511.188 L353.402 511.188 L353.402 534.157 L359.132 534.157 L359.132 537.108 L344.201 537.108 L344.201 534.157 Z" fill="#000000" fill-rule="evenodd" fill-opacity="1" /><path clip-path="url(#clip660)" d="M 0 0 M347.916 434.389 L360.156 434.389 L360.156 437.34 L343.698 437.34 L343.698 434.389 Q345.694 432.323 349.132 428.85 Q352.586 425.361 353.472 424.354 Q355.156 422.462 355.816 421.16 Q356.493 419.84 356.493 418.573 Q356.493 416.507 355.034 415.205 Q353.593 413.903 351.267 413.903 Q349.618 413.903 347.777 414.476 Q345.955 415.048 343.871 416.212 L343.871 412.67 Q345.989 411.819 347.83 411.385 Q349.67 410.951 351.198 410.951 Q355.225 410.951 357.621 412.965 Q360.017 414.979 360.017 418.347 Q360.017 419.944 359.409 421.385 Q358.819 422.809 357.239 424.753 Q356.805 425.257 354.479 427.67 Q352.152 430.066 347.916 434.389 Z" fill="#000000" fill-rule="evenodd" fill-opacity="1" /><path clip-path="url(#clip660)" d="M 0 0 M219.064 523.132 Q221.581 523.671 222.987 525.372 Q224.411 527.073 224.411 529.573 Q224.411 533.41 221.772 535.511 Q219.133 537.611 214.272 537.611 Q212.64 537.611 210.904 537.282 Q209.185 536.969 207.345 536.327 L207.345 532.941 Q208.803 533.792 210.539 534.226 Q212.275 534.66 214.168 534.66 Q217.466 534.66 219.185 533.358 Q220.921 532.056 220.921 529.573 Q220.921 527.282 219.307 525.997 Q217.709 524.695 214.845 524.695 L211.824 524.695 L211.824 521.813 L214.984 521.813 Q217.571 521.813 218.942 520.789 Q220.314 519.747 220.314 517.803 Q220.314 515.806 218.89 514.747 Q217.484 513.671 214.845 513.671 Q213.404 513.671 211.755 513.983 Q210.105 514.296 208.126 514.955 L208.126 511.83 Q210.123 511.275 211.859 510.997 Q213.612 510.719 215.157 510.719 Q219.15 510.719 221.477 512.542 Q223.803 514.348 223.803 517.438 Q223.803 519.591 222.57 521.084 Q221.338 522.559 219.064 523.132 Z" fill="#000000" fill-rule="evenodd" fill-opacity="1" /><path clip-path="url(#clip660)" d="M 0 0 M219.046 414.476 L210.192 428.312 L219.046 428.312 L219.046 414.476 M218.126 411.42 L222.536 411.42 L222.536 428.312 L226.234 428.312 L226.234 431.229 L222.536 431.229 L222.536 437.34 L219.046 437.34 L219.046 431.229 L207.345 431.229 L207.345 427.844 L218.126 411.42 Z" fill="#000000" fill-rule="evenodd" fill-opacity="1" /><path clip-path="url(#clip660)" d="M 0 0 M72.0859 511.188 L85.8532 511.188 L85.8532 514.139 L75.2977 514.139 L75.2977 520.493 Q76.0615 520.233 76.8254 520.112 Q77.5893 519.973 78.3532 519.973 Q82.6935 519.973 85.2282 522.351 Q87.7629 524.73 87.7629 528.792 Q87.7629 532.976 85.1587 535.302 Q82.5546 537.611 77.815 537.611 Q76.1831 537.611 74.4817 537.334 Q72.7977 537.056 70.9921 536.5 L70.9921 532.976 Q72.5546 533.827 74.2213 534.243 Q75.8879 534.66 77.7456 534.66 Q80.749 534.66 82.5025 533.08 Q84.2559 531.5 84.2559 528.792 Q84.2559 526.084 82.5025 524.504 Q80.749 522.924 77.7456 522.924 Q76.3393 522.924 74.9331 523.237 Q73.5442 523.549 72.0859 524.209 L72.0859 511.188 Z" fill="#000000" fill-rule="evenodd" fill-opacity="1" /><path clip-path="url(#clip660)" d="M 0 0 M80.2455 422.982 Q77.8845 422.982 76.4956 424.597 Q75.124 426.212 75.124 429.024 Q75.124 431.819 76.4956 433.451 Q77.8845 435.066 80.2455 435.066 Q82.6066 435.066 83.9782 433.451 Q85.367 431.819 85.367 429.024 Q85.367 426.212 83.9782 424.597 Q82.6066 422.982 80.2455 422.982 M87.2073 411.993 L87.2073 415.187 Q85.8879 414.562 84.5337 414.233 Q83.1969 413.903 81.8775 413.903 Q78.4053 413.903 76.565 416.246 Q74.7421 418.59 74.4817 423.33 Q75.506 421.819 77.0511 421.021 Q78.5963 420.205 80.4539 420.205 Q84.3601 420.205 86.617 422.583 Q88.8913 424.944 88.8913 429.024 Q88.8913 433.017 86.5302 435.43 Q84.1691 437.843 80.2455 437.843 Q75.749 437.843 73.3706 434.406 Q70.9921 430.951 70.9921 424.406 Q70.9921 418.26 73.9088 414.614 Q76.8254 410.951 81.7386 410.951 Q83.058 410.951 84.3948 411.212 Q85.749 411.472 87.2073 411.993 Z" fill="#000000" fill-rule="evenodd" fill-opacity="1" /><path clip-path="url(#clip660)" d="M 0 0 M343.698 810.492 L360.364 810.492 L360.364 811.985 L350.955 836.412 L347.291 836.412 L356.145 813.443 L343.698 813.443 L343.698 810.492 Z" fill="#000000" fill-rule="evenodd" fill-opacity="1" /><path clip-path="url(#clip660)" d="M 0 0 M352.586 724.335 Q350.086 724.335 348.646 725.672 Q347.222 727.008 347.222 729.352 Q347.222 731.696 348.646 733.033 Q350.086 734.37 352.586 734.37 Q355.086 734.37 356.527 733.033 Q357.968 731.679 357.968 729.352 Q357.968 727.008 356.527 725.672 Q355.104 724.335 352.586 724.335 M349.08 722.842 Q346.823 722.286 345.555 720.741 Q344.305 719.196 344.305 716.974 Q344.305 713.866 346.51 712.061 Q348.732 710.255 352.586 710.255 Q356.458 710.255 358.663 712.061 Q360.868 713.866 360.868 716.974 Q360.868 719.196 359.6 720.741 Q358.35 722.286 356.111 722.842 Q358.645 723.432 360.052 725.151 Q361.475 726.87 361.475 729.352 Q361.475 733.12 359.166 735.133 Q356.875 737.147 352.586 737.147 Q348.298 737.147 345.989 735.133 Q343.698 733.12 343.698 729.352 Q343.698 726.87 345.121 725.151 Q346.545 723.432 349.08 722.842 M347.795 717.304 Q347.795 719.318 349.045 720.446 Q350.312 721.574 352.586 721.574 Q354.843 721.574 356.111 720.446 Q357.395 719.318 357.395 717.304 Q357.395 715.29 356.111 714.161 Q354.843 713.033 352.586 713.033 Q350.312 713.033 349.045 714.161 Q347.795 715.29 347.795 717.304 Z" fill="#000000" fill-rule="evenodd" fill-opacity="1" /><path clip-path="url(#clip660)" d="M 0 0 M209.012 835.874 L209.012 832.679 Q210.331 833.304 211.685 833.634 Q213.039 833.964 214.341 833.964 Q217.814 833.964 219.636 831.638 Q221.477 829.294 221.737 824.537 Q220.73 826.03 219.185 826.829 Q217.64 827.627 215.765 827.627 Q211.876 827.627 209.602 825.283 Q207.345 822.922 207.345 818.842 Q207.345 814.849 209.706 812.436 Q212.067 810.023 215.991 810.023 Q220.487 810.023 222.848 813.478 Q225.227 816.915 225.227 823.478 Q225.227 829.606 222.31 833.269 Q219.411 836.915 214.498 836.915 Q213.178 836.915 211.824 836.655 Q210.47 836.394 209.012 835.874 M215.991 824.884 Q218.352 824.884 219.723 823.27 Q221.112 821.655 221.112 818.842 Q221.112 816.047 219.723 814.433 Q218.352 812.801 215.991 812.801 Q213.63 812.801 212.241 814.433 Q210.869 816.047 210.869 818.842 Q210.869 821.655 212.241 823.27 Q213.63 824.884 215.991 824.884 Z" fill="#000000" fill-rule="evenodd" fill-opacity="1" /><path clip-path="url(#clip660)" d="M 0 0 M207.848 733.692 L213.577 733.692 L213.577 713.918 L207.345 715.168 L207.345 711.974 L213.543 710.724 L217.05 710.724 L217.05 733.692 L222.779 733.692 L222.779 736.644 L207.848 736.644 L207.848 733.692 Z" fill="#000000" fill-rule="evenodd" fill-opacity="1" /><path clip-path="url(#clip660)" d="M 0 0 M237.362 713.033 Q234.654 713.033 233.282 715.706 Q231.928 718.363 231.928 723.71 Q231.928 729.04 233.282 731.713 Q234.654 734.37 237.362 734.37 Q240.088 734.37 241.442 731.713 Q242.813 729.04 242.813 723.71 Q242.813 718.363 241.442 715.706 Q240.088 713.033 237.362 713.033 M237.362 710.255 Q241.72 710.255 244.011 713.71 Q246.32 717.147 246.32 723.71 Q246.32 730.255 244.011 733.71 Q241.72 737.147 237.362 737.147 Q233.004 737.147 230.695 733.71 Q228.404 730.255 228.404 723.71 Q228.404 717.147 230.695 713.71 Q233.004 710.255 237.362 710.255 Z" fill="#000000" fill-rule="evenodd" fill-opacity="1" /><path clip-path="url(#clip660)" d="M 0 0 M71.4956 833.46 L77.2247 833.46 L77.2247 813.686 L70.9921 814.936 L70.9921 811.742 L77.19 810.492 L80.6969 810.492 L80.6969 833.46 L86.4261 833.46 L86.4261 836.412 L71.4956 836.412 L71.4956 833.46 Z" fill="#000000" fill-rule="evenodd" fill-opacity="1" /><path clip-path="url(#clip660)" d="M 0 0 M94.117 833.46 L99.8461 833.46 L99.8461 813.686 L93.6135 814.936 L93.6135 811.742 L99.8114 810.492 L103.318 810.492 L103.318 833.46 L109.047 833.46 L109.047 836.412 L94.117 836.412 L94.117 833.46 Z" fill="#000000" fill-rule="evenodd" fill-opacity="1" /><path clip-path="url(#clip660)" d="M 0 0 M71.4956 733.692 L77.2247 733.692 L77.2247 713.918 L70.9921 715.168 L70.9921 711.974 L77.19 710.724 L80.6969 710.724 L80.6969 733.692 L86.4261 733.692 L86.4261 736.644 L71.4956 736.644 L71.4956 733.692 Z" fill="#000000" fill-rule="evenodd" fill-opacity="1" /><path clip-path="url(#clip660)" d="M 0 0 M96.5302 733.692 L108.77 733.692 L108.77 736.644 L92.3115 736.644 L92.3115 733.692 Q94.308 731.627 97.7455 728.154 Q101.2 724.665 102.086 723.658 Q103.77 721.765 104.429 720.463 Q105.107 719.144 105.107 717.877 Q105.107 715.811 103.648 714.509 Q102.207 713.206 99.8809 713.206 Q98.2316 713.206 96.3913 713.779 Q94.5684 714.352 92.4851 715.516 L92.4851 711.974 Q94.6031 711.123 96.4434 710.689 Q98.2836 710.255 99.8114 710.255 Q103.839 710.255 106.235 712.269 Q108.631 714.283 108.631 717.651 Q108.631 719.248 108.023 720.689 Q107.433 722.113 105.853 724.057 Q105.419 724.561 103.093 726.974 Q100.766 729.37 96.5302 733.692 Z" fill="#000000" fill-rule="evenodd" fill-opacity="1" /><path clip-path="url(#clip660)" d="M 0 0 M139.672 683.809 L145.401 683.809 L145.401 664.034 L139.169 665.284 L139.169 662.09 L145.366 660.84 L148.873 660.84 L148.873 683.809 L154.602 683.809 L154.602 686.76 L139.672 686.76 L139.672 683.809 Z" fill="#000000" fill-rule="evenodd" fill-opacity="1" /><path clip-path="url(#clip660)" d="M 0 0 M172.311 672.784 Q174.828 673.322 176.234 675.024 Q177.658 676.725 177.658 679.225 Q177.658 683.062 175.019 685.163 Q172.38 687.263 167.519 687.263 Q165.887 687.263 164.151 686.934 Q162.432 686.621 160.592 685.979 L160.592 682.593 Q162.05 683.444 163.786 683.878 Q165.523 684.312 167.415 684.312 Q170.713 684.312 172.432 683.01 Q174.168 681.708 174.168 679.225 Q174.168 676.934 172.554 675.649 Q170.957 674.347 168.092 674.347 L165.071 674.347 L165.071 671.465 L168.231 671.465 Q170.818 671.465 172.189 670.441 Q173.561 669.399 173.561 667.454 Q173.561 665.458 172.137 664.399 Q170.731 663.323 168.092 663.323 Q166.651 663.323 165.002 663.635 Q163.352 663.948 161.373 664.607 L161.373 661.482 Q163.37 660.927 165.106 660.649 Q166.859 660.371 168.404 660.371 Q172.397 660.371 174.724 662.194 Q177.05 664 177.05 667.09 Q177.05 669.243 175.818 670.736 Q174.585 672.211 172.311 672.784 Z" fill="#000000" fill-rule="evenodd" fill-opacity="1" /><path clip-path="url(#clip660)" d="M 0 0 M139.672 584.041 L145.401 584.041 L145.401 564.266 L139.169 565.516 L139.169 562.322 L145.366 561.072 L148.873 561.072 L148.873 584.041 L154.602 584.041 L154.602 586.992 L139.672 586.992 L139.672 584.041 Z" fill="#000000" fill-rule="evenodd" fill-opacity="1" /><path clip-path="url(#clip660)" d="M 0 0 M171.321 564.127 L162.467 577.964 L171.321 577.964 L171.321 564.127 M170.401 561.072 L174.811 561.072 L174.811 577.964 L178.509 577.964 L178.509 580.881 L174.811 580.881 L174.811 586.992 L171.321 586.992 L171.321 580.881 L159.62 580.881 L159.62 577.495 L170.401 561.072 Z" fill="#000000" fill-rule="evenodd" fill-opacity="1" /><path clip-path="url(#clip660)" d="M 0 0 M412.377 883.344 L418.107 883.344 L418.107 863.57 L411.874 864.82 L411.874 861.626 L418.072 860.376 L421.579 860.376 L421.579 883.344 L427.308 883.344 L427.308 886.296 L412.377 886.296 L412.377 883.344 Z" fill="#000000" fill-rule="evenodd" fill-opacity="1" /><path clip-path="url(#clip660)" d="M 0 0 M442.325 871.938 Q439.964 871.938 438.575 873.553 Q437.204 875.167 437.204 877.98 Q437.204 880.775 438.575 882.407 Q439.964 884.021 442.325 884.021 Q444.686 884.021 446.058 882.407 Q447.447 880.775 447.447 877.98 Q447.447 875.167 446.058 873.553 Q444.686 871.938 442.325 871.938 M449.287 860.949 L449.287 864.143 Q447.968 863.518 446.613 863.188 Q445.277 862.858 443.957 862.858 Q440.485 862.858 438.645 865.202 Q436.822 867.546 436.561 872.285 Q437.586 870.775 439.131 869.976 Q440.676 869.16 442.534 869.16 Q446.44 869.16 448.697 871.539 Q450.971 873.9 450.971 877.98 Q450.971 881.973 448.61 884.386 Q446.249 886.799 442.325 886.799 Q437.829 886.799 435.45 883.362 Q433.072 879.907 433.072 873.362 Q433.072 867.216 435.988 863.57 Q438.905 859.907 443.818 859.907 Q445.138 859.907 446.475 860.167 Q447.829 860.428 449.287 860.949 Z" fill="#000000" fill-rule="evenodd" fill-opacity="1" /><path clip-path="url(#clip660)" d="M 0 0 M276.025 883.344 L281.754 883.344 L281.754 863.57 L275.521 864.82 L275.521 861.626 L281.719 860.376 L285.226 860.376 L285.226 883.344 L290.955 883.344 L290.955 886.296 L276.025 886.296 L276.025 883.344 Z" fill="#000000" fill-rule="evenodd" fill-opacity="1" /><path clip-path="url(#clip660)" d="M 0 0 M305.538 873.987 Q303.038 873.987 301.598 875.324 Q300.174 876.66 300.174 879.004 Q300.174 881.348 301.598 882.685 Q303.038 884.021 305.538 884.021 Q308.038 884.021 309.479 882.685 Q310.92 881.331 310.92 879.004 Q310.92 876.66 309.479 875.324 Q308.056 873.987 305.538 873.987 M302.032 872.494 Q299.775 871.938 298.507 870.393 Q297.257 868.848 297.257 866.626 Q297.257 863.518 299.462 861.713 Q301.684 859.907 305.538 859.907 Q309.41 859.907 311.615 861.713 Q313.82 863.518 313.82 866.626 Q313.82 868.848 312.552 870.393 Q311.302 871.938 309.063 872.494 Q311.597 873.084 313.004 874.803 Q314.427 876.522 314.427 879.004 Q314.427 882.771 312.118 884.785 Q309.827 886.799 305.538 886.799 Q301.25 886.799 298.941 884.785 Q296.65 882.771 296.65 879.004 Q296.65 876.522 298.073 874.803 Q299.497 873.084 302.032 872.494 M300.747 866.956 Q300.747 868.969 301.997 870.098 Q303.264 871.226 305.538 871.226 Q307.795 871.226 309.063 870.098 Q310.347 868.969 310.347 866.956 Q310.347 864.942 309.063 863.813 Q307.795 862.685 305.538 862.685 Q303.264 862.685 301.997 863.813 Q300.747 864.942 300.747 866.956 Z" fill="#000000" fill-rule="evenodd" fill-opacity="1" /><path clip-path="url(#clip660)" d="M 0 0 M139.672 384.505 L145.401 384.505 L145.401 364.73 L139.169 365.98 L139.169 362.786 L145.366 361.536 L148.873 361.536 L148.873 384.505 L154.602 384.505 L154.602 387.456 L139.672 387.456 L139.672 384.505 Z" fill="#000000" fill-rule="evenodd" fill-opacity="1" /><path clip-path="url(#clip660)" d="M 0 0 M161.79 386.918 L161.79 383.723 Q163.109 384.348 164.464 384.678 Q165.818 385.008 167.12 385.008 Q170.592 385.008 172.415 382.682 Q174.255 380.338 174.516 375.581 Q173.509 377.074 171.963 377.873 Q170.418 378.671 168.543 378.671 Q164.654 378.671 162.38 376.328 Q160.123 373.967 160.123 369.887 Q160.123 365.894 162.484 363.48 Q164.845 361.067 168.769 361.067 Q173.266 361.067 175.627 364.522 Q178.005 367.96 178.005 374.522 Q178.005 380.651 175.088 384.314 Q172.189 387.96 167.276 387.96 Q165.957 387.96 164.602 387.699 Q163.248 387.439 161.79 386.918 M168.769 375.928 Q171.13 375.928 172.502 374.314 Q173.891 372.699 173.891 369.887 Q173.891 367.092 172.502 365.477 Q171.13 363.845 168.769 363.845 Q166.408 363.845 165.019 365.477 Q163.648 367.092 163.648 369.887 Q163.648 372.699 165.019 374.314 Q166.408 375.928 168.769 375.928 Z" fill="#000000" fill-rule="evenodd" fill-opacity="1" /><path clip-path="url(#clip660)" d="M 0 0 M143.387 284.737 L155.627 284.737 L155.627 287.688 L139.169 287.688 L139.169 284.737 Q141.165 282.671 144.603 279.199 Q148.057 275.709 148.943 274.702 Q150.627 272.81 151.286 271.508 Q151.964 270.188 151.964 268.921 Q151.964 266.855 150.505 265.553 Q149.064 264.251 146.738 264.251 Q145.089 264.251 143.248 264.824 Q141.425 265.397 139.342 266.56 L139.342 263.018 Q141.46 262.167 143.3 261.733 Q145.141 261.299 146.668 261.299 Q150.696 261.299 153.092 263.313 Q155.488 265.327 155.488 268.695 Q155.488 270.292 154.88 271.733 Q154.29 273.157 152.71 275.101 Q152.276 275.605 149.95 278.018 Q147.623 280.414 143.387 284.737 Z" fill="#000000" fill-rule="evenodd" fill-opacity="1" /><path clip-path="url(#clip660)" d="M 0 0 M170.488 264.077 Q167.779 264.077 166.408 266.751 Q165.054 269.407 165.054 274.754 Q165.054 280.084 166.408 282.758 Q167.779 285.414 170.488 285.414 Q173.213 285.414 174.568 282.758 Q175.939 280.084 175.939 274.754 Q175.939 269.407 174.568 266.751 Q173.213 264.077 170.488 264.077 M170.488 261.299 Q174.845 261.299 177.137 264.754 Q179.446 268.192 179.446 274.754 Q179.446 281.299 177.137 284.754 Q174.845 288.192 170.488 288.192 Q166.13 288.192 163.821 284.754 Q161.529 281.299 161.529 274.754 Q161.529 268.192 163.821 264.754 Q166.13 261.299 170.488 261.299 Z" fill="#000000" fill-rule="evenodd" fill-opacity="1" /><path clip-path="url(#clip660)" d="M 0 0 M416.093 683.809 L428.332 683.809 L428.332 686.76 L411.874 686.76 L411.874 683.809 Q413.871 681.743 417.308 678.27 Q420.763 674.781 421.648 673.774 Q423.332 671.881 423.992 670.579 Q424.669 669.26 424.669 667.993 Q424.669 665.927 423.211 664.625 Q421.77 663.323 419.443 663.323 Q417.794 663.323 415.954 663.895 Q414.131 664.468 412.048 665.632 L412.048 662.09 Q414.166 661.239 416.006 660.805 Q417.846 660.371 419.374 660.371 Q423.402 660.371 425.798 662.385 Q428.193 664.399 428.193 667.767 Q428.193 669.364 427.586 670.805 Q426.995 672.229 425.416 674.173 Q424.982 674.677 422.655 677.09 Q420.329 679.486 416.093 683.809 Z" fill="#000000" fill-rule="evenodd" fill-opacity="1" /><path clip-path="url(#clip660)" d="M 0 0 M436.301 683.809 L442.03 683.809 L442.03 664.034 L435.797 665.284 L435.797 662.09 L441.995 660.84 L445.502 660.84 L445.502 683.809 L451.231 683.809 L451.231 686.76 L436.301 686.76 L436.301 683.809 Z" fill="#000000" fill-rule="evenodd" fill-opacity="1" /><path clip-path="url(#clip660)" d="M 0 0 M416.093 584.041 L428.332 584.041 L428.332 586.992 L411.874 586.992 L411.874 584.041 Q413.871 581.975 417.308 578.502 Q420.763 575.013 421.648 574.006 Q423.332 572.114 423.992 570.811 Q424.669 569.492 424.669 568.225 Q424.669 566.159 423.211 564.857 Q421.77 563.555 419.443 563.555 Q417.794 563.555 415.954 564.127 Q414.131 564.7 412.048 565.864 L412.048 562.322 Q414.166 561.471 416.006 561.037 Q417.846 560.603 419.374 560.603 Q423.402 560.603 425.798 562.617 Q428.193 564.631 428.193 567.999 Q428.193 569.596 427.586 571.037 Q426.995 572.461 425.416 574.405 Q424.982 574.909 422.655 577.322 Q420.329 579.718 416.093 584.041 Z" fill="#000000" fill-rule="evenodd" fill-opacity="1" /><path clip-path="url(#clip660)" d="M 0 0 M438.714 584.041 L450.954 584.041 L450.954 586.992 L434.495 586.992 L434.495 584.041 Q436.492 581.975 439.929 578.502 Q443.384 575.013 444.27 574.006 Q445.954 572.114 446.613 570.811 Q447.29 569.492 447.29 568.225 Q447.29 566.159 445.832 564.857 Q444.391 563.555 442.065 563.555 Q440.416 563.555 438.575 564.127 Q436.752 564.7 434.669 565.864 L434.669 562.322 Q436.787 561.471 438.627 561.037 Q440.468 560.603 441.995 560.603 Q446.023 560.603 448.419 562.617 Q450.815 564.631 450.815 567.999 Q450.815 569.596 450.207 571.037 Q449.617 572.461 448.037 574.405 Q447.603 574.909 445.277 577.322 Q442.95 579.718 438.714 584.041 Z" fill="#000000" fill-rule="evenodd" fill-opacity="1" /><path clip-path="url(#clip660)" d="M 0 0 M279.74 683.809 L291.98 683.809 L291.98 686.76 L275.521 686.76 L275.521 683.809 Q277.518 681.743 280.955 678.27 Q284.41 674.781 285.296 673.774 Q286.98 671.881 287.639 670.579 Q288.316 669.26 288.316 667.993 Q288.316 665.927 286.858 664.625 Q285.417 663.323 283.091 663.323 Q281.441 663.323 279.601 663.895 Q277.778 664.468 275.695 665.632 L275.695 662.09 Q277.813 661.239 279.653 660.805 Q281.493 660.371 283.021 660.371 Q287.049 660.371 289.445 662.385 Q291.841 664.399 291.841 667.767 Q291.841 669.364 291.233 670.805 Q290.643 672.229 289.063 674.173 Q288.629 674.677 286.302 677.09 Q283.976 679.486 279.74 683.809 Z" fill="#000000" fill-rule="evenodd" fill-opacity="1" /><path clip-path="url(#clip660)" d="M 0 0 M309.966 672.784 Q312.483 673.322 313.889 675.024 Q315.313 676.725 315.313 679.225 Q315.313 683.062 312.674 685.163 Q310.035 687.263 305.174 687.263 Q303.542 687.263 301.806 686.934 Q300.087 686.621 298.247 685.979 L298.247 682.593 Q299.705 683.444 301.441 683.878 Q303.177 684.312 305.07 684.312 Q308.368 684.312 310.087 683.01 Q311.823 681.708 311.823 679.225 Q311.823 676.934 310.209 675.649 Q308.611 674.347 305.747 674.347 L302.726 674.347 L302.726 671.465 L305.886 671.465 Q308.472 671.465 309.844 670.441 Q311.216 669.399 311.216 667.454 Q311.216 665.458 309.792 664.399 Q308.386 663.323 305.747 663.323 Q304.306 663.323 302.657 663.635 Q301.007 663.948 299.028 664.607 L299.028 661.482 Q301.025 660.927 302.761 660.649 Q304.514 660.371 306.059 660.371 Q310.052 660.371 312.379 662.194 Q314.705 664 314.705 667.09 Q314.705 669.243 313.472 670.736 Q312.24 672.211 309.966 672.784 Z" fill="#000000" fill-rule="evenodd" fill-opacity="1" /><path clip-path="url(#clip660)" d="M 0 0 M279.74 584.041 L291.98 584.041 L291.98 586.992 L275.521 586.992 L275.521 584.041 Q277.518 581.975 280.955 578.502 Q284.41 575.013 285.296 574.006 Q286.98 572.114 287.639 570.811 Q288.316 569.492 288.316 568.225 Q288.316 566.159 286.858 564.857 Q285.417 563.555 283.091 563.555 Q281.441 563.555 279.601 564.127 Q277.778 564.7 275.695 565.864 L275.695 562.322 Q277.813 561.471 279.653 561.037 Q281.493 560.603 283.021 560.603 Q287.049 560.603 289.445 562.617 Q291.841 564.631 291.841 567.999 Q291.841 569.596 291.233 571.037 Q290.643 572.461 289.063 574.405 Q288.629 574.909 286.302 577.322 Q283.976 579.718 279.74 584.041 Z" fill="#000000" fill-rule="evenodd" fill-opacity="1" /><path clip-path="url(#clip660)" d="M 0 0 M308.976 564.127 L300.122 577.964 L308.976 577.964 L308.976 564.127 M308.056 561.072 L312.466 561.072 L312.466 577.964 L316.163 577.964 L316.163 580.881 L312.466 580.881 L312.466 586.992 L308.976 586.992 L308.976 580.881 L297.275 580.881 L297.275 577.495 L308.056 561.072 Z" fill="#000000" fill-rule="evenodd" fill-opacity="1" /><circle clip-path="url(#clip662)" cx="343.698" cy="245.58" r="14" fill="#0000ff" fill-rule="evenodd" fill-opacity="1" stroke="none"/>
<circle clip-path="url(#clip662)" cx="343.698" cy="145.812" r="14" fill="#0000ff" fill-rule="evenodd" fill-opacity="1" stroke="none"/>
<circle clip-path="url(#clip662)" cx="207.345" cy="245.58" r="14" fill="#0000ff" fill-rule="evenodd" fill-opacity="1" stroke="none"/>
<circle clip-path="url(#clip662)" cx="207.345" cy="145.812" r="14" fill="#0000ff" fill-rule="evenodd" fill-opacity="1" stroke="none"/>
<circle clip-path="url(#clip662)" cx="70.9921" cy="245.58" r="14" fill="#0000ff" fill-rule="evenodd" fill-opacity="1" stroke="none"/>
<circle clip-path="url(#clip662)" cx="70.9921" cy="145.812" r="14" fill="#0000ff" fill-rule="evenodd" fill-opacity="1" stroke="none"/>
<circle clip-path="url(#clip662)" cx="139.169" cy="95.9282" r="14" fill="#0000ff" fill-rule="evenodd" fill-opacity="1" stroke="none"/>
<circle clip-path="url(#clip662)" cx="411.874" cy="395.232" r="14" fill="#0000ff" fill-rule="evenodd" fill-opacity="1" stroke="none"/>
<circle clip-path="url(#clip662)" cx="411.874" cy="295.464" r="14" fill="#0000ff" fill-rule="evenodd" fill-opacity="1" stroke="none"/>
<circle clip-path="url(#clip662)" cx="275.521" cy="395.232" r="14" fill="#0000ff" fill-rule="evenodd" fill-opacity="1" stroke="none"/>
<circle clip-path="url(#clip662)" cx="275.521" cy="295.464" r="14" fill="#0000ff" fill-rule="evenodd" fill-opacity="1" stroke="none"/>
<circle clip-path="url(#clip662)" cx="411.874" cy="95.9282" r="14" fill="#0000ff" fill-rule="evenodd" fill-opacity="1" stroke="none"/>
<circle clip-path="url(#clip662)" cx="275.521" cy="95.9282" r="14" fill="#0000ff" fill-rule="evenodd" fill-opacity="1" stroke="none"/>
<path clip-path="url(#clip660)" d="M 0 0 M343.698 211.884 L360.364 211.884 L360.364 213.377 L350.955 237.804 L347.291 237.804 L356.145 214.836 L343.698 214.836 L343.698 211.884 Z" fill="#000000" fill-rule="evenodd" fill-opacity="1" /><path clip-path="url(#clip660)" d="M 0 0 M352.586 125.727 Q350.086 125.727 348.646 127.064 Q347.222 128.401 347.222 130.745 Q347.222 133.088 348.646 134.425 Q350.086 135.762 352.586 135.762 Q355.086 135.762 356.527 134.425 Q357.968 133.071 357.968 130.745 Q357.968 128.401 356.527 127.064 Q355.104 125.727 352.586 125.727 M349.08 124.234 Q346.823 123.679 345.555 122.134 Q344.305 120.588 344.305 118.366 Q344.305 115.259 346.51 113.453 Q348.732 111.647 352.586 111.647 Q356.458 111.647 358.663 113.453 Q360.868 115.259 360.868 118.366 Q360.868 120.588 359.6 122.134 Q358.35 123.679 356.111 124.234 Q358.645 124.824 360.052 126.543 Q361.475 128.262 361.475 130.745 Q361.475 134.512 359.166 136.526 Q356.875 138.54 352.586 138.54 Q348.298 138.54 345.989 136.526 Q343.698 134.512 343.698 130.745 Q343.698 128.262 345.121 126.543 Q346.545 124.824 349.08 124.234 M347.795 118.696 Q347.795 120.71 349.045 121.838 Q350.312 122.967 352.586 122.967 Q354.843 122.967 356.111 121.838 Q357.395 120.71 357.395 118.696 Q357.395 116.682 356.111 115.554 Q354.843 114.425 352.586 114.425 Q350.312 114.425 349.045 115.554 Q347.795 116.682 347.795 118.696 Z" fill="#000000" fill-rule="evenodd" fill-opacity="1" /><path clip-path="url(#clip660)" d="M 0 0 M209.012 237.266 L209.012 234.072 Q210.331 234.697 211.685 235.026 Q213.039 235.356 214.341 235.356 Q217.814 235.356 219.636 233.03 Q221.477 230.686 221.737 225.929 Q220.73 227.422 219.185 228.221 Q217.64 229.019 215.765 229.019 Q211.876 229.019 209.602 226.676 Q207.345 224.315 207.345 220.235 Q207.345 216.242 209.706 213.829 Q212.067 211.415 215.991 211.415 Q220.487 211.415 222.848 214.87 Q225.227 218.308 225.227 224.87 Q225.227 230.999 222.31 234.662 Q219.411 238.308 214.498 238.308 Q213.178 238.308 211.824 238.047 Q210.47 237.787 209.012 237.266 M215.991 226.276 Q218.352 226.276 219.723 224.662 Q221.112 223.047 221.112 220.235 Q221.112 217.44 219.723 215.825 Q218.352 214.193 215.991 214.193 Q213.63 214.193 212.241 215.825 Q210.869 217.44 210.869 220.235 Q210.869 223.047 212.241 224.662 Q213.63 226.276 215.991 226.276 Z" fill="#000000" fill-rule="evenodd" fill-opacity="1" /><path clip-path="url(#clip660)" d="M 0 0 M207.848 135.085 L213.577 135.085 L213.577 115.311 L207.345 116.561 L207.345 113.366 L213.543 112.116 L217.05 112.116 L217.05 135.085 L222.779 135.085 L222.779 138.036 L207.848 138.036 L207.848 135.085 Z" fill="#000000" fill-rule="evenodd" fill-opacity="1" /><path clip-path="url(#clip660)" d="M 0 0 M237.362 114.425 Q234.654 114.425 233.282 117.099 Q231.928 119.755 231.928 125.102 Q231.928 130.432 233.282 133.106 Q234.654 135.762 237.362 135.762 Q240.088 135.762 241.442 133.106 Q242.813 130.432 242.813 125.102 Q242.813 119.755 241.442 117.099 Q240.088 114.425 237.362 114.425 M237.362 111.647 Q241.72 111.647 244.011 115.102 Q246.32 118.54 246.32 125.102 Q246.32 131.647 244.011 135.102 Q241.72 138.54 237.362 138.54 Q233.004 138.54 230.695 135.102 Q228.404 131.647 228.404 125.102 Q228.404 118.54 230.695 115.102 Q233.004 111.647 237.362 111.647 Z" fill="#000000" fill-rule="evenodd" fill-opacity="1" /><path clip-path="url(#clip660)" d="M 0 0 M71.4956 234.853 L77.2247 234.853 L77.2247 215.079 L70.9921 216.329 L70.9921 213.134 L77.19 211.884 L80.6969 211.884 L80.6969 234.853 L86.4261 234.853 L86.4261 237.804 L71.4956 237.804 L71.4956 234.853 Z" fill="#000000" fill-rule="evenodd" fill-opacity="1" /><path clip-path="url(#clip660)" d="M 0 0 M94.117 234.853 L99.8461 234.853 L99.8461 215.079 L93.6135 216.329 L93.6135 213.134 L99.8114 211.884 L103.318 211.884 L103.318 234.853 L109.047 234.853 L109.047 237.804 L94.117 237.804 L94.117 234.853 Z" fill="#000000" fill-rule="evenodd" fill-opacity="1" /><path clip-path="url(#clip660)" d="M 0 0 M71.4956 135.085 L77.2247 135.085 L77.2247 115.311 L70.9921 116.561 L70.9921 113.366 L77.19 112.116 L80.6969 112.116 L80.6969 135.085 L86.4261 135.085 L86.4261 138.036 L71.4956 138.036 L71.4956 135.085 Z" fill="#000000" fill-rule="evenodd" fill-opacity="1" /><path clip-path="url(#clip660)" d="M 0 0 M96.5302 135.085 L108.77 135.085 L108.77 138.036 L92.3115 138.036 L92.3115 135.085 Q94.308 133.019 97.7455 129.547 Q101.2 126.057 102.086 125.05 Q103.77 123.158 104.429 121.856 Q105.107 120.536 105.107 119.269 Q105.107 117.203 103.648 115.901 Q102.207 114.599 99.8809 114.599 Q98.2316 114.599 96.3913 115.172 Q94.5684 115.745 92.4851 116.908 L92.4851 113.366 Q94.6031 112.515 96.4434 112.081 Q98.2836 111.647 99.8114 111.647 Q103.839 111.647 106.235 113.661 Q108.631 115.675 108.631 119.043 Q108.631 120.64 108.023 122.081 Q107.433 123.505 105.853 125.449 Q105.419 125.953 103.093 128.366 Q100.766 130.762 96.5302 135.085 Z" fill="#000000" fill-rule="evenodd" fill-opacity="1" /><path clip-path="url(#clip660)" d="M 0 0 M139.672 85.2008 L145.401 85.2008 L145.401 65.4266 L139.169 66.6766 L139.169 63.4822 L145.366 62.2322 L148.873 62.2322 L148.873 85.2008 L154.602 85.2008 L154.602 88.1522 L139.672 88.1522 L139.672 85.2008 Z" fill="#000000" fill-rule="evenodd" fill-opacity="1" /><path clip-path="url(#clip660)" d="M 0 0 M172.311 74.1766 Q174.828 74.7148 176.234 76.4162 Q177.658 78.1176 177.658 80.6175 Q177.658 84.4543 175.019 86.555 Q172.38 88.6557 167.519 88.6557 Q165.887 88.6557 164.151 88.3258 Q162.432 88.0133 160.592 87.371 L160.592 83.9856 Q162.05 84.8363 163.786 85.2703 Q165.523 85.7043 167.415 85.7043 Q170.713 85.7043 172.432 84.4022 Q174.168 83.1002 174.168 80.6175 Q174.168 78.3259 172.554 77.0412 Q170.957 75.7391 168.092 75.7391 L165.071 75.7391 L165.071 72.8572 L168.231 72.8572 Q170.818 72.8572 172.189 71.8329 Q173.561 70.7912 173.561 68.8468 Q173.561 66.8503 172.137 65.7912 Q170.731 64.7148 168.092 64.7148 Q166.651 64.7148 165.002 65.0273 Q163.352 65.3398 161.373 65.9996 L161.373 62.8746 Q163.37 62.319 165.106 62.0412 Q166.859 61.7635 168.404 61.7635 Q172.397 61.7635 174.724 63.5864 Q177.05 65.3919 177.05 68.4822 Q177.05 70.635 175.818 72.128 Q174.585 73.6037 172.311 74.1766 Z" fill="#000000" fill-rule="evenodd" fill-opacity="1" /><path clip-path="url(#clip660)" d="M 0 0 M412.377 384.505 L418.107 384.505 L418.107 364.73 L411.874 365.98 L411.874 362.786 L418.072 361.536 L421.579 361.536 L421.579 384.505 L427.308 384.505 L427.308 387.456 L412.377 387.456 L412.377 384.505 Z" fill="#000000" fill-rule="evenodd" fill-opacity="1" /><path clip-path="url(#clip660)" d="M 0 0 M434.426 361.536 L448.193 361.536 L448.193 364.487 L437.638 364.487 L437.638 370.842 Q438.402 370.581 439.166 370.46 Q439.929 370.321 440.693 370.321 Q445.034 370.321 447.568 372.699 Q450.103 375.078 450.103 379.14 Q450.103 383.324 447.499 385.651 Q444.895 387.96 440.155 387.96 Q438.523 387.96 436.822 387.682 Q435.138 387.404 433.332 386.848 L433.332 383.324 Q434.895 384.175 436.561 384.591 Q438.228 385.008 440.086 385.008 Q443.089 385.008 444.843 383.428 Q446.596 381.848 446.596 379.14 Q446.596 376.432 444.843 374.852 Q443.089 373.272 440.086 373.272 Q438.679 373.272 437.273 373.585 Q435.884 373.897 434.426 374.557 L434.426 361.536 Z" fill="#000000" fill-rule="evenodd" fill-opacity="1" /><path clip-path="url(#clip660)" d="M 0 0 M412.377 284.737 L418.107 284.737 L418.107 264.963 L411.874 266.213 L411.874 263.018 L418.072 261.768 L421.579 261.768 L421.579 284.737 L427.308 284.737 L427.308 287.688 L412.377 287.688 L412.377 284.737 Z" fill="#000000" fill-rule="evenodd" fill-opacity="1" /><path clip-path="url(#clip660)" d="M 0 0 M442.325 273.331 Q439.964 273.331 438.575 274.945 Q437.204 276.56 437.204 279.372 Q437.204 282.167 438.575 283.799 Q439.964 285.414 442.325 285.414 Q444.686 285.414 446.058 283.799 Q447.447 282.167 447.447 279.372 Q447.447 276.56 446.058 274.945 Q444.686 273.331 442.325 273.331 M449.287 262.341 L449.287 265.535 Q447.968 264.91 446.613 264.581 Q445.277 264.251 443.957 264.251 Q440.485 264.251 438.645 266.594 Q436.822 268.938 436.561 273.678 Q437.586 272.167 439.131 271.369 Q440.676 270.553 442.534 270.553 Q446.44 270.553 448.697 272.931 Q450.971 275.292 450.971 279.372 Q450.971 283.365 448.61 285.778 Q446.249 288.192 442.325 288.192 Q437.829 288.192 435.45 284.754 Q433.072 281.299 433.072 274.754 Q433.072 268.608 435.988 264.963 Q438.905 261.299 443.818 261.299 Q445.138 261.299 446.475 261.56 Q447.829 261.82 449.287 262.341 Z" fill="#000000" fill-rule="evenodd" fill-opacity="1" /><path clip-path="url(#clip660)" d="M 0 0 M276.025 384.505 L281.754 384.505 L281.754 364.73 L275.521 365.98 L275.521 362.786 L281.719 361.536 L285.226 361.536 L285.226 384.505 L290.955 384.505 L290.955 387.456 L276.025 387.456 L276.025 384.505 Z" fill="#000000" fill-rule="evenodd" fill-opacity="1" /><path clip-path="url(#clip660)" d="M 0 0 M297.153 361.536 L313.82 361.536 L313.82 363.029 L304.41 387.456 L300.747 387.456 L309.601 364.487 L297.153 364.487 L297.153 361.536 Z" fill="#000000" fill-rule="evenodd" fill-opacity="1" /><path clip-path="url(#clip660)" d="M 0 0 M276.025 284.737 L281.754 284.737 L281.754 264.963 L275.521 266.213 L275.521 263.018 L281.719 261.768 L285.226 261.768 L285.226 284.737 L290.955 284.737 L290.955 287.688 L276.025 287.688 L276.025 284.737 Z" fill="#000000" fill-rule="evenodd" fill-opacity="1" /><path clip-path="url(#clip660)" d="M 0 0 M305.538 275.379 Q303.038 275.379 301.598 276.716 Q300.174 278.053 300.174 280.396 Q300.174 282.74 301.598 284.077 Q303.038 285.414 305.538 285.414 Q308.038 285.414 309.479 284.077 Q310.92 282.723 310.92 280.396 Q310.92 278.053 309.479 276.716 Q308.056 275.379 305.538 275.379 M302.032 273.886 Q299.775 273.331 298.507 271.785 Q297.257 270.24 297.257 268.018 Q297.257 264.91 299.462 263.105 Q301.684 261.299 305.538 261.299 Q309.41 261.299 311.615 263.105 Q313.82 264.91 313.82 268.018 Q313.82 270.24 312.552 271.785 Q311.302 273.331 309.063 273.886 Q311.597 274.476 313.004 276.195 Q314.427 277.914 314.427 280.396 Q314.427 284.164 312.118 286.178 Q309.827 288.192 305.538 288.192 Q301.25 288.192 298.941 286.178 Q296.65 284.164 296.65 280.396 Q296.65 277.914 298.073 276.195 Q299.497 274.476 302.032 273.886 M300.747 268.348 Q300.747 270.362 301.997 271.49 Q303.264 272.619 305.538 272.619 Q307.795 272.619 309.063 271.49 Q310.347 270.362 310.347 268.348 Q310.347 266.334 309.063 265.206 Q307.795 264.077 305.538 264.077 Q303.264 264.077 301.997 265.206 Q300.747 266.334 300.747 268.348 Z" fill="#000000" fill-rule="evenodd" fill-opacity="1" /><path clip-path="url(#clip660)" d="M 0 0 M416.093 85.2008 L428.332 85.2008 L428.332 88.1522 L411.874 88.1522 L411.874 85.2008 Q413.871 83.1349 417.308 79.6627 Q420.763 76.1731 421.648 75.1662 Q423.332 73.2738 423.992 71.9718 Q424.669 70.6523 424.669 69.385 Q424.669 67.319 423.211 66.0169 Q421.77 64.7148 419.443 64.7148 Q417.794 64.7148 415.954 65.2878 Q414.131 65.8607 412.048 67.0239 L412.048 63.4822 Q414.166 62.6315 416.006 62.1975 Q417.846 61.7635 419.374 61.7635 Q423.402 61.7635 425.798 63.7774 Q428.193 65.7912 428.193 69.1593 Q428.193 70.7565 427.586 72.1974 Q426.995 73.621 425.416 75.5655 Q424.982 76.069 422.655 78.4821 Q420.329 80.878 416.093 85.2008 Z" fill="#000000" fill-rule="evenodd" fill-opacity="1" /><path clip-path="url(#clip660)" d="M 0 0 M436.301 85.2008 L442.03 85.2008 L442.03 65.4266 L435.797 66.6766 L435.797 63.4822 L441.995 62.2322 L445.502 62.2322 L445.502 85.2008 L451.231 85.2008 L451.231 88.1522 L436.301 88.1522 L436.301 85.2008 Z" fill="#000000" fill-rule="evenodd" fill-opacity="1" /><path clip-path="url(#clip660)" d="M 0 0 M279.74 85.2008 L291.98 85.2008 L291.98 88.1522 L275.521 88.1522 L275.521 85.2008 Q277.518 83.1349 280.955 79.6627 Q284.41 76.1731 285.296 75.1662 Q286.98 73.2738 287.639 71.9718 Q288.316 70.6523 288.316 69.385 Q288.316 67.319 286.858 66.0169 Q285.417 64.7148 283.091 64.7148 Q281.441 64.7148 279.601 65.2878 Q277.778 65.8607 275.695 67.0239 L275.695 63.4822 Q277.813 62.6315 279.653 62.1975 Q281.493 61.7635 283.021 61.7635 Q287.049 61.7635 289.445 63.7774 Q291.841 65.7912 291.841 69.1593 Q291.841 70.7565 291.233 72.1974 Q290.643 73.621 289.063 75.5655 Q288.629 76.069 286.302 78.4821 Q283.976 80.878 279.74 85.2008 Z" fill="#000000" fill-rule="evenodd" fill-opacity="1" /><path clip-path="url(#clip660)" d="M 0 0 M309.966 74.1766 Q312.483 74.7148 313.889 76.4162 Q315.313 78.1176 315.313 80.6175 Q315.313 84.4543 312.674 86.555 Q310.035 88.6557 305.174 88.6557 Q303.542 88.6557 301.806 88.3258 Q300.087 88.0133 298.247 87.371 L298.247 83.9856 Q299.705 84.8363 301.441 85.2703 Q303.177 85.7043 305.07 85.7043 Q308.368 85.7043 310.087 84.4022 Q311.823 83.1002 311.823 80.6175 Q311.823 78.3259 310.209 77.0412 Q308.611 75.7391 305.747 75.7391 L302.726 75.7391 L302.726 72.8572 L305.886 72.8572 Q308.472 72.8572 309.844 71.8329 Q311.216 70.7912 311.216 68.8468 Q311.216 66.8503 309.792 65.7912 Q308.386 64.7148 305.747 64.7148 Q304.306 64.7148 302.657 65.0273 Q301.007 65.3398 299.028 65.9996 L299.028 62.8746 Q301.025 62.319 302.761 62.0412 Q304.514 61.7635 306.059 61.7635 Q310.052 61.7635 312.379 63.5864 Q314.705 65.3919 314.705 68.4822 Q314.705 70.635 313.472 72.128 Q312.24 73.6037 309.966 74.1766 Z" fill="#000000" fill-rule="evenodd" fill-opacity="1" /><circle clip-path="url(#clip662)" cx="752.756" cy="844.188" r="14" fill="#0000ff" fill-rule="evenodd" fill-opacity="1" stroke="none"/>
<circle clip-path="url(#clip662)" cx="752.756" cy="744.42" r="14" fill="#0000ff" fill-rule="evenodd" fill-opacity="1" stroke="none"/>
<circle clip-path="url(#clip662)" cx="616.403" cy="844.188" r="14" fill="#0000ff" fill-rule="evenodd" fill-opacity="1" stroke="none"/>
<circle clip-path="url(#clip662)" cx="616.403" cy="744.42" r="14" fill="#0000ff" fill-rule="evenodd" fill-opacity="1" stroke="none"/>
<circle clip-path="url(#clip662)" cx="480.05" cy="844.188" r="14" fill="#0000ff" fill-rule="evenodd" fill-opacity="1" stroke="none"/>
<circle clip-path="url(#clip662)" cx="480.05" cy="744.42" r="14" fill="#0000ff" fill-rule="evenodd" fill-opacity="1" stroke="none"/>
<circle clip-path="url(#clip662)" cx="548.227" cy="894.072" r="14" fill="#0000ff" fill-rule="evenodd" fill-opacity="1" stroke="none"/>
<circle clip-path="url(#clip662)" cx="548.227" cy="694.536" r="14" fill="#0000ff" fill-rule="evenodd" fill-opacity="1" stroke="none"/>
<circle clip-path="url(#clip662)" cx="548.227" cy="594.768" r="14" fill="#0000ff" fill-rule="evenodd" fill-opacity="1" stroke="none"/>
<circle clip-path="url(#clip662)" cx="684.58" cy="894.072" r="14" fill="#0000ff" fill-rule="evenodd" fill-opacity="1" stroke="none"/>
<path clip-path="url(#clip660)" d="M 0 0 M753.259 833.46 L758.989 833.46 L758.989 813.686 L752.756 814.936 L752.756 811.742 L758.954 810.492 L762.461 810.492 L762.461 833.46 L768.19 833.46 L768.19 836.412 L753.259 836.412 L753.259 833.46 Z" fill="#000000" fill-rule="evenodd" fill-opacity="1" /><path clip-path="url(#clip660)" d="M 0 0 M756.975 733.692 L769.214 733.692 L769.214 736.644 L752.756 736.644 L752.756 733.692 Q754.752 731.627 758.19 728.154 Q761.645 724.665 762.53 723.658 Q764.214 721.765 764.874 720.463 Q765.551 719.144 765.551 717.877 Q765.551 715.811 764.093 714.509 Q762.652 713.206 760.325 713.206 Q758.676 713.206 756.836 713.779 Q755.013 714.352 752.93 715.516 L752.93 711.974 Q755.048 711.123 756.888 710.689 Q758.728 710.255 760.256 710.255 Q764.284 710.255 766.679 712.269 Q769.075 714.283 769.075 717.651 Q769.075 719.248 768.468 720.689 Q767.877 722.113 766.297 724.057 Q765.863 724.561 763.537 726.974 Q761.211 729.37 756.975 733.692 Z" fill="#000000" fill-rule="evenodd" fill-opacity="1" /><path clip-path="url(#clip660)" d="M 0 0 M628.122 822.436 Q630.639 822.974 632.045 824.676 Q633.469 826.377 633.469 828.877 Q633.469 832.714 630.83 834.815 Q628.191 836.915 623.33 836.915 Q621.698 836.915 619.962 836.585 Q618.243 836.273 616.403 835.631 L616.403 832.245 Q617.861 833.096 619.598 833.53 Q621.334 833.964 623.226 833.964 Q626.525 833.964 628.243 832.662 Q629.979 831.36 629.979 828.877 Q629.979 826.585 628.365 825.301 Q626.768 823.999 623.903 823.999 L620.882 823.999 L620.882 821.117 L624.042 821.117 Q626.629 821.117 628 820.092 Q629.372 819.051 629.372 817.106 Q629.372 815.11 627.948 814.051 Q626.542 812.974 623.903 812.974 Q622.462 812.974 620.813 813.287 Q619.164 813.599 617.184 814.259 L617.184 811.134 Q619.181 810.579 620.917 810.301 Q622.67 810.023 624.216 810.023 Q628.209 810.023 630.535 811.846 Q632.861 813.652 632.861 816.742 Q632.861 818.895 631.629 820.388 Q630.396 821.863 628.122 822.436 Z" fill="#000000" fill-rule="evenodd" fill-opacity="1" /><path clip-path="url(#clip660)" d="M 0 0 M628.104 713.779 L619.25 727.616 L628.104 727.616 L628.104 713.779 M627.184 710.724 L631.594 710.724 L631.594 727.616 L635.292 727.616 L635.292 730.533 L631.594 730.533 L631.594 736.644 L628.104 736.644 L628.104 730.533 L616.403 730.533 L616.403 727.147 L627.184 710.724 Z" fill="#000000" fill-rule="evenodd" fill-opacity="1" /><path clip-path="url(#clip660)" d="M 0 0 M481.144 810.492 L494.911 810.492 L494.911 813.443 L484.356 813.443 L484.356 819.797 Q485.12 819.537 485.884 819.415 Q486.648 819.276 487.411 819.276 Q491.752 819.276 494.286 821.655 Q496.821 824.033 496.821 828.096 Q496.821 832.28 494.217 834.606 Q491.613 836.915 486.873 836.915 Q485.241 836.915 483.54 836.638 Q481.856 836.36 480.05 835.804 L480.05 832.28 Q481.613 833.131 483.28 833.547 Q484.946 833.964 486.804 833.964 Q489.807 833.964 491.561 832.384 Q493.314 830.804 493.314 828.096 Q493.314 825.388 491.561 823.808 Q489.807 822.228 486.804 822.228 Q485.398 822.228 483.991 822.54 Q482.602 822.853 481.144 823.513 L481.144 810.492 Z" fill="#000000" fill-rule="evenodd" fill-opacity="1" /><path clip-path="url(#clip660)" d="M 0 0 M489.304 722.286 Q486.943 722.286 485.554 723.901 Q484.182 725.515 484.182 728.328 Q484.182 731.123 485.554 732.755 Q486.943 734.37 489.304 734.37 Q491.665 734.37 493.036 732.755 Q494.425 731.123 494.425 728.328 Q494.425 725.515 493.036 723.901 Q491.665 722.286 489.304 722.286 M496.266 711.297 L496.266 714.491 Q494.946 713.866 493.592 713.536 Q492.255 713.206 490.936 713.206 Q487.464 713.206 485.623 715.55 Q483.8 717.894 483.54 722.634 Q484.564 721.123 486.109 720.325 Q487.655 719.509 489.512 719.509 Q493.418 719.509 495.675 721.887 Q497.95 724.248 497.95 728.328 Q497.95 732.321 495.589 734.734 Q493.227 737.147 489.304 737.147 Q484.807 737.147 482.429 733.71 Q480.05 730.255 480.05 723.71 Q480.05 717.564 482.967 713.918 Q485.884 710.255 490.797 710.255 Q492.116 710.255 493.453 710.516 Q494.807 710.776 496.266 711.297 Z" fill="#000000" fill-rule="evenodd" fill-opacity="1" /><path clip-path="url(#clip660)" d="M 0 0 M548.73 883.344 L554.459 883.344 L554.459 863.57 L548.227 864.82 L548.227 861.626 L554.425 860.376 L557.932 860.376 L557.932 883.344 L563.661 883.344 L563.661 886.296 L548.73 886.296 L548.73 883.344 Z" fill="#000000" fill-rule="evenodd" fill-opacity="1" /><path clip-path="url(#clip660)" d="M 0 0 M580.379 863.431 L571.525 877.268 L580.379 877.268 L580.379 863.431 M579.459 860.376 L583.869 860.376 L583.869 877.268 L587.567 877.268 L587.567 880.185 L583.869 880.185 L583.869 886.296 L580.379 886.296 L580.379 880.185 L568.678 880.185 L568.678 876.799 L579.459 860.376 Z" fill="#000000" fill-rule="evenodd" fill-opacity="1" /><path clip-path="url(#clip660)" d="M 0 0 M548.73 683.809 L554.459 683.809 L554.459 664.034 L548.227 665.284 L548.227 662.09 L554.425 660.84 L557.932 660.84 L557.932 683.809 L563.661 683.809 L563.661 686.76 L548.73 686.76 L548.73 683.809 Z" fill="#000000" fill-rule="evenodd" fill-opacity="1" /><path clip-path="url(#clip660)" d="M 0 0 M570.848 686.222 L570.848 683.027 Q572.168 683.652 573.522 683.982 Q574.876 684.312 576.178 684.312 Q579.65 684.312 581.473 681.986 Q583.313 679.642 583.574 674.885 Q582.567 676.378 581.022 677.177 Q579.477 677.975 577.602 677.975 Q573.713 677.975 571.438 675.631 Q569.182 673.27 569.182 669.191 Q569.182 665.198 571.543 662.784 Q573.904 660.371 577.827 660.371 Q582.324 660.371 584.685 663.826 Q587.063 667.263 587.063 673.826 Q587.063 679.954 584.147 683.618 Q581.247 687.263 576.334 687.263 Q575.015 687.263 573.661 687.003 Q572.307 686.743 570.848 686.222 M577.827 675.232 Q580.188 675.232 581.56 673.618 Q582.949 672.003 582.949 669.191 Q582.949 666.395 581.56 664.781 Q580.188 663.149 577.827 663.149 Q575.466 663.149 574.077 664.781 Q572.706 666.395 572.706 669.191 Q572.706 672.003 574.077 673.618 Q575.466 675.232 577.827 675.232 Z" fill="#000000" fill-rule="evenodd" fill-opacity="1" /><path clip-path="url(#clip660)" d="M 0 0 M552.445 584.041 L564.685 584.041 L564.685 586.992 L548.227 586.992 L548.227 584.041 Q550.223 581.975 553.661 578.502 Q557.116 575.013 558.001 574.006 Q559.685 572.114 560.345 570.811 Q561.022 569.492 561.022 568.225 Q561.022 566.159 559.564 564.857 Q558.123 563.555 555.796 563.555 Q554.147 563.555 552.307 564.127 Q550.484 564.7 548.4 565.864 L548.4 562.322 Q550.518 561.471 552.359 561.037 Q554.199 560.603 555.727 560.603 Q559.754 560.603 562.15 562.617 Q564.546 564.631 564.546 567.999 Q564.546 569.596 563.938 571.037 Q563.348 572.461 561.768 574.405 Q561.334 574.909 559.008 577.322 Q556.682 579.718 552.445 584.041 Z" fill="#000000" fill-rule="evenodd" fill-opacity="1" /><path clip-path="url(#clip660)" d="M 0 0 M579.546 563.381 Q576.838 563.381 575.466 566.055 Q574.112 568.711 574.112 574.058 Q574.112 579.388 575.466 582.061 Q576.838 584.718 579.546 584.718 Q582.272 584.718 583.626 582.061 Q584.997 579.388 584.997 574.058 Q584.997 568.711 583.626 566.055 Q582.272 563.381 579.546 563.381 M579.546 560.603 Q583.904 560.603 586.195 564.058 Q588.504 567.496 588.504 574.058 Q588.504 580.603 586.195 584.058 Q583.904 587.495 579.546 587.495 Q575.188 587.495 572.879 584.058 Q570.588 580.603 570.588 574.058 Q570.588 567.496 572.879 564.058 Q575.188 560.603 579.546 560.603 Z" fill="#000000" fill-rule="evenodd" fill-opacity="1" /><path clip-path="url(#clip660)" d="M 0 0 M688.798 883.344 L701.038 883.344 L701.038 886.296 L684.58 886.296 L684.58 883.344 Q686.576 881.278 690.014 877.806 Q693.468 874.317 694.354 873.31 Q696.038 871.417 696.698 870.115 Q697.375 868.796 697.375 867.529 Q697.375 865.463 695.916 864.16 Q694.475 862.858 692.149 862.858 Q690.5 862.858 688.659 863.431 Q686.836 864.004 684.753 865.167 L684.753 861.626 Q686.871 860.775 688.711 860.341 Q690.552 859.907 692.079 859.907 Q696.107 859.907 698.503 861.921 Q700.899 863.935 700.899 867.303 Q700.899 868.9 700.291 870.341 Q699.701 871.765 698.121 873.709 Q697.687 874.213 695.361 876.626 Q693.034 879.022 688.798 883.344 Z" fill="#000000" fill-rule="evenodd" fill-opacity="1" /><path clip-path="url(#clip660)" d="M 0 0 M718.034 863.431 L709.18 877.268 L718.034 877.268 L718.034 863.431 M717.114 860.376 L721.524 860.376 L721.524 877.268 L725.222 877.268 L725.222 880.185 L721.524 880.185 L721.524 886.296 L718.034 886.296 L718.034 880.185 L706.333 880.185 L706.333 876.799 L717.114 860.376 Z" fill="#000000" fill-rule="evenodd" fill-opacity="1" /><circle clip-path="url(#clip662)" cx="752.756" cy="245.58" r="14" fill="#0000ff" fill-rule="evenodd" fill-opacity="1" stroke="none"/>
<circle clip-path="url(#clip662)" cx="752.756" cy="145.812" r="14" fill="#0000ff" fill-rule="evenodd" fill-opacity="1" stroke="none"/>
<circle clip-path="url(#clip662)" cx="616.403" cy="245.58" r="14" fill="#0000ff" fill-rule="evenodd" fill-opacity="1" stroke="none"/>
<circle clip-path="url(#clip662)" cx="616.403" cy="145.812" r="14" fill="#0000ff" fill-rule="evenodd" fill-opacity="1" stroke="none"/>
<circle clip-path="url(#clip662)" cx="480.05" cy="245.58" r="14" fill="#0000ff" fill-rule="evenodd" fill-opacity="1" stroke="none"/>
<circle clip-path="url(#clip662)" cx="480.05" cy="145.812" r="14" fill="#0000ff" fill-rule="evenodd" fill-opacity="1" stroke="none"/>
<circle clip-path="url(#clip662)" cx="752.756" cy="544.884" r="14" fill="#0000ff" fill-rule="evenodd" fill-opacity="1" stroke="none"/>
<circle clip-path="url(#clip662)" cx="752.756" cy="445.116" r="14" fill="#0000ff" fill-rule="evenodd" fill-opacity="1" stroke="none"/>
<circle clip-path="url(#clip662)" cx="616.403" cy="544.884" r="14" fill="#0000ff" fill-rule="evenodd" fill-opacity="1" stroke="none"/>
<circle clip-path="url(#clip662)" cx="616.403" cy="445.116" r="14" fill="#0000ff" fill-rule="evenodd" fill-opacity="1" stroke="none"/>
<circle clip-path="url(#clip662)" cx="480.05" cy="544.884" r="14" fill="#0000ff" fill-rule="evenodd" fill-opacity="1" stroke="none"/>
<circle clip-path="url(#clip662)" cx="480.05" cy="445.116" r="14" fill="#0000ff" fill-rule="evenodd" fill-opacity="1" stroke="none"/>
<circle clip-path="url(#clip662)" cx="548.227" cy="395.232" r="14" fill="#0000ff" fill-rule="evenodd" fill-opacity="1" stroke="none"/>
<circle clip-path="url(#clip662)" cx="548.227" cy="295.464" r="14" fill="#0000ff" fill-rule="evenodd" fill-opacity="1" stroke="none"/>
<circle clip-path="url(#clip662)" cx="684.58" cy="694.536" r="14" fill="#0000ff" fill-rule="evenodd" fill-opacity="1" stroke="none"/>
<circle clip-path="url(#clip662)" cx="684.58" cy="594.768" r="14" fill="#0000ff" fill-rule="evenodd" fill-opacity="1" stroke="none"/>
<circle clip-path="url(#clip662)" cx="548.227" cy="95.9282" r="14" fill="#0000ff" fill-rule="evenodd" fill-opacity="1" stroke="none"/>
<circle clip-path="url(#clip662)" cx="684.58" cy="395.232" r="14" fill="#0000ff" fill-rule="evenodd" fill-opacity="1" stroke="none"/>
<circle clip-path="url(#clip662)" cx="684.58" cy="295.464" r="14" fill="#0000ff" fill-rule="evenodd" fill-opacity="1" stroke="none"/>
<path clip-path="url(#clip660)" d="M 0 0 M753.259 234.853 L758.989 234.853 L758.989 215.079 L752.756 216.329 L752.756 213.134 L758.954 211.884 L762.461 211.884 L762.461 234.853 L768.19 234.853 L768.19 237.804 L753.259 237.804 L753.259 234.853 Z" fill="#000000" fill-rule="evenodd" fill-opacity="1" /><path clip-path="url(#clip660)" d="M 0 0 M756.975 135.085 L769.214 135.085 L769.214 138.036 L752.756 138.036 L752.756 135.085 Q754.752 133.019 758.19 129.547 Q761.645 126.057 762.53 125.05 Q764.214 123.158 764.874 121.856 Q765.551 120.536 765.551 119.269 Q765.551 117.203 764.093 115.901 Q762.652 114.599 760.325 114.599 Q758.676 114.599 756.836 115.172 Q755.013 115.745 752.93 116.908 L752.93 113.366 Q755.048 112.515 756.888 112.081 Q758.728 111.647 760.256 111.647 Q764.284 111.647 766.679 113.661 Q769.075 115.675 769.075 119.043 Q769.075 120.64 768.468 122.081 Q767.877 123.505 766.297 125.449 Q765.863 125.953 763.537 128.366 Q761.211 130.762 756.975 135.085 Z" fill="#000000" fill-rule="evenodd" fill-opacity="1" /><path clip-path="url(#clip660)" d="M 0 0 M628.122 223.829 Q630.639 224.367 632.045 226.068 Q633.469 227.769 633.469 230.269 Q633.469 234.106 630.83 236.207 Q628.191 238.308 623.33 238.308 Q621.698 238.308 619.962 237.978 Q618.243 237.665 616.403 237.023 L616.403 233.637 Q617.861 234.488 619.598 234.922 Q621.334 235.356 623.226 235.356 Q626.525 235.356 628.243 234.054 Q629.979 232.752 629.979 230.269 Q629.979 227.978 628.365 226.693 Q626.768 225.391 623.903 225.391 L620.882 225.391 L620.882 222.509 L624.042 222.509 Q626.629 222.509 628 221.485 Q629.372 220.443 629.372 218.499 Q629.372 216.502 627.948 215.443 Q626.542 214.367 623.903 214.367 Q622.462 214.367 620.813 214.679 Q619.164 214.992 617.184 215.651 L617.184 212.526 Q619.181 211.971 620.917 211.693 Q622.67 211.415 624.216 211.415 Q628.209 211.415 630.535 213.238 Q632.861 215.044 632.861 218.134 Q632.861 220.287 631.629 221.78 Q630.396 223.256 628.122 223.829 Z" fill="#000000" fill-rule="evenodd" fill-opacity="1" /><path clip-path="url(#clip660)" d="M 0 0 M628.104 115.172 L619.25 129.008 L628.104 129.008 L628.104 115.172 M627.184 112.116 L631.594 112.116 L631.594 129.008 L635.292 129.008 L635.292 131.925 L631.594 131.925 L631.594 138.036 L628.104 138.036 L628.104 131.925 L616.403 131.925 L616.403 128.54 L627.184 112.116 Z" fill="#000000" fill-rule="evenodd" fill-opacity="1" /><path clip-path="url(#clip660)" d="M 0 0 M481.144 211.884 L494.911 211.884 L494.911 214.836 L484.356 214.836 L484.356 221.19 Q485.12 220.929 485.884 220.808 Q486.648 220.669 487.411 220.669 Q491.752 220.669 494.286 223.047 Q496.821 225.426 496.821 229.488 Q496.821 233.672 494.217 235.999 Q491.613 238.308 486.873 238.308 Q485.241 238.308 483.54 238.03 Q481.856 237.752 480.05 237.197 L480.05 233.672 Q481.613 234.523 483.28 234.94 Q484.946 235.356 486.804 235.356 Q489.807 235.356 491.561 233.776 Q493.314 232.197 493.314 229.488 Q493.314 226.78 491.561 225.2 Q489.807 223.62 486.804 223.62 Q485.398 223.62 483.991 223.933 Q482.602 224.245 481.144 224.905 L481.144 211.884 Z" fill="#000000" fill-rule="evenodd" fill-opacity="1" /><path clip-path="url(#clip660)" d="M 0 0 M489.304 123.679 Q486.943 123.679 485.554 125.293 Q484.182 126.908 484.182 129.72 Q484.182 132.515 485.554 134.147 Q486.943 135.762 489.304 135.762 Q491.665 135.762 493.036 134.147 Q494.425 132.515 494.425 129.72 Q494.425 126.908 493.036 125.293 Q491.665 123.679 489.304 123.679 M496.266 112.689 L496.266 115.884 Q494.946 115.259 493.592 114.929 Q492.255 114.599 490.936 114.599 Q487.464 114.599 485.623 116.943 Q483.8 119.286 483.54 124.026 Q484.564 122.515 486.109 121.717 Q487.655 120.901 489.512 120.901 Q493.418 120.901 495.675 123.279 Q497.95 125.64 497.95 129.72 Q497.95 133.713 495.589 136.126 Q493.227 138.54 489.304 138.54 Q484.807 138.54 482.429 135.102 Q480.05 131.647 480.05 125.102 Q480.05 118.956 482.967 115.311 Q485.884 111.647 490.797 111.647 Q492.116 111.647 493.453 111.908 Q494.807 112.168 496.266 112.689 Z" fill="#000000" fill-rule="evenodd" fill-opacity="1" /><path clip-path="url(#clip660)" d="M 0 0 M752.756 511.188 L769.422 511.188 L769.422 512.681 L760.013 537.108 L756.35 537.108 L765.204 514.139 L752.756 514.139 L752.756 511.188 Z" fill="#000000" fill-rule="evenodd" fill-opacity="1" /><path clip-path="url(#clip660)" d="M 0 0 M761.645 425.031 Q759.145 425.031 757.704 426.368 Q756.28 427.705 756.28 430.048 Q756.28 432.392 757.704 433.729 Q759.145 435.066 761.645 435.066 Q764.145 435.066 765.586 433.729 Q767.027 432.375 767.027 430.048 Q767.027 427.705 765.586 426.368 Q764.162 425.031 761.645 425.031 M758.138 423.538 Q755.881 422.982 754.614 421.437 Q753.364 419.892 753.364 417.67 Q753.364 414.562 755.568 412.757 Q757.791 410.951 761.645 410.951 Q765.516 410.951 767.721 412.757 Q769.926 414.562 769.926 417.67 Q769.926 419.892 768.659 421.437 Q767.409 422.982 765.169 423.538 Q767.704 424.128 769.11 425.847 Q770.534 427.566 770.534 430.048 Q770.534 433.816 768.225 435.83 Q765.933 437.843 761.645 437.843 Q757.357 437.843 755.048 435.83 Q752.756 433.816 752.756 430.048 Q752.756 427.566 754.18 425.847 Q755.603 424.128 758.138 423.538 M756.853 418 Q756.853 420.014 758.103 421.142 Q759.37 422.271 761.645 422.271 Q763.902 422.271 765.169 421.142 Q766.454 420.014 766.454 418 Q766.454 415.986 765.169 414.858 Q763.902 413.729 761.645 413.729 Q759.37 413.729 758.103 414.858 Q756.853 415.986 756.853 418 Z" fill="#000000" fill-rule="evenodd" fill-opacity="1" /><path clip-path="url(#clip660)" d="M 0 0 M618.07 536.57 L618.07 533.375 Q619.389 534 620.743 534.33 Q622.098 534.66 623.4 534.66 Q626.872 534.66 628.695 532.334 Q630.535 529.99 630.795 525.233 Q629.788 526.726 628.243 527.525 Q626.698 528.323 624.823 528.323 Q620.934 528.323 618.66 525.98 Q616.403 523.618 616.403 519.539 Q616.403 515.546 618.764 513.132 Q621.125 510.719 625.049 510.719 Q629.545 510.719 631.907 514.174 Q634.285 517.612 634.285 524.174 Q634.285 530.302 631.368 533.966 Q628.469 537.611 623.556 537.611 Q622.236 537.611 620.882 537.351 Q619.528 537.091 618.07 536.57 M625.049 525.58 Q627.41 525.58 628.782 523.966 Q630.17 522.351 630.17 519.539 Q630.17 516.743 628.782 515.129 Q627.41 513.497 625.049 513.497 Q622.688 513.497 621.299 515.129 Q619.927 516.743 619.927 519.539 Q619.927 522.351 621.299 523.966 Q622.688 525.58 625.049 525.58 Z" fill="#000000" fill-rule="evenodd" fill-opacity="1" /><path clip-path="url(#clip660)" d="M 0 0 M616.907 434.389 L622.636 434.389 L622.636 414.614 L616.403 415.864 L616.403 412.67 L622.601 411.42 L626.108 411.42 L626.108 434.389 L631.837 434.389 L631.837 437.34 L616.907 437.34 L616.907 434.389 Z" fill="#000000" fill-rule="evenodd" fill-opacity="1" /><path clip-path="url(#clip660)" d="M 0 0 M646.42 413.729 Q643.712 413.729 642.341 416.403 Q640.986 419.059 640.986 424.406 Q640.986 429.736 642.341 432.409 Q643.712 435.066 646.42 435.066 Q649.146 435.066 650.5 432.409 Q651.872 429.736 651.872 424.406 Q651.872 419.059 650.5 416.403 Q649.146 413.729 646.42 413.729 M646.42 410.951 Q650.778 410.951 653.07 414.406 Q655.379 417.844 655.379 424.406 Q655.379 430.951 653.07 434.406 Q650.778 437.843 646.42 437.843 Q642.063 437.843 639.754 434.406 Q637.462 430.951 637.462 424.406 Q637.462 417.844 639.754 414.406 Q642.063 410.951 646.42 410.951 Z" fill="#000000" fill-rule="evenodd" fill-opacity="1" /><path clip-path="url(#clip660)" d="M 0 0 M480.554 534.157 L486.283 534.157 L486.283 514.382 L480.05 515.632 L480.05 512.438 L486.248 511.188 L489.755 511.188 L489.755 534.157 L495.484 534.157 L495.484 537.108 L480.554 537.108 L480.554 534.157 Z" fill="#000000" fill-rule="evenodd" fill-opacity="1" /><path clip-path="url(#clip660)" d="M 0 0 M503.175 534.157 L508.904 534.157 L508.904 514.382 L502.672 515.632 L502.672 512.438 L508.87 511.188 L512.377 511.188 L512.377 534.157 L518.106 534.157 L518.106 537.108 L503.175 537.108 L503.175 534.157 Z" fill="#000000" fill-rule="evenodd" fill-opacity="1" /><path clip-path="url(#clip660)" d="M 0 0 M480.554 434.389 L486.283 434.389 L486.283 414.614 L480.05 415.864 L480.05 412.67 L486.248 411.42 L489.755 411.42 L489.755 434.389 L495.484 434.389 L495.484 437.34 L480.554 437.34 L480.554 434.389 Z" fill="#000000" fill-rule="evenodd" fill-opacity="1" /><path clip-path="url(#clip660)" d="M 0 0 M505.588 434.389 L517.828 434.389 L517.828 437.34 L501.37 437.34 L501.37 434.389 Q503.366 432.323 506.804 428.85 Q510.259 425.361 511.144 424.354 Q512.828 422.462 513.488 421.16 Q514.165 419.84 514.165 418.573 Q514.165 416.507 512.706 415.205 Q511.266 413.903 508.939 413.903 Q507.29 413.903 505.45 414.476 Q503.627 415.048 501.543 416.212 L501.543 412.67 Q503.661 411.819 505.502 411.385 Q507.342 410.951 508.87 410.951 Q512.897 410.951 515.293 412.965 Q517.689 414.979 517.689 418.347 Q517.689 419.944 517.081 421.385 Q516.491 422.809 514.911 424.753 Q514.477 425.257 512.151 427.67 Q509.825 430.066 505.588 434.389 Z" fill="#000000" fill-rule="evenodd" fill-opacity="1" /><path clip-path="url(#clip660)" d="M 0 0 M548.73 384.505 L554.459 384.505 L554.459 364.73 L548.227 365.98 L548.227 362.786 L554.425 361.536 L557.932 361.536 L557.932 384.505 L563.661 384.505 L563.661 387.456 L548.73 387.456 L548.73 384.505 Z" fill="#000000" fill-rule="evenodd" fill-opacity="1" /><path clip-path="url(#clip660)" d="M 0 0 M581.369 373.48 Q583.886 374.019 585.293 375.72 Q586.716 377.421 586.716 379.921 Q586.716 383.758 584.077 385.859 Q581.438 387.96 576.577 387.96 Q574.945 387.96 573.209 387.63 Q571.491 387.317 569.65 386.675 L569.65 383.289 Q571.109 384.14 572.845 384.574 Q574.581 385.008 576.473 385.008 Q579.772 385.008 581.49 383.706 Q583.227 382.404 583.227 379.921 Q583.227 377.63 581.612 376.345 Q580.015 375.043 577.15 375.043 L574.129 375.043 L574.129 372.161 L577.289 372.161 Q579.876 372.161 581.247 371.137 Q582.619 370.095 582.619 368.151 Q582.619 366.154 581.195 365.095 Q579.789 364.019 577.15 364.019 Q575.709 364.019 574.06 364.331 Q572.411 364.644 570.432 365.303 L570.432 362.178 Q572.428 361.623 574.164 361.345 Q575.918 361.067 577.463 361.067 Q581.456 361.067 583.782 362.89 Q586.109 364.696 586.109 367.786 Q586.109 369.939 584.876 371.432 Q583.643 372.908 581.369 373.48 Z" fill="#000000" fill-rule="evenodd" fill-opacity="1" /><path clip-path="url(#clip660)" d="M 0 0 M548.73 284.737 L554.459 284.737 L554.459 264.963 L548.227 266.213 L548.227 263.018 L554.425 261.768 L557.932 261.768 L557.932 284.737 L563.661 284.737 L563.661 287.688 L548.73 287.688 L548.73 284.737 Z" fill="#000000" fill-rule="evenodd" fill-opacity="1" /><path clip-path="url(#clip660)" d="M 0 0 M580.379 264.824 L571.525 278.66 L580.379 278.66 L580.379 264.824 M579.459 261.768 L583.869 261.768 L583.869 278.66 L587.567 278.66 L587.567 281.577 L583.869 281.577 L583.869 287.688 L580.379 287.688 L580.379 281.577 L568.678 281.577 L568.678 278.192 L579.459 261.768 Z" fill="#000000" fill-rule="evenodd" fill-opacity="1" /><path clip-path="url(#clip660)" d="M 0 0 M685.083 683.809 L690.812 683.809 L690.812 664.034 L684.58 665.284 L684.58 662.09 L690.777 660.84 L694.284 660.84 L694.284 683.809 L700.013 683.809 L700.013 686.76 L685.083 686.76 L685.083 683.809 Z" fill="#000000" fill-rule="evenodd" fill-opacity="1" /><path clip-path="url(#clip660)" d="M 0 0 M706.211 660.84 L722.878 660.84 L722.878 662.333 L713.468 686.76 L709.805 686.76 L718.659 663.791 L706.211 663.791 L706.211 660.84 Z" fill="#000000" fill-rule="evenodd" fill-opacity="1" /><path clip-path="url(#clip660)" d="M 0 0 M685.083 584.041 L690.812 584.041 L690.812 564.266 L684.58 565.516 L684.58 562.322 L690.777 561.072 L694.284 561.072 L694.284 584.041 L700.013 584.041 L700.013 586.992 L685.083 586.992 L685.083 584.041 Z" fill="#000000" fill-rule="evenodd" fill-opacity="1" /><path clip-path="url(#clip660)" d="M 0 0 M714.597 574.683 Q712.097 574.683 710.656 576.02 Q709.232 577.357 709.232 579.7 Q709.232 582.044 710.656 583.381 Q712.097 584.718 714.597 584.718 Q717.097 584.718 718.538 583.381 Q719.979 582.027 719.979 579.7 Q719.979 577.357 718.538 576.02 Q717.114 574.683 714.597 574.683 M711.09 573.19 Q708.833 572.634 707.566 571.089 Q706.316 569.544 706.316 567.322 Q706.316 564.214 708.52 562.409 Q710.743 560.603 714.597 560.603 Q718.468 560.603 720.673 562.409 Q722.878 564.214 722.878 567.322 Q722.878 569.544 721.611 571.089 Q720.361 572.634 718.121 573.19 Q720.656 573.78 722.062 575.499 Q723.486 577.218 723.486 579.7 Q723.486 583.468 721.177 585.482 Q718.885 587.495 714.597 587.495 Q710.309 587.495 708 585.482 Q705.708 583.468 705.708 579.7 Q705.708 577.218 707.131 575.499 Q708.555 573.78 711.09 573.19 M709.805 567.652 Q709.805 569.666 711.055 570.794 Q712.322 571.923 714.597 571.923 Q716.854 571.923 718.121 570.794 Q719.406 569.666 719.406 567.652 Q719.406 565.638 718.121 564.509 Q716.854 563.381 714.597 563.381 Q712.322 563.381 711.055 564.509 Q709.805 565.638 709.805 567.652 Z" fill="#000000" fill-rule="evenodd" fill-opacity="1" /><path clip-path="url(#clip660)" d="M 0 0 M548.73 85.2008 L554.459 85.2008 L554.459 65.4266 L548.227 66.6766 L548.227 63.4822 L554.425 62.2322 L557.932 62.2322 L557.932 85.2008 L563.661 85.2008 L563.661 88.1522 L548.73 88.1522 L548.73 85.2008 Z" fill="#000000" fill-rule="evenodd" fill-opacity="1" /><path clip-path="url(#clip660)" d="M 0 0 M570.848 87.614 L570.848 84.4196 Q572.168 85.0446 573.522 85.3745 Q574.876 85.7043 576.178 85.7043 Q579.65 85.7043 581.473 83.3779 Q583.313 81.0342 583.574 76.2773 Q582.567 77.7703 581.022 78.5689 Q579.477 79.3675 577.602 79.3675 Q573.713 79.3675 571.438 77.0238 Q569.182 74.6627 569.182 70.5829 Q569.182 66.5898 571.543 64.1767 Q573.904 61.7635 577.827 61.7635 Q582.324 61.7635 584.685 65.2183 Q587.063 68.6558 587.063 75.2183 Q587.063 81.3467 584.147 85.0099 Q581.247 88.6557 576.334 88.6557 Q575.015 88.6557 573.661 88.3953 Q572.307 88.1349 570.848 87.614 M577.827 76.6245 Q580.188 76.6245 581.56 75.0099 Q582.949 73.3954 582.949 70.5829 Q582.949 67.7877 581.56 66.1732 Q580.188 64.5412 577.827 64.5412 Q575.466 64.5412 574.077 66.1732 Q572.706 67.7877 572.706 70.5829 Q572.706 73.3954 574.077 75.0099 Q575.466 76.6245 577.827 76.6245 Z" fill="#000000" fill-rule="evenodd" fill-opacity="1" /><path clip-path="url(#clip660)" d="M 0 0 M688.798 384.505 L701.038 384.505 L701.038 387.456 L684.58 387.456 L684.58 384.505 Q686.576 382.439 690.014 378.967 Q693.468 375.477 694.354 374.47 Q696.038 372.578 696.698 371.276 Q697.375 369.956 697.375 368.689 Q697.375 366.623 695.916 365.321 Q694.475 364.019 692.149 364.019 Q690.5 364.019 688.659 364.592 Q686.836 365.165 684.753 366.328 L684.753 362.786 Q686.871 361.935 688.711 361.501 Q690.552 361.067 692.079 361.067 Q696.107 361.067 698.503 363.081 Q700.899 365.095 700.899 368.463 Q700.899 370.06 700.291 371.501 Q699.701 372.925 698.121 374.869 Q697.687 375.373 695.361 377.786 Q693.034 380.182 688.798 384.505 Z" fill="#000000" fill-rule="evenodd" fill-opacity="1" /><path clip-path="url(#clip660)" d="M 0 0 M719.024 373.48 Q721.541 374.019 722.947 375.72 Q724.371 377.421 724.371 379.921 Q724.371 383.758 721.732 385.859 Q719.093 387.96 714.232 387.96 Q712.6 387.96 710.864 387.63 Q709.145 387.317 707.305 386.675 L707.305 383.289 Q708.763 384.14 710.5 384.574 Q712.236 385.008 714.128 385.008 Q717.427 385.008 719.145 383.706 Q720.881 382.404 720.881 379.921 Q720.881 377.63 719.267 376.345 Q717.67 375.043 714.805 375.043 L711.784 375.043 L711.784 372.161 L714.944 372.161 Q717.531 372.161 718.902 371.137 Q720.274 370.095 720.274 368.151 Q720.274 366.154 718.85 365.095 Q717.444 364.019 714.805 364.019 Q713.364 364.019 711.715 364.331 Q710.066 364.644 708.086 365.303 L708.086 362.178 Q710.083 361.623 711.819 361.345 Q713.572 361.067 715.118 361.067 Q719.111 361.067 721.437 362.89 Q723.763 364.696 723.763 367.786 Q723.763 369.939 722.531 371.432 Q721.298 372.908 719.024 373.48 Z" fill="#000000" fill-rule="evenodd" fill-opacity="1" /><path clip-path="url(#clip660)" d="M 0 0 M688.798 284.737 L701.038 284.737 L701.038 287.688 L684.58 287.688 L684.58 284.737 Q686.576 282.671 690.014 279.199 Q693.468 275.709 694.354 274.702 Q696.038 272.81 696.698 271.508 Q697.375 270.188 697.375 268.921 Q697.375 266.855 695.916 265.553 Q694.475 264.251 692.149 264.251 Q690.5 264.251 688.659 264.824 Q686.836 265.397 684.753 266.56 L684.753 263.018 Q686.871 262.167 688.711 261.733 Q690.552 261.299 692.079 261.299 Q696.107 261.299 698.503 263.313 Q700.899 265.327 700.899 268.695 Q700.899 270.292 700.291 271.733 Q699.701 273.157 698.121 275.101 Q697.687 275.605 695.361 278.018 Q693.034 280.414 688.798 284.737 Z" fill="#000000" fill-rule="evenodd" fill-opacity="1" /><path clip-path="url(#clip660)" d="M 0 0 M718.034 264.824 L709.18 278.66 L718.034 278.66 L718.034 264.824 M717.114 261.768 L721.524 261.768 L721.524 278.66 L725.222 278.66 L725.222 281.577 L721.524 281.577 L721.524 287.688 L718.034 287.688 L718.034 281.577 L706.333 281.577 L706.333 278.192 L717.114 261.768 Z" fill="#000000" fill-rule="evenodd" fill-opacity="1" /><circle clip-path="url(#clip662)" cx="684.58" cy="95.9282" r="14" fill="#0000ff" fill-rule="evenodd" fill-opacity="1" stroke="none"/>
<path clip-path="url(#clip660)" d="M 0 0 M685.083 85.2008 L690.812 85.2008 L690.812 65.4266 L684.58 66.6766 L684.58 63.4822 L690.777 62.2322 L694.284 62.2322 L694.284 85.2008 L700.013 85.2008 L700.013 88.1522 L685.083 88.1522 L685.083 85.2008 Z" fill="#000000" fill-rule="evenodd" fill-opacity="1" /><path clip-path="url(#clip660)" d="M 0 0 M706.211 62.2322 L722.878 62.2322 L722.878 63.7253 L713.468 88.1522 L709.805 88.1522 L718.659 65.1836 L706.211 65.1836 L706.211 62.2322 Z" fill="#000000" fill-rule="evenodd" fill-opacity="1" /></svg>
