<?xml version="1.0" encoding="utf-8"?>
<svg xmlns="http://www.w3.org/2000/svg" xmlns:xlink="http://www.w3.org/1999/xlink" width="200" height="250" viewBox="0 0 800 1000">
<defs>
  <clipPath id="clip240">
    <rect x="0" y="0" width="800" height="1000"/>
  </clipPath>
</defs>
<path clip-path="url(#clip240)" d="
M0 1000 L800 1000 L800 0 L0 0  Z
  " fill="#ffffff" fill-rule="evenodd" fill-opacity="1"/>
<defs>
  <clipPath id="clip241">
    <rect x="200" y="100" width="701" height="701"/>
  </clipPath>
</defs>
<path clip-path="url(#clip240)" d="
M70.9921 927.008 L752.756 927.008 L752.756 62.9921 L70.9921 62.9921  Z
  " fill="#ffffff" fill-rule="evenodd" fill-opacity="1"/>
<defs>
  <clipPath id="clip242">
    <rect x="70" y="62" width="683" height="865"/>
  </clipPath>
</defs>
<polyline clip-path="url(#clip240)" style="stroke:#000000; stroke-width:4; stroke-opacity:1; fill:none" points="
  70.9921,927.008 752.756,927.008 
  "/>
<polyline clip-path="url(#clip240)" style="stroke:#000000; stroke-width:4; stroke-opacity:1; fill:none" points="
  139.169,927.008 139.169,916.64 
  "/>
<polyline clip-path="url(#clip240)" style="stroke:#000000; stroke-width:4; stroke-opacity:1; fill:none" points="
  275.521,927.008 275.521,916.64 
  "/>
<polyline clip-path="url(#clip240)" style="stroke:#000000; stroke-width:4; stroke-opacity:1; fill:none" points="
  411.874,927.008 411.874,916.64 
  "/>
<polyline clip-path="url(#clip240)" style="stroke:#000000; stroke-width:4; stroke-opacity:1; fill:none" points="
  548.227,927.008 548.227,916.64 
  "/>
<polyline clip-path="url(#clip240)" style="stroke:#000000; stroke-width:4; stroke-opacity:1; fill:none" points="
  684.58,927.008 684.58,916.64 
  "/>
<path clip-path="url(#clip240)" d="M 0 0 M109.111 959.651 L138.787 959.651 L138.787 963.586 L109.111 963.586 L109.111 959.651 Z" fill="#000000" fill-rule="evenodd" fill-opacity="1" /><path clip-path="url(#clip240)" d="M 0 0 M152.907 972.545 L169.226 972.545 L169.226 976.48 L147.282 976.48 L147.282 972.545 Q149.944 969.79 154.527 965.16 Q159.134 960.508 160.314 959.165 Q162.56 956.642 163.439 954.906 Q164.342 953.147 164.342 951.457 Q164.342 948.702 162.398 946.966 Q160.476 945.23 157.374 945.23 Q155.175 945.23 152.722 945.994 Q150.291 946.758 147.513 948.309 L147.513 943.587 Q150.337 942.452 152.791 941.874 Q155.245 941.295 157.282 941.295 Q162.652 941.295 165.847 943.98 Q169.041 946.665 169.041 951.156 Q169.041 953.286 168.231 955.207 Q167.444 957.105 165.337 959.698 Q164.759 960.369 161.657 963.586 Q158.555 966.781 152.907 972.545 Z" fill="#000000" fill-rule="evenodd" fill-opacity="1" /><path clip-path="url(#clip240)" d="M 0 0 M245.278 959.651 L274.954 959.651 L274.954 963.586 L245.278 963.586 L245.278 959.651 Z" fill="#000000" fill-rule="evenodd" fill-opacity="1" /><path clip-path="url(#clip240)" d="M 0 0 M285.857 972.545 L293.496 972.545 L293.496 946.179 L285.186 947.846 L285.186 943.587 L293.449 941.92 L298.125 941.92 L298.125 972.545 L305.764 972.545 L305.764 976.48 L285.857 976.48 L285.857 972.545 Z" fill="#000000" fill-rule="evenodd" fill-opacity="1" /><path clip-path="url(#clip240)" d="M 0 0 M411.874 944.999 Q408.263 944.999 406.434 948.563 Q404.629 952.105 404.629 959.235 Q404.629 966.341 406.434 969.906 Q408.263 973.447 411.874 973.447 Q415.508 973.447 417.314 969.906 Q419.142 966.341 419.142 959.235 Q419.142 952.105 417.314 948.563 Q415.508 944.999 411.874 944.999 M411.874 941.295 Q417.684 941.295 420.74 945.901 Q423.818 950.485 423.818 959.235 Q423.818 967.961 420.74 972.568 Q417.684 977.151 411.874 977.151 Q406.064 977.151 402.985 972.568 Q399.93 967.961 399.93 959.235 Q399.93 950.485 402.985 945.901 Q406.064 941.295 411.874 941.295 Z" fill="#000000" fill-rule="evenodd" fill-opacity="1" /><path clip-path="url(#clip240)" d="M 0 0 M538.609 972.545 L546.248 972.545 L546.248 946.179 L537.937 947.846 L537.937 943.587 L546.201 941.92 L550.877 941.92 L550.877 972.545 L558.516 972.545 L558.516 976.48 L538.609 976.48 L538.609 972.545 Z" fill="#000000" fill-rule="evenodd" fill-opacity="1" /><path clip-path="url(#clip240)" d="M 0 0 M679.232 972.545 L695.552 972.545 L695.552 976.48 L673.607 976.48 L673.607 972.545 Q676.269 969.79 680.853 965.16 Q685.459 960.508 686.64 959.165 Q688.885 956.642 689.765 954.906 Q690.667 953.147 690.667 951.457 Q690.667 948.702 688.723 946.966 Q686.802 945.23 683.7 945.23 Q681.501 945.23 679.047 945.994 Q676.617 946.758 673.839 948.309 L673.839 943.587 Q676.663 942.452 679.117 941.874 Q681.57 941.295 683.607 941.295 Q688.978 941.295 692.172 943.98 Q695.367 946.665 695.367 951.156 Q695.367 953.286 694.556 955.207 Q693.769 957.105 691.663 959.698 Q691.084 960.369 687.982 963.586 Q684.88 966.781 679.232 972.545 Z" fill="#000000" fill-rule="evenodd" fill-opacity="1" /><polyline clip-path="url(#clip240)" style="stroke:#000000; stroke-width:4; stroke-opacity:1; fill:none" points="
  70.9921,927.008 70.9921,62.9921 
  "/>
<polyline clip-path="url(#clip240)" style="stroke:#000000; stroke-width:4; stroke-opacity:1; fill:none" points="
  70.9921,840.606 79.1733,840.606 
  "/>
<polyline clip-path="url(#clip240)" style="stroke:#000000; stroke-width:4; stroke-opacity:1; fill:none" points="
  70.9921,667.803 79.1733,667.803 
  "/>
<polyline clip-path="url(#clip240)" style="stroke:#000000; stroke-width:4; stroke-opacity:1; fill:none" points="
  70.9921,495 79.1733,495 
  "/>
<polyline clip-path="url(#clip240)" style="stroke:#000000; stroke-width:4; stroke-opacity:1; fill:none" points="
  70.9921,322.197 79.1733,322.197 
  "/>
<polyline clip-path="url(#clip240)" style="stroke:#000000; stroke-width:4; stroke-opacity:1; fill:none" points="
  70.9921,149.394 79.1733,149.394 
  "/>
<path clip-path="url(#clip240)" d="M 0 0 M-4.12329 841.058 L25.5525 841.058 L25.5525 844.993 L-4.12329 844.993 L-4.12329 841.058 Z" fill="#000000" fill-rule="evenodd" fill-opacity="1" /><path clip-path="url(#clip240)" d="M 0 0 M39.6728 853.951 L55.9921 853.951 L55.9921 857.886 L34.0478 857.886 L34.0478 853.951 Q36.7098 851.197 41.2931 846.567 Q45.8996 841.914 47.0801 840.572 Q49.3255 838.048 50.2051 836.312 Q51.1079 834.553 51.1079 832.863 Q51.1079 830.109 49.1635 828.373 Q47.2422 826.636 44.1403 826.636 Q41.9413 826.636 39.4876 827.4 Q37.057 828.164 34.2793 829.715 L34.2793 824.993 Q37.1033 823.859 39.557 823.28 Q42.0107 822.701 44.0477 822.701 Q49.4181 822.701 52.6125 825.386 Q55.8069 828.072 55.8069 832.562 Q55.8069 834.692 54.9968 836.613 Q54.2097 838.511 52.1033 841.104 Q51.5246 841.775 48.4227 844.993 Q45.3209 848.187 39.6728 853.951 Z" fill="#000000" fill-rule="evenodd" fill-opacity="1" /><path clip-path="url(#clip240)" d="M 0 0 M-4.49366 668.255 L25.1821 668.255 L25.1821 672.19 L-4.49366 672.19 L-4.49366 668.255 Z" fill="#000000" fill-rule="evenodd" fill-opacity="1" /><path clip-path="url(#clip240)" d="M 0 0 M36.0848 681.148 L43.7237 681.148 L43.7237 654.782 L35.4135 656.449 L35.4135 652.19 L43.6774 650.523 L48.3533 650.523 L48.3533 681.148 L55.9921 681.148 L55.9921 685.083 L36.0848 685.083 L36.0848 681.148 Z" fill="#000000" fill-rule="evenodd" fill-opacity="1" /><path clip-path="url(#clip240)" d="M 0 0 M44.0477 480.799 Q40.4367 480.799 38.608 484.363 Q36.8024 487.905 36.8024 495.035 Q36.8024 502.141 38.608 505.706 Q40.4367 509.248 44.0477 509.248 Q47.682 509.248 49.4875 505.706 Q51.3162 502.141 51.3162 495.035 Q51.3162 487.905 49.4875 484.363 Q47.682 480.799 44.0477 480.799 M44.0477 477.095 Q49.8579 477.095 52.9134 481.701 Q55.9921 486.285 55.9921 495.035 Q55.9921 503.762 52.9134 508.368 Q49.8579 512.951 44.0477 512.951 Q38.2376 512.951 35.1589 508.368 Q32.1034 503.762 32.1034 495.035 Q32.1034 486.285 35.1589 481.701 Q38.2376 477.095 44.0477 477.095 Z" fill="#000000" fill-rule="evenodd" fill-opacity="1" /><path clip-path="url(#clip240)" d="M 0 0 M36.0848 335.542 L43.7237 335.542 L43.7237 309.176 L35.4135 310.843 L35.4135 306.584 L43.6774 304.917 L48.3533 304.917 L48.3533 335.542 L55.9921 335.542 L55.9921 339.477 L36.0848 339.477 L36.0848 335.542 Z" fill="#000000" fill-rule="evenodd" fill-opacity="1" /><path clip-path="url(#clip240)" d="M 0 0 M39.6728 162.739 L55.9921 162.739 L55.9921 166.674 L34.0478 166.674 L34.0478 162.739 Q36.7098 159.984 41.2931 155.354 Q45.8996 150.702 47.0801 149.359 Q49.3255 146.836 50.2051 145.1 Q51.1079 143.34 51.1079 141.651 Q51.1079 138.896 49.1635 137.16 Q47.2422 135.424 44.1403 135.424 Q41.9413 135.424 39.4876 136.188 Q37.057 136.952 34.2793 138.503 L34.2793 133.78 Q37.1033 132.646 39.557 132.067 Q42.0107 131.489 44.0477 131.489 Q49.4181 131.489 52.6125 134.174 Q55.8069 136.859 55.8069 141.35 Q55.8069 143.479 54.9968 145.401 Q54.2097 147.299 52.1033 149.891 Q51.5246 150.563 48.4227 153.78 Q45.3209 156.975 39.6728 162.739 Z" fill="#000000" fill-rule="evenodd" fill-opacity="1" /><path clip-path="url(#clip240)" d="M 0 0 M352.222 5.45367 L362.036 5.45367 L362.036 8.76384 L356.481 8.76384 L356.481 44.4118 L362.036 44.4118 L362.036 47.722 L352.222 47.722 L352.222 5.45367 Z" fill="#000000" fill-rule="evenodd" fill-opacity="1" /><path clip-path="url(#clip240)" d="M 0 0 M372.522 37.5368 L380.161 37.5368 L380.161 11.1712 L371.851 12.8379 L371.851 8.57866 L380.115 6.912 L384.791 6.912 L384.791 37.5368 L392.43 37.5368 L392.43 41.472 L372.522 41.472 L372.522 37.5368 Z" fill="#000000" fill-rule="evenodd" fill-opacity="1" /><path clip-path="url(#clip240)" d="M 0 0 M402.36 35.5924 L407.244 35.5924 L407.244 39.5739 L403.448 46.9812 L400.462 46.9812 L402.36 39.5739 L402.36 35.5924 Z" fill="#000000" fill-rule="evenodd" fill-opacity="1" /><path clip-path="url(#clip240)" d="M 0 0 M442.013 9.99069 Q438.402 9.99069 436.573 13.5555 Q434.767 17.0971 434.767 24.2267 Q434.767 31.3332 436.573 34.898 Q438.402 38.4396 442.013 38.4396 Q445.647 38.4396 447.453 34.898 Q449.281 31.3332 449.281 24.2267 Q449.281 17.0971 447.453 13.5555 Q445.647 9.99069 442.013 9.99069 M442.013 6.287 Q447.823 6.287 450.878 10.8935 Q453.957 15.4768 453.957 24.2267 Q453.957 32.9535 450.878 37.56 Q447.823 42.1433 442.013 42.1433 Q436.203 42.1433 433.124 37.56 Q430.068 32.9535 430.068 24.2267 Q430.068 15.4768 433.124 10.8935 Q436.203 6.287 442.013 6.287 Z" fill="#000000" fill-rule="evenodd" fill-opacity="1" /><path clip-path="url(#clip240)" d="M 0 0 M471.526 5.45367 L471.526 47.722 L461.712 47.722 L461.712 44.4118 L467.244 44.4118 L467.244 8.76384 L461.712 8.76384 L461.712 5.45367 L471.526 5.45367 Z" fill="#000000" fill-rule="evenodd" fill-opacity="1" /><circle clip-path="url(#clip242)" cx="139.169" cy="894.072" r="14" fill="#0000ff" fill-rule="evenodd" fill-opacity="1" stroke="none"/>
<path clip-path="url(#clip240)" d="M 0 0 M139.672 883.344 L145.401 883.344 L145.401 863.57 L139.169 864.82 L139.169 861.626 L145.366 860.376 L148.873 860.376 L148.873 883.344 L154.602 883.344 L154.602 886.296 L139.672 886.296 L139.672 883.344 Z" fill="#000000" fill-rule="evenodd" fill-opacity="1" /><path clip-path="url(#clip240)" d="M 0 0 M161.72 860.376 L175.488 860.376 L175.488 863.327 L164.932 863.327 L164.932 869.681 Q165.696 869.421 166.46 869.299 Q167.224 869.16 167.988 869.16 Q172.328 869.16 174.863 871.539 Q177.397 873.917 177.397 877.98 Q177.397 882.164 174.793 884.49 Q172.189 886.799 167.45 886.799 Q165.818 886.799 164.116 886.521 Q162.432 886.244 160.627 885.688 L160.627 882.164 Q162.189 883.015 163.856 883.431 Q165.523 883.848 167.38 883.848 Q170.384 883.848 172.137 882.268 Q173.891 880.688 173.891 877.98 Q173.891 875.272 172.137 873.692 Q170.384 872.112 167.38 872.112 Q165.974 872.112 164.568 872.424 Q163.179 872.737 161.72 873.397 L161.72 860.376 Z" fill="#000000" fill-rule="evenodd" fill-opacity="1" /><circle clip-path="url(#clip242)" cx="207.345" cy="744.42" r="14" fill="#0000ff" fill-rule="evenodd" fill-opacity="1" stroke="none"/>
<circle clip-path="url(#clip242)" cx="207.345" cy="844.188" r="14" fill="#0000ff" fill-rule="evenodd" fill-opacity="1" stroke="none"/>
<circle clip-path="url(#clip242)" cx="343.698" cy="744.42" r="14" fill="#0000ff" fill-rule="evenodd" fill-opacity="1" stroke="none"/>
<circle clip-path="url(#clip242)" cx="343.698" cy="844.188" r="14" fill="#0000ff" fill-rule="evenodd" fill-opacity="1" stroke="none"/>
<circle clip-path="url(#clip242)" cx="70.9921" cy="445.116" r="14" fill="#0000ff" fill-rule="evenodd" fill-opacity="1" stroke="none"/>
<circle clip-path="url(#clip242)" cx="70.9921" cy="544.884" r="14" fill="#0000ff" fill-rule="evenodd" fill-opacity="1" stroke="none"/>
<circle clip-path="url(#clip242)" cx="207.345" cy="445.116" r="14" fill="#0000ff" fill-rule="evenodd" fill-opacity="1" stroke="none"/>
<circle clip-path="url(#clip242)" cx="207.345" cy="544.884" r="14" fill="#0000ff" fill-rule="evenodd" fill-opacity="1" stroke="none"/>
<circle clip-path="url(#clip242)" cx="343.698" cy="445.116" r="14" fill="#0000ff" fill-rule="evenodd" fill-opacity="1" stroke="none"/>
<circle clip-path="url(#clip242)" cx="343.698" cy="544.884" r="14" fill="#0000ff" fill-rule="evenodd" fill-opacity="1" stroke="none"/>
<circle clip-path="url(#clip242)" cx="70.9921" cy="744.42" r="14" fill="#0000ff" fill-rule="evenodd" fill-opacity="1" stroke="none"/>
<circle clip-path="url(#clip242)" cx="70.9921" cy="844.188" r="14" fill="#0000ff" fill-rule="evenodd" fill-opacity="1" stroke="none"/>
<circle clip-path="url(#clip242)" cx="411.874" cy="594.768" r="14" fill="#0000ff" fill-rule="evenodd" fill-opacity="1" stroke="none"/>
<circle clip-path="url(#clip242)" cx="411.874" cy="694.536" r="14" fill="#0000ff" fill-rule="evenodd" fill-opacity="1" stroke="none"/>
<circle clip-path="url(#clip242)" cx="139.169" cy="295.464" r="14" fill="#0000ff" fill-rule="evenodd" fill-opacity="1" stroke="none"/>
<circle clip-path="url(#clip242)" cx="139.169" cy="395.232" r="14" fill="#0000ff" fill-rule="evenodd" fill-opacity="1" stroke="none"/>
<circle clip-path="url(#clip242)" cx="275.521" cy="894.072" r="14" fill="#0000ff" fill-rule="evenodd" fill-opacity="1" stroke="none"/>
<circle clip-path="url(#clip242)" cx="411.874" cy="894.072" r="14" fill="#0000ff" fill-rule="evenodd" fill-opacity="1" stroke="none"/>
<circle clip-path="url(#clip242)" cx="139.169" cy="594.768" r="14" fill="#0000ff" fill-rule="evenodd" fill-opacity="1" stroke="none"/>
<circle clip-path="url(#clip242)" cx="139.169" cy="694.536" r="14" fill="#0000ff" fill-rule="evenodd" fill-opacity="1" stroke="none"/>
<circle clip-path="url(#clip242)" cx="275.521" cy="594.768" r="14" fill="#0000ff" fill-rule="evenodd" fill-opacity="1" stroke="none"/>
<circle clip-path="url(#clip242)" cx="275.521" cy="694.536" r="14" fill="#0000ff" fill-rule="evenodd" fill-opacity="1" stroke="none"/>
<path clip-path="url(#clip240)" d="M 0 0 M207.848 733.692 L213.577 733.692 L213.577 713.918 L207.345 715.168 L207.345 711.974 L213.543 710.724 L217.05 710.724 L217.05 733.692 L222.779 733.692 L222.779 736.644 L207.848 736.644 L207.848 733.692 Z" fill="#000000" fill-rule="evenodd" fill-opacity="1" /><path clip-path="url(#clip240)" d="M 0 0 M211.564 833.46 L223.803 833.46 L223.803 836.412 L207.345 836.412 L207.345 833.46 Q209.341 831.394 212.779 827.922 Q216.234 824.433 217.119 823.426 Q218.803 821.533 219.463 820.231 Q220.14 818.912 220.14 817.645 Q220.14 815.579 218.682 814.277 Q217.241 812.974 214.914 812.974 Q213.265 812.974 211.425 813.547 Q209.602 814.12 207.518 815.283 L207.518 811.742 Q209.637 810.891 211.477 810.457 Q213.317 810.023 214.845 810.023 Q218.873 810.023 221.268 812.037 Q223.664 814.051 223.664 817.419 Q223.664 819.016 223.057 820.457 Q222.466 821.881 220.886 823.825 Q220.452 824.329 218.126 826.742 Q215.8 829.138 211.564 833.46 Z" fill="#000000" fill-rule="evenodd" fill-opacity="1" /><path clip-path="url(#clip240)" d="M 0 0 M355.416 722.668 Q357.934 723.206 359.34 724.908 Q360.764 726.609 360.764 729.109 Q360.764 732.946 358.125 735.047 Q355.486 737.147 350.625 737.147 Q348.993 737.147 347.257 736.817 Q345.538 736.505 343.698 735.863 L343.698 732.477 Q345.156 733.328 346.892 733.762 Q348.628 734.196 350.521 734.196 Q353.819 734.196 355.538 732.894 Q357.274 731.592 357.274 729.109 Q357.274 726.818 355.659 725.533 Q354.062 724.231 351.198 724.231 L348.177 724.231 L348.177 721.349 L351.336 721.349 Q353.923 721.349 355.295 720.325 Q356.666 719.283 356.666 717.338 Q356.666 715.342 355.243 714.283 Q353.836 713.206 351.198 713.206 Q349.757 713.206 348.107 713.519 Q346.458 713.831 344.479 714.491 L344.479 711.366 Q346.475 710.811 348.212 710.533 Q349.965 710.255 351.51 710.255 Q355.503 710.255 357.83 712.078 Q360.156 713.884 360.156 716.974 Q360.156 719.127 358.923 720.62 Q357.691 722.095 355.416 722.668 Z" fill="#000000" fill-rule="evenodd" fill-opacity="1" /><path clip-path="url(#clip240)" d="M 0 0 M355.399 813.547 L346.545 827.384 L355.399 827.384 L355.399 813.547 M354.479 810.492 L358.889 810.492 L358.889 827.384 L362.586 827.384 L362.586 830.301 L358.889 830.301 L358.889 836.412 L355.399 836.412 L355.399 830.301 L343.698 830.301 L343.698 826.915 L354.479 810.492 Z" fill="#000000" fill-rule="evenodd" fill-opacity="1" /><path clip-path="url(#clip240)" d="M 0 0 M72.0859 411.42 L85.8532 411.42 L85.8532 414.371 L75.2977 414.371 L75.2977 420.726 Q76.0615 420.465 76.8254 420.344 Q77.5893 420.205 78.3532 420.205 Q82.6935 420.205 85.2282 422.583 Q87.7629 424.962 87.7629 429.024 Q87.7629 433.208 85.1587 435.534 Q82.5546 437.843 77.815 437.843 Q76.1831 437.843 74.4817 437.566 Q72.7977 437.288 70.9921 436.732 L70.9921 433.208 Q72.5546 434.059 74.2213 434.475 Q75.8879 434.892 77.7456 434.892 Q80.749 434.892 82.5025 433.312 Q84.2559 431.732 84.2559 429.024 Q84.2559 426.316 82.5025 424.736 Q80.749 423.156 77.7456 423.156 Q76.3393 423.156 74.9331 423.469 Q73.5442 423.781 72.0859 424.441 L72.0859 411.42 Z" fill="#000000" fill-rule="evenodd" fill-opacity="1" /><path clip-path="url(#clip240)" d="M 0 0 M80.2455 522.75 Q77.8845 522.75 76.4956 524.365 Q75.124 525.98 75.124 528.792 Q75.124 531.587 76.4956 533.219 Q77.8845 534.834 80.2455 534.834 Q82.6066 534.834 83.9782 533.219 Q85.367 531.587 85.367 528.792 Q85.367 525.98 83.9782 524.365 Q82.6066 522.75 80.2455 522.75 M87.2073 511.761 L87.2073 514.955 Q85.8879 514.33 84.5337 514 Q83.1969 513.671 81.8775 513.671 Q78.4053 513.671 76.565 516.014 Q74.7421 518.358 74.4817 523.098 Q75.506 521.587 77.0511 520.789 Q78.5963 519.973 80.4539 519.973 Q84.3601 519.973 86.617 522.351 Q88.8913 524.712 88.8913 528.792 Q88.8913 532.785 86.5302 535.198 Q84.1691 537.611 80.2455 537.611 Q75.749 537.611 73.3706 534.174 Q70.9921 530.719 70.9921 524.174 Q70.9921 518.028 73.9088 514.382 Q76.8254 510.719 81.7386 510.719 Q83.058 510.719 84.3948 510.98 Q85.749 511.24 87.2073 511.761 Z" fill="#000000" fill-rule="evenodd" fill-opacity="1" /><path clip-path="url(#clip240)" d="M 0 0 M207.345 411.42 L224.011 411.42 L224.011 412.913 L214.602 437.34 L210.939 437.34 L219.793 414.371 L207.345 414.371 L207.345 411.42 Z" fill="#000000" fill-rule="evenodd" fill-opacity="1" /><path clip-path="url(#clip240)" d="M 0 0 M216.234 524.799 Q213.734 524.799 212.293 526.136 Q210.869 527.473 210.869 529.816 Q210.869 532.16 212.293 533.497 Q213.734 534.834 216.234 534.834 Q218.734 534.834 220.175 533.497 Q221.616 532.143 221.616 529.816 Q221.616 527.473 220.175 526.136 Q218.751 524.799 216.234 524.799 M212.727 523.306 Q210.47 522.75 209.203 521.205 Q207.953 519.66 207.953 517.438 Q207.953 514.33 210.157 512.525 Q212.38 510.719 216.234 510.719 Q220.105 510.719 222.31 512.525 Q224.515 514.33 224.515 517.438 Q224.515 519.66 223.248 521.205 Q221.998 522.75 219.758 523.306 Q222.293 523.896 223.699 525.615 Q225.123 527.334 225.123 529.816 Q225.123 533.584 222.814 535.598 Q220.522 537.611 216.234 537.611 Q211.946 537.611 209.637 535.598 Q207.345 533.584 207.345 529.816 Q207.345 527.334 208.768 525.615 Q210.192 523.896 212.727 523.306 M211.442 517.768 Q211.442 519.782 212.692 520.91 Q213.959 522.039 216.234 522.039 Q218.491 522.039 219.758 520.91 Q221.043 519.782 221.043 517.768 Q221.043 515.754 219.758 514.625 Q218.491 513.497 216.234 513.497 Q213.959 513.497 212.692 514.625 Q211.442 515.754 211.442 517.768 Z" fill="#000000" fill-rule="evenodd" fill-opacity="1" /><path clip-path="url(#clip240)" d="M 0 0 M345.364 436.802 L345.364 433.607 Q346.684 434.232 348.038 434.562 Q349.392 434.892 350.694 434.892 Q354.166 434.892 355.989 432.566 Q357.83 430.222 358.09 425.465 Q357.083 426.958 355.538 427.757 Q353.993 428.555 352.118 428.555 Q348.229 428.555 345.955 426.212 Q343.698 423.851 343.698 419.771 Q343.698 415.778 346.059 413.364 Q348.42 410.951 352.343 410.951 Q356.84 410.951 359.201 414.406 Q361.579 417.844 361.579 424.406 Q361.579 430.535 358.663 434.198 Q355.764 437.843 350.85 437.843 Q349.531 437.843 348.177 437.583 Q346.823 437.323 345.364 436.802 M352.343 425.812 Q354.705 425.812 356.076 424.198 Q357.465 422.583 357.465 419.771 Q357.465 416.976 356.076 415.361 Q354.705 413.729 352.343 413.729 Q349.982 413.729 348.593 415.361 Q347.222 416.976 347.222 419.771 Q347.222 422.583 348.593 424.198 Q349.982 425.812 352.343 425.812 Z" fill="#000000" fill-rule="evenodd" fill-opacity="1" /><path clip-path="url(#clip240)" d="M 0 0 M344.201 534.157 L349.93 534.157 L349.93 514.382 L343.698 515.632 L343.698 512.438 L349.896 511.188 L353.402 511.188 L353.402 534.157 L359.132 534.157 L359.132 537.108 L344.201 537.108 L344.201 534.157 Z" fill="#000000" fill-rule="evenodd" fill-opacity="1" /><path clip-path="url(#clip240)" d="M 0 0 M373.715 513.497 Q371.007 513.497 369.635 516.171 Q368.281 518.827 368.281 524.174 Q368.281 529.504 369.635 532.177 Q371.007 534.834 373.715 534.834 Q376.441 534.834 377.795 532.177 Q379.166 529.504 379.166 524.174 Q379.166 518.827 377.795 516.171 Q376.441 513.497 373.715 513.497 M373.715 510.719 Q378.072 510.719 380.364 514.174 Q382.673 517.612 382.673 524.174 Q382.673 530.719 380.364 534.174 Q378.072 537.611 373.715 537.611 Q369.357 537.611 367.048 534.174 Q364.757 530.719 364.757 524.174 Q364.757 517.612 367.048 514.174 Q369.357 510.719 373.715 510.719 Z" fill="#000000" fill-rule="evenodd" fill-opacity="1" /><path clip-path="url(#clip240)" d="M 0 0 M71.4956 733.692 L77.2247 733.692 L77.2247 713.918 L70.9921 715.168 L70.9921 711.974 L77.19 710.724 L80.6969 710.724 L80.6969 733.692 L86.4261 733.692 L86.4261 736.644 L71.4956 736.644 L71.4956 733.692 Z" fill="#000000" fill-rule="evenodd" fill-opacity="1" /><path clip-path="url(#clip240)" d="M 0 0 M94.117 733.692 L99.8461 733.692 L99.8461 713.918 L93.6135 715.168 L93.6135 711.974 L99.8114 710.724 L103.318 710.724 L103.318 733.692 L109.047 733.692 L109.047 736.644 L94.117 736.644 L94.117 733.692 Z" fill="#000000" fill-rule="evenodd" fill-opacity="1" /><path clip-path="url(#clip240)" d="M 0 0 M71.4956 833.46 L77.2247 833.46 L77.2247 813.686 L70.9921 814.936 L70.9921 811.742 L77.19 810.492 L80.6969 810.492 L80.6969 833.46 L86.4261 833.46 L86.4261 836.412 L71.4956 836.412 L71.4956 833.46 Z" fill="#000000" fill-rule="evenodd" fill-opacity="1" /><path clip-path="url(#clip240)" d="M 0 0 M96.5302 833.46 L108.77 833.46 L108.77 836.412 L92.3115 836.412 L92.3115 833.46 Q94.308 831.394 97.7455 827.922 Q101.2 824.433 102.086 823.426 Q103.77 821.533 104.429 820.231 Q105.107 818.912 105.107 817.645 Q105.107 815.579 103.648 814.277 Q102.207 812.974 99.8809 812.974 Q98.2316 812.974 96.3913 813.547 Q94.5684 814.12 92.4851 815.283 L92.4851 811.742 Q94.6031 810.891 96.4434 810.457 Q98.2836 810.023 99.8114 810.023 Q103.839 810.023 106.235 812.037 Q108.631 814.051 108.631 817.419 Q108.631 819.016 108.023 820.457 Q107.433 821.881 105.853 823.825 Q105.419 824.329 103.093 826.742 Q100.766 829.138 96.5302 833.46 Z" fill="#000000" fill-rule="evenodd" fill-opacity="1" /><path clip-path="url(#clip240)" d="M 0 0 M412.377 584.041 L418.107 584.041 L418.107 564.266 L411.874 565.516 L411.874 562.322 L418.072 561.072 L421.579 561.072 L421.579 584.041 L427.308 584.041 L427.308 586.992 L412.377 586.992 L412.377 584.041 Z" fill="#000000" fill-rule="evenodd" fill-opacity="1" /><path clip-path="url(#clip240)" d="M 0 0 M445.016 573.016 Q447.534 573.555 448.94 575.256 Q450.363 576.957 450.363 579.457 Q450.363 583.294 447.725 585.395 Q445.086 587.495 440.225 587.495 Q438.593 587.495 436.857 587.166 Q435.138 586.853 433.298 586.211 L433.298 582.825 Q434.756 583.676 436.492 584.11 Q438.228 584.544 440.12 584.544 Q443.419 584.544 445.138 583.242 Q446.874 581.94 446.874 579.457 Q446.874 577.166 445.259 575.881 Q443.662 574.579 440.797 574.579 L437.777 574.579 L437.777 571.697 L440.936 571.697 Q443.523 571.697 444.895 570.673 Q446.266 569.631 446.266 567.686 Q446.266 565.69 444.843 564.631 Q443.436 563.555 440.797 563.555 Q439.357 563.555 437.707 563.867 Q436.058 564.18 434.079 564.839 L434.079 561.714 Q436.075 561.159 437.811 560.881 Q439.565 560.603 441.11 560.603 Q445.103 560.603 447.429 562.426 Q449.756 564.232 449.756 567.322 Q449.756 569.475 448.523 570.968 Q447.29 572.443 445.016 573.016 Z" fill="#000000" fill-rule="evenodd" fill-opacity="1" /><path clip-path="url(#clip240)" d="M 0 0 M412.377 683.809 L418.107 683.809 L418.107 664.034 L411.874 665.284 L411.874 662.09 L418.072 660.84 L421.579 660.84 L421.579 683.809 L427.308 683.809 L427.308 686.76 L412.377 686.76 L412.377 683.809 Z" fill="#000000" fill-rule="evenodd" fill-opacity="1" /><path clip-path="url(#clip240)" d="M 0 0 M444.027 663.895 L435.173 677.732 L444.027 677.732 L444.027 663.895 M443.106 660.84 L447.516 660.84 L447.516 677.732 L451.214 677.732 L451.214 680.649 L447.516 680.649 L447.516 686.76 L444.027 686.76 L444.027 680.649 L432.325 680.649 L432.325 677.263 L443.106 660.84 Z" fill="#000000" fill-rule="evenodd" fill-opacity="1" /><path clip-path="url(#clip240)" d="M 0 0 M139.672 284.737 L145.401 284.737 L145.401 264.963 L139.169 266.213 L139.169 263.018 L145.366 261.768 L148.873 261.768 L148.873 284.737 L154.602 284.737 L154.602 287.688 L139.672 287.688 L139.672 284.737 Z" fill="#000000" fill-rule="evenodd" fill-opacity="1" /><path clip-path="url(#clip240)" d="M 0 0 M161.72 261.768 L175.488 261.768 L175.488 264.719 L164.932 264.719 L164.932 271.074 Q165.696 270.813 166.46 270.692 Q167.224 270.553 167.988 270.553 Q172.328 270.553 174.863 272.931 Q177.397 275.31 177.397 279.372 Q177.397 283.556 174.793 285.883 Q172.189 288.192 167.45 288.192 Q165.818 288.192 164.116 287.914 Q162.432 287.636 160.627 287.08 L160.627 283.556 Q162.189 284.407 163.856 284.824 Q165.523 285.24 167.38 285.24 Q170.384 285.24 172.137 283.66 Q173.891 282.081 173.891 279.372 Q173.891 276.664 172.137 275.084 Q170.384 273.504 167.38 273.504 Q165.974 273.504 164.568 273.817 Q163.179 274.129 161.72 274.789 L161.72 261.768 Z" fill="#000000" fill-rule="evenodd" fill-opacity="1" /><path clip-path="url(#clip240)" d="M 0 0 M139.672 384.505 L145.401 384.505 L145.401 364.73 L139.169 365.98 L139.169 362.786 L145.366 361.536 L148.873 361.536 L148.873 384.505 L154.602 384.505 L154.602 387.456 L139.672 387.456 L139.672 384.505 Z" fill="#000000" fill-rule="evenodd" fill-opacity="1" /><path clip-path="url(#clip240)" d="M 0 0 M169.62 373.098 Q167.259 373.098 165.87 374.713 Q164.498 376.328 164.498 379.14 Q164.498 381.935 165.87 383.567 Q167.259 385.182 169.62 385.182 Q171.981 385.182 173.352 383.567 Q174.741 381.935 174.741 379.14 Q174.741 376.328 173.352 374.713 Q171.981 373.098 169.62 373.098 M176.581 362.109 L176.581 365.303 Q175.262 364.678 173.908 364.349 Q172.571 364.019 171.252 364.019 Q167.779 364.019 165.939 366.362 Q164.116 368.706 163.856 373.446 Q164.88 371.935 166.425 371.137 Q167.97 370.321 169.828 370.321 Q173.734 370.321 175.991 372.699 Q178.266 375.06 178.266 379.14 Q178.266 383.133 175.904 385.546 Q173.543 387.96 169.62 387.96 Q165.123 387.96 162.745 384.522 Q160.366 381.067 160.366 374.522 Q160.366 368.376 163.283 364.73 Q166.2 361.067 171.113 361.067 Q172.432 361.067 173.769 361.328 Q175.123 361.588 176.581 362.109 Z" fill="#000000" fill-rule="evenodd" fill-opacity="1" /><path clip-path="url(#clip240)" d="M 0 0 M276.025 883.344 L281.754 883.344 L281.754 863.57 L275.521 864.82 L275.521 861.626 L281.719 860.376 L285.226 860.376 L285.226 883.344 L290.955 883.344 L290.955 886.296 L276.025 886.296 L276.025 883.344 Z" fill="#000000" fill-rule="evenodd" fill-opacity="1" /><path clip-path="url(#clip240)" d="M 0 0 M297.153 860.376 L313.82 860.376 L313.82 861.869 L304.41 886.296 L300.747 886.296 L309.601 863.327 L297.153 863.327 L297.153 860.376 Z" fill="#000000" fill-rule="evenodd" fill-opacity="1" /><path clip-path="url(#clip240)" d="M 0 0 M412.377 883.344 L418.107 883.344 L418.107 863.57 L411.874 864.82 L411.874 861.626 L418.072 860.376 L421.579 860.376 L421.579 883.344 L427.308 883.344 L427.308 886.296 L412.377 886.296 L412.377 883.344 Z" fill="#000000" fill-rule="evenodd" fill-opacity="1" /><path clip-path="url(#clip240)" d="M 0 0 M434.495 885.758 L434.495 882.563 Q435.815 883.188 437.169 883.518 Q438.523 883.848 439.825 883.848 Q443.297 883.848 445.12 881.521 Q446.961 879.178 447.221 874.421 Q446.214 875.914 444.669 876.712 Q443.124 877.511 441.249 877.511 Q437.36 877.511 435.086 875.167 Q432.829 872.806 432.829 868.726 Q432.829 864.733 435.19 862.32 Q437.551 859.907 441.475 859.907 Q445.971 859.907 448.332 863.362 Q450.711 866.799 450.711 873.362 Q450.711 879.49 447.794 883.153 Q444.895 886.799 439.982 886.799 Q438.662 886.799 437.308 886.539 Q435.954 886.278 434.495 885.758 M441.475 874.768 Q443.836 874.768 445.207 873.153 Q446.596 871.539 446.596 868.726 Q446.596 865.931 445.207 864.317 Q443.836 862.685 441.475 862.685 Q439.113 862.685 437.725 864.317 Q436.353 865.931 436.353 868.726 Q436.353 871.539 437.725 873.153 Q439.113 874.768 441.475 874.768 Z" fill="#000000" fill-rule="evenodd" fill-opacity="1" /><path clip-path="url(#clip240)" d="M 0 0 M143.387 584.041 L155.627 584.041 L155.627 586.992 L139.169 586.992 L139.169 584.041 Q141.165 581.975 144.603 578.502 Q148.057 575.013 148.943 574.006 Q150.627 572.114 151.286 570.811 Q151.964 569.492 151.964 568.225 Q151.964 566.159 150.505 564.857 Q149.064 563.555 146.738 563.555 Q145.089 563.555 143.248 564.127 Q141.425 564.7 139.342 565.864 L139.342 562.322 Q141.46 561.471 143.3 561.037 Q145.141 560.603 146.668 560.603 Q150.696 560.603 153.092 562.617 Q155.488 564.631 155.488 567.999 Q155.488 569.596 154.88 571.037 Q154.29 572.461 152.71 574.405 Q152.276 574.909 149.95 577.322 Q147.623 579.718 143.387 584.041 Z" fill="#000000" fill-rule="evenodd" fill-opacity="1" /><path clip-path="url(#clip240)" d="M 0 0 M163.595 584.041 L169.325 584.041 L169.325 564.266 L163.092 565.516 L163.092 562.322 L169.29 561.072 L172.797 561.072 L172.797 584.041 L178.526 584.041 L178.526 586.992 L163.595 586.992 L163.595 584.041 Z" fill="#000000" fill-rule="evenodd" fill-opacity="1" /><path clip-path="url(#clip240)" d="M 0 0 M143.387 683.809 L155.627 683.809 L155.627 686.76 L139.169 686.76 L139.169 683.809 Q141.165 681.743 144.603 678.27 Q148.057 674.781 148.943 673.774 Q150.627 671.881 151.286 670.579 Q151.964 669.26 151.964 667.993 Q151.964 665.927 150.505 664.625 Q149.064 663.323 146.738 663.323 Q145.089 663.323 143.248 663.895 Q141.425 664.468 139.342 665.632 L139.342 662.09 Q141.46 661.239 143.3 660.805 Q145.141 660.371 146.668 660.371 Q150.696 660.371 153.092 662.385 Q155.488 664.399 155.488 667.767 Q155.488 669.364 154.88 670.805 Q154.29 672.229 152.71 674.173 Q152.276 674.677 149.95 677.09 Q147.623 679.486 143.387 683.809 Z" fill="#000000" fill-rule="evenodd" fill-opacity="1" /><path clip-path="url(#clip240)" d="M 0 0 M166.009 683.809 L178.248 683.809 L178.248 686.76 L161.79 686.76 L161.79 683.809 Q163.786 681.743 167.224 678.27 Q170.679 674.781 171.564 673.774 Q173.248 671.881 173.908 670.579 Q174.585 669.26 174.585 667.993 Q174.585 665.927 173.127 664.625 Q171.686 663.323 169.359 663.323 Q167.71 663.323 165.87 663.895 Q164.047 664.468 161.964 665.632 L161.964 662.09 Q164.082 661.239 165.922 660.805 Q167.762 660.371 169.29 660.371 Q173.318 660.371 175.713 662.385 Q178.109 664.399 178.109 667.767 Q178.109 669.364 177.502 670.805 Q176.911 672.229 175.332 674.173 Q174.897 674.677 172.571 677.09 Q170.245 679.486 166.009 683.809 Z" fill="#000000" fill-rule="evenodd" fill-opacity="1" /><path clip-path="url(#clip240)" d="M 0 0 M279.74 584.041 L291.98 584.041 L291.98 586.992 L275.521 586.992 L275.521 584.041 Q277.518 581.975 280.955 578.502 Q284.41 575.013 285.296 574.006 Q286.98 572.114 287.639 570.811 Q288.316 569.492 288.316 568.225 Q288.316 566.159 286.858 564.857 Q285.417 563.555 283.091 563.555 Q281.441 563.555 279.601 564.127 Q277.778 564.7 275.695 565.864 L275.695 562.322 Q277.813 561.471 279.653 561.037 Q281.493 560.603 283.021 560.603 Q287.049 560.603 289.445 562.617 Q291.841 564.631 291.841 567.999 Q291.841 569.596 291.233 571.037 Q290.643 572.461 289.063 574.405 Q288.629 574.909 286.302 577.322 Q283.976 579.718 279.74 584.041 Z" fill="#000000" fill-rule="evenodd" fill-opacity="1" /><path clip-path="url(#clip240)" d="M 0 0 M309.966 573.016 Q312.483 573.555 313.889 575.256 Q315.313 576.957 315.313 579.457 Q315.313 583.294 312.674 585.395 Q310.035 587.495 305.174 587.495 Q303.542 587.495 301.806 587.166 Q300.087 586.853 298.247 586.211 L298.247 582.825 Q299.705 583.676 301.441 584.11 Q303.177 584.544 305.07 584.544 Q308.368 584.544 310.087 583.242 Q311.823 581.94 311.823 579.457 Q311.823 577.166 310.209 575.881 Q308.611 574.579 305.747 574.579 L302.726 574.579 L302.726 571.697 L305.886 571.697 Q308.472 571.697 309.844 570.673 Q311.216 569.631 311.216 567.686 Q311.216 565.69 309.792 564.631 Q308.386 563.555 305.747 563.555 Q304.306 563.555 302.657 563.867 Q301.007 564.18 299.028 564.839 L299.028 561.714 Q301.025 561.159 302.761 560.881 Q304.514 560.603 306.059 560.603 Q310.052 560.603 312.379 562.426 Q314.705 564.232 314.705 567.322 Q314.705 569.475 313.472 570.968 Q312.24 572.443 309.966 573.016 Z" fill="#000000" fill-rule="evenodd" fill-opacity="1" /><path clip-path="url(#clip240)" d="M 0 0 M279.74 683.809 L291.98 683.809 L291.98 686.76 L275.521 686.76 L275.521 683.809 Q277.518 681.743 280.955 678.27 Q284.41 674.781 285.296 673.774 Q286.98 671.881 287.639 670.579 Q288.316 669.26 288.316 667.993 Q288.316 665.927 286.858 664.625 Q285.417 663.323 283.091 663.323 Q281.441 663.323 279.601 663.895 Q277.778 664.468 275.695 665.632 L275.695 662.09 Q277.813 661.239 279.653 660.805 Q281.493 660.371 283.021 660.371 Q287.049 660.371 289.445 662.385 Q291.841 664.399 291.841 667.767 Q291.841 669.364 291.233 670.805 Q290.643 672.229 289.063 674.173 Q288.629 674.677 286.302 677.09 Q283.976 679.486 279.74 683.809 Z" fill="#000000" fill-rule="evenodd" fill-opacity="1" /><path clip-path="url(#clip240)" d="M 0 0 M308.976 663.895 L300.122 677.732 L308.976 677.732 L308.976 663.895 M308.056 660.84 L312.466 660.84 L312.466 677.732 L316.163 677.732 L316.163 680.649 L312.466 680.649 L312.466 686.76 L308.976 686.76 L308.976 680.649 L297.275 680.649 L297.275 677.263 L308.056 660.84 Z" fill="#000000" fill-rule="evenodd" fill-opacity="1" /><circle clip-path="url(#clip242)" cx="207.345" cy="145.812" r="14" fill="#0000ff" fill-rule="evenodd" fill-opacity="1" stroke="none"/>
<circle clip-path="url(#clip242)" cx="207.345" cy="245.58" r="14" fill="#0000ff" fill-rule="evenodd" fill-opacity="1" stroke="none"/>
<circle clip-path="url(#clip242)" cx="343.698" cy="145.812" r="14" fill="#0000ff" fill-rule="evenodd" fill-opacity="1" stroke="none"/>
<circle clip-path="url(#clip242)" cx="343.698" cy="245.58" r="14" fill="#0000ff" fill-rule="evenodd" fill-opacity="1" stroke="none"/>
<circle clip-path="url(#clip242)" cx="70.9921" cy="145.812" r="14" fill="#0000ff" fill-rule="evenodd" fill-opacity="1" stroke="none"/>
<circle clip-path="url(#clip242)" cx="70.9921" cy="245.58" r="14" fill="#0000ff" fill-rule="evenodd" fill-opacity="1" stroke="none"/>
<circle clip-path="url(#clip242)" cx="411.874" cy="95.9282" r="14" fill="#0000ff" fill-rule="evenodd" fill-opacity="1" stroke="none"/>
<circle clip-path="url(#clip242)" cx="275.521" cy="295.464" r="14" fill="#0000ff" fill-rule="evenodd" fill-opacity="1" stroke="none"/>
<circle clip-path="url(#clip242)" cx="275.521" cy="395.232" r="14" fill="#0000ff" fill-rule="evenodd" fill-opacity="1" stroke="none"/>
<circle clip-path="url(#clip242)" cx="411.874" cy="295.464" r="14" fill="#0000ff" fill-rule="evenodd" fill-opacity="1" stroke="none"/>
<circle clip-path="url(#clip242)" cx="411.874" cy="395.232" r="14" fill="#0000ff" fill-rule="evenodd" fill-opacity="1" stroke="none"/>
<circle clip-path="url(#clip242)" cx="139.169" cy="95.9282" r="14" fill="#0000ff" fill-rule="evenodd" fill-opacity="1" stroke="none"/>
<circle clip-path="url(#clip242)" cx="275.521" cy="95.9282" r="14" fill="#0000ff" fill-rule="evenodd" fill-opacity="1" stroke="none"/>
<path clip-path="url(#clip240)" d="M 0 0 M207.848 135.085 L213.577 135.085 L213.577 115.311 L207.345 116.561 L207.345 113.366 L213.543 112.116 L217.05 112.116 L217.05 135.085 L222.779 135.085 L222.779 138.036 L207.848 138.036 L207.848 135.085 Z" fill="#000000" fill-rule="evenodd" fill-opacity="1" /><path clip-path="url(#clip240)" d="M 0 0 M211.564 234.853 L223.803 234.853 L223.803 237.804 L207.345 237.804 L207.345 234.853 Q209.341 232.787 212.779 229.315 Q216.234 225.825 217.119 224.818 Q218.803 222.926 219.463 221.624 Q220.14 220.304 220.14 219.037 Q220.14 216.971 218.682 215.669 Q217.241 214.367 214.914 214.367 Q213.265 214.367 211.425 214.94 Q209.602 215.513 207.518 216.676 L207.518 213.134 Q209.637 212.283 211.477 211.849 Q213.317 211.415 214.845 211.415 Q218.873 211.415 221.268 213.429 Q223.664 215.443 223.664 218.811 Q223.664 220.408 223.057 221.849 Q222.466 223.273 220.886 225.217 Q220.452 225.721 218.126 228.134 Q215.8 230.53 211.564 234.853 Z" fill="#000000" fill-rule="evenodd" fill-opacity="1" /><path clip-path="url(#clip240)" d="M 0 0 M355.416 124.061 Q357.934 124.599 359.34 126.3 Q360.764 128.002 360.764 130.502 Q360.764 134.338 358.125 136.439 Q355.486 138.54 350.625 138.54 Q348.993 138.54 347.257 138.21 Q345.538 137.897 343.698 137.255 L343.698 133.87 Q345.156 134.72 346.892 135.154 Q348.628 135.588 350.521 135.588 Q353.819 135.588 355.538 134.286 Q357.274 132.984 357.274 130.502 Q357.274 128.21 355.659 126.925 Q354.062 125.623 351.198 125.623 L348.177 125.623 L348.177 122.741 L351.336 122.741 Q353.923 122.741 355.295 121.717 Q356.666 120.675 356.666 118.731 Q356.666 116.734 355.243 115.675 Q353.836 114.599 351.198 114.599 Q349.757 114.599 348.107 114.911 Q346.458 115.224 344.479 115.884 L344.479 112.759 Q346.475 112.203 348.212 111.925 Q349.965 111.647 351.51 111.647 Q355.503 111.647 357.83 113.47 Q360.156 115.276 360.156 118.366 Q360.156 120.519 358.923 122.012 Q357.691 123.488 355.416 124.061 Z" fill="#000000" fill-rule="evenodd" fill-opacity="1" /><path clip-path="url(#clip240)" d="M 0 0 M355.399 214.94 L346.545 228.776 L355.399 228.776 L355.399 214.94 M354.479 211.884 L358.889 211.884 L358.889 228.776 L362.586 228.776 L362.586 231.693 L358.889 231.693 L358.889 237.804 L355.399 237.804 L355.399 231.693 L343.698 231.693 L343.698 228.308 L354.479 211.884 Z" fill="#000000" fill-rule="evenodd" fill-opacity="1" /><path clip-path="url(#clip240)" d="M 0 0 M71.4956 135.085 L77.2247 135.085 L77.2247 115.311 L70.9921 116.561 L70.9921 113.366 L77.19 112.116 L80.6969 112.116 L80.6969 135.085 L86.4261 135.085 L86.4261 138.036 L71.4956 138.036 L71.4956 135.085 Z" fill="#000000" fill-rule="evenodd" fill-opacity="1" /><path clip-path="url(#clip240)" d="M 0 0 M94.117 135.085 L99.8461 135.085 L99.8461 115.311 L93.6135 116.561 L93.6135 113.366 L99.8114 112.116 L103.318 112.116 L103.318 135.085 L109.047 135.085 L109.047 138.036 L94.117 138.036 L94.117 135.085 Z" fill="#000000" fill-rule="evenodd" fill-opacity="1" /><path clip-path="url(#clip240)" d="M 0 0 M71.4956 234.853 L77.2247 234.853 L77.2247 215.079 L70.9921 216.329 L70.9921 213.134 L77.19 211.884 L80.6969 211.884 L80.6969 234.853 L86.4261 234.853 L86.4261 237.804 L71.4956 237.804 L71.4956 234.853 Z" fill="#000000" fill-rule="evenodd" fill-opacity="1" /><path clip-path="url(#clip240)" d="M 0 0 M96.5302 234.853 L108.77 234.853 L108.77 237.804 L92.3115 237.804 L92.3115 234.853 Q94.308 232.787 97.7455 229.315 Q101.2 225.825 102.086 224.818 Q103.77 222.926 104.429 221.624 Q105.107 220.304 105.107 219.037 Q105.107 216.971 103.648 215.669 Q102.207 214.367 99.8809 214.367 Q98.2316 214.367 96.3913 214.94 Q94.5684 215.513 92.4851 216.676 L92.4851 213.134 Q94.6031 212.283 96.4434 211.849 Q98.2836 211.415 99.8114 211.415 Q103.839 211.415 106.235 213.429 Q108.631 215.443 108.631 218.811 Q108.631 220.408 108.023 221.849 Q107.433 223.273 105.853 225.217 Q105.419 225.721 103.093 228.134 Q100.766 230.53 96.5302 234.853 Z" fill="#000000" fill-rule="evenodd" fill-opacity="1" /><path clip-path="url(#clip240)" d="M 0 0 M412.377 85.2008 L418.107 85.2008 L418.107 65.4266 L411.874 66.6766 L411.874 63.4822 L418.072 62.2322 L421.579 62.2322 L421.579 85.2008 L427.308 85.2008 L427.308 88.1522 L412.377 88.1522 L412.377 85.2008 Z" fill="#000000" fill-rule="evenodd" fill-opacity="1" /><path clip-path="url(#clip240)" d="M 0 0 M444.027 65.2878 L435.173 79.1245 L444.027 79.1245 L444.027 65.2878 M443.106 62.2322 L447.516 62.2322 L447.516 79.1245 L451.214 79.1245 L451.214 82.0411 L447.516 82.0411 L447.516 88.1522 L444.027 88.1522 L444.027 82.0411 L432.325 82.0411 L432.325 78.6557 L443.106 62.2322 Z" fill="#000000" fill-rule="evenodd" fill-opacity="1" /><path clip-path="url(#clip240)" d="M 0 0 M276.025 284.737 L281.754 284.737 L281.754 264.963 L275.521 266.213 L275.521 263.018 L281.719 261.768 L285.226 261.768 L285.226 284.737 L290.955 284.737 L290.955 287.688 L276.025 287.688 L276.025 284.737 Z" fill="#000000" fill-rule="evenodd" fill-opacity="1" /><path clip-path="url(#clip240)" d="M 0 0 M297.153 261.768 L313.82 261.768 L313.82 263.261 L304.41 287.688 L300.747 287.688 L309.601 264.719 L297.153 264.719 L297.153 261.768 Z" fill="#000000" fill-rule="evenodd" fill-opacity="1" /><path clip-path="url(#clip240)" d="M 0 0 M276.025 384.505 L281.754 384.505 L281.754 364.73 L275.521 365.98 L275.521 362.786 L281.719 361.536 L285.226 361.536 L285.226 384.505 L290.955 384.505 L290.955 387.456 L276.025 387.456 L276.025 384.505 Z" fill="#000000" fill-rule="evenodd" fill-opacity="1" /><path clip-path="url(#clip240)" d="M 0 0 M305.538 375.147 Q303.038 375.147 301.598 376.484 Q300.174 377.821 300.174 380.164 Q300.174 382.508 301.598 383.845 Q303.038 385.182 305.538 385.182 Q308.038 385.182 309.479 383.845 Q310.92 382.491 310.92 380.164 Q310.92 377.821 309.479 376.484 Q308.056 375.147 305.538 375.147 M302.032 373.654 Q299.775 373.098 298.507 371.553 Q297.257 370.008 297.257 367.786 Q297.257 364.678 299.462 362.873 Q301.684 361.067 305.538 361.067 Q309.41 361.067 311.615 362.873 Q313.82 364.678 313.82 367.786 Q313.82 370.008 312.552 371.553 Q311.302 373.098 309.063 373.654 Q311.597 374.244 313.004 375.963 Q314.427 377.682 314.427 380.164 Q314.427 383.932 312.118 385.946 Q309.827 387.96 305.538 387.96 Q301.25 387.96 298.941 385.946 Q296.65 383.932 296.65 380.164 Q296.65 377.682 298.073 375.963 Q299.497 374.244 302.032 373.654 M300.747 368.116 Q300.747 370.13 301.997 371.258 Q303.264 372.387 305.538 372.387 Q307.795 372.387 309.063 371.258 Q310.347 370.13 310.347 368.116 Q310.347 366.102 309.063 364.974 Q307.795 363.845 305.538 363.845 Q303.264 363.845 301.997 364.974 Q300.747 366.102 300.747 368.116 Z" fill="#000000" fill-rule="evenodd" fill-opacity="1" /><path clip-path="url(#clip240)" d="M 0 0 M412.377 284.737 L418.107 284.737 L418.107 264.963 L411.874 266.213 L411.874 263.018 L418.072 261.768 L421.579 261.768 L421.579 284.737 L427.308 284.737 L427.308 287.688 L412.377 287.688 L412.377 284.737 Z" fill="#000000" fill-rule="evenodd" fill-opacity="1" /><path clip-path="url(#clip240)" d="M 0 0 M434.495 287.15 L434.495 283.955 Q435.815 284.58 437.169 284.91 Q438.523 285.24 439.825 285.24 Q443.297 285.24 445.12 282.914 Q446.961 280.57 447.221 275.813 Q446.214 277.306 444.669 278.105 Q443.124 278.903 441.249 278.903 Q437.36 278.903 435.086 276.56 Q432.829 274.199 432.829 270.119 Q432.829 266.126 435.19 263.713 Q437.551 261.299 441.475 261.299 Q445.971 261.299 448.332 264.754 Q450.711 268.192 450.711 274.754 Q450.711 280.883 447.794 284.546 Q444.895 288.192 439.982 288.192 Q438.662 288.192 437.308 287.931 Q435.954 287.671 434.495 287.15 M441.475 276.16 Q443.836 276.16 445.207 274.546 Q446.596 272.931 446.596 270.119 Q446.596 267.324 445.207 265.709 Q443.836 264.077 441.475 264.077 Q439.113 264.077 437.725 265.709 Q436.353 267.324 436.353 270.119 Q436.353 272.931 437.725 274.546 Q439.113 276.16 441.475 276.16 Z" fill="#000000" fill-rule="evenodd" fill-opacity="1" /><path clip-path="url(#clip240)" d="M 0 0 M416.093 384.505 L428.332 384.505 L428.332 387.456 L411.874 387.456 L411.874 384.505 Q413.871 382.439 417.308 378.967 Q420.763 375.477 421.648 374.47 Q423.332 372.578 423.992 371.276 Q424.669 369.956 424.669 368.689 Q424.669 366.623 423.211 365.321 Q421.77 364.019 419.443 364.019 Q417.794 364.019 415.954 364.592 Q414.131 365.165 412.048 366.328 L412.048 362.786 Q414.166 361.935 416.006 361.501 Q417.846 361.067 419.374 361.067 Q423.402 361.067 425.798 363.081 Q428.193 365.095 428.193 368.463 Q428.193 370.06 427.586 371.501 Q426.995 372.925 425.416 374.869 Q424.982 375.373 422.655 377.786 Q420.329 380.182 416.093 384.505 Z" fill="#000000" fill-rule="evenodd" fill-opacity="1" /><path clip-path="url(#clip240)" d="M 0 0 M443.193 363.845 Q440.485 363.845 439.113 366.519 Q437.759 369.175 437.759 374.522 Q437.759 379.852 439.113 382.526 Q440.485 385.182 443.193 385.182 Q445.919 385.182 447.273 382.526 Q448.645 379.852 448.645 374.522 Q448.645 369.175 447.273 366.519 Q445.919 363.845 443.193 363.845 M443.193 361.067 Q447.551 361.067 449.843 364.522 Q452.152 367.96 452.152 374.522 Q452.152 381.067 449.843 384.522 Q447.551 387.96 443.193 387.96 Q438.836 387.96 436.527 384.522 Q434.235 381.067 434.235 374.522 Q434.235 367.96 436.527 364.522 Q438.836 361.067 443.193 361.067 Z" fill="#000000" fill-rule="evenodd" fill-opacity="1" /><path clip-path="url(#clip240)" d="M 0 0 M143.387 85.2008 L155.627 85.2008 L155.627 88.1522 L139.169 88.1522 L139.169 85.2008 Q141.165 83.1349 144.603 79.6627 Q148.057 76.1731 148.943 75.1662 Q150.627 73.2738 151.286 71.9718 Q151.964 70.6523 151.964 69.385 Q151.964 67.319 150.505 66.0169 Q149.064 64.7148 146.738 64.7148 Q145.089 64.7148 143.248 65.2878 Q141.425 65.8607 139.342 67.0239 L139.342 63.4822 Q141.46 62.6315 143.3 62.1975 Q145.141 61.7635 146.668 61.7635 Q150.696 61.7635 153.092 63.7774 Q155.488 65.7912 155.488 69.1593 Q155.488 70.7565 154.88 72.1974 Q154.29 73.621 152.71 75.5655 Q152.276 76.069 149.95 78.4821 Q147.623 80.878 143.387 85.2008 Z" fill="#000000" fill-rule="evenodd" fill-opacity="1" /><path clip-path="url(#clip240)" d="M 0 0 M166.009 85.2008 L178.248 85.2008 L178.248 88.1522 L161.79 88.1522 L161.79 85.2008 Q163.786 83.1349 167.224 79.6627 Q170.679 76.1731 171.564 75.1662 Q173.248 73.2738 173.908 71.9718 Q174.585 70.6523 174.585 69.385 Q174.585 67.319 173.127 66.0169 Q171.686 64.7148 169.359 64.7148 Q167.71 64.7148 165.87 65.2878 Q164.047 65.8607 161.964 67.0239 L161.964 63.4822 Q164.082 62.6315 165.922 62.1975 Q167.762 61.7635 169.29 61.7635 Q173.318 61.7635 175.713 63.7774 Q178.109 65.7912 178.109 69.1593 Q178.109 70.7565 177.502 72.1974 Q176.911 73.621 175.332 75.5655 Q174.897 76.069 172.571 78.4821 Q170.245 80.878 166.009 85.2008 Z" fill="#000000" fill-rule="evenodd" fill-opacity="1" /><path clip-path="url(#clip240)" d="M 0 0 M279.74 85.2008 L291.98 85.2008 L291.98 88.1522 L275.521 88.1522 L275.521 85.2008 Q277.518 83.1349 280.955 79.6627 Q284.41 76.1731 285.296 75.1662 Q286.98 73.2738 287.639 71.9718 Q288.316 70.6523 288.316 69.385 Q288.316 67.319 286.858 66.0169 Q285.417 64.7148 283.091 64.7148 Q281.441 64.7148 279.601 65.2878 Q277.778 65.8607 275.695 67.0239 L275.695 63.4822 Q277.813 62.6315 279.653 62.1975 Q281.493 61.7635 283.021 61.7635 Q287.049 61.7635 289.445 63.7774 Q291.841 65.7912 291.841 69.1593 Q291.841 70.7565 291.233 72.1974 Q290.643 73.621 289.063 75.5655 Q288.629 76.069 286.302 78.4821 Q283.976 80.878 279.74 85.2008 Z" fill="#000000" fill-rule="evenodd" fill-opacity="1" /><path clip-path="url(#clip240)" d="M 0 0 M308.976 65.2878 L300.122 79.1245 L308.976 79.1245 L308.976 65.2878 M308.056 62.2322 L312.466 62.2322 L312.466 79.1245 L316.163 79.1245 L316.163 82.0411 L312.466 82.0411 L312.466 88.1522 L308.976 88.1522 L308.976 82.0411 L297.275 82.0411 L297.275 78.6557 L308.056 62.2322 Z" fill="#000000" fill-rule="evenodd" fill-opacity="1" /><circle clip-path="url(#clip242)" cx="480.05" cy="744.42" r="14" fill="#0000ff" fill-rule="evenodd" fill-opacity="1" stroke="none"/>
<circle clip-path="url(#clip242)" cx="480.05" cy="844.188" r="14" fill="#0000ff" fill-rule="evenodd" fill-opacity="1" stroke="none"/>
<circle clip-path="url(#clip242)" cx="616.403" cy="744.42" r="14" fill="#0000ff" fill-rule="evenodd" fill-opacity="1" stroke="none"/>
<circle clip-path="url(#clip242)" cx="616.403" cy="844.188" r="14" fill="#0000ff" fill-rule="evenodd" fill-opacity="1" stroke="none"/>
<circle clip-path="url(#clip242)" cx="752.756" cy="744.42" r="14" fill="#0000ff" fill-rule="evenodd" fill-opacity="1" stroke="none"/>
<circle clip-path="url(#clip242)" cx="752.756" cy="844.188" r="14" fill="#0000ff" fill-rule="evenodd" fill-opacity="1" stroke="none"/>
<circle clip-path="url(#clip242)" cx="548.227" cy="594.768" r="14" fill="#0000ff" fill-rule="evenodd" fill-opacity="1" stroke="none"/>
<circle clip-path="url(#clip242)" cx="548.227" cy="694.536" r="14" fill="#0000ff" fill-rule="evenodd" fill-opacity="1" stroke="none"/>
<circle clip-path="url(#clip242)" cx="548.227" cy="894.072" r="14" fill="#0000ff" fill-rule="evenodd" fill-opacity="1" stroke="none"/>
<circle clip-path="url(#clip242)" cx="684.58" cy="894.072" r="14" fill="#0000ff" fill-rule="evenodd" fill-opacity="1" stroke="none"/>
<path clip-path="url(#clip240)" d="M 0 0 M481.144 710.724 L494.911 710.724 L494.911 713.675 L484.356 713.675 L484.356 720.029 Q485.12 719.769 485.884 719.647 Q486.648 719.509 487.411 719.509 Q491.752 719.509 494.286 721.887 Q496.821 724.265 496.821 728.328 Q496.821 732.512 494.217 734.838 Q491.613 737.147 486.873 737.147 Q485.241 737.147 483.54 736.87 Q481.856 736.592 480.05 736.036 L480.05 732.512 Q481.613 733.363 483.28 733.779 Q484.946 734.196 486.804 734.196 Q489.807 734.196 491.561 732.616 Q493.314 731.036 493.314 728.328 Q493.314 725.62 491.561 724.04 Q489.807 722.46 486.804 722.46 Q485.398 722.46 483.991 722.772 Q482.602 723.085 481.144 723.745 L481.144 710.724 Z" fill="#000000" fill-rule="evenodd" fill-opacity="1" /><path clip-path="url(#clip240)" d="M 0 0 M489.304 822.054 Q486.943 822.054 485.554 823.669 Q484.182 825.283 484.182 828.096 Q484.182 830.891 485.554 832.523 Q486.943 834.138 489.304 834.138 Q491.665 834.138 493.036 832.523 Q494.425 830.891 494.425 828.096 Q494.425 825.283 493.036 823.669 Q491.665 822.054 489.304 822.054 M496.266 811.065 L496.266 814.259 Q494.946 813.634 493.592 813.304 Q492.255 812.974 490.936 812.974 Q487.464 812.974 485.623 815.318 Q483.8 817.662 483.54 822.401 Q484.564 820.891 486.109 820.092 Q487.655 819.276 489.512 819.276 Q493.418 819.276 495.675 821.655 Q497.95 824.016 497.95 828.096 Q497.95 832.089 495.589 834.502 Q493.227 836.915 489.304 836.915 Q484.807 836.915 482.429 833.478 Q480.05 830.023 480.05 823.478 Q480.05 817.332 482.967 813.686 Q485.884 810.023 490.797 810.023 Q492.116 810.023 493.453 810.283 Q494.807 810.544 496.266 811.065 Z" fill="#000000" fill-rule="evenodd" fill-opacity="1" /><path clip-path="url(#clip240)" d="M 0 0 M616.403 710.724 L633.07 710.724 L633.07 712.217 L623.66 736.644 L619.997 736.644 L628.851 713.675 L616.403 713.675 L616.403 710.724 Z" fill="#000000" fill-rule="evenodd" fill-opacity="1" /><path clip-path="url(#clip240)" d="M 0 0 M625.292 824.103 Q622.792 824.103 621.351 825.44 Q619.927 826.776 619.927 829.12 Q619.927 831.464 621.351 832.801 Q622.792 834.138 625.292 834.138 Q627.792 834.138 629.233 832.801 Q630.674 831.447 630.674 829.12 Q630.674 826.776 629.233 825.44 Q627.809 824.103 625.292 824.103 M621.785 822.61 Q619.528 822.054 618.261 820.509 Q617.011 818.964 617.011 816.742 Q617.011 813.634 619.216 811.829 Q621.438 810.023 625.292 810.023 Q629.163 810.023 631.368 811.829 Q633.573 813.634 633.573 816.742 Q633.573 818.964 632.306 820.509 Q631.056 822.054 628.816 822.61 Q631.351 823.2 632.757 824.919 Q634.181 826.638 634.181 829.12 Q634.181 832.888 631.872 834.901 Q629.58 836.915 625.292 836.915 Q621.004 836.915 618.695 834.901 Q616.403 832.888 616.403 829.12 Q616.403 826.638 617.827 824.919 Q619.25 823.2 621.785 822.61 M620.5 817.072 Q620.5 819.086 621.75 820.214 Q623.018 821.342 625.292 821.342 Q627.549 821.342 628.816 820.214 Q630.101 819.086 630.101 817.072 Q630.101 815.058 628.816 813.929 Q627.549 812.801 625.292 812.801 Q623.018 812.801 621.75 813.929 Q620.5 815.058 620.5 817.072 Z" fill="#000000" fill-rule="evenodd" fill-opacity="1" /><path clip-path="url(#clip240)" d="M 0 0 M754.423 736.106 L754.423 732.911 Q755.742 733.536 757.096 733.866 Q758.45 734.196 759.752 734.196 Q763.225 734.196 765.048 731.87 Q766.888 729.526 767.148 724.769 Q766.141 726.262 764.596 727.061 Q763.051 727.859 761.176 727.859 Q757.287 727.859 755.013 725.515 Q752.756 723.154 752.756 719.075 Q752.756 715.081 755.117 712.668 Q757.478 710.255 761.402 710.255 Q765.898 710.255 768.259 713.71 Q770.638 717.147 770.638 723.71 Q770.638 729.838 767.721 733.502 Q764.822 737.147 759.909 737.147 Q758.589 737.147 757.235 736.887 Q755.881 736.627 754.423 736.106 M761.402 725.116 Q763.763 725.116 765.134 723.502 Q766.523 721.887 766.523 719.075 Q766.523 716.279 765.134 714.665 Q763.763 713.033 761.402 713.033 Q759.041 713.033 757.652 714.665 Q756.28 716.279 756.28 719.075 Q756.28 721.887 757.652 723.502 Q759.041 725.116 761.402 725.116 Z" fill="#000000" fill-rule="evenodd" fill-opacity="1" /><path clip-path="url(#clip240)" d="M 0 0 M753.259 833.46 L758.989 833.46 L758.989 813.686 L752.756 814.936 L752.756 811.742 L758.954 810.492 L762.461 810.492 L762.461 833.46 L768.19 833.46 L768.19 836.412 L753.259 836.412 L753.259 833.46 Z" fill="#000000" fill-rule="evenodd" fill-opacity="1" /><path clip-path="url(#clip240)" d="M 0 0 M782.773 812.801 Q780.065 812.801 778.693 815.474 Q777.339 818.131 777.339 823.478 Q777.339 828.808 778.693 831.481 Q780.065 834.138 782.773 834.138 Q785.499 834.138 786.853 831.481 Q788.224 828.808 788.224 823.478 Q788.224 818.131 786.853 815.474 Q785.499 812.801 782.773 812.801 M782.773 810.023 Q787.131 810.023 789.422 813.478 Q791.731 816.915 791.731 823.478 Q791.731 830.023 789.422 833.478 Q787.131 836.915 782.773 836.915 Q778.415 836.915 776.106 833.478 Q773.815 830.023 773.815 823.478 Q773.815 816.915 776.106 813.478 Q778.415 810.023 782.773 810.023 Z" fill="#000000" fill-rule="evenodd" fill-opacity="1" /><path clip-path="url(#clip240)" d="M 0 0 M548.73 584.041 L554.459 584.041 L554.459 564.266 L548.227 565.516 L548.227 562.322 L554.425 561.072 L557.932 561.072 L557.932 584.041 L563.661 584.041 L563.661 586.992 L548.73 586.992 L548.73 584.041 Z" fill="#000000" fill-rule="evenodd" fill-opacity="1" /><path clip-path="url(#clip240)" d="M 0 0 M570.779 561.072 L584.546 561.072 L584.546 564.023 L573.991 564.023 L573.991 570.377 Q574.754 570.117 575.518 569.996 Q576.282 569.857 577.046 569.857 Q581.386 569.857 583.921 572.235 Q586.456 574.614 586.456 578.676 Q586.456 582.86 583.852 585.186 Q581.247 587.495 576.508 587.495 Q574.876 587.495 573.175 587.218 Q571.491 586.94 569.685 586.384 L569.685 582.86 Q571.247 583.711 572.914 584.127 Q574.581 584.544 576.438 584.544 Q579.442 584.544 581.195 582.964 Q582.949 581.384 582.949 578.676 Q582.949 575.968 581.195 574.388 Q579.442 572.808 576.438 572.808 Q575.032 572.808 573.626 573.12 Q572.237 573.433 570.779 574.093 L570.779 561.072 Z" fill="#000000" fill-rule="evenodd" fill-opacity="1" /><path clip-path="url(#clip240)" d="M 0 0 M548.73 683.809 L554.459 683.809 L554.459 664.034 L548.227 665.284 L548.227 662.09 L554.425 660.84 L557.932 660.84 L557.932 683.809 L563.661 683.809 L563.661 686.76 L548.73 686.76 L548.73 683.809 Z" fill="#000000" fill-rule="evenodd" fill-opacity="1" /><path clip-path="url(#clip240)" d="M 0 0 M578.678 672.402 Q576.317 672.402 574.928 674.017 Q573.556 675.631 573.556 678.444 Q573.556 681.239 574.928 682.871 Q576.317 684.486 578.678 684.486 Q581.039 684.486 582.411 682.871 Q583.799 681.239 583.799 678.444 Q583.799 675.631 582.411 674.017 Q581.039 672.402 578.678 672.402 M585.64 661.413 L585.64 664.607 Q584.32 663.982 582.966 663.652 Q581.629 663.323 580.31 663.323 Q576.838 663.323 574.997 665.666 Q573.175 668.01 572.914 672.75 Q573.938 671.239 575.484 670.441 Q577.029 669.625 578.886 669.625 Q582.793 669.625 585.049 672.003 Q587.324 674.364 587.324 678.444 Q587.324 682.437 584.963 684.85 Q582.602 687.263 578.678 687.263 Q574.181 687.263 571.803 683.826 Q569.425 680.371 569.425 673.826 Q569.425 667.68 572.341 664.034 Q575.258 660.371 580.171 660.371 Q581.49 660.371 582.827 660.632 Q584.181 660.892 585.64 661.413 Z" fill="#000000" fill-rule="evenodd" fill-opacity="1" /><path clip-path="url(#clip240)" d="M 0 0 M552.445 883.344 L564.685 883.344 L564.685 886.296 L548.227 886.296 L548.227 883.344 Q550.223 881.278 553.661 877.806 Q557.116 874.317 558.001 873.31 Q559.685 871.417 560.345 870.115 Q561.022 868.796 561.022 867.529 Q561.022 865.463 559.564 864.16 Q558.123 862.858 555.796 862.858 Q554.147 862.858 552.307 863.431 Q550.484 864.004 548.4 865.167 L548.4 861.626 Q550.518 860.775 552.359 860.341 Q554.199 859.907 555.727 859.907 Q559.754 859.907 562.15 861.921 Q564.546 863.935 564.546 867.303 Q564.546 868.9 563.938 870.341 Q563.348 871.765 561.768 873.709 Q561.334 874.213 559.008 876.626 Q556.682 879.022 552.445 883.344 Z" fill="#000000" fill-rule="evenodd" fill-opacity="1" /><path clip-path="url(#clip240)" d="M 0 0 M572.654 883.344 L578.383 883.344 L578.383 863.57 L572.15 864.82 L572.15 861.626 L578.348 860.376 L581.855 860.376 L581.855 883.344 L587.584 883.344 L587.584 886.296 L572.654 886.296 L572.654 883.344 Z" fill="#000000" fill-rule="evenodd" fill-opacity="1" /><path clip-path="url(#clip240)" d="M 0 0 M688.798 883.344 L701.038 883.344 L701.038 886.296 L684.58 886.296 L684.58 883.344 Q686.576 881.278 690.014 877.806 Q693.468 874.317 694.354 873.31 Q696.038 871.417 696.698 870.115 Q697.375 868.796 697.375 867.529 Q697.375 865.463 695.916 864.16 Q694.475 862.858 692.149 862.858 Q690.5 862.858 688.659 863.431 Q686.836 864.004 684.753 865.167 L684.753 861.626 Q686.871 860.775 688.711 860.341 Q690.552 859.907 692.079 859.907 Q696.107 859.907 698.503 861.921 Q700.899 863.935 700.899 867.303 Q700.899 868.9 700.291 870.341 Q699.701 871.765 698.121 873.709 Q697.687 874.213 695.361 876.626 Q693.034 879.022 688.798 883.344 Z" fill="#000000" fill-rule="evenodd" fill-opacity="1" /><path clip-path="url(#clip240)" d="M 0 0 M719.024 872.32 Q721.541 872.858 722.947 874.56 Q724.371 876.261 724.371 878.761 Q724.371 882.598 721.732 884.699 Q719.093 886.799 714.232 886.799 Q712.6 886.799 710.864 886.469 Q709.145 886.157 707.305 885.515 L707.305 882.129 Q708.763 882.98 710.5 883.414 Q712.236 883.848 714.128 883.848 Q717.427 883.848 719.145 882.546 Q720.881 881.244 720.881 878.761 Q720.881 876.469 719.267 875.185 Q717.67 873.883 714.805 873.883 L711.784 873.883 L711.784 871.001 L714.944 871.001 Q717.531 871.001 718.902 869.976 Q720.274 868.935 720.274 866.99 Q720.274 864.994 718.85 863.935 Q717.444 862.858 714.805 862.858 Q713.364 862.858 711.715 863.171 Q710.066 863.483 708.086 864.143 L708.086 861.018 Q710.083 860.463 711.819 860.185 Q713.572 859.907 715.118 859.907 Q719.111 859.907 721.437 861.73 Q723.763 863.535 723.763 866.626 Q723.763 868.779 722.531 870.272 Q721.298 871.747 719.024 872.32 Z" fill="#000000" fill-rule="evenodd" fill-opacity="1" /><circle clip-path="url(#clip242)" cx="616.403" cy="445.116" r="14" fill="#0000ff" fill-rule="evenodd" fill-opacity="1" stroke="none"/>
<circle clip-path="url(#clip242)" cx="616.403" cy="544.884" r="14" fill="#0000ff" fill-rule="evenodd" fill-opacity="1" stroke="none"/>
<circle clip-path="url(#clip242)" cx="752.756" cy="445.116" r="14" fill="#0000ff" fill-rule="evenodd" fill-opacity="1" stroke="none"/>
<circle clip-path="url(#clip242)" cx="752.756" cy="544.884" r="14" fill="#0000ff" fill-rule="evenodd" fill-opacity="1" stroke="none"/>
<circle clip-path="url(#clip242)" cx="480.05" cy="145.812" r="14" fill="#0000ff" fill-rule="evenodd" fill-opacity="1" stroke="none"/>
<circle clip-path="url(#clip242)" cx="480.05" cy="245.58" r="14" fill="#0000ff" fill-rule="evenodd" fill-opacity="1" stroke="none"/>
<circle clip-path="url(#clip242)" cx="616.403" cy="145.812" r="14" fill="#0000ff" fill-rule="evenodd" fill-opacity="1" stroke="none"/>
<circle clip-path="url(#clip242)" cx="616.403" cy="245.58" r="14" fill="#0000ff" fill-rule="evenodd" fill-opacity="1" stroke="none"/>
<circle clip-path="url(#clip242)" cx="752.756" cy="145.812" r="14" fill="#0000ff" fill-rule="evenodd" fill-opacity="1" stroke="none"/>
<circle clip-path="url(#clip242)" cx="752.756" cy="245.58" r="14" fill="#0000ff" fill-rule="evenodd" fill-opacity="1" stroke="none"/>
<circle clip-path="url(#clip242)" cx="480.05" cy="445.116" r="14" fill="#0000ff" fill-rule="evenodd" fill-opacity="1" stroke="none"/>
<circle clip-path="url(#clip242)" cx="480.05" cy="544.884" r="14" fill="#0000ff" fill-rule="evenodd" fill-opacity="1" stroke="none"/>
<circle clip-path="url(#clip242)" cx="548.227" cy="95.9282" r="14" fill="#0000ff" fill-rule="evenodd" fill-opacity="1" stroke="none"/>
<circle clip-path="url(#clip242)" cx="684.58" cy="594.768" r="14" fill="#0000ff" fill-rule="evenodd" fill-opacity="1" stroke="none"/>
<circle clip-path="url(#clip242)" cx="684.58" cy="694.536" r="14" fill="#0000ff" fill-rule="evenodd" fill-opacity="1" stroke="none"/>
<circle clip-path="url(#clip242)" cx="548.227" cy="295.464" r="14" fill="#0000ff" fill-rule="evenodd" fill-opacity="1" stroke="none"/>
<circle clip-path="url(#clip242)" cx="548.227" cy="395.232" r="14" fill="#0000ff" fill-rule="evenodd" fill-opacity="1" stroke="none"/>
<circle clip-path="url(#clip242)" cx="684.58" cy="295.464" r="14" fill="#0000ff" fill-rule="evenodd" fill-opacity="1" stroke="none"/>
<circle clip-path="url(#clip242)" cx="684.58" cy="395.232" r="14" fill="#0000ff" fill-rule="evenodd" fill-opacity="1" stroke="none"/>
<path clip-path="url(#clip240)" d="M 0 0 M616.907 434.389 L622.636 434.389 L622.636 414.614 L616.403 415.864 L616.403 412.67 L622.601 411.42 L626.108 411.42 L626.108 434.389 L631.837 434.389 L631.837 437.34 L616.907 437.34 L616.907 434.389 Z" fill="#000000" fill-rule="evenodd" fill-opacity="1" /><path clip-path="url(#clip240)" d="M 0 0 M620.622 534.157 L632.861 534.157 L632.861 537.108 L616.403 537.108 L616.403 534.157 Q618.4 532.091 621.837 528.618 Q625.292 525.129 626.177 524.122 Q627.861 522.23 628.521 520.928 Q629.198 519.608 629.198 518.341 Q629.198 516.275 627.74 514.973 Q626.299 513.671 623.973 513.671 Q622.323 513.671 620.483 514.244 Q618.66 514.816 616.577 515.98 L616.577 512.438 Q618.695 511.587 620.535 511.153 Q622.375 510.719 623.903 510.719 Q627.931 510.719 630.327 512.733 Q632.723 514.747 632.723 518.115 Q632.723 519.712 632.115 521.153 Q631.525 522.577 629.945 524.521 Q629.511 525.025 627.184 527.438 Q624.858 529.834 620.622 534.157 Z" fill="#000000" fill-rule="evenodd" fill-opacity="1" /><path clip-path="url(#clip240)" d="M 0 0 M764.475 423.364 Q766.992 423.903 768.398 425.604 Q769.822 427.305 769.822 429.805 Q769.822 433.642 767.183 435.743 Q764.544 437.843 759.683 437.843 Q758.051 437.843 756.315 437.514 Q754.596 437.201 752.756 436.559 L752.756 433.173 Q754.214 434.024 755.95 434.458 Q757.686 434.892 759.579 434.892 Q762.877 434.892 764.596 433.59 Q766.332 432.288 766.332 429.805 Q766.332 427.514 764.718 426.229 Q763.12 424.927 760.256 424.927 L757.235 424.927 L757.235 422.045 L760.395 422.045 Q762.982 422.045 764.353 421.021 Q765.725 419.979 765.725 418.035 Q765.725 416.038 764.301 414.979 Q762.895 413.903 760.256 413.903 Q758.815 413.903 757.166 414.215 Q755.516 414.528 753.537 415.187 L753.537 412.062 Q755.534 411.507 757.27 411.229 Q759.023 410.951 760.568 410.951 Q764.561 410.951 766.888 412.774 Q769.214 414.58 769.214 417.67 Q769.214 419.823 767.982 421.316 Q766.749 422.791 764.475 423.364 Z" fill="#000000" fill-rule="evenodd" fill-opacity="1" /><path clip-path="url(#clip240)" d="M 0 0 M764.457 514.244 L755.603 528.08 L764.457 528.08 L764.457 514.244 M763.537 511.188 L767.947 511.188 L767.947 528.08 L771.645 528.08 L771.645 530.997 L767.947 530.997 L767.947 537.108 L764.457 537.108 L764.457 530.997 L752.756 530.997 L752.756 527.611 L763.537 511.188 Z" fill="#000000" fill-rule="evenodd" fill-opacity="1" /><path clip-path="url(#clip240)" d="M 0 0 M481.144 112.116 L494.911 112.116 L494.911 115.068 L484.356 115.068 L484.356 121.422 Q485.12 121.161 485.884 121.04 Q486.648 120.901 487.411 120.901 Q491.752 120.901 494.286 123.279 Q496.821 125.658 496.821 129.72 Q496.821 133.904 494.217 136.231 Q491.613 138.54 486.873 138.54 Q485.241 138.54 483.54 138.262 Q481.856 137.984 480.05 137.429 L480.05 133.904 Q481.613 134.755 483.28 135.172 Q484.946 135.588 486.804 135.588 Q489.807 135.588 491.561 134.008 Q493.314 132.429 493.314 129.72 Q493.314 127.012 491.561 125.432 Q489.807 123.852 486.804 123.852 Q485.398 123.852 483.991 124.165 Q482.602 124.477 481.144 125.137 L481.144 112.116 Z" fill="#000000" fill-rule="evenodd" fill-opacity="1" /><path clip-path="url(#clip240)" d="M 0 0 M489.304 223.447 Q486.943 223.447 485.554 225.061 Q484.182 226.676 484.182 229.488 Q484.182 232.283 485.554 233.915 Q486.943 235.53 489.304 235.53 Q491.665 235.53 493.036 233.915 Q494.425 232.283 494.425 229.488 Q494.425 226.676 493.036 225.061 Q491.665 223.447 489.304 223.447 M496.266 212.457 L496.266 215.651 Q494.946 215.026 493.592 214.697 Q492.255 214.367 490.936 214.367 Q487.464 214.367 485.623 216.711 Q483.8 219.054 483.54 223.794 Q484.564 222.283 486.109 221.485 Q487.655 220.669 489.512 220.669 Q493.418 220.669 495.675 223.047 Q497.95 225.408 497.95 229.488 Q497.95 233.481 495.589 235.894 Q493.227 238.308 489.304 238.308 Q484.807 238.308 482.429 234.87 Q480.05 231.415 480.05 224.87 Q480.05 218.724 482.967 215.079 Q485.884 211.415 490.797 211.415 Q492.116 211.415 493.453 211.676 Q494.807 211.936 496.266 212.457 Z" fill="#000000" fill-rule="evenodd" fill-opacity="1" /><path clip-path="url(#clip240)" d="M 0 0 M616.403 112.116 L633.07 112.116 L633.07 113.609 L623.66 138.036 L619.997 138.036 L628.851 115.068 L616.403 115.068 L616.403 112.116 Z" fill="#000000" fill-rule="evenodd" fill-opacity="1" /><path clip-path="url(#clip240)" d="M 0 0 M625.292 225.495 Q622.792 225.495 621.351 226.832 Q619.927 228.169 619.927 230.513 Q619.927 232.856 621.351 234.193 Q622.792 235.53 625.292 235.53 Q627.792 235.53 629.233 234.193 Q630.674 232.839 630.674 230.513 Q630.674 228.169 629.233 226.832 Q627.809 225.495 625.292 225.495 M621.785 224.002 Q619.528 223.447 618.261 221.901 Q617.011 220.356 617.011 218.134 Q617.011 215.026 619.216 213.221 Q621.438 211.415 625.292 211.415 Q629.163 211.415 631.368 213.221 Q633.573 215.026 633.573 218.134 Q633.573 220.356 632.306 221.901 Q631.056 223.447 628.816 224.002 Q631.351 224.592 632.757 226.311 Q634.181 228.03 634.181 230.513 Q634.181 234.28 631.872 236.294 Q629.58 238.308 625.292 238.308 Q621.004 238.308 618.695 236.294 Q616.403 234.28 616.403 230.513 Q616.403 228.03 617.827 226.311 Q619.25 224.592 621.785 224.002 M620.5 218.464 Q620.5 220.478 621.75 221.606 Q623.018 222.735 625.292 222.735 Q627.549 222.735 628.816 221.606 Q630.101 220.478 630.101 218.464 Q630.101 216.45 628.816 215.322 Q627.549 214.193 625.292 214.193 Q623.018 214.193 621.75 215.322 Q620.5 216.45 620.5 218.464 Z" fill="#000000" fill-rule="evenodd" fill-opacity="1" /><path clip-path="url(#clip240)" d="M 0 0 M754.423 137.498 L754.423 134.304 Q755.742 134.929 757.096 135.258 Q758.45 135.588 759.752 135.588 Q763.225 135.588 765.048 133.262 Q766.888 130.918 767.148 126.161 Q766.141 127.654 764.596 128.453 Q763.051 129.252 761.176 129.252 Q757.287 129.252 755.013 126.908 Q752.756 124.547 752.756 120.467 Q752.756 116.474 755.117 114.061 Q757.478 111.647 761.402 111.647 Q765.898 111.647 768.259 115.102 Q770.638 118.54 770.638 125.102 Q770.638 131.231 767.721 134.894 Q764.822 138.54 759.909 138.54 Q758.589 138.54 757.235 138.279 Q755.881 138.019 754.423 137.498 M761.402 126.508 Q763.763 126.508 765.134 124.894 Q766.523 123.279 766.523 120.467 Q766.523 117.672 765.134 116.057 Q763.763 114.425 761.402 114.425 Q759.041 114.425 757.652 116.057 Q756.28 117.672 756.28 120.467 Q756.28 123.279 757.652 124.894 Q759.041 126.508 761.402 126.508 Z" fill="#000000" fill-rule="evenodd" fill-opacity="1" /><path clip-path="url(#clip240)" d="M 0 0 M753.259 234.853 L758.989 234.853 L758.989 215.079 L752.756 216.329 L752.756 213.134 L758.954 211.884 L762.461 211.884 L762.461 234.853 L768.19 234.853 L768.19 237.804 L753.259 237.804 L753.259 234.853 Z" fill="#000000" fill-rule="evenodd" fill-opacity="1" /><path clip-path="url(#clip240)" d="M 0 0 M782.773 214.193 Q780.065 214.193 778.693 216.867 Q777.339 219.523 777.339 224.87 Q777.339 230.2 778.693 232.874 Q780.065 235.53 782.773 235.53 Q785.499 235.53 786.853 232.874 Q788.224 230.2 788.224 224.87 Q788.224 219.523 786.853 216.867 Q785.499 214.193 782.773 214.193 M782.773 211.415 Q787.131 211.415 789.422 214.87 Q791.731 218.308 791.731 224.87 Q791.731 231.415 789.422 234.87 Q787.131 238.308 782.773 238.308 Q778.415 238.308 776.106 234.87 Q773.815 231.415 773.815 224.87 Q773.815 218.308 776.106 214.87 Q778.415 211.415 782.773 211.415 Z" fill="#000000" fill-rule="evenodd" fill-opacity="1" /><path clip-path="url(#clip240)" d="M 0 0 M480.554 434.389 L486.283 434.389 L486.283 414.614 L480.05 415.864 L480.05 412.67 L486.248 411.42 L489.755 411.42 L489.755 434.389 L495.484 434.389 L495.484 437.34 L480.554 437.34 L480.554 434.389 Z" fill="#000000" fill-rule="evenodd" fill-opacity="1" /><path clip-path="url(#clip240)" d="M 0 0 M503.175 434.389 L508.904 434.389 L508.904 414.614 L502.672 415.864 L502.672 412.67 L508.87 411.42 L512.377 411.42 L512.377 434.389 L518.106 434.389 L518.106 437.34 L503.175 437.34 L503.175 434.389 Z" fill="#000000" fill-rule="evenodd" fill-opacity="1" /><path clip-path="url(#clip240)" d="M 0 0 M480.554 534.157 L486.283 534.157 L486.283 514.382 L480.05 515.632 L480.05 512.438 L486.248 511.188 L489.755 511.188 L489.755 534.157 L495.484 534.157 L495.484 537.108 L480.554 537.108 L480.554 534.157 Z" fill="#000000" fill-rule="evenodd" fill-opacity="1" /><path clip-path="url(#clip240)" d="M 0 0 M505.588 534.157 L517.828 534.157 L517.828 537.108 L501.37 537.108 L501.37 534.157 Q503.366 532.091 506.804 528.618 Q510.259 525.129 511.144 524.122 Q512.828 522.23 513.488 520.928 Q514.165 519.608 514.165 518.341 Q514.165 516.275 512.706 514.973 Q511.266 513.671 508.939 513.671 Q507.29 513.671 505.45 514.244 Q503.627 514.816 501.543 515.98 L501.543 512.438 Q503.661 511.587 505.502 511.153 Q507.342 510.719 508.87 510.719 Q512.897 510.719 515.293 512.733 Q517.689 514.747 517.689 518.115 Q517.689 519.712 517.081 521.153 Q516.491 522.577 514.911 524.521 Q514.477 525.025 512.151 527.438 Q509.825 529.834 505.588 534.157 Z" fill="#000000" fill-rule="evenodd" fill-opacity="1" /><path clip-path="url(#clip240)" d="M 0 0 M548.73 85.2008 L554.459 85.2008 L554.459 65.4266 L548.227 66.6766 L548.227 63.4822 L554.425 62.2322 L557.932 62.2322 L557.932 85.2008 L563.661 85.2008 L563.661 88.1522 L548.73 88.1522 L548.73 85.2008 Z" fill="#000000" fill-rule="evenodd" fill-opacity="1" /><path clip-path="url(#clip240)" d="M 0 0 M578.678 73.7947 Q576.317 73.7947 574.928 75.4092 Q573.556 77.0238 573.556 79.8363 Q573.556 82.6314 574.928 84.2634 Q576.317 85.8779 578.678 85.8779 Q581.039 85.8779 582.411 84.2634 Q583.799 82.6314 583.799 79.8363 Q583.799 77.0238 582.411 75.4092 Q581.039 73.7947 578.678 73.7947 M585.64 62.8051 L585.64 65.9996 Q584.32 65.3746 582.966 65.0447 Q581.629 64.7148 580.31 64.7148 Q576.838 64.7148 574.997 67.0586 Q573.175 69.4023 572.914 74.1419 Q573.938 72.6315 575.484 71.8329 Q577.029 71.0169 578.886 71.0169 Q582.793 71.0169 585.049 73.3954 Q587.324 75.7565 587.324 79.8363 Q587.324 83.8293 584.963 86.2425 Q582.602 88.6557 578.678 88.6557 Q574.181 88.6557 571.803 85.2182 Q569.425 81.7634 569.425 75.2183 Q569.425 69.0725 572.341 65.4266 Q575.258 61.7635 580.171 61.7635 Q581.49 61.7635 582.827 62.0239 Q584.181 62.2843 585.64 62.8051 Z" fill="#000000" fill-rule="evenodd" fill-opacity="1" /><path clip-path="url(#clip240)" d="M 0 0 M685.083 584.041 L690.812 584.041 L690.812 564.266 L684.58 565.516 L684.58 562.322 L690.777 561.072 L694.284 561.072 L694.284 584.041 L700.013 584.041 L700.013 586.992 L685.083 586.992 L685.083 584.041 Z" fill="#000000" fill-rule="evenodd" fill-opacity="1" /><path clip-path="url(#clip240)" d="M 0 0 M706.211 561.072 L722.878 561.072 L722.878 562.565 L713.468 586.992 L709.805 586.992 L718.659 564.023 L706.211 564.023 L706.211 561.072 Z" fill="#000000" fill-rule="evenodd" fill-opacity="1" /><path clip-path="url(#clip240)" d="M 0 0 M685.083 683.809 L690.812 683.809 L690.812 664.034 L684.58 665.284 L684.58 662.09 L690.777 660.84 L694.284 660.84 L694.284 683.809 L700.013 683.809 L700.013 686.76 L685.083 686.76 L685.083 683.809 Z" fill="#000000" fill-rule="evenodd" fill-opacity="1" /><path clip-path="url(#clip240)" d="M 0 0 M714.597 674.451 Q712.097 674.451 710.656 675.788 Q709.232 677.125 709.232 679.468 Q709.232 681.812 710.656 683.149 Q712.097 684.486 714.597 684.486 Q717.097 684.486 718.538 683.149 Q719.979 681.795 719.979 679.468 Q719.979 677.125 718.538 675.788 Q717.114 674.451 714.597 674.451 M711.09 672.958 Q708.833 672.402 707.566 670.857 Q706.316 669.312 706.316 667.09 Q706.316 663.982 708.52 662.177 Q710.743 660.371 714.597 660.371 Q718.468 660.371 720.673 662.177 Q722.878 663.982 722.878 667.09 Q722.878 669.312 721.611 670.857 Q720.361 672.402 718.121 672.958 Q720.656 673.548 722.062 675.267 Q723.486 676.986 723.486 679.468 Q723.486 683.236 721.177 685.249 Q718.885 687.263 714.597 687.263 Q710.309 687.263 708 685.249 Q705.708 683.236 705.708 679.468 Q705.708 676.986 707.131 675.267 Q708.555 673.548 711.09 672.958 M709.805 667.42 Q709.805 669.434 711.055 670.562 Q712.322 671.691 714.597 671.691 Q716.854 671.691 718.121 670.562 Q719.406 669.434 719.406 667.42 Q719.406 665.406 718.121 664.277 Q716.854 663.149 714.597 663.149 Q712.322 663.149 711.055 664.277 Q709.805 665.406 709.805 667.42 Z" fill="#000000" fill-rule="evenodd" fill-opacity="1" /><path clip-path="url(#clip240)" d="M 0 0 M552.445 284.737 L564.685 284.737 L564.685 287.688 L548.227 287.688 L548.227 284.737 Q550.223 282.671 553.661 279.199 Q557.116 275.709 558.001 274.702 Q559.685 272.81 560.345 271.508 Q561.022 270.188 561.022 268.921 Q561.022 266.855 559.564 265.553 Q558.123 264.251 555.796 264.251 Q554.147 264.251 552.307 264.824 Q550.484 265.397 548.4 266.56 L548.4 263.018 Q550.518 262.167 552.359 261.733 Q554.199 261.299 555.727 261.299 Q559.754 261.299 562.15 263.313 Q564.546 265.327 564.546 268.695 Q564.546 270.292 563.938 271.733 Q563.348 273.157 561.768 275.101 Q561.334 275.605 559.008 278.018 Q556.682 280.414 552.445 284.737 Z" fill="#000000" fill-rule="evenodd" fill-opacity="1" /><path clip-path="url(#clip240)" d="M 0 0 M572.654 284.737 L578.383 284.737 L578.383 264.963 L572.15 266.213 L572.15 263.018 L578.348 261.768 L581.855 261.768 L581.855 284.737 L587.584 284.737 L587.584 287.688 L572.654 287.688 L572.654 284.737 Z" fill="#000000" fill-rule="evenodd" fill-opacity="1" /><path clip-path="url(#clip240)" d="M 0 0 M552.445 384.505 L564.685 384.505 L564.685 387.456 L548.227 387.456 L548.227 384.505 Q550.223 382.439 553.661 378.967 Q557.116 375.477 558.001 374.47 Q559.685 372.578 560.345 371.276 Q561.022 369.956 561.022 368.689 Q561.022 366.623 559.564 365.321 Q558.123 364.019 555.796 364.019 Q554.147 364.019 552.307 364.592 Q550.484 365.165 548.4 366.328 L548.4 362.786 Q550.518 361.935 552.359 361.501 Q554.199 361.067 555.727 361.067 Q559.754 361.067 562.15 363.081 Q564.546 365.095 564.546 368.463 Q564.546 370.06 563.938 371.501 Q563.348 372.925 561.768 374.869 Q561.334 375.373 559.008 377.786 Q556.682 380.182 552.445 384.505 Z" fill="#000000" fill-rule="evenodd" fill-opacity="1" /><path clip-path="url(#clip240)" d="M 0 0 M575.067 384.505 L587.306 384.505 L587.306 387.456 L570.848 387.456 L570.848 384.505 Q572.845 382.439 576.282 378.967 Q579.737 375.477 580.622 374.47 Q582.306 372.578 582.966 371.276 Q583.643 369.956 583.643 368.689 Q583.643 366.623 582.185 365.321 Q580.744 364.019 578.418 364.019 Q576.768 364.019 574.928 364.592 Q573.105 365.165 571.022 366.328 L571.022 362.786 Q573.14 361.935 574.98 361.501 Q576.82 361.067 578.348 361.067 Q582.376 361.067 584.772 363.081 Q587.168 365.095 587.168 368.463 Q587.168 370.06 586.56 371.501 Q585.97 372.925 584.39 374.869 Q583.956 375.373 581.629 377.786 Q579.303 380.182 575.067 384.505 Z" fill="#000000" fill-rule="evenodd" fill-opacity="1" /><path clip-path="url(#clip240)" d="M 0 0 M688.798 284.737 L701.038 284.737 L701.038 287.688 L684.58 287.688 L684.58 284.737 Q686.576 282.671 690.014 279.199 Q693.468 275.709 694.354 274.702 Q696.038 272.81 696.698 271.508 Q697.375 270.188 697.375 268.921 Q697.375 266.855 695.916 265.553 Q694.475 264.251 692.149 264.251 Q690.5 264.251 688.659 264.824 Q686.836 265.397 684.753 266.56 L684.753 263.018 Q686.871 262.167 688.711 261.733 Q690.552 261.299 692.079 261.299 Q696.107 261.299 698.503 263.313 Q700.899 265.327 700.899 268.695 Q700.899 270.292 700.291 271.733 Q699.701 273.157 698.121 275.101 Q697.687 275.605 695.361 278.018 Q693.034 280.414 688.798 284.737 Z" fill="#000000" fill-rule="evenodd" fill-opacity="1" /><path clip-path="url(#clip240)" d="M 0 0 M719.024 273.712 Q721.541 274.251 722.947 275.952 Q724.371 277.653 724.371 280.153 Q724.371 283.99 721.732 286.091 Q719.093 288.192 714.232 288.192 Q712.6 288.192 710.864 287.862 Q709.145 287.549 707.305 286.907 L707.305 283.521 Q708.763 284.372 710.5 284.806 Q712.236 285.24 714.128 285.24 Q717.427 285.24 719.145 283.938 Q720.881 282.636 720.881 280.153 Q720.881 277.862 719.267 276.577 Q717.67 275.275 714.805 275.275 L711.784 275.275 L711.784 272.393 L714.944 272.393 Q717.531 272.393 718.902 271.369 Q720.274 270.327 720.274 268.383 Q720.274 266.386 718.85 265.327 Q717.444 264.251 714.805 264.251 Q713.364 264.251 711.715 264.563 Q710.066 264.876 708.086 265.535 L708.086 262.41 Q710.083 261.855 711.819 261.577 Q713.572 261.299 715.118 261.299 Q719.111 261.299 721.437 263.122 Q723.763 264.928 723.763 268.018 Q723.763 270.171 722.531 271.664 Q721.298 273.14 719.024 273.712 Z" fill="#000000" fill-rule="evenodd" fill-opacity="1" /><path clip-path="url(#clip240)" d="M 0 0 M688.798 384.505 L701.038 384.505 L701.038 387.456 L684.58 387.456 L684.58 384.505 Q686.576 382.439 690.014 378.967 Q693.468 375.477 694.354 374.47 Q696.038 372.578 696.698 371.276 Q697.375 369.956 697.375 368.689 Q697.375 366.623 695.916 365.321 Q694.475 364.019 692.149 364.019 Q690.5 364.019 688.659 364.592 Q686.836 365.165 684.753 366.328 L684.753 362.786 Q686.871 361.935 688.711 361.501 Q690.552 361.067 692.079 361.067 Q696.107 361.067 698.503 363.081 Q700.899 365.095 700.899 368.463 Q700.899 370.06 700.291 371.501 Q699.701 372.925 698.121 374.869 Q697.687 375.373 695.361 377.786 Q693.034 380.182 688.798 384.505 Z" fill="#000000" fill-rule="evenodd" fill-opacity="1" /><path clip-path="url(#clip240)" d="M 0 0 M718.034 364.592 L709.18 378.428 L718.034 378.428 L718.034 364.592 M717.114 361.536 L721.524 361.536 L721.524 378.428 L725.222 378.428 L725.222 381.345 L721.524 381.345 L721.524 387.456 L718.034 387.456 L718.034 381.345 L706.333 381.345 L706.333 377.96 L717.114 361.536 Z" fill="#000000" fill-rule="evenodd" fill-opacity="1" /><circle clip-path="url(#clip242)" cx="684.58" cy="95.9282" r="14" fill="#0000ff" fill-rule="evenodd" fill-opacity="1" stroke="none"/>
<path clip-path="url(#clip240)" d="M 0 0 M685.083 85.2008 L690.812 85.2008 L690.812 65.4266 L684.58 66.6766 L684.58 63.4822 L690.777 62.2322 L694.284 62.2322 L694.284 85.2008 L700.013 85.2008 L700.013 88.1522 L685.083 88.1522 L685.083 85.2008 Z" fill="#000000" fill-rule="evenodd" fill-opacity="1" /><path clip-path="url(#clip240)" d="M 0 0 M714.597 75.8433 Q712.097 75.8433 710.656 77.1801 Q709.232 78.5169 709.232 80.8606 Q709.232 83.2043 710.656 84.5411 Q712.097 85.8779 714.597 85.8779 Q717.097 85.8779 718.538 84.5411 Q719.979 83.187 719.979 80.8606 Q719.979 78.5169 718.538 77.1801 Q717.114 75.8433 714.597 75.8433 M711.09 74.3502 Q708.833 73.7947 707.566 72.2495 Q706.316 70.7044 706.316 68.4822 Q706.316 65.3746 708.52 63.569 Q710.743 61.7635 714.597 61.7635 Q718.468 61.7635 720.673 63.569 Q722.878 65.3746 722.878 68.4822 Q722.878 70.7044 721.611 72.2495 Q720.361 73.7947 718.121 74.3502 Q720.656 74.9405 722.062 76.6592 Q723.486 78.378 723.486 80.8606 Q723.486 84.6279 721.177 86.6418 Q718.885 88.6557 714.597 88.6557 Q710.309 88.6557 708 86.6418 Q705.708 84.6279 705.708 80.8606 Q705.708 78.378 707.131 76.6592 Q708.555 74.9405 711.09 74.3502 M709.805 68.812 Q709.805 70.8259 711.055 71.9544 Q712.322 73.0829 714.597 73.0829 Q716.854 73.0829 718.121 71.9544 Q719.406 70.8259 719.406 68.812 Q719.406 66.7982 718.121 65.6697 Q716.854 64.5412 714.597 64.5412 Q712.322 64.5412 711.055 65.6697 Q709.805 66.7982 709.805 68.812 Z" fill="#000000" fill-rule="evenodd" fill-opacity="1" /></svg>
