<?xml version="1.0" encoding="utf-8"?>
<svg xmlns="http://www.w3.org/2000/svg" xmlns:xlink="http://www.w3.org/1999/xlink" width="200" height="250" viewBox="0 0 800 1000">
<defs>
  <clipPath id="clip540">
    <rect x="0" y="0" width="800" height="1000"/>
  </clipPath>
</defs>
<path clip-path="url(#clip540)" d="
M0 1000 L800 1000 L800 0 L0 0  Z
  " fill="#ffffff" fill-rule="evenodd" fill-opacity="1"/>
<defs>
  <clipPath id="clip541">
    <rect x="200" y="100" width="701" height="701"/>
  </clipPath>
</defs>
<path clip-path="url(#clip540)" d="
M70.9921 927.008 L752.756 927.008 L752.756 62.9921 L70.9921 62.9921  Z
  " fill="#ffffff" fill-rule="evenodd" fill-opacity="1"/>
<defs>
  <clipPath id="clip542">
    <rect x="70" y="62" width="683" height="865"/>
  </clipPath>
</defs>
<polyline clip-path="url(#clip540)" style="stroke:#000000; stroke-width:4; stroke-opacity:1; fill:none" points="
  70.9921,927.008 752.756,927.008 
  "/>
<polyline clip-path="url(#clip540)" style="stroke:#000000; stroke-width:4; stroke-opacity:1; fill:none" points="
  139.169,927.008 139.169,916.64 
  "/>
<polyline clip-path="url(#clip540)" style="stroke:#000000; stroke-width:4; stroke-opacity:1; fill:none" points="
  275.521,927.008 275.521,916.64 
  "/>
<polyline clip-path="url(#clip540)" style="stroke:#000000; stroke-width:4; stroke-opacity:1; fill:none" points="
  411.874,927.008 411.874,916.64 
  "/>
<polyline clip-path="url(#clip540)" style="stroke:#000000; stroke-width:4; stroke-opacity:1; fill:none" points="
  548.227,927.008 548.227,916.64 
  "/>
<polyline clip-path="url(#clip540)" style="stroke:#000000; stroke-width:4; stroke-opacity:1; fill:none" points="
  684.58,927.008 684.58,916.64 
  "/>
<path clip-path="url(#clip540)" d="M 0 0 M109.111 959.651 L138.787 959.651 L138.787 963.586 L109.111 963.586 L109.111 959.651 Z" fill="#000000" fill-rule="evenodd" fill-opacity="1" /><path clip-path="url(#clip540)" d="M 0 0 M152.907 972.545 L169.226 972.545 L169.226 976.48 L147.282 976.48 L147.282 972.545 Q149.944 969.79 154.527 965.16 Q159.134 960.508 160.314 959.165 Q162.56 956.642 163.439 954.906 Q164.342 953.147 164.342 951.457 Q164.342 948.702 162.398 946.966 Q160.476 945.23 157.374 945.23 Q155.175 945.23 152.722 945.994 Q150.291 946.758 147.513 948.309 L147.513 943.587 Q150.337 942.452 152.791 941.874 Q155.245 941.295 157.282 941.295 Q162.652 941.295 165.847 943.98 Q169.041 946.665 169.041 951.156 Q169.041 953.286 168.231 955.207 Q167.444 957.105 165.337 959.698 Q164.759 960.369 161.657 963.586 Q158.555 966.781 152.907 972.545 Z" fill="#000000" fill-rule="evenodd" fill-opacity="1" /><path clip-path="url(#clip540)" d="M 0 0 M245.278 959.651 L274.954 959.651 L274.954 963.586 L245.278 963.586 L245.278 959.651 Z" fill="#000000" fill-rule="evenodd" fill-opacity="1" /><path clip-path="url(#clip540)" d="M 0 0 M285.857 972.545 L293.496 972.545 L293.496 946.179 L285.186 947.846 L285.186 943.587 L293.449 941.92 L298.125 941.92 L298.125 972.545 L305.764 972.545 L305.764 976.48 L285.857 976.48 L285.857 972.545 Z" fill="#000000" fill-rule="evenodd" fill-opacity="1" /><path clip-path="url(#clip540)" d="M 0 0 M411.874 944.999 Q408.263 944.999 406.434 948.563 Q404.629 952.105 404.629 959.235 Q404.629 966.341 406.434 969.906 Q408.263 973.447 411.874 973.447 Q415.508 973.447 417.314 969.906 Q419.142 966.341 419.142 959.235 Q419.142 952.105 417.314 948.563 Q415.508 944.999 411.874 944.999 M411.874 941.295 Q417.684 941.295 420.74 945.901 Q423.818 950.485 423.818 959.235 Q423.818 967.961 420.74 972.568 Q417.684 977.151 411.874 977.151 Q406.064 977.151 402.985 972.568 Q399.93 967.961 399.93 959.235 Q399.93 950.485 402.985 945.901 Q406.064 941.295 411.874 941.295 Z" fill="#000000" fill-rule="evenodd" fill-opacity="1" /><path clip-path="url(#clip540)" d="M 0 0 M538.609 972.545 L546.248 972.545 L546.248 946.179 L537.937 947.846 L537.937 943.587 L546.201 941.92 L550.877 941.92 L550.877 972.545 L558.516 972.545 L558.516 976.48 L538.609 976.48 L538.609 972.545 Z" fill="#000000" fill-rule="evenodd" fill-opacity="1" /><path clip-path="url(#clip540)" d="M 0 0 M679.232 972.545 L695.552 972.545 L695.552 976.48 L673.607 976.48 L673.607 972.545 Q676.269 969.79 680.853 965.16 Q685.459 960.508 686.64 959.165 Q688.885 956.642 689.765 954.906 Q690.667 953.147 690.667 951.457 Q690.667 948.702 688.723 946.966 Q686.802 945.23 683.7 945.23 Q681.501 945.23 679.047 945.994 Q676.617 946.758 673.839 948.309 L673.839 943.587 Q676.663 942.452 679.117 941.874 Q681.57 941.295 683.607 941.295 Q688.978 941.295 692.172 943.98 Q695.367 946.665 695.367 951.156 Q695.367 953.286 694.556 955.207 Q693.769 957.105 691.663 959.698 Q691.084 960.369 687.982 963.586 Q684.88 966.781 679.232 972.545 Z" fill="#000000" fill-rule="evenodd" fill-opacity="1" /><polyline clip-path="url(#clip540)" style="stroke:#000000; stroke-width:4; stroke-opacity:1; fill:none" points="
  70.9921,927.008 70.9921,62.9921 
  "/>
<polyline clip-path="url(#clip540)" style="stroke:#000000; stroke-width:4; stroke-opacity:1; fill:none" points="
  70.9921,840.606 79.1733,840.606 
  "/>
<polyline clip-path="url(#clip540)" style="stroke:#000000; stroke-width:4; stroke-opacity:1; fill:none" points="
  70.9921,667.803 79.1733,667.803 
  "/>
<polyline clip-path="url(#clip540)" style="stroke:#000000; stroke-width:4; stroke-opacity:1; fill:none" points="
  70.9921,495 79.1733,495 
  "/>
<polyline clip-path="url(#clip540)" style="stroke:#000000; stroke-width:4; stroke-opacity:1; fill:none" points="
  70.9921,322.197 79.1733,322.197 
  "/>
<polyline clip-path="url(#clip540)" style="stroke:#000000; stroke-width:4; stroke-opacity:1; fill:none" points="
  70.9921,149.394 79.1733,149.394 
  "/>
<path clip-path="url(#clip540)" d="M 0 0 M-4.12329 841.058 L25.5525 841.058 L25.5525 844.993 L-4.12329 844.993 L-4.12329 841.058 Z" fill="#000000" fill-rule="evenodd" fill-opacity="1" /><path clip-path="url(#clip540)" d="M 0 0 M39.6728 853.951 L55.9921 853.951 L55.9921 857.886 L34.0478 857.886 L34.0478 853.951 Q36.7098 851.197 41.2931 846.567 Q45.8996 841.914 47.0801 840.572 Q49.3255 838.048 50.2051 836.312 Q51.1079 834.553 51.1079 832.863 Q51.1079 830.109 49.1635 828.373 Q47.2422 826.636 44.1403 826.636 Q41.9413 826.636 39.4876 827.4 Q37.057 828.164 34.2793 829.715 L34.2793 824.993 Q37.1033 823.859 39.557 823.28 Q42.0107 822.701 44.0477 822.701 Q49.4181 822.701 52.6125 825.386 Q55.8069 828.072 55.8069 832.562 Q55.8069 834.692 54.9968 836.613 Q54.2097 838.511 52.1033 841.104 Q51.5246 841.775 48.4227 844.993 Q45.3209 848.187 39.6728 853.951 Z" fill="#000000" fill-rule="evenodd" fill-opacity="1" /><path clip-path="url(#clip540)" d="M 0 0 M-4.49366 668.255 L25.1821 668.255 L25.1821 672.19 L-4.49366 672.19 L-4.49366 668.255 Z" fill="#000000" fill-rule="evenodd" fill-opacity="1" /><path clip-path="url(#clip540)" d="M 0 0 M36.0848 681.148 L43.7237 681.148 L43.7237 654.782 L35.4135 656.449 L35.4135 652.19 L43.6774 650.523 L48.3533 650.523 L48.3533 681.148 L55.9921 681.148 L55.9921 685.083 L36.0848 685.083 L36.0848 681.148 Z" fill="#000000" fill-rule="evenodd" fill-opacity="1" /><path clip-path="url(#clip540)" d="M 0 0 M44.0477 480.799 Q40.4367 480.799 38.608 484.363 Q36.8024 487.905 36.8024 495.035 Q36.8024 502.141 38.608 505.706 Q40.4367 509.248 44.0477 509.248 Q47.682 509.248 49.4875 505.706 Q51.3162 502.141 51.3162 495.035 Q51.3162 487.905 49.4875 484.363 Q47.682 480.799 44.0477 480.799 M44.0477 477.095 Q49.8579 477.095 52.9134 481.701 Q55.9921 486.285 55.9921 495.035 Q55.9921 503.762 52.9134 508.368 Q49.8579 512.951 44.0477 512.951 Q38.2376 512.951 35.1589 508.368 Q32.1034 503.762 32.1034 495.035 Q32.1034 486.285 35.1589 481.701 Q38.2376 477.095 44.0477 477.095 Z" fill="#000000" fill-rule="evenodd" fill-opacity="1" /><path clip-path="url(#clip540)" d="M 0 0 M36.0848 335.542 L43.7237 335.542 L43.7237 309.176 L35.4135 310.843 L35.4135 306.584 L43.6774 304.917 L48.3533 304.917 L48.3533 335.542 L55.9921 335.542 L55.9921 339.477 L36.0848 339.477 L36.0848 335.542 Z" fill="#000000" fill-rule="evenodd" fill-opacity="1" /><path clip-path="url(#clip540)" d="M 0 0 M39.6728 162.739 L55.9921 162.739 L55.9921 166.674 L34.0478 166.674 L34.0478 162.739 Q36.7098 159.984 41.2931 155.354 Q45.8996 150.702 47.0801 149.359 Q49.3255 146.836 50.2051 145.1 Q51.1079 143.34 51.1079 141.651 Q51.1079 138.896 49.1635 137.16 Q47.2422 135.424 44.1403 135.424 Q41.9413 135.424 39.4876 136.188 Q37.057 136.952 34.2793 138.503 L34.2793 133.78 Q37.1033 132.646 39.557 132.067 Q42.0107 131.489 44.0477 131.489 Q49.4181 131.489 52.6125 134.174 Q55.8069 136.859 55.8069 141.35 Q55.8069 143.479 54.9968 145.401 Q54.2097 147.299 52.1033 149.891 Q51.5246 150.563 48.4227 153.78 Q45.3209 156.975 39.6728 162.739 Z" fill="#000000" fill-rule="evenodd" fill-opacity="1" /><path clip-path="url(#clip540)" d="M 0 0 M352.222 5.45367 L362.036 5.45367 L362.036 8.76384 L356.481 8.76384 L356.481 44.4118 L362.036 44.4118 L362.036 47.722 L352.222 47.722 L352.222 5.45367 Z" fill="#000000" fill-rule="evenodd" fill-opacity="1" /><path clip-path="url(#clip540)" d="M 0 0 M372.522 37.5368 L380.161 37.5368 L380.161 11.1712 L371.851 12.8379 L371.851 8.57866 L380.115 6.912 L384.791 6.912 L384.791 37.5368 L392.43 37.5368 L392.43 41.472 L372.522 41.472 L372.522 37.5368 Z" fill="#000000" fill-rule="evenodd" fill-opacity="1" /><path clip-path="url(#clip540)" d="M 0 0 M402.36 35.5924 L407.244 35.5924 L407.244 39.5739 L403.448 46.9812 L400.462 46.9812 L402.36 39.5739 L402.36 35.5924 Z" fill="#000000" fill-rule="evenodd" fill-opacity="1" /><path clip-path="url(#clip540)" d="M 0 0 M432.823 37.5368 L440.462 37.5368 L440.462 11.1712 L432.152 12.8379 L432.152 8.57866 L440.416 6.912 L445.091 6.912 L445.091 37.5368 L452.73 37.5368 L452.73 41.472 L432.823 41.472 L432.823 37.5368 Z" fill="#000000" fill-rule="evenodd" fill-opacity="1" /><path clip-path="url(#clip540)" d="M 0 0 M471.526 5.45367 L471.526 47.722 L461.712 47.722 L461.712 44.4118 L467.244 44.4118 L467.244 8.76384 L461.712 8.76384 L461.712 5.45367 L471.526 5.45367 Z" fill="#000000" fill-rule="evenodd" fill-opacity="1" /><circle clip-path="url(#clip542)" cx="139.169" cy="894.072" r="14" fill="#0000ff" fill-rule="evenodd" fill-opacity="1" stroke="none"/>
<path clip-path="url(#clip540)" d="M 0 0 M139.169 860.376 L155.835 860.376 L155.835 861.869 L146.425 886.296 L142.762 886.296 L151.616 863.327 L139.169 863.327 L139.169 860.376 Z" fill="#000000" fill-rule="evenodd" fill-opacity="1" /><circle clip-path="url(#clip542)" cx="139.169" cy="594.768" r="14" fill="#0000ff" fill-rule="evenodd" fill-opacity="1" stroke="none"/>
<circle clip-path="url(#clip542)" cx="139.169" cy="694.536" r="14" fill="#0000ff" fill-rule="evenodd" fill-opacity="1" stroke="none"/>
<circle clip-path="url(#clip542)" cx="275.521" cy="594.768" r="14" fill="#0000ff" fill-rule="evenodd" fill-opacity="1" stroke="none"/>
<circle clip-path="url(#clip542)" cx="275.521" cy="694.536" r="14" fill="#0000ff" fill-rule="evenodd" fill-opacity="1" stroke="none"/>
<circle clip-path="url(#clip542)" cx="411.874" cy="594.768" r="14" fill="#0000ff" fill-rule="evenodd" fill-opacity="1" stroke="none"/>
<circle clip-path="url(#clip542)" cx="411.874" cy="694.536" r="14" fill="#0000ff" fill-rule="evenodd" fill-opacity="1" stroke="none"/>
<circle clip-path="url(#clip542)" cx="139.169" cy="295.464" r="14" fill="#0000ff" fill-rule="evenodd" fill-opacity="1" stroke="none"/>
<circle clip-path="url(#clip542)" cx="139.169" cy="395.232" r="14" fill="#0000ff" fill-rule="evenodd" fill-opacity="1" stroke="none"/>
<circle clip-path="url(#clip542)" cx="275.521" cy="894.072" r="14" fill="#0000ff" fill-rule="evenodd" fill-opacity="1" stroke="none"/>
<circle clip-path="url(#clip542)" cx="411.874" cy="894.072" r="14" fill="#0000ff" fill-rule="evenodd" fill-opacity="1" stroke="none"/>
<circle clip-path="url(#clip542)" cx="343.698" cy="445.116" r="14" fill="#0000ff" fill-rule="evenodd" fill-opacity="1" stroke="none"/>
<circle clip-path="url(#clip542)" cx="343.698" cy="544.884" r="14" fill="#0000ff" fill-rule="evenodd" fill-opacity="1" stroke="none"/>
<circle clip-path="url(#clip542)" cx="70.9921" cy="744.42" r="14" fill="#0000ff" fill-rule="evenodd" fill-opacity="1" stroke="none"/>
<circle clip-path="url(#clip542)" cx="70.9921" cy="844.188" r="14" fill="#0000ff" fill-rule="evenodd" fill-opacity="1" stroke="none"/>
<circle clip-path="url(#clip542)" cx="207.345" cy="744.42" r="14" fill="#0000ff" fill-rule="evenodd" fill-opacity="1" stroke="none"/>
<circle clip-path="url(#clip542)" cx="207.345" cy="844.188" r="14" fill="#0000ff" fill-rule="evenodd" fill-opacity="1" stroke="none"/>
<circle clip-path="url(#clip542)" cx="343.698" cy="744.42" r="14" fill="#0000ff" fill-rule="evenodd" fill-opacity="1" stroke="none"/>
<circle clip-path="url(#clip542)" cx="343.698" cy="844.188" r="14" fill="#0000ff" fill-rule="evenodd" fill-opacity="1" stroke="none"/>
<circle clip-path="url(#clip542)" cx="70.9921" cy="445.116" r="14" fill="#0000ff" fill-rule="evenodd" fill-opacity="1" stroke="none"/>
<circle clip-path="url(#clip542)" cx="70.9921" cy="544.884" r="14" fill="#0000ff" fill-rule="evenodd" fill-opacity="1" stroke="none"/>
<circle clip-path="url(#clip542)" cx="207.345" cy="445.116" r="14" fill="#0000ff" fill-rule="evenodd" fill-opacity="1" stroke="none"/>
<circle clip-path="url(#clip542)" cx="207.345" cy="544.884" r="14" fill="#0000ff" fill-rule="evenodd" fill-opacity="1" stroke="none"/>
<path clip-path="url(#clip540)" d="M 0 0 M139.672 584.041 L145.401 584.041 L145.401 564.266 L139.169 565.516 L139.169 562.322 L145.366 561.072 L148.873 561.072 L148.873 584.041 L154.602 584.041 L154.602 586.992 L139.672 586.992 L139.672 584.041 Z" fill="#000000" fill-rule="evenodd" fill-opacity="1" /><path clip-path="url(#clip540)" d="M 0 0 M143.387 683.809 L155.627 683.809 L155.627 686.76 L139.169 686.76 L139.169 683.809 Q141.165 681.743 144.603 678.27 Q148.057 674.781 148.943 673.774 Q150.627 671.881 151.286 670.579 Q151.964 669.26 151.964 667.993 Q151.964 665.927 150.505 664.625 Q149.064 663.323 146.738 663.323 Q145.089 663.323 143.248 663.895 Q141.425 664.468 139.342 665.632 L139.342 662.09 Q141.46 661.239 143.3 660.805 Q145.141 660.371 146.668 660.371 Q150.696 660.371 153.092 662.385 Q155.488 664.399 155.488 667.767 Q155.488 669.364 154.88 670.805 Q154.29 672.229 152.71 674.173 Q152.276 674.677 149.95 677.09 Q147.623 679.486 143.387 683.809 Z" fill="#000000" fill-rule="evenodd" fill-opacity="1" /><path clip-path="url(#clip540)" d="M 0 0 M287.24 573.016 Q289.757 573.555 291.164 575.256 Q292.587 576.957 292.587 579.457 Q292.587 583.294 289.948 585.395 Q287.309 587.495 282.448 587.495 Q280.816 587.495 279.08 587.166 Q277.362 586.853 275.521 586.211 L275.521 582.825 Q276.98 583.676 278.716 584.11 Q280.452 584.544 282.344 584.544 Q285.643 584.544 287.361 583.242 Q289.098 581.94 289.098 579.457 Q289.098 577.166 287.483 575.881 Q285.886 574.579 283.021 574.579 L280 574.579 L280 571.697 L283.16 571.697 Q285.747 571.697 287.118 570.673 Q288.49 569.631 288.49 567.686 Q288.49 565.69 287.066 564.631 Q285.66 563.555 283.021 563.555 Q281.58 563.555 279.931 563.867 Q278.282 564.18 276.303 564.839 L276.303 561.714 Q278.299 561.159 280.035 560.881 Q281.789 560.603 283.334 560.603 Q287.327 560.603 289.653 562.426 Q291.98 564.232 291.98 567.322 Q291.98 569.475 290.747 570.968 Q289.514 572.443 287.24 573.016 Z" fill="#000000" fill-rule="evenodd" fill-opacity="1" /><path clip-path="url(#clip540)" d="M 0 0 M287.223 663.895 L278.368 677.732 L287.223 677.732 L287.223 663.895 M286.302 660.84 L290.712 660.84 L290.712 677.732 L294.41 677.732 L294.41 680.649 L290.712 680.649 L290.712 686.76 L287.223 686.76 L287.223 680.649 L275.521 680.649 L275.521 677.263 L286.302 660.84 Z" fill="#000000" fill-rule="evenodd" fill-opacity="1" /><path clip-path="url(#clip540)" d="M 0 0 M412.968 561.072 L426.735 561.072 L426.735 564.023 L416.18 564.023 L416.18 570.377 Q416.943 570.117 417.707 569.996 Q418.471 569.857 419.235 569.857 Q423.575 569.857 426.11 572.235 Q428.645 574.614 428.645 578.676 Q428.645 582.86 426.041 585.186 Q423.436 587.495 418.697 587.495 Q417.065 587.495 415.364 587.218 Q413.68 586.94 411.874 586.384 L411.874 582.86 Q413.437 583.711 415.103 584.127 Q416.77 584.544 418.627 584.544 Q421.631 584.544 423.384 582.964 Q425.138 581.384 425.138 578.676 Q425.138 575.968 423.384 574.388 Q421.631 572.808 418.627 572.808 Q417.221 572.808 415.815 573.12 Q414.426 573.433 412.968 574.093 L412.968 561.072 Z" fill="#000000" fill-rule="evenodd" fill-opacity="1" /><path clip-path="url(#clip540)" d="M 0 0 M421.127 672.402 Q418.766 672.402 417.377 674.017 Q416.006 675.631 416.006 678.444 Q416.006 681.239 417.377 682.871 Q418.766 684.486 421.127 684.486 Q423.489 684.486 424.86 682.871 Q426.249 681.239 426.249 678.444 Q426.249 675.631 424.86 674.017 Q423.489 672.402 421.127 672.402 M428.089 661.413 L428.089 664.607 Q426.77 663.982 425.416 663.652 Q424.079 663.323 422.759 663.323 Q419.287 663.323 417.447 665.666 Q415.624 668.01 415.364 672.75 Q416.388 671.239 417.933 670.441 Q419.478 669.625 421.336 669.625 Q425.242 669.625 427.499 672.003 Q429.773 674.364 429.773 678.444 Q429.773 682.437 427.412 684.85 Q425.051 687.263 421.127 687.263 Q416.631 687.263 414.252 683.826 Q411.874 680.371 411.874 673.826 Q411.874 667.68 414.791 664.034 Q417.707 660.371 422.62 660.371 Q423.94 660.371 425.277 660.632 Q426.631 660.892 428.089 661.413 Z" fill="#000000" fill-rule="evenodd" fill-opacity="1" /><path clip-path="url(#clip540)" d="M 0 0 M139.169 261.768 L155.835 261.768 L155.835 263.261 L146.425 287.688 L142.762 287.688 L151.616 264.719 L139.169 264.719 L139.169 261.768 Z" fill="#000000" fill-rule="evenodd" fill-opacity="1" /><path clip-path="url(#clip540)" d="M 0 0 M148.057 375.147 Q145.557 375.147 144.116 376.484 Q142.693 377.821 142.693 380.164 Q142.693 382.508 144.116 383.845 Q145.557 385.182 148.057 385.182 Q150.557 385.182 151.998 383.845 Q153.439 382.491 153.439 380.164 Q153.439 377.821 151.998 376.484 Q150.575 375.147 148.057 375.147 M144.55 373.654 Q142.293 373.098 141.026 371.553 Q139.776 370.008 139.776 367.786 Q139.776 364.678 141.981 362.873 Q144.203 361.067 148.057 361.067 Q151.929 361.067 154.134 362.873 Q156.339 364.678 156.339 367.786 Q156.339 370.008 155.071 371.553 Q153.821 373.098 151.582 373.654 Q154.116 374.244 155.523 375.963 Q156.946 377.682 156.946 380.164 Q156.946 383.932 154.637 385.946 Q152.346 387.96 148.057 387.96 Q143.769 387.96 141.46 385.946 Q139.169 383.932 139.169 380.164 Q139.169 377.682 140.592 375.963 Q142.016 374.244 144.55 373.654 M143.266 368.116 Q143.266 370.13 144.516 371.258 Q145.783 372.387 148.057 372.387 Q150.314 372.387 151.582 371.258 Q152.866 370.13 152.866 368.116 Q152.866 366.102 151.582 364.974 Q150.314 363.845 148.057 363.845 Q145.783 363.845 144.516 364.974 Q143.266 366.102 143.266 368.116 Z" fill="#000000" fill-rule="evenodd" fill-opacity="1" /><path clip-path="url(#clip540)" d="M 0 0 M277.188 885.758 L277.188 882.563 Q278.507 883.188 279.862 883.518 Q281.216 883.848 282.518 883.848 Q285.99 883.848 287.813 881.521 Q289.653 879.178 289.914 874.421 Q288.907 875.914 287.361 876.712 Q285.816 877.511 283.941 877.511 Q280.052 877.511 277.778 875.167 Q275.521 872.806 275.521 868.726 Q275.521 864.733 277.882 862.32 Q280.243 859.907 284.167 859.907 Q288.664 859.907 291.025 863.362 Q293.403 866.799 293.403 873.362 Q293.403 879.49 290.486 883.153 Q287.587 886.799 282.674 886.799 Q281.355 886.799 280 886.539 Q278.646 886.278 277.188 885.758 M284.167 874.768 Q286.528 874.768 287.9 873.153 Q289.289 871.539 289.289 868.726 Q289.289 865.931 287.9 864.317 Q286.528 862.685 284.167 862.685 Q281.806 862.685 280.417 864.317 Q279.046 865.931 279.046 868.726 Q279.046 871.539 280.417 873.153 Q281.806 874.768 284.167 874.768 Z" fill="#000000" fill-rule="evenodd" fill-opacity="1" /><path clip-path="url(#clip540)" d="M 0 0 M412.377 883.344 L418.107 883.344 L418.107 863.57 L411.874 864.82 L411.874 861.626 L418.072 860.376 L421.579 860.376 L421.579 883.344 L427.308 883.344 L427.308 886.296 L412.377 886.296 L412.377 883.344 Z" fill="#000000" fill-rule="evenodd" fill-opacity="1" /><path clip-path="url(#clip540)" d="M 0 0 M434.999 883.344 L440.728 883.344 L440.728 863.57 L434.495 864.82 L434.495 861.626 L440.693 860.376 L444.2 860.376 L444.2 883.344 L449.929 883.344 L449.929 886.296 L434.999 886.296 L434.999 883.344 Z" fill="#000000" fill-rule="evenodd" fill-opacity="1" /><path clip-path="url(#clip540)" d="M 0 0 M344.201 434.389 L349.93 434.389 L349.93 414.614 L343.698 415.864 L343.698 412.67 L349.896 411.42 L353.402 411.42 L353.402 434.389 L359.132 434.389 L359.132 437.34 L344.201 437.34 L344.201 434.389 Z" fill="#000000" fill-rule="evenodd" fill-opacity="1" /><path clip-path="url(#clip540)" d="M 0 0 M376.84 423.364 Q379.357 423.903 380.763 425.604 Q382.187 427.305 382.187 429.805 Q382.187 433.642 379.548 435.743 Q376.909 437.843 372.048 437.843 Q370.416 437.843 368.68 437.514 Q366.961 437.201 365.121 436.559 L365.121 433.173 Q366.579 434.024 368.316 434.458 Q370.052 434.892 371.944 434.892 Q375.243 434.892 376.961 433.59 Q378.697 432.288 378.697 429.805 Q378.697 427.514 377.083 426.229 Q375.486 424.927 372.621 424.927 L369.6 424.927 L369.6 422.045 L372.76 422.045 Q375.347 422.045 376.718 421.021 Q378.09 419.979 378.09 418.035 Q378.09 416.038 376.666 414.979 Q375.26 413.903 372.621 413.903 Q371.18 413.903 369.531 414.215 Q367.882 414.528 365.902 415.187 L365.902 412.062 Q367.899 411.507 369.635 411.229 Q371.388 410.951 372.934 410.951 Q376.927 410.951 379.253 412.774 Q381.579 414.58 381.579 417.67 Q381.579 419.823 380.347 421.316 Q379.114 422.791 376.84 423.364 Z" fill="#000000" fill-rule="evenodd" fill-opacity="1" /><path clip-path="url(#clip540)" d="M 0 0 M344.201 534.157 L349.93 534.157 L349.93 514.382 L343.698 515.632 L343.698 512.438 L349.896 511.188 L353.402 511.188 L353.402 534.157 L359.132 534.157 L359.132 537.108 L344.201 537.108 L344.201 534.157 Z" fill="#000000" fill-rule="evenodd" fill-opacity="1" /><path clip-path="url(#clip540)" d="M 0 0 M375.85 514.244 L366.996 528.08 L375.85 528.08 L375.85 514.244 M374.93 511.188 L379.34 511.188 L379.34 528.08 L383.038 528.08 L383.038 530.997 L379.34 530.997 L379.34 537.108 L375.85 537.108 L375.85 530.997 L364.149 530.997 L364.149 527.611 L374.93 511.188 Z" fill="#000000" fill-rule="evenodd" fill-opacity="1" /><path clip-path="url(#clip540)" d="M 0 0 M71.4956 733.692 L77.2247 733.692 L77.2247 713.918 L70.9921 715.168 L70.9921 711.974 L77.19 710.724 L80.6969 710.724 L80.6969 733.692 L86.4261 733.692 L86.4261 736.644 L71.4956 736.644 L71.4956 733.692 Z" fill="#000000" fill-rule="evenodd" fill-opacity="1" /><path clip-path="url(#clip540)" d="M 0 0 M93.5441 710.724 L107.311 710.724 L107.311 713.675 L96.7559 713.675 L96.7559 720.029 Q97.5198 719.769 98.2836 719.647 Q99.0475 719.509 99.8114 719.509 Q104.152 719.509 106.686 721.887 Q109.221 724.265 109.221 728.328 Q109.221 732.512 106.617 734.838 Q104.013 737.147 99.2732 737.147 Q97.6413 737.147 95.9399 736.87 Q94.2559 736.592 92.4503 736.036 L92.4503 732.512 Q94.0128 733.363 95.6795 733.779 Q97.3462 734.196 99.2038 734.196 Q102.207 734.196 103.961 732.616 Q105.714 731.036 105.714 728.328 Q105.714 725.62 103.961 724.04 Q102.207 722.46 99.2038 722.46 Q97.7975 722.46 96.3913 722.772 Q95.0024 723.085 93.5441 723.745 L93.5441 710.724 Z" fill="#000000" fill-rule="evenodd" fill-opacity="1" /><path clip-path="url(#clip540)" d="M 0 0 M71.4956 833.46 L77.2247 833.46 L77.2247 813.686 L70.9921 814.936 L70.9921 811.742 L77.19 810.492 L80.6969 810.492 L80.6969 833.46 L86.4261 833.46 L86.4261 836.412 L71.4956 836.412 L71.4956 833.46 Z" fill="#000000" fill-rule="evenodd" fill-opacity="1" /><path clip-path="url(#clip540)" d="M 0 0 M101.443 822.054 Q99.0823 822.054 97.6934 823.669 Q96.3219 825.283 96.3219 828.096 Q96.3219 830.891 97.6934 832.523 Q99.0823 834.138 101.443 834.138 Q103.804 834.138 105.176 832.523 Q106.565 830.891 106.565 828.096 Q106.565 825.283 105.176 823.669 Q103.804 822.054 101.443 822.054 M108.405 811.065 L108.405 814.259 Q107.086 813.634 105.732 813.304 Q104.395 812.974 103.075 812.974 Q99.6031 812.974 97.7628 815.318 Q95.9399 817.662 95.6795 822.401 Q96.7038 820.891 98.2489 820.092 Q99.7941 819.276 101.652 819.276 Q105.558 819.276 107.815 821.655 Q110.089 824.016 110.089 828.096 Q110.089 832.089 107.728 834.502 Q105.367 836.915 101.443 836.915 Q96.9468 836.915 94.5684 833.478 Q92.1899 830.023 92.1899 823.478 Q92.1899 817.332 95.1066 813.686 Q98.0232 810.023 102.936 810.023 Q104.256 810.023 105.593 810.283 Q106.947 810.544 108.405 811.065 Z" fill="#000000" fill-rule="evenodd" fill-opacity="1" /><path clip-path="url(#clip540)" d="M 0 0 M207.848 733.692 L213.577 733.692 L213.577 713.918 L207.345 715.168 L207.345 711.974 L213.543 710.724 L217.05 710.724 L217.05 733.692 L222.779 733.692 L222.779 736.644 L207.848 736.644 L207.848 733.692 Z" fill="#000000" fill-rule="evenodd" fill-opacity="1" /><path clip-path="url(#clip540)" d="M 0 0 M228.977 710.724 L245.643 710.724 L245.643 712.217 L236.234 736.644 L232.57 736.644 L241.425 713.675 L228.977 713.675 L228.977 710.724 Z" fill="#000000" fill-rule="evenodd" fill-opacity="1" /><path clip-path="url(#clip540)" d="M 0 0 M207.848 833.46 L213.577 833.46 L213.577 813.686 L207.345 814.936 L207.345 811.742 L213.543 810.492 L217.05 810.492 L217.05 833.46 L222.779 833.46 L222.779 836.412 L207.848 836.412 L207.848 833.46 Z" fill="#000000" fill-rule="evenodd" fill-opacity="1" /><path clip-path="url(#clip540)" d="M 0 0 M237.362 824.103 Q234.862 824.103 233.421 825.44 Q231.998 826.776 231.998 829.12 Q231.998 831.464 233.421 832.801 Q234.862 834.138 237.362 834.138 Q239.862 834.138 241.303 832.801 Q242.744 831.447 242.744 829.12 Q242.744 826.776 241.303 825.44 Q239.879 824.103 237.362 824.103 M233.855 822.61 Q231.598 822.054 230.331 820.509 Q229.081 818.964 229.081 816.742 Q229.081 813.634 231.286 811.829 Q233.508 810.023 237.362 810.023 Q241.234 810.023 243.438 811.829 Q245.643 813.634 245.643 816.742 Q245.643 818.964 244.376 820.509 Q243.126 822.054 240.886 822.61 Q243.421 823.2 244.827 824.919 Q246.251 826.638 246.251 829.12 Q246.251 832.888 243.942 834.901 Q241.65 836.915 237.362 836.915 Q233.074 836.915 230.765 834.901 Q228.473 832.888 228.473 829.12 Q228.473 826.638 229.897 824.919 Q231.32 823.2 233.855 822.61 M232.57 817.072 Q232.57 819.086 233.82 820.214 Q235.088 821.342 237.362 821.342 Q239.619 821.342 240.886 820.214 Q242.171 819.086 242.171 817.072 Q242.171 815.058 240.886 813.929 Q239.619 812.801 237.362 812.801 Q235.088 812.801 233.82 813.929 Q232.57 815.058 232.57 817.072 Z" fill="#000000" fill-rule="evenodd" fill-opacity="1" /><path clip-path="url(#clip540)" d="M 0 0 M344.201 733.692 L349.93 733.692 L349.93 713.918 L343.698 715.168 L343.698 711.974 L349.896 710.724 L353.402 710.724 L353.402 733.692 L359.132 733.692 L359.132 736.644 L344.201 736.644 L344.201 733.692 Z" fill="#000000" fill-rule="evenodd" fill-opacity="1" /><path clip-path="url(#clip540)" d="M 0 0 M366.319 736.106 L366.319 732.911 Q367.638 733.536 368.993 733.866 Q370.347 734.196 371.649 734.196 Q375.121 734.196 376.944 731.87 Q378.784 729.526 379.045 724.769 Q378.038 726.262 376.493 727.061 Q374.947 727.859 373.072 727.859 Q369.184 727.859 366.909 725.515 Q364.652 723.154 364.652 719.075 Q364.652 715.081 367.013 712.668 Q369.375 710.255 373.298 710.255 Q377.795 710.255 380.156 713.71 Q382.534 717.147 382.534 723.71 Q382.534 729.838 379.618 733.502 Q376.718 737.147 371.805 737.147 Q370.486 737.147 369.132 736.887 Q367.777 736.627 366.319 736.106 M373.298 725.116 Q375.659 725.116 377.031 723.502 Q378.42 721.887 378.42 719.075 Q378.42 716.279 377.031 714.665 Q375.659 713.033 373.298 713.033 Q370.937 713.033 369.548 714.665 Q368.177 716.279 368.177 719.075 Q368.177 721.887 369.548 723.502 Q370.937 725.116 373.298 725.116 Z" fill="#000000" fill-rule="evenodd" fill-opacity="1" /><path clip-path="url(#clip540)" d="M 0 0 M347.916 833.46 L360.156 833.46 L360.156 836.412 L343.698 836.412 L343.698 833.46 Q345.694 831.394 349.132 827.922 Q352.586 824.433 353.472 823.426 Q355.156 821.533 355.816 820.231 Q356.493 818.912 356.493 817.645 Q356.493 815.579 355.034 814.277 Q353.593 812.974 351.267 812.974 Q349.618 812.974 347.777 813.547 Q345.955 814.12 343.871 815.283 L343.871 811.742 Q345.989 810.891 347.83 810.457 Q349.67 810.023 351.198 810.023 Q355.225 810.023 357.621 812.037 Q360.017 814.051 360.017 817.419 Q360.017 819.016 359.409 820.457 Q358.819 821.881 357.239 823.825 Q356.805 824.329 354.479 826.742 Q352.152 829.138 347.916 833.46 Z" fill="#000000" fill-rule="evenodd" fill-opacity="1" /><path clip-path="url(#clip540)" d="M 0 0 M375.017 812.801 Q372.309 812.801 370.937 815.474 Q369.583 818.131 369.583 823.478 Q369.583 828.808 370.937 831.481 Q372.309 834.138 375.017 834.138 Q377.743 834.138 379.097 831.481 Q380.468 828.808 380.468 823.478 Q380.468 818.131 379.097 815.474 Q377.743 812.801 375.017 812.801 M375.017 810.023 Q379.375 810.023 381.666 813.478 Q383.975 816.915 383.975 823.478 Q383.975 830.023 381.666 833.478 Q379.375 836.915 375.017 836.915 Q370.659 836.915 368.35 833.478 Q366.059 830.023 366.059 823.478 Q366.059 816.915 368.35 813.478 Q370.659 810.023 375.017 810.023 Z" fill="#000000" fill-rule="evenodd" fill-opacity="1" /><path clip-path="url(#clip540)" d="M 0 0 M75.2109 434.389 L87.4504 434.389 L87.4504 437.34 L70.9921 437.34 L70.9921 434.389 Q72.9886 432.323 76.4261 428.85 Q79.881 425.361 80.7664 424.354 Q82.4504 422.462 83.1101 421.16 Q83.7872 419.84 83.7872 418.573 Q83.7872 416.507 82.3289 415.205 Q80.8879 413.903 78.5615 413.903 Q76.9122 413.903 75.072 414.476 Q73.2491 415.048 71.1657 416.212 L71.1657 412.67 Q73.2838 411.819 75.124 411.385 Q76.9643 410.951 78.4921 410.951 Q82.5198 410.951 84.9157 412.965 Q87.3115 414.979 87.3115 418.347 Q87.3115 419.944 86.7038 421.385 Q86.1136 422.809 84.5337 424.753 Q84.0997 425.257 81.7733 427.67 Q79.4469 430.066 75.2109 434.389 Z" fill="#000000" fill-rule="evenodd" fill-opacity="1" /><path clip-path="url(#clip540)" d="M 0 0 M95.4191 434.389 L101.148 434.389 L101.148 414.614 L94.9156 415.864 L94.9156 412.67 L101.113 411.42 L104.62 411.42 L104.62 434.389 L110.35 434.389 L110.35 437.34 L95.4191 437.34 L95.4191 434.389 Z" fill="#000000" fill-rule="evenodd" fill-opacity="1" /><path clip-path="url(#clip540)" d="M 0 0 M75.2109 534.157 L87.4504 534.157 L87.4504 537.108 L70.9921 537.108 L70.9921 534.157 Q72.9886 532.091 76.4261 528.618 Q79.881 525.129 80.7664 524.122 Q82.4504 522.23 83.1101 520.928 Q83.7872 519.608 83.7872 518.341 Q83.7872 516.275 82.3289 514.973 Q80.8879 513.671 78.5615 513.671 Q76.9122 513.671 75.072 514.244 Q73.2491 514.816 71.1657 515.98 L71.1657 512.438 Q73.2838 511.587 75.124 511.153 Q76.9643 510.719 78.4921 510.719 Q82.5198 510.719 84.9157 512.733 Q87.3115 514.747 87.3115 518.115 Q87.3115 519.712 86.7038 521.153 Q86.1136 522.577 84.5337 524.521 Q84.0997 525.025 81.7733 527.438 Q79.4469 529.834 75.2109 534.157 Z" fill="#000000" fill-rule="evenodd" fill-opacity="1" /><path clip-path="url(#clip540)" d="M 0 0 M97.8323 534.157 L110.072 534.157 L110.072 537.108 L93.6135 537.108 L93.6135 534.157 Q95.61 532.091 99.0475 528.618 Q102.502 525.129 103.388 524.122 Q105.072 522.23 105.732 520.928 Q106.409 519.608 106.409 518.341 Q106.409 516.275 104.95 514.973 Q103.509 513.671 101.183 513.671 Q99.5336 513.671 97.6934 514.244 Q95.8705 514.816 93.7871 515.98 L93.7871 512.438 Q95.9052 511.587 97.7455 511.153 Q99.5857 510.719 101.113 510.719 Q105.141 510.719 107.537 512.733 Q109.933 514.747 109.933 518.115 Q109.933 519.712 109.325 521.153 Q108.735 522.577 107.155 524.521 Q106.721 525.025 104.395 527.438 Q102.068 529.834 97.8323 534.157 Z" fill="#000000" fill-rule="evenodd" fill-opacity="1" /><path clip-path="url(#clip540)" d="M 0 0 M211.564 434.389 L223.803 434.389 L223.803 437.34 L207.345 437.34 L207.345 434.389 Q209.341 432.323 212.779 428.85 Q216.234 425.361 217.119 424.354 Q218.803 422.462 219.463 421.16 Q220.14 419.84 220.14 418.573 Q220.14 416.507 218.682 415.205 Q217.241 413.903 214.914 413.903 Q213.265 413.903 211.425 414.476 Q209.602 415.048 207.518 416.212 L207.518 412.67 Q209.637 411.819 211.477 411.385 Q213.317 410.951 214.845 410.951 Q218.873 410.951 221.268 412.965 Q223.664 414.979 223.664 418.347 Q223.664 419.944 223.057 421.385 Q222.466 422.809 220.886 424.753 Q220.452 425.257 218.126 427.67 Q215.8 430.066 211.564 434.389 Z" fill="#000000" fill-rule="evenodd" fill-opacity="1" /><path clip-path="url(#clip540)" d="M 0 0 M241.789 423.364 Q244.306 423.903 245.713 425.604 Q247.136 427.305 247.136 429.805 Q247.136 433.642 244.497 435.743 Q241.859 437.843 236.998 437.843 Q235.366 437.843 233.629 437.514 Q231.911 437.201 230.07 436.559 L230.07 433.173 Q231.529 434.024 233.265 434.458 Q235.001 434.892 236.893 434.892 Q240.192 434.892 241.911 433.59 Q243.647 432.288 243.647 429.805 Q243.647 427.514 242.032 426.229 Q240.435 424.927 237.57 424.927 L234.55 424.927 L234.55 422.045 L237.709 422.045 Q240.296 422.045 241.668 421.021 Q243.039 419.979 243.039 418.035 Q243.039 416.038 241.616 414.979 Q240.209 413.903 237.57 413.903 Q236.129 413.903 234.48 414.215 Q232.831 414.528 230.852 415.187 L230.852 412.062 Q232.848 411.507 234.584 411.229 Q236.338 410.951 237.883 410.951 Q241.876 410.951 244.202 412.774 Q246.529 414.58 246.529 417.67 Q246.529 419.823 245.296 421.316 Q244.063 422.791 241.789 423.364 Z" fill="#000000" fill-rule="evenodd" fill-opacity="1" /><path clip-path="url(#clip540)" d="M 0 0 M211.564 534.157 L223.803 534.157 L223.803 537.108 L207.345 537.108 L207.345 534.157 Q209.341 532.091 212.779 528.618 Q216.234 525.129 217.119 524.122 Q218.803 522.23 219.463 520.928 Q220.14 519.608 220.14 518.341 Q220.14 516.275 218.682 514.973 Q217.241 513.671 214.914 513.671 Q213.265 513.671 211.425 514.244 Q209.602 514.816 207.518 515.98 L207.518 512.438 Q209.637 511.587 211.477 511.153 Q213.317 510.719 214.845 510.719 Q218.873 510.719 221.268 512.733 Q223.664 514.747 223.664 518.115 Q223.664 519.712 223.057 521.153 Q222.466 522.577 220.886 524.521 Q220.452 525.025 218.126 527.438 Q215.8 529.834 211.564 534.157 Z" fill="#000000" fill-rule="evenodd" fill-opacity="1" /><path clip-path="url(#clip540)" d="M 0 0 M240.8 514.244 L231.945 528.08 L240.8 528.08 L240.8 514.244 M239.879 511.188 L244.289 511.188 L244.289 528.08 L247.987 528.08 L247.987 530.997 L244.289 530.997 L244.289 537.108 L240.8 537.108 L240.8 530.997 L229.098 530.997 L229.098 527.611 L239.879 511.188 Z" fill="#000000" fill-rule="evenodd" fill-opacity="1" /><circle clip-path="url(#clip542)" cx="139.169" cy="95.9282" r="14" fill="#0000ff" fill-rule="evenodd" fill-opacity="1" stroke="none"/>
<circle clip-path="url(#clip542)" cx="275.521" cy="95.9282" r="14" fill="#0000ff" fill-rule="evenodd" fill-opacity="1" stroke="none"/>
<circle clip-path="url(#clip542)" cx="411.874" cy="95.9282" r="14" fill="#0000ff" fill-rule="evenodd" fill-opacity="1" stroke="none"/>
<circle clip-path="url(#clip542)" cx="275.521" cy="295.464" r="14" fill="#0000ff" fill-rule="evenodd" fill-opacity="1" stroke="none"/>
<circle clip-path="url(#clip542)" cx="275.521" cy="395.232" r="14" fill="#0000ff" fill-rule="evenodd" fill-opacity="1" stroke="none"/>
<circle clip-path="url(#clip542)" cx="411.874" cy="295.464" r="14" fill="#0000ff" fill-rule="evenodd" fill-opacity="1" stroke="none"/>
<circle clip-path="url(#clip542)" cx="411.874" cy="395.232" r="14" fill="#0000ff" fill-rule="evenodd" fill-opacity="1" stroke="none"/>
<circle clip-path="url(#clip542)" cx="70.9921" cy="145.812" r="14" fill="#0000ff" fill-rule="evenodd" fill-opacity="1" stroke="none"/>
<circle clip-path="url(#clip542)" cx="70.9921" cy="245.58" r="14" fill="#0000ff" fill-rule="evenodd" fill-opacity="1" stroke="none"/>
<circle clip-path="url(#clip542)" cx="207.345" cy="145.812" r="14" fill="#0000ff" fill-rule="evenodd" fill-opacity="1" stroke="none"/>
<circle clip-path="url(#clip542)" cx="207.345" cy="245.58" r="14" fill="#0000ff" fill-rule="evenodd" fill-opacity="1" stroke="none"/>
<circle clip-path="url(#clip542)" cx="343.698" cy="145.812" r="14" fill="#0000ff" fill-rule="evenodd" fill-opacity="1" stroke="none"/>
<circle clip-path="url(#clip542)" cx="343.698" cy="245.58" r="14" fill="#0000ff" fill-rule="evenodd" fill-opacity="1" stroke="none"/>
<path clip-path="url(#clip540)" d="M 0 0 M143.387 85.2008 L155.627 85.2008 L155.627 88.1522 L139.169 88.1522 L139.169 85.2008 Q141.165 83.1349 144.603 79.6627 Q148.057 76.1731 148.943 75.1662 Q150.627 73.2738 151.286 71.9718 Q151.964 70.6523 151.964 69.385 Q151.964 67.319 150.505 66.0169 Q149.064 64.7148 146.738 64.7148 Q145.089 64.7148 143.248 65.2878 Q141.425 65.8607 139.342 67.0239 L139.342 63.4822 Q141.46 62.6315 143.3 62.1975 Q145.141 61.7635 146.668 61.7635 Q150.696 61.7635 153.092 63.7774 Q155.488 65.7912 155.488 69.1593 Q155.488 70.7565 154.88 72.1974 Q154.29 73.621 152.71 75.5655 Q152.276 76.069 149.95 78.4821 Q147.623 80.878 143.387 85.2008 Z" fill="#000000" fill-rule="evenodd" fill-opacity="1" /><path clip-path="url(#clip540)" d="M 0 0 M287.223 65.2878 L278.368 79.1245 L287.223 79.1245 L287.223 65.2878 M286.302 62.2322 L290.712 62.2322 L290.712 79.1245 L294.41 79.1245 L294.41 82.0411 L290.712 82.0411 L290.712 88.1522 L287.223 88.1522 L287.223 82.0411 L275.521 82.0411 L275.521 78.6557 L286.302 62.2322 Z" fill="#000000" fill-rule="evenodd" fill-opacity="1" /><path clip-path="url(#clip540)" d="M 0 0 M421.127 73.7947 Q418.766 73.7947 417.377 75.4092 Q416.006 77.0238 416.006 79.8363 Q416.006 82.6314 417.377 84.2634 Q418.766 85.8779 421.127 85.8779 Q423.489 85.8779 424.86 84.2634 Q426.249 82.6314 426.249 79.8363 Q426.249 77.0238 424.86 75.4092 Q423.489 73.7947 421.127 73.7947 M428.089 62.8051 L428.089 65.9996 Q426.77 65.3746 425.416 65.0447 Q424.079 64.7148 422.759 64.7148 Q419.287 64.7148 417.447 67.0586 Q415.624 69.4023 415.364 74.1419 Q416.388 72.6315 417.933 71.8329 Q419.478 71.0169 421.336 71.0169 Q425.242 71.0169 427.499 73.3954 Q429.773 75.7565 429.773 79.8363 Q429.773 83.8293 427.412 86.2425 Q425.051 88.6557 421.127 88.6557 Q416.631 88.6557 414.252 85.2182 Q411.874 81.7634 411.874 75.2183 Q411.874 69.0725 414.791 65.4266 Q417.707 61.7635 422.62 61.7635 Q423.94 61.7635 425.277 62.0239 Q426.631 62.2843 428.089 62.8051 Z" fill="#000000" fill-rule="evenodd" fill-opacity="1" /><path clip-path="url(#clip540)" d="M 0 0 M277.188 287.15 L277.188 283.955 Q278.507 284.58 279.862 284.91 Q281.216 285.24 282.518 285.24 Q285.99 285.24 287.813 282.914 Q289.653 280.57 289.914 275.813 Q288.907 277.306 287.361 278.105 Q285.816 278.903 283.941 278.903 Q280.052 278.903 277.778 276.56 Q275.521 274.199 275.521 270.119 Q275.521 266.126 277.882 263.713 Q280.243 261.299 284.167 261.299 Q288.664 261.299 291.025 264.754 Q293.403 268.192 293.403 274.754 Q293.403 280.883 290.486 284.546 Q287.587 288.192 282.674 288.192 Q281.355 288.192 280 287.931 Q278.646 287.671 277.188 287.15 M284.167 276.16 Q286.528 276.16 287.9 274.546 Q289.289 272.931 289.289 270.119 Q289.289 267.324 287.9 265.709 Q286.528 264.077 284.167 264.077 Q281.806 264.077 280.417 265.709 Q279.046 267.324 279.046 270.119 Q279.046 272.931 280.417 274.546 Q281.806 276.16 284.167 276.16 Z" fill="#000000" fill-rule="evenodd" fill-opacity="1" /><path clip-path="url(#clip540)" d="M 0 0 M276.025 384.505 L281.754 384.505 L281.754 364.73 L275.521 365.98 L275.521 362.786 L281.719 361.536 L285.226 361.536 L285.226 384.505 L290.955 384.505 L290.955 387.456 L276.025 387.456 L276.025 384.505 Z" fill="#000000" fill-rule="evenodd" fill-opacity="1" /><path clip-path="url(#clip540)" d="M 0 0 M305.538 363.845 Q302.83 363.845 301.459 366.519 Q300.104 369.175 300.104 374.522 Q300.104 379.852 301.459 382.526 Q302.83 385.182 305.538 385.182 Q308.264 385.182 309.618 382.526 Q310.99 379.852 310.99 374.522 Q310.99 369.175 309.618 366.519 Q308.264 363.845 305.538 363.845 M305.538 361.067 Q309.896 361.067 312.188 364.522 Q314.497 367.96 314.497 374.522 Q314.497 381.067 312.188 384.522 Q309.896 387.96 305.538 387.96 Q301.181 387.96 298.872 384.522 Q296.58 381.067 296.58 374.522 Q296.58 367.96 298.872 364.522 Q301.181 361.067 305.538 361.067 Z" fill="#000000" fill-rule="evenodd" fill-opacity="1" /><path clip-path="url(#clip540)" d="M 0 0 M412.377 284.737 L418.107 284.737 L418.107 264.963 L411.874 266.213 L411.874 263.018 L418.072 261.768 L421.579 261.768 L421.579 284.737 L427.308 284.737 L427.308 287.688 L412.377 287.688 L412.377 284.737 Z" fill="#000000" fill-rule="evenodd" fill-opacity="1" /><path clip-path="url(#clip540)" d="M 0 0 M434.999 284.737 L440.728 284.737 L440.728 264.963 L434.495 266.213 L434.495 263.018 L440.693 261.768 L444.2 261.768 L444.2 284.737 L449.929 284.737 L449.929 287.688 L434.999 287.688 L434.999 284.737 Z" fill="#000000" fill-rule="evenodd" fill-opacity="1" /><path clip-path="url(#clip540)" d="M 0 0 M412.377 384.505 L418.107 384.505 L418.107 364.73 L411.874 365.98 L411.874 362.786 L418.072 361.536 L421.579 361.536 L421.579 384.505 L427.308 384.505 L427.308 387.456 L412.377 387.456 L412.377 384.505 Z" fill="#000000" fill-rule="evenodd" fill-opacity="1" /><path clip-path="url(#clip540)" d="M 0 0 M437.412 384.505 L449.652 384.505 L449.652 387.456 L433.193 387.456 L433.193 384.505 Q435.19 382.439 438.627 378.967 Q442.082 375.477 442.968 374.47 Q444.652 372.578 445.311 371.276 Q445.988 369.956 445.988 368.689 Q445.988 366.623 444.53 365.321 Q443.089 364.019 440.763 364.019 Q439.113 364.019 437.273 364.592 Q435.45 365.165 433.367 366.328 L433.367 362.786 Q435.485 361.935 437.325 361.501 Q439.166 361.067 440.693 361.067 Q444.721 361.067 447.117 363.081 Q449.513 365.095 449.513 368.463 Q449.513 370.06 448.905 371.501 Q448.315 372.925 446.735 374.869 Q446.301 375.373 443.975 377.786 Q441.648 380.182 437.412 384.505 Z" fill="#000000" fill-rule="evenodd" fill-opacity="1" /><path clip-path="url(#clip540)" d="M 0 0 M71.4956 135.085 L77.2247 135.085 L77.2247 115.311 L70.9921 116.561 L70.9921 113.366 L77.19 112.116 L80.6969 112.116 L80.6969 135.085 L86.4261 135.085 L86.4261 138.036 L71.4956 138.036 L71.4956 135.085 Z" fill="#000000" fill-rule="evenodd" fill-opacity="1" /><path clip-path="url(#clip540)" d="M 0 0 M93.5441 112.116 L107.311 112.116 L107.311 115.068 L96.7559 115.068 L96.7559 121.422 Q97.5198 121.161 98.2836 121.04 Q99.0475 120.901 99.8114 120.901 Q104.152 120.901 106.686 123.279 Q109.221 125.658 109.221 129.72 Q109.221 133.904 106.617 136.231 Q104.013 138.54 99.2732 138.54 Q97.6413 138.54 95.9399 138.262 Q94.2559 137.984 92.4503 137.429 L92.4503 133.904 Q94.0128 134.755 95.6795 135.172 Q97.3462 135.588 99.2038 135.588 Q102.207 135.588 103.961 134.008 Q105.714 132.429 105.714 129.72 Q105.714 127.012 103.961 125.432 Q102.207 123.852 99.2038 123.852 Q97.7975 123.852 96.3913 124.165 Q95.0024 124.477 93.5441 125.137 L93.5441 112.116 Z" fill="#000000" fill-rule="evenodd" fill-opacity="1" /><path clip-path="url(#clip540)" d="M 0 0 M71.4956 234.853 L77.2247 234.853 L77.2247 215.079 L70.9921 216.329 L70.9921 213.134 L77.19 211.884 L80.6969 211.884 L80.6969 234.853 L86.4261 234.853 L86.4261 237.804 L71.4956 237.804 L71.4956 234.853 Z" fill="#000000" fill-rule="evenodd" fill-opacity="1" /><path clip-path="url(#clip540)" d="M 0 0 M101.443 223.447 Q99.0823 223.447 97.6934 225.061 Q96.3219 226.676 96.3219 229.488 Q96.3219 232.283 97.6934 233.915 Q99.0823 235.53 101.443 235.53 Q103.804 235.53 105.176 233.915 Q106.565 232.283 106.565 229.488 Q106.565 226.676 105.176 225.061 Q103.804 223.447 101.443 223.447 M108.405 212.457 L108.405 215.651 Q107.086 215.026 105.732 214.697 Q104.395 214.367 103.075 214.367 Q99.6031 214.367 97.7628 216.711 Q95.9399 219.054 95.6795 223.794 Q96.7038 222.283 98.2489 221.485 Q99.7941 220.669 101.652 220.669 Q105.558 220.669 107.815 223.047 Q110.089 225.408 110.089 229.488 Q110.089 233.481 107.728 235.894 Q105.367 238.308 101.443 238.308 Q96.9468 238.308 94.5684 234.87 Q92.1899 231.415 92.1899 224.87 Q92.1899 218.724 95.1066 215.079 Q98.0232 211.415 102.936 211.415 Q104.256 211.415 105.593 211.676 Q106.947 211.936 108.405 212.457 Z" fill="#000000" fill-rule="evenodd" fill-opacity="1" /><path clip-path="url(#clip540)" d="M 0 0 M207.848 135.085 L213.577 135.085 L213.577 115.311 L207.345 116.561 L207.345 113.366 L213.543 112.116 L217.05 112.116 L217.05 135.085 L222.779 135.085 L222.779 138.036 L207.848 138.036 L207.848 135.085 Z" fill="#000000" fill-rule="evenodd" fill-opacity="1" /><path clip-path="url(#clip540)" d="M 0 0 M228.977 112.116 L245.643 112.116 L245.643 113.609 L236.234 138.036 L232.57 138.036 L241.425 115.068 L228.977 115.068 L228.977 112.116 Z" fill="#000000" fill-rule="evenodd" fill-opacity="1" /><path clip-path="url(#clip540)" d="M 0 0 M207.848 234.853 L213.577 234.853 L213.577 215.079 L207.345 216.329 L207.345 213.134 L213.543 211.884 L217.05 211.884 L217.05 234.853 L222.779 234.853 L222.779 237.804 L207.848 237.804 L207.848 234.853 Z" fill="#000000" fill-rule="evenodd" fill-opacity="1" /><path clip-path="url(#clip540)" d="M 0 0 M237.362 225.495 Q234.862 225.495 233.421 226.832 Q231.998 228.169 231.998 230.513 Q231.998 232.856 233.421 234.193 Q234.862 235.53 237.362 235.53 Q239.862 235.53 241.303 234.193 Q242.744 232.839 242.744 230.513 Q242.744 228.169 241.303 226.832 Q239.879 225.495 237.362 225.495 M233.855 224.002 Q231.598 223.447 230.331 221.901 Q229.081 220.356 229.081 218.134 Q229.081 215.026 231.286 213.221 Q233.508 211.415 237.362 211.415 Q241.234 211.415 243.438 213.221 Q245.643 215.026 245.643 218.134 Q245.643 220.356 244.376 221.901 Q243.126 223.447 240.886 224.002 Q243.421 224.592 244.827 226.311 Q246.251 228.03 246.251 230.513 Q246.251 234.28 243.942 236.294 Q241.65 238.308 237.362 238.308 Q233.074 238.308 230.765 236.294 Q228.473 234.28 228.473 230.513 Q228.473 228.03 229.897 226.311 Q231.32 224.592 233.855 224.002 M232.57 218.464 Q232.57 220.478 233.82 221.606 Q235.088 222.735 237.362 222.735 Q239.619 222.735 240.886 221.606 Q242.171 220.478 242.171 218.464 Q242.171 216.45 240.886 215.322 Q239.619 214.193 237.362 214.193 Q235.088 214.193 233.82 215.322 Q232.57 216.45 232.57 218.464 Z" fill="#000000" fill-rule="evenodd" fill-opacity="1" /><path clip-path="url(#clip540)" d="M 0 0 M344.201 135.085 L349.93 135.085 L349.93 115.311 L343.698 116.561 L343.698 113.366 L349.896 112.116 L353.402 112.116 L353.402 135.085 L359.132 135.085 L359.132 138.036 L344.201 138.036 L344.201 135.085 Z" fill="#000000" fill-rule="evenodd" fill-opacity="1" /><path clip-path="url(#clip540)" d="M 0 0 M366.319 137.498 L366.319 134.304 Q367.638 134.929 368.993 135.258 Q370.347 135.588 371.649 135.588 Q375.121 135.588 376.944 133.262 Q378.784 130.918 379.045 126.161 Q378.038 127.654 376.493 128.453 Q374.947 129.252 373.072 129.252 Q369.184 129.252 366.909 126.908 Q364.652 124.547 364.652 120.467 Q364.652 116.474 367.013 114.061 Q369.375 111.647 373.298 111.647 Q377.795 111.647 380.156 115.102 Q382.534 118.54 382.534 125.102 Q382.534 131.231 379.618 134.894 Q376.718 138.54 371.805 138.54 Q370.486 138.54 369.132 138.279 Q367.777 138.019 366.319 137.498 M373.298 126.508 Q375.659 126.508 377.031 124.894 Q378.42 123.279 378.42 120.467 Q378.42 117.672 377.031 116.057 Q375.659 114.425 373.298 114.425 Q370.937 114.425 369.548 116.057 Q368.177 117.672 368.177 120.467 Q368.177 123.279 369.548 124.894 Q370.937 126.508 373.298 126.508 Z" fill="#000000" fill-rule="evenodd" fill-opacity="1" /><path clip-path="url(#clip540)" d="M 0 0 M347.916 234.853 L360.156 234.853 L360.156 237.804 L343.698 237.804 L343.698 234.853 Q345.694 232.787 349.132 229.315 Q352.586 225.825 353.472 224.818 Q355.156 222.926 355.816 221.624 Q356.493 220.304 356.493 219.037 Q356.493 216.971 355.034 215.669 Q353.593 214.367 351.267 214.367 Q349.618 214.367 347.777 214.94 Q345.955 215.513 343.871 216.676 L343.871 213.134 Q345.989 212.283 347.83 211.849 Q349.67 211.415 351.198 211.415 Q355.225 211.415 357.621 213.429 Q360.017 215.443 360.017 218.811 Q360.017 220.408 359.409 221.849 Q358.819 223.273 357.239 225.217 Q356.805 225.721 354.479 228.134 Q352.152 230.53 347.916 234.853 Z" fill="#000000" fill-rule="evenodd" fill-opacity="1" /><path clip-path="url(#clip540)" d="M 0 0 M375.017 214.193 Q372.309 214.193 370.937 216.867 Q369.583 219.523 369.583 224.87 Q369.583 230.2 370.937 232.874 Q372.309 235.53 375.017 235.53 Q377.743 235.53 379.097 232.874 Q380.468 230.2 380.468 224.87 Q380.468 219.523 379.097 216.867 Q377.743 214.193 375.017 214.193 M375.017 211.415 Q379.375 211.415 381.666 214.87 Q383.975 218.308 383.975 224.87 Q383.975 231.415 381.666 234.87 Q379.375 238.308 375.017 238.308 Q370.659 238.308 368.35 234.87 Q366.059 231.415 366.059 224.87 Q366.059 218.308 368.35 214.87 Q370.659 211.415 375.017 211.415 Z" fill="#000000" fill-rule="evenodd" fill-opacity="1" /><circle clip-path="url(#clip542)" cx="548.227" cy="894.072" r="14" fill="#0000ff" fill-rule="evenodd" fill-opacity="1" stroke="none"/>
<circle clip-path="url(#clip542)" cx="684.58" cy="894.072" r="14" fill="#0000ff" fill-rule="evenodd" fill-opacity="1" stroke="none"/>
<circle clip-path="url(#clip542)" cx="548.227" cy="594.768" r="14" fill="#0000ff" fill-rule="evenodd" fill-opacity="1" stroke="none"/>
<circle clip-path="url(#clip542)" cx="548.227" cy="694.536" r="14" fill="#0000ff" fill-rule="evenodd" fill-opacity="1" stroke="none"/>
<circle clip-path="url(#clip542)" cx="752.756" cy="744.42" r="14" fill="#0000ff" fill-rule="evenodd" fill-opacity="1" stroke="none"/>
<circle clip-path="url(#clip542)" cx="752.756" cy="844.188" r="14" fill="#0000ff" fill-rule="evenodd" fill-opacity="1" stroke="none"/>
<circle clip-path="url(#clip542)" cx="480.05" cy="744.42" r="14" fill="#0000ff" fill-rule="evenodd" fill-opacity="1" stroke="none"/>
<circle clip-path="url(#clip542)" cx="480.05" cy="844.188" r="14" fill="#0000ff" fill-rule="evenodd" fill-opacity="1" stroke="none"/>
<circle clip-path="url(#clip542)" cx="616.403" cy="744.42" r="14" fill="#0000ff" fill-rule="evenodd" fill-opacity="1" stroke="none"/>
<circle clip-path="url(#clip542)" cx="616.403" cy="844.188" r="14" fill="#0000ff" fill-rule="evenodd" fill-opacity="1" stroke="none"/>
<path clip-path="url(#clip540)" d="M 0 0 M548.73 883.344 L554.459 883.344 L554.459 863.57 L548.227 864.82 L548.227 861.626 L554.425 860.376 L557.932 860.376 L557.932 883.344 L563.661 883.344 L563.661 886.296 L548.73 886.296 L548.73 883.344 Z" fill="#000000" fill-rule="evenodd" fill-opacity="1" /><path clip-path="url(#clip540)" d="M 0 0 M696.298 872.32 Q698.816 872.858 700.222 874.56 Q701.645 876.261 701.645 878.761 Q701.645 882.598 699.007 884.699 Q696.368 886.799 691.507 886.799 Q689.875 886.799 688.139 886.469 Q686.42 886.157 684.58 885.515 L684.58 882.129 Q686.038 882.98 687.774 883.414 Q689.51 883.848 691.402 883.848 Q694.701 883.848 696.42 882.546 Q698.156 881.244 698.156 878.761 Q698.156 876.469 696.541 875.185 Q694.944 873.883 692.079 873.883 L689.059 873.883 L689.059 871.001 L692.218 871.001 Q694.805 871.001 696.177 869.976 Q697.548 868.935 697.548 866.99 Q697.548 864.994 696.125 863.935 Q694.718 862.858 692.079 862.858 Q690.639 862.858 688.989 863.171 Q687.34 863.483 685.361 864.143 L685.361 861.018 Q687.357 860.463 689.093 860.185 Q690.847 859.907 692.392 859.907 Q696.385 859.907 698.711 861.73 Q701.038 863.535 701.038 866.626 Q701.038 868.779 699.805 870.272 Q698.573 871.747 696.298 872.32 Z" fill="#000000" fill-rule="evenodd" fill-opacity="1" /><path clip-path="url(#clip540)" d="M 0 0 M548.227 561.072 L564.893 561.072 L564.893 562.565 L555.484 586.992 L551.821 586.992 L560.675 564.023 L548.227 564.023 L548.227 561.072 Z" fill="#000000" fill-rule="evenodd" fill-opacity="1" /><path clip-path="url(#clip540)" d="M 0 0 M557.116 674.451 Q554.616 674.451 553.175 675.788 Q551.751 677.125 551.751 679.468 Q551.751 681.812 553.175 683.149 Q554.616 684.486 557.116 684.486 Q559.616 684.486 561.057 683.149 Q562.498 681.795 562.498 679.468 Q562.498 677.125 561.057 675.788 Q559.633 674.451 557.116 674.451 M553.609 672.958 Q551.352 672.402 550.084 670.857 Q548.834 669.312 548.834 667.09 Q548.834 663.982 551.039 662.177 Q553.261 660.371 557.116 660.371 Q560.987 660.371 563.192 662.177 Q565.397 663.982 565.397 667.09 Q565.397 669.312 564.129 670.857 Q562.879 672.402 560.64 672.958 Q563.175 673.548 564.581 675.267 Q566.004 676.986 566.004 679.468 Q566.004 683.236 563.695 685.249 Q561.404 687.263 557.116 687.263 Q552.827 687.263 550.518 685.249 Q548.227 683.236 548.227 679.468 Q548.227 676.986 549.65 675.267 Q551.074 673.548 553.609 672.958 M552.324 667.42 Q552.324 669.434 553.574 670.562 Q554.841 671.691 557.116 671.691 Q559.373 671.691 560.64 670.562 Q561.925 669.434 561.925 667.42 Q561.925 665.406 560.64 664.277 Q559.373 663.149 557.116 663.149 Q554.841 663.149 553.574 664.277 Q552.324 665.406 552.324 667.42 Z" fill="#000000" fill-rule="evenodd" fill-opacity="1" /><path clip-path="url(#clip540)" d="M 0 0 M753.259 733.692 L758.989 733.692 L758.989 713.918 L752.756 715.168 L752.756 711.974 L758.954 710.724 L762.461 710.724 L762.461 733.692 L768.19 733.692 L768.19 736.644 L753.259 736.644 L753.259 733.692 Z" fill="#000000" fill-rule="evenodd" fill-opacity="1" /><path clip-path="url(#clip540)" d="M 0 0 M785.898 722.668 Q788.415 723.206 789.822 724.908 Q791.245 726.609 791.245 729.109 Q791.245 732.946 788.606 735.047 Q785.968 737.147 781.106 737.147 Q779.475 737.147 777.738 736.817 Q776.02 736.505 774.179 735.863 L774.179 732.477 Q775.638 733.328 777.374 733.762 Q779.11 734.196 781.002 734.196 Q784.301 734.196 786.02 732.894 Q787.756 731.592 787.756 729.109 Q787.756 726.818 786.141 725.533 Q784.544 724.231 781.679 724.231 L778.659 724.231 L778.659 721.349 L781.818 721.349 Q784.405 721.349 785.777 720.325 Q787.148 719.283 787.148 717.338 Q787.148 715.342 785.724 714.283 Q784.318 713.206 781.679 713.206 Q780.238 713.206 778.589 713.519 Q776.94 713.831 774.961 714.491 L774.961 711.366 Q776.957 710.811 778.693 710.533 Q780.447 710.255 781.992 710.255 Q785.985 710.255 788.311 712.078 Q790.638 713.884 790.638 716.974 Q790.638 719.127 789.405 720.62 Q788.172 722.095 785.898 722.668 Z" fill="#000000" fill-rule="evenodd" fill-opacity="1" /><path clip-path="url(#clip540)" d="M 0 0 M753.259 833.46 L758.989 833.46 L758.989 813.686 L752.756 814.936 L752.756 811.742 L758.954 810.492 L762.461 810.492 L762.461 833.46 L768.19 833.46 L768.19 836.412 L753.259 836.412 L753.259 833.46 Z" fill="#000000" fill-rule="evenodd" fill-opacity="1" /><path clip-path="url(#clip540)" d="M 0 0 M784.909 813.547 L776.054 827.384 L784.909 827.384 L784.909 813.547 M783.988 810.492 L788.398 810.492 L788.398 827.384 L792.096 827.384 L792.096 830.301 L788.398 830.301 L788.398 836.412 L784.909 836.412 L784.909 830.301 L773.207 830.301 L773.207 826.915 L783.988 810.492 Z" fill="#000000" fill-rule="evenodd" fill-opacity="1" /><path clip-path="url(#clip540)" d="M 0 0 M484.269 733.692 L496.509 733.692 L496.509 736.644 L480.05 736.644 L480.05 733.692 Q482.047 731.627 485.484 728.154 Q488.939 724.665 489.825 723.658 Q491.509 721.765 492.168 720.463 Q492.845 719.144 492.845 717.877 Q492.845 715.811 491.387 714.509 Q489.946 713.206 487.62 713.206 Q485.971 713.206 484.13 713.779 Q482.307 714.352 480.224 715.516 L480.224 711.974 Q482.342 711.123 484.182 710.689 Q486.023 710.255 487.55 710.255 Q491.578 710.255 493.974 712.269 Q496.37 714.283 496.37 717.651 Q496.37 719.248 495.762 720.689 Q495.172 722.113 493.592 724.057 Q493.158 724.561 490.832 726.974 Q488.505 729.37 484.269 733.692 Z" fill="#000000" fill-rule="evenodd" fill-opacity="1" /><path clip-path="url(#clip540)" d="M 0 0 M504.477 733.692 L510.206 733.692 L510.206 713.918 L503.974 715.168 L503.974 711.974 L510.172 710.724 L513.679 710.724 L513.679 733.692 L519.408 733.692 L519.408 736.644 L504.477 736.644 L504.477 733.692 Z" fill="#000000" fill-rule="evenodd" fill-opacity="1" /><path clip-path="url(#clip540)" d="M 0 0 M484.269 833.46 L496.509 833.46 L496.509 836.412 L480.05 836.412 L480.05 833.46 Q482.047 831.394 485.484 827.922 Q488.939 824.433 489.825 823.426 Q491.509 821.533 492.168 820.231 Q492.845 818.912 492.845 817.645 Q492.845 815.579 491.387 814.277 Q489.946 812.974 487.62 812.974 Q485.971 812.974 484.13 813.547 Q482.307 814.12 480.224 815.283 L480.224 811.742 Q482.342 810.891 484.182 810.457 Q486.023 810.023 487.55 810.023 Q491.578 810.023 493.974 812.037 Q496.37 814.051 496.37 817.419 Q496.37 819.016 495.762 820.457 Q495.172 821.881 493.592 823.825 Q493.158 824.329 490.832 826.742 Q488.505 829.138 484.269 833.46 Z" fill="#000000" fill-rule="evenodd" fill-opacity="1" /><path clip-path="url(#clip540)" d="M 0 0 M506.891 833.46 L519.13 833.46 L519.13 836.412 L502.672 836.412 L502.672 833.46 Q504.668 831.394 508.106 827.922 Q511.561 824.433 512.446 823.426 Q514.13 821.533 514.79 820.231 Q515.467 818.912 515.467 817.645 Q515.467 815.579 514.009 814.277 Q512.568 812.974 510.241 812.974 Q508.592 812.974 506.752 813.547 Q504.929 814.12 502.845 815.283 L502.845 811.742 Q504.963 810.891 506.804 810.457 Q508.644 810.023 510.172 810.023 Q514.2 810.023 516.595 812.037 Q518.991 814.051 518.991 817.419 Q518.991 819.016 518.384 820.457 Q517.793 821.881 516.213 823.825 Q515.779 824.329 513.453 826.742 Q511.127 829.138 506.891 833.46 Z" fill="#000000" fill-rule="evenodd" fill-opacity="1" /><path clip-path="url(#clip540)" d="M 0 0 M620.622 733.692 L632.861 733.692 L632.861 736.644 L616.403 736.644 L616.403 733.692 Q618.4 731.627 621.837 728.154 Q625.292 724.665 626.177 723.658 Q627.861 721.765 628.521 720.463 Q629.198 719.144 629.198 717.877 Q629.198 715.811 627.74 714.509 Q626.299 713.206 623.973 713.206 Q622.323 713.206 620.483 713.779 Q618.66 714.352 616.577 715.516 L616.577 711.974 Q618.695 711.123 620.535 710.689 Q622.375 710.255 623.903 710.255 Q627.931 710.255 630.327 712.269 Q632.723 714.283 632.723 717.651 Q632.723 719.248 632.115 720.689 Q631.525 722.113 629.945 724.057 Q629.511 724.561 627.184 726.974 Q624.858 729.37 620.622 733.692 Z" fill="#000000" fill-rule="evenodd" fill-opacity="1" /><path clip-path="url(#clip540)" d="M 0 0 M650.847 722.668 Q653.365 723.206 654.771 724.908 Q656.195 726.609 656.195 729.109 Q656.195 732.946 653.556 735.047 Q650.917 737.147 646.056 737.147 Q644.424 737.147 642.688 736.817 Q640.969 736.505 639.129 735.863 L639.129 732.477 Q640.587 733.328 642.323 733.762 Q644.059 734.196 645.952 734.196 Q649.25 734.196 650.969 732.894 Q652.705 731.592 652.705 729.109 Q652.705 726.818 651.09 725.533 Q649.493 724.231 646.629 724.231 L643.608 724.231 L643.608 721.349 L646.768 721.349 Q649.354 721.349 650.726 720.325 Q652.097 719.283 652.097 717.338 Q652.097 715.342 650.674 714.283 Q649.268 713.206 646.629 713.206 Q645.188 713.206 643.538 713.519 Q641.889 713.831 639.91 714.491 L639.91 711.366 Q641.906 710.811 643.643 710.533 Q645.396 710.255 646.941 710.255 Q650.934 710.255 653.261 712.078 Q655.587 713.884 655.587 716.974 Q655.587 719.127 654.354 720.62 Q653.122 722.095 650.847 722.668 Z" fill="#000000" fill-rule="evenodd" fill-opacity="1" /><path clip-path="url(#clip540)" d="M 0 0 M620.622 833.46 L632.861 833.46 L632.861 836.412 L616.403 836.412 L616.403 833.46 Q618.4 831.394 621.837 827.922 Q625.292 824.433 626.177 823.426 Q627.861 821.533 628.521 820.231 Q629.198 818.912 629.198 817.645 Q629.198 815.579 627.74 814.277 Q626.299 812.974 623.973 812.974 Q622.323 812.974 620.483 813.547 Q618.66 814.12 616.577 815.283 L616.577 811.742 Q618.695 810.891 620.535 810.457 Q622.375 810.023 623.903 810.023 Q627.931 810.023 630.327 812.037 Q632.723 814.051 632.723 817.419 Q632.723 819.016 632.115 820.457 Q631.525 821.881 629.945 823.825 Q629.511 824.329 627.184 826.742 Q624.858 829.138 620.622 833.46 Z" fill="#000000" fill-rule="evenodd" fill-opacity="1" /><path clip-path="url(#clip540)" d="M 0 0 M649.858 813.547 L641.004 827.384 L649.858 827.384 L649.858 813.547 M648.938 810.492 L653.347 810.492 L653.347 827.384 L657.045 827.384 L657.045 830.301 L653.347 830.301 L653.347 836.412 L649.858 836.412 L649.858 830.301 L638.157 830.301 L638.157 826.915 L648.938 810.492 Z" fill="#000000" fill-rule="evenodd" fill-opacity="1" /><circle clip-path="url(#clip542)" cx="548.227" cy="295.464" r="14" fill="#0000ff" fill-rule="evenodd" fill-opacity="1" stroke="none"/>
<circle clip-path="url(#clip542)" cx="548.227" cy="395.232" r="14" fill="#0000ff" fill-rule="evenodd" fill-opacity="1" stroke="none"/>
<circle clip-path="url(#clip542)" cx="684.58" cy="295.464" r="14" fill="#0000ff" fill-rule="evenodd" fill-opacity="1" stroke="none"/>
<circle clip-path="url(#clip542)" cx="684.58" cy="395.232" r="14" fill="#0000ff" fill-rule="evenodd" fill-opacity="1" stroke="none"/>
<circle clip-path="url(#clip542)" cx="548.227" cy="95.9282" r="14" fill="#0000ff" fill-rule="evenodd" fill-opacity="1" stroke="none"/>
<circle clip-path="url(#clip542)" cx="684.58" cy="594.768" r="14" fill="#0000ff" fill-rule="evenodd" fill-opacity="1" stroke="none"/>
<circle clip-path="url(#clip542)" cx="684.58" cy="694.536" r="14" fill="#0000ff" fill-rule="evenodd" fill-opacity="1" stroke="none"/>
<circle clip-path="url(#clip542)" cx="752.756" cy="145.812" r="14" fill="#0000ff" fill-rule="evenodd" fill-opacity="1" stroke="none"/>
<circle clip-path="url(#clip542)" cx="752.756" cy="245.58" r="14" fill="#0000ff" fill-rule="evenodd" fill-opacity="1" stroke="none"/>
<circle clip-path="url(#clip542)" cx="480.05" cy="445.116" r="14" fill="#0000ff" fill-rule="evenodd" fill-opacity="1" stroke="none"/>
<circle clip-path="url(#clip542)" cx="480.05" cy="544.884" r="14" fill="#0000ff" fill-rule="evenodd" fill-opacity="1" stroke="none"/>
<circle clip-path="url(#clip542)" cx="616.403" cy="445.116" r="14" fill="#0000ff" fill-rule="evenodd" fill-opacity="1" stroke="none"/>
<circle clip-path="url(#clip542)" cx="616.403" cy="544.884" r="14" fill="#0000ff" fill-rule="evenodd" fill-opacity="1" stroke="none"/>
<circle clip-path="url(#clip542)" cx="752.756" cy="445.116" r="14" fill="#0000ff" fill-rule="evenodd" fill-opacity="1" stroke="none"/>
<circle clip-path="url(#clip542)" cx="752.756" cy="544.884" r="14" fill="#0000ff" fill-rule="evenodd" fill-opacity="1" stroke="none"/>
<circle clip-path="url(#clip542)" cx="480.05" cy="145.812" r="14" fill="#0000ff" fill-rule="evenodd" fill-opacity="1" stroke="none"/>
<circle clip-path="url(#clip542)" cx="480.05" cy="245.58" r="14" fill="#0000ff" fill-rule="evenodd" fill-opacity="1" stroke="none"/>
<circle clip-path="url(#clip542)" cx="616.403" cy="145.812" r="14" fill="#0000ff" fill-rule="evenodd" fill-opacity="1" stroke="none"/>
<circle clip-path="url(#clip542)" cx="616.403" cy="245.58" r="14" fill="#0000ff" fill-rule="evenodd" fill-opacity="1" stroke="none"/>
<path clip-path="url(#clip540)" d="M 0 0 M548.73 284.737 L554.459 284.737 L554.459 264.963 L548.227 266.213 L548.227 263.018 L554.425 261.768 L557.932 261.768 L557.932 284.737 L563.661 284.737 L563.661 287.688 L548.73 287.688 L548.73 284.737 Z" fill="#000000" fill-rule="evenodd" fill-opacity="1" /><path clip-path="url(#clip540)" d="M 0 0 M552.445 384.505 L564.685 384.505 L564.685 387.456 L548.227 387.456 L548.227 384.505 Q550.223 382.439 553.661 378.967 Q557.116 375.477 558.001 374.47 Q559.685 372.578 560.345 371.276 Q561.022 369.956 561.022 368.689 Q561.022 366.623 559.564 365.321 Q558.123 364.019 555.796 364.019 Q554.147 364.019 552.307 364.592 Q550.484 365.165 548.4 366.328 L548.4 362.786 Q550.518 361.935 552.359 361.501 Q554.199 361.067 555.727 361.067 Q559.754 361.067 562.15 363.081 Q564.546 365.095 564.546 368.463 Q564.546 370.06 563.938 371.501 Q563.348 372.925 561.768 374.869 Q561.334 375.373 559.008 377.786 Q556.682 380.182 552.445 384.505 Z" fill="#000000" fill-rule="evenodd" fill-opacity="1" /><path clip-path="url(#clip540)" d="M 0 0 M696.298 273.712 Q698.816 274.251 700.222 275.952 Q701.645 277.653 701.645 280.153 Q701.645 283.99 699.007 286.091 Q696.368 288.192 691.507 288.192 Q689.875 288.192 688.139 287.862 Q686.42 287.549 684.58 286.907 L684.58 283.521 Q686.038 284.372 687.774 284.806 Q689.51 285.24 691.402 285.24 Q694.701 285.24 696.42 283.938 Q698.156 282.636 698.156 280.153 Q698.156 277.862 696.541 276.577 Q694.944 275.275 692.079 275.275 L689.059 275.275 L689.059 272.393 L692.218 272.393 Q694.805 272.393 696.177 271.369 Q697.548 270.327 697.548 268.383 Q697.548 266.386 696.125 265.327 Q694.718 264.251 692.079 264.251 Q690.639 264.251 688.989 264.563 Q687.34 264.876 685.361 265.535 L685.361 262.41 Q687.357 261.855 689.093 261.577 Q690.847 261.299 692.392 261.299 Q696.385 261.299 698.711 263.122 Q701.038 264.928 701.038 268.018 Q701.038 270.171 699.805 271.664 Q698.573 273.14 696.298 273.712 Z" fill="#000000" fill-rule="evenodd" fill-opacity="1" /><path clip-path="url(#clip540)" d="M 0 0 M696.281 364.592 L687.427 378.428 L696.281 378.428 L696.281 364.592 M695.361 361.536 L699.77 361.536 L699.77 378.428 L703.468 378.428 L703.468 381.345 L699.77 381.345 L699.77 387.456 L696.281 387.456 L696.281 381.345 L684.58 381.345 L684.58 377.96 L695.361 361.536 Z" fill="#000000" fill-rule="evenodd" fill-opacity="1" /><path clip-path="url(#clip540)" d="M 0 0 M557.116 75.8433 Q554.616 75.8433 553.175 77.1801 Q551.751 78.5169 551.751 80.8606 Q551.751 83.2043 553.175 84.5411 Q554.616 85.8779 557.116 85.8779 Q559.616 85.8779 561.057 84.5411 Q562.498 83.187 562.498 80.8606 Q562.498 78.5169 561.057 77.1801 Q559.633 75.8433 557.116 75.8433 M553.609 74.3502 Q551.352 73.7947 550.084 72.2495 Q548.834 70.7044 548.834 68.4822 Q548.834 65.3746 551.039 63.569 Q553.261 61.7635 557.116 61.7635 Q560.987 61.7635 563.192 63.569 Q565.397 65.3746 565.397 68.4822 Q565.397 70.7044 564.129 72.2495 Q562.879 73.7947 560.64 74.3502 Q563.175 74.9405 564.581 76.6592 Q566.004 78.378 566.004 80.8606 Q566.004 84.6279 563.695 86.6418 Q561.404 88.6557 557.116 88.6557 Q552.827 88.6557 550.518 86.6418 Q548.227 84.6279 548.227 80.8606 Q548.227 78.378 549.65 76.6592 Q551.074 74.9405 553.609 74.3502 M552.324 68.812 Q552.324 70.8259 553.574 71.9544 Q554.841 73.0829 557.116 73.0829 Q559.373 73.0829 560.64 71.9544 Q561.925 70.8259 561.925 68.812 Q561.925 66.7982 560.64 65.6697 Q559.373 64.5412 557.116 64.5412 Q554.841 64.5412 553.574 65.6697 Q552.324 66.7982 552.324 68.812 Z" fill="#000000" fill-rule="evenodd" fill-opacity="1" /><path clip-path="url(#clip540)" d="M 0 0 M686.246 586.454 L686.246 583.259 Q687.566 583.884 688.92 584.214 Q690.274 584.544 691.576 584.544 Q695.048 584.544 696.871 582.218 Q698.711 579.874 698.972 575.117 Q697.965 576.61 696.42 577.409 Q694.875 578.207 693 578.207 Q689.111 578.207 686.836 575.864 Q684.58 573.502 684.58 569.423 Q684.58 565.43 686.941 563.016 Q689.302 560.603 693.225 560.603 Q697.722 560.603 700.083 564.058 Q702.461 567.496 702.461 574.058 Q702.461 580.186 699.545 583.85 Q696.645 587.495 691.732 587.495 Q690.413 587.495 689.059 587.235 Q687.705 586.975 686.246 586.454 M693.225 575.464 Q695.586 575.464 696.958 573.85 Q698.347 572.235 698.347 569.423 Q698.347 566.627 696.958 565.013 Q695.586 563.381 693.225 563.381 Q690.864 563.381 689.475 565.013 Q688.104 566.627 688.104 569.423 Q688.104 572.235 689.475 573.85 Q690.864 575.464 693.225 575.464 Z" fill="#000000" fill-rule="evenodd" fill-opacity="1" /><path clip-path="url(#clip540)" d="M 0 0 M685.083 683.809 L690.812 683.809 L690.812 664.034 L684.58 665.284 L684.58 662.09 L690.777 660.84 L694.284 660.84 L694.284 683.809 L700.013 683.809 L700.013 686.76 L685.083 686.76 L685.083 683.809 Z" fill="#000000" fill-rule="evenodd" fill-opacity="1" /><path clip-path="url(#clip540)" d="M 0 0 M714.597 663.149 Q711.888 663.149 710.517 665.823 Q709.163 668.479 709.163 673.826 Q709.163 679.156 710.517 681.829 Q711.888 684.486 714.597 684.486 Q717.322 684.486 718.677 681.829 Q720.048 679.156 720.048 673.826 Q720.048 668.479 718.677 665.823 Q717.322 663.149 714.597 663.149 M714.597 660.371 Q718.954 660.371 721.246 663.826 Q723.555 667.263 723.555 673.826 Q723.555 680.371 721.246 683.826 Q718.954 687.263 714.597 687.263 Q710.239 687.263 707.93 683.826 Q705.638 680.371 705.638 673.826 Q705.638 667.263 707.93 663.826 Q710.239 660.371 714.597 660.371 Z" fill="#000000" fill-rule="evenodd" fill-opacity="1" /><path clip-path="url(#clip540)" d="M 0 0 M753.259 135.085 L758.989 135.085 L758.989 115.311 L752.756 116.561 L752.756 113.366 L758.954 112.116 L762.461 112.116 L762.461 135.085 L768.19 135.085 L768.19 138.036 L753.259 138.036 L753.259 135.085 Z" fill="#000000" fill-rule="evenodd" fill-opacity="1" /><path clip-path="url(#clip540)" d="M 0 0 M785.898 124.061 Q788.415 124.599 789.822 126.3 Q791.245 128.002 791.245 130.502 Q791.245 134.338 788.606 136.439 Q785.968 138.54 781.106 138.54 Q779.475 138.54 777.738 138.21 Q776.02 137.897 774.179 137.255 L774.179 133.87 Q775.638 134.72 777.374 135.154 Q779.11 135.588 781.002 135.588 Q784.301 135.588 786.02 134.286 Q787.756 132.984 787.756 130.502 Q787.756 128.21 786.141 126.925 Q784.544 125.623 781.679 125.623 L778.659 125.623 L778.659 122.741 L781.818 122.741 Q784.405 122.741 785.777 121.717 Q787.148 120.675 787.148 118.731 Q787.148 116.734 785.724 115.675 Q784.318 114.599 781.679 114.599 Q780.238 114.599 778.589 114.911 Q776.94 115.224 774.961 115.884 L774.961 112.759 Q776.957 112.203 778.693 111.925 Q780.447 111.647 781.992 111.647 Q785.985 111.647 788.311 113.47 Q790.638 115.276 790.638 118.366 Q790.638 120.519 789.405 122.012 Q788.172 123.488 785.898 124.061 Z" fill="#000000" fill-rule="evenodd" fill-opacity="1" /><path clip-path="url(#clip540)" d="M 0 0 M753.259 234.853 L758.989 234.853 L758.989 215.079 L752.756 216.329 L752.756 213.134 L758.954 211.884 L762.461 211.884 L762.461 234.853 L768.19 234.853 L768.19 237.804 L753.259 237.804 L753.259 234.853 Z" fill="#000000" fill-rule="evenodd" fill-opacity="1" /><path clip-path="url(#clip540)" d="M 0 0 M784.909 214.94 L776.054 228.776 L784.909 228.776 L784.909 214.94 M783.988 211.884 L788.398 211.884 L788.398 228.776 L792.096 228.776 L792.096 231.693 L788.398 231.693 L788.398 237.804 L784.909 237.804 L784.909 231.693 L773.207 231.693 L773.207 228.308 L783.988 211.884 Z" fill="#000000" fill-rule="evenodd" fill-opacity="1" /><path clip-path="url(#clip540)" d="M 0 0 M480.554 434.389 L486.283 434.389 L486.283 414.614 L480.05 415.864 L480.05 412.67 L486.248 411.42 L489.755 411.42 L489.755 434.389 L495.484 434.389 L495.484 437.34 L480.554 437.34 L480.554 434.389 Z" fill="#000000" fill-rule="evenodd" fill-opacity="1" /><path clip-path="url(#clip540)" d="M 0 0 M502.602 411.42 L516.37 411.42 L516.37 414.371 L505.814 414.371 L505.814 420.726 Q506.578 420.465 507.342 420.344 Q508.106 420.205 508.87 420.205 Q513.21 420.205 515.745 422.583 Q518.279 424.962 518.279 429.024 Q518.279 433.208 515.675 435.534 Q513.071 437.843 508.331 437.843 Q506.7 437.843 504.998 437.566 Q503.314 437.288 501.509 436.732 L501.509 433.208 Q503.071 434.059 504.738 434.475 Q506.404 434.892 508.262 434.892 Q511.266 434.892 513.019 433.312 Q514.772 431.732 514.772 429.024 Q514.772 426.316 513.019 424.736 Q511.266 423.156 508.262 423.156 Q506.856 423.156 505.45 423.469 Q504.061 423.781 502.602 424.441 L502.602 411.42 Z" fill="#000000" fill-rule="evenodd" fill-opacity="1" /><path clip-path="url(#clip540)" d="M 0 0 M480.554 534.157 L486.283 534.157 L486.283 514.382 L480.05 515.632 L480.05 512.438 L486.248 511.188 L489.755 511.188 L489.755 534.157 L495.484 534.157 L495.484 537.108 L480.554 537.108 L480.554 534.157 Z" fill="#000000" fill-rule="evenodd" fill-opacity="1" /><path clip-path="url(#clip540)" d="M 0 0 M510.502 522.75 Q508.141 522.75 506.752 524.365 Q505.38 525.98 505.38 528.792 Q505.38 531.587 506.752 533.219 Q508.141 534.834 510.502 534.834 Q512.863 534.834 514.234 533.219 Q515.623 531.587 515.623 528.792 Q515.623 525.98 514.234 524.365 Q512.863 522.75 510.502 522.75 M517.463 511.761 L517.463 514.955 Q516.144 514.33 514.79 514 Q513.453 513.671 512.134 513.671 Q508.661 513.671 506.821 516.014 Q504.998 518.358 504.738 523.098 Q505.762 521.587 507.307 520.789 Q508.852 519.973 510.71 519.973 Q514.616 519.973 516.873 522.351 Q519.147 524.712 519.147 528.792 Q519.147 532.785 516.786 535.198 Q514.425 537.611 510.502 537.611 Q506.005 537.611 503.627 534.174 Q501.248 530.719 501.248 524.174 Q501.248 518.028 504.165 514.382 Q507.081 510.719 511.995 510.719 Q513.314 510.719 514.651 510.98 Q516.005 511.24 517.463 511.761 Z" fill="#000000" fill-rule="evenodd" fill-opacity="1" /><path clip-path="url(#clip540)" d="M 0 0 M616.907 434.389 L622.636 434.389 L622.636 414.614 L616.403 415.864 L616.403 412.67 L622.601 411.42 L626.108 411.42 L626.108 434.389 L631.837 434.389 L631.837 437.34 L616.907 437.34 L616.907 434.389 Z" fill="#000000" fill-rule="evenodd" fill-opacity="1" /><path clip-path="url(#clip540)" d="M 0 0 M638.035 411.42 L654.702 411.42 L654.702 412.913 L645.292 437.34 L641.629 437.34 L650.483 414.371 L638.035 414.371 L638.035 411.42 Z" fill="#000000" fill-rule="evenodd" fill-opacity="1" /><path clip-path="url(#clip540)" d="M 0 0 M616.907 534.157 L622.636 534.157 L622.636 514.382 L616.403 515.632 L616.403 512.438 L622.601 511.188 L626.108 511.188 L626.108 534.157 L631.837 534.157 L631.837 537.108 L616.907 537.108 L616.907 534.157 Z" fill="#000000" fill-rule="evenodd" fill-opacity="1" /><path clip-path="url(#clip540)" d="M 0 0 M646.42 524.799 Q643.92 524.799 642.479 526.136 Q641.056 527.473 641.056 529.816 Q641.056 532.16 642.479 533.497 Q643.92 534.834 646.42 534.834 Q648.92 534.834 650.361 533.497 Q651.802 532.143 651.802 529.816 Q651.802 527.473 650.361 526.136 Q648.938 524.799 646.42 524.799 M642.913 523.306 Q640.656 522.75 639.389 521.205 Q638.139 519.66 638.139 517.438 Q638.139 514.33 640.344 512.525 Q642.566 510.719 646.42 510.719 Q650.292 510.719 652.497 512.525 Q654.702 514.33 654.702 517.438 Q654.702 519.66 653.434 521.205 Q652.184 522.75 649.945 523.306 Q652.479 523.896 653.886 525.615 Q655.309 527.334 655.309 529.816 Q655.309 533.584 653 535.598 Q650.709 537.611 646.42 537.611 Q642.132 537.611 639.823 535.598 Q637.532 533.584 637.532 529.816 Q637.532 527.334 638.955 525.615 Q640.379 523.896 642.913 523.306 M641.629 517.768 Q641.629 519.782 642.879 520.91 Q644.146 522.039 646.42 522.039 Q648.677 522.039 649.945 520.91 Q651.229 519.782 651.229 517.768 Q651.229 515.754 649.945 514.625 Q648.677 513.497 646.42 513.497 Q644.146 513.497 642.879 514.625 Q641.629 515.754 641.629 517.768 Z" fill="#000000" fill-rule="evenodd" fill-opacity="1" /><path clip-path="url(#clip540)" d="M 0 0 M753.259 434.389 L758.989 434.389 L758.989 414.614 L752.756 415.864 L752.756 412.67 L758.954 411.42 L762.461 411.42 L762.461 434.389 L768.19 434.389 L768.19 437.34 L753.259 437.34 L753.259 434.389 Z" fill="#000000" fill-rule="evenodd" fill-opacity="1" /><path clip-path="url(#clip540)" d="M 0 0 M775.377 436.802 L775.377 433.607 Q776.697 434.232 778.051 434.562 Q779.405 434.892 780.707 434.892 Q784.179 434.892 786.002 432.566 Q787.843 430.222 788.103 425.465 Q787.096 426.958 785.551 427.757 Q784.006 428.555 782.131 428.555 Q778.242 428.555 775.968 426.212 Q773.711 423.851 773.711 419.771 Q773.711 415.778 776.072 413.364 Q778.433 410.951 782.356 410.951 Q786.853 410.951 789.214 414.406 Q791.593 417.844 791.593 424.406 Q791.593 430.535 788.676 434.198 Q785.777 437.843 780.863 437.843 Q779.544 437.843 778.19 437.583 Q776.836 437.323 775.377 436.802 M782.356 425.812 Q784.718 425.812 786.089 424.198 Q787.478 422.583 787.478 419.771 Q787.478 416.976 786.089 415.361 Q784.718 413.729 782.356 413.729 Q779.995 413.729 778.606 415.361 Q777.235 416.976 777.235 419.771 Q777.235 422.583 778.606 424.198 Q779.995 425.812 782.356 425.812 Z" fill="#000000" fill-rule="evenodd" fill-opacity="1" /><path clip-path="url(#clip540)" d="M 0 0 M756.975 534.157 L769.214 534.157 L769.214 537.108 L752.756 537.108 L752.756 534.157 Q754.752 532.091 758.19 528.618 Q761.645 525.129 762.53 524.122 Q764.214 522.23 764.874 520.928 Q765.551 519.608 765.551 518.341 Q765.551 516.275 764.093 514.973 Q762.652 513.671 760.325 513.671 Q758.676 513.671 756.836 514.244 Q755.013 514.816 752.93 515.98 L752.93 512.438 Q755.048 511.587 756.888 511.153 Q758.728 510.719 760.256 510.719 Q764.284 510.719 766.679 512.733 Q769.075 514.747 769.075 518.115 Q769.075 519.712 768.468 521.153 Q767.877 522.577 766.297 524.521 Q765.863 525.025 763.537 527.438 Q761.211 529.834 756.975 534.157 Z" fill="#000000" fill-rule="evenodd" fill-opacity="1" /><path clip-path="url(#clip540)" d="M 0 0 M784.075 513.497 Q781.367 513.497 779.995 516.171 Q778.641 518.827 778.641 524.174 Q778.641 529.504 779.995 532.177 Q781.367 534.834 784.075 534.834 Q786.801 534.834 788.155 532.177 Q789.527 529.504 789.527 524.174 Q789.527 518.827 788.155 516.171 Q786.801 513.497 784.075 513.497 M784.075 510.719 Q788.433 510.719 790.724 514.174 Q793.033 517.612 793.033 524.174 Q793.033 530.719 790.724 534.174 Q788.433 537.611 784.075 537.611 Q779.718 537.611 777.409 534.174 Q775.117 530.719 775.117 524.174 Q775.117 517.612 777.409 514.174 Q779.718 510.719 784.075 510.719 Z" fill="#000000" fill-rule="evenodd" fill-opacity="1" /><path clip-path="url(#clip540)" d="M 0 0 M484.269 135.085 L496.509 135.085 L496.509 138.036 L480.05 138.036 L480.05 135.085 Q482.047 133.019 485.484 129.547 Q488.939 126.057 489.825 125.05 Q491.509 123.158 492.168 121.856 Q492.845 120.536 492.845 119.269 Q492.845 117.203 491.387 115.901 Q489.946 114.599 487.62 114.599 Q485.971 114.599 484.13 115.172 Q482.307 115.745 480.224 116.908 L480.224 113.366 Q482.342 112.515 484.182 112.081 Q486.023 111.647 487.55 111.647 Q491.578 111.647 493.974 113.661 Q496.37 115.675 496.37 119.043 Q496.37 120.64 495.762 122.081 Q495.172 123.505 493.592 125.449 Q493.158 125.953 490.832 128.366 Q488.505 130.762 484.269 135.085 Z" fill="#000000" fill-rule="evenodd" fill-opacity="1" /><path clip-path="url(#clip540)" d="M 0 0 M504.477 135.085 L510.206 135.085 L510.206 115.311 L503.974 116.561 L503.974 113.366 L510.172 112.116 L513.679 112.116 L513.679 135.085 L519.408 135.085 L519.408 138.036 L504.477 138.036 L504.477 135.085 Z" fill="#000000" fill-rule="evenodd" fill-opacity="1" /><path clip-path="url(#clip540)" d="M 0 0 M484.269 234.853 L496.509 234.853 L496.509 237.804 L480.05 237.804 L480.05 234.853 Q482.047 232.787 485.484 229.315 Q488.939 225.825 489.825 224.818 Q491.509 222.926 492.168 221.624 Q492.845 220.304 492.845 219.037 Q492.845 216.971 491.387 215.669 Q489.946 214.367 487.62 214.367 Q485.971 214.367 484.13 214.94 Q482.307 215.513 480.224 216.676 L480.224 213.134 Q482.342 212.283 484.182 211.849 Q486.023 211.415 487.55 211.415 Q491.578 211.415 493.974 213.429 Q496.37 215.443 496.37 218.811 Q496.37 220.408 495.762 221.849 Q495.172 223.273 493.592 225.217 Q493.158 225.721 490.832 228.134 Q488.505 230.53 484.269 234.853 Z" fill="#000000" fill-rule="evenodd" fill-opacity="1" /><path clip-path="url(#clip540)" d="M 0 0 M506.891 234.853 L519.13 234.853 L519.13 237.804 L502.672 237.804 L502.672 234.853 Q504.668 232.787 508.106 229.315 Q511.561 225.825 512.446 224.818 Q514.13 222.926 514.79 221.624 Q515.467 220.304 515.467 219.037 Q515.467 216.971 514.009 215.669 Q512.568 214.367 510.241 214.367 Q508.592 214.367 506.752 214.94 Q504.929 215.513 502.845 216.676 L502.845 213.134 Q504.963 212.283 506.804 211.849 Q508.644 211.415 510.172 211.415 Q514.2 211.415 516.595 213.429 Q518.991 215.443 518.991 218.811 Q518.991 220.408 518.384 221.849 Q517.793 223.273 516.213 225.217 Q515.779 225.721 513.453 228.134 Q511.127 230.53 506.891 234.853 Z" fill="#000000" fill-rule="evenodd" fill-opacity="1" /><path clip-path="url(#clip540)" d="M 0 0 M620.622 135.085 L632.861 135.085 L632.861 138.036 L616.403 138.036 L616.403 135.085 Q618.4 133.019 621.837 129.547 Q625.292 126.057 626.177 125.05 Q627.861 123.158 628.521 121.856 Q629.198 120.536 629.198 119.269 Q629.198 117.203 627.74 115.901 Q626.299 114.599 623.973 114.599 Q622.323 114.599 620.483 115.172 Q618.66 115.745 616.577 116.908 L616.577 113.366 Q618.695 112.515 620.535 112.081 Q622.375 111.647 623.903 111.647 Q627.931 111.647 630.327 113.661 Q632.723 115.675 632.723 119.043 Q632.723 120.64 632.115 122.081 Q631.525 123.505 629.945 125.449 Q629.511 125.953 627.184 128.366 Q624.858 130.762 620.622 135.085 Z" fill="#000000" fill-rule="evenodd" fill-opacity="1" /><path clip-path="url(#clip540)" d="M 0 0 M650.847 124.061 Q653.365 124.599 654.771 126.3 Q656.195 128.002 656.195 130.502 Q656.195 134.338 653.556 136.439 Q650.917 138.54 646.056 138.54 Q644.424 138.54 642.688 138.21 Q640.969 137.897 639.129 137.255 L639.129 133.87 Q640.587 134.72 642.323 135.154 Q644.059 135.588 645.952 135.588 Q649.25 135.588 650.969 134.286 Q652.705 132.984 652.705 130.502 Q652.705 128.21 651.09 126.925 Q649.493 125.623 646.629 125.623 L643.608 125.623 L643.608 122.741 L646.768 122.741 Q649.354 122.741 650.726 121.717 Q652.097 120.675 652.097 118.731 Q652.097 116.734 650.674 115.675 Q649.268 114.599 646.629 114.599 Q645.188 114.599 643.538 114.911 Q641.889 115.224 639.91 115.884 L639.91 112.759 Q641.906 112.203 643.643 111.925 Q645.396 111.647 646.941 111.647 Q650.934 111.647 653.261 113.47 Q655.587 115.276 655.587 118.366 Q655.587 120.519 654.354 122.012 Q653.122 123.488 650.847 124.061 Z" fill="#000000" fill-rule="evenodd" fill-opacity="1" /><path clip-path="url(#clip540)" d="M 0 0 M620.622 234.853 L632.861 234.853 L632.861 237.804 L616.403 237.804 L616.403 234.853 Q618.4 232.787 621.837 229.315 Q625.292 225.825 626.177 224.818 Q627.861 222.926 628.521 221.624 Q629.198 220.304 629.198 219.037 Q629.198 216.971 627.74 215.669 Q626.299 214.367 623.973 214.367 Q622.323 214.367 620.483 214.94 Q618.66 215.513 616.577 216.676 L616.577 213.134 Q618.695 212.283 620.535 211.849 Q622.375 211.415 623.903 211.415 Q627.931 211.415 630.327 213.429 Q632.723 215.443 632.723 218.811 Q632.723 220.408 632.115 221.849 Q631.525 223.273 629.945 225.217 Q629.511 225.721 627.184 228.134 Q624.858 230.53 620.622 234.853 Z" fill="#000000" fill-rule="evenodd" fill-opacity="1" /><path clip-path="url(#clip540)" d="M 0 0 M649.858 214.94 L641.004 228.776 L649.858 228.776 L649.858 214.94 M648.938 211.884 L653.347 211.884 L653.347 228.776 L657.045 228.776 L657.045 231.693 L653.347 231.693 L653.347 237.804 L649.858 237.804 L649.858 231.693 L638.157 231.693 L638.157 228.308 L648.938 211.884 Z" fill="#000000" fill-rule="evenodd" fill-opacity="1" /><circle clip-path="url(#clip542)" cx="684.58" cy="95.9282" r="14" fill="#0000ff" fill-rule="evenodd" fill-opacity="1" stroke="none"/>
<path clip-path="url(#clip540)" d="M 0 0 M685.083 85.2008 L690.812 85.2008 L690.812 65.4266 L684.58 66.6766 L684.58 63.4822 L690.777 62.2322 L694.284 62.2322 L694.284 85.2008 L700.013 85.2008 L700.013 88.1522 L685.083 88.1522 L685.083 85.2008 Z" fill="#000000" fill-rule="evenodd" fill-opacity="1" /><path clip-path="url(#clip540)" d="M 0 0 M714.597 64.5412 Q711.888 64.5412 710.517 67.2148 Q709.163 69.8711 709.163 75.2183 Q709.163 80.5481 710.517 83.2217 Q711.888 85.8779 714.597 85.8779 Q717.322 85.8779 718.677 83.2217 Q720.048 80.5481 720.048 75.2183 Q720.048 69.8711 718.677 67.2148 Q717.322 64.5412 714.597 64.5412 M714.597 61.7635 Q718.954 61.7635 721.246 65.2183 Q723.555 68.6558 723.555 75.2183 Q723.555 81.7634 721.246 85.2182 Q718.954 88.6557 714.597 88.6557 Q710.239 88.6557 707.93 85.2182 Q705.638 81.7634 705.638 75.2183 Q705.638 68.6558 707.93 65.2183 Q710.239 61.7635 714.597 61.7635 Z" fill="#000000" fill-rule="evenodd" fill-opacity="1" /></svg>
