<?xml version="1.0" encoding="utf-8"?>
<svg xmlns="http://www.w3.org/2000/svg" xmlns:xlink="http://www.w3.org/1999/xlink" width="400" height="400" viewBox="0 0 1600 1600">
<defs>
  <clipPath id="clip950">
    <rect x="0" y="0" width="1600" height="1600"/>
  </clipPath>
</defs>
<path clip-path="url(#clip950)" d="
M0 1600 L1600 1600 L1600 0 L0 0  Z
  " fill="#ffffff" fill-rule="evenodd" fill-opacity="1"/>
<defs>
  <clipPath id="clip951">
    <rect x="320" y="160" width="1121" height="1121"/>
  </clipPath>
</defs>
<path clip-path="url(#clip950)" d="
M145.981 1521.01 L1485.77 1521.01 L1485.77 47.2441 L145.981 47.2441  Z
  " fill="#ffffff" fill-rule="evenodd" fill-opacity="1"/>
<defs>
  <clipPath id="clip952">
    <rect x="145" y="47" width="1341" height="1475"/>
  </clipPath>
</defs>
<polyline clip-path="url(#clip952)" style="stroke:#000000; stroke-width:2; stroke-opacity:0.1; fill:none" points="
  346.949,1521.01 346.949,47.2441 
  "/>
<polyline clip-path="url(#clip952)" style="stroke:#000000; stroke-width:2; stroke-opacity:0.1; fill:none" points="
  614.906,1521.01 614.906,47.2441 
  "/>
<polyline clip-path="url(#clip952)" style="stroke:#000000; stroke-width:2; stroke-opacity:0.1; fill:none" points="
  882.863,1521.01 882.863,47.2441 
  "/>
<polyline clip-path="url(#clip952)" style="stroke:#000000; stroke-width:2; stroke-opacity:0.1; fill:none" points="
  1150.82,1521.01 1150.82,47.2441 
  "/>
<polyline clip-path="url(#clip952)" style="stroke:#000000; stroke-width:2; stroke-opacity:0.1; fill:none" points="
  1418.78,1521.01 1418.78,47.2441 
  "/>
<polyline clip-path="url(#clip950)" style="stroke:#000000; stroke-width:4; stroke-opacity:1; fill:none" points="
  145.981,1521.01 1485.77,1521.01 
  "/>
<polyline clip-path="url(#clip950)" style="stroke:#000000; stroke-width:4; stroke-opacity:1; fill:none" points="
  346.949,1521.01 346.949,1503.32 
  "/>
<polyline clip-path="url(#clip950)" style="stroke:#000000; stroke-width:4; stroke-opacity:1; fill:none" points="
  614.906,1521.01 614.906,1503.32 
  "/>
<polyline clip-path="url(#clip950)" style="stroke:#000000; stroke-width:4; stroke-opacity:1; fill:none" points="
  882.863,1521.01 882.863,1503.32 
  "/>
<polyline clip-path="url(#clip950)" style="stroke:#000000; stroke-width:4; stroke-opacity:1; fill:none" points="
  1150.82,1521.01 1150.82,1503.32 
  "/>
<polyline clip-path="url(#clip950)" style="stroke:#000000; stroke-width:4; stroke-opacity:1; fill:none" points="
  1418.78,1521.01 1418.78,1503.32 
  "/>
<path clip-path="url(#clip950)" d="M 0 0 M316.891 1558.45 L346.567 1558.45 L346.567 1562.39 L316.891 1562.39 L316.891 1558.45 Z" fill="#000000" fill-rule="evenodd" fill-opacity="1" /><path clip-path="url(#clip950)" d="M 0 0 M360.688 1571.34 L377.007 1571.34 L377.007 1575.28 L355.063 1575.28 L355.063 1571.34 Q357.725 1568.59 362.308 1563.96 Q366.914 1559.31 368.095 1557.97 Q370.34 1555.44 371.22 1553.71 Q372.123 1551.95 372.123 1550.26 Q372.123 1547.5 370.178 1545.77 Q368.257 1544.03 365.155 1544.03 Q362.956 1544.03 360.502 1544.79 Q358.072 1545.56 355.294 1547.11 L355.294 1542.39 Q358.118 1541.25 360.572 1540.67 Q363.025 1540.09 365.063 1540.09 Q370.433 1540.09 373.627 1542.78 Q376.822 1545.47 376.822 1549.96 Q376.822 1552.09 376.012 1554.01 Q375.224 1555.9 373.118 1558.5 Q372.539 1559.17 369.437 1562.39 Q366.336 1565.58 360.688 1571.34 Z" fill="#000000" fill-rule="evenodd" fill-opacity="1" /><path clip-path="url(#clip950)" d="M 0 0 M614.906 1543.8 Q611.295 1543.8 609.466 1547.36 Q607.661 1550.91 607.661 1558.03 Q607.661 1565.14 609.466 1568.71 Q611.295 1572.25 614.906 1572.25 Q618.54 1572.25 620.346 1568.71 Q622.175 1565.14 622.175 1558.03 Q622.175 1550.91 620.346 1547.36 Q618.54 1543.8 614.906 1543.8 M614.906 1540.09 Q620.716 1540.09 623.772 1544.7 Q626.851 1549.28 626.851 1558.03 Q626.851 1566.76 623.772 1571.37 Q620.716 1575.95 614.906 1575.95 Q609.096 1575.95 606.017 1571.37 Q602.962 1566.76 602.962 1558.03 Q602.962 1549.28 606.017 1544.7 Q609.096 1540.09 614.906 1540.09 Z" fill="#000000" fill-rule="evenodd" fill-opacity="1" /><path clip-path="url(#clip950)" d="M 0 0 M877.516 1571.34 L893.835 1571.34 L893.835 1575.28 L871.891 1575.28 L871.891 1571.34 Q874.553 1568.59 879.136 1563.96 Q883.743 1559.31 884.923 1557.97 Q887.169 1555.44 888.048 1553.71 Q888.951 1551.95 888.951 1550.26 Q888.951 1547.5 887.007 1545.77 Q885.085 1544.03 881.984 1544.03 Q879.785 1544.03 877.331 1544.79 Q874.9 1545.56 872.123 1547.11 L872.123 1542.39 Q874.947 1541.25 877.4 1540.67 Q879.854 1540.09 881.891 1540.09 Q887.261 1540.09 890.456 1542.78 Q893.65 1545.47 893.65 1549.96 Q893.65 1552.09 892.84 1554.01 Q892.053 1555.9 889.947 1558.5 Q889.368 1559.17 886.266 1562.39 Q883.164 1565.58 877.516 1571.34 Z" fill="#000000" fill-rule="evenodd" fill-opacity="1" /><path clip-path="url(#clip950)" d="M 0 0 M1153.83 1544.79 L1142.02 1563.24 L1153.83 1563.24 L1153.83 1544.79 M1152.6 1540.72 L1158.48 1540.72 L1158.48 1563.24 L1163.41 1563.24 L1163.41 1567.13 L1158.48 1567.13 L1158.48 1575.28 L1153.83 1575.28 L1153.83 1567.13 L1138.23 1567.13 L1138.23 1562.62 L1152.6 1540.72 Z" fill="#000000" fill-rule="evenodd" fill-opacity="1" /><path clip-path="url(#clip950)" d="M 0 0 M1419.18 1556.14 Q1416.03 1556.14 1414.18 1558.29 Q1412.35 1560.44 1412.35 1564.19 Q1412.35 1567.92 1414.18 1570.09 Q1416.03 1572.25 1419.18 1572.25 Q1422.33 1572.25 1424.16 1570.09 Q1426.01 1567.92 1426.01 1564.19 Q1426.01 1560.44 1424.16 1558.29 Q1422.33 1556.14 1419.18 1556.14 M1428.46 1541.48 L1428.46 1545.74 Q1426.71 1544.91 1424.9 1544.47 Q1423.12 1544.03 1421.36 1544.03 Q1416.73 1544.03 1414.28 1547.16 Q1411.84 1550.28 1411.5 1556.6 Q1412.86 1554.59 1414.92 1553.52 Q1416.98 1552.43 1419.46 1552.43 Q1424.67 1552.43 1427.68 1555.6 Q1430.71 1558.75 1430.71 1564.19 Q1430.71 1569.52 1427.56 1572.73 Q1424.41 1575.95 1419.18 1575.95 Q1413.19 1575.95 1410.02 1571.37 Q1406.84 1566.76 1406.84 1558.03 Q1406.84 1549.84 1410.73 1544.98 Q1414.62 1540.09 1421.17 1540.09 Q1422.93 1540.09 1424.71 1540.44 Q1426.52 1540.79 1428.46 1541.48 Z" fill="#000000" fill-rule="evenodd" fill-opacity="1" /><polyline clip-path="url(#clip952)" style="stroke:#000000; stroke-width:2; stroke-opacity:0.1; fill:none" points="
  145.981,1253.05 1485.77,1253.05 
  "/>
<polyline clip-path="url(#clip952)" style="stroke:#000000; stroke-width:2; stroke-opacity:0.1; fill:none" points="
  145.981,918.105 1485.77,918.105 
  "/>
<polyline clip-path="url(#clip952)" style="stroke:#000000; stroke-width:2; stroke-opacity:0.1; fill:none" points="
  145.981,583.158 1485.77,583.158 
  "/>
<polyline clip-path="url(#clip952)" style="stroke:#000000; stroke-width:2; stroke-opacity:0.1; fill:none" points="
  145.981,248.212 1485.77,248.212 
  "/>
<polyline clip-path="url(#clip950)" style="stroke:#000000; stroke-width:4; stroke-opacity:1; fill:none" points="
  145.981,1521.01 145.981,47.2441 
  "/>
<polyline clip-path="url(#clip950)" style="stroke:#000000; stroke-width:4; stroke-opacity:1; fill:none" points="
  145.981,1253.05 162.059,1253.05 
  "/>
<polyline clip-path="url(#clip950)" style="stroke:#000000; stroke-width:4; stroke-opacity:1; fill:none" points="
  145.981,918.105 162.059,918.105 
  "/>
<polyline clip-path="url(#clip950)" style="stroke:#000000; stroke-width:4; stroke-opacity:1; fill:none" points="
  145.981,583.158 162.059,583.158 
  "/>
<polyline clip-path="url(#clip950)" style="stroke:#000000; stroke-width:4; stroke-opacity:1; fill:none" points="
  145.981,248.212 162.059,248.212 
  "/>
<path clip-path="url(#clip950)" d="M 0 0 M16.0329 1253.5 L45.7086 1253.5 L45.7086 1257.44 L16.0329 1257.44 L16.0329 1253.5 Z" fill="#000000" fill-rule="evenodd" fill-opacity="1" /><path clip-path="url(#clip950)" d="M 0 0 M59.8289 1266.4 L76.1483 1266.4 L76.1483 1270.33 L54.204 1270.33 L54.204 1266.4 Q56.866 1263.64 61.4493 1259.01 Q66.0558 1254.36 67.2363 1253.02 Q69.4817 1250.49 70.3613 1248.76 Q71.2641 1247 71.2641 1245.31 Q71.2641 1242.55 69.3196 1240.82 Q67.3983 1239.08 64.2965 1239.08 Q62.0975 1239.08 59.6438 1239.84 Q57.2132 1240.61 54.4355 1242.16 L54.4355 1237.44 Q57.2595 1236.3 59.7132 1235.72 Q62.1669 1235.15 64.2039 1235.15 Q69.5743 1235.15 72.7687 1237.83 Q75.9631 1240.52 75.9631 1245.01 Q75.9631 1247.14 75.1529 1249.06 Q74.3659 1250.96 72.2594 1253.55 Q71.6807 1254.22 68.5789 1257.44 Q65.4771 1260.63 59.8289 1266.4 Z" fill="#000000" fill-rule="evenodd" fill-opacity="1" /><path clip-path="url(#clip950)" d="M 0 0 M85.9631 1264.45 L90.8473 1264.45 L90.8473 1270.33 L85.9631 1270.33 L85.9631 1264.45 Z" fill="#000000" fill-rule="evenodd" fill-opacity="1" /><path clip-path="url(#clip950)" d="M 0 0 M101.079 1235.77 L119.435 1235.77 L119.435 1239.71 L105.361 1239.71 L105.361 1248.18 Q106.38 1247.83 107.398 1247.67 Q108.417 1247.48 109.435 1247.48 Q115.222 1247.48 118.602 1250.66 Q121.981 1253.83 121.981 1259.24 Q121.981 1264.82 118.509 1267.92 Q115.037 1271 108.718 1271 Q106.542 1271 104.273 1270.63 Q102.028 1270.26 99.6204 1269.52 L99.6204 1264.82 Q101.704 1265.96 103.926 1266.51 Q106.148 1267.07 108.625 1267.07 Q112.63 1267.07 114.968 1264.96 Q117.305 1262.85 117.305 1259.24 Q117.305 1255.63 114.968 1253.53 Q112.63 1251.42 108.625 1251.42 Q106.75 1251.42 104.875 1251.84 Q103.023 1252.25 101.079 1253.13 L101.079 1235.77 Z" fill="#000000" fill-rule="evenodd" fill-opacity="1" /><path clip-path="url(#clip950)" d="M 0 0 M64.8058 903.903 Q61.1947 903.903 59.366 907.468 Q57.5604 911.01 57.5604 918.139 Q57.5604 925.246 59.366 928.81 Q61.1947 932.352 64.8058 932.352 Q68.44 932.352 70.2456 928.81 Q72.0742 925.246 72.0742 918.139 Q72.0742 911.01 70.2456 907.468 Q68.44 903.903 64.8058 903.903 M64.8058 900.2 Q70.6159 900.2 73.6715 904.806 Q76.7501 909.389 76.7501 918.139 Q76.7501 926.866 73.6715 931.472 Q70.6159 936.056 64.8058 936.056 Q58.9956 936.056 55.9169 931.472 Q52.8614 926.866 52.8614 918.139 Q52.8614 909.389 55.9169 904.806 Q58.9956 900.2 64.8058 900.2 Z" fill="#000000" fill-rule="evenodd" fill-opacity="1" /><path clip-path="url(#clip950)" d="M 0 0 M84.9677 929.505 L89.8519 929.505 L89.8519 935.385 L84.9677 935.385 L84.9677 929.505 Z" fill="#000000" fill-rule="evenodd" fill-opacity="1" /><path clip-path="url(#clip950)" d="M 0 0 M110.037 903.903 Q106.426 903.903 104.597 907.468 Q102.792 911.01 102.792 918.139 Q102.792 925.246 104.597 928.81 Q106.426 932.352 110.037 932.352 Q113.671 932.352 115.477 928.81 Q117.305 925.246 117.305 918.139 Q117.305 911.01 115.477 907.468 Q113.671 903.903 110.037 903.903 M110.037 900.2 Q115.847 900.2 118.903 904.806 Q121.981 909.389 121.981 918.139 Q121.981 926.866 118.903 931.472 Q115.847 936.056 110.037 936.056 Q104.227 936.056 101.148 931.472 Q98.0926 926.866 98.0926 918.139 Q98.0926 909.389 101.148 904.806 Q104.227 900.2 110.037 900.2 Z" fill="#000000" fill-rule="evenodd" fill-opacity="1" /><path clip-path="url(#clip950)" d="M 0 0 M59.8289 596.503 L76.1483 596.503 L76.1483 600.438 L54.204 600.438 L54.204 596.503 Q56.866 593.748 61.4493 589.119 Q66.0558 584.466 67.2363 583.123 Q69.4817 580.6 70.3613 578.864 Q71.2641 577.105 71.2641 575.415 Q71.2641 572.661 69.3196 570.924 Q67.3983 569.188 64.2965 569.188 Q62.0975 569.188 59.6438 569.952 Q57.2132 570.716 54.4355 572.267 L54.4355 567.545 Q57.2595 566.411 59.7132 565.832 Q62.1669 565.253 64.2039 565.253 Q69.5743 565.253 72.7687 567.938 Q75.9631 570.624 75.9631 575.114 Q75.9631 577.244 75.1529 579.165 Q74.3659 581.063 72.2594 583.656 Q71.6807 584.327 68.5789 587.545 Q65.4771 590.739 59.8289 596.503 Z" fill="#000000" fill-rule="evenodd" fill-opacity="1" /><path clip-path="url(#clip950)" d="M 0 0 M85.9631 594.559 L90.8473 594.559 L90.8473 600.438 L85.9631 600.438 L85.9631 594.559 Z" fill="#000000" fill-rule="evenodd" fill-opacity="1" /><path clip-path="url(#clip950)" d="M 0 0 M101.079 565.878 L119.435 565.878 L119.435 569.813 L105.361 569.813 L105.361 578.286 Q106.38 577.938 107.398 577.776 Q108.417 577.591 109.435 577.591 Q115.222 577.591 118.602 580.762 Q121.981 583.934 121.981 589.35 Q121.981 594.929 118.509 598.031 Q115.037 601.109 108.718 601.109 Q106.542 601.109 104.273 600.739 Q102.028 600.369 99.6204 599.628 L99.6204 594.929 Q101.704 596.063 103.926 596.619 Q106.148 597.174 108.625 597.174 Q112.63 597.174 114.968 595.068 Q117.305 592.961 117.305 589.35 Q117.305 585.739 114.968 583.633 Q112.63 581.526 108.625 581.526 Q106.75 581.526 104.875 581.943 Q103.023 582.36 101.079 583.239 L101.079 565.878 Z" fill="#000000" fill-rule="evenodd" fill-opacity="1" /><path clip-path="url(#clip950)" d="M 0 0 M54.8521 230.932 L73.2085 230.932 L73.2085 234.867 L59.1345 234.867 L59.1345 243.339 Q60.153 242.992 61.1715 242.83 Q62.19 242.645 63.2086 242.645 Q68.9956 242.645 72.3752 245.816 Q75.7548 248.987 75.7548 254.404 Q75.7548 259.983 72.2826 263.084 Q68.8104 266.163 62.491 266.163 Q60.3151 266.163 58.0465 265.793 Q55.8012 265.422 53.3938 264.682 L53.3938 259.983 Q55.4771 261.117 57.6993 261.672 Q59.9215 262.228 62.3984 262.228 Q66.403 262.228 68.7409 260.122 Q71.0789 258.015 71.0789 254.404 Q71.0789 250.793 68.7409 248.686 Q66.403 246.58 62.3984 246.58 Q60.5234 246.58 58.6484 246.997 Q56.7966 247.413 54.8521 248.293 L54.8521 230.932 Z" fill="#000000" fill-rule="evenodd" fill-opacity="1" /><path clip-path="url(#clip950)" d="M 0 0 M84.9677 259.612 L89.8519 259.612 L89.8519 265.492 L84.9677 265.492 L84.9677 259.612 Z" fill="#000000" fill-rule="evenodd" fill-opacity="1" /><path clip-path="url(#clip950)" d="M 0 0 M110.037 234.011 Q106.426 234.011 104.597 237.575 Q102.792 241.117 102.792 248.247 Q102.792 255.353 104.597 258.918 Q106.426 262.459 110.037 262.459 Q113.671 262.459 115.477 258.918 Q117.305 255.353 117.305 248.247 Q117.305 241.117 115.477 237.575 Q113.671 234.011 110.037 234.011 M110.037 230.307 Q115.847 230.307 118.903 234.913 Q121.981 239.497 121.981 248.247 Q121.981 256.973 118.903 261.58 Q115.847 266.163 110.037 266.163 Q104.227 266.163 101.148 261.58 Q98.0926 256.973 98.0926 248.247 Q98.0926 239.497 101.148 234.913 Q104.227 230.307 110.037 230.307 Z" fill="#000000" fill-rule="evenodd" fill-opacity="1" /><polyline clip-path="url(#clip952)" style="stroke:#009af9; stroke-width:4; stroke-opacity:1; fill:none" points="
  614.906,918.105 882.863,1186.06 1150.82,650.147 882.863,382.19 614.906,918.105 
  "/>
<circle clip-path="url(#clip952)" cx="212.971" cy="1186.06" r="43" fill="#e26f46" fill-rule="evenodd" fill-opacity="0.1" stroke="#000000" stroke-opacity="0.1" stroke-width="3.2"/>
<circle clip-path="url(#clip952)" cx="346.949" cy="1186.06" r="43" fill="#e26f46" fill-rule="evenodd" fill-opacity="0.1" stroke="#000000" stroke-opacity="0.1" stroke-width="3.2"/>
<circle clip-path="url(#clip952)" cx="212.971" cy="918.105" r="43" fill="#e26f46" fill-rule="evenodd" fill-opacity="0.1" stroke="#000000" stroke-opacity="0.1" stroke-width="3.2"/>
<circle clip-path="url(#clip952)" cx="346.949" cy="918.105" r="43" fill="#e26f46" fill-rule="evenodd" fill-opacity="0.1" stroke="#000000" stroke-opacity="0.1" stroke-width="3.2"/>
<circle clip-path="url(#clip952)" cx="480.928" cy="918.105" r="43" fill="#e26f46" fill-rule="evenodd" fill-opacity="0.1" stroke="#000000" stroke-opacity="0.1" stroke-width="3.2"/>
<circle clip-path="url(#clip952)" cx="346.949" cy="1052.08" r="43" fill="#e26f46" fill-rule="evenodd" fill-opacity="0.1" stroke="#000000" stroke-opacity="0.1" stroke-width="3.2"/>
<circle clip-path="url(#clip952)" cx="480.928" cy="1052.08" r="43" fill="#e26f46" fill-rule="evenodd" fill-opacity="0.1" stroke="#000000" stroke-opacity="0.1" stroke-width="3.2"/>
<circle clip-path="url(#clip952)" cx="346.949" cy="784.126" r="43" fill="#e26f46" fill-rule="evenodd" fill-opacity="0.1" stroke="#000000" stroke-opacity="0.1" stroke-width="3.2"/>
<circle clip-path="url(#clip952)" cx="212.971" cy="1320.04" r="43" fill="#e26f46" fill-rule="evenodd" fill-opacity="0.1" stroke="#000000" stroke-opacity="0.1" stroke-width="3.2"/>
<circle clip-path="url(#clip952)" cx="346.949" cy="1320.04" r="43" fill="#e26f46" fill-rule="evenodd" fill-opacity="0.1" stroke="#000000" stroke-opacity="0.1" stroke-width="3.2"/>
<circle clip-path="url(#clip952)" cx="212.971" cy="1052.08" r="43" fill="#e26f46" fill-rule="evenodd" fill-opacity="0.1" stroke="#000000" stroke-opacity="0.1" stroke-width="3.2"/>
<circle clip-path="url(#clip952)" cx="346.949" cy="1454.02" r="43" fill="#3da44d" fill-rule="evenodd" fill-opacity="0.1" stroke="#000000" stroke-opacity="0.1" stroke-width="3.2"/>
<circle clip-path="url(#clip952)" cx="480.928" cy="1454.02" r="43" fill="#3da44d" fill-rule="evenodd" fill-opacity="0.1" stroke="#000000" stroke-opacity="0.1" stroke-width="3.2"/>
<circle clip-path="url(#clip952)" cx="614.906" cy="1454.02" r="43" fill="#3da44d" fill-rule="evenodd" fill-opacity="0.1" stroke="#000000" stroke-opacity="0.1" stroke-width="3.2"/>
<circle clip-path="url(#clip952)" cx="480.928" cy="1186.06" r="43" fill="#3da44d" fill-rule="evenodd" fill-opacity="0.1" stroke="#000000" stroke-opacity="0.1" stroke-width="3.2"/>
<circle clip-path="url(#clip952)" cx="614.906" cy="1186.06" r="43" fill="#3da44d" fill-rule="evenodd" fill-opacity="0.1" stroke="#000000" stroke-opacity="0.1" stroke-width="3.2"/>
<circle clip-path="url(#clip952)" cx="748.885" cy="1186.06" r="43" fill="#3da44d" fill-rule="evenodd" fill-opacity="0.1" stroke="#000000" stroke-opacity="0.1" stroke-width="3.2"/>
<circle clip-path="url(#clip952)" cx="614.906" cy="1320.04" r="43" fill="#3da44d" fill-rule="evenodd" fill-opacity="0.1" stroke="#000000" stroke-opacity="0.1" stroke-width="3.2"/>
<circle clip-path="url(#clip952)" cx="748.885" cy="1320.04" r="43" fill="#3da44d" fill-rule="evenodd" fill-opacity="0.1" stroke="#000000" stroke-opacity="0.1" stroke-width="3.2"/>
<circle clip-path="url(#clip952)" cx="614.906" cy="1052.08" r="43" fill="#3da44d" fill-rule="evenodd" fill-opacity="0.1" stroke="#000000" stroke-opacity="0.1" stroke-width="3.2"/>
<circle clip-path="url(#clip952)" cx="480.928" cy="1320.04" r="43" fill="#3da44d" fill-rule="evenodd" fill-opacity="0.1" stroke="#000000" stroke-opacity="0.1" stroke-width="3.2"/>
<circle clip-path="url(#clip952)" cx="748.885" cy="1454.02" r="43" fill="#c271d2" fill-rule="evenodd" fill-opacity="0.1" stroke="#000000" stroke-opacity="0.1" stroke-width="3.2"/>
<circle clip-path="url(#clip952)" cx="882.863" cy="1454.02" r="43" fill="#c271d2" fill-rule="evenodd" fill-opacity="0.1" stroke="#000000" stroke-opacity="0.1" stroke-width="3.2"/>
<circle clip-path="url(#clip952)" cx="1016.84" cy="1454.02" r="43" fill="#c271d2" fill-rule="evenodd" fill-opacity="0.1" stroke="#000000" stroke-opacity="0.1" stroke-width="3.2"/>
<circle clip-path="url(#clip952)" cx="882.863" cy="1320.04" r="43" fill="#c271d2" fill-rule="evenodd" fill-opacity="0.1" stroke="#000000" stroke-opacity="0.1" stroke-width="3.2"/>
<circle clip-path="url(#clip952)" cx="346.949" cy="650.147" r="43" fill="#ac8d18" fill-rule="evenodd" fill-opacity="0.1" stroke="#000000" stroke-opacity="0.1" stroke-width="3.2"/>
<circle clip-path="url(#clip952)" cx="480.928" cy="650.147" r="43" fill="#ac8d18" fill-rule="evenodd" fill-opacity="0.1" stroke="#000000" stroke-opacity="0.1" stroke-width="3.2"/>
<circle clip-path="url(#clip952)" cx="614.906" cy="650.147" r="43" fill="#ac8d18" fill-rule="evenodd" fill-opacity="0.1" stroke="#000000" stroke-opacity="0.1" stroke-width="3.2"/>
<circle clip-path="url(#clip952)" cx="480.928" cy="382.19" r="43" fill="#ac8d18" fill-rule="evenodd" fill-opacity="0.1" stroke="#000000" stroke-opacity="0.1" stroke-width="3.2"/>
<circle clip-path="url(#clip952)" cx="614.906" cy="382.19" r="43" fill="#ac8d18" fill-rule="evenodd" fill-opacity="0.1" stroke="#000000" stroke-opacity="0.1" stroke-width="3.2"/>
<circle clip-path="url(#clip952)" cx="748.885" cy="382.19" r="43" fill="#ac8d18" fill-rule="evenodd" fill-opacity="0.1" stroke="#000000" stroke-opacity="0.1" stroke-width="3.2"/>
<circle clip-path="url(#clip952)" cx="614.906" cy="516.169" r="43" fill="#ac8d18" fill-rule="evenodd" fill-opacity="0.1" stroke="#000000" stroke-opacity="0.1" stroke-width="3.2"/>
<circle clip-path="url(#clip952)" cx="748.885" cy="516.169" r="43" fill="#ac8d18" fill-rule="evenodd" fill-opacity="0.1" stroke="#000000" stroke-opacity="0.1" stroke-width="3.2"/>
<circle clip-path="url(#clip952)" cx="614.906" cy="248.212" r="43" fill="#ac8d18" fill-rule="evenodd" fill-opacity="0.1" stroke="#000000" stroke-opacity="0.1" stroke-width="3.2"/>
<circle clip-path="url(#clip952)" cx="480.928" cy="784.126" r="43" fill="#ac8d18" fill-rule="evenodd" fill-opacity="0.1" stroke="#000000" stroke-opacity="0.1" stroke-width="3.2"/>
<circle clip-path="url(#clip952)" cx="614.906" cy="784.126" r="43" fill="#ac8d18" fill-rule="evenodd" fill-opacity="0.1" stroke="#000000" stroke-opacity="0.1" stroke-width="3.2"/>
<circle clip-path="url(#clip952)" cx="480.928" cy="516.169" r="43" fill="#ac8d18" fill-rule="evenodd" fill-opacity="0.1" stroke="#000000" stroke-opacity="0.1" stroke-width="3.2"/>
<circle clip-path="url(#clip952)" cx="614.906" cy="918.105" r="43" fill="#00a9ad" fill-rule="evenodd" fill-opacity="1" stroke="#000000" stroke-opacity="1" stroke-width="3.2"/>
<circle clip-path="url(#clip952)" cx="748.885" cy="918.105" r="43" fill="#00a9ad" fill-rule="evenodd" fill-opacity="1" stroke="#000000" stroke-opacity="1" stroke-width="3.2"/>
<circle clip-path="url(#clip952)" cx="882.863" cy="918.105" r="43" fill="#00a9ad" fill-rule="evenodd" fill-opacity="1" stroke="#000000" stroke-opacity="1" stroke-width="3.2"/>
<circle clip-path="url(#clip952)" cx="748.885" cy="650.147" r="43" fill="#00a9ad" fill-rule="evenodd" fill-opacity="1" stroke="#000000" stroke-opacity="1" stroke-width="3.2"/>
<circle clip-path="url(#clip952)" cx="882.863" cy="650.147" r="43" fill="#00a9ad" fill-rule="evenodd" fill-opacity="1" stroke="#000000" stroke-opacity="1" stroke-width="3.2"/>
<circle clip-path="url(#clip952)" cx="1016.84" cy="650.147" r="43" fill="#00a9ad" fill-rule="evenodd" fill-opacity="1" stroke="#000000" stroke-opacity="1" stroke-width="3.2"/>
<circle clip-path="url(#clip952)" cx="882.863" cy="784.126" r="43" fill="#00a9ad" fill-rule="evenodd" fill-opacity="1" stroke="#000000" stroke-opacity="1" stroke-width="3.2"/>
<circle clip-path="url(#clip952)" cx="1016.84" cy="784.126" r="43" fill="#00a9ad" fill-rule="evenodd" fill-opacity="1" stroke="#000000" stroke-opacity="1" stroke-width="3.2"/>
<circle clip-path="url(#clip952)" cx="882.863" cy="516.169" r="43" fill="#00a9ad" fill-rule="evenodd" fill-opacity="1" stroke="#000000" stroke-opacity="1" stroke-width="3.2"/>
<circle clip-path="url(#clip952)" cx="748.885" cy="1052.08" r="43" fill="#00a9ad" fill-rule="evenodd" fill-opacity="1" stroke="#000000" stroke-opacity="1" stroke-width="3.2"/>
<circle clip-path="url(#clip952)" cx="882.863" cy="1052.08" r="43" fill="#00a9ad" fill-rule="evenodd" fill-opacity="1" stroke="#000000" stroke-opacity="1" stroke-width="3.2"/>
<circle clip-path="url(#clip952)" cx="748.885" cy="784.126" r="43" fill="#00a9ad" fill-rule="evenodd" fill-opacity="1" stroke="#000000" stroke-opacity="1" stroke-width="3.2"/>
<circle clip-path="url(#clip952)" cx="882.863" cy="1186.06" r="43" fill="#ed5d92" fill-rule="evenodd" fill-opacity="0.1" stroke="#000000" stroke-opacity="0.1" stroke-width="3.2"/>
<circle clip-path="url(#clip952)" cx="1016.84" cy="1186.06" r="43" fill="#ed5d92" fill-rule="evenodd" fill-opacity="0.1" stroke="#000000" stroke-opacity="0.1" stroke-width="3.2"/>
<circle clip-path="url(#clip952)" cx="1150.82" cy="1186.06" r="43" fill="#ed5d92" fill-rule="evenodd" fill-opacity="0.1" stroke="#000000" stroke-opacity="0.1" stroke-width="3.2"/>
<circle clip-path="url(#clip952)" cx="1016.84" cy="918.105" r="43" fill="#ed5d92" fill-rule="evenodd" fill-opacity="0.1" stroke="#000000" stroke-opacity="0.1" stroke-width="3.2"/>
<circle clip-path="url(#clip952)" cx="1150.82" cy="918.105" r="43" fill="#ed5d92" fill-rule="evenodd" fill-opacity="0.1" stroke="#000000" stroke-opacity="0.1" stroke-width="3.2"/>
<circle clip-path="url(#clip952)" cx="1284.8" cy="918.105" r="43" fill="#ed5d92" fill-rule="evenodd" fill-opacity="0.1" stroke="#000000" stroke-opacity="0.1" stroke-width="3.2"/>
<circle clip-path="url(#clip952)" cx="1150.82" cy="1052.08" r="43" fill="#ed5d92" fill-rule="evenodd" fill-opacity="0.1" stroke="#000000" stroke-opacity="0.1" stroke-width="3.2"/>
<circle clip-path="url(#clip952)" cx="1284.8" cy="1052.08" r="43" fill="#ed5d92" fill-rule="evenodd" fill-opacity="0.1" stroke="#000000" stroke-opacity="0.1" stroke-width="3.2"/>
<circle clip-path="url(#clip952)" cx="1150.82" cy="784.126" r="43" fill="#ed5d92" fill-rule="evenodd" fill-opacity="0.1" stroke="#000000" stroke-opacity="0.1" stroke-width="3.2"/>
<circle clip-path="url(#clip952)" cx="1016.84" cy="1320.04" r="43" fill="#ed5d92" fill-rule="evenodd" fill-opacity="0.1" stroke="#000000" stroke-opacity="0.1" stroke-width="3.2"/>
<circle clip-path="url(#clip952)" cx="1150.82" cy="1320.04" r="43" fill="#ed5d92" fill-rule="evenodd" fill-opacity="0.1" stroke="#000000" stroke-opacity="0.1" stroke-width="3.2"/>
<circle clip-path="url(#clip952)" cx="1016.84" cy="1052.08" r="43" fill="#ed5d92" fill-rule="evenodd" fill-opacity="0.1" stroke="#000000" stroke-opacity="0.1" stroke-width="3.2"/>
<circle clip-path="url(#clip952)" cx="614.906" cy="114.233" r="43" fill="#c68125" fill-rule="evenodd" fill-opacity="0.1" stroke="#000000" stroke-opacity="0.1" stroke-width="3.2"/>
<circle clip-path="url(#clip952)" cx="748.885" cy="114.233" r="43" fill="#c68125" fill-rule="evenodd" fill-opacity="0.1" stroke="#000000" stroke-opacity="0.1" stroke-width="3.2"/>
<circle clip-path="url(#clip952)" cx="882.863" cy="114.233" r="43" fill="#c68125" fill-rule="evenodd" fill-opacity="0.1" stroke="#000000" stroke-opacity="0.1" stroke-width="3.2"/>
<circle clip-path="url(#clip952)" cx="748.885" cy="248.212" r="43" fill="#c68125" fill-rule="evenodd" fill-opacity="0.1" stroke="#000000" stroke-opacity="0.1" stroke-width="3.2"/>
<circle clip-path="url(#clip952)" cx="882.863" cy="248.212" r="43" fill="#c68125" fill-rule="evenodd" fill-opacity="0.1" stroke="#000000" stroke-opacity="0.1" stroke-width="3.2"/>
<circle clip-path="url(#clip952)" cx="882.863" cy="382.19" r="43" fill="#00a98d" fill-rule="evenodd" fill-opacity="0.1" stroke="#000000" stroke-opacity="0.1" stroke-width="3.2"/>
<circle clip-path="url(#clip952)" cx="1016.84" cy="382.19" r="43" fill="#00a98d" fill-rule="evenodd" fill-opacity="0.1" stroke="#000000" stroke-opacity="0.1" stroke-width="3.2"/>
<circle clip-path="url(#clip952)" cx="1150.82" cy="382.19" r="43" fill="#00a98d" fill-rule="evenodd" fill-opacity="0.1" stroke="#000000" stroke-opacity="0.1" stroke-width="3.2"/>
<circle clip-path="url(#clip952)" cx="1016.84" cy="114.233" r="43" fill="#00a98d" fill-rule="evenodd" fill-opacity="0.1" stroke="#000000" stroke-opacity="0.1" stroke-width="3.2"/>
<circle clip-path="url(#clip952)" cx="1150.82" cy="114.233" r="43" fill="#00a98d" fill-rule="evenodd" fill-opacity="0.1" stroke="#000000" stroke-opacity="0.1" stroke-width="3.2"/>
<circle clip-path="url(#clip952)" cx="1284.8" cy="114.233" r="43" fill="#00a98d" fill-rule="evenodd" fill-opacity="0.1" stroke="#000000" stroke-opacity="0.1" stroke-width="3.2"/>
<circle clip-path="url(#clip952)" cx="1150.82" cy="248.212" r="43" fill="#00a98d" fill-rule="evenodd" fill-opacity="0.1" stroke="#000000" stroke-opacity="0.1" stroke-width="3.2"/>
<circle clip-path="url(#clip952)" cx="1284.8" cy="248.212" r="43" fill="#00a98d" fill-rule="evenodd" fill-opacity="0.1" stroke="#000000" stroke-opacity="0.1" stroke-width="3.2"/>
<circle clip-path="url(#clip952)" cx="1016.84" cy="516.169" r="43" fill="#00a98d" fill-rule="evenodd" fill-opacity="0.1" stroke="#000000" stroke-opacity="0.1" stroke-width="3.2"/>
<circle clip-path="url(#clip952)" cx="1150.82" cy="516.169" r="43" fill="#00a98d" fill-rule="evenodd" fill-opacity="0.1" stroke="#000000" stroke-opacity="0.1" stroke-width="3.2"/>
<circle clip-path="url(#clip952)" cx="1016.84" cy="248.212" r="43" fill="#00a98d" fill-rule="evenodd" fill-opacity="0.1" stroke="#000000" stroke-opacity="0.1" stroke-width="3.2"/>
<circle clip-path="url(#clip952)" cx="1150.82" cy="650.147" r="43" fill="#8e971d" fill-rule="evenodd" fill-opacity="0.1" stroke="#000000" stroke-opacity="0.1" stroke-width="3.2"/>
<circle clip-path="url(#clip952)" cx="1284.8" cy="650.147" r="43" fill="#8e971d" fill-rule="evenodd" fill-opacity="0.1" stroke="#000000" stroke-opacity="0.1" stroke-width="3.2"/>
<circle clip-path="url(#clip952)" cx="1418.78" cy="650.147" r="43" fill="#8e971d" fill-rule="evenodd" fill-opacity="0.1" stroke="#000000" stroke-opacity="0.1" stroke-width="3.2"/>
<circle clip-path="url(#clip952)" cx="1284.8" cy="382.19" r="43" fill="#8e971d" fill-rule="evenodd" fill-opacity="0.1" stroke="#000000" stroke-opacity="0.1" stroke-width="3.2"/>
<circle clip-path="url(#clip952)" cx="1418.78" cy="382.19" r="43" fill="#8e971d" fill-rule="evenodd" fill-opacity="0.1" stroke="#000000" stroke-opacity="0.1" stroke-width="3.2"/>
<circle clip-path="url(#clip952)" cx="1418.78" cy="516.169" r="43" fill="#8e971d" fill-rule="evenodd" fill-opacity="0.1" stroke="#000000" stroke-opacity="0.1" stroke-width="3.2"/>
<circle clip-path="url(#clip952)" cx="1418.78" cy="248.212" r="43" fill="#8e971d" fill-rule="evenodd" fill-opacity="0.1" stroke="#000000" stroke-opacity="0.1" stroke-width="3.2"/>
<circle clip-path="url(#clip952)" cx="1284.8" cy="784.126" r="43" fill="#8e971d" fill-rule="evenodd" fill-opacity="0.1" stroke="#000000" stroke-opacity="0.1" stroke-width="3.2"/>
<circle clip-path="url(#clip952)" cx="1418.78" cy="784.126" r="43" fill="#8e971d" fill-rule="evenodd" fill-opacity="0.1" stroke="#000000" stroke-opacity="0.1" stroke-width="3.2"/>
<circle clip-path="url(#clip952)" cx="1284.8" cy="516.169" r="43" fill="#8e971d" fill-rule="evenodd" fill-opacity="0.1" stroke="#000000" stroke-opacity="0.1" stroke-width="3.2"/>
<path clip-path="url(#clip950)" d="M 0 0 M207.623 1199.41 L223.943 1199.41 L223.943 1203.34 L201.998 1203.34 L201.998 1199.41 Q204.661 1196.65 209.244 1192.02 Q213.85 1187.37 215.031 1186.03 Q217.276 1183.5 218.156 1181.77 Q219.059 1180.01 219.059 1178.32 Q219.059 1175.56 217.114 1173.83 Q215.193 1172.09 212.091 1172.09 Q209.892 1172.09 207.438 1172.86 Q205.008 1173.62 202.23 1175.17 L202.23 1170.45 Q205.054 1169.31 207.508 1168.74 Q209.961 1168.16 211.998 1168.16 Q217.369 1168.16 220.563 1170.84 Q223.758 1173.53 223.758 1178.02 Q223.758 1180.15 222.947 1182.07 Q222.16 1183.97 220.054 1186.56 Q219.475 1187.23 216.373 1190.45 Q213.272 1193.64 207.623 1199.41 Z" fill="#000000" fill-rule="evenodd" fill-opacity="1" /><path clip-path="url(#clip950)" d="M 0 0 M351.197 1184.71 Q354.553 1185.42 356.428 1187.69 Q358.326 1189.96 358.326 1193.3 Q358.326 1198.41 354.808 1201.21 Q351.289 1204.01 344.808 1204.01 Q342.632 1204.01 340.317 1203.57 Q338.026 1203.16 335.572 1202.3 L335.572 1197.79 Q337.516 1198.92 339.831 1199.5 Q342.146 1200.08 344.669 1200.08 Q349.067 1200.08 351.359 1198.34 Q353.674 1196.61 353.674 1193.3 Q353.674 1190.24 351.521 1188.53 Q349.391 1186.79 345.572 1186.79 L341.544 1186.79 L341.544 1182.95 L345.757 1182.95 Q349.206 1182.95 351.035 1181.58 Q352.863 1180.19 352.863 1177.6 Q352.863 1174.94 350.965 1173.53 Q349.09 1172.09 345.572 1172.09 Q343.651 1172.09 341.452 1172.51 Q339.252 1172.93 336.614 1173.8 L336.614 1169.64 Q339.276 1168.9 341.59 1168.53 Q343.928 1168.16 345.989 1168.16 Q351.313 1168.16 354.414 1170.59 Q357.516 1172.99 357.516 1177.11 Q357.516 1179.99 355.873 1181.98 Q354.229 1183.94 351.197 1184.71 Z" fill="#000000" fill-rule="evenodd" fill-opacity="1" /><path clip-path="url(#clip950)" d="M 0 0 M215.98 904.899 L204.174 923.348 L215.98 923.348 L215.98 904.899 M214.753 900.825 L220.633 900.825 L220.633 923.348 L225.563 923.348 L225.563 927.236 L220.633 927.236 L220.633 935.385 L215.98 935.385 L215.98 927.236 L200.378 927.236 L200.378 922.723 L214.753 900.825 Z" fill="#000000" fill-rule="evenodd" fill-opacity="1" /><path clip-path="url(#clip950)" d="M 0 0 M337.227 900.825 L355.583 900.825 L355.583 904.76 L341.509 904.76 L341.509 913.232 Q342.528 912.885 343.546 912.723 Q344.565 912.537 345.583 912.537 Q351.37 912.537 354.75 915.709 Q358.13 918.88 358.13 924.297 Q358.13 929.875 354.657 932.977 Q351.185 936.056 344.866 936.056 Q342.69 936.056 340.421 935.685 Q338.176 935.315 335.769 934.574 L335.769 929.875 Q337.852 931.01 340.074 931.565 Q342.296 932.121 344.773 932.121 Q348.778 932.121 351.116 930.014 Q353.454 927.908 353.454 924.297 Q353.454 920.686 351.116 918.579 Q348.778 916.473 344.773 916.473 Q342.898 916.473 341.023 916.889 Q339.171 917.306 337.227 918.186 L337.227 900.825 Z" fill="#000000" fill-rule="evenodd" fill-opacity="1" /><path clip-path="url(#clip950)" d="M 0 0 M481.333 916.241 Q478.185 916.241 476.333 918.394 Q474.504 920.547 474.504 924.297 Q474.504 928.023 476.333 930.199 Q478.185 932.352 481.333 932.352 Q484.481 932.352 486.31 930.199 Q488.161 928.023 488.161 924.297 Q488.161 920.547 486.31 918.394 Q484.481 916.241 481.333 916.241 M490.615 901.588 L490.615 905.848 Q488.856 905.014 487.05 904.574 Q485.268 904.135 483.509 904.135 Q478.879 904.135 476.425 907.26 Q473.995 910.385 473.648 916.704 Q475.013 914.69 477.074 913.625 Q479.134 912.537 481.611 912.537 Q486.819 912.537 489.828 915.709 Q492.861 918.857 492.861 924.297 Q492.861 929.621 489.712 932.838 Q486.564 936.056 481.333 936.056 Q475.337 936.056 472.166 931.472 Q468.995 926.866 468.995 918.139 Q468.995 909.945 472.884 905.084 Q476.773 900.2 483.324 900.2 Q485.083 900.2 486.865 900.547 Q488.671 900.894 490.615 901.588 Z" fill="#000000" fill-rule="evenodd" fill-opacity="1" /><path clip-path="url(#clip950)" d="M 0 0 M335.838 1034.8 L358.06 1034.8 L358.06 1036.79 L345.514 1069.36 L340.63 1069.36 L352.435 1038.74 L335.838 1038.74 L335.838 1034.8 Z" fill="#000000" fill-rule="evenodd" fill-opacity="1" /><path clip-path="url(#clip950)" d="M 0 0 M480.928 1052.95 Q477.594 1052.95 475.673 1054.73 Q473.775 1056.52 473.775 1059.64 Q473.775 1062.77 475.673 1064.55 Q477.594 1066.33 480.928 1066.33 Q484.261 1066.33 486.182 1064.55 Q488.104 1062.74 488.104 1059.64 Q488.104 1056.52 486.182 1054.73 Q484.284 1052.95 480.928 1052.95 M476.252 1050.96 Q473.243 1050.22 471.553 1048.16 Q469.886 1046.1 469.886 1043.14 Q469.886 1038.99 472.826 1036.59 Q475.789 1034.18 480.928 1034.18 Q486.09 1034.18 489.03 1036.59 Q491.969 1038.99 491.969 1043.14 Q491.969 1046.1 490.28 1048.16 Q488.613 1050.22 485.627 1050.96 Q489.006 1051.75 490.881 1054.04 Q492.779 1056.33 492.779 1059.64 Q492.779 1064.66 489.701 1067.35 Q486.645 1070.03 480.928 1070.03 Q475.21 1070.03 472.131 1067.35 Q469.076 1064.66 469.076 1059.64 Q469.076 1056.33 470.974 1054.04 Q472.872 1051.75 476.252 1050.96 M474.539 1043.58 Q474.539 1046.26 476.206 1047.77 Q477.895 1049.27 480.928 1049.27 Q483.937 1049.27 485.627 1047.77 Q487.34 1046.26 487.34 1043.58 Q487.34 1040.89 485.627 1039.39 Q483.937 1037.88 480.928 1037.88 Q477.895 1037.88 476.206 1039.39 Q474.539 1040.89 474.539 1043.58 Z" fill="#000000" fill-rule="evenodd" fill-opacity="1" /><path clip-path="url(#clip950)" d="M 0 0 M337.25 800.688 L337.25 796.429 Q339.009 797.262 340.815 797.702 Q342.62 798.142 344.357 798.142 Q348.986 798.142 351.417 795.04 Q353.87 791.915 354.218 785.573 Q352.875 787.563 350.815 788.628 Q348.755 789.693 346.255 789.693 Q341.07 789.693 338.037 786.568 Q335.028 783.42 335.028 777.98 Q335.028 772.656 338.176 769.439 Q341.324 766.221 346.556 766.221 Q352.551 766.221 355.699 770.827 Q358.87 775.411 358.87 784.161 Q358.87 792.332 354.982 797.216 Q351.116 802.077 344.565 802.077 Q342.806 802.077 341 801.73 Q339.195 801.383 337.25 800.688 M346.556 786.036 Q349.704 786.036 351.532 783.883 Q353.384 781.73 353.384 777.98 Q353.384 774.253 351.532 772.101 Q349.704 769.925 346.556 769.925 Q343.408 769.925 341.556 772.101 Q339.727 774.253 339.727 777.98 Q339.727 781.73 341.556 783.883 Q343.408 786.036 346.556 786.036 Z" fill="#000000" fill-rule="evenodd" fill-opacity="1" /><path clip-path="url(#clip950)" d="M 0 0 M187.658 1333.38 L195.297 1333.38 L195.297 1307.02 L186.987 1308.69 L186.987 1304.43 L195.251 1302.76 L199.927 1302.76 L199.927 1333.38 L207.566 1333.38 L207.566 1337.32 L187.658 1337.32 L187.658 1333.38 Z" fill="#000000" fill-rule="evenodd" fill-opacity="1" /><path clip-path="url(#clip950)" d="M 0 0 M227.01 1305.84 Q223.399 1305.84 221.57 1309.4 Q219.765 1312.95 219.765 1320.07 Q219.765 1327.18 221.57 1330.75 Q223.399 1334.29 227.01 1334.29 Q230.644 1334.29 232.45 1330.75 Q234.278 1327.18 234.278 1320.07 Q234.278 1312.95 232.45 1309.4 Q230.644 1305.84 227.01 1305.84 M227.01 1302.14 Q232.82 1302.14 235.876 1306.74 Q238.954 1311.32 238.954 1320.07 Q238.954 1328.8 235.876 1333.41 Q232.82 1337.99 227.01 1337.99 Q221.2 1337.99 218.121 1333.41 Q215.066 1328.8 215.066 1320.07 Q215.066 1311.32 218.121 1306.74 Q221.2 1302.14 227.01 1302.14 Z" fill="#000000" fill-rule="evenodd" fill-opacity="1" /><path clip-path="url(#clip950)" d="M 0 0 M322.25 1333.38 L329.889 1333.38 L329.889 1307.02 L321.579 1308.69 L321.579 1304.43 L329.843 1302.76 L334.519 1302.76 L334.519 1333.38 L342.158 1333.38 L342.158 1337.32 L322.25 1337.32 L322.25 1333.38 Z" fill="#000000" fill-rule="evenodd" fill-opacity="1" /><path clip-path="url(#clip950)" d="M 0 0 M352.412 1333.38 L360.051 1333.38 L360.051 1307.02 L351.741 1308.69 L351.741 1304.43 L360.005 1302.76 L364.681 1302.76 L364.681 1333.38 L372.319 1333.38 L372.319 1337.32 L352.412 1337.32 L352.412 1333.38 Z" fill="#000000" fill-rule="evenodd" fill-opacity="1" /><path clip-path="url(#clip950)" d="M 0 0 M188.457 1065.43 L196.096 1065.43 L196.096 1039.06 L187.786 1040.73 L187.786 1036.47 L196.049 1034.8 L200.725 1034.8 L200.725 1065.43 L208.364 1065.43 L208.364 1069.36 L188.457 1069.36 L188.457 1065.43 Z" fill="#000000" fill-rule="evenodd" fill-opacity="1" /><path clip-path="url(#clip950)" d="M 0 0 M221.836 1065.43 L238.156 1065.43 L238.156 1069.36 L216.211 1069.36 L216.211 1065.43 Q218.873 1062.67 223.457 1058.04 Q228.063 1053.39 229.244 1052.05 Q231.489 1049.53 232.369 1047.79 Q233.271 1046.03 233.271 1044.34 Q233.271 1041.59 231.327 1039.85 Q229.406 1038.11 226.304 1038.11 Q224.105 1038.11 221.651 1038.88 Q219.221 1039.64 216.443 1041.19 L216.443 1036.47 Q219.267 1035.34 221.721 1034.76 Q224.174 1034.18 226.211 1034.18 Q231.582 1034.18 234.776 1036.86 Q237.971 1039.55 237.971 1044.04 Q237.971 1046.17 237.16 1048.09 Q236.373 1049.99 234.267 1052.58 Q233.688 1053.25 230.586 1056.47 Q227.484 1059.66 221.836 1065.43 Z" fill="#000000" fill-rule="evenodd" fill-opacity="1" /><path clip-path="url(#clip950)" d="M 0 0 M337.331 1467.36 L344.97 1467.36 L344.97 1441 L336.66 1442.66 L336.66 1438.41 L344.924 1436.74 L349.6 1436.74 L349.6 1467.36 L357.238 1467.36 L357.238 1471.3 L337.331 1471.3 L337.331 1467.36 Z" fill="#000000" fill-rule="evenodd" fill-opacity="1" /><path clip-path="url(#clip950)" d="M 0 0 M475.581 1467.36 L491.9 1467.36 L491.9 1471.3 L469.956 1471.3 L469.956 1467.36 Q472.618 1464.61 477.201 1459.98 Q481.807 1455.33 482.988 1453.98 Q485.233 1451.46 486.113 1449.72 Q487.016 1447.97 487.016 1446.28 Q487.016 1443.52 485.071 1441.78 Q483.15 1440.05 480.048 1440.05 Q477.849 1440.05 475.395 1440.81 Q472.965 1441.58 470.187 1443.13 L470.187 1438.41 Q473.011 1437.27 475.465 1436.69 Q477.918 1436.11 479.955 1436.11 Q485.326 1436.11 488.52 1438.8 Q491.715 1441.48 491.715 1445.97 Q491.715 1448.1 490.905 1450.03 Q490.117 1451.92 488.011 1454.52 Q487.432 1455.19 484.33 1458.41 Q481.229 1461.6 475.581 1467.36 Z" fill="#000000" fill-rule="evenodd" fill-opacity="1" /><path clip-path="url(#clip950)" d="M 0 0 M619.154 1452.66 Q622.51 1453.38 624.385 1455.65 Q626.283 1457.92 626.283 1461.25 Q626.283 1466.37 622.765 1469.17 Q619.246 1471.97 612.765 1471.97 Q610.589 1471.97 608.274 1471.53 Q605.983 1471.11 603.529 1470.26 L603.529 1465.74 Q605.473 1466.88 607.788 1467.46 Q610.103 1468.03 612.626 1468.03 Q617.024 1468.03 619.316 1466.3 Q621.631 1464.56 621.631 1461.25 Q621.631 1458.2 619.478 1456.48 Q617.348 1454.75 613.529 1454.75 L609.501 1454.75 L609.501 1450.91 L613.714 1450.91 Q617.163 1450.91 618.992 1449.54 Q620.821 1448.15 620.821 1445.56 Q620.821 1442.9 618.922 1441.48 Q617.047 1440.05 613.529 1440.05 Q611.608 1440.05 609.409 1440.47 Q607.21 1440.88 604.571 1441.76 L604.571 1437.6 Q607.233 1436.85 609.547 1436.48 Q611.885 1436.11 613.946 1436.11 Q619.27 1436.11 622.371 1438.54 Q625.473 1440.95 625.473 1445.07 Q625.473 1447.94 623.83 1449.93 Q622.186 1451.9 619.154 1452.66 Z" fill="#000000" fill-rule="evenodd" fill-opacity="1" /><path clip-path="url(#clip950)" d="M 0 0 M483.937 1172.86 L472.131 1191.3 L483.937 1191.3 L483.937 1172.86 M482.71 1168.78 L488.59 1168.78 L488.59 1191.3 L493.52 1191.3 L493.52 1195.19 L488.59 1195.19 L488.59 1203.34 L483.937 1203.34 L483.937 1195.19 L468.335 1195.19 L468.335 1190.68 L482.71 1168.78 Z" fill="#000000" fill-rule="evenodd" fill-opacity="1" /><path clip-path="url(#clip950)" d="M 0 0 M605.184 1168.78 L623.54 1168.78 L623.54 1172.72 L609.466 1172.72 L609.466 1181.19 Q610.485 1180.84 611.503 1180.68 Q612.522 1180.49 613.54 1180.49 Q619.328 1180.49 622.707 1183.67 Q626.087 1186.84 626.087 1192.25 Q626.087 1197.83 622.615 1200.93 Q619.142 1204.01 612.823 1204.01 Q610.647 1204.01 608.378 1203.64 Q606.133 1203.27 603.726 1202.53 L603.726 1197.83 Q605.809 1198.97 608.031 1199.52 Q610.253 1200.08 612.73 1200.08 Q616.735 1200.08 619.073 1197.97 Q621.411 1195.86 621.411 1192.25 Q621.411 1188.64 619.073 1186.54 Q616.735 1184.43 612.73 1184.43 Q610.855 1184.43 608.98 1184.85 Q607.128 1185.26 605.184 1186.14 L605.184 1168.78 Z" fill="#000000" fill-rule="evenodd" fill-opacity="1" /><path clip-path="url(#clip950)" d="M 0 0 M749.29 1184.2 Q746.142 1184.2 744.29 1186.35 Q742.461 1188.5 742.461 1192.25 Q742.461 1195.98 744.29 1198.16 Q746.142 1200.31 749.29 1200.31 Q752.438 1200.31 754.267 1198.16 Q756.119 1195.98 756.119 1192.25 Q756.119 1188.5 754.267 1186.35 Q752.438 1184.2 749.29 1184.2 M758.572 1169.55 L758.572 1173.8 Q756.813 1172.97 755.007 1172.53 Q753.225 1172.09 751.466 1172.09 Q746.836 1172.09 744.382 1175.22 Q741.952 1178.34 741.605 1184.66 Q742.97 1182.65 745.031 1181.58 Q747.091 1180.49 749.568 1180.49 Q754.776 1180.49 757.785 1183.67 Q760.818 1186.81 760.818 1192.25 Q760.818 1197.58 757.669 1200.8 Q754.521 1204.01 749.29 1204.01 Q743.295 1204.01 740.123 1199.43 Q736.952 1194.82 736.952 1186.1 Q736.952 1177.9 740.841 1173.04 Q744.73 1168.16 751.281 1168.16 Q753.04 1168.16 754.822 1168.5 Q756.628 1168.85 758.572 1169.55 Z" fill="#000000" fill-rule="evenodd" fill-opacity="1" /><path clip-path="url(#clip950)" d="M 0 0 M603.795 1302.76 L626.017 1302.76 L626.017 1304.75 L613.471 1337.32 L608.587 1337.32 L620.392 1306.7 L603.795 1306.7 L603.795 1302.76 Z" fill="#000000" fill-rule="evenodd" fill-opacity="1" /><path clip-path="url(#clip950)" d="M 0 0 M748.885 1320.91 Q745.551 1320.91 743.63 1322.69 Q741.732 1324.47 741.732 1327.6 Q741.732 1330.72 743.63 1332.51 Q745.551 1334.29 748.885 1334.29 Q752.218 1334.29 754.139 1332.51 Q756.061 1330.7 756.061 1327.6 Q756.061 1324.47 754.139 1322.69 Q752.241 1320.91 748.885 1320.91 M744.209 1318.92 Q741.2 1318.18 739.51 1316.12 Q737.843 1314.06 737.843 1311.09 Q737.843 1306.95 740.783 1304.54 Q743.746 1302.14 748.885 1302.14 Q754.047 1302.14 756.987 1304.54 Q759.926 1306.95 759.926 1311.09 Q759.926 1314.06 758.237 1316.12 Q756.57 1318.18 753.584 1318.92 Q756.963 1319.7 758.838 1322 Q760.737 1324.29 760.737 1327.6 Q760.737 1332.62 757.658 1335.31 Q754.602 1337.99 748.885 1337.99 Q743.167 1337.99 740.089 1335.31 Q737.033 1332.62 737.033 1327.6 Q737.033 1324.29 738.931 1322 Q740.829 1319.7 744.209 1318.92 M742.496 1311.53 Q742.496 1314.22 744.163 1315.72 Q745.852 1317.23 748.885 1317.23 Q751.894 1317.23 753.584 1315.72 Q755.297 1314.22 755.297 1311.53 Q755.297 1308.85 753.584 1307.34 Q751.894 1305.84 748.885 1305.84 Q745.852 1305.84 744.163 1307.34 Q742.496 1308.85 742.496 1311.53 Z" fill="#000000" fill-rule="evenodd" fill-opacity="1" /><path clip-path="url(#clip950)" d="M 0 0 M605.207 1068.65 L605.207 1064.39 Q606.966 1065.22 608.772 1065.66 Q610.578 1066.1 612.314 1066.1 Q616.943 1066.1 619.374 1063 Q621.827 1059.87 622.175 1053.53 Q620.832 1055.52 618.772 1056.59 Q616.712 1057.65 614.212 1057.65 Q609.027 1057.65 605.994 1054.53 Q602.985 1051.38 602.985 1045.94 Q602.985 1040.61 606.133 1037.4 Q609.281 1034.18 614.513 1034.18 Q620.508 1034.18 623.656 1038.78 Q626.827 1043.37 626.827 1052.12 Q626.827 1060.29 622.939 1065.17 Q619.073 1070.03 612.522 1070.03 Q610.763 1070.03 608.957 1069.69 Q607.152 1069.34 605.207 1068.65 M614.513 1053.99 Q617.661 1053.99 619.49 1051.84 Q621.341 1049.69 621.341 1045.94 Q621.341 1042.21 619.49 1040.06 Q617.661 1037.88 614.513 1037.88 Q611.365 1037.88 609.513 1040.06 Q607.684 1042.21 607.684 1045.94 Q607.684 1049.69 609.513 1051.84 Q611.365 1053.99 614.513 1053.99 Z" fill="#000000" fill-rule="evenodd" fill-opacity="1" /><path clip-path="url(#clip950)" d="M 0 0 M456.414 1333.38 L464.053 1333.38 L464.053 1307.02 L455.743 1308.69 L455.743 1304.43 L464.006 1302.76 L468.682 1302.76 L468.682 1333.38 L476.321 1333.38 L476.321 1337.32 L456.414 1337.32 L456.414 1333.38 Z" fill="#000000" fill-rule="evenodd" fill-opacity="1" /><path clip-path="url(#clip950)" d="M 0 0 M489.793 1333.38 L506.113 1333.38 L506.113 1337.32 L484.168 1337.32 L484.168 1333.38 Q486.83 1330.63 491.414 1326 Q496.02 1321.35 497.201 1320.01 Q499.446 1317.48 500.326 1315.75 Q501.229 1313.99 501.229 1312.3 Q501.229 1309.54 499.284 1307.81 Q497.363 1306.07 494.261 1306.07 Q492.062 1306.07 489.608 1306.83 Q487.178 1307.6 484.4 1309.15 L484.4 1304.43 Q487.224 1303.29 489.678 1302.71 Q492.131 1302.14 494.168 1302.14 Q499.539 1302.14 502.733 1304.82 Q505.928 1307.51 505.928 1312 Q505.928 1314.13 505.117 1316.05 Q504.33 1317.95 502.224 1320.54 Q501.645 1321.21 498.543 1324.43 Q495.442 1327.62 489.793 1333.38 Z" fill="#000000" fill-rule="evenodd" fill-opacity="1" /><path clip-path="url(#clip950)" d="M 0 0 M751.894 1440.81 L740.089 1459.26 L751.894 1459.26 L751.894 1440.81 M750.667 1436.74 L756.547 1436.74 L756.547 1459.26 L761.477 1459.26 L761.477 1463.15 L756.547 1463.15 L756.547 1471.3 L751.894 1471.3 L751.894 1463.15 L736.292 1463.15 L736.292 1458.64 L750.667 1436.74 Z" fill="#000000" fill-rule="evenodd" fill-opacity="1" /><path clip-path="url(#clip950)" d="M 0 0 M873.141 1436.74 L891.497 1436.74 L891.497 1440.67 L877.423 1440.67 L877.423 1449.15 Q878.442 1448.8 879.461 1448.64 Q880.479 1448.45 881.498 1448.45 Q887.285 1448.45 890.664 1451.62 Q894.044 1454.79 894.044 1460.21 Q894.044 1465.79 890.572 1468.89 Q887.099 1471.97 880.78 1471.97 Q878.604 1471.97 876.336 1471.6 Q874.09 1471.23 871.683 1470.49 L871.683 1465.79 Q873.766 1466.92 875.988 1467.48 Q878.211 1468.03 880.687 1468.03 Q884.692 1468.03 887.03 1465.93 Q889.368 1463.82 889.368 1460.21 Q889.368 1456.6 887.03 1454.49 Q884.692 1452.39 880.687 1452.39 Q878.812 1452.39 876.937 1452.8 Q875.086 1453.22 873.141 1454.1 L873.141 1436.74 Z" fill="#000000" fill-rule="evenodd" fill-opacity="1" /><path clip-path="url(#clip950)" d="M 0 0 M1017.25 1452.16 Q1014.1 1452.16 1012.25 1454.31 Q1010.42 1456.46 1010.42 1460.21 Q1010.42 1463.94 1012.25 1466.11 Q1014.1 1468.27 1017.25 1468.27 Q1020.4 1468.27 1022.22 1466.11 Q1024.08 1463.94 1024.08 1460.21 Q1024.08 1456.46 1022.22 1454.31 Q1020.4 1452.16 1017.25 1452.16 M1026.53 1437.5 L1026.53 1441.76 Q1024.77 1440.93 1022.96 1440.49 Q1021.18 1440.05 1019.42 1440.05 Q1014.79 1440.05 1012.34 1443.17 Q1009.91 1446.3 1009.56 1452.62 Q1010.93 1450.6 1012.99 1449.54 Q1015.05 1448.45 1017.52 1448.45 Q1022.73 1448.45 1025.74 1451.62 Q1028.77 1454.77 1028.77 1460.21 Q1028.77 1465.53 1025.63 1468.75 Q1022.48 1471.97 1017.25 1471.97 Q1011.25 1471.97 1008.08 1467.39 Q1004.91 1462.78 1004.91 1454.05 Q1004.91 1445.86 1008.8 1441 Q1012.69 1436.11 1019.24 1436.11 Q1021 1436.11 1022.78 1436.46 Q1024.58 1436.81 1026.53 1437.5 Z" fill="#000000" fill-rule="evenodd" fill-opacity="1" /><path clip-path="url(#clip950)" d="M 0 0 M873.164 1336.6 L873.164 1332.34 Q874.924 1333.18 876.729 1333.62 Q878.535 1334.06 880.271 1334.06 Q884.9 1334.06 887.331 1330.95 Q889.785 1327.83 890.132 1321.49 Q888.789 1323.48 886.729 1324.54 Q884.669 1325.61 882.169 1325.61 Q876.984 1325.61 873.951 1322.48 Q870.942 1319.33 870.942 1313.89 Q870.942 1308.57 874.09 1305.35 Q877.238 1302.14 882.47 1302.14 Q888.465 1302.14 891.613 1306.74 Q894.785 1311.32 894.785 1320.07 Q894.785 1328.25 890.896 1333.13 Q887.03 1337.99 880.479 1337.99 Q878.72 1337.99 876.914 1337.64 Q875.109 1337.3 873.164 1336.6 M882.47 1321.95 Q885.618 1321.95 887.447 1319.8 Q889.298 1317.64 889.298 1313.89 Q889.298 1310.17 887.447 1308.01 Q885.618 1305.84 882.47 1305.84 Q879.322 1305.84 877.47 1308.01 Q875.641 1310.17 875.641 1313.89 Q875.641 1317.64 877.47 1319.8 Q879.322 1321.95 882.47 1321.95 Z" fill="#000000" fill-rule="evenodd" fill-opacity="1" /><path clip-path="url(#clip950)" d="M 0 0 M337.331 663.492 L344.97 663.492 L344.97 637.127 L336.66 638.793 L336.66 634.534 L344.924 632.867 L349.6 632.867 L349.6 663.492 L357.238 663.492 L357.238 667.427 L337.331 667.427 L337.331 663.492 Z" fill="#000000" fill-rule="evenodd" fill-opacity="1" /><path clip-path="url(#clip950)" d="M 0 0 M475.581 663.492 L491.9 663.492 L491.9 667.427 L469.956 667.427 L469.956 663.492 Q472.618 660.738 477.201 656.108 Q481.807 651.455 482.988 650.113 Q485.233 647.59 486.113 645.854 Q487.016 644.094 487.016 642.404 Q487.016 639.65 485.071 637.914 Q483.15 636.178 480.048 636.178 Q477.849 636.178 475.395 636.942 Q472.965 637.705 470.187 639.256 L470.187 634.534 Q473.011 633.4 475.465 632.821 Q477.918 632.242 479.955 632.242 Q485.326 632.242 488.52 634.928 Q491.715 637.613 491.715 642.104 Q491.715 644.233 490.905 646.154 Q490.117 648.053 488.011 650.645 Q487.432 651.316 484.33 654.534 Q481.229 657.728 475.581 663.492 Z" fill="#000000" fill-rule="evenodd" fill-opacity="1" /><path clip-path="url(#clip950)" d="M 0 0 M619.154 648.793 Q622.51 649.511 624.385 651.779 Q626.283 654.048 626.283 657.381 Q626.283 662.497 622.765 665.298 Q619.246 668.099 612.765 668.099 Q610.589 668.099 608.274 667.659 Q605.983 667.242 603.529 666.386 L603.529 661.872 Q605.473 663.006 607.788 663.585 Q610.103 664.164 612.626 664.164 Q617.024 664.164 619.316 662.427 Q621.631 660.691 621.631 657.381 Q621.631 654.326 619.478 652.613 Q617.348 650.877 613.529 650.877 L609.501 650.877 L609.501 647.034 L613.714 647.034 Q617.163 647.034 618.992 645.668 Q620.821 644.279 620.821 641.687 Q620.821 639.025 618.922 637.613 Q617.047 636.178 613.529 636.178 Q611.608 636.178 609.409 636.594 Q607.21 637.011 604.571 637.891 L604.571 633.724 Q607.233 632.983 609.547 632.613 Q611.885 632.242 613.946 632.242 Q619.27 632.242 622.371 634.673 Q625.473 637.08 625.473 641.201 Q625.473 644.071 623.83 646.062 Q622.186 648.029 619.154 648.793 Z" fill="#000000" fill-rule="evenodd" fill-opacity="1" /><path clip-path="url(#clip950)" d="M 0 0 M483.937 368.984 L472.131 387.433 L483.937 387.433 L483.937 368.984 M482.71 364.91 L488.59 364.91 L488.59 387.433 L493.52 387.433 L493.52 391.322 L488.59 391.322 L488.59 399.47 L483.937 399.47 L483.937 391.322 L468.335 391.322 L468.335 386.808 L482.71 364.91 Z" fill="#000000" fill-rule="evenodd" fill-opacity="1" /><path clip-path="url(#clip950)" d="M 0 0 M605.184 364.91 L623.54 364.91 L623.54 368.846 L609.466 368.846 L609.466 377.318 Q610.485 376.971 611.503 376.808 Q612.522 376.623 613.54 376.623 Q619.328 376.623 622.707 379.795 Q626.087 382.966 626.087 388.383 Q626.087 393.961 622.615 397.063 Q619.142 400.142 612.823 400.142 Q610.647 400.142 608.378 399.771 Q606.133 399.401 603.726 398.66 L603.726 393.961 Q605.809 395.095 608.031 395.651 Q610.253 396.207 612.73 396.207 Q616.735 396.207 619.073 394.1 Q621.411 391.994 621.411 388.383 Q621.411 384.771 619.073 382.665 Q616.735 380.558 612.73 380.558 Q610.855 380.558 608.98 380.975 Q607.128 381.392 605.184 382.271 L605.184 364.91 Z" fill="#000000" fill-rule="evenodd" fill-opacity="1" /><path clip-path="url(#clip950)" d="M 0 0 M749.29 380.327 Q746.142 380.327 744.29 382.48 Q742.461 384.633 742.461 388.383 Q742.461 392.109 744.29 394.285 Q746.142 396.438 749.29 396.438 Q752.438 396.438 754.267 394.285 Q756.119 392.109 756.119 388.383 Q756.119 384.633 754.267 382.48 Q752.438 380.327 749.29 380.327 M758.572 365.674 L758.572 369.934 Q756.813 369.1 755.007 368.66 Q753.225 368.221 751.466 368.221 Q746.836 368.221 744.382 371.346 Q741.952 374.471 741.605 380.79 Q742.97 378.776 745.031 377.711 Q747.091 376.623 749.568 376.623 Q754.776 376.623 757.785 379.795 Q760.818 382.943 760.818 388.383 Q760.818 393.707 757.669 396.924 Q754.521 400.142 749.29 400.142 Q743.295 400.142 740.123 395.558 Q736.952 390.952 736.952 382.225 Q736.952 374.031 740.841 369.17 Q744.73 364.285 751.281 364.285 Q753.04 364.285 754.822 364.633 Q756.628 364.98 758.572 365.674 Z" fill="#000000" fill-rule="evenodd" fill-opacity="1" /><path clip-path="url(#clip950)" d="M 0 0 M603.795 498.889 L626.017 498.889 L626.017 500.88 L613.471 533.449 L608.587 533.449 L620.392 502.824 L603.795 502.824 L603.795 498.889 Z" fill="#000000" fill-rule="evenodd" fill-opacity="1" /><path clip-path="url(#clip950)" d="M 0 0 M748.885 517.037 Q745.551 517.037 743.63 518.819 Q741.732 520.602 741.732 523.727 Q741.732 526.852 743.63 528.634 Q745.551 530.417 748.885 530.417 Q752.218 530.417 754.139 528.634 Q756.061 526.829 756.061 523.727 Q756.061 520.602 754.139 518.819 Q752.241 517.037 748.885 517.037 M744.209 515.046 Q741.2 514.306 739.51 512.245 Q737.843 510.185 737.843 507.222 Q737.843 503.079 740.783 500.671 Q743.746 498.264 748.885 498.264 Q754.047 498.264 756.987 500.671 Q759.926 503.079 759.926 507.222 Q759.926 510.185 758.237 512.245 Q756.57 514.306 753.584 515.046 Q756.963 515.833 758.838 518.125 Q760.737 520.417 760.737 523.727 Q760.737 528.75 757.658 531.435 Q754.602 534.12 748.885 534.12 Q743.167 534.12 740.089 531.435 Q737.033 528.75 737.033 523.727 Q737.033 520.417 738.931 518.125 Q740.829 515.833 744.209 515.046 M742.496 507.662 Q742.496 510.347 744.163 511.852 Q745.852 513.356 748.885 513.356 Q751.894 513.356 753.584 511.852 Q755.297 510.347 755.297 507.662 Q755.297 504.977 753.584 503.472 Q751.894 501.968 748.885 501.968 Q745.852 501.968 744.163 503.472 Q742.496 504.977 742.496 507.662 Z" fill="#000000" fill-rule="evenodd" fill-opacity="1" /><path clip-path="url(#clip950)" d="M 0 0 M605.207 264.774 L605.207 260.515 Q606.966 261.348 608.772 261.788 Q610.578 262.228 612.314 262.228 Q616.943 262.228 619.374 259.126 Q621.827 256.001 622.175 249.659 Q620.832 251.649 618.772 252.714 Q616.712 253.779 614.212 253.779 Q609.027 253.779 605.994 250.654 Q602.985 247.506 602.985 242.066 Q602.985 236.742 606.133 233.524 Q609.281 230.307 614.513 230.307 Q620.508 230.307 623.656 234.913 Q626.827 239.497 626.827 248.247 Q626.827 256.418 622.939 261.302 Q619.073 266.163 612.522 266.163 Q610.763 266.163 608.957 265.816 Q607.152 265.469 605.207 264.774 M614.513 250.122 Q617.661 250.122 619.49 247.969 Q621.341 245.816 621.341 242.066 Q621.341 238.339 619.49 236.186 Q617.661 234.011 614.513 234.011 Q611.365 234.011 609.513 236.186 Q607.684 238.339 607.684 242.066 Q607.684 245.816 609.513 247.969 Q611.365 250.122 614.513 250.122 Z" fill="#000000" fill-rule="evenodd" fill-opacity="1" /><path clip-path="url(#clip950)" d="M 0 0 M455.615 797.471 L463.254 797.471 L463.254 771.105 L454.944 772.772 L454.944 768.513 L463.208 766.846 L467.884 766.846 L467.884 797.471 L475.523 797.471 L475.523 801.406 L455.615 801.406 L455.615 797.471 Z" fill="#000000" fill-rule="evenodd" fill-opacity="1" /><path clip-path="url(#clip950)" d="M 0 0 M494.967 769.925 Q491.356 769.925 489.527 773.489 Q487.722 777.031 487.722 784.161 Q487.722 791.267 489.527 794.832 Q491.356 798.374 494.967 798.374 Q498.601 798.374 500.407 794.832 Q502.235 791.267 502.235 784.161 Q502.235 777.031 500.407 773.489 Q498.601 769.925 494.967 769.925 M494.967 766.221 Q500.777 766.221 503.833 770.827 Q506.911 775.411 506.911 784.161 Q506.911 792.888 503.833 797.494 Q500.777 802.077 494.967 802.077 Q489.157 802.077 486.078 797.494 Q483.023 792.888 483.023 784.161 Q483.023 775.411 486.078 770.827 Q489.157 766.221 494.967 766.221 Z" fill="#000000" fill-rule="evenodd" fill-opacity="1" /><path clip-path="url(#clip950)" d="M 0 0 M590.207 797.471 L597.846 797.471 L597.846 771.105 L589.536 772.772 L589.536 768.513 L597.8 766.846 L602.476 766.846 L602.476 797.471 L610.115 797.471 L610.115 801.406 L590.207 801.406 L590.207 797.471 Z" fill="#000000" fill-rule="evenodd" fill-opacity="1" /><path clip-path="url(#clip950)" d="M 0 0 M620.369 797.471 L628.008 797.471 L628.008 771.105 L619.698 772.772 L619.698 768.513 L627.962 766.846 L632.638 766.846 L632.638 797.471 L640.276 797.471 L640.276 801.406 L620.369 801.406 L620.369 797.471 Z" fill="#000000" fill-rule="evenodd" fill-opacity="1" /><path clip-path="url(#clip950)" d="M 0 0 M456.414 529.514 L464.053 529.514 L464.053 503.148 L455.743 504.815 L455.743 500.556 L464.006 498.889 L468.682 498.889 L468.682 529.514 L476.321 529.514 L476.321 533.449 L456.414 533.449 L456.414 529.514 Z" fill="#000000" fill-rule="evenodd" fill-opacity="1" /><path clip-path="url(#clip950)" d="M 0 0 M489.793 529.514 L506.113 529.514 L506.113 533.449 L484.168 533.449 L484.168 529.514 Q486.83 526.759 491.414 522.13 Q496.02 517.477 497.201 516.134 Q499.446 513.611 500.326 511.875 Q501.229 510.116 501.229 508.426 Q501.229 505.671 499.284 503.935 Q497.363 502.199 494.261 502.199 Q492.062 502.199 489.608 502.963 Q487.178 503.727 484.4 505.278 L484.4 500.556 Q487.224 499.421 489.678 498.843 Q492.131 498.264 494.168 498.264 Q499.539 498.264 502.733 500.949 Q505.928 503.634 505.928 508.125 Q505.928 510.255 505.117 512.176 Q504.33 514.074 502.224 516.667 Q501.645 517.338 498.543 520.555 Q495.442 523.75 489.793 529.514 Z" fill="#000000" fill-rule="evenodd" fill-opacity="1" /><path clip-path="url(#clip950)" d="M 0 0 M605.288 931.449 L612.927 931.449 L612.927 905.084 L604.617 906.75 L604.617 902.491 L612.881 900.825 L617.557 900.825 L617.557 931.449 L625.196 931.449 L625.196 935.385 L605.288 935.385 L605.288 931.449 Z" fill="#000000" fill-rule="evenodd" fill-opacity="1" /><path clip-path="url(#clip950)" d="M 0 0 M743.538 931.449 L759.857 931.449 L759.857 935.385 L737.913 935.385 L737.913 931.449 Q740.575 928.695 745.158 924.065 Q749.764 919.412 750.945 918.07 Q753.19 915.547 754.07 913.811 Q754.973 912.051 754.973 910.361 Q754.973 907.607 753.028 905.871 Q751.107 904.135 748.005 904.135 Q745.806 904.135 743.352 904.899 Q740.922 905.662 738.144 907.213 L738.144 902.491 Q740.968 901.357 743.422 900.778 Q745.876 900.2 747.913 900.2 Q753.283 900.2 756.477 902.885 Q759.672 905.57 759.672 910.061 Q759.672 912.19 758.862 914.111 Q758.075 916.01 755.968 918.602 Q755.389 919.273 752.288 922.491 Q749.186 925.685 743.538 931.449 Z" fill="#000000" fill-rule="evenodd" fill-opacity="1" /><path clip-path="url(#clip950)" d="M 0 0 M887.111 916.75 Q890.467 917.468 892.342 919.736 Q894.241 922.005 894.241 925.338 Q894.241 930.454 890.722 933.255 Q887.204 936.056 880.722 936.056 Q878.546 936.056 876.231 935.616 Q873.94 935.199 871.486 934.343 L871.486 929.829 Q873.43 930.963 875.745 931.542 Q878.06 932.121 880.583 932.121 Q884.981 932.121 887.273 930.385 Q889.588 928.648 889.588 925.338 Q889.588 922.283 887.435 920.57 Q885.305 918.834 881.486 918.834 L877.458 918.834 L877.458 914.991 L881.671 914.991 Q885.12 914.991 886.949 913.625 Q888.778 912.236 888.778 909.644 Q888.778 906.982 886.879 905.57 Q885.004 904.135 881.486 904.135 Q879.565 904.135 877.366 904.551 Q875.167 904.968 872.528 905.848 L872.528 901.681 Q875.19 900.94 877.505 900.57 Q879.842 900.2 881.903 900.2 Q887.227 900.2 890.329 902.63 Q893.43 905.037 893.43 909.158 Q893.43 912.028 891.787 914.019 Q890.143 915.986 887.111 916.75 Z" fill="#000000" fill-rule="evenodd" fill-opacity="1" /><path clip-path="url(#clip950)" d="M 0 0 M751.894 636.942 L740.089 655.39 L751.894 655.39 L751.894 636.942 M750.667 632.867 L756.547 632.867 L756.547 655.39 L761.477 655.39 L761.477 659.279 L756.547 659.279 L756.547 667.427 L751.894 667.427 L751.894 659.279 L736.292 659.279 L736.292 654.765 L750.667 632.867 Z" fill="#000000" fill-rule="evenodd" fill-opacity="1" /><path clip-path="url(#clip950)" d="M 0 0 M873.141 632.867 L891.497 632.867 L891.497 636.803 L877.423 636.803 L877.423 645.275 Q878.442 644.928 879.461 644.766 Q880.479 644.58 881.498 644.58 Q887.285 644.58 890.664 647.752 Q894.044 650.923 894.044 656.34 Q894.044 661.918 890.572 665.02 Q887.099 668.099 880.78 668.099 Q878.604 668.099 876.336 667.728 Q874.09 667.358 871.683 666.617 L871.683 661.918 Q873.766 663.052 875.988 663.608 Q878.211 664.164 880.687 664.164 Q884.692 664.164 887.03 662.057 Q889.368 659.951 889.368 656.34 Q889.368 652.728 887.03 650.622 Q884.692 648.516 880.687 648.516 Q878.812 648.516 876.937 648.932 Q875.086 649.349 873.141 650.228 L873.141 632.867 Z" fill="#000000" fill-rule="evenodd" fill-opacity="1" /><path clip-path="url(#clip950)" d="M 0 0 M1017.25 648.284 Q1014.1 648.284 1012.25 650.437 Q1010.42 652.59 1010.42 656.34 Q1010.42 660.066 1012.25 662.242 Q1014.1 664.395 1017.25 664.395 Q1020.4 664.395 1022.22 662.242 Q1024.08 660.066 1024.08 656.34 Q1024.08 652.59 1022.22 650.437 Q1020.4 648.284 1017.25 648.284 M1026.53 633.631 L1026.53 637.891 Q1024.77 637.057 1022.96 636.617 Q1021.18 636.178 1019.42 636.178 Q1014.79 636.178 1012.34 639.303 Q1009.91 642.428 1009.56 648.747 Q1010.93 646.733 1012.99 645.668 Q1015.05 644.58 1017.52 644.58 Q1022.73 644.58 1025.74 647.752 Q1028.77 650.9 1028.77 656.34 Q1028.77 661.664 1025.63 664.881 Q1022.48 668.099 1017.25 668.099 Q1011.25 668.099 1008.08 663.515 Q1004.91 658.909 1004.91 650.182 Q1004.91 641.988 1008.8 637.127 Q1012.69 632.242 1019.24 632.242 Q1021 632.242 1022.78 632.59 Q1024.58 632.937 1026.53 633.631 Z" fill="#000000" fill-rule="evenodd" fill-opacity="1" /><path clip-path="url(#clip950)" d="M 0 0 M871.752 766.846 L893.974 766.846 L893.974 768.837 L881.428 801.406 L876.544 801.406 L888.349 770.781 L871.752 770.781 L871.752 766.846 Z" fill="#000000" fill-rule="evenodd" fill-opacity="1" /><path clip-path="url(#clip950)" d="M 0 0 M1016.84 784.994 Q1013.51 784.994 1011.59 786.776 Q1009.69 788.559 1009.69 791.684 Q1009.69 794.809 1011.59 796.591 Q1013.51 798.374 1016.84 798.374 Q1020.18 798.374 1022.1 796.591 Q1024.02 794.786 1024.02 791.684 Q1024.02 788.559 1022.1 786.776 Q1020.2 784.994 1016.84 784.994 M1012.17 783.003 Q1009.16 782.263 1007.47 780.202 Q1005.8 778.142 1005.8 775.179 Q1005.8 771.036 1008.74 768.628 Q1011.7 766.221 1016.84 766.221 Q1022 766.221 1024.94 768.628 Q1027.88 771.036 1027.88 775.179 Q1027.88 778.142 1026.19 780.202 Q1024.53 782.263 1021.54 783.003 Q1024.92 783.79 1026.8 786.082 Q1028.69 788.374 1028.69 791.684 Q1028.69 796.707 1025.61 799.392 Q1022.56 802.077 1016.84 802.077 Q1011.12 802.077 1008.05 799.392 Q1004.99 796.707 1004.99 791.684 Q1004.99 788.374 1006.89 786.082 Q1008.79 783.79 1012.17 783.003 M1010.45 775.619 Q1010.45 778.304 1012.12 779.809 Q1013.81 781.313 1016.84 781.313 Q1019.85 781.313 1021.54 779.809 Q1023.25 778.304 1023.25 775.619 Q1023.25 772.934 1021.54 771.429 Q1019.85 769.925 1016.84 769.925 Q1013.81 769.925 1012.12 771.429 Q1010.45 772.934 1010.45 775.619 Z" fill="#000000" fill-rule="evenodd" fill-opacity="1" /><path clip-path="url(#clip950)" d="M 0 0 M873.164 532.731 L873.164 528.472 Q874.924 529.305 876.729 529.745 Q878.535 530.185 880.271 530.185 Q884.9 530.185 887.331 527.083 Q889.785 523.958 890.132 517.616 Q888.789 519.606 886.729 520.671 Q884.669 521.736 882.169 521.736 Q876.984 521.736 873.951 518.611 Q870.942 515.463 870.942 510.023 Q870.942 504.699 874.09 501.482 Q877.238 498.264 882.47 498.264 Q888.465 498.264 891.613 502.87 Q894.785 507.454 894.785 516.204 Q894.785 524.375 890.896 529.259 Q887.03 534.12 880.479 534.12 Q878.72 534.12 876.914 533.773 Q875.109 533.426 873.164 532.731 M882.47 518.079 Q885.618 518.079 887.447 515.926 Q889.298 513.773 889.298 510.023 Q889.298 506.296 887.447 504.144 Q885.618 501.968 882.47 501.968 Q879.322 501.968 877.47 504.144 Q875.641 506.296 875.641 510.023 Q875.641 513.773 877.47 515.926 Q879.322 518.079 882.47 518.079 Z" fill="#000000" fill-rule="evenodd" fill-opacity="1" /><path clip-path="url(#clip950)" d="M 0 0 M723.572 1065.43 L731.211 1065.43 L731.211 1039.06 L722.901 1040.73 L722.901 1036.47 L731.165 1034.8 L735.841 1034.8 L735.841 1065.43 L743.48 1065.43 L743.48 1069.36 L723.572 1069.36 L723.572 1065.43 Z" fill="#000000" fill-rule="evenodd" fill-opacity="1" /><path clip-path="url(#clip950)" d="M 0 0 M762.924 1037.88 Q759.313 1037.88 757.484 1041.45 Q755.679 1044.99 755.679 1052.12 Q755.679 1059.22 757.484 1062.79 Q759.313 1066.33 762.924 1066.33 Q766.558 1066.33 768.364 1062.79 Q770.193 1059.22 770.193 1052.12 Q770.193 1044.99 768.364 1041.45 Q766.558 1037.88 762.924 1037.88 M762.924 1034.18 Q768.734 1034.18 771.79 1038.78 Q774.868 1043.37 774.868 1052.12 Q774.868 1060.84 771.79 1065.45 Q768.734 1070.03 762.924 1070.03 Q757.114 1070.03 754.035 1065.45 Q750.98 1060.84 750.98 1052.12 Q750.98 1043.37 754.035 1038.78 Q757.114 1034.18 762.924 1034.18 Z" fill="#000000" fill-rule="evenodd" fill-opacity="1" /><path clip-path="url(#clip950)" d="M 0 0 M858.164 1065.43 L865.803 1065.43 L865.803 1039.06 L857.493 1040.73 L857.493 1036.47 L865.757 1034.8 L870.433 1034.8 L870.433 1065.43 L878.072 1065.43 L878.072 1069.36 L858.164 1069.36 L858.164 1065.43 Z" fill="#000000" fill-rule="evenodd" fill-opacity="1" /><path clip-path="url(#clip950)" d="M 0 0 M888.326 1065.43 L895.965 1065.43 L895.965 1039.06 L887.655 1040.73 L887.655 1036.47 L895.919 1034.8 L900.595 1034.8 L900.595 1065.43 L908.234 1065.43 L908.234 1069.36 L888.326 1069.36 L888.326 1065.43 Z" fill="#000000" fill-rule="evenodd" fill-opacity="1" /><path clip-path="url(#clip950)" d="M 0 0 M724.371 797.471 L732.01 797.471 L732.01 771.105 L723.7 772.772 L723.7 768.513 L731.964 766.846 L736.639 766.846 L736.639 797.471 L744.278 797.471 L744.278 801.406 L724.371 801.406 L724.371 797.471 Z" fill="#000000" fill-rule="evenodd" fill-opacity="1" /><path clip-path="url(#clip950)" d="M 0 0 M757.75 797.471 L774.07 797.471 L774.07 801.406 L752.125 801.406 L752.125 797.471 Q754.787 794.716 759.371 790.087 Q763.977 785.434 765.158 784.091 Q767.403 781.568 768.283 779.832 Q769.186 778.073 769.186 776.383 Q769.186 773.628 767.241 771.892 Q765.32 770.156 762.218 770.156 Q760.019 770.156 757.565 770.92 Q755.135 771.684 752.357 773.235 L752.357 768.513 Q755.181 767.378 757.635 766.8 Q760.088 766.221 762.125 766.221 Q767.496 766.221 770.69 768.906 Q773.885 771.591 773.885 776.082 Q773.885 778.212 773.074 780.133 Q772.287 782.031 770.181 784.624 Q769.602 785.295 766.5 788.513 Q763.399 791.707 757.75 797.471 Z" fill="#000000" fill-rule="evenodd" fill-opacity="1" /><path clip-path="url(#clip950)" d="M 0 0 M873.245 1199.41 L880.884 1199.41 L880.884 1173.04 L872.574 1174.71 L872.574 1170.45 L880.838 1168.78 L885.514 1168.78 L885.514 1199.41 L893.153 1199.41 L893.153 1203.34 L873.245 1203.34 L873.245 1199.41 Z" fill="#000000" fill-rule="evenodd" fill-opacity="1" /><path clip-path="url(#clip950)" d="M 0 0 M1011.49 1199.41 L1027.81 1199.41 L1027.81 1203.34 L1005.87 1203.34 L1005.87 1199.41 Q1008.53 1196.65 1013.11 1192.02 Q1017.72 1187.37 1018.9 1186.03 Q1021.15 1183.5 1022.03 1181.77 Q1022.93 1180.01 1022.93 1178.32 Q1022.93 1175.56 1020.99 1173.83 Q1019.06 1172.09 1015.96 1172.09 Q1013.76 1172.09 1011.31 1172.86 Q1008.88 1173.62 1006.1 1175.17 L1006.1 1170.45 Q1008.93 1169.31 1011.38 1168.74 Q1013.83 1168.16 1015.87 1168.16 Q1021.24 1168.16 1024.43 1170.84 Q1027.63 1173.53 1027.63 1178.02 Q1027.63 1180.15 1026.82 1182.07 Q1026.03 1183.97 1023.93 1186.56 Q1023.35 1187.23 1020.24 1190.45 Q1017.14 1193.64 1011.49 1199.41 Z" fill="#000000" fill-rule="evenodd" fill-opacity="1" /><path clip-path="url(#clip950)" d="M 0 0 M1155.07 1184.71 Q1158.42 1185.42 1160.3 1187.69 Q1162.2 1189.96 1162.2 1193.3 Q1162.2 1198.41 1158.68 1201.21 Q1155.16 1204.01 1148.68 1204.01 Q1146.5 1204.01 1144.19 1203.57 Q1141.9 1203.16 1139.44 1202.3 L1139.44 1197.79 Q1141.39 1198.92 1143.7 1199.5 Q1146.02 1200.08 1148.54 1200.08 Q1152.94 1200.08 1155.23 1198.34 Q1157.54 1196.61 1157.54 1193.3 Q1157.54 1190.24 1155.39 1188.53 Q1153.26 1186.79 1149.44 1186.79 L1145.42 1186.79 L1145.42 1182.95 L1149.63 1182.95 Q1153.08 1182.95 1154.91 1181.58 Q1156.73 1180.19 1156.73 1177.6 Q1156.73 1174.94 1154.84 1173.53 Q1152.96 1172.09 1149.44 1172.09 Q1147.52 1172.09 1145.32 1172.51 Q1143.12 1172.93 1140.48 1173.8 L1140.48 1169.64 Q1143.15 1168.9 1145.46 1168.53 Q1147.8 1168.16 1149.86 1168.16 Q1155.18 1168.16 1158.29 1170.59 Q1161.39 1172.99 1161.39 1177.11 Q1161.39 1179.99 1159.74 1181.98 Q1158.1 1183.94 1155.07 1184.71 Z" fill="#000000" fill-rule="evenodd" fill-opacity="1" /><path clip-path="url(#clip950)" d="M 0 0 M1019.85 904.899 L1008.05 923.348 L1019.85 923.348 L1019.85 904.899 M1018.62 900.825 L1024.5 900.825 L1024.5 923.348 L1029.43 923.348 L1029.43 927.236 L1024.5 927.236 L1024.5 935.385 L1019.85 935.385 L1019.85 927.236 L1004.25 927.236 L1004.25 922.723 L1018.62 900.825 Z" fill="#000000" fill-rule="evenodd" fill-opacity="1" /><path clip-path="url(#clip950)" d="M 0 0 M1141.1 900.825 L1159.45 900.825 L1159.45 904.76 L1145.38 904.76 L1145.38 913.232 Q1146.4 912.885 1147.42 912.723 Q1148.44 912.537 1149.45 912.537 Q1155.24 912.537 1158.62 915.709 Q1162 918.88 1162 924.297 Q1162 929.875 1158.53 932.977 Q1155.06 936.056 1148.74 936.056 Q1146.56 936.056 1144.29 935.685 Q1142.05 935.315 1139.64 934.574 L1139.64 929.875 Q1141.72 931.01 1143.95 931.565 Q1146.17 932.121 1148.64 932.121 Q1152.65 932.121 1154.99 930.014 Q1157.32 927.908 1157.32 924.297 Q1157.32 920.686 1154.99 918.579 Q1152.65 916.473 1148.64 916.473 Q1146.77 916.473 1144.89 916.889 Q1143.04 917.306 1141.1 918.186 L1141.1 900.825 Z" fill="#000000" fill-rule="evenodd" fill-opacity="1" /><path clip-path="url(#clip950)" d="M 0 0 M1285.2 916.241 Q1282.06 916.241 1280.2 918.394 Q1278.38 920.547 1278.38 924.297 Q1278.38 928.023 1280.2 930.199 Q1282.06 932.352 1285.2 932.352 Q1288.35 932.352 1290.18 930.199 Q1292.03 928.023 1292.03 924.297 Q1292.03 920.547 1290.18 918.394 Q1288.35 916.241 1285.2 916.241 M1294.49 901.588 L1294.49 905.848 Q1292.73 905.014 1290.92 904.574 Q1289.14 904.135 1287.38 904.135 Q1282.75 904.135 1280.3 907.26 Q1277.87 910.385 1277.52 916.704 Q1278.88 914.69 1280.94 913.625 Q1283 912.537 1285.48 912.537 Q1290.69 912.537 1293.7 915.709 Q1296.73 918.857 1296.73 924.297 Q1296.73 929.621 1293.58 932.838 Q1290.44 936.056 1285.2 936.056 Q1279.21 936.056 1276.04 931.472 Q1272.87 926.866 1272.87 918.139 Q1272.87 909.945 1276.75 905.084 Q1280.64 900.2 1287.19 900.2 Q1288.95 900.2 1290.74 900.547 Q1292.54 900.894 1294.49 901.588 Z" fill="#000000" fill-rule="evenodd" fill-opacity="1" /><path clip-path="url(#clip950)" d="M 0 0 M1139.71 1034.8 L1161.93 1034.8 L1161.93 1036.79 L1149.39 1069.36 L1144.5 1069.36 L1156.31 1038.74 L1139.71 1038.74 L1139.71 1034.8 Z" fill="#000000" fill-rule="evenodd" fill-opacity="1" /><path clip-path="url(#clip950)" d="M 0 0 M1284.8 1052.95 Q1281.47 1052.95 1279.54 1054.73 Q1277.65 1056.52 1277.65 1059.64 Q1277.65 1062.77 1279.54 1064.55 Q1281.47 1066.33 1284.8 1066.33 Q1288.13 1066.33 1290.05 1064.55 Q1291.97 1062.74 1291.97 1059.64 Q1291.97 1056.52 1290.05 1054.73 Q1288.16 1052.95 1284.8 1052.95 M1280.12 1050.96 Q1277.11 1050.22 1275.42 1048.16 Q1273.76 1046.1 1273.76 1043.14 Q1273.76 1038.99 1276.7 1036.59 Q1279.66 1034.18 1284.8 1034.18 Q1289.96 1034.18 1292.9 1036.59 Q1295.84 1038.99 1295.84 1043.14 Q1295.84 1046.1 1294.15 1048.16 Q1292.48 1050.22 1289.5 1050.96 Q1292.88 1051.75 1294.75 1054.04 Q1296.65 1056.33 1296.65 1059.64 Q1296.65 1064.66 1293.57 1067.35 Q1290.52 1070.03 1284.8 1070.03 Q1279.08 1070.03 1276 1067.35 Q1272.95 1064.66 1272.95 1059.64 Q1272.95 1056.33 1274.85 1054.04 Q1276.74 1051.75 1280.12 1050.96 M1278.41 1043.58 Q1278.41 1046.26 1280.08 1047.77 Q1281.77 1049.27 1284.8 1049.27 Q1287.81 1049.27 1289.5 1047.77 Q1291.21 1046.26 1291.21 1043.58 Q1291.21 1040.89 1289.5 1039.39 Q1287.81 1037.88 1284.8 1037.88 Q1281.77 1037.88 1280.08 1039.39 Q1278.41 1040.89 1278.41 1043.58 Z" fill="#000000" fill-rule="evenodd" fill-opacity="1" /><path clip-path="url(#clip950)" d="M 0 0 M1141.12 800.688 L1141.12 796.429 Q1142.88 797.262 1144.69 797.702 Q1146.49 798.142 1148.23 798.142 Q1152.86 798.142 1155.29 795.04 Q1157.74 791.915 1158.09 785.573 Q1156.75 787.563 1154.69 788.628 Q1152.63 789.693 1150.13 789.693 Q1144.94 789.693 1141.91 786.568 Q1138.9 783.42 1138.9 777.98 Q1138.9 772.656 1142.05 769.439 Q1145.2 766.221 1150.43 766.221 Q1156.42 766.221 1159.57 770.827 Q1162.74 775.411 1162.74 784.161 Q1162.74 792.332 1158.85 797.216 Q1154.99 802.077 1148.44 802.077 Q1146.68 802.077 1144.87 801.73 Q1143.07 801.383 1141.12 800.688 M1150.43 786.036 Q1153.57 786.036 1155.4 783.883 Q1157.26 781.73 1157.26 777.98 Q1157.26 774.253 1155.4 772.101 Q1153.57 769.925 1150.43 769.925 Q1147.28 769.925 1145.43 772.101 Q1143.6 774.253 1143.6 777.98 Q1143.6 781.73 1145.43 783.883 Q1147.28 786.036 1150.43 786.036 Z" fill="#000000" fill-rule="evenodd" fill-opacity="1" /><path clip-path="url(#clip950)" d="M 0 0 M991.529 1333.38 L999.168 1333.38 L999.168 1307.02 L990.858 1308.69 L990.858 1304.43 L999.122 1302.76 L1003.8 1302.76 L1003.8 1333.38 L1011.44 1333.38 L1011.44 1337.32 L991.529 1337.32 L991.529 1333.38 Z" fill="#000000" fill-rule="evenodd" fill-opacity="1" /><path clip-path="url(#clip950)" d="M 0 0 M1030.88 1305.84 Q1027.27 1305.84 1025.44 1309.4 Q1023.64 1312.95 1023.64 1320.07 Q1023.64 1327.18 1025.44 1330.75 Q1027.27 1334.29 1030.88 1334.29 Q1034.52 1334.29 1036.32 1330.75 Q1038.15 1327.18 1038.15 1320.07 Q1038.15 1312.95 1036.32 1309.4 Q1034.52 1305.84 1030.88 1305.84 M1030.88 1302.14 Q1036.69 1302.14 1039.75 1306.74 Q1042.83 1311.32 1042.83 1320.07 Q1042.83 1328.8 1039.75 1333.41 Q1036.69 1337.99 1030.88 1337.99 Q1025.07 1337.99 1021.99 1333.41 Q1018.94 1328.8 1018.94 1320.07 Q1018.94 1311.32 1021.99 1306.74 Q1025.07 1302.14 1030.88 1302.14 Z" fill="#000000" fill-rule="evenodd" fill-opacity="1" /><path clip-path="url(#clip950)" d="M 0 0 M1126.12 1333.38 L1133.76 1333.38 L1133.76 1307.02 L1125.45 1308.69 L1125.45 1304.43 L1133.71 1302.76 L1138.39 1302.76 L1138.39 1333.38 L1146.03 1333.38 L1146.03 1337.32 L1126.12 1337.32 L1126.12 1333.38 Z" fill="#000000" fill-rule="evenodd" fill-opacity="1" /><path clip-path="url(#clip950)" d="M 0 0 M1156.28 1333.38 L1163.92 1333.38 L1163.92 1307.02 L1155.61 1308.69 L1155.61 1304.43 L1163.88 1302.76 L1168.55 1302.76 L1168.55 1333.38 L1176.19 1333.38 L1176.19 1337.32 L1156.28 1337.32 L1156.28 1333.38 Z" fill="#000000" fill-rule="evenodd" fill-opacity="1" /><path clip-path="url(#clip950)" d="M 0 0 M992.328 1065.43 L999.967 1065.43 L999.967 1039.06 L991.657 1040.73 L991.657 1036.47 L999.921 1034.8 L1004.6 1034.8 L1004.6 1065.43 L1012.24 1065.43 L1012.24 1069.36 L992.328 1069.36 L992.328 1065.43 Z" fill="#000000" fill-rule="evenodd" fill-opacity="1" /><path clip-path="url(#clip950)" d="M 0 0 M1025.71 1065.43 L1042.03 1065.43 L1042.03 1069.36 L1020.08 1069.36 L1020.08 1065.43 Q1022.74 1062.67 1027.33 1058.04 Q1031.93 1053.39 1033.11 1052.05 Q1035.36 1049.53 1036.24 1047.79 Q1037.14 1046.03 1037.14 1044.34 Q1037.14 1041.59 1035.2 1039.85 Q1033.28 1038.11 1030.18 1038.11 Q1027.98 1038.11 1025.52 1038.88 Q1023.09 1039.64 1020.31 1041.19 L1020.31 1036.47 Q1023.14 1035.34 1025.59 1034.76 Q1028.05 1034.18 1030.08 1034.18 Q1035.45 1034.18 1038.65 1036.86 Q1041.84 1039.55 1041.84 1044.04 Q1041.84 1046.17 1041.03 1048.09 Q1040.24 1049.99 1038.14 1052.58 Q1037.56 1053.25 1034.46 1056.47 Q1031.36 1059.66 1025.71 1065.43 Z" fill="#000000" fill-rule="evenodd" fill-opacity="1" /><path clip-path="url(#clip950)" d="M 0 0 M605.288 127.578 L612.927 127.578 L612.927 101.213 L604.617 102.879 L604.617 98.62 L612.881 96.9534 L617.557 96.9534 L617.557 127.578 L625.196 127.578 L625.196 131.513 L605.288 131.513 L605.288 127.578 Z" fill="#000000" fill-rule="evenodd" fill-opacity="1" /><path clip-path="url(#clip950)" d="M 0 0 M743.538 127.578 L759.857 127.578 L759.857 131.513 L737.913 131.513 L737.913 127.578 Q740.575 124.824 745.158 120.194 Q749.764 115.541 750.945 114.199 Q753.19 111.676 754.07 109.939 Q754.973 108.18 754.973 106.49 Q754.973 103.736 753.028 102 Q751.107 100.264 748.005 100.264 Q745.806 100.264 743.352 101.027 Q740.922 101.791 738.144 103.342 L738.144 98.62 Q740.968 97.4858 743.422 96.9071 Q745.876 96.3284 747.913 96.3284 Q753.283 96.3284 756.477 99.0135 Q759.672 101.699 759.672 106.189 Q759.672 108.319 758.862 110.24 Q758.075 112.138 755.968 114.731 Q755.389 115.402 752.288 118.62 Q749.186 121.814 743.538 127.578 Z" fill="#000000" fill-rule="evenodd" fill-opacity="1" /><path clip-path="url(#clip950)" d="M 0 0 M887.111 112.879 Q890.467 113.597 892.342 115.865 Q894.241 118.134 894.241 121.467 Q894.241 126.583 890.722 129.384 Q887.204 132.185 880.722 132.185 Q878.546 132.185 876.231 131.745 Q873.94 131.328 871.486 130.472 L871.486 125.958 Q873.43 127.092 875.745 127.671 Q878.06 128.249 880.583 128.249 Q884.981 128.249 887.273 126.513 Q889.588 124.777 889.588 121.467 Q889.588 118.412 887.435 116.699 Q885.305 114.963 881.486 114.963 L877.458 114.963 L877.458 111.12 L881.671 111.12 Q885.12 111.12 886.949 109.754 Q888.778 108.365 888.778 105.773 Q888.778 103.111 886.879 101.699 Q885.004 100.264 881.486 100.264 Q879.565 100.264 877.366 100.68 Q875.167 101.097 872.528 101.976 L872.528 97.8098 Q875.19 97.0691 877.505 96.6987 Q879.842 96.3284 881.903 96.3284 Q887.227 96.3284 890.329 98.7589 Q893.43 101.166 893.43 105.287 Q893.43 108.157 891.787 110.148 Q890.143 112.115 887.111 112.879 Z" fill="#000000" fill-rule="evenodd" fill-opacity="1" /><path clip-path="url(#clip950)" d="M 0 0 M723.572 261.557 L731.211 261.557 L731.211 235.191 L722.901 236.858 L722.901 232.599 L731.165 230.932 L735.841 230.932 L735.841 261.557 L743.48 261.557 L743.48 265.492 L723.572 265.492 L723.572 261.557 Z" fill="#000000" fill-rule="evenodd" fill-opacity="1" /><path clip-path="url(#clip950)" d="M 0 0 M762.924 234.011 Q759.313 234.011 757.484 237.575 Q755.679 241.117 755.679 248.247 Q755.679 255.353 757.484 258.918 Q759.313 262.459 762.924 262.459 Q766.558 262.459 768.364 258.918 Q770.193 255.353 770.193 248.247 Q770.193 241.117 768.364 237.575 Q766.558 234.011 762.924 234.011 M762.924 230.307 Q768.734 230.307 771.79 234.913 Q774.868 239.497 774.868 248.247 Q774.868 256.973 771.79 261.58 Q768.734 266.163 762.924 266.163 Q757.114 266.163 754.035 261.58 Q750.98 256.973 750.98 248.247 Q750.98 239.497 754.035 234.913 Q757.114 230.307 762.924 230.307 Z" fill="#000000" fill-rule="evenodd" fill-opacity="1" /><path clip-path="url(#clip950)" d="M 0 0 M858.164 261.557 L865.803 261.557 L865.803 235.191 L857.493 236.858 L857.493 232.599 L865.757 230.932 L870.433 230.932 L870.433 261.557 L878.072 261.557 L878.072 265.492 L858.164 265.492 L858.164 261.557 Z" fill="#000000" fill-rule="evenodd" fill-opacity="1" /><path clip-path="url(#clip950)" d="M 0 0 M888.326 261.557 L895.965 261.557 L895.965 235.191 L887.655 236.858 L887.655 232.599 L895.919 230.932 L900.595 230.932 L900.595 261.557 L908.234 261.557 L908.234 265.492 L888.326 265.492 L888.326 261.557 Z" fill="#000000" fill-rule="evenodd" fill-opacity="1" /><path clip-path="url(#clip950)" d="M 0 0 M873.245 395.535 L880.884 395.535 L880.884 369.17 L872.574 370.836 L872.574 366.577 L880.838 364.91 L885.514 364.91 L885.514 395.535 L893.153 395.535 L893.153 399.47 L873.245 399.47 L873.245 395.535 Z" fill="#000000" fill-rule="evenodd" fill-opacity="1" /><path clip-path="url(#clip950)" d="M 0 0 M1011.49 395.535 L1027.81 395.535 L1027.81 399.47 L1005.87 399.47 L1005.87 395.535 Q1008.53 392.781 1013.11 388.151 Q1017.72 383.498 1018.9 382.156 Q1021.15 379.633 1022.03 377.896 Q1022.93 376.137 1022.93 374.447 Q1022.93 371.693 1020.99 369.957 Q1019.06 368.221 1015.96 368.221 Q1013.76 368.221 1011.31 368.984 Q1008.88 369.748 1006.1 371.299 L1006.1 366.577 Q1008.93 365.443 1011.38 364.864 Q1013.83 364.285 1015.87 364.285 Q1021.24 364.285 1024.43 366.971 Q1027.63 369.656 1027.63 374.146 Q1027.63 376.276 1026.82 378.197 Q1026.03 380.096 1023.93 382.688 Q1023.35 383.359 1020.24 386.577 Q1017.14 389.771 1011.49 395.535 Z" fill="#000000" fill-rule="evenodd" fill-opacity="1" /><path clip-path="url(#clip950)" d="M 0 0 M1155.07 380.836 Q1158.42 381.554 1160.3 383.822 Q1162.2 386.091 1162.2 389.424 Q1162.2 394.54 1158.68 397.341 Q1155.16 400.142 1148.68 400.142 Q1146.5 400.142 1144.19 399.702 Q1141.9 399.285 1139.44 398.429 L1139.44 393.915 Q1141.39 395.049 1143.7 395.628 Q1146.02 396.207 1148.54 396.207 Q1152.94 396.207 1155.23 394.47 Q1157.54 392.734 1157.54 389.424 Q1157.54 386.369 1155.39 384.656 Q1153.26 382.92 1149.44 382.92 L1145.42 382.92 L1145.42 379.077 L1149.63 379.077 Q1153.08 379.077 1154.91 377.711 Q1156.73 376.322 1156.73 373.73 Q1156.73 371.068 1154.84 369.656 Q1152.96 368.221 1149.44 368.221 Q1147.52 368.221 1145.32 368.637 Q1143.12 369.054 1140.48 369.934 L1140.48 365.767 Q1143.15 365.026 1145.46 364.656 Q1147.8 364.285 1149.86 364.285 Q1155.18 364.285 1158.29 366.716 Q1161.39 369.123 1161.39 373.244 Q1161.39 376.114 1159.74 378.105 Q1158.1 380.072 1155.07 380.836 Z" fill="#000000" fill-rule="evenodd" fill-opacity="1" /><path clip-path="url(#clip950)" d="M 0 0 M1019.85 101.027 L1008.05 119.476 L1019.85 119.476 L1019.85 101.027 M1018.62 96.9534 L1024.5 96.9534 L1024.5 119.476 L1029.43 119.476 L1029.43 123.365 L1024.5 123.365 L1024.5 131.513 L1019.85 131.513 L1019.85 123.365 L1004.25 123.365 L1004.25 118.851 L1018.62 96.9534 Z" fill="#000000" fill-rule="evenodd" fill-opacity="1" /><path clip-path="url(#clip950)" d="M 0 0 M1141.1 96.9534 L1159.45 96.9534 L1159.45 100.889 L1145.38 100.889 L1145.38 109.361 Q1146.4 109.013 1147.42 108.851 Q1148.44 108.666 1149.45 108.666 Q1155.24 108.666 1158.62 111.838 Q1162 115.009 1162 120.425 Q1162 126.004 1158.53 129.106 Q1155.06 132.185 1148.74 132.185 Q1146.56 132.185 1144.29 131.814 Q1142.05 131.444 1139.64 130.703 L1139.64 126.004 Q1141.72 127.138 1143.95 127.694 Q1146.17 128.249 1148.64 128.249 Q1152.65 128.249 1154.99 126.143 Q1157.32 124.037 1157.32 120.425 Q1157.32 116.814 1154.99 114.708 Q1152.65 112.601 1148.64 112.601 Q1146.77 112.601 1144.89 113.018 Q1143.04 113.435 1141.1 114.314 L1141.1 96.9534 Z" fill="#000000" fill-rule="evenodd" fill-opacity="1" /><path clip-path="url(#clip950)" d="M 0 0 M1285.2 112.37 Q1282.06 112.37 1280.2 114.523 Q1278.38 116.675 1278.38 120.425 Q1278.38 124.152 1280.2 126.328 Q1282.06 128.481 1285.2 128.481 Q1288.35 128.481 1290.18 126.328 Q1292.03 124.152 1292.03 120.425 Q1292.03 116.675 1290.18 114.523 Q1288.35 112.37 1285.2 112.37 M1294.49 97.7172 L1294.49 101.976 Q1292.73 101.143 1290.92 100.703 Q1289.14 100.264 1287.38 100.264 Q1282.75 100.264 1280.3 103.389 Q1277.87 106.513 1277.52 112.833 Q1278.88 110.819 1280.94 109.754 Q1283 108.666 1285.48 108.666 Q1290.69 108.666 1293.7 111.838 Q1296.73 114.986 1296.73 120.425 Q1296.73 125.749 1293.58 128.967 Q1290.44 132.185 1285.2 132.185 Q1279.21 132.185 1276.04 127.601 Q1272.87 122.995 1272.87 114.268 Q1272.87 106.074 1276.75 101.213 Q1280.64 96.3284 1287.19 96.3284 Q1288.95 96.3284 1290.74 96.6756 Q1292.54 97.0228 1294.49 97.7172 Z" fill="#000000" fill-rule="evenodd" fill-opacity="1" /><path clip-path="url(#clip950)" d="M 0 0 M1139.71 230.932 L1161.93 230.932 L1161.93 232.923 L1149.39 265.492 L1144.5 265.492 L1156.31 234.867 L1139.71 234.867 L1139.71 230.932 Z" fill="#000000" fill-rule="evenodd" fill-opacity="1" /><path clip-path="url(#clip950)" d="M 0 0 M1284.8 249.08 Q1281.47 249.08 1279.54 250.862 Q1277.65 252.645 1277.65 255.77 Q1277.65 258.895 1279.54 260.677 Q1281.47 262.459 1284.8 262.459 Q1288.13 262.459 1290.05 260.677 Q1291.97 258.872 1291.97 255.77 Q1291.97 252.645 1290.05 250.862 Q1288.16 249.08 1284.8 249.08 M1280.12 247.089 Q1277.11 246.348 1275.42 244.288 Q1273.76 242.228 1273.76 239.265 Q1273.76 235.122 1276.7 232.714 Q1279.66 230.307 1284.8 230.307 Q1289.96 230.307 1292.9 232.714 Q1295.84 235.122 1295.84 239.265 Q1295.84 242.228 1294.15 244.288 Q1292.48 246.348 1289.5 247.089 Q1292.88 247.876 1294.75 250.168 Q1296.65 252.46 1296.65 255.77 Q1296.65 260.793 1293.57 263.478 Q1290.52 266.163 1284.8 266.163 Q1279.08 266.163 1276 263.478 Q1272.95 260.793 1272.95 255.77 Q1272.95 252.46 1274.85 250.168 Q1276.74 247.876 1280.12 247.089 M1278.41 239.705 Q1278.41 242.39 1280.08 243.895 Q1281.77 245.399 1284.8 245.399 Q1287.81 245.399 1289.5 243.895 Q1291.21 242.39 1291.21 239.705 Q1291.21 237.02 1289.5 235.515 Q1287.81 234.011 1284.8 234.011 Q1281.77 234.011 1280.08 235.515 Q1278.41 237.02 1278.41 239.705 Z" fill="#000000" fill-rule="evenodd" fill-opacity="1" /><path clip-path="url(#clip950)" d="M 0 0 M991.529 529.514 L999.168 529.514 L999.168 503.148 L990.858 504.815 L990.858 500.556 L999.122 498.889 L1003.8 498.889 L1003.8 529.514 L1011.44 529.514 L1011.44 533.449 L991.529 533.449 L991.529 529.514 Z" fill="#000000" fill-rule="evenodd" fill-opacity="1" /><path clip-path="url(#clip950)" d="M 0 0 M1030.88 501.968 Q1027.27 501.968 1025.44 505.532 Q1023.64 509.074 1023.64 516.204 Q1023.64 523.31 1025.44 526.875 Q1027.27 530.417 1030.88 530.417 Q1034.52 530.417 1036.32 526.875 Q1038.15 523.31 1038.15 516.204 Q1038.15 509.074 1036.32 505.532 Q1034.52 501.968 1030.88 501.968 M1030.88 498.264 Q1036.69 498.264 1039.75 502.87 Q1042.83 507.454 1042.83 516.204 Q1042.83 524.93 1039.75 529.537 Q1036.69 534.12 1030.88 534.12 Q1025.07 534.12 1021.99 529.537 Q1018.94 524.93 1018.94 516.204 Q1018.94 507.454 1021.99 502.87 Q1025.07 498.264 1030.88 498.264 Z" fill="#000000" fill-rule="evenodd" fill-opacity="1" /><path clip-path="url(#clip950)" d="M 0 0 M1126.12 529.514 L1133.76 529.514 L1133.76 503.148 L1125.45 504.815 L1125.45 500.556 L1133.71 498.889 L1138.39 498.889 L1138.39 529.514 L1146.03 529.514 L1146.03 533.449 L1126.12 533.449 L1126.12 529.514 Z" fill="#000000" fill-rule="evenodd" fill-opacity="1" /><path clip-path="url(#clip950)" d="M 0 0 M1156.28 529.514 L1163.92 529.514 L1163.92 503.148 L1155.61 504.815 L1155.61 500.556 L1163.88 498.889 L1168.55 498.889 L1168.55 529.514 L1176.19 529.514 L1176.19 533.449 L1156.28 533.449 L1156.28 529.514 Z" fill="#000000" fill-rule="evenodd" fill-opacity="1" /><path clip-path="url(#clip950)" d="M 0 0 M992.328 261.557 L999.967 261.557 L999.967 235.191 L991.657 236.858 L991.657 232.599 L999.921 230.932 L1004.6 230.932 L1004.6 261.557 L1012.24 261.557 L1012.24 265.492 L992.328 265.492 L992.328 261.557 Z" fill="#000000" fill-rule="evenodd" fill-opacity="1" /><path clip-path="url(#clip950)" d="M 0 0 M1025.71 261.557 L1042.03 261.557 L1042.03 265.492 L1020.08 265.492 L1020.08 261.557 Q1022.74 258.802 1027.33 254.172 Q1031.93 249.52 1033.11 248.177 Q1035.36 245.654 1036.24 243.918 Q1037.14 242.159 1037.14 240.469 Q1037.14 237.714 1035.2 235.978 Q1033.28 234.242 1030.18 234.242 Q1027.98 234.242 1025.52 235.006 Q1023.09 235.77 1020.31 237.321 L1020.31 232.599 Q1023.14 231.464 1025.59 230.886 Q1028.05 230.307 1030.08 230.307 Q1035.45 230.307 1038.65 232.992 Q1041.84 235.677 1041.84 240.168 Q1041.84 242.298 1041.03 244.219 Q1040.24 246.117 1038.14 248.71 Q1037.56 249.381 1034.46 252.598 Q1031.36 255.793 1025.71 261.557 Z" fill="#000000" fill-rule="evenodd" fill-opacity="1" /><path clip-path="url(#clip950)" d="M 0 0 M1141.2 663.492 L1148.84 663.492 L1148.84 637.127 L1140.53 638.793 L1140.53 634.534 L1148.79 632.867 L1153.47 632.867 L1153.47 663.492 L1161.11 663.492 L1161.11 667.427 L1141.2 667.427 L1141.2 663.492 Z" fill="#000000" fill-rule="evenodd" fill-opacity="1" /><path clip-path="url(#clip950)" d="M 0 0 M1279.45 663.492 L1295.77 663.492 L1295.77 667.427 L1273.83 667.427 L1273.83 663.492 Q1276.49 660.738 1281.07 656.108 Q1285.68 651.455 1286.86 650.113 Q1289.1 647.59 1289.98 645.854 Q1290.89 644.094 1290.89 642.404 Q1290.89 639.65 1288.94 637.914 Q1287.02 636.178 1283.92 636.178 Q1281.72 636.178 1279.27 636.942 Q1276.84 637.705 1274.06 639.256 L1274.06 634.534 Q1276.88 633.4 1279.34 632.821 Q1281.79 632.242 1283.83 632.242 Q1289.2 632.242 1292.39 634.928 Q1295.59 637.613 1295.59 642.104 Q1295.59 644.233 1294.78 646.154 Q1293.99 648.053 1291.88 650.645 Q1291.3 651.316 1288.2 654.534 Q1285.1 657.728 1279.45 663.492 Z" fill="#000000" fill-rule="evenodd" fill-opacity="1" /><path clip-path="url(#clip950)" d="M 0 0 M1423.03 648.793 Q1426.38 649.511 1428.26 651.779 Q1430.15 654.048 1430.15 657.381 Q1430.15 662.497 1426.64 665.298 Q1423.12 668.099 1416.64 668.099 Q1414.46 668.099 1412.15 667.659 Q1409.85 667.242 1407.4 666.386 L1407.4 661.872 Q1409.34 663.006 1411.66 663.585 Q1413.97 664.164 1416.5 664.164 Q1420.9 664.164 1423.19 662.427 Q1425.5 660.691 1425.5 657.381 Q1425.5 654.326 1423.35 652.613 Q1421.22 650.877 1417.4 650.877 L1413.37 650.877 L1413.37 647.034 L1417.59 647.034 Q1421.03 647.034 1422.86 645.668 Q1424.69 644.279 1424.69 641.687 Q1424.69 639.025 1422.79 637.613 Q1420.92 636.178 1417.4 636.178 Q1415.48 636.178 1413.28 636.594 Q1411.08 637.011 1408.44 637.891 L1408.44 633.724 Q1411.1 632.983 1413.42 632.613 Q1415.76 632.242 1417.82 632.242 Q1423.14 632.242 1426.24 634.673 Q1429.34 637.08 1429.34 641.201 Q1429.34 644.071 1427.7 646.062 Q1426.06 648.029 1423.03 648.793 Z" fill="#000000" fill-rule="evenodd" fill-opacity="1" /><path clip-path="url(#clip950)" d="M 0 0 M1287.81 368.984 L1276 387.433 L1287.81 387.433 L1287.81 368.984 M1286.58 364.91 L1292.46 364.91 L1292.46 387.433 L1297.39 387.433 L1297.39 391.322 L1292.46 391.322 L1292.46 399.47 L1287.81 399.47 L1287.81 391.322 L1272.21 391.322 L1272.21 386.808 L1286.58 364.91 Z" fill="#000000" fill-rule="evenodd" fill-opacity="1" /><path clip-path="url(#clip950)" d="M 0 0 M1409.06 364.91 L1427.41 364.91 L1427.41 368.846 L1413.34 368.846 L1413.34 377.318 Q1414.36 376.971 1415.37 376.808 Q1416.39 376.623 1417.41 376.623 Q1423.2 376.623 1426.58 379.795 Q1429.96 382.966 1429.96 388.383 Q1429.96 393.961 1426.49 397.063 Q1423.01 400.142 1416.69 400.142 Q1414.52 400.142 1412.25 399.771 Q1410 399.401 1407.6 398.66 L1407.6 393.961 Q1409.68 395.095 1411.9 395.651 Q1414.12 396.207 1416.6 396.207 Q1420.61 396.207 1422.94 394.1 Q1425.28 391.994 1425.28 388.383 Q1425.28 384.771 1422.94 382.665 Q1420.61 380.558 1416.6 380.558 Q1414.73 380.558 1412.85 380.975 Q1411 381.392 1409.06 382.271 L1409.06 364.91 Z" fill="#000000" fill-rule="evenodd" fill-opacity="1" /><path clip-path="url(#clip950)" d="M 0 0 M1407.67 498.889 L1429.89 498.889 L1429.89 500.88 L1417.34 533.449 L1412.46 533.449 L1424.26 502.824 L1407.67 502.824 L1407.67 498.889 Z" fill="#000000" fill-rule="evenodd" fill-opacity="1" /><path clip-path="url(#clip950)" d="M 0 0 M1409.08 264.774 L1409.08 260.515 Q1410.84 261.348 1412.64 261.788 Q1414.45 262.228 1416.18 262.228 Q1420.81 262.228 1423.24 259.126 Q1425.7 256.001 1426.05 249.659 Q1424.7 251.649 1422.64 252.714 Q1420.58 253.779 1418.08 253.779 Q1412.9 253.779 1409.87 250.654 Q1406.86 247.506 1406.86 242.066 Q1406.86 236.742 1410 233.524 Q1413.15 230.307 1418.38 230.307 Q1424.38 230.307 1427.53 234.913 Q1430.7 239.497 1430.7 248.247 Q1430.7 256.418 1426.81 261.302 Q1422.94 266.163 1416.39 266.163 Q1414.63 266.163 1412.83 265.816 Q1411.02 265.469 1409.08 264.774 M1418.38 250.122 Q1421.53 250.122 1423.36 247.969 Q1425.21 245.816 1425.21 242.066 Q1425.21 238.339 1423.36 236.186 Q1421.53 234.011 1418.38 234.011 Q1415.24 234.011 1413.38 236.186 Q1411.56 238.339 1411.56 242.066 Q1411.56 245.816 1413.38 247.969 Q1415.24 250.122 1418.38 250.122 Z" fill="#000000" fill-rule="evenodd" fill-opacity="1" /><path clip-path="url(#clip950)" d="M 0 0 M1259.49 797.471 L1267.13 797.471 L1267.13 771.105 L1258.82 772.772 L1258.82 768.513 L1267.08 766.846 L1271.75 766.846 L1271.75 797.471 L1279.39 797.471 L1279.39 801.406 L1259.49 801.406 L1259.49 797.471 Z" fill="#000000" fill-rule="evenodd" fill-opacity="1" /><path clip-path="url(#clip950)" d="M 0 0 M1298.84 769.925 Q1295.23 769.925 1293.4 773.489 Q1291.59 777.031 1291.59 784.161 Q1291.59 791.267 1293.4 794.832 Q1295.23 798.374 1298.84 798.374 Q1302.47 798.374 1304.28 794.832 Q1306.11 791.267 1306.11 784.161 Q1306.11 777.031 1304.28 773.489 Q1302.47 769.925 1298.84 769.925 M1298.84 766.221 Q1304.65 766.221 1307.7 770.827 Q1310.78 775.411 1310.78 784.161 Q1310.78 792.888 1307.7 797.494 Q1304.65 802.077 1298.84 802.077 Q1293.03 802.077 1289.95 797.494 Q1286.89 792.888 1286.89 784.161 Q1286.89 775.411 1289.95 770.827 Q1293.03 766.221 1298.84 766.221 Z" fill="#000000" fill-rule="evenodd" fill-opacity="1" /><path clip-path="url(#clip950)" d="M 0 0 M1394.08 797.471 L1401.72 797.471 L1401.72 771.105 L1393.41 772.772 L1393.41 768.513 L1401.67 766.846 L1406.35 766.846 L1406.35 797.471 L1413.99 797.471 L1413.99 801.406 L1394.08 801.406 L1394.08 797.471 Z" fill="#000000" fill-rule="evenodd" fill-opacity="1" /><path clip-path="url(#clip950)" d="M 0 0 M1424.24 797.471 L1431.88 797.471 L1431.88 771.105 L1423.57 772.772 L1423.57 768.513 L1431.83 766.846 L1436.51 766.846 L1436.51 797.471 L1444.15 797.471 L1444.15 801.406 L1424.24 801.406 L1424.24 797.471 Z" fill="#000000" fill-rule="evenodd" fill-opacity="1" /><path clip-path="url(#clip950)" d="M 0 0 M1260.29 529.514 L1267.92 529.514 L1267.92 503.148 L1259.61 504.815 L1259.61 500.556 L1267.88 498.889 L1272.55 498.889 L1272.55 529.514 L1280.19 529.514 L1280.19 533.449 L1260.29 533.449 L1260.29 529.514 Z" fill="#000000" fill-rule="evenodd" fill-opacity="1" /><path clip-path="url(#clip950)" d="M 0 0 M1293.66 529.514 L1309.98 529.514 L1309.98 533.449 L1288.04 533.449 L1288.04 529.514 Q1290.7 526.759 1295.28 522.13 Q1299.89 517.477 1301.07 516.134 Q1303.32 513.611 1304.2 511.875 Q1305.1 510.116 1305.1 508.426 Q1305.1 505.671 1303.16 503.935 Q1301.23 502.199 1298.13 502.199 Q1295.93 502.199 1293.48 502.963 Q1291.05 503.727 1288.27 505.278 L1288.27 500.556 Q1291.1 499.421 1293.55 498.843 Q1296 498.264 1298.04 498.264 Q1303.41 498.264 1306.6 500.949 Q1309.8 503.634 1309.8 508.125 Q1309.8 510.255 1308.99 512.176 Q1308.2 514.074 1306.1 516.667 Q1305.52 517.338 1302.41 520.555 Q1299.31 523.75 1293.66 529.514 Z" fill="#000000" fill-rule="evenodd" fill-opacity="1" /></svg>
