<?xml version="1.0" encoding="utf-8"?>
<svg xmlns="http://www.w3.org/2000/svg" xmlns:xlink="http://www.w3.org/1999/xlink" width="200" height="250" viewBox="0 0 800 1000">
<defs>
  <clipPath id="clip800">
    <rect x="0" y="0" width="800" height="1000"/>
  </clipPath>
</defs>
<path clip-path="url(#clip800)" d="
M0 1000 L800 1000 L800 0 L0 0  Z
  " fill="#ffffff" fill-rule="evenodd" fill-opacity="1"/>
<defs>
  <clipPath id="clip801">
    <rect x="200" y="100" width="701" height="701"/>
  </clipPath>
</defs>
<path clip-path="url(#clip800)" d="
M70.9921 927.008 L752.756 927.008 L752.756 62.9921 L70.9921 62.9921  Z
  " fill="#ffffff" fill-rule="evenodd" fill-opacity="1"/>
<defs>
  <clipPath id="clip802">
    <rect x="70" y="62" width="683" height="865"/>
  </clipPath>
</defs>
<polyline clip-path="url(#clip800)" style="stroke:#000000; stroke-width:4; stroke-opacity:1; fill:none" points="
  70.9921,927.008 752.756,927.008 
  "/>
<polyline clip-path="url(#clip800)" style="stroke:#000000; stroke-width:4; stroke-opacity:1; fill:none" points="
  139.169,927.008 139.169,916.64 
  "/>
<polyline clip-path="url(#clip800)" style="stroke:#000000; stroke-width:4; stroke-opacity:1; fill:none" points="
  275.521,927.008 275.521,916.64 
  "/>
<polyline clip-path="url(#clip800)" style="stroke:#000000; stroke-width:4; stroke-opacity:1; fill:none" points="
  411.874,927.008 411.874,916.64 
  "/>
<polyline clip-path="url(#clip800)" style="stroke:#000000; stroke-width:4; stroke-opacity:1; fill:none" points="
  548.227,927.008 548.227,916.64 
  "/>
<polyline clip-path="url(#clip800)" style="stroke:#000000; stroke-width:4; stroke-opacity:1; fill:none" points="
  684.58,927.008 684.58,916.64 
  "/>
<path clip-path="url(#clip800)" d="M 0 0 M109.111 959.651 L138.787 959.651 L138.787 963.586 L109.111 963.586 L109.111 959.651 Z" fill="#000000" fill-rule="evenodd" fill-opacity="1" /><path clip-path="url(#clip800)" d="M 0 0 M152.907 972.545 L169.226 972.545 L169.226 976.48 L147.282 976.48 L147.282 972.545 Q149.944 969.79 154.527 965.16 Q159.134 960.508 160.314 959.165 Q162.56 956.642 163.439 954.906 Q164.342 953.147 164.342 951.457 Q164.342 948.702 162.398 946.966 Q160.476 945.23 157.374 945.23 Q155.175 945.23 152.722 945.994 Q150.291 946.758 147.513 948.309 L147.513 943.587 Q150.337 942.452 152.791 941.874 Q155.245 941.295 157.282 941.295 Q162.652 941.295 165.847 943.98 Q169.041 946.665 169.041 951.156 Q169.041 953.286 168.231 955.207 Q167.444 957.105 165.337 959.698 Q164.759 960.369 161.657 963.586 Q158.555 966.781 152.907 972.545 Z" fill="#000000" fill-rule="evenodd" fill-opacity="1" /><path clip-path="url(#clip800)" d="M 0 0 M245.278 959.651 L274.954 959.651 L274.954 963.586 L245.278 963.586 L245.278 959.651 Z" fill="#000000" fill-rule="evenodd" fill-opacity="1" /><path clip-path="url(#clip800)" d="M 0 0 M285.857 972.545 L293.496 972.545 L293.496 946.179 L285.186 947.846 L285.186 943.587 L293.449 941.92 L298.125 941.92 L298.125 972.545 L305.764 972.545 L305.764 976.48 L285.857 976.48 L285.857 972.545 Z" fill="#000000" fill-rule="evenodd" fill-opacity="1" /><path clip-path="url(#clip800)" d="M 0 0 M411.874 944.999 Q408.263 944.999 406.434 948.563 Q404.629 952.105 404.629 959.235 Q404.629 966.341 406.434 969.906 Q408.263 973.447 411.874 973.447 Q415.508 973.447 417.314 969.906 Q419.142 966.341 419.142 959.235 Q419.142 952.105 417.314 948.563 Q415.508 944.999 411.874 944.999 M411.874 941.295 Q417.684 941.295 420.74 945.901 Q423.818 950.485 423.818 959.235 Q423.818 967.961 420.74 972.568 Q417.684 977.151 411.874 977.151 Q406.064 977.151 402.985 972.568 Q399.93 967.961 399.93 959.235 Q399.93 950.485 402.985 945.901 Q406.064 941.295 411.874 941.295 Z" fill="#000000" fill-rule="evenodd" fill-opacity="1" /><path clip-path="url(#clip800)" d="M 0 0 M538.609 972.545 L546.248 972.545 L546.248 946.179 L537.937 947.846 L537.937 943.587 L546.201 941.92 L550.877 941.92 L550.877 972.545 L558.516 972.545 L558.516 976.48 L538.609 976.48 L538.609 972.545 Z" fill="#000000" fill-rule="evenodd" fill-opacity="1" /><path clip-path="url(#clip800)" d="M 0 0 M679.232 972.545 L695.552 972.545 L695.552 976.48 L673.607 976.48 L673.607 972.545 Q676.269 969.79 680.853 965.16 Q685.459 960.508 686.64 959.165 Q688.885 956.642 689.765 954.906 Q690.667 953.147 690.667 951.457 Q690.667 948.702 688.723 946.966 Q686.802 945.23 683.7 945.23 Q681.501 945.23 679.047 945.994 Q676.617 946.758 673.839 948.309 L673.839 943.587 Q676.663 942.452 679.117 941.874 Q681.57 941.295 683.607 941.295 Q688.978 941.295 692.172 943.98 Q695.367 946.665 695.367 951.156 Q695.367 953.286 694.556 955.207 Q693.769 957.105 691.663 959.698 Q691.084 960.369 687.982 963.586 Q684.88 966.781 679.232 972.545 Z" fill="#000000" fill-rule="evenodd" fill-opacity="1" /><polyline clip-path="url(#clip800)" style="stroke:#000000; stroke-width:4; stroke-opacity:1; fill:none" points="
  70.9921,927.008 70.9921,62.9921 
  "/>
<polyline clip-path="url(#clip800)" style="stroke:#000000; stroke-width:4; stroke-opacity:1; fill:none" points="
  70.9921,840.606 79.1733,840.606 
  "/>
<polyline clip-path="url(#clip800)" style="stroke:#000000; stroke-width:4; stroke-opacity:1; fill:none" points="
  70.9921,667.803 79.1733,667.803 
  "/>
<polyline clip-path="url(#clip800)" style="stroke:#000000; stroke-width:4; stroke-opacity:1; fill:none" points="
  70.9921,495 79.1733,495 
  "/>
<polyline clip-path="url(#clip800)" style="stroke:#000000; stroke-width:4; stroke-opacity:1; fill:none" points="
  70.9921,322.197 79.1733,322.197 
  "/>
<polyline clip-path="url(#clip800)" style="stroke:#000000; stroke-width:4; stroke-opacity:1; fill:none" points="
  70.9921,149.394 79.1733,149.394 
  "/>
<path clip-path="url(#clip800)" d="M 0 0 M-4.12329 841.058 L25.5525 841.058 L25.5525 844.993 L-4.12329 844.993 L-4.12329 841.058 Z" fill="#000000" fill-rule="evenodd" fill-opacity="1" /><path clip-path="url(#clip800)" d="M 0 0 M39.6728 853.951 L55.9921 853.951 L55.9921 857.886 L34.0478 857.886 L34.0478 853.951 Q36.7098 851.197 41.2931 846.567 Q45.8996 841.914 47.0801 840.572 Q49.3255 838.048 50.2051 836.312 Q51.1079 834.553 51.1079 832.863 Q51.1079 830.109 49.1635 828.373 Q47.2422 826.636 44.1403 826.636 Q41.9413 826.636 39.4876 827.4 Q37.057 828.164 34.2793 829.715 L34.2793 824.993 Q37.1033 823.859 39.557 823.28 Q42.0107 822.701 44.0477 822.701 Q49.4181 822.701 52.6125 825.386 Q55.8069 828.072 55.8069 832.562 Q55.8069 834.692 54.9968 836.613 Q54.2097 838.511 52.1033 841.104 Q51.5246 841.775 48.4227 844.993 Q45.3209 848.187 39.6728 853.951 Z" fill="#000000" fill-rule="evenodd" fill-opacity="1" /><path clip-path="url(#clip800)" d="M 0 0 M-4.49366 668.255 L25.1821 668.255 L25.1821 672.19 L-4.49366 672.19 L-4.49366 668.255 Z" fill="#000000" fill-rule="evenodd" fill-opacity="1" /><path clip-path="url(#clip800)" d="M 0 0 M36.0848 681.148 L43.7237 681.148 L43.7237 654.782 L35.4135 656.449 L35.4135 652.19 L43.6774 650.523 L48.3533 650.523 L48.3533 681.148 L55.9921 681.148 L55.9921 685.083 L36.0848 685.083 L36.0848 681.148 Z" fill="#000000" fill-rule="evenodd" fill-opacity="1" /><path clip-path="url(#clip800)" d="M 0 0 M44.0477 480.799 Q40.4367 480.799 38.608 484.363 Q36.8024 487.905 36.8024 495.035 Q36.8024 502.141 38.608 505.706 Q40.4367 509.248 44.0477 509.248 Q47.682 509.248 49.4875 505.706 Q51.3162 502.141 51.3162 495.035 Q51.3162 487.905 49.4875 484.363 Q47.682 480.799 44.0477 480.799 M44.0477 477.095 Q49.8579 477.095 52.9134 481.701 Q55.9921 486.285 55.9921 495.035 Q55.9921 503.762 52.9134 508.368 Q49.8579 512.951 44.0477 512.951 Q38.2376 512.951 35.1589 508.368 Q32.1034 503.762 32.1034 495.035 Q32.1034 486.285 35.1589 481.701 Q38.2376 477.095 44.0477 477.095 Z" fill="#000000" fill-rule="evenodd" fill-opacity="1" /><path clip-path="url(#clip800)" d="M 0 0 M36.0848 335.542 L43.7237 335.542 L43.7237 309.176 L35.4135 310.843 L35.4135 306.584 L43.6774 304.917 L48.3533 304.917 L48.3533 335.542 L55.9921 335.542 L55.9921 339.477 L36.0848 339.477 L36.0848 335.542 Z" fill="#000000" fill-rule="evenodd" fill-opacity="1" /><path clip-path="url(#clip800)" d="M 0 0 M39.6728 162.739 L55.9921 162.739 L55.9921 166.674 L34.0478 166.674 L34.0478 162.739 Q36.7098 159.984 41.2931 155.354 Q45.8996 150.702 47.0801 149.359 Q49.3255 146.836 50.2051 145.1 Q51.1079 143.34 51.1079 141.651 Q51.1079 138.896 49.1635 137.16 Q47.2422 135.424 44.1403 135.424 Q41.9413 135.424 39.4876 136.188 Q37.057 136.952 34.2793 138.503 L34.2793 133.78 Q37.1033 132.646 39.557 132.067 Q42.0107 131.489 44.0477 131.489 Q49.4181 131.489 52.6125 134.174 Q55.8069 136.859 55.8069 141.35 Q55.8069 143.479 54.9968 145.401 Q54.2097 147.299 52.1033 149.891 Q51.5246 150.563 48.4227 153.78 Q45.3209 156.975 39.6728 162.739 Z" fill="#000000" fill-rule="evenodd" fill-opacity="1" /><path clip-path="url(#clip800)" d="M 0 0 M349.583 20.523 Q351.18 17.6527 353.402 16.2869 Q355.624 14.9212 358.634 14.9212 Q362.684 14.9212 364.884 17.7684 Q367.083 20.5925 367.083 25.8239 L367.083 41.472 L362.8 41.472 L362.8 25.9628 Q362.8 22.236 361.481 20.4304 Q360.161 18.6249 357.453 18.6249 Q354.143 18.6249 352.222 20.824 Q350.3 23.023 350.3 26.8193 L350.3 41.472 L346.018 41.472 L346.018 25.9628 Q346.018 22.2128 344.698 20.4304 Q343.379 18.6249 340.624 18.6249 Q337.361 18.6249 335.439 20.8471 Q333.518 23.0462 333.518 26.8193 L333.518 41.472 L329.236 41.472 L329.236 15.5462 L333.518 15.5462 L333.518 19.574 Q334.976 17.1897 337.013 16.0555 Q339.05 14.9212 341.851 14.9212 Q344.675 14.9212 346.643 16.3564 Q348.634 17.7916 349.583 20.523 Z" fill="#000000" fill-rule="evenodd" fill-opacity="1" /><path clip-path="url(#clip800)" d="M 0 0 M375.184 5.45367 L384.999 5.45367 L384.999 8.76384 L379.444 8.76384 L379.444 44.4118 L384.999 44.4118 L384.999 47.722 L375.184 47.722 L375.184 5.45367 Z" fill="#000000" fill-rule="evenodd" fill-opacity="1" /><path clip-path="url(#clip800)" d="M 0 0 M404.675 9.99069 Q401.064 9.99069 399.235 13.5555 Q397.43 17.0971 397.43 24.2267 Q397.43 31.3332 399.235 34.898 Q401.064 38.4396 404.675 38.4396 Q408.309 38.4396 410.115 34.898 Q411.943 31.3332 411.943 24.2267 Q411.943 17.0971 410.115 13.5555 Q408.309 9.99069 404.675 9.99069 M404.675 6.287 Q410.485 6.287 413.541 10.8935 Q416.619 15.4768 416.619 24.2267 Q416.619 32.9535 413.541 37.56 Q410.485 42.1433 404.675 42.1433 Q398.865 42.1433 395.786 37.56 Q392.731 32.9535 392.731 24.2267 Q392.731 15.4768 395.786 10.8935 Q398.865 6.287 404.675 6.287 Z" fill="#000000" fill-rule="evenodd" fill-opacity="1" /><path clip-path="url(#clip800)" d="M 0 0 M425.647 37.5368 L433.286 37.5368 L433.286 11.1712 L424.976 12.8379 L424.976 8.57866 L433.24 6.912 L437.916 6.912 L437.916 37.5368 L445.554 37.5368 L445.554 41.472 L425.647 41.472 L425.647 37.5368 Z" fill="#000000" fill-rule="evenodd" fill-opacity="1" /><path clip-path="url(#clip800)" d="M 0 0 M464.999 9.99069 Q461.388 9.99069 459.559 13.5555 Q457.753 17.0971 457.753 24.2267 Q457.753 31.3332 459.559 34.898 Q461.388 38.4396 464.999 38.4396 Q468.633 38.4396 470.439 34.898 Q472.267 31.3332 472.267 24.2267 Q472.267 17.0971 470.439 13.5555 Q468.633 9.99069 464.999 9.99069 M464.999 6.287 Q470.809 6.287 473.864 10.8935 Q476.943 15.4768 476.943 24.2267 Q476.943 32.9535 473.864 37.56 Q470.809 42.1433 464.999 42.1433 Q459.189 42.1433 456.11 37.56 Q453.054 32.9535 453.054 24.2267 Q453.054 15.4768 456.11 10.8935 Q459.189 6.287 464.999 6.287 Z" fill="#000000" fill-rule="evenodd" fill-opacity="1" /><path clip-path="url(#clip800)" d="M 0 0 M494.512 5.45367 L494.512 47.722 L484.698 47.722 L484.698 44.4118 L490.23 44.4118 L490.23 8.76384 L484.698 8.76384 L484.698 5.45367 L494.512 5.45367 Z" fill="#000000" fill-rule="evenodd" fill-opacity="1" /><circle clip-path="url(#clip802)" cx="139.169" cy="894.072" r="14" fill="#0000ff" fill-rule="evenodd" fill-opacity="1" stroke="none"/>
<path clip-path="url(#clip800)" d="M 0 0 M143.387 883.344 L155.627 883.344 L155.627 886.296 L139.169 886.296 L139.169 883.344 Q141.165 881.278 144.603 877.806 Q148.057 874.317 148.943 873.31 Q150.627 871.417 151.286 870.115 Q151.964 868.796 151.964 867.529 Q151.964 865.463 150.505 864.16 Q149.064 862.858 146.738 862.858 Q145.089 862.858 143.248 863.431 Q141.425 864.004 139.342 865.167 L139.342 861.626 Q141.46 860.775 143.3 860.341 Q145.141 859.907 146.668 859.907 Q150.696 859.907 153.092 861.921 Q155.488 863.935 155.488 867.303 Q155.488 868.9 154.88 870.341 Q154.29 871.765 152.71 873.709 Q152.276 874.213 149.95 876.626 Q147.623 879.022 143.387 883.344 Z" fill="#000000" fill-rule="evenodd" fill-opacity="1" /><path clip-path="url(#clip800)" d="M 0 0 M163.595 883.344 L169.325 883.344 L169.325 863.57 L163.092 864.82 L163.092 861.626 L169.29 860.376 L172.797 860.376 L172.797 883.344 L178.526 883.344 L178.526 886.296 L163.595 886.296 L163.595 883.344 Z" fill="#000000" fill-rule="evenodd" fill-opacity="1" /><circle clip-path="url(#clip802)" cx="70.9921" cy="744.42" r="14" fill="#0000ff" fill-rule="evenodd" fill-opacity="1" stroke="none"/>
<circle clip-path="url(#clip802)" cx="139.169" cy="594.768" r="14" fill="#0000ff" fill-rule="evenodd" fill-opacity="1" stroke="none"/>
<circle clip-path="url(#clip802)" cx="70.9921" cy="544.884" r="14" fill="#0000ff" fill-rule="evenodd" fill-opacity="1" stroke="none"/>
<circle clip-path="url(#clip802)" cx="207.345" cy="445.116" r="14" fill="#0000ff" fill-rule="evenodd" fill-opacity="1" stroke="none"/>
<circle clip-path="url(#clip802)" cx="139.169" cy="395.232" r="14" fill="#0000ff" fill-rule="evenodd" fill-opacity="1" stroke="none"/>
<circle clip-path="url(#clip802)" cx="275.521" cy="894.072" r="14" fill="#0000ff" fill-rule="evenodd" fill-opacity="1" stroke="none"/>
<circle clip-path="url(#clip802)" cx="207.345" cy="844.188" r="14" fill="#0000ff" fill-rule="evenodd" fill-opacity="1" stroke="none"/>
<circle clip-path="url(#clip802)" cx="343.698" cy="744.42" r="14" fill="#0000ff" fill-rule="evenodd" fill-opacity="1" stroke="none"/>
<circle clip-path="url(#clip802)" cx="275.521" cy="694.536" r="14" fill="#0000ff" fill-rule="evenodd" fill-opacity="1" stroke="none"/>
<circle clip-path="url(#clip802)" cx="411.874" cy="594.768" r="14" fill="#0000ff" fill-rule="evenodd" fill-opacity="1" stroke="none"/>
<circle clip-path="url(#clip802)" cx="343.698" cy="544.884" r="14" fill="#0000ff" fill-rule="evenodd" fill-opacity="1" stroke="none"/>
<circle clip-path="url(#clip802)" cx="275.521" cy="594.768" r="14" fill="#0000ff" fill-rule="evenodd" fill-opacity="1" stroke="none"/>
<circle clip-path="url(#clip802)" cx="207.345" cy="544.884" r="14" fill="#0000ff" fill-rule="evenodd" fill-opacity="1" stroke="none"/>
<circle clip-path="url(#clip802)" cx="343.698" cy="445.116" r="14" fill="#0000ff" fill-rule="evenodd" fill-opacity="1" stroke="none"/>
<circle clip-path="url(#clip802)" cx="411.874" cy="894.072" r="14" fill="#0000ff" fill-rule="evenodd" fill-opacity="1" stroke="none"/>
<circle clip-path="url(#clip802)" cx="343.698" cy="844.188" r="14" fill="#0000ff" fill-rule="evenodd" fill-opacity="1" stroke="none"/>
<circle clip-path="url(#clip802)" cx="70.9921" cy="445.116" r="14" fill="#0000ff" fill-rule="evenodd" fill-opacity="1" stroke="none"/>
<circle clip-path="url(#clip802)" cx="411.874" cy="694.536" r="14" fill="#0000ff" fill-rule="evenodd" fill-opacity="1" stroke="none"/>
<circle clip-path="url(#clip802)" cx="139.169" cy="295.464" r="14" fill="#0000ff" fill-rule="evenodd" fill-opacity="1" stroke="none"/>
<circle clip-path="url(#clip802)" cx="70.9921" cy="844.188" r="14" fill="#0000ff" fill-rule="evenodd" fill-opacity="1" stroke="none"/>
<circle clip-path="url(#clip802)" cx="207.345" cy="744.42" r="14" fill="#0000ff" fill-rule="evenodd" fill-opacity="1" stroke="none"/>
<circle clip-path="url(#clip802)" cx="139.169" cy="694.536" r="14" fill="#0000ff" fill-rule="evenodd" fill-opacity="1" stroke="none"/>
<path clip-path="url(#clip800)" d="M 0 0 M71.4956 733.692 L77.2247 733.692 L77.2247 713.918 L70.9921 715.168 L70.9921 711.974 L77.19 710.724 L80.6969 710.724 L80.6969 733.692 L86.4261 733.692 L86.4261 736.644 L71.4956 736.644 L71.4956 733.692 Z" fill="#000000" fill-rule="evenodd" fill-opacity="1" /><path clip-path="url(#clip800)" d="M 0 0 M150.887 573.016 Q153.405 573.555 154.811 575.256 Q156.234 576.957 156.234 579.457 Q156.234 583.294 153.596 585.395 Q150.957 587.495 146.096 587.495 Q144.464 587.495 142.728 587.166 Q141.009 586.853 139.169 586.211 L139.169 582.825 Q140.627 583.676 142.363 584.11 Q144.099 584.544 145.991 584.544 Q149.29 584.544 151.009 583.242 Q152.745 581.94 152.745 579.457 Q152.745 577.166 151.13 575.881 Q149.533 574.579 146.668 574.579 L143.648 574.579 L143.648 571.697 L146.807 571.697 Q149.394 571.697 150.766 570.673 Q152.137 569.631 152.137 567.686 Q152.137 565.69 150.714 564.631 Q149.307 563.555 146.668 563.555 Q145.227 563.555 143.578 563.867 Q141.929 564.18 139.95 564.839 L139.95 561.714 Q141.946 561.159 143.682 560.881 Q145.436 560.603 146.981 560.603 Q150.974 560.603 153.3 562.426 Q155.627 564.232 155.627 567.322 Q155.627 569.475 154.394 570.968 Q153.161 572.443 150.887 573.016 Z" fill="#000000" fill-rule="evenodd" fill-opacity="1" /><path clip-path="url(#clip800)" d="M 0 0 M82.6935 514.244 L73.8393 528.08 L82.6935 528.08 L82.6935 514.244 M81.7733 511.188 L86.183 511.188 L86.183 528.08 L89.8809 528.08 L89.8809 530.997 L86.183 530.997 L86.183 537.108 L82.6935 537.108 L82.6935 530.997 L70.9921 530.997 L70.9921 527.611 L81.7733 511.188 Z" fill="#000000" fill-rule="evenodd" fill-opacity="1" /><path clip-path="url(#clip800)" d="M 0 0 M208.439 411.42 L222.206 411.42 L222.206 414.371 L211.65 414.371 L211.65 420.726 Q212.414 420.465 213.178 420.344 Q213.942 420.205 214.706 420.205 Q219.046 420.205 221.581 422.583 Q224.116 424.962 224.116 429.024 Q224.116 433.208 221.511 435.534 Q218.907 437.843 214.168 437.843 Q212.536 437.843 210.834 437.566 Q209.15 437.288 207.345 436.732 L207.345 433.208 Q208.907 434.059 210.574 434.475 Q212.241 434.892 214.098 434.892 Q217.102 434.892 218.855 433.312 Q220.609 431.732 220.609 429.024 Q220.609 426.316 218.855 424.736 Q217.102 423.156 214.098 423.156 Q212.692 423.156 211.286 423.469 Q209.897 423.781 208.439 424.441 L208.439 411.42 Z" fill="#000000" fill-rule="evenodd" fill-opacity="1" /><path clip-path="url(#clip800)" d="M 0 0 M148.422 373.098 Q146.061 373.098 144.672 374.713 Q143.3 376.328 143.3 379.14 Q143.3 381.935 144.672 383.567 Q146.061 385.182 148.422 385.182 Q150.783 385.182 152.155 383.567 Q153.543 381.935 153.543 379.14 Q153.543 376.328 152.155 374.713 Q150.783 373.098 148.422 373.098 M155.384 362.109 L155.384 365.303 Q154.064 364.678 152.71 364.349 Q151.373 364.019 150.054 364.019 Q146.582 364.019 144.741 366.362 Q142.918 368.706 142.658 373.446 Q143.682 371.935 145.227 371.137 Q146.773 370.321 148.63 370.321 Q152.536 370.321 154.793 372.699 Q157.068 375.06 157.068 379.14 Q157.068 383.133 154.707 385.546 Q152.346 387.96 148.422 387.96 Q143.925 387.96 141.547 384.522 Q139.169 381.067 139.169 374.522 Q139.169 368.376 142.085 364.73 Q145.002 361.067 149.915 361.067 Q151.234 361.067 152.571 361.328 Q153.925 361.588 155.384 362.109 Z" fill="#000000" fill-rule="evenodd" fill-opacity="1" /><path clip-path="url(#clip800)" d="M 0 0 M275.521 860.376 L292.188 860.376 L292.188 861.869 L282.778 886.296 L279.115 886.296 L287.969 863.327 L275.521 863.327 L275.521 860.376 Z" fill="#000000" fill-rule="evenodd" fill-opacity="1" /><path clip-path="url(#clip800)" d="M 0 0 M216.234 824.103 Q213.734 824.103 212.293 825.44 Q210.869 826.776 210.869 829.12 Q210.869 831.464 212.293 832.801 Q213.734 834.138 216.234 834.138 Q218.734 834.138 220.175 832.801 Q221.616 831.447 221.616 829.12 Q221.616 826.776 220.175 825.44 Q218.751 824.103 216.234 824.103 M212.727 822.61 Q210.47 822.054 209.203 820.509 Q207.953 818.964 207.953 816.742 Q207.953 813.634 210.157 811.829 Q212.38 810.023 216.234 810.023 Q220.105 810.023 222.31 811.829 Q224.515 813.634 224.515 816.742 Q224.515 818.964 223.248 820.509 Q221.998 822.054 219.758 822.61 Q222.293 823.2 223.699 824.919 Q225.123 826.638 225.123 829.12 Q225.123 832.888 222.814 834.901 Q220.522 836.915 216.234 836.915 Q211.946 836.915 209.637 834.901 Q207.345 832.888 207.345 829.12 Q207.345 826.638 208.768 824.919 Q210.192 823.2 212.727 822.61 M211.442 817.072 Q211.442 819.086 212.692 820.214 Q213.959 821.342 216.234 821.342 Q218.491 821.342 219.758 820.214 Q221.043 819.086 221.043 817.072 Q221.043 815.058 219.758 813.929 Q218.491 812.801 216.234 812.801 Q213.959 812.801 212.692 813.929 Q211.442 815.058 211.442 817.072 Z" fill="#000000" fill-rule="evenodd" fill-opacity="1" /><path clip-path="url(#clip800)" d="M 0 0 M345.364 736.106 L345.364 732.911 Q346.684 733.536 348.038 733.866 Q349.392 734.196 350.694 734.196 Q354.166 734.196 355.989 731.87 Q357.83 729.526 358.09 724.769 Q357.083 726.262 355.538 727.061 Q353.993 727.859 352.118 727.859 Q348.229 727.859 345.955 725.515 Q343.698 723.154 343.698 719.075 Q343.698 715.081 346.059 712.668 Q348.42 710.255 352.343 710.255 Q356.84 710.255 359.201 713.71 Q361.579 717.147 361.579 723.71 Q361.579 729.838 358.663 733.502 Q355.764 737.147 350.85 737.147 Q349.531 737.147 348.177 736.887 Q346.823 736.627 345.364 736.106 M352.343 725.116 Q354.705 725.116 356.076 723.502 Q357.465 721.887 357.465 719.075 Q357.465 716.279 356.076 714.665 Q354.705 713.033 352.343 713.033 Q349.982 713.033 348.593 714.665 Q347.222 716.279 347.222 719.075 Q347.222 721.887 348.593 723.502 Q349.982 725.116 352.343 725.116 Z" fill="#000000" fill-rule="evenodd" fill-opacity="1" /><path clip-path="url(#clip800)" d="M 0 0 M276.025 683.809 L281.754 683.809 L281.754 664.034 L275.521 665.284 L275.521 662.09 L281.719 660.84 L285.226 660.84 L285.226 683.809 L290.955 683.809 L290.955 686.76 L276.025 686.76 L276.025 683.809 Z" fill="#000000" fill-rule="evenodd" fill-opacity="1" /><path clip-path="url(#clip800)" d="M 0 0 M305.538 663.149 Q302.83 663.149 301.459 665.823 Q300.104 668.479 300.104 673.826 Q300.104 679.156 301.459 681.829 Q302.83 684.486 305.538 684.486 Q308.264 684.486 309.618 681.829 Q310.99 679.156 310.99 673.826 Q310.99 668.479 309.618 665.823 Q308.264 663.149 305.538 663.149 M305.538 660.371 Q309.896 660.371 312.188 663.826 Q314.497 667.263 314.497 673.826 Q314.497 680.371 312.188 683.826 Q309.896 687.263 305.538 687.263 Q301.181 687.263 298.872 683.826 Q296.58 680.371 296.58 673.826 Q296.58 667.263 298.872 663.826 Q301.181 660.371 305.538 660.371 Z" fill="#000000" fill-rule="evenodd" fill-opacity="1" /><path clip-path="url(#clip800)" d="M 0 0 M412.377 584.041 L418.107 584.041 L418.107 564.266 L411.874 565.516 L411.874 562.322 L418.072 561.072 L421.579 561.072 L421.579 584.041 L427.308 584.041 L427.308 586.992 L412.377 586.992 L412.377 584.041 Z" fill="#000000" fill-rule="evenodd" fill-opacity="1" /><path clip-path="url(#clip800)" d="M 0 0 M434.999 584.041 L440.728 584.041 L440.728 564.266 L434.495 565.516 L434.495 562.322 L440.693 561.072 L444.2 561.072 L444.2 584.041 L449.929 584.041 L449.929 586.992 L434.999 586.992 L434.999 584.041 Z" fill="#000000" fill-rule="evenodd" fill-opacity="1" /><path clip-path="url(#clip800)" d="M 0 0 M344.201 534.157 L349.93 534.157 L349.93 514.382 L343.698 515.632 L343.698 512.438 L349.896 511.188 L353.402 511.188 L353.402 534.157 L359.132 534.157 L359.132 537.108 L344.201 537.108 L344.201 534.157 Z" fill="#000000" fill-rule="evenodd" fill-opacity="1" /><path clip-path="url(#clip800)" d="M 0 0 M369.236 534.157 L381.475 534.157 L381.475 537.108 L365.017 537.108 L365.017 534.157 Q367.013 532.091 370.451 528.618 Q373.906 525.129 374.791 524.122 Q376.475 522.23 377.135 520.928 Q377.812 519.608 377.812 518.341 Q377.812 516.275 376.354 514.973 Q374.913 513.671 372.586 513.671 Q370.937 513.671 369.097 514.244 Q367.274 514.816 365.191 515.98 L365.191 512.438 Q367.309 511.587 369.149 511.153 Q370.989 510.719 372.517 510.719 Q376.545 510.719 378.941 512.733 Q381.336 514.747 381.336 518.115 Q381.336 519.712 380.729 521.153 Q380.138 522.577 378.559 524.521 Q378.125 525.025 375.798 527.438 Q373.472 529.834 369.236 534.157 Z" fill="#000000" fill-rule="evenodd" fill-opacity="1" /><path clip-path="url(#clip800)" d="M 0 0 M276.025 584.041 L281.754 584.041 L281.754 564.266 L275.521 565.516 L275.521 562.322 L281.719 561.072 L285.226 561.072 L285.226 584.041 L290.955 584.041 L290.955 586.992 L276.025 586.992 L276.025 584.041 Z" fill="#000000" fill-rule="evenodd" fill-opacity="1" /><path clip-path="url(#clip800)" d="M 0 0 M308.663 573.016 Q311.181 573.555 312.587 575.256 Q314.011 576.957 314.011 579.457 Q314.011 583.294 311.372 585.395 Q308.733 587.495 303.872 587.495 Q302.24 587.495 300.504 587.166 Q298.785 586.853 296.945 586.211 L296.945 582.825 Q298.403 583.676 300.139 584.11 Q301.875 584.544 303.768 584.544 Q307.066 584.544 308.785 583.242 Q310.521 581.94 310.521 579.457 Q310.521 577.166 308.906 575.881 Q307.309 574.579 304.445 574.579 L301.424 574.579 L301.424 571.697 L304.584 571.697 Q307.17 571.697 308.542 570.673 Q309.913 569.631 309.913 567.686 Q309.913 565.69 308.49 564.631 Q307.084 563.555 304.445 563.555 Q303.004 563.555 301.354 563.867 Q299.705 564.18 297.726 564.839 L297.726 561.714 Q299.723 561.159 301.459 560.881 Q303.212 560.603 304.757 560.603 Q308.75 560.603 311.077 562.426 Q313.403 564.232 313.403 567.322 Q313.403 569.475 312.17 570.968 Q310.938 572.443 308.663 573.016 Z" fill="#000000" fill-rule="evenodd" fill-opacity="1" /><path clip-path="url(#clip800)" d="M 0 0 M207.848 534.157 L213.577 534.157 L213.577 514.382 L207.345 515.632 L207.345 512.438 L213.543 511.188 L217.05 511.188 L217.05 534.157 L222.779 534.157 L222.779 537.108 L207.848 537.108 L207.848 534.157 Z" fill="#000000" fill-rule="evenodd" fill-opacity="1" /><path clip-path="url(#clip800)" d="M 0 0 M239.497 514.244 L230.643 528.08 L239.497 528.08 L239.497 514.244 M238.577 511.188 L242.987 511.188 L242.987 528.08 L246.685 528.08 L246.685 530.997 L242.987 530.997 L242.987 537.108 L239.497 537.108 L239.497 530.997 L227.796 530.997 L227.796 527.611 L238.577 511.188 Z" fill="#000000" fill-rule="evenodd" fill-opacity="1" /><path clip-path="url(#clip800)" d="M 0 0 M344.201 434.389 L349.93 434.389 L349.93 414.614 L343.698 415.864 L343.698 412.67 L349.896 411.42 L353.402 411.42 L353.402 434.389 L359.132 434.389 L359.132 437.34 L344.201 437.34 L344.201 434.389 Z" fill="#000000" fill-rule="evenodd" fill-opacity="1" /><path clip-path="url(#clip800)" d="M 0 0 M366.25 411.42 L380.017 411.42 L380.017 414.371 L369.461 414.371 L369.461 420.726 Q370.225 420.465 370.989 420.344 Q371.753 420.205 372.517 420.205 Q376.857 420.205 379.392 422.583 Q381.927 424.962 381.927 429.024 Q381.927 433.208 379.322 435.534 Q376.718 437.843 371.979 437.843 Q370.347 437.843 368.645 437.566 Q366.961 437.288 365.156 436.732 L365.156 433.208 Q366.718 434.059 368.385 434.475 Q370.052 434.892 371.909 434.892 Q374.913 434.892 376.666 433.312 Q378.42 431.732 378.42 429.024 Q378.42 426.316 376.666 424.736 Q374.913 423.156 371.909 423.156 Q370.503 423.156 369.097 423.469 Q367.708 423.781 366.25 424.441 L366.25 411.42 Z" fill="#000000" fill-rule="evenodd" fill-opacity="1" /><path clip-path="url(#clip800)" d="M 0 0 M412.377 883.344 L418.107 883.344 L418.107 863.57 L411.874 864.82 L411.874 861.626 L418.072 860.376 L421.579 860.376 L421.579 883.344 L427.308 883.344 L427.308 886.296 L412.377 886.296 L412.377 883.344 Z" fill="#000000" fill-rule="evenodd" fill-opacity="1" /><path clip-path="url(#clip800)" d="M 0 0 M433.506 860.376 L450.172 860.376 L450.172 861.869 L440.763 886.296 L437.1 886.296 L445.954 863.327 L433.506 863.327 L433.506 860.376 Z" fill="#000000" fill-rule="evenodd" fill-opacity="1" /><path clip-path="url(#clip800)" d="M 0 0 M344.201 833.46 L349.93 833.46 L349.93 813.686 L343.698 814.936 L343.698 811.742 L349.896 810.492 L353.402 810.492 L353.402 833.46 L359.132 833.46 L359.132 836.412 L344.201 836.412 L344.201 833.46 Z" fill="#000000" fill-rule="evenodd" fill-opacity="1" /><path clip-path="url(#clip800)" d="M 0 0 M373.715 824.103 Q371.215 824.103 369.774 825.44 Q368.35 826.776 368.35 829.12 Q368.35 831.464 369.774 832.801 Q371.215 834.138 373.715 834.138 Q376.215 834.138 377.656 832.801 Q379.097 831.447 379.097 829.12 Q379.097 826.776 377.656 825.44 Q376.232 824.103 373.715 824.103 M370.208 822.61 Q367.951 822.054 366.684 820.509 Q365.434 818.964 365.434 816.742 Q365.434 813.634 367.638 811.829 Q369.861 810.023 373.715 810.023 Q377.586 810.023 379.791 811.829 Q381.996 813.634 381.996 816.742 Q381.996 818.964 380.729 820.509 Q379.479 822.054 377.239 822.61 Q379.774 823.2 381.18 824.919 Q382.604 826.638 382.604 829.12 Q382.604 832.888 380.295 834.901 Q378.003 836.915 373.715 836.915 Q369.427 836.915 367.118 834.901 Q364.826 832.888 364.826 829.12 Q364.826 826.638 366.25 824.919 Q367.673 823.2 370.208 822.61 M368.923 817.072 Q368.923 819.086 370.173 820.214 Q371.441 821.342 373.715 821.342 Q375.972 821.342 377.239 820.214 Q378.524 819.086 378.524 817.072 Q378.524 815.058 377.239 813.929 Q375.972 812.801 373.715 812.801 Q371.441 812.801 370.173 813.929 Q368.923 815.058 368.923 817.072 Z" fill="#000000" fill-rule="evenodd" fill-opacity="1" /><path clip-path="url(#clip800)" d="M 0 0 M71.4956 434.389 L77.2247 434.389 L77.2247 414.614 L70.9921 415.864 L70.9921 412.67 L77.19 411.42 L80.6969 411.42 L80.6969 434.389 L86.4261 434.389 L86.4261 437.34 L71.4956 437.34 L71.4956 434.389 Z" fill="#000000" fill-rule="evenodd" fill-opacity="1" /><path clip-path="url(#clip800)" d="M 0 0 M93.6135 436.802 L93.6135 433.607 Q94.933 434.232 96.2871 434.562 Q97.6413 434.892 98.9434 434.892 Q102.416 434.892 104.238 432.566 Q106.079 430.222 106.339 425.465 Q105.332 426.958 103.787 427.757 Q102.242 428.555 100.367 428.555 Q96.4781 428.555 94.2038 426.212 Q91.9469 423.851 91.9469 419.771 Q91.9469 415.778 94.308 413.364 Q96.6691 410.951 100.593 410.951 Q105.089 410.951 107.45 414.406 Q109.829 417.844 109.829 424.406 Q109.829 430.535 106.912 434.198 Q104.013 437.843 99.0996 437.843 Q97.7802 437.843 96.426 437.583 Q95.0719 437.323 93.6135 436.802 M100.593 425.812 Q102.954 425.812 104.325 424.198 Q105.714 422.583 105.714 419.771 Q105.714 416.976 104.325 415.361 Q102.954 413.729 100.593 413.729 Q98.2316 413.729 96.8427 415.361 Q95.4712 416.976 95.4712 419.771 Q95.4712 422.583 96.8427 424.198 Q98.2316 425.812 100.593 425.812 Z" fill="#000000" fill-rule="evenodd" fill-opacity="1" /><path clip-path="url(#clip800)" d="M 0 0 M416.093 683.809 L428.332 683.809 L428.332 686.76 L411.874 686.76 L411.874 683.809 Q413.871 681.743 417.308 678.27 Q420.763 674.781 421.648 673.774 Q423.332 671.881 423.992 670.579 Q424.669 669.26 424.669 667.993 Q424.669 665.927 423.211 664.625 Q421.77 663.323 419.443 663.323 Q417.794 663.323 415.954 663.895 Q414.131 664.468 412.048 665.632 L412.048 662.09 Q414.166 661.239 416.006 660.805 Q417.846 660.371 419.374 660.371 Q423.402 660.371 425.798 662.385 Q428.193 664.399 428.193 667.767 Q428.193 669.364 427.586 670.805 Q426.995 672.229 425.416 674.173 Q424.982 674.677 422.655 677.09 Q420.329 679.486 416.093 683.809 Z" fill="#000000" fill-rule="evenodd" fill-opacity="1" /><path clip-path="url(#clip800)" d="M 0 0 M443.193 663.149 Q440.485 663.149 439.113 665.823 Q437.759 668.479 437.759 673.826 Q437.759 679.156 439.113 681.829 Q440.485 684.486 443.193 684.486 Q445.919 684.486 447.273 681.829 Q448.645 679.156 448.645 673.826 Q448.645 668.479 447.273 665.823 Q445.919 663.149 443.193 663.149 M443.193 660.371 Q447.551 660.371 449.843 663.826 Q452.152 667.263 452.152 673.826 Q452.152 680.371 449.843 683.826 Q447.551 687.263 443.193 687.263 Q438.836 687.263 436.527 683.826 Q434.235 680.371 434.235 673.826 Q434.235 667.263 436.527 663.826 Q438.836 660.371 443.193 660.371 Z" fill="#000000" fill-rule="evenodd" fill-opacity="1" /><path clip-path="url(#clip800)" d="M 0 0 M143.387 284.737 L155.627 284.737 L155.627 287.688 L139.169 287.688 L139.169 284.737 Q141.165 282.671 144.603 279.199 Q148.057 275.709 148.943 274.702 Q150.627 272.81 151.286 271.508 Q151.964 270.188 151.964 268.921 Q151.964 266.855 150.505 265.553 Q149.064 264.251 146.738 264.251 Q145.089 264.251 143.248 264.824 Q141.425 265.397 139.342 266.56 L139.342 263.018 Q141.46 262.167 143.3 261.733 Q145.141 261.299 146.668 261.299 Q150.696 261.299 153.092 263.313 Q155.488 265.327 155.488 268.695 Q155.488 270.292 154.88 271.733 Q154.29 273.157 152.71 275.101 Q152.276 275.605 149.95 278.018 Q147.623 280.414 143.387 284.737 Z" fill="#000000" fill-rule="evenodd" fill-opacity="1" /><path clip-path="url(#clip800)" d="M 0 0 M163.595 284.737 L169.325 284.737 L169.325 264.963 L163.092 266.213 L163.092 263.018 L169.29 261.768 L172.797 261.768 L172.797 284.737 L178.526 284.737 L178.526 287.688 L163.595 287.688 L163.595 284.737 Z" fill="#000000" fill-rule="evenodd" fill-opacity="1" /><path clip-path="url(#clip800)" d="M 0 0 M75.2109 833.46 L87.4504 833.46 L87.4504 836.412 L70.9921 836.412 L70.9921 833.46 Q72.9886 831.394 76.4261 827.922 Q79.881 824.433 80.7664 823.426 Q82.4504 821.533 83.1101 820.231 Q83.7872 818.912 83.7872 817.645 Q83.7872 815.579 82.3289 814.277 Q80.8879 812.974 78.5615 812.974 Q76.9122 812.974 75.072 813.547 Q73.2491 814.12 71.1657 815.283 L71.1657 811.742 Q73.2838 810.891 75.124 810.457 Q76.9643 810.023 78.4921 810.023 Q82.5198 810.023 84.9157 812.037 Q87.3115 814.051 87.3115 817.419 Q87.3115 819.016 86.7038 820.457 Q86.1136 821.881 84.5337 823.825 Q84.0997 824.329 81.7733 826.742 Q79.4469 829.138 75.2109 833.46 Z" fill="#000000" fill-rule="evenodd" fill-opacity="1" /><path clip-path="url(#clip800)" d="M 0 0 M97.8323 833.46 L110.072 833.46 L110.072 836.412 L93.6135 836.412 L93.6135 833.46 Q95.61 831.394 99.0475 827.922 Q102.502 824.433 103.388 823.426 Q105.072 821.533 105.732 820.231 Q106.409 818.912 106.409 817.645 Q106.409 815.579 104.95 814.277 Q103.509 812.974 101.183 812.974 Q99.5336 812.974 97.6934 813.547 Q95.8705 814.12 93.7871 815.283 L93.7871 811.742 Q95.9052 810.891 97.7455 810.457 Q99.5857 810.023 101.113 810.023 Q105.141 810.023 107.537 812.037 Q109.933 814.051 109.933 817.419 Q109.933 819.016 109.325 820.457 Q108.735 821.881 107.155 823.825 Q106.721 824.329 104.395 826.742 Q102.068 829.138 97.8323 833.46 Z" fill="#000000" fill-rule="evenodd" fill-opacity="1" /><path clip-path="url(#clip800)" d="M 0 0 M211.564 733.692 L223.803 733.692 L223.803 736.644 L207.345 736.644 L207.345 733.692 Q209.341 731.627 212.779 728.154 Q216.234 724.665 217.119 723.658 Q218.803 721.765 219.463 720.463 Q220.14 719.144 220.14 717.877 Q220.14 715.811 218.682 714.509 Q217.241 713.206 214.914 713.206 Q213.265 713.206 211.425 713.779 Q209.602 714.352 207.518 715.516 L207.518 711.974 Q209.637 711.123 211.477 710.689 Q213.317 710.255 214.845 710.255 Q218.873 710.255 221.268 712.269 Q223.664 714.283 223.664 717.651 Q223.664 719.248 223.057 720.689 Q222.466 722.113 220.886 724.057 Q220.452 724.561 218.126 726.974 Q215.8 729.37 211.564 733.692 Z" fill="#000000" fill-rule="evenodd" fill-opacity="1" /><path clip-path="url(#clip800)" d="M 0 0 M241.789 722.668 Q244.306 723.206 245.713 724.908 Q247.136 726.609 247.136 729.109 Q247.136 732.946 244.497 735.047 Q241.859 737.147 236.998 737.147 Q235.366 737.147 233.629 736.817 Q231.911 736.505 230.07 735.863 L230.07 732.477 Q231.529 733.328 233.265 733.762 Q235.001 734.196 236.893 734.196 Q240.192 734.196 241.911 732.894 Q243.647 731.592 243.647 729.109 Q243.647 726.818 242.032 725.533 Q240.435 724.231 237.57 724.231 L234.55 724.231 L234.55 721.349 L237.709 721.349 Q240.296 721.349 241.668 720.325 Q243.039 719.283 243.039 717.338 Q243.039 715.342 241.616 714.283 Q240.209 713.206 237.57 713.206 Q236.129 713.206 234.48 713.519 Q232.831 713.831 230.852 714.491 L230.852 711.366 Q232.848 710.811 234.584 710.533 Q236.338 710.255 237.883 710.255 Q241.876 710.255 244.202 712.078 Q246.529 713.884 246.529 716.974 Q246.529 719.127 245.296 720.62 Q244.063 722.095 241.789 722.668 Z" fill="#000000" fill-rule="evenodd" fill-opacity="1" /><path clip-path="url(#clip800)" d="M 0 0 M143.387 683.809 L155.627 683.809 L155.627 686.76 L139.169 686.76 L139.169 683.809 Q141.165 681.743 144.603 678.27 Q148.057 674.781 148.943 673.774 Q150.627 671.881 151.286 670.579 Q151.964 669.26 151.964 667.993 Q151.964 665.927 150.505 664.625 Q149.064 663.323 146.738 663.323 Q145.089 663.323 143.248 663.895 Q141.425 664.468 139.342 665.632 L139.342 662.09 Q141.46 661.239 143.3 660.805 Q145.141 660.371 146.668 660.371 Q150.696 660.371 153.092 662.385 Q155.488 664.399 155.488 667.767 Q155.488 669.364 154.88 670.805 Q154.29 672.229 152.71 674.173 Q152.276 674.677 149.95 677.09 Q147.623 679.486 143.387 683.809 Z" fill="#000000" fill-rule="evenodd" fill-opacity="1" /><path clip-path="url(#clip800)" d="M 0 0 M172.623 663.895 L163.769 677.732 L172.623 677.732 L172.623 663.895 M171.703 660.84 L176.113 660.84 L176.113 677.732 L179.811 677.732 L179.811 680.649 L176.113 680.649 L176.113 686.76 L172.623 686.76 L172.623 680.649 L160.922 680.649 L160.922 677.263 L171.703 660.84 Z" fill="#000000" fill-rule="evenodd" fill-opacity="1" /><circle clip-path="url(#clip802)" cx="70.9921" cy="145.812" r="14" fill="#0000ff" fill-rule="evenodd" fill-opacity="1" stroke="none"/>
<circle clip-path="url(#clip802)" cx="411.874" cy="395.232" r="14" fill="#0000ff" fill-rule="evenodd" fill-opacity="1" stroke="none"/>
<circle clip-path="url(#clip802)" cx="275.521" cy="295.464" r="14" fill="#0000ff" fill-rule="evenodd" fill-opacity="1" stroke="none"/>
<circle clip-path="url(#clip802)" cx="207.345" cy="245.58" r="14" fill="#0000ff" fill-rule="evenodd" fill-opacity="1" stroke="none"/>
<circle clip-path="url(#clip802)" cx="343.698" cy="145.812" r="14" fill="#0000ff" fill-rule="evenodd" fill-opacity="1" stroke="none"/>
<circle clip-path="url(#clip802)" cx="275.521" cy="95.9282" r="14" fill="#0000ff" fill-rule="evenodd" fill-opacity="1" stroke="none"/>
<circle clip-path="url(#clip802)" cx="275.521" cy="395.232" r="14" fill="#0000ff" fill-rule="evenodd" fill-opacity="1" stroke="none"/>
<circle clip-path="url(#clip802)" cx="411.874" cy="295.464" r="14" fill="#0000ff" fill-rule="evenodd" fill-opacity="1" stroke="none"/>
<circle clip-path="url(#clip802)" cx="343.698" cy="245.58" r="14" fill="#0000ff" fill-rule="evenodd" fill-opacity="1" stroke="none"/>
<circle clip-path="url(#clip802)" cx="411.874" cy="95.9282" r="14" fill="#0000ff" fill-rule="evenodd" fill-opacity="1" stroke="none"/>
<circle clip-path="url(#clip802)" cx="70.9921" cy="245.58" r="14" fill="#0000ff" fill-rule="evenodd" fill-opacity="1" stroke="none"/>
<circle clip-path="url(#clip802)" cx="207.345" cy="145.812" r="14" fill="#0000ff" fill-rule="evenodd" fill-opacity="1" stroke="none"/>
<circle clip-path="url(#clip802)" cx="139.169" cy="95.9282" r="14" fill="#0000ff" fill-rule="evenodd" fill-opacity="1" stroke="none"/>
<path clip-path="url(#clip800)" d="M 0 0 M71.4956 135.085 L77.2247 135.085 L77.2247 115.311 L70.9921 116.561 L70.9921 113.366 L77.19 112.116 L80.6969 112.116 L80.6969 135.085 L86.4261 135.085 L86.4261 138.036 L71.4956 138.036 L71.4956 135.085 Z" fill="#000000" fill-rule="evenodd" fill-opacity="1" /><path clip-path="url(#clip800)" d="M 0 0 M416.093 384.505 L428.332 384.505 L428.332 387.456 L411.874 387.456 L411.874 384.505 Q413.871 382.439 417.308 378.967 Q420.763 375.477 421.648 374.47 Q423.332 372.578 423.992 371.276 Q424.669 369.956 424.669 368.689 Q424.669 366.623 423.211 365.321 Q421.77 364.019 419.443 364.019 Q417.794 364.019 415.954 364.592 Q414.131 365.165 412.048 366.328 L412.048 362.786 Q414.166 361.935 416.006 361.501 Q417.846 361.067 419.374 361.067 Q423.402 361.067 425.798 363.081 Q428.193 365.095 428.193 368.463 Q428.193 370.06 427.586 371.501 Q426.995 372.925 425.416 374.869 Q424.982 375.373 422.655 377.786 Q420.329 380.182 416.093 384.505 Z" fill="#000000" fill-rule="evenodd" fill-opacity="1" /><path clip-path="url(#clip800)" d="M 0 0 M275.521 261.768 L292.188 261.768 L292.188 263.261 L282.778 287.688 L279.115 287.688 L287.969 264.719 L275.521 264.719 L275.521 261.768 Z" fill="#000000" fill-rule="evenodd" fill-opacity="1" /><path clip-path="url(#clip800)" d="M 0 0 M216.234 225.495 Q213.734 225.495 212.293 226.832 Q210.869 228.169 210.869 230.513 Q210.869 232.856 212.293 234.193 Q213.734 235.53 216.234 235.53 Q218.734 235.53 220.175 234.193 Q221.616 232.839 221.616 230.513 Q221.616 228.169 220.175 226.832 Q218.751 225.495 216.234 225.495 M212.727 224.002 Q210.47 223.447 209.203 221.901 Q207.953 220.356 207.953 218.134 Q207.953 215.026 210.157 213.221 Q212.38 211.415 216.234 211.415 Q220.105 211.415 222.31 213.221 Q224.515 215.026 224.515 218.134 Q224.515 220.356 223.248 221.901 Q221.998 223.447 219.758 224.002 Q222.293 224.592 223.699 226.311 Q225.123 228.03 225.123 230.513 Q225.123 234.28 222.814 236.294 Q220.522 238.308 216.234 238.308 Q211.946 238.308 209.637 236.294 Q207.345 234.28 207.345 230.513 Q207.345 228.03 208.768 226.311 Q210.192 224.592 212.727 224.002 M211.442 218.464 Q211.442 220.478 212.692 221.606 Q213.959 222.735 216.234 222.735 Q218.491 222.735 219.758 221.606 Q221.043 220.478 221.043 218.464 Q221.043 216.45 219.758 215.322 Q218.491 214.193 216.234 214.193 Q213.959 214.193 212.692 215.322 Q211.442 216.45 211.442 218.464 Z" fill="#000000" fill-rule="evenodd" fill-opacity="1" /><path clip-path="url(#clip800)" d="M 0 0 M345.364 137.498 L345.364 134.304 Q346.684 134.929 348.038 135.258 Q349.392 135.588 350.694 135.588 Q354.166 135.588 355.989 133.262 Q357.83 130.918 358.09 126.161 Q357.083 127.654 355.538 128.453 Q353.993 129.252 352.118 129.252 Q348.229 129.252 345.955 126.908 Q343.698 124.547 343.698 120.467 Q343.698 116.474 346.059 114.061 Q348.42 111.647 352.343 111.647 Q356.84 111.647 359.201 115.102 Q361.579 118.54 361.579 125.102 Q361.579 131.231 358.663 134.894 Q355.764 138.54 350.85 138.54 Q349.531 138.54 348.177 138.279 Q346.823 138.019 345.364 137.498 M352.343 126.508 Q354.705 126.508 356.076 124.894 Q357.465 123.279 357.465 120.467 Q357.465 117.672 356.076 116.057 Q354.705 114.425 352.343 114.425 Q349.982 114.425 348.593 116.057 Q347.222 117.672 347.222 120.467 Q347.222 123.279 348.593 124.894 Q349.982 126.508 352.343 126.508 Z" fill="#000000" fill-rule="evenodd" fill-opacity="1" /><path clip-path="url(#clip800)" d="M 0 0 M276.025 85.2008 L281.754 85.2008 L281.754 65.4266 L275.521 66.6766 L275.521 63.4822 L281.719 62.2322 L285.226 62.2322 L285.226 85.2008 L290.955 85.2008 L290.955 88.1522 L276.025 88.1522 L276.025 85.2008 Z" fill="#000000" fill-rule="evenodd" fill-opacity="1" /><path clip-path="url(#clip800)" d="M 0 0 M305.538 64.5412 Q302.83 64.5412 301.459 67.2148 Q300.104 69.8711 300.104 75.2183 Q300.104 80.5481 301.459 83.2217 Q302.83 85.8779 305.538 85.8779 Q308.264 85.8779 309.618 83.2217 Q310.99 80.5481 310.99 75.2183 Q310.99 69.8711 309.618 67.2148 Q308.264 64.5412 305.538 64.5412 M305.538 61.7635 Q309.896 61.7635 312.188 65.2183 Q314.497 68.6558 314.497 75.2183 Q314.497 81.7634 312.188 85.2182 Q309.896 88.6557 305.538 88.6557 Q301.181 88.6557 298.872 85.2182 Q296.58 81.7634 296.58 75.2183 Q296.58 68.6558 298.872 65.2183 Q301.181 61.7635 305.538 61.7635 Z" fill="#000000" fill-rule="evenodd" fill-opacity="1" /><path clip-path="url(#clip800)" d="M 0 0 M276.025 384.505 L281.754 384.505 L281.754 364.73 L275.521 365.98 L275.521 362.786 L281.719 361.536 L285.226 361.536 L285.226 384.505 L290.955 384.505 L290.955 387.456 L276.025 387.456 L276.025 384.505 Z" fill="#000000" fill-rule="evenodd" fill-opacity="1" /><path clip-path="url(#clip800)" d="M 0 0 M305.972 373.098 Q303.611 373.098 302.223 374.713 Q300.851 376.328 300.851 379.14 Q300.851 381.935 302.223 383.567 Q303.611 385.182 305.972 385.182 Q308.334 385.182 309.705 383.567 Q311.094 381.935 311.094 379.14 Q311.094 376.328 309.705 374.713 Q308.334 373.098 305.972 373.098 M312.934 362.109 L312.934 365.303 Q311.615 364.678 310.261 364.349 Q308.924 364.019 307.604 364.019 Q304.132 364.019 302.292 366.362 Q300.469 368.706 300.209 373.446 Q301.233 371.935 302.778 371.137 Q304.323 370.321 306.181 370.321 Q310.087 370.321 312.344 372.699 Q314.618 375.06 314.618 379.14 Q314.618 383.133 312.257 385.546 Q309.896 387.96 305.972 387.96 Q301.476 387.96 299.098 384.522 Q296.719 381.067 296.719 374.522 Q296.719 368.376 299.636 364.73 Q302.552 361.067 307.466 361.067 Q308.785 361.067 310.122 361.328 Q311.476 361.588 312.934 362.109 Z" fill="#000000" fill-rule="evenodd" fill-opacity="1" /><path clip-path="url(#clip800)" d="M 0 0 M412.377 284.737 L418.107 284.737 L418.107 264.963 L411.874 266.213 L411.874 263.018 L418.072 261.768 L421.579 261.768 L421.579 284.737 L427.308 284.737 L427.308 287.688 L412.377 287.688 L412.377 284.737 Z" fill="#000000" fill-rule="evenodd" fill-opacity="1" /><path clip-path="url(#clip800)" d="M 0 0 M433.506 261.768 L450.172 261.768 L450.172 263.261 L440.763 287.688 L437.1 287.688 L445.954 264.719 L433.506 264.719 L433.506 261.768 Z" fill="#000000" fill-rule="evenodd" fill-opacity="1" /><path clip-path="url(#clip800)" d="M 0 0 M344.201 234.853 L349.93 234.853 L349.93 215.079 L343.698 216.329 L343.698 213.134 L349.896 211.884 L353.402 211.884 L353.402 234.853 L359.132 234.853 L359.132 237.804 L344.201 237.804 L344.201 234.853 Z" fill="#000000" fill-rule="evenodd" fill-opacity="1" /><path clip-path="url(#clip800)" d="M 0 0 M373.715 225.495 Q371.215 225.495 369.774 226.832 Q368.35 228.169 368.35 230.513 Q368.35 232.856 369.774 234.193 Q371.215 235.53 373.715 235.53 Q376.215 235.53 377.656 234.193 Q379.097 232.839 379.097 230.513 Q379.097 228.169 377.656 226.832 Q376.232 225.495 373.715 225.495 M370.208 224.002 Q367.951 223.447 366.684 221.901 Q365.434 220.356 365.434 218.134 Q365.434 215.026 367.638 213.221 Q369.861 211.415 373.715 211.415 Q377.586 211.415 379.791 213.221 Q381.996 215.026 381.996 218.134 Q381.996 220.356 380.729 221.901 Q379.479 223.447 377.239 224.002 Q379.774 224.592 381.18 226.311 Q382.604 228.03 382.604 230.513 Q382.604 234.28 380.295 236.294 Q378.003 238.308 373.715 238.308 Q369.427 238.308 367.118 236.294 Q364.826 234.28 364.826 230.513 Q364.826 228.03 366.25 226.311 Q367.673 224.592 370.208 224.002 M368.923 218.464 Q368.923 220.478 370.173 221.606 Q371.441 222.735 373.715 222.735 Q375.972 222.735 377.239 221.606 Q378.524 220.478 378.524 218.464 Q378.524 216.45 377.239 215.322 Q375.972 214.193 373.715 214.193 Q371.441 214.193 370.173 215.322 Q368.923 216.45 368.923 218.464 Z" fill="#000000" fill-rule="evenodd" fill-opacity="1" /><path clip-path="url(#clip800)" d="M 0 0 M416.093 85.2008 L428.332 85.2008 L428.332 88.1522 L411.874 88.1522 L411.874 85.2008 Q413.871 83.1349 417.308 79.6627 Q420.763 76.1731 421.648 75.1662 Q423.332 73.2738 423.992 71.9718 Q424.669 70.6523 424.669 69.385 Q424.669 67.319 423.211 66.0169 Q421.77 64.7148 419.443 64.7148 Q417.794 64.7148 415.954 65.2878 Q414.131 65.8607 412.048 67.0239 L412.048 63.4822 Q414.166 62.6315 416.006 62.1975 Q417.846 61.7635 419.374 61.7635 Q423.402 61.7635 425.798 63.7774 Q428.193 65.7912 428.193 69.1593 Q428.193 70.7565 427.586 72.1974 Q426.995 73.621 425.416 75.5655 Q424.982 76.069 422.655 78.4821 Q420.329 80.878 416.093 85.2008 Z" fill="#000000" fill-rule="evenodd" fill-opacity="1" /><path clip-path="url(#clip800)" d="M 0 0 M443.193 64.5412 Q440.485 64.5412 439.113 67.2148 Q437.759 69.8711 437.759 75.2183 Q437.759 80.5481 439.113 83.2217 Q440.485 85.8779 443.193 85.8779 Q445.919 85.8779 447.273 83.2217 Q448.645 80.5481 448.645 75.2183 Q448.645 69.8711 447.273 67.2148 Q445.919 64.5412 443.193 64.5412 M443.193 61.7635 Q447.551 61.7635 449.843 65.2183 Q452.152 68.6558 452.152 75.2183 Q452.152 81.7634 449.843 85.2182 Q447.551 88.6557 443.193 88.6557 Q438.836 88.6557 436.527 85.2182 Q434.235 81.7634 434.235 75.2183 Q434.235 68.6558 436.527 65.2183 Q438.836 61.7635 443.193 61.7635 Z" fill="#000000" fill-rule="evenodd" fill-opacity="1" /><path clip-path="url(#clip800)" d="M 0 0 M75.2109 234.853 L87.4504 234.853 L87.4504 237.804 L70.9921 237.804 L70.9921 234.853 Q72.9886 232.787 76.4261 229.315 Q79.881 225.825 80.7664 224.818 Q82.4504 222.926 83.1101 221.624 Q83.7872 220.304 83.7872 219.037 Q83.7872 216.971 82.3289 215.669 Q80.8879 214.367 78.5615 214.367 Q76.9122 214.367 75.072 214.94 Q73.2491 215.513 71.1657 216.676 L71.1657 213.134 Q73.2838 212.283 75.124 211.849 Q76.9643 211.415 78.4921 211.415 Q82.5198 211.415 84.9157 213.429 Q87.3115 215.443 87.3115 218.811 Q87.3115 220.408 86.7038 221.849 Q86.1136 223.273 84.5337 225.217 Q84.0997 225.721 81.7733 228.134 Q79.4469 230.53 75.2109 234.853 Z" fill="#000000" fill-rule="evenodd" fill-opacity="1" /><path clip-path="url(#clip800)" d="M 0 0 M97.8323 234.853 L110.072 234.853 L110.072 237.804 L93.6135 237.804 L93.6135 234.853 Q95.61 232.787 99.0475 229.315 Q102.502 225.825 103.388 224.818 Q105.072 222.926 105.732 221.624 Q106.409 220.304 106.409 219.037 Q106.409 216.971 104.95 215.669 Q103.509 214.367 101.183 214.367 Q99.5336 214.367 97.6934 214.94 Q95.8705 215.513 93.7871 216.676 L93.7871 213.134 Q95.9052 212.283 97.7455 211.849 Q99.5857 211.415 101.113 211.415 Q105.141 211.415 107.537 213.429 Q109.933 215.443 109.933 218.811 Q109.933 220.408 109.325 221.849 Q108.735 223.273 107.155 225.217 Q106.721 225.721 104.395 228.134 Q102.068 230.53 97.8323 234.853 Z" fill="#000000" fill-rule="evenodd" fill-opacity="1" /><path clip-path="url(#clip800)" d="M 0 0 M211.564 135.085 L223.803 135.085 L223.803 138.036 L207.345 138.036 L207.345 135.085 Q209.341 133.019 212.779 129.547 Q216.234 126.057 217.119 125.05 Q218.803 123.158 219.463 121.856 Q220.14 120.536 220.14 119.269 Q220.14 117.203 218.682 115.901 Q217.241 114.599 214.914 114.599 Q213.265 114.599 211.425 115.172 Q209.602 115.745 207.518 116.908 L207.518 113.366 Q209.637 112.515 211.477 112.081 Q213.317 111.647 214.845 111.647 Q218.873 111.647 221.268 113.661 Q223.664 115.675 223.664 119.043 Q223.664 120.64 223.057 122.081 Q222.466 123.505 220.886 125.449 Q220.452 125.953 218.126 128.366 Q215.8 130.762 211.564 135.085 Z" fill="#000000" fill-rule="evenodd" fill-opacity="1" /><path clip-path="url(#clip800)" d="M 0 0 M241.789 124.061 Q244.306 124.599 245.713 126.3 Q247.136 128.002 247.136 130.502 Q247.136 134.338 244.497 136.439 Q241.859 138.54 236.998 138.54 Q235.366 138.54 233.629 138.21 Q231.911 137.897 230.07 137.255 L230.07 133.87 Q231.529 134.72 233.265 135.154 Q235.001 135.588 236.893 135.588 Q240.192 135.588 241.911 134.286 Q243.647 132.984 243.647 130.502 Q243.647 128.21 242.032 126.925 Q240.435 125.623 237.57 125.623 L234.55 125.623 L234.55 122.741 L237.709 122.741 Q240.296 122.741 241.668 121.717 Q243.039 120.675 243.039 118.731 Q243.039 116.734 241.616 115.675 Q240.209 114.599 237.57 114.599 Q236.129 114.599 234.48 114.911 Q232.831 115.224 230.852 115.884 L230.852 112.759 Q232.848 112.203 234.584 111.925 Q236.338 111.647 237.883 111.647 Q241.876 111.647 244.202 113.47 Q246.529 115.276 246.529 118.366 Q246.529 120.519 245.296 122.012 Q244.063 123.488 241.789 124.061 Z" fill="#000000" fill-rule="evenodd" fill-opacity="1" /><path clip-path="url(#clip800)" d="M 0 0 M143.387 85.2008 L155.627 85.2008 L155.627 88.1522 L139.169 88.1522 L139.169 85.2008 Q141.165 83.1349 144.603 79.6627 Q148.057 76.1731 148.943 75.1662 Q150.627 73.2738 151.286 71.9718 Q151.964 70.6523 151.964 69.385 Q151.964 67.319 150.505 66.0169 Q149.064 64.7148 146.738 64.7148 Q145.089 64.7148 143.248 65.2878 Q141.425 65.8607 139.342 67.0239 L139.342 63.4822 Q141.46 62.6315 143.3 62.1975 Q145.141 61.7635 146.668 61.7635 Q150.696 61.7635 153.092 63.7774 Q155.488 65.7912 155.488 69.1593 Q155.488 70.7565 154.88 72.1974 Q154.29 73.621 152.71 75.5655 Q152.276 76.069 149.95 78.4821 Q147.623 80.878 143.387 85.2008 Z" fill="#000000" fill-rule="evenodd" fill-opacity="1" /><path clip-path="url(#clip800)" d="M 0 0 M172.623 65.2878 L163.769 79.1245 L172.623 79.1245 L172.623 65.2878 M171.703 62.2322 L176.113 62.2322 L176.113 79.1245 L179.811 79.1245 L179.811 82.0411 L176.113 82.0411 L176.113 88.1522 L172.623 88.1522 L172.623 82.0411 L160.922 82.0411 L160.922 78.6557 L171.703 62.2322 Z" fill="#000000" fill-rule="evenodd" fill-opacity="1" /><circle clip-path="url(#clip802)" cx="548.227" cy="894.072" r="14" fill="#0000ff" fill-rule="evenodd" fill-opacity="1" stroke="none"/>
<circle clip-path="url(#clip802)" cx="480.05" cy="844.188" r="14" fill="#0000ff" fill-rule="evenodd" fill-opacity="1" stroke="none"/>
<circle clip-path="url(#clip802)" cx="616.403" cy="744.42" r="14" fill="#0000ff" fill-rule="evenodd" fill-opacity="1" stroke="none"/>
<circle clip-path="url(#clip802)" cx="548.227" cy="694.536" r="14" fill="#0000ff" fill-rule="evenodd" fill-opacity="1" stroke="none"/>
<circle clip-path="url(#clip802)" cx="752.756" cy="844.188" r="14" fill="#0000ff" fill-rule="evenodd" fill-opacity="1" stroke="none"/>
<circle clip-path="url(#clip802)" cx="684.58" cy="894.072" r="14" fill="#0000ff" fill-rule="evenodd" fill-opacity="1" stroke="none"/>
<circle clip-path="url(#clip802)" cx="616.403" cy="844.188" r="14" fill="#0000ff" fill-rule="evenodd" fill-opacity="1" stroke="none"/>
<circle clip-path="url(#clip802)" cx="752.756" cy="744.42" r="14" fill="#0000ff" fill-rule="evenodd" fill-opacity="1" stroke="none"/>
<circle clip-path="url(#clip802)" cx="480.05" cy="744.42" r="14" fill="#0000ff" fill-rule="evenodd" fill-opacity="1" stroke="none"/>
<circle clip-path="url(#clip802)" cx="548.227" cy="594.768" r="14" fill="#0000ff" fill-rule="evenodd" fill-opacity="1" stroke="none"/>
<path clip-path="url(#clip800)" d="M 0 0 M559.945 872.32 Q562.463 872.858 563.869 874.56 Q565.293 876.261 565.293 878.761 Q565.293 882.598 562.654 884.699 Q560.015 886.799 555.154 886.799 Q553.522 886.799 551.786 886.469 Q550.067 886.157 548.227 885.515 L548.227 882.129 Q549.685 882.98 551.421 883.414 Q553.157 883.848 555.05 883.848 Q558.348 883.848 560.067 882.546 Q561.803 881.244 561.803 878.761 Q561.803 876.469 560.189 875.185 Q558.591 873.883 555.727 873.883 L552.706 873.883 L552.706 871.001 L555.866 871.001 Q558.452 871.001 559.824 869.976 Q561.195 868.935 561.195 866.99 Q561.195 864.994 559.772 863.935 Q558.366 862.858 555.727 862.858 Q554.286 862.858 552.636 863.171 Q550.987 863.483 549.008 864.143 L549.008 861.018 Q551.005 860.463 552.741 860.185 Q554.494 859.907 556.039 859.907 Q560.032 859.907 562.359 861.73 Q564.685 863.535 564.685 866.626 Q564.685 868.779 563.452 870.272 Q562.22 871.747 559.945 872.32 Z" fill="#000000" fill-rule="evenodd" fill-opacity="1" /><path clip-path="url(#clip800)" d="M 0 0 M491.752 813.547 L482.898 827.384 L491.752 827.384 L491.752 813.547 M490.832 810.492 L495.241 810.492 L495.241 827.384 L498.939 827.384 L498.939 830.301 L495.241 830.301 L495.241 836.412 L491.752 836.412 L491.752 830.301 L480.05 830.301 L480.05 826.915 L490.832 810.492 Z" fill="#000000" fill-rule="evenodd" fill-opacity="1" /><path clip-path="url(#clip800)" d="M 0 0 M617.497 710.724 L631.264 710.724 L631.264 713.675 L620.709 713.675 L620.709 720.029 Q621.473 719.769 622.236 719.647 Q623 719.509 623.764 719.509 Q628.104 719.509 630.639 721.887 Q633.174 724.265 633.174 728.328 Q633.174 732.512 630.57 734.838 Q627.966 737.147 623.226 737.147 Q621.594 737.147 619.893 736.87 Q618.209 736.592 616.403 736.036 L616.403 732.512 Q617.966 733.363 619.632 733.779 Q621.299 734.196 623.157 734.196 Q626.16 734.196 627.914 732.616 Q629.667 731.036 629.667 728.328 Q629.667 725.62 627.914 724.04 Q626.16 722.46 623.157 722.46 Q621.75 722.46 620.344 722.772 Q618.955 723.085 617.497 723.745 L617.497 710.724 Z" fill="#000000" fill-rule="evenodd" fill-opacity="1" /><path clip-path="url(#clip800)" d="M 0 0 M557.48 672.402 Q555.119 672.402 553.73 674.017 Q552.359 675.631 552.359 678.444 Q552.359 681.239 553.73 682.871 Q555.119 684.486 557.48 684.486 Q559.841 684.486 561.213 682.871 Q562.602 681.239 562.602 678.444 Q562.602 675.631 561.213 674.017 Q559.841 672.402 557.48 672.402 M564.442 661.413 L564.442 664.607 Q563.123 663.982 561.768 663.652 Q560.432 663.323 559.112 663.323 Q555.64 663.323 553.8 665.666 Q551.977 668.01 551.716 672.75 Q552.741 671.239 554.286 670.441 Q555.831 669.625 557.689 669.625 Q561.595 669.625 563.852 672.003 Q566.126 674.364 566.126 678.444 Q566.126 682.437 563.765 684.85 Q561.404 687.263 557.48 687.263 Q552.984 687.263 550.605 683.826 Q548.227 680.371 548.227 673.826 Q548.227 667.68 551.143 664.034 Q554.06 660.371 558.973 660.371 Q560.293 660.371 561.629 660.632 Q562.984 660.892 564.442 661.413 Z" fill="#000000" fill-rule="evenodd" fill-opacity="1" /><path clip-path="url(#clip800)" d="M 0 0 M753.259 833.46 L758.989 833.46 L758.989 813.686 L752.756 814.936 L752.756 811.742 L758.954 810.492 L762.461 810.492 L762.461 833.46 L768.19 833.46 L768.19 836.412 L753.259 836.412 L753.259 833.46 Z" fill="#000000" fill-rule="evenodd" fill-opacity="1" /><path clip-path="url(#clip800)" d="M 0 0 M778.294 833.46 L790.533 833.46 L790.533 836.412 L774.075 836.412 L774.075 833.46 Q776.072 831.394 779.509 827.922 Q782.964 824.433 783.849 823.426 Q785.534 821.533 786.193 820.231 Q786.87 818.912 786.87 817.645 Q786.87 815.579 785.412 814.277 Q783.971 812.974 781.645 812.974 Q779.995 812.974 778.155 813.547 Q776.332 814.12 774.249 815.283 L774.249 811.742 Q776.367 810.891 778.207 810.457 Q780.047 810.023 781.575 810.023 Q785.603 810.023 787.999 812.037 Q790.395 814.051 790.395 817.419 Q790.395 819.016 789.787 820.457 Q789.197 821.881 787.617 823.825 Q787.183 824.329 784.856 826.742 Q782.53 829.138 778.294 833.46 Z" fill="#000000" fill-rule="evenodd" fill-opacity="1" /><path clip-path="url(#clip800)" d="M 0 0 M685.083 883.344 L690.812 883.344 L690.812 863.57 L684.58 864.82 L684.58 861.626 L690.777 860.376 L694.284 860.376 L694.284 883.344 L700.013 883.344 L700.013 886.296 L685.083 886.296 L685.083 883.344 Z" fill="#000000" fill-rule="evenodd" fill-opacity="1" /><path clip-path="url(#clip800)" d="M 0 0 M717.722 872.32 Q720.239 872.858 721.645 874.56 Q723.069 876.261 723.069 878.761 Q723.069 882.598 720.43 884.699 Q717.791 886.799 712.93 886.799 Q711.298 886.799 709.562 886.469 Q707.843 886.157 706.003 885.515 L706.003 882.129 Q707.461 882.98 709.197 883.414 Q710.934 883.848 712.826 883.848 Q716.124 883.848 717.843 882.546 Q719.579 881.244 719.579 878.761 Q719.579 876.469 717.965 875.185 Q716.368 873.883 713.503 873.883 L710.482 873.883 L710.482 871.001 L713.642 871.001 Q716.229 871.001 717.6 869.976 Q718.972 868.935 718.972 866.99 Q718.972 864.994 717.548 863.935 Q716.142 862.858 713.503 862.858 Q712.062 862.858 710.413 863.171 Q708.763 863.483 706.784 864.143 L706.784 861.018 Q708.781 860.463 710.517 860.185 Q712.27 859.907 713.815 859.907 Q717.809 859.907 720.135 861.73 Q722.461 863.535 722.461 866.626 Q722.461 868.779 721.229 870.272 Q719.996 871.747 717.722 872.32 Z" fill="#000000" fill-rule="evenodd" fill-opacity="1" /><path clip-path="url(#clip800)" d="M 0 0 M616.907 833.46 L622.636 833.46 L622.636 813.686 L616.403 814.936 L616.403 811.742 L622.601 810.492 L626.108 810.492 L626.108 833.46 L631.837 833.46 L631.837 836.412 L616.907 836.412 L616.907 833.46 Z" fill="#000000" fill-rule="evenodd" fill-opacity="1" /><path clip-path="url(#clip800)" d="M 0 0 M648.556 813.547 L639.702 827.384 L648.556 827.384 L648.556 813.547 M647.636 810.492 L652.045 810.492 L652.045 827.384 L655.743 827.384 L655.743 830.301 L652.045 830.301 L652.045 836.412 L648.556 836.412 L648.556 830.301 L636.854 830.301 L636.854 826.915 L647.636 810.492 Z" fill="#000000" fill-rule="evenodd" fill-opacity="1" /><path clip-path="url(#clip800)" d="M 0 0 M753.259 733.692 L758.989 733.692 L758.989 713.918 L752.756 715.168 L752.756 711.974 L758.954 710.724 L762.461 710.724 L762.461 733.692 L768.19 733.692 L768.19 736.644 L753.259 736.644 L753.259 733.692 Z" fill="#000000" fill-rule="evenodd" fill-opacity="1" /><path clip-path="url(#clip800)" d="M 0 0 M775.308 710.724 L789.075 710.724 L789.075 713.675 L778.52 713.675 L778.52 720.029 Q779.284 719.769 780.047 719.647 Q780.811 719.509 781.575 719.509 Q785.915 719.509 788.45 721.887 Q790.985 724.265 790.985 728.328 Q790.985 732.512 788.381 734.838 Q785.777 737.147 781.037 737.147 Q779.405 737.147 777.704 736.87 Q776.02 736.592 774.214 736.036 L774.214 732.512 Q775.777 733.363 777.443 733.779 Q779.11 734.196 780.968 734.196 Q783.971 734.196 785.724 732.616 Q787.478 731.036 787.478 728.328 Q787.478 725.62 785.724 724.04 Q783.971 722.46 780.968 722.46 Q779.561 722.46 778.155 722.772 Q776.766 723.085 775.308 723.745 L775.308 710.724 Z" fill="#000000" fill-rule="evenodd" fill-opacity="1" /><path clip-path="url(#clip800)" d="M 0 0 M480.554 733.692 L486.283 733.692 L486.283 713.918 L480.05 715.168 L480.05 711.974 L486.248 710.724 L489.755 710.724 L489.755 733.692 L495.484 733.692 L495.484 736.644 L480.554 736.644 L480.554 733.692 Z" fill="#000000" fill-rule="evenodd" fill-opacity="1" /><path clip-path="url(#clip800)" d="M 0 0 M502.672 736.106 L502.672 732.911 Q503.991 733.536 505.345 733.866 Q506.7 734.196 508.002 734.196 Q511.474 734.196 513.297 731.87 Q515.137 729.526 515.397 724.769 Q514.39 726.262 512.845 727.061 Q511.3 727.859 509.425 727.859 Q505.536 727.859 503.262 725.515 Q501.005 723.154 501.005 719.075 Q501.005 715.081 503.366 712.668 Q505.727 710.255 509.651 710.255 Q514.147 710.255 516.509 713.71 Q518.887 717.147 518.887 723.71 Q518.887 729.838 515.97 733.502 Q513.071 737.147 508.158 737.147 Q506.838 737.147 505.484 736.887 Q504.13 736.627 502.672 736.106 M509.651 725.116 Q512.012 725.116 513.384 723.502 Q514.772 721.887 514.772 719.075 Q514.772 716.279 513.384 714.665 Q512.012 713.033 509.651 713.033 Q507.29 713.033 505.901 714.665 Q504.529 716.279 504.529 719.075 Q504.529 721.887 505.901 723.502 Q507.29 725.116 509.651 725.116 Z" fill="#000000" fill-rule="evenodd" fill-opacity="1" /><path clip-path="url(#clip800)" d="M 0 0 M552.445 584.041 L564.685 584.041 L564.685 586.992 L548.227 586.992 L548.227 584.041 Q550.223 581.975 553.661 578.502 Q557.116 575.013 558.001 574.006 Q559.685 572.114 560.345 570.811 Q561.022 569.492 561.022 568.225 Q561.022 566.159 559.564 564.857 Q558.123 563.555 555.796 563.555 Q554.147 563.555 552.307 564.127 Q550.484 564.7 548.4 565.864 L548.4 562.322 Q550.518 561.471 552.359 561.037 Q554.199 560.603 555.727 560.603 Q559.754 560.603 562.15 562.617 Q564.546 564.631 564.546 567.999 Q564.546 569.596 563.938 571.037 Q563.348 572.461 561.768 574.405 Q561.334 574.909 559.008 577.322 Q556.682 579.718 552.445 584.041 Z" fill="#000000" fill-rule="evenodd" fill-opacity="1" /><path clip-path="url(#clip800)" d="M 0 0 M572.654 584.041 L578.383 584.041 L578.383 564.266 L572.15 565.516 L572.15 562.322 L578.348 561.072 L581.855 561.072 L581.855 584.041 L587.584 584.041 L587.584 586.992 L572.654 586.992 L572.654 584.041 Z" fill="#000000" fill-rule="evenodd" fill-opacity="1" /><circle clip-path="url(#clip802)" cx="480.05" cy="445.116" r="14" fill="#0000ff" fill-rule="evenodd" fill-opacity="1" stroke="none"/>
<circle clip-path="url(#clip802)" cx="548.227" cy="295.464" r="14" fill="#0000ff" fill-rule="evenodd" fill-opacity="1" stroke="none"/>
<circle clip-path="url(#clip802)" cx="480.05" cy="245.58" r="14" fill="#0000ff" fill-rule="evenodd" fill-opacity="1" stroke="none"/>
<circle clip-path="url(#clip802)" cx="616.403" cy="145.812" r="14" fill="#0000ff" fill-rule="evenodd" fill-opacity="1" stroke="none"/>
<circle clip-path="url(#clip802)" cx="548.227" cy="95.9282" r="14" fill="#0000ff" fill-rule="evenodd" fill-opacity="1" stroke="none"/>
<circle clip-path="url(#clip802)" cx="684.58" cy="594.768" r="14" fill="#0000ff" fill-rule="evenodd" fill-opacity="1" stroke="none"/>
<circle clip-path="url(#clip802)" cx="616.403" cy="544.884" r="14" fill="#0000ff" fill-rule="evenodd" fill-opacity="1" stroke="none"/>
<circle clip-path="url(#clip802)" cx="752.756" cy="445.116" r="14" fill="#0000ff" fill-rule="evenodd" fill-opacity="1" stroke="none"/>
<circle clip-path="url(#clip802)" cx="684.58" cy="395.232" r="14" fill="#0000ff" fill-rule="evenodd" fill-opacity="1" stroke="none"/>
<circle clip-path="url(#clip802)" cx="752.756" cy="245.58" r="14" fill="#0000ff" fill-rule="evenodd" fill-opacity="1" stroke="none"/>
<circle clip-path="url(#clip802)" cx="684.58" cy="295.464" r="14" fill="#0000ff" fill-rule="evenodd" fill-opacity="1" stroke="none"/>
<circle clip-path="url(#clip802)" cx="616.403" cy="245.58" r="14" fill="#0000ff" fill-rule="evenodd" fill-opacity="1" stroke="none"/>
<circle clip-path="url(#clip802)" cx="752.756" cy="145.812" r="14" fill="#0000ff" fill-rule="evenodd" fill-opacity="1" stroke="none"/>
<circle clip-path="url(#clip802)" cx="684.58" cy="694.536" r="14" fill="#0000ff" fill-rule="evenodd" fill-opacity="1" stroke="none"/>
<circle clip-path="url(#clip802)" cx="752.756" cy="544.884" r="14" fill="#0000ff" fill-rule="evenodd" fill-opacity="1" stroke="none"/>
<circle clip-path="url(#clip802)" cx="480.05" cy="145.812" r="14" fill="#0000ff" fill-rule="evenodd" fill-opacity="1" stroke="none"/>
<circle clip-path="url(#clip802)" cx="480.05" cy="544.884" r="14" fill="#0000ff" fill-rule="evenodd" fill-opacity="1" stroke="none"/>
<circle clip-path="url(#clip802)" cx="616.403" cy="445.116" r="14" fill="#0000ff" fill-rule="evenodd" fill-opacity="1" stroke="none"/>
<circle clip-path="url(#clip802)" cx="548.227" cy="395.232" r="14" fill="#0000ff" fill-rule="evenodd" fill-opacity="1" stroke="none"/>
<path clip-path="url(#clip800)" d="M 0 0 M480.554 434.389 L486.283 434.389 L486.283 414.614 L480.05 415.864 L480.05 412.67 L486.248 411.42 L489.755 411.42 L489.755 434.389 L495.484 434.389 L495.484 437.34 L480.554 437.34 L480.554 434.389 Z" fill="#000000" fill-rule="evenodd" fill-opacity="1" /><path clip-path="url(#clip800)" d="M 0 0 M559.945 273.712 Q562.463 274.251 563.869 275.952 Q565.293 277.653 565.293 280.153 Q565.293 283.99 562.654 286.091 Q560.015 288.192 555.154 288.192 Q553.522 288.192 551.786 287.862 Q550.067 287.549 548.227 286.907 L548.227 283.521 Q549.685 284.372 551.421 284.806 Q553.157 285.24 555.05 285.24 Q558.348 285.24 560.067 283.938 Q561.803 282.636 561.803 280.153 Q561.803 277.862 560.189 276.577 Q558.591 275.275 555.727 275.275 L552.706 275.275 L552.706 272.393 L555.866 272.393 Q558.452 272.393 559.824 271.369 Q561.195 270.327 561.195 268.383 Q561.195 266.386 559.772 265.327 Q558.366 264.251 555.727 264.251 Q554.286 264.251 552.636 264.563 Q550.987 264.876 549.008 265.535 L549.008 262.41 Q551.005 261.855 552.741 261.577 Q554.494 261.299 556.039 261.299 Q560.032 261.299 562.359 263.122 Q564.685 264.928 564.685 268.018 Q564.685 270.171 563.452 271.664 Q562.22 273.14 559.945 273.712 Z" fill="#000000" fill-rule="evenodd" fill-opacity="1" /><path clip-path="url(#clip800)" d="M 0 0 M491.752 214.94 L482.898 228.776 L491.752 228.776 L491.752 214.94 M490.832 211.884 L495.241 211.884 L495.241 228.776 L498.939 228.776 L498.939 231.693 L495.241 231.693 L495.241 237.804 L491.752 237.804 L491.752 231.693 L480.05 231.693 L480.05 228.308 L490.832 211.884 Z" fill="#000000" fill-rule="evenodd" fill-opacity="1" /><path clip-path="url(#clip800)" d="M 0 0 M617.497 112.116 L631.264 112.116 L631.264 115.068 L620.709 115.068 L620.709 121.422 Q621.473 121.161 622.236 121.04 Q623 120.901 623.764 120.901 Q628.104 120.901 630.639 123.279 Q633.174 125.658 633.174 129.72 Q633.174 133.904 630.57 136.231 Q627.966 138.54 623.226 138.54 Q621.594 138.54 619.893 138.262 Q618.209 137.984 616.403 137.429 L616.403 133.904 Q617.966 134.755 619.632 135.172 Q621.299 135.588 623.157 135.588 Q626.16 135.588 627.914 134.008 Q629.667 132.429 629.667 129.72 Q629.667 127.012 627.914 125.432 Q626.16 123.852 623.157 123.852 Q621.75 123.852 620.344 124.165 Q618.955 124.477 617.497 125.137 L617.497 112.116 Z" fill="#000000" fill-rule="evenodd" fill-opacity="1" /><path clip-path="url(#clip800)" d="M 0 0 M557.48 73.7947 Q555.119 73.7947 553.73 75.4092 Q552.359 77.0238 552.359 79.8363 Q552.359 82.6314 553.73 84.2634 Q555.119 85.8779 557.48 85.8779 Q559.841 85.8779 561.213 84.2634 Q562.602 82.6314 562.602 79.8363 Q562.602 77.0238 561.213 75.4092 Q559.841 73.7947 557.48 73.7947 M564.442 62.8051 L564.442 65.9996 Q563.123 65.3746 561.768 65.0447 Q560.432 64.7148 559.112 64.7148 Q555.64 64.7148 553.8 67.0586 Q551.977 69.4023 551.716 74.1419 Q552.741 72.6315 554.286 71.8329 Q555.831 71.0169 557.689 71.0169 Q561.595 71.0169 563.852 73.3954 Q566.126 75.7565 566.126 79.8363 Q566.126 83.8293 563.765 86.2425 Q561.404 88.6557 557.48 88.6557 Q552.984 88.6557 550.605 85.2182 Q548.227 81.7634 548.227 75.2183 Q548.227 69.0725 551.143 65.4266 Q554.06 61.7635 558.973 61.7635 Q560.293 61.7635 561.629 62.0239 Q562.984 62.2843 564.442 62.8051 Z" fill="#000000" fill-rule="evenodd" fill-opacity="1" /><path clip-path="url(#clip800)" d="M 0 0 M684.58 561.072 L701.246 561.072 L701.246 562.565 L691.836 586.992 L688.173 586.992 L697.027 564.023 L684.58 564.023 L684.58 561.072 Z" fill="#000000" fill-rule="evenodd" fill-opacity="1" /><path clip-path="url(#clip800)" d="M 0 0 M625.292 524.799 Q622.792 524.799 621.351 526.136 Q619.927 527.473 619.927 529.816 Q619.927 532.16 621.351 533.497 Q622.792 534.834 625.292 534.834 Q627.792 534.834 629.233 533.497 Q630.674 532.143 630.674 529.816 Q630.674 527.473 629.233 526.136 Q627.809 524.799 625.292 524.799 M621.785 523.306 Q619.528 522.75 618.261 521.205 Q617.011 519.66 617.011 517.438 Q617.011 514.33 619.216 512.525 Q621.438 510.719 625.292 510.719 Q629.163 510.719 631.368 512.525 Q633.573 514.33 633.573 517.438 Q633.573 519.66 632.306 521.205 Q631.056 522.75 628.816 523.306 Q631.351 523.896 632.757 525.615 Q634.181 527.334 634.181 529.816 Q634.181 533.584 631.872 535.598 Q629.58 537.611 625.292 537.611 Q621.004 537.611 618.695 535.598 Q616.403 533.584 616.403 529.816 Q616.403 527.334 617.827 525.615 Q619.25 523.896 621.785 523.306 M620.5 517.768 Q620.5 519.782 621.75 520.91 Q623.018 522.039 625.292 522.039 Q627.549 522.039 628.816 520.91 Q630.101 519.782 630.101 517.768 Q630.101 515.754 628.816 514.625 Q627.549 513.497 625.292 513.497 Q623.018 513.497 621.75 514.625 Q620.5 515.754 620.5 517.768 Z" fill="#000000" fill-rule="evenodd" fill-opacity="1" /><path clip-path="url(#clip800)" d="M 0 0 M754.423 436.802 L754.423 433.607 Q755.742 434.232 757.096 434.562 Q758.45 434.892 759.752 434.892 Q763.225 434.892 765.048 432.566 Q766.888 430.222 767.148 425.465 Q766.141 426.958 764.596 427.757 Q763.051 428.555 761.176 428.555 Q757.287 428.555 755.013 426.212 Q752.756 423.851 752.756 419.771 Q752.756 415.778 755.117 413.364 Q757.478 410.951 761.402 410.951 Q765.898 410.951 768.259 414.406 Q770.638 417.844 770.638 424.406 Q770.638 430.535 767.721 434.198 Q764.822 437.843 759.909 437.843 Q758.589 437.843 757.235 437.583 Q755.881 437.323 754.423 436.802 M761.402 425.812 Q763.763 425.812 765.134 424.198 Q766.523 422.583 766.523 419.771 Q766.523 416.976 765.134 415.361 Q763.763 413.729 761.402 413.729 Q759.041 413.729 757.652 415.361 Q756.28 416.976 756.28 419.771 Q756.28 422.583 757.652 424.198 Q759.041 425.812 761.402 425.812 Z" fill="#000000" fill-rule="evenodd" fill-opacity="1" /><path clip-path="url(#clip800)" d="M 0 0 M685.083 384.505 L690.812 384.505 L690.812 364.73 L684.58 365.98 L684.58 362.786 L690.777 361.536 L694.284 361.536 L694.284 384.505 L700.013 384.505 L700.013 387.456 L685.083 387.456 L685.083 384.505 Z" fill="#000000" fill-rule="evenodd" fill-opacity="1" /><path clip-path="url(#clip800)" d="M 0 0 M714.597 363.845 Q711.888 363.845 710.517 366.519 Q709.163 369.175 709.163 374.522 Q709.163 379.852 710.517 382.526 Q711.888 385.182 714.597 385.182 Q717.322 385.182 718.677 382.526 Q720.048 379.852 720.048 374.522 Q720.048 369.175 718.677 366.519 Q717.322 363.845 714.597 363.845 M714.597 361.067 Q718.954 361.067 721.246 364.522 Q723.555 367.96 723.555 374.522 Q723.555 381.067 721.246 384.522 Q718.954 387.96 714.597 387.96 Q710.239 387.96 707.93 384.522 Q705.638 381.067 705.638 374.522 Q705.638 367.96 707.93 364.522 Q710.239 361.067 714.597 361.067 Z" fill="#000000" fill-rule="evenodd" fill-opacity="1" /><path clip-path="url(#clip800)" d="M 0 0 M753.259 234.853 L758.989 234.853 L758.989 215.079 L752.756 216.329 L752.756 213.134 L758.954 211.884 L762.461 211.884 L762.461 234.853 L768.19 234.853 L768.19 237.804 L753.259 237.804 L753.259 234.853 Z" fill="#000000" fill-rule="evenodd" fill-opacity="1" /><path clip-path="url(#clip800)" d="M 0 0 M778.294 234.853 L790.533 234.853 L790.533 237.804 L774.075 237.804 L774.075 234.853 Q776.072 232.787 779.509 229.315 Q782.964 225.825 783.849 224.818 Q785.534 222.926 786.193 221.624 Q786.87 220.304 786.87 219.037 Q786.87 216.971 785.412 215.669 Q783.971 214.367 781.645 214.367 Q779.995 214.367 778.155 214.94 Q776.332 215.513 774.249 216.676 L774.249 213.134 Q776.367 212.283 778.207 211.849 Q780.047 211.415 781.575 211.415 Q785.603 211.415 787.999 213.429 Q790.395 215.443 790.395 218.811 Q790.395 220.408 789.787 221.849 Q789.197 223.273 787.617 225.217 Q787.183 225.721 784.856 228.134 Q782.53 230.53 778.294 234.853 Z" fill="#000000" fill-rule="evenodd" fill-opacity="1" /><path clip-path="url(#clip800)" d="M 0 0 M685.083 284.737 L690.812 284.737 L690.812 264.963 L684.58 266.213 L684.58 263.018 L690.777 261.768 L694.284 261.768 L694.284 284.737 L700.013 284.737 L700.013 287.688 L685.083 287.688 L685.083 284.737 Z" fill="#000000" fill-rule="evenodd" fill-opacity="1" /><path clip-path="url(#clip800)" d="M 0 0 M717.722 273.712 Q720.239 274.251 721.645 275.952 Q723.069 277.653 723.069 280.153 Q723.069 283.99 720.43 286.091 Q717.791 288.192 712.93 288.192 Q711.298 288.192 709.562 287.862 Q707.843 287.549 706.003 286.907 L706.003 283.521 Q707.461 284.372 709.197 284.806 Q710.934 285.24 712.826 285.24 Q716.124 285.24 717.843 283.938 Q719.579 282.636 719.579 280.153 Q719.579 277.862 717.965 276.577 Q716.368 275.275 713.503 275.275 L710.482 275.275 L710.482 272.393 L713.642 272.393 Q716.229 272.393 717.6 271.369 Q718.972 270.327 718.972 268.383 Q718.972 266.386 717.548 265.327 Q716.142 264.251 713.503 264.251 Q712.062 264.251 710.413 264.563 Q708.763 264.876 706.784 265.535 L706.784 262.41 Q708.781 261.855 710.517 261.577 Q712.27 261.299 713.815 261.299 Q717.809 261.299 720.135 263.122 Q722.461 264.928 722.461 268.018 Q722.461 270.171 721.229 271.664 Q719.996 273.14 717.722 273.712 Z" fill="#000000" fill-rule="evenodd" fill-opacity="1" /><path clip-path="url(#clip800)" d="M 0 0 M616.907 234.853 L622.636 234.853 L622.636 215.079 L616.403 216.329 L616.403 213.134 L622.601 211.884 L626.108 211.884 L626.108 234.853 L631.837 234.853 L631.837 237.804 L616.907 237.804 L616.907 234.853 Z" fill="#000000" fill-rule="evenodd" fill-opacity="1" /><path clip-path="url(#clip800)" d="M 0 0 M648.556 214.94 L639.702 228.776 L648.556 228.776 L648.556 214.94 M647.636 211.884 L652.045 211.884 L652.045 228.776 L655.743 228.776 L655.743 231.693 L652.045 231.693 L652.045 237.804 L648.556 237.804 L648.556 231.693 L636.854 231.693 L636.854 228.308 L647.636 211.884 Z" fill="#000000" fill-rule="evenodd" fill-opacity="1" /><path clip-path="url(#clip800)" d="M 0 0 M753.259 135.085 L758.989 135.085 L758.989 115.311 L752.756 116.561 L752.756 113.366 L758.954 112.116 L762.461 112.116 L762.461 135.085 L768.19 135.085 L768.19 138.036 L753.259 138.036 L753.259 135.085 Z" fill="#000000" fill-rule="evenodd" fill-opacity="1" /><path clip-path="url(#clip800)" d="M 0 0 M775.308 112.116 L789.075 112.116 L789.075 115.068 L778.52 115.068 L778.52 121.422 Q779.284 121.161 780.047 121.04 Q780.811 120.901 781.575 120.901 Q785.915 120.901 788.45 123.279 Q790.985 125.658 790.985 129.72 Q790.985 133.904 788.381 136.231 Q785.777 138.54 781.037 138.54 Q779.405 138.54 777.704 138.262 Q776.02 137.984 774.214 137.429 L774.214 133.904 Q775.777 134.755 777.443 135.172 Q779.11 135.588 780.968 135.588 Q783.971 135.588 785.724 134.008 Q787.478 132.429 787.478 129.72 Q787.478 127.012 785.724 125.432 Q783.971 123.852 780.968 123.852 Q779.561 123.852 778.155 124.165 Q776.766 124.477 775.308 125.137 L775.308 112.116 Z" fill="#000000" fill-rule="evenodd" fill-opacity="1" /><path clip-path="url(#clip800)" d="M 0 0 M685.083 683.809 L690.812 683.809 L690.812 664.034 L684.58 665.284 L684.58 662.09 L690.777 660.84 L694.284 660.84 L694.284 683.809 L700.013 683.809 L700.013 686.76 L685.083 686.76 L685.083 683.809 Z" fill="#000000" fill-rule="evenodd" fill-opacity="1" /><path clip-path="url(#clip800)" d="M 0 0 M715.031 672.402 Q712.67 672.402 711.281 674.017 Q709.909 675.631 709.909 678.444 Q709.909 681.239 711.281 682.871 Q712.67 684.486 715.031 684.486 Q717.392 684.486 718.763 682.871 Q720.152 681.239 720.152 678.444 Q720.152 675.631 718.763 674.017 Q717.392 672.402 715.031 672.402 M721.993 661.413 L721.993 664.607 Q720.673 663.982 719.319 663.652 Q717.982 663.323 716.663 663.323 Q713.19 663.323 711.35 665.666 Q709.527 668.01 709.267 672.75 Q710.291 671.239 711.836 670.441 Q713.381 669.625 715.239 669.625 Q719.145 669.625 721.402 672.003 Q723.677 674.364 723.677 678.444 Q723.677 682.437 721.315 684.85 Q718.954 687.263 715.031 687.263 Q710.534 687.263 708.156 683.826 Q705.777 680.371 705.777 673.826 Q705.777 667.68 708.694 664.034 Q711.611 660.371 716.524 660.371 Q717.843 660.371 719.18 660.632 Q720.534 660.892 721.993 661.413 Z" fill="#000000" fill-rule="evenodd" fill-opacity="1" /><path clip-path="url(#clip800)" d="M 0 0 M753.259 534.157 L758.989 534.157 L758.989 514.382 L752.756 515.632 L752.756 512.438 L758.954 511.188 L762.461 511.188 L762.461 534.157 L768.19 534.157 L768.19 537.108 L753.259 537.108 L753.259 534.157 Z" fill="#000000" fill-rule="evenodd" fill-opacity="1" /><path clip-path="url(#clip800)" d="M 0 0 M782.773 524.799 Q780.273 524.799 778.832 526.136 Q777.409 527.473 777.409 529.816 Q777.409 532.16 778.832 533.497 Q780.273 534.834 782.773 534.834 Q785.273 534.834 786.714 533.497 Q788.155 532.143 788.155 529.816 Q788.155 527.473 786.714 526.136 Q785.29 524.799 782.773 524.799 M779.266 523.306 Q777.009 522.75 775.742 521.205 Q774.492 519.66 774.492 517.438 Q774.492 514.33 776.697 512.525 Q778.919 510.719 782.773 510.719 Q786.645 510.719 788.849 512.525 Q791.054 514.33 791.054 517.438 Q791.054 519.66 789.787 521.205 Q788.537 522.75 786.297 523.306 Q788.832 523.896 790.238 525.615 Q791.662 527.334 791.662 529.816 Q791.662 533.584 789.353 535.598 Q787.061 537.611 782.773 537.611 Q778.485 537.611 776.176 535.598 Q773.884 533.584 773.884 529.816 Q773.884 527.334 775.308 525.615 Q776.731 523.896 779.266 523.306 M777.981 517.768 Q777.981 519.782 779.231 520.91 Q780.499 522.039 782.773 522.039 Q785.03 522.039 786.297 520.91 Q787.582 519.782 787.582 517.768 Q787.582 515.754 786.297 514.625 Q785.03 513.497 782.773 513.497 Q780.499 513.497 779.231 514.625 Q777.981 515.754 777.981 517.768 Z" fill="#000000" fill-rule="evenodd" fill-opacity="1" /><path clip-path="url(#clip800)" d="M 0 0 M480.554 135.085 L486.283 135.085 L486.283 115.311 L480.05 116.561 L480.05 113.366 L486.248 112.116 L489.755 112.116 L489.755 135.085 L495.484 135.085 L495.484 138.036 L480.554 138.036 L480.554 135.085 Z" fill="#000000" fill-rule="evenodd" fill-opacity="1" /><path clip-path="url(#clip800)" d="M 0 0 M502.672 137.498 L502.672 134.304 Q503.991 134.929 505.345 135.258 Q506.7 135.588 508.002 135.588 Q511.474 135.588 513.297 133.262 Q515.137 130.918 515.397 126.161 Q514.39 127.654 512.845 128.453 Q511.3 129.252 509.425 129.252 Q505.536 129.252 503.262 126.908 Q501.005 124.547 501.005 120.467 Q501.005 116.474 503.366 114.061 Q505.727 111.647 509.651 111.647 Q514.147 111.647 516.509 115.102 Q518.887 118.54 518.887 125.102 Q518.887 131.231 515.97 134.894 Q513.071 138.54 508.158 138.54 Q506.838 138.54 505.484 138.279 Q504.13 138.019 502.672 137.498 M509.651 126.508 Q512.012 126.508 513.384 124.894 Q514.772 123.279 514.772 120.467 Q514.772 117.672 513.384 116.057 Q512.012 114.425 509.651 114.425 Q507.29 114.425 505.901 116.057 Q504.529 117.672 504.529 120.467 Q504.529 123.279 505.901 124.894 Q507.29 126.508 509.651 126.508 Z" fill="#000000" fill-rule="evenodd" fill-opacity="1" /><path clip-path="url(#clip800)" d="M 0 0 M484.269 534.157 L496.509 534.157 L496.509 537.108 L480.05 537.108 L480.05 534.157 Q482.047 532.091 485.484 528.618 Q488.939 525.129 489.825 524.122 Q491.509 522.23 492.168 520.928 Q492.845 519.608 492.845 518.341 Q492.845 516.275 491.387 514.973 Q489.946 513.671 487.62 513.671 Q485.971 513.671 484.13 514.244 Q482.307 514.816 480.224 515.98 L480.224 512.438 Q482.342 511.587 484.182 511.153 Q486.023 510.719 487.55 510.719 Q491.578 510.719 493.974 512.733 Q496.37 514.747 496.37 518.115 Q496.37 519.712 495.762 521.153 Q495.172 522.577 493.592 524.521 Q493.158 525.025 490.832 527.438 Q488.505 529.834 484.269 534.157 Z" fill="#000000" fill-rule="evenodd" fill-opacity="1" /><path clip-path="url(#clip800)" d="M 0 0 M506.891 534.157 L519.13 534.157 L519.13 537.108 L502.672 537.108 L502.672 534.157 Q504.668 532.091 508.106 528.618 Q511.561 525.129 512.446 524.122 Q514.13 522.23 514.79 520.928 Q515.467 519.608 515.467 518.341 Q515.467 516.275 514.009 514.973 Q512.568 513.671 510.241 513.671 Q508.592 513.671 506.752 514.244 Q504.929 514.816 502.845 515.98 L502.845 512.438 Q504.963 511.587 506.804 511.153 Q508.644 510.719 510.172 510.719 Q514.2 510.719 516.595 512.733 Q518.991 514.747 518.991 518.115 Q518.991 519.712 518.384 521.153 Q517.793 522.577 516.213 524.521 Q515.779 525.025 513.453 527.438 Q511.127 529.834 506.891 534.157 Z" fill="#000000" fill-rule="evenodd" fill-opacity="1" /><path clip-path="url(#clip800)" d="M 0 0 M620.622 434.389 L632.861 434.389 L632.861 437.34 L616.403 437.34 L616.403 434.389 Q618.4 432.323 621.837 428.85 Q625.292 425.361 626.177 424.354 Q627.861 422.462 628.521 421.16 Q629.198 419.84 629.198 418.573 Q629.198 416.507 627.74 415.205 Q626.299 413.903 623.973 413.903 Q622.323 413.903 620.483 414.476 Q618.66 415.048 616.577 416.212 L616.577 412.67 Q618.695 411.819 620.535 411.385 Q622.375 410.951 623.903 410.951 Q627.931 410.951 630.327 412.965 Q632.723 414.979 632.723 418.347 Q632.723 419.944 632.115 421.385 Q631.525 422.809 629.945 424.753 Q629.511 425.257 627.184 427.67 Q624.858 430.066 620.622 434.389 Z" fill="#000000" fill-rule="evenodd" fill-opacity="1" /><path clip-path="url(#clip800)" d="M 0 0 M650.847 423.364 Q653.365 423.903 654.771 425.604 Q656.195 427.305 656.195 429.805 Q656.195 433.642 653.556 435.743 Q650.917 437.843 646.056 437.843 Q644.424 437.843 642.688 437.514 Q640.969 437.201 639.129 436.559 L639.129 433.173 Q640.587 434.024 642.323 434.458 Q644.059 434.892 645.952 434.892 Q649.25 434.892 650.969 433.59 Q652.705 432.288 652.705 429.805 Q652.705 427.514 651.09 426.229 Q649.493 424.927 646.629 424.927 L643.608 424.927 L643.608 422.045 L646.768 422.045 Q649.354 422.045 650.726 421.021 Q652.097 419.979 652.097 418.035 Q652.097 416.038 650.674 414.979 Q649.268 413.903 646.629 413.903 Q645.188 413.903 643.538 414.215 Q641.889 414.528 639.91 415.187 L639.91 412.062 Q641.906 411.507 643.643 411.229 Q645.396 410.951 646.941 410.951 Q650.934 410.951 653.261 412.774 Q655.587 414.58 655.587 417.67 Q655.587 419.823 654.354 421.316 Q653.122 422.791 650.847 423.364 Z" fill="#000000" fill-rule="evenodd" fill-opacity="1" /><path clip-path="url(#clip800)" d="M 0 0 M552.445 384.505 L564.685 384.505 L564.685 387.456 L548.227 387.456 L548.227 384.505 Q550.223 382.439 553.661 378.967 Q557.116 375.477 558.001 374.47 Q559.685 372.578 560.345 371.276 Q561.022 369.956 561.022 368.689 Q561.022 366.623 559.564 365.321 Q558.123 364.019 555.796 364.019 Q554.147 364.019 552.307 364.592 Q550.484 365.165 548.4 366.328 L548.4 362.786 Q550.518 361.935 552.359 361.501 Q554.199 361.067 555.727 361.067 Q559.754 361.067 562.15 363.081 Q564.546 365.095 564.546 368.463 Q564.546 370.06 563.938 371.501 Q563.348 372.925 561.768 374.869 Q561.334 375.373 559.008 377.786 Q556.682 380.182 552.445 384.505 Z" fill="#000000" fill-rule="evenodd" fill-opacity="1" /><path clip-path="url(#clip800)" d="M 0 0 M581.681 364.592 L572.827 378.428 L581.681 378.428 L581.681 364.592 M580.761 361.536 L585.171 361.536 L585.171 378.428 L588.869 378.428 L588.869 381.345 L585.171 381.345 L585.171 387.456 L581.681 387.456 L581.681 381.345 L569.98 381.345 L569.98 377.96 L580.761 361.536 Z" fill="#000000" fill-rule="evenodd" fill-opacity="1" /><circle clip-path="url(#clip802)" cx="684.58" cy="95.9282" r="14" fill="#0000ff" fill-rule="evenodd" fill-opacity="1" stroke="none"/>
<path clip-path="url(#clip800)" d="M 0 0 M685.083 85.2008 L690.812 85.2008 L690.812 65.4266 L684.58 66.6766 L684.58 63.4822 L690.777 62.2322 L694.284 62.2322 L694.284 85.2008 L700.013 85.2008 L700.013 88.1522 L685.083 88.1522 L685.083 85.2008 Z" fill="#000000" fill-rule="evenodd" fill-opacity="1" /><path clip-path="url(#clip800)" d="M 0 0 M715.031 73.7947 Q712.67 73.7947 711.281 75.4092 Q709.909 77.0238 709.909 79.8363 Q709.909 82.6314 711.281 84.2634 Q712.67 85.8779 715.031 85.8779 Q717.392 85.8779 718.763 84.2634 Q720.152 82.6314 720.152 79.8363 Q720.152 77.0238 718.763 75.4092 Q717.392 73.7947 715.031 73.7947 M721.993 62.8051 L721.993 65.9996 Q720.673 65.3746 719.319 65.0447 Q717.982 64.7148 716.663 64.7148 Q713.19 64.7148 711.35 67.0586 Q709.527 69.4023 709.267 74.1419 Q710.291 72.6315 711.836 71.8329 Q713.381 71.0169 715.239 71.0169 Q719.145 71.0169 721.402 73.3954 Q723.677 75.7565 723.677 79.8363 Q723.677 83.8293 721.315 86.2425 Q718.954 88.6557 715.031 88.6557 Q710.534 88.6557 708.156 85.2182 Q705.777 81.7634 705.777 75.2183 Q705.777 69.0725 708.694 65.4266 Q711.611 61.7635 716.524 61.7635 Q717.843 61.7635 719.18 62.0239 Q720.534 62.2843 721.993 62.8051 Z" fill="#000000" fill-rule="evenodd" fill-opacity="1" /></svg>
