<?xml version="1.0" encoding="utf-8"?>
<svg xmlns="http://www.w3.org/2000/svg" xmlns:xlink="http://www.w3.org/1999/xlink" width="200" height="250" viewBox="0 0 800 1000">
<defs>
  <clipPath id="clip590">
    <rect x="0" y="0" width="800" height="1000"/>
  </clipPath>
</defs>
<path clip-path="url(#clip590)" d="
M0 1000 L800 1000 L800 0 L0 0  Z
  " fill="#ffffff" fill-rule="evenodd" fill-opacity="1"/>
<defs>
  <clipPath id="clip591">
    <rect x="200" y="100" width="701" height="701"/>
  </clipPath>
</defs>
<path clip-path="url(#clip590)" d="
M70.9921 927.008 L752.756 927.008 L752.756 62.9921 L70.9921 62.9921  Z
  " fill="#ffffff" fill-rule="evenodd" fill-opacity="1"/>
<defs>
  <clipPath id="clip592">
    <rect x="70" y="62" width="683" height="865"/>
  </clipPath>
</defs>
<polyline clip-path="url(#clip590)" style="stroke:#000000; stroke-width:4; stroke-opacity:1; fill:none" points="
  70.9921,927.008 752.756,927.008 
  "/>
<polyline clip-path="url(#clip590)" style="stroke:#000000; stroke-width:4; stroke-opacity:1; fill:none" points="
  139.169,927.008 139.169,916.64 
  "/>
<polyline clip-path="url(#clip590)" style="stroke:#000000; stroke-width:4; stroke-opacity:1; fill:none" points="
  275.521,927.008 275.521,916.64 
  "/>
<polyline clip-path="url(#clip590)" style="stroke:#000000; stroke-width:4; stroke-opacity:1; fill:none" points="
  411.874,927.008 411.874,916.64 
  "/>
<polyline clip-path="url(#clip590)" style="stroke:#000000; stroke-width:4; stroke-opacity:1; fill:none" points="
  548.227,927.008 548.227,916.64 
  "/>
<polyline clip-path="url(#clip590)" style="stroke:#000000; stroke-width:4; stroke-opacity:1; fill:none" points="
  684.58,927.008 684.58,916.64 
  "/>
<path clip-path="url(#clip590)" d="M 0 0 M109.111 959.651 L138.787 959.651 L138.787 963.586 L109.111 963.586 L109.111 959.651 Z" fill="#000000" fill-rule="evenodd" fill-opacity="1" /><path clip-path="url(#clip590)" d="M 0 0 M152.907 972.545 L169.226 972.545 L169.226 976.48 L147.282 976.48 L147.282 972.545 Q149.944 969.79 154.527 965.16 Q159.134 960.508 160.314 959.165 Q162.56 956.642 163.439 954.906 Q164.342 953.147 164.342 951.457 Q164.342 948.702 162.398 946.966 Q160.476 945.23 157.374 945.23 Q155.175 945.23 152.722 945.994 Q150.291 946.758 147.513 948.309 L147.513 943.587 Q150.337 942.452 152.791 941.874 Q155.245 941.295 157.282 941.295 Q162.652 941.295 165.847 943.98 Q169.041 946.665 169.041 951.156 Q169.041 953.286 168.231 955.207 Q167.444 957.105 165.337 959.698 Q164.759 960.369 161.657 963.586 Q158.555 966.781 152.907 972.545 Z" fill="#000000" fill-rule="evenodd" fill-opacity="1" /><path clip-path="url(#clip590)" d="M 0 0 M245.278 959.651 L274.954 959.651 L274.954 963.586 L245.278 963.586 L245.278 959.651 Z" fill="#000000" fill-rule="evenodd" fill-opacity="1" /><path clip-path="url(#clip590)" d="M 0 0 M285.857 972.545 L293.496 972.545 L293.496 946.179 L285.186 947.846 L285.186 943.587 L293.449 941.92 L298.125 941.92 L298.125 972.545 L305.764 972.545 L305.764 976.48 L285.857 976.48 L285.857 972.545 Z" fill="#000000" fill-rule="evenodd" fill-opacity="1" /><path clip-path="url(#clip590)" d="M 0 0 M411.874 944.999 Q408.263 944.999 406.434 948.563 Q404.629 952.105 404.629 959.235 Q404.629 966.341 406.434 969.906 Q408.263 973.447 411.874 973.447 Q415.508 973.447 417.314 969.906 Q419.142 966.341 419.142 959.235 Q419.142 952.105 417.314 948.563 Q415.508 944.999 411.874 944.999 M411.874 941.295 Q417.684 941.295 420.74 945.901 Q423.818 950.485 423.818 959.235 Q423.818 967.961 420.74 972.568 Q417.684 977.151 411.874 977.151 Q406.064 977.151 402.985 972.568 Q399.93 967.961 399.93 959.235 Q399.93 950.485 402.985 945.901 Q406.064 941.295 411.874 941.295 Z" fill="#000000" fill-rule="evenodd" fill-opacity="1" /><path clip-path="url(#clip590)" d="M 0 0 M538.609 972.545 L546.248 972.545 L546.248 946.179 L537.937 947.846 L537.937 943.587 L546.201 941.92 L550.877 941.92 L550.877 972.545 L558.516 972.545 L558.516 976.48 L538.609 976.48 L538.609 972.545 Z" fill="#000000" fill-rule="evenodd" fill-opacity="1" /><path clip-path="url(#clip590)" d="M 0 0 M679.232 972.545 L695.552 972.545 L695.552 976.48 L673.607 976.48 L673.607 972.545 Q676.269 969.79 680.853 965.16 Q685.459 960.508 686.64 959.165 Q688.885 956.642 689.765 954.906 Q690.667 953.147 690.667 951.457 Q690.667 948.702 688.723 946.966 Q686.802 945.23 683.7 945.23 Q681.501 945.23 679.047 945.994 Q676.617 946.758 673.839 948.309 L673.839 943.587 Q676.663 942.452 679.117 941.874 Q681.57 941.295 683.607 941.295 Q688.978 941.295 692.172 943.98 Q695.367 946.665 695.367 951.156 Q695.367 953.286 694.556 955.207 Q693.769 957.105 691.663 959.698 Q691.084 960.369 687.982 963.586 Q684.88 966.781 679.232 972.545 Z" fill="#000000" fill-rule="evenodd" fill-opacity="1" /><polyline clip-path="url(#clip590)" style="stroke:#000000; stroke-width:4; stroke-opacity:1; fill:none" points="
  70.9921,927.008 70.9921,62.9921 
  "/>
<polyline clip-path="url(#clip590)" style="stroke:#000000; stroke-width:4; stroke-opacity:1; fill:none" points="
  70.9921,840.606 79.1733,840.606 
  "/>
<polyline clip-path="url(#clip590)" style="stroke:#000000; stroke-width:4; stroke-opacity:1; fill:none" points="
  70.9921,667.803 79.1733,667.803 
  "/>
<polyline clip-path="url(#clip590)" style="stroke:#000000; stroke-width:4; stroke-opacity:1; fill:none" points="
  70.9921,495 79.1733,495 
  "/>
<polyline clip-path="url(#clip590)" style="stroke:#000000; stroke-width:4; stroke-opacity:1; fill:none" points="
  70.9921,322.197 79.1733,322.197 
  "/>
<polyline clip-path="url(#clip590)" style="stroke:#000000; stroke-width:4; stroke-opacity:1; fill:none" points="
  70.9921,149.394 79.1733,149.394 
  "/>
<path clip-path="url(#clip590)" d="M 0 0 M-4.12329 841.058 L25.5525 841.058 L25.5525 844.993 L-4.12329 844.993 L-4.12329 841.058 Z" fill="#000000" fill-rule="evenodd" fill-opacity="1" /><path clip-path="url(#clip590)" d="M 0 0 M39.6728 853.951 L55.9921 853.951 L55.9921 857.886 L34.0478 857.886 L34.0478 853.951 Q36.7098 851.197 41.2931 846.567 Q45.8996 841.914 47.0801 840.572 Q49.3255 838.048 50.2051 836.312 Q51.1079 834.553 51.1079 832.863 Q51.1079 830.109 49.1635 828.373 Q47.2422 826.636 44.1403 826.636 Q41.9413 826.636 39.4876 827.4 Q37.057 828.164 34.2793 829.715 L34.2793 824.993 Q37.1033 823.859 39.557 823.28 Q42.0107 822.701 44.0477 822.701 Q49.4181 822.701 52.6125 825.386 Q55.8069 828.072 55.8069 832.562 Q55.8069 834.692 54.9968 836.613 Q54.2097 838.511 52.1033 841.104 Q51.5246 841.775 48.4227 844.993 Q45.3209 848.187 39.6728 853.951 Z" fill="#000000" fill-rule="evenodd" fill-opacity="1" /><path clip-path="url(#clip590)" d="M 0 0 M-4.49366 668.255 L25.1821 668.255 L25.1821 672.19 L-4.49366 672.19 L-4.49366 668.255 Z" fill="#000000" fill-rule="evenodd" fill-opacity="1" /><path clip-path="url(#clip590)" d="M 0 0 M36.0848 681.148 L43.7237 681.148 L43.7237 654.782 L35.4135 656.449 L35.4135 652.19 L43.6774 650.523 L48.3533 650.523 L48.3533 681.148 L55.9921 681.148 L55.9921 685.083 L36.0848 685.083 L36.0848 681.148 Z" fill="#000000" fill-rule="evenodd" fill-opacity="1" /><path clip-path="url(#clip590)" d="M 0 0 M44.0477 480.799 Q40.4367 480.799 38.608 484.363 Q36.8024 487.905 36.8024 495.035 Q36.8024 502.141 38.608 505.706 Q40.4367 509.248 44.0477 509.248 Q47.682 509.248 49.4875 505.706 Q51.3162 502.141 51.3162 495.035 Q51.3162 487.905 49.4875 484.363 Q47.682 480.799 44.0477 480.799 M44.0477 477.095 Q49.8579 477.095 52.9134 481.701 Q55.9921 486.285 55.9921 495.035 Q55.9921 503.762 52.9134 508.368 Q49.8579 512.951 44.0477 512.951 Q38.2376 512.951 35.1589 508.368 Q32.1034 503.762 32.1034 495.035 Q32.1034 486.285 35.1589 481.701 Q38.2376 477.095 44.0477 477.095 Z" fill="#000000" fill-rule="evenodd" fill-opacity="1" /><path clip-path="url(#clip590)" d="M 0 0 M36.0848 335.542 L43.7237 335.542 L43.7237 309.176 L35.4135 310.843 L35.4135 306.584 L43.6774 304.917 L48.3533 304.917 L48.3533 335.542 L55.9921 335.542 L55.9921 339.477 L36.0848 339.477 L36.0848 335.542 Z" fill="#000000" fill-rule="evenodd" fill-opacity="1" /><path clip-path="url(#clip590)" d="M 0 0 M39.6728 162.739 L55.9921 162.739 L55.9921 166.674 L34.0478 166.674 L34.0478 162.739 Q36.7098 159.984 41.2931 155.354 Q45.8996 150.702 47.0801 149.359 Q49.3255 146.836 50.2051 145.1 Q51.1079 143.34 51.1079 141.651 Q51.1079 138.896 49.1635 137.16 Q47.2422 135.424 44.1403 135.424 Q41.9413 135.424 39.4876 136.188 Q37.057 136.952 34.2793 138.503 L34.2793 133.78 Q37.1033 132.646 39.557 132.067 Q42.0107 131.489 44.0477 131.489 Q49.4181 131.489 52.6125 134.174 Q55.8069 136.859 55.8069 141.35 Q55.8069 143.479 54.9968 145.401 Q54.2097 147.299 52.1033 149.891 Q51.5246 150.563 48.4227 153.78 Q45.3209 156.975 39.6728 162.739 Z" fill="#000000" fill-rule="evenodd" fill-opacity="1" /><path clip-path="url(#clip590)" d="M 0 0 M332.661 22.8378 Q336.018 23.5554 337.893 25.8239 Q339.791 28.0924 339.791 31.4258 Q339.791 36.5415 336.273 39.3424 Q332.754 42.1433 326.273 42.1433 Q324.097 42.1433 321.782 41.7035 Q319.49 41.2868 317.037 40.4303 L317.037 35.9165 Q318.981 37.0507 321.296 37.6294 Q323.611 38.2081 326.134 38.2081 Q330.532 38.2081 332.824 36.472 Q335.138 34.7359 335.138 31.4258 Q335.138 28.3702 332.986 26.6573 Q330.856 24.9212 327.037 24.9212 L323.009 24.9212 L323.009 21.0786 L327.222 21.0786 Q330.671 21.0786 332.499 19.7129 Q334.328 18.324 334.328 15.7314 Q334.328 13.0694 332.43 11.6573 Q330.555 10.2222 327.037 10.2222 Q325.115 10.2222 322.916 10.6388 Q320.717 11.0555 318.078 11.9351 L318.078 7.76848 Q320.74 7.02774 323.055 6.65737 Q325.393 6.287 327.453 6.287 Q332.777 6.287 335.879 8.71755 Q338.981 11.1249 338.981 15.2453 Q338.981 18.1156 337.337 20.1064 Q335.694 22.074 332.661 22.8378 Z" fill="#000000" fill-rule="evenodd" fill-opacity="1" /><path clip-path="url(#clip590)" d="M 0 0 M365.393 11.7499 L365.393 24.6434 L378.286 24.6434 L378.286 28.5786 L365.393 28.5786 L365.393 41.472 L361.504 41.472 L361.504 28.5786 L348.61 28.5786 L348.61 24.6434 L361.504 24.6434 L361.504 11.7499 L365.393 11.7499 Z" fill="#000000" fill-rule="evenodd" fill-opacity="1" /><path clip-path="url(#clip590)" d="M 0 0 M387.383 5.45367 L397.198 5.45367 L397.198 8.76384 L391.643 8.76384 L391.643 44.4118 L397.198 44.4118 L397.198 47.722 L387.383 47.722 L387.383 5.45367 Z" fill="#000000" fill-rule="evenodd" fill-opacity="1" /><path clip-path="url(#clip590)" d="M 0 0 M416.874 9.99069 Q413.263 9.99069 411.434 13.5555 Q409.629 17.0971 409.629 24.2267 Q409.629 31.3332 411.434 34.898 Q413.263 38.4396 416.874 38.4396 Q420.508 38.4396 422.314 34.898 Q424.142 31.3332 424.142 24.2267 Q424.142 17.0971 422.314 13.5555 Q420.508 9.99069 416.874 9.99069 M416.874 6.287 Q422.684 6.287 425.74 10.8935 Q428.818 15.4768 428.818 24.2267 Q428.818 32.9535 425.74 37.56 Q422.684 42.1433 416.874 42.1433 Q411.064 42.1433 407.985 37.56 Q404.93 32.9535 404.93 24.2267 Q404.93 15.4768 407.985 10.8935 Q411.064 6.287 416.874 6.287 Z" fill="#000000" fill-rule="evenodd" fill-opacity="1" /><path clip-path="url(#clip590)" d="M 0 0 M447.036 9.99069 Q443.425 9.99069 441.596 13.5555 Q439.791 17.0971 439.791 24.2267 Q439.791 31.3332 441.596 34.898 Q443.425 38.4396 447.036 38.4396 Q450.67 38.4396 452.476 34.898 Q454.304 31.3332 454.304 24.2267 Q454.304 17.0971 452.476 13.5555 Q450.67 9.99069 447.036 9.99069 M447.036 6.287 Q452.846 6.287 455.902 10.8935 Q458.98 15.4768 458.98 24.2267 Q458.98 32.9535 455.902 37.56 Q452.846 42.1433 447.036 42.1433 Q441.226 42.1433 438.147 37.56 Q435.091 32.9535 435.091 24.2267 Q435.091 15.4768 438.147 10.8935 Q441.226 6.287 447.036 6.287 Z" fill="#000000" fill-rule="evenodd" fill-opacity="1" /><path clip-path="url(#clip590)" d="M 0 0 M468.008 37.5368 L475.647 37.5368 L475.647 11.1712 L467.337 12.8379 L467.337 8.57866 L475.601 6.912 L480.276 6.912 L480.276 37.5368 L487.915 37.5368 L487.915 41.472 L468.008 41.472 L468.008 37.5368 Z" fill="#000000" fill-rule="evenodd" fill-opacity="1" /><path clip-path="url(#clip590)" d="M 0 0 M506.711 5.45367 L506.711 47.722 L496.897 47.722 L496.897 44.4118 L502.429 44.4118 L502.429 8.76384 L496.897 8.76384 L496.897 5.45367 L506.711 5.45367 Z" fill="#000000" fill-rule="evenodd" fill-opacity="1" /><circle clip-path="url(#clip592)" cx="139.169" cy="894.072" r="14" fill="#0000ff" fill-rule="evenodd" fill-opacity="1" stroke="none"/>
<path clip-path="url(#clip590)" d="M 0 0 M139.672 883.344 L145.401 883.344 L145.401 863.57 L139.169 864.82 L139.169 861.626 L145.366 860.376 L148.873 860.376 L148.873 883.344 L154.602 883.344 L154.602 886.296 L139.672 886.296 L139.672 883.344 Z" fill="#000000" fill-rule="evenodd" fill-opacity="1" /><path clip-path="url(#clip590)" d="M 0 0 M172.311 872.32 Q174.828 872.858 176.234 874.56 Q177.658 876.261 177.658 878.761 Q177.658 882.598 175.019 884.699 Q172.38 886.799 167.519 886.799 Q165.887 886.799 164.151 886.469 Q162.432 886.157 160.592 885.515 L160.592 882.129 Q162.05 882.98 163.786 883.414 Q165.523 883.848 167.415 883.848 Q170.713 883.848 172.432 882.546 Q174.168 881.244 174.168 878.761 Q174.168 876.469 172.554 875.185 Q170.957 873.883 168.092 873.883 L165.071 873.883 L165.071 871.001 L168.231 871.001 Q170.818 871.001 172.189 869.976 Q173.561 868.935 173.561 866.99 Q173.561 864.994 172.137 863.935 Q170.731 862.858 168.092 862.858 Q166.651 862.858 165.002 863.171 Q163.352 863.483 161.373 864.143 L161.373 861.018 Q163.37 860.463 165.106 860.185 Q166.859 859.907 168.404 859.907 Q172.397 859.907 174.724 861.73 Q177.05 863.535 177.05 866.626 Q177.05 868.779 175.818 870.272 Q174.585 871.747 172.311 872.32 Z" fill="#000000" fill-rule="evenodd" fill-opacity="1" /><circle clip-path="url(#clip592)" cx="343.698" cy="445.116" r="14" fill="#0000ff" fill-rule="evenodd" fill-opacity="1" stroke="none"/>
<circle clip-path="url(#clip592)" cx="275.521" cy="894.072" r="14" fill="#0000ff" fill-rule="evenodd" fill-opacity="1" stroke="none"/>
<circle clip-path="url(#clip592)" cx="343.698" cy="844.188" r="14" fill="#0000ff" fill-rule="evenodd" fill-opacity="1" stroke="none"/>
<circle clip-path="url(#clip592)" cx="207.345" cy="744.42" r="14" fill="#0000ff" fill-rule="evenodd" fill-opacity="1" stroke="none"/>
<circle clip-path="url(#clip592)" cx="275.521" cy="694.536" r="14" fill="#0000ff" fill-rule="evenodd" fill-opacity="1" stroke="none"/>
<circle clip-path="url(#clip592)" cx="139.169" cy="594.768" r="14" fill="#0000ff" fill-rule="evenodd" fill-opacity="1" stroke="none"/>
<circle clip-path="url(#clip592)" cx="207.345" cy="544.884" r="14" fill="#0000ff" fill-rule="evenodd" fill-opacity="1" stroke="none"/>
<circle clip-path="url(#clip592)" cx="70.9921" cy="445.116" r="14" fill="#0000ff" fill-rule="evenodd" fill-opacity="1" stroke="none"/>
<circle clip-path="url(#clip592)" cx="139.169" cy="395.232" r="14" fill="#0000ff" fill-rule="evenodd" fill-opacity="1" stroke="none"/>
<circle clip-path="url(#clip592)" cx="411.874" cy="594.768" r="14" fill="#0000ff" fill-rule="evenodd" fill-opacity="1" stroke="none"/>
<circle clip-path="url(#clip592)" cx="70.9921" cy="844.188" r="14" fill="#0000ff" fill-rule="evenodd" fill-opacity="1" stroke="none"/>
<circle clip-path="url(#clip592)" cx="139.169" cy="295.464" r="14" fill="#0000ff" fill-rule="evenodd" fill-opacity="1" stroke="none"/>
<circle clip-path="url(#clip592)" cx="207.345" cy="844.188" r="14" fill="#0000ff" fill-rule="evenodd" fill-opacity="1" stroke="none"/>
<circle clip-path="url(#clip592)" cx="70.9921" cy="744.42" r="14" fill="#0000ff" fill-rule="evenodd" fill-opacity="1" stroke="none"/>
<circle clip-path="url(#clip592)" cx="139.169" cy="694.536" r="14" fill="#0000ff" fill-rule="evenodd" fill-opacity="1" stroke="none"/>
<circle clip-path="url(#clip592)" cx="411.874" cy="894.072" r="14" fill="#0000ff" fill-rule="evenodd" fill-opacity="1" stroke="none"/>
<circle clip-path="url(#clip592)" cx="70.9921" cy="544.884" r="14" fill="#0000ff" fill-rule="evenodd" fill-opacity="1" stroke="none"/>
<circle clip-path="url(#clip592)" cx="343.698" cy="744.42" r="14" fill="#0000ff" fill-rule="evenodd" fill-opacity="1" stroke="none"/>
<circle clip-path="url(#clip592)" cx="411.874" cy="694.536" r="14" fill="#0000ff" fill-rule="evenodd" fill-opacity="1" stroke="none"/>
<circle clip-path="url(#clip592)" cx="275.521" cy="594.768" r="14" fill="#0000ff" fill-rule="evenodd" fill-opacity="1" stroke="none"/>
<circle clip-path="url(#clip592)" cx="343.698" cy="544.884" r="14" fill="#0000ff" fill-rule="evenodd" fill-opacity="1" stroke="none"/>
<circle clip-path="url(#clip592)" cx="207.345" cy="445.116" r="14" fill="#0000ff" fill-rule="evenodd" fill-opacity="1" stroke="none"/>
<path clip-path="url(#clip590)" d="M 0 0 M344.201 434.389 L349.93 434.389 L349.93 414.614 L343.698 415.864 L343.698 412.67 L349.896 411.42 L353.402 411.42 L353.402 434.389 L359.132 434.389 L359.132 437.34 L344.201 437.34 L344.201 434.389 Z" fill="#000000" fill-rule="evenodd" fill-opacity="1" /><path clip-path="url(#clip590)" d="M 0 0 M287.24 872.32 Q289.757 872.858 291.164 874.56 Q292.587 876.261 292.587 878.761 Q292.587 882.598 289.948 884.699 Q287.309 886.799 282.448 886.799 Q280.816 886.799 279.08 886.469 Q277.362 886.157 275.521 885.515 L275.521 882.129 Q276.98 882.98 278.716 883.414 Q280.452 883.848 282.344 883.848 Q285.643 883.848 287.361 882.546 Q289.098 881.244 289.098 878.761 Q289.098 876.469 287.483 875.185 Q285.886 873.883 283.021 873.883 L280 873.883 L280 871.001 L283.16 871.001 Q285.747 871.001 287.118 869.976 Q288.49 868.935 288.49 866.99 Q288.49 864.994 287.066 863.935 Q285.66 862.858 283.021 862.858 Q281.58 862.858 279.931 863.171 Q278.282 863.483 276.303 864.143 L276.303 861.018 Q278.299 860.463 280.035 860.185 Q281.789 859.907 283.334 859.907 Q287.327 859.907 289.653 861.73 Q291.98 863.535 291.98 866.626 Q291.98 868.779 290.747 870.272 Q289.514 871.747 287.24 872.32 Z" fill="#000000" fill-rule="evenodd" fill-opacity="1" /><path clip-path="url(#clip590)" d="M 0 0 M355.399 813.547 L346.545 827.384 L355.399 827.384 L355.399 813.547 M354.479 810.492 L358.889 810.492 L358.889 827.384 L362.586 827.384 L362.586 830.301 L358.889 830.301 L358.889 836.412 L355.399 836.412 L355.399 830.301 L343.698 830.301 L343.698 826.915 L354.479 810.492 Z" fill="#000000" fill-rule="evenodd" fill-opacity="1" /><path clip-path="url(#clip590)" d="M 0 0 M208.439 710.724 L222.206 710.724 L222.206 713.675 L211.65 713.675 L211.65 720.029 Q212.414 719.769 213.178 719.647 Q213.942 719.509 214.706 719.509 Q219.046 719.509 221.581 721.887 Q224.116 724.265 224.116 728.328 Q224.116 732.512 221.511 734.838 Q218.907 737.147 214.168 737.147 Q212.536 737.147 210.834 736.87 Q209.15 736.592 207.345 736.036 L207.345 732.512 Q208.907 733.363 210.574 733.779 Q212.241 734.196 214.098 734.196 Q217.102 734.196 218.855 732.616 Q220.609 731.036 220.609 728.328 Q220.609 725.62 218.855 724.04 Q217.102 722.46 214.098 722.46 Q212.692 722.46 211.286 722.772 Q209.897 723.085 208.439 723.745 L208.439 710.724 Z" fill="#000000" fill-rule="evenodd" fill-opacity="1" /><path clip-path="url(#clip590)" d="M 0 0 M284.775 672.402 Q282.414 672.402 281.025 674.017 Q279.653 675.631 279.653 678.444 Q279.653 681.239 281.025 682.871 Q282.414 684.486 284.775 684.486 Q287.136 684.486 288.507 682.871 Q289.896 681.239 289.896 678.444 Q289.896 675.631 288.507 674.017 Q287.136 672.402 284.775 672.402 M291.736 661.413 L291.736 664.607 Q290.417 663.982 289.063 663.652 Q287.726 663.323 286.407 663.323 Q282.934 663.323 281.094 665.666 Q279.271 668.01 279.011 672.75 Q280.035 671.239 281.58 670.441 Q283.125 669.625 284.983 669.625 Q288.889 669.625 291.146 672.003 Q293.42 674.364 293.42 678.444 Q293.42 682.437 291.059 684.85 Q288.698 687.263 284.775 687.263 Q280.278 687.263 277.9 683.826 Q275.521 680.371 275.521 673.826 Q275.521 667.68 278.438 664.034 Q281.355 660.371 286.268 660.371 Q287.587 660.371 288.924 660.632 Q290.278 660.892 291.736 661.413 Z" fill="#000000" fill-rule="evenodd" fill-opacity="1" /><path clip-path="url(#clip590)" d="M 0 0 M139.169 561.072 L155.835 561.072 L155.835 562.565 L146.425 586.992 L142.762 586.992 L151.616 564.023 L139.169 564.023 L139.169 561.072 Z" fill="#000000" fill-rule="evenodd" fill-opacity="1" /><path clip-path="url(#clip590)" d="M 0 0 M216.234 524.799 Q213.734 524.799 212.293 526.136 Q210.869 527.473 210.869 529.816 Q210.869 532.16 212.293 533.497 Q213.734 534.834 216.234 534.834 Q218.734 534.834 220.175 533.497 Q221.616 532.143 221.616 529.816 Q221.616 527.473 220.175 526.136 Q218.751 524.799 216.234 524.799 M212.727 523.306 Q210.47 522.75 209.203 521.205 Q207.953 519.66 207.953 517.438 Q207.953 514.33 210.157 512.525 Q212.38 510.719 216.234 510.719 Q220.105 510.719 222.31 512.525 Q224.515 514.33 224.515 517.438 Q224.515 519.66 223.248 521.205 Q221.998 522.75 219.758 523.306 Q222.293 523.896 223.699 525.615 Q225.123 527.334 225.123 529.816 Q225.123 533.584 222.814 535.598 Q220.522 537.611 216.234 537.611 Q211.946 537.611 209.637 535.598 Q207.345 533.584 207.345 529.816 Q207.345 527.334 208.768 525.615 Q210.192 523.896 212.727 523.306 M211.442 517.768 Q211.442 519.782 212.692 520.91 Q213.959 522.039 216.234 522.039 Q218.491 522.039 219.758 520.91 Q221.043 519.782 221.043 517.768 Q221.043 515.754 219.758 514.625 Q218.491 513.497 216.234 513.497 Q213.959 513.497 212.692 514.625 Q211.442 515.754 211.442 517.768 Z" fill="#000000" fill-rule="evenodd" fill-opacity="1" /><path clip-path="url(#clip590)" d="M 0 0 M72.6588 436.802 L72.6588 433.607 Q73.9782 434.232 75.3324 434.562 Q76.6865 434.892 77.9886 434.892 Q81.4608 434.892 83.2837 432.566 Q85.124 430.222 85.3844 425.465 Q84.3775 426.958 82.8323 427.757 Q81.2872 428.555 79.4122 428.555 Q75.5234 428.555 73.2491 426.212 Q70.9921 423.851 70.9921 419.771 Q70.9921 415.778 73.3532 413.364 Q75.7143 410.951 79.6379 410.951 Q84.1344 410.951 86.4955 414.406 Q88.874 417.844 88.874 424.406 Q88.874 430.535 85.9573 434.198 Q83.058 437.843 78.1449 437.843 Q76.8254 437.843 75.4713 437.583 Q74.1171 437.323 72.6588 436.802 M79.6379 425.812 Q81.999 425.812 83.3705 424.198 Q84.7594 422.583 84.7594 419.771 Q84.7594 416.976 83.3705 415.361 Q81.999 413.729 79.6379 413.729 Q77.2768 413.729 75.8879 415.361 Q74.5164 416.976 74.5164 419.771 Q74.5164 422.583 75.8879 424.198 Q77.2768 425.812 79.6379 425.812 Z" fill="#000000" fill-rule="evenodd" fill-opacity="1" /><path clip-path="url(#clip590)" d="M 0 0 M139.672 384.505 L145.401 384.505 L145.401 364.73 L139.169 365.98 L139.169 362.786 L145.366 361.536 L148.873 361.536 L148.873 384.505 L154.602 384.505 L154.602 387.456 L139.672 387.456 L139.672 384.505 Z" fill="#000000" fill-rule="evenodd" fill-opacity="1" /><path clip-path="url(#clip590)" d="M 0 0 M169.186 363.845 Q166.477 363.845 165.106 366.519 Q163.752 369.175 163.752 374.522 Q163.752 379.852 165.106 382.526 Q166.477 385.182 169.186 385.182 Q171.911 385.182 173.266 382.526 Q174.637 379.852 174.637 374.522 Q174.637 369.175 173.266 366.519 Q171.911 363.845 169.186 363.845 M169.186 361.067 Q173.543 361.067 175.835 364.522 Q178.144 367.96 178.144 374.522 Q178.144 381.067 175.835 384.522 Q173.543 387.96 169.186 387.96 Q164.828 387.96 162.519 384.522 Q160.227 381.067 160.227 374.522 Q160.227 367.96 162.519 364.522 Q164.828 361.067 169.186 361.067 Z" fill="#000000" fill-rule="evenodd" fill-opacity="1" /><path clip-path="url(#clip590)" d="M 0 0 M412.377 584.041 L418.107 584.041 L418.107 564.266 L411.874 565.516 L411.874 562.322 L418.072 561.072 L421.579 561.072 L421.579 584.041 L427.308 584.041 L427.308 586.992 L412.377 586.992 L412.377 584.041 Z" fill="#000000" fill-rule="evenodd" fill-opacity="1" /><path clip-path="url(#clip590)" d="M 0 0 M434.999 584.041 L440.728 584.041 L440.728 564.266 L434.495 565.516 L434.495 562.322 L440.693 561.072 L444.2 561.072 L444.2 584.041 L449.929 584.041 L449.929 586.992 L434.999 586.992 L434.999 584.041 Z" fill="#000000" fill-rule="evenodd" fill-opacity="1" /><path clip-path="url(#clip590)" d="M 0 0 M71.4956 833.46 L77.2247 833.46 L77.2247 813.686 L70.9921 814.936 L70.9921 811.742 L77.19 810.492 L80.6969 810.492 L80.6969 833.46 L86.4261 833.46 L86.4261 836.412 L71.4956 836.412 L71.4956 833.46 Z" fill="#000000" fill-rule="evenodd" fill-opacity="1" /><path clip-path="url(#clip590)" d="M 0 0 M96.5302 833.46 L108.77 833.46 L108.77 836.412 L92.3115 836.412 L92.3115 833.46 Q94.308 831.394 97.7455 827.922 Q101.2 824.433 102.086 823.426 Q103.77 821.533 104.429 820.231 Q105.107 818.912 105.107 817.645 Q105.107 815.579 103.648 814.277 Q102.207 812.974 99.8809 812.974 Q98.2316 812.974 96.3913 813.547 Q94.5684 814.12 92.4851 815.283 L92.4851 811.742 Q94.6031 810.891 96.4434 810.457 Q98.2836 810.023 99.8114 810.023 Q103.839 810.023 106.235 812.037 Q108.631 814.051 108.631 817.419 Q108.631 819.016 108.023 820.457 Q107.433 821.881 105.853 823.825 Q105.419 824.329 103.093 826.742 Q100.766 829.138 96.5302 833.46 Z" fill="#000000" fill-rule="evenodd" fill-opacity="1" /><path clip-path="url(#clip590)" d="M 0 0 M139.672 284.737 L145.401 284.737 L145.401 264.963 L139.169 266.213 L139.169 263.018 L145.366 261.768 L148.873 261.768 L148.873 284.737 L154.602 284.737 L154.602 287.688 L139.672 287.688 L139.672 284.737 Z" fill="#000000" fill-rule="evenodd" fill-opacity="1" /><path clip-path="url(#clip590)" d="M 0 0 M172.311 273.712 Q174.828 274.251 176.234 275.952 Q177.658 277.653 177.658 280.153 Q177.658 283.99 175.019 286.091 Q172.38 288.192 167.519 288.192 Q165.887 288.192 164.151 287.862 Q162.432 287.549 160.592 286.907 L160.592 283.521 Q162.05 284.372 163.786 284.806 Q165.523 285.24 167.415 285.24 Q170.713 285.24 172.432 283.938 Q174.168 282.636 174.168 280.153 Q174.168 277.862 172.554 276.577 Q170.957 275.275 168.092 275.275 L165.071 275.275 L165.071 272.393 L168.231 272.393 Q170.818 272.393 172.189 271.369 Q173.561 270.327 173.561 268.383 Q173.561 266.386 172.137 265.327 Q170.731 264.251 168.092 264.251 Q166.651 264.251 165.002 264.563 Q163.352 264.876 161.373 265.535 L161.373 262.41 Q163.37 261.855 165.106 261.577 Q166.859 261.299 168.404 261.299 Q172.397 261.299 174.724 263.122 Q177.05 264.928 177.05 268.018 Q177.05 270.171 175.818 271.664 Q174.585 273.14 172.311 273.712 Z" fill="#000000" fill-rule="evenodd" fill-opacity="1" /><path clip-path="url(#clip590)" d="M 0 0 M207.848 833.46 L213.577 833.46 L213.577 813.686 L207.345 814.936 L207.345 811.742 L213.543 810.492 L217.05 810.492 L217.05 833.46 L222.779 833.46 L222.779 836.412 L207.848 836.412 L207.848 833.46 Z" fill="#000000" fill-rule="evenodd" fill-opacity="1" /><path clip-path="url(#clip590)" d="M 0 0 M239.497 813.547 L230.643 827.384 L239.497 827.384 L239.497 813.547 M238.577 810.492 L242.987 810.492 L242.987 827.384 L246.685 827.384 L246.685 830.301 L242.987 830.301 L242.987 836.412 L239.497 836.412 L239.497 830.301 L227.796 830.301 L227.796 826.915 L238.577 810.492 Z" fill="#000000" fill-rule="evenodd" fill-opacity="1" /><path clip-path="url(#clip590)" d="M 0 0 M71.4956 733.692 L77.2247 733.692 L77.2247 713.918 L70.9921 715.168 L70.9921 711.974 L77.19 710.724 L80.6969 710.724 L80.6969 733.692 L86.4261 733.692 L86.4261 736.644 L71.4956 736.644 L71.4956 733.692 Z" fill="#000000" fill-rule="evenodd" fill-opacity="1" /><path clip-path="url(#clip590)" d="M 0 0 M93.5441 710.724 L107.311 710.724 L107.311 713.675 L96.7559 713.675 L96.7559 720.029 Q97.5198 719.769 98.2836 719.647 Q99.0475 719.509 99.8114 719.509 Q104.152 719.509 106.686 721.887 Q109.221 724.265 109.221 728.328 Q109.221 732.512 106.617 734.838 Q104.013 737.147 99.2732 737.147 Q97.6413 737.147 95.9399 736.87 Q94.2559 736.592 92.4503 736.036 L92.4503 732.512 Q94.0128 733.363 95.6795 733.779 Q97.3462 734.196 99.2038 734.196 Q102.207 734.196 103.961 732.616 Q105.714 731.036 105.714 728.328 Q105.714 725.62 103.961 724.04 Q102.207 722.46 99.2038 722.46 Q97.7975 722.46 96.3913 722.772 Q95.0024 723.085 93.5441 723.745 L93.5441 710.724 Z" fill="#000000" fill-rule="evenodd" fill-opacity="1" /><path clip-path="url(#clip590)" d="M 0 0 M139.672 683.809 L145.401 683.809 L145.401 664.034 L139.169 665.284 L139.169 662.09 L145.366 660.84 L148.873 660.84 L148.873 683.809 L154.602 683.809 L154.602 686.76 L139.672 686.76 L139.672 683.809 Z" fill="#000000" fill-rule="evenodd" fill-opacity="1" /><path clip-path="url(#clip590)" d="M 0 0 M169.62 672.402 Q167.259 672.402 165.87 674.017 Q164.498 675.631 164.498 678.444 Q164.498 681.239 165.87 682.871 Q167.259 684.486 169.62 684.486 Q171.981 684.486 173.352 682.871 Q174.741 681.239 174.741 678.444 Q174.741 675.631 173.352 674.017 Q171.981 672.402 169.62 672.402 M176.581 661.413 L176.581 664.607 Q175.262 663.982 173.908 663.652 Q172.571 663.323 171.252 663.323 Q167.779 663.323 165.939 665.666 Q164.116 668.01 163.856 672.75 Q164.88 671.239 166.425 670.441 Q167.97 669.625 169.828 669.625 Q173.734 669.625 175.991 672.003 Q178.266 674.364 178.266 678.444 Q178.266 682.437 175.904 684.85 Q173.543 687.263 169.62 687.263 Q165.123 687.263 162.745 683.826 Q160.366 680.371 160.366 673.826 Q160.366 667.68 163.283 664.034 Q166.2 660.371 171.113 660.371 Q172.432 660.371 173.769 660.632 Q175.123 660.892 176.581 661.413 Z" fill="#000000" fill-rule="evenodd" fill-opacity="1" /><path clip-path="url(#clip590)" d="M 0 0 M412.377 883.344 L418.107 883.344 L418.107 863.57 L411.874 864.82 L411.874 861.626 L418.072 860.376 L421.579 860.376 L421.579 883.344 L427.308 883.344 L427.308 886.296 L412.377 886.296 L412.377 883.344 Z" fill="#000000" fill-rule="evenodd" fill-opacity="1" /><path clip-path="url(#clip590)" d="M 0 0 M433.506 860.376 L450.172 860.376 L450.172 861.869 L440.763 886.296 L437.1 886.296 L445.954 863.327 L433.506 863.327 L433.506 860.376 Z" fill="#000000" fill-rule="evenodd" fill-opacity="1" /><path clip-path="url(#clip590)" d="M 0 0 M71.4956 534.157 L77.2247 534.157 L77.2247 514.382 L70.9921 515.632 L70.9921 512.438 L77.19 511.188 L80.6969 511.188 L80.6969 534.157 L86.4261 534.157 L86.4261 537.108 L71.4956 537.108 L71.4956 534.157 Z" fill="#000000" fill-rule="evenodd" fill-opacity="1" /><path clip-path="url(#clip590)" d="M 0 0 M101.009 524.799 Q98.5093 524.799 97.0684 526.136 Q95.6448 527.473 95.6448 529.816 Q95.6448 532.16 97.0684 533.497 Q98.5093 534.834 101.009 534.834 Q103.509 534.834 104.95 533.497 Q106.391 532.143 106.391 529.816 Q106.391 527.473 104.95 526.136 Q103.527 524.799 101.009 524.799 M97.5024 523.306 Q95.2455 522.75 93.9781 521.205 Q92.7281 519.66 92.7281 517.438 Q92.7281 514.33 94.933 512.525 Q97.1552 510.719 101.009 510.719 Q104.881 510.719 107.086 512.525 Q109.291 514.33 109.291 517.438 Q109.291 519.66 108.023 521.205 Q106.773 522.75 104.534 523.306 Q107.068 523.896 108.475 525.615 Q109.898 527.334 109.898 529.816 Q109.898 533.584 107.589 535.598 Q105.297 537.611 101.009 537.611 Q96.7212 537.611 94.4121 535.598 Q92.1205 533.584 92.1205 529.816 Q92.1205 527.334 93.5441 525.615 Q94.9677 523.896 97.5024 523.306 M96.2177 517.768 Q96.2177 519.782 97.4677 520.91 Q98.735 522.039 101.009 522.039 Q103.266 522.039 104.534 520.91 Q105.818 519.782 105.818 517.768 Q105.818 515.754 104.534 514.625 Q103.266 513.497 101.009 513.497 Q98.735 513.497 97.4677 514.625 Q96.2177 515.754 96.2177 517.768 Z" fill="#000000" fill-rule="evenodd" fill-opacity="1" /><path clip-path="url(#clip590)" d="M 0 0 M344.201 733.692 L349.93 733.692 L349.93 713.918 L343.698 715.168 L343.698 711.974 L349.896 710.724 L353.402 710.724 L353.402 733.692 L359.132 733.692 L359.132 736.644 L344.201 736.644 L344.201 733.692 Z" fill="#000000" fill-rule="evenodd" fill-opacity="1" /><path clip-path="url(#clip590)" d="M 0 0 M366.319 736.106 L366.319 732.911 Q367.638 733.536 368.993 733.866 Q370.347 734.196 371.649 734.196 Q375.121 734.196 376.944 731.87 Q378.784 729.526 379.045 724.769 Q378.038 726.262 376.493 727.061 Q374.947 727.859 373.072 727.859 Q369.184 727.859 366.909 725.515 Q364.652 723.154 364.652 719.075 Q364.652 715.081 367.013 712.668 Q369.375 710.255 373.298 710.255 Q377.795 710.255 380.156 713.71 Q382.534 717.147 382.534 723.71 Q382.534 729.838 379.618 733.502 Q376.718 737.147 371.805 737.147 Q370.486 737.147 369.132 736.887 Q367.777 736.627 366.319 736.106 M373.298 725.116 Q375.659 725.116 377.031 723.502 Q378.42 721.887 378.42 719.075 Q378.42 716.279 377.031 714.665 Q375.659 713.033 373.298 713.033 Q370.937 713.033 369.548 714.665 Q368.177 716.279 368.177 719.075 Q368.177 721.887 369.548 723.502 Q370.937 725.116 373.298 725.116 Z" fill="#000000" fill-rule="evenodd" fill-opacity="1" /><path clip-path="url(#clip590)" d="M 0 0 M416.093 683.809 L428.332 683.809 L428.332 686.76 L411.874 686.76 L411.874 683.809 Q413.871 681.743 417.308 678.27 Q420.763 674.781 421.648 673.774 Q423.332 671.881 423.992 670.579 Q424.669 669.26 424.669 667.993 Q424.669 665.927 423.211 664.625 Q421.77 663.323 419.443 663.323 Q417.794 663.323 415.954 663.895 Q414.131 664.468 412.048 665.632 L412.048 662.09 Q414.166 661.239 416.006 660.805 Q417.846 660.371 419.374 660.371 Q423.402 660.371 425.798 662.385 Q428.193 664.399 428.193 667.767 Q428.193 669.364 427.586 670.805 Q426.995 672.229 425.416 674.173 Q424.982 674.677 422.655 677.09 Q420.329 679.486 416.093 683.809 Z" fill="#000000" fill-rule="evenodd" fill-opacity="1" /><path clip-path="url(#clip590)" d="M 0 0 M443.193 663.149 Q440.485 663.149 439.113 665.823 Q437.759 668.479 437.759 673.826 Q437.759 679.156 439.113 681.829 Q440.485 684.486 443.193 684.486 Q445.919 684.486 447.273 681.829 Q448.645 679.156 448.645 673.826 Q448.645 668.479 447.273 665.823 Q445.919 663.149 443.193 663.149 M443.193 660.371 Q447.551 660.371 449.843 663.826 Q452.152 667.263 452.152 673.826 Q452.152 680.371 449.843 683.826 Q447.551 687.263 443.193 687.263 Q438.836 687.263 436.527 683.826 Q434.235 680.371 434.235 673.826 Q434.235 667.263 436.527 663.826 Q438.836 660.371 443.193 660.371 Z" fill="#000000" fill-rule="evenodd" fill-opacity="1" /><path clip-path="url(#clip590)" d="M 0 0 M279.74 584.041 L291.98 584.041 L291.98 586.992 L275.521 586.992 L275.521 584.041 Q277.518 581.975 280.955 578.502 Q284.41 575.013 285.296 574.006 Q286.98 572.114 287.639 570.811 Q288.316 569.492 288.316 568.225 Q288.316 566.159 286.858 564.857 Q285.417 563.555 283.091 563.555 Q281.441 563.555 279.601 564.127 Q277.778 564.7 275.695 565.864 L275.695 562.322 Q277.813 561.471 279.653 561.037 Q281.493 560.603 283.021 560.603 Q287.049 560.603 289.445 562.617 Q291.841 564.631 291.841 567.999 Q291.841 569.596 291.233 571.037 Q290.643 572.461 289.063 574.405 Q288.629 574.909 286.302 577.322 Q283.976 579.718 279.74 584.041 Z" fill="#000000" fill-rule="evenodd" fill-opacity="1" /><path clip-path="url(#clip590)" d="M 0 0 M299.948 584.041 L305.677 584.041 L305.677 564.266 L299.445 565.516 L299.445 562.322 L305.643 561.072 L309.15 561.072 L309.15 584.041 L314.879 584.041 L314.879 586.992 L299.948 586.992 L299.948 584.041 Z" fill="#000000" fill-rule="evenodd" fill-opacity="1" /><path clip-path="url(#clip590)" d="M 0 0 M347.916 534.157 L360.156 534.157 L360.156 537.108 L343.698 537.108 L343.698 534.157 Q345.694 532.091 349.132 528.618 Q352.586 525.129 353.472 524.122 Q355.156 522.23 355.816 520.928 Q356.493 519.608 356.493 518.341 Q356.493 516.275 355.034 514.973 Q353.593 513.671 351.267 513.671 Q349.618 513.671 347.777 514.244 Q345.955 514.816 343.871 515.98 L343.871 512.438 Q345.989 511.587 347.83 511.153 Q349.67 510.719 351.198 510.719 Q355.225 510.719 357.621 512.733 Q360.017 514.747 360.017 518.115 Q360.017 519.712 359.409 521.153 Q358.819 522.577 357.239 524.521 Q356.805 525.025 354.479 527.438 Q352.152 529.834 347.916 534.157 Z" fill="#000000" fill-rule="evenodd" fill-opacity="1" /><path clip-path="url(#clip590)" d="M 0 0 M370.538 534.157 L382.777 534.157 L382.777 537.108 L366.319 537.108 L366.319 534.157 Q368.316 532.091 371.753 528.618 Q375.208 525.129 376.093 524.122 Q377.777 522.23 378.437 520.928 Q379.114 519.608 379.114 518.341 Q379.114 516.275 377.656 514.973 Q376.215 513.671 373.888 513.671 Q372.239 513.671 370.399 514.244 Q368.576 514.816 366.493 515.98 L366.493 512.438 Q368.611 511.587 370.451 511.153 Q372.291 510.719 373.819 510.719 Q377.847 510.719 380.243 512.733 Q382.638 514.747 382.638 518.115 Q382.638 519.712 382.031 521.153 Q381.44 522.577 379.861 524.521 Q379.427 525.025 377.1 527.438 Q374.774 529.834 370.538 534.157 Z" fill="#000000" fill-rule="evenodd" fill-opacity="1" /><path clip-path="url(#clip590)" d="M 0 0 M211.564 434.389 L223.803 434.389 L223.803 437.34 L207.345 437.34 L207.345 434.389 Q209.341 432.323 212.779 428.85 Q216.234 425.361 217.119 424.354 Q218.803 422.462 219.463 421.16 Q220.14 419.84 220.14 418.573 Q220.14 416.507 218.682 415.205 Q217.241 413.903 214.914 413.903 Q213.265 413.903 211.425 414.476 Q209.602 415.048 207.518 416.212 L207.518 412.67 Q209.637 411.819 211.477 411.385 Q213.317 410.951 214.845 410.951 Q218.873 410.951 221.268 412.965 Q223.664 414.979 223.664 418.347 Q223.664 419.944 223.057 421.385 Q222.466 422.809 220.886 424.753 Q220.452 425.257 218.126 427.67 Q215.8 430.066 211.564 434.389 Z" fill="#000000" fill-rule="evenodd" fill-opacity="1" /><path clip-path="url(#clip590)" d="M 0 0 M241.789 423.364 Q244.306 423.903 245.713 425.604 Q247.136 427.305 247.136 429.805 Q247.136 433.642 244.497 435.743 Q241.859 437.843 236.998 437.843 Q235.366 437.843 233.629 437.514 Q231.911 437.201 230.07 436.559 L230.07 433.173 Q231.529 434.024 233.265 434.458 Q235.001 434.892 236.893 434.892 Q240.192 434.892 241.911 433.59 Q243.647 432.288 243.647 429.805 Q243.647 427.514 242.032 426.229 Q240.435 424.927 237.57 424.927 L234.55 424.927 L234.55 422.045 L237.709 422.045 Q240.296 422.045 241.668 421.021 Q243.039 419.979 243.039 418.035 Q243.039 416.038 241.616 414.979 Q240.209 413.903 237.57 413.903 Q236.129 413.903 234.48 414.215 Q232.831 414.528 230.852 415.187 L230.852 412.062 Q232.848 411.507 234.584 411.229 Q236.338 410.951 237.883 410.951 Q241.876 410.951 244.202 412.774 Q246.529 414.58 246.529 417.67 Q246.529 419.823 245.296 421.316 Q244.063 422.791 241.789 423.364 Z" fill="#000000" fill-rule="evenodd" fill-opacity="1" /><circle clip-path="url(#clip592)" cx="411.874" cy="395.232" r="14" fill="#0000ff" fill-rule="evenodd" fill-opacity="1" stroke="none"/>
<circle clip-path="url(#clip592)" cx="275.521" cy="295.464" r="14" fill="#0000ff" fill-rule="evenodd" fill-opacity="1" stroke="none"/>
<circle clip-path="url(#clip592)" cx="343.698" cy="245.58" r="14" fill="#0000ff" fill-rule="evenodd" fill-opacity="1" stroke="none"/>
<circle clip-path="url(#clip592)" cx="207.345" cy="145.812" r="14" fill="#0000ff" fill-rule="evenodd" fill-opacity="1" stroke="none"/>
<circle clip-path="url(#clip592)" cx="275.521" cy="95.9282" r="14" fill="#0000ff" fill-rule="evenodd" fill-opacity="1" stroke="none"/>
<circle clip-path="url(#clip592)" cx="70.9921" cy="245.58" r="14" fill="#0000ff" fill-rule="evenodd" fill-opacity="1" stroke="none"/>
<circle clip-path="url(#clip592)" cx="207.345" cy="245.58" r="14" fill="#0000ff" fill-rule="evenodd" fill-opacity="1" stroke="none"/>
<circle clip-path="url(#clip592)" cx="70.9921" cy="145.812" r="14" fill="#0000ff" fill-rule="evenodd" fill-opacity="1" stroke="none"/>
<circle clip-path="url(#clip592)" cx="139.169" cy="95.9282" r="14" fill="#0000ff" fill-rule="evenodd" fill-opacity="1" stroke="none"/>
<circle clip-path="url(#clip592)" cx="411.874" cy="295.464" r="14" fill="#0000ff" fill-rule="evenodd" fill-opacity="1" stroke="none"/>
<circle clip-path="url(#clip592)" cx="343.698" cy="145.812" r="14" fill="#0000ff" fill-rule="evenodd" fill-opacity="1" stroke="none"/>
<circle clip-path="url(#clip592)" cx="411.874" cy="95.9282" r="14" fill="#0000ff" fill-rule="evenodd" fill-opacity="1" stroke="none"/>
<circle clip-path="url(#clip592)" cx="275.521" cy="395.232" r="14" fill="#0000ff" fill-rule="evenodd" fill-opacity="1" stroke="none"/>
<path clip-path="url(#clip590)" d="M 0 0 M416.093 384.505 L428.332 384.505 L428.332 387.456 L411.874 387.456 L411.874 384.505 Q413.871 382.439 417.308 378.967 Q420.763 375.477 421.648 374.47 Q423.332 372.578 423.992 371.276 Q424.669 369.956 424.669 368.689 Q424.669 366.623 423.211 365.321 Q421.77 364.019 419.443 364.019 Q417.794 364.019 415.954 364.592 Q414.131 365.165 412.048 366.328 L412.048 362.786 Q414.166 361.935 416.006 361.501 Q417.846 361.067 419.374 361.067 Q423.402 361.067 425.798 363.081 Q428.193 365.095 428.193 368.463 Q428.193 370.06 427.586 371.501 Q426.995 372.925 425.416 374.869 Q424.982 375.373 422.655 377.786 Q420.329 380.182 416.093 384.505 Z" fill="#000000" fill-rule="evenodd" fill-opacity="1" /><path clip-path="url(#clip590)" d="M 0 0 M287.24 273.712 Q289.757 274.251 291.164 275.952 Q292.587 277.653 292.587 280.153 Q292.587 283.99 289.948 286.091 Q287.309 288.192 282.448 288.192 Q280.816 288.192 279.08 287.862 Q277.362 287.549 275.521 286.907 L275.521 283.521 Q276.98 284.372 278.716 284.806 Q280.452 285.24 282.344 285.24 Q285.643 285.24 287.361 283.938 Q289.098 282.636 289.098 280.153 Q289.098 277.862 287.483 276.577 Q285.886 275.275 283.021 275.275 L280 275.275 L280 272.393 L283.16 272.393 Q285.747 272.393 287.118 271.369 Q288.49 270.327 288.49 268.383 Q288.49 266.386 287.066 265.327 Q285.66 264.251 283.021 264.251 Q281.58 264.251 279.931 264.563 Q278.282 264.876 276.303 265.535 L276.303 262.41 Q278.299 261.855 280.035 261.577 Q281.789 261.299 283.334 261.299 Q287.327 261.299 289.653 263.122 Q291.98 264.928 291.98 268.018 Q291.98 270.171 290.747 271.664 Q289.514 273.14 287.24 273.712 Z" fill="#000000" fill-rule="evenodd" fill-opacity="1" /><path clip-path="url(#clip590)" d="M 0 0 M355.399 214.94 L346.545 228.776 L355.399 228.776 L355.399 214.94 M354.479 211.884 L358.889 211.884 L358.889 228.776 L362.586 228.776 L362.586 231.693 L358.889 231.693 L358.889 237.804 L355.399 237.804 L355.399 231.693 L343.698 231.693 L343.698 228.308 L354.479 211.884 Z" fill="#000000" fill-rule="evenodd" fill-opacity="1" /><path clip-path="url(#clip590)" d="M 0 0 M208.439 112.116 L222.206 112.116 L222.206 115.068 L211.65 115.068 L211.65 121.422 Q212.414 121.161 213.178 121.04 Q213.942 120.901 214.706 120.901 Q219.046 120.901 221.581 123.279 Q224.116 125.658 224.116 129.72 Q224.116 133.904 221.511 136.231 Q218.907 138.54 214.168 138.54 Q212.536 138.54 210.834 138.262 Q209.15 137.984 207.345 137.429 L207.345 133.904 Q208.907 134.755 210.574 135.172 Q212.241 135.588 214.098 135.588 Q217.102 135.588 218.855 134.008 Q220.609 132.429 220.609 129.72 Q220.609 127.012 218.855 125.432 Q217.102 123.852 214.098 123.852 Q212.692 123.852 211.286 124.165 Q209.897 124.477 208.439 125.137 L208.439 112.116 Z" fill="#000000" fill-rule="evenodd" fill-opacity="1" /><path clip-path="url(#clip590)" d="M 0 0 M284.775 73.7947 Q282.414 73.7947 281.025 75.4092 Q279.653 77.0238 279.653 79.8363 Q279.653 82.6314 281.025 84.2634 Q282.414 85.8779 284.775 85.8779 Q287.136 85.8779 288.507 84.2634 Q289.896 82.6314 289.896 79.8363 Q289.896 77.0238 288.507 75.4092 Q287.136 73.7947 284.775 73.7947 M291.736 62.8051 L291.736 65.9996 Q290.417 65.3746 289.063 65.0447 Q287.726 64.7148 286.407 64.7148 Q282.934 64.7148 281.094 67.0586 Q279.271 69.4023 279.011 74.1419 Q280.035 72.6315 281.58 71.8329 Q283.125 71.0169 284.983 71.0169 Q288.889 71.0169 291.146 73.3954 Q293.42 75.7565 293.42 79.8363 Q293.42 83.8293 291.059 86.2425 Q288.698 88.6557 284.775 88.6557 Q280.278 88.6557 277.9 85.2182 Q275.521 81.7634 275.521 75.2183 Q275.521 69.0725 278.438 65.4266 Q281.355 61.7635 286.268 61.7635 Q287.587 61.7635 288.924 62.0239 Q290.278 62.2843 291.736 62.8051 Z" fill="#000000" fill-rule="evenodd" fill-opacity="1" /><path clip-path="url(#clip590)" d="M 0 0 M71.4956 234.853 L77.2247 234.853 L77.2247 215.079 L70.9921 216.329 L70.9921 213.134 L77.19 211.884 L80.6969 211.884 L80.6969 234.853 L86.4261 234.853 L86.4261 237.804 L71.4956 237.804 L71.4956 234.853 Z" fill="#000000" fill-rule="evenodd" fill-opacity="1" /><path clip-path="url(#clip590)" d="M 0 0 M96.5302 234.853 L108.77 234.853 L108.77 237.804 L92.3115 237.804 L92.3115 234.853 Q94.308 232.787 97.7455 229.315 Q101.2 225.825 102.086 224.818 Q103.77 222.926 104.429 221.624 Q105.107 220.304 105.107 219.037 Q105.107 216.971 103.648 215.669 Q102.207 214.367 99.8809 214.367 Q98.2316 214.367 96.3913 214.94 Q94.5684 215.513 92.4851 216.676 L92.4851 213.134 Q94.6031 212.283 96.4434 211.849 Q98.2836 211.415 99.8114 211.415 Q103.839 211.415 106.235 213.429 Q108.631 215.443 108.631 218.811 Q108.631 220.408 108.023 221.849 Q107.433 223.273 105.853 225.217 Q105.419 225.721 103.093 228.134 Q100.766 230.53 96.5302 234.853 Z" fill="#000000" fill-rule="evenodd" fill-opacity="1" /><path clip-path="url(#clip590)" d="M 0 0 M207.848 234.853 L213.577 234.853 L213.577 215.079 L207.345 216.329 L207.345 213.134 L213.543 211.884 L217.05 211.884 L217.05 234.853 L222.779 234.853 L222.779 237.804 L207.848 237.804 L207.848 234.853 Z" fill="#000000" fill-rule="evenodd" fill-opacity="1" /><path clip-path="url(#clip590)" d="M 0 0 M239.497 214.94 L230.643 228.776 L239.497 228.776 L239.497 214.94 M238.577 211.884 L242.987 211.884 L242.987 228.776 L246.685 228.776 L246.685 231.693 L242.987 231.693 L242.987 237.804 L239.497 237.804 L239.497 231.693 L227.796 231.693 L227.796 228.308 L238.577 211.884 Z" fill="#000000" fill-rule="evenodd" fill-opacity="1" /><path clip-path="url(#clip590)" d="M 0 0 M71.4956 135.085 L77.2247 135.085 L77.2247 115.311 L70.9921 116.561 L70.9921 113.366 L77.19 112.116 L80.6969 112.116 L80.6969 135.085 L86.4261 135.085 L86.4261 138.036 L71.4956 138.036 L71.4956 135.085 Z" fill="#000000" fill-rule="evenodd" fill-opacity="1" /><path clip-path="url(#clip590)" d="M 0 0 M93.5441 112.116 L107.311 112.116 L107.311 115.068 L96.7559 115.068 L96.7559 121.422 Q97.5198 121.161 98.2836 121.04 Q99.0475 120.901 99.8114 120.901 Q104.152 120.901 106.686 123.279 Q109.221 125.658 109.221 129.72 Q109.221 133.904 106.617 136.231 Q104.013 138.54 99.2732 138.54 Q97.6413 138.54 95.9399 138.262 Q94.2559 137.984 92.4503 137.429 L92.4503 133.904 Q94.0128 134.755 95.6795 135.172 Q97.3462 135.588 99.2038 135.588 Q102.207 135.588 103.961 134.008 Q105.714 132.429 105.714 129.72 Q105.714 127.012 103.961 125.432 Q102.207 123.852 99.2038 123.852 Q97.7975 123.852 96.3913 124.165 Q95.0024 124.477 93.5441 125.137 L93.5441 112.116 Z" fill="#000000" fill-rule="evenodd" fill-opacity="1" /><path clip-path="url(#clip590)" d="M 0 0 M139.672 85.2008 L145.401 85.2008 L145.401 65.4266 L139.169 66.6766 L139.169 63.4822 L145.366 62.2322 L148.873 62.2322 L148.873 85.2008 L154.602 85.2008 L154.602 88.1522 L139.672 88.1522 L139.672 85.2008 Z" fill="#000000" fill-rule="evenodd" fill-opacity="1" /><path clip-path="url(#clip590)" d="M 0 0 M169.62 73.7947 Q167.259 73.7947 165.87 75.4092 Q164.498 77.0238 164.498 79.8363 Q164.498 82.6314 165.87 84.2634 Q167.259 85.8779 169.62 85.8779 Q171.981 85.8779 173.352 84.2634 Q174.741 82.6314 174.741 79.8363 Q174.741 77.0238 173.352 75.4092 Q171.981 73.7947 169.62 73.7947 M176.581 62.8051 L176.581 65.9996 Q175.262 65.3746 173.908 65.0447 Q172.571 64.7148 171.252 64.7148 Q167.779 64.7148 165.939 67.0586 Q164.116 69.4023 163.856 74.1419 Q164.88 72.6315 166.425 71.8329 Q167.97 71.0169 169.828 71.0169 Q173.734 71.0169 175.991 73.3954 Q178.266 75.7565 178.266 79.8363 Q178.266 83.8293 175.904 86.2425 Q173.543 88.6557 169.62 88.6557 Q165.123 88.6557 162.745 85.2182 Q160.366 81.7634 160.366 75.2183 Q160.366 69.0725 163.283 65.4266 Q166.2 61.7635 171.113 61.7635 Q172.432 61.7635 173.769 62.0239 Q175.123 62.2843 176.581 62.8051 Z" fill="#000000" fill-rule="evenodd" fill-opacity="1" /><path clip-path="url(#clip590)" d="M 0 0 M412.377 284.737 L418.107 284.737 L418.107 264.963 L411.874 266.213 L411.874 263.018 L418.072 261.768 L421.579 261.768 L421.579 284.737 L427.308 284.737 L427.308 287.688 L412.377 287.688 L412.377 284.737 Z" fill="#000000" fill-rule="evenodd" fill-opacity="1" /><path clip-path="url(#clip590)" d="M 0 0 M433.506 261.768 L450.172 261.768 L450.172 263.261 L440.763 287.688 L437.1 287.688 L445.954 264.719 L433.506 264.719 L433.506 261.768 Z" fill="#000000" fill-rule="evenodd" fill-opacity="1" /><path clip-path="url(#clip590)" d="M 0 0 M344.201 135.085 L349.93 135.085 L349.93 115.311 L343.698 116.561 L343.698 113.366 L349.896 112.116 L353.402 112.116 L353.402 135.085 L359.132 135.085 L359.132 138.036 L344.201 138.036 L344.201 135.085 Z" fill="#000000" fill-rule="evenodd" fill-opacity="1" /><path clip-path="url(#clip590)" d="M 0 0 M366.319 137.498 L366.319 134.304 Q367.638 134.929 368.993 135.258 Q370.347 135.588 371.649 135.588 Q375.121 135.588 376.944 133.262 Q378.784 130.918 379.045 126.161 Q378.038 127.654 376.493 128.453 Q374.947 129.252 373.072 129.252 Q369.184 129.252 366.909 126.908 Q364.652 124.547 364.652 120.467 Q364.652 116.474 367.013 114.061 Q369.375 111.647 373.298 111.647 Q377.795 111.647 380.156 115.102 Q382.534 118.54 382.534 125.102 Q382.534 131.231 379.618 134.894 Q376.718 138.54 371.805 138.54 Q370.486 138.54 369.132 138.279 Q367.777 138.019 366.319 137.498 M373.298 126.508 Q375.659 126.508 377.031 124.894 Q378.42 123.279 378.42 120.467 Q378.42 117.672 377.031 116.057 Q375.659 114.425 373.298 114.425 Q370.937 114.425 369.548 116.057 Q368.177 117.672 368.177 120.467 Q368.177 123.279 369.548 124.894 Q370.937 126.508 373.298 126.508 Z" fill="#000000" fill-rule="evenodd" fill-opacity="1" /><path clip-path="url(#clip590)" d="M 0 0 M416.093 85.2008 L428.332 85.2008 L428.332 88.1522 L411.874 88.1522 L411.874 85.2008 Q413.871 83.1349 417.308 79.6627 Q420.763 76.1731 421.648 75.1662 Q423.332 73.2738 423.992 71.9718 Q424.669 70.6523 424.669 69.385 Q424.669 67.319 423.211 66.0169 Q421.77 64.7148 419.443 64.7148 Q417.794 64.7148 415.954 65.2878 Q414.131 65.8607 412.048 67.0239 L412.048 63.4822 Q414.166 62.6315 416.006 62.1975 Q417.846 61.7635 419.374 61.7635 Q423.402 61.7635 425.798 63.7774 Q428.193 65.7912 428.193 69.1593 Q428.193 70.7565 427.586 72.1974 Q426.995 73.621 425.416 75.5655 Q424.982 76.069 422.655 78.4821 Q420.329 80.878 416.093 85.2008 Z" fill="#000000" fill-rule="evenodd" fill-opacity="1" /><path clip-path="url(#clip590)" d="M 0 0 M443.193 64.5412 Q440.485 64.5412 439.113 67.2148 Q437.759 69.8711 437.759 75.2183 Q437.759 80.5481 439.113 83.2217 Q440.485 85.8779 443.193 85.8779 Q445.919 85.8779 447.273 83.2217 Q448.645 80.5481 448.645 75.2183 Q448.645 69.8711 447.273 67.2148 Q445.919 64.5412 443.193 64.5412 M443.193 61.7635 Q447.551 61.7635 449.843 65.2183 Q452.152 68.6558 452.152 75.2183 Q452.152 81.7634 449.843 85.2182 Q447.551 88.6557 443.193 88.6557 Q438.836 88.6557 436.527 85.2182 Q434.235 81.7634 434.235 75.2183 Q434.235 68.6558 436.527 65.2183 Q438.836 61.7635 443.193 61.7635 Z" fill="#000000" fill-rule="evenodd" fill-opacity="1" /><path clip-path="url(#clip590)" d="M 0 0 M279.74 384.505 L291.98 384.505 L291.98 387.456 L275.521 387.456 L275.521 384.505 Q277.518 382.439 280.955 378.967 Q284.41 375.477 285.296 374.47 Q286.98 372.578 287.639 371.276 Q288.316 369.956 288.316 368.689 Q288.316 366.623 286.858 365.321 Q285.417 364.019 283.091 364.019 Q281.441 364.019 279.601 364.592 Q277.778 365.165 275.695 366.328 L275.695 362.786 Q277.813 361.935 279.653 361.501 Q281.493 361.067 283.021 361.067 Q287.049 361.067 289.445 363.081 Q291.841 365.095 291.841 368.463 Q291.841 370.06 291.233 371.501 Q290.643 372.925 289.063 374.869 Q288.629 375.373 286.302 377.786 Q283.976 380.182 279.74 384.505 Z" fill="#000000" fill-rule="evenodd" fill-opacity="1" /><path clip-path="url(#clip590)" d="M 0 0 M308.976 364.592 L300.122 378.428 L308.976 378.428 L308.976 364.592 M308.056 361.536 L312.466 361.536 L312.466 378.428 L316.163 378.428 L316.163 381.345 L312.466 381.345 L312.466 387.456 L308.976 387.456 L308.976 381.345 L297.275 381.345 L297.275 377.96 L308.056 361.536 Z" fill="#000000" fill-rule="evenodd" fill-opacity="1" /><circle clip-path="url(#clip592)" cx="752.756" cy="744.42" r="14" fill="#0000ff" fill-rule="evenodd" fill-opacity="1" stroke="none"/>
<circle clip-path="url(#clip592)" cx="548.227" cy="894.072" r="14" fill="#0000ff" fill-rule="evenodd" fill-opacity="1" stroke="none"/>
<circle clip-path="url(#clip592)" cx="616.403" cy="844.188" r="14" fill="#0000ff" fill-rule="evenodd" fill-opacity="1" stroke="none"/>
<circle clip-path="url(#clip592)" cx="480.05" cy="744.42" r="14" fill="#0000ff" fill-rule="evenodd" fill-opacity="1" stroke="none"/>
<circle clip-path="url(#clip592)" cx="548.227" cy="694.536" r="14" fill="#0000ff" fill-rule="evenodd" fill-opacity="1" stroke="none"/>
<circle clip-path="url(#clip592)" cx="548.227" cy="594.768" r="14" fill="#0000ff" fill-rule="evenodd" fill-opacity="1" stroke="none"/>
<circle clip-path="url(#clip592)" cx="480.05" cy="844.188" r="14" fill="#0000ff" fill-rule="evenodd" fill-opacity="1" stroke="none"/>
<circle clip-path="url(#clip592)" cx="684.58" cy="894.072" r="14" fill="#0000ff" fill-rule="evenodd" fill-opacity="1" stroke="none"/>
<circle clip-path="url(#clip592)" cx="752.756" cy="844.188" r="14" fill="#0000ff" fill-rule="evenodd" fill-opacity="1" stroke="none"/>
<circle clip-path="url(#clip592)" cx="616.403" cy="744.42" r="14" fill="#0000ff" fill-rule="evenodd" fill-opacity="1" stroke="none"/>
<path clip-path="url(#clip590)" d="M 0 0 M753.259 733.692 L758.989 733.692 L758.989 713.918 L752.756 715.168 L752.756 711.974 L758.954 710.724 L762.461 710.724 L762.461 733.692 L768.19 733.692 L768.19 736.644 L753.259 736.644 L753.259 733.692 Z" fill="#000000" fill-rule="evenodd" fill-opacity="1" /><path clip-path="url(#clip590)" d="M 0 0 M548.227 860.376 L564.893 860.376 L564.893 861.869 L555.484 886.296 L551.821 886.296 L560.675 863.327 L548.227 863.327 L548.227 860.376 Z" fill="#000000" fill-rule="evenodd" fill-opacity="1" /><path clip-path="url(#clip590)" d="M 0 0 M625.292 824.103 Q622.792 824.103 621.351 825.44 Q619.927 826.776 619.927 829.12 Q619.927 831.464 621.351 832.801 Q622.792 834.138 625.292 834.138 Q627.792 834.138 629.233 832.801 Q630.674 831.447 630.674 829.12 Q630.674 826.776 629.233 825.44 Q627.809 824.103 625.292 824.103 M621.785 822.61 Q619.528 822.054 618.261 820.509 Q617.011 818.964 617.011 816.742 Q617.011 813.634 619.216 811.829 Q621.438 810.023 625.292 810.023 Q629.163 810.023 631.368 811.829 Q633.573 813.634 633.573 816.742 Q633.573 818.964 632.306 820.509 Q631.056 822.054 628.816 822.61 Q631.351 823.2 632.757 824.919 Q634.181 826.638 634.181 829.12 Q634.181 832.888 631.872 834.901 Q629.58 836.915 625.292 836.915 Q621.004 836.915 618.695 834.901 Q616.403 832.888 616.403 829.12 Q616.403 826.638 617.827 824.919 Q619.25 823.2 621.785 822.61 M620.5 817.072 Q620.5 819.086 621.75 820.214 Q623.018 821.342 625.292 821.342 Q627.549 821.342 628.816 820.214 Q630.101 819.086 630.101 817.072 Q630.101 815.058 628.816 813.929 Q627.549 812.801 625.292 812.801 Q623.018 812.801 621.75 813.929 Q620.5 815.058 620.5 817.072 Z" fill="#000000" fill-rule="evenodd" fill-opacity="1" /><path clip-path="url(#clip590)" d="M 0 0 M481.717 736.106 L481.717 732.911 Q483.036 733.536 484.391 733.866 Q485.745 734.196 487.047 734.196 Q490.519 734.196 492.342 731.87 Q494.182 729.526 494.443 724.769 Q493.436 726.262 491.891 727.061 Q490.345 727.859 488.47 727.859 Q484.582 727.859 482.307 725.515 Q480.05 723.154 480.05 719.075 Q480.05 715.081 482.411 712.668 Q484.773 710.255 488.696 710.255 Q493.193 710.255 495.554 713.71 Q497.932 717.147 497.932 723.71 Q497.932 729.838 495.016 733.502 Q492.116 737.147 487.203 737.147 Q485.884 737.147 484.53 736.887 Q483.175 736.627 481.717 736.106 M488.696 725.116 Q491.057 725.116 492.429 723.502 Q493.818 721.887 493.818 719.075 Q493.818 716.279 492.429 714.665 Q491.057 713.033 488.696 713.033 Q486.335 713.033 484.946 714.665 Q483.575 716.279 483.575 719.075 Q483.575 721.887 484.946 723.502 Q486.335 725.116 488.696 725.116 Z" fill="#000000" fill-rule="evenodd" fill-opacity="1" /><path clip-path="url(#clip590)" d="M 0 0 M548.73 683.809 L554.459 683.809 L554.459 664.034 L548.227 665.284 L548.227 662.09 L554.425 660.84 L557.932 660.84 L557.932 683.809 L563.661 683.809 L563.661 686.76 L548.73 686.76 L548.73 683.809 Z" fill="#000000" fill-rule="evenodd" fill-opacity="1" /><path clip-path="url(#clip590)" d="M 0 0 M578.244 663.149 Q575.536 663.149 574.164 665.823 Q572.81 668.479 572.81 673.826 Q572.81 679.156 574.164 681.829 Q575.536 684.486 578.244 684.486 Q580.97 684.486 582.324 681.829 Q583.695 679.156 583.695 673.826 Q583.695 668.479 582.324 665.823 Q580.97 663.149 578.244 663.149 M578.244 660.371 Q582.602 660.371 584.893 663.826 Q587.202 667.263 587.202 673.826 Q587.202 680.371 584.893 683.826 Q582.602 687.263 578.244 687.263 Q573.886 687.263 571.577 683.826 Q569.286 680.371 569.286 673.826 Q569.286 667.263 571.577 663.826 Q573.886 660.371 578.244 660.371 Z" fill="#000000" fill-rule="evenodd" fill-opacity="1" /><path clip-path="url(#clip590)" d="M 0 0 M548.73 584.041 L554.459 584.041 L554.459 564.266 L548.227 565.516 L548.227 562.322 L554.425 561.072 L557.932 561.072 L557.932 584.041 L563.661 584.041 L563.661 586.992 L548.73 586.992 L548.73 584.041 Z" fill="#000000" fill-rule="evenodd" fill-opacity="1" /><path clip-path="url(#clip590)" d="M 0 0 M581.369 573.016 Q583.886 573.555 585.293 575.256 Q586.716 576.957 586.716 579.457 Q586.716 583.294 584.077 585.395 Q581.438 587.495 576.577 587.495 Q574.945 587.495 573.209 587.166 Q571.491 586.853 569.65 586.211 L569.65 582.825 Q571.109 583.676 572.845 584.11 Q574.581 584.544 576.473 584.544 Q579.772 584.544 581.49 583.242 Q583.227 581.94 583.227 579.457 Q583.227 577.166 581.612 575.881 Q580.015 574.579 577.15 574.579 L574.129 574.579 L574.129 571.697 L577.289 571.697 Q579.876 571.697 581.247 570.673 Q582.619 569.631 582.619 567.686 Q582.619 565.69 581.195 564.631 Q579.789 563.555 577.15 563.555 Q575.709 563.555 574.06 563.867 Q572.411 564.18 570.432 564.839 L570.432 561.714 Q572.428 561.159 574.164 560.881 Q575.918 560.603 577.463 560.603 Q581.456 560.603 583.782 562.426 Q586.109 564.232 586.109 567.322 Q586.109 569.475 584.876 570.968 Q583.643 572.443 581.369 573.016 Z" fill="#000000" fill-rule="evenodd" fill-opacity="1" /><path clip-path="url(#clip590)" d="M 0 0 M480.554 833.46 L486.283 833.46 L486.283 813.686 L480.05 814.936 L480.05 811.742 L486.248 810.492 L489.755 810.492 L489.755 833.46 L495.484 833.46 L495.484 836.412 L480.554 836.412 L480.554 833.46 Z" fill="#000000" fill-rule="evenodd" fill-opacity="1" /><path clip-path="url(#clip590)" d="M 0 0 M510.068 824.103 Q507.568 824.103 506.127 825.44 Q504.703 826.776 504.703 829.12 Q504.703 831.464 506.127 832.801 Q507.568 834.138 510.068 834.138 Q512.568 834.138 514.009 832.801 Q515.45 831.447 515.45 829.12 Q515.45 826.776 514.009 825.44 Q512.585 824.103 510.068 824.103 M506.561 822.61 Q504.304 822.054 503.036 820.509 Q501.786 818.964 501.786 816.742 Q501.786 813.634 503.991 811.829 Q506.213 810.023 510.068 810.023 Q513.939 810.023 516.144 811.829 Q518.349 813.634 518.349 816.742 Q518.349 818.964 517.081 820.509 Q515.831 822.054 513.592 822.61 Q516.127 823.2 517.533 824.919 Q518.956 826.638 518.956 829.12 Q518.956 832.888 516.647 834.901 Q514.356 836.915 510.068 836.915 Q505.779 836.915 503.47 834.901 Q501.179 832.888 501.179 829.12 Q501.179 826.638 502.602 824.919 Q504.026 823.2 506.561 822.61 M505.276 817.072 Q505.276 819.086 506.526 820.214 Q507.793 821.342 510.068 821.342 Q512.325 821.342 513.592 820.214 Q514.877 819.086 514.877 817.072 Q514.877 815.058 513.592 813.929 Q512.325 812.801 510.068 812.801 Q507.793 812.801 506.526 813.929 Q505.276 815.058 505.276 817.072 Z" fill="#000000" fill-rule="evenodd" fill-opacity="1" /><path clip-path="url(#clip590)" d="M 0 0 M688.798 883.344 L701.038 883.344 L701.038 886.296 L684.58 886.296 L684.58 883.344 Q686.576 881.278 690.014 877.806 Q693.468 874.317 694.354 873.31 Q696.038 871.417 696.698 870.115 Q697.375 868.796 697.375 867.529 Q697.375 865.463 695.916 864.16 Q694.475 862.858 692.149 862.858 Q690.5 862.858 688.659 863.431 Q686.836 864.004 684.753 865.167 L684.753 861.626 Q686.871 860.775 688.711 860.341 Q690.552 859.907 692.079 859.907 Q696.107 859.907 698.503 861.921 Q700.899 863.935 700.899 867.303 Q700.899 868.9 700.291 870.341 Q699.701 871.765 698.121 873.709 Q697.687 874.213 695.361 876.626 Q693.034 879.022 688.798 883.344 Z" fill="#000000" fill-rule="evenodd" fill-opacity="1" /><path clip-path="url(#clip590)" d="M 0 0 M709.006 883.344 L714.736 883.344 L714.736 863.57 L708.503 864.82 L708.503 861.626 L714.701 860.376 L718.208 860.376 L718.208 883.344 L723.937 883.344 L723.937 886.296 L709.006 886.296 L709.006 883.344 Z" fill="#000000" fill-rule="evenodd" fill-opacity="1" /><path clip-path="url(#clip590)" d="M 0 0 M756.975 833.46 L769.214 833.46 L769.214 836.412 L752.756 836.412 L752.756 833.46 Q754.752 831.394 758.19 827.922 Q761.645 824.433 762.53 823.426 Q764.214 821.533 764.874 820.231 Q765.551 818.912 765.551 817.645 Q765.551 815.579 764.093 814.277 Q762.652 812.974 760.325 812.974 Q758.676 812.974 756.836 813.547 Q755.013 814.12 752.93 815.283 L752.93 811.742 Q755.048 810.891 756.888 810.457 Q758.728 810.023 760.256 810.023 Q764.284 810.023 766.679 812.037 Q769.075 814.051 769.075 817.419 Q769.075 819.016 768.468 820.457 Q767.877 821.881 766.297 823.825 Q765.863 824.329 763.537 826.742 Q761.211 829.138 756.975 833.46 Z" fill="#000000" fill-rule="evenodd" fill-opacity="1" /><path clip-path="url(#clip590)" d="M 0 0 M779.596 833.46 L791.836 833.46 L791.836 836.412 L775.377 836.412 L775.377 833.46 Q777.374 831.394 780.811 827.922 Q784.266 824.433 785.152 823.426 Q786.836 821.533 787.495 820.231 Q788.172 818.912 788.172 817.645 Q788.172 815.579 786.714 814.277 Q785.273 812.974 782.947 812.974 Q781.297 812.974 779.457 813.547 Q777.634 814.12 775.551 815.283 L775.551 811.742 Q777.669 810.891 779.509 810.457 Q781.35 810.023 782.877 810.023 Q786.905 810.023 789.301 812.037 Q791.697 814.051 791.697 817.419 Q791.697 819.016 791.089 820.457 Q790.499 821.881 788.919 823.825 Q788.485 824.329 786.159 826.742 Q783.832 829.138 779.596 833.46 Z" fill="#000000" fill-rule="evenodd" fill-opacity="1" /><path clip-path="url(#clip590)" d="M 0 0 M620.622 733.692 L632.861 733.692 L632.861 736.644 L616.403 736.644 L616.403 733.692 Q618.4 731.627 621.837 728.154 Q625.292 724.665 626.177 723.658 Q627.861 721.765 628.521 720.463 Q629.198 719.144 629.198 717.877 Q629.198 715.811 627.74 714.509 Q626.299 713.206 623.973 713.206 Q622.323 713.206 620.483 713.779 Q618.66 714.352 616.577 715.516 L616.577 711.974 Q618.695 711.123 620.535 710.689 Q622.375 710.255 623.903 710.255 Q627.931 710.255 630.327 712.269 Q632.723 714.283 632.723 717.651 Q632.723 719.248 632.115 720.689 Q631.525 722.113 629.945 724.057 Q629.511 724.561 627.184 726.974 Q624.858 729.37 620.622 733.692 Z" fill="#000000" fill-rule="evenodd" fill-opacity="1" /><path clip-path="url(#clip590)" d="M 0 0 M650.847 722.668 Q653.365 723.206 654.771 724.908 Q656.195 726.609 656.195 729.109 Q656.195 732.946 653.556 735.047 Q650.917 737.147 646.056 737.147 Q644.424 737.147 642.688 736.817 Q640.969 736.505 639.129 735.863 L639.129 732.477 Q640.587 733.328 642.323 733.762 Q644.059 734.196 645.952 734.196 Q649.25 734.196 650.969 732.894 Q652.705 731.592 652.705 729.109 Q652.705 726.818 651.09 725.533 Q649.493 724.231 646.629 724.231 L643.608 724.231 L643.608 721.349 L646.768 721.349 Q649.354 721.349 650.726 720.325 Q652.097 719.283 652.097 717.338 Q652.097 715.342 650.674 714.283 Q649.268 713.206 646.629 713.206 Q645.188 713.206 643.538 713.519 Q641.889 713.831 639.91 714.491 L639.91 711.366 Q641.906 710.811 643.643 710.533 Q645.396 710.255 646.941 710.255 Q650.934 710.255 653.261 712.078 Q655.587 713.884 655.587 716.974 Q655.587 719.127 654.354 720.62 Q653.122 722.095 650.847 722.668 Z" fill="#000000" fill-rule="evenodd" fill-opacity="1" /><circle clip-path="url(#clip592)" cx="752.756" cy="145.812" r="14" fill="#0000ff" fill-rule="evenodd" fill-opacity="1" stroke="none"/>
<circle clip-path="url(#clip592)" cx="684.58" cy="594.768" r="14" fill="#0000ff" fill-rule="evenodd" fill-opacity="1" stroke="none"/>
<circle clip-path="url(#clip592)" cx="752.756" cy="544.884" r="14" fill="#0000ff" fill-rule="evenodd" fill-opacity="1" stroke="none"/>
<circle clip-path="url(#clip592)" cx="616.403" cy="445.116" r="14" fill="#0000ff" fill-rule="evenodd" fill-opacity="1" stroke="none"/>
<circle clip-path="url(#clip592)" cx="684.58" cy="395.232" r="14" fill="#0000ff" fill-rule="evenodd" fill-opacity="1" stroke="none"/>
<circle clip-path="url(#clip592)" cx="548.227" cy="295.464" r="14" fill="#0000ff" fill-rule="evenodd" fill-opacity="1" stroke="none"/>
<circle clip-path="url(#clip592)" cx="616.403" cy="245.58" r="14" fill="#0000ff" fill-rule="evenodd" fill-opacity="1" stroke="none"/>
<circle clip-path="url(#clip592)" cx="480.05" cy="145.812" r="14" fill="#0000ff" fill-rule="evenodd" fill-opacity="1" stroke="none"/>
<circle clip-path="url(#clip592)" cx="548.227" cy="95.9282" r="14" fill="#0000ff" fill-rule="evenodd" fill-opacity="1" stroke="none"/>
<circle clip-path="url(#clip592)" cx="480.05" cy="544.884" r="14" fill="#0000ff" fill-rule="evenodd" fill-opacity="1" stroke="none"/>
<circle clip-path="url(#clip592)" cx="616.403" cy="544.884" r="14" fill="#0000ff" fill-rule="evenodd" fill-opacity="1" stroke="none"/>
<circle clip-path="url(#clip592)" cx="480.05" cy="445.116" r="14" fill="#0000ff" fill-rule="evenodd" fill-opacity="1" stroke="none"/>
<circle clip-path="url(#clip592)" cx="548.227" cy="395.232" r="14" fill="#0000ff" fill-rule="evenodd" fill-opacity="1" stroke="none"/>
<circle clip-path="url(#clip592)" cx="480.05" cy="245.58" r="14" fill="#0000ff" fill-rule="evenodd" fill-opacity="1" stroke="none"/>
<circle clip-path="url(#clip592)" cx="752.756" cy="445.116" r="14" fill="#0000ff" fill-rule="evenodd" fill-opacity="1" stroke="none"/>
<circle clip-path="url(#clip592)" cx="684.58" cy="295.464" r="14" fill="#0000ff" fill-rule="evenodd" fill-opacity="1" stroke="none"/>
<circle clip-path="url(#clip592)" cx="752.756" cy="245.58" r="14" fill="#0000ff" fill-rule="evenodd" fill-opacity="1" stroke="none"/>
<circle clip-path="url(#clip592)" cx="616.403" cy="145.812" r="14" fill="#0000ff" fill-rule="evenodd" fill-opacity="1" stroke="none"/>
<circle clip-path="url(#clip592)" cx="684.58" cy="694.536" r="14" fill="#0000ff" fill-rule="evenodd" fill-opacity="1" stroke="none"/>
<path clip-path="url(#clip590)" d="M 0 0 M753.259 135.085 L758.989 135.085 L758.989 115.311 L752.756 116.561 L752.756 113.366 L758.954 112.116 L762.461 112.116 L762.461 135.085 L768.19 135.085 L768.19 138.036 L753.259 138.036 L753.259 135.085 Z" fill="#000000" fill-rule="evenodd" fill-opacity="1" /><path clip-path="url(#clip590)" d="M 0 0 M696.298 573.016 Q698.816 573.555 700.222 575.256 Q701.645 576.957 701.645 579.457 Q701.645 583.294 699.007 585.395 Q696.368 587.495 691.507 587.495 Q689.875 587.495 688.139 587.166 Q686.42 586.853 684.58 586.211 L684.58 582.825 Q686.038 583.676 687.774 584.11 Q689.51 584.544 691.402 584.544 Q694.701 584.544 696.42 583.242 Q698.156 581.94 698.156 579.457 Q698.156 577.166 696.541 575.881 Q694.944 574.579 692.079 574.579 L689.059 574.579 L689.059 571.697 L692.218 571.697 Q694.805 571.697 696.177 570.673 Q697.548 569.631 697.548 567.686 Q697.548 565.69 696.125 564.631 Q694.718 563.555 692.079 563.555 Q690.639 563.555 688.989 563.867 Q687.34 564.18 685.361 564.839 L685.361 561.714 Q687.357 561.159 689.093 560.881 Q690.847 560.603 692.392 560.603 Q696.385 560.603 698.711 562.426 Q701.038 564.232 701.038 567.322 Q701.038 569.475 699.805 570.968 Q698.573 572.443 696.298 573.016 Z" fill="#000000" fill-rule="evenodd" fill-opacity="1" /><path clip-path="url(#clip590)" d="M 0 0 M764.457 514.244 L755.603 528.08 L764.457 528.08 L764.457 514.244 M763.537 511.188 L767.947 511.188 L767.947 528.08 L771.645 528.08 L771.645 530.997 L767.947 530.997 L767.947 537.108 L764.457 537.108 L764.457 530.997 L752.756 530.997 L752.756 527.611 L763.537 511.188 Z" fill="#000000" fill-rule="evenodd" fill-opacity="1" /><path clip-path="url(#clip590)" d="M 0 0 M617.497 411.42 L631.264 411.42 L631.264 414.371 L620.709 414.371 L620.709 420.726 Q621.473 420.465 622.236 420.344 Q623 420.205 623.764 420.205 Q628.104 420.205 630.639 422.583 Q633.174 424.962 633.174 429.024 Q633.174 433.208 630.57 435.534 Q627.966 437.843 623.226 437.843 Q621.594 437.843 619.893 437.566 Q618.209 437.288 616.403 436.732 L616.403 433.208 Q617.966 434.059 619.632 434.475 Q621.299 434.892 623.157 434.892 Q626.16 434.892 627.914 433.312 Q629.667 431.732 629.667 429.024 Q629.667 426.316 627.914 424.736 Q626.16 423.156 623.157 423.156 Q621.75 423.156 620.344 423.469 Q618.955 423.781 617.497 424.441 L617.497 411.42 Z" fill="#000000" fill-rule="evenodd" fill-opacity="1" /><path clip-path="url(#clip590)" d="M 0 0 M693.833 373.098 Q691.472 373.098 690.083 374.713 Q688.711 376.328 688.711 379.14 Q688.711 381.935 690.083 383.567 Q691.472 385.182 693.833 385.182 Q696.194 385.182 697.566 383.567 Q698.954 381.935 698.954 379.14 Q698.954 376.328 697.566 374.713 Q696.194 373.098 693.833 373.098 M700.795 362.109 L700.795 365.303 Q699.475 364.678 698.121 364.349 Q696.784 364.019 695.465 364.019 Q691.993 364.019 690.152 366.362 Q688.33 368.706 688.069 373.446 Q689.093 371.935 690.639 371.137 Q692.184 370.321 694.041 370.321 Q697.948 370.321 700.204 372.699 Q702.479 375.06 702.479 379.14 Q702.479 383.133 700.118 385.546 Q697.757 387.96 693.833 387.96 Q689.336 387.96 686.958 384.522 Q684.58 381.067 684.58 374.522 Q684.58 368.376 687.496 364.73 Q690.413 361.067 695.326 361.067 Q696.645 361.067 697.982 361.328 Q699.336 361.588 700.795 362.109 Z" fill="#000000" fill-rule="evenodd" fill-opacity="1" /><path clip-path="url(#clip590)" d="M 0 0 M548.227 261.768 L564.893 261.768 L564.893 263.261 L555.484 287.688 L551.821 287.688 L560.675 264.719 L548.227 264.719 L548.227 261.768 Z" fill="#000000" fill-rule="evenodd" fill-opacity="1" /><path clip-path="url(#clip590)" d="M 0 0 M625.292 225.495 Q622.792 225.495 621.351 226.832 Q619.927 228.169 619.927 230.513 Q619.927 232.856 621.351 234.193 Q622.792 235.53 625.292 235.53 Q627.792 235.53 629.233 234.193 Q630.674 232.839 630.674 230.513 Q630.674 228.169 629.233 226.832 Q627.809 225.495 625.292 225.495 M621.785 224.002 Q619.528 223.447 618.261 221.901 Q617.011 220.356 617.011 218.134 Q617.011 215.026 619.216 213.221 Q621.438 211.415 625.292 211.415 Q629.163 211.415 631.368 213.221 Q633.573 215.026 633.573 218.134 Q633.573 220.356 632.306 221.901 Q631.056 223.447 628.816 224.002 Q631.351 224.592 632.757 226.311 Q634.181 228.03 634.181 230.513 Q634.181 234.28 631.872 236.294 Q629.58 238.308 625.292 238.308 Q621.004 238.308 618.695 236.294 Q616.403 234.28 616.403 230.513 Q616.403 228.03 617.827 226.311 Q619.25 224.592 621.785 224.002 M620.5 218.464 Q620.5 220.478 621.75 221.606 Q623.018 222.735 625.292 222.735 Q627.549 222.735 628.816 221.606 Q630.101 220.478 630.101 218.464 Q630.101 216.45 628.816 215.322 Q627.549 214.193 625.292 214.193 Q623.018 214.193 621.75 215.322 Q620.5 216.45 620.5 218.464 Z" fill="#000000" fill-rule="evenodd" fill-opacity="1" /><path clip-path="url(#clip590)" d="M 0 0 M481.717 137.498 L481.717 134.304 Q483.036 134.929 484.391 135.258 Q485.745 135.588 487.047 135.588 Q490.519 135.588 492.342 133.262 Q494.182 130.918 494.443 126.161 Q493.436 127.654 491.891 128.453 Q490.345 129.252 488.47 129.252 Q484.582 129.252 482.307 126.908 Q480.05 124.547 480.05 120.467 Q480.05 116.474 482.411 114.061 Q484.773 111.647 488.696 111.647 Q493.193 111.647 495.554 115.102 Q497.932 118.54 497.932 125.102 Q497.932 131.231 495.016 134.894 Q492.116 138.54 487.203 138.54 Q485.884 138.54 484.53 138.279 Q483.175 138.019 481.717 137.498 M488.696 126.508 Q491.057 126.508 492.429 124.894 Q493.818 123.279 493.818 120.467 Q493.818 117.672 492.429 116.057 Q491.057 114.425 488.696 114.425 Q486.335 114.425 484.946 116.057 Q483.575 117.672 483.575 120.467 Q483.575 123.279 484.946 124.894 Q486.335 126.508 488.696 126.508 Z" fill="#000000" fill-rule="evenodd" fill-opacity="1" /><path clip-path="url(#clip590)" d="M 0 0 M548.73 85.2008 L554.459 85.2008 L554.459 65.4266 L548.227 66.6766 L548.227 63.4822 L554.425 62.2322 L557.932 62.2322 L557.932 85.2008 L563.661 85.2008 L563.661 88.1522 L548.73 88.1522 L548.73 85.2008 Z" fill="#000000" fill-rule="evenodd" fill-opacity="1" /><path clip-path="url(#clip590)" d="M 0 0 M578.244 64.5412 Q575.536 64.5412 574.164 67.2148 Q572.81 69.8711 572.81 75.2183 Q572.81 80.5481 574.164 83.2217 Q575.536 85.8779 578.244 85.8779 Q580.97 85.8779 582.324 83.2217 Q583.695 80.5481 583.695 75.2183 Q583.695 69.8711 582.324 67.2148 Q580.97 64.5412 578.244 64.5412 M578.244 61.7635 Q582.602 61.7635 584.893 65.2183 Q587.202 68.6558 587.202 75.2183 Q587.202 81.7634 584.893 85.2182 Q582.602 88.6557 578.244 88.6557 Q573.886 88.6557 571.577 85.2182 Q569.286 81.7634 569.286 75.2183 Q569.286 68.6558 571.577 65.2183 Q573.886 61.7635 578.244 61.7635 Z" fill="#000000" fill-rule="evenodd" fill-opacity="1" /><path clip-path="url(#clip590)" d="M 0 0 M480.554 534.157 L486.283 534.157 L486.283 514.382 L480.05 515.632 L480.05 512.438 L486.248 511.188 L489.755 511.188 L489.755 534.157 L495.484 534.157 L495.484 537.108 L480.554 537.108 L480.554 534.157 Z" fill="#000000" fill-rule="evenodd" fill-opacity="1" /><path clip-path="url(#clip590)" d="M 0 0 M505.588 534.157 L517.828 534.157 L517.828 537.108 L501.37 537.108 L501.37 534.157 Q503.366 532.091 506.804 528.618 Q510.259 525.129 511.144 524.122 Q512.828 522.23 513.488 520.928 Q514.165 519.608 514.165 518.341 Q514.165 516.275 512.706 514.973 Q511.266 513.671 508.939 513.671 Q507.29 513.671 505.45 514.244 Q503.627 514.816 501.543 515.98 L501.543 512.438 Q503.661 511.587 505.502 511.153 Q507.342 510.719 508.87 510.719 Q512.897 510.719 515.293 512.733 Q517.689 514.747 517.689 518.115 Q517.689 519.712 517.081 521.153 Q516.491 522.577 514.911 524.521 Q514.477 525.025 512.151 527.438 Q509.825 529.834 505.588 534.157 Z" fill="#000000" fill-rule="evenodd" fill-opacity="1" /><path clip-path="url(#clip590)" d="M 0 0 M616.907 534.157 L622.636 534.157 L622.636 514.382 L616.403 515.632 L616.403 512.438 L622.601 511.188 L626.108 511.188 L626.108 534.157 L631.837 534.157 L631.837 537.108 L616.907 537.108 L616.907 534.157 Z" fill="#000000" fill-rule="evenodd" fill-opacity="1" /><path clip-path="url(#clip590)" d="M 0 0 M648.556 514.244 L639.702 528.08 L648.556 528.08 L648.556 514.244 M647.636 511.188 L652.045 511.188 L652.045 528.08 L655.743 528.08 L655.743 530.997 L652.045 530.997 L652.045 537.108 L648.556 537.108 L648.556 530.997 L636.854 530.997 L636.854 527.611 L647.636 511.188 Z" fill="#000000" fill-rule="evenodd" fill-opacity="1" /><path clip-path="url(#clip590)" d="M 0 0 M480.554 434.389 L486.283 434.389 L486.283 414.614 L480.05 415.864 L480.05 412.67 L486.248 411.42 L489.755 411.42 L489.755 434.389 L495.484 434.389 L495.484 437.34 L480.554 437.34 L480.554 434.389 Z" fill="#000000" fill-rule="evenodd" fill-opacity="1" /><path clip-path="url(#clip590)" d="M 0 0 M502.602 411.42 L516.37 411.42 L516.37 414.371 L505.814 414.371 L505.814 420.726 Q506.578 420.465 507.342 420.344 Q508.106 420.205 508.87 420.205 Q513.21 420.205 515.745 422.583 Q518.279 424.962 518.279 429.024 Q518.279 433.208 515.675 435.534 Q513.071 437.843 508.331 437.843 Q506.7 437.843 504.998 437.566 Q503.314 437.288 501.509 436.732 L501.509 433.208 Q503.071 434.059 504.738 434.475 Q506.404 434.892 508.262 434.892 Q511.266 434.892 513.019 433.312 Q514.772 431.732 514.772 429.024 Q514.772 426.316 513.019 424.736 Q511.266 423.156 508.262 423.156 Q506.856 423.156 505.45 423.469 Q504.061 423.781 502.602 424.441 L502.602 411.42 Z" fill="#000000" fill-rule="evenodd" fill-opacity="1" /><path clip-path="url(#clip590)" d="M 0 0 M548.73 384.505 L554.459 384.505 L554.459 364.73 L548.227 365.98 L548.227 362.786 L554.425 361.536 L557.932 361.536 L557.932 384.505 L563.661 384.505 L563.661 387.456 L548.73 387.456 L548.73 384.505 Z" fill="#000000" fill-rule="evenodd" fill-opacity="1" /><path clip-path="url(#clip590)" d="M 0 0 M578.678 373.098 Q576.317 373.098 574.928 374.713 Q573.556 376.328 573.556 379.14 Q573.556 381.935 574.928 383.567 Q576.317 385.182 578.678 385.182 Q581.039 385.182 582.411 383.567 Q583.799 381.935 583.799 379.14 Q583.799 376.328 582.411 374.713 Q581.039 373.098 578.678 373.098 M585.64 362.109 L585.64 365.303 Q584.32 364.678 582.966 364.349 Q581.629 364.019 580.31 364.019 Q576.838 364.019 574.997 366.362 Q573.175 368.706 572.914 373.446 Q573.938 371.935 575.484 371.137 Q577.029 370.321 578.886 370.321 Q582.793 370.321 585.049 372.699 Q587.324 375.06 587.324 379.14 Q587.324 383.133 584.963 385.546 Q582.602 387.96 578.678 387.96 Q574.181 387.96 571.803 384.522 Q569.425 381.067 569.425 374.522 Q569.425 368.376 572.341 364.73 Q575.258 361.067 580.171 361.067 Q581.49 361.067 582.827 361.328 Q584.181 361.588 585.64 362.109 Z" fill="#000000" fill-rule="evenodd" fill-opacity="1" /><path clip-path="url(#clip590)" d="M 0 0 M480.554 234.853 L486.283 234.853 L486.283 215.079 L480.05 216.329 L480.05 213.134 L486.248 211.884 L489.755 211.884 L489.755 234.853 L495.484 234.853 L495.484 237.804 L480.554 237.804 L480.554 234.853 Z" fill="#000000" fill-rule="evenodd" fill-opacity="1" /><path clip-path="url(#clip590)" d="M 0 0 M510.068 225.495 Q507.568 225.495 506.127 226.832 Q504.703 228.169 504.703 230.513 Q504.703 232.856 506.127 234.193 Q507.568 235.53 510.068 235.53 Q512.568 235.53 514.009 234.193 Q515.45 232.839 515.45 230.513 Q515.45 228.169 514.009 226.832 Q512.585 225.495 510.068 225.495 M506.561 224.002 Q504.304 223.447 503.036 221.901 Q501.786 220.356 501.786 218.134 Q501.786 215.026 503.991 213.221 Q506.213 211.415 510.068 211.415 Q513.939 211.415 516.144 213.221 Q518.349 215.026 518.349 218.134 Q518.349 220.356 517.081 221.901 Q515.831 223.447 513.592 224.002 Q516.127 224.592 517.533 226.311 Q518.956 228.03 518.956 230.513 Q518.956 234.28 516.647 236.294 Q514.356 238.308 510.068 238.308 Q505.779 238.308 503.47 236.294 Q501.179 234.28 501.179 230.513 Q501.179 228.03 502.602 226.311 Q504.026 224.592 506.561 224.002 M505.276 218.464 Q505.276 220.478 506.526 221.606 Q507.793 222.735 510.068 222.735 Q512.325 222.735 513.592 221.606 Q514.877 220.478 514.877 218.464 Q514.877 216.45 513.592 215.322 Q512.325 214.193 510.068 214.193 Q507.793 214.193 506.526 215.322 Q505.276 216.45 505.276 218.464 Z" fill="#000000" fill-rule="evenodd" fill-opacity="1" /><path clip-path="url(#clip590)" d="M 0 0 M753.259 434.389 L758.989 434.389 L758.989 414.614 L752.756 415.864 L752.756 412.67 L758.954 411.42 L762.461 411.42 L762.461 434.389 L768.19 434.389 L768.19 437.34 L753.259 437.34 L753.259 434.389 Z" fill="#000000" fill-rule="evenodd" fill-opacity="1" /><path clip-path="url(#clip590)" d="M 0 0 M775.377 436.802 L775.377 433.607 Q776.697 434.232 778.051 434.562 Q779.405 434.892 780.707 434.892 Q784.179 434.892 786.002 432.566 Q787.843 430.222 788.103 425.465 Q787.096 426.958 785.551 427.757 Q784.006 428.555 782.131 428.555 Q778.242 428.555 775.968 426.212 Q773.711 423.851 773.711 419.771 Q773.711 415.778 776.072 413.364 Q778.433 410.951 782.356 410.951 Q786.853 410.951 789.214 414.406 Q791.593 417.844 791.593 424.406 Q791.593 430.535 788.676 434.198 Q785.777 437.843 780.863 437.843 Q779.544 437.843 778.19 437.583 Q776.836 437.323 775.377 436.802 M782.356 425.812 Q784.718 425.812 786.089 424.198 Q787.478 422.583 787.478 419.771 Q787.478 416.976 786.089 415.361 Q784.718 413.729 782.356 413.729 Q779.995 413.729 778.606 415.361 Q777.235 416.976 777.235 419.771 Q777.235 422.583 778.606 424.198 Q779.995 425.812 782.356 425.812 Z" fill="#000000" fill-rule="evenodd" fill-opacity="1" /><path clip-path="url(#clip590)" d="M 0 0 M688.798 284.737 L701.038 284.737 L701.038 287.688 L684.58 287.688 L684.58 284.737 Q686.576 282.671 690.014 279.199 Q693.468 275.709 694.354 274.702 Q696.038 272.81 696.698 271.508 Q697.375 270.188 697.375 268.921 Q697.375 266.855 695.916 265.553 Q694.475 264.251 692.149 264.251 Q690.5 264.251 688.659 264.824 Q686.836 265.397 684.753 266.56 L684.753 263.018 Q686.871 262.167 688.711 261.733 Q690.552 261.299 692.079 261.299 Q696.107 261.299 698.503 263.313 Q700.899 265.327 700.899 268.695 Q700.899 270.292 700.291 271.733 Q699.701 273.157 698.121 275.101 Q697.687 275.605 695.361 278.018 Q693.034 280.414 688.798 284.737 Z" fill="#000000" fill-rule="evenodd" fill-opacity="1" /><path clip-path="url(#clip590)" d="M 0 0 M709.006 284.737 L714.736 284.737 L714.736 264.963 L708.503 266.213 L708.503 263.018 L714.701 261.768 L718.208 261.768 L718.208 284.737 L723.937 284.737 L723.937 287.688 L709.006 287.688 L709.006 284.737 Z" fill="#000000" fill-rule="evenodd" fill-opacity="1" /><path clip-path="url(#clip590)" d="M 0 0 M756.975 234.853 L769.214 234.853 L769.214 237.804 L752.756 237.804 L752.756 234.853 Q754.752 232.787 758.19 229.315 Q761.645 225.825 762.53 224.818 Q764.214 222.926 764.874 221.624 Q765.551 220.304 765.551 219.037 Q765.551 216.971 764.093 215.669 Q762.652 214.367 760.325 214.367 Q758.676 214.367 756.836 214.94 Q755.013 215.513 752.93 216.676 L752.93 213.134 Q755.048 212.283 756.888 211.849 Q758.728 211.415 760.256 211.415 Q764.284 211.415 766.679 213.429 Q769.075 215.443 769.075 218.811 Q769.075 220.408 768.468 221.849 Q767.877 223.273 766.297 225.217 Q765.863 225.721 763.537 228.134 Q761.211 230.53 756.975 234.853 Z" fill="#000000" fill-rule="evenodd" fill-opacity="1" /><path clip-path="url(#clip590)" d="M 0 0 M779.596 234.853 L791.836 234.853 L791.836 237.804 L775.377 237.804 L775.377 234.853 Q777.374 232.787 780.811 229.315 Q784.266 225.825 785.152 224.818 Q786.836 222.926 787.495 221.624 Q788.172 220.304 788.172 219.037 Q788.172 216.971 786.714 215.669 Q785.273 214.367 782.947 214.367 Q781.297 214.367 779.457 214.94 Q777.634 215.513 775.551 216.676 L775.551 213.134 Q777.669 212.283 779.509 211.849 Q781.35 211.415 782.877 211.415 Q786.905 211.415 789.301 213.429 Q791.697 215.443 791.697 218.811 Q791.697 220.408 791.089 221.849 Q790.499 223.273 788.919 225.217 Q788.485 225.721 786.159 228.134 Q783.832 230.53 779.596 234.853 Z" fill="#000000" fill-rule="evenodd" fill-opacity="1" /><path clip-path="url(#clip590)" d="M 0 0 M620.622 135.085 L632.861 135.085 L632.861 138.036 L616.403 138.036 L616.403 135.085 Q618.4 133.019 621.837 129.547 Q625.292 126.057 626.177 125.05 Q627.861 123.158 628.521 121.856 Q629.198 120.536 629.198 119.269 Q629.198 117.203 627.74 115.901 Q626.299 114.599 623.973 114.599 Q622.323 114.599 620.483 115.172 Q618.66 115.745 616.577 116.908 L616.577 113.366 Q618.695 112.515 620.535 112.081 Q622.375 111.647 623.903 111.647 Q627.931 111.647 630.327 113.661 Q632.723 115.675 632.723 119.043 Q632.723 120.64 632.115 122.081 Q631.525 123.505 629.945 125.449 Q629.511 125.953 627.184 128.366 Q624.858 130.762 620.622 135.085 Z" fill="#000000" fill-rule="evenodd" fill-opacity="1" /><path clip-path="url(#clip590)" d="M 0 0 M650.847 124.061 Q653.365 124.599 654.771 126.3 Q656.195 128.002 656.195 130.502 Q656.195 134.338 653.556 136.439 Q650.917 138.54 646.056 138.54 Q644.424 138.54 642.688 138.21 Q640.969 137.897 639.129 137.255 L639.129 133.87 Q640.587 134.72 642.323 135.154 Q644.059 135.588 645.952 135.588 Q649.25 135.588 650.969 134.286 Q652.705 132.984 652.705 130.502 Q652.705 128.21 651.09 126.925 Q649.493 125.623 646.629 125.623 L643.608 125.623 L643.608 122.741 L646.768 122.741 Q649.354 122.741 650.726 121.717 Q652.097 120.675 652.097 118.731 Q652.097 116.734 650.674 115.675 Q649.268 114.599 646.629 114.599 Q645.188 114.599 643.538 114.911 Q641.889 115.224 639.91 115.884 L639.91 112.759 Q641.906 112.203 643.643 111.925 Q645.396 111.647 646.941 111.647 Q650.934 111.647 653.261 113.47 Q655.587 115.276 655.587 118.366 Q655.587 120.519 654.354 122.012 Q653.122 123.488 650.847 124.061 Z" fill="#000000" fill-rule="evenodd" fill-opacity="1" /><path clip-path="url(#clip590)" d="M 0 0 M688.798 683.809 L701.038 683.809 L701.038 686.76 L684.58 686.76 L684.58 683.809 Q686.576 681.743 690.014 678.27 Q693.468 674.781 694.354 673.774 Q696.038 671.881 696.698 670.579 Q697.375 669.26 697.375 667.993 Q697.375 665.927 695.916 664.625 Q694.475 663.323 692.149 663.323 Q690.5 663.323 688.659 663.895 Q686.836 664.468 684.753 665.632 L684.753 662.09 Q686.871 661.239 688.711 660.805 Q690.552 660.371 692.079 660.371 Q696.107 660.371 698.503 662.385 Q700.899 664.399 700.899 667.767 Q700.899 669.364 700.291 670.805 Q699.701 672.229 698.121 674.173 Q697.687 674.677 695.361 677.09 Q693.034 679.486 688.798 683.809 Z" fill="#000000" fill-rule="evenodd" fill-opacity="1" /><path clip-path="url(#clip590)" d="M 0 0 M718.034 663.895 L709.18 677.732 L718.034 677.732 L718.034 663.895 M717.114 660.84 L721.524 660.84 L721.524 677.732 L725.222 677.732 L725.222 680.649 L721.524 680.649 L721.524 686.76 L718.034 686.76 L718.034 680.649 L706.333 680.649 L706.333 677.263 L717.114 660.84 Z" fill="#000000" fill-rule="evenodd" fill-opacity="1" /><circle clip-path="url(#clip592)" cx="684.58" cy="95.9282" r="14" fill="#0000ff" fill-rule="evenodd" fill-opacity="1" stroke="none"/>
<path clip-path="url(#clip590)" d="M 0 0 M688.798 85.2008 L701.038 85.2008 L701.038 88.1522 L684.58 88.1522 L684.58 85.2008 Q686.576 83.1349 690.014 79.6627 Q693.468 76.1731 694.354 75.1662 Q696.038 73.2738 696.698 71.9718 Q697.375 70.6523 697.375 69.385 Q697.375 67.319 695.916 66.0169 Q694.475 64.7148 692.149 64.7148 Q690.5 64.7148 688.659 65.2878 Q686.836 65.8607 684.753 67.0239 L684.753 63.4822 Q686.871 62.6315 688.711 62.1975 Q690.552 61.7635 692.079 61.7635 Q696.107 61.7635 698.503 63.7774 Q700.899 65.7912 700.899 69.1593 Q700.899 70.7565 700.291 72.1974 Q699.701 73.621 698.121 75.5655 Q697.687 76.069 695.361 78.4821 Q693.034 80.878 688.798 85.2008 Z" fill="#000000" fill-rule="evenodd" fill-opacity="1" /><path clip-path="url(#clip590)" d="M 0 0 M718.034 65.2878 L709.18 79.1245 L718.034 79.1245 L718.034 65.2878 M717.114 62.2322 L721.524 62.2322 L721.524 79.1245 L725.222 79.1245 L725.222 82.0411 L721.524 82.0411 L721.524 88.1522 L718.034 88.1522 L718.034 82.0411 L706.333 82.0411 L706.333 78.6557 L717.114 62.2322 Z" fill="#000000" fill-rule="evenodd" fill-opacity="1" /></svg>
