<?xml version="1.0" encoding="utf-8"?>
<svg xmlns="http://www.w3.org/2000/svg" xmlns:xlink="http://www.w3.org/1999/xlink" width="200" height="250" viewBox="0 0 800 1000">
<defs>
  <clipPath id="clip120">
    <rect x="0" y="0" width="800" height="1000"/>
  </clipPath>
</defs>
<path clip-path="url(#clip120)" d="
M0 1000 L800 1000 L800 0 L0 0  Z
  " fill="#ffffff" fill-rule="evenodd" fill-opacity="1"/>
<defs>
  <clipPath id="clip121">
    <rect x="200" y="100" width="701" height="701"/>
  </clipPath>
</defs>
<path clip-path="url(#clip120)" d="
M70.9921 927.008 L752.756 927.008 L752.756 62.9921 L70.9921 62.9921  Z
  " fill="#ffffff" fill-rule="evenodd" fill-opacity="1"/>
<defs>
  <clipPath id="clip122">
    <rect x="70" y="62" width="683" height="865"/>
  </clipPath>
</defs>
<polyline clip-path="url(#clip120)" style="stroke:#000000; stroke-width:4; stroke-opacity:1; fill:none" points="
  70.9921,927.008 752.756,927.008 
  "/>
<polyline clip-path="url(#clip120)" style="stroke:#000000; stroke-width:4; stroke-opacity:1; fill:none" points="
  70.9921,927.008 70.9921,62.9921 
  "/>
<polyline clip-path="url(#clip120)" style="stroke:#000000; stroke-width:4; stroke-opacity:1; fill:none" points="
  139.169,927.008 139.169,916.64 
  "/>
<polyline clip-path="url(#clip120)" style="stroke:#000000; stroke-width:4; stroke-opacity:1; fill:none" points="
  275.521,927.008 275.521,916.64 
  "/>
<polyline clip-path="url(#clip120)" style="stroke:#000000; stroke-width:4; stroke-opacity:1; fill:none" points="
  411.874,927.008 411.874,916.64 
  "/>
<polyline clip-path="url(#clip120)" style="stroke:#000000; stroke-width:4; stroke-opacity:1; fill:none" points="
  548.227,927.008 548.227,916.64 
  "/>
<polyline clip-path="url(#clip120)" style="stroke:#000000; stroke-width:4; stroke-opacity:1; fill:none" points="
  684.58,927.008 684.58,916.64 
  "/>
<polyline clip-path="url(#clip120)" style="stroke:#000000; stroke-width:4; stroke-opacity:1; fill:none" points="
  70.9921,840.606 79.1733,840.606 
  "/>
<polyline clip-path="url(#clip120)" style="stroke:#000000; stroke-width:4; stroke-opacity:1; fill:none" points="
  70.9921,667.803 79.1733,667.803 
  "/>
<polyline clip-path="url(#clip120)" style="stroke:#000000; stroke-width:4; stroke-opacity:1; fill:none" points="
  70.9921,495 79.1733,495 
  "/>
<polyline clip-path="url(#clip120)" style="stroke:#000000; stroke-width:4; stroke-opacity:1; fill:none" points="
  70.9921,322.197 79.1733,322.197 
  "/>
<polyline clip-path="url(#clip120)" style="stroke:#000000; stroke-width:4; stroke-opacity:1; fill:none" points="
  70.9921,149.394 79.1733,149.394 
  "/>
<path clip-path="url(#clip120)" d="M 0 0 M120.222 958.596 L132.699 958.596 L132.699 962.392 L120.222 962.392 L120.222 958.596 Z" fill="#000000" fill-rule="evenodd" fill-opacity="1" /><path clip-path="url(#clip120)" d="M 0 0 M141.796 969.545 L158.115 969.545 L158.115 973.48 L136.171 973.48 L136.171 969.545 Q138.833 966.79 143.416 962.16 Q148.023 957.508 149.203 956.165 Q151.449 953.642 152.328 951.906 Q153.231 950.147 153.231 948.457 Q153.231 945.702 151.286 943.966 Q149.365 942.23 146.263 942.23 Q144.064 942.23 141.611 942.994 Q139.18 943.758 136.402 945.309 L136.402 940.587 Q139.226 939.452 141.68 938.874 Q144.134 938.295 146.171 938.295 Q151.541 938.295 154.736 940.98 Q157.93 943.665 157.93 948.156 Q157.93 950.286 157.12 952.207 Q156.333 954.105 154.226 956.698 Q153.648 957.369 150.546 960.586 Q147.444 963.781 141.796 969.545 Z" fill="#000000" fill-rule="evenodd" fill-opacity="1" /><path clip-path="url(#clip120)" d="M 0 0 M256.389 958.596 L268.866 958.596 L268.866 962.392 L256.389 962.392 L256.389 958.596 Z" fill="#000000" fill-rule="evenodd" fill-opacity="1" /><path clip-path="url(#clip120)" d="M 0 0 M274.746 969.545 L282.385 969.545 L282.385 943.179 L274.075 944.846 L274.075 940.587 L282.338 938.92 L287.014 938.92 L287.014 969.545 L294.653 969.545 L294.653 973.48 L274.746 973.48 L274.746 969.545 Z" fill="#000000" fill-rule="evenodd" fill-opacity="1" /><path clip-path="url(#clip120)" d="M 0 0 M411.874 941.999 Q408.263 941.999 406.434 945.563 Q404.629 949.105 404.629 956.235 Q404.629 963.341 406.434 966.906 Q408.263 970.447 411.874 970.447 Q415.508 970.447 417.314 966.906 Q419.142 963.341 419.142 956.235 Q419.142 949.105 417.314 945.563 Q415.508 941.999 411.874 941.999 M411.874 938.295 Q417.684 938.295 420.74 942.901 Q423.818 947.485 423.818 956.235 Q423.818 964.961 420.74 969.568 Q417.684 974.151 411.874 974.151 Q406.064 974.151 402.985 969.568 Q399.93 964.961 399.93 956.235 Q399.93 947.485 402.985 942.901 Q406.064 938.295 411.874 938.295 Z" fill="#000000" fill-rule="evenodd" fill-opacity="1" /><path clip-path="url(#clip120)" d="M 0 0 M538.609 969.545 L546.248 969.545 L546.248 943.179 L537.937 944.846 L537.937 940.587 L546.201 938.92 L550.877 938.92 L550.877 969.545 L558.516 969.545 L558.516 973.48 L538.609 973.48 L538.609 969.545 Z" fill="#000000" fill-rule="evenodd" fill-opacity="1" /><path clip-path="url(#clip120)" d="M 0 0 M679.232 969.545 L695.552 969.545 L695.552 973.48 L673.607 973.48 L673.607 969.545 Q676.269 966.79 680.853 962.16 Q685.459 957.508 686.64 956.165 Q688.885 953.642 689.765 951.906 Q690.667 950.147 690.667 948.457 Q690.667 945.702 688.723 943.966 Q686.802 942.23 683.7 942.23 Q681.501 942.23 679.047 942.994 Q676.617 943.758 673.839 945.309 L673.839 940.587 Q676.663 939.452 679.117 938.874 Q681.57 938.295 683.607 938.295 Q688.978 938.295 692.172 940.98 Q695.367 943.665 695.367 948.156 Q695.367 950.286 694.556 952.207 Q693.769 954.105 691.663 956.698 Q691.084 957.369 687.982 960.586 Q684.88 963.781 679.232 969.545 Z" fill="#000000" fill-rule="evenodd" fill-opacity="1" /><path clip-path="url(#clip120)" d="M 0 0 M23.0988 843.002 L35.5756 843.002 L35.5756 846.798 L23.0988 846.798 L23.0988 843.002 Z" fill="#000000" fill-rule="evenodd" fill-opacity="1" /><path clip-path="url(#clip120)" d="M 0 0 M44.6728 853.951 L60.9921 853.951 L60.9921 857.886 L39.0478 857.886 L39.0478 853.951 Q41.7098 851.197 46.2931 846.567 Q50.8996 841.914 52.0801 840.572 Q54.3255 838.048 55.2051 836.312 Q56.1079 834.553 56.1079 832.863 Q56.1079 830.109 54.1635 828.373 Q52.2422 826.636 49.1403 826.636 Q46.9413 826.636 44.4876 827.4 Q42.057 828.164 39.2793 829.715 L39.2793 824.993 Q42.1033 823.859 44.557 823.28 Q47.0107 822.701 49.0477 822.701 Q54.4181 822.701 57.6125 825.386 Q60.8069 828.072 60.8069 832.562 Q60.8069 834.692 59.9968 836.613 Q59.2097 838.511 57.1033 841.104 Q56.5246 841.775 53.4227 844.993 Q50.3209 848.187 44.6728 853.951 Z" fill="#000000" fill-rule="evenodd" fill-opacity="1" /><path clip-path="url(#clip120)" d="M 0 0 M22.7284 670.199 L35.2052 670.199 L35.2052 673.995 L22.7284 673.995 L22.7284 670.199 Z" fill="#000000" fill-rule="evenodd" fill-opacity="1" /><path clip-path="url(#clip120)" d="M 0 0 M41.0848 681.148 L48.7237 681.148 L48.7237 654.782 L40.4135 656.449 L40.4135 652.19 L48.6774 650.523 L53.3533 650.523 L53.3533 681.148 L60.9921 681.148 L60.9921 685.083 L41.0848 685.083 L41.0848 681.148 Z" fill="#000000" fill-rule="evenodd" fill-opacity="1" /><path clip-path="url(#clip120)" d="M 0 0 M49.0477 480.799 Q45.4367 480.799 43.608 484.363 Q41.8024 487.905 41.8024 495.035 Q41.8024 502.141 43.608 505.706 Q45.4367 509.248 49.0477 509.248 Q52.682 509.248 54.4875 505.706 Q56.3162 502.141 56.3162 495.035 Q56.3162 487.905 54.4875 484.363 Q52.682 480.799 49.0477 480.799 M49.0477 477.095 Q54.8579 477.095 57.9134 481.701 Q60.9921 486.285 60.9921 495.035 Q60.9921 503.762 57.9134 508.368 Q54.8579 512.951 49.0477 512.951 Q43.2376 512.951 40.1589 508.368 Q37.1034 503.762 37.1034 495.035 Q37.1034 486.285 40.1589 481.701 Q43.2376 477.095 49.0477 477.095 Z" fill="#000000" fill-rule="evenodd" fill-opacity="1" /><path clip-path="url(#clip120)" d="M 0 0 M41.0848 335.542 L48.7237 335.542 L48.7237 309.176 L40.4135 310.843 L40.4135 306.584 L48.6774 304.917 L53.3533 304.917 L53.3533 335.542 L60.9921 335.542 L60.9921 339.477 L41.0848 339.477 L41.0848 335.542 Z" fill="#000000" fill-rule="evenodd" fill-opacity="1" /><path clip-path="url(#clip120)" d="M 0 0 M44.6728 162.739 L60.9921 162.739 L60.9921 166.674 L39.0478 166.674 L39.0478 162.739 Q41.7098 159.984 46.2931 155.354 Q50.8996 150.702 52.0801 149.359 Q54.3255 146.836 55.2051 145.1 Q56.1079 143.34 56.1079 141.651 Q56.1079 138.896 54.1635 137.16 Q52.2422 135.424 49.1403 135.424 Q46.9413 135.424 44.4876 136.188 Q42.057 136.952 39.2793 138.503 L39.2793 133.78 Q42.1033 132.646 44.557 132.067 Q47.0107 131.489 49.0477 131.489 Q54.4181 131.489 57.6125 134.174 Q60.8069 136.859 60.8069 141.35 Q60.8069 143.479 59.9968 145.401 Q59.2097 147.299 57.1033 149.891 Q56.5246 150.563 53.4227 153.78 Q50.3209 156.975 44.6728 162.739 Z" fill="#000000" fill-rule="evenodd" fill-opacity="1" /><path clip-path="url(#clip120)" d="M 0 0 M361.215 5.45367 L371.029 5.45367 L371.029 8.76384 L365.474 8.76384 L365.474 44.4118 L371.029 44.4118 L371.029 47.722 L361.215 47.722 L361.215 5.45367 Z" fill="#000000" fill-rule="evenodd" fill-opacity="1" /><path clip-path="url(#clip120)" d="M 0 0 M376.909 37.5368 L384.548 37.5368 L384.548 11.1712 L376.238 12.8379 L376.238 8.57866 L384.501 6.912 L389.177 6.912 L389.177 37.5368 L396.816 37.5368 L396.816 41.472 L376.909 41.472 L376.909 37.5368 Z" fill="#000000" fill-rule="evenodd" fill-opacity="1" /><path clip-path="url(#clip120)" d="M 0 0 M402.372 35.5924 L407.256 35.5924 L407.256 39.5739 L403.46 46.9812 L400.474 46.9812 L402.372 39.5739 L402.372 35.5924 Z" fill="#000000" fill-rule="evenodd" fill-opacity="1" /><path clip-path="url(#clip120)" d="M 0 0 M428.205 37.5368 L435.844 37.5368 L435.844 11.1712 L427.534 12.8379 L427.534 8.57866 L435.797 6.912 L440.473 6.912 L440.473 37.5368 L448.112 37.5368 L448.112 41.472 L428.205 41.472 L428.205 37.5368 Z" fill="#000000" fill-rule="evenodd" fill-opacity="1" /><path clip-path="url(#clip120)" d="M 0 0 M462.533 5.45367 L462.533 47.722 L452.719 47.722 L452.719 44.4118 L458.251 44.4118 L458.251 8.76384 L452.719 8.76384 L452.719 5.45367 L462.533 5.45367 Z" fill="#000000" fill-rule="evenodd" fill-opacity="1" /><circle clip-path="url(#clip122)" cx="139.169" cy="894.072" r="14" fill="#0000ff" fill-rule="evenodd" fill-opacity="1" stroke="none"/>
<path clip-path="url(#clip120)" d="M 0 0 M139.169 860.376 L155.835 860.376 L155.835 861.869 L146.425 886.296 L142.762 886.296 L151.616 863.327 L139.169 863.327 L139.169 860.376 Z" fill="#000000" fill-rule="evenodd" fill-opacity="1" /><circle clip-path="url(#clip122)" cx="139.169" cy="594.768" r="14" fill="#0000ff" fill-rule="evenodd" fill-opacity="1" stroke="none"/>
<circle clip-path="url(#clip122)" cx="139.169" cy="694.536" r="14" fill="#0000ff" fill-rule="evenodd" fill-opacity="1" stroke="none"/>
<circle clip-path="url(#clip122)" cx="275.521" cy="594.768" r="14" fill="#0000ff" fill-rule="evenodd" fill-opacity="1" stroke="none"/>
<circle clip-path="url(#clip122)" cx="275.521" cy="694.536" r="14" fill="#0000ff" fill-rule="evenodd" fill-opacity="1" stroke="none"/>
<circle clip-path="url(#clip122)" cx="411.874" cy="594.768" r="14" fill="#0000ff" fill-rule="evenodd" fill-opacity="1" stroke="none"/>
<circle clip-path="url(#clip122)" cx="411.874" cy="694.536" r="14" fill="#0000ff" fill-rule="evenodd" fill-opacity="1" stroke="none"/>
<circle clip-path="url(#clip122)" cx="139.169" cy="295.464" r="14" fill="#0000ff" fill-rule="evenodd" fill-opacity="1" stroke="none"/>
<circle clip-path="url(#clip122)" cx="139.169" cy="395.232" r="14" fill="#0000ff" fill-rule="evenodd" fill-opacity="1" stroke="none"/>
<circle clip-path="url(#clip122)" cx="275.521" cy="894.072" r="14" fill="#0000ff" fill-rule="evenodd" fill-opacity="1" stroke="none"/>
<circle clip-path="url(#clip122)" cx="411.874" cy="894.072" r="14" fill="#0000ff" fill-rule="evenodd" fill-opacity="1" stroke="none"/>
<circle clip-path="url(#clip122)" cx="343.698" cy="445.116" r="14" fill="#0000ff" fill-rule="evenodd" fill-opacity="1" stroke="none"/>
<circle clip-path="url(#clip122)" cx="343.698" cy="544.884" r="14" fill="#0000ff" fill-rule="evenodd" fill-opacity="1" stroke="none"/>
<circle clip-path="url(#clip122)" cx="70.9921" cy="744.42" r="14" fill="#0000ff" fill-rule="evenodd" fill-opacity="1" stroke="none"/>
<circle clip-path="url(#clip122)" cx="70.9921" cy="844.188" r="14" fill="#0000ff" fill-rule="evenodd" fill-opacity="1" stroke="none"/>
<circle clip-path="url(#clip122)" cx="207.345" cy="744.42" r="14" fill="#0000ff" fill-rule="evenodd" fill-opacity="1" stroke="none"/>
<circle clip-path="url(#clip122)" cx="207.345" cy="844.188" r="14" fill="#0000ff" fill-rule="evenodd" fill-opacity="1" stroke="none"/>
<circle clip-path="url(#clip122)" cx="343.698" cy="744.42" r="14" fill="#0000ff" fill-rule="evenodd" fill-opacity="1" stroke="none"/>
<circle clip-path="url(#clip122)" cx="343.698" cy="844.188" r="14" fill="#0000ff" fill-rule="evenodd" fill-opacity="1" stroke="none"/>
<circle clip-path="url(#clip122)" cx="70.9921" cy="445.116" r="14" fill="#0000ff" fill-rule="evenodd" fill-opacity="1" stroke="none"/>
<circle clip-path="url(#clip122)" cx="70.9921" cy="544.884" r="14" fill="#0000ff" fill-rule="evenodd" fill-opacity="1" stroke="none"/>
<circle clip-path="url(#clip122)" cx="207.345" cy="445.116" r="14" fill="#0000ff" fill-rule="evenodd" fill-opacity="1" stroke="none"/>
<circle clip-path="url(#clip122)" cx="207.345" cy="544.884" r="14" fill="#0000ff" fill-rule="evenodd" fill-opacity="1" stroke="none"/>
<path clip-path="url(#clip120)" d="M 0 0 M139.672 584.041 L145.401 584.041 L145.401 564.266 L139.169 565.516 L139.169 562.322 L145.366 561.072 L148.873 561.072 L148.873 584.041 L154.602 584.041 L154.602 586.992 L139.672 586.992 L139.672 584.041 Z" fill="#000000" fill-rule="evenodd" fill-opacity="1" /><path clip-path="url(#clip120)" d="M 0 0 M143.387 683.809 L155.627 683.809 L155.627 686.76 L139.169 686.76 L139.169 683.809 Q141.165 681.743 144.603 678.27 Q148.057 674.781 148.943 673.774 Q150.627 671.881 151.286 670.579 Q151.964 669.26 151.964 667.993 Q151.964 665.927 150.505 664.625 Q149.064 663.323 146.738 663.323 Q145.089 663.323 143.248 663.895 Q141.425 664.468 139.342 665.632 L139.342 662.09 Q141.46 661.239 143.3 660.805 Q145.141 660.371 146.668 660.371 Q150.696 660.371 153.092 662.385 Q155.488 664.399 155.488 667.767 Q155.488 669.364 154.88 670.805 Q154.29 672.229 152.71 674.173 Q152.276 674.677 149.95 677.09 Q147.623 679.486 143.387 683.809 Z" fill="#000000" fill-rule="evenodd" fill-opacity="1" /><path clip-path="url(#clip120)" d="M 0 0 M287.24 573.016 Q289.757 573.555 291.164 575.256 Q292.587 576.957 292.587 579.457 Q292.587 583.294 289.948 585.395 Q287.309 587.495 282.448 587.495 Q280.816 587.495 279.08 587.166 Q277.362 586.853 275.521 586.211 L275.521 582.825 Q276.98 583.676 278.716 584.11 Q280.452 584.544 282.344 584.544 Q285.643 584.544 287.361 583.242 Q289.098 581.94 289.098 579.457 Q289.098 577.166 287.483 575.881 Q285.886 574.579 283.021 574.579 L280 574.579 L280 571.697 L283.16 571.697 Q285.747 571.697 287.118 570.673 Q288.49 569.631 288.49 567.686 Q288.49 565.69 287.066 564.631 Q285.66 563.555 283.021 563.555 Q281.58 563.555 279.931 563.867 Q278.282 564.18 276.303 564.839 L276.303 561.714 Q278.299 561.159 280.035 560.881 Q281.789 560.603 283.334 560.603 Q287.327 560.603 289.653 562.426 Q291.98 564.232 291.98 567.322 Q291.98 569.475 290.747 570.968 Q289.514 572.443 287.24 573.016 Z" fill="#000000" fill-rule="evenodd" fill-opacity="1" /><path clip-path="url(#clip120)" d="M 0 0 M287.223 663.895 L278.368 677.732 L287.223 677.732 L287.223 663.895 M286.302 660.84 L290.712 660.84 L290.712 677.732 L294.41 677.732 L294.41 680.649 L290.712 680.649 L290.712 686.76 L287.223 686.76 L287.223 680.649 L275.521 680.649 L275.521 677.263 L286.302 660.84 Z" fill="#000000" fill-rule="evenodd" fill-opacity="1" /><path clip-path="url(#clip120)" d="M 0 0 M412.968 561.072 L426.735 561.072 L426.735 564.023 L416.18 564.023 L416.18 570.377 Q416.943 570.117 417.707 569.996 Q418.471 569.857 419.235 569.857 Q423.575 569.857 426.11 572.235 Q428.645 574.614 428.645 578.676 Q428.645 582.86 426.041 585.186 Q423.436 587.495 418.697 587.495 Q417.065 587.495 415.364 587.218 Q413.68 586.94 411.874 586.384 L411.874 582.86 Q413.437 583.711 415.103 584.127 Q416.77 584.544 418.627 584.544 Q421.631 584.544 423.384 582.964 Q425.138 581.384 425.138 578.676 Q425.138 575.968 423.384 574.388 Q421.631 572.808 418.627 572.808 Q417.221 572.808 415.815 573.12 Q414.426 573.433 412.968 574.093 L412.968 561.072 Z" fill="#000000" fill-rule="evenodd" fill-opacity="1" /><path clip-path="url(#clip120)" d="M 0 0 M421.127 672.402 Q418.766 672.402 417.377 674.017 Q416.006 675.631 416.006 678.444 Q416.006 681.239 417.377 682.871 Q418.766 684.486 421.127 684.486 Q423.489 684.486 424.86 682.871 Q426.249 681.239 426.249 678.444 Q426.249 675.631 424.86 674.017 Q423.489 672.402 421.127 672.402 M428.089 661.413 L428.089 664.607 Q426.77 663.982 425.416 663.652 Q424.079 663.323 422.759 663.323 Q419.287 663.323 417.447 665.666 Q415.624 668.01 415.364 672.75 Q416.388 671.239 417.933 670.441 Q419.478 669.625 421.336 669.625 Q425.242 669.625 427.499 672.003 Q429.773 674.364 429.773 678.444 Q429.773 682.437 427.412 684.85 Q425.051 687.263 421.127 687.263 Q416.631 687.263 414.252 683.826 Q411.874 680.371 411.874 673.826 Q411.874 667.68 414.791 664.034 Q417.707 660.371 422.62 660.371 Q423.94 660.371 425.277 660.632 Q426.631 660.892 428.089 661.413 Z" fill="#000000" fill-rule="evenodd" fill-opacity="1" /><path clip-path="url(#clip120)" d="M 0 0 M139.169 261.768 L155.835 261.768 L155.835 263.261 L146.425 287.688 L142.762 287.688 L151.616 264.719 L139.169 264.719 L139.169 261.768 Z" fill="#000000" fill-rule="evenodd" fill-opacity="1" /><path clip-path="url(#clip120)" d="M 0 0 M148.057 375.147 Q145.557 375.147 144.116 376.484 Q142.693 377.821 142.693 380.164 Q142.693 382.508 144.116 383.845 Q145.557 385.182 148.057 385.182 Q150.557 385.182 151.998 383.845 Q153.439 382.491 153.439 380.164 Q153.439 377.821 151.998 376.484 Q150.575 375.147 148.057 375.147 M144.55 373.654 Q142.293 373.098 141.026 371.553 Q139.776 370.008 139.776 367.786 Q139.776 364.678 141.981 362.873 Q144.203 361.067 148.057 361.067 Q151.929 361.067 154.134 362.873 Q156.339 364.678 156.339 367.786 Q156.339 370.008 155.071 371.553 Q153.821 373.098 151.582 373.654 Q154.116 374.244 155.523 375.963 Q156.946 377.682 156.946 380.164 Q156.946 383.932 154.637 385.946 Q152.346 387.96 148.057 387.96 Q143.769 387.96 141.46 385.946 Q139.169 383.932 139.169 380.164 Q139.169 377.682 140.592 375.963 Q142.016 374.244 144.55 373.654 M143.266 368.116 Q143.266 370.13 144.516 371.258 Q145.783 372.387 148.057 372.387 Q150.314 372.387 151.582 371.258 Q152.866 370.13 152.866 368.116 Q152.866 366.102 151.582 364.974 Q150.314 363.845 148.057 363.845 Q145.783 363.845 144.516 364.974 Q143.266 366.102 143.266 368.116 Z" fill="#000000" fill-rule="evenodd" fill-opacity="1" /><path clip-path="url(#clip120)" d="M 0 0 M277.188 885.758 L277.188 882.563 Q278.507 883.188 279.862 883.518 Q281.216 883.848 282.518 883.848 Q285.99 883.848 287.813 881.521 Q289.653 879.178 289.914 874.421 Q288.907 875.914 287.361 876.712 Q285.816 877.511 283.941 877.511 Q280.052 877.511 277.778 875.167 Q275.521 872.806 275.521 868.726 Q275.521 864.733 277.882 862.32 Q280.243 859.907 284.167 859.907 Q288.664 859.907 291.025 863.362 Q293.403 866.799 293.403 873.362 Q293.403 879.49 290.486 883.153 Q287.587 886.799 282.674 886.799 Q281.355 886.799 280 886.539 Q278.646 886.278 277.188 885.758 M284.167 874.768 Q286.528 874.768 287.9 873.153 Q289.289 871.539 289.289 868.726 Q289.289 865.931 287.9 864.317 Q286.528 862.685 284.167 862.685 Q281.806 862.685 280.417 864.317 Q279.046 865.931 279.046 868.726 Q279.046 871.539 280.417 873.153 Q281.806 874.768 284.167 874.768 Z" fill="#000000" fill-rule="evenodd" fill-opacity="1" /><path clip-path="url(#clip120)" d="M 0 0 M412.377 883.344 L418.107 883.344 L418.107 863.57 L411.874 864.82 L411.874 861.626 L418.072 860.376 L421.579 860.376 L421.579 883.344 L427.308 883.344 L427.308 886.296 L412.377 886.296 L412.377 883.344 Z" fill="#000000" fill-rule="evenodd" fill-opacity="1" /><path clip-path="url(#clip120)" d="M 0 0 M431.718 883.344 L437.447 883.344 L437.447 863.57 L431.214 864.82 L431.214 861.626 L437.412 860.376 L440.919 860.376 L440.919 883.344 L446.648 883.344 L446.648 886.296 L431.718 886.296 L431.718 883.344 Z" fill="#000000" fill-rule="evenodd" fill-opacity="1" /><path clip-path="url(#clip120)" d="M 0 0 M344.201 434.389 L349.93 434.389 L349.93 414.614 L343.698 415.864 L343.698 412.67 L349.896 411.42 L353.402 411.42 L353.402 434.389 L359.132 434.389 L359.132 437.34 L344.201 437.34 L344.201 434.389 Z" fill="#000000" fill-rule="evenodd" fill-opacity="1" /><path clip-path="url(#clip120)" d="M 0 0 M373.559 423.364 Q376.076 423.903 377.482 425.604 Q378.906 427.305 378.906 429.805 Q378.906 433.642 376.267 435.743 Q373.628 437.843 368.767 437.843 Q367.135 437.843 365.399 437.514 Q363.68 437.201 361.84 436.559 L361.84 433.173 Q363.298 434.024 365.034 434.458 Q366.77 434.892 368.663 434.892 Q371.961 434.892 373.68 433.59 Q375.416 432.288 375.416 429.805 Q375.416 427.514 373.802 426.229 Q372.204 424.927 369.34 424.927 L366.319 424.927 L366.319 422.045 L369.479 422.045 Q372.066 422.045 373.437 421.021 Q374.809 419.979 374.809 418.035 Q374.809 416.038 373.385 414.979 Q371.979 413.903 369.34 413.903 Q367.899 413.903 366.25 414.215 Q364.6 414.528 362.621 415.187 L362.621 412.062 Q364.618 411.507 366.354 411.229 Q368.107 410.951 369.652 410.951 Q373.645 410.951 375.972 412.774 Q378.298 414.58 378.298 417.67 Q378.298 419.823 377.066 421.316 Q375.833 422.791 373.559 423.364 Z" fill="#000000" fill-rule="evenodd" fill-opacity="1" /><path clip-path="url(#clip120)" d="M 0 0 M344.201 534.157 L349.93 534.157 L349.93 514.382 L343.698 515.632 L343.698 512.438 L349.896 511.188 L353.402 511.188 L353.402 534.157 L359.132 534.157 L359.132 537.108 L344.201 537.108 L344.201 534.157 Z" fill="#000000" fill-rule="evenodd" fill-opacity="1" /><path clip-path="url(#clip120)" d="M 0 0 M372.569 514.244 L363.715 528.08 L372.569 528.08 L372.569 514.244 M371.649 511.188 L376.059 511.188 L376.059 528.08 L379.756 528.08 L379.756 530.997 L376.059 530.997 L376.059 537.108 L372.569 537.108 L372.569 530.997 L360.868 530.997 L360.868 527.611 L371.649 511.188 Z" fill="#000000" fill-rule="evenodd" fill-opacity="1" /><path clip-path="url(#clip120)" d="M 0 0 M71.4956 733.692 L77.2247 733.692 L77.2247 713.918 L70.9921 715.168 L70.9921 711.974 L77.19 710.724 L80.6969 710.724 L80.6969 733.692 L86.4261 733.692 L86.4261 736.644 L71.4956 736.644 L71.4956 733.692 Z" fill="#000000" fill-rule="evenodd" fill-opacity="1" /><path clip-path="url(#clip120)" d="M 0 0 M90.2629 710.724 L104.03 710.724 L104.03 713.675 L93.4746 713.675 L93.4746 720.029 Q94.2385 719.769 95.0024 719.647 Q95.7663 719.509 96.5302 719.509 Q100.87 719.509 103.405 721.887 Q105.94 724.265 105.94 728.328 Q105.94 732.512 103.336 734.838 Q100.732 737.147 95.992 737.147 Q94.3601 737.147 92.6587 736.87 Q90.9747 736.592 89.1691 736.036 L89.1691 732.512 Q90.7316 733.363 92.3983 733.779 Q94.0649 734.196 95.9225 734.196 Q98.926 734.196 100.679 732.616 Q102.433 731.036 102.433 728.328 Q102.433 725.62 100.679 724.04 Q98.926 722.46 95.9225 722.46 Q94.5163 722.46 93.1101 722.772 Q91.7212 723.085 90.2629 723.745 L90.2629 710.724 Z" fill="#000000" fill-rule="evenodd" fill-opacity="1" /><path clip-path="url(#clip120)" d="M 0 0 M71.4956 833.46 L77.2247 833.46 L77.2247 813.686 L70.9921 814.936 L70.9921 811.742 L77.19 810.492 L80.6969 810.492 L80.6969 833.46 L86.4261 833.46 L86.4261 836.412 L71.4956 836.412 L71.4956 833.46 Z" fill="#000000" fill-rule="evenodd" fill-opacity="1" /><path clip-path="url(#clip120)" d="M 0 0 M98.1621 822.054 Q95.801 822.054 94.4121 823.669 Q93.0406 825.283 93.0406 828.096 Q93.0406 830.891 94.4121 832.523 Q95.801 834.138 98.1621 834.138 Q100.523 834.138 101.895 832.523 Q103.284 830.891 103.284 828.096 Q103.284 825.283 101.895 823.669 Q100.523 822.054 98.1621 822.054 M105.124 811.065 L105.124 814.259 Q103.804 813.634 102.45 813.304 Q101.113 812.974 99.7941 812.974 Q96.3219 812.974 94.4816 815.318 Q92.6587 817.662 92.3983 822.401 Q93.4226 820.891 94.9677 820.092 Q96.5128 819.276 98.3705 819.276 Q102.277 819.276 104.534 821.655 Q106.808 824.016 106.808 828.096 Q106.808 832.089 104.447 834.502 Q102.086 836.915 98.1621 836.915 Q93.6656 836.915 91.2872 833.478 Q88.9087 830.023 88.9087 823.478 Q88.9087 817.332 91.8253 813.686 Q94.742 810.023 99.6552 810.023 Q100.975 810.023 102.311 810.283 Q103.666 810.544 105.124 811.065 Z" fill="#000000" fill-rule="evenodd" fill-opacity="1" /><path clip-path="url(#clip120)" d="M 0 0 M207.848 733.692 L213.577 733.692 L213.577 713.918 L207.345 715.168 L207.345 711.974 L213.543 710.724 L217.05 710.724 L217.05 733.692 L222.779 733.692 L222.779 736.644 L207.848 736.644 L207.848 733.692 Z" fill="#000000" fill-rule="evenodd" fill-opacity="1" /><path clip-path="url(#clip120)" d="M 0 0 M225.695 710.724 L242.362 710.724 L242.362 712.217 L232.952 736.644 L229.289 736.644 L238.143 713.675 L225.695 713.675 L225.695 710.724 Z" fill="#000000" fill-rule="evenodd" fill-opacity="1" /><path clip-path="url(#clip120)" d="M 0 0 M207.848 833.46 L213.577 833.46 L213.577 813.686 L207.345 814.936 L207.345 811.742 L213.543 810.492 L217.05 810.492 L217.05 833.46 L222.779 833.46 L222.779 836.412 L207.848 836.412 L207.848 833.46 Z" fill="#000000" fill-rule="evenodd" fill-opacity="1" /><path clip-path="url(#clip120)" d="M 0 0 M234.081 824.103 Q231.581 824.103 230.14 825.44 Q228.716 826.776 228.716 829.12 Q228.716 831.464 230.14 832.801 Q231.581 834.138 234.081 834.138 Q236.581 834.138 238.022 832.801 Q239.463 831.447 239.463 829.12 Q239.463 826.776 238.022 825.44 Q236.598 824.103 234.081 824.103 M230.574 822.61 Q228.317 822.054 227.05 820.509 Q225.8 818.964 225.8 816.742 Q225.8 813.634 228.004 811.829 Q230.227 810.023 234.081 810.023 Q237.952 810.023 240.157 811.829 Q242.362 813.634 242.362 816.742 Q242.362 818.964 241.095 820.509 Q239.845 822.054 237.605 822.61 Q240.14 823.2 241.546 824.919 Q242.97 826.638 242.97 829.12 Q242.97 832.888 240.661 834.901 Q238.369 836.915 234.081 836.915 Q229.793 836.915 227.484 834.901 Q225.192 832.888 225.192 829.12 Q225.192 826.638 226.616 824.919 Q228.039 823.2 230.574 822.61 M229.289 817.072 Q229.289 819.086 230.539 820.214 Q231.807 821.342 234.081 821.342 Q236.338 821.342 237.605 820.214 Q238.89 819.086 238.89 817.072 Q238.89 815.058 237.605 813.929 Q236.338 812.801 234.081 812.801 Q231.807 812.801 230.539 813.929 Q229.289 815.058 229.289 817.072 Z" fill="#000000" fill-rule="evenodd" fill-opacity="1" /><path clip-path="url(#clip120)" d="M 0 0 M344.201 733.692 L349.93 733.692 L349.93 713.918 L343.698 715.168 L343.698 711.974 L349.896 710.724 L353.402 710.724 L353.402 733.692 L359.132 733.692 L359.132 736.644 L344.201 736.644 L344.201 733.692 Z" fill="#000000" fill-rule="evenodd" fill-opacity="1" /><path clip-path="url(#clip120)" d="M 0 0 M363.038 736.106 L363.038 732.911 Q364.357 733.536 365.711 733.866 Q367.066 734.196 368.368 734.196 Q371.84 734.196 373.663 731.87 Q375.503 729.526 375.763 724.769 Q374.756 726.262 373.211 727.061 Q371.666 727.859 369.791 727.859 Q365.902 727.859 363.628 725.515 Q361.371 723.154 361.371 719.075 Q361.371 715.081 363.732 712.668 Q366.093 710.255 370.017 710.255 Q374.513 710.255 376.875 713.71 Q379.253 717.147 379.253 723.71 Q379.253 729.838 376.336 733.502 Q373.437 737.147 368.524 737.147 Q367.204 737.147 365.85 736.887 Q364.496 736.627 363.038 736.106 M370.017 725.116 Q372.378 725.116 373.75 723.502 Q375.138 721.887 375.138 719.075 Q375.138 716.279 373.75 714.665 Q372.378 713.033 370.017 713.033 Q367.656 713.033 366.267 714.665 Q364.895 716.279 364.895 719.075 Q364.895 721.887 366.267 723.502 Q367.656 725.116 370.017 725.116 Z" fill="#000000" fill-rule="evenodd" fill-opacity="1" /><path clip-path="url(#clip120)" d="M 0 0 M347.916 833.46 L360.156 833.46 L360.156 836.412 L343.698 836.412 L343.698 833.46 Q345.694 831.394 349.132 827.922 Q352.586 824.433 353.472 823.426 Q355.156 821.533 355.816 820.231 Q356.493 818.912 356.493 817.645 Q356.493 815.579 355.034 814.277 Q353.593 812.974 351.267 812.974 Q349.618 812.974 347.777 813.547 Q345.955 814.12 343.871 815.283 L343.871 811.742 Q345.989 810.891 347.83 810.457 Q349.67 810.023 351.198 810.023 Q355.225 810.023 357.621 812.037 Q360.017 814.051 360.017 817.419 Q360.017 819.016 359.409 820.457 Q358.819 821.881 357.239 823.825 Q356.805 824.329 354.479 826.742 Q352.152 829.138 347.916 833.46 Z" fill="#000000" fill-rule="evenodd" fill-opacity="1" /><path clip-path="url(#clip120)" d="M 0 0 M371.458 812.801 Q368.75 812.801 367.378 815.474 Q366.024 818.131 366.024 823.478 Q366.024 828.808 367.378 831.481 Q368.75 834.138 371.458 834.138 Q374.184 834.138 375.538 831.481 Q376.909 828.808 376.909 823.478 Q376.909 818.131 375.538 815.474 Q374.184 812.801 371.458 812.801 M371.458 810.023 Q375.816 810.023 378.107 813.478 Q380.416 816.915 380.416 823.478 Q380.416 830.023 378.107 833.478 Q375.816 836.915 371.458 836.915 Q367.1 836.915 364.791 833.478 Q362.5 830.023 362.5 823.478 Q362.5 816.915 364.791 813.478 Q367.1 810.023 371.458 810.023 Z" fill="#000000" fill-rule="evenodd" fill-opacity="1" /><path clip-path="url(#clip120)" d="M 0 0 M75.2109 434.389 L87.4504 434.389 L87.4504 437.34 L70.9921 437.34 L70.9921 434.389 Q72.9886 432.323 76.4261 428.85 Q79.881 425.361 80.7664 424.354 Q82.4504 422.462 83.1101 421.16 Q83.7872 419.84 83.7872 418.573 Q83.7872 416.507 82.3289 415.205 Q80.8879 413.903 78.5615 413.903 Q76.9122 413.903 75.072 414.476 Q73.2491 415.048 71.1657 416.212 L71.1657 412.67 Q73.2838 411.819 75.124 411.385 Q76.9643 410.951 78.4921 410.951 Q82.5198 410.951 84.9157 412.965 Q87.3115 414.979 87.3115 418.347 Q87.3115 419.944 86.7038 421.385 Q86.1136 422.809 84.5337 424.753 Q84.0997 425.257 81.7733 427.67 Q79.4469 430.066 75.2109 434.389 Z" fill="#000000" fill-rule="evenodd" fill-opacity="1" /><path clip-path="url(#clip120)" d="M 0 0 M91.8601 434.389 L97.5892 434.389 L97.5892 414.614 L91.3566 415.864 L91.3566 412.67 L97.5545 411.42 L101.061 411.42 L101.061 434.389 L106.791 434.389 L106.791 437.34 L91.8601 437.34 L91.8601 434.389 Z" fill="#000000" fill-rule="evenodd" fill-opacity="1" /><path clip-path="url(#clip120)" d="M 0 0 M75.2109 534.157 L87.4504 534.157 L87.4504 537.108 L70.9921 537.108 L70.9921 534.157 Q72.9886 532.091 76.4261 528.618 Q79.881 525.129 80.7664 524.122 Q82.4504 522.23 83.1101 520.928 Q83.7872 519.608 83.7872 518.341 Q83.7872 516.275 82.3289 514.973 Q80.8879 513.671 78.5615 513.671 Q76.9122 513.671 75.072 514.244 Q73.2491 514.816 71.1657 515.98 L71.1657 512.438 Q73.2838 511.587 75.124 511.153 Q76.9643 510.719 78.4921 510.719 Q82.5198 510.719 84.9157 512.733 Q87.3115 514.747 87.3115 518.115 Q87.3115 519.712 86.7038 521.153 Q86.1136 522.577 84.5337 524.521 Q84.0997 525.025 81.7733 527.438 Q79.4469 529.834 75.2109 534.157 Z" fill="#000000" fill-rule="evenodd" fill-opacity="1" /><path clip-path="url(#clip120)" d="M 0 0 M94.2733 534.157 L106.513 534.157 L106.513 537.108 L90.0545 537.108 L90.0545 534.157 Q92.051 532.091 95.4885 528.618 Q98.9434 525.129 99.8288 524.122 Q101.513 522.23 102.173 520.928 Q102.85 519.608 102.85 518.341 Q102.85 516.275 101.391 514.973 Q99.9503 513.671 97.6239 513.671 Q95.9746 513.671 94.1344 514.244 Q92.3115 514.816 90.2281 515.98 L90.2281 512.438 Q92.3462 511.587 94.1864 511.153 Q96.0267 510.719 97.5545 510.719 Q101.582 510.719 103.978 512.733 Q106.374 514.747 106.374 518.115 Q106.374 519.712 105.766 521.153 Q105.176 522.577 103.596 524.521 Q103.162 525.025 100.836 527.438 Q98.5093 529.834 94.2733 534.157 Z" fill="#000000" fill-rule="evenodd" fill-opacity="1" /><path clip-path="url(#clip120)" d="M 0 0 M211.564 434.389 L223.803 434.389 L223.803 437.34 L207.345 437.34 L207.345 434.389 Q209.341 432.323 212.779 428.85 Q216.234 425.361 217.119 424.354 Q218.803 422.462 219.463 421.16 Q220.14 419.84 220.14 418.573 Q220.14 416.507 218.682 415.205 Q217.241 413.903 214.914 413.903 Q213.265 413.903 211.425 414.476 Q209.602 415.048 207.518 416.212 L207.518 412.67 Q209.637 411.819 211.477 411.385 Q213.317 410.951 214.845 410.951 Q218.873 410.951 221.268 412.965 Q223.664 414.979 223.664 418.347 Q223.664 419.944 223.057 421.385 Q222.466 422.809 220.886 424.753 Q220.452 425.257 218.126 427.67 Q215.8 430.066 211.564 434.389 Z" fill="#000000" fill-rule="evenodd" fill-opacity="1" /><path clip-path="url(#clip120)" d="M 0 0 M238.23 423.364 Q240.747 423.903 242.154 425.604 Q243.577 427.305 243.577 429.805 Q243.577 433.642 240.938 435.743 Q238.3 437.843 233.438 437.843 Q231.807 437.843 230.07 437.514 Q228.352 437.201 226.511 436.559 L226.511 433.173 Q227.97 434.024 229.706 434.458 Q231.442 434.892 233.334 434.892 Q236.633 434.892 238.352 433.59 Q240.088 432.288 240.088 429.805 Q240.088 427.514 238.473 426.229 Q236.876 424.927 234.011 424.927 L230.991 424.927 L230.991 422.045 L234.15 422.045 Q236.737 422.045 238.109 421.021 Q239.48 419.979 239.48 418.035 Q239.48 416.038 238.057 414.979 Q236.65 413.903 234.011 413.903 Q232.57 413.903 230.921 414.215 Q229.272 414.528 227.293 415.187 L227.293 412.062 Q229.289 411.507 231.025 411.229 Q232.779 410.951 234.324 410.951 Q238.317 410.951 240.643 412.774 Q242.97 414.58 242.97 417.67 Q242.97 419.823 241.737 421.316 Q240.504 422.791 238.23 423.364 Z" fill="#000000" fill-rule="evenodd" fill-opacity="1" /><path clip-path="url(#clip120)" d="M 0 0 M211.564 534.157 L223.803 534.157 L223.803 537.108 L207.345 537.108 L207.345 534.157 Q209.341 532.091 212.779 528.618 Q216.234 525.129 217.119 524.122 Q218.803 522.23 219.463 520.928 Q220.14 519.608 220.14 518.341 Q220.14 516.275 218.682 514.973 Q217.241 513.671 214.914 513.671 Q213.265 513.671 211.425 514.244 Q209.602 514.816 207.518 515.98 L207.518 512.438 Q209.637 511.587 211.477 511.153 Q213.317 510.719 214.845 510.719 Q218.873 510.719 221.268 512.733 Q223.664 514.747 223.664 518.115 Q223.664 519.712 223.057 521.153 Q222.466 522.577 220.886 524.521 Q220.452 525.025 218.126 527.438 Q215.8 529.834 211.564 534.157 Z" fill="#000000" fill-rule="evenodd" fill-opacity="1" /><path clip-path="url(#clip120)" d="M 0 0 M237.241 514.244 L228.386 528.08 L237.241 528.08 L237.241 514.244 M236.32 511.188 L240.73 511.188 L240.73 528.08 L244.428 528.08 L244.428 530.997 L240.73 530.997 L240.73 537.108 L237.241 537.108 L237.241 530.997 L225.539 530.997 L225.539 527.611 L236.32 511.188 Z" fill="#000000" fill-rule="evenodd" fill-opacity="1" /><circle clip-path="url(#clip122)" cx="139.169" cy="95.9282" r="14" fill="#0000ff" fill-rule="evenodd" fill-opacity="1" stroke="none"/>
<circle clip-path="url(#clip122)" cx="275.521" cy="95.9282" r="14" fill="#0000ff" fill-rule="evenodd" fill-opacity="1" stroke="none"/>
<circle clip-path="url(#clip122)" cx="411.874" cy="95.9282" r="14" fill="#0000ff" fill-rule="evenodd" fill-opacity="1" stroke="none"/>
<circle clip-path="url(#clip122)" cx="275.521" cy="295.464" r="14" fill="#0000ff" fill-rule="evenodd" fill-opacity="1" stroke="none"/>
<circle clip-path="url(#clip122)" cx="275.521" cy="395.232" r="14" fill="#0000ff" fill-rule="evenodd" fill-opacity="1" stroke="none"/>
<circle clip-path="url(#clip122)" cx="411.874" cy="295.464" r="14" fill="#0000ff" fill-rule="evenodd" fill-opacity="1" stroke="none"/>
<circle clip-path="url(#clip122)" cx="411.874" cy="395.232" r="14" fill="#0000ff" fill-rule="evenodd" fill-opacity="1" stroke="none"/>
<circle clip-path="url(#clip122)" cx="70.9921" cy="145.812" r="14" fill="#0000ff" fill-rule="evenodd" fill-opacity="1" stroke="none"/>
<circle clip-path="url(#clip122)" cx="70.9921" cy="245.58" r="14" fill="#0000ff" fill-rule="evenodd" fill-opacity="1" stroke="none"/>
<circle clip-path="url(#clip122)" cx="207.345" cy="145.812" r="14" fill="#0000ff" fill-rule="evenodd" fill-opacity="1" stroke="none"/>
<circle clip-path="url(#clip122)" cx="207.345" cy="245.58" r="14" fill="#0000ff" fill-rule="evenodd" fill-opacity="1" stroke="none"/>
<circle clip-path="url(#clip122)" cx="343.698" cy="145.812" r="14" fill="#0000ff" fill-rule="evenodd" fill-opacity="1" stroke="none"/>
<circle clip-path="url(#clip122)" cx="343.698" cy="245.58" r="14" fill="#0000ff" fill-rule="evenodd" fill-opacity="1" stroke="none"/>
<path clip-path="url(#clip120)" d="M 0 0 M143.387 85.2008 L155.627 85.2008 L155.627 88.1522 L139.169 88.1522 L139.169 85.2008 Q141.165 83.1349 144.603 79.6627 Q148.057 76.1731 148.943 75.1662 Q150.627 73.2738 151.286 71.9718 Q151.964 70.6523 151.964 69.385 Q151.964 67.319 150.505 66.0169 Q149.064 64.7148 146.738 64.7148 Q145.089 64.7148 143.248 65.2878 Q141.425 65.8607 139.342 67.0239 L139.342 63.4822 Q141.46 62.6315 143.3 62.1975 Q145.141 61.7635 146.668 61.7635 Q150.696 61.7635 153.092 63.7774 Q155.488 65.7912 155.488 69.1593 Q155.488 70.7565 154.88 72.1974 Q154.29 73.621 152.71 75.5655 Q152.276 76.069 149.95 78.4821 Q147.623 80.878 143.387 85.2008 Z" fill="#000000" fill-rule="evenodd" fill-opacity="1" /><path clip-path="url(#clip120)" d="M 0 0 M287.223 65.2878 L278.368 79.1245 L287.223 79.1245 L287.223 65.2878 M286.302 62.2322 L290.712 62.2322 L290.712 79.1245 L294.41 79.1245 L294.41 82.0411 L290.712 82.0411 L290.712 88.1522 L287.223 88.1522 L287.223 82.0411 L275.521 82.0411 L275.521 78.6557 L286.302 62.2322 Z" fill="#000000" fill-rule="evenodd" fill-opacity="1" /><path clip-path="url(#clip120)" d="M 0 0 M421.127 73.7947 Q418.766 73.7947 417.377 75.4092 Q416.006 77.0238 416.006 79.8363 Q416.006 82.6314 417.377 84.2634 Q418.766 85.8779 421.127 85.8779 Q423.489 85.8779 424.86 84.2634 Q426.249 82.6314 426.249 79.8363 Q426.249 77.0238 424.86 75.4092 Q423.489 73.7947 421.127 73.7947 M428.089 62.8051 L428.089 65.9996 Q426.77 65.3746 425.416 65.0447 Q424.079 64.7148 422.759 64.7148 Q419.287 64.7148 417.447 67.0586 Q415.624 69.4023 415.364 74.1419 Q416.388 72.6315 417.933 71.8329 Q419.478 71.0169 421.336 71.0169 Q425.242 71.0169 427.499 73.3954 Q429.773 75.7565 429.773 79.8363 Q429.773 83.8293 427.412 86.2425 Q425.051 88.6557 421.127 88.6557 Q416.631 88.6557 414.252 85.2182 Q411.874 81.7634 411.874 75.2183 Q411.874 69.0725 414.791 65.4266 Q417.707 61.7635 422.62 61.7635 Q423.94 61.7635 425.277 62.0239 Q426.631 62.2843 428.089 62.8051 Z" fill="#000000" fill-rule="evenodd" fill-opacity="1" /><path clip-path="url(#clip120)" d="M 0 0 M277.188 287.15 L277.188 283.955 Q278.507 284.58 279.862 284.91 Q281.216 285.24 282.518 285.24 Q285.99 285.24 287.813 282.914 Q289.653 280.57 289.914 275.813 Q288.907 277.306 287.361 278.105 Q285.816 278.903 283.941 278.903 Q280.052 278.903 277.778 276.56 Q275.521 274.199 275.521 270.119 Q275.521 266.126 277.882 263.713 Q280.243 261.299 284.167 261.299 Q288.664 261.299 291.025 264.754 Q293.403 268.192 293.403 274.754 Q293.403 280.883 290.486 284.546 Q287.587 288.192 282.674 288.192 Q281.355 288.192 280 287.931 Q278.646 287.671 277.188 287.15 M284.167 276.16 Q286.528 276.16 287.9 274.546 Q289.289 272.931 289.289 270.119 Q289.289 267.324 287.9 265.709 Q286.528 264.077 284.167 264.077 Q281.806 264.077 280.417 265.709 Q279.046 267.324 279.046 270.119 Q279.046 272.931 280.417 274.546 Q281.806 276.16 284.167 276.16 Z" fill="#000000" fill-rule="evenodd" fill-opacity="1" /><path clip-path="url(#clip120)" d="M 0 0 M276.025 384.505 L281.754 384.505 L281.754 364.73 L275.521 365.98 L275.521 362.786 L281.719 361.536 L285.226 361.536 L285.226 384.505 L290.955 384.505 L290.955 387.456 L276.025 387.456 L276.025 384.505 Z" fill="#000000" fill-rule="evenodd" fill-opacity="1" /><path clip-path="url(#clip120)" d="M 0 0 M302.257 363.845 Q299.549 363.845 298.177 366.519 Q296.823 369.175 296.823 374.522 Q296.823 379.852 298.177 382.526 Q299.549 385.182 302.257 385.182 Q304.983 385.182 306.337 382.526 Q307.709 379.852 307.709 374.522 Q307.709 369.175 306.337 366.519 Q304.983 363.845 302.257 363.845 M302.257 361.067 Q306.615 361.067 308.906 364.522 Q311.216 367.96 311.216 374.522 Q311.216 381.067 308.906 384.522 Q306.615 387.96 302.257 387.96 Q297.9 387.96 295.591 384.522 Q293.299 381.067 293.299 374.522 Q293.299 367.96 295.591 364.522 Q297.9 361.067 302.257 361.067 Z" fill="#000000" fill-rule="evenodd" fill-opacity="1" /><path clip-path="url(#clip120)" d="M 0 0 M412.377 284.737 L418.107 284.737 L418.107 264.963 L411.874 266.213 L411.874 263.018 L418.072 261.768 L421.579 261.768 L421.579 284.737 L427.308 284.737 L427.308 287.688 L412.377 287.688 L412.377 284.737 Z" fill="#000000" fill-rule="evenodd" fill-opacity="1" /><path clip-path="url(#clip120)" d="M 0 0 M431.718 284.737 L437.447 284.737 L437.447 264.963 L431.214 266.213 L431.214 263.018 L437.412 261.768 L440.919 261.768 L440.919 284.737 L446.648 284.737 L446.648 287.688 L431.718 287.688 L431.718 284.737 Z" fill="#000000" fill-rule="evenodd" fill-opacity="1" /><path clip-path="url(#clip120)" d="M 0 0 M412.377 384.505 L418.107 384.505 L418.107 364.73 L411.874 365.98 L411.874 362.786 L418.072 361.536 L421.579 361.536 L421.579 384.505 L427.308 384.505 L427.308 387.456 L412.377 387.456 L412.377 384.505 Z" fill="#000000" fill-rule="evenodd" fill-opacity="1" /><path clip-path="url(#clip120)" d="M 0 0 M434.131 384.505 L446.37 384.505 L446.37 387.456 L429.912 387.456 L429.912 384.505 Q431.909 382.439 435.346 378.967 Q438.801 375.477 439.686 374.47 Q441.37 372.578 442.03 371.276 Q442.707 369.956 442.707 368.689 Q442.707 366.623 441.249 365.321 Q439.808 364.019 437.482 364.019 Q435.832 364.019 433.992 364.592 Q432.169 365.165 430.086 366.328 L430.086 362.786 Q432.204 361.935 434.044 361.501 Q435.884 361.067 437.412 361.067 Q441.44 361.067 443.836 363.081 Q446.231 365.095 446.231 368.463 Q446.231 370.06 445.624 371.501 Q445.034 372.925 443.454 374.869 Q443.02 375.373 440.693 377.786 Q438.367 380.182 434.131 384.505 Z" fill="#000000" fill-rule="evenodd" fill-opacity="1" /><path clip-path="url(#clip120)" d="M 0 0 M71.4956 135.085 L77.2247 135.085 L77.2247 115.311 L70.9921 116.561 L70.9921 113.366 L77.19 112.116 L80.6969 112.116 L80.6969 135.085 L86.4261 135.085 L86.4261 138.036 L71.4956 138.036 L71.4956 135.085 Z" fill="#000000" fill-rule="evenodd" fill-opacity="1" /><path clip-path="url(#clip120)" d="M 0 0 M90.2629 112.116 L104.03 112.116 L104.03 115.068 L93.4746 115.068 L93.4746 121.422 Q94.2385 121.161 95.0024 121.04 Q95.7663 120.901 96.5302 120.901 Q100.87 120.901 103.405 123.279 Q105.94 125.658 105.94 129.72 Q105.94 133.904 103.336 136.231 Q100.732 138.54 95.992 138.54 Q94.3601 138.54 92.6587 138.262 Q90.9747 137.984 89.1691 137.429 L89.1691 133.904 Q90.7316 134.755 92.3983 135.172 Q94.0649 135.588 95.9225 135.588 Q98.926 135.588 100.679 134.008 Q102.433 132.429 102.433 129.72 Q102.433 127.012 100.679 125.432 Q98.926 123.852 95.9225 123.852 Q94.5163 123.852 93.1101 124.165 Q91.7212 124.477 90.2629 125.137 L90.2629 112.116 Z" fill="#000000" fill-rule="evenodd" fill-opacity="1" /><path clip-path="url(#clip120)" d="M 0 0 M71.4956 234.853 L77.2247 234.853 L77.2247 215.079 L70.9921 216.329 L70.9921 213.134 L77.19 211.884 L80.6969 211.884 L80.6969 234.853 L86.4261 234.853 L86.4261 237.804 L71.4956 237.804 L71.4956 234.853 Z" fill="#000000" fill-rule="evenodd" fill-opacity="1" /><path clip-path="url(#clip120)" d="M 0 0 M98.1621 223.447 Q95.801 223.447 94.4121 225.061 Q93.0406 226.676 93.0406 229.488 Q93.0406 232.283 94.4121 233.915 Q95.801 235.53 98.1621 235.53 Q100.523 235.53 101.895 233.915 Q103.284 232.283 103.284 229.488 Q103.284 226.676 101.895 225.061 Q100.523 223.447 98.1621 223.447 M105.124 212.457 L105.124 215.651 Q103.804 215.026 102.45 214.697 Q101.113 214.367 99.7941 214.367 Q96.3219 214.367 94.4816 216.711 Q92.6587 219.054 92.3983 223.794 Q93.4226 222.283 94.9677 221.485 Q96.5128 220.669 98.3705 220.669 Q102.277 220.669 104.534 223.047 Q106.808 225.408 106.808 229.488 Q106.808 233.481 104.447 235.894 Q102.086 238.308 98.1621 238.308 Q93.6656 238.308 91.2872 234.87 Q88.9087 231.415 88.9087 224.87 Q88.9087 218.724 91.8253 215.079 Q94.742 211.415 99.6552 211.415 Q100.975 211.415 102.311 211.676 Q103.666 211.936 105.124 212.457 Z" fill="#000000" fill-rule="evenodd" fill-opacity="1" /><path clip-path="url(#clip120)" d="M 0 0 M207.848 135.085 L213.577 135.085 L213.577 115.311 L207.345 116.561 L207.345 113.366 L213.543 112.116 L217.05 112.116 L217.05 135.085 L222.779 135.085 L222.779 138.036 L207.848 138.036 L207.848 135.085 Z" fill="#000000" fill-rule="evenodd" fill-opacity="1" /><path clip-path="url(#clip120)" d="M 0 0 M225.695 112.116 L242.362 112.116 L242.362 113.609 L232.952 138.036 L229.289 138.036 L238.143 115.068 L225.695 115.068 L225.695 112.116 Z" fill="#000000" fill-rule="evenodd" fill-opacity="1" /><path clip-path="url(#clip120)" d="M 0 0 M207.848 234.853 L213.577 234.853 L213.577 215.079 L207.345 216.329 L207.345 213.134 L213.543 211.884 L217.05 211.884 L217.05 234.853 L222.779 234.853 L222.779 237.804 L207.848 237.804 L207.848 234.853 Z" fill="#000000" fill-rule="evenodd" fill-opacity="1" /><path clip-path="url(#clip120)" d="M 0 0 M234.081 225.495 Q231.581 225.495 230.14 226.832 Q228.716 228.169 228.716 230.513 Q228.716 232.856 230.14 234.193 Q231.581 235.53 234.081 235.53 Q236.581 235.53 238.022 234.193 Q239.463 232.839 239.463 230.513 Q239.463 228.169 238.022 226.832 Q236.598 225.495 234.081 225.495 M230.574 224.002 Q228.317 223.447 227.05 221.901 Q225.8 220.356 225.8 218.134 Q225.8 215.026 228.004 213.221 Q230.227 211.415 234.081 211.415 Q237.952 211.415 240.157 213.221 Q242.362 215.026 242.362 218.134 Q242.362 220.356 241.095 221.901 Q239.845 223.447 237.605 224.002 Q240.14 224.592 241.546 226.311 Q242.97 228.03 242.97 230.513 Q242.97 234.28 240.661 236.294 Q238.369 238.308 234.081 238.308 Q229.793 238.308 227.484 236.294 Q225.192 234.28 225.192 230.513 Q225.192 228.03 226.616 226.311 Q228.039 224.592 230.574 224.002 M229.289 218.464 Q229.289 220.478 230.539 221.606 Q231.807 222.735 234.081 222.735 Q236.338 222.735 237.605 221.606 Q238.89 220.478 238.89 218.464 Q238.89 216.45 237.605 215.322 Q236.338 214.193 234.081 214.193 Q231.807 214.193 230.539 215.322 Q229.289 216.45 229.289 218.464 Z" fill="#000000" fill-rule="evenodd" fill-opacity="1" /><path clip-path="url(#clip120)" d="M 0 0 M344.201 135.085 L349.93 135.085 L349.93 115.311 L343.698 116.561 L343.698 113.366 L349.896 112.116 L353.402 112.116 L353.402 135.085 L359.132 135.085 L359.132 138.036 L344.201 138.036 L344.201 135.085 Z" fill="#000000" fill-rule="evenodd" fill-opacity="1" /><path clip-path="url(#clip120)" d="M 0 0 M363.038 137.498 L363.038 134.304 Q364.357 134.929 365.711 135.258 Q367.066 135.588 368.368 135.588 Q371.84 135.588 373.663 133.262 Q375.503 130.918 375.763 126.161 Q374.756 127.654 373.211 128.453 Q371.666 129.252 369.791 129.252 Q365.902 129.252 363.628 126.908 Q361.371 124.547 361.371 120.467 Q361.371 116.474 363.732 114.061 Q366.093 111.647 370.017 111.647 Q374.513 111.647 376.875 115.102 Q379.253 118.54 379.253 125.102 Q379.253 131.231 376.336 134.894 Q373.437 138.54 368.524 138.54 Q367.204 138.54 365.85 138.279 Q364.496 138.019 363.038 137.498 M370.017 126.508 Q372.378 126.508 373.75 124.894 Q375.138 123.279 375.138 120.467 Q375.138 117.672 373.75 116.057 Q372.378 114.425 370.017 114.425 Q367.656 114.425 366.267 116.057 Q364.895 117.672 364.895 120.467 Q364.895 123.279 366.267 124.894 Q367.656 126.508 370.017 126.508 Z" fill="#000000" fill-rule="evenodd" fill-opacity="1" /><path clip-path="url(#clip120)" d="M 0 0 M347.916 234.853 L360.156 234.853 L360.156 237.804 L343.698 237.804 L343.698 234.853 Q345.694 232.787 349.132 229.315 Q352.586 225.825 353.472 224.818 Q355.156 222.926 355.816 221.624 Q356.493 220.304 356.493 219.037 Q356.493 216.971 355.034 215.669 Q353.593 214.367 351.267 214.367 Q349.618 214.367 347.777 214.94 Q345.955 215.513 343.871 216.676 L343.871 213.134 Q345.989 212.283 347.83 211.849 Q349.67 211.415 351.198 211.415 Q355.225 211.415 357.621 213.429 Q360.017 215.443 360.017 218.811 Q360.017 220.408 359.409 221.849 Q358.819 223.273 357.239 225.217 Q356.805 225.721 354.479 228.134 Q352.152 230.53 347.916 234.853 Z" fill="#000000" fill-rule="evenodd" fill-opacity="1" /><path clip-path="url(#clip120)" d="M 0 0 M371.458 214.193 Q368.75 214.193 367.378 216.867 Q366.024 219.523 366.024 224.87 Q366.024 230.2 367.378 232.874 Q368.75 235.53 371.458 235.53 Q374.184 235.53 375.538 232.874 Q376.909 230.2 376.909 224.87 Q376.909 219.523 375.538 216.867 Q374.184 214.193 371.458 214.193 M371.458 211.415 Q375.816 211.415 378.107 214.87 Q380.416 218.308 380.416 224.87 Q380.416 231.415 378.107 234.87 Q375.816 238.308 371.458 238.308 Q367.1 238.308 364.791 234.87 Q362.5 231.415 362.5 224.87 Q362.5 218.308 364.791 214.87 Q367.1 211.415 371.458 211.415 Z" fill="#000000" fill-rule="evenodd" fill-opacity="1" /><circle clip-path="url(#clip122)" cx="548.227" cy="894.072" r="14" fill="#0000ff" fill-rule="evenodd" fill-opacity="1" stroke="none"/>
<circle clip-path="url(#clip122)" cx="684.58" cy="894.072" r="14" fill="#0000ff" fill-rule="evenodd" fill-opacity="1" stroke="none"/>
<circle clip-path="url(#clip122)" cx="548.227" cy="594.768" r="14" fill="#0000ff" fill-rule="evenodd" fill-opacity="1" stroke="none"/>
<circle clip-path="url(#clip122)" cx="548.227" cy="694.536" r="14" fill="#0000ff" fill-rule="evenodd" fill-opacity="1" stroke="none"/>
<circle clip-path="url(#clip122)" cx="752.756" cy="744.42" r="14" fill="#0000ff" fill-rule="evenodd" fill-opacity="1" stroke="none"/>
<circle clip-path="url(#clip122)" cx="752.756" cy="844.188" r="14" fill="#0000ff" fill-rule="evenodd" fill-opacity="1" stroke="none"/>
<circle clip-path="url(#clip122)" cx="480.05" cy="744.42" r="14" fill="#0000ff" fill-rule="evenodd" fill-opacity="1" stroke="none"/>
<circle clip-path="url(#clip122)" cx="480.05" cy="844.188" r="14" fill="#0000ff" fill-rule="evenodd" fill-opacity="1" stroke="none"/>
<circle clip-path="url(#clip122)" cx="616.403" cy="744.42" r="14" fill="#0000ff" fill-rule="evenodd" fill-opacity="1" stroke="none"/>
<circle clip-path="url(#clip122)" cx="616.403" cy="844.188" r="14" fill="#0000ff" fill-rule="evenodd" fill-opacity="1" stroke="none"/>
<path clip-path="url(#clip120)" d="M 0 0 M548.73 883.344 L554.459 883.344 L554.459 863.57 L548.227 864.82 L548.227 861.626 L554.425 860.376 L557.932 860.376 L557.932 883.344 L563.661 883.344 L563.661 886.296 L548.73 886.296 L548.73 883.344 Z" fill="#000000" fill-rule="evenodd" fill-opacity="1" /><path clip-path="url(#clip120)" d="M 0 0 M696.298 872.32 Q698.816 872.858 700.222 874.56 Q701.645 876.261 701.645 878.761 Q701.645 882.598 699.007 884.699 Q696.368 886.799 691.507 886.799 Q689.875 886.799 688.139 886.469 Q686.42 886.157 684.58 885.515 L684.58 882.129 Q686.038 882.98 687.774 883.414 Q689.51 883.848 691.402 883.848 Q694.701 883.848 696.42 882.546 Q698.156 881.244 698.156 878.761 Q698.156 876.469 696.541 875.185 Q694.944 873.883 692.079 873.883 L689.059 873.883 L689.059 871.001 L692.218 871.001 Q694.805 871.001 696.177 869.976 Q697.548 868.935 697.548 866.99 Q697.548 864.994 696.125 863.935 Q694.718 862.858 692.079 862.858 Q690.639 862.858 688.989 863.171 Q687.34 863.483 685.361 864.143 L685.361 861.018 Q687.357 860.463 689.093 860.185 Q690.847 859.907 692.392 859.907 Q696.385 859.907 698.711 861.73 Q701.038 863.535 701.038 866.626 Q701.038 868.779 699.805 870.272 Q698.573 871.747 696.298 872.32 Z" fill="#000000" fill-rule="evenodd" fill-opacity="1" /><path clip-path="url(#clip120)" d="M 0 0 M548.227 561.072 L564.893 561.072 L564.893 562.565 L555.484 586.992 L551.821 586.992 L560.675 564.023 L548.227 564.023 L548.227 561.072 Z" fill="#000000" fill-rule="evenodd" fill-opacity="1" /><path clip-path="url(#clip120)" d="M 0 0 M557.116 674.451 Q554.616 674.451 553.175 675.788 Q551.751 677.125 551.751 679.468 Q551.751 681.812 553.175 683.149 Q554.616 684.486 557.116 684.486 Q559.616 684.486 561.057 683.149 Q562.498 681.795 562.498 679.468 Q562.498 677.125 561.057 675.788 Q559.633 674.451 557.116 674.451 M553.609 672.958 Q551.352 672.402 550.084 670.857 Q548.834 669.312 548.834 667.09 Q548.834 663.982 551.039 662.177 Q553.261 660.371 557.116 660.371 Q560.987 660.371 563.192 662.177 Q565.397 663.982 565.397 667.09 Q565.397 669.312 564.129 670.857 Q562.879 672.402 560.64 672.958 Q563.175 673.548 564.581 675.267 Q566.004 676.986 566.004 679.468 Q566.004 683.236 563.695 685.249 Q561.404 687.263 557.116 687.263 Q552.827 687.263 550.518 685.249 Q548.227 683.236 548.227 679.468 Q548.227 676.986 549.65 675.267 Q551.074 673.548 553.609 672.958 M552.324 667.42 Q552.324 669.434 553.574 670.562 Q554.841 671.691 557.116 671.691 Q559.373 671.691 560.64 670.562 Q561.925 669.434 561.925 667.42 Q561.925 665.406 560.64 664.277 Q559.373 663.149 557.116 663.149 Q554.841 663.149 553.574 664.277 Q552.324 665.406 552.324 667.42 Z" fill="#000000" fill-rule="evenodd" fill-opacity="1" /><path clip-path="url(#clip120)" d="M 0 0 M753.259 733.692 L758.989 733.692 L758.989 713.918 L752.756 715.168 L752.756 711.974 L758.954 710.724 L762.461 710.724 L762.461 733.692 L768.19 733.692 L768.19 736.644 L753.259 736.644 L753.259 733.692 Z" fill="#000000" fill-rule="evenodd" fill-opacity="1" /><path clip-path="url(#clip120)" d="M 0 0 M782.617 722.668 Q785.134 723.206 786.54 724.908 Q787.964 726.609 787.964 729.109 Q787.964 732.946 785.325 735.047 Q782.686 737.147 777.825 737.147 Q776.193 737.147 774.457 736.817 Q772.738 736.505 770.898 735.863 L770.898 732.477 Q772.356 733.328 774.093 733.762 Q775.829 734.196 777.721 734.196 Q781.02 734.196 782.738 732.894 Q784.474 731.592 784.474 729.109 Q784.474 726.818 782.86 725.533 Q781.263 724.231 778.398 724.231 L775.377 724.231 L775.377 721.349 L778.537 721.349 Q781.124 721.349 782.495 720.325 Q783.867 719.283 783.867 717.338 Q783.867 715.342 782.443 714.283 Q781.037 713.206 778.398 713.206 Q776.957 713.206 775.308 713.519 Q773.659 713.831 771.679 714.491 L771.679 711.366 Q773.676 710.811 775.412 710.533 Q777.165 710.255 778.711 710.255 Q782.704 710.255 785.03 712.078 Q787.356 713.884 787.356 716.974 Q787.356 719.127 786.124 720.62 Q784.891 722.095 782.617 722.668 Z" fill="#000000" fill-rule="evenodd" fill-opacity="1" /><path clip-path="url(#clip120)" d="M 0 0 M753.259 833.46 L758.989 833.46 L758.989 813.686 L752.756 814.936 L752.756 811.742 L758.954 810.492 L762.461 810.492 L762.461 833.46 L768.19 833.46 L768.19 836.412 L753.259 836.412 L753.259 833.46 Z" fill="#000000" fill-rule="evenodd" fill-opacity="1" /><path clip-path="url(#clip120)" d="M 0 0 M781.627 813.547 L772.773 827.384 L781.627 827.384 L781.627 813.547 M780.707 810.492 L785.117 810.492 L785.117 827.384 L788.815 827.384 L788.815 830.301 L785.117 830.301 L785.117 836.412 L781.627 836.412 L781.627 830.301 L769.926 830.301 L769.926 826.915 L780.707 810.492 Z" fill="#000000" fill-rule="evenodd" fill-opacity="1" /><path clip-path="url(#clip120)" d="M 0 0 M484.269 733.692 L496.509 733.692 L496.509 736.644 L480.05 736.644 L480.05 733.692 Q482.047 731.627 485.484 728.154 Q488.939 724.665 489.825 723.658 Q491.509 721.765 492.168 720.463 Q492.845 719.144 492.845 717.877 Q492.845 715.811 491.387 714.509 Q489.946 713.206 487.62 713.206 Q485.971 713.206 484.13 713.779 Q482.307 714.352 480.224 715.516 L480.224 711.974 Q482.342 711.123 484.182 710.689 Q486.023 710.255 487.55 710.255 Q491.578 710.255 493.974 712.269 Q496.37 714.283 496.37 717.651 Q496.37 719.248 495.762 720.689 Q495.172 722.113 493.592 724.057 Q493.158 724.561 490.832 726.974 Q488.505 729.37 484.269 733.692 Z" fill="#000000" fill-rule="evenodd" fill-opacity="1" /><path clip-path="url(#clip120)" d="M 0 0 M500.918 733.692 L506.647 733.692 L506.647 713.918 L500.415 715.168 L500.415 711.974 L506.613 710.724 L510.12 710.724 L510.12 733.692 L515.849 733.692 L515.849 736.644 L500.918 736.644 L500.918 733.692 Z" fill="#000000" fill-rule="evenodd" fill-opacity="1" /><path clip-path="url(#clip120)" d="M 0 0 M484.269 833.46 L496.509 833.46 L496.509 836.412 L480.05 836.412 L480.05 833.46 Q482.047 831.394 485.484 827.922 Q488.939 824.433 489.825 823.426 Q491.509 821.533 492.168 820.231 Q492.845 818.912 492.845 817.645 Q492.845 815.579 491.387 814.277 Q489.946 812.974 487.62 812.974 Q485.971 812.974 484.13 813.547 Q482.307 814.12 480.224 815.283 L480.224 811.742 Q482.342 810.891 484.182 810.457 Q486.023 810.023 487.55 810.023 Q491.578 810.023 493.974 812.037 Q496.37 814.051 496.37 817.419 Q496.37 819.016 495.762 820.457 Q495.172 821.881 493.592 823.825 Q493.158 824.329 490.832 826.742 Q488.505 829.138 484.269 833.46 Z" fill="#000000" fill-rule="evenodd" fill-opacity="1" /><path clip-path="url(#clip120)" d="M 0 0 M503.332 833.46 L515.571 833.46 L515.571 836.412 L499.113 836.412 L499.113 833.46 Q501.109 831.394 504.547 827.922 Q508.002 824.433 508.887 823.426 Q510.571 821.533 511.231 820.231 Q511.908 818.912 511.908 817.645 Q511.908 815.579 510.45 814.277 Q509.009 812.974 506.682 812.974 Q505.033 812.974 503.193 813.547 Q501.37 814.12 499.286 815.283 L499.286 811.742 Q501.404 810.891 503.245 810.457 Q505.085 810.023 506.613 810.023 Q510.641 810.023 513.036 812.037 Q515.432 814.051 515.432 817.419 Q515.432 819.016 514.825 820.457 Q514.234 821.881 512.654 823.825 Q512.22 824.329 509.894 826.742 Q507.568 829.138 503.332 833.46 Z" fill="#000000" fill-rule="evenodd" fill-opacity="1" /><path clip-path="url(#clip120)" d="M 0 0 M620.622 733.692 L632.861 733.692 L632.861 736.644 L616.403 736.644 L616.403 733.692 Q618.4 731.627 621.837 728.154 Q625.292 724.665 626.177 723.658 Q627.861 721.765 628.521 720.463 Q629.198 719.144 629.198 717.877 Q629.198 715.811 627.74 714.509 Q626.299 713.206 623.973 713.206 Q622.323 713.206 620.483 713.779 Q618.66 714.352 616.577 715.516 L616.577 711.974 Q618.695 711.123 620.535 710.689 Q622.375 710.255 623.903 710.255 Q627.931 710.255 630.327 712.269 Q632.723 714.283 632.723 717.651 Q632.723 719.248 632.115 720.689 Q631.525 722.113 629.945 724.057 Q629.511 724.561 627.184 726.974 Q624.858 729.37 620.622 733.692 Z" fill="#000000" fill-rule="evenodd" fill-opacity="1" /><path clip-path="url(#clip120)" d="M 0 0 M647.288 722.668 Q649.806 723.206 651.212 724.908 Q652.636 726.609 652.636 729.109 Q652.636 732.946 649.997 735.047 Q647.358 737.147 642.497 737.147 Q640.865 737.147 639.129 736.817 Q637.41 736.505 635.57 735.863 L635.57 732.477 Q637.028 733.328 638.764 733.762 Q640.5 734.196 642.393 734.196 Q645.691 734.196 647.41 732.894 Q649.146 731.592 649.146 729.109 Q649.146 726.818 647.531 725.533 Q645.934 724.231 643.07 724.231 L640.049 724.231 L640.049 721.349 L643.209 721.349 Q645.795 721.349 647.167 720.325 Q648.538 719.283 648.538 717.338 Q648.538 715.342 647.115 714.283 Q645.709 713.206 643.07 713.206 Q641.629 713.206 639.979 713.519 Q638.33 713.831 636.351 714.491 L636.351 711.366 Q638.347 710.811 640.084 710.533 Q641.837 710.255 643.382 710.255 Q647.375 710.255 649.702 712.078 Q652.028 713.884 652.028 716.974 Q652.028 719.127 650.795 720.62 Q649.563 722.095 647.288 722.668 Z" fill="#000000" fill-rule="evenodd" fill-opacity="1" /><path clip-path="url(#clip120)" d="M 0 0 M620.622 833.46 L632.861 833.46 L632.861 836.412 L616.403 836.412 L616.403 833.46 Q618.4 831.394 621.837 827.922 Q625.292 824.433 626.177 823.426 Q627.861 821.533 628.521 820.231 Q629.198 818.912 629.198 817.645 Q629.198 815.579 627.74 814.277 Q626.299 812.974 623.973 812.974 Q622.323 812.974 620.483 813.547 Q618.66 814.12 616.577 815.283 L616.577 811.742 Q618.695 810.891 620.535 810.457 Q622.375 810.023 623.903 810.023 Q627.931 810.023 630.327 812.037 Q632.723 814.051 632.723 817.419 Q632.723 819.016 632.115 820.457 Q631.525 821.881 629.945 823.825 Q629.511 824.329 627.184 826.742 Q624.858 829.138 620.622 833.46 Z" fill="#000000" fill-rule="evenodd" fill-opacity="1" /><path clip-path="url(#clip120)" d="M 0 0 M646.299 813.547 L637.445 827.384 L646.299 827.384 L646.299 813.547 M645.379 810.492 L649.788 810.492 L649.788 827.384 L653.486 827.384 L653.486 830.301 L649.788 830.301 L649.788 836.412 L646.299 836.412 L646.299 830.301 L634.597 830.301 L634.597 826.915 L645.379 810.492 Z" fill="#000000" fill-rule="evenodd" fill-opacity="1" /><circle clip-path="url(#clip122)" cx="548.227" cy="295.464" r="14" fill="#0000ff" fill-rule="evenodd" fill-opacity="1" stroke="none"/>
<circle clip-path="url(#clip122)" cx="548.227" cy="395.232" r="14" fill="#0000ff" fill-rule="evenodd" fill-opacity="1" stroke="none"/>
<circle clip-path="url(#clip122)" cx="684.58" cy="295.464" r="14" fill="#0000ff" fill-rule="evenodd" fill-opacity="1" stroke="none"/>
<circle clip-path="url(#clip122)" cx="684.58" cy="395.232" r="14" fill="#0000ff" fill-rule="evenodd" fill-opacity="1" stroke="none"/>
<circle clip-path="url(#clip122)" cx="548.227" cy="95.9282" r="14" fill="#0000ff" fill-rule="evenodd" fill-opacity="1" stroke="none"/>
<circle clip-path="url(#clip122)" cx="684.58" cy="594.768" r="14" fill="#0000ff" fill-rule="evenodd" fill-opacity="1" stroke="none"/>
<circle clip-path="url(#clip122)" cx="684.58" cy="694.536" r="14" fill="#0000ff" fill-rule="evenodd" fill-opacity="1" stroke="none"/>
<circle clip-path="url(#clip122)" cx="752.756" cy="145.812" r="14" fill="#0000ff" fill-rule="evenodd" fill-opacity="1" stroke="none"/>
<circle clip-path="url(#clip122)" cx="752.756" cy="245.58" r="14" fill="#0000ff" fill-rule="evenodd" fill-opacity="1" stroke="none"/>
<circle clip-path="url(#clip122)" cx="480.05" cy="445.116" r="14" fill="#0000ff" fill-rule="evenodd" fill-opacity="1" stroke="none"/>
<circle clip-path="url(#clip122)" cx="480.05" cy="544.884" r="14" fill="#0000ff" fill-rule="evenodd" fill-opacity="1" stroke="none"/>
<circle clip-path="url(#clip122)" cx="616.403" cy="445.116" r="14" fill="#0000ff" fill-rule="evenodd" fill-opacity="1" stroke="none"/>
<circle clip-path="url(#clip122)" cx="616.403" cy="544.884" r="14" fill="#0000ff" fill-rule="evenodd" fill-opacity="1" stroke="none"/>
<circle clip-path="url(#clip122)" cx="752.756" cy="445.116" r="14" fill="#0000ff" fill-rule="evenodd" fill-opacity="1" stroke="none"/>
<circle clip-path="url(#clip122)" cx="752.756" cy="544.884" r="14" fill="#0000ff" fill-rule="evenodd" fill-opacity="1" stroke="none"/>
<circle clip-path="url(#clip122)" cx="480.05" cy="145.812" r="14" fill="#0000ff" fill-rule="evenodd" fill-opacity="1" stroke="none"/>
<circle clip-path="url(#clip122)" cx="480.05" cy="245.58" r="14" fill="#0000ff" fill-rule="evenodd" fill-opacity="1" stroke="none"/>
<circle clip-path="url(#clip122)" cx="616.403" cy="145.812" r="14" fill="#0000ff" fill-rule="evenodd" fill-opacity="1" stroke="none"/>
<circle clip-path="url(#clip122)" cx="616.403" cy="245.58" r="14" fill="#0000ff" fill-rule="evenodd" fill-opacity="1" stroke="none"/>
<path clip-path="url(#clip120)" d="M 0 0 M548.73 284.737 L554.459 284.737 L554.459 264.963 L548.227 266.213 L548.227 263.018 L554.425 261.768 L557.932 261.768 L557.932 284.737 L563.661 284.737 L563.661 287.688 L548.73 287.688 L548.73 284.737 Z" fill="#000000" fill-rule="evenodd" fill-opacity="1" /><path clip-path="url(#clip120)" d="M 0 0 M552.445 384.505 L564.685 384.505 L564.685 387.456 L548.227 387.456 L548.227 384.505 Q550.223 382.439 553.661 378.967 Q557.116 375.477 558.001 374.47 Q559.685 372.578 560.345 371.276 Q561.022 369.956 561.022 368.689 Q561.022 366.623 559.564 365.321 Q558.123 364.019 555.796 364.019 Q554.147 364.019 552.307 364.592 Q550.484 365.165 548.4 366.328 L548.4 362.786 Q550.518 361.935 552.359 361.501 Q554.199 361.067 555.727 361.067 Q559.754 361.067 562.15 363.081 Q564.546 365.095 564.546 368.463 Q564.546 370.06 563.938 371.501 Q563.348 372.925 561.768 374.869 Q561.334 375.373 559.008 377.786 Q556.682 380.182 552.445 384.505 Z" fill="#000000" fill-rule="evenodd" fill-opacity="1" /><path clip-path="url(#clip120)" d="M 0 0 M696.298 273.712 Q698.816 274.251 700.222 275.952 Q701.645 277.653 701.645 280.153 Q701.645 283.99 699.007 286.091 Q696.368 288.192 691.507 288.192 Q689.875 288.192 688.139 287.862 Q686.42 287.549 684.58 286.907 L684.58 283.521 Q686.038 284.372 687.774 284.806 Q689.51 285.24 691.402 285.24 Q694.701 285.24 696.42 283.938 Q698.156 282.636 698.156 280.153 Q698.156 277.862 696.541 276.577 Q694.944 275.275 692.079 275.275 L689.059 275.275 L689.059 272.393 L692.218 272.393 Q694.805 272.393 696.177 271.369 Q697.548 270.327 697.548 268.383 Q697.548 266.386 696.125 265.327 Q694.718 264.251 692.079 264.251 Q690.639 264.251 688.989 264.563 Q687.34 264.876 685.361 265.535 L685.361 262.41 Q687.357 261.855 689.093 261.577 Q690.847 261.299 692.392 261.299 Q696.385 261.299 698.711 263.122 Q701.038 264.928 701.038 268.018 Q701.038 270.171 699.805 271.664 Q698.573 273.14 696.298 273.712 Z" fill="#000000" fill-rule="evenodd" fill-opacity="1" /><path clip-path="url(#clip120)" d="M 0 0 M696.281 364.592 L687.427 378.428 L696.281 378.428 L696.281 364.592 M695.361 361.536 L699.77 361.536 L699.77 378.428 L703.468 378.428 L703.468 381.345 L699.77 381.345 L699.77 387.456 L696.281 387.456 L696.281 381.345 L684.58 381.345 L684.58 377.96 L695.361 361.536 Z" fill="#000000" fill-rule="evenodd" fill-opacity="1" /><path clip-path="url(#clip120)" d="M 0 0 M557.116 75.8433 Q554.616 75.8433 553.175 77.1801 Q551.751 78.5169 551.751 80.8606 Q551.751 83.2043 553.175 84.5411 Q554.616 85.8779 557.116 85.8779 Q559.616 85.8779 561.057 84.5411 Q562.498 83.187 562.498 80.8606 Q562.498 78.5169 561.057 77.1801 Q559.633 75.8433 557.116 75.8433 M553.609 74.3502 Q551.352 73.7947 550.084 72.2495 Q548.834 70.7044 548.834 68.4822 Q548.834 65.3746 551.039 63.569 Q553.261 61.7635 557.116 61.7635 Q560.987 61.7635 563.192 63.569 Q565.397 65.3746 565.397 68.4822 Q565.397 70.7044 564.129 72.2495 Q562.879 73.7947 560.64 74.3502 Q563.175 74.9405 564.581 76.6592 Q566.004 78.378 566.004 80.8606 Q566.004 84.6279 563.695 86.6418 Q561.404 88.6557 557.116 88.6557 Q552.827 88.6557 550.518 86.6418 Q548.227 84.6279 548.227 80.8606 Q548.227 78.378 549.65 76.6592 Q551.074 74.9405 553.609 74.3502 M552.324 68.812 Q552.324 70.8259 553.574 71.9544 Q554.841 73.0829 557.116 73.0829 Q559.373 73.0829 560.64 71.9544 Q561.925 70.8259 561.925 68.812 Q561.925 66.7982 560.64 65.6697 Q559.373 64.5412 557.116 64.5412 Q554.841 64.5412 553.574 65.6697 Q552.324 66.7982 552.324 68.812 Z" fill="#000000" fill-rule="evenodd" fill-opacity="1" /><path clip-path="url(#clip120)" d="M 0 0 M686.246 586.454 L686.246 583.259 Q687.566 583.884 688.92 584.214 Q690.274 584.544 691.576 584.544 Q695.048 584.544 696.871 582.218 Q698.711 579.874 698.972 575.117 Q697.965 576.61 696.42 577.409 Q694.875 578.207 693 578.207 Q689.111 578.207 686.836 575.864 Q684.58 573.502 684.58 569.423 Q684.58 565.43 686.941 563.016 Q689.302 560.603 693.225 560.603 Q697.722 560.603 700.083 564.058 Q702.461 567.496 702.461 574.058 Q702.461 580.186 699.545 583.85 Q696.645 587.495 691.732 587.495 Q690.413 587.495 689.059 587.235 Q687.705 586.975 686.246 586.454 M693.225 575.464 Q695.586 575.464 696.958 573.85 Q698.347 572.235 698.347 569.423 Q698.347 566.627 696.958 565.013 Q695.586 563.381 693.225 563.381 Q690.864 563.381 689.475 565.013 Q688.104 566.627 688.104 569.423 Q688.104 572.235 689.475 573.85 Q690.864 575.464 693.225 575.464 Z" fill="#000000" fill-rule="evenodd" fill-opacity="1" /><path clip-path="url(#clip120)" d="M 0 0 M685.083 683.809 L690.812 683.809 L690.812 664.034 L684.58 665.284 L684.58 662.09 L690.777 660.84 L694.284 660.84 L694.284 683.809 L700.013 683.809 L700.013 686.76 L685.083 686.76 L685.083 683.809 Z" fill="#000000" fill-rule="evenodd" fill-opacity="1" /><path clip-path="url(#clip120)" d="M 0 0 M711.315 663.149 Q708.607 663.149 707.236 665.823 Q705.881 668.479 705.881 673.826 Q705.881 679.156 707.236 681.829 Q708.607 684.486 711.315 684.486 Q714.041 684.486 715.395 681.829 Q716.767 679.156 716.767 673.826 Q716.767 668.479 715.395 665.823 Q714.041 663.149 711.315 663.149 M711.315 660.371 Q715.673 660.371 717.965 663.826 Q720.274 667.263 720.274 673.826 Q720.274 680.371 717.965 683.826 Q715.673 687.263 711.315 687.263 Q706.958 687.263 704.649 683.826 Q702.357 680.371 702.357 673.826 Q702.357 667.263 704.649 663.826 Q706.958 660.371 711.315 660.371 Z" fill="#000000" fill-rule="evenodd" fill-opacity="1" /><path clip-path="url(#clip120)" d="M 0 0 M753.259 135.085 L758.989 135.085 L758.989 115.311 L752.756 116.561 L752.756 113.366 L758.954 112.116 L762.461 112.116 L762.461 135.085 L768.19 135.085 L768.19 138.036 L753.259 138.036 L753.259 135.085 Z" fill="#000000" fill-rule="evenodd" fill-opacity="1" /><path clip-path="url(#clip120)" d="M 0 0 M782.617 124.061 Q785.134 124.599 786.54 126.3 Q787.964 128.002 787.964 130.502 Q787.964 134.338 785.325 136.439 Q782.686 138.54 777.825 138.54 Q776.193 138.54 774.457 138.21 Q772.738 137.897 770.898 137.255 L770.898 133.87 Q772.356 134.72 774.093 135.154 Q775.829 135.588 777.721 135.588 Q781.02 135.588 782.738 134.286 Q784.474 132.984 784.474 130.502 Q784.474 128.21 782.86 126.925 Q781.263 125.623 778.398 125.623 L775.377 125.623 L775.377 122.741 L778.537 122.741 Q781.124 122.741 782.495 121.717 Q783.867 120.675 783.867 118.731 Q783.867 116.734 782.443 115.675 Q781.037 114.599 778.398 114.599 Q776.957 114.599 775.308 114.911 Q773.659 115.224 771.679 115.884 L771.679 112.759 Q773.676 112.203 775.412 111.925 Q777.165 111.647 778.711 111.647 Q782.704 111.647 785.03 113.47 Q787.356 115.276 787.356 118.366 Q787.356 120.519 786.124 122.012 Q784.891 123.488 782.617 124.061 Z" fill="#000000" fill-rule="evenodd" fill-opacity="1" /><path clip-path="url(#clip120)" d="M 0 0 M753.259 234.853 L758.989 234.853 L758.989 215.079 L752.756 216.329 L752.756 213.134 L758.954 211.884 L762.461 211.884 L762.461 234.853 L768.19 234.853 L768.19 237.804 L753.259 237.804 L753.259 234.853 Z" fill="#000000" fill-rule="evenodd" fill-opacity="1" /><path clip-path="url(#clip120)" d="M 0 0 M781.627 214.94 L772.773 228.776 L781.627 228.776 L781.627 214.94 M780.707 211.884 L785.117 211.884 L785.117 228.776 L788.815 228.776 L788.815 231.693 L785.117 231.693 L785.117 237.804 L781.627 237.804 L781.627 231.693 L769.926 231.693 L769.926 228.308 L780.707 211.884 Z" fill="#000000" fill-rule="evenodd" fill-opacity="1" /><path clip-path="url(#clip120)" d="M 0 0 M480.554 434.389 L486.283 434.389 L486.283 414.614 L480.05 415.864 L480.05 412.67 L486.248 411.42 L489.755 411.42 L489.755 434.389 L495.484 434.389 L495.484 437.34 L480.554 437.34 L480.554 434.389 Z" fill="#000000" fill-rule="evenodd" fill-opacity="1" /><path clip-path="url(#clip120)" d="M 0 0 M499.321 411.42 L513.088 411.42 L513.088 414.371 L502.533 414.371 L502.533 420.726 Q503.297 420.465 504.061 420.344 Q504.825 420.205 505.588 420.205 Q509.929 420.205 512.463 422.583 Q514.998 424.962 514.998 429.024 Q514.998 433.208 512.394 435.534 Q509.79 437.843 505.05 437.843 Q503.418 437.843 501.717 437.566 Q500.033 437.288 498.227 436.732 L498.227 433.208 Q499.79 434.059 501.457 434.475 Q503.123 434.892 504.981 434.892 Q507.984 434.892 509.738 433.312 Q511.491 431.732 511.491 429.024 Q511.491 426.316 509.738 424.736 Q507.984 423.156 504.981 423.156 Q503.575 423.156 502.168 423.469 Q500.779 423.781 499.321 424.441 L499.321 411.42 Z" fill="#000000" fill-rule="evenodd" fill-opacity="1" /><path clip-path="url(#clip120)" d="M 0 0 M480.554 534.157 L486.283 534.157 L486.283 514.382 L480.05 515.632 L480.05 512.438 L486.248 511.188 L489.755 511.188 L489.755 534.157 L495.484 534.157 L495.484 537.108 L480.554 537.108 L480.554 534.157 Z" fill="#000000" fill-rule="evenodd" fill-opacity="1" /><path clip-path="url(#clip120)" d="M 0 0 M507.22 522.75 Q504.859 522.75 503.47 524.365 Q502.099 525.98 502.099 528.792 Q502.099 531.587 503.47 533.219 Q504.859 534.834 507.22 534.834 Q509.581 534.834 510.953 533.219 Q512.342 531.587 512.342 528.792 Q512.342 525.98 510.953 524.365 Q509.581 522.75 507.22 522.75 M514.182 511.761 L514.182 514.955 Q512.863 514.33 511.509 514 Q510.172 513.671 508.852 513.671 Q505.38 513.671 503.54 516.014 Q501.717 518.358 501.457 523.098 Q502.481 521.587 504.026 520.789 Q505.571 519.973 507.429 519.973 Q511.335 519.973 513.592 522.351 Q515.866 524.712 515.866 528.792 Q515.866 532.785 513.505 535.198 Q511.144 537.611 507.22 537.611 Q502.724 537.611 500.345 534.174 Q497.967 530.719 497.967 524.174 Q497.967 518.028 500.884 514.382 Q503.8 510.719 508.713 510.719 Q510.033 510.719 511.37 510.98 Q512.724 511.24 514.182 511.761 Z" fill="#000000" fill-rule="evenodd" fill-opacity="1" /><path clip-path="url(#clip120)" d="M 0 0 M616.907 434.389 L622.636 434.389 L622.636 414.614 L616.403 415.864 L616.403 412.67 L622.601 411.42 L626.108 411.42 L626.108 434.389 L631.837 434.389 L631.837 437.34 L616.907 437.34 L616.907 434.389 Z" fill="#000000" fill-rule="evenodd" fill-opacity="1" /><path clip-path="url(#clip120)" d="M 0 0 M634.754 411.42 L651.42 411.42 L651.42 412.913 L642.011 437.34 L638.347 437.34 L647.202 414.371 L634.754 414.371 L634.754 411.42 Z" fill="#000000" fill-rule="evenodd" fill-opacity="1" /><path clip-path="url(#clip120)" d="M 0 0 M616.907 534.157 L622.636 534.157 L622.636 514.382 L616.403 515.632 L616.403 512.438 L622.601 511.188 L626.108 511.188 L626.108 534.157 L631.837 534.157 L631.837 537.108 L616.907 537.108 L616.907 534.157 Z" fill="#000000" fill-rule="evenodd" fill-opacity="1" /><path clip-path="url(#clip120)" d="M 0 0 M643.139 524.799 Q640.639 524.799 639.198 526.136 Q637.775 527.473 637.775 529.816 Q637.775 532.16 639.198 533.497 Q640.639 534.834 643.139 534.834 Q645.639 534.834 647.08 533.497 Q648.521 532.143 648.521 529.816 Q648.521 527.473 647.08 526.136 Q645.656 524.799 643.139 524.799 M639.632 523.306 Q637.375 522.75 636.108 521.205 Q634.858 519.66 634.858 517.438 Q634.858 514.33 637.063 512.525 Q639.285 510.719 643.139 510.719 Q647.011 510.719 649.215 512.525 Q651.42 514.33 651.42 517.438 Q651.42 519.66 650.153 521.205 Q648.903 522.75 646.663 523.306 Q649.198 523.896 650.604 525.615 Q652.028 527.334 652.028 529.816 Q652.028 533.584 649.719 535.598 Q647.427 537.611 643.139 537.611 Q638.851 537.611 636.542 535.598 Q634.25 533.584 634.25 529.816 Q634.25 527.334 635.674 525.615 Q637.097 523.896 639.632 523.306 M638.347 517.768 Q638.347 519.782 639.597 520.91 Q640.865 522.039 643.139 522.039 Q645.396 522.039 646.663 520.91 Q647.948 519.782 647.948 517.768 Q647.948 515.754 646.663 514.625 Q645.396 513.497 643.139 513.497 Q640.865 513.497 639.597 514.625 Q638.347 515.754 638.347 517.768 Z" fill="#000000" fill-rule="evenodd" fill-opacity="1" /><path clip-path="url(#clip120)" d="M 0 0 M753.259 434.389 L758.989 434.389 L758.989 414.614 L752.756 415.864 L752.756 412.67 L758.954 411.42 L762.461 411.42 L762.461 434.389 L768.19 434.389 L768.19 437.34 L753.259 437.34 L753.259 434.389 Z" fill="#000000" fill-rule="evenodd" fill-opacity="1" /><path clip-path="url(#clip120)" d="M 0 0 M772.096 436.802 L772.096 433.607 Q773.416 434.232 774.77 434.562 Q776.124 434.892 777.426 434.892 Q780.898 434.892 782.721 432.566 Q784.561 430.222 784.822 425.465 Q783.815 426.958 782.27 427.757 Q780.725 428.555 778.85 428.555 Q774.961 428.555 772.686 426.212 Q770.429 423.851 770.429 419.771 Q770.429 415.778 772.791 413.364 Q775.152 410.951 779.075 410.951 Q783.572 410.951 785.933 414.406 Q788.311 417.844 788.311 424.406 Q788.311 430.535 785.395 434.198 Q782.495 437.843 777.582 437.843 Q776.263 437.843 774.909 437.583 Q773.554 437.323 772.096 436.802 M779.075 425.812 Q781.436 425.812 782.808 424.198 Q784.197 422.583 784.197 419.771 Q784.197 416.976 782.808 415.361 Q781.436 413.729 779.075 413.729 Q776.714 413.729 775.325 415.361 Q773.954 416.976 773.954 419.771 Q773.954 422.583 775.325 424.198 Q776.714 425.812 779.075 425.812 Z" fill="#000000" fill-rule="evenodd" fill-opacity="1" /><path clip-path="url(#clip120)" d="M 0 0 M756.975 534.157 L769.214 534.157 L769.214 537.108 L752.756 537.108 L752.756 534.157 Q754.752 532.091 758.19 528.618 Q761.645 525.129 762.53 524.122 Q764.214 522.23 764.874 520.928 Q765.551 519.608 765.551 518.341 Q765.551 516.275 764.093 514.973 Q762.652 513.671 760.325 513.671 Q758.676 513.671 756.836 514.244 Q755.013 514.816 752.93 515.98 L752.93 512.438 Q755.048 511.587 756.888 511.153 Q758.728 510.719 760.256 510.719 Q764.284 510.719 766.679 512.733 Q769.075 514.747 769.075 518.115 Q769.075 519.712 768.468 521.153 Q767.877 522.577 766.297 524.521 Q765.863 525.025 763.537 527.438 Q761.211 529.834 756.975 534.157 Z" fill="#000000" fill-rule="evenodd" fill-opacity="1" /><path clip-path="url(#clip120)" d="M 0 0 M780.516 513.497 Q777.808 513.497 776.436 516.171 Q775.082 518.827 775.082 524.174 Q775.082 529.504 776.436 532.177 Q777.808 534.834 780.516 534.834 Q783.242 534.834 784.596 532.177 Q785.968 529.504 785.968 524.174 Q785.968 518.827 784.596 516.171 Q783.242 513.497 780.516 513.497 M780.516 510.719 Q784.874 510.719 787.165 514.174 Q789.474 517.612 789.474 524.174 Q789.474 530.719 787.165 534.174 Q784.874 537.611 780.516 537.611 Q776.159 537.611 773.85 534.174 Q771.558 530.719 771.558 524.174 Q771.558 517.612 773.85 514.174 Q776.159 510.719 780.516 510.719 Z" fill="#000000" fill-rule="evenodd" fill-opacity="1" /><path clip-path="url(#clip120)" d="M 0 0 M484.269 135.085 L496.509 135.085 L496.509 138.036 L480.05 138.036 L480.05 135.085 Q482.047 133.019 485.484 129.547 Q488.939 126.057 489.825 125.05 Q491.509 123.158 492.168 121.856 Q492.845 120.536 492.845 119.269 Q492.845 117.203 491.387 115.901 Q489.946 114.599 487.62 114.599 Q485.971 114.599 484.13 115.172 Q482.307 115.745 480.224 116.908 L480.224 113.366 Q482.342 112.515 484.182 112.081 Q486.023 111.647 487.55 111.647 Q491.578 111.647 493.974 113.661 Q496.37 115.675 496.37 119.043 Q496.37 120.64 495.762 122.081 Q495.172 123.505 493.592 125.449 Q493.158 125.953 490.832 128.366 Q488.505 130.762 484.269 135.085 Z" fill="#000000" fill-rule="evenodd" fill-opacity="1" /><path clip-path="url(#clip120)" d="M 0 0 M500.918 135.085 L506.647 135.085 L506.647 115.311 L500.415 116.561 L500.415 113.366 L506.613 112.116 L510.12 112.116 L510.12 135.085 L515.849 135.085 L515.849 138.036 L500.918 138.036 L500.918 135.085 Z" fill="#000000" fill-rule="evenodd" fill-opacity="1" /><path clip-path="url(#clip120)" d="M 0 0 M484.269 234.853 L496.509 234.853 L496.509 237.804 L480.05 237.804 L480.05 234.853 Q482.047 232.787 485.484 229.315 Q488.939 225.825 489.825 224.818 Q491.509 222.926 492.168 221.624 Q492.845 220.304 492.845 219.037 Q492.845 216.971 491.387 215.669 Q489.946 214.367 487.62 214.367 Q485.971 214.367 484.13 214.94 Q482.307 215.513 480.224 216.676 L480.224 213.134 Q482.342 212.283 484.182 211.849 Q486.023 211.415 487.55 211.415 Q491.578 211.415 493.974 213.429 Q496.37 215.443 496.37 218.811 Q496.37 220.408 495.762 221.849 Q495.172 223.273 493.592 225.217 Q493.158 225.721 490.832 228.134 Q488.505 230.53 484.269 234.853 Z" fill="#000000" fill-rule="evenodd" fill-opacity="1" /><path clip-path="url(#clip120)" d="M 0 0 M503.332 234.853 L515.571 234.853 L515.571 237.804 L499.113 237.804 L499.113 234.853 Q501.109 232.787 504.547 229.315 Q508.002 225.825 508.887 224.818 Q510.571 222.926 511.231 221.624 Q511.908 220.304 511.908 219.037 Q511.908 216.971 510.45 215.669 Q509.009 214.367 506.682 214.367 Q505.033 214.367 503.193 214.94 Q501.37 215.513 499.286 216.676 L499.286 213.134 Q501.404 212.283 503.245 211.849 Q505.085 211.415 506.613 211.415 Q510.641 211.415 513.036 213.429 Q515.432 215.443 515.432 218.811 Q515.432 220.408 514.825 221.849 Q514.234 223.273 512.654 225.217 Q512.22 225.721 509.894 228.134 Q507.568 230.53 503.332 234.853 Z" fill="#000000" fill-rule="evenodd" fill-opacity="1" /><path clip-path="url(#clip120)" d="M 0 0 M620.622 135.085 L632.861 135.085 L632.861 138.036 L616.403 138.036 L616.403 135.085 Q618.4 133.019 621.837 129.547 Q625.292 126.057 626.177 125.05 Q627.861 123.158 628.521 121.856 Q629.198 120.536 629.198 119.269 Q629.198 117.203 627.74 115.901 Q626.299 114.599 623.973 114.599 Q622.323 114.599 620.483 115.172 Q618.66 115.745 616.577 116.908 L616.577 113.366 Q618.695 112.515 620.535 112.081 Q622.375 111.647 623.903 111.647 Q627.931 111.647 630.327 113.661 Q632.723 115.675 632.723 119.043 Q632.723 120.64 632.115 122.081 Q631.525 123.505 629.945 125.449 Q629.511 125.953 627.184 128.366 Q624.858 130.762 620.622 135.085 Z" fill="#000000" fill-rule="evenodd" fill-opacity="1" /><path clip-path="url(#clip120)" d="M 0 0 M647.288 124.061 Q649.806 124.599 651.212 126.3 Q652.636 128.002 652.636 130.502 Q652.636 134.338 649.997 136.439 Q647.358 138.54 642.497 138.54 Q640.865 138.54 639.129 138.21 Q637.41 137.897 635.57 137.255 L635.57 133.87 Q637.028 134.72 638.764 135.154 Q640.5 135.588 642.393 135.588 Q645.691 135.588 647.41 134.286 Q649.146 132.984 649.146 130.502 Q649.146 128.21 647.531 126.925 Q645.934 125.623 643.07 125.623 L640.049 125.623 L640.049 122.741 L643.209 122.741 Q645.795 122.741 647.167 121.717 Q648.538 120.675 648.538 118.731 Q648.538 116.734 647.115 115.675 Q645.709 114.599 643.07 114.599 Q641.629 114.599 639.979 114.911 Q638.33 115.224 636.351 115.884 L636.351 112.759 Q638.347 112.203 640.084 111.925 Q641.837 111.647 643.382 111.647 Q647.375 111.647 649.702 113.47 Q652.028 115.276 652.028 118.366 Q652.028 120.519 650.795 122.012 Q649.563 123.488 647.288 124.061 Z" fill="#000000" fill-rule="evenodd" fill-opacity="1" /><path clip-path="url(#clip120)" d="M 0 0 M620.622 234.853 L632.861 234.853 L632.861 237.804 L616.403 237.804 L616.403 234.853 Q618.4 232.787 621.837 229.315 Q625.292 225.825 626.177 224.818 Q627.861 222.926 628.521 221.624 Q629.198 220.304 629.198 219.037 Q629.198 216.971 627.74 215.669 Q626.299 214.367 623.973 214.367 Q622.323 214.367 620.483 214.94 Q618.66 215.513 616.577 216.676 L616.577 213.134 Q618.695 212.283 620.535 211.849 Q622.375 211.415 623.903 211.415 Q627.931 211.415 630.327 213.429 Q632.723 215.443 632.723 218.811 Q632.723 220.408 632.115 221.849 Q631.525 223.273 629.945 225.217 Q629.511 225.721 627.184 228.134 Q624.858 230.53 620.622 234.853 Z" fill="#000000" fill-rule="evenodd" fill-opacity="1" /><path clip-path="url(#clip120)" d="M 0 0 M646.299 214.94 L637.445 228.776 L646.299 228.776 L646.299 214.94 M645.379 211.884 L649.788 211.884 L649.788 228.776 L653.486 228.776 L653.486 231.693 L649.788 231.693 L649.788 237.804 L646.299 237.804 L646.299 231.693 L634.597 231.693 L634.597 228.308 L645.379 211.884 Z" fill="#000000" fill-rule="evenodd" fill-opacity="1" /><circle clip-path="url(#clip122)" cx="684.58" cy="95.9282" r="14" fill="#0000ff" fill-rule="evenodd" fill-opacity="1" stroke="none"/>
<path clip-path="url(#clip120)" d="M 0 0 M685.083 85.2008 L690.812 85.2008 L690.812 65.4266 L684.58 66.6766 L684.58 63.4822 L690.777 62.2322 L694.284 62.2322 L694.284 85.2008 L700.013 85.2008 L700.013 88.1522 L685.083 88.1522 L685.083 85.2008 Z" fill="#000000" fill-rule="evenodd" fill-opacity="1" /><path clip-path="url(#clip120)" d="M 0 0 M711.315 64.5412 Q708.607 64.5412 707.236 67.2148 Q705.881 69.8711 705.881 75.2183 Q705.881 80.5481 707.236 83.2217 Q708.607 85.8779 711.315 85.8779 Q714.041 85.8779 715.395 83.2217 Q716.767 80.5481 716.767 75.2183 Q716.767 69.8711 715.395 67.2148 Q714.041 64.5412 711.315 64.5412 M711.315 61.7635 Q715.673 61.7635 717.965 65.2183 Q720.274 68.6558 720.274 75.2183 Q720.274 81.7634 717.965 85.2182 Q715.673 88.6557 711.315 88.6557 Q706.958 88.6557 704.649 85.2182 Q702.357 81.7634 702.357 75.2183 Q702.357 68.6558 704.649 65.2183 Q706.958 61.7635 711.315 61.7635 Z" fill="#000000" fill-rule="evenodd" fill-opacity="1" /></svg>
