<?xml version="1.0" encoding="utf-8"?>
<svg xmlns="http://www.w3.org/2000/svg" xmlns:xlink="http://www.w3.org/1999/xlink" width="200" height="200" viewBox="0 0 800 800">
<defs>
  <clipPath id="clip110">
    <rect x="0" y="0" width="800" height="800"/>
  </clipPath>
</defs>
<path clip-path="url(#clip110)" d="
M0 800 L800 800 L800 0 L0 0  Z
  " fill="#ffffff" fill-rule="evenodd" fill-opacity="1"/>
<defs>
  <clipPath id="clip111">
    <rect x="160" y="80" width="561" height="561"/>
  </clipPath>
</defs>
<path clip-path="url(#clip110)" d="
M70.9921 729.008 L752.756 729.008 L752.756 62.9921 L70.9921 62.9921  Z
  " fill="#ffffff" fill-rule="evenodd" fill-opacity="1"/>
<defs>
  <clipPath id="clip112">
    <rect x="70" y="62" width="683" height="667"/>
  </clipPath>
</defs>
<polyline clip-path="url(#clip110)" style="stroke:#000000; stroke-width:4; stroke-opacity:1; fill:none" points="
  70.9921,729.008 752.756,729.008 
  "/>
<polyline clip-path="url(#clip110)" style="stroke:#000000; stroke-width:4; stroke-opacity:1; fill:none" points="
  70.9921,729.008 70.9921,62.9921 
  "/>
<polyline clip-path="url(#clip110)" style="stroke:#000000; stroke-width:4; stroke-opacity:1; fill:none" points="
  70.9921,729.008 70.9921,721.016 
  "/>
<polyline clip-path="url(#clip110)" style="stroke:#000000; stroke-width:4; stroke-opacity:1; fill:none" points="
  241.433,729.008 241.433,721.016 
  "/>
<polyline clip-path="url(#clip110)" style="stroke:#000000; stroke-width:4; stroke-opacity:1; fill:none" points="
  411.874,729.008 411.874,721.016 
  "/>
<polyline clip-path="url(#clip110)" style="stroke:#000000; stroke-width:4; stroke-opacity:1; fill:none" points="
  582.315,729.008 582.315,721.016 
  "/>
<polyline clip-path="url(#clip110)" style="stroke:#000000; stroke-width:4; stroke-opacity:1; fill:none" points="
  752.756,729.008 752.756,721.016 
  "/>
<polyline clip-path="url(#clip110)" style="stroke:#000000; stroke-width:4; stroke-opacity:1; fill:none" points="
  70.9921,729.008 79.1733,729.008 
  "/>
<polyline clip-path="url(#clip110)" style="stroke:#000000; stroke-width:4; stroke-opacity:1; fill:none" points="
  70.9921,562.504 79.1733,562.504 
  "/>
<polyline clip-path="url(#clip110)" style="stroke:#000000; stroke-width:4; stroke-opacity:1; fill:none" points="
  70.9921,396 79.1733,396 
  "/>
<polyline clip-path="url(#clip110)" style="stroke:#000000; stroke-width:4; stroke-opacity:1; fill:none" points="
  70.9921,229.496 79.1733,229.496 
  "/>
<polyline clip-path="url(#clip110)" style="stroke:#000000; stroke-width:4; stroke-opacity:1; fill:none" points="
  70.9921,62.9921 79.1733,62.9921 
  "/>
<path clip-path="url(#clip110)" d="M 0 0 M52.0455 759.596 L64.5223 759.596 L64.5223 763.392 L52.0455 763.392 L52.0455 759.596 Z" fill="#000000" fill-rule="evenodd" fill-opacity="1" /><path clip-path="url(#clip110)" d="M 0 0 M73.6194 770.545 L89.9388 770.545 L89.9388 774.48 L67.9945 774.48 L67.9945 770.545 Q70.6565 767.79 75.2398 763.16 Q79.8462 758.508 81.0268 757.165 Q83.2722 754.642 84.1518 752.906 Q85.0546 751.147 85.0546 749.457 Q85.0546 746.702 83.1101 744.966 Q81.1888 743.23 78.087 743.23 Q75.8879 743.23 73.4342 743.994 Q71.0037 744.758 68.2259 746.309 L68.2259 741.587 Q71.05 740.452 73.5037 739.874 Q75.9574 739.295 77.9944 739.295 Q83.3647 739.295 86.5592 741.98 Q89.7536 744.665 89.7536 749.156 Q89.7536 751.286 88.9434 753.207 Q88.1564 755.105 86.0499 757.698 Q85.4712 758.369 82.3694 761.586 Q79.2675 764.781 73.6194 770.545 Z" fill="#000000" fill-rule="evenodd" fill-opacity="1" /><path clip-path="url(#clip110)" d="M 0 0 M222.301 759.596 L234.778 759.596 L234.778 763.392 L222.301 763.392 L222.301 759.596 Z" fill="#000000" fill-rule="evenodd" fill-opacity="1" /><path clip-path="url(#clip110)" d="M 0 0 M240.658 770.545 L248.296 770.545 L248.296 744.179 L239.986 745.846 L239.986 741.587 L248.25 739.92 L252.926 739.92 L252.926 770.545 L260.565 770.545 L260.565 774.48 L240.658 774.48 L240.658 770.545 Z" fill="#000000" fill-rule="evenodd" fill-opacity="1" /><path clip-path="url(#clip110)" d="M 0 0 M411.874 742.999 Q408.263 742.999 406.434 746.563 Q404.629 750.105 404.629 757.235 Q404.629 764.341 406.434 767.906 Q408.263 771.447 411.874 771.447 Q415.508 771.447 417.314 767.906 Q419.142 764.341 419.142 757.235 Q419.142 750.105 417.314 746.563 Q415.508 742.999 411.874 742.999 M411.874 739.295 Q417.684 739.295 420.74 743.901 Q423.818 748.485 423.818 757.235 Q423.818 765.961 420.74 770.568 Q417.684 775.151 411.874 775.151 Q406.064 775.151 402.985 770.568 Q399.93 765.961 399.93 757.235 Q399.93 748.485 402.985 743.901 Q406.064 739.295 411.874 739.295 Z" fill="#000000" fill-rule="evenodd" fill-opacity="1" /><path clip-path="url(#clip110)" d="M 0 0 M572.697 770.545 L580.336 770.545 L580.336 744.179 L572.026 745.846 L572.026 741.587 L580.29 739.92 L584.965 739.92 L584.965 770.545 L592.604 770.545 L592.604 774.48 L572.697 774.48 L572.697 770.545 Z" fill="#000000" fill-rule="evenodd" fill-opacity="1" /><path clip-path="url(#clip110)" d="M 0 0 M747.409 770.545 L763.728 770.545 L763.728 774.48 L741.784 774.48 L741.784 770.545 Q744.446 767.79 749.029 763.16 Q753.636 758.508 754.816 757.165 Q757.061 754.642 757.941 752.906 Q758.844 751.147 758.844 749.457 Q758.844 746.702 756.899 744.966 Q754.978 743.23 751.876 743.23 Q749.677 743.23 747.224 743.994 Q744.793 744.758 742.015 746.309 L742.015 741.587 Q744.839 740.452 747.293 739.874 Q749.747 739.295 751.784 739.295 Q757.154 739.295 760.348 741.98 Q763.543 744.665 763.543 749.156 Q763.543 751.286 762.733 753.207 Q761.946 755.105 759.839 757.698 Q759.261 758.369 756.159 761.586 Q753.057 764.781 747.409 770.545 Z" fill="#000000" fill-rule="evenodd" fill-opacity="1" /><path clip-path="url(#clip110)" d="M 0 0 M25.0988 731.404 L37.5756 731.404 L37.5756 735.2 L25.0988 735.2 L25.0988 731.404 Z" fill="#000000" fill-rule="evenodd" fill-opacity="1" /><path clip-path="url(#clip110)" d="M 0 0 M46.6728 742.353 L62.9921 742.353 L62.9921 746.288 L41.0478 746.288 L41.0478 742.353 Q43.7098 739.598 48.2931 734.968 Q52.8996 730.316 54.0801 728.973 Q56.3255 726.45 57.2051 724.714 Q58.1079 722.955 58.1079 721.265 Q58.1079 718.51 56.1635 716.774 Q54.2422 715.038 51.1403 715.038 Q48.9413 715.038 46.4876 715.802 Q44.057 716.566 41.2793 718.117 L41.2793 713.395 Q44.1033 712.26 46.557 711.682 Q49.0107 711.103 51.0477 711.103 Q56.4181 711.103 59.6125 713.788 Q62.8069 716.473 62.8069 720.964 Q62.8069 723.094 61.9968 725.015 Q61.2097 726.913 59.1033 729.506 Q58.5246 730.177 55.4227 733.394 Q52.3209 736.589 46.6728 742.353 Z" fill="#000000" fill-rule="evenodd" fill-opacity="1" /><path clip-path="url(#clip110)" d="M 0 0 M24.7284 564.9 L37.2052 564.9 L37.2052 568.696 L24.7284 568.696 L24.7284 564.9 Z" fill="#000000" fill-rule="evenodd" fill-opacity="1" /><path clip-path="url(#clip110)" d="M 0 0 M43.0848 575.849 L50.7237 575.849 L50.7237 549.483 L42.4135 551.15 L42.4135 546.891 L50.6774 545.224 L55.3533 545.224 L55.3533 575.849 L62.9921 575.849 L62.9921 579.784 L43.0848 579.784 L43.0848 575.849 Z" fill="#000000" fill-rule="evenodd" fill-opacity="1" /><path clip-path="url(#clip110)" d="M 0 0 M51.0477 381.799 Q47.4367 381.799 45.608 385.363 Q43.8024 388.905 43.8024 396.035 Q43.8024 403.141 45.608 406.706 Q47.4367 410.248 51.0477 410.248 Q54.682 410.248 56.4875 406.706 Q58.3162 403.141 58.3162 396.035 Q58.3162 388.905 56.4875 385.363 Q54.682 381.799 51.0477 381.799 M51.0477 378.095 Q56.8579 378.095 59.9134 382.701 Q62.9921 387.285 62.9921 396.035 Q62.9921 404.762 59.9134 409.368 Q56.8579 413.951 51.0477 413.951 Q45.2376 413.951 42.1589 409.368 Q39.1034 404.762 39.1034 396.035 Q39.1034 387.285 42.1589 382.701 Q45.2376 378.095 51.0477 378.095 Z" fill="#000000" fill-rule="evenodd" fill-opacity="1" /><path clip-path="url(#clip110)" d="M 0 0 M43.0848 242.841 L50.7237 242.841 L50.7237 216.475 L42.4135 218.142 L42.4135 213.883 L50.6774 212.216 L55.3533 212.216 L55.3533 242.841 L62.9921 242.841 L62.9921 246.776 L43.0848 246.776 L43.0848 242.841 Z" fill="#000000" fill-rule="evenodd" fill-opacity="1" /><path clip-path="url(#clip110)" d="M 0 0 M46.6728 76.337 L62.9921 76.337 L62.9921 80.2721 L41.0478 80.2721 L41.0478 76.337 Q43.7098 73.5823 48.2931 68.9527 Q52.8996 64.3 54.0801 62.9574 Q56.3255 60.4343 57.2051 58.6982 Q58.1079 56.9389 58.1079 55.2491 Q58.1079 52.4945 56.1635 50.7584 Q54.2422 49.0223 51.1403 49.0223 Q48.9413 49.0223 46.4876 49.7862 Q44.057 50.5501 41.2793 52.101 L41.2793 47.3788 Q44.1033 46.2445 46.557 45.6658 Q49.0107 45.0871 51.0477 45.0871 Q56.4181 45.0871 59.6125 47.7723 Q62.8069 50.4575 62.8069 54.9482 Q62.8069 57.0778 61.9968 58.9991 Q61.2097 60.8972 59.1033 63.4898 Q58.5246 64.1611 55.4227 67.3787 Q52.3209 70.5731 46.6728 76.337 Z" fill="#000000" fill-rule="evenodd" fill-opacity="1" /><path clip-path="url(#clip110)" d="M 0 0 M359.235 20.523 Q360.833 17.6527 363.055 16.2869 Q365.277 14.9212 368.286 14.9212 Q372.337 14.9212 374.536 17.7684 Q376.735 20.5925 376.735 25.8239 L376.735 41.472 L372.453 41.472 L372.453 25.9628 Q372.453 22.236 371.133 20.4304 Q369.814 18.6249 367.106 18.6249 Q363.796 18.6249 361.874 20.824 Q359.953 23.023 359.953 26.8193 L359.953 41.472 L355.671 41.472 L355.671 25.9628 Q355.671 22.2128 354.351 20.4304 Q353.032 18.6249 350.277 18.6249 Q347.013 18.6249 345.092 20.8471 Q343.171 23.0462 343.171 26.8193 L343.171 41.472 L338.888 41.472 L338.888 15.5462 L343.171 15.5462 L343.171 19.574 Q344.629 17.1897 346.666 16.0555 Q348.703 14.9212 351.504 14.9212 Q354.328 14.9212 356.296 16.3564 Q358.286 17.7916 359.235 20.523 Z" fill="#000000" fill-rule="evenodd" fill-opacity="1" /><path clip-path="url(#clip110)" d="M 0 0 M380.809 5.45367 L390.624 5.45367 L390.624 8.76384 L385.069 8.76384 L385.069 44.4118 L390.624 44.4118 L390.624 47.722 L380.809 47.722 L380.809 5.45367 Z" fill="#000000" fill-rule="evenodd" fill-opacity="1" /><path clip-path="url(#clip110)" d="M 0 0 M405.693 9.99069 Q402.082 9.99069 400.254 13.5555 Q398.448 17.0971 398.448 24.2267 Q398.448 31.3332 400.254 34.898 Q402.082 38.4396 405.693 38.4396 Q409.328 38.4396 411.133 34.898 Q412.962 31.3332 412.962 24.2267 Q412.962 17.0971 411.133 13.5555 Q409.328 9.99069 405.693 9.99069 M405.693 6.287 Q411.504 6.287 414.559 10.8935 Q417.638 15.4768 417.638 24.2267 Q417.638 32.9535 414.559 37.56 Q411.504 42.1433 405.693 42.1433 Q399.883 42.1433 396.805 37.56 Q393.749 32.9535 393.749 24.2267 Q393.749 15.4768 396.805 10.8935 Q399.883 6.287 405.693 6.287 Z" fill="#000000" fill-rule="evenodd" fill-opacity="1" /><path clip-path="url(#clip110)" d="M 0 0 M423.517 37.5368 L431.156 37.5368 L431.156 11.1712 L422.846 12.8379 L422.846 8.57866 L431.11 6.912 L435.786 6.912 L435.786 37.5368 L443.425 37.5368 L443.425 41.472 L423.517 41.472 L423.517 37.5368 Z" fill="#000000" fill-rule="evenodd" fill-opacity="1" /><path clip-path="url(#clip110)" d="M 0 0 M458.494 9.99069 Q454.883 9.99069 453.054 13.5555 Q451.249 17.0971 451.249 24.2267 Q451.249 31.3332 453.054 34.898 Q454.883 38.4396 458.494 38.4396 Q462.128 38.4396 463.934 34.898 Q465.763 31.3332 465.763 24.2267 Q465.763 17.0971 463.934 13.5555 Q462.128 9.99069 458.494 9.99069 M458.494 6.287 Q464.304 6.287 467.36 10.8935 Q470.439 15.4768 470.439 24.2267 Q470.439 32.9535 467.36 37.56 Q464.304 42.1433 458.494 42.1433 Q452.684 42.1433 449.605 37.56 Q446.55 32.9535 446.55 24.2267 Q446.55 15.4768 449.605 10.8935 Q452.684 6.287 458.494 6.287 Z" fill="#000000" fill-rule="evenodd" fill-opacity="1" /><path clip-path="url(#clip110)" d="M 0 0 M484.86 5.45367 L484.86 47.722 L475.045 47.722 L475.045 44.4118 L480.577 44.4118 L480.577 8.76384 L475.045 8.76384 L475.045 5.45367 L484.86 5.45367 Z" fill="#000000" fill-rule="evenodd" fill-opacity="1" /><circle clip-path="url(#clip112)" cx="624.925" cy="612.295" r="14" fill="#0000ff" fill-rule="evenodd" fill-opacity="1" stroke="none"/>
<circle clip-path="url(#clip112)" cx="667.535" cy="684.393" r="14" fill="#0000ff" fill-rule="evenodd" fill-opacity="1" stroke="none"/>
<circle clip-path="url(#clip112)" cx="710.146" cy="612.295" r="14" fill="#0000ff" fill-rule="evenodd" fill-opacity="1" stroke="none"/>
<circle clip-path="url(#clip112)" cx="284.043" cy="612.295" r="14" fill="#0000ff" fill-rule="evenodd" fill-opacity="1" stroke="none"/>
<circle clip-path="url(#clip112)" cx="326.654" cy="684.393" r="14" fill="#0000ff" fill-rule="evenodd" fill-opacity="1" stroke="none"/>
<circle clip-path="url(#clip112)" cx="369.264" cy="612.295" r="14" fill="#0000ff" fill-rule="evenodd" fill-opacity="1" stroke="none"/>
<circle clip-path="url(#clip112)" cx="369.264" cy="468.098" r="14" fill="#0000ff" fill-rule="evenodd" fill-opacity="1" stroke="none"/>
<circle clip-path="url(#clip112)" cx="411.874" cy="540.197" r="14" fill="#0000ff" fill-rule="evenodd" fill-opacity="1" stroke="none"/>
<circle clip-path="url(#clip112)" cx="454.484" cy="468.098" r="14" fill="#0000ff" fill-rule="evenodd" fill-opacity="1" stroke="none"/>
<circle clip-path="url(#clip112)" cx="454.484" cy="612.295" r="14" fill="#0000ff" fill-rule="evenodd" fill-opacity="1" stroke="none"/>
<circle clip-path="url(#clip112)" cx="497.094" cy="684.393" r="14" fill="#0000ff" fill-rule="evenodd" fill-opacity="1" stroke="none"/>
<circle clip-path="url(#clip112)" cx="539.705" cy="612.295" r="14" fill="#0000ff" fill-rule="evenodd" fill-opacity="1" stroke="none"/>
<circle clip-path="url(#clip112)" cx="539.705" cy="468.098" r="14" fill="#0000ff" fill-rule="evenodd" fill-opacity="1" stroke="none"/>
<circle clip-path="url(#clip112)" cx="582.315" cy="540.197" r="14" fill="#0000ff" fill-rule="evenodd" fill-opacity="1" stroke="none"/>
<circle clip-path="url(#clip112)" cx="624.925" cy="468.098" r="14" fill="#0000ff" fill-rule="evenodd" fill-opacity="1" stroke="none"/>
<circle clip-path="url(#clip112)" cx="113.602" cy="612.295" r="14" fill="#0000ff" fill-rule="evenodd" fill-opacity="1" stroke="none"/>
<circle clip-path="url(#clip112)" cx="156.213" cy="684.393" r="14" fill="#0000ff" fill-rule="evenodd" fill-opacity="1" stroke="none"/>
<circle clip-path="url(#clip112)" cx="198.823" cy="612.295" r="14" fill="#0000ff" fill-rule="evenodd" fill-opacity="1" stroke="none"/>
<path clip-path="url(#clip110)" d="M 0 0 M624.925 578.599 L641.592 578.599 L641.592 580.092 L632.182 604.519 L628.519 604.519 L637.373 581.55 L624.925 581.55 L624.925 578.599 Z" fill="#000000" fill-rule="evenodd" fill-opacity="1" /><path clip-path="url(#clip110)" d="M 0 0 M676.424 664.308 Q673.924 664.308 672.483 665.645 Q671.06 666.982 671.06 669.326 Q671.06 671.669 672.483 673.006 Q673.924 674.343 676.424 674.343 Q678.924 674.343 680.365 673.006 Q681.806 671.652 681.806 669.326 Q681.806 666.982 680.365 665.645 Q678.942 664.308 676.424 664.308 M672.917 662.815 Q670.66 662.26 669.393 660.715 Q668.143 659.169 668.143 656.947 Q668.143 653.84 670.348 652.034 Q672.57 650.229 676.424 650.229 Q680.296 650.229 682.501 652.034 Q684.705 653.84 684.705 656.947 Q684.705 659.169 683.438 660.715 Q682.188 662.26 679.949 662.815 Q682.483 663.406 683.89 665.124 Q685.313 666.843 685.313 669.326 Q685.313 673.093 683.004 675.107 Q680.712 677.121 676.424 677.121 Q672.136 677.121 669.827 675.107 Q667.535 673.093 667.535 669.326 Q667.535 666.843 668.959 665.124 Q670.383 663.406 672.917 662.815 M671.633 657.277 Q671.633 659.291 672.883 660.419 Q674.15 661.548 676.424 661.548 Q678.681 661.548 679.949 660.419 Q681.233 659.291 681.233 657.277 Q681.233 655.263 679.949 654.135 Q678.681 653.006 676.424 653.006 Q674.15 653.006 672.883 654.135 Q671.633 655.263 671.633 657.277 Z" fill="#000000" fill-rule="evenodd" fill-opacity="1" /><path clip-path="url(#clip110)" d="M 0 0 M711.812 603.981 L711.812 600.786 Q713.132 601.411 714.486 601.741 Q715.84 602.071 717.142 602.071 Q720.614 602.071 722.437 599.745 Q724.278 597.401 724.538 592.644 Q723.531 594.137 721.986 594.936 Q720.441 595.734 718.566 595.734 Q714.677 595.734 712.403 593.391 Q710.146 591.029 710.146 586.95 Q710.146 582.957 712.507 580.543 Q714.868 578.13 718.791 578.13 Q723.288 578.13 725.649 581.585 Q728.028 585.023 728.028 591.585 Q728.028 597.713 725.111 601.377 Q722.212 605.022 717.298 605.022 Q715.979 605.022 714.625 604.762 Q713.271 604.502 711.812 603.981 M718.791 592.991 Q721.153 592.991 722.524 591.377 Q723.913 589.762 723.913 586.95 Q723.913 584.154 722.524 582.54 Q721.153 580.908 718.791 580.908 Q716.43 580.908 715.041 582.54 Q713.67 584.154 713.67 586.95 Q713.67 589.762 715.041 591.377 Q716.43 592.991 718.791 592.991 Z" fill="#000000" fill-rule="evenodd" fill-opacity="1" /><path clip-path="url(#clip110)" d="M 0 0 M284.547 601.568 L290.276 601.568 L290.276 581.793 L284.043 583.043 L284.043 579.849 L290.241 578.599 L293.748 578.599 L293.748 601.568 L299.477 601.568 L299.477 604.519 L284.547 604.519 L284.547 601.568 Z" fill="#000000" fill-rule="evenodd" fill-opacity="1" /><path clip-path="url(#clip110)" d="M 0 0 M313.904 590.543 Q316.422 591.082 317.828 592.783 Q319.251 594.484 319.251 596.984 Q319.251 600.821 316.613 602.922 Q313.974 605.022 309.113 605.022 Q307.481 605.022 305.745 604.693 Q304.026 604.38 302.186 603.738 L302.186 600.352 Q303.644 601.203 305.38 601.637 Q307.116 602.071 309.008 602.071 Q312.307 602.071 314.026 600.769 Q315.762 599.467 315.762 596.984 Q315.762 594.693 314.147 593.408 Q312.55 592.106 309.686 592.106 L306.665 592.106 L306.665 589.224 L309.824 589.224 Q312.411 589.224 313.783 588.2 Q315.154 587.158 315.154 585.214 Q315.154 583.217 313.731 582.158 Q312.324 581.082 309.686 581.082 Q308.245 581.082 306.595 581.394 Q304.946 581.707 302.967 582.366 L302.967 579.241 Q304.963 578.686 306.699 578.408 Q308.453 578.13 309.998 578.13 Q313.991 578.13 316.317 579.953 Q318.644 581.759 318.644 584.849 Q318.644 587.002 317.411 588.495 Q316.179 589.97 313.904 590.543 Z" fill="#000000" fill-rule="evenodd" fill-opacity="1" /><path clip-path="url(#clip110)" d="M 0 0 M327.157 673.666 L332.886 673.666 L332.886 653.892 L326.654 655.142 L326.654 651.947 L332.851 650.697 L336.358 650.697 L336.358 673.666 L342.087 673.666 L342.087 676.617 L327.157 676.617 L327.157 673.666 Z" fill="#000000" fill-rule="evenodd" fill-opacity="1" /><path clip-path="url(#clip110)" d="M 0 0 M355.525 653.753 L346.671 667.59 L355.525 667.59 L355.525 653.753 M354.605 650.697 L359.014 650.697 L359.014 667.59 L362.712 667.59 L362.712 670.506 L359.014 670.506 L359.014 676.617 L355.525 676.617 L355.525 670.506 L343.824 670.506 L343.824 667.121 L354.605 650.697 Z" fill="#000000" fill-rule="evenodd" fill-opacity="1" /><path clip-path="url(#clip110)" d="M 0 0 M369.767 601.568 L375.496 601.568 L375.496 581.793 L369.264 583.043 L369.264 579.849 L375.462 578.599 L378.969 578.599 L378.969 601.568 L384.698 601.568 L384.698 604.519 L369.767 604.519 L369.767 601.568 Z" fill="#000000" fill-rule="evenodd" fill-opacity="1" /><path clip-path="url(#clip110)" d="M 0 0 M388.535 578.599 L402.302 578.599 L402.302 581.55 L391.746 581.55 L391.746 587.904 Q392.51 587.644 393.274 587.523 Q394.038 587.384 394.802 587.384 Q399.142 587.384 401.677 589.762 Q404.212 592.141 404.212 596.203 Q404.212 600.387 401.607 602.713 Q399.003 605.022 394.264 605.022 Q392.632 605.022 390.93 604.745 Q389.246 604.467 387.441 603.911 L387.441 600.387 Q389.003 601.238 390.67 601.654 Q392.337 602.071 394.194 602.071 Q397.198 602.071 398.951 600.491 Q400.705 598.911 400.705 596.203 Q400.705 593.495 398.951 591.915 Q397.198 590.335 394.194 590.335 Q392.788 590.335 391.382 590.648 Q389.993 590.96 388.535 591.62 L388.535 578.599 Z" fill="#000000" fill-rule="evenodd" fill-opacity="1" /><path clip-path="url(#clip110)" d="M 0 0 M369.767 457.371 L375.496 457.371 L375.496 437.597 L369.264 438.847 L369.264 435.652 L375.462 434.402 L378.969 434.402 L378.969 457.371 L384.698 457.371 L384.698 460.322 L369.767 460.322 L369.767 457.371 Z" fill="#000000" fill-rule="evenodd" fill-opacity="1" /><path clip-path="url(#clip110)" d="M 0 0 M396.434 445.965 Q394.073 445.965 392.684 447.579 Q391.312 449.194 391.312 452.006 Q391.312 454.802 392.684 456.433 Q394.073 458.048 396.434 458.048 Q398.795 458.048 400.166 456.433 Q401.555 454.802 401.555 452.006 Q401.555 449.194 400.166 447.579 Q398.795 445.965 396.434 445.965 M403.396 434.975 L403.396 438.17 Q402.076 437.545 400.722 437.215 Q399.385 436.885 398.066 436.885 Q394.594 436.885 392.753 439.229 Q390.93 441.572 390.67 446.312 Q391.694 444.802 393.239 444.003 Q394.784 443.187 396.642 443.187 Q400.548 443.187 402.805 445.565 Q405.08 447.927 405.08 452.006 Q405.08 455.999 402.718 458.413 Q400.357 460.826 396.434 460.826 Q391.937 460.826 389.559 457.388 Q387.18 453.933 387.18 447.388 Q387.18 441.243 390.097 437.597 Q393.014 433.934 397.927 433.934 Q399.246 433.934 400.583 434.194 Q401.937 434.454 403.396 434.975 Z" fill="#000000" fill-rule="evenodd" fill-opacity="1" /><path clip-path="url(#clip110)" d="M 0 0 M412.377 529.469 L418.107 529.469 L418.107 509.695 L411.874 510.945 L411.874 507.751 L418.072 506.501 L421.579 506.501 L421.579 529.469 L427.308 529.469 L427.308 532.421 L412.377 532.421 L412.377 529.469 Z" fill="#000000" fill-rule="evenodd" fill-opacity="1" /><path clip-path="url(#clip110)" d="M 0 0 M430.225 506.501 L446.891 506.501 L446.891 507.994 L437.482 532.421 L433.818 532.421 L442.672 509.452 L430.225 509.452 L430.225 506.501 Z" fill="#000000" fill-rule="evenodd" fill-opacity="1" /><path clip-path="url(#clip110)" d="M 0 0 M454.988 457.371 L460.717 457.371 L460.717 437.597 L454.484 438.847 L454.484 435.652 L460.682 434.402 L464.189 434.402 L464.189 457.371 L469.918 457.371 L469.918 460.322 L454.988 460.322 L454.988 457.371 Z" fill="#000000" fill-rule="evenodd" fill-opacity="1" /><path clip-path="url(#clip110)" d="M 0 0 M481.22 448.013 Q478.72 448.013 477.279 449.35 Q475.856 450.687 475.856 453.031 Q475.856 455.374 477.279 456.711 Q478.72 458.048 481.22 458.048 Q483.72 458.048 485.161 456.711 Q486.602 455.357 486.602 453.031 Q486.602 450.687 485.161 449.35 Q483.738 448.013 481.22 448.013 M477.713 446.52 Q475.456 445.965 474.189 444.42 Q472.939 442.874 472.939 440.652 Q472.939 437.545 475.144 435.739 Q477.366 433.934 481.22 433.934 Q485.092 433.934 487.297 435.739 Q489.501 437.545 489.501 440.652 Q489.501 442.874 488.234 444.42 Q486.984 445.965 484.745 446.52 Q487.279 447.111 488.685 448.829 Q490.109 450.548 490.109 453.031 Q490.109 456.798 487.8 458.812 Q485.508 460.826 481.22 460.826 Q476.932 460.826 474.623 458.812 Q472.331 456.798 472.331 453.031 Q472.331 450.548 473.755 448.829 Q475.179 447.111 477.713 446.52 M476.429 440.982 Q476.429 442.996 477.679 444.124 Q478.946 445.253 481.22 445.253 Q483.477 445.253 484.745 444.124 Q486.029 442.996 486.029 440.982 Q486.029 438.968 484.745 437.84 Q483.477 436.711 481.22 436.711 Q478.946 436.711 477.679 437.84 Q476.429 438.968 476.429 440.982 Z" fill="#000000" fill-rule="evenodd" fill-opacity="1" /><path clip-path="url(#clip110)" d="M 0 0 M458.703 601.568 L470.942 601.568 L470.942 604.519 L454.484 604.519 L454.484 601.568 Q456.481 599.502 459.918 596.029 Q463.373 592.54 464.259 591.533 Q465.943 589.641 466.602 588.338 Q467.279 587.019 467.279 585.752 Q467.279 583.686 465.821 582.384 Q464.38 581.082 462.054 581.082 Q460.404 581.082 458.564 581.654 Q456.741 582.227 454.658 583.391 L454.658 579.849 Q456.776 578.998 458.616 578.564 Q460.456 578.13 461.984 578.13 Q466.012 578.13 468.408 580.144 Q470.804 582.158 470.804 585.526 Q470.804 587.123 470.196 588.564 Q469.606 589.988 468.026 591.932 Q467.592 592.436 465.265 594.849 Q462.939 597.245 458.703 601.568 Z" fill="#000000" fill-rule="evenodd" fill-opacity="1" /><path clip-path="url(#clip110)" d="M 0 0 M482.245 592.21 Q479.745 592.21 478.304 593.547 Q476.88 594.884 476.88 597.227 Q476.88 599.571 478.304 600.908 Q479.745 602.245 482.245 602.245 Q484.745 602.245 486.185 600.908 Q487.626 599.554 487.626 597.227 Q487.626 594.884 486.185 593.547 Q484.762 592.21 482.245 592.21 M478.738 590.717 Q476.481 590.161 475.213 588.616 Q473.963 587.071 473.963 584.849 Q473.963 581.741 476.168 579.936 Q478.39 578.13 482.245 578.13 Q486.116 578.13 488.321 579.936 Q490.526 581.741 490.526 584.849 Q490.526 587.071 489.258 588.616 Q488.008 590.161 485.769 590.717 Q488.304 591.307 489.71 593.026 Q491.133 594.745 491.133 597.227 Q491.133 600.995 488.824 603.009 Q486.533 605.022 482.245 605.022 Q477.956 605.022 475.647 603.009 Q473.356 600.995 473.356 597.227 Q473.356 594.745 474.779 593.026 Q476.203 591.307 478.738 590.717 M477.453 585.179 Q477.453 587.193 478.703 588.321 Q479.97 589.45 482.245 589.45 Q484.501 589.45 485.769 588.321 Q487.054 587.193 487.054 585.179 Q487.054 583.165 485.769 582.036 Q484.501 580.908 482.245 580.908 Q479.97 580.908 478.703 582.036 Q477.453 583.165 477.453 585.179 Z" fill="#000000" fill-rule="evenodd" fill-opacity="1" /><path clip-path="url(#clip110)" d="M 0 0 M501.313 673.666 L513.553 673.666 L513.553 676.617 L497.094 676.617 L497.094 673.666 Q499.091 671.6 502.528 668.128 Q505.983 664.638 506.869 663.631 Q508.553 661.739 509.212 660.437 Q509.89 659.117 509.89 657.85 Q509.89 655.784 508.431 654.482 Q506.99 653.18 504.664 653.18 Q503.015 653.18 501.174 653.753 Q499.351 654.326 497.268 655.489 L497.268 651.947 Q499.386 651.097 501.226 650.663 Q503.067 650.229 504.594 650.229 Q508.622 650.229 511.018 652.242 Q513.414 654.256 513.414 657.624 Q513.414 659.222 512.806 660.663 Q512.216 662.086 510.636 664.031 Q510.202 664.534 507.876 666.947 Q505.549 669.343 501.313 673.666 Z" fill="#000000" fill-rule="evenodd" fill-opacity="1" /><path clip-path="url(#clip110)" d="M 0 0 M517.459 676.079 L517.459 672.885 Q518.778 673.51 520.133 673.84 Q521.487 674.169 522.789 674.169 Q526.261 674.169 528.084 671.843 Q529.924 669.499 530.185 664.742 Q529.178 666.235 527.633 667.034 Q526.087 667.833 524.212 667.833 Q520.324 667.833 518.049 665.489 Q515.792 663.128 515.792 659.048 Q515.792 655.055 518.153 652.642 Q520.515 650.229 524.438 650.229 Q528.935 650.229 531.296 653.683 Q533.674 657.121 533.674 663.683 Q533.674 669.812 530.758 673.475 Q527.858 677.121 522.945 677.121 Q521.626 677.121 520.271 676.86 Q518.917 676.6 517.459 676.079 M524.438 665.09 Q526.799 665.09 528.171 663.475 Q529.56 661.86 529.56 659.048 Q529.56 656.253 528.171 654.638 Q526.799 653.006 524.438 653.006 Q522.077 653.006 520.688 654.638 Q519.317 656.253 519.317 659.048 Q519.317 661.86 520.688 663.475 Q522.077 665.09 524.438 665.09 Z" fill="#000000" fill-rule="evenodd" fill-opacity="1" /><path clip-path="url(#clip110)" d="M 0 0 M551.423 590.543 Q553.941 591.082 555.347 592.783 Q556.771 594.484 556.771 596.984 Q556.771 600.821 554.132 602.922 Q551.493 605.022 546.632 605.022 Q545 605.022 543.264 604.693 Q541.545 604.38 539.705 603.738 L539.705 600.352 Q541.163 601.203 542.899 601.637 Q544.635 602.071 546.528 602.071 Q549.826 602.071 551.545 600.769 Q553.281 599.467 553.281 596.984 Q553.281 594.693 551.666 593.408 Q550.069 592.106 547.205 592.106 L544.184 592.106 L544.184 589.224 L547.344 589.224 Q549.93 589.224 551.302 588.2 Q552.673 587.158 552.673 585.214 Q552.673 583.217 551.25 582.158 Q549.844 581.082 547.205 581.082 Q545.764 581.082 544.114 581.394 Q542.465 581.707 540.486 582.366 L540.486 579.241 Q542.482 578.686 544.219 578.408 Q545.972 578.13 547.517 578.13 Q551.51 578.13 553.837 579.953 Q556.163 581.759 556.163 584.849 Q556.163 587.002 554.93 588.495 Q553.698 589.97 551.423 590.543 Z" fill="#000000" fill-rule="evenodd" fill-opacity="1" /><path clip-path="url(#clip110)" d="M 0 0 M568.073 580.908 Q565.364 580.908 563.993 583.582 Q562.639 586.238 562.639 591.585 Q562.639 596.915 563.993 599.588 Q565.364 602.245 568.073 602.245 Q570.798 602.245 572.152 599.588 Q573.524 596.915 573.524 591.585 Q573.524 586.238 572.152 583.582 Q570.798 580.908 568.073 580.908 M568.073 578.13 Q572.43 578.13 574.722 581.585 Q577.031 585.023 577.031 591.585 Q577.031 598.13 574.722 601.585 Q572.43 605.022 568.073 605.022 Q563.715 605.022 561.406 601.585 Q559.114 598.13 559.114 591.585 Q559.114 585.023 561.406 581.585 Q563.715 578.13 568.073 578.13 Z" fill="#000000" fill-rule="evenodd" fill-opacity="1" /><path clip-path="url(#clip110)" d="M 0 0 M551.423 446.347 Q553.941 446.885 555.347 448.586 Q556.771 450.288 556.771 452.788 Q556.771 456.624 554.132 458.725 Q551.493 460.826 546.632 460.826 Q545 460.826 543.264 460.496 Q541.545 460.183 539.705 459.541 L539.705 456.156 Q541.163 457.006 542.899 457.44 Q544.635 457.874 546.528 457.874 Q549.826 457.874 551.545 456.572 Q553.281 455.27 553.281 452.788 Q553.281 450.496 551.666 449.211 Q550.069 447.909 547.205 447.909 L544.184 447.909 L544.184 445.027 L547.344 445.027 Q549.93 445.027 551.302 444.003 Q552.673 442.961 552.673 441.017 Q552.673 439.02 551.25 437.961 Q549.844 436.885 547.205 436.885 Q545.764 436.885 544.114 437.197 Q542.465 437.51 540.486 438.17 L540.486 435.045 Q542.482 434.489 544.219 434.211 Q545.972 433.934 547.517 433.934 Q551.51 433.934 553.837 435.756 Q556.163 437.562 556.163 440.652 Q556.163 442.805 554.93 444.298 Q553.698 445.774 551.423 446.347 Z" fill="#000000" fill-rule="evenodd" fill-opacity="1" /><path clip-path="url(#clip110)" d="M 0 0 M561.18 457.371 L566.909 457.371 L566.909 437.597 L560.677 438.847 L560.677 435.652 L566.875 434.402 L570.382 434.402 L570.382 457.371 L576.111 457.371 L576.111 460.322 L561.18 460.322 L561.18 457.371 Z" fill="#000000" fill-rule="evenodd" fill-opacity="1" /><path clip-path="url(#clip110)" d="M 0 0 M594.034 518.445 Q596.551 518.983 597.957 520.685 Q599.381 522.386 599.381 524.886 Q599.381 528.723 596.742 530.823 Q594.103 532.924 589.242 532.924 Q587.61 532.924 585.874 532.594 Q584.155 532.282 582.315 531.639 L582.315 528.254 Q583.773 529.105 585.509 529.539 Q587.245 529.973 589.138 529.973 Q592.436 529.973 594.155 528.671 Q595.891 527.369 595.891 524.886 Q595.891 522.594 594.277 521.31 Q592.679 520.008 589.815 520.008 L586.794 520.008 L586.794 517.126 L589.954 517.126 Q592.541 517.126 593.912 516.101 Q595.284 515.06 595.284 513.115 Q595.284 511.119 593.86 510.06 Q592.454 508.983 589.815 508.983 Q588.374 508.983 586.725 509.296 Q585.075 509.608 583.096 510.268 L583.096 507.143 Q585.093 506.587 586.829 506.31 Q588.582 506.032 590.127 506.032 Q594.12 506.032 596.447 507.855 Q598.773 509.66 598.773 512.751 Q598.773 514.903 597.541 516.396 Q596.308 517.872 594.034 518.445 Z" fill="#000000" fill-rule="evenodd" fill-opacity="1" /><path clip-path="url(#clip110)" d="M 0 0 M606.204 529.469 L618.443 529.469 L618.443 532.421 L601.985 532.421 L601.985 529.469 Q603.982 527.403 607.419 523.931 Q610.874 520.442 611.759 519.435 Q613.443 517.542 614.103 516.24 Q614.78 514.921 614.78 513.653 Q614.78 511.587 613.322 510.285 Q611.881 508.983 609.554 508.983 Q607.905 508.983 606.065 509.556 Q604.242 510.129 602.159 511.292 L602.159 507.751 Q604.277 506.9 606.117 506.466 Q607.957 506.032 609.485 506.032 Q613.513 506.032 615.909 508.046 Q618.304 510.06 618.304 513.428 Q618.304 515.025 617.697 516.466 Q617.106 517.889 615.527 519.834 Q615.093 520.337 612.766 522.751 Q610.44 525.146 606.204 529.469 Z" fill="#000000" fill-rule="evenodd" fill-opacity="1" /><path clip-path="url(#clip110)" d="M 0 0 M636.644 446.347 Q639.161 446.885 640.567 448.586 Q641.991 450.288 641.991 452.788 Q641.991 456.624 639.352 458.725 Q636.713 460.826 631.852 460.826 Q630.22 460.826 628.484 460.496 Q626.765 460.183 624.925 459.541 L624.925 456.156 Q626.384 457.006 628.12 457.44 Q629.856 457.874 631.748 457.874 Q635.047 457.874 636.765 456.572 Q638.502 455.27 638.502 452.788 Q638.502 450.496 636.887 449.211 Q635.29 447.909 632.425 447.909 L629.404 447.909 L629.404 445.027 L632.564 445.027 Q635.151 445.027 636.522 444.003 Q637.894 442.961 637.894 441.017 Q637.894 439.02 636.47 437.961 Q635.064 436.885 632.425 436.885 Q630.984 436.885 629.335 437.197 Q627.686 437.51 625.706 438.17 L625.706 435.045 Q627.703 434.489 629.439 434.211 Q631.193 433.934 632.738 433.934 Q636.731 433.934 639.057 435.756 Q641.383 437.562 641.383 440.652 Q641.383 442.805 640.151 444.298 Q638.918 445.774 636.644 446.347 Z" fill="#000000" fill-rule="evenodd" fill-opacity="1" /><path clip-path="url(#clip110)" d="M 0 0 M656.418 446.347 Q658.935 446.885 660.342 448.586 Q661.765 450.288 661.765 452.788 Q661.765 456.624 659.126 458.725 Q656.488 460.826 651.626 460.826 Q649.995 460.826 648.258 460.496 Q646.54 460.183 644.699 459.541 L644.699 456.156 Q646.158 457.006 647.894 457.44 Q649.63 457.874 651.522 457.874 Q654.821 457.874 656.54 456.572 Q658.276 455.27 658.276 452.788 Q658.276 450.496 656.661 449.211 Q655.064 447.909 652.199 447.909 L649.179 447.909 L649.179 445.027 L652.338 445.027 Q654.925 445.027 656.297 444.003 Q657.668 442.961 657.668 441.017 Q657.668 439.02 656.244 437.961 Q654.838 436.885 652.199 436.885 Q650.758 436.885 649.109 437.197 Q647.46 437.51 645.481 438.17 L645.481 435.045 Q647.477 434.489 649.213 434.211 Q650.967 433.934 652.512 433.934 Q656.505 433.934 658.831 435.756 Q661.158 437.562 661.158 440.652 Q661.158 442.805 659.925 444.298 Q658.692 445.774 656.418 446.347 Z" fill="#000000" fill-rule="evenodd" fill-opacity="1" /><path clip-path="url(#clip110)" d="M 0 0 M125.321 590.543 Q127.838 591.082 129.245 592.783 Q130.668 594.484 130.668 596.984 Q130.668 600.821 128.029 602.922 Q125.39 605.022 120.529 605.022 Q118.897 605.022 117.161 604.693 Q115.443 604.38 113.602 603.738 L113.602 600.352 Q115.061 601.203 116.797 601.637 Q118.533 602.071 120.425 602.071 Q123.724 602.071 125.443 600.769 Q127.179 599.467 127.179 596.984 Q127.179 594.693 125.564 593.408 Q123.967 592.106 121.102 592.106 L118.082 592.106 L118.082 589.224 L121.241 589.224 Q123.828 589.224 125.2 588.2 Q126.571 587.158 126.571 585.214 Q126.571 583.217 125.147 582.158 Q123.741 581.082 121.102 581.082 Q119.661 581.082 118.012 581.394 Q116.363 581.707 114.384 582.366 L114.384 579.241 Q116.38 578.686 118.116 578.408 Q119.87 578.13 121.415 578.13 Q125.408 578.13 127.734 579.953 Q130.061 581.759 130.061 584.849 Q130.061 587.002 128.828 588.495 Q127.595 589.97 125.321 590.543 Z" fill="#000000" fill-rule="evenodd" fill-opacity="1" /><path clip-path="url(#clip110)" d="M 0 0 M144.106 581.654 L135.252 595.491 L144.106 595.491 L144.106 581.654 M143.186 578.599 L147.595 578.599 L147.595 595.491 L151.293 595.491 L151.293 598.408 L147.595 598.408 L147.595 604.519 L144.106 604.519 L144.106 598.408 L132.404 598.408 L132.404 595.022 L143.186 578.599 Z" fill="#000000" fill-rule="evenodd" fill-opacity="1" /><path clip-path="url(#clip110)" d="M 0 0 M167.931 662.642 Q170.449 663.18 171.855 664.881 Q173.278 666.583 173.278 669.083 Q173.278 672.919 170.64 675.02 Q168.001 677.121 163.14 677.121 Q161.508 677.121 159.772 676.791 Q158.053 676.478 156.213 675.836 L156.213 672.451 Q157.671 673.301 159.407 673.735 Q161.143 674.169 163.035 674.169 Q166.334 674.169 168.053 672.867 Q169.789 671.565 169.789 669.083 Q169.789 666.791 168.174 665.506 Q166.577 664.204 163.713 664.204 L160.692 664.204 L160.692 661.322 L163.851 661.322 Q166.438 661.322 167.81 660.298 Q169.181 659.256 169.181 657.312 Q169.181 655.315 167.758 654.256 Q166.351 653.18 163.713 653.18 Q162.272 653.18 160.622 653.492 Q158.973 653.805 156.994 654.465 L156.994 651.34 Q158.99 650.784 160.726 650.506 Q162.48 650.229 164.025 650.229 Q168.018 650.229 170.344 652.051 Q172.671 653.857 172.671 656.947 Q172.671 659.1 171.438 660.593 Q170.206 662.069 167.931 662.642 Z" fill="#000000" fill-rule="evenodd" fill-opacity="1" /><path clip-path="url(#clip110)" d="M 0 0 M177.115 650.697 L190.883 650.697 L190.883 653.649 L180.327 653.649 L180.327 660.003 Q181.091 659.742 181.855 659.621 Q182.619 659.482 183.383 659.482 Q187.723 659.482 190.258 661.86 Q192.792 664.239 192.792 668.301 Q192.792 672.485 190.188 674.812 Q187.584 677.121 182.844 677.121 Q181.212 677.121 179.511 676.843 Q177.827 676.565 176.022 676.01 L176.022 672.485 Q177.584 673.336 179.251 673.753 Q180.917 674.169 182.775 674.169 Q185.778 674.169 187.532 672.59 Q189.285 671.01 189.285 668.301 Q189.285 665.593 187.532 664.013 Q185.778 662.433 182.775 662.433 Q181.369 662.433 179.962 662.746 Q178.574 663.058 177.115 663.718 L177.115 650.697 Z" fill="#000000" fill-rule="evenodd" fill-opacity="1" /><path clip-path="url(#clip110)" d="M 0 0 M210.542 590.543 Q213.059 591.082 214.465 592.783 Q215.889 594.484 215.889 596.984 Q215.889 600.821 213.25 602.922 Q210.611 605.022 205.75 605.022 Q204.118 605.022 202.382 604.693 Q200.663 604.38 198.823 603.738 L198.823 600.352 Q200.281 601.203 202.017 601.637 Q203.753 602.071 205.646 602.071 Q208.944 602.071 210.663 600.769 Q212.399 599.467 212.399 596.984 Q212.399 594.693 210.785 593.408 Q209.187 592.106 206.323 592.106 L203.302 592.106 L203.302 589.224 L206.462 589.224 Q209.048 589.224 210.42 588.2 Q211.792 587.158 211.792 585.214 Q211.792 583.217 210.368 582.158 Q208.962 581.082 206.323 581.082 Q204.882 581.082 203.233 581.394 Q201.583 581.707 199.604 582.366 L199.604 579.241 Q201.601 578.686 203.337 578.408 Q205.09 578.13 206.635 578.13 Q210.628 578.13 212.955 579.953 Q215.281 581.759 215.281 584.849 Q215.281 587.002 214.048 588.495 Q212.816 589.97 210.542 590.543 Z" fill="#000000" fill-rule="evenodd" fill-opacity="1" /><path clip-path="url(#clip110)" d="M 0 0 M227.625 590.161 Q225.264 590.161 223.875 591.776 Q222.503 593.391 222.503 596.203 Q222.503 598.998 223.875 600.63 Q225.264 602.245 227.625 602.245 Q229.986 602.245 231.357 600.63 Q232.746 598.998 232.746 596.203 Q232.746 593.391 231.357 591.776 Q229.986 590.161 227.625 590.161 M234.587 579.172 L234.587 582.366 Q233.267 581.741 231.913 581.411 Q230.576 581.082 229.257 581.082 Q225.784 581.082 223.944 583.425 Q222.121 585.769 221.861 590.509 Q222.885 588.998 224.43 588.2 Q225.975 587.384 227.833 587.384 Q231.739 587.384 233.996 589.762 Q236.271 592.123 236.271 596.203 Q236.271 600.196 233.909 602.609 Q231.548 605.022 227.625 605.022 Q223.128 605.022 220.75 601.585 Q218.371 598.13 218.371 591.585 Q218.371 585.439 221.288 581.793 Q224.205 578.13 229.118 578.13 Q230.437 578.13 231.774 578.391 Q233.128 578.651 234.587 579.172 Z" fill="#000000" fill-rule="evenodd" fill-opacity="1" /><circle clip-path="url(#clip112)" cx="113.602" cy="468.098" r="14" fill="#0000ff" fill-rule="evenodd" fill-opacity="1" stroke="none"/>
<circle clip-path="url(#clip112)" cx="113.602" cy="323.902" r="14" fill="#0000ff" fill-rule="evenodd" fill-opacity="1" stroke="none"/>
<circle clip-path="url(#clip112)" cx="156.213" cy="396" r="14" fill="#0000ff" fill-rule="evenodd" fill-opacity="1" stroke="none"/>
<circle clip-path="url(#clip112)" cx="198.823" cy="323.902" r="14" fill="#0000ff" fill-rule="evenodd" fill-opacity="1" stroke="none"/>
<circle clip-path="url(#clip112)" cx="198.823" cy="468.098" r="14" fill="#0000ff" fill-rule="evenodd" fill-opacity="1" stroke="none"/>
<circle clip-path="url(#clip112)" cx="241.433" cy="540.197" r="14" fill="#0000ff" fill-rule="evenodd" fill-opacity="1" stroke="none"/>
<circle clip-path="url(#clip112)" cx="284.043" cy="468.098" r="14" fill="#0000ff" fill-rule="evenodd" fill-opacity="1" stroke="none"/>
<circle clip-path="url(#clip112)" cx="284.043" cy="323.902" r="14" fill="#0000ff" fill-rule="evenodd" fill-opacity="1" stroke="none"/>
<circle clip-path="url(#clip112)" cx="326.654" cy="396" r="14" fill="#0000ff" fill-rule="evenodd" fill-opacity="1" stroke="none"/>
<circle clip-path="url(#clip112)" cx="369.264" cy="323.902" r="14" fill="#0000ff" fill-rule="evenodd" fill-opacity="1" stroke="none"/>
<circle clip-path="url(#clip112)" cx="113.602" cy="179.705" r="14" fill="#0000ff" fill-rule="evenodd" fill-opacity="1" stroke="none"/>
<path clip-path="url(#clip110)" d="M 0 0 M72.0859 506.501 L85.8532 506.501 L85.8532 509.452 L75.2977 509.452 L75.2977 515.806 Q76.0615 515.546 76.8254 515.424 Q77.5893 515.285 78.3532 515.285 Q82.6935 515.285 85.2282 517.664 Q87.7629 520.042 87.7629 524.105 Q87.7629 528.289 85.1587 530.615 Q82.5546 532.924 77.815 532.924 Q76.1831 532.924 74.4817 532.646 Q72.7977 532.369 70.9921 531.813 L70.9921 528.289 Q72.5546 529.139 74.2213 529.556 Q75.8879 529.973 77.7456 529.973 Q80.749 529.973 82.5025 528.393 Q84.2559 526.813 84.2559 524.105 Q84.2559 521.396 82.5025 519.817 Q80.749 518.237 77.7456 518.237 Q76.3393 518.237 74.9331 518.549 Q73.5442 518.862 72.0859 519.521 L72.0859 506.501 Z" fill="#000000" fill-rule="evenodd" fill-opacity="1" /><path clip-path="url(#clip110)" d="M 0 0 M122.856 445.965 Q120.495 445.965 119.106 447.579 Q117.734 449.194 117.734 452.006 Q117.734 454.802 119.106 456.433 Q120.495 458.048 122.856 458.048 Q125.217 458.048 126.588 456.433 Q127.977 454.802 127.977 452.006 Q127.977 449.194 126.588 447.579 Q125.217 445.965 122.856 445.965 M129.818 434.975 L129.818 438.17 Q128.498 437.545 127.144 437.215 Q125.807 436.885 124.488 436.885 Q121.016 436.885 119.175 439.229 Q117.352 441.572 117.092 446.312 Q118.116 444.802 119.661 444.003 Q121.206 443.187 123.064 443.187 Q126.97 443.187 129.227 445.565 Q131.502 447.927 131.502 452.006 Q131.502 455.999 129.14 458.413 Q126.779 460.826 122.856 460.826 Q118.359 460.826 115.981 457.388 Q113.602 453.933 113.602 447.388 Q113.602 441.243 116.519 437.597 Q119.436 433.934 124.349 433.934 Q125.668 433.934 127.005 434.194 Q128.359 434.454 129.818 434.975 Z" fill="#000000" fill-rule="evenodd" fill-opacity="1" /><path clip-path="url(#clip110)" d="M 0 0 M113.602 290.206 L130.269 290.206 L130.269 291.699 L120.859 316.126 L117.196 316.126 L126.05 293.157 L113.602 293.157 L113.602 290.206 Z" fill="#000000" fill-rule="evenodd" fill-opacity="1" /><path clip-path="url(#clip110)" d="M 0 0 M165.101 375.915 Q162.601 375.915 161.16 377.252 Q159.737 378.589 159.737 380.932 Q159.737 383.276 161.16 384.613 Q162.601 385.95 165.101 385.95 Q167.601 385.95 169.042 384.613 Q170.483 383.259 170.483 380.932 Q170.483 378.589 169.042 377.252 Q167.619 375.915 165.101 375.915 M161.595 374.422 Q159.338 373.866 158.07 372.321 Q156.82 370.776 156.82 368.554 Q156.82 365.446 159.025 363.641 Q161.247 361.835 165.101 361.835 Q168.973 361.835 171.178 363.641 Q173.383 365.446 173.383 368.554 Q173.383 370.776 172.115 372.321 Q170.865 373.866 168.626 374.422 Q171.16 375.012 172.567 376.731 Q173.99 378.45 173.99 380.932 Q173.99 384.7 171.681 386.714 Q169.39 388.727 165.101 388.727 Q160.813 388.727 158.504 386.714 Q156.213 384.7 156.213 380.932 Q156.213 378.45 157.636 376.731 Q159.06 375.012 161.595 374.422 M160.31 368.884 Q160.31 370.898 161.56 372.026 Q162.827 373.155 165.101 373.155 Q167.358 373.155 168.626 372.026 Q169.91 370.898 169.91 368.884 Q169.91 366.87 168.626 365.741 Q167.358 364.613 165.101 364.613 Q162.827 364.613 161.56 365.741 Q160.31 366.87 160.31 368.884 Z" fill="#000000" fill-rule="evenodd" fill-opacity="1" /><path clip-path="url(#clip110)" d="M 0 0 M200.489 315.587 L200.489 312.393 Q201.809 313.018 203.163 313.348 Q204.517 313.678 205.819 313.678 Q209.292 313.678 211.114 311.351 Q212.955 309.008 213.215 304.251 Q212.208 305.744 210.663 306.542 Q209.118 307.341 207.243 307.341 Q203.354 307.341 201.08 304.997 Q198.823 302.636 198.823 298.556 Q198.823 294.563 201.184 292.15 Q203.545 289.737 207.469 289.737 Q211.965 289.737 214.326 293.192 Q216.705 296.629 216.705 303.192 Q216.705 309.32 213.788 312.983 Q210.889 316.629 205.976 316.629 Q204.656 316.629 203.302 316.369 Q201.948 316.108 200.489 315.587 M207.469 304.598 Q209.83 304.598 211.201 302.983 Q212.59 301.369 212.59 298.556 Q212.59 295.761 211.201 294.147 Q209.83 292.515 207.469 292.515 Q205.108 292.515 203.719 294.147 Q202.347 295.761 202.347 298.556 Q202.347 301.369 203.719 302.983 Q205.108 304.598 207.469 304.598 Z" fill="#000000" fill-rule="evenodd" fill-opacity="1" /><path clip-path="url(#clip110)" d="M 0 0 M199.326 457.371 L205.055 457.371 L205.055 437.597 L198.823 438.847 L198.823 435.652 L205.021 434.402 L208.528 434.402 L208.528 457.371 L214.257 457.371 L214.257 460.322 L199.326 460.322 L199.326 457.371 Z" fill="#000000" fill-rule="evenodd" fill-opacity="1" /><path clip-path="url(#clip110)" d="M 0 0 M218.163 459.784 L218.163 456.59 Q219.482 457.215 220.837 457.545 Q222.191 457.874 223.493 457.874 Q226.965 457.874 228.788 455.548 Q230.628 453.204 230.889 448.447 Q229.882 449.94 228.337 450.739 Q226.791 451.538 224.916 451.538 Q221.028 451.538 218.753 449.194 Q216.496 446.833 216.496 442.753 Q216.496 438.76 218.857 436.347 Q221.219 433.934 225.142 433.934 Q229.639 433.934 232 437.388 Q234.378 440.826 234.378 447.388 Q234.378 453.517 231.462 457.18 Q228.562 460.826 223.649 460.826 Q222.33 460.826 220.975 460.565 Q219.621 460.305 218.163 459.784 M225.142 448.795 Q227.503 448.795 228.875 447.18 Q230.264 445.565 230.264 442.753 Q230.264 439.958 228.875 438.343 Q227.503 436.711 225.142 436.711 Q222.781 436.711 221.392 438.343 Q220.021 439.958 220.021 442.753 Q220.021 445.565 221.392 447.18 Q222.781 448.795 225.142 448.795 Z" fill="#000000" fill-rule="evenodd" fill-opacity="1" /><path clip-path="url(#clip110)" d="M 0 0 M245.652 529.469 L257.891 529.469 L257.891 532.421 L241.433 532.421 L241.433 529.469 Q243.43 527.403 246.867 523.931 Q250.322 520.442 251.207 519.435 Q252.891 517.542 253.551 516.24 Q254.228 514.921 254.228 513.653 Q254.228 511.587 252.77 510.285 Q251.329 508.983 249.002 508.983 Q247.353 508.983 245.513 509.556 Q243.69 510.129 241.607 511.292 L241.607 507.751 Q243.725 506.9 245.565 506.466 Q247.405 506.032 248.933 506.032 Q252.961 506.032 255.357 508.046 Q257.752 510.06 257.752 513.428 Q257.752 515.025 257.145 516.466 Q256.555 517.889 254.975 519.834 Q254.541 520.337 252.214 522.751 Q249.888 525.146 245.652 529.469 Z" fill="#000000" fill-rule="evenodd" fill-opacity="1" /><path clip-path="url(#clip110)" d="M 0 0 M269.193 508.81 Q266.485 508.81 265.113 511.483 Q263.759 514.139 263.759 519.487 Q263.759 524.817 265.113 527.49 Q266.485 530.146 269.193 530.146 Q271.919 530.146 273.273 527.49 Q274.645 524.817 274.645 519.487 Q274.645 514.139 273.273 511.483 Q271.919 508.81 269.193 508.81 M269.193 506.032 Q273.551 506.032 275.843 509.487 Q278.152 512.924 278.152 519.487 Q278.152 526.032 275.843 529.487 Q273.551 532.924 269.193 532.924 Q264.836 532.924 262.527 529.487 Q260.235 526.032 260.235 519.487 Q260.235 512.924 262.527 509.487 Q264.836 506.032 269.193 506.032 Z" fill="#000000" fill-rule="evenodd" fill-opacity="1" /><path clip-path="url(#clip110)" d="M 0 0 M288.262 457.371 L300.502 457.371 L300.502 460.322 L284.043 460.322 L284.043 457.371 Q286.04 455.305 289.477 451.833 Q292.932 448.343 293.818 447.336 Q295.502 445.444 296.161 444.142 Q296.838 442.822 296.838 441.555 Q296.838 439.489 295.38 438.187 Q293.939 436.885 291.613 436.885 Q289.963 436.885 288.123 437.458 Q286.3 438.031 284.217 439.194 L284.217 435.652 Q286.335 434.802 288.175 434.368 Q290.015 433.934 291.543 433.934 Q295.571 433.934 297.967 435.947 Q300.363 437.961 300.363 441.329 Q300.363 442.927 299.755 444.368 Q299.165 445.791 297.585 447.736 Q297.151 448.239 294.824 450.652 Q292.498 453.048 288.262 457.371 Z" fill="#000000" fill-rule="evenodd" fill-opacity="1" /><path clip-path="url(#clip110)" d="M 0 0 M304.911 457.371 L310.64 457.371 L310.64 437.597 L304.408 438.847 L304.408 435.652 L310.606 434.402 L314.113 434.402 L314.113 457.371 L319.842 457.371 L319.842 460.322 L304.911 460.322 L304.911 457.371 Z" fill="#000000" fill-rule="evenodd" fill-opacity="1" /><path clip-path="url(#clip110)" d="M 0 0 M288.262 313.174 L300.502 313.174 L300.502 316.126 L284.043 316.126 L284.043 313.174 Q286.04 311.108 289.477 307.636 Q292.932 304.147 293.818 303.14 Q295.502 301.247 296.161 299.945 Q296.838 298.626 296.838 297.358 Q296.838 295.292 295.38 293.99 Q293.939 292.688 291.613 292.688 Q289.963 292.688 288.123 293.261 Q286.3 293.834 284.217 294.997 L284.217 291.456 Q286.335 290.605 288.175 290.171 Q290.015 289.737 291.543 289.737 Q295.571 289.737 297.967 291.751 Q300.363 293.765 300.363 297.133 Q300.363 298.73 299.755 300.171 Q299.165 301.595 297.585 303.539 Q297.151 304.042 294.824 306.456 Q292.498 308.851 288.262 313.174 Z" fill="#000000" fill-rule="evenodd" fill-opacity="1" /><path clip-path="url(#clip110)" d="M 0 0 M307.324 313.174 L319.564 313.174 L319.564 316.126 L303.106 316.126 L303.106 313.174 Q305.102 311.108 308.54 307.636 Q311.995 304.147 312.88 303.14 Q314.564 301.247 315.224 299.945 Q315.901 298.626 315.901 297.358 Q315.901 295.292 314.442 293.99 Q313.001 292.688 310.675 292.688 Q309.026 292.688 307.186 293.261 Q305.363 293.834 303.279 294.997 L303.279 291.456 Q305.397 290.605 307.238 290.171 Q309.078 289.737 310.606 289.737 Q314.633 289.737 317.029 291.751 Q319.425 293.765 319.425 297.133 Q319.425 298.73 318.817 300.171 Q318.227 301.595 316.647 303.539 Q316.213 304.042 313.887 306.456 Q311.561 308.851 307.324 313.174 Z" fill="#000000" fill-rule="evenodd" fill-opacity="1" /><path clip-path="url(#clip110)" d="M 0 0 M330.872 385.273 L343.112 385.273 L343.112 388.224 L326.654 388.224 L326.654 385.273 Q328.65 383.207 332.088 379.734 Q335.542 376.245 336.428 375.238 Q338.112 373.346 338.772 372.044 Q339.449 370.724 339.449 369.457 Q339.449 367.391 337.99 366.089 Q336.549 364.787 334.223 364.787 Q332.574 364.787 330.733 365.36 Q328.91 365.932 326.827 367.096 L326.827 363.554 Q328.945 362.703 330.785 362.269 Q332.626 361.835 334.154 361.835 Q338.181 361.835 340.577 363.849 Q342.973 365.863 342.973 369.231 Q342.973 370.828 342.365 372.269 Q341.775 373.693 340.195 375.637 Q339.761 376.141 337.435 378.554 Q335.108 380.95 330.872 385.273 Z" fill="#000000" fill-rule="evenodd" fill-opacity="1" /><path clip-path="url(#clip110)" d="M 0 0 M357.539 374.248 Q360.056 374.787 361.462 376.488 Q362.886 378.189 362.886 380.689 Q362.886 384.526 360.247 386.627 Q357.608 388.727 352.747 388.727 Q351.115 388.727 349.379 388.398 Q347.66 388.085 345.82 387.443 L345.82 384.057 Q347.278 384.908 349.015 385.342 Q350.751 385.776 352.643 385.776 Q355.942 385.776 357.66 384.474 Q359.396 383.172 359.396 380.689 Q359.396 378.398 357.782 377.113 Q356.185 375.811 353.32 375.811 L350.299 375.811 L350.299 372.929 L353.459 372.929 Q356.046 372.929 357.417 371.905 Q358.789 370.863 358.789 368.919 Q358.789 366.922 357.365 365.863 Q355.959 364.787 353.32 364.787 Q351.879 364.787 350.23 365.099 Q348.581 365.412 346.601 366.071 L346.601 362.946 Q348.598 362.391 350.334 362.113 Q352.087 361.835 353.633 361.835 Q357.626 361.835 359.952 363.658 Q362.278 365.464 362.278 368.554 Q362.278 370.707 361.046 372.2 Q359.813 373.675 357.539 374.248 Z" fill="#000000" fill-rule="evenodd" fill-opacity="1" /><path clip-path="url(#clip110)" d="M 0 0 M373.483 313.174 L385.722 313.174 L385.722 316.126 L369.264 316.126 L369.264 313.174 Q371.26 311.108 374.698 307.636 Q378.153 304.147 379.038 303.14 Q380.722 301.247 381.382 299.945 Q382.059 298.626 382.059 297.358 Q382.059 295.292 380.601 293.99 Q379.16 292.688 376.833 292.688 Q375.184 292.688 373.344 293.261 Q371.521 293.834 369.437 294.997 L369.437 291.456 Q371.555 290.605 373.396 290.171 Q375.236 289.737 376.764 289.737 Q380.791 289.737 383.187 291.751 Q385.583 293.765 385.583 297.133 Q385.583 298.73 384.976 300.171 Q384.385 301.595 382.805 303.539 Q382.371 304.042 380.045 306.456 Q377.719 308.851 373.483 313.174 Z" fill="#000000" fill-rule="evenodd" fill-opacity="1" /><path clip-path="url(#clip110)" d="M 0 0 M399.159 293.261 L390.305 307.098 L399.159 307.098 L399.159 293.261 M398.239 290.206 L402.649 290.206 L402.649 307.098 L406.347 307.098 L406.347 310.015 L402.649 310.015 L402.649 316.126 L399.159 316.126 L399.159 310.015 L387.458 310.015 L387.458 306.629 L398.239 290.206 Z" fill="#000000" fill-rule="evenodd" fill-opacity="1" /><path clip-path="url(#clip110)" d="M 0 0 M125.321 157.953 Q127.838 158.492 129.245 160.193 Q130.668 161.894 130.668 164.394 Q130.668 168.231 128.029 170.332 Q125.39 172.433 120.529 172.433 Q118.897 172.433 117.161 172.103 Q115.443 171.79 113.602 171.148 L113.602 167.762 Q115.061 168.613 116.797 169.047 Q118.533 169.481 120.425 169.481 Q123.724 169.481 125.443 168.179 Q127.179 166.877 127.179 164.394 Q127.179 162.103 125.564 160.818 Q123.967 159.516 121.102 159.516 L118.082 159.516 L118.082 156.634 L121.241 156.634 Q123.828 156.634 125.2 155.61 Q126.571 154.568 126.571 152.624 Q126.571 150.627 125.147 149.568 Q123.741 148.492 121.102 148.492 Q119.661 148.492 118.012 148.804 Q116.363 149.117 114.384 149.776 L114.384 146.651 Q116.38 146.096 118.116 145.818 Q119.87 145.54 121.415 145.54 Q125.408 145.54 127.734 147.363 Q130.061 149.169 130.061 152.259 Q130.061 154.412 128.828 155.905 Q127.595 157.381 125.321 157.953 Z" fill="#000000" fill-rule="evenodd" fill-opacity="1" /><path clip-path="url(#clip110)" d="M 0 0 M145.095 157.953 Q147.613 158.492 149.019 160.193 Q150.442 161.894 150.442 164.394 Q150.442 168.231 147.804 170.332 Q145.165 172.433 140.304 172.433 Q138.672 172.433 136.936 172.103 Q135.217 171.79 133.377 171.148 L133.377 167.762 Q134.835 168.613 136.571 169.047 Q138.307 169.481 140.199 169.481 Q143.498 169.481 145.217 168.179 Q146.953 166.877 146.953 164.394 Q146.953 162.103 145.338 160.818 Q143.741 159.516 140.877 159.516 L137.856 159.516 L137.856 156.634 L141.015 156.634 Q143.602 156.634 144.974 155.61 Q146.345 154.568 146.345 152.624 Q146.345 150.627 144.922 149.568 Q143.515 148.492 140.877 148.492 Q139.436 148.492 137.786 148.804 Q136.137 149.117 134.158 149.776 L134.158 146.651 Q136.154 146.096 137.89 145.818 Q139.644 145.54 141.189 145.54 Q145.182 145.54 147.508 147.363 Q149.835 149.169 149.835 152.259 Q149.835 154.412 148.602 155.905 Q147.37 157.381 145.095 157.953 Z" fill="#000000" fill-rule="evenodd" fill-opacity="1" /><circle clip-path="url(#clip112)" cx="710.146" cy="468.098" r="14" fill="#0000ff" fill-rule="evenodd" fill-opacity="1" stroke="none"/>
<circle clip-path="url(#clip112)" cx="752.756" cy="540.197" r="14" fill="#0000ff" fill-rule="evenodd" fill-opacity="1" stroke="none"/>
<circle clip-path="url(#clip112)" cx="624.925" cy="323.902" r="14" fill="#0000ff" fill-rule="evenodd" fill-opacity="1" stroke="none"/>
<circle clip-path="url(#clip112)" cx="667.535" cy="396" r="14" fill="#0000ff" fill-rule="evenodd" fill-opacity="1" stroke="none"/>
<circle clip-path="url(#clip112)" cx="710.146" cy="323.902" r="14" fill="#0000ff" fill-rule="evenodd" fill-opacity="1" stroke="none"/>
<path clip-path="url(#clip110)" d="M 0 0 M710.649 457.371 L716.378 457.371 L716.378 437.597 L710.146 438.847 L710.146 435.652 L716.344 434.402 L719.85 434.402 L719.85 457.371 L725.58 457.371 L725.58 460.322 L710.649 460.322 L710.649 457.371 Z" fill="#000000" fill-rule="evenodd" fill-opacity="1" /><path clip-path="url(#clip110)" d="M 0 0 M736.882 436.711 Q734.173 436.711 732.802 439.385 Q731.448 442.041 731.448 447.388 Q731.448 452.718 732.802 455.392 Q734.173 458.048 736.882 458.048 Q739.607 458.048 740.961 455.392 Q742.333 452.718 742.333 447.388 Q742.333 442.041 740.961 439.385 Q739.607 436.711 736.882 436.711 M736.882 433.934 Q741.239 433.934 743.531 437.388 Q745.84 440.826 745.84 447.388 Q745.84 453.933 743.531 457.388 Q741.239 460.826 736.882 460.826 Q732.524 460.826 730.215 457.388 Q727.923 453.933 727.923 447.388 Q727.923 440.826 730.215 437.388 Q732.524 433.934 736.882 433.934 Z" fill="#000000" fill-rule="evenodd" fill-opacity="1" /><path clip-path="url(#clip110)" d="M 0 0 M753.259 529.469 L758.989 529.469 L758.989 509.695 L752.756 510.945 L752.756 507.751 L758.954 506.501 L762.461 506.501 L762.461 529.469 L768.19 529.469 L768.19 532.421 L753.259 532.421 L753.259 529.469 Z" fill="#000000" fill-rule="evenodd" fill-opacity="1" /><path clip-path="url(#clip110)" d="M 0 0 M772.6 529.469 L778.329 529.469 L778.329 509.695 L772.096 510.945 L772.096 507.751 L778.294 506.501 L781.801 506.501 L781.801 529.469 L787.53 529.469 L787.53 532.421 L772.6 532.421 L772.6 529.469 Z" fill="#000000" fill-rule="evenodd" fill-opacity="1" /><path clip-path="url(#clip110)" d="M 0 0 M636.644 302.15 Q639.161 302.688 640.567 304.39 Q641.991 306.091 641.991 308.591 Q641.991 312.428 639.352 314.528 Q636.713 316.629 631.852 316.629 Q630.22 316.629 628.484 316.299 Q626.765 315.987 624.925 315.344 L624.925 311.959 Q626.384 312.81 628.12 313.244 Q629.856 313.678 631.748 313.678 Q635.047 313.678 636.765 312.376 Q638.502 311.074 638.502 308.591 Q638.502 306.299 636.887 305.015 Q635.29 303.713 632.425 303.713 L629.404 303.713 L629.404 300.831 L632.564 300.831 Q635.151 300.831 636.522 299.806 Q637.894 298.765 637.894 296.82 Q637.894 294.824 636.47 293.765 Q635.064 292.688 632.425 292.688 Q630.984 292.688 629.335 293.001 Q627.686 293.313 625.706 293.973 L625.706 290.848 Q627.703 290.292 629.439 290.015 Q631.193 289.737 632.738 289.737 Q636.731 289.737 639.057 291.56 Q641.383 293.365 641.383 296.456 Q641.383 298.608 640.151 300.101 Q638.918 301.577 636.644 302.15 Z" fill="#000000" fill-rule="evenodd" fill-opacity="1" /><path clip-path="url(#clip110)" d="M 0 0 M655.429 293.261 L646.574 307.098 L655.429 307.098 L655.429 293.261 M654.508 290.206 L658.918 290.206 L658.918 307.098 L662.616 307.098 L662.616 310.015 L658.918 310.015 L658.918 316.126 L655.429 316.126 L655.429 310.015 L643.727 310.015 L643.727 306.629 L654.508 290.206 Z" fill="#000000" fill-rule="evenodd" fill-opacity="1" /><path clip-path="url(#clip110)" d="M 0 0 M679.254 374.248 Q681.771 374.787 683.178 376.488 Q684.601 378.189 684.601 380.689 Q684.601 384.526 681.962 386.627 Q679.324 388.727 674.462 388.727 Q672.831 388.727 671.094 388.398 Q669.376 388.085 667.535 387.443 L667.535 384.057 Q668.994 384.908 670.73 385.342 Q672.466 385.776 674.358 385.776 Q677.657 385.776 679.376 384.474 Q681.112 383.172 681.112 380.689 Q681.112 378.398 679.497 377.113 Q677.9 375.811 675.035 375.811 L672.015 375.811 L672.015 372.929 L675.174 372.929 Q677.761 372.929 679.133 371.905 Q680.504 370.863 680.504 368.919 Q680.504 366.922 679.081 365.863 Q677.674 364.787 675.035 364.787 Q673.594 364.787 671.945 365.099 Q670.296 365.412 668.317 366.071 L668.317 362.946 Q670.313 362.391 672.049 362.113 Q673.803 361.835 675.348 361.835 Q679.341 361.835 681.667 363.658 Q683.994 365.464 683.994 368.554 Q683.994 370.707 682.761 372.2 Q681.528 373.675 679.254 374.248 Z" fill="#000000" fill-rule="evenodd" fill-opacity="1" /><path clip-path="url(#clip110)" d="M 0 0 M688.438 362.304 L702.205 362.304 L702.205 365.255 L691.65 365.255 L691.65 371.61 Q692.414 371.349 693.178 371.228 Q693.942 371.089 694.705 371.089 Q699.046 371.089 701.58 373.467 Q704.115 375.846 704.115 379.908 Q704.115 384.092 701.511 386.418 Q698.907 388.727 694.167 388.727 Q692.535 388.727 690.834 388.45 Q689.15 388.172 687.344 387.616 L687.344 384.092 Q688.907 384.943 690.574 385.359 Q692.24 385.776 694.098 385.776 Q697.101 385.776 698.855 384.196 Q700.608 382.616 700.608 379.908 Q700.608 377.2 698.855 375.62 Q697.101 374.04 694.098 374.04 Q692.692 374.04 691.285 374.353 Q689.896 374.665 688.438 375.325 L688.438 362.304 Z" fill="#000000" fill-rule="evenodd" fill-opacity="1" /><path clip-path="url(#clip110)" d="M 0 0 M721.864 302.15 Q724.382 302.688 725.788 304.39 Q727.212 306.091 727.212 308.591 Q727.212 312.428 724.573 314.528 Q721.934 316.629 717.073 316.629 Q715.441 316.629 713.705 316.299 Q711.986 315.987 710.146 315.344 L710.146 311.959 Q711.604 312.81 713.34 313.244 Q715.076 313.678 716.969 313.678 Q720.267 313.678 721.986 312.376 Q723.722 311.074 723.722 308.591 Q723.722 306.299 722.107 305.015 Q720.51 303.713 717.646 303.713 L714.625 303.713 L714.625 300.831 L717.785 300.831 Q720.371 300.831 721.743 299.806 Q723.114 298.765 723.114 296.82 Q723.114 294.824 721.691 293.765 Q720.285 292.688 717.646 292.688 Q716.205 292.688 714.555 293.001 Q712.906 293.313 710.927 293.973 L710.927 290.848 Q712.923 290.292 714.66 290.015 Q716.413 289.737 717.958 289.737 Q721.951 289.737 724.278 291.56 Q726.604 293.365 726.604 296.456 Q726.604 298.608 725.371 300.101 Q724.139 301.577 721.864 302.15 Z" fill="#000000" fill-rule="evenodd" fill-opacity="1" /><path clip-path="url(#clip110)" d="M 0 0 M738.948 301.768 Q736.586 301.768 735.198 303.383 Q733.826 304.997 733.826 307.81 Q733.826 310.605 735.198 312.237 Q736.586 313.851 738.948 313.851 Q741.309 313.851 742.68 312.237 Q744.069 310.605 744.069 307.81 Q744.069 304.997 742.68 303.383 Q741.309 301.768 738.948 301.768 M745.909 290.779 L745.909 293.973 Q744.59 293.348 743.236 293.018 Q741.899 292.688 740.58 292.688 Q737.107 292.688 735.267 295.032 Q733.444 297.376 733.184 302.115 Q734.208 300.605 735.753 299.806 Q737.298 298.99 739.156 298.99 Q743.062 298.99 745.319 301.369 Q747.593 303.73 747.593 307.81 Q747.593 311.803 745.232 314.216 Q742.871 316.629 738.948 316.629 Q734.451 316.629 732.073 313.192 Q729.694 309.737 729.694 303.192 Q729.694 297.046 732.611 293.4 Q735.527 289.737 740.441 289.737 Q741.76 289.737 743.097 289.997 Q744.451 290.258 745.909 290.779 Z" fill="#000000" fill-rule="evenodd" fill-opacity="1" /><circle clip-path="url(#clip112)" cx="454.484" cy="323.902" r="14" fill="#0000ff" fill-rule="evenodd" fill-opacity="1" stroke="none"/>
<circle clip-path="url(#clip112)" cx="497.094" cy="396" r="14" fill="#0000ff" fill-rule="evenodd" fill-opacity="1" stroke="none"/>
<circle clip-path="url(#clip112)" cx="539.705" cy="323.902" r="14" fill="#0000ff" fill-rule="evenodd" fill-opacity="1" stroke="none"/>
<circle clip-path="url(#clip112)" cx="539.705" cy="179.705" r="14" fill="#0000ff" fill-rule="evenodd" fill-opacity="1" stroke="none"/>
<circle clip-path="url(#clip112)" cx="582.315" cy="251.803" r="14" fill="#0000ff" fill-rule="evenodd" fill-opacity="1" stroke="none"/>
<circle clip-path="url(#clip112)" cx="624.925" cy="179.705" r="14" fill="#0000ff" fill-rule="evenodd" fill-opacity="1" stroke="none"/>
<circle clip-path="url(#clip112)" cx="667.535" cy="107.607" r="14" fill="#0000ff" fill-rule="evenodd" fill-opacity="1" stroke="none"/>
<circle clip-path="url(#clip112)" cx="198.823" cy="179.705" r="14" fill="#0000ff" fill-rule="evenodd" fill-opacity="1" stroke="none"/>
<circle clip-path="url(#clip112)" cx="241.433" cy="251.803" r="14" fill="#0000ff" fill-rule="evenodd" fill-opacity="1" stroke="none"/>
<circle clip-path="url(#clip112)" cx="284.043" cy="179.705" r="14" fill="#0000ff" fill-rule="evenodd" fill-opacity="1" stroke="none"/>
<circle clip-path="url(#clip112)" cx="326.654" cy="107.607" r="14" fill="#0000ff" fill-rule="evenodd" fill-opacity="1" stroke="none"/>
<circle clip-path="url(#clip112)" cx="710.146" cy="179.705" r="14" fill="#0000ff" fill-rule="evenodd" fill-opacity="1" stroke="none"/>
<circle clip-path="url(#clip112)" cx="752.756" cy="251.803" r="14" fill="#0000ff" fill-rule="evenodd" fill-opacity="1" stroke="none"/>
<circle clip-path="url(#clip112)" cx="369.264" cy="179.705" r="14" fill="#0000ff" fill-rule="evenodd" fill-opacity="1" stroke="none"/>
<circle clip-path="url(#clip112)" cx="411.874" cy="251.803" r="14" fill="#0000ff" fill-rule="evenodd" fill-opacity="1" stroke="none"/>
<circle clip-path="url(#clip112)" cx="454.484" cy="179.705" r="14" fill="#0000ff" fill-rule="evenodd" fill-opacity="1" stroke="none"/>
<circle clip-path="url(#clip112)" cx="497.094" cy="107.607" r="14" fill="#0000ff" fill-rule="evenodd" fill-opacity="1" stroke="none"/>
<circle clip-path="url(#clip112)" cx="156.213" cy="107.607" r="14" fill="#0000ff" fill-rule="evenodd" fill-opacity="1" stroke="none"/>
<path clip-path="url(#clip110)" d="M 0 0 M454.988 313.174 L460.717 313.174 L460.717 293.4 L454.484 294.65 L454.484 291.456 L460.682 290.206 L464.189 290.206 L464.189 313.174 L469.918 313.174 L469.918 316.126 L454.988 316.126 L454.988 313.174 Z" fill="#000000" fill-rule="evenodd" fill-opacity="1" /><path clip-path="url(#clip110)" d="M 0 0 M501.313 385.273 L513.553 385.273 L513.553 388.224 L497.094 388.224 L497.094 385.273 Q499.091 383.207 502.528 379.734 Q505.983 376.245 506.869 375.238 Q508.553 373.346 509.212 372.044 Q509.89 370.724 509.89 369.457 Q509.89 367.391 508.431 366.089 Q506.99 364.787 504.664 364.787 Q503.015 364.787 501.174 365.36 Q499.351 365.932 497.268 367.096 L497.268 363.554 Q499.386 362.703 501.226 362.269 Q503.067 361.835 504.594 361.835 Q508.622 361.835 511.018 363.849 Q513.414 365.863 513.414 369.231 Q513.414 370.828 512.806 372.269 Q512.216 373.693 510.636 375.637 Q510.202 376.141 507.876 378.554 Q505.549 380.95 501.313 385.273 Z" fill="#000000" fill-rule="evenodd" fill-opacity="1" /><path clip-path="url(#clip110)" d="M 0 0 M551.423 302.15 Q553.941 302.688 555.347 304.39 Q556.771 306.091 556.771 308.591 Q556.771 312.428 554.132 314.528 Q551.493 316.629 546.632 316.629 Q545 316.629 543.264 316.299 Q541.545 315.987 539.705 315.344 L539.705 311.959 Q541.163 312.81 542.899 313.244 Q544.635 313.678 546.528 313.678 Q549.826 313.678 551.545 312.376 Q553.281 311.074 553.281 308.591 Q553.281 306.299 551.666 305.015 Q550.069 303.713 547.205 303.713 L544.184 303.713 L544.184 300.831 L547.344 300.831 Q549.93 300.831 551.302 299.806 Q552.673 298.765 552.673 296.82 Q552.673 294.824 551.25 293.765 Q549.844 292.688 547.205 292.688 Q545.764 292.688 544.114 293.001 Q542.465 293.313 540.486 293.973 L540.486 290.848 Q542.482 290.292 544.219 290.015 Q545.972 289.737 547.517 289.737 Q551.51 289.737 553.837 291.56 Q556.163 293.365 556.163 296.456 Q556.163 298.608 554.93 300.101 Q553.698 301.577 551.423 302.15 Z" fill="#000000" fill-rule="evenodd" fill-opacity="1" /><path clip-path="url(#clip110)" d="M 0 0 M551.406 149.065 L542.552 162.901 L551.406 162.901 L551.406 149.065 M550.486 146.009 L554.896 146.009 L554.896 162.901 L558.594 162.901 L558.594 165.818 L554.896 165.818 L554.896 171.929 L551.406 171.929 L551.406 165.818 L539.705 165.818 L539.705 162.433 L550.486 146.009 Z" fill="#000000" fill-rule="evenodd" fill-opacity="1" /><path clip-path="url(#clip110)" d="M 0 0 M583.409 218.107 L597.176 218.107 L597.176 221.059 L586.62 221.059 L586.62 227.413 Q587.384 227.152 588.148 227.031 Q588.912 226.892 589.676 226.892 Q594.016 226.892 596.551 229.27 Q599.086 231.649 599.086 235.711 Q599.086 239.895 596.482 242.222 Q593.877 244.531 589.138 244.531 Q587.506 244.531 585.805 244.253 Q584.121 243.975 582.315 243.42 L582.315 239.895 Q583.877 240.746 585.544 241.163 Q587.211 241.579 589.068 241.579 Q592.072 241.579 593.825 240 Q595.579 238.42 595.579 235.711 Q595.579 233.003 593.825 231.423 Q592.072 229.843 589.068 229.843 Q587.662 229.843 586.256 230.156 Q584.867 230.468 583.409 231.128 L583.409 218.107 Z" fill="#000000" fill-rule="evenodd" fill-opacity="1" /><path clip-path="url(#clip110)" d="M 0 0 M634.179 157.571 Q631.818 157.571 630.429 159.186 Q629.057 160.801 629.057 163.613 Q629.057 166.408 630.429 168.04 Q631.818 169.655 634.179 169.655 Q636.54 169.655 637.911 168.04 Q639.3 166.408 639.3 163.613 Q639.3 160.801 637.911 159.186 Q636.54 157.571 634.179 157.571 M641.14 146.582 L641.14 149.776 Q639.821 149.151 638.467 148.822 Q637.13 148.492 635.811 148.492 Q632.338 148.492 630.498 150.835 Q628.675 153.179 628.415 157.919 Q629.439 156.408 630.984 155.61 Q632.529 154.794 634.387 154.794 Q638.293 154.794 640.55 157.172 Q642.824 159.533 642.824 163.613 Q642.824 167.606 640.463 170.019 Q638.102 172.433 634.179 172.433 Q629.682 172.433 627.304 168.995 Q624.925 165.54 624.925 158.995 Q624.925 152.849 627.842 149.203 Q630.758 145.54 635.672 145.54 Q636.991 145.54 638.328 145.801 Q639.682 146.061 641.14 146.582 Z" fill="#000000" fill-rule="evenodd" fill-opacity="1" /><path clip-path="url(#clip110)" d="M 0 0 M676.424 87.5218 Q673.924 87.5218 672.483 88.8586 Q671.06 90.1954 671.06 92.5391 Q671.06 94.8828 672.483 96.2196 Q673.924 97.5564 676.424 97.5564 Q678.924 97.5564 680.365 96.2196 Q681.806 94.8655 681.806 92.5391 Q681.806 90.1954 680.365 88.8586 Q678.942 87.5218 676.424 87.5218 M672.917 86.0287 Q670.66 85.4732 669.393 83.928 Q668.143 82.3829 668.143 80.1607 Q668.143 77.0531 670.348 75.2475 Q672.57 73.442 676.424 73.442 Q680.296 73.442 682.501 75.2475 Q684.705 77.0531 684.705 80.1607 Q684.705 82.3829 683.438 83.928 Q682.188 85.4732 679.949 86.0287 Q682.483 86.619 683.89 88.3377 Q685.313 90.0565 685.313 92.5391 Q685.313 96.3064 683.004 98.3203 Q680.712 100.334 676.424 100.334 Q672.136 100.334 669.827 98.3203 Q667.535 96.3064 667.535 92.5391 Q667.535 90.0565 668.959 88.3377 Q670.383 86.619 672.917 86.0287 M671.633 80.4905 Q671.633 82.5044 672.883 83.6329 Q674.15 84.7614 676.424 84.7614 Q678.681 84.7614 679.949 83.6329 Q681.233 82.5044 681.233 80.4905 Q681.233 78.4767 679.949 77.3482 Q678.681 76.2197 676.424 76.2197 Q674.15 76.2197 672.883 77.3482 Q671.633 78.4767 671.633 80.4905 Z" fill="#000000" fill-rule="evenodd" fill-opacity="1" /><path clip-path="url(#clip110)" d="M 0 0 M199.326 168.978 L205.055 168.978 L205.055 149.203 L198.823 150.453 L198.823 147.259 L205.021 146.009 L208.528 146.009 L208.528 168.978 L214.257 168.978 L214.257 171.929 L199.326 171.929 L199.326 168.978 Z" fill="#000000" fill-rule="evenodd" fill-opacity="1" /><path clip-path="url(#clip110)" d="M 0 0 M225.559 148.318 Q222.85 148.318 221.479 150.992 Q220.125 153.648 220.125 158.995 Q220.125 164.325 221.479 166.999 Q222.85 169.655 225.559 169.655 Q228.284 169.655 229.639 166.999 Q231.01 164.325 231.01 158.995 Q231.01 153.648 229.639 150.992 Q228.284 148.318 225.559 148.318 M225.559 145.54 Q229.916 145.54 232.208 148.995 Q234.517 152.433 234.517 158.995 Q234.517 165.54 232.208 168.995 Q229.916 172.433 225.559 172.433 Q221.201 172.433 218.892 168.995 Q216.601 165.54 216.601 158.995 Q216.601 152.433 218.892 148.995 Q221.201 145.54 225.559 145.54 Z" fill="#000000" fill-rule="evenodd" fill-opacity="1" /><path clip-path="url(#clip110)" d="M 0 0 M241.937 241.076 L247.666 241.076 L247.666 221.302 L241.433 222.552 L241.433 219.357 L247.631 218.107 L251.138 218.107 L251.138 241.076 L256.867 241.076 L256.867 244.027 L241.937 244.027 L241.937 241.076 Z" fill="#000000" fill-rule="evenodd" fill-opacity="1" /><path clip-path="url(#clip110)" d="M 0 0 M261.277 241.076 L267.006 241.076 L267.006 221.302 L260.773 222.552 L260.773 219.357 L266.971 218.107 L270.478 218.107 L270.478 241.076 L276.207 241.076 L276.207 244.027 L261.277 244.027 L261.277 241.076 Z" fill="#000000" fill-rule="evenodd" fill-opacity="1" /><path clip-path="url(#clip110)" d="M 0 0 M284.547 168.978 L290.276 168.978 L290.276 149.203 L284.043 150.453 L284.043 147.259 L290.241 146.009 L293.748 146.009 L293.748 168.978 L299.477 168.978 L299.477 171.929 L284.547 171.929 L284.547 168.978 Z" fill="#000000" fill-rule="evenodd" fill-opacity="1" /><path clip-path="url(#clip110)" d="M 0 0 M306.3 168.978 L318.54 168.978 L318.54 171.929 L302.081 171.929 L302.081 168.978 Q304.078 166.912 307.515 163.44 Q310.97 159.95 311.856 158.943 Q313.54 157.051 314.199 155.749 Q314.876 154.429 314.876 153.162 Q314.876 151.096 313.418 149.794 Q311.977 148.492 309.651 148.492 Q308.002 148.492 306.161 149.065 Q304.338 149.637 302.255 150.801 L302.255 147.259 Q304.373 146.408 306.213 145.974 Q308.054 145.54 309.581 145.54 Q313.609 145.54 316.005 147.554 Q318.401 149.568 318.401 152.936 Q318.401 154.533 317.793 155.974 Q317.203 157.398 315.623 159.342 Q315.189 159.846 312.863 162.259 Q310.536 164.655 306.3 168.978 Z" fill="#000000" fill-rule="evenodd" fill-opacity="1" /><path clip-path="url(#clip110)" d="M 0 0 M327.157 96.8793 L332.886 96.8793 L332.886 77.1051 L326.654 78.3551 L326.654 75.1607 L332.851 73.9107 L336.358 73.9107 L336.358 96.8793 L342.087 96.8793 L342.087 99.8307 L327.157 99.8307 L327.157 96.8793 Z" fill="#000000" fill-rule="evenodd" fill-opacity="1" /><path clip-path="url(#clip110)" d="M 0 0 M355.525 76.9663 L346.671 90.803 L355.525 90.803 L355.525 76.9663 M354.605 73.9107 L359.014 73.9107 L359.014 90.803 L362.712 90.803 L362.712 93.7196 L359.014 93.7196 L359.014 99.8307 L355.525 99.8307 L355.525 93.7196 L343.824 93.7196 L343.824 90.3342 L354.605 73.9107 Z" fill="#000000" fill-rule="evenodd" fill-opacity="1" /><path clip-path="url(#clip110)" d="M 0 0 M710.649 168.978 L716.378 168.978 L716.378 149.203 L710.146 150.453 L710.146 147.259 L716.344 146.009 L719.85 146.009 L719.85 168.978 L725.58 168.978 L725.58 171.929 L710.649 171.929 L710.649 168.978 Z" fill="#000000" fill-rule="evenodd" fill-opacity="1" /><path clip-path="url(#clip110)" d="M 0 0 M729.486 171.391 L729.486 168.196 Q730.805 168.821 732.159 169.151 Q733.514 169.481 734.816 169.481 Q738.288 169.481 740.111 167.155 Q741.951 164.811 742.211 160.054 Q741.205 161.547 739.659 162.346 Q738.114 163.144 736.239 163.144 Q732.35 163.144 730.076 160.801 Q727.819 158.44 727.819 154.36 Q727.819 150.367 730.18 147.953 Q732.541 145.54 736.465 145.54 Q740.961 145.54 743.323 148.995 Q745.701 152.433 745.701 158.995 Q745.701 165.124 742.784 168.787 Q739.885 172.433 734.972 172.433 Q733.652 172.433 732.298 172.172 Q730.944 171.912 729.486 171.391 M736.465 160.401 Q738.826 160.401 740.198 158.787 Q741.586 157.172 741.586 154.36 Q741.586 151.565 740.198 149.95 Q738.826 148.318 736.465 148.318 Q734.104 148.318 732.715 149.95 Q731.343 151.565 731.343 154.36 Q731.343 157.172 732.715 158.787 Q734.104 160.401 736.465 160.401 Z" fill="#000000" fill-rule="evenodd" fill-opacity="1" /><path clip-path="url(#clip110)" d="M 0 0 M756.975 241.076 L769.214 241.076 L769.214 244.027 L752.756 244.027 L752.756 241.076 Q754.752 239.01 758.19 235.538 Q761.645 232.048 762.53 231.041 Q764.214 229.149 764.874 227.847 Q765.551 226.527 765.551 225.26 Q765.551 223.194 764.093 221.892 Q762.652 220.59 760.325 220.59 Q758.676 220.59 756.836 221.163 Q755.013 221.736 752.93 222.899 L752.93 219.357 Q755.048 218.507 756.888 218.073 Q758.728 217.639 760.256 217.639 Q764.284 217.639 766.679 219.652 Q769.075 221.666 769.075 225.034 Q769.075 226.632 768.468 228.073 Q767.877 229.496 766.297 231.441 Q765.863 231.944 763.537 234.357 Q761.211 236.753 756.975 241.076 Z" fill="#000000" fill-rule="evenodd" fill-opacity="1" /><path clip-path="url(#clip110)" d="M 0 0 M780.516 220.416 Q777.808 220.416 776.436 223.09 Q775.082 225.746 775.082 231.093 Q775.082 236.423 776.436 239.097 Q777.808 241.753 780.516 241.753 Q783.242 241.753 784.596 239.097 Q785.968 236.423 785.968 231.093 Q785.968 225.746 784.596 223.09 Q783.242 220.416 780.516 220.416 M780.516 217.639 Q784.874 217.639 787.165 221.093 Q789.474 224.531 789.474 231.093 Q789.474 237.639 787.165 241.093 Q784.874 244.531 780.516 244.531 Q776.159 244.531 773.85 241.093 Q771.558 237.639 771.558 231.093 Q771.558 224.531 773.85 221.093 Q776.159 217.639 780.516 217.639 Z" fill="#000000" fill-rule="evenodd" fill-opacity="1" /><path clip-path="url(#clip110)" d="M 0 0 M373.483 168.978 L385.722 168.978 L385.722 171.929 L369.264 171.929 L369.264 168.978 Q371.26 166.912 374.698 163.44 Q378.153 159.95 379.038 158.943 Q380.722 157.051 381.382 155.749 Q382.059 154.429 382.059 153.162 Q382.059 151.096 380.601 149.794 Q379.16 148.492 376.833 148.492 Q375.184 148.492 373.344 149.065 Q371.521 149.637 369.437 150.801 L369.437 147.259 Q371.555 146.408 373.396 145.974 Q375.236 145.54 376.764 145.54 Q380.791 145.54 383.187 147.554 Q385.583 149.568 385.583 152.936 Q385.583 154.533 384.976 155.974 Q384.385 157.398 382.805 159.342 Q382.371 159.846 380.045 162.259 Q377.719 164.655 373.483 168.978 Z" fill="#000000" fill-rule="evenodd" fill-opacity="1" /><path clip-path="url(#clip110)" d="M 0 0 M389.559 146.009 L403.326 146.009 L403.326 148.96 L392.771 148.96 L392.771 155.315 Q393.534 155.054 394.298 154.933 Q395.062 154.794 395.826 154.794 Q400.166 154.794 402.701 157.172 Q405.236 159.551 405.236 163.613 Q405.236 167.797 402.632 170.123 Q400.028 172.433 395.288 172.433 Q393.656 172.433 391.955 172.155 Q390.271 171.877 388.465 171.321 L388.465 167.797 Q390.028 168.648 391.694 169.064 Q393.361 169.481 395.219 169.481 Q398.222 169.481 399.975 167.901 Q401.729 166.321 401.729 163.613 Q401.729 160.905 399.975 159.325 Q398.222 157.745 395.219 157.745 Q393.812 157.745 392.406 158.058 Q391.017 158.37 389.559 159.03 L389.559 146.009 Z" fill="#000000" fill-rule="evenodd" fill-opacity="1" /><path clip-path="url(#clip110)" d="M 0 0 M416.093 241.076 L428.332 241.076 L428.332 244.027 L411.874 244.027 L411.874 241.076 Q413.871 239.01 417.308 235.538 Q420.763 232.048 421.648 231.041 Q423.332 229.149 423.992 227.847 Q424.669 226.527 424.669 225.26 Q424.669 223.194 423.211 221.892 Q421.77 220.59 419.443 220.59 Q417.794 220.59 415.954 221.163 Q414.131 221.736 412.048 222.899 L412.048 219.357 Q414.166 218.507 416.006 218.073 Q417.846 217.639 419.374 217.639 Q423.402 217.639 425.798 219.652 Q428.193 221.666 428.193 225.034 Q428.193 226.632 427.586 228.073 Q426.995 229.496 425.416 231.441 Q424.982 231.944 422.655 234.357 Q420.329 236.753 416.093 241.076 Z" fill="#000000" fill-rule="evenodd" fill-opacity="1" /><path clip-path="url(#clip110)" d="M 0 0 M440.068 229.67 Q437.707 229.67 436.318 231.284 Q434.947 232.899 434.947 235.711 Q434.947 238.507 436.318 240.138 Q437.707 241.753 440.068 241.753 Q442.429 241.753 443.801 240.138 Q445.19 238.507 445.19 235.711 Q445.19 232.899 443.801 231.284 Q442.429 229.67 440.068 229.67 M447.03 218.68 L447.03 221.875 Q445.711 221.25 444.356 220.92 Q443.02 220.59 441.7 220.59 Q438.228 220.59 436.388 222.934 Q434.565 225.277 434.304 230.017 Q435.329 228.507 436.874 227.708 Q438.419 226.892 440.277 226.892 Q444.183 226.892 446.44 229.27 Q448.714 231.632 448.714 235.711 Q448.714 239.704 446.353 242.118 Q443.992 244.531 440.068 244.531 Q435.572 244.531 433.193 241.093 Q430.815 237.639 430.815 231.093 Q430.815 224.948 433.732 221.302 Q436.648 217.639 441.561 217.639 Q442.881 217.639 444.218 217.899 Q445.572 218.159 447.03 218.68 Z" fill="#000000" fill-rule="evenodd" fill-opacity="1" /><path clip-path="url(#clip110)" d="M 0 0 M458.703 168.978 L470.942 168.978 L470.942 171.929 L454.484 171.929 L454.484 168.978 Q456.481 166.912 459.918 163.44 Q463.373 159.95 464.259 158.943 Q465.943 157.051 466.602 155.749 Q467.279 154.429 467.279 153.162 Q467.279 151.096 465.821 149.794 Q464.38 148.492 462.054 148.492 Q460.404 148.492 458.564 149.065 Q456.741 149.637 454.658 150.801 L454.658 147.259 Q456.776 146.408 458.616 145.974 Q460.456 145.54 461.984 145.54 Q466.012 145.54 468.408 147.554 Q470.804 149.568 470.804 152.936 Q470.804 154.533 470.196 155.974 Q469.606 157.398 468.026 159.342 Q467.592 159.846 465.265 162.259 Q462.939 164.655 458.703 168.978 Z" fill="#000000" fill-rule="evenodd" fill-opacity="1" /><path clip-path="url(#clip110)" d="M 0 0 M473.859 146.009 L490.526 146.009 L490.526 147.502 L481.116 171.929 L477.453 171.929 L486.307 148.96 L473.859 148.96 L473.859 146.009 Z" fill="#000000" fill-rule="evenodd" fill-opacity="1" /><path clip-path="url(#clip110)" d="M 0 0 M501.313 96.8793 L513.553 96.8793 L513.553 99.8307 L497.094 99.8307 L497.094 96.8793 Q499.091 94.8134 502.528 91.3412 Q505.983 87.8516 506.869 86.8447 Q508.553 84.9523 509.212 83.6503 Q509.89 82.3308 509.89 81.0635 Q509.89 78.9975 508.431 77.6954 Q506.99 76.3933 504.664 76.3933 Q503.015 76.3933 501.174 76.9663 Q499.351 77.5392 497.268 78.7024 L497.268 75.1607 Q499.386 74.31 501.226 73.876 Q503.067 73.442 504.594 73.442 Q508.622 73.442 511.018 75.4559 Q513.414 77.4697 513.414 80.8378 Q513.414 82.435 512.806 83.8759 Q512.216 85.2995 510.636 87.244 Q510.202 87.7475 507.876 90.1606 Q505.549 92.5565 501.313 96.8793 Z" fill="#000000" fill-rule="evenodd" fill-opacity="1" /><path clip-path="url(#clip110)" d="M 0 0 M517.459 99.2925 L517.459 96.0981 Q518.778 96.7231 520.133 97.053 Q521.487 97.3828 522.789 97.3828 Q526.261 97.3828 528.084 95.0564 Q529.924 92.7127 530.185 87.9558 Q529.178 89.4488 527.633 90.2474 Q526.087 91.046 524.212 91.046 Q520.324 91.046 518.049 88.7023 Q515.792 86.3412 515.792 82.2614 Q515.792 78.2683 518.153 75.8552 Q520.515 73.442 524.438 73.442 Q528.935 73.442 531.296 76.8968 Q533.674 80.3343 533.674 86.8968 Q533.674 93.0252 530.758 96.6884 Q527.858 100.334 522.945 100.334 Q521.626 100.334 520.271 100.074 Q518.917 99.8134 517.459 99.2925 M524.438 88.303 Q526.799 88.303 528.171 86.6884 Q529.56 85.0739 529.56 82.2614 Q529.56 79.4662 528.171 77.8517 Q526.799 76.2197 524.438 76.2197 Q522.077 76.2197 520.688 77.8517 Q519.317 79.4662 519.317 82.2614 Q519.317 85.0739 520.688 86.6884 Q522.077 88.303 524.438 88.303 Z" fill="#000000" fill-rule="evenodd" fill-opacity="1" /><path clip-path="url(#clip110)" d="M 0 0 M167.931 85.8551 Q170.449 86.3933 171.855 88.0947 Q173.278 89.7961 173.278 92.296 Q173.278 96.1328 170.64 98.2335 Q168.001 100.334 163.14 100.334 Q161.508 100.334 159.772 100.004 Q158.053 99.6918 156.213 99.0495 L156.213 95.6641 Q157.671 96.5148 159.407 96.9488 Q161.143 97.3828 163.035 97.3828 Q166.334 97.3828 168.053 96.0807 Q169.789 94.7787 169.789 92.296 Q169.789 90.0044 168.174 88.7197 Q166.577 87.4176 163.713 87.4176 L160.692 87.4176 L160.692 84.5357 L163.851 84.5357 Q166.438 84.5357 167.81 83.5114 Q169.181 82.4697 169.181 80.5253 Q169.181 78.5288 167.758 77.4697 Q166.351 76.3933 163.713 76.3933 Q162.272 76.3933 160.622 76.7058 Q158.973 77.0183 156.994 77.6781 L156.994 74.5531 Q158.99 73.9975 160.726 73.7198 Q162.48 73.442 164.025 73.442 Q168.018 73.442 170.344 75.2649 Q172.671 77.0704 172.671 80.1607 Q172.671 82.3135 171.438 83.8065 Q170.206 85.2822 167.931 85.8551 Z" fill="#000000" fill-rule="evenodd" fill-opacity="1" /><path clip-path="url(#clip110)" d="M 0 0 M177.115 73.9107 L190.883 73.9107 L190.883 76.8621 L180.327 76.8621 L180.327 83.2162 Q181.091 82.9558 181.855 82.8343 Q182.619 82.6954 183.383 82.6954 Q187.723 82.6954 190.258 85.0739 Q192.792 87.4523 192.792 91.5148 Q192.792 95.6988 190.188 98.0252 Q187.584 100.334 182.844 100.334 Q181.212 100.334 179.511 100.056 Q177.827 99.7786 176.022 99.2231 L176.022 95.6988 Q177.584 96.5495 179.251 96.9662 Q180.917 97.3828 182.775 97.3828 Q185.778 97.3828 187.532 95.803 Q189.285 94.2231 189.285 91.5148 Q189.285 88.8065 187.532 87.2266 Q185.778 85.6468 182.775 85.6468 Q181.369 85.6468 179.962 85.9593 Q178.574 86.2718 177.115 86.9315 L177.115 73.9107 Z" fill="#000000" fill-rule="evenodd" fill-opacity="1" /></svg>
