<?xml version="1.0" encoding="utf-8"?>
<svg xmlns="http://www.w3.org/2000/svg" xmlns:xlink="http://www.w3.org/1999/xlink" width="200" height="250" viewBox="0 0 800 1000">
<defs>
  <clipPath id="clip050">
    <rect x="0" y="0" width="800" height="1000"/>
  </clipPath>
</defs>
<path clip-path="url(#clip050)" d="
M0 1000 L800 1000 L800 0 L0 0  Z
  " fill="#ffffff" fill-rule="evenodd" fill-opacity="1"/>
<defs>
  <clipPath id="clip051">
    <rect x="200" y="100" width="701" height="701"/>
  </clipPath>
</defs>
<path clip-path="url(#clip050)" d="
M70.9921 927.008 L752.756 927.008 L752.756 62.9921 L70.9921 62.9921  Z
  " fill="#ffffff" fill-rule="evenodd" fill-opacity="1"/>
<defs>
  <clipPath id="clip052">
    <rect x="70" y="62" width="683" height="865"/>
  </clipPath>
</defs>
<polyline clip-path="url(#clip050)" style="stroke:#000000; stroke-width:4; stroke-opacity:1; fill:none" points="
  70.9921,927.008 752.756,927.008 
  "/>
<polyline clip-path="url(#clip050)" style="stroke:#000000; stroke-width:4; stroke-opacity:1; fill:none" points="
  70.9921,927.008 70.9921,62.9921 
  "/>
<polyline clip-path="url(#clip050)" style="stroke:#000000; stroke-width:4; stroke-opacity:1; fill:none" points="
  139.169,927.008 139.169,916.64 
  "/>
<polyline clip-path="url(#clip050)" style="stroke:#000000; stroke-width:4; stroke-opacity:1; fill:none" points="
  275.521,927.008 275.521,916.64 
  "/>
<polyline clip-path="url(#clip050)" style="stroke:#000000; stroke-width:4; stroke-opacity:1; fill:none" points="
  411.874,927.008 411.874,916.64 
  "/>
<polyline clip-path="url(#clip050)" style="stroke:#000000; stroke-width:4; stroke-opacity:1; fill:none" points="
  548.227,927.008 548.227,916.64 
  "/>
<polyline clip-path="url(#clip050)" style="stroke:#000000; stroke-width:4; stroke-opacity:1; fill:none" points="
  684.58,927.008 684.58,916.64 
  "/>
<polyline clip-path="url(#clip050)" style="stroke:#000000; stroke-width:4; stroke-opacity:1; fill:none" points="
  70.9921,840.606 79.1733,840.606 
  "/>
<polyline clip-path="url(#clip050)" style="stroke:#000000; stroke-width:4; stroke-opacity:1; fill:none" points="
  70.9921,667.803 79.1733,667.803 
  "/>
<polyline clip-path="url(#clip050)" style="stroke:#000000; stroke-width:4; stroke-opacity:1; fill:none" points="
  70.9921,495 79.1733,495 
  "/>
<polyline clip-path="url(#clip050)" style="stroke:#000000; stroke-width:4; stroke-opacity:1; fill:none" points="
  70.9921,322.197 79.1733,322.197 
  "/>
<polyline clip-path="url(#clip050)" style="stroke:#000000; stroke-width:4; stroke-opacity:1; fill:none" points="
  70.9921,149.394 79.1733,149.394 
  "/>
<path clip-path="url(#clip050)" d="M 0 0 M111.622 956.651 L141.298 956.651 L141.298 960.586 L111.622 960.586 L111.622 956.651 Z" fill="#000000" fill-rule="evenodd" fill-opacity="1" /><path clip-path="url(#clip050)" d="M 0 0 M150.395 969.545 L166.715 969.545 L166.715 973.48 L144.77 973.48 L144.77 969.545 Q147.432 966.79 152.016 962.16 Q156.622 957.508 157.803 956.165 Q160.048 953.642 160.928 951.906 Q161.83 950.147 161.83 948.457 Q161.83 945.702 159.886 943.966 Q157.965 942.23 154.863 942.23 Q152.664 942.23 150.21 942.994 Q147.78 943.758 145.002 945.309 L145.002 940.587 Q147.826 939.452 150.28 938.874 Q152.733 938.295 154.77 938.295 Q160.141 938.295 163.335 940.98 Q166.529 943.665 166.529 948.156 Q166.529 950.286 165.719 952.207 Q164.932 954.105 162.826 956.698 Q162.247 957.369 159.145 960.586 Q156.043 963.781 150.395 969.545 Z" fill="#000000" fill-rule="evenodd" fill-opacity="1" /><path clip-path="url(#clip050)" d="M 0 0 M247.79 956.651 L277.466 956.651 L277.466 960.586 L247.79 960.586 L247.79 956.651 Z" fill="#000000" fill-rule="evenodd" fill-opacity="1" /><path clip-path="url(#clip050)" d="M 0 0 M283.345 969.545 L290.984 969.545 L290.984 943.179 L282.674 944.846 L282.674 940.587 L290.938 938.92 L295.614 938.92 L295.614 969.545 L303.253 969.545 L303.253 973.48 L283.345 973.48 L283.345 969.545 Z" fill="#000000" fill-rule="evenodd" fill-opacity="1" /><path clip-path="url(#clip050)" d="M 0 0 M411.874 941.999 Q408.263 941.999 406.434 945.563 Q404.629 949.105 404.629 956.235 Q404.629 963.341 406.434 966.906 Q408.263 970.447 411.874 970.447 Q415.508 970.447 417.314 966.906 Q419.142 963.341 419.142 956.235 Q419.142 949.105 417.314 945.563 Q415.508 941.999 411.874 941.999 M411.874 938.295 Q417.684 938.295 420.74 942.901 Q423.818 947.485 423.818 956.235 Q423.818 964.961 420.74 969.568 Q417.684 974.151 411.874 974.151 Q406.064 974.151 402.985 969.568 Q399.93 964.961 399.93 956.235 Q399.93 947.485 402.985 942.901 Q406.064 938.295 411.874 938.295 Z" fill="#000000" fill-rule="evenodd" fill-opacity="1" /><path clip-path="url(#clip050)" d="M 0 0 M538.609 969.545 L546.248 969.545 L546.248 943.179 L537.937 944.846 L537.937 940.587 L546.201 938.92 L550.877 938.92 L550.877 969.545 L558.516 969.545 L558.516 973.48 L538.609 973.48 L538.609 969.545 Z" fill="#000000" fill-rule="evenodd" fill-opacity="1" /><path clip-path="url(#clip050)" d="M 0 0 M679.232 969.545 L695.552 969.545 L695.552 973.48 L673.607 973.48 L673.607 969.545 Q676.269 966.79 680.853 962.16 Q685.459 957.508 686.64 956.165 Q688.885 953.642 689.765 951.906 Q690.667 950.147 690.667 948.457 Q690.667 945.702 688.723 943.966 Q686.802 942.23 683.7 942.23 Q681.501 942.23 679.047 942.994 Q676.617 943.758 673.839 945.309 L673.839 940.587 Q676.663 939.452 679.117 938.874 Q681.57 938.295 683.607 938.295 Q688.978 938.295 692.172 940.98 Q695.367 943.665 695.367 948.156 Q695.367 950.286 694.556 952.207 Q693.769 954.105 691.663 956.698 Q691.084 957.369 687.982 960.586 Q684.88 963.781 679.232 969.545 Z" fill="#000000" fill-rule="evenodd" fill-opacity="1" /><path clip-path="url(#clip050)" d="M 0 0 M5.89983 841.058 L35.5756 841.058 L35.5756 844.993 L5.89983 844.993 L5.89983 841.058 Z" fill="#000000" fill-rule="evenodd" fill-opacity="1" /><path clip-path="url(#clip050)" d="M 0 0 M44.6728 853.951 L60.9921 853.951 L60.9921 857.886 L39.0478 857.886 L39.0478 853.951 Q41.7098 851.197 46.2931 846.567 Q50.8996 841.914 52.0801 840.572 Q54.3255 838.048 55.2051 836.312 Q56.1079 834.553 56.1079 832.863 Q56.1079 830.109 54.1635 828.373 Q52.2422 826.636 49.1403 826.636 Q46.9413 826.636 44.4876 827.4 Q42.057 828.164 39.2793 829.715 L39.2793 824.993 Q42.1033 823.859 44.557 823.28 Q47.0107 822.701 49.0477 822.701 Q54.4181 822.701 57.6125 825.386 Q60.8069 828.072 60.8069 832.562 Q60.8069 834.692 59.9968 836.613 Q59.2097 838.511 57.1033 841.104 Q56.5246 841.775 53.4227 844.993 Q50.3209 848.187 44.6728 853.951 Z" fill="#000000" fill-rule="evenodd" fill-opacity="1" /><path clip-path="url(#clip050)" d="M 0 0 M5.52946 668.255 L35.2052 668.255 L35.2052 672.19 L5.52946 672.19 L5.52946 668.255 Z" fill="#000000" fill-rule="evenodd" fill-opacity="1" /><path clip-path="url(#clip050)" d="M 0 0 M41.0848 681.148 L48.7237 681.148 L48.7237 654.782 L40.4135 656.449 L40.4135 652.19 L48.6774 650.523 L53.3533 650.523 L53.3533 681.148 L60.9921 681.148 L60.9921 685.083 L41.0848 685.083 L41.0848 681.148 Z" fill="#000000" fill-rule="evenodd" fill-opacity="1" /><path clip-path="url(#clip050)" d="M 0 0 M49.0477 480.799 Q45.4367 480.799 43.608 484.363 Q41.8024 487.905 41.8024 495.035 Q41.8024 502.141 43.608 505.706 Q45.4367 509.248 49.0477 509.248 Q52.682 509.248 54.4875 505.706 Q56.3162 502.141 56.3162 495.035 Q56.3162 487.905 54.4875 484.363 Q52.682 480.799 49.0477 480.799 M49.0477 477.095 Q54.8579 477.095 57.9134 481.701 Q60.9921 486.285 60.9921 495.035 Q60.9921 503.762 57.9134 508.368 Q54.8579 512.951 49.0477 512.951 Q43.2376 512.951 40.1589 508.368 Q37.1034 503.762 37.1034 495.035 Q37.1034 486.285 40.1589 481.701 Q43.2376 477.095 49.0477 477.095 Z" fill="#000000" fill-rule="evenodd" fill-opacity="1" /><path clip-path="url(#clip050)" d="M 0 0 M41.0848 335.542 L48.7237 335.542 L48.7237 309.176 L40.4135 310.843 L40.4135 306.584 L48.6774 304.917 L53.3533 304.917 L53.3533 335.542 L60.9921 335.542 L60.9921 339.477 L41.0848 339.477 L41.0848 335.542 Z" fill="#000000" fill-rule="evenodd" fill-opacity="1" /><path clip-path="url(#clip050)" d="M 0 0 M44.6728 162.739 L60.9921 162.739 L60.9921 166.674 L39.0478 166.674 L39.0478 162.739 Q41.7098 159.984 46.2931 155.354 Q50.8996 150.702 52.0801 149.359 Q54.3255 146.836 55.2051 145.1 Q56.1079 143.34 56.1079 141.651 Q56.1079 138.896 54.1635 137.16 Q52.2422 135.424 49.1403 135.424 Q46.9413 135.424 44.4876 136.188 Q42.057 136.952 39.2793 138.503 L39.2793 133.78 Q42.1033 132.646 44.557 132.067 Q47.0107 131.489 49.0477 131.489 Q54.4181 131.489 57.6125 134.174 Q60.8069 136.859 60.8069 141.35 Q60.8069 143.479 59.9968 145.401 Q59.2097 147.299 57.1033 149.891 Q56.5246 150.563 53.4227 153.78 Q50.3209 156.975 44.6728 162.739 Z" fill="#000000" fill-rule="evenodd" fill-opacity="1" /><path clip-path="url(#clip050)" d="M 0 0 M360.034 20.523 Q361.631 17.6527 363.853 16.2869 Q366.076 14.9212 369.085 14.9212 Q373.136 14.9212 375.335 17.7684 Q377.534 20.5925 377.534 25.8239 L377.534 41.472 L373.252 41.472 L373.252 25.9628 Q373.252 22.236 371.932 20.4304 Q370.613 18.6249 367.904 18.6249 Q364.594 18.6249 362.673 20.824 Q360.752 23.023 360.752 26.8193 L360.752 41.472 L356.469 41.472 L356.469 25.9628 Q356.469 22.2128 355.15 20.4304 Q353.83 18.6249 351.076 18.6249 Q347.812 18.6249 345.891 20.8471 Q343.969 23.0462 343.969 26.8193 L343.969 41.472 L339.687 41.472 L339.687 15.5462 L343.969 15.5462 L343.969 19.574 Q345.428 17.1897 347.465 16.0555 Q349.502 14.9212 352.303 14.9212 Q355.127 14.9212 357.094 16.3564 Q359.085 17.7916 360.034 20.523 Z" fill="#000000" fill-rule="evenodd" fill-opacity="1" /><path clip-path="url(#clip050)" d="M 0 0 M381.608 5.45367 L391.423 5.45367 L391.423 8.76384 L385.867 8.76384 L385.867 44.4118 L391.423 44.4118 L391.423 47.722 L381.608 47.722 L381.608 5.45367 Z" fill="#000000" fill-rule="evenodd" fill-opacity="1" /><path clip-path="url(#clip050)" d="M 0 0 M400.52 37.5368 L416.839 37.5368 L416.839 41.472 L394.895 41.472 L394.895 37.5368 Q397.557 34.7822 402.14 30.1526 Q406.747 25.4999 407.927 24.1573 Q410.173 21.6341 411.052 19.898 Q411.955 18.1388 411.955 16.449 Q411.955 13.6944 410.011 11.9583 Q408.089 10.2222 404.987 10.2222 Q402.788 10.2222 400.335 10.9861 Q397.904 11.7499 395.126 13.3009 L395.126 8.57866 Q397.95 7.4444 400.404 6.8657 Q402.858 6.287 404.895 6.287 Q410.265 6.287 413.46 8.97217 Q416.654 11.6573 416.654 16.1481 Q416.654 18.2777 415.844 20.199 Q415.057 22.0971 412.95 24.6897 Q412.372 25.361 409.27 28.5786 Q406.168 31.773 400.52 37.5368 Z" fill="#000000" fill-rule="evenodd" fill-opacity="1" /><path clip-path="url(#clip050)" d="M 0 0 M422.719 37.5368 L430.358 37.5368 L430.358 11.1712 L422.048 12.8379 L422.048 8.57866 L430.311 6.912 L434.987 6.912 L434.987 37.5368 L442.626 37.5368 L442.626 41.472 L422.719 41.472 L422.719 37.5368 Z" fill="#000000" fill-rule="evenodd" fill-opacity="1" /><path clip-path="url(#clip050)" d="M 0 0 M457.696 9.99069 Q454.084 9.99069 452.256 13.5555 Q450.45 17.0971 450.45 24.2267 Q450.45 31.3332 452.256 34.898 Q454.084 38.4396 457.696 38.4396 Q461.33 38.4396 463.135 34.898 Q464.964 31.3332 464.964 24.2267 Q464.964 17.0971 463.135 13.5555 Q461.33 9.99069 457.696 9.99069 M457.696 6.287 Q463.506 6.287 466.561 10.8935 Q469.64 15.4768 469.64 24.2267 Q469.64 32.9535 466.561 37.56 Q463.506 42.1433 457.696 42.1433 Q451.885 42.1433 448.807 37.56 Q445.751 32.9535 445.751 24.2267 Q445.751 15.4768 448.807 10.8935 Q451.885 6.287 457.696 6.287 Z" fill="#000000" fill-rule="evenodd" fill-opacity="1" /><path clip-path="url(#clip050)" d="M 0 0 M484.061 5.45367 L484.061 47.722 L474.246 47.722 L474.246 44.4118 L479.779 44.4118 L479.779 8.76384 L474.246 8.76384 L474.246 5.45367 L484.061 5.45367 Z" fill="#000000" fill-rule="evenodd" fill-opacity="1" /><circle clip-path="url(#clip052)" cx="139.169" cy="894.072" r="14" fill="#0000ff" fill-rule="evenodd" fill-opacity="1" stroke="none"/>
<path clip-path="url(#clip050)" d="M 0 0 M139.672 883.344 L145.401 883.344 L145.401 863.57 L139.169 864.82 L139.169 861.626 L145.366 860.376 L148.873 860.376 L148.873 883.344 L154.602 883.344 L154.602 886.296 L139.672 886.296 L139.672 883.344 Z" fill="#000000" fill-rule="evenodd" fill-opacity="1" /><path clip-path="url(#clip050)" d="M 0 0 M166.338 871.938 Q163.977 871.938 162.589 873.553 Q161.217 875.167 161.217 877.98 Q161.217 880.775 162.589 882.407 Q163.977 884.021 166.338 884.021 Q168.7 884.021 170.071 882.407 Q171.46 880.775 171.46 877.98 Q171.46 875.167 170.071 873.553 Q168.7 871.938 166.338 871.938 M173.3 860.949 L173.3 864.143 Q171.981 863.518 170.627 863.188 Q169.29 862.858 167.97 862.858 Q164.498 862.858 162.658 865.202 Q160.835 867.546 160.575 872.285 Q161.599 870.775 163.144 869.976 Q164.689 869.16 166.547 869.16 Q170.453 869.16 172.71 871.539 Q174.984 873.9 174.984 877.98 Q174.984 881.973 172.623 884.386 Q170.262 886.799 166.338 886.799 Q161.842 886.799 159.464 883.362 Q157.085 879.907 157.085 873.362 Q157.085 867.216 160.002 863.57 Q162.918 859.907 167.832 859.907 Q169.151 859.907 170.488 860.167 Q171.842 860.428 173.3 860.949 Z" fill="#000000" fill-rule="evenodd" fill-opacity="1" /><circle clip-path="url(#clip052)" cx="343.698" cy="544.884" r="14" fill="#0000ff" fill-rule="evenodd" fill-opacity="1" stroke="none"/>
<circle clip-path="url(#clip052)" cx="411.874" cy="594.768" r="14" fill="#0000ff" fill-rule="evenodd" fill-opacity="1" stroke="none"/>
<circle clip-path="url(#clip052)" cx="275.521" cy="694.536" r="14" fill="#0000ff" fill-rule="evenodd" fill-opacity="1" stroke="none"/>
<circle clip-path="url(#clip052)" cx="343.698" cy="744.42" r="14" fill="#0000ff" fill-rule="evenodd" fill-opacity="1" stroke="none"/>
<circle clip-path="url(#clip052)" cx="207.345" cy="844.188" r="14" fill="#0000ff" fill-rule="evenodd" fill-opacity="1" stroke="none"/>
<circle clip-path="url(#clip052)" cx="275.521" cy="894.072" r="14" fill="#0000ff" fill-rule="evenodd" fill-opacity="1" stroke="none"/>
<circle clip-path="url(#clip052)" cx="139.169" cy="395.232" r="14" fill="#0000ff" fill-rule="evenodd" fill-opacity="1" stroke="none"/>
<circle clip-path="url(#clip052)" cx="207.345" cy="445.116" r="14" fill="#0000ff" fill-rule="evenodd" fill-opacity="1" stroke="none"/>
<circle clip-path="url(#clip052)" cx="70.9921" cy="544.884" r="14" fill="#0000ff" fill-rule="evenodd" fill-opacity="1" stroke="none"/>
<circle clip-path="url(#clip052)" cx="139.169" cy="594.768" r="14" fill="#0000ff" fill-rule="evenodd" fill-opacity="1" stroke="none"/>
<circle clip-path="url(#clip052)" cx="70.9921" cy="744.42" r="14" fill="#0000ff" fill-rule="evenodd" fill-opacity="1" stroke="none"/>
<circle clip-path="url(#clip052)" cx="139.169" cy="694.536" r="14" fill="#0000ff" fill-rule="evenodd" fill-opacity="1" stroke="none"/>
<circle clip-path="url(#clip052)" cx="207.345" cy="744.42" r="14" fill="#0000ff" fill-rule="evenodd" fill-opacity="1" stroke="none"/>
<circle clip-path="url(#clip052)" cx="70.9921" cy="844.188" r="14" fill="#0000ff" fill-rule="evenodd" fill-opacity="1" stroke="none"/>
<circle clip-path="url(#clip052)" cx="139.169" cy="295.464" r="14" fill="#0000ff" fill-rule="evenodd" fill-opacity="1" stroke="none"/>
<circle clip-path="url(#clip052)" cx="411.874" cy="694.536" r="14" fill="#0000ff" fill-rule="evenodd" fill-opacity="1" stroke="none"/>
<circle clip-path="url(#clip052)" cx="70.9921" cy="445.116" r="14" fill="#0000ff" fill-rule="evenodd" fill-opacity="1" stroke="none"/>
<circle clip-path="url(#clip052)" cx="343.698" cy="844.188" r="14" fill="#0000ff" fill-rule="evenodd" fill-opacity="1" stroke="none"/>
<circle clip-path="url(#clip052)" cx="411.874" cy="894.072" r="14" fill="#0000ff" fill-rule="evenodd" fill-opacity="1" stroke="none"/>
<circle clip-path="url(#clip052)" cx="343.698" cy="445.116" r="14" fill="#0000ff" fill-rule="evenodd" fill-opacity="1" stroke="none"/>
<circle clip-path="url(#clip052)" cx="207.345" cy="544.884" r="14" fill="#0000ff" fill-rule="evenodd" fill-opacity="1" stroke="none"/>
<circle clip-path="url(#clip052)" cx="275.521" cy="594.768" r="14" fill="#0000ff" fill-rule="evenodd" fill-opacity="1" stroke="none"/>
<path clip-path="url(#clip050)" d="M 0 0 M344.201 534.157 L349.93 534.157 L349.93 514.382 L343.698 515.632 L343.698 512.438 L349.896 511.188 L353.402 511.188 L353.402 534.157 L359.132 534.157 L359.132 537.108 L344.201 537.108 L344.201 534.157 Z" fill="#000000" fill-rule="evenodd" fill-opacity="1" /><path clip-path="url(#clip050)" d="M 0 0 M416.093 584.041 L428.332 584.041 L428.332 586.992 L411.874 586.992 L411.874 584.041 Q413.871 581.975 417.308 578.502 Q420.763 575.013 421.648 574.006 Q423.332 572.114 423.992 570.811 Q424.669 569.492 424.669 568.225 Q424.669 566.159 423.211 564.857 Q421.77 563.555 419.443 563.555 Q417.794 563.555 415.954 564.127 Q414.131 564.7 412.048 565.864 L412.048 562.322 Q414.166 561.471 416.006 561.037 Q417.846 560.603 419.374 560.603 Q423.402 560.603 425.798 562.617 Q428.193 564.631 428.193 567.999 Q428.193 569.596 427.586 571.037 Q426.995 572.461 425.416 574.405 Q424.982 574.909 422.655 577.322 Q420.329 579.718 416.093 584.041 Z" fill="#000000" fill-rule="evenodd" fill-opacity="1" /><path clip-path="url(#clip050)" d="M 0 0 M287.24 672.784 Q289.757 673.322 291.164 675.024 Q292.587 676.725 292.587 679.225 Q292.587 683.062 289.948 685.163 Q287.309 687.263 282.448 687.263 Q280.816 687.263 279.08 686.934 Q277.362 686.621 275.521 685.979 L275.521 682.593 Q276.98 683.444 278.716 683.878 Q280.452 684.312 282.344 684.312 Q285.643 684.312 287.361 683.01 Q289.098 681.708 289.098 679.225 Q289.098 676.934 287.483 675.649 Q285.886 674.347 283.021 674.347 L280 674.347 L280 671.465 L283.16 671.465 Q285.747 671.465 287.118 670.441 Q288.49 669.399 288.49 667.454 Q288.49 665.458 287.066 664.399 Q285.66 663.323 283.021 663.323 Q281.58 663.323 279.931 663.635 Q278.282 663.948 276.303 664.607 L276.303 661.482 Q278.299 660.927 280.035 660.649 Q281.789 660.371 283.334 660.371 Q287.327 660.371 289.653 662.194 Q291.98 664 291.98 667.09 Q291.98 669.243 290.747 670.736 Q289.514 672.211 287.24 672.784 Z" fill="#000000" fill-rule="evenodd" fill-opacity="1" /><path clip-path="url(#clip050)" d="M 0 0 M355.399 713.779 L346.545 727.616 L355.399 727.616 L355.399 713.779 M354.479 710.724 L358.889 710.724 L358.889 727.616 L362.586 727.616 L362.586 730.533 L358.889 730.533 L358.889 736.644 L355.399 736.644 L355.399 730.533 L343.698 730.533 L343.698 727.147 L354.479 710.724 Z" fill="#000000" fill-rule="evenodd" fill-opacity="1" /><path clip-path="url(#clip050)" d="M 0 0 M208.439 810.492 L222.206 810.492 L222.206 813.443 L211.65 813.443 L211.65 819.797 Q212.414 819.537 213.178 819.415 Q213.942 819.276 214.706 819.276 Q219.046 819.276 221.581 821.655 Q224.116 824.033 224.116 828.096 Q224.116 832.28 221.511 834.606 Q218.907 836.915 214.168 836.915 Q212.536 836.915 210.834 836.638 Q209.15 836.36 207.345 835.804 L207.345 832.28 Q208.907 833.131 210.574 833.547 Q212.241 833.964 214.098 833.964 Q217.102 833.964 218.855 832.384 Q220.609 830.804 220.609 828.096 Q220.609 825.388 218.855 823.808 Q217.102 822.228 214.098 822.228 Q212.692 822.228 211.286 822.54 Q209.897 822.853 208.439 823.513 L208.439 810.492 Z" fill="#000000" fill-rule="evenodd" fill-opacity="1" /><path clip-path="url(#clip050)" d="M 0 0 M284.775 871.938 Q282.414 871.938 281.025 873.553 Q279.653 875.167 279.653 877.98 Q279.653 880.775 281.025 882.407 Q282.414 884.021 284.775 884.021 Q287.136 884.021 288.507 882.407 Q289.896 880.775 289.896 877.98 Q289.896 875.167 288.507 873.553 Q287.136 871.938 284.775 871.938 M291.736 860.949 L291.736 864.143 Q290.417 863.518 289.063 863.188 Q287.726 862.858 286.407 862.858 Q282.934 862.858 281.094 865.202 Q279.271 867.546 279.011 872.285 Q280.035 870.775 281.58 869.976 Q283.125 869.16 284.983 869.16 Q288.889 869.16 291.146 871.539 Q293.42 873.9 293.42 877.98 Q293.42 881.973 291.059 884.386 Q288.698 886.799 284.775 886.799 Q280.278 886.799 277.9 883.362 Q275.521 879.907 275.521 873.362 Q275.521 867.216 278.438 863.57 Q281.355 859.907 286.268 859.907 Q287.587 859.907 288.924 860.167 Q290.278 860.428 291.736 860.949 Z" fill="#000000" fill-rule="evenodd" fill-opacity="1" /><path clip-path="url(#clip050)" d="M 0 0 M139.169 361.536 L155.835 361.536 L155.835 363.029 L146.425 387.456 L142.762 387.456 L151.616 364.487 L139.169 364.487 L139.169 361.536 Z" fill="#000000" fill-rule="evenodd" fill-opacity="1" /><path clip-path="url(#clip050)" d="M 0 0 M216.234 425.031 Q213.734 425.031 212.293 426.368 Q210.869 427.705 210.869 430.048 Q210.869 432.392 212.293 433.729 Q213.734 435.066 216.234 435.066 Q218.734 435.066 220.175 433.729 Q221.616 432.375 221.616 430.048 Q221.616 427.705 220.175 426.368 Q218.751 425.031 216.234 425.031 M212.727 423.538 Q210.47 422.982 209.203 421.437 Q207.953 419.892 207.953 417.67 Q207.953 414.562 210.157 412.757 Q212.38 410.951 216.234 410.951 Q220.105 410.951 222.31 412.757 Q224.515 414.562 224.515 417.67 Q224.515 419.892 223.248 421.437 Q221.998 422.982 219.758 423.538 Q222.293 424.128 223.699 425.847 Q225.123 427.566 225.123 430.048 Q225.123 433.816 222.814 435.83 Q220.522 437.843 216.234 437.843 Q211.946 437.843 209.637 435.83 Q207.345 433.816 207.345 430.048 Q207.345 427.566 208.768 425.847 Q210.192 424.128 212.727 423.538 M211.442 418 Q211.442 420.014 212.692 421.142 Q213.959 422.271 216.234 422.271 Q218.491 422.271 219.758 421.142 Q221.043 420.014 221.043 418 Q221.043 415.986 219.758 414.858 Q218.491 413.729 216.234 413.729 Q213.959 413.729 212.692 414.858 Q211.442 415.986 211.442 418 Z" fill="#000000" fill-rule="evenodd" fill-opacity="1" /><path clip-path="url(#clip050)" d="M 0 0 M72.6588 536.57 L72.6588 533.375 Q73.9782 534 75.3324 534.33 Q76.6865 534.66 77.9886 534.66 Q81.4608 534.66 83.2837 532.334 Q85.124 529.99 85.3844 525.233 Q84.3775 526.726 82.8323 527.525 Q81.2872 528.323 79.4122 528.323 Q75.5234 528.323 73.2491 525.98 Q70.9921 523.618 70.9921 519.539 Q70.9921 515.546 73.3532 513.132 Q75.7143 510.719 79.6379 510.719 Q84.1344 510.719 86.4955 514.174 Q88.874 517.612 88.874 524.174 Q88.874 530.302 85.9573 533.966 Q83.058 537.611 78.1449 537.611 Q76.8254 537.611 75.4713 537.351 Q74.1171 537.091 72.6588 536.57 M79.6379 525.58 Q81.999 525.58 83.3705 523.966 Q84.7594 522.351 84.7594 519.539 Q84.7594 516.743 83.3705 515.129 Q81.999 513.497 79.6379 513.497 Q77.2768 513.497 75.8879 515.129 Q74.5164 516.743 74.5164 519.539 Q74.5164 522.351 75.8879 523.966 Q77.2768 525.58 79.6379 525.58 Z" fill="#000000" fill-rule="evenodd" fill-opacity="1" /><path clip-path="url(#clip050)" d="M 0 0 M139.672 584.041 L145.401 584.041 L145.401 564.266 L139.169 565.516 L139.169 562.322 L145.366 561.072 L148.873 561.072 L148.873 584.041 L154.602 584.041 L154.602 586.992 L139.672 586.992 L139.672 584.041 Z" fill="#000000" fill-rule="evenodd" fill-opacity="1" /><path clip-path="url(#clip050)" d="M 0 0 M165.904 563.381 Q163.196 563.381 161.825 566.055 Q160.47 568.711 160.47 574.058 Q160.47 579.388 161.825 582.061 Q163.196 584.718 165.904 584.718 Q168.63 584.718 169.984 582.061 Q171.356 579.388 171.356 574.058 Q171.356 568.711 169.984 566.055 Q168.63 563.381 165.904 563.381 M165.904 560.603 Q170.262 560.603 172.554 564.058 Q174.863 567.496 174.863 574.058 Q174.863 580.603 172.554 584.058 Q170.262 587.495 165.904 587.495 Q161.547 587.495 159.238 584.058 Q156.946 580.603 156.946 574.058 Q156.946 567.496 159.238 564.058 Q161.547 560.603 165.904 560.603 Z" fill="#000000" fill-rule="evenodd" fill-opacity="1" /><path clip-path="url(#clip050)" d="M 0 0 M71.4956 733.692 L77.2247 733.692 L77.2247 713.918 L70.9921 715.168 L70.9921 711.974 L77.19 710.724 L80.6969 710.724 L80.6969 733.692 L86.4261 733.692 L86.4261 736.644 L71.4956 736.644 L71.4956 733.692 Z" fill="#000000" fill-rule="evenodd" fill-opacity="1" /><path clip-path="url(#clip050)" d="M 0 0 M93.249 733.692 L105.488 733.692 L105.488 736.644 L89.0302 736.644 L89.0302 733.692 Q91.0267 731.627 94.4642 728.154 Q97.9191 724.665 98.8045 723.658 Q100.488 721.765 101.148 720.463 Q101.825 719.144 101.825 717.877 Q101.825 715.811 100.367 714.509 Q98.926 713.206 96.5996 713.206 Q94.9503 713.206 93.1101 713.779 Q91.2872 714.352 89.2038 715.516 L89.2038 711.974 Q91.3219 711.123 93.1621 710.689 Q95.0024 710.255 96.5302 710.255 Q100.558 710.255 102.954 712.269 Q105.35 714.283 105.35 717.651 Q105.35 719.248 104.742 720.689 Q104.152 722.113 102.572 724.057 Q102.138 724.561 99.8114 726.974 Q97.485 729.37 93.249 733.692 Z" fill="#000000" fill-rule="evenodd" fill-opacity="1" /><path clip-path="url(#clip050)" d="M 0 0 M139.672 683.809 L145.401 683.809 L145.401 664.034 L139.169 665.284 L139.169 662.09 L145.366 660.84 L148.873 660.84 L148.873 683.809 L154.602 683.809 L154.602 686.76 L139.672 686.76 L139.672 683.809 Z" fill="#000000" fill-rule="evenodd" fill-opacity="1" /><path clip-path="url(#clip050)" d="M 0 0 M169.029 672.784 Q171.547 673.322 172.953 675.024 Q174.377 676.725 174.377 679.225 Q174.377 683.062 171.738 685.163 Q169.099 687.263 164.238 687.263 Q162.606 687.263 160.87 686.934 Q159.151 686.621 157.311 685.979 L157.311 682.593 Q158.769 683.444 160.505 683.878 Q162.241 684.312 164.134 684.312 Q167.432 684.312 169.151 683.01 Q170.887 681.708 170.887 679.225 Q170.887 676.934 169.273 675.649 Q167.675 674.347 164.811 674.347 L161.79 674.347 L161.79 671.465 L164.95 671.465 Q167.536 671.465 168.908 670.441 Q170.279 669.399 170.279 667.454 Q170.279 665.458 168.856 664.399 Q167.45 663.323 164.811 663.323 Q163.37 663.323 161.72 663.635 Q160.071 663.948 158.092 664.607 L158.092 661.482 Q160.089 660.927 161.825 660.649 Q163.578 660.371 165.123 660.371 Q169.116 660.371 171.443 662.194 Q173.769 664 173.769 667.09 Q173.769 669.243 172.536 670.736 Q171.304 672.211 169.029 672.784 Z" fill="#000000" fill-rule="evenodd" fill-opacity="1" /><path clip-path="url(#clip050)" d="M 0 0 M207.848 733.692 L213.577 733.692 L213.577 713.918 L207.345 715.168 L207.345 711.974 L213.543 710.724 L217.05 710.724 L217.05 733.692 L222.779 733.692 L222.779 736.644 L207.848 736.644 L207.848 733.692 Z" fill="#000000" fill-rule="evenodd" fill-opacity="1" /><path clip-path="url(#clip050)" d="M 0 0 M236.216 713.779 L227.362 727.616 L236.216 727.616 L236.216 713.779 M235.296 710.724 L239.706 710.724 L239.706 727.616 L243.404 727.616 L243.404 730.533 L239.706 730.533 L239.706 736.644 L236.216 736.644 L236.216 730.533 L224.515 730.533 L224.515 727.147 L235.296 710.724 Z" fill="#000000" fill-rule="evenodd" fill-opacity="1" /><path clip-path="url(#clip050)" d="M 0 0 M71.4956 833.46 L77.2247 833.46 L77.2247 813.686 L70.9921 814.936 L70.9921 811.742 L77.19 810.492 L80.6969 810.492 L80.6969 833.46 L86.4261 833.46 L86.4261 836.412 L71.4956 836.412 L71.4956 833.46 Z" fill="#000000" fill-rule="evenodd" fill-opacity="1" /><path clip-path="url(#clip050)" d="M 0 0 M90.2629 810.492 L104.03 810.492 L104.03 813.443 L93.4746 813.443 L93.4746 819.797 Q94.2385 819.537 95.0024 819.415 Q95.7663 819.276 96.5302 819.276 Q100.87 819.276 103.405 821.655 Q105.94 824.033 105.94 828.096 Q105.94 832.28 103.336 834.606 Q100.732 836.915 95.992 836.915 Q94.3601 836.915 92.6587 836.638 Q90.9747 836.36 89.1691 835.804 L89.1691 832.28 Q90.7316 833.131 92.3983 833.547 Q94.0649 833.964 95.9225 833.964 Q98.926 833.964 100.679 832.384 Q102.433 830.804 102.433 828.096 Q102.433 825.388 100.679 823.808 Q98.926 822.228 95.9225 822.228 Q94.5163 822.228 93.1101 822.54 Q91.7212 822.853 90.2629 823.513 L90.2629 810.492 Z" fill="#000000" fill-rule="evenodd" fill-opacity="1" /><path clip-path="url(#clip050)" d="M 0 0 M139.672 284.737 L145.401 284.737 L145.401 264.963 L139.169 266.213 L139.169 263.018 L145.366 261.768 L148.873 261.768 L148.873 284.737 L154.602 284.737 L154.602 287.688 L139.672 287.688 L139.672 284.737 Z" fill="#000000" fill-rule="evenodd" fill-opacity="1" /><path clip-path="url(#clip050)" d="M 0 0 M166.338 273.331 Q163.977 273.331 162.589 274.945 Q161.217 276.56 161.217 279.372 Q161.217 282.167 162.589 283.799 Q163.977 285.414 166.338 285.414 Q168.7 285.414 170.071 283.799 Q171.46 282.167 171.46 279.372 Q171.46 276.56 170.071 274.945 Q168.7 273.331 166.338 273.331 M173.3 262.341 L173.3 265.535 Q171.981 264.91 170.627 264.581 Q169.29 264.251 167.97 264.251 Q164.498 264.251 162.658 266.594 Q160.835 268.938 160.575 273.678 Q161.599 272.167 163.144 271.369 Q164.689 270.553 166.547 270.553 Q170.453 270.553 172.71 272.931 Q174.984 275.292 174.984 279.372 Q174.984 283.365 172.623 285.778 Q170.262 288.192 166.338 288.192 Q161.842 288.192 159.464 284.754 Q157.085 281.299 157.085 274.754 Q157.085 268.608 160.002 264.963 Q162.918 261.299 167.832 261.299 Q169.151 261.299 170.488 261.56 Q171.842 261.82 173.3 262.341 Z" fill="#000000" fill-rule="evenodd" fill-opacity="1" /><path clip-path="url(#clip050)" d="M 0 0 M412.377 683.809 L418.107 683.809 L418.107 664.034 L411.874 665.284 L411.874 662.09 L418.072 660.84 L421.579 660.84 L421.579 683.809 L427.308 683.809 L427.308 686.76 L412.377 686.76 L412.377 683.809 Z" fill="#000000" fill-rule="evenodd" fill-opacity="1" /><path clip-path="url(#clip050)" d="M 0 0 M430.225 660.84 L446.891 660.84 L446.891 662.333 L437.482 686.76 L433.818 686.76 L442.672 663.791 L430.225 663.791 L430.225 660.84 Z" fill="#000000" fill-rule="evenodd" fill-opacity="1" /><path clip-path="url(#clip050)" d="M 0 0 M71.4956 434.389 L77.2247 434.389 L77.2247 414.614 L70.9921 415.864 L70.9921 412.67 L77.19 411.42 L80.6969 411.42 L80.6969 434.389 L86.4261 434.389 L86.4261 437.34 L71.4956 437.34 L71.4956 434.389 Z" fill="#000000" fill-rule="evenodd" fill-opacity="1" /><path clip-path="url(#clip050)" d="M 0 0 M97.7281 425.031 Q95.2281 425.031 93.7871 426.368 Q92.3635 427.705 92.3635 430.048 Q92.3635 432.392 93.7871 433.729 Q95.2281 435.066 97.7281 435.066 Q100.228 435.066 101.669 433.729 Q103.11 432.375 103.11 430.048 Q103.11 427.705 101.669 426.368 Q100.245 425.031 97.7281 425.031 M94.2212 423.538 Q91.9642 422.982 90.6969 421.437 Q89.4469 419.892 89.4469 417.67 Q89.4469 414.562 91.6517 412.757 Q93.8739 410.951 97.7281 410.951 Q101.6 410.951 103.804 412.757 Q106.009 414.562 106.009 417.67 Q106.009 419.892 104.742 421.437 Q103.492 422.982 101.252 423.538 Q103.787 424.128 105.193 425.847 Q106.617 427.566 106.617 430.048 Q106.617 433.816 104.308 435.83 Q102.016 437.843 97.7281 437.843 Q93.4399 437.843 91.1309 435.83 Q88.8393 433.816 88.8393 430.048 Q88.8393 427.566 90.2629 425.847 Q91.6865 424.128 94.2212 423.538 M92.9365 418 Q92.9365 420.014 94.1864 421.142 Q95.4538 422.271 97.7281 422.271 Q99.985 422.271 101.252 421.142 Q102.537 420.014 102.537 418 Q102.537 415.986 101.252 414.858 Q99.985 413.729 97.7281 413.729 Q95.4538 413.729 94.1864 414.858 Q92.9365 415.986 92.9365 418 Z" fill="#000000" fill-rule="evenodd" fill-opacity="1" /><path clip-path="url(#clip050)" d="M 0 0 M344.201 833.46 L349.93 833.46 L349.93 813.686 L343.698 814.936 L343.698 811.742 L349.896 810.492 L353.402 810.492 L353.402 833.46 L359.132 833.46 L359.132 836.412 L344.201 836.412 L344.201 833.46 Z" fill="#000000" fill-rule="evenodd" fill-opacity="1" /><path clip-path="url(#clip050)" d="M 0 0 M363.038 835.874 L363.038 832.679 Q364.357 833.304 365.711 833.634 Q367.066 833.964 368.368 833.964 Q371.84 833.964 373.663 831.638 Q375.503 829.294 375.763 824.537 Q374.756 826.03 373.211 826.829 Q371.666 827.627 369.791 827.627 Q365.902 827.627 363.628 825.283 Q361.371 822.922 361.371 818.842 Q361.371 814.849 363.732 812.436 Q366.093 810.023 370.017 810.023 Q374.513 810.023 376.875 813.478 Q379.253 816.915 379.253 823.478 Q379.253 829.606 376.336 833.269 Q373.437 836.915 368.524 836.915 Q367.204 836.915 365.85 836.655 Q364.496 836.394 363.038 835.874 M370.017 824.884 Q372.378 824.884 373.75 823.27 Q375.138 821.655 375.138 818.842 Q375.138 816.047 373.75 814.433 Q372.378 812.801 370.017 812.801 Q367.656 812.801 366.267 814.433 Q364.895 816.047 364.895 818.842 Q364.895 821.655 366.267 823.27 Q367.656 824.884 370.017 824.884 Z" fill="#000000" fill-rule="evenodd" fill-opacity="1" /><path clip-path="url(#clip050)" d="M 0 0 M416.093 883.344 L428.332 883.344 L428.332 886.296 L411.874 886.296 L411.874 883.344 Q413.871 881.278 417.308 877.806 Q420.763 874.317 421.648 873.31 Q423.332 871.417 423.992 870.115 Q424.669 868.796 424.669 867.529 Q424.669 865.463 423.211 864.16 Q421.77 862.858 419.443 862.858 Q417.794 862.858 415.954 863.431 Q414.131 864.004 412.048 865.167 L412.048 861.626 Q414.166 860.775 416.006 860.341 Q417.846 859.907 419.374 859.907 Q423.402 859.907 425.798 861.921 Q428.193 863.935 428.193 867.303 Q428.193 868.9 427.586 870.341 Q426.995 871.765 425.416 873.709 Q424.982 874.213 422.655 876.626 Q420.329 879.022 416.093 883.344 Z" fill="#000000" fill-rule="evenodd" fill-opacity="1" /><path clip-path="url(#clip050)" d="M 0 0 M439.634 862.685 Q436.926 862.685 435.554 865.358 Q434.2 868.015 434.2 873.362 Q434.2 878.692 435.554 881.365 Q436.926 884.021 439.634 884.021 Q442.36 884.021 443.714 881.365 Q445.086 878.692 445.086 873.362 Q445.086 868.015 443.714 865.358 Q442.36 862.685 439.634 862.685 M439.634 859.907 Q443.992 859.907 446.284 863.362 Q448.593 866.799 448.593 873.362 Q448.593 879.907 446.284 883.362 Q443.992 886.799 439.634 886.799 Q435.277 886.799 432.968 883.362 Q430.676 879.907 430.676 873.362 Q430.676 866.799 432.968 863.362 Q435.277 859.907 439.634 859.907 Z" fill="#000000" fill-rule="evenodd" fill-opacity="1" /><path clip-path="url(#clip050)" d="M 0 0 M347.916 434.389 L360.156 434.389 L360.156 437.34 L343.698 437.34 L343.698 434.389 Q345.694 432.323 349.132 428.85 Q352.586 425.361 353.472 424.354 Q355.156 422.462 355.816 421.16 Q356.493 419.84 356.493 418.573 Q356.493 416.507 355.034 415.205 Q353.593 413.903 351.267 413.903 Q349.618 413.903 347.777 414.476 Q345.955 415.048 343.871 416.212 L343.871 412.67 Q345.989 411.819 347.83 411.385 Q349.67 410.951 351.198 410.951 Q355.225 410.951 357.621 412.965 Q360.017 414.979 360.017 418.347 Q360.017 419.944 359.409 421.385 Q358.819 422.809 357.239 424.753 Q356.805 425.257 354.479 427.67 Q352.152 430.066 347.916 434.389 Z" fill="#000000" fill-rule="evenodd" fill-opacity="1" /><path clip-path="url(#clip050)" d="M 0 0 M366.979 434.389 L379.218 434.389 L379.218 437.34 L362.76 437.34 L362.76 434.389 Q364.757 432.323 368.194 428.85 Q371.649 425.361 372.534 424.354 Q374.218 422.462 374.878 421.16 Q375.555 419.84 375.555 418.573 Q375.555 416.507 374.097 415.205 Q372.656 413.903 370.329 413.903 Q368.68 413.903 366.84 414.476 Q365.017 415.048 362.934 416.212 L362.934 412.67 Q365.052 411.819 366.892 411.385 Q368.732 410.951 370.26 410.951 Q374.288 410.951 376.684 412.965 Q379.079 414.979 379.079 418.347 Q379.079 419.944 378.472 421.385 Q377.881 422.809 376.302 424.753 Q375.868 425.257 373.541 427.67 Q371.215 430.066 366.979 434.389 Z" fill="#000000" fill-rule="evenodd" fill-opacity="1" /><path clip-path="url(#clip050)" d="M 0 0 M211.564 534.157 L223.803 534.157 L223.803 537.108 L207.345 537.108 L207.345 534.157 Q209.341 532.091 212.779 528.618 Q216.234 525.129 217.119 524.122 Q218.803 522.23 219.463 520.928 Q220.14 519.608 220.14 518.341 Q220.14 516.275 218.682 514.973 Q217.241 513.671 214.914 513.671 Q213.265 513.671 211.425 514.244 Q209.602 514.816 207.518 515.98 L207.518 512.438 Q209.637 511.587 211.477 511.153 Q213.317 510.719 214.845 510.719 Q218.873 510.719 221.268 512.733 Q223.664 514.747 223.664 518.115 Q223.664 519.712 223.057 521.153 Q222.466 522.577 220.886 524.521 Q220.452 525.025 218.126 527.438 Q215.8 529.834 211.564 534.157 Z" fill="#000000" fill-rule="evenodd" fill-opacity="1" /><path clip-path="url(#clip050)" d="M 0 0 M238.23 523.132 Q240.747 523.671 242.154 525.372 Q243.577 527.073 243.577 529.573 Q243.577 533.41 240.938 535.511 Q238.3 537.611 233.438 537.611 Q231.807 537.611 230.07 537.282 Q228.352 536.969 226.511 536.327 L226.511 532.941 Q227.97 533.792 229.706 534.226 Q231.442 534.66 233.334 534.66 Q236.633 534.66 238.352 533.358 Q240.088 532.056 240.088 529.573 Q240.088 527.282 238.473 525.997 Q236.876 524.695 234.011 524.695 L230.991 524.695 L230.991 521.813 L234.15 521.813 Q236.737 521.813 238.109 520.789 Q239.48 519.747 239.48 517.803 Q239.48 515.806 238.057 514.747 Q236.65 513.671 234.011 513.671 Q232.57 513.671 230.921 513.983 Q229.272 514.296 227.293 514.955 L227.293 511.83 Q229.289 511.275 231.025 510.997 Q232.779 510.719 234.324 510.719 Q238.317 510.719 240.643 512.542 Q242.97 514.348 242.97 517.438 Q242.97 519.591 241.737 521.084 Q240.504 522.559 238.23 523.132 Z" fill="#000000" fill-rule="evenodd" fill-opacity="1" /><path clip-path="url(#clip050)" d="M 0 0 M279.74 584.041 L291.98 584.041 L291.98 586.992 L275.521 586.992 L275.521 584.041 Q277.518 581.975 280.955 578.502 Q284.41 575.013 285.296 574.006 Q286.98 572.114 287.639 570.811 Q288.316 569.492 288.316 568.225 Q288.316 566.159 286.858 564.857 Q285.417 563.555 283.091 563.555 Q281.441 563.555 279.601 564.127 Q277.778 564.7 275.695 565.864 L275.695 562.322 Q277.813 561.471 279.653 561.037 Q281.493 560.603 283.021 560.603 Q287.049 560.603 289.445 562.617 Q291.841 564.631 291.841 567.999 Q291.841 569.596 291.233 571.037 Q290.643 572.461 289.063 574.405 Q288.629 574.909 286.302 577.322 Q283.976 579.718 279.74 584.041 Z" fill="#000000" fill-rule="evenodd" fill-opacity="1" /><path clip-path="url(#clip050)" d="M 0 0 M305.417 564.127 L296.563 577.964 L305.417 577.964 L305.417 564.127 M304.497 561.072 L308.906 561.072 L308.906 577.964 L312.604 577.964 L312.604 580.881 L308.906 580.881 L308.906 586.992 L305.417 586.992 L305.417 580.881 L293.716 580.881 L293.716 577.495 L304.497 561.072 Z" fill="#000000" fill-rule="evenodd" fill-opacity="1" /><circle clip-path="url(#clip052)" cx="275.521" cy="95.9282" r="14" fill="#0000ff" fill-rule="evenodd" fill-opacity="1" stroke="none"/>
<circle clip-path="url(#clip052)" cx="343.698" cy="145.812" r="14" fill="#0000ff" fill-rule="evenodd" fill-opacity="1" stroke="none"/>
<circle clip-path="url(#clip052)" cx="207.345" cy="245.58" r="14" fill="#0000ff" fill-rule="evenodd" fill-opacity="1" stroke="none"/>
<circle clip-path="url(#clip052)" cx="275.521" cy="295.464" r="14" fill="#0000ff" fill-rule="evenodd" fill-opacity="1" stroke="none"/>
<circle clip-path="url(#clip052)" cx="411.874" cy="395.232" r="14" fill="#0000ff" fill-rule="evenodd" fill-opacity="1" stroke="none"/>
<circle clip-path="url(#clip052)" cx="70.9921" cy="145.812" r="14" fill="#0000ff" fill-rule="evenodd" fill-opacity="1" stroke="none"/>
<circle clip-path="url(#clip052)" cx="139.169" cy="95.9282" r="14" fill="#0000ff" fill-rule="evenodd" fill-opacity="1" stroke="none"/>
<circle clip-path="url(#clip052)" cx="207.345" cy="145.812" r="14" fill="#0000ff" fill-rule="evenodd" fill-opacity="1" stroke="none"/>
<circle clip-path="url(#clip052)" cx="70.9921" cy="245.58" r="14" fill="#0000ff" fill-rule="evenodd" fill-opacity="1" stroke="none"/>
<circle clip-path="url(#clip052)" cx="411.874" cy="95.9282" r="14" fill="#0000ff" fill-rule="evenodd" fill-opacity="1" stroke="none"/>
<circle clip-path="url(#clip052)" cx="343.698" cy="245.58" r="14" fill="#0000ff" fill-rule="evenodd" fill-opacity="1" stroke="none"/>
<circle clip-path="url(#clip052)" cx="411.874" cy="295.464" r="14" fill="#0000ff" fill-rule="evenodd" fill-opacity="1" stroke="none"/>
<circle clip-path="url(#clip052)" cx="275.521" cy="395.232" r="14" fill="#0000ff" fill-rule="evenodd" fill-opacity="1" stroke="none"/>
<path clip-path="url(#clip050)" d="M 0 0 M287.24 74.1766 Q289.757 74.7148 291.164 76.4162 Q292.587 78.1176 292.587 80.6175 Q292.587 84.4543 289.948 86.555 Q287.309 88.6557 282.448 88.6557 Q280.816 88.6557 279.08 88.3258 Q277.362 88.0133 275.521 87.371 L275.521 83.9856 Q276.98 84.8363 278.716 85.2703 Q280.452 85.7043 282.344 85.7043 Q285.643 85.7043 287.361 84.4022 Q289.098 83.1002 289.098 80.6175 Q289.098 78.3259 287.483 77.0412 Q285.886 75.7391 283.021 75.7391 L280 75.7391 L280 72.8572 L283.16 72.8572 Q285.747 72.8572 287.118 71.8329 Q288.49 70.7912 288.49 68.8468 Q288.49 66.8503 287.066 65.7912 Q285.66 64.7148 283.021 64.7148 Q281.58 64.7148 279.931 65.0273 Q278.282 65.3398 276.303 65.9996 L276.303 62.8746 Q278.299 62.319 280.035 62.0412 Q281.789 61.7635 283.334 61.7635 Q287.327 61.7635 289.653 63.5864 Q291.98 65.3919 291.98 68.4822 Q291.98 70.635 290.747 72.128 Q289.514 73.6037 287.24 74.1766 Z" fill="#000000" fill-rule="evenodd" fill-opacity="1" /><path clip-path="url(#clip050)" d="M 0 0 M355.399 115.172 L346.545 129.008 L355.399 129.008 L355.399 115.172 M354.479 112.116 L358.889 112.116 L358.889 129.008 L362.586 129.008 L362.586 131.925 L358.889 131.925 L358.889 138.036 L355.399 138.036 L355.399 131.925 L343.698 131.925 L343.698 128.54 L354.479 112.116 Z" fill="#000000" fill-rule="evenodd" fill-opacity="1" /><path clip-path="url(#clip050)" d="M 0 0 M208.439 211.884 L222.206 211.884 L222.206 214.836 L211.65 214.836 L211.65 221.19 Q212.414 220.929 213.178 220.808 Q213.942 220.669 214.706 220.669 Q219.046 220.669 221.581 223.047 Q224.116 225.426 224.116 229.488 Q224.116 233.672 221.511 235.999 Q218.907 238.308 214.168 238.308 Q212.536 238.308 210.834 238.03 Q209.15 237.752 207.345 237.197 L207.345 233.672 Q208.907 234.523 210.574 234.94 Q212.241 235.356 214.098 235.356 Q217.102 235.356 218.855 233.776 Q220.609 232.197 220.609 229.488 Q220.609 226.78 218.855 225.2 Q217.102 223.62 214.098 223.62 Q212.692 223.62 211.286 223.933 Q209.897 224.245 208.439 224.905 L208.439 211.884 Z" fill="#000000" fill-rule="evenodd" fill-opacity="1" /><path clip-path="url(#clip050)" d="M 0 0 M284.775 273.331 Q282.414 273.331 281.025 274.945 Q279.653 276.56 279.653 279.372 Q279.653 282.167 281.025 283.799 Q282.414 285.414 284.775 285.414 Q287.136 285.414 288.507 283.799 Q289.896 282.167 289.896 279.372 Q289.896 276.56 288.507 274.945 Q287.136 273.331 284.775 273.331 M291.736 262.341 L291.736 265.535 Q290.417 264.91 289.063 264.581 Q287.726 264.251 286.407 264.251 Q282.934 264.251 281.094 266.594 Q279.271 268.938 279.011 273.678 Q280.035 272.167 281.58 271.369 Q283.125 270.553 284.983 270.553 Q288.889 270.553 291.146 272.931 Q293.42 275.292 293.42 279.372 Q293.42 283.365 291.059 285.778 Q288.698 288.192 284.775 288.192 Q280.278 288.192 277.9 284.754 Q275.521 281.299 275.521 274.754 Q275.521 268.608 278.438 264.963 Q281.355 261.299 286.268 261.299 Q287.587 261.299 288.924 261.56 Q290.278 261.82 291.736 262.341 Z" fill="#000000" fill-rule="evenodd" fill-opacity="1" /><path clip-path="url(#clip050)" d="M 0 0 M412.377 384.505 L418.107 384.505 L418.107 364.73 L411.874 365.98 L411.874 362.786 L418.072 361.536 L421.579 361.536 L421.579 384.505 L427.308 384.505 L427.308 387.456 L412.377 387.456 L412.377 384.505 Z" fill="#000000" fill-rule="evenodd" fill-opacity="1" /><path clip-path="url(#clip050)" d="M 0 0 M431.718 384.505 L437.447 384.505 L437.447 364.73 L431.214 365.98 L431.214 362.786 L437.412 361.536 L440.919 361.536 L440.919 384.505 L446.648 384.505 L446.648 387.456 L431.718 387.456 L431.718 384.505 Z" fill="#000000" fill-rule="evenodd" fill-opacity="1" /><path clip-path="url(#clip050)" d="M 0 0 M71.4956 135.085 L77.2247 135.085 L77.2247 115.311 L70.9921 116.561 L70.9921 113.366 L77.19 112.116 L80.6969 112.116 L80.6969 135.085 L86.4261 135.085 L86.4261 138.036 L71.4956 138.036 L71.4956 135.085 Z" fill="#000000" fill-rule="evenodd" fill-opacity="1" /><path clip-path="url(#clip050)" d="M 0 0 M93.249 135.085 L105.488 135.085 L105.488 138.036 L89.0302 138.036 L89.0302 135.085 Q91.0267 133.019 94.4642 129.547 Q97.9191 126.057 98.8045 125.05 Q100.488 123.158 101.148 121.856 Q101.825 120.536 101.825 119.269 Q101.825 117.203 100.367 115.901 Q98.926 114.599 96.5996 114.599 Q94.9503 114.599 93.1101 115.172 Q91.2872 115.745 89.2038 116.908 L89.2038 113.366 Q91.3219 112.515 93.1621 112.081 Q95.0024 111.647 96.5302 111.647 Q100.558 111.647 102.954 113.661 Q105.35 115.675 105.35 119.043 Q105.35 120.64 104.742 122.081 Q104.152 123.505 102.572 125.449 Q102.138 125.953 99.8114 128.366 Q97.485 130.762 93.249 135.085 Z" fill="#000000" fill-rule="evenodd" fill-opacity="1" /><path clip-path="url(#clip050)" d="M 0 0 M139.672 85.2008 L145.401 85.2008 L145.401 65.4266 L139.169 66.6766 L139.169 63.4822 L145.366 62.2322 L148.873 62.2322 L148.873 85.2008 L154.602 85.2008 L154.602 88.1522 L139.672 88.1522 L139.672 85.2008 Z" fill="#000000" fill-rule="evenodd" fill-opacity="1" /><path clip-path="url(#clip050)" d="M 0 0 M169.029 74.1766 Q171.547 74.7148 172.953 76.4162 Q174.377 78.1176 174.377 80.6175 Q174.377 84.4543 171.738 86.555 Q169.099 88.6557 164.238 88.6557 Q162.606 88.6557 160.87 88.3258 Q159.151 88.0133 157.311 87.371 L157.311 83.9856 Q158.769 84.8363 160.505 85.2703 Q162.241 85.7043 164.134 85.7043 Q167.432 85.7043 169.151 84.4022 Q170.887 83.1002 170.887 80.6175 Q170.887 78.3259 169.273 77.0412 Q167.675 75.7391 164.811 75.7391 L161.79 75.7391 L161.79 72.8572 L164.95 72.8572 Q167.536 72.8572 168.908 71.8329 Q170.279 70.7912 170.279 68.8468 Q170.279 66.8503 168.856 65.7912 Q167.45 64.7148 164.811 64.7148 Q163.37 64.7148 161.72 65.0273 Q160.071 65.3398 158.092 65.9996 L158.092 62.8746 Q160.089 62.319 161.825 62.0412 Q163.578 61.7635 165.123 61.7635 Q169.116 61.7635 171.443 63.5864 Q173.769 65.3919 173.769 68.4822 Q173.769 70.635 172.536 72.128 Q171.304 73.6037 169.029 74.1766 Z" fill="#000000" fill-rule="evenodd" fill-opacity="1" /><path clip-path="url(#clip050)" d="M 0 0 M207.848 135.085 L213.577 135.085 L213.577 115.311 L207.345 116.561 L207.345 113.366 L213.543 112.116 L217.05 112.116 L217.05 135.085 L222.779 135.085 L222.779 138.036 L207.848 138.036 L207.848 135.085 Z" fill="#000000" fill-rule="evenodd" fill-opacity="1" /><path clip-path="url(#clip050)" d="M 0 0 M236.216 115.172 L227.362 129.008 L236.216 129.008 L236.216 115.172 M235.296 112.116 L239.706 112.116 L239.706 129.008 L243.404 129.008 L243.404 131.925 L239.706 131.925 L239.706 138.036 L236.216 138.036 L236.216 131.925 L224.515 131.925 L224.515 128.54 L235.296 112.116 Z" fill="#000000" fill-rule="evenodd" fill-opacity="1" /><path clip-path="url(#clip050)" d="M 0 0 M71.4956 234.853 L77.2247 234.853 L77.2247 215.079 L70.9921 216.329 L70.9921 213.134 L77.19 211.884 L80.6969 211.884 L80.6969 234.853 L86.4261 234.853 L86.4261 237.804 L71.4956 237.804 L71.4956 234.853 Z" fill="#000000" fill-rule="evenodd" fill-opacity="1" /><path clip-path="url(#clip050)" d="M 0 0 M90.2629 211.884 L104.03 211.884 L104.03 214.836 L93.4746 214.836 L93.4746 221.19 Q94.2385 220.929 95.0024 220.808 Q95.7663 220.669 96.5302 220.669 Q100.87 220.669 103.405 223.047 Q105.94 225.426 105.94 229.488 Q105.94 233.672 103.336 235.999 Q100.732 238.308 95.992 238.308 Q94.3601 238.308 92.6587 238.03 Q90.9747 237.752 89.1691 237.197 L89.1691 233.672 Q90.7316 234.523 92.3983 234.94 Q94.0649 235.356 95.9225 235.356 Q98.926 235.356 100.679 233.776 Q102.433 232.197 102.433 229.488 Q102.433 226.78 100.679 225.2 Q98.926 223.62 95.9225 223.62 Q94.5163 223.62 93.1101 223.933 Q91.7212 224.245 90.2629 224.905 L90.2629 211.884 Z" fill="#000000" fill-rule="evenodd" fill-opacity="1" /><path clip-path="url(#clip050)" d="M 0 0 M412.377 85.2008 L418.107 85.2008 L418.107 65.4266 L411.874 66.6766 L411.874 63.4822 L418.072 62.2322 L421.579 62.2322 L421.579 85.2008 L427.308 85.2008 L427.308 88.1522 L412.377 88.1522 L412.377 85.2008 Z" fill="#000000" fill-rule="evenodd" fill-opacity="1" /><path clip-path="url(#clip050)" d="M 0 0 M430.225 62.2322 L446.891 62.2322 L446.891 63.7253 L437.482 88.1522 L433.818 88.1522 L442.672 65.1836 L430.225 65.1836 L430.225 62.2322 Z" fill="#000000" fill-rule="evenodd" fill-opacity="1" /><path clip-path="url(#clip050)" d="M 0 0 M344.201 234.853 L349.93 234.853 L349.93 215.079 L343.698 216.329 L343.698 213.134 L349.896 211.884 L353.402 211.884 L353.402 234.853 L359.132 234.853 L359.132 237.804 L344.201 237.804 L344.201 234.853 Z" fill="#000000" fill-rule="evenodd" fill-opacity="1" /><path clip-path="url(#clip050)" d="M 0 0 M363.038 237.266 L363.038 234.072 Q364.357 234.697 365.711 235.026 Q367.066 235.356 368.368 235.356 Q371.84 235.356 373.663 233.03 Q375.503 230.686 375.763 225.929 Q374.756 227.422 373.211 228.221 Q371.666 229.019 369.791 229.019 Q365.902 229.019 363.628 226.676 Q361.371 224.315 361.371 220.235 Q361.371 216.242 363.732 213.829 Q366.093 211.415 370.017 211.415 Q374.513 211.415 376.875 214.87 Q379.253 218.308 379.253 224.87 Q379.253 230.999 376.336 234.662 Q373.437 238.308 368.524 238.308 Q367.204 238.308 365.85 238.047 Q364.496 237.787 363.038 237.266 M370.017 226.276 Q372.378 226.276 373.75 224.662 Q375.138 223.047 375.138 220.235 Q375.138 217.44 373.75 215.825 Q372.378 214.193 370.017 214.193 Q367.656 214.193 366.267 215.825 Q364.895 217.44 364.895 220.235 Q364.895 223.047 366.267 224.662 Q367.656 226.276 370.017 226.276 Z" fill="#000000" fill-rule="evenodd" fill-opacity="1" /><path clip-path="url(#clip050)" d="M 0 0 M416.093 284.737 L428.332 284.737 L428.332 287.688 L411.874 287.688 L411.874 284.737 Q413.871 282.671 417.308 279.199 Q420.763 275.709 421.648 274.702 Q423.332 272.81 423.992 271.508 Q424.669 270.188 424.669 268.921 Q424.669 266.855 423.211 265.553 Q421.77 264.251 419.443 264.251 Q417.794 264.251 415.954 264.824 Q414.131 265.397 412.048 266.56 L412.048 263.018 Q414.166 262.167 416.006 261.733 Q417.846 261.299 419.374 261.299 Q423.402 261.299 425.798 263.313 Q428.193 265.327 428.193 268.695 Q428.193 270.292 427.586 271.733 Q426.995 273.157 425.416 275.101 Q424.982 275.605 422.655 278.018 Q420.329 280.414 416.093 284.737 Z" fill="#000000" fill-rule="evenodd" fill-opacity="1" /><path clip-path="url(#clip050)" d="M 0 0 M439.634 264.077 Q436.926 264.077 435.554 266.751 Q434.2 269.407 434.2 274.754 Q434.2 280.084 435.554 282.758 Q436.926 285.414 439.634 285.414 Q442.36 285.414 443.714 282.758 Q445.086 280.084 445.086 274.754 Q445.086 269.407 443.714 266.751 Q442.36 264.077 439.634 264.077 M439.634 261.299 Q443.992 261.299 446.284 264.754 Q448.593 268.192 448.593 274.754 Q448.593 281.299 446.284 284.754 Q443.992 288.192 439.634 288.192 Q435.277 288.192 432.968 284.754 Q430.676 281.299 430.676 274.754 Q430.676 268.192 432.968 264.754 Q435.277 261.299 439.634 261.299 Z" fill="#000000" fill-rule="evenodd" fill-opacity="1" /><path clip-path="url(#clip050)" d="M 0 0 M279.74 384.505 L291.98 384.505 L291.98 387.456 L275.521 387.456 L275.521 384.505 Q277.518 382.439 280.955 378.967 Q284.41 375.477 285.296 374.47 Q286.98 372.578 287.639 371.276 Q288.316 369.956 288.316 368.689 Q288.316 366.623 286.858 365.321 Q285.417 364.019 283.091 364.019 Q281.441 364.019 279.601 364.592 Q277.778 365.165 275.695 366.328 L275.695 362.786 Q277.813 361.935 279.653 361.501 Q281.493 361.067 283.021 361.067 Q287.049 361.067 289.445 363.081 Q291.841 365.095 291.841 368.463 Q291.841 370.06 291.233 371.501 Q290.643 372.925 289.063 374.869 Q288.629 375.373 286.302 377.786 Q283.976 380.182 279.74 384.505 Z" fill="#000000" fill-rule="evenodd" fill-opacity="1" /><path clip-path="url(#clip050)" d="M 0 0 M296.389 384.505 L302.118 384.505 L302.118 364.73 L295.886 365.98 L295.886 362.786 L302.084 361.536 L305.591 361.536 L305.591 384.505 L311.32 384.505 L311.32 387.456 L296.389 387.456 L296.389 384.505 Z" fill="#000000" fill-rule="evenodd" fill-opacity="1" /><circle clip-path="url(#clip052)" cx="752.756" cy="844.188" r="14" fill="#0000ff" fill-rule="evenodd" fill-opacity="1" stroke="none"/>
<circle clip-path="url(#clip052)" cx="548.227" cy="694.536" r="14" fill="#0000ff" fill-rule="evenodd" fill-opacity="1" stroke="none"/>
<circle clip-path="url(#clip052)" cx="616.403" cy="744.42" r="14" fill="#0000ff" fill-rule="evenodd" fill-opacity="1" stroke="none"/>
<circle clip-path="url(#clip052)" cx="480.05" cy="844.188" r="14" fill="#0000ff" fill-rule="evenodd" fill-opacity="1" stroke="none"/>
<circle clip-path="url(#clip052)" cx="548.227" cy="894.072" r="14" fill="#0000ff" fill-rule="evenodd" fill-opacity="1" stroke="none"/>
<circle clip-path="url(#clip052)" cx="548.227" cy="594.768" r="14" fill="#0000ff" fill-rule="evenodd" fill-opacity="1" stroke="none"/>
<circle clip-path="url(#clip052)" cx="480.05" cy="744.42" r="14" fill="#0000ff" fill-rule="evenodd" fill-opacity="1" stroke="none"/>
<circle clip-path="url(#clip052)" cx="752.756" cy="744.42" r="14" fill="#0000ff" fill-rule="evenodd" fill-opacity="1" stroke="none"/>
<circle clip-path="url(#clip052)" cx="616.403" cy="844.188" r="14" fill="#0000ff" fill-rule="evenodd" fill-opacity="1" stroke="none"/>
<circle clip-path="url(#clip052)" cx="684.58" cy="894.072" r="14" fill="#0000ff" fill-rule="evenodd" fill-opacity="1" stroke="none"/>
<path clip-path="url(#clip050)" d="M 0 0 M753.259 833.46 L758.989 833.46 L758.989 813.686 L752.756 814.936 L752.756 811.742 L758.954 810.492 L762.461 810.492 L762.461 833.46 L768.19 833.46 L768.19 836.412 L753.259 836.412 L753.259 833.46 Z" fill="#000000" fill-rule="evenodd" fill-opacity="1" /><path clip-path="url(#clip050)" d="M 0 0 M548.227 660.84 L564.893 660.84 L564.893 662.333 L555.484 686.76 L551.821 686.76 L560.675 663.791 L548.227 663.791 L548.227 660.84 Z" fill="#000000" fill-rule="evenodd" fill-opacity="1" /><path clip-path="url(#clip050)" d="M 0 0 M625.292 724.335 Q622.792 724.335 621.351 725.672 Q619.927 727.008 619.927 729.352 Q619.927 731.696 621.351 733.033 Q622.792 734.37 625.292 734.37 Q627.792 734.37 629.233 733.033 Q630.674 731.679 630.674 729.352 Q630.674 727.008 629.233 725.672 Q627.809 724.335 625.292 724.335 M621.785 722.842 Q619.528 722.286 618.261 720.741 Q617.011 719.196 617.011 716.974 Q617.011 713.866 619.216 712.061 Q621.438 710.255 625.292 710.255 Q629.163 710.255 631.368 712.061 Q633.573 713.866 633.573 716.974 Q633.573 719.196 632.306 720.741 Q631.056 722.286 628.816 722.842 Q631.351 723.432 632.757 725.151 Q634.181 726.87 634.181 729.352 Q634.181 733.12 631.872 735.133 Q629.58 737.147 625.292 737.147 Q621.004 737.147 618.695 735.133 Q616.403 733.12 616.403 729.352 Q616.403 726.87 617.827 725.151 Q619.25 723.432 621.785 722.842 M620.5 717.304 Q620.5 719.318 621.75 720.446 Q623.018 721.574 625.292 721.574 Q627.549 721.574 628.816 720.446 Q630.101 719.318 630.101 717.304 Q630.101 715.29 628.816 714.161 Q627.549 713.033 625.292 713.033 Q623.018 713.033 621.75 714.161 Q620.5 715.29 620.5 717.304 Z" fill="#000000" fill-rule="evenodd" fill-opacity="1" /><path clip-path="url(#clip050)" d="M 0 0 M481.717 835.874 L481.717 832.679 Q483.036 833.304 484.391 833.634 Q485.745 833.964 487.047 833.964 Q490.519 833.964 492.342 831.638 Q494.182 829.294 494.443 824.537 Q493.436 826.03 491.891 826.829 Q490.345 827.627 488.47 827.627 Q484.582 827.627 482.307 825.283 Q480.05 822.922 480.05 818.842 Q480.05 814.849 482.411 812.436 Q484.773 810.023 488.696 810.023 Q493.193 810.023 495.554 813.478 Q497.932 816.915 497.932 823.478 Q497.932 829.606 495.016 833.269 Q492.116 836.915 487.203 836.915 Q485.884 836.915 484.53 836.655 Q483.175 836.394 481.717 835.874 M488.696 824.884 Q491.057 824.884 492.429 823.27 Q493.818 821.655 493.818 818.842 Q493.818 816.047 492.429 814.433 Q491.057 812.801 488.696 812.801 Q486.335 812.801 484.946 814.433 Q483.575 816.047 483.575 818.842 Q483.575 821.655 484.946 823.27 Q486.335 824.884 488.696 824.884 Z" fill="#000000" fill-rule="evenodd" fill-opacity="1" /><path clip-path="url(#clip050)" d="M 0 0 M548.73 883.344 L554.459 883.344 L554.459 863.57 L548.227 864.82 L548.227 861.626 L554.425 860.376 L557.932 860.376 L557.932 883.344 L563.661 883.344 L563.661 886.296 L548.73 886.296 L548.73 883.344 Z" fill="#000000" fill-rule="evenodd" fill-opacity="1" /><path clip-path="url(#clip050)" d="M 0 0 M574.963 862.685 Q572.254 862.685 570.883 865.358 Q569.529 868.015 569.529 873.362 Q569.529 878.692 570.883 881.365 Q572.254 884.021 574.963 884.021 Q577.688 884.021 579.043 881.365 Q580.414 878.692 580.414 873.362 Q580.414 868.015 579.043 865.358 Q577.688 862.685 574.963 862.685 M574.963 859.907 Q579.32 859.907 581.612 863.362 Q583.921 866.799 583.921 873.362 Q583.921 879.907 581.612 883.362 Q579.32 886.799 574.963 886.799 Q570.605 886.799 568.296 883.362 Q566.004 879.907 566.004 873.362 Q566.004 866.799 568.296 863.362 Q570.605 859.907 574.963 859.907 Z" fill="#000000" fill-rule="evenodd" fill-opacity="1" /><path clip-path="url(#clip050)" d="M 0 0 M548.73 584.041 L554.459 584.041 L554.459 564.266 L548.227 565.516 L548.227 562.322 L554.425 561.072 L557.932 561.072 L557.932 584.041 L563.661 584.041 L563.661 586.992 L548.73 586.992 L548.73 584.041 Z" fill="#000000" fill-rule="evenodd" fill-opacity="1" /><path clip-path="url(#clip050)" d="M 0 0 M575.397 572.634 Q573.036 572.634 571.647 574.249 Q570.275 575.864 570.275 578.676 Q570.275 581.471 571.647 583.103 Q573.036 584.718 575.397 584.718 Q577.758 584.718 579.129 583.103 Q580.518 581.471 580.518 578.676 Q580.518 575.864 579.129 574.249 Q577.758 572.634 575.397 572.634 M582.359 561.645 L582.359 564.839 Q581.039 564.214 579.685 563.884 Q578.348 563.555 577.029 563.555 Q573.556 563.555 571.716 565.898 Q569.893 568.242 569.633 572.982 Q570.657 571.471 572.202 570.673 Q573.747 569.857 575.605 569.857 Q579.511 569.857 581.768 572.235 Q584.043 574.596 584.043 578.676 Q584.043 582.669 581.681 585.082 Q579.32 587.495 575.397 587.495 Q570.9 587.495 568.522 584.058 Q566.143 580.603 566.143 574.058 Q566.143 567.912 569.06 564.266 Q571.977 560.603 576.89 560.603 Q578.209 560.603 579.546 560.864 Q580.9 561.124 582.359 561.645 Z" fill="#000000" fill-rule="evenodd" fill-opacity="1" /><path clip-path="url(#clip050)" d="M 0 0 M480.554 733.692 L486.283 733.692 L486.283 713.918 L480.05 715.168 L480.05 711.974 L486.248 710.724 L489.755 710.724 L489.755 733.692 L495.484 733.692 L495.484 736.644 L480.554 736.644 L480.554 733.692 Z" fill="#000000" fill-rule="evenodd" fill-opacity="1" /><path clip-path="url(#clip050)" d="M 0 0 M506.786 724.335 Q504.286 724.335 502.845 725.672 Q501.422 727.008 501.422 729.352 Q501.422 731.696 502.845 733.033 Q504.286 734.37 506.786 734.37 Q509.286 734.37 510.727 733.033 Q512.168 731.679 512.168 729.352 Q512.168 727.008 510.727 725.672 Q509.304 724.335 506.786 724.335 M503.279 722.842 Q501.023 722.286 499.755 720.741 Q498.505 719.196 498.505 716.974 Q498.505 713.866 500.71 712.061 Q502.932 710.255 506.786 710.255 Q510.658 710.255 512.863 712.061 Q515.068 713.866 515.068 716.974 Q515.068 719.196 513.8 720.741 Q512.55 722.286 510.311 722.842 Q512.845 723.432 514.252 725.151 Q515.675 726.87 515.675 729.352 Q515.675 733.12 513.366 735.133 Q511.075 737.147 506.786 737.147 Q502.498 737.147 500.189 735.133 Q497.898 733.12 497.898 729.352 Q497.898 726.87 499.321 725.151 Q500.745 723.432 503.279 722.842 M501.995 717.304 Q501.995 719.318 503.245 720.446 Q504.512 721.574 506.786 721.574 Q509.043 721.574 510.311 720.446 Q511.595 719.318 511.595 717.304 Q511.595 715.29 510.311 714.161 Q509.043 713.033 506.786 713.033 Q504.512 713.033 503.245 714.161 Q501.995 715.29 501.995 717.304 Z" fill="#000000" fill-rule="evenodd" fill-opacity="1" /><path clip-path="url(#clip050)" d="M 0 0 M756.975 733.692 L769.214 733.692 L769.214 736.644 L752.756 736.644 L752.756 733.692 Q754.752 731.627 758.19 728.154 Q761.645 724.665 762.53 723.658 Q764.214 721.765 764.874 720.463 Q765.551 719.144 765.551 717.877 Q765.551 715.811 764.093 714.509 Q762.652 713.206 760.325 713.206 Q758.676 713.206 756.836 713.779 Q755.013 714.352 752.93 715.516 L752.93 711.974 Q755.048 711.123 756.888 710.689 Q758.728 710.255 760.256 710.255 Q764.284 710.255 766.679 712.269 Q769.075 714.283 769.075 717.651 Q769.075 719.248 768.468 720.689 Q767.877 722.113 766.297 724.057 Q765.863 724.561 763.537 726.974 Q761.211 729.37 756.975 733.692 Z" fill="#000000" fill-rule="evenodd" fill-opacity="1" /><path clip-path="url(#clip050)" d="M 0 0 M776.037 733.692 L788.277 733.692 L788.277 736.644 L771.818 736.644 L771.818 733.692 Q773.815 731.627 777.252 728.154 Q780.707 724.665 781.593 723.658 Q783.277 721.765 783.936 720.463 Q784.613 719.144 784.613 717.877 Q784.613 715.811 783.155 714.509 Q781.714 713.206 779.388 713.206 Q777.738 713.206 775.898 713.779 Q774.075 714.352 771.992 715.516 L771.992 711.974 Q774.11 711.123 775.95 710.689 Q777.79 710.255 779.318 710.255 Q783.346 710.255 785.742 712.269 Q788.138 714.283 788.138 717.651 Q788.138 719.248 787.53 720.689 Q786.94 722.113 785.36 724.057 Q784.926 724.561 782.599 726.974 Q780.273 729.37 776.037 733.692 Z" fill="#000000" fill-rule="evenodd" fill-opacity="1" /><path clip-path="url(#clip050)" d="M 0 0 M620.622 833.46 L632.861 833.46 L632.861 836.412 L616.403 836.412 L616.403 833.46 Q618.4 831.394 621.837 827.922 Q625.292 824.433 626.177 823.426 Q627.861 821.533 628.521 820.231 Q629.198 818.912 629.198 817.645 Q629.198 815.579 627.74 814.277 Q626.299 812.974 623.973 812.974 Q622.323 812.974 620.483 813.547 Q618.66 814.12 616.577 815.283 L616.577 811.742 Q618.695 810.891 620.535 810.457 Q622.375 810.023 623.903 810.023 Q627.931 810.023 630.327 812.037 Q632.723 814.051 632.723 817.419 Q632.723 819.016 632.115 820.457 Q631.525 821.881 629.945 823.825 Q629.511 824.329 627.184 826.742 Q624.858 829.138 620.622 833.46 Z" fill="#000000" fill-rule="evenodd" fill-opacity="1" /><path clip-path="url(#clip050)" d="M 0 0 M647.288 822.436 Q649.806 822.974 651.212 824.676 Q652.636 826.377 652.636 828.877 Q652.636 832.714 649.997 834.815 Q647.358 836.915 642.497 836.915 Q640.865 836.915 639.129 836.585 Q637.41 836.273 635.57 835.631 L635.57 832.245 Q637.028 833.096 638.764 833.53 Q640.5 833.964 642.393 833.964 Q645.691 833.964 647.41 832.662 Q649.146 831.36 649.146 828.877 Q649.146 826.585 647.531 825.301 Q645.934 823.999 643.07 823.999 L640.049 823.999 L640.049 821.117 L643.209 821.117 Q645.795 821.117 647.167 820.092 Q648.538 819.051 648.538 817.106 Q648.538 815.11 647.115 814.051 Q645.709 812.974 643.07 812.974 Q641.629 812.974 639.979 813.287 Q638.33 813.599 636.351 814.259 L636.351 811.134 Q638.347 810.579 640.084 810.301 Q641.837 810.023 643.382 810.023 Q647.375 810.023 649.702 811.846 Q652.028 813.652 652.028 816.742 Q652.028 818.895 650.795 820.388 Q649.563 821.863 647.288 822.436 Z" fill="#000000" fill-rule="evenodd" fill-opacity="1" /><path clip-path="url(#clip050)" d="M 0 0 M688.798 883.344 L701.038 883.344 L701.038 886.296 L684.58 886.296 L684.58 883.344 Q686.576 881.278 690.014 877.806 Q693.468 874.317 694.354 873.31 Q696.038 871.417 696.698 870.115 Q697.375 868.796 697.375 867.529 Q697.375 865.463 695.916 864.16 Q694.475 862.858 692.149 862.858 Q690.5 862.858 688.659 863.431 Q686.836 864.004 684.753 865.167 L684.753 861.626 Q686.871 860.775 688.711 860.341 Q690.552 859.907 692.079 859.907 Q696.107 859.907 698.503 861.921 Q700.899 863.935 700.899 867.303 Q700.899 868.9 700.291 870.341 Q699.701 871.765 698.121 873.709 Q697.687 874.213 695.361 876.626 Q693.034 879.022 688.798 883.344 Z" fill="#000000" fill-rule="evenodd" fill-opacity="1" /><path clip-path="url(#clip050)" d="M 0 0 M714.475 863.431 L705.621 877.268 L714.475 877.268 L714.475 863.431 M713.555 860.376 L717.965 860.376 L717.965 877.268 L721.663 877.268 L721.663 880.185 L717.965 880.185 L717.965 886.296 L714.475 886.296 L714.475 880.185 L702.774 880.185 L702.774 876.799 L713.555 860.376 Z" fill="#000000" fill-rule="evenodd" fill-opacity="1" /><circle clip-path="url(#clip052)" cx="752.756" cy="245.58" r="14" fill="#0000ff" fill-rule="evenodd" fill-opacity="1" stroke="none"/>
<circle clip-path="url(#clip052)" cx="684.58" cy="395.232" r="14" fill="#0000ff" fill-rule="evenodd" fill-opacity="1" stroke="none"/>
<circle clip-path="url(#clip052)" cx="752.756" cy="445.116" r="14" fill="#0000ff" fill-rule="evenodd" fill-opacity="1" stroke="none"/>
<circle clip-path="url(#clip052)" cx="616.403" cy="544.884" r="14" fill="#0000ff" fill-rule="evenodd" fill-opacity="1" stroke="none"/>
<circle clip-path="url(#clip052)" cx="684.58" cy="594.768" r="14" fill="#0000ff" fill-rule="evenodd" fill-opacity="1" stroke="none"/>
<circle clip-path="url(#clip052)" cx="548.227" cy="95.9282" r="14" fill="#0000ff" fill-rule="evenodd" fill-opacity="1" stroke="none"/>
<circle clip-path="url(#clip052)" cx="616.403" cy="145.812" r="14" fill="#0000ff" fill-rule="evenodd" fill-opacity="1" stroke="none"/>
<circle clip-path="url(#clip052)" cx="480.05" cy="245.58" r="14" fill="#0000ff" fill-rule="evenodd" fill-opacity="1" stroke="none"/>
<circle clip-path="url(#clip052)" cx="548.227" cy="295.464" r="14" fill="#0000ff" fill-rule="evenodd" fill-opacity="1" stroke="none"/>
<circle clip-path="url(#clip052)" cx="480.05" cy="445.116" r="14" fill="#0000ff" fill-rule="evenodd" fill-opacity="1" stroke="none"/>
<circle clip-path="url(#clip052)" cx="548.227" cy="395.232" r="14" fill="#0000ff" fill-rule="evenodd" fill-opacity="1" stroke="none"/>
<circle clip-path="url(#clip052)" cx="616.403" cy="445.116" r="14" fill="#0000ff" fill-rule="evenodd" fill-opacity="1" stroke="none"/>
<circle clip-path="url(#clip052)" cx="480.05" cy="544.884" r="14" fill="#0000ff" fill-rule="evenodd" fill-opacity="1" stroke="none"/>
<circle clip-path="url(#clip052)" cx="480.05" cy="145.812" r="14" fill="#0000ff" fill-rule="evenodd" fill-opacity="1" stroke="none"/>
<circle clip-path="url(#clip052)" cx="752.756" cy="544.884" r="14" fill="#0000ff" fill-rule="evenodd" fill-opacity="1" stroke="none"/>
<circle clip-path="url(#clip052)" cx="684.58" cy="694.536" r="14" fill="#0000ff" fill-rule="evenodd" fill-opacity="1" stroke="none"/>
<circle clip-path="url(#clip052)" cx="752.756" cy="145.812" r="14" fill="#0000ff" fill-rule="evenodd" fill-opacity="1" stroke="none"/>
<circle clip-path="url(#clip052)" cx="616.403" cy="245.58" r="14" fill="#0000ff" fill-rule="evenodd" fill-opacity="1" stroke="none"/>
<circle clip-path="url(#clip052)" cx="684.58" cy="295.464" r="14" fill="#0000ff" fill-rule="evenodd" fill-opacity="1" stroke="none"/>
<path clip-path="url(#clip050)" d="M 0 0 M753.259 234.853 L758.989 234.853 L758.989 215.079 L752.756 216.329 L752.756 213.134 L758.954 211.884 L762.461 211.884 L762.461 234.853 L768.19 234.853 L768.19 237.804 L753.259 237.804 L753.259 234.853 Z" fill="#000000" fill-rule="evenodd" fill-opacity="1" /><path clip-path="url(#clip050)" d="M 0 0 M696.298 373.48 Q698.816 374.019 700.222 375.72 Q701.645 377.421 701.645 379.921 Q701.645 383.758 699.007 385.859 Q696.368 387.96 691.507 387.96 Q689.875 387.96 688.139 387.63 Q686.42 387.317 684.58 386.675 L684.58 383.289 Q686.038 384.14 687.774 384.574 Q689.51 385.008 691.402 385.008 Q694.701 385.008 696.42 383.706 Q698.156 382.404 698.156 379.921 Q698.156 377.63 696.541 376.345 Q694.944 375.043 692.079 375.043 L689.059 375.043 L689.059 372.161 L692.218 372.161 Q694.805 372.161 696.177 371.137 Q697.548 370.095 697.548 368.151 Q697.548 366.154 696.125 365.095 Q694.718 364.019 692.079 364.019 Q690.639 364.019 688.989 364.331 Q687.34 364.644 685.361 365.303 L685.361 362.178 Q687.357 361.623 689.093 361.345 Q690.847 361.067 692.392 361.067 Q696.385 361.067 698.711 362.89 Q701.038 364.696 701.038 367.786 Q701.038 369.939 699.805 371.432 Q698.573 372.908 696.298 373.48 Z" fill="#000000" fill-rule="evenodd" fill-opacity="1" /><path clip-path="url(#clip050)" d="M 0 0 M764.457 414.476 L755.603 428.312 L764.457 428.312 L764.457 414.476 M763.537 411.42 L767.947 411.42 L767.947 428.312 L771.645 428.312 L771.645 431.229 L767.947 431.229 L767.947 437.34 L764.457 437.34 L764.457 431.229 L752.756 431.229 L752.756 427.844 L763.537 411.42 Z" fill="#000000" fill-rule="evenodd" fill-opacity="1" /><path clip-path="url(#clip050)" d="M 0 0 M617.497 511.188 L631.264 511.188 L631.264 514.139 L620.709 514.139 L620.709 520.493 Q621.473 520.233 622.236 520.112 Q623 519.973 623.764 519.973 Q628.104 519.973 630.639 522.351 Q633.174 524.73 633.174 528.792 Q633.174 532.976 630.57 535.302 Q627.966 537.611 623.226 537.611 Q621.594 537.611 619.893 537.334 Q618.209 537.056 616.403 536.5 L616.403 532.976 Q617.966 533.827 619.632 534.243 Q621.299 534.66 623.157 534.66 Q626.16 534.66 627.914 533.08 Q629.667 531.5 629.667 528.792 Q629.667 526.084 627.914 524.504 Q626.16 522.924 623.157 522.924 Q621.75 522.924 620.344 523.237 Q618.955 523.549 617.497 524.209 L617.497 511.188 Z" fill="#000000" fill-rule="evenodd" fill-opacity="1" /><path clip-path="url(#clip050)" d="M 0 0 M693.833 572.634 Q691.472 572.634 690.083 574.249 Q688.711 575.864 688.711 578.676 Q688.711 581.471 690.083 583.103 Q691.472 584.718 693.833 584.718 Q696.194 584.718 697.566 583.103 Q698.954 581.471 698.954 578.676 Q698.954 575.864 697.566 574.249 Q696.194 572.634 693.833 572.634 M700.795 561.645 L700.795 564.839 Q699.475 564.214 698.121 563.884 Q696.784 563.555 695.465 563.555 Q691.993 563.555 690.152 565.898 Q688.33 568.242 688.069 572.982 Q689.093 571.471 690.639 570.673 Q692.184 569.857 694.041 569.857 Q697.948 569.857 700.204 572.235 Q702.479 574.596 702.479 578.676 Q702.479 582.669 700.118 585.082 Q697.757 587.495 693.833 587.495 Q689.336 587.495 686.958 584.058 Q684.58 580.603 684.58 574.058 Q684.58 567.912 687.496 564.266 Q690.413 560.603 695.326 560.603 Q696.645 560.603 697.982 560.864 Q699.336 561.124 700.795 561.645 Z" fill="#000000" fill-rule="evenodd" fill-opacity="1" /><path clip-path="url(#clip050)" d="M 0 0 M548.227 62.2322 L564.893 62.2322 L564.893 63.7253 L555.484 88.1522 L551.821 88.1522 L560.675 65.1836 L548.227 65.1836 L548.227 62.2322 Z" fill="#000000" fill-rule="evenodd" fill-opacity="1" /><path clip-path="url(#clip050)" d="M 0 0 M625.292 125.727 Q622.792 125.727 621.351 127.064 Q619.927 128.401 619.927 130.745 Q619.927 133.088 621.351 134.425 Q622.792 135.762 625.292 135.762 Q627.792 135.762 629.233 134.425 Q630.674 133.071 630.674 130.745 Q630.674 128.401 629.233 127.064 Q627.809 125.727 625.292 125.727 M621.785 124.234 Q619.528 123.679 618.261 122.134 Q617.011 120.588 617.011 118.366 Q617.011 115.259 619.216 113.453 Q621.438 111.647 625.292 111.647 Q629.163 111.647 631.368 113.453 Q633.573 115.259 633.573 118.366 Q633.573 120.588 632.306 122.134 Q631.056 123.679 628.816 124.234 Q631.351 124.824 632.757 126.543 Q634.181 128.262 634.181 130.745 Q634.181 134.512 631.872 136.526 Q629.58 138.54 625.292 138.54 Q621.004 138.54 618.695 136.526 Q616.403 134.512 616.403 130.745 Q616.403 128.262 617.827 126.543 Q619.25 124.824 621.785 124.234 M620.5 118.696 Q620.5 120.71 621.75 121.838 Q623.018 122.967 625.292 122.967 Q627.549 122.967 628.816 121.838 Q630.101 120.71 630.101 118.696 Q630.101 116.682 628.816 115.554 Q627.549 114.425 625.292 114.425 Q623.018 114.425 621.75 115.554 Q620.5 116.682 620.5 118.696 Z" fill="#000000" fill-rule="evenodd" fill-opacity="1" /><path clip-path="url(#clip050)" d="M 0 0 M481.717 237.266 L481.717 234.072 Q483.036 234.697 484.391 235.026 Q485.745 235.356 487.047 235.356 Q490.519 235.356 492.342 233.03 Q494.182 230.686 494.443 225.929 Q493.436 227.422 491.891 228.221 Q490.345 229.019 488.47 229.019 Q484.582 229.019 482.307 226.676 Q480.05 224.315 480.05 220.235 Q480.05 216.242 482.411 213.829 Q484.773 211.415 488.696 211.415 Q493.193 211.415 495.554 214.87 Q497.932 218.308 497.932 224.87 Q497.932 230.999 495.016 234.662 Q492.116 238.308 487.203 238.308 Q485.884 238.308 484.53 238.047 Q483.175 237.787 481.717 237.266 M488.696 226.276 Q491.057 226.276 492.429 224.662 Q493.818 223.047 493.818 220.235 Q493.818 217.44 492.429 215.825 Q491.057 214.193 488.696 214.193 Q486.335 214.193 484.946 215.825 Q483.575 217.44 483.575 220.235 Q483.575 223.047 484.946 224.662 Q486.335 226.276 488.696 226.276 Z" fill="#000000" fill-rule="evenodd" fill-opacity="1" /><path clip-path="url(#clip050)" d="M 0 0 M548.73 284.737 L554.459 284.737 L554.459 264.963 L548.227 266.213 L548.227 263.018 L554.425 261.768 L557.932 261.768 L557.932 284.737 L563.661 284.737 L563.661 287.688 L548.73 287.688 L548.73 284.737 Z" fill="#000000" fill-rule="evenodd" fill-opacity="1" /><path clip-path="url(#clip050)" d="M 0 0 M574.963 264.077 Q572.254 264.077 570.883 266.751 Q569.529 269.407 569.529 274.754 Q569.529 280.084 570.883 282.758 Q572.254 285.414 574.963 285.414 Q577.688 285.414 579.043 282.758 Q580.414 280.084 580.414 274.754 Q580.414 269.407 579.043 266.751 Q577.688 264.077 574.963 264.077 M574.963 261.299 Q579.32 261.299 581.612 264.754 Q583.921 268.192 583.921 274.754 Q583.921 281.299 581.612 284.754 Q579.32 288.192 574.963 288.192 Q570.605 288.192 568.296 284.754 Q566.004 281.299 566.004 274.754 Q566.004 268.192 568.296 264.754 Q570.605 261.299 574.963 261.299 Z" fill="#000000" fill-rule="evenodd" fill-opacity="1" /><path clip-path="url(#clip050)" d="M 0 0 M480.554 434.389 L486.283 434.389 L486.283 414.614 L480.05 415.864 L480.05 412.67 L486.248 411.42 L489.755 411.42 L489.755 434.389 L495.484 434.389 L495.484 437.34 L480.554 437.34 L480.554 434.389 Z" fill="#000000" fill-rule="evenodd" fill-opacity="1" /><path clip-path="url(#clip050)" d="M 0 0 M502.307 434.389 L514.547 434.389 L514.547 437.34 L498.088 437.34 L498.088 434.389 Q500.085 432.323 503.522 428.85 Q506.977 425.361 507.863 424.354 Q509.547 422.462 510.206 421.16 Q510.884 419.84 510.884 418.573 Q510.884 416.507 509.425 415.205 Q507.984 413.903 505.658 413.903 Q504.009 413.903 502.168 414.476 Q500.345 415.048 498.262 416.212 L498.262 412.67 Q500.38 411.819 502.22 411.385 Q504.061 410.951 505.588 410.951 Q509.616 410.951 512.012 412.965 Q514.408 414.979 514.408 418.347 Q514.408 419.944 513.8 421.385 Q513.21 422.809 511.63 424.753 Q511.196 425.257 508.87 427.67 Q506.543 430.066 502.307 434.389 Z" fill="#000000" fill-rule="evenodd" fill-opacity="1" /><path clip-path="url(#clip050)" d="M 0 0 M548.73 384.505 L554.459 384.505 L554.459 364.73 L548.227 365.98 L548.227 362.786 L554.425 361.536 L557.932 361.536 L557.932 384.505 L563.661 384.505 L563.661 387.456 L548.73 387.456 L548.73 384.505 Z" fill="#000000" fill-rule="evenodd" fill-opacity="1" /><path clip-path="url(#clip050)" d="M 0 0 M578.088 373.48 Q580.605 374.019 582.011 375.72 Q583.435 377.421 583.435 379.921 Q583.435 383.758 580.796 385.859 Q578.157 387.96 573.296 387.96 Q571.664 387.96 569.928 387.63 Q568.209 387.317 566.369 386.675 L566.369 383.289 Q567.827 384.14 569.563 384.574 Q571.3 385.008 573.192 385.008 Q576.491 385.008 578.209 383.706 Q579.945 382.404 579.945 379.921 Q579.945 377.63 578.331 376.345 Q576.734 375.043 573.869 375.043 L570.848 375.043 L570.848 372.161 L574.008 372.161 Q576.595 372.161 577.966 371.137 Q579.338 370.095 579.338 368.151 Q579.338 366.154 577.914 365.095 Q576.508 364.019 573.869 364.019 Q572.428 364.019 570.779 364.331 Q569.129 364.644 567.15 365.303 L567.15 362.178 Q569.147 361.623 570.883 361.345 Q572.636 361.067 574.181 361.067 Q578.175 361.067 580.501 362.89 Q582.827 364.696 582.827 367.786 Q582.827 369.939 581.595 371.432 Q580.362 372.908 578.088 373.48 Z" fill="#000000" fill-rule="evenodd" fill-opacity="1" /><path clip-path="url(#clip050)" d="M 0 0 M616.907 434.389 L622.636 434.389 L622.636 414.614 L616.403 415.864 L616.403 412.67 L622.601 411.42 L626.108 411.42 L626.108 434.389 L631.837 434.389 L631.837 437.34 L616.907 437.34 L616.907 434.389 Z" fill="#000000" fill-rule="evenodd" fill-opacity="1" /><path clip-path="url(#clip050)" d="M 0 0 M645.275 414.476 L636.42 428.312 L645.275 428.312 L645.275 414.476 M644.354 411.42 L648.764 411.42 L648.764 428.312 L652.462 428.312 L652.462 431.229 L648.764 431.229 L648.764 437.34 L645.275 437.34 L645.275 431.229 L633.573 431.229 L633.573 427.844 L644.354 411.42 Z" fill="#000000" fill-rule="evenodd" fill-opacity="1" /><path clip-path="url(#clip050)" d="M 0 0 M480.554 534.157 L486.283 534.157 L486.283 514.382 L480.05 515.632 L480.05 512.438 L486.248 511.188 L489.755 511.188 L489.755 534.157 L495.484 534.157 L495.484 537.108 L480.554 537.108 L480.554 534.157 Z" fill="#000000" fill-rule="evenodd" fill-opacity="1" /><path clip-path="url(#clip050)" d="M 0 0 M499.321 511.188 L513.088 511.188 L513.088 514.139 L502.533 514.139 L502.533 520.493 Q503.297 520.233 504.061 520.112 Q504.825 519.973 505.588 519.973 Q509.929 519.973 512.463 522.351 Q514.998 524.73 514.998 528.792 Q514.998 532.976 512.394 535.302 Q509.79 537.611 505.05 537.611 Q503.418 537.611 501.717 537.334 Q500.033 537.056 498.227 536.5 L498.227 532.976 Q499.79 533.827 501.457 534.243 Q503.123 534.66 504.981 534.66 Q507.984 534.66 509.738 533.08 Q511.491 531.5 511.491 528.792 Q511.491 526.084 509.738 524.504 Q507.984 522.924 504.981 522.924 Q503.575 522.924 502.168 523.237 Q500.779 523.549 499.321 524.209 L499.321 511.188 Z" fill="#000000" fill-rule="evenodd" fill-opacity="1" /><path clip-path="url(#clip050)" d="M 0 0 M480.554 135.085 L486.283 135.085 L486.283 115.311 L480.05 116.561 L480.05 113.366 L486.248 112.116 L489.755 112.116 L489.755 135.085 L495.484 135.085 L495.484 138.036 L480.554 138.036 L480.554 135.085 Z" fill="#000000" fill-rule="evenodd" fill-opacity="1" /><path clip-path="url(#clip050)" d="M 0 0 M506.786 125.727 Q504.286 125.727 502.845 127.064 Q501.422 128.401 501.422 130.745 Q501.422 133.088 502.845 134.425 Q504.286 135.762 506.786 135.762 Q509.286 135.762 510.727 134.425 Q512.168 133.071 512.168 130.745 Q512.168 128.401 510.727 127.064 Q509.304 125.727 506.786 125.727 M503.279 124.234 Q501.023 123.679 499.755 122.134 Q498.505 120.588 498.505 118.366 Q498.505 115.259 500.71 113.453 Q502.932 111.647 506.786 111.647 Q510.658 111.647 512.863 113.453 Q515.068 115.259 515.068 118.366 Q515.068 120.588 513.8 122.134 Q512.55 123.679 510.311 124.234 Q512.845 124.824 514.252 126.543 Q515.675 128.262 515.675 130.745 Q515.675 134.512 513.366 136.526 Q511.075 138.54 506.786 138.54 Q502.498 138.54 500.189 136.526 Q497.898 134.512 497.898 130.745 Q497.898 128.262 499.321 126.543 Q500.745 124.824 503.279 124.234 M501.995 118.696 Q501.995 120.71 503.245 121.838 Q504.512 122.967 506.786 122.967 Q509.043 122.967 510.311 121.838 Q511.595 120.71 511.595 118.696 Q511.595 116.682 510.311 115.554 Q509.043 114.425 506.786 114.425 Q504.512 114.425 503.245 115.554 Q501.995 116.682 501.995 118.696 Z" fill="#000000" fill-rule="evenodd" fill-opacity="1" /><path clip-path="url(#clip050)" d="M 0 0 M753.259 534.157 L758.989 534.157 L758.989 514.382 L752.756 515.632 L752.756 512.438 L758.954 511.188 L762.461 511.188 L762.461 534.157 L768.19 534.157 L768.19 537.108 L753.259 537.108 L753.259 534.157 Z" fill="#000000" fill-rule="evenodd" fill-opacity="1" /><path clip-path="url(#clip050)" d="M 0 0 M772.096 536.57 L772.096 533.375 Q773.416 534 774.77 534.33 Q776.124 534.66 777.426 534.66 Q780.898 534.66 782.721 532.334 Q784.561 529.99 784.822 525.233 Q783.815 526.726 782.27 527.525 Q780.725 528.323 778.85 528.323 Q774.961 528.323 772.686 525.98 Q770.429 523.618 770.429 519.539 Q770.429 515.546 772.791 513.132 Q775.152 510.719 779.075 510.719 Q783.572 510.719 785.933 514.174 Q788.311 517.612 788.311 524.174 Q788.311 530.302 785.395 533.966 Q782.495 537.611 777.582 537.611 Q776.263 537.611 774.909 537.351 Q773.554 537.091 772.096 536.57 M779.075 525.58 Q781.436 525.58 782.808 523.966 Q784.197 522.351 784.197 519.539 Q784.197 516.743 782.808 515.129 Q781.436 513.497 779.075 513.497 Q776.714 513.497 775.325 515.129 Q773.954 516.743 773.954 519.539 Q773.954 522.351 775.325 523.966 Q776.714 525.58 779.075 525.58 Z" fill="#000000" fill-rule="evenodd" fill-opacity="1" /><path clip-path="url(#clip050)" d="M 0 0 M688.798 683.809 L701.038 683.809 L701.038 686.76 L684.58 686.76 L684.58 683.809 Q686.576 681.743 690.014 678.27 Q693.468 674.781 694.354 673.774 Q696.038 671.881 696.698 670.579 Q697.375 669.26 697.375 667.993 Q697.375 665.927 695.916 664.625 Q694.475 663.323 692.149 663.323 Q690.5 663.323 688.659 663.895 Q686.836 664.468 684.753 665.632 L684.753 662.09 Q686.871 661.239 688.711 660.805 Q690.552 660.371 692.079 660.371 Q696.107 660.371 698.503 662.385 Q700.899 664.399 700.899 667.767 Q700.899 669.364 700.291 670.805 Q699.701 672.229 698.121 674.173 Q697.687 674.677 695.361 677.09 Q693.034 679.486 688.798 683.809 Z" fill="#000000" fill-rule="evenodd" fill-opacity="1" /><path clip-path="url(#clip050)" d="M 0 0 M705.447 683.809 L711.177 683.809 L711.177 664.034 L704.944 665.284 L704.944 662.09 L711.142 660.84 L714.649 660.84 L714.649 683.809 L720.378 683.809 L720.378 686.76 L705.447 686.76 L705.447 683.809 Z" fill="#000000" fill-rule="evenodd" fill-opacity="1" /><path clip-path="url(#clip050)" d="M 0 0 M756.975 135.085 L769.214 135.085 L769.214 138.036 L752.756 138.036 L752.756 135.085 Q754.752 133.019 758.19 129.547 Q761.645 126.057 762.53 125.05 Q764.214 123.158 764.874 121.856 Q765.551 120.536 765.551 119.269 Q765.551 117.203 764.093 115.901 Q762.652 114.599 760.325 114.599 Q758.676 114.599 756.836 115.172 Q755.013 115.745 752.93 116.908 L752.93 113.366 Q755.048 112.515 756.888 112.081 Q758.728 111.647 760.256 111.647 Q764.284 111.647 766.679 113.661 Q769.075 115.675 769.075 119.043 Q769.075 120.64 768.468 122.081 Q767.877 123.505 766.297 125.449 Q765.863 125.953 763.537 128.366 Q761.211 130.762 756.975 135.085 Z" fill="#000000" fill-rule="evenodd" fill-opacity="1" /><path clip-path="url(#clip050)" d="M 0 0 M776.037 135.085 L788.277 135.085 L788.277 138.036 L771.818 138.036 L771.818 135.085 Q773.815 133.019 777.252 129.547 Q780.707 126.057 781.593 125.05 Q783.277 123.158 783.936 121.856 Q784.613 120.536 784.613 119.269 Q784.613 117.203 783.155 115.901 Q781.714 114.599 779.388 114.599 Q777.738 114.599 775.898 115.172 Q774.075 115.745 771.992 116.908 L771.992 113.366 Q774.11 112.515 775.95 112.081 Q777.79 111.647 779.318 111.647 Q783.346 111.647 785.742 113.661 Q788.138 115.675 788.138 119.043 Q788.138 120.64 787.53 122.081 Q786.94 123.505 785.36 125.449 Q784.926 125.953 782.599 128.366 Q780.273 130.762 776.037 135.085 Z" fill="#000000" fill-rule="evenodd" fill-opacity="1" /><path clip-path="url(#clip050)" d="M 0 0 M620.622 234.853 L632.861 234.853 L632.861 237.804 L616.403 237.804 L616.403 234.853 Q618.4 232.787 621.837 229.315 Q625.292 225.825 626.177 224.818 Q627.861 222.926 628.521 221.624 Q629.198 220.304 629.198 219.037 Q629.198 216.971 627.74 215.669 Q626.299 214.367 623.973 214.367 Q622.323 214.367 620.483 214.94 Q618.66 215.513 616.577 216.676 L616.577 213.134 Q618.695 212.283 620.535 211.849 Q622.375 211.415 623.903 211.415 Q627.931 211.415 630.327 213.429 Q632.723 215.443 632.723 218.811 Q632.723 220.408 632.115 221.849 Q631.525 223.273 629.945 225.217 Q629.511 225.721 627.184 228.134 Q624.858 230.53 620.622 234.853 Z" fill="#000000" fill-rule="evenodd" fill-opacity="1" /><path clip-path="url(#clip050)" d="M 0 0 M647.288 223.829 Q649.806 224.367 651.212 226.068 Q652.636 227.769 652.636 230.269 Q652.636 234.106 649.997 236.207 Q647.358 238.308 642.497 238.308 Q640.865 238.308 639.129 237.978 Q637.41 237.665 635.57 237.023 L635.57 233.637 Q637.028 234.488 638.764 234.922 Q640.5 235.356 642.393 235.356 Q645.691 235.356 647.41 234.054 Q649.146 232.752 649.146 230.269 Q649.146 227.978 647.531 226.693 Q645.934 225.391 643.07 225.391 L640.049 225.391 L640.049 222.509 L643.209 222.509 Q645.795 222.509 647.167 221.485 Q648.538 220.443 648.538 218.499 Q648.538 216.502 647.115 215.443 Q645.709 214.367 643.07 214.367 Q641.629 214.367 639.979 214.679 Q638.33 214.992 636.351 215.651 L636.351 212.526 Q638.347 211.971 640.084 211.693 Q641.837 211.415 643.382 211.415 Q647.375 211.415 649.702 213.238 Q652.028 215.044 652.028 218.134 Q652.028 220.287 650.795 221.78 Q649.563 223.256 647.288 223.829 Z" fill="#000000" fill-rule="evenodd" fill-opacity="1" /><path clip-path="url(#clip050)" d="M 0 0 M688.798 284.737 L701.038 284.737 L701.038 287.688 L684.58 287.688 L684.58 284.737 Q686.576 282.671 690.014 279.199 Q693.468 275.709 694.354 274.702 Q696.038 272.81 696.698 271.508 Q697.375 270.188 697.375 268.921 Q697.375 266.855 695.916 265.553 Q694.475 264.251 692.149 264.251 Q690.5 264.251 688.659 264.824 Q686.836 265.397 684.753 266.56 L684.753 263.018 Q686.871 262.167 688.711 261.733 Q690.552 261.299 692.079 261.299 Q696.107 261.299 698.503 263.313 Q700.899 265.327 700.899 268.695 Q700.899 270.292 700.291 271.733 Q699.701 273.157 698.121 275.101 Q697.687 275.605 695.361 278.018 Q693.034 280.414 688.798 284.737 Z" fill="#000000" fill-rule="evenodd" fill-opacity="1" /><path clip-path="url(#clip050)" d="M 0 0 M714.475 264.824 L705.621 278.66 L714.475 278.66 L714.475 264.824 M713.555 261.768 L717.965 261.768 L717.965 278.66 L721.663 278.66 L721.663 281.577 L717.965 281.577 L717.965 287.688 L714.475 287.688 L714.475 281.577 L702.774 281.577 L702.774 278.192 L713.555 261.768 Z" fill="#000000" fill-rule="evenodd" fill-opacity="1" /><circle clip-path="url(#clip052)" cx="684.58" cy="95.9282" r="14" fill="#0000ff" fill-rule="evenodd" fill-opacity="1" stroke="none"/>
<path clip-path="url(#clip050)" d="M 0 0 M688.798 85.2008 L701.038 85.2008 L701.038 88.1522 L684.58 88.1522 L684.58 85.2008 Q686.576 83.1349 690.014 79.6627 Q693.468 76.1731 694.354 75.1662 Q696.038 73.2738 696.698 71.9718 Q697.375 70.6523 697.375 69.385 Q697.375 67.319 695.916 66.0169 Q694.475 64.7148 692.149 64.7148 Q690.5 64.7148 688.659 65.2878 Q686.836 65.8607 684.753 67.0239 L684.753 63.4822 Q686.871 62.6315 688.711 62.1975 Q690.552 61.7635 692.079 61.7635 Q696.107 61.7635 698.503 63.7774 Q700.899 65.7912 700.899 69.1593 Q700.899 70.7565 700.291 72.1974 Q699.701 73.621 698.121 75.5655 Q697.687 76.069 695.361 78.4821 Q693.034 80.878 688.798 85.2008 Z" fill="#000000" fill-rule="evenodd" fill-opacity="1" /><path clip-path="url(#clip050)" d="M 0 0 M705.447 85.2008 L711.177 85.2008 L711.177 65.4266 L704.944 66.6766 L704.944 63.4822 L711.142 62.2322 L714.649 62.2322 L714.649 85.2008 L720.378 85.2008 L720.378 88.1522 L705.447 88.1522 L705.447 85.2008 Z" fill="#000000" fill-rule="evenodd" fill-opacity="1" /></svg>
