<?xml version="1.0" encoding="utf-8"?>
<!-- Generator: Adobe Illustrator 24.2.3, SVG Export Plug-In . SVG Version: 6.00 Build 0)  -->
<svg version="1.1" xmlns="http://www.w3.org/2000/svg" xmlns:xlink="http://www.w3.org/1999/xlink" x="0px" y="0px"
	 viewBox="0 0 395.4 157" style="enable-background:new 0 0 395.4 157;" xml:space="preserve">
<style type="text/css">
	.st0{fill:none;stroke:#000000;stroke-miterlimit:10;}
	.st1{fill:#CD3B33;stroke:#FFFFFF;stroke-width:4;stroke-miterlimit:10;}
	.st2{fill:#339946;stroke:#FFFFFF;stroke-width:4;stroke-miterlimit:10;}
	.st3{fill:#9259A4;stroke:#FFFFFF;stroke-width:4;stroke-miterlimit:10;}
	.st4{fill:#4167B0;}
	.st5{fill:none;stroke:#000000;stroke-width:2;stroke-miterlimit:10;}
</style>
<g id="Layer_1">
	<line class="st0" x1="29" y1="128.5" x2="137" y2="128.5"/>
	<line class="st0" x1="29" y1="74.5" x2="137" y2="74.5"/>
	<line class="st0" x1="29" y1="20.5" x2="137" y2="20.5"/>
	<line class="st0" x1="65" y1="128.5" x2="137" y2="20.5"/>
	<line class="st0" x1="29" y1="128.5" x2="11" y2="101.5"/>
	<line class="st0" x1="65" y1="20.5" x2="11" y2="101.5"/>
	<line class="st0" x1="29" y1="20.5" x2="101" y2="128.5"/>
	<line class="st0" x1="137" y1="128.5" x2="155" y2="101.5"/>
	<line class="st0" x1="101" y1="20.5" x2="155" y2="101.5"/>
	<g>
		<path d="M212.7,82.5v4.3h-17.3v45.8h-12.3V86.7h-17.3v-4.3H212.7z"/>
		<path d="M229.1,133.2c-3,0-5.8-0.5-8.3-1.5c-2.6-1-4.8-2.3-6.6-4.1c-1.9-1.7-3.3-3.8-4.3-6.1c-1-2.3-1.6-4.9-1.6-7.6
			c0-2.9,0.5-5.6,1.6-8c1-2.4,2.5-4.6,4.3-6.3c1.9-1.8,4-3.2,6.6-4.1c2.5-1,5.3-1.5,8.3-1.5c3,0,5.8,0.5,8.3,1.5
			c2.6,1,4.8,2.3,6.6,4c1.9,1.7,3.3,3.7,4.4,6c1.1,2.3,1.6,4.8,1.6,7.4c0,2.8-0.5,5.4-1.6,7.9s-2.5,4.6-4.4,6.5
			c-1.9,1.8-4.1,3.3-6.6,4.4C234.9,132.7,232.1,133.2,229.1,133.2z M230.4,128.6c1.1,0,2-0.3,2.9-1c0.9-0.7,1.6-1.6,2.3-2.7
			c0.6-1.1,1.1-2.5,1.5-4c0.4-1.5,0.5-3.1,0.5-4.7c0-2.4-0.2-4.7-0.5-6.8c-0.4-2.1-0.9-4-1.7-5.6c-0.8-1.6-1.9-2.9-3.2-3.8
			c-1.3-0.9-2.9-1.4-4.8-1.4c-0.9,0-1.8,0.3-2.6,1c-0.8,0.7-1.6,1.6-2.2,2.7s-1.1,2.4-1.5,3.9s-0.6,3-0.6,4.6c0,2.4,0.2,4.7,0.7,6.9
			c0.4,2.2,1.1,4,2,5.7s1.9,2.9,3.1,3.8C227.5,128.2,228.9,128.6,230.4,128.6z"/>
		<path d="M273.2,133.2c-3,0-5.8-0.5-8.3-1.5s-4.8-2.3-6.6-4.1s-3.3-3.8-4.3-6.1c-1-2.3-1.6-4.9-1.6-7.6c0-2.9,0.5-5.6,1.6-8
			c1-2.4,2.5-4.6,4.3-6.3c1.9-1.8,4-3.2,6.6-4.1c2.5-1,5.3-1.5,8.3-1.5s5.8,0.5,8.3,1.5c2.6,1,4.8,2.3,6.6,4c1.9,1.7,3.3,3.7,4.4,6
			c1.1,2.3,1.6,4.8,1.6,7.4c0,2.8-0.5,5.4-1.6,7.9s-2.5,4.6-4.4,6.5c-1.9,1.8-4.1,3.3-6.6,4.4S276.2,133.2,273.2,133.2z
			 M274.5,128.6c1.1,0,2-0.3,2.9-1c0.9-0.7,1.6-1.6,2.3-2.7c0.6-1.1,1.1-2.5,1.5-4c0.4-1.5,0.5-3.1,0.5-4.7c0-2.4-0.2-4.7-0.5-6.8
			c-0.4-2.1-0.9-4-1.7-5.6c-0.8-1.6-1.9-2.9-3.2-3.8c-1.3-0.9-2.9-1.4-4.8-1.4c-0.9,0-1.8,0.3-2.6,1s-1.6,1.6-2.2,2.7
			s-1.1,2.4-1.5,3.9s-0.6,3-0.6,4.6c0,2.4,0.2,4.7,0.7,6.9c0.4,2.2,1.1,4,2,5.7s1.9,2.9,3.1,3.8S273,128.6,274.5,128.6z"/>
		<path d="M309.9,132.5h-11.4V79.6l11.4-3.2V132.5z"/>
		<path d="M320.8,122c0.7,2,1.6,3.6,2.9,4.8s2.8,1.7,4.7,1.7c0.8,0,1.5-0.1,2.2-0.3s1.2-0.5,1.7-0.8s0.8-0.8,1.1-1.2
			c0.3-0.5,0.4-1,0.4-1.5c0-0.9-0.2-1.7-0.5-2.4s-0.8-1.3-1.4-1.9s-1.3-1.1-2.1-1.6c-0.8-0.5-1.7-0.9-2.6-1.4
			c-1.5-0.7-3-1.4-4.4-2.1s-2.8-1.7-4-2.7c-1.2-1-2.1-2.1-2.9-3.4c-0.7-1.3-1.1-2.8-1.1-4.4c0-1.6,0.3-3,1-4.4
			c0.7-1.3,1.6-2.4,2.8-3.4c1.2-0.9,2.6-1.7,4.3-2.2c1.7-0.5,3.5-0.8,5.5-0.8c1.9,0,3.5,0.2,4.9,0.5c1.4,0.3,2.7,0.8,3.8,1.5
			c1.1,0.6,2,1.4,2.9,2.3s1.6,1.9,2.3,3.1l-6.6,2.3c-0.4-1.2-0.8-2.2-1.3-2.8s-1-1.2-1.5-1.5c-0.5-0.3-1.1-0.5-1.6-0.6
			s-1-0.1-1.4-0.1c-0.7,0-1.4,0.1-2,0.2c-0.6,0.2-1.2,0.4-1.7,0.7c-0.5,0.3-0.9,0.7-1.2,1.1c-0.3,0.4-0.4,0.9-0.4,1.5
			c0,0.7,0.2,1.4,0.6,2s0.9,1.2,1.5,1.8c0.7,0.6,1.4,1.1,2.3,1.6s1.9,1,2.9,1.4c1.6,0.7,3.2,1.4,4.7,2.2s2.9,1.7,4,2.7
			s2.1,2.2,2.8,3.4c0.7,1.2,1.1,2.6,1.1,4.2c0,1.6-0.3,3.2-0.8,4.6c-0.5,1.4-1.4,2.7-2.6,3.7c-1.2,1.1-2.8,1.9-4.7,2.5
			s-4.3,0.9-7,0.9c-2.3,0-4.3-0.3-6-0.8s-3-1.2-4.2-2.1c-1.1-0.9-2.1-1.8-2.8-2.9s-1.4-2.1-2-3.1L320.8,122z"/>
		<path d="M348.2,128.2c0-0.7,0.1-1.4,0.4-2c0.3-0.6,0.6-1.2,1.1-1.6s1-0.8,1.6-1.1c0.6-0.3,1.3-0.4,2-0.4s1.4,0.1,2,0.4
			c0.6,0.3,1.2,0.6,1.6,1.1s0.8,1,1.1,1.6c0.3,0.6,0.4,1.3,0.4,2s-0.1,1.4-0.4,2c-0.3,0.6-0.6,1.2-1.1,1.6s-1,0.8-1.6,1.1
			s-1.3,0.4-2,0.4s-1.4-0.1-2-0.4c-0.6-0.3-1.2-0.6-1.6-1.1s-0.8-1-1.1-1.6C348.3,129.6,348.2,128.9,348.2,128.2z"/>
		<path d="M375.4,132.5c0,3.4-0.4,6.1-1.1,8.1c-0.8,2.1-1.8,3.6-3.2,4.8c-1.4,1.1-3,1.9-5,2.3c-1.9,0.4-4.1,0.6-6.5,0.6
			c-1.6,0-3-0.1-4.3-0.4s-2.3-0.6-3.1-1.1s-1.5-1-1.9-1.6s-0.7-1.3-0.7-2c0-1.2,0.5-2.2,1.4-3s2.2-1.2,3.8-1.2
			c0.6,0,1.2,0.1,1.6,0.3s0.9,0.4,1.3,0.7s0.7,0.6,1,0.9s0.5,0.7,0.8,1c0.5,0.7,1,1.2,1.4,1.4c0.4,0.2,0.7,0.4,1,0.4
			c0.3,0,0.6-0.1,0.9-0.2c0.3-0.2,0.5-0.5,0.6-0.9c0.2-0.4,0.3-1,0.4-1.7c0.1-0.7,0.1-1.6,0.1-2.7V96.8l11.5-3.2V132.5z M363.4,82.8
			c0-0.8,0.2-1.5,0.5-2.2c0.3-0.7,0.8-1.3,1.3-1.8c0.6-0.5,1.2-0.9,2-1.2c0.8-0.3,1.5-0.4,2.4-0.4s1.6,0.1,2.4,0.4
			c0.8,0.3,1.4,0.7,2,1.2c0.6,0.5,1,1.1,1.3,1.8c0.3,0.7,0.5,1.4,0.5,2.2s-0.2,1.5-0.5,2.2c-0.3,0.7-0.8,1.3-1.3,1.8s-1.2,0.9-2,1.2
			c-0.8,0.3-1.5,0.4-2.4,0.4s-1.6-0.1-2.4-0.4c-0.8-0.3-1.4-0.7-2-1.2s-1-1.1-1.3-1.8C363.5,84.3,363.4,83.5,363.4,82.8z"/>
		<path d="M393.3,132.5h-11.4V79.6l11.4-3.2V132.5z"/>
	</g>
	<circle class="st1" cx="137" cy="20.5" r="9"/>
	<circle class="st2" cx="155" cy="101.5" r="9"/>
	<circle class="st2" cx="11" cy="101.5" r="9"/>
	<circle class="st3" cx="29" cy="128.5" r="9"/>
	<circle class="st3" cx="29" cy="20.5" r="9"/>
	<circle class="st1" cx="65" cy="128.5" r="9"/>
	<circle class="st2" cx="83" cy="101.5" r="9"/>
	<circle class="st3" cx="137" cy="74.5" r="9"/>
	<circle class="st1" cx="29" cy="74.5" r="9"/>
	<circle class="st2" cx="47" cy="47.5" r="9"/>
	<circle class="st3" cx="65" cy="74.5" r="9"/>
	<circle class="st1" cx="65" cy="20.5" r="9"/>
	<path d="M166.9,15.5h12.3v44.9h25.6v5.1h-37.8V15.5z"/>
	<path d="M238.2,65.5h-11.5v-3c-0.6,0.5-1.3,1-1.9,1.5c-0.6,0.4-1.3,0.8-2,1.2c-0.7,0.3-1.6,0.6-2.5,0.8c-0.9,0.2-2.1,0.3-3.3,0.3
		c-1.7,0-3.3-0.2-4.7-0.7c-1.4-0.5-2.6-1.2-3.6-2.1c-1-0.9-1.7-1.9-2.2-3.1c-0.5-1.2-0.8-2.5-0.8-3.9c0-1.5,0.3-2.8,0.8-3.9
		c0.6-1.2,1.3-2.2,2.3-3.1c0.9-0.9,2.1-1.8,3.3-2.5c1.3-0.8,2.6-1.4,4.1-2c1.5-0.6,3-1.2,4.6-1.7c1.6-0.5,3.1-1,4.6-1.5l1.3-0.3
		v-3.8c0-1.2-0.1-2.2-0.4-3.1s-0.6-1.5-1-2.1s-1-0.9-1.6-1.1c-0.6-0.2-1.3-0.4-2.1-0.4c-0.9,0-1.7,0.1-2.3,0.4
		c-0.6,0.2-1.1,0.6-1.5,1c-0.4,0.4-0.6,0.9-0.8,1.4c-0.2,0.5-0.2,1.1-0.2,1.7c0,0.7-0.1,1.4-0.2,2.1c-0.2,0.7-0.4,1.2-0.8,1.7
		c-0.4,0.5-0.9,0.9-1.6,1.2c-0.7,0.3-1.5,0.5-2.6,0.5c-0.8,0-1.5-0.1-2.2-0.4s-1.2-0.6-1.7-1c-0.5-0.4-0.8-0.9-1.1-1.5
		c-0.3-0.6-0.4-1.2-0.4-1.9c0-1.3,0.4-2.5,1.3-3.6c0.9-1.1,2.1-2.1,3.6-2.9c1.5-0.8,3.3-1.5,5.2-1.9c2-0.5,4.1-0.7,6.3-0.7
		c2.7,0,5,0.2,7,0.7s3.6,1.2,4.8,2.1c1.3,0.9,2.2,2,2.8,3.2s0.9,2.7,0.9,4.3V65.5z M226.7,46c-1.1,0.5-2.2,1-3.3,1.6
		c-1.1,0.6-2.1,1.3-3.1,2s-1.7,1.5-2.2,2.4c-0.6,0.8-0.9,1.7-0.9,2.6c0,0.7,0.1,1.4,0.3,2.1c0.2,0.6,0.4,1.2,0.8,1.7
		c0.3,0.5,0.7,0.9,1.1,1.1c0.4,0.3,0.8,0.4,1.3,0.4c0.9,0,1.9-0.3,2.8-0.9c1-0.6,2-1.3,3.2-2.2V46z"/>
	<path d="M242.6,32.4v-3.8c1.4,0,2.6-0.3,3.8-1c1.2-0.7,2.3-1.6,3.3-2.8c1-1.2,1.8-2.5,2.5-4.1c0.7-1.6,1.2-3.2,1.6-5h6.3v12h9.3
		v4.6h-9.3v24.4c0,0.8,0.2,1.4,0.6,2s0.9,0.8,1.6,0.8c0.4,0,0.8-0.1,1.3-0.4c0.5-0.3,0.9-0.6,1.3-0.9s0.8-0.7,1.1-1.1
		c0.3-0.4,0.6-0.6,0.7-0.8l3.9,3.1c-0.6,1-1.3,1.9-2.1,2.7c-0.8,0.8-1.6,1.6-2.6,2.2c-1,0.6-2.1,1.1-3.4,1.5
		c-1.3,0.4-2.8,0.5-4.4,0.5c-1.6,0-3-0.2-4.2-0.7c-1.2-0.5-2.2-1.1-3-1.9c-0.8-0.8-1.4-1.8-1.8-2.9c-0.4-1.1-0.6-2.4-0.6-3.8V32.4
		H242.6z"/>
	<path d="M270,32.4v-3.8c1.4,0,2.6-0.3,3.8-1c1.2-0.7,2.3-1.6,3.3-2.8c1-1.2,1.8-2.5,2.5-4.1c0.7-1.6,1.2-3.2,1.6-5h6.3v12h9.3v4.6
		h-9.3v24.4c0,0.8,0.2,1.4,0.6,2s0.9,0.8,1.6,0.8c0.4,0,0.8-0.1,1.3-0.4c0.5-0.3,0.9-0.6,1.3-0.9s0.8-0.7,1.1-1.1
		c0.3-0.4,0.6-0.6,0.7-0.8l3.9,3.1c-0.6,1-1.3,1.9-2.1,2.7c-0.8,0.8-1.6,1.6-2.6,2.2c-1,0.6-2.1,1.1-3.4,1.5
		c-1.3,0.4-2.8,0.5-4.4,0.5c-1.6,0-3-0.2-4.2-0.7c-1.2-0.5-2.2-1.1-3-1.9c-0.8-0.8-1.4-1.8-1.8-2.9c-0.4-1.1-0.6-2.4-0.6-3.8V32.4
		H270z"/>
	<path class="st4" d="M300.4,15.8c0-0.8,0.2-1.5,0.5-2.2c0.3-0.7,0.8-1.3,1.3-1.8c0.6-0.5,1.2-0.9,2-1.2c0.8-0.3,1.5-0.4,2.4-0.4
		s1.6,0.1,2.4,0.4c0.8,0.3,1.4,0.7,2,1.2c0.6,0.5,1,1.1,1.3,1.8c0.3,0.7,0.5,1.4,0.5,2.2s-0.2,1.5-0.5,2.2c-0.3,0.7-0.8,1.3-1.3,1.8
		s-1.2,0.9-2,1.2c-0.8,0.3-1.5,0.4-2.4,0.4s-1.6-0.1-2.4-0.4c-0.8-0.3-1.4-0.7-2-1.2s-1-1.1-1.3-1.8
		C300.5,17.3,300.4,16.5,300.4,15.8z"/>
	<polygon points="300.9,29.8 312.3,26.7 312.3,65.5 300.9,65.5 	"/>
	<path d="M336.6,31.6c-1.2,0-2.3,0.3-3.3,0.9c-1,0.6-1.8,1.4-2.5,2.5c-0.7,1-1.2,2.3-1.6,3.6s-0.6,2.8-0.6,4.3c0,2.1,0.2,4.1,0.7,6
		c0.5,1.9,1.2,3.6,2,5.1c0.9,1.5,1.9,2.6,3.1,3.5c1.2,0.9,2.6,1.3,4.1,1.3c1.3,0,2.4-0.3,3.4-0.8c1-0.5,1.9-1.2,2.8-2.1
		s1.6-1.9,2.3-3.1c0.7-1.2,1.3-2.4,1.9-3.7l5.4,1.4c-0.6,2.5-1.5,4.7-2.6,6.6s-2.5,3.6-4,4.9c-1.6,1.3-3.3,2.3-5.3,3s-4.1,1-6.5,1
		c-2.6,0-5-0.5-7.3-1.5s-4.3-2.3-6-4.1c-1.7-1.7-3-3.7-4-6c-1-2.3-1.5-4.7-1.5-7.2c0-2.8,0.5-5.4,1.6-7.9c1.1-2.5,2.5-4.6,4.3-6.5
		s3.9-3.3,6.4-4.4c2.4-1.1,5-1.6,7.8-1.6c2.3,0,4.4,0.2,6.3,0.7c1.9,0.5,3.5,1.1,4.8,2s2.3,1.8,3.1,3c0.7,1.1,1.1,2.4,1.1,3.7
		c0,0.6-0.2,1.2-0.6,1.8s-0.9,1.1-1.5,1.5c-0.6,0.4-1.3,0.8-2.1,1s-1.6,0.4-2.4,0.4c-0.9,0-1.7-0.1-2.4-0.4c-0.7-0.3-1.3-0.6-1.7-1
		c-0.5-0.4-0.8-0.9-1.1-1.4c-0.2-0.5-0.4-1.1-0.4-1.7s0-1.1-0.1-1.7s-0.2-1.1-0.4-1.6c-0.2-0.5-0.6-0.9-1.1-1.2
		C338.2,31.8,337.5,31.6,336.6,31.6z"/>
	<path d="M376.1,66.4c-2.7,0-5.2-0.5-7.6-1.5s-4.4-2.3-6.2-4s-3.1-3.7-4.1-5.9c-1-2.2-1.5-4.6-1.5-7.1c0-3,0.5-5.7,1.4-8.3
		c0.9-2.5,2.3-4.7,4-6.6s3.8-3.3,6.2-4.4s5.1-1.6,8.1-1.6c2.6,0,5,0.4,7.2,1.2c2.2,0.8,4.1,2,5.6,3.4c1.6,1.5,2.8,3.2,3.6,5.1
		c0.9,2,1.3,4.1,1.3,6.3h-26.2c0.1,2.1,0.4,4.1,0.9,6s1.2,3.6,2.1,5c0.9,1.5,1.9,2.6,3.1,3.5c1.2,0.9,2.5,1.3,4,1.3
		c1.3,0,2.5-0.2,3.7-0.7c1.2-0.4,2.3-1,3.4-1.8c1-0.8,1.9-1.6,2.7-2.7c0.8-1,1.3-2.1,1.7-3.2l5.9,0.9c-0.6,2-1.5,4-2.8,5.8
		c-1.3,1.8-2.8,3.4-4.6,4.7c-1.7,1.3-3.6,2.4-5.7,3.2S378.2,66.4,376.1,66.4z M380.9,39.3c-0.1-1.1-0.3-2.1-0.7-3.1
		s-0.9-1.7-1.5-2.4c-0.6-0.7-1.3-1.2-2.1-1.5c-0.8-0.4-1.6-0.5-2.5-0.5c-0.7,0-1.4,0.2-2.1,0.5s-1.3,0.9-1.9,1.5
		c-0.6,0.7-1,1.4-1.4,2.4c-0.4,0.9-0.6,2-0.8,3.1H380.9z"/>
	<circle class="st3" cx="101" cy="20.5" r="9"/>
	<circle class="st1" cx="101" cy="74.5" r="9"/>
	<circle class="st3" cx="101" cy="128.5" r="9"/>
	<circle class="st1" cx="137" cy="128.5" r="9"/>
	<circle class="st2" cx="119" cy="47.5" r="9"/>
	<g>
		<g>
			<line class="st5" x1="273.2" y1="105.6" x2="273.2" y2="116.8"/>
			<g>
				<path d="M273.2,121c-0.7-2-2-4.5-3.3-6l3.3,1.2l3.3-1.2C275.2,116.5,274,119,273.2,121z"/>
			</g>
		</g>
	</g>
	<g>
		<g>
			<line class="st5" x1="229.1" y1="109.8" x2="229.1" y2="121"/>
			<g>
				<path d="M229.1,105.6c-0.7,2-2,4.5-3.3,6l3.3-1.2l3.3,1.2C231.1,110,229.9,107.6,229.1,105.6z"/>
			</g>
		</g>
	</g>
</g>
<g id="Layer_2">
</g>
</svg>
